<?xml version="1.0" encoding="UTF-8" standalone="no"?>
<!DOCTYPE svg PUBLIC "-//W3C//DTD SVG 1.1//EN"
 "http://www.w3.org/Graphics/SVG/1.1/DTD/svg11.dtd">
<!-- Generated by graphviz version 2.44.0 ()
 -->
<!-- Title: chempot Pages: 1 -->
<!--zoomable 107 -->
<svg id="main" version="1.1" xmlns="http://www.w3.org/2000/svg" xmlns:xlink="http://www.w3.org/1999/xlink" xml:space="preserve" onload="init(evt)">
<style type="text/css"><![CDATA[
.edge:hover path { stroke: red; }
.edge:hover polygon { stroke: red; fill: red; }
]]></style>
<script type="text/javascript"><![CDATA[
var edges = document.getElementsByTagName('g');
if (edges && edges.length) {
  for (var i=0;i<edges.length;i++) {
    if (edges[i].id.substr(0,4)=='edge') {
      edges[i].setAttribute('class','edge');
    }
  }
}
]]></script>
        <defs>
                <circle id="rim" cx="0" cy="0" r="7"/>
                <circle id="rim2" cx="0" cy="0" r="3.5"/>
                <g id="zoomPlus">
                        <use xlink:href="#rim" fill="#404040">
                                <set attributeName="fill" to="#808080" begin="zoomplus.mouseover" end="zoomplus.mouseout"/>
                        </use>
                        <path d="M-4,0h8M0,-4v8" fill="none" stroke="white" stroke-width="1.5" pointer-events="none"/>
                </g>
                <g id="zoomMin">
                        <use xlink:href="#rim" fill="#404040">
                                <set attributeName="fill" to="#808080" begin="zoomminus.mouseover" end="zoomminus.mouseout"/>
                        </use>
                        <path d="M-4,0h8" fill="none" stroke="white" stroke-width="1.5" pointer-events="none"/>
                </g>
                <g id="dirArrow">
                        <path fill="none" stroke="white" stroke-width="1.5" d="M0,-3.0v7 M-2.5,-0.5L0,-3.0L2.5,-0.5"/>
                </g>
               <g id="resetDef">
                       <use xlink:href="#rim2" fill="#404040">
                               <set attributeName="fill" to="#808080" begin="reset.mouseover" end="reset.mouseout"/>
                       </use>
               </g>
        </defs>

<script type="text/javascript">
var viewWidth = 634;
var viewHeight = 107;
var sectionId = 'dynsection-0';
</script>
<script xlink:href="svgpan.js"/>
<svg id="graph" class="graph">
<g id="viewport">
<title>chempot</title>
<polygon fill="white" stroke="transparent" points="-4,4 -4,-103.06 630,-103.06 630,4 -4,4"/>
<!-- Node1 -->
<g id="node1" class="node">
<title>Node1</title>
<g id="a_node1"><a xlink:title="Given a temperature temp [K], density den [g/cm**3], and a composition characterized by y_e,...">
<polygon fill="#bfbfbf" stroke="black" points="0,-25.06 0,-44.06 54,-44.06 54,-25.06 0,-25.06"/>
<text text-anchor="middle" x="27" y="-32.06" font-family="Helvetica,sans-Serif" font-size="10.00">chempot</text>
</a>
</g>
</g>
<!-- Node2 -->
<g id="node2" class="node">
<title>Node2</title>
<g id="a_node2"><a xlink:href="namespaceerror__msg__class.html#a5bc9f3b670b725cc43276934b867d801" target="_top" xlink:title="Converts a given real to a string with format &quot;(1pE10.2)&quot;.">
<polygon fill="white" stroke="black" points="90,-68.56 90,-98.56 202,-98.56 202,-68.56 90,-68.56"/>
<text text-anchor="start" x="98" y="-86.56" font-family="Helvetica,sans-Serif" font-size="10.00">error_msg_class::num</text>
<text text-anchor="middle" x="146" y="-75.56" font-family="Helvetica,sans-Serif" font-size="10.00">_to_str</text>
</a>
</g>
</g>
<!-- Node1&#45;&gt;Node2 -->
<g id="edge1" class="edge">
<title>Node1&#45;&gt;Node2</title>
<path fill="none" stroke="midnightblue" d="M50.84,-44.12C64.62,-49.9 82.68,-57.46 99.3,-64.42"/>
<polygon fill="midnightblue" stroke="midnightblue" points="98.29,-67.79 108.87,-68.42 100.99,-61.33 98.29,-67.79"/>
</g>
<!-- Node3 -->
<g id="node3" class="node">
<title>Node3</title>
<g id="a_node3"><a xlink:href="namespacefile__handling__class.html#aab870caaf9cbaaf635d537708efbf793" target="_top" xlink:title="Same for reading (input file)">
<polygon fill="white" stroke="black" points="97,-19.56 97,-49.56 195,-49.56 195,-19.56 97,-19.56"/>
<text text-anchor="start" x="105" y="-37.56" font-family="Helvetica,sans-Serif" font-size="10.00">file_handling_class</text>
<text text-anchor="middle" x="146" y="-26.56" font-family="Helvetica,sans-Serif" font-size="10.00">::open_infile</text>
</a>
</g>
</g>
<!-- Node1&#45;&gt;Node3 -->
<g id="edge2" class="edge">
<title>Node1&#45;&gt;Node3</title>
<path fill="none" stroke="midnightblue" d="M54.26,-34.56C63.85,-34.56 75.13,-34.56 86.41,-34.56"/>
<polygon fill="midnightblue" stroke="midnightblue" points="86.72,-38.06 96.72,-34.56 86.72,-31.06 86.72,-38.06"/>
</g>
<!-- Node5 -->
<g id="node5" class="node">
<title>Node5</title>
<g id="a_node5"><a xlink:href="namespaceerror__msg__class.html#a2453d3b7cb363115c046840baa1dfb75" target="_top" xlink:title="Raise a exception with a given error message.">
<polygon fill="white" stroke="black" points="372,-13.56 372,-43.56 486,-43.56 486,-13.56 372,-13.56"/>
<text text-anchor="start" x="380" y="-31.56" font-family="Helvetica,sans-Serif" font-size="10.00">error_msg_class::raise</text>
<text text-anchor="middle" x="429" y="-20.56" font-family="Helvetica,sans-Serif" font-size="10.00">_exception</text>
</a>
</g>
</g>
<!-- Node1&#45;&gt;Node5 -->
<g id="edge7" class="edge">
<title>Node1&#45;&gt;Node5</title>
<path fill="none" stroke="midnightblue" d="M46.42,-24.95C58.46,-19.23 74.73,-12.52 90,-9.56 183.02,8.49 292.94,-3.73 361.57,-15.25"/>
<polygon fill="midnightblue" stroke="midnightblue" points="361.36,-18.77 371.81,-17.02 362.55,-11.87 361.36,-18.77"/>
</g>
<!-- Node4 -->
<g id="node4" class="node">
<title>Node4</title>
<g id="a_node4"><a xlink:href="namespacefile__handling__class.html#af02196bd5eaf70ecd5ab4cc650094d5e" target="_top" xlink:title="Finds the next unused unit number.">
<polygon fill="white" stroke="black" points="238,-57.56 238,-87.56 336,-87.56 336,-57.56 238,-57.56"/>
<text text-anchor="start" x="246" y="-75.56" font-family="Helvetica,sans-Serif" font-size="10.00">file_handling_class</text>
<text text-anchor="middle" x="287" y="-64.56" font-family="Helvetica,sans-Serif" font-size="10.00">::get_next_io_unit</text>
</a>
</g>
</g>
<!-- Node3&#45;&gt;Node4 -->
<g id="edge3" class="edge">
<title>Node3&#45;&gt;Node4</title>
<path fill="none" stroke="midnightblue" d="M195.23,-47.74C205.79,-50.63 217.08,-53.72 227.99,-56.7"/>
<polygon fill="midnightblue" stroke="midnightblue" points="227.29,-60.14 237.86,-59.4 229.14,-53.38 227.29,-60.14"/>
</g>
<!-- Node3&#45;&gt;Node5 -->
<g id="edge6" class="edge">
<title>Node3&#45;&gt;Node5</title>
<path fill="none" stroke="midnightblue" d="M195.31,-33.53C241.11,-32.55 310.32,-31.07 361.36,-29.98"/>
<polygon fill="midnightblue" stroke="midnightblue" points="361.71,-33.47 371.63,-29.76 361.56,-26.48 361.71,-33.47"/>
</g>
<!-- Node4&#45;&gt;Node5 -->
<g id="edge4" class="edge">
<title>Node4&#45;&gt;Node5</title>
<path fill="none" stroke="midnightblue" d="M335.79,-57.54C346.82,-54.07 358.66,-50.35 370.07,-46.76"/>
<polygon fill="midnightblue" stroke="midnightblue" points="371.46,-50 379.95,-43.66 369.36,-43.32 371.46,-50"/>
</g>
<!-- Node6 -->
<g id="node6" class="node">
<title>Node6</title>
<g id="a_node6"><a xlink:href="namespaceerror__msg__class.html#a7e065585cc806a5c264de1f088266498" target="_top" xlink:title="Converts a given integer to a string.">
<polygon fill="white" stroke="black" points="522,-13.56 522,-43.56 626,-43.56 626,-13.56 522,-13.56"/>
<text text-anchor="start" x="530" y="-31.56" font-family="Helvetica,sans-Serif" font-size="10.00">error_msg_class::int</text>
<text text-anchor="middle" x="574" y="-20.56" font-family="Helvetica,sans-Serif" font-size="10.00">_to_str</text>
</a>
</g>
</g>
<!-- Node5&#45;&gt;Node6 -->
<g id="edge5" class="edge">
<title>Node5&#45;&gt;Node6</title>
<path fill="none" stroke="midnightblue" d="M486.11,-28.56C494.45,-28.56 503.09,-28.56 511.54,-28.56"/>
<polygon fill="midnightblue" stroke="midnightblue" points="511.71,-32.06 521.71,-28.56 511.71,-25.06 511.71,-32.06"/>
</g>
</g>
</svg>
        <g id="navigator" transform="translate(0 0)" fill="#404254">
                <rect fill="#f2f5e9" fill-opacity="0.5" stroke="#606060" stroke-width=".5" x="0" y="0" width="60" height="60"/>
                <use id="zoomplus" xlink:href="#zoomPlus" x="17" y="9" onmousedown="handleZoom(evt,'in')"/>
                <use id="zoomminus" xlink:href="#zoomMin" x="42" y="9" onmousedown="handleZoom(evt,'out')"/>
                <use id="reset" xlink:href="#resetDef" x="30" y="36" onmousedown="handleReset()"/>
                <g id="arrowUp" xlink:href="#dirArrow" transform="translate(30 24)" onmousedown="handlePan(0,-1)">
                  <use xlink:href="#rim" fill="#404040">
                        <set attributeName="fill" to="#808080" begin="arrowUp.mouseover" end="arrowUp.mouseout"/>
                  </use>
                  <path fill="none" stroke="white" stroke-width="1.5" d="M0,-3.0v7 M-2.5,-0.5L0,-3.0L2.5,-0.5"/>
                </g>
                <g id="arrowRight" xlink:href="#dirArrow" transform="rotate(90) translate(36 -43)" onmousedown="handlePan(1,0)">
                  <use xlink:href="#rim" fill="#404040">
                        <set attributeName="fill" to="#808080" begin="arrowRight.mouseover" end="arrowRight.mouseout"/>
                  </use>
                  <path fill="none" stroke="white" stroke-width="1.5" d="M0,-3.0v7 M-2.5,-0.5L0,-3.0L2.5,-0.5"/>
                </g>
                <g id="arrowDown" xlink:href="#dirArrow" transform="rotate(180) translate(-30 -48)" onmousedown="handlePan(0,1)">
                  <use xlink:href="#rim" fill="#404040">
                        <set attributeName="fill" to="#808080" begin="arrowDown.mouseover" end="arrowDown.mouseout"/>
                  </use>
                  <path fill="none" stroke="white" stroke-width="1.5" d="M0,-3.0v7 M-2.5,-0.5L0,-3.0L2.5,-0.5"/>
                </g>
                <g id="arrowLeft" xlink:href="#dirArrow" transform="rotate(270) translate(-36 17)" onmousedown="handlePan(-1,0)">
                  <use xlink:href="#rim" fill="#404040">
                        <set attributeName="fill" to="#808080" begin="arrowLeft.mouseover" end="arrowLeft.mouseout"/>
                  </use>
                  <path fill="none" stroke="white" stroke-width="1.5" d="M0,-3.0v7 M-2.5,-0.5L0,-3.0L2.5,-0.5"/>
                </g>
        </g>
        <svg viewBox="0 0 15 15" width="100%" height="30px" preserveAspectRatio="xMaxYMin meet">
         <g id="arrow_out" transform="scale(0.3 0.3)">
          <a xlink:href="chem__pot_8f90_a6e7fb350a916bae49d8520394fca6414_cgraph_org.svg" target="_base">
           <rect id="button" ry="5" rx="5" y="6" x="6" height="38" width="38"
                fill="#f2f5e9" fill-opacity="0.5" stroke="#606060" stroke-width="1.0"/>
           <path id="arrow"
             d="M 11.500037,31.436501 C 11.940474,20.09759 22.043105,11.32322 32.158766,21.979434 L 37.068811,17.246167 C 37.068811,17.246167 37.088388,32 37.088388,32 L 22.160133,31.978069 C 22.160133,31.978069 26.997745,27.140456 26.997745,27.140456 C 18.528582,18.264221 13.291696,25.230495 11.500037,31.436501 z"
             style="fill:#404040;"/>
          </a>
         </g>
        </svg>
</svg>
