<?xml version="1.0" encoding="UTF-8" standalone="no"?>
<!DOCTYPE svg PUBLIC "-//W3C//DTD SVG 1.1//EN"
 "http://www.w3.org/Graphics/SVG/1.1/DTD/svg11.dtd">
<!-- Generated by graphviz version 2.44.0 ()
 -->
<!-- Title: src_files.FlowAnimation.FlowAnimation.save_frame Pages: 1 -->
<svg width="715pt" height="410pt"
 viewBox="0.00 0.00 715.00 409.50" xmlns="http://www.w3.org/2000/svg" xmlns:xlink="http://www.w3.org/1999/xlink">
<g id="graph0" class="graph" transform="scale(1 1) rotate(0) translate(4 405.5)">
<title>src_files.FlowAnimation.FlowAnimation.save_frame</title>
<polygon fill="white" stroke="transparent" points="-4,4 -4,-405.5 711,-405.5 711,4 -4,4"/>
<!-- Node1 -->
<g id="node1" class="node">
<title>Node1</title>
<g id="a_node1"><a xlink:title=" ">
<polygon fill="#bfbfbf" stroke="black" points="0,-147.5 0,-177.5 134,-177.5 134,-147.5 0,-147.5"/>
<text text-anchor="start" x="8" y="-165.5" font-family="Helvetica,sans-Serif" font-size="10.00">src_files.FlowAnimation.</text>
<text text-anchor="middle" x="67" y="-154.5" font-family="Helvetica,sans-Serif" font-size="10.00">FlowAnimation.save_frame</text>
</a>
</g>
</g>
<!-- Node2 -->
<g id="node2" class="node">
<title>Node2</title>
<g id="a_node2"><a xlink:href="classsrc__files_1_1FlowAnimation_1_1FlowAnimation.html#aa43d9d15f49ab97e34b6f975228b02f1" target="_top" xlink:title=" ">
<polygon fill="white" stroke="black" points="170,-147.5 170,-177.5 313,-177.5 313,-147.5 170,-147.5"/>
<text text-anchor="start" x="178" y="-165.5" font-family="Helvetica,sans-Serif" font-size="10.00">src_files.FlowAnimation.</text>
<text text-anchor="middle" x="241.5" y="-154.5" font-family="Helvetica,sans-Serif" font-size="10.00">FlowAnimation.update_frame</text>
</a>
</g>
</g>
<!-- Node1&#45;&gt;Node2 -->
<g id="edge1" class="edge">
<title>Node1&#45;&gt;Node2</title>
<path fill="none" stroke="midnightblue" d="M134.2,-162.5C142.6,-162.5 151.27,-162.5 159.86,-162.5"/>
<polygon fill="midnightblue" stroke="midnightblue" points="159.89,-166 169.89,-162.5 159.89,-159 159.89,-166"/>
</g>
<!-- Node3 -->
<g id="node3" class="node">
<title>Node3</title>
<g id="a_node3"><a xlink:href="classsrc__files_1_1FlowAnimation_1_1FlowAnimation.html#ae5cf5c670cfd79914fba912bfada1083" target="_top" xlink:title=" ">
<polygon fill="white" stroke="black" points="361,-294.5 361,-324.5 521,-324.5 521,-294.5 361,-294.5"/>
<text text-anchor="start" x="369" y="-312.5" font-family="Helvetica,sans-Serif" font-size="10.00">src_files.FlowAnimation.</text>
<text text-anchor="middle" x="441" y="-301.5" font-family="Helvetica,sans-Serif" font-size="10.00">FlowAnimation.update_abun_plot</text>
</a>
</g>
</g>
<!-- Node2&#45;&gt;Node3 -->
<g id="edge2" class="edge">
<title>Node2&#45;&gt;Node3</title>
<path fill="none" stroke="midnightblue" d="M251.26,-177.56C267.24,-203.67 303.7,-257.25 349,-285.5 351.77,-287.23 354.67,-288.83 357.65,-290.32"/>
<polygon fill="midnightblue" stroke="midnightblue" points="356.26,-293.54 366.82,-294.46 359.14,-287.16 356.26,-293.54"/>
</g>
<!-- Node4 -->
<g id="node4" class="node">
<title>Node4</title>
<g id="a_node4"><a xlink:href="classsrc__files_1_1FlowAnimation_1_1FlowAnimation.html#a95e4fc280171aeddd24ea64c7ac34ca1" target="_top" xlink:title=" ">
<polygon fill="white" stroke="black" points="372.5,-245.5 372.5,-275.5 509.5,-275.5 509.5,-245.5 372.5,-245.5"/>
<text text-anchor="start" x="380.5" y="-263.5" font-family="Helvetica,sans-Serif" font-size="10.00">src_files.FlowAnimation.</text>
<text text-anchor="middle" x="441" y="-252.5" font-family="Helvetica,sans-Serif" font-size="10.00">FlowAnimation.update_data</text>
</a>
</g>
</g>
<!-- Node2&#45;&gt;Node4 -->
<g id="edge3" class="edge">
<title>Node2&#45;&gt;Node4</title>
<path fill="none" stroke="midnightblue" d="M260.15,-177.7C280.36,-194.37 315.07,-220.83 349,-236.5 353.4,-238.53 358.01,-240.42 362.71,-242.16"/>
<polygon fill="midnightblue" stroke="midnightblue" points="361.87,-245.57 372.47,-245.54 364.16,-238.96 361.87,-245.57"/>
</g>
<!-- Node10 -->
<g id="node10" class="node">
<title>Node10</title>
<g id="a_node10"><a xlink:href="classsrc__files_1_1FlowAnimation_1_1FlowAnimation.html#a3c3a1682828427540b5999cfb2680498" target="_top" xlink:title=" ">
<polygon fill="white" stroke="black" points="357.5,-196.5 357.5,-226.5 524.5,-226.5 524.5,-196.5 357.5,-196.5"/>
<text text-anchor="start" x="365.5" y="-214.5" font-family="Helvetica,sans-Serif" font-size="10.00">src_files.FlowAnimation.</text>
<text text-anchor="middle" x="441" y="-203.5" font-family="Helvetica,sans-Serif" font-size="10.00">FlowAnimation.update_fission_plot</text>
</a>
</g>
</g>
<!-- Node2&#45;&gt;Node10 -->
<g id="edge9" class="edge">
<title>Node2&#45;&gt;Node10</title>
<path fill="none" stroke="midnightblue" d="M303.1,-177.53C324.14,-182.76 347.92,-188.65 369.68,-194.05"/>
<polygon fill="midnightblue" stroke="midnightblue" points="368.97,-197.48 379.52,-196.49 370.65,-190.69 368.97,-197.48"/>
</g>
<!-- Node11 -->
<g id="node11" class="node">
<title>Node11</title>
<g id="a_node11"><a xlink:href="classsrc__files_1_1FlowAnimation_1_1FlowAnimation.html#a69be16253d1914cf7d7b615f991b30b5" target="_top" xlink:title=" ">
<polygon fill="white" stroke="black" points="363,-147.5 363,-177.5 519,-177.5 519,-147.5 363,-147.5"/>
<text text-anchor="start" x="371" y="-165.5" font-family="Helvetica,sans-Serif" font-size="10.00">src_files.FlowAnimation.</text>
<text text-anchor="middle" x="441" y="-154.5" font-family="Helvetica,sans-Serif" font-size="10.00">FlowAnimation.update_flow_plot</text>
</a>
</g>
</g>
<!-- Node2&#45;&gt;Node11 -->
<g id="edge10" class="edge">
<title>Node2&#45;&gt;Node11</title>
<path fill="none" stroke="midnightblue" d="M313.24,-162.5C326.03,-162.5 339.51,-162.5 352.7,-162.5"/>
<polygon fill="midnightblue" stroke="midnightblue" points="352.72,-166 362.72,-162.5 352.72,-159 352.72,-166"/>
</g>
<!-- Node12 -->
<g id="node12" class="node">
<title>Node12</title>
<g id="a_node12"><a xlink:href="classsrc__files_1_1FlowAnimation_1_1FlowAnimation.html#a0f74e5f140064ab9090785781a2d397d" target="_top" xlink:title=" ">
<polygon fill="white" stroke="black" points="349,-98.5 349,-128.5 533,-128.5 533,-98.5 349,-98.5"/>
<text text-anchor="start" x="357" y="-116.5" font-family="Helvetica,sans-Serif" font-size="10.00">src_files.FlowAnimation.</text>
<text text-anchor="middle" x="441" y="-105.5" font-family="Helvetica,sans-Serif" font-size="10.00">FlowAnimation.update_interactive_text</text>
</a>
</g>
</g>
<!-- Node2&#45;&gt;Node12 -->
<g id="edge11" class="edge">
<title>Node2&#45;&gt;Node12</title>
<path fill="none" stroke="midnightblue" d="M303.1,-147.47C324.14,-142.24 347.92,-136.35 369.68,-130.95"/>
<polygon fill="midnightblue" stroke="midnightblue" points="370.65,-134.31 379.52,-128.51 368.97,-127.52 370.65,-134.31"/>
</g>
<!-- Node13 -->
<g id="node13" class="node">
<title>Node13</title>
<g id="a_node13"><a xlink:href="classsrc__files_1_1FlowAnimation_1_1FlowAnimation.html#a884d661885aa9f83ca36713c791fd245" target="_top" xlink:title=" ">
<polygon fill="white" stroke="black" points="353,-49.5 353,-79.5 529,-79.5 529,-49.5 353,-49.5"/>
<text text-anchor="start" x="361" y="-67.5" font-family="Helvetica,sans-Serif" font-size="10.00">src_files.FlowAnimation.</text>
<text text-anchor="middle" x="441" y="-56.5" font-family="Helvetica,sans-Serif" font-size="10.00">FlowAnimation.update_ngamma_plot</text>
</a>
</g>
</g>
<!-- Node2&#45;&gt;Node13 -->
<g id="edge12" class="edge">
<title>Node2&#45;&gt;Node13</title>
<path fill="none" stroke="midnightblue" d="M260.15,-147.3C280.36,-130.63 315.07,-104.17 349,-88.5 353.32,-86.51 357.83,-84.66 362.43,-82.94"/>
<polygon fill="midnightblue" stroke="midnightblue" points="363.69,-86.21 371.98,-79.62 361.39,-79.6 363.69,-86.21"/>
</g>
<!-- Node14 -->
<g id="node14" class="node">
<title>Node14</title>
<g id="a_node14"><a xlink:href="classsrc__files_1_1FlowAnimation_1_1FlowAnimation.html#a269a1fec8ec2787aa0048fb744c544a2" target="_top" xlink:title=" ">
<polygon fill="white" stroke="black" points="370.5,-0.5 370.5,-30.5 511.5,-30.5 511.5,-0.5 370.5,-0.5"/>
<text text-anchor="start" x="378.5" y="-18.5" font-family="Helvetica,sans-Serif" font-size="10.00">src_files.FlowAnimation.</text>
<text text-anchor="middle" x="441" y="-7.5" font-family="Helvetica,sans-Serif" font-size="10.00">FlowAnimation.update_slider</text>
</a>
</g>
</g>
<!-- Node2&#45;&gt;Node14 -->
<g id="edge13" class="edge">
<title>Node2&#45;&gt;Node14</title>
<path fill="none" stroke="midnightblue" d="M251.26,-147.44C267.24,-121.33 303.7,-67.75 349,-39.5 352.67,-37.21 356.54,-35.15 360.55,-33.27"/>
<polygon fill="midnightblue" stroke="midnightblue" points="362.25,-36.36 370.11,-29.25 359.53,-29.9 362.25,-36.36"/>
</g>
<!-- Node5 -->
<g id="node5" class="node">
<title>Node5</title>
<g id="a_node5"><a xlink:href="classsrc__files_1_1FlowAnimation_1_1FlowAnimation.html#a8fc4810f1535c249641ab8cb7377d98b" target="_top" xlink:title=" ">
<polygon fill="white" stroke="black" points="572.5,-360 572.5,-401 703.5,-401 703.5,-360 572.5,-360"/>
<text text-anchor="start" x="580.5" y="-389" font-family="Helvetica,sans-Serif" font-size="10.00">src_files.FlowAnimation.</text>
<text text-anchor="start" x="580.5" y="-378" font-family="Helvetica,sans-Serif" font-size="10.00">FlowAnimation.__init_data</text>
<text text-anchor="middle" x="638" y="-367" font-family="Helvetica,sans-Serif" font-size="10.00">_addmainout</text>
</a>
</g>
</g>
<!-- Node4&#45;&gt;Node5 -->
<g id="edge4" class="edge">
<title>Node4&#45;&gt;Node5</title>
<path fill="none" stroke="midnightblue" d="M509.57,-272.41C517.98,-275.76 526.05,-280.03 533,-285.5 558.96,-305.92 544.62,-328.23 569,-350.5 570.31,-351.7 571.68,-352.85 573.09,-353.97"/>
<polygon fill="midnightblue" stroke="midnightblue" points="571.4,-357.05 581.6,-359.9 575.4,-351.31 571.4,-357.05"/>
</g>
<!-- Node6 -->
<g id="node6" class="node">
<title>Node6</title>
<g id="a_node6"><a xlink:href="classsrc__files_1_1FlowAnimation_1_1FlowAnimation.html#a9e88300af271ce4c397fb5b6368ffb68" target="_top" xlink:title=" ">
<polygon fill="white" stroke="black" points="572.5,-300 572.5,-341 703.5,-341 703.5,-300 572.5,-300"/>
<text text-anchor="start" x="580.5" y="-329" font-family="Helvetica,sans-Serif" font-size="10.00">src_files.FlowAnimation.</text>
<text text-anchor="start" x="580.5" y="-318" font-family="Helvetica,sans-Serif" font-size="10.00">FlowAnimation.__init_data</text>
<text text-anchor="middle" x="638" y="-307" font-family="Helvetica,sans-Serif" font-size="10.00">_energy</text>
</a>
</g>
</g>
<!-- Node4&#45;&gt;Node6 -->
<g id="edge5" class="edge">
<title>Node4&#45;&gt;Node6</title>
<path fill="none" stroke="midnightblue" d="M498.94,-275.61C510.26,-278.76 522.03,-282.15 533,-285.5 544.39,-288.98 556.41,-292.84 568.09,-296.7"/>
<polygon fill="midnightblue" stroke="midnightblue" points="567.2,-300.09 577.79,-299.93 569.41,-293.45 567.2,-300.09"/>
</g>
<!-- Node7 -->
<g id="node7" class="node">
<title>Node7</title>
<g id="a_node7"><a xlink:href="classsrc__files_1_1FlowAnimation_1_1FlowAnimation.html#a0e9148bf5756f81387be0f1c34c0b0f1" target="_top" xlink:title=" ">
<polygon fill="white" stroke="black" points="572.5,-240 572.5,-281 703.5,-281 703.5,-240 572.5,-240"/>
<text text-anchor="start" x="580.5" y="-269" font-family="Helvetica,sans-Serif" font-size="10.00">src_files.FlowAnimation.</text>
<text text-anchor="start" x="580.5" y="-258" font-family="Helvetica,sans-Serif" font-size="10.00">FlowAnimation.__init_data</text>
<text text-anchor="middle" x="638" y="-247" font-family="Helvetica,sans-Serif" font-size="10.00">_timescales</text>
</a>
</g>
</g>
<!-- Node4&#45;&gt;Node7 -->
<g id="edge6" class="edge">
<title>Node4&#45;&gt;Node7</title>
<path fill="none" stroke="midnightblue" d="M509.65,-260.5C526.67,-260.5 545.02,-260.5 562.35,-260.5"/>
<polygon fill="midnightblue" stroke="midnightblue" points="562.42,-264 572.42,-260.5 562.42,-257 562.42,-264"/>
</g>
<!-- Node8 -->
<g id="node8" class="node">
<title>Node8</title>
<g id="a_node8"><a xlink:href="classsrc__files_1_1FlowAnimation_1_1FlowAnimation.html#a7031b76d4d9ec67e745a8357a8704540" target="_top" xlink:title=" ">
<polygon fill="white" stroke="black" points="572.5,-180 572.5,-221 703.5,-221 703.5,-180 572.5,-180"/>
<text text-anchor="start" x="580.5" y="-209" font-family="Helvetica,sans-Serif" font-size="10.00">src_files.FlowAnimation.</text>
<text text-anchor="start" x="580.5" y="-198" font-family="Helvetica,sans-Serif" font-size="10.00">FlowAnimation.__init_data</text>
<text text-anchor="middle" x="638" y="-187" font-family="Helvetica,sans-Serif" font-size="10.00">_tracked</text>
</a>
</g>
</g>
<!-- Node4&#45;&gt;Node8 -->
<g id="edge7" class="edge">
<title>Node4&#45;&gt;Node8</title>
<path fill="none" stroke="midnightblue" d="M501.9,-245.39C512.31,-242.57 523,-239.55 533,-236.5 545.12,-232.81 557.93,-228.62 570.27,-224.43"/>
<polygon fill="midnightblue" stroke="midnightblue" points="571.71,-227.64 580.04,-221.08 569.44,-221.01 571.71,-227.64"/>
</g>
<!-- Node9 -->
<g id="node9" class="node">
<title>Node9</title>
<g id="a_node9"><a xlink:href="classsrc__files_1_1FlowAnimation_1_1FlowAnimation.html#a0b441e840894c30065df01b4a0c814ed" target="_top" xlink:title=" ">
<polygon fill="white" stroke="black" points="569,-131.5 569,-161.5 707,-161.5 707,-131.5 569,-131.5"/>
<text text-anchor="start" x="577" y="-149.5" font-family="Helvetica,sans-Serif" font-size="10.00">src_files.FlowAnimation.</text>
<text text-anchor="middle" x="638" y="-138.5" font-family="Helvetica,sans-Serif" font-size="10.00">FlowAnimation.sum_over_A</text>
</a>
</g>
</g>
<!-- Node4&#45;&gt;Node9 -->
<g id="edge8" class="edge">
<title>Node4&#45;&gt;Node9</title>
<path fill="none" stroke="midnightblue" d="M509.59,-249.42C517.99,-246.16 526.06,-241.94 533,-236.5 559.3,-215.89 543.56,-192.16 569,-170.5 570.5,-169.22 572.08,-168.01 573.71,-166.86"/>
<polygon fill="midnightblue" stroke="midnightblue" points="575.57,-169.82 582.28,-161.63 571.92,-163.85 575.57,-169.82"/>
</g>
</g>
</svg>
