<?xml version="1.0" encoding="UTF-8" standalone="no"?>
<!DOCTYPE svg PUBLIC "-//W3C//DTD SVG 1.1//EN"
 "http://www.w3.org/Graphics/SVG/1.1/DTD/svg11.dtd">
<!-- Generated by graphviz version 2.44.0 ()
 -->
<!-- Title: src_files.FlowAnimation.FlowAnimation.update_frame Pages: 1 -->
<!--zoomable 410 -->
<svg id="main" version="1.1" xmlns="http://www.w3.org/2000/svg" xmlns:xlink="http://www.w3.org/1999/xlink" xml:space="preserve" onload="init(evt)">
<style type="text/css"><![CDATA[
.edge:hover path { stroke: red; }
.edge:hover polygon { stroke: red; fill: red; }
]]></style>
<script type="text/javascript"><![CDATA[
var edges = document.getElementsByTagName('g');
if (edges && edges.length) {
  for (var i=0;i<edges.length;i++) {
    if (edges[i].id.substr(0,4)=='edge') {
      edges[i].setAttribute('class','edge');
    }
  }
}
]]></script>
        <defs>
                <circle id="rim" cx="0" cy="0" r="7"/>
                <circle id="rim2" cx="0" cy="0" r="3.5"/>
                <g id="zoomPlus">
                        <use xlink:href="#rim" fill="#404040">
                                <set attributeName="fill" to="#808080" begin="zoomplus.mouseover" end="zoomplus.mouseout"/>
                        </use>
                        <path d="M-4,0h8M0,-4v8" fill="none" stroke="white" stroke-width="1.5" pointer-events="none"/>
                </g>
                <g id="zoomMin">
                        <use xlink:href="#rim" fill="#404040">
                                <set attributeName="fill" to="#808080" begin="zoomminus.mouseover" end="zoomminus.mouseout"/>
                        </use>
                        <path d="M-4,0h8" fill="none" stroke="white" stroke-width="1.5" pointer-events="none"/>
                </g>
                <g id="dirArrow">
                        <path fill="none" stroke="white" stroke-width="1.5" d="M0,-3.0v7 M-2.5,-0.5L0,-3.0L2.5,-0.5"/>
                </g>
               <g id="resetDef">
                       <use xlink:href="#rim2" fill="#404040">
                               <set attributeName="fill" to="#808080" begin="reset.mouseover" end="reset.mouseout"/>
                       </use>
               </g>
        </defs>

<script type="text/javascript">
var viewWidth = 545;
var viewHeight = 410;
var sectionId = 'dynsection-13';
</script>
<script xlink:href="svgpan.js"/>
<svg id="graph" class="graph">
<g id="viewport">
<title>src_files.FlowAnimation.FlowAnimation.update_frame</title>
<polygon fill="white" stroke="transparent" points="-4,4 -4,-405.5 541,-405.5 541,4 -4,4"/>
<!-- Node1 -->
<g id="node1" class="node">
<title>Node1</title>
<g id="a_node1"><a xlink:title=" ">
<polygon fill="#bfbfbf" stroke="black" points="0,-147.5 0,-177.5 143,-177.5 143,-147.5 0,-147.5"/>
<text text-anchor="start" x="8" y="-165.5" font-family="Helvetica,sans-Serif" font-size="10.00">src_files.FlowAnimation.</text>
<text text-anchor="middle" x="71.5" y="-154.5" font-family="Helvetica,sans-Serif" font-size="10.00">FlowAnimation.update_frame</text>
</a>
</g>
</g>
<!-- Node2 -->
<g id="node2" class="node">
<title>Node2</title>
<g id="a_node2"><a xlink:href="classsrc__files_1_1FlowAnimation_1_1FlowAnimation.html#ae5cf5c670cfd79914fba912bfada1083" target="_top" xlink:title=" ">
<polygon fill="white" stroke="black" points="191,-294.5 191,-324.5 351,-324.5 351,-294.5 191,-294.5"/>
<text text-anchor="start" x="199" y="-312.5" font-family="Helvetica,sans-Serif" font-size="10.00">src_files.FlowAnimation.</text>
<text text-anchor="middle" x="271" y="-301.5" font-family="Helvetica,sans-Serif" font-size="10.00">FlowAnimation.update_abun_plot</text>
</a>
</g>
</g>
<!-- Node1&#45;&gt;Node2 -->
<g id="edge1" class="edge">
<title>Node1&#45;&gt;Node2</title>
<path fill="none" stroke="midnightblue" d="M81.26,-177.56C97.24,-203.67 133.7,-257.25 179,-285.5 181.77,-287.23 184.67,-288.83 187.65,-290.32"/>
<polygon fill="midnightblue" stroke="midnightblue" points="186.26,-293.54 196.82,-294.46 189.14,-287.16 186.26,-293.54"/>
</g>
<!-- Node3 -->
<g id="node3" class="node">
<title>Node3</title>
<g id="a_node3"><a xlink:href="classsrc__files_1_1FlowAnimation_1_1FlowAnimation.html#a95e4fc280171aeddd24ea64c7ac34ca1" target="_top" xlink:title=" ">
<polygon fill="white" stroke="black" points="202.5,-245.5 202.5,-275.5 339.5,-275.5 339.5,-245.5 202.5,-245.5"/>
<text text-anchor="start" x="210.5" y="-263.5" font-family="Helvetica,sans-Serif" font-size="10.00">src_files.FlowAnimation.</text>
<text text-anchor="middle" x="271" y="-252.5" font-family="Helvetica,sans-Serif" font-size="10.00">FlowAnimation.update_data</text>
</a>
</g>
</g>
<!-- Node1&#45;&gt;Node3 -->
<g id="edge2" class="edge">
<title>Node1&#45;&gt;Node3</title>
<path fill="none" stroke="midnightblue" d="M90.15,-177.7C110.36,-194.37 145.07,-220.83 179,-236.5 183.4,-238.53 188.01,-240.42 192.71,-242.16"/>
<polygon fill="midnightblue" stroke="midnightblue" points="191.87,-245.57 202.47,-245.54 194.16,-238.96 191.87,-245.57"/>
</g>
<!-- Node9 -->
<g id="node9" class="node">
<title>Node9</title>
<g id="a_node9"><a xlink:href="classsrc__files_1_1FlowAnimation_1_1FlowAnimation.html#a3c3a1682828427540b5999cfb2680498" target="_top" xlink:title=" ">
<polygon fill="white" stroke="black" points="187.5,-196.5 187.5,-226.5 354.5,-226.5 354.5,-196.5 187.5,-196.5"/>
<text text-anchor="start" x="195.5" y="-214.5" font-family="Helvetica,sans-Serif" font-size="10.00">src_files.FlowAnimation.</text>
<text text-anchor="middle" x="271" y="-203.5" font-family="Helvetica,sans-Serif" font-size="10.00">FlowAnimation.update_fission_plot</text>
</a>
</g>
</g>
<!-- Node1&#45;&gt;Node9 -->
<g id="edge8" class="edge">
<title>Node1&#45;&gt;Node9</title>
<path fill="none" stroke="midnightblue" d="M133.1,-177.53C154.14,-182.76 177.92,-188.65 199.68,-194.05"/>
<polygon fill="midnightblue" stroke="midnightblue" points="198.97,-197.48 209.52,-196.49 200.65,-190.69 198.97,-197.48"/>
</g>
<!-- Node10 -->
<g id="node10" class="node">
<title>Node10</title>
<g id="a_node10"><a xlink:href="classsrc__files_1_1FlowAnimation_1_1FlowAnimation.html#a69be16253d1914cf7d7b615f991b30b5" target="_top" xlink:title=" ">
<polygon fill="white" stroke="black" points="193,-147.5 193,-177.5 349,-177.5 349,-147.5 193,-147.5"/>
<text text-anchor="start" x="201" y="-165.5" font-family="Helvetica,sans-Serif" font-size="10.00">src_files.FlowAnimation.</text>
<text text-anchor="middle" x="271" y="-154.5" font-family="Helvetica,sans-Serif" font-size="10.00">FlowAnimation.update_flow_plot</text>
</a>
</g>
</g>
<!-- Node1&#45;&gt;Node10 -->
<g id="edge9" class="edge">
<title>Node1&#45;&gt;Node10</title>
<path fill="none" stroke="midnightblue" d="M143.24,-162.5C156.03,-162.5 169.51,-162.5 182.7,-162.5"/>
<polygon fill="midnightblue" stroke="midnightblue" points="182.72,-166 192.72,-162.5 182.72,-159 182.72,-166"/>
</g>
<!-- Node11 -->
<g id="node11" class="node">
<title>Node11</title>
<g id="a_node11"><a xlink:href="classsrc__files_1_1FlowAnimation_1_1FlowAnimation.html#a0f74e5f140064ab9090785781a2d397d" target="_top" xlink:title=" ">
<polygon fill="white" stroke="black" points="179,-98.5 179,-128.5 363,-128.5 363,-98.5 179,-98.5"/>
<text text-anchor="start" x="187" y="-116.5" font-family="Helvetica,sans-Serif" font-size="10.00">src_files.FlowAnimation.</text>
<text text-anchor="middle" x="271" y="-105.5" font-family="Helvetica,sans-Serif" font-size="10.00">FlowAnimation.update_interactive_text</text>
</a>
</g>
</g>
<!-- Node1&#45;&gt;Node11 -->
<g id="edge10" class="edge">
<title>Node1&#45;&gt;Node11</title>
<path fill="none" stroke="midnightblue" d="M133.1,-147.47C154.14,-142.24 177.92,-136.35 199.68,-130.95"/>
<polygon fill="midnightblue" stroke="midnightblue" points="200.65,-134.31 209.52,-128.51 198.97,-127.52 200.65,-134.31"/>
</g>
<!-- Node12 -->
<g id="node12" class="node">
<title>Node12</title>
<g id="a_node12"><a xlink:href="classsrc__files_1_1FlowAnimation_1_1FlowAnimation.html#a884d661885aa9f83ca36713c791fd245" target="_top" xlink:title=" ">
<polygon fill="white" stroke="black" points="183,-49.5 183,-79.5 359,-79.5 359,-49.5 183,-49.5"/>
<text text-anchor="start" x="191" y="-67.5" font-family="Helvetica,sans-Serif" font-size="10.00">src_files.FlowAnimation.</text>
<text text-anchor="middle" x="271" y="-56.5" font-family="Helvetica,sans-Serif" font-size="10.00">FlowAnimation.update_ngamma_plot</text>
</a>
</g>
</g>
<!-- Node1&#45;&gt;Node12 -->
<g id="edge11" class="edge">
<title>Node1&#45;&gt;Node12</title>
<path fill="none" stroke="midnightblue" d="M90.15,-147.3C110.36,-130.63 145.07,-104.17 179,-88.5 183.32,-86.51 187.83,-84.66 192.43,-82.94"/>
<polygon fill="midnightblue" stroke="midnightblue" points="193.69,-86.21 201.98,-79.62 191.39,-79.6 193.69,-86.21"/>
</g>
<!-- Node13 -->
<g id="node13" class="node">
<title>Node13</title>
<g id="a_node13"><a xlink:href="classsrc__files_1_1FlowAnimation_1_1FlowAnimation.html#a269a1fec8ec2787aa0048fb744c544a2" target="_top" xlink:title=" ">
<polygon fill="white" stroke="black" points="200.5,-0.5 200.5,-30.5 341.5,-30.5 341.5,-0.5 200.5,-0.5"/>
<text text-anchor="start" x="208.5" y="-18.5" font-family="Helvetica,sans-Serif" font-size="10.00">src_files.FlowAnimation.</text>
<text text-anchor="middle" x="271" y="-7.5" font-family="Helvetica,sans-Serif" font-size="10.00">FlowAnimation.update_slider</text>
</a>
</g>
</g>
<!-- Node1&#45;&gt;Node13 -->
<g id="edge12" class="edge">
<title>Node1&#45;&gt;Node13</title>
<path fill="none" stroke="midnightblue" d="M81.26,-147.44C97.24,-121.33 133.7,-67.75 179,-39.5 182.67,-37.21 186.54,-35.15 190.55,-33.27"/>
<polygon fill="midnightblue" stroke="midnightblue" points="192.25,-36.36 200.11,-29.25 189.53,-29.9 192.25,-36.36"/>
</g>
<!-- Node4 -->
<g id="node4" class="node">
<title>Node4</title>
<g id="a_node4"><a xlink:href="classsrc__files_1_1FlowAnimation_1_1FlowAnimation.html#a8fc4810f1535c249641ab8cb7377d98b" target="_top" xlink:title=" ">
<polygon fill="white" stroke="black" points="402.5,-360 402.5,-401 533.5,-401 533.5,-360 402.5,-360"/>
<text text-anchor="start" x="410.5" y="-389" font-family="Helvetica,sans-Serif" font-size="10.00">src_files.FlowAnimation.</text>
<text text-anchor="start" x="410.5" y="-378" font-family="Helvetica,sans-Serif" font-size="10.00">FlowAnimation.__init_data</text>
<text text-anchor="middle" x="468" y="-367" font-family="Helvetica,sans-Serif" font-size="10.00">_addmainout</text>
</a>
</g>
</g>
<!-- Node3&#45;&gt;Node4 -->
<g id="edge3" class="edge">
<title>Node3&#45;&gt;Node4</title>
<path fill="none" stroke="midnightblue" d="M339.57,-272.41C347.98,-275.76 356.05,-280.03 363,-285.5 388.96,-305.92 374.62,-328.23 399,-350.5 400.31,-351.7 401.68,-352.85 403.09,-353.97"/>
<polygon fill="midnightblue" stroke="midnightblue" points="401.4,-357.05 411.6,-359.9 405.4,-351.31 401.4,-357.05"/>
</g>
<!-- Node5 -->
<g id="node5" class="node">
<title>Node5</title>
<g id="a_node5"><a xlink:href="classsrc__files_1_1FlowAnimation_1_1FlowAnimation.html#a9e88300af271ce4c397fb5b6368ffb68" target="_top" xlink:title=" ">
<polygon fill="white" stroke="black" points="402.5,-300 402.5,-341 533.5,-341 533.5,-300 402.5,-300"/>
<text text-anchor="start" x="410.5" y="-329" font-family="Helvetica,sans-Serif" font-size="10.00">src_files.FlowAnimation.</text>
<text text-anchor="start" x="410.5" y="-318" font-family="Helvetica,sans-Serif" font-size="10.00">FlowAnimation.__init_data</text>
<text text-anchor="middle" x="468" y="-307" font-family="Helvetica,sans-Serif" font-size="10.00">_energy</text>
</a>
</g>
</g>
<!-- Node3&#45;&gt;Node5 -->
<g id="edge4" class="edge">
<title>Node3&#45;&gt;Node5</title>
<path fill="none" stroke="midnightblue" d="M328.94,-275.61C340.26,-278.76 352.03,-282.15 363,-285.5 374.39,-288.98 386.41,-292.84 398.09,-296.7"/>
<polygon fill="midnightblue" stroke="midnightblue" points="397.2,-300.09 407.79,-299.93 399.41,-293.45 397.2,-300.09"/>
</g>
<!-- Node6 -->
<g id="node6" class="node">
<title>Node6</title>
<g id="a_node6"><a xlink:href="classsrc__files_1_1FlowAnimation_1_1FlowAnimation.html#a0e9148bf5756f81387be0f1c34c0b0f1" target="_top" xlink:title=" ">
<polygon fill="white" stroke="black" points="402.5,-240 402.5,-281 533.5,-281 533.5,-240 402.5,-240"/>
<text text-anchor="start" x="410.5" y="-269" font-family="Helvetica,sans-Serif" font-size="10.00">src_files.FlowAnimation.</text>
<text text-anchor="start" x="410.5" y="-258" font-family="Helvetica,sans-Serif" font-size="10.00">FlowAnimation.__init_data</text>
<text text-anchor="middle" x="468" y="-247" font-family="Helvetica,sans-Serif" font-size="10.00">_timescales</text>
</a>
</g>
</g>
<!-- Node3&#45;&gt;Node6 -->
<g id="edge5" class="edge">
<title>Node3&#45;&gt;Node6</title>
<path fill="none" stroke="midnightblue" d="M339.65,-260.5C356.67,-260.5 375.02,-260.5 392.35,-260.5"/>
<polygon fill="midnightblue" stroke="midnightblue" points="392.42,-264 402.42,-260.5 392.42,-257 392.42,-264"/>
</g>
<!-- Node7 -->
<g id="node7" class="node">
<title>Node7</title>
<g id="a_node7"><a xlink:href="classsrc__files_1_1FlowAnimation_1_1FlowAnimation.html#a7031b76d4d9ec67e745a8357a8704540" target="_top" xlink:title=" ">
<polygon fill="white" stroke="black" points="402.5,-180 402.5,-221 533.5,-221 533.5,-180 402.5,-180"/>
<text text-anchor="start" x="410.5" y="-209" font-family="Helvetica,sans-Serif" font-size="10.00">src_files.FlowAnimation.</text>
<text text-anchor="start" x="410.5" y="-198" font-family="Helvetica,sans-Serif" font-size="10.00">FlowAnimation.__init_data</text>
<text text-anchor="middle" x="468" y="-187" font-family="Helvetica,sans-Serif" font-size="10.00">_tracked</text>
</a>
</g>
</g>
<!-- Node3&#45;&gt;Node7 -->
<g id="edge6" class="edge">
<title>Node3&#45;&gt;Node7</title>
<path fill="none" stroke="midnightblue" d="M331.9,-245.39C342.31,-242.57 353,-239.55 363,-236.5 375.12,-232.81 387.93,-228.62 400.27,-224.43"/>
<polygon fill="midnightblue" stroke="midnightblue" points="401.71,-227.64 410.04,-221.08 399.44,-221.01 401.71,-227.64"/>
</g>
<!-- Node8 -->
<g id="node8" class="node">
<title>Node8</title>
<g id="a_node8"><a xlink:href="classsrc__files_1_1FlowAnimation_1_1FlowAnimation.html#a0b441e840894c30065df01b4a0c814ed" target="_top" xlink:title=" ">
<polygon fill="white" stroke="black" points="399,-131.5 399,-161.5 537,-161.5 537,-131.5 399,-131.5"/>
<text text-anchor="start" x="407" y="-149.5" font-family="Helvetica,sans-Serif" font-size="10.00">src_files.FlowAnimation.</text>
<text text-anchor="middle" x="468" y="-138.5" font-family="Helvetica,sans-Serif" font-size="10.00">FlowAnimation.sum_over_A</text>
</a>
</g>
</g>
<!-- Node3&#45;&gt;Node8 -->
<g id="edge7" class="edge">
<title>Node3&#45;&gt;Node8</title>
<path fill="none" stroke="midnightblue" d="M339.59,-249.42C347.99,-246.16 356.06,-241.94 363,-236.5 389.3,-215.89 373.56,-192.16 399,-170.5 400.5,-169.22 402.08,-168.01 403.71,-166.86"/>
<polygon fill="midnightblue" stroke="midnightblue" points="405.57,-169.82 412.28,-161.63 401.92,-163.85 405.57,-169.82"/>
</g>
</g>
</svg>
        <g id="navigator" transform="translate(0 0)" fill="#404254">
                <rect fill="#f2f5e9" fill-opacity="0.5" stroke="#606060" stroke-width=".5" x="0" y="0" width="60" height="60"/>
                <use id="zoomplus" xlink:href="#zoomPlus" x="17" y="9" onmousedown="handleZoom(evt,'in')"/>
                <use id="zoomminus" xlink:href="#zoomMin" x="42" y="9" onmousedown="handleZoom(evt,'out')"/>
                <use id="reset" xlink:href="#resetDef" x="30" y="36" onmousedown="handleReset()"/>
                <g id="arrowUp" xlink:href="#dirArrow" transform="translate(30 24)" onmousedown="handlePan(0,-1)">
                  <use xlink:href="#rim" fill="#404040">
                        <set attributeName="fill" to="#808080" begin="arrowUp.mouseover" end="arrowUp.mouseout"/>
                  </use>
                  <path fill="none" stroke="white" stroke-width="1.5" d="M0,-3.0v7 M-2.5,-0.5L0,-3.0L2.5,-0.5"/>
                </g>
                <g id="arrowRight" xlink:href="#dirArrow" transform="rotate(90) translate(36 -43)" onmousedown="handlePan(1,0)">
                  <use xlink:href="#rim" fill="#404040">
                        <set attributeName="fill" to="#808080" begin="arrowRight.mouseover" end="arrowRight.mouseout"/>
                  </use>
                  <path fill="none" stroke="white" stroke-width="1.5" d="M0,-3.0v7 M-2.5,-0.5L0,-3.0L2.5,-0.5"/>
                </g>
                <g id="arrowDown" xlink:href="#dirArrow" transform="rotate(180) translate(-30 -48)" onmousedown="handlePan(0,1)">
                  <use xlink:href="#rim" fill="#404040">
                        <set attributeName="fill" to="#808080" begin="arrowDown.mouseover" end="arrowDown.mouseout"/>
                  </use>
                  <path fill="none" stroke="white" stroke-width="1.5" d="M0,-3.0v7 M-2.5,-0.5L0,-3.0L2.5,-0.5"/>
                </g>
                <g id="arrowLeft" xlink:href="#dirArrow" transform="rotate(270) translate(-36 17)" onmousedown="handlePan(-1,0)">
                  <use xlink:href="#rim" fill="#404040">
                        <set attributeName="fill" to="#808080" begin="arrowLeft.mouseover" end="arrowLeft.mouseout"/>
                  </use>
                  <path fill="none" stroke="white" stroke-width="1.5" d="M0,-3.0v7 M-2.5,-0.5L0,-3.0L2.5,-0.5"/>
                </g>
        </g>
        <svg viewBox="0 0 15 15" width="100%" height="30px" preserveAspectRatio="xMaxYMin meet">
         <g id="arrow_out" transform="scale(0.3 0.3)">
          <a xlink:href="classsrc__files_1_1FlowAnimation_1_1FlowAnimation_aa43d9d15f49ab97e34b6f975228b02f1_cgraph_org.svg" target="_base">
           <rect id="button" ry="5" rx="5" y="6" x="6" height="38" width="38"
                fill="#f2f5e9" fill-opacity="0.5" stroke="#606060" stroke-width="1.0"/>
           <path id="arrow"
             d="M 11.500037,31.436501 C 11.940474,20.09759 22.043105,11.32322 32.158766,21.979434 L 37.068811,17.246167 C 37.068811,17.246167 37.088388,32 37.088388,32 L 22.160133,31.978069 C 22.160133,31.978069 26.997745,27.140456 26.997745,27.140456 C 18.528582,18.264221 13.291696,25.230495 11.500037,31.436501 z"
             style="fill:#404040;"/>
          </a>
         </g>
        </svg>
</svg>
