<?xml version="1.0" encoding="UTF-8" standalone="no"?>
<!DOCTYPE svg PUBLIC "-//W3C//DTD SVG 1.1//EN"
 "http://www.w3.org/Graphics/SVG/1.1/DTD/svg11.dtd">
<!-- Generated by graphviz version 2.44.0 ()
 -->
<!-- Title: bin.class_files.winnet_class.winnet.get_final_A_X Pages: 1 -->
<svg width="579pt" height="39pt"
 viewBox="0.00 0.00 579.00 39.00" xmlns="http://www.w3.org/2000/svg" xmlns:xlink="http://www.w3.org/1999/xlink">
<g id="graph0" class="graph" transform="scale(1 1) rotate(0) translate(4 35)">
<title>bin.class_files.winnet_class.winnet.get_final_A_X</title>
<polygon fill="white" stroke="transparent" points="-4,4 -4,-35 575,-35 575,4 -4,4"/>
<!-- Node1 -->
<g id="node1" class="node">
<title>Node1</title>
<g id="a_node1"><a xlink:title=" ">
<polygon fill="#bfbfbf" stroke="black" points="0,-0.5 0,-30.5 138,-30.5 138,-0.5 0,-0.5"/>
<text text-anchor="start" x="8" y="-18.5" font-family="Helvetica,sans-Serif" font-size="10.00">bin.class_files.winnet</text>
<text text-anchor="middle" x="69" y="-7.5" font-family="Helvetica,sans-Serif" font-size="10.00">_class.winnet.get_final_A_X</text>
</a>
</g>
</g>
<!-- Node2 -->
<g id="node2" class="node">
<title>Node2</title>
<g id="a_node2"><a xlink:href="namespacetw__rate__module.html#a245abf84e3851a5ce7d9b88a55919e0e" target="_top" xlink:title="Sorts the entries in weak_rate in increasing order of the decaying nuclide.">
<polygon fill="white" stroke="black" points="174,-6 174,-25 281,-25 281,-6 174,-6"/>
<text text-anchor="middle" x="227.5" y="-13" font-family="Helvetica,sans-Serif" font-size="10.00">tw_rate_module::sort</text>
</a>
</g>
</g>
<!-- Node1&#45;&gt;Node2 -->
<g id="edge1" class="edge">
<title>Node1&#45;&gt;Node2</title>
<path fill="none" stroke="midnightblue" d="M138.19,-15.5C146.62,-15.5 155.21,-15.5 163.56,-15.5"/>
<polygon fill="midnightblue" stroke="midnightblue" points="163.6,-19 173.6,-15.5 163.6,-12 163.6,-19"/>
</g>
<!-- Node3 -->
<g id="node3" class="node">
<title>Node3</title>
<g id="a_node3"><a xlink:href="namespaceerror__msg__class.html#a2453d3b7cb363115c046840baa1dfb75" target="_top" xlink:title="Raise a exception with a given error message.">
<polygon fill="white" stroke="black" points="317,-0.5 317,-30.5 431,-30.5 431,-0.5 317,-0.5"/>
<text text-anchor="start" x="325" y="-18.5" font-family="Helvetica,sans-Serif" font-size="10.00">error_msg_class::raise</text>
<text text-anchor="middle" x="374" y="-7.5" font-family="Helvetica,sans-Serif" font-size="10.00">_exception</text>
</a>
</g>
</g>
<!-- Node2&#45;&gt;Node3 -->
<g id="edge2" class="edge">
<title>Node2&#45;&gt;Node3</title>
<path fill="none" stroke="midnightblue" d="M281.08,-15.5C289.43,-15.5 298.16,-15.5 306.78,-15.5"/>
<polygon fill="midnightblue" stroke="midnightblue" points="306.81,-19 316.81,-15.5 306.81,-12 306.81,-19"/>
</g>
<!-- Node4 -->
<g id="node4" class="node">
<title>Node4</title>
<g id="a_node4"><a xlink:href="namespaceerror__msg__class.html#a7e065585cc806a5c264de1f088266498" target="_top" xlink:title="Converts a given integer to a string.">
<polygon fill="white" stroke="black" points="467,-0.5 467,-30.5 571,-30.5 571,-0.5 467,-0.5"/>
<text text-anchor="start" x="475" y="-18.5" font-family="Helvetica,sans-Serif" font-size="10.00">error_msg_class::int</text>
<text text-anchor="middle" x="519" y="-7.5" font-family="Helvetica,sans-Serif" font-size="10.00">_to_str</text>
</a>
</g>
</g>
<!-- Node3&#45;&gt;Node4 -->
<g id="edge3" class="edge">
<title>Node3&#45;&gt;Node4</title>
<path fill="none" stroke="midnightblue" d="M431.11,-15.5C439.45,-15.5 448.09,-15.5 456.54,-15.5"/>
<polygon fill="midnightblue" stroke="midnightblue" points="456.71,-19 466.71,-15.5 456.71,-12 456.71,-19"/>
</g>
</g>
</svg>
