<?xml version="1.0" encoding="UTF-8" standalone="no"?>
<!DOCTYPE svg PUBLIC "-//W3C//DTD SVG 1.1//EN"
 "http://www.w3.org/Graphics/SVG/1.1/DTD/svg11.dtd">
<!-- Generated by graphviz version 2.44.0 ()
 -->
<!-- Title: bin.class_files.reaclib_class.reaclib.test_net_consistency Pages: 1 -->
<svg width="317pt" height="50pt"
 viewBox="0.00 0.00 317.00 50.00" xmlns="http://www.w3.org/2000/svg" xmlns:xlink="http://www.w3.org/1999/xlink">
<g id="graph0" class="graph" transform="scale(1 1) rotate(0) translate(4 46)">
<title>bin.class_files.reaclib_class.reaclib.test_net_consistency</title>
<polygon fill="white" stroke="transparent" points="-4,4 -4,-46 313,-46 313,4 -4,4"/>
<!-- Node1 -->
<g id="node1" class="node">
<title>Node1</title>
<g id="a_node1"><a xlink:title=" ">
<polygon fill="#bfbfbf" stroke="black" points="0,-0.5 0,-41.5 113,-41.5 113,-0.5 0,-0.5"/>
<text text-anchor="start" x="8" y="-29.5" font-family="Helvetica,sans-Serif" font-size="10.00">bin.class_files.reaclib</text>
<text text-anchor="start" x="8" y="-18.5" font-family="Helvetica,sans-Serif" font-size="10.00">_class.reaclib.test_net</text>
<text text-anchor="middle" x="56.5" y="-7.5" font-family="Helvetica,sans-Serif" font-size="10.00">_consistency</text>
</a>
</g>
</g>
<!-- Node2 -->
<g id="node2" class="node">
<title>Node2</title>
<g id="a_node2"><a xlink:href="classbin_1_1class__files_1_1reaclib__class_1_1reaclib.html#a4499305bbc65f844ffe02229d6fba3c5" target="_top" xlink:title=" ">
<polygon fill="white" stroke="black" points="149,-6 149,-36 309,-36 309,-6 149,-6"/>
<text text-anchor="start" x="157" y="-24" font-family="Helvetica,sans-Serif" font-size="10.00">bin.class_files.reaclib</text>
<text text-anchor="middle" x="229" y="-13" font-family="Helvetica,sans-Serif" font-size="10.00">_class.reaclib.get_contained_nuc</text>
</a>
</g>
</g>
<!-- Node1&#45;&gt;Node2 -->
<g id="edge1" class="edge">
<title>Node1&#45;&gt;Node2</title>
<path fill="none" stroke="midnightblue" d="M113.33,-21C121.5,-21 130.07,-21 138.71,-21"/>
<polygon fill="midnightblue" stroke="midnightblue" points="138.84,-24.5 148.84,-21 138.84,-17.5 138.84,-24.5"/>
</g>
</g>
</svg>
