<?xml version="1.0" encoding="UTF-8" standalone="no"?>
<!DOCTYPE svg PUBLIC "-//W3C//DTD SVG 1.1//EN"
 "http://www.w3.org/Graphics/SVG/1.1/DTD/svg11.dtd">
<!-- Generated by graphviz version 2.44.0 ()
 -->
<!-- Title: src_files.FlowAnimation.FlowAnimation.update_data Pages: 1 -->
<svg width="319pt" height="279pt"
 viewBox="0.00 0.00 319.00 278.50" xmlns="http://www.w3.org/2000/svg" xmlns:xlink="http://www.w3.org/1999/xlink">
<g id="graph0" class="graph" transform="scale(1 1) rotate(0) translate(4 274.5)">
<title>src_files.FlowAnimation.FlowAnimation.update_data</title>
<polygon fill="white" stroke="transparent" points="-4,4 -4,-274.5 315,-274.5 315,4 -4,4"/>
<!-- Node1 -->
<g id="node1" class="node">
<title>Node1</title>
<g id="a_node1"><a xlink:title=" ">
<polygon fill="#bfbfbf" stroke="black" points="0,-114.5 0,-144.5 137,-144.5 137,-114.5 0,-114.5"/>
<text text-anchor="start" x="8" y="-132.5" font-family="Helvetica,sans-Serif" font-size="10.00">src_files.FlowAnimation.</text>
<text text-anchor="middle" x="68.5" y="-121.5" font-family="Helvetica,sans-Serif" font-size="10.00">FlowAnimation.update_data</text>
</a>
</g>
</g>
<!-- Node2 -->
<g id="node2" class="node">
<title>Node2</title>
<g id="a_node2"><a xlink:href="classsrc__files_1_1FlowAnimation_1_1FlowAnimation.html#a8fc4810f1535c249641ab8cb7377d98b" target="_top" xlink:title=" ">
<polygon fill="white" stroke="black" points="176.5,-229 176.5,-270 307.5,-270 307.5,-229 176.5,-229"/>
<text text-anchor="start" x="184.5" y="-258" font-family="Helvetica,sans-Serif" font-size="10.00">src_files.FlowAnimation.</text>
<text text-anchor="start" x="184.5" y="-247" font-family="Helvetica,sans-Serif" font-size="10.00">FlowAnimation.__init_data</text>
<text text-anchor="middle" x="242" y="-236" font-family="Helvetica,sans-Serif" font-size="10.00">_addmainout</text>
</a>
</g>
</g>
<!-- Node1&#45;&gt;Node2 -->
<g id="edge1" class="edge">
<title>Node1&#45;&gt;Node2</title>
<path fill="none" stroke="midnightblue" d="M84.12,-144.78C103.18,-164.08 138.22,-197.42 173,-219.5 175.45,-221.06 178,-222.57 180.6,-224.04"/>
<polygon fill="midnightblue" stroke="midnightblue" points="179.16,-227.24 189.63,-228.84 182.45,-221.06 179.16,-227.24"/>
</g>
<!-- Node3 -->
<g id="node3" class="node">
<title>Node3</title>
<g id="a_node3"><a xlink:href="classsrc__files_1_1FlowAnimation_1_1FlowAnimation.html#a9e88300af271ce4c397fb5b6368ffb68" target="_top" xlink:title=" ">
<polygon fill="white" stroke="black" points="176.5,-169 176.5,-210 307.5,-210 307.5,-169 176.5,-169"/>
<text text-anchor="start" x="184.5" y="-198" font-family="Helvetica,sans-Serif" font-size="10.00">src_files.FlowAnimation.</text>
<text text-anchor="start" x="184.5" y="-187" font-family="Helvetica,sans-Serif" font-size="10.00">FlowAnimation.__init_data</text>
<text text-anchor="middle" x="242" y="-176" font-family="Helvetica,sans-Serif" font-size="10.00">_energy</text>
</a>
</g>
</g>
<!-- Node1&#45;&gt;Node3 -->
<g id="edge2" class="edge">
<title>Node1&#45;&gt;Node3</title>
<path fill="none" stroke="midnightblue" d="M112.78,-144.64C130.94,-150.99 152.5,-158.54 172.71,-165.61"/>
<polygon fill="midnightblue" stroke="midnightblue" points="171.59,-168.93 182.19,-168.92 173.91,-162.32 171.59,-168.93"/>
</g>
<!-- Node4 -->
<g id="node4" class="node">
<title>Node4</title>
<g id="a_node4"><a xlink:href="classsrc__files_1_1FlowAnimation_1_1FlowAnimation.html#a0e9148bf5756f81387be0f1c34c0b0f1" target="_top" xlink:title=" ">
<polygon fill="white" stroke="black" points="176.5,-109 176.5,-150 307.5,-150 307.5,-109 176.5,-109"/>
<text text-anchor="start" x="184.5" y="-138" font-family="Helvetica,sans-Serif" font-size="10.00">src_files.FlowAnimation.</text>
<text text-anchor="start" x="184.5" y="-127" font-family="Helvetica,sans-Serif" font-size="10.00">FlowAnimation.__init_data</text>
<text text-anchor="middle" x="242" y="-116" font-family="Helvetica,sans-Serif" font-size="10.00">_timescales</text>
</a>
</g>
</g>
<!-- Node1&#45;&gt;Node4 -->
<g id="edge3" class="edge">
<title>Node1&#45;&gt;Node4</title>
<path fill="none" stroke="midnightblue" d="M137.28,-129.5C146.7,-129.5 156.42,-129.5 165.97,-129.5"/>
<polygon fill="midnightblue" stroke="midnightblue" points="166.23,-133 176.23,-129.5 166.23,-126 166.23,-133"/>
</g>
<!-- Node5 -->
<g id="node5" class="node">
<title>Node5</title>
<g id="a_node5"><a xlink:href="classsrc__files_1_1FlowAnimation_1_1FlowAnimation.html#a7031b76d4d9ec67e745a8357a8704540" target="_top" xlink:title=" ">
<polygon fill="white" stroke="black" points="176.5,-49 176.5,-90 307.5,-90 307.5,-49 176.5,-49"/>
<text text-anchor="start" x="184.5" y="-78" font-family="Helvetica,sans-Serif" font-size="10.00">src_files.FlowAnimation.</text>
<text text-anchor="start" x="184.5" y="-67" font-family="Helvetica,sans-Serif" font-size="10.00">FlowAnimation.__init_data</text>
<text text-anchor="middle" x="242" y="-56" font-family="Helvetica,sans-Serif" font-size="10.00">_tracked</text>
</a>
</g>
</g>
<!-- Node1&#45;&gt;Node5 -->
<g id="edge4" class="edge">
<title>Node1&#45;&gt;Node5</title>
<path fill="none" stroke="midnightblue" d="M112.78,-114.36C130.94,-108.01 152.5,-100.46 172.71,-93.39"/>
<polygon fill="midnightblue" stroke="midnightblue" points="173.91,-96.68 182.19,-90.08 171.59,-90.07 173.91,-96.68"/>
</g>
<!-- Node6 -->
<g id="node6" class="node">
<title>Node6</title>
<g id="a_node6"><a xlink:href="classsrc__files_1_1FlowAnimation_1_1FlowAnimation.html#a0b441e840894c30065df01b4a0c814ed" target="_top" xlink:title=" ">
<polygon fill="white" stroke="black" points="173,-0.5 173,-30.5 311,-30.5 311,-0.5 173,-0.5"/>
<text text-anchor="start" x="181" y="-18.5" font-family="Helvetica,sans-Serif" font-size="10.00">src_files.FlowAnimation.</text>
<text text-anchor="middle" x="242" y="-7.5" font-family="Helvetica,sans-Serif" font-size="10.00">FlowAnimation.sum_over_A</text>
</a>
</g>
</g>
<!-- Node1&#45;&gt;Node6 -->
<g id="edge5" class="edge">
<title>Node1&#45;&gt;Node6</title>
<path fill="none" stroke="midnightblue" d="M83.21,-114.47C101.85,-94.83 136.99,-60.48 173,-39.5 175.87,-37.83 178.87,-36.25 181.95,-34.76"/>
<polygon fill="midnightblue" stroke="midnightblue" points="183.66,-37.82 191.35,-30.54 180.8,-31.44 183.66,-37.82"/>
</g>
</g>
</svg>
