<?xml version="1.0" encoding="UTF-8" standalone="no"?>
<!DOCTYPE svg PUBLIC "-//W3C//DTD SVG 1.1//EN"
 "http://www.w3.org/Graphics/SVG/1.1/DTD/svg11.dtd">
<!-- Generated by graphviz version 2.44.0 ()
 -->
<!-- Title: bin.create_neutrino_nucleon_file.nunucleon.create_WinNet_file_cross_section Pages: 1 -->
<svg width="1118pt" height="235pt"
 viewBox="0.00 0.00 1118.00 235.33" xmlns="http://www.w3.org/2000/svg" xmlns:xlink="http://www.w3.org/1999/xlink">
<g id="graph0" class="graph" transform="scale(1 1) rotate(0) translate(4 231.33)">
<title>bin.create_neutrino_nucleon_file.nunucleon.create_WinNet_file_cross_section</title>
<polygon fill="white" stroke="transparent" points="-4,4 -4,-231.33 1114,-231.33 1114,4 -4,4"/>
<!-- Node1 -->
<g id="node1" class="node">
<title>Node1</title>
<g id="a_node1"><a xlink:title=" ">
<polygon fill="#bfbfbf" stroke="black" points="0,-73.83 0,-114.83 149,-114.83 149,-73.83 0,-73.83"/>
<text text-anchor="start" x="8" y="-102.83" font-family="Helvetica,sans-Serif" font-size="10.00">bin.create_neutrino</text>
<text text-anchor="start" x="8" y="-91.83" font-family="Helvetica,sans-Serif" font-size="10.00">_nucleon_file.nunucleon.create</text>
<text text-anchor="middle" x="74.5" y="-80.83" font-family="Helvetica,sans-Serif" font-size="10.00">_WinNet_file_cross_section</text>
</a>
</g>
</g>
<!-- Node2 -->
<g id="node2" class="node">
<title>Node2</title>
<g id="a_node2"><a xlink:href="classbin_1_1create__neutrino__nucleon__file_1_1nunucleon.html#a64f55dd18cb473dcf2d72b63e4602b80" target="_top" xlink:title=" ">
<polygon fill="white" stroke="black" points="185,-107.83 185,-148.83 341,-148.83 341,-107.83 185,-107.83"/>
<text text-anchor="start" x="193" y="-136.83" font-family="Helvetica,sans-Serif" font-size="10.00">bin.create_neutrino</text>
<text text-anchor="start" x="193" y="-125.83" font-family="Helvetica,sans-Serif" font-size="10.00">_nucleon_file.nunucleon.average</text>
<text text-anchor="middle" x="263" y="-114.83" font-family="Helvetica,sans-Serif" font-size="10.00">E_anu_p</text>
</a>
</g>
</g>
<!-- Node1&#45;&gt;Node2 -->
<g id="edge1" class="edge">
<title>Node1&#45;&gt;Node2</title>
<path fill="none" stroke="midnightblue" d="M149.21,-107.77C157.63,-109.3 166.26,-110.88 174.83,-112.44"/>
<polygon fill="midnightblue" stroke="midnightblue" points="174.38,-115.91 184.84,-114.27 175.63,-109.03 174.38,-115.91"/>
</g>
<!-- Node7 -->
<g id="node7" class="node">
<title>Node7</title>
<g id="a_node7"><a xlink:href="classbin_1_1create__neutrino__nucleon__file_1_1nunucleon.html#a25276e317cc419829464b0d3c131c8ac" target="_top" xlink:title=" ">
<polygon fill="white" stroke="black" points="377,-185.83 377,-226.83 525,-226.83 525,-185.83 377,-185.83"/>
<text text-anchor="start" x="385" y="-214.83" font-family="Helvetica,sans-Serif" font-size="10.00">bin.create_neutrino</text>
<text text-anchor="start" x="385" y="-203.83" font-family="Helvetica,sans-Serif" font-size="10.00">_nucleon_file.nunucleon.sigma</text>
<text text-anchor="middle" x="451" y="-192.83" font-family="Helvetica,sans-Serif" font-size="10.00">_avg_anu_p</text>
</a>
</g>
</g>
<!-- Node1&#45;&gt;Node7 -->
<g id="edge17" class="edge">
<title>Node1&#45;&gt;Node7</title>
<path fill="none" stroke="midnightblue" d="M104.31,-114.96C125.62,-129.25 155.88,-147.57 185,-158.33 243.71,-180.03 313.48,-192.16 366.7,-198.8"/>
<polygon fill="midnightblue" stroke="midnightblue" points="366.42,-202.29 376.77,-200.01 367.26,-195.34 366.42,-202.29"/>
</g>
<!-- Node8 -->
<g id="node8" class="node">
<title>Node8</title>
<g id="a_node8"><a xlink:href="classbin_1_1create__neutrino__nucleon__file_1_1nunucleon.html#a8ee43c8e375a51f14b6dce36eacf4257" target="_top" xlink:title=" ">
<polygon fill="white" stroke="black" points="185,-0.83 185,-41.83 341,-41.83 341,-0.83 185,-0.83"/>
<text text-anchor="start" x="193" y="-29.83" font-family="Helvetica,sans-Serif" font-size="10.00">bin.create_neutrino</text>
<text text-anchor="start" x="193" y="-18.83" font-family="Helvetica,sans-Serif" font-size="10.00">_nucleon_file.nunucleon.average</text>
<text text-anchor="middle" x="263" y="-7.83" font-family="Helvetica,sans-Serif" font-size="10.00">E_nu_n</text>
</a>
</g>
</g>
<!-- Node1&#45;&gt;Node8 -->
<g id="edge9" class="edge">
<title>Node1&#45;&gt;Node8</title>
<path fill="none" stroke="midnightblue" d="M127.95,-73.8C150.39,-65.02 176.76,-54.7 200.15,-45.54"/>
<polygon fill="midnightblue" stroke="midnightblue" points="201.59,-48.74 209.62,-41.83 199.04,-42.22 201.59,-48.74"/>
</g>
<!-- Node9 -->
<g id="node9" class="node">
<title>Node9</title>
<g id="a_node9"><a xlink:href="classbin_1_1create__neutrino__nucleon__file_1_1nunucleon.html#ae4ed85371e4780258497b935915369d1" target="_top" xlink:title=" ">
<polygon fill="white" stroke="black" points="377,-49.83 377,-90.83 525,-90.83 525,-49.83 377,-49.83"/>
<text text-anchor="start" x="385" y="-78.83" font-family="Helvetica,sans-Serif" font-size="10.00">bin.create_neutrino</text>
<text text-anchor="start" x="385" y="-67.83" font-family="Helvetica,sans-Serif" font-size="10.00">_nucleon_file.nunucleon.sigma</text>
<text text-anchor="middle" x="451" y="-56.83" font-family="Helvetica,sans-Serif" font-size="10.00">_avg_nu_n</text>
</a>
</g>
</g>
<!-- Node1&#45;&gt;Node9 -->
<g id="edge18" class="edge">
<title>Node1&#45;&gt;Node9</title>
<path fill="none" stroke="midnightblue" d="M149.04,-89.62C211.62,-85.61 301.47,-79.85 366.7,-75.67"/>
<polygon fill="midnightblue" stroke="midnightblue" points="367.19,-79.15 376.94,-75.01 366.74,-72.16 367.19,-79.15"/>
</g>
<!-- Node3 -->
<g id="node3" class="node">
<title>Node3</title>
<g id="a_node3"><a xlink:href="classbin_1_1create__neutrino__nucleon__file_1_1nunucleon.html#ad6aaaefa464d1facfcd880c496d825a3" target="_top" xlink:title=" ">
<polygon fill="white" stroke="black" points="574.5,-90.83 574.5,-131.83 726.5,-131.83 726.5,-90.83 574.5,-90.83"/>
<text text-anchor="start" x="582.5" y="-119.83" font-family="Helvetica,sans-Serif" font-size="10.00">bin.create_neutrino</text>
<text text-anchor="start" x="582.5" y="-108.83" font-family="Helvetica,sans-Serif" font-size="10.00">_nucleon_file.nunucleon.Fermi_</text>
<text text-anchor="middle" x="650.5" y="-97.83" font-family="Helvetica,sans-Serif" font-size="10.00">Dirac</text>
</a>
</g>
</g>
<!-- Node2&#45;&gt;Node3 -->
<g id="edge2" class="edge">
<title>Node2&#45;&gt;Node3</title>
<path fill="none" stroke="midnightblue" d="M341.09,-124.93C405.56,-122.09 497.43,-118.04 564.13,-115.1"/>
<polygon fill="midnightblue" stroke="midnightblue" points="564.35,-118.59 574.19,-114.65 564.04,-111.6 564.35,-118.59"/>
</g>
<!-- Node4 -->
<g id="node4" class="node">
<title>Node4</title>
<g id="a_node4"><a xlink:href="classbin_1_1create__neutrino__nucleon__file_1_1nunucleon.html#ac620b49e06adfc690472d7c4f7c3b38d" target="_top" xlink:title=" ">
<polygon fill="white" stroke="black" points="561,-150.33 561,-180.33 740,-180.33 740,-150.33 561,-150.33"/>
<text text-anchor="start" x="569" y="-168.33" font-family="Helvetica,sans-Serif" font-size="10.00">bin.create_neutrino</text>
<text text-anchor="middle" x="650.5" y="-157.33" font-family="Helvetica,sans-Serif" font-size="10.00">_nucleon_file.nunucleon.sigma_anu_p</text>
</a>
</g>
</g>
<!-- Node2&#45;&gt;Node4 -->
<g id="edge3" class="edge">
<title>Node2&#45;&gt;Node4</title>
<path fill="none" stroke="midnightblue" d="M341.09,-135.73C401.26,-141.5 485.29,-149.57 550.45,-155.82"/>
<polygon fill="midnightblue" stroke="midnightblue" points="550.45,-159.34 560.74,-156.81 551.12,-152.37 550.45,-159.34"/>
</g>
<!-- Node2&#45;&gt;Node7 -->
<g id="edge6" class="edge">
<title>Node2&#45;&gt;Node7</title>
<path fill="none" stroke="midnightblue" d="M313.36,-149.03C337.41,-159.11 366.49,-171.31 391.63,-181.85"/>
<polygon fill="midnightblue" stroke="midnightblue" points="390.48,-185.17 401.06,-185.81 393.19,-178.71 390.48,-185.17"/>
</g>
<!-- Node5 -->
<g id="node5" class="node">
<title>Node5</title>
<g id="a_node5"><a xlink:href="classbin_1_1create__neutrino__nucleon__file_1_1nunucleon.html#a34d35c5fbf3f086958cbb6ff65334d71" target="_top" xlink:title=" ">
<polygon fill="white" stroke="black" points="776,-135.33 776,-165.33 928,-165.33 928,-135.33 776,-135.33"/>
<text text-anchor="start" x="784" y="-153.33" font-family="Helvetica,sans-Serif" font-size="10.00">bin.create_neutrino</text>
<text text-anchor="middle" x="852" y="-142.33" font-family="Helvetica,sans-Serif" font-size="10.00">_nucleon_file.nunucleon.WMbar</text>
</a>
</g>
</g>
<!-- Node4&#45;&gt;Node5 -->
<g id="edge4" class="edge">
<title>Node4&#45;&gt;Node5</title>
<path fill="none" stroke="midnightblue" d="M740.17,-158.66C748.6,-158.03 757.14,-157.39 765.54,-156.76"/>
<polygon fill="midnightblue" stroke="midnightblue" points="766,-160.23 775.71,-155.99 765.47,-153.25 766,-160.23"/>
</g>
<!-- Node6 -->
<g id="node6" class="node">
<title>Node6</title>
<g id="a_node6"><a xlink:href="classbin_1_1create__neutrino__nucleon__file_1_1nunucleon.html#a4cbdc40f98cdb7758822a5bfc600bd35" target="_top" xlink:title=" ">
<polygon fill="white" stroke="black" points="964,-95.33 964,-125.33 1110,-125.33 1110,-95.33 964,-95.33"/>
<text text-anchor="start" x="972" y="-113.33" font-family="Helvetica,sans-Serif" font-size="10.00">bin.create_neutrino</text>
<text text-anchor="middle" x="1037" y="-102.33" font-family="Helvetica,sans-Serif" font-size="10.00">_nucleon_file.nunucleon.__cor</text>
</a>
</g>
</g>
<!-- Node5&#45;&gt;Node6 -->
<g id="edge5" class="edge">
<title>Node5&#45;&gt;Node6</title>
<path fill="none" stroke="midnightblue" d="M921.66,-135.32C933.31,-132.78 945.49,-130.12 957.37,-127.52"/>
<polygon fill="midnightblue" stroke="midnightblue" points="958.23,-130.91 967.26,-125.36 956.74,-124.07 958.23,-130.91"/>
</g>
<!-- Node7&#45;&gt;Node3 -->
<g id="edge7" class="edge">
<title>Node7&#45;&gt;Node3</title>
<path fill="none" stroke="midnightblue" d="M482.53,-185.75C503.87,-171.96 533.39,-154.07 561,-141.33 565.29,-139.35 569.74,-137.44 574.27,-135.6"/>
<polygon fill="midnightblue" stroke="midnightblue" points="575.61,-138.83 583.64,-131.92 573.06,-132.31 575.61,-138.83"/>
</g>
<!-- Node7&#45;&gt;Node4 -->
<g id="edge8" class="edge">
<title>Node7&#45;&gt;Node4</title>
<path fill="none" stroke="midnightblue" d="M525.26,-191.12C538.86,-188.3 553.16,-185.33 567.02,-182.45"/>
<polygon fill="midnightblue" stroke="midnightblue" points="567.94,-185.84 577.02,-180.38 566.51,-178.98 567.94,-185.84"/>
</g>
<!-- Node8&#45;&gt;Node3 -->
<g id="edge10" class="edge">
<title>Node8&#45;&gt;Node3</title>
<path fill="none" stroke="midnightblue" d="M341.23,-11.85C395.48,-8.68 468.22,-11.67 525,-40.33 546.95,-51.41 540.56,-68.66 561,-82.33 562.86,-83.57 564.77,-84.76 566.73,-85.91"/>
<polygon fill="midnightblue" stroke="midnightblue" points="565.11,-89.01 575.58,-90.62 568.4,-82.83 565.11,-89.01"/>
</g>
<!-- Node8&#45;&gt;Node9 -->
<g id="edge11" class="edge">
<title>Node8&#45;&gt;Node9</title>
<path fill="none" stroke="midnightblue" d="M341.26,-41.69C349.73,-43.92 358.37,-46.19 366.91,-48.44"/>
<polygon fill="midnightblue" stroke="midnightblue" points="366.29,-51.9 376.85,-51.06 368.07,-45.13 366.29,-51.9"/>
</g>
<!-- Node10 -->
<g id="node10" class="node">
<title>Node10</title>
<g id="a_node10"><a xlink:href="classbin_1_1create__neutrino__nucleon__file_1_1nunucleon.html#a0d686c2de17741b000871c6d41046bd1" target="_top" xlink:title=" ">
<polygon fill="white" stroke="black" points="563.5,-42.33 563.5,-72.33 737.5,-72.33 737.5,-42.33 563.5,-42.33"/>
<text text-anchor="start" x="571.5" y="-60.33" font-family="Helvetica,sans-Serif" font-size="10.00">bin.create_neutrino</text>
<text text-anchor="middle" x="650.5" y="-49.33" font-family="Helvetica,sans-Serif" font-size="10.00">_nucleon_file.nunucleon.sigma_nu_n</text>
</a>
</g>
</g>
<!-- Node8&#45;&gt;Node10 -->
<g id="edge16" class="edge">
<title>Node8&#45;&gt;Node10</title>
<path fill="none" stroke="midnightblue" d="M341.19,-7.42C393.51,-0.37 463.96,4.47 525,-7.33 555.28,-13.19 587.55,-26.36 611.65,-37.72"/>
<polygon fill="midnightblue" stroke="midnightblue" points="610.26,-40.93 620.78,-42.12 613.3,-34.63 610.26,-40.93"/>
</g>
<!-- Node9&#45;&gt;Node3 -->
<g id="edge12" class="edge">
<title>Node9&#45;&gt;Node3</title>
<path fill="none" stroke="midnightblue" d="M525.26,-85.54C538.03,-88.19 551.42,-90.97 564.47,-93.68"/>
<polygon fill="midnightblue" stroke="midnightblue" points="563.87,-97.13 574.38,-95.74 565.3,-90.28 563.87,-97.13"/>
</g>
<!-- Node9&#45;&gt;Node10 -->
<g id="edge13" class="edge">
<title>Node9&#45;&gt;Node10</title>
<path fill="none" stroke="midnightblue" d="M525.26,-65.51C534.37,-64.91 543.79,-64.29 553.18,-63.67"/>
<polygon fill="midnightblue" stroke="midnightblue" points="553.6,-67.15 563.35,-63 553.14,-60.17 553.6,-67.15"/>
</g>
<!-- Node11 -->
<g id="node11" class="node">
<title>Node11</title>
<g id="a_node11"><a xlink:href="classbin_1_1create__neutrino__nucleon__file_1_1nunucleon.html#aba65e1a48977644763f13c057782caca" target="_top" xlink:title=" ">
<polygon fill="white" stroke="black" points="782.5,-71.33 782.5,-101.33 921.5,-101.33 921.5,-71.33 782.5,-71.33"/>
<text text-anchor="start" x="790.5" y="-89.33" font-family="Helvetica,sans-Serif" font-size="10.00">bin.create_neutrino</text>
<text text-anchor="middle" x="852" y="-78.33" font-family="Helvetica,sans-Serif" font-size="10.00">_nucleon_file.nunucleon.WM</text>
</a>
</g>
</g>
<!-- Node10&#45;&gt;Node11 -->
<g id="edge14" class="edge">
<title>Node10&#45;&gt;Node11</title>
<path fill="none" stroke="midnightblue" d="M737.55,-69.84C749.14,-71.52 760.97,-73.24 772.41,-74.91"/>
<polygon fill="midnightblue" stroke="midnightblue" points="771.95,-78.38 782.35,-76.35 772.96,-71.45 771.95,-78.38"/>
</g>
<!-- Node11&#45;&gt;Node6 -->
<g id="edge15" class="edge">
<title>Node11&#45;&gt;Node6</title>
<path fill="none" stroke="midnightblue" d="M921.66,-95.34C932.12,-96.71 942.99,-98.13 953.7,-99.54"/>
<polygon fill="midnightblue" stroke="midnightblue" points="953.52,-103.04 963.9,-100.87 954.44,-96.1 953.52,-103.04"/>
</g>
</g>
</svg>
