<?xml version="1.0" encoding="UTF-8" standalone="no"?>
<!DOCTYPE svg PUBLIC "-//W3C//DTD SVG 1.1//EN"
 "http://www.w3.org/Graphics/SVG/1.1/DTD/svg11.dtd">
<!-- Generated by graphviz version 2.44.0 ()
 -->
<!-- Title: src_files.FlowAnimation.FlowAnimation.on_slider_update Pages: 1 -->
<svg width="703pt" height="410pt"
 viewBox="0.00 0.00 703.00 409.50" xmlns="http://www.w3.org/2000/svg" xmlns:xlink="http://www.w3.org/1999/xlink">
<g id="graph0" class="graph" transform="scale(1 1) rotate(0) translate(4 405.5)">
<title>src_files.FlowAnimation.FlowAnimation.on_slider_update</title>
<polygon fill="white" stroke="transparent" points="-4,4 -4,-405.5 699,-405.5 699,4 -4,4"/>
<!-- Node1 -->
<g id="node1" class="node">
<title>Node1</title>
<g id="a_node1"><a xlink:title=" ">
<polygon fill="#bfbfbf" stroke="black" points="0,-142 0,-183 122,-183 122,-142 0,-142"/>
<text text-anchor="start" x="8" y="-171" font-family="Helvetica,sans-Serif" font-size="10.00">src_files.FlowAnimation.</text>
<text text-anchor="start" x="8" y="-160" font-family="Helvetica,sans-Serif" font-size="10.00">FlowAnimation.on_slider</text>
<text text-anchor="middle" x="61" y="-149" font-family="Helvetica,sans-Serif" font-size="10.00">_update</text>
</a>
</g>
</g>
<!-- Node2 -->
<g id="node2" class="node">
<title>Node2</title>
<g id="a_node2"><a xlink:href="classsrc__files_1_1FlowAnimation_1_1FlowAnimation.html#aa43d9d15f49ab97e34b6f975228b02f1" target="_top" xlink:title=" ">
<polygon fill="white" stroke="black" points="158,-147.5 158,-177.5 301,-177.5 301,-147.5 158,-147.5"/>
<text text-anchor="start" x="166" y="-165.5" font-family="Helvetica,sans-Serif" font-size="10.00">src_files.FlowAnimation.</text>
<text text-anchor="middle" x="229.5" y="-154.5" font-family="Helvetica,sans-Serif" font-size="10.00">FlowAnimation.update_frame</text>
</a>
</g>
</g>
<!-- Node1&#45;&gt;Node2 -->
<g id="edge1" class="edge">
<title>Node1&#45;&gt;Node2</title>
<path fill="none" stroke="midnightblue" d="M122.11,-162.5C130.48,-162.5 139.19,-162.5 147.86,-162.5"/>
<polygon fill="midnightblue" stroke="midnightblue" points="147.99,-166 157.99,-162.5 147.99,-159 147.99,-166"/>
</g>
<!-- Node3 -->
<g id="node3" class="node">
<title>Node3</title>
<g id="a_node3"><a xlink:href="classsrc__files_1_1FlowAnimation_1_1FlowAnimation.html#ae5cf5c670cfd79914fba912bfada1083" target="_top" xlink:title=" ">
<polygon fill="white" stroke="black" points="349,-294.5 349,-324.5 509,-324.5 509,-294.5 349,-294.5"/>
<text text-anchor="start" x="357" y="-312.5" font-family="Helvetica,sans-Serif" font-size="10.00">src_files.FlowAnimation.</text>
<text text-anchor="middle" x="429" y="-301.5" font-family="Helvetica,sans-Serif" font-size="10.00">FlowAnimation.update_abun_plot</text>
</a>
</g>
</g>
<!-- Node2&#45;&gt;Node3 -->
<g id="edge2" class="edge">
<title>Node2&#45;&gt;Node3</title>
<path fill="none" stroke="midnightblue" d="M239.26,-177.56C255.24,-203.67 291.7,-257.25 337,-285.5 339.77,-287.23 342.67,-288.83 345.65,-290.32"/>
<polygon fill="midnightblue" stroke="midnightblue" points="344.26,-293.54 354.82,-294.46 347.14,-287.16 344.26,-293.54"/>
</g>
<!-- Node4 -->
<g id="node4" class="node">
<title>Node4</title>
<g id="a_node4"><a xlink:href="classsrc__files_1_1FlowAnimation_1_1FlowAnimation.html#a95e4fc280171aeddd24ea64c7ac34ca1" target="_top" xlink:title=" ">
<polygon fill="white" stroke="black" points="360.5,-245.5 360.5,-275.5 497.5,-275.5 497.5,-245.5 360.5,-245.5"/>
<text text-anchor="start" x="368.5" y="-263.5" font-family="Helvetica,sans-Serif" font-size="10.00">src_files.FlowAnimation.</text>
<text text-anchor="middle" x="429" y="-252.5" font-family="Helvetica,sans-Serif" font-size="10.00">FlowAnimation.update_data</text>
</a>
</g>
</g>
<!-- Node2&#45;&gt;Node4 -->
<g id="edge3" class="edge">
<title>Node2&#45;&gt;Node4</title>
<path fill="none" stroke="midnightblue" d="M248.15,-177.7C268.36,-194.37 303.07,-220.83 337,-236.5 341.4,-238.53 346.01,-240.42 350.71,-242.16"/>
<polygon fill="midnightblue" stroke="midnightblue" points="349.87,-245.57 360.47,-245.54 352.16,-238.96 349.87,-245.57"/>
</g>
<!-- Node10 -->
<g id="node10" class="node">
<title>Node10</title>
<g id="a_node10"><a xlink:href="classsrc__files_1_1FlowAnimation_1_1FlowAnimation.html#a3c3a1682828427540b5999cfb2680498" target="_top" xlink:title=" ">
<polygon fill="white" stroke="black" points="345.5,-196.5 345.5,-226.5 512.5,-226.5 512.5,-196.5 345.5,-196.5"/>
<text text-anchor="start" x="353.5" y="-214.5" font-family="Helvetica,sans-Serif" font-size="10.00">src_files.FlowAnimation.</text>
<text text-anchor="middle" x="429" y="-203.5" font-family="Helvetica,sans-Serif" font-size="10.00">FlowAnimation.update_fission_plot</text>
</a>
</g>
</g>
<!-- Node2&#45;&gt;Node10 -->
<g id="edge9" class="edge">
<title>Node2&#45;&gt;Node10</title>
<path fill="none" stroke="midnightblue" d="M291.1,-177.53C312.14,-182.76 335.92,-188.65 357.68,-194.05"/>
<polygon fill="midnightblue" stroke="midnightblue" points="356.97,-197.48 367.52,-196.49 358.65,-190.69 356.97,-197.48"/>
</g>
<!-- Node11 -->
<g id="node11" class="node">
<title>Node11</title>
<g id="a_node11"><a xlink:href="classsrc__files_1_1FlowAnimation_1_1FlowAnimation.html#a69be16253d1914cf7d7b615f991b30b5" target="_top" xlink:title=" ">
<polygon fill="white" stroke="black" points="351,-147.5 351,-177.5 507,-177.5 507,-147.5 351,-147.5"/>
<text text-anchor="start" x="359" y="-165.5" font-family="Helvetica,sans-Serif" font-size="10.00">src_files.FlowAnimation.</text>
<text text-anchor="middle" x="429" y="-154.5" font-family="Helvetica,sans-Serif" font-size="10.00">FlowAnimation.update_flow_plot</text>
</a>
</g>
</g>
<!-- Node2&#45;&gt;Node11 -->
<g id="edge10" class="edge">
<title>Node2&#45;&gt;Node11</title>
<path fill="none" stroke="midnightblue" d="M301.24,-162.5C314.03,-162.5 327.51,-162.5 340.7,-162.5"/>
<polygon fill="midnightblue" stroke="midnightblue" points="340.72,-166 350.72,-162.5 340.72,-159 340.72,-166"/>
</g>
<!-- Node12 -->
<g id="node12" class="node">
<title>Node12</title>
<g id="a_node12"><a xlink:href="classsrc__files_1_1FlowAnimation_1_1FlowAnimation.html#a0f74e5f140064ab9090785781a2d397d" target="_top" xlink:title=" ">
<polygon fill="white" stroke="black" points="337,-98.5 337,-128.5 521,-128.5 521,-98.5 337,-98.5"/>
<text text-anchor="start" x="345" y="-116.5" font-family="Helvetica,sans-Serif" font-size="10.00">src_files.FlowAnimation.</text>
<text text-anchor="middle" x="429" y="-105.5" font-family="Helvetica,sans-Serif" font-size="10.00">FlowAnimation.update_interactive_text</text>
</a>
</g>
</g>
<!-- Node2&#45;&gt;Node12 -->
<g id="edge11" class="edge">
<title>Node2&#45;&gt;Node12</title>
<path fill="none" stroke="midnightblue" d="M291.1,-147.47C312.14,-142.24 335.92,-136.35 357.68,-130.95"/>
<polygon fill="midnightblue" stroke="midnightblue" points="358.65,-134.31 367.52,-128.51 356.97,-127.52 358.65,-134.31"/>
</g>
<!-- Node13 -->
<g id="node13" class="node">
<title>Node13</title>
<g id="a_node13"><a xlink:href="classsrc__files_1_1FlowAnimation_1_1FlowAnimation.html#a884d661885aa9f83ca36713c791fd245" target="_top" xlink:title=" ">
<polygon fill="white" stroke="black" points="341,-49.5 341,-79.5 517,-79.5 517,-49.5 341,-49.5"/>
<text text-anchor="start" x="349" y="-67.5" font-family="Helvetica,sans-Serif" font-size="10.00">src_files.FlowAnimation.</text>
<text text-anchor="middle" x="429" y="-56.5" font-family="Helvetica,sans-Serif" font-size="10.00">FlowAnimation.update_ngamma_plot</text>
</a>
</g>
</g>
<!-- Node2&#45;&gt;Node13 -->
<g id="edge12" class="edge">
<title>Node2&#45;&gt;Node13</title>
<path fill="none" stroke="midnightblue" d="M248.15,-147.3C268.36,-130.63 303.07,-104.17 337,-88.5 341.32,-86.51 345.83,-84.66 350.43,-82.94"/>
<polygon fill="midnightblue" stroke="midnightblue" points="351.69,-86.21 359.98,-79.62 349.39,-79.6 351.69,-86.21"/>
</g>
<!-- Node14 -->
<g id="node14" class="node">
<title>Node14</title>
<g id="a_node14"><a xlink:href="classsrc__files_1_1FlowAnimation_1_1FlowAnimation.html#a269a1fec8ec2787aa0048fb744c544a2" target="_top" xlink:title=" ">
<polygon fill="white" stroke="black" points="358.5,-0.5 358.5,-30.5 499.5,-30.5 499.5,-0.5 358.5,-0.5"/>
<text text-anchor="start" x="366.5" y="-18.5" font-family="Helvetica,sans-Serif" font-size="10.00">src_files.FlowAnimation.</text>
<text text-anchor="middle" x="429" y="-7.5" font-family="Helvetica,sans-Serif" font-size="10.00">FlowAnimation.update_slider</text>
</a>
</g>
</g>
<!-- Node2&#45;&gt;Node14 -->
<g id="edge13" class="edge">
<title>Node2&#45;&gt;Node14</title>
<path fill="none" stroke="midnightblue" d="M239.26,-147.44C255.24,-121.33 291.7,-67.75 337,-39.5 340.67,-37.21 344.54,-35.15 348.55,-33.27"/>
<polygon fill="midnightblue" stroke="midnightblue" points="350.25,-36.36 358.11,-29.25 347.53,-29.9 350.25,-36.36"/>
</g>
<!-- Node5 -->
<g id="node5" class="node">
<title>Node5</title>
<g id="a_node5"><a xlink:href="classsrc__files_1_1FlowAnimation_1_1FlowAnimation.html#a8fc4810f1535c249641ab8cb7377d98b" target="_top" xlink:title=" ">
<polygon fill="white" stroke="black" points="560.5,-360 560.5,-401 691.5,-401 691.5,-360 560.5,-360"/>
<text text-anchor="start" x="568.5" y="-389" font-family="Helvetica,sans-Serif" font-size="10.00">src_files.FlowAnimation.</text>
<text text-anchor="start" x="568.5" y="-378" font-family="Helvetica,sans-Serif" font-size="10.00">FlowAnimation.__init_data</text>
<text text-anchor="middle" x="626" y="-367" font-family="Helvetica,sans-Serif" font-size="10.00">_addmainout</text>
</a>
</g>
</g>
<!-- Node4&#45;&gt;Node5 -->
<g id="edge4" class="edge">
<title>Node4&#45;&gt;Node5</title>
<path fill="none" stroke="midnightblue" d="M497.57,-272.41C505.98,-275.76 514.05,-280.03 521,-285.5 546.96,-305.92 532.62,-328.23 557,-350.5 558.31,-351.7 559.68,-352.85 561.09,-353.97"/>
<polygon fill="midnightblue" stroke="midnightblue" points="559.4,-357.05 569.6,-359.9 563.4,-351.31 559.4,-357.05"/>
</g>
<!-- Node6 -->
<g id="node6" class="node">
<title>Node6</title>
<g id="a_node6"><a xlink:href="classsrc__files_1_1FlowAnimation_1_1FlowAnimation.html#a9e88300af271ce4c397fb5b6368ffb68" target="_top" xlink:title=" ">
<polygon fill="white" stroke="black" points="560.5,-300 560.5,-341 691.5,-341 691.5,-300 560.5,-300"/>
<text text-anchor="start" x="568.5" y="-329" font-family="Helvetica,sans-Serif" font-size="10.00">src_files.FlowAnimation.</text>
<text text-anchor="start" x="568.5" y="-318" font-family="Helvetica,sans-Serif" font-size="10.00">FlowAnimation.__init_data</text>
<text text-anchor="middle" x="626" y="-307" font-family="Helvetica,sans-Serif" font-size="10.00">_energy</text>
</a>
</g>
</g>
<!-- Node4&#45;&gt;Node6 -->
<g id="edge5" class="edge">
<title>Node4&#45;&gt;Node6</title>
<path fill="none" stroke="midnightblue" d="M486.94,-275.61C498.26,-278.76 510.03,-282.15 521,-285.5 532.39,-288.98 544.41,-292.84 556.09,-296.7"/>
<polygon fill="midnightblue" stroke="midnightblue" points="555.2,-300.09 565.79,-299.93 557.41,-293.45 555.2,-300.09"/>
</g>
<!-- Node7 -->
<g id="node7" class="node">
<title>Node7</title>
<g id="a_node7"><a xlink:href="classsrc__files_1_1FlowAnimation_1_1FlowAnimation.html#a0e9148bf5756f81387be0f1c34c0b0f1" target="_top" xlink:title=" ">
<polygon fill="white" stroke="black" points="560.5,-240 560.5,-281 691.5,-281 691.5,-240 560.5,-240"/>
<text text-anchor="start" x="568.5" y="-269" font-family="Helvetica,sans-Serif" font-size="10.00">src_files.FlowAnimation.</text>
<text text-anchor="start" x="568.5" y="-258" font-family="Helvetica,sans-Serif" font-size="10.00">FlowAnimation.__init_data</text>
<text text-anchor="middle" x="626" y="-247" font-family="Helvetica,sans-Serif" font-size="10.00">_timescales</text>
</a>
</g>
</g>
<!-- Node4&#45;&gt;Node7 -->
<g id="edge6" class="edge">
<title>Node4&#45;&gt;Node7</title>
<path fill="none" stroke="midnightblue" d="M497.65,-260.5C514.67,-260.5 533.02,-260.5 550.35,-260.5"/>
<polygon fill="midnightblue" stroke="midnightblue" points="550.42,-264 560.42,-260.5 550.42,-257 550.42,-264"/>
</g>
<!-- Node8 -->
<g id="node8" class="node">
<title>Node8</title>
<g id="a_node8"><a xlink:href="classsrc__files_1_1FlowAnimation_1_1FlowAnimation.html#a7031b76d4d9ec67e745a8357a8704540" target="_top" xlink:title=" ">
<polygon fill="white" stroke="black" points="560.5,-180 560.5,-221 691.5,-221 691.5,-180 560.5,-180"/>
<text text-anchor="start" x="568.5" y="-209" font-family="Helvetica,sans-Serif" font-size="10.00">src_files.FlowAnimation.</text>
<text text-anchor="start" x="568.5" y="-198" font-family="Helvetica,sans-Serif" font-size="10.00">FlowAnimation.__init_data</text>
<text text-anchor="middle" x="626" y="-187" font-family="Helvetica,sans-Serif" font-size="10.00">_tracked</text>
</a>
</g>
</g>
<!-- Node4&#45;&gt;Node8 -->
<g id="edge7" class="edge">
<title>Node4&#45;&gt;Node8</title>
<path fill="none" stroke="midnightblue" d="M489.9,-245.39C500.31,-242.57 511,-239.55 521,-236.5 533.12,-232.81 545.93,-228.62 558.27,-224.43"/>
<polygon fill="midnightblue" stroke="midnightblue" points="559.71,-227.64 568.04,-221.08 557.44,-221.01 559.71,-227.64"/>
</g>
<!-- Node9 -->
<g id="node9" class="node">
<title>Node9</title>
<g id="a_node9"><a xlink:href="classsrc__files_1_1FlowAnimation_1_1FlowAnimation.html#a0b441e840894c30065df01b4a0c814ed" target="_top" xlink:title=" ">
<polygon fill="white" stroke="black" points="557,-131.5 557,-161.5 695,-161.5 695,-131.5 557,-131.5"/>
<text text-anchor="start" x="565" y="-149.5" font-family="Helvetica,sans-Serif" font-size="10.00">src_files.FlowAnimation.</text>
<text text-anchor="middle" x="626" y="-138.5" font-family="Helvetica,sans-Serif" font-size="10.00">FlowAnimation.sum_over_A</text>
</a>
</g>
</g>
<!-- Node4&#45;&gt;Node9 -->
<g id="edge8" class="edge">
<title>Node4&#45;&gt;Node9</title>
<path fill="none" stroke="midnightblue" d="M497.59,-249.42C505.99,-246.16 514.06,-241.94 521,-236.5 547.3,-215.89 531.56,-192.16 557,-170.5 558.5,-169.22 560.08,-168.01 561.71,-166.86"/>
<polygon fill="midnightblue" stroke="midnightblue" points="563.57,-169.82 570.28,-161.63 559.92,-163.85 563.57,-169.82"/>
</g>
</g>
</svg>
