<?xml version="1.0" encoding="UTF-8" standalone="no"?>
<!DOCTYPE svg PUBLIC "-//W3C//DTD SVG 1.1//EN"
 "http://www.w3.org/Graphics/SVG/1.1/DTD/svg11.dtd">
<!-- Generated by graphviz version 2.44.0 ()
 -->
<!-- Title: bin.class_files.winnet_class.winnet.plot_final_Z_Y Pages: 1 -->
<svg width="754pt" height="39pt"
 viewBox="0.00 0.00 754.00 39.00" xmlns="http://www.w3.org/2000/svg" xmlns:xlink="http://www.w3.org/1999/xlink">
<g id="graph0" class="graph" transform="scale(1 1) rotate(0) translate(4 35)">
<title>bin.class_files.winnet_class.winnet.plot_final_Z_Y</title>
<polygon fill="white" stroke="transparent" points="-4,4 -4,-35 750,-35 750,4 -4,4"/>
<!-- Node1 -->
<g id="node1" class="node">
<title>Node1</title>
<g id="a_node1"><a xlink:title=" ">
<polygon fill="#bfbfbf" stroke="black" points="0,-0.5 0,-30.5 140,-30.5 140,-0.5 0,-0.5"/>
<text text-anchor="start" x="8" y="-18.5" font-family="Helvetica,sans-Serif" font-size="10.00">bin.class_files.winnet</text>
<text text-anchor="middle" x="70" y="-7.5" font-family="Helvetica,sans-Serif" font-size="10.00">_class.winnet.plot_final_Z_Y</text>
</a>
</g>
</g>
<!-- Node2 -->
<g id="node2" class="node">
<title>Node2</title>
<g id="a_node2"><a xlink:href="classbin_1_1class__files_1_1winnet__class_1_1winnet.html#a61b96a9b348a5c48918d8b8f81eba248" target="_top" xlink:title=" ">
<polygon fill="white" stroke="black" points="176,-0.5 176,-30.5 313,-30.5 313,-0.5 176,-0.5"/>
<text text-anchor="start" x="184" y="-18.5" font-family="Helvetica,sans-Serif" font-size="10.00">bin.class_files.winnet</text>
<text text-anchor="middle" x="244.5" y="-7.5" font-family="Helvetica,sans-Serif" font-size="10.00">_class.winnet.get_final_Z_Y</text>
</a>
</g>
</g>
<!-- Node1&#45;&gt;Node2 -->
<g id="edge1" class="edge">
<title>Node1&#45;&gt;Node2</title>
<path fill="none" stroke="midnightblue" d="M140.17,-15.5C148.5,-15.5 157.05,-15.5 165.49,-15.5"/>
<polygon fill="midnightblue" stroke="midnightblue" points="165.72,-19 175.72,-15.5 165.72,-12 165.72,-19"/>
</g>
<!-- Node3 -->
<g id="node3" class="node">
<title>Node3</title>
<g id="a_node3"><a xlink:href="namespacetw__rate__module.html#a245abf84e3851a5ce7d9b88a55919e0e" target="_top" xlink:title="Sorts the entries in weak_rate in increasing order of the decaying nuclide.">
<polygon fill="white" stroke="black" points="349,-6 349,-25 456,-25 456,-6 349,-6"/>
<text text-anchor="middle" x="402.5" y="-13" font-family="Helvetica,sans-Serif" font-size="10.00">tw_rate_module::sort</text>
</a>
</g>
</g>
<!-- Node2&#45;&gt;Node3 -->
<g id="edge2" class="edge">
<title>Node2&#45;&gt;Node3</title>
<path fill="none" stroke="midnightblue" d="M313.02,-15.5C321.56,-15.5 330.28,-15.5 338.75,-15.5"/>
<polygon fill="midnightblue" stroke="midnightblue" points="338.93,-19 348.93,-15.5 338.93,-12 338.93,-19"/>
</g>
<!-- Node4 -->
<g id="node4" class="node">
<title>Node4</title>
<g id="a_node4"><a xlink:href="namespaceerror__msg__class.html#a2453d3b7cb363115c046840baa1dfb75" target="_top" xlink:title="Raise a exception with a given error message.">
<polygon fill="white" stroke="black" points="492,-0.5 492,-30.5 606,-30.5 606,-0.5 492,-0.5"/>
<text text-anchor="start" x="500" y="-18.5" font-family="Helvetica,sans-Serif" font-size="10.00">error_msg_class::raise</text>
<text text-anchor="middle" x="549" y="-7.5" font-family="Helvetica,sans-Serif" font-size="10.00">_exception</text>
</a>
</g>
</g>
<!-- Node3&#45;&gt;Node4 -->
<g id="edge3" class="edge">
<title>Node3&#45;&gt;Node4</title>
<path fill="none" stroke="midnightblue" d="M456.08,-15.5C464.43,-15.5 473.16,-15.5 481.78,-15.5"/>
<polygon fill="midnightblue" stroke="midnightblue" points="481.81,-19 491.81,-15.5 481.81,-12 481.81,-19"/>
</g>
<!-- Node5 -->
<g id="node5" class="node">
<title>Node5</title>
<g id="a_node5"><a xlink:href="namespaceerror__msg__class.html#a7e065585cc806a5c264de1f088266498" target="_top" xlink:title="Converts a given integer to a string.">
<polygon fill="white" stroke="black" points="642,-0.5 642,-30.5 746,-30.5 746,-0.5 642,-0.5"/>
<text text-anchor="start" x="650" y="-18.5" font-family="Helvetica,sans-Serif" font-size="10.00">error_msg_class::int</text>
<text text-anchor="middle" x="694" y="-7.5" font-family="Helvetica,sans-Serif" font-size="10.00">_to_str</text>
</a>
</g>
</g>
<!-- Node4&#45;&gt;Node5 -->
<g id="edge4" class="edge">
<title>Node4&#45;&gt;Node5</title>
<path fill="none" stroke="midnightblue" d="M606.11,-15.5C614.45,-15.5 623.09,-15.5 631.54,-15.5"/>
<polygon fill="midnightblue" stroke="midnightblue" points="631.71,-19 641.71,-15.5 631.71,-12 631.71,-19"/>
</g>
</g>
</svg>
