<?xml version="1.0" encoding="UTF-8" standalone="no"?>
<!DOCTYPE svg PUBLIC "-//W3C//DTD SVG 1.1//EN"
 "http://www.w3.org/Graphics/SVG/1.1/DTD/svg11.dtd">
<!-- Generated by graphviz version 2.44.0 ()
 -->
<!-- Title: src_files.nucleus_multiple_class.nucleus_multiple.A_X Pages: 1 -->
<svg width="314pt" height="219pt"
 viewBox="0.00 0.00 314.00 218.50" xmlns="http://www.w3.org/2000/svg" xmlns:xlink="http://www.w3.org/1999/xlink">
<g id="graph0" class="graph" transform="scale(1 1) rotate(0) translate(4 214.5)">
<title>src_files.nucleus_multiple_class.nucleus_multiple.A_X</title>
<polygon fill="white" stroke="transparent" points="-4,4 -4,-214.5 310,-214.5 310,4 -4,4"/>
<!-- Node1 -->
<g id="node1" class="node">
<title>Node1</title>
<g id="a_node1"><a xlink:title=" ">
<polygon fill="#bfbfbf" stroke="black" points="0,-84.5 0,-114.5 141,-114.5 141,-84.5 0,-84.5"/>
<text text-anchor="start" x="8" y="-102.5" font-family="Helvetica,sans-Serif" font-size="10.00">src_files.nucleus_multiple</text>
<text text-anchor="middle" x="70.5" y="-91.5" font-family="Helvetica,sans-Serif" font-size="10.00">_class.nucleus_multiple.A_X</text>
</a>
</g>
</g>
<!-- Node2 -->
<g id="node2" class="node">
<title>Node2</title>
<g id="a_node2"><a xlink:href="classbin_1_1class__files_1_1nucleus__multiple__class_1_1nucleus__multiple.html#ac65a397805f0e4abf3cce66a03157eec" target="_top" xlink:title=" ">
<polygon fill="white" stroke="black" points="181.5,-169 181.5,-210 301.5,-210 301.5,-169 181.5,-169"/>
<text text-anchor="start" x="189.5" y="-198" font-family="Helvetica,sans-Serif" font-size="10.00">bin.class_files.nucleus</text>
<text text-anchor="start" x="189.5" y="-187" font-family="Helvetica,sans-Serif" font-size="10.00">_multiple_class.nucleus</text>
<text text-anchor="middle" x="241.5" y="-176" font-family="Helvetica,sans-Serif" font-size="10.00">_multiple.__sum_over</text>
</a>
</g>
</g>
<!-- Node1&#45;&gt;Node2 -->
<g id="edge1" class="edge">
<title>Node1&#45;&gt;Node2</title>
<path fill="none" stroke="midnightblue" d="M96.78,-114.6C117.97,-127.07 149.14,-145.02 177,-159.5 180.12,-161.12 183.35,-162.76 186.62,-164.39"/>
<polygon fill="midnightblue" stroke="midnightblue" points="185.36,-167.67 195.88,-168.94 188.45,-161.39 185.36,-167.67"/>
</g>
<!-- Node3 -->
<g id="node3" class="node">
<title>Node3</title>
<g id="a_node3"><a xlink:href="classsrc__files_1_1nucleus__multiple__class_1_1nucleus__multiple.html#aaa6d71676bdeab14501f9211dc917ba7" target="_top" xlink:title=" ">
<polygon fill="white" stroke="black" points="177.5,-109 177.5,-150 305.5,-150 305.5,-109 177.5,-109"/>
<text text-anchor="start" x="185.5" y="-138" font-family="Helvetica,sans-Serif" font-size="10.00">src_files.nucleus_multiple</text>
<text text-anchor="start" x="185.5" y="-127" font-family="Helvetica,sans-Serif" font-size="10.00">_class.nucleus_multiple.</text>
<text text-anchor="middle" x="241.5" y="-116" font-family="Helvetica,sans-Serif" font-size="10.00">__sum_over</text>
</a>
</g>
</g>
<!-- Node1&#45;&gt;Node3 -->
<g id="edge2" class="edge">
<title>Node1&#45;&gt;Node3</title>
<path fill="none" stroke="midnightblue" d="M141.21,-111.88C149.84,-113.41 158.68,-114.98 167.36,-116.52"/>
<polygon fill="midnightblue" stroke="midnightblue" points="166.99,-120 177.44,-118.31 168.21,-113.11 166.99,-120"/>
</g>
<!-- Node4 -->
<g id="node4" class="node">
<title>Node4</title>
<g id="a_node4"><a xlink:href="classbin_1_1class__files_1_1nucleus__multiple__class_1_1nucleus__multiple.html#a34bb1264e87dbf9d143f7a6377249b0d" target="_top" xlink:title=" ">
<polygon fill="white" stroke="black" points="181.5,-49 181.5,-90 301.5,-90 301.5,-49 181.5,-49"/>
<text text-anchor="start" x="189.5" y="-78" font-family="Helvetica,sans-Serif" font-size="10.00">bin.class_files.nucleus</text>
<text text-anchor="start" x="189.5" y="-67" font-family="Helvetica,sans-Serif" font-size="10.00">_multiple_class.nucleus</text>
<text text-anchor="middle" x="241.5" y="-56" font-family="Helvetica,sans-Serif" font-size="10.00">_multiple.X</text>
</a>
</g>
</g>
<!-- Node1&#45;&gt;Node4 -->
<g id="edge3" class="edge">
<title>Node1&#45;&gt;Node4</title>
<path fill="none" stroke="midnightblue" d="M141.21,-87.12C151.24,-85.35 161.55,-83.51 171.56,-81.74"/>
<polygon fill="midnightblue" stroke="midnightblue" points="172.21,-85.18 181.45,-79.98 170.99,-78.28 172.21,-85.18"/>
</g>
<!-- Node5 -->
<g id="node5" class="node">
<title>Node5</title>
<g id="a_node5"><a xlink:href="classsrc__files_1_1nucleus__multiple__class_1_1nucleus__multiple.html#adacad0cd4e800e12ac40bfff3105f226" target="_top" xlink:title=" ">
<polygon fill="white" stroke="black" points="177,-0.5 177,-30.5 306,-30.5 306,-0.5 177,-0.5"/>
<text text-anchor="start" x="185" y="-18.5" font-family="Helvetica,sans-Serif" font-size="10.00">src_files.nucleus_multiple</text>
<text text-anchor="middle" x="241.5" y="-7.5" font-family="Helvetica,sans-Serif" font-size="10.00">_class.nucleus_multiple.X</text>
</a>
</g>
</g>
<!-- Node1&#45;&gt;Node5 -->
<g id="edge4" class="edge">
<title>Node1&#45;&gt;Node5</title>
<path fill="none" stroke="midnightblue" d="M95.65,-84.33C116.67,-71.47 148.2,-53.03 177,-39.5 180.62,-37.8 184.39,-36.13 188.21,-34.51"/>
<polygon fill="midnightblue" stroke="midnightblue" points="189.83,-37.63 197.76,-30.61 187.18,-31.15 189.83,-37.63"/>
</g>
</g>
</svg>
