<?xml version="1.0" encoding="UTF-8" standalone="no"?>
<!DOCTYPE svg PUBLIC "-//W3C//DTD SVG 1.1//EN"
 "http://www.w3.org/Graphics/SVG/1.1/DTD/svg11.dtd">
<!-- Generated by graphviz version 2.44.0 ()
 -->
<!-- Title: src_files.nucleus_multiple_class.nucleus_multiple.__truediv__ Pages: 1 -->
<svg width="454pt" height="230pt"
 viewBox="0.00 0.00 454.00 230.00" xmlns="http://www.w3.org/2000/svg" xmlns:xlink="http://www.w3.org/1999/xlink">
<g id="graph0" class="graph" transform="scale(1 1) rotate(0) translate(4 226)">
<title>src_files.nucleus_multiple_class.nucleus_multiple.__truediv__</title>
<polygon fill="white" stroke="transparent" points="-4,4 -4,-226 450,-226 450,4 -4,4"/>
<!-- Node1 -->
<g id="node1" class="node">
<title>Node1</title>
<g id="a_node1"><a xlink:title=" ">
<polygon fill="#bfbfbf" stroke="black" points="0,-90.5 0,-131.5 128,-131.5 128,-90.5 0,-90.5"/>
<text text-anchor="start" x="8" y="-119.5" font-family="Helvetica,sans-Serif" font-size="10.00">src_files.nucleus_multiple</text>
<text text-anchor="start" x="8" y="-108.5" font-family="Helvetica,sans-Serif" font-size="10.00">_class.nucleus_multiple.</text>
<text text-anchor="middle" x="64" y="-97.5" font-family="Helvetica,sans-Serif" font-size="10.00">__truediv__</text>
</a>
</g>
</g>
<!-- Node2 -->
<g id="node2" class="node">
<title>Node2</title>
<g id="a_node2"><a xlink:href="classbin_1_1class__files_1_1nucleus__multiple__class_1_1nucleus__multiple.html#a0fdfcbebc433ec89b478adc954d4532c" target="_top" xlink:title=" ">
<polygon fill="white" stroke="black" points="164,-180.5 164,-221.5 292,-221.5 292,-180.5 164,-180.5"/>
<text text-anchor="start" x="172" y="-209.5" font-family="Helvetica,sans-Serif" font-size="10.00">bin.class_files.nucleus</text>
<text text-anchor="start" x="172" y="-198.5" font-family="Helvetica,sans-Serif" font-size="10.00">_multiple_class.nucleus</text>
<text text-anchor="middle" x="228" y="-187.5" font-family="Helvetica,sans-Serif" font-size="10.00">_multiple.__init_with_data</text>
</a>
</g>
</g>
<!-- Node1&#45;&gt;Node2 -->
<g id="edge1" class="edge">
<title>Node1&#45;&gt;Node2</title>
<path fill="none" stroke="midnightblue" d="M97.07,-131.56C116.22,-143.55 141.18,-158.69 164,-171 167.02,-172.63 170.15,-174.27 173.32,-175.89"/>
<polygon fill="midnightblue" stroke="midnightblue" points="171.81,-179.05 182.32,-180.41 174.95,-172.79 171.81,-179.05"/>
</g>
<!-- Node4 -->
<g id="node4" class="node">
<title>Node4</title>
<g id="a_node4"><a xlink:href="classsrc__files_1_1nucleus__multiple__class_1_1nucleus__multiple.html#aa062b647871d92716d07c5b531012778" target="_top" xlink:title=" ">
<polygon fill="white" stroke="black" points="164,-120.5 164,-161.5 292,-161.5 292,-120.5 164,-120.5"/>
<text text-anchor="start" x="172" y="-149.5" font-family="Helvetica,sans-Serif" font-size="10.00">src_files.nucleus_multiple</text>
<text text-anchor="start" x="172" y="-138.5" font-family="Helvetica,sans-Serif" font-size="10.00">_class.nucleus_multiple.</text>
<text text-anchor="middle" x="228" y="-127.5" font-family="Helvetica,sans-Serif" font-size="10.00">__init_with_data</text>
</a>
</g>
</g>
<!-- Node1&#45;&gt;Node4 -->
<g id="edge3" class="edge">
<title>Node1&#45;&gt;Node4</title>
<path fill="none" stroke="midnightblue" d="M128.1,-122.68C136.53,-124.25 145.23,-125.86 153.81,-127.45"/>
<polygon fill="midnightblue" stroke="midnightblue" points="153.34,-130.92 163.81,-129.3 154.61,-124.04 153.34,-130.92"/>
</g>
<!-- Node5 -->
<g id="node5" class="node">
<title>Node5</title>
<g id="a_node5"><a xlink:href="classbin_1_1class__files_1_1nucleus__multiple__class_1_1nucleus__multiple.html#ad429e18b5200db81490b842fd21b737e" target="_top" xlink:title=" ">
<polygon fill="white" stroke="black" points="165,-60.5 165,-101.5 291,-101.5 291,-60.5 165,-60.5"/>
<text text-anchor="start" x="173" y="-89.5" font-family="Helvetica,sans-Serif" font-size="10.00">bin.class_files.nucleus</text>
<text text-anchor="start" x="173" y="-78.5" font-family="Helvetica,sans-Serif" font-size="10.00">_multiple_class.nucleus</text>
<text text-anchor="middle" x="228" y="-67.5" font-family="Helvetica,sans-Serif" font-size="10.00">_multiple.__merge_nuclei</text>
</a>
</g>
</g>
<!-- Node1&#45;&gt;Node5 -->
<g id="edge5" class="edge">
<title>Node1&#45;&gt;Node5</title>
<path fill="none" stroke="midnightblue" d="M128.1,-99.32C136.88,-97.69 145.95,-96.01 154.88,-94.36"/>
<polygon fill="midnightblue" stroke="midnightblue" points="155.68,-97.77 164.87,-92.5 154.4,-90.88 155.68,-97.77"/>
</g>
<!-- Node6 -->
<g id="node6" class="node">
<title>Node6</title>
<g id="a_node6"><a xlink:href="classsrc__files_1_1nucleus__multiple__class_1_1nucleus__multiple.html#af2c40a222291f5b9d64608ed5437a439" target="_top" xlink:title=" ">
<polygon fill="white" stroke="black" points="164,-0.5 164,-41.5 292,-41.5 292,-0.5 164,-0.5"/>
<text text-anchor="start" x="172" y="-29.5" font-family="Helvetica,sans-Serif" font-size="10.00">src_files.nucleus_multiple</text>
<text text-anchor="start" x="172" y="-18.5" font-family="Helvetica,sans-Serif" font-size="10.00">_class.nucleus_multiple.</text>
<text text-anchor="middle" x="228" y="-7.5" font-family="Helvetica,sans-Serif" font-size="10.00">__merge_nuclei</text>
</a>
</g>
</g>
<!-- Node1&#45;&gt;Node6 -->
<g id="edge6" class="edge">
<title>Node1&#45;&gt;Node6</title>
<path fill="none" stroke="midnightblue" d="M97.07,-90.44C116.22,-78.45 141.18,-63.31 164,-51 167.02,-49.37 170.15,-47.73 173.32,-46.11"/>
<polygon fill="midnightblue" stroke="midnightblue" points="174.95,-49.21 182.32,-41.59 171.81,-42.95 174.95,-49.21"/>
</g>
<!-- Node3 -->
<g id="node3" class="node">
<title>Node3</title>
<g id="a_node3"><a xlink:href="namespacebin_1_1create__alpha__decay__file.html#ac34a94ae8e6f56f49f1dfb47a70e96cc" target="_top" xlink:title=" ">
<polygon fill="white" stroke="black" points="328,-156 328,-186 446,-186 446,-156 328,-156"/>
<text text-anchor="start" x="336" y="-174" font-family="Helvetica,sans-Serif" font-size="10.00">bin.create_alpha_decay</text>
<text text-anchor="middle" x="387" y="-163" font-family="Helvetica,sans-Serif" font-size="10.00">_file.get_name</text>
</a>
</g>
</g>
<!-- Node2&#45;&gt;Node3 -->
<g id="edge2" class="edge">
<title>Node2&#45;&gt;Node3</title>
<path fill="none" stroke="midnightblue" d="M292.41,-188.88C300.85,-187.27 309.53,-185.61 318.04,-183.99"/>
<polygon fill="midnightblue" stroke="midnightblue" points="318.77,-187.41 327.94,-182.09 317.46,-180.53 318.77,-187.41"/>
</g>
<!-- Node4&#45;&gt;Node3 -->
<g id="edge4" class="edge">
<title>Node4&#45;&gt;Node3</title>
<path fill="none" stroke="midnightblue" d="M292.41,-153.12C300.85,-154.73 309.53,-156.39 318.04,-158.01"/>
<polygon fill="midnightblue" stroke="midnightblue" points="317.46,-161.47 327.94,-159.91 318.77,-154.59 317.46,-161.47"/>
</g>
</g>
</svg>
