<?xml version="1.0" encoding="UTF-8" standalone="no"?>
<!DOCTYPE svg PUBLIC "-//W3C//DTD SVG 1.1//EN"
 "http://www.w3.org/Graphics/SVG/1.1/DTD/svg11.dtd">
<!-- Generated by graphviz version 2.44.0 ()
 -->
<!-- Title: bin.class_files.reaclib_class.reaclib.add_new_rates Pages: 1 -->
<svg width="322pt" height="99pt"
 viewBox="0.00 0.00 322.00 98.50" xmlns="http://www.w3.org/2000/svg" xmlns:xlink="http://www.w3.org/1999/xlink">
<g id="graph0" class="graph" transform="scale(1 1) rotate(0) translate(4 94.5)">
<title>bin.class_files.reaclib_class.reaclib.add_new_rates</title>
<polygon fill="white" stroke="transparent" points="-4,4 -4,-94.5 318,-94.5 318,4 -4,4"/>
<!-- Node1 -->
<g id="node1" class="node">
<title>Node1</title>
<g id="a_node1"><a xlink:title=" ">
<polygon fill="#bfbfbf" stroke="black" points="0,-27.5 0,-57.5 144,-57.5 144,-27.5 0,-27.5"/>
<text text-anchor="start" x="8" y="-45.5" font-family="Helvetica,sans-Serif" font-size="10.00">bin.class_files.reaclib</text>
<text text-anchor="middle" x="72" y="-34.5" font-family="Helvetica,sans-Serif" font-size="10.00">_class.reaclib.add_new_rates</text>
</a>
</g>
</g>
<!-- Node2 -->
<g id="node2" class="node">
<title>Node2</title>
<g id="a_node2"><a xlink:href="classbin_1_1class__files_1_1reaclib__class_1_1reaclib.html#a71210377652beff0c20713bb01db652b" target="_top" xlink:title=" ">
<polygon fill="white" stroke="black" points="186.5,-49 186.5,-90 307.5,-90 307.5,-49 186.5,-49"/>
<text text-anchor="start" x="194.5" y="-78" font-family="Helvetica,sans-Serif" font-size="10.00">bin.class_files.reaclib</text>
<text text-anchor="start" x="194.5" y="-67" font-family="Helvetica,sans-Serif" font-size="10.00">_class.reaclib.__analyze</text>
<text text-anchor="middle" x="247" y="-56" font-family="Helvetica,sans-Serif" font-size="10.00">_update</text>
</a>
</g>
</g>
<!-- Node1&#45;&gt;Node2 -->
<g id="edge1" class="edge">
<title>Node1&#45;&gt;Node2</title>
<path fill="none" stroke="midnightblue" d="M144.36,-53.64C154.94,-55.29 165.84,-56.99 176.38,-58.63"/>
<polygon fill="midnightblue" stroke="midnightblue" points="175.94,-62.11 186.36,-60.19 177.02,-55.19 175.94,-62.11"/>
</g>
<!-- Node3 -->
<g id="node3" class="node">
<title>Node3</title>
<g id="a_node3"><a xlink:href="classbin_1_1class__files_1_1reaclib__class_1_1reaclib.html#a174840c21d765fbe1235e9f7e579d08e" target="_top" xlink:title=" ">
<polygon fill="white" stroke="black" points="180,-0.5 180,-30.5 314,-30.5 314,-0.5 180,-0.5"/>
<text text-anchor="start" x="188" y="-18.5" font-family="Helvetica,sans-Serif" font-size="10.00">bin.class_files.reaclib</text>
<text text-anchor="middle" x="247" y="-7.5" font-family="Helvetica,sans-Serif" font-size="10.00">_class.reaclib.__filter_rates</text>
</a>
</g>
</g>
<!-- Node1&#45;&gt;Node3 -->
<g id="edge2" class="edge">
<title>Node1&#45;&gt;Node3</title>
<path fill="none" stroke="midnightblue" d="M144.36,-31.36C152.79,-30.05 161.42,-28.7 169.91,-27.37"/>
<polygon fill="midnightblue" stroke="midnightblue" points="170.46,-30.83 179.8,-25.83 169.38,-23.92 170.46,-30.83"/>
</g>
</g>
</svg>
