<?xml version="1.0" encoding="UTF-8" standalone="no"?>
<!DOCTYPE svg PUBLIC "-//W3C//DTD SVG 1.1//EN"
 "http://www.w3.org/Graphics/SVG/1.1/DTD/svg11.dtd">
<!-- Generated by graphviz version 2.44.0 ()
 -->
<!-- Title: bin.class_files.nucleus_multiple_class.nucleus_multiple.__mul__ Pages: 1 -->
<svg width="446pt" height="110pt"
 viewBox="0.00 0.00 446.00 110.00" xmlns="http://www.w3.org/2000/svg" xmlns:xlink="http://www.w3.org/1999/xlink">
<g id="graph0" class="graph" transform="scale(1 1) rotate(0) translate(4 106)">
<title>bin.class_files.nucleus_multiple_class.nucleus_multiple.__mul__</title>
<polygon fill="white" stroke="transparent" points="-4,4 -4,-106 442,-106 442,4 -4,4"/>
<!-- Node1 -->
<g id="node1" class="node">
<title>Node1</title>
<g id="a_node1"><a xlink:title=" ">
<polygon fill="#bfbfbf" stroke="black" points="0,-30.5 0,-71.5 120,-71.5 120,-30.5 0,-30.5"/>
<text text-anchor="start" x="8" y="-59.5" font-family="Helvetica,sans-Serif" font-size="10.00">bin.class_files.nucleus</text>
<text text-anchor="start" x="8" y="-48.5" font-family="Helvetica,sans-Serif" font-size="10.00">_multiple_class.nucleus</text>
<text text-anchor="middle" x="60" y="-37.5" font-family="Helvetica,sans-Serif" font-size="10.00">_multiple.__mul__</text>
</a>
</g>
</g>
<!-- Node2 -->
<g id="node2" class="node">
<title>Node2</title>
<g id="a_node2"><a xlink:href="classbin_1_1class__files_1_1nucleus__multiple__class_1_1nucleus__multiple.html#a0fdfcbebc433ec89b478adc954d4532c" target="_top" xlink:title=" ">
<polygon fill="white" stroke="black" points="156,-60.5 156,-101.5 284,-101.5 284,-60.5 156,-60.5"/>
<text text-anchor="start" x="164" y="-89.5" font-family="Helvetica,sans-Serif" font-size="10.00">bin.class_files.nucleus</text>
<text text-anchor="start" x="164" y="-78.5" font-family="Helvetica,sans-Serif" font-size="10.00">_multiple_class.nucleus</text>
<text text-anchor="middle" x="220" y="-67.5" font-family="Helvetica,sans-Serif" font-size="10.00">_multiple.__init_with_data</text>
</a>
</g>
</g>
<!-- Node1&#45;&gt;Node2 -->
<g id="edge1" class="edge">
<title>Node1&#45;&gt;Node2</title>
<path fill="none" stroke="midnightblue" d="M120.28,-62.26C128.65,-63.85 137.34,-65.49 145.93,-67.13"/>
<polygon fill="midnightblue" stroke="midnightblue" points="145.47,-70.6 155.95,-69.03 146.78,-63.72 145.47,-70.6"/>
</g>
<!-- Node4 -->
<g id="node4" class="node">
<title>Node4</title>
<g id="a_node4"><a xlink:href="classbin_1_1class__files_1_1nucleus__multiple__class_1_1nucleus__multiple.html#ad429e18b5200db81490b842fd21b737e" target="_top" xlink:title=" ">
<polygon fill="white" stroke="black" points="157,-0.5 157,-41.5 283,-41.5 283,-0.5 157,-0.5"/>
<text text-anchor="start" x="165" y="-29.5" font-family="Helvetica,sans-Serif" font-size="10.00">bin.class_files.nucleus</text>
<text text-anchor="start" x="165" y="-18.5" font-family="Helvetica,sans-Serif" font-size="10.00">_multiple_class.nucleus</text>
<text text-anchor="middle" x="220" y="-7.5" font-family="Helvetica,sans-Serif" font-size="10.00">_multiple.__merge_nuclei</text>
</a>
</g>
</g>
<!-- Node1&#45;&gt;Node4 -->
<g id="edge3" class="edge">
<title>Node1&#45;&gt;Node4</title>
<path fill="none" stroke="midnightblue" d="M120.28,-39.74C128.94,-38.1 137.92,-36.39 146.8,-34.71"/>
<polygon fill="midnightblue" stroke="midnightblue" points="147.57,-38.12 156.75,-32.82 146.27,-31.25 147.57,-38.12"/>
</g>
<!-- Node3 -->
<g id="node3" class="node">
<title>Node3</title>
<g id="a_node3"><a xlink:href="namespacebin_1_1create__alpha__decay__file.html#ac34a94ae8e6f56f49f1dfb47a70e96cc" target="_top" xlink:title=" ">
<polygon fill="white" stroke="black" points="320,-66 320,-96 438,-96 438,-66 320,-66"/>
<text text-anchor="start" x="328" y="-84" font-family="Helvetica,sans-Serif" font-size="10.00">bin.create_alpha_decay</text>
<text text-anchor="middle" x="379" y="-73" font-family="Helvetica,sans-Serif" font-size="10.00">_file.get_name</text>
</a>
</g>
</g>
<!-- Node2&#45;&gt;Node3 -->
<g id="edge2" class="edge">
<title>Node2&#45;&gt;Node3</title>
<path fill="none" stroke="midnightblue" d="M284.41,-81C292.75,-81 301.34,-81 309.77,-81"/>
<polygon fill="midnightblue" stroke="midnightblue" points="309.94,-84.5 319.94,-81 309.94,-77.5 309.94,-84.5"/>
</g>
</g>
</svg>
