<?xml version="1.0" encoding="UTF-8" standalone="no"?>
<!DOCTYPE svg PUBLIC "-//W3C//DTD SVG 1.1//EN"
 "http://www.w3.org/Graphics/SVG/1.1/DTD/svg11.dtd">
<!-- Generated by graphviz version 2.44.0 ()
 -->
<!-- Title: bin.class_files.reaclib_class.reaclib.plot_rate Pages: 1 -->
<svg width="426pt" height="50pt"
 viewBox="0.00 0.00 426.00 50.00" xmlns="http://www.w3.org/2000/svg" xmlns:xlink="http://www.w3.org/1999/xlink">
<g id="graph0" class="graph" transform="scale(1 1) rotate(0) translate(4 46)">
<title>bin.class_files.reaclib_class.reaclib.plot_rate</title>
<polygon fill="white" stroke="transparent" points="-4,4 -4,-46 422,-46 422,4 -4,4"/>
<!-- Node1 -->
<g id="node1" class="node">
<title>Node1</title>
<g id="a_node1"><a xlink:title=" ">
<polygon fill="#bfbfbf" stroke="black" points="0,-6 0,-36 116,-36 116,-6 0,-6"/>
<text text-anchor="start" x="8" y="-24" font-family="Helvetica,sans-Serif" font-size="10.00">bin.class_files.reaclib</text>
<text text-anchor="middle" x="58" y="-13" font-family="Helvetica,sans-Serif" font-size="10.00">_class.reaclib.plot_rate</text>
</a>
</g>
</g>
<!-- Node2 -->
<g id="node2" class="node">
<title>Node2</title>
<g id="a_node2"><a xlink:href="classbin_1_1class__files_1_1reaclib__class_1_1reaclib.html#a84819fe2e04f438fd39e89ca05c7aa05" target="_top" xlink:title=" ">
<polygon fill="white" stroke="black" points="152,-0.5 152,-41.5 265,-41.5 265,-0.5 152,-0.5"/>
<text text-anchor="start" x="160" y="-29.5" font-family="Helvetica,sans-Serif" font-size="10.00">bin.class_files.reaclib</text>
<text text-anchor="start" x="160" y="-18.5" font-family="Helvetica,sans-Serif" font-size="10.00">_class.reaclib.get_rate</text>
<text text-anchor="middle" x="208.5" y="-7.5" font-family="Helvetica,sans-Serif" font-size="10.00">_at_temp</text>
</a>
</g>
</g>
<!-- Node1&#45;&gt;Node2 -->
<g id="edge1" class="edge">
<title>Node1&#45;&gt;Node2</title>
<path fill="none" stroke="midnightblue" d="M116.41,-21C124.65,-21 133.18,-21 141.57,-21"/>
<polygon fill="midnightblue" stroke="midnightblue" points="141.7,-24.5 151.7,-21 141.7,-17.5 141.7,-24.5"/>
</g>
<!-- Node3 -->
<g id="node3" class="node">
<title>Node3</title>
<g id="a_node3"><a xlink:href="classbin_1_1class__files_1_1reaclib__class_1_1reaclib.html#a8eafeef389712c17b3adda4e465d5fa1" target="_top" xlink:title=" ">
<polygon fill="white" stroke="black" points="301,-0.5 301,-41.5 418,-41.5 418,-0.5 301,-0.5"/>
<text text-anchor="start" x="309" y="-29.5" font-family="Helvetica,sans-Serif" font-size="10.00">bin.class_files.reaclib</text>
<text text-anchor="start" x="309" y="-18.5" font-family="Helvetica,sans-Serif" font-size="10.00">_class.reaclib.__reaclib</text>
<text text-anchor="middle" x="359.5" y="-7.5" font-family="Helvetica,sans-Serif" font-size="10.00">_fit_function</text>
</a>
</g>
</g>
<!-- Node2&#45;&gt;Node3 -->
<g id="edge2" class="edge">
<title>Node2&#45;&gt;Node3</title>
<path fill="none" stroke="midnightblue" d="M265.41,-21C273.62,-21 282.17,-21 290.59,-21"/>
<polygon fill="midnightblue" stroke="midnightblue" points="290.79,-24.5 300.79,-21 290.79,-17.5 290.79,-24.5"/>
</g>
</g>
</svg>
