<?xml version="1.0" encoding="UTF-8" standalone="no"?>
<!DOCTYPE svg PUBLIC "-//W3C//DTD SVG 1.1//EN"
 "http://www.w3.org/Graphics/SVG/1.1/DTD/svg11.dtd">
<!-- Generated by graphviz version 2.44.0 ()
 -->
<!-- Title: bin.class_files.winnet_class.winnet.get_n_to_seed Pages: 1 -->
<!--zoomable 268 -->
<svg id="main" version="1.1" xmlns="http://www.w3.org/2000/svg" xmlns:xlink="http://www.w3.org/1999/xlink" xml:space="preserve" onload="init(evt)">
<style type="text/css"><![CDATA[
.edge:hover path { stroke: red; }
.edge:hover polygon { stroke: red; fill: red; }
]]></style>
<script type="text/javascript"><![CDATA[
var edges = document.getElementsByTagName('g');
if (edges && edges.length) {
  for (var i=0;i<edges.length;i++) {
    if (edges[i].id.substr(0,4)=='edge') {
      edges[i].setAttribute('class','edge');
    }
  }
}
]]></script>
        <defs>
                <circle id="rim" cx="0" cy="0" r="7"/>
                <circle id="rim2" cx="0" cy="0" r="3.5"/>
                <g id="zoomPlus">
                        <use xlink:href="#rim" fill="#404040">
                                <set attributeName="fill" to="#808080" begin="zoomplus.mouseover" end="zoomplus.mouseout"/>
                        </use>
                        <path d="M-4,0h8M0,-4v8" fill="none" stroke="white" stroke-width="1.5" pointer-events="none"/>
                </g>
                <g id="zoomMin">
                        <use xlink:href="#rim" fill="#404040">
                                <set attributeName="fill" to="#808080" begin="zoomminus.mouseover" end="zoomminus.mouseout"/>
                        </use>
                        <path d="M-4,0h8" fill="none" stroke="white" stroke-width="1.5" pointer-events="none"/>
                </g>
                <g id="dirArrow">
                        <path fill="none" stroke="white" stroke-width="1.5" d="M0,-3.0v7 M-2.5,-0.5L0,-3.0L2.5,-0.5"/>
                </g>
               <g id="resetDef">
                       <use xlink:href="#rim2" fill="#404040">
                               <set attributeName="fill" to="#808080" begin="reset.mouseover" end="reset.mouseout"/>
                       </use>
               </g>
        </defs>

<script type="text/javascript">
var viewWidth = 751;
var viewHeight = 268;
var sectionId = 'dynsection-11';
</script>
<script xlink:href="svgpan.js"/>
<svg id="graph" class="graph">
<g id="viewport">
<title>bin.class_files.winnet_class.winnet.get_n_to_seed</title>
<polygon fill="white" stroke="transparent" points="-4,4 -4,-264 747,-264 747,4 -4,4"/>
<!-- Node1 -->
<g id="node1" class="node">
<title>Node1</title>
<g id="a_node1"><a xlink:title=" ">
<polygon fill="#bfbfbf" stroke="black" points="0,-121 0,-151 142,-151 142,-121 0,-121"/>
<text text-anchor="start" x="8" y="-139" font-family="Helvetica,sans-Serif" font-size="10.00">bin.class_files.winnet</text>
<text text-anchor="middle" x="71" y="-128" font-family="Helvetica,sans-Serif" font-size="10.00">_class.winnet.get_n_to_seed</text>
</a>
</g>
</g>
<!-- Node2 -->
<g id="node2" class="node">
<title>Node2</title>
<g id="a_node2"><a xlink:href="classbin_1_1class__files_1_1winnet__class_1_1winnet.html#aa354b8e477c7ec04daca242653c4b7e5" target="_top" xlink:title=" ">
<polygon fill="white" stroke="black" points="178,-115.5 178,-156.5 290,-156.5 290,-115.5 178,-115.5"/>
<text text-anchor="start" x="186" y="-144.5" font-family="Helvetica,sans-Serif" font-size="10.00">bin.class_files.winnet</text>
<text text-anchor="start" x="186" y="-133.5" font-family="Helvetica,sans-Serif" font-size="10.00">_class.winnet.__get_x</text>
<text text-anchor="middle" x="234" y="-122.5" font-family="Helvetica,sans-Serif" font-size="10.00">_to_seed</text>
</a>
</g>
</g>
<!-- Node1&#45;&gt;Node2 -->
<g id="edge1" class="edge">
<title>Node1&#45;&gt;Node2</title>
<path fill="none" stroke="midnightblue" d="M142.15,-136C150.58,-136 159.17,-136 167.53,-136"/>
<polygon fill="midnightblue" stroke="midnightblue" points="167.6,-139.5 177.6,-136 167.6,-132.5 167.6,-139.5"/>
</g>
<!-- Node3 -->
<g id="node3" class="node">
<title>Node3</title>
<g id="a_node3"><a xlink:href="namespaceinter__module.html#a206d3ceb40bd2e40d41c462a31ad057e" target="_top" xlink:title="Interface for 1D interpolation routines.">
<polygon fill="white" stroke="black" points="326,-126.5 326,-145.5 437,-145.5 437,-126.5 326,-126.5"/>
<text text-anchor="middle" x="381.5" y="-133.5" font-family="Helvetica,sans-Serif" font-size="10.00">inter_module::interp1d</text>
</a>
</g>
</g>
<!-- Node2&#45;&gt;Node3 -->
<g id="edge2" class="edge">
<title>Node2&#45;&gt;Node3</title>
<path fill="none" stroke="midnightblue" d="M290.01,-136C298.45,-136 307.24,-136 315.87,-136"/>
<polygon fill="midnightblue" stroke="midnightblue" points="315.9,-139.5 325.9,-136 315.9,-132.5 315.9,-139.5"/>
</g>
<!-- Node4 -->
<g id="node4" class="node">
<title>Node4</title>
<g id="a_node4"><a xlink:href="namespaceinter__module.html#a0f02e3fce3429d031516cf2f47f521de" target="_top" xlink:title="Interpolation using prescription of Akima.">
<polygon fill="white" stroke="black" points="477,-240.5 477,-259.5 599,-259.5 599,-240.5 477,-240.5"/>
<text text-anchor="middle" x="538" y="-247.5" font-family="Helvetica,sans-Serif" font-size="10.00">inter_module::akimainter</text>
</a>
</g>
</g>
<!-- Node3&#45;&gt;Node4 -->
<g id="edge3" class="edge">
<title>Node3&#45;&gt;Node4</title>
<path fill="none" stroke="midnightblue" d="M389.01,-145.66C402.43,-164.83 435.11,-207.82 473,-231 476.41,-233.08 480.05,-234.95 483.82,-236.62"/>
<polygon fill="midnightblue" stroke="midnightblue" points="482.75,-239.97 493.34,-240.38 485.33,-233.45 482.75,-239.97"/>
</g>
<!-- Node5 -->
<g id="node5" class="node">
<title>Node5</title>
<g id="a_node5"><a xlink:href="namespaceinter__module.html#a5a696cd56302b2491c59781808af4c08" target="_top" xlink:title="Cubic interpolation in log&#45;log space. Here, it is assumed that.">
<polygon fill="white" stroke="black" points="482.5,-202.5 482.5,-221.5 593.5,-221.5 593.5,-202.5 482.5,-202.5"/>
<text text-anchor="middle" x="538" y="-209.5" font-family="Helvetica,sans-Serif" font-size="10.00">inter_module::cubinter</text>
</a>
</g>
</g>
<!-- Node3&#45;&gt;Node5 -->
<g id="edge4" class="edge">
<title>Node3&#45;&gt;Node5</title>
<path fill="none" stroke="midnightblue" d="M397.47,-145.61C415.09,-156.69 445.46,-175.03 473,-188 481.27,-191.89 490.35,-195.62 499.02,-198.92"/>
<polygon fill="midnightblue" stroke="midnightblue" points="497.96,-202.26 508.55,-202.46 500.39,-195.7 497.96,-202.26"/>
</g>
<!-- Node6 -->
<g id="node6" class="node">
<title>Node6</title>
<g id="a_node6"><a xlink:href="namespaceerror__msg__class.html#a7e065585cc806a5c264de1f088266498" target="_top" xlink:title="Converts a given integer to a string.">
<polygon fill="white" stroke="black" points="639,-99 639,-129 743,-129 743,-99 639,-99"/>
<text text-anchor="start" x="647" y="-117" font-family="Helvetica,sans-Serif" font-size="10.00">error_msg_class::int</text>
<text text-anchor="middle" x="691" y="-106" font-family="Helvetica,sans-Serif" font-size="10.00">_to_str</text>
</a>
</g>
</g>
<!-- Node3&#45;&gt;Node6 -->
<g id="edge5" class="edge">
<title>Node3&#45;&gt;Node6</title>
<path fill="none" stroke="midnightblue" d="M417.69,-145.55C461.59,-155.97 538.7,-169.39 603,-155 621.66,-150.82 641.04,-142.18 656.75,-133.9"/>
<polygon fill="midnightblue" stroke="midnightblue" points="658.45,-136.96 665.55,-129.1 655.1,-130.82 658.45,-136.96"/>
</g>
<!-- Node7 -->
<g id="node7" class="node">
<title>Node7</title>
<g id="a_node7"><a xlink:href="namespaceinter__module.html#ac57284b6bef315c7066a880358ae0862" target="_top" xlink:title="Linear interpolation in lin&#45;log space.">
<polygon fill="white" stroke="black" points="485.5,-126.5 485.5,-145.5 590.5,-145.5 590.5,-126.5 485.5,-126.5"/>
<text text-anchor="middle" x="538" y="-133.5" font-family="Helvetica,sans-Serif" font-size="10.00">inter_module::lininter</text>
</a>
</g>
</g>
<!-- Node3&#45;&gt;Node7 -->
<g id="edge6" class="edge">
<title>Node3&#45;&gt;Node7</title>
<path fill="none" stroke="midnightblue" d="M437.41,-136C449.6,-136 462.61,-136 475.07,-136"/>
<polygon fill="midnightblue" stroke="midnightblue" points="475.37,-139.5 485.37,-136 475.37,-132.5 475.37,-139.5"/>
</g>
<!-- Node8 -->
<g id="node8" class="node">
<title>Node8</title>
<g id="a_node8"><a xlink:href="namespaceinter__module.html#a338de641fc764e51a6ce814e25e70ef2" target="_top" xlink:title="Interpolation using modified prescription of Akima.">
<polygon fill="white" stroke="black" points="473,-88.5 473,-107.5 603,-107.5 603,-88.5 473,-88.5"/>
<text text-anchor="middle" x="538" y="-95.5" font-family="Helvetica,sans-Serif" font-size="10.00">inter_module::makimainter</text>
</a>
</g>
</g>
<!-- Node3&#45;&gt;Node8 -->
<g id="edge7" class="edge">
<title>Node3&#45;&gt;Node8</title>
<path fill="none" stroke="midnightblue" d="M421.49,-126.41C441.78,-121.42 466.79,-115.27 488.35,-109.97"/>
<polygon fill="midnightblue" stroke="midnightblue" points="489.42,-113.31 498.29,-107.52 487.75,-106.51 489.42,-113.31"/>
</g>
<!-- Node9 -->
<g id="node9" class="node">
<title>Node9</title>
<g id="a_node9"><a xlink:href="namespaceinter__module.html#a4b1d9613e140541539a602d2f985b5c7" target="_top" xlink:title="PCHIP interpolation in lin&#45;log space.">
<polygon fill="white" stroke="black" points="478.5,-0.5 478.5,-19.5 597.5,-19.5 597.5,-0.5 478.5,-0.5"/>
<text text-anchor="middle" x="538" y="-7.5" font-family="Helvetica,sans-Serif" font-size="10.00">inter_module::pchipinter</text>
</a>
</g>
</g>
<!-- Node3&#45;&gt;Node9 -->
<g id="edge8" class="edge">
<title>Node3&#45;&gt;Node9</title>
<path fill="none" stroke="midnightblue" d="M387.93,-126.39C400.26,-105.45 432.47,-55.48 473,-29 476.14,-26.95 479.52,-25.11 483.01,-23.46"/>
<polygon fill="midnightblue" stroke="midnightblue" points="484.57,-26.61 492.47,-19.55 481.89,-20.14 484.57,-26.61"/>
</g>
<!-- Node11 -->
<g id="node11" class="node">
<title>Node11</title>
<g id="a_node11"><a xlink:href="namespaceerror__msg__class.html#a2453d3b7cb363115c046840baa1dfb75" target="_top" xlink:title="Raise a exception with a given error message.">
<polygon fill="white" stroke="black" points="481,-39 481,-69 595,-69 595,-39 481,-39"/>
<text text-anchor="start" x="489" y="-57" font-family="Helvetica,sans-Serif" font-size="10.00">error_msg_class::raise</text>
<text text-anchor="middle" x="538" y="-46" font-family="Helvetica,sans-Serif" font-size="10.00">_exception</text>
</a>
</g>
</g>
<!-- Node3&#45;&gt;Node11 -->
<g id="edge10" class="edge">
<title>Node3&#45;&gt;Node11</title>
<path fill="none" stroke="midnightblue" d="M395.83,-126.47C413.07,-114.41 444.32,-93.47 473,-79 477.06,-76.95 481.34,-74.96 485.67,-73.05"/>
<polygon fill="midnightblue" stroke="midnightblue" points="487.34,-76.14 495.18,-69.01 484.61,-69.69 487.34,-76.14"/>
</g>
<!-- Node10 -->
<g id="node10" class="node">
<title>Node10</title>
<g id="a_node10"><a xlink:href="quadpack__module_8f90.html#aada5a652920db442d627f1ca24ff25d7" target="_top" xlink:title="Further information: http://netlib.org/quadpack/index.html https://orion.math.iastate....">
<polygon fill="white" stroke="black" points="676.5,-0.5 676.5,-19.5 705.5,-19.5 705.5,-0.5 676.5,-0.5"/>
<text text-anchor="middle" x="691" y="-7.5" font-family="Helvetica,sans-Serif" font-size="10.00">pi</text>
</a>
</g>
</g>
<!-- Node9&#45;&gt;Node10 -->
<g id="edge9" class="edge">
<title>Node9&#45;&gt;Node10</title>
<path fill="none" stroke="midnightblue" d="M597.81,-10C621.65,-10 647.83,-10 666.18,-10"/>
<polygon fill="midnightblue" stroke="midnightblue" points="666.25,-13.5 676.25,-10 666.25,-6.5 666.25,-13.5"/>
</g>
<!-- Node11&#45;&gt;Node6 -->
<g id="edge11" class="edge">
<title>Node11&#45;&gt;Node6</title>
<path fill="none" stroke="midnightblue" d="M577.61,-69.01C585.98,-72.29 594.79,-75.75 603,-79 616.15,-84.21 630.4,-89.92 643.49,-95.19"/>
<polygon fill="midnightblue" stroke="midnightblue" points="642.19,-98.44 652.78,-98.93 644.81,-91.95 642.19,-98.44"/>
</g>
</g>
</svg>
        <g id="navigator" transform="translate(0 0)" fill="#404254">
                <rect fill="#f2f5e9" fill-opacity="0.5" stroke="#606060" stroke-width=".5" x="0" y="0" width="60" height="60"/>
                <use id="zoomplus" xlink:href="#zoomPlus" x="17" y="9" onmousedown="handleZoom(evt,'in')"/>
                <use id="zoomminus" xlink:href="#zoomMin" x="42" y="9" onmousedown="handleZoom(evt,'out')"/>
                <use id="reset" xlink:href="#resetDef" x="30" y="36" onmousedown="handleReset()"/>
                <g id="arrowUp" xlink:href="#dirArrow" transform="translate(30 24)" onmousedown="handlePan(0,-1)">
                  <use xlink:href="#rim" fill="#404040">
                        <set attributeName="fill" to="#808080" begin="arrowUp.mouseover" end="arrowUp.mouseout"/>
                  </use>
                  <path fill="none" stroke="white" stroke-width="1.5" d="M0,-3.0v7 M-2.5,-0.5L0,-3.0L2.5,-0.5"/>
                </g>
                <g id="arrowRight" xlink:href="#dirArrow" transform="rotate(90) translate(36 -43)" onmousedown="handlePan(1,0)">
                  <use xlink:href="#rim" fill="#404040">
                        <set attributeName="fill" to="#808080" begin="arrowRight.mouseover" end="arrowRight.mouseout"/>
                  </use>
                  <path fill="none" stroke="white" stroke-width="1.5" d="M0,-3.0v7 M-2.5,-0.5L0,-3.0L2.5,-0.5"/>
                </g>
                <g id="arrowDown" xlink:href="#dirArrow" transform="rotate(180) translate(-30 -48)" onmousedown="handlePan(0,1)">
                  <use xlink:href="#rim" fill="#404040">
                        <set attributeName="fill" to="#808080" begin="arrowDown.mouseover" end="arrowDown.mouseout"/>
                  </use>
                  <path fill="none" stroke="white" stroke-width="1.5" d="M0,-3.0v7 M-2.5,-0.5L0,-3.0L2.5,-0.5"/>
                </g>
                <g id="arrowLeft" xlink:href="#dirArrow" transform="rotate(270) translate(-36 17)" onmousedown="handlePan(-1,0)">
                  <use xlink:href="#rim" fill="#404040">
                        <set attributeName="fill" to="#808080" begin="arrowLeft.mouseover" end="arrowLeft.mouseout"/>
                  </use>
                  <path fill="none" stroke="white" stroke-width="1.5" d="M0,-3.0v7 M-2.5,-0.5L0,-3.0L2.5,-0.5"/>
                </g>
        </g>
        <svg viewBox="0 0 15 15" width="100%" height="30px" preserveAspectRatio="xMaxYMin meet">
         <g id="arrow_out" transform="scale(0.3 0.3)">
          <a xlink:href="classbin_1_1class__files_1_1winnet__class_1_1winnet_aa0805e9fa10bae1482f181761241b5c9_cgraph_org.svg" target="_base">
           <rect id="button" ry="5" rx="5" y="6" x="6" height="38" width="38"
                fill="#f2f5e9" fill-opacity="0.5" stroke="#606060" stroke-width="1.0"/>
           <path id="arrow"
             d="M 11.500037,31.436501 C 11.940474,20.09759 22.043105,11.32322 32.158766,21.979434 L 37.068811,17.246167 C 37.068811,17.246167 37.088388,32 37.088388,32 L 22.160133,31.978069 C 22.160133,31.978069 26.997745,27.140456 26.997745,27.140456 C 18.528582,18.264221 13.291696,25.230495 11.500037,31.436501 z"
             style="fill:#404040;"/>
          </a>
         </g>
        </svg>
</svg>
