<?xml version="1.0" encoding="UTF-8" standalone="no"?>
<!DOCTYPE svg PUBLIC "-//W3C//DTD SVG 1.1//EN"
 "http://www.w3.org/Graphics/SVG/1.1/DTD/svg11.dtd">
<!-- Generated by graphviz version 2.44.0 ()
 -->
<!-- Title: bin.class_files.winnet_class.winnet.__get_x_to_seed Pages: 1 -->
<svg width="573pt" height="268pt"
 viewBox="0.00 0.00 573.00 268.00" xmlns="http://www.w3.org/2000/svg" xmlns:xlink="http://www.w3.org/1999/xlink">
<g id="graph0" class="graph" transform="scale(1 1) rotate(0) translate(4 264)">
<title>bin.class_files.winnet_class.winnet.__get_x_to_seed</title>
<polygon fill="white" stroke="transparent" points="-4,4 -4,-264 569,-264 569,4 -4,4"/>
<!-- Node1 -->
<g id="node1" class="node">
<title>Node1</title>
<g id="a_node1"><a xlink:title=" ">
<polygon fill="#bfbfbf" stroke="black" points="0,-115.5 0,-156.5 112,-156.5 112,-115.5 0,-115.5"/>
<text text-anchor="start" x="8" y="-144.5" font-family="Helvetica,sans-Serif" font-size="10.00">bin.class_files.winnet</text>
<text text-anchor="start" x="8" y="-133.5" font-family="Helvetica,sans-Serif" font-size="10.00">_class.winnet.__get_x</text>
<text text-anchor="middle" x="56" y="-122.5" font-family="Helvetica,sans-Serif" font-size="10.00">_to_seed</text>
</a>
</g>
</g>
<!-- Node2 -->
<g id="node2" class="node">
<title>Node2</title>
<g id="a_node2"><a xlink:href="namespaceinter__module.html#a206d3ceb40bd2e40d41c462a31ad057e" target="_top" xlink:title="Interface for 1D interpolation routines.">
<polygon fill="white" stroke="black" points="148,-126.5 148,-145.5 259,-145.5 259,-126.5 148,-126.5"/>
<text text-anchor="middle" x="203.5" y="-133.5" font-family="Helvetica,sans-Serif" font-size="10.00">inter_module::interp1d</text>
</a>
</g>
</g>
<!-- Node1&#45;&gt;Node2 -->
<g id="edge1" class="edge">
<title>Node1&#45;&gt;Node2</title>
<path fill="none" stroke="midnightblue" d="M112.01,-136C120.45,-136 129.24,-136 137.87,-136"/>
<polygon fill="midnightblue" stroke="midnightblue" points="137.9,-139.5 147.9,-136 137.9,-132.5 137.9,-139.5"/>
</g>
<!-- Node3 -->
<g id="node3" class="node">
<title>Node3</title>
<g id="a_node3"><a xlink:href="namespaceinter__module.html#a0f02e3fce3429d031516cf2f47f521de" target="_top" xlink:title="Interpolation using prescription of Akima.">
<polygon fill="white" stroke="black" points="299,-240.5 299,-259.5 421,-259.5 421,-240.5 299,-240.5"/>
<text text-anchor="middle" x="360" y="-247.5" font-family="Helvetica,sans-Serif" font-size="10.00">inter_module::akimainter</text>
</a>
</g>
</g>
<!-- Node2&#45;&gt;Node3 -->
<g id="edge2" class="edge">
<title>Node2&#45;&gt;Node3</title>
<path fill="none" stroke="midnightblue" d="M211.01,-145.66C224.43,-164.83 257.11,-207.82 295,-231 298.41,-233.08 302.05,-234.95 305.82,-236.62"/>
<polygon fill="midnightblue" stroke="midnightblue" points="304.75,-239.97 315.34,-240.38 307.33,-233.45 304.75,-239.97"/>
</g>
<!-- Node4 -->
<g id="node4" class="node">
<title>Node4</title>
<g id="a_node4"><a xlink:href="namespaceinter__module.html#a5a696cd56302b2491c59781808af4c08" target="_top" xlink:title="Cubic interpolation in log&#45;log space. Here, it is assumed that.">
<polygon fill="white" stroke="black" points="304.5,-202.5 304.5,-221.5 415.5,-221.5 415.5,-202.5 304.5,-202.5"/>
<text text-anchor="middle" x="360" y="-209.5" font-family="Helvetica,sans-Serif" font-size="10.00">inter_module::cubinter</text>
</a>
</g>
</g>
<!-- Node2&#45;&gt;Node4 -->
<g id="edge3" class="edge">
<title>Node2&#45;&gt;Node4</title>
<path fill="none" stroke="midnightblue" d="M219.47,-145.61C237.09,-156.69 267.46,-175.03 295,-188 303.27,-191.89 312.35,-195.62 321.02,-198.92"/>
<polygon fill="midnightblue" stroke="midnightblue" points="319.96,-202.26 330.55,-202.46 322.39,-195.7 319.96,-202.26"/>
</g>
<!-- Node5 -->
<g id="node5" class="node">
<title>Node5</title>
<g id="a_node5"><a xlink:href="namespaceerror__msg__class.html#a7e065585cc806a5c264de1f088266498" target="_top" xlink:title="Converts a given integer to a string.">
<polygon fill="white" stroke="black" points="461,-99 461,-129 565,-129 565,-99 461,-99"/>
<text text-anchor="start" x="469" y="-117" font-family="Helvetica,sans-Serif" font-size="10.00">error_msg_class::int</text>
<text text-anchor="middle" x="513" y="-106" font-family="Helvetica,sans-Serif" font-size="10.00">_to_str</text>
</a>
</g>
</g>
<!-- Node2&#45;&gt;Node5 -->
<g id="edge4" class="edge">
<title>Node2&#45;&gt;Node5</title>
<path fill="none" stroke="midnightblue" d="M239.69,-145.55C283.59,-155.97 360.7,-169.39 425,-155 443.66,-150.82 463.04,-142.18 478.75,-133.9"/>
<polygon fill="midnightblue" stroke="midnightblue" points="480.45,-136.96 487.55,-129.1 477.1,-130.82 480.45,-136.96"/>
</g>
<!-- Node6 -->
<g id="node6" class="node">
<title>Node6</title>
<g id="a_node6"><a xlink:href="namespaceinter__module.html#ac57284b6bef315c7066a880358ae0862" target="_top" xlink:title="Linear interpolation in lin&#45;log space.">
<polygon fill="white" stroke="black" points="307.5,-126.5 307.5,-145.5 412.5,-145.5 412.5,-126.5 307.5,-126.5"/>
<text text-anchor="middle" x="360" y="-133.5" font-family="Helvetica,sans-Serif" font-size="10.00">inter_module::lininter</text>
</a>
</g>
</g>
<!-- Node2&#45;&gt;Node6 -->
<g id="edge5" class="edge">
<title>Node2&#45;&gt;Node6</title>
<path fill="none" stroke="midnightblue" d="M259.41,-136C271.6,-136 284.61,-136 297.07,-136"/>
<polygon fill="midnightblue" stroke="midnightblue" points="297.37,-139.5 307.37,-136 297.37,-132.5 297.37,-139.5"/>
</g>
<!-- Node7 -->
<g id="node7" class="node">
<title>Node7</title>
<g id="a_node7"><a xlink:href="namespaceinter__module.html#a338de641fc764e51a6ce814e25e70ef2" target="_top" xlink:title="Interpolation using modified prescription of Akima.">
<polygon fill="white" stroke="black" points="295,-88.5 295,-107.5 425,-107.5 425,-88.5 295,-88.5"/>
<text text-anchor="middle" x="360" y="-95.5" font-family="Helvetica,sans-Serif" font-size="10.00">inter_module::makimainter</text>
</a>
</g>
</g>
<!-- Node2&#45;&gt;Node7 -->
<g id="edge6" class="edge">
<title>Node2&#45;&gt;Node7</title>
<path fill="none" stroke="midnightblue" d="M243.49,-126.41C263.78,-121.42 288.79,-115.27 310.35,-109.97"/>
<polygon fill="midnightblue" stroke="midnightblue" points="311.42,-113.31 320.29,-107.52 309.75,-106.51 311.42,-113.31"/>
</g>
<!-- Node8 -->
<g id="node8" class="node">
<title>Node8</title>
<g id="a_node8"><a xlink:href="namespaceinter__module.html#a4b1d9613e140541539a602d2f985b5c7" target="_top" xlink:title="PCHIP interpolation in lin&#45;log space.">
<polygon fill="white" stroke="black" points="300.5,-0.5 300.5,-19.5 419.5,-19.5 419.5,-0.5 300.5,-0.5"/>
<text text-anchor="middle" x="360" y="-7.5" font-family="Helvetica,sans-Serif" font-size="10.00">inter_module::pchipinter</text>
</a>
</g>
</g>
<!-- Node2&#45;&gt;Node8 -->
<g id="edge7" class="edge">
<title>Node2&#45;&gt;Node8</title>
<path fill="none" stroke="midnightblue" d="M209.93,-126.39C222.26,-105.45 254.47,-55.48 295,-29 298.14,-26.95 301.52,-25.11 305.01,-23.46"/>
<polygon fill="midnightblue" stroke="midnightblue" points="306.57,-26.61 314.47,-19.55 303.89,-20.14 306.57,-26.61"/>
</g>
<!-- Node10 -->
<g id="node10" class="node">
<title>Node10</title>
<g id="a_node10"><a xlink:href="namespaceerror__msg__class.html#a2453d3b7cb363115c046840baa1dfb75" target="_top" xlink:title="Raise a exception with a given error message.">
<polygon fill="white" stroke="black" points="303,-39 303,-69 417,-69 417,-39 303,-39"/>
<text text-anchor="start" x="311" y="-57" font-family="Helvetica,sans-Serif" font-size="10.00">error_msg_class::raise</text>
<text text-anchor="middle" x="360" y="-46" font-family="Helvetica,sans-Serif" font-size="10.00">_exception</text>
</a>
</g>
</g>
<!-- Node2&#45;&gt;Node10 -->
<g id="edge9" class="edge">
<title>Node2&#45;&gt;Node10</title>
<path fill="none" stroke="midnightblue" d="M217.83,-126.47C235.07,-114.41 266.32,-93.47 295,-79 299.06,-76.95 303.34,-74.96 307.67,-73.05"/>
<polygon fill="midnightblue" stroke="midnightblue" points="309.34,-76.14 317.18,-69.01 306.61,-69.69 309.34,-76.14"/>
</g>
<!-- Node9 -->
<g id="node9" class="node">
<title>Node9</title>
<g id="a_node9"><a xlink:href="quadpack__module_8f90.html#aada5a652920db442d627f1ca24ff25d7" target="_top" xlink:title="Further information: http://netlib.org/quadpack/index.html https://orion.math.iastate....">
<polygon fill="white" stroke="black" points="498.5,-0.5 498.5,-19.5 527.5,-19.5 527.5,-0.5 498.5,-0.5"/>
<text text-anchor="middle" x="513" y="-7.5" font-family="Helvetica,sans-Serif" font-size="10.00">pi</text>
</a>
</g>
</g>
<!-- Node8&#45;&gt;Node9 -->
<g id="edge8" class="edge">
<title>Node8&#45;&gt;Node9</title>
<path fill="none" stroke="midnightblue" d="M419.81,-10C443.65,-10 469.83,-10 488.18,-10"/>
<polygon fill="midnightblue" stroke="midnightblue" points="488.25,-13.5 498.25,-10 488.25,-6.5 488.25,-13.5"/>
</g>
<!-- Node10&#45;&gt;Node5 -->
<g id="edge10" class="edge">
<title>Node10&#45;&gt;Node5</title>
<path fill="none" stroke="midnightblue" d="M399.61,-69.01C407.98,-72.29 416.79,-75.75 425,-79 438.15,-84.21 452.4,-89.92 465.49,-95.19"/>
<polygon fill="midnightblue" stroke="midnightblue" points="464.19,-98.44 474.78,-98.93 466.81,-91.95 464.19,-98.44"/>
</g>
</g>
</svg>
