<?xml version="1.0" encoding="UTF-8" standalone="no"?>
<!DOCTYPE svg PUBLIC "-//W3C//DTD SVG 1.1//EN"
 "http://www.w3.org/Graphics/SVG/1.1/DTD/svg11.dtd">
<!-- Generated by graphviz version 2.44.0 ()
 -->
<!-- Title: src_files.nucleus_multiple_class.nucleus_multiple.Z_X Pages: 1 -->
<svg width="313pt" height="219pt"
 viewBox="0.00 0.00 313.00 218.50" xmlns="http://www.w3.org/2000/svg" xmlns:xlink="http://www.w3.org/1999/xlink">
<g id="graph0" class="graph" transform="scale(1 1) rotate(0) translate(4 214.5)">
<title>src_files.nucleus_multiple_class.nucleus_multiple.Z_X</title>
<polygon fill="white" stroke="transparent" points="-4,4 -4,-214.5 309,-214.5 309,4 -4,4"/>
<!-- Node1 -->
<g id="node1" class="node">
<title>Node1</title>
<g id="a_node1"><a xlink:title=" ">
<polygon fill="#bfbfbf" stroke="black" points="0,-84.5 0,-114.5 140,-114.5 140,-84.5 0,-84.5"/>
<text text-anchor="start" x="8" y="-102.5" font-family="Helvetica,sans-Serif" font-size="10.00">src_files.nucleus_multiple</text>
<text text-anchor="middle" x="70" y="-91.5" font-family="Helvetica,sans-Serif" font-size="10.00">_class.nucleus_multiple.Z_X</text>
</a>
</g>
</g>
<!-- Node2 -->
<g id="node2" class="node">
<title>Node2</title>
<g id="a_node2"><a xlink:href="classbin_1_1class__files_1_1nucleus__multiple__class_1_1nucleus__multiple.html#ac65a397805f0e4abf3cce66a03157eec" target="_top" xlink:title=" ">
<polygon fill="white" stroke="black" points="180.5,-169 180.5,-210 300.5,-210 300.5,-169 180.5,-169"/>
<text text-anchor="start" x="188.5" y="-198" font-family="Helvetica,sans-Serif" font-size="10.00">bin.class_files.nucleus</text>
<text text-anchor="start" x="188.5" y="-187" font-family="Helvetica,sans-Serif" font-size="10.00">_multiple_class.nucleus</text>
<text text-anchor="middle" x="240.5" y="-176" font-family="Helvetica,sans-Serif" font-size="10.00">_multiple.__sum_over</text>
</a>
</g>
</g>
<!-- Node1&#45;&gt;Node2 -->
<g id="edge1" class="edge">
<title>Node1&#45;&gt;Node2</title>
<path fill="none" stroke="midnightblue" d="M96.16,-114.61C117.24,-127.09 148.26,-145.05 176,-159.5 179.12,-161.13 182.35,-162.77 185.61,-164.4"/>
<polygon fill="midnightblue" stroke="midnightblue" points="184.36,-167.68 194.87,-168.95 187.45,-161.4 184.36,-167.68"/>
</g>
<!-- Node3 -->
<g id="node3" class="node">
<title>Node3</title>
<g id="a_node3"><a xlink:href="classsrc__files_1_1nucleus__multiple__class_1_1nucleus__multiple.html#aaa6d71676bdeab14501f9211dc917ba7" target="_top" xlink:title=" ">
<polygon fill="white" stroke="black" points="176.5,-109 176.5,-150 304.5,-150 304.5,-109 176.5,-109"/>
<text text-anchor="start" x="184.5" y="-138" font-family="Helvetica,sans-Serif" font-size="10.00">src_files.nucleus_multiple</text>
<text text-anchor="start" x="184.5" y="-127" font-family="Helvetica,sans-Serif" font-size="10.00">_class.nucleus_multiple.</text>
<text text-anchor="middle" x="240.5" y="-116" font-family="Helvetica,sans-Serif" font-size="10.00">__sum_over</text>
</a>
</g>
</g>
<!-- Node1&#45;&gt;Node3 -->
<g id="edge2" class="edge">
<title>Node1&#45;&gt;Node3</title>
<path fill="none" stroke="midnightblue" d="M140.02,-111.79C148.64,-113.32 157.49,-114.9 166.17,-116.44"/>
<polygon fill="midnightblue" stroke="midnightblue" points="165.81,-119.94 176.27,-118.24 167.04,-113.04 165.81,-119.94"/>
</g>
<!-- Node4 -->
<g id="node4" class="node">
<title>Node4</title>
<g id="a_node4"><a xlink:href="classbin_1_1class__files_1_1nucleus__multiple__class_1_1nucleus__multiple.html#a34bb1264e87dbf9d143f7a6377249b0d" target="_top" xlink:title=" ">
<polygon fill="white" stroke="black" points="180.5,-49 180.5,-90 300.5,-90 300.5,-49 180.5,-49"/>
<text text-anchor="start" x="188.5" y="-78" font-family="Helvetica,sans-Serif" font-size="10.00">bin.class_files.nucleus</text>
<text text-anchor="start" x="188.5" y="-67" font-family="Helvetica,sans-Serif" font-size="10.00">_multiple_class.nucleus</text>
<text text-anchor="middle" x="240.5" y="-56" font-family="Helvetica,sans-Serif" font-size="10.00">_multiple.X</text>
</a>
</g>
</g>
<!-- Node1&#45;&gt;Node4 -->
<g id="edge3" class="edge">
<title>Node1&#45;&gt;Node4</title>
<path fill="none" stroke="midnightblue" d="M140.02,-87.21C150.04,-85.43 160.36,-83.59 170.38,-81.81"/>
<polygon fill="midnightblue" stroke="midnightblue" points="171.05,-85.24 180.28,-80.04 169.82,-78.35 171.05,-85.24"/>
</g>
<!-- Node5 -->
<g id="node5" class="node">
<title>Node5</title>
<g id="a_node5"><a xlink:href="classsrc__files_1_1nucleus__multiple__class_1_1nucleus__multiple.html#adacad0cd4e800e12ac40bfff3105f226" target="_top" xlink:title=" ">
<polygon fill="white" stroke="black" points="176,-0.5 176,-30.5 305,-30.5 305,-0.5 176,-0.5"/>
<text text-anchor="start" x="184" y="-18.5" font-family="Helvetica,sans-Serif" font-size="10.00">src_files.nucleus_multiple</text>
<text text-anchor="middle" x="240.5" y="-7.5" font-family="Helvetica,sans-Serif" font-size="10.00">_class.nucleus_multiple.X</text>
</a>
</g>
</g>
<!-- Node1&#45;&gt;Node5 -->
<g id="edge4" class="edge">
<title>Node1&#45;&gt;Node5</title>
<path fill="none" stroke="midnightblue" d="M95.03,-84.32C115.94,-71.46 147.32,-53.01 176,-39.5 179.61,-37.8 183.39,-36.12 187.21,-34.5"/>
<polygon fill="midnightblue" stroke="midnightblue" points="188.83,-37.62 196.76,-30.59 186.18,-31.14 188.83,-37.62"/>
</g>
</g>
</svg>
