<?xml version="1.0" encoding="UTF-8" standalone="no"?>
<!DOCTYPE svg PUBLIC "-//W3C//DTD SVG 1.1//EN"
 "http://www.w3.org/Graphics/SVG/1.1/DTD/svg11.dtd">
<!-- Generated by graphviz version 2.44.0 ()
 -->
<!-- Title: src_files.nucleus_class.nucleus.get_seedline Pages: 1 -->
<svg width="411pt" height="166pt"
 viewBox="0.00 0.00 411.00 165.50" xmlns="http://www.w3.org/2000/svg" xmlns:xlink="http://www.w3.org/1999/xlink">
<g id="graph0" class="graph" transform="scale(1 1) rotate(0) translate(4 161.5)">
<title>src_files.nucleus_class.nucleus.get_seedline</title>
<polygon fill="white" stroke="transparent" points="-4,4 -4,-161.5 407,-161.5 407,4 -4,4"/>
<!-- Node1 -->
<g id="node1" class="node">
<title>Node1</title>
<g id="a_node1"><a xlink:title=" ">
<polygon fill="#bfbfbf" stroke="black" points="0,-66.5 0,-96.5 169,-96.5 169,-66.5 0,-66.5"/>
<text text-anchor="start" x="8" y="-84.5" font-family="Helvetica,sans-Serif" font-size="10.00">src_files.nucleus_class.nucleus.get</text>
<text text-anchor="middle" x="84.5" y="-73.5" font-family="Helvetica,sans-Serif" font-size="10.00">_seedline</text>
</a>
</g>
</g>
<!-- Node2 -->
<g id="node2" class="node">
<title>Node2</title>
<g id="a_node2"><a xlink:href="classsrc__files_1_1nucleus__class_1_1nucleus.html#ae347b9ba4bea9ac9d67c6479593e009b" target="_top" xlink:title=" ">
<polygon fill="white" stroke="black" points="205,-138 205,-157 403,-157 403,-138 205,-138"/>
<text text-anchor="middle" x="304" y="-145" font-family="Helvetica,sans-Serif" font-size="10.00">src_files.nucleus_class.nucleus.get_name</text>
</a>
</g>
</g>
<!-- Node1&#45;&gt;Node2 -->
<g id="edge1" class="edge">
<title>Node1&#45;&gt;Node2</title>
<path fill="none" stroke="midnightblue" d="M118.92,-96.55C142.57,-106.73 175.25,-119.84 205,-128.5 214.49,-131.26 224.61,-133.73 234.61,-135.91"/>
<polygon fill="midnightblue" stroke="midnightblue" points="234.04,-139.37 244.54,-137.99 235.47,-132.51 234.04,-139.37"/>
</g>
<!-- Node3 -->
<g id="node3" class="node">
<title>Node3</title>
<g id="a_node3"><a xlink:href="classbin_1_1class__files_1_1nucleus__class_1_1nucleus.html#a070cf4e1cbb33f719593d3f08fa17810" target="_top" xlink:title=" ">
<polygon fill="white" stroke="black" points="241,-88.5 241,-118.5 367,-118.5 367,-88.5 241,-88.5"/>
<text text-anchor="start" x="249" y="-106.5" font-family="Helvetica,sans-Serif" font-size="10.00">bin.class_files.nucleus</text>
<text text-anchor="middle" x="304" y="-95.5" font-family="Helvetica,sans-Serif" font-size="10.00">_class.nucleus.get_name</text>
</a>
</g>
</g>
<!-- Node1&#45;&gt;Node3 -->
<g id="edge2" class="edge">
<title>Node1&#45;&gt;Node3</title>
<path fill="none" stroke="midnightblue" d="M169.28,-89.97C189.56,-92.03 211.06,-94.2 230.76,-96.19"/>
<polygon fill="midnightblue" stroke="midnightblue" points="230.58,-99.69 240.88,-97.22 231.28,-92.73 230.58,-99.69"/>
</g>
<!-- Node4 -->
<g id="node4" class="node">
<title>Node4</title>
<g id="a_node4"><a xlink:href="classsrc__files_1_1nucleus__class_1_1nucleus.html#ad03638152e26d74bc4d9b5dea3eeda37" target="_top" xlink:title=" ">
<polygon fill="white" stroke="black" points="213.5,-50 213.5,-69 394.5,-69 394.5,-50 213.5,-50"/>
<text text-anchor="middle" x="304" y="-57" font-family="Helvetica,sans-Serif" font-size="10.00">src_files.nucleus_class.nucleus.get_X</text>
</a>
</g>
</g>
<!-- Node1&#45;&gt;Node4 -->
<g id="edge3" class="edge">
<title>Node1&#45;&gt;Node4</title>
<path fill="none" stroke="midnightblue" d="M169.28,-73.03C180.48,-71.89 192.05,-70.72 203.49,-69.57"/>
<polygon fill="midnightblue" stroke="midnightblue" points="203.89,-73.04 213.49,-68.55 203.19,-66.08 203.89,-73.04"/>
</g>
<!-- Node5 -->
<g id="node5" class="node">
<title>Node5</title>
<g id="a_node5"><a xlink:href="classbin_1_1class__files_1_1nucleus__class_1_1nucleus.html#a6cf698d293f9ceddc8488bc8ca82f6b2" target="_top" xlink:title=" ">
<polygon fill="white" stroke="black" points="247.5,-0.5 247.5,-30.5 360.5,-30.5 360.5,-0.5 247.5,-0.5"/>
<text text-anchor="start" x="255.5" y="-18.5" font-family="Helvetica,sans-Serif" font-size="10.00">bin.class_files.nucleus</text>
<text text-anchor="middle" x="304" y="-7.5" font-family="Helvetica,sans-Serif" font-size="10.00">_class.nucleus.get_X</text>
</a>
</g>
</g>
<!-- Node1&#45;&gt;Node5 -->
<g id="edge4" class="edge">
<title>Node1&#45;&gt;Node5</title>
<path fill="none" stroke="midnightblue" d="M126.71,-66.44C149.62,-58.3 178.73,-48.34 205,-40.5 215.43,-37.38 226.56,-34.31 237.44,-31.44"/>
<polygon fill="midnightblue" stroke="midnightblue" points="238.53,-34.78 247.33,-28.87 236.77,-28 238.53,-34.78"/>
</g>
</g>
</svg>
