<?xml version="1.0" encoding="UTF-8" standalone="no"?>
<!DOCTYPE svg PUBLIC "-//W3C//DTD SVG 1.1//EN"
 "http://www.w3.org/Graphics/SVG/1.1/DTD/svg11.dtd">
<!-- Generated by graphviz version 2.44.0 ()
 -->
<!-- Title: src_files.FlowAnimation.FlowAnimation.get_funcanimation Pages: 1 -->
<svg width="727pt" height="186pt"
 viewBox="0.00 0.00 727.00 186.00" xmlns="http://www.w3.org/2000/svg" xmlns:xlink="http://www.w3.org/1999/xlink">
<g id="graph0" class="graph" transform="scale(1 1) rotate(0) translate(4 182)">
<title>src_files.FlowAnimation.FlowAnimation.get_funcanimation</title>
<polygon fill="white" stroke="transparent" points="-4,4 -4,-182 723,-182 723,4 -4,4"/>
<!-- Node1 -->
<g id="node1" class="node">
<title>Node1</title>
<g id="a_node1"><a xlink:title=" ">
<polygon fill="#bfbfbf" stroke="black" points="0,-73.5 0,-103.5 163,-103.5 163,-73.5 0,-73.5"/>
<text text-anchor="start" x="8" y="-91.5" font-family="Helvetica,sans-Serif" font-size="10.00">src_files.FlowAnimation.</text>
<text text-anchor="middle" x="81.5" y="-80.5" font-family="Helvetica,sans-Serif" font-size="10.00">FlowAnimation.get_funcanimation</text>
</a>
</g>
</g>
<!-- Node2 -->
<g id="node2" class="node">
<title>Node2</title>
<g id="a_node2"><a xlink:href="classsrc__files_1_1FlowAnimation_1_1FlowAnimation.html#aa43d9d15f49ab97e34b6f975228b02f1" target="_top" xlink:title=" ">
<polygon fill="white" stroke="black" points="199,-73.5 199,-103.5 342,-103.5 342,-73.5 199,-73.5"/>
<text text-anchor="start" x="207" y="-91.5" font-family="Helvetica,sans-Serif" font-size="10.00">src_files.FlowAnimation.</text>
<text text-anchor="middle" x="270.5" y="-80.5" font-family="Helvetica,sans-Serif" font-size="10.00">FlowAnimation.update_frame</text>
</a>
</g>
</g>
<!-- Node1&#45;&gt;Node2 -->
<g id="edge1" class="edge">
<title>Node1&#45;&gt;Node2</title>
<path fill="none" stroke="midnightblue" d="M163.16,-88.5C171.59,-88.5 180.17,-88.5 188.61,-88.5"/>
<polygon fill="midnightblue" stroke="midnightblue" points="188.81,-92 198.81,-88.5 188.81,-85 188.81,-92"/>
</g>
<!-- Node3 -->
<g id="node3" class="node">
<title>Node3</title>
<g id="a_node3"><a xlink:href="classsrc__files_1_1FlowAnimation_1_1FlowAnimation.html#ae5cf5c670cfd79914fba912bfada1083" target="_top" xlink:title=" ">
<polygon fill="white" stroke="black" points="381.5,-147.5 381.5,-177.5 541.5,-177.5 541.5,-147.5 381.5,-147.5"/>
<text text-anchor="start" x="389.5" y="-165.5" font-family="Helvetica,sans-Serif" font-size="10.00">src_files.FlowAnimation.</text>
<text text-anchor="middle" x="461.5" y="-154.5" font-family="Helvetica,sans-Serif" font-size="10.00">FlowAnimation.update_abun_plot</text>
</a>
</g>
</g>
<!-- Node2&#45;&gt;Node3 -->
<g id="edge2" class="edge">
<title>Node2&#45;&gt;Node3</title>
<path fill="none" stroke="midnightblue" d="M300.35,-103.55C321.48,-114.19 351.06,-128.33 378,-138.5 383.36,-140.53 388.98,-142.48 394.64,-144.35"/>
<polygon fill="midnightblue" stroke="midnightblue" points="393.6,-147.69 404.2,-147.4 395.73,-141.02 393.6,-147.69"/>
</g>
<!-- Node4 -->
<g id="node4" class="node">
<title>Node4</title>
<g id="a_node4"><a xlink:href="classsrc__files_1_1FlowAnimation_1_1FlowAnimation.html#a95e4fc280171aeddd24ea64c7ac34ca1" target="_top" xlink:title=" ">
<polygon fill="white" stroke="black" points="393,-98.5 393,-128.5 530,-128.5 530,-98.5 393,-98.5"/>
<text text-anchor="start" x="401" y="-116.5" font-family="Helvetica,sans-Serif" font-size="10.00">src_files.FlowAnimation.</text>
<text text-anchor="middle" x="461.5" y="-105.5" font-family="Helvetica,sans-Serif" font-size="10.00">FlowAnimation.update_data</text>
</a>
</g>
</g>
<!-- Node2&#45;&gt;Node4 -->
<g id="edge3" class="edge">
<title>Node2&#45;&gt;Node4</title>
<path fill="none" stroke="midnightblue" d="M342.15,-97.84C355.35,-99.59 369.21,-101.42 382.62,-103.2"/>
<polygon fill="midnightblue" stroke="midnightblue" points="382.39,-106.7 392.76,-104.54 383.31,-99.76 382.39,-106.7"/>
</g>
<!-- Node6 -->
<g id="node6" class="node">
<title>Node6</title>
<g id="a_node6"><a xlink:href="classsrc__files_1_1FlowAnimation_1_1FlowAnimation.html#a3c3a1682828427540b5999cfb2680498" target="_top" xlink:title=" ">
<polygon fill="white" stroke="black" points="378,-49.5 378,-79.5 545,-79.5 545,-49.5 378,-49.5"/>
<text text-anchor="start" x="386" y="-67.5" font-family="Helvetica,sans-Serif" font-size="10.00">src_files.FlowAnimation.</text>
<text text-anchor="middle" x="461.5" y="-56.5" font-family="Helvetica,sans-Serif" font-size="10.00">FlowAnimation.update_fission_plot</text>
</a>
</g>
</g>
<!-- Node2&#45;&gt;Node6 -->
<g id="edge5" class="edge">
<title>Node2&#45;&gt;Node6</title>
<path fill="none" stroke="midnightblue" d="M342.15,-79.53C350.51,-78.47 359.14,-77.37 367.75,-76.28"/>
<polygon fill="midnightblue" stroke="midnightblue" points="368.36,-79.73 377.84,-75 367.48,-72.78 368.36,-79.73"/>
</g>
<!-- Node7 -->
<g id="node7" class="node">
<title>Node7</title>
<g id="a_node7"><a xlink:href="classsrc__files_1_1FlowAnimation_1_1FlowAnimation.html#a69be16253d1914cf7d7b615f991b30b5" target="_top" xlink:title=" ">
<polygon fill="white" stroke="black" points="383.5,-0.5 383.5,-30.5 539.5,-30.5 539.5,-0.5 383.5,-0.5"/>
<text text-anchor="start" x="391.5" y="-18.5" font-family="Helvetica,sans-Serif" font-size="10.00">src_files.FlowAnimation.</text>
<text text-anchor="middle" x="461.5" y="-7.5" font-family="Helvetica,sans-Serif" font-size="10.00">FlowAnimation.update_flow_plot</text>
</a>
</g>
</g>
<!-- Node2&#45;&gt;Node7 -->
<g id="edge6" class="edge">
<title>Node2&#45;&gt;Node7</title>
<path fill="none" stroke="midnightblue" d="M302.28,-73.35C323.31,-63.32 351.99,-50.26 378,-40.5 384.31,-38.13 390.95,-35.83 397.61,-33.63"/>
<polygon fill="midnightblue" stroke="midnightblue" points="398.9,-36.89 407.35,-30.5 396.76,-30.23 398.9,-36.89"/>
</g>
<!-- Node5 -->
<g id="node5" class="node">
<title>Node5</title>
<g id="a_node5"><a xlink:href="classsrc__files_1_1FlowAnimation_1_1FlowAnimation.html#a0b441e840894c30065df01b4a0c814ed" target="_top" xlink:title=" ">
<polygon fill="white" stroke="black" points="581,-98.5 581,-128.5 719,-128.5 719,-98.5 581,-98.5"/>
<text text-anchor="start" x="589" y="-116.5" font-family="Helvetica,sans-Serif" font-size="10.00">src_files.FlowAnimation.</text>
<text text-anchor="middle" x="650" y="-105.5" font-family="Helvetica,sans-Serif" font-size="10.00">FlowAnimation.sum_over_A</text>
</a>
</g>
</g>
<!-- Node4&#45;&gt;Node5 -->
<g id="edge4" class="edge">
<title>Node4&#45;&gt;Node5</title>
<path fill="none" stroke="midnightblue" d="M530.09,-113.5C543.22,-113.5 557.08,-113.5 570.52,-113.5"/>
<polygon fill="midnightblue" stroke="midnightblue" points="570.7,-117 580.7,-113.5 570.7,-110 570.7,-117"/>
</g>
</g>
</svg>
