<?xml version="1.0" encoding="UTF-8" standalone="no"?>
<!DOCTYPE svg PUBLIC "-//W3C//DTD SVG 1.1//EN"
 "http://www.w3.org/Graphics/SVG/1.1/DTD/svg11.dtd">
<!-- Generated by graphviz version 2.44.0 ()
 -->
<!-- Title: bin.create_neutrino_nucleon_file.nunucleon.averageE_nu_n Pages: 1 -->
<svg width="915pt" height="110pt"
 viewBox="0.00 0.00 915.00 109.50" xmlns="http://www.w3.org/2000/svg" xmlns:xlink="http://www.w3.org/1999/xlink">
<g id="graph0" class="graph" transform="scale(1 1) rotate(0) translate(4 105.5)">
<title>bin.create_neutrino_nucleon_file.nunucleon.averageE_nu_n</title>
<polygon fill="white" stroke="transparent" points="-4,4 -4,-105.5 911,-105.5 911,4 -4,4"/>
<!-- Node1 -->
<g id="node1" class="node">
<title>Node1</title>
<g id="a_node1"><a xlink:title=" ">
<polygon fill="#bfbfbf" stroke="black" points="0,-22 0,-63 156,-63 156,-22 0,-22"/>
<text text-anchor="start" x="8" y="-51" font-family="Helvetica,sans-Serif" font-size="10.00">bin.create_neutrino</text>
<text text-anchor="start" x="8" y="-40" font-family="Helvetica,sans-Serif" font-size="10.00">_nucleon_file.nunucleon.average</text>
<text text-anchor="middle" x="78" y="-29" font-family="Helvetica,sans-Serif" font-size="10.00">E_nu_n</text>
</a>
</g>
</g>
<!-- Node2 -->
<g id="node2" class="node">
<title>Node2</title>
<g id="a_node2"><a xlink:href="classbin_1_1create__neutrino__nucleon__file_1_1nunucleon.html#ad6aaaefa464d1facfcd880c496d825a3" target="_top" xlink:title=" ">
<polygon fill="white" stroke="black" points="387,-60 387,-101 539,-101 539,-60 387,-60"/>
<text text-anchor="start" x="395" y="-89" font-family="Helvetica,sans-Serif" font-size="10.00">bin.create_neutrino</text>
<text text-anchor="start" x="395" y="-78" font-family="Helvetica,sans-Serif" font-size="10.00">_nucleon_file.nunucleon.Fermi_</text>
<text text-anchor="middle" x="463" y="-67" font-family="Helvetica,sans-Serif" font-size="10.00">Dirac</text>
</a>
</g>
</g>
<!-- Node1&#45;&gt;Node2 -->
<g id="edge1" class="edge">
<title>Node1&#45;&gt;Node2</title>
<path fill="none" stroke="midnightblue" d="M146.29,-63.07C161.21,-66.87 177.04,-70.32 192,-72.5 253.36,-81.43 323.37,-83.27 376.72,-82.96"/>
<polygon fill="midnightblue" stroke="midnightblue" points="376.85,-86.46 386.82,-82.88 376.79,-79.46 376.85,-86.46"/>
</g>
<!-- Node3 -->
<g id="node3" class="node">
<title>Node3</title>
<g id="a_node3"><a xlink:href="classbin_1_1create__neutrino__nucleon__file_1_1nunucleon.html#ae4ed85371e4780258497b935915369d1" target="_top" xlink:title=" ">
<polygon fill="white" stroke="black" points="192,-22 192,-63 340,-63 340,-22 192,-22"/>
<text text-anchor="start" x="200" y="-51" font-family="Helvetica,sans-Serif" font-size="10.00">bin.create_neutrino</text>
<text text-anchor="start" x="200" y="-40" font-family="Helvetica,sans-Serif" font-size="10.00">_nucleon_file.nunucleon.sigma</text>
<text text-anchor="middle" x="266" y="-29" font-family="Helvetica,sans-Serif" font-size="10.00">_avg_nu_n</text>
</a>
</g>
</g>
<!-- Node1&#45;&gt;Node3 -->
<g id="edge2" class="edge">
<title>Node1&#45;&gt;Node3</title>
<path fill="none" stroke="midnightblue" d="M156.26,-42.5C164.64,-42.5 173.19,-42.5 181.63,-42.5"/>
<polygon fill="midnightblue" stroke="midnightblue" points="181.85,-46 191.85,-42.5 181.85,-39 181.85,-46"/>
</g>
<!-- Node4 -->
<g id="node4" class="node">
<title>Node4</title>
<g id="a_node4"><a xlink:href="classbin_1_1create__neutrino__nucleon__file_1_1nunucleon.html#a0d686c2de17741b000871c6d41046bd1" target="_top" xlink:title=" ">
<polygon fill="white" stroke="black" points="376,-0.5 376,-30.5 550,-30.5 550,-0.5 376,-0.5"/>
<text text-anchor="start" x="384" y="-18.5" font-family="Helvetica,sans-Serif" font-size="10.00">bin.create_neutrino</text>
<text text-anchor="middle" x="463" y="-7.5" font-family="Helvetica,sans-Serif" font-size="10.00">_nucleon_file.nunucleon.sigma_nu_n</text>
</a>
</g>
</g>
<!-- Node1&#45;&gt;Node4 -->
<g id="edge7" class="edge">
<title>Node1&#45;&gt;Node4</title>
<path fill="none" stroke="midnightblue" d="M144.75,-21.98C160.1,-18.04 176.5,-14.52 192,-12.5 249.31,-5.02 314.03,-5.44 365.74,-7.89"/>
<polygon fill="midnightblue" stroke="midnightblue" points="365.74,-11.39 375.91,-8.4 366.1,-4.4 365.74,-11.39"/>
</g>
<!-- Node3&#45;&gt;Node2 -->
<g id="edge3" class="edge">
<title>Node3&#45;&gt;Node2</title>
<path fill="none" stroke="midnightblue" d="M340.17,-56.76C352.07,-59.08 364.49,-61.5 376.66,-63.87"/>
<polygon fill="midnightblue" stroke="midnightblue" points="376.31,-67.37 386.8,-65.85 377.65,-60.5 376.31,-67.37"/>
</g>
<!-- Node3&#45;&gt;Node4 -->
<g id="edge4" class="edge">
<title>Node3&#45;&gt;Node4</title>
<path fill="none" stroke="midnightblue" d="M340.17,-32.37C348.55,-31.21 357.2,-30.01 365.83,-28.82"/>
<polygon fill="midnightblue" stroke="midnightblue" points="366.52,-32.25 375.94,-27.42 365.56,-25.32 366.52,-32.25"/>
</g>
<!-- Node5 -->
<g id="node5" class="node">
<title>Node5</title>
<g id="a_node5"><a xlink:href="classbin_1_1create__neutrino__nucleon__file_1_1nunucleon.html#aba65e1a48977644763f13c057782caca" target="_top" xlink:title=" ">
<polygon fill="white" stroke="black" points="586,-0.5 586,-30.5 725,-30.5 725,-0.5 586,-0.5"/>
<text text-anchor="start" x="594" y="-18.5" font-family="Helvetica,sans-Serif" font-size="10.00">bin.create_neutrino</text>
<text text-anchor="middle" x="655.5" y="-7.5" font-family="Helvetica,sans-Serif" font-size="10.00">_nucleon_file.nunucleon.WM</text>
</a>
</g>
</g>
<!-- Node4&#45;&gt;Node5 -->
<g id="edge5" class="edge">
<title>Node4&#45;&gt;Node5</title>
<path fill="none" stroke="midnightblue" d="M550.05,-15.5C558.61,-15.5 567.26,-15.5 575.73,-15.5"/>
<polygon fill="midnightblue" stroke="midnightblue" points="575.96,-19 585.96,-15.5 575.96,-12 575.96,-19"/>
</g>
<!-- Node6 -->
<g id="node6" class="node">
<title>Node6</title>
<g id="a_node6"><a xlink:href="classbin_1_1create__neutrino__nucleon__file_1_1nunucleon.html#a4cbdc40f98cdb7758822a5bfc600bd35" target="_top" xlink:title=" ">
<polygon fill="white" stroke="black" points="761,-0.5 761,-30.5 907,-30.5 907,-0.5 761,-0.5"/>
<text text-anchor="start" x="769" y="-18.5" font-family="Helvetica,sans-Serif" font-size="10.00">bin.create_neutrino</text>
<text text-anchor="middle" x="834" y="-7.5" font-family="Helvetica,sans-Serif" font-size="10.00">_nucleon_file.nunucleon.__cor</text>
</a>
</g>
</g>
<!-- Node5&#45;&gt;Node6 -->
<g id="edge6" class="edge">
<title>Node5&#45;&gt;Node6</title>
<path fill="none" stroke="midnightblue" d="M725.24,-15.5C733.66,-15.5 742.33,-15.5 750.92,-15.5"/>
<polygon fill="midnightblue" stroke="midnightblue" points="750.95,-19 760.95,-15.5 750.95,-12 750.95,-19"/>
</g>
</g>
</svg>
