<?xml version="1.0" encoding="UTF-8" standalone="no"?>
<!DOCTYPE svg PUBLIC "-//W3C//DTD SVG 1.1//EN"
 "http://www.w3.org/Graphics/SVG/1.1/DTD/svg11.dtd">
<!-- Generated by graphviz version 2.44.0 ()
 -->
<!-- Title: bin.class_files.reaclib_class.reaclib.get_rate_error_html Pages: 1 -->
<svg width="295pt" height="50pt"
 viewBox="0.00 0.00 295.00 50.00" xmlns="http://www.w3.org/2000/svg" xmlns:xlink="http://www.w3.org/1999/xlink">
<g id="graph0" class="graph" transform="scale(1 1) rotate(0) translate(4 46)">
<title>bin.class_files.reaclib_class.reaclib.get_rate_error_html</title>
<polygon fill="white" stroke="transparent" points="-4,4 -4,-46 291,-46 291,4 -4,4"/>
<!-- Node1 -->
<g id="node1" class="node">
<title>Node1</title>
<g id="a_node1"><a xlink:title=" ">
<polygon fill="#bfbfbf" stroke="black" points="0,-0.5 0,-41.5 113,-41.5 113,-0.5 0,-0.5"/>
<text text-anchor="start" x="8" y="-29.5" font-family="Helvetica,sans-Serif" font-size="10.00">bin.class_files.reaclib</text>
<text text-anchor="start" x="8" y="-18.5" font-family="Helvetica,sans-Serif" font-size="10.00">_class.reaclib.get_rate</text>
<text text-anchor="middle" x="56.5" y="-7.5" font-family="Helvetica,sans-Serif" font-size="10.00">_error_html</text>
</a>
</g>
</g>
<!-- Node2 -->
<g id="node2" class="node">
<title>Node2</title>
<g id="a_node2"><a xlink:href="classbin_1_1class__files_1_1reaclib__class_1_1reaclib.html#a43180fe034808641ea6820bf7391fca4" target="_top" xlink:title=" ">
<polygon fill="white" stroke="black" points="149,-6 149,-36 287,-36 287,-6 149,-6"/>
<text text-anchor="start" x="157" y="-24" font-family="Helvetica,sans-Serif" font-size="10.00">bin.class_files.reaclib</text>
<text text-anchor="middle" x="218" y="-13" font-family="Helvetica,sans-Serif" font-size="10.00">_class.reaclib.get_rate_error</text>
</a>
</g>
</g>
<!-- Node1&#45;&gt;Node2 -->
<g id="edge1" class="edge">
<title>Node1&#45;&gt;Node2</title>
<path fill="none" stroke="midnightblue" d="M113.29,-21C121.55,-21 130.19,-21 138.81,-21"/>
<polygon fill="midnightblue" stroke="midnightblue" points="138.9,-24.5 148.89,-21 138.89,-17.5 138.9,-24.5"/>
</g>
</g>
</svg>
