<?xml version="1.0" encoding="UTF-8" standalone="no"?>
<!DOCTYPE svg PUBLIC "-//W3C//DTD SVG 1.1//EN"
 "http://www.w3.org/Graphics/SVG/1.1/DTD/svg11.dtd">
<!-- Generated by graphviz version 2.44.0 ()
 -->
<!-- Title: bin.class_files.reaclib_class.reaclib.test_reaclib Pages: 1 -->
<svg width="433pt" height="170pt"
 viewBox="0.00 0.00 433.00 170.00" xmlns="http://www.w3.org/2000/svg" xmlns:xlink="http://www.w3.org/1999/xlink">
<g id="graph0" class="graph" transform="scale(1 1) rotate(0) translate(4 166)">
<title>bin.class_files.reaclib_class.reaclib.test_reaclib</title>
<polygon fill="white" stroke="transparent" points="-4,4 -4,-166 429,-166 429,4 -4,4"/>
<!-- Node1 -->
<g id="node1" class="node">
<title>Node1</title>
<g id="a_node1"><a xlink:title=" ">
<polygon fill="#bfbfbf" stroke="black" points="0,-66 0,-96 128,-96 128,-66 0,-66"/>
<text text-anchor="start" x="8" y="-84" font-family="Helvetica,sans-Serif" font-size="10.00">bin.class_files.reaclib</text>
<text text-anchor="middle" x="64" y="-73" font-family="Helvetica,sans-Serif" font-size="10.00">_class.reaclib.test_reaclib</text>
</a>
</g>
</g>
<!-- Node2 -->
<g id="node2" class="node">
<title>Node2</title>
<g id="a_node2"><a xlink:href="classbin_1_1class__files_1_1reaclib__class_1_1reaclib.html#a2a0e5da72f3e948ef35f2c06a9c4f9bc" target="_top" xlink:title=" ">
<polygon fill="white" stroke="black" points="164,-120.5 164,-161.5 272,-161.5 272,-120.5 164,-120.5"/>
<text text-anchor="start" x="172" y="-149.5" font-family="Helvetica,sans-Serif" font-size="10.00">bin.class_files.reaclib</text>
<text text-anchor="start" x="172" y="-138.5" font-family="Helvetica,sans-Serif" font-size="10.00">_class.reaclib.__test</text>
<text text-anchor="middle" x="218" y="-127.5" font-family="Helvetica,sans-Serif" font-size="10.00">_massconsistency</text>
</a>
</g>
</g>
<!-- Node1&#45;&gt;Node2 -->
<g id="edge1" class="edge">
<title>Node1&#45;&gt;Node2</title>
<path fill="none" stroke="midnightblue" d="M103.36,-96.14C119.09,-102.35 137.7,-109.7 155.26,-116.63"/>
<polygon fill="midnightblue" stroke="midnightblue" points="154.29,-120.01 164.88,-120.42 156.86,-113.5 154.29,-120.01"/>
</g>
<!-- Node3 -->
<g id="node3" class="node">
<title>Node3</title>
<g id="a_node3"><a xlink:href="classbin_1_1class__files_1_1reaclib__class_1_1reaclib.html#a009a9ef32c9c5669fde667a165f79c40" target="_top" xlink:title=" ">
<polygon fill="white" stroke="black" points="164,-60.5 164,-101.5 272,-101.5 272,-60.5 164,-60.5"/>
<text text-anchor="start" x="172" y="-89.5" font-family="Helvetica,sans-Serif" font-size="10.00">bin.class_files.reaclib</text>
<text text-anchor="start" x="172" y="-78.5" font-family="Helvetica,sans-Serif" font-size="10.00">_class.reaclib.__test</text>
<text text-anchor="middle" x="218" y="-67.5" font-family="Helvetica,sans-Serif" font-size="10.00">_overflows</text>
</a>
</g>
</g>
<!-- Node1&#45;&gt;Node3 -->
<g id="edge2" class="edge">
<title>Node1&#45;&gt;Node3</title>
<path fill="none" stroke="midnightblue" d="M128.14,-81C136.61,-81 145.29,-81 153.76,-81"/>
<polygon fill="midnightblue" stroke="midnightblue" points="153.95,-84.5 163.95,-81 153.95,-77.5 153.95,-84.5"/>
</g>
<!-- Node5 -->
<g id="node5" class="node">
<title>Node5</title>
<g id="a_node5"><a xlink:href="classbin_1_1class__files_1_1reaclib__class_1_1reaclib.html#a34571ee33471ff541c898c0e427dc088" target="_top" xlink:title=" ">
<polygon fill="white" stroke="black" points="164,-0.5 164,-41.5 272,-41.5 272,-0.5 164,-0.5"/>
<text text-anchor="start" x="172" y="-29.5" font-family="Helvetica,sans-Serif" font-size="10.00">bin.class_files.reaclib</text>
<text text-anchor="start" x="172" y="-18.5" font-family="Helvetica,sans-Serif" font-size="10.00">_class.reaclib.__test</text>
<text text-anchor="middle" x="218" y="-7.5" font-family="Helvetica,sans-Serif" font-size="10.00">_weakconsistency</text>
</a>
</g>
</g>
<!-- Node1&#45;&gt;Node5 -->
<g id="edge4" class="edge">
<title>Node1&#45;&gt;Node5</title>
<path fill="none" stroke="midnightblue" d="M103.36,-65.86C119.09,-59.65 137.7,-52.3 155.26,-45.37"/>
<polygon fill="midnightblue" stroke="midnightblue" points="156.86,-48.5 164.88,-41.58 154.29,-41.99 156.86,-48.5"/>
</g>
<!-- Node4 -->
<g id="node4" class="node">
<title>Node4</title>
<g id="a_node4"><a xlink:href="classbin_1_1class__files_1_1reaclib__class_1_1reaclib.html#a8eafeef389712c17b3adda4e465d5fa1" target="_top" xlink:title=" ">
<polygon fill="white" stroke="black" points="308,-60.5 308,-101.5 425,-101.5 425,-60.5 308,-60.5"/>
<text text-anchor="start" x="316" y="-89.5" font-family="Helvetica,sans-Serif" font-size="10.00">bin.class_files.reaclib</text>
<text text-anchor="start" x="316" y="-78.5" font-family="Helvetica,sans-Serif" font-size="10.00">_class.reaclib.__reaclib</text>
<text text-anchor="middle" x="366.5" y="-67.5" font-family="Helvetica,sans-Serif" font-size="10.00">_fit_function</text>
</a>
</g>
</g>
<!-- Node3&#45;&gt;Node4 -->
<g id="edge3" class="edge">
<title>Node3&#45;&gt;Node4</title>
<path fill="none" stroke="midnightblue" d="M272.3,-81C280.45,-81 288.95,-81 297.35,-81"/>
<polygon fill="midnightblue" stroke="midnightblue" points="297.54,-84.5 307.54,-81 297.54,-77.5 297.54,-84.5"/>
</g>
</g>
</svg>
