<?xml version="1.0" encoding="UTF-8" standalone="no"?>
<!DOCTYPE svg PUBLIC "-//W3C//DTD SVG 1.1//EN"
 "http://www.w3.org/Graphics/SVG/1.1/DTD/svg11.dtd">
<!-- Generated by graphviz version 2.44.0 ()
 -->
<!-- Title: src_files.wreader.wreader.tau Pages: 1 -->
<svg width="669pt" height="39pt"
 viewBox="0.00 0.00 669.00 39.00" xmlns="http://www.w3.org/2000/svg" xmlns:xlink="http://www.w3.org/1999/xlink">
<g id="graph0" class="graph" transform="scale(1 1) rotate(0) translate(4 35)">
<title>src_files.wreader.wreader.tau</title>
<polygon fill="white" stroke="transparent" points="-4,4 -4,-35 665,-35 665,4 -4,4"/>
<!-- Node1 -->
<g id="node1" class="node">
<title>Node1</title>
<g id="a_node1"><a xlink:title=" ">
<polygon fill="#bfbfbf" stroke="black" points="0,-6 0,-25 142,-25 142,-6 0,-6"/>
<text text-anchor="middle" x="71" y="-13" font-family="Helvetica,sans-Serif" font-size="10.00">src_files.wreader.wreader.tau</text>
</a>
</g>
</g>
<!-- Node2 -->
<g id="node2" class="node">
<title>Node2</title>
<g id="a_node2"><a xlink:href="classsrc__files_1_1wreader_1_1wreader.html#a394335d4af61eb19c03cde0fe4acdb7f" target="_top" xlink:title=" ">
<polygon fill="white" stroke="black" points="178,-0.5 178,-30.5 306,-30.5 306,-0.5 178,-0.5"/>
<text text-anchor="start" x="186" y="-18.5" font-family="Helvetica,sans-Serif" font-size="10.00">src_files.wreader.wreader.</text>
<text text-anchor="middle" x="242" y="-7.5" font-family="Helvetica,sans-Serif" font-size="10.00">__read_timescales</text>
</a>
</g>
</g>
<!-- Node1&#45;&gt;Node2 -->
<g id="edge1" class="edge">
<title>Node1&#45;&gt;Node2</title>
<path fill="none" stroke="midnightblue" d="M142.2,-15.5C150.58,-15.5 159.16,-15.5 167.58,-15.5"/>
<polygon fill="midnightblue" stroke="midnightblue" points="167.76,-19 177.76,-15.5 167.76,-12 167.76,-19"/>
</g>
<!-- Node3 -->
<g id="node3" class="node">
<title>Node3</title>
<g id="a_node3"><a xlink:href="classsrc__files_1_1wreader_1_1wreader.html#a6cc2d629d39d6f1c36f484c8718449e0" target="_top" xlink:title=" ">
<polygon fill="white" stroke="black" points="342,-0.5 342,-30.5 497,-30.5 497,-0.5 342,-0.5"/>
<text text-anchor="start" x="350" y="-18.5" font-family="Helvetica,sans-Serif" font-size="10.00">src_files.wreader.wreader.check</text>
<text text-anchor="middle" x="419.5" y="-7.5" font-family="Helvetica,sans-Serif" font-size="10.00">_existence</text>
</a>
</g>
</g>
<!-- Node2&#45;&gt;Node3 -->
<g id="edge2" class="edge">
<title>Node2&#45;&gt;Node3</title>
<path fill="none" stroke="midnightblue" d="M306.36,-15.5C314.62,-15.5 323.19,-15.5 331.74,-15.5"/>
<polygon fill="midnightblue" stroke="midnightblue" points="331.76,-19 341.76,-15.5 331.76,-12 331.76,-19"/>
</g>
<!-- Node4 -->
<g id="node4" class="node">
<title>Node4</title>
<g id="a_node4"><a xlink:href="classsrc__files_1_1wreader_1_1wreader.html#ad7decec8890f297e25512ecb6fea313a" target="_top" xlink:title=" ">
<polygon fill="white" stroke="black" points="533,-0.5 533,-30.5 661,-30.5 661,-0.5 533,-0.5"/>
<text text-anchor="start" x="541" y="-18.5" font-family="Helvetica,sans-Serif" font-size="10.00">src_files.wreader.wreader.</text>
<text text-anchor="middle" x="597" y="-7.5" font-family="Helvetica,sans-Serif" font-size="10.00">__check_files</text>
</a>
</g>
</g>
<!-- Node3&#45;&gt;Node4 -->
<g id="edge3" class="edge">
<title>Node3&#45;&gt;Node4</title>
<path fill="none" stroke="midnightblue" d="M497.22,-15.5C505.68,-15.5 514.28,-15.5 522.69,-15.5"/>
<polygon fill="midnightblue" stroke="midnightblue" points="522.85,-19 532.85,-15.5 522.85,-12 522.85,-19"/>
</g>
</g>
</svg>
