<?xml version="1.0" encoding="UTF-8" standalone="no"?>
<!DOCTYPE svg PUBLIC "-//W3C//DTD SVG 1.1//EN"
 "http://www.w3.org/Graphics/SVG/1.1/DTD/svg11.dtd">
<!-- Generated by graphviz version 2.44.0 ()
 -->
<!-- Title: bin.class_files.winnet_class.winnet.plot_timescales Pages: 1 -->
<svg width="334pt" height="39pt"
 viewBox="0.00 0.00 334.00 39.00" xmlns="http://www.w3.org/2000/svg" xmlns:xlink="http://www.w3.org/1999/xlink">
<g id="graph0" class="graph" transform="scale(1 1) rotate(0) translate(4 35)">
<title>bin.class_files.winnet_class.winnet.plot_timescales</title>
<polygon fill="white" stroke="transparent" points="-4,4 -4,-35 330,-35 330,4 -4,4"/>
<!-- Node1 -->
<g id="node1" class="node">
<title>Node1</title>
<g id="a_node1"><a xlink:title=" ">
<polygon fill="#bfbfbf" stroke="black" points="0,-0.5 0,-30.5 146,-30.5 146,-0.5 0,-0.5"/>
<text text-anchor="start" x="8" y="-18.5" font-family="Helvetica,sans-Serif" font-size="10.00">bin.class_files.winnet</text>
<text text-anchor="middle" x="73" y="-7.5" font-family="Helvetica,sans-Serif" font-size="10.00">_class.winnet.plot_timescales</text>
</a>
</g>
</g>
<!-- Node2 -->
<g id="node2" class="node">
<title>Node2</title>
<g id="a_node2"><a xlink:href="classbin_1_1class__files_1_1winnet__class_1_1winnet.html#a58939684e1be33d9fe6bd256b5112b28" target="_top" xlink:title=" ">
<polygon fill="white" stroke="black" points="182,-0.5 182,-30.5 326,-30.5 326,-0.5 182,-0.5"/>
<text text-anchor="start" x="190" y="-18.5" font-family="Helvetica,sans-Serif" font-size="10.00">bin.class_files.winnet</text>
<text text-anchor="middle" x="254" y="-7.5" font-family="Helvetica,sans-Serif" font-size="10.00">_class.winnet.get_timescales</text>
</a>
</g>
</g>
<!-- Node1&#45;&gt;Node2 -->
<g id="edge1" class="edge">
<title>Node1&#45;&gt;Node2</title>
<path fill="none" stroke="midnightblue" d="M146.03,-15.5C154.55,-15.5 163.29,-15.5 171.92,-15.5"/>
<polygon fill="midnightblue" stroke="midnightblue" points="171.99,-19 181.99,-15.5 171.99,-12 171.99,-19"/>
</g>
</g>
</svg>
