<?xml version="1.0" encoding="UTF-8" standalone="no"?>
<!DOCTYPE svg PUBLIC "-//W3C//DTD SVG 1.1//EN"
 "http://www.w3.org/Graphics/SVG/1.1/DTD/svg11.dtd">
<!-- Generated by graphviz version 2.44.0 ()
 -->
<!-- Title: src_files.FlowAnimation.FlowAnimation.save_frame Pages: 1 -->
<!--zoomable 186 -->
<svg id="main" version="1.1" xmlns="http://www.w3.org/2000/svg" xmlns:xlink="http://www.w3.org/1999/xlink" xml:space="preserve" onload="init(evt)">
<style type="text/css"><![CDATA[
.edge:hover path { stroke: red; }
.edge:hover polygon { stroke: red; fill: red; }
]]></style>
<script type="text/javascript"><![CDATA[
var edges = document.getElementsByTagName('g');
if (edges && edges.length) {
  for (var i=0;i<edges.length;i++) {
    if (edges[i].id.substr(0,4)=='edge') {
      edges[i].setAttribute('class','edge');
    }
  }
}
]]></script>
        <defs>
                <circle id="rim" cx="0" cy="0" r="7"/>
                <circle id="rim2" cx="0" cy="0" r="3.5"/>
                <g id="zoomPlus">
                        <use xlink:href="#rim" fill="#404040">
                                <set attributeName="fill" to="#808080" begin="zoomplus.mouseover" end="zoomplus.mouseout"/>
                        </use>
                        <path d="M-4,0h8M0,-4v8" fill="none" stroke="white" stroke-width="1.5" pointer-events="none"/>
                </g>
                <g id="zoomMin">
                        <use xlink:href="#rim" fill="#404040">
                                <set attributeName="fill" to="#808080" begin="zoomminus.mouseover" end="zoomminus.mouseout"/>
                        </use>
                        <path d="M-4,0h8" fill="none" stroke="white" stroke-width="1.5" pointer-events="none"/>
                </g>
                <g id="dirArrow">
                        <path fill="none" stroke="white" stroke-width="1.5" d="M0,-3.0v7 M-2.5,-0.5L0,-3.0L2.5,-0.5"/>
                </g>
               <g id="resetDef">
                       <use xlink:href="#rim2" fill="#404040">
                               <set attributeName="fill" to="#808080" begin="reset.mouseover" end="reset.mouseout"/>
                       </use>
               </g>
        </defs>

<script type="text/javascript">
var viewWidth = 698;
var viewHeight = 186;
var sectionId = 'dynsection-1';
</script>
<script xlink:href="svgpan.js"/>
<svg id="graph" class="graph">
<g id="viewport">
<title>src_files.FlowAnimation.FlowAnimation.save_frame</title>
<polygon fill="white" stroke="transparent" points="-4,4 -4,-182 694,-182 694,4 -4,4"/>
<!-- Node1 -->
<g id="node1" class="node">
<title>Node1</title>
<g id="a_node1"><a xlink:title=" ">
<polygon fill="#bfbfbf" stroke="black" points="0,-73.5 0,-103.5 134,-103.5 134,-73.5 0,-73.5"/>
<text text-anchor="start" x="8" y="-91.5" font-family="Helvetica,sans-Serif" font-size="10.00">src_files.FlowAnimation.</text>
<text text-anchor="middle" x="67" y="-80.5" font-family="Helvetica,sans-Serif" font-size="10.00">FlowAnimation.save_frame</text>
</a>
</g>
</g>
<!-- Node2 -->
<g id="node2" class="node">
<title>Node2</title>
<g id="a_node2"><a xlink:href="classsrc__files_1_1FlowAnimation_1_1FlowAnimation.html#aa43d9d15f49ab97e34b6f975228b02f1" target="_top" xlink:title=" ">
<polygon fill="white" stroke="black" points="170,-73.5 170,-103.5 313,-103.5 313,-73.5 170,-73.5"/>
<text text-anchor="start" x="178" y="-91.5" font-family="Helvetica,sans-Serif" font-size="10.00">src_files.FlowAnimation.</text>
<text text-anchor="middle" x="241.5" y="-80.5" font-family="Helvetica,sans-Serif" font-size="10.00">FlowAnimation.update_frame</text>
</a>
</g>
</g>
<!-- Node1&#45;&gt;Node2 -->
<g id="edge1" class="edge">
<title>Node1&#45;&gt;Node2</title>
<path fill="none" stroke="midnightblue" d="M134.2,-88.5C142.6,-88.5 151.27,-88.5 159.86,-88.5"/>
<polygon fill="midnightblue" stroke="midnightblue" points="159.89,-92 169.89,-88.5 159.89,-85 159.89,-92"/>
</g>
<!-- Node3 -->
<g id="node3" class="node">
<title>Node3</title>
<g id="a_node3"><a xlink:href="classsrc__files_1_1FlowAnimation_1_1FlowAnimation.html#ae5cf5c670cfd79914fba912bfada1083" target="_top" xlink:title=" ">
<polygon fill="white" stroke="black" points="352.5,-147.5 352.5,-177.5 512.5,-177.5 512.5,-147.5 352.5,-147.5"/>
<text text-anchor="start" x="360.5" y="-165.5" font-family="Helvetica,sans-Serif" font-size="10.00">src_files.FlowAnimation.</text>
<text text-anchor="middle" x="432.5" y="-154.5" font-family="Helvetica,sans-Serif" font-size="10.00">FlowAnimation.update_abun_plot</text>
</a>
</g>
</g>
<!-- Node2&#45;&gt;Node3 -->
<g id="edge2" class="edge">
<title>Node2&#45;&gt;Node3</title>
<path fill="none" stroke="midnightblue" d="M271.35,-103.55C292.48,-114.19 322.06,-128.33 349,-138.5 354.36,-140.53 359.98,-142.48 365.64,-144.35"/>
<polygon fill="midnightblue" stroke="midnightblue" points="364.6,-147.69 375.2,-147.4 366.73,-141.02 364.6,-147.69"/>
</g>
<!-- Node4 -->
<g id="node4" class="node">
<title>Node4</title>
<g id="a_node4"><a xlink:href="classsrc__files_1_1FlowAnimation_1_1FlowAnimation.html#a95e4fc280171aeddd24ea64c7ac34ca1" target="_top" xlink:title=" ">
<polygon fill="white" stroke="black" points="364,-98.5 364,-128.5 501,-128.5 501,-98.5 364,-98.5"/>
<text text-anchor="start" x="372" y="-116.5" font-family="Helvetica,sans-Serif" font-size="10.00">src_files.FlowAnimation.</text>
<text text-anchor="middle" x="432.5" y="-105.5" font-family="Helvetica,sans-Serif" font-size="10.00">FlowAnimation.update_data</text>
</a>
</g>
</g>
<!-- Node2&#45;&gt;Node4 -->
<g id="edge3" class="edge">
<title>Node2&#45;&gt;Node4</title>
<path fill="none" stroke="midnightblue" d="M313.15,-97.84C326.35,-99.59 340.21,-101.42 353.62,-103.2"/>
<polygon fill="midnightblue" stroke="midnightblue" points="353.39,-106.7 363.76,-104.54 354.31,-99.76 353.39,-106.7"/>
</g>
<!-- Node6 -->
<g id="node6" class="node">
<title>Node6</title>
<g id="a_node6"><a xlink:href="classsrc__files_1_1FlowAnimation_1_1FlowAnimation.html#a3c3a1682828427540b5999cfb2680498" target="_top" xlink:title=" ">
<polygon fill="white" stroke="black" points="349,-49.5 349,-79.5 516,-79.5 516,-49.5 349,-49.5"/>
<text text-anchor="start" x="357" y="-67.5" font-family="Helvetica,sans-Serif" font-size="10.00">src_files.FlowAnimation.</text>
<text text-anchor="middle" x="432.5" y="-56.5" font-family="Helvetica,sans-Serif" font-size="10.00">FlowAnimation.update_fission_plot</text>
</a>
</g>
</g>
<!-- Node2&#45;&gt;Node6 -->
<g id="edge5" class="edge">
<title>Node2&#45;&gt;Node6</title>
<path fill="none" stroke="midnightblue" d="M313.15,-79.53C321.51,-78.47 330.14,-77.37 338.75,-76.28"/>
<polygon fill="midnightblue" stroke="midnightblue" points="339.36,-79.73 348.84,-75 338.48,-72.78 339.36,-79.73"/>
</g>
<!-- Node7 -->
<g id="node7" class="node">
<title>Node7</title>
<g id="a_node7"><a xlink:href="classsrc__files_1_1FlowAnimation_1_1FlowAnimation.html#a69be16253d1914cf7d7b615f991b30b5" target="_top" xlink:title=" ">
<polygon fill="white" stroke="black" points="354.5,-0.5 354.5,-30.5 510.5,-30.5 510.5,-0.5 354.5,-0.5"/>
<text text-anchor="start" x="362.5" y="-18.5" font-family="Helvetica,sans-Serif" font-size="10.00">src_files.FlowAnimation.</text>
<text text-anchor="middle" x="432.5" y="-7.5" font-family="Helvetica,sans-Serif" font-size="10.00">FlowAnimation.update_flow_plot</text>
</a>
</g>
</g>
<!-- Node2&#45;&gt;Node7 -->
<g id="edge6" class="edge">
<title>Node2&#45;&gt;Node7</title>
<path fill="none" stroke="midnightblue" d="M273.28,-73.35C294.31,-63.32 322.99,-50.26 349,-40.5 355.31,-38.13 361.95,-35.83 368.61,-33.63"/>
<polygon fill="midnightblue" stroke="midnightblue" points="369.9,-36.89 378.35,-30.5 367.76,-30.23 369.9,-36.89"/>
</g>
<!-- Node5 -->
<g id="node5" class="node">
<title>Node5</title>
<g id="a_node5"><a xlink:href="classsrc__files_1_1FlowAnimation_1_1FlowAnimation.html#a0b441e840894c30065df01b4a0c814ed" target="_top" xlink:title=" ">
<polygon fill="white" stroke="black" points="552,-98.5 552,-128.5 690,-128.5 690,-98.5 552,-98.5"/>
<text text-anchor="start" x="560" y="-116.5" font-family="Helvetica,sans-Serif" font-size="10.00">src_files.FlowAnimation.</text>
<text text-anchor="middle" x="621" y="-105.5" font-family="Helvetica,sans-Serif" font-size="10.00">FlowAnimation.sum_over_A</text>
</a>
</g>
</g>
<!-- Node4&#45;&gt;Node5 -->
<g id="edge4" class="edge">
<title>Node4&#45;&gt;Node5</title>
<path fill="none" stroke="midnightblue" d="M501.09,-113.5C514.22,-113.5 528.08,-113.5 541.52,-113.5"/>
<polygon fill="midnightblue" stroke="midnightblue" points="541.7,-117 551.7,-113.5 541.7,-110 541.7,-117"/>
</g>
</g>
</svg>
        <g id="navigator" transform="translate(0 0)" fill="#404254">
                <rect fill="#f2f5e9" fill-opacity="0.5" stroke="#606060" stroke-width=".5" x="0" y="0" width="60" height="60"/>
                <use id="zoomplus" xlink:href="#zoomPlus" x="17" y="9" onmousedown="handleZoom(evt,'in')"/>
                <use id="zoomminus" xlink:href="#zoomMin" x="42" y="9" onmousedown="handleZoom(evt,'out')"/>
                <use id="reset" xlink:href="#resetDef" x="30" y="36" onmousedown="handleReset()"/>
                <g id="arrowUp" xlink:href="#dirArrow" transform="translate(30 24)" onmousedown="handlePan(0,-1)">
                  <use xlink:href="#rim" fill="#404040">
                        <set attributeName="fill" to="#808080" begin="arrowUp.mouseover" end="arrowUp.mouseout"/>
                  </use>
                  <path fill="none" stroke="white" stroke-width="1.5" d="M0,-3.0v7 M-2.5,-0.5L0,-3.0L2.5,-0.5"/>
                </g>
                <g id="arrowRight" xlink:href="#dirArrow" transform="rotate(90) translate(36 -43)" onmousedown="handlePan(1,0)">
                  <use xlink:href="#rim" fill="#404040">
                        <set attributeName="fill" to="#808080" begin="arrowRight.mouseover" end="arrowRight.mouseout"/>
                  </use>
                  <path fill="none" stroke="white" stroke-width="1.5" d="M0,-3.0v7 M-2.5,-0.5L0,-3.0L2.5,-0.5"/>
                </g>
                <g id="arrowDown" xlink:href="#dirArrow" transform="rotate(180) translate(-30 -48)" onmousedown="handlePan(0,1)">
                  <use xlink:href="#rim" fill="#404040">
                        <set attributeName="fill" to="#808080" begin="arrowDown.mouseover" end="arrowDown.mouseout"/>
                  </use>
                  <path fill="none" stroke="white" stroke-width="1.5" d="M0,-3.0v7 M-2.5,-0.5L0,-3.0L2.5,-0.5"/>
                </g>
                <g id="arrowLeft" xlink:href="#dirArrow" transform="rotate(270) translate(-36 17)" onmousedown="handlePan(-1,0)">
                  <use xlink:href="#rim" fill="#404040">
                        <set attributeName="fill" to="#808080" begin="arrowLeft.mouseover" end="arrowLeft.mouseout"/>
                  </use>
                  <path fill="none" stroke="white" stroke-width="1.5" d="M0,-3.0v7 M-2.5,-0.5L0,-3.0L2.5,-0.5"/>
                </g>
        </g>
        <svg viewBox="0 0 15 15" width="100%" height="30px" preserveAspectRatio="xMaxYMin meet">
         <g id="arrow_out" transform="scale(0.3 0.3)">
          <a xlink:href="classsrc__files_1_1FlowAnimation_1_1FlowAnimation_a8ad160e78f74152562a5998bbdf01228_cgraph_org.svg" target="_base">
           <rect id="button" ry="5" rx="5" y="6" x="6" height="38" width="38"
                fill="#f2f5e9" fill-opacity="0.5" stroke="#606060" stroke-width="1.0"/>
           <path id="arrow"
             d="M 11.500037,31.436501 C 11.940474,20.09759 22.043105,11.32322 32.158766,21.979434 L 37.068811,17.246167 C 37.068811,17.246167 37.088388,32 37.088388,32 L 22.160133,31.978069 C 22.160133,31.978069 26.997745,27.140456 26.997745,27.140456 C 18.528582,18.264221 13.291696,25.230495 11.500037,31.436501 z"
             style="fill:#404040;"/>
          </a>
         </g>
        </svg>
</svg>
