<?xml version="1.0" encoding="UTF-8" standalone="no"?>
<!DOCTYPE svg PUBLIC "-//W3C//DTD SVG 1.1//EN"
 "http://www.w3.org/Graphics/SVG/1.1/DTD/svg11.dtd">
<!-- Generated by graphviz version 2.44.0 ()
 -->
<!-- Title: bin.class_files.winnet_class.winnet.get_abar_at_time Pages: 1 -->
<svg width="577pt" height="268pt"
 viewBox="0.00 0.00 577.00 268.00" xmlns="http://www.w3.org/2000/svg" xmlns:xlink="http://www.w3.org/1999/xlink">
<g id="graph0" class="graph" transform="scale(1 1) rotate(0) translate(4 264)">
<title>bin.class_files.winnet_class.winnet.get_abar_at_time</title>
<polygon fill="white" stroke="transparent" points="-4,4 -4,-264 573,-264 573,4 -4,4"/>
<!-- Node1 -->
<g id="node1" class="node">
<title>Node1</title>
<g id="a_node1"><a xlink:title=" ">
<polygon fill="#bfbfbf" stroke="black" points="0,-115.5 0,-156.5 116,-156.5 116,-115.5 0,-115.5"/>
<text text-anchor="start" x="8" y="-144.5" font-family="Helvetica,sans-Serif" font-size="10.00">bin.class_files.winnet</text>
<text text-anchor="start" x="8" y="-133.5" font-family="Helvetica,sans-Serif" font-size="10.00">_class.winnet.get_abar</text>
<text text-anchor="middle" x="58" y="-122.5" font-family="Helvetica,sans-Serif" font-size="10.00">_at_time</text>
</a>
</g>
</g>
<!-- Node2 -->
<g id="node2" class="node">
<title>Node2</title>
<g id="a_node2"><a xlink:href="namespaceinter__module.html#a206d3ceb40bd2e40d41c462a31ad057e" target="_top" xlink:title="Interface for 1D interpolation routines.">
<polygon fill="white" stroke="black" points="152,-126.5 152,-145.5 263,-145.5 263,-126.5 152,-126.5"/>
<text text-anchor="middle" x="207.5" y="-133.5" font-family="Helvetica,sans-Serif" font-size="10.00">inter_module::interp1d</text>
</a>
</g>
</g>
<!-- Node1&#45;&gt;Node2 -->
<g id="edge1" class="edge">
<title>Node1&#45;&gt;Node2</title>
<path fill="none" stroke="midnightblue" d="M116.03,-136C124.33,-136 132.92,-136 141.37,-136"/>
<polygon fill="midnightblue" stroke="midnightblue" points="141.56,-139.5 151.56,-136 141.56,-132.5 141.56,-139.5"/>
</g>
<!-- Node3 -->
<g id="node3" class="node">
<title>Node3</title>
<g id="a_node3"><a xlink:href="namespaceinter__module.html#a0f02e3fce3429d031516cf2f47f521de" target="_top" xlink:title="Interpolation using prescription of Akima.">
<polygon fill="white" stroke="black" points="303,-240.5 303,-259.5 425,-259.5 425,-240.5 303,-240.5"/>
<text text-anchor="middle" x="364" y="-247.5" font-family="Helvetica,sans-Serif" font-size="10.00">inter_module::akimainter</text>
</a>
</g>
</g>
<!-- Node2&#45;&gt;Node3 -->
<g id="edge2" class="edge">
<title>Node2&#45;&gt;Node3</title>
<path fill="none" stroke="midnightblue" d="M215.01,-145.66C228.43,-164.83 261.11,-207.82 299,-231 302.41,-233.08 306.05,-234.95 309.82,-236.62"/>
<polygon fill="midnightblue" stroke="midnightblue" points="308.75,-239.97 319.34,-240.38 311.33,-233.45 308.75,-239.97"/>
</g>
<!-- Node4 -->
<g id="node4" class="node">
<title>Node4</title>
<g id="a_node4"><a xlink:href="namespaceinter__module.html#a5a696cd56302b2491c59781808af4c08" target="_top" xlink:title="Cubic interpolation in log&#45;log space. Here, it is assumed that.">
<polygon fill="white" stroke="black" points="308.5,-202.5 308.5,-221.5 419.5,-221.5 419.5,-202.5 308.5,-202.5"/>
<text text-anchor="middle" x="364" y="-209.5" font-family="Helvetica,sans-Serif" font-size="10.00">inter_module::cubinter</text>
</a>
</g>
</g>
<!-- Node2&#45;&gt;Node4 -->
<g id="edge3" class="edge">
<title>Node2&#45;&gt;Node4</title>
<path fill="none" stroke="midnightblue" d="M223.47,-145.61C241.09,-156.69 271.46,-175.03 299,-188 307.27,-191.89 316.35,-195.62 325.02,-198.92"/>
<polygon fill="midnightblue" stroke="midnightblue" points="323.96,-202.26 334.55,-202.46 326.39,-195.7 323.96,-202.26"/>
</g>
<!-- Node5 -->
<g id="node5" class="node">
<title>Node5</title>
<g id="a_node5"><a xlink:href="namespaceerror__msg__class.html#a7e065585cc806a5c264de1f088266498" target="_top" xlink:title="Converts a given integer to a string.">
<polygon fill="white" stroke="black" points="465,-99 465,-129 569,-129 569,-99 465,-99"/>
<text text-anchor="start" x="473" y="-117" font-family="Helvetica,sans-Serif" font-size="10.00">error_msg_class::int</text>
<text text-anchor="middle" x="517" y="-106" font-family="Helvetica,sans-Serif" font-size="10.00">_to_str</text>
</a>
</g>
</g>
<!-- Node2&#45;&gt;Node5 -->
<g id="edge4" class="edge">
<title>Node2&#45;&gt;Node5</title>
<path fill="none" stroke="midnightblue" d="M243.69,-145.55C287.59,-155.97 364.7,-169.39 429,-155 447.66,-150.82 467.04,-142.18 482.75,-133.9"/>
<polygon fill="midnightblue" stroke="midnightblue" points="484.45,-136.96 491.55,-129.1 481.1,-130.82 484.45,-136.96"/>
</g>
<!-- Node6 -->
<g id="node6" class="node">
<title>Node6</title>
<g id="a_node6"><a xlink:href="namespaceinter__module.html#ac57284b6bef315c7066a880358ae0862" target="_top" xlink:title="Linear interpolation in lin&#45;log space.">
<polygon fill="white" stroke="black" points="311.5,-126.5 311.5,-145.5 416.5,-145.5 416.5,-126.5 311.5,-126.5"/>
<text text-anchor="middle" x="364" y="-133.5" font-family="Helvetica,sans-Serif" font-size="10.00">inter_module::lininter</text>
</a>
</g>
</g>
<!-- Node2&#45;&gt;Node6 -->
<g id="edge5" class="edge">
<title>Node2&#45;&gt;Node6</title>
<path fill="none" stroke="midnightblue" d="M263.41,-136C275.6,-136 288.61,-136 301.07,-136"/>
<polygon fill="midnightblue" stroke="midnightblue" points="301.37,-139.5 311.37,-136 301.37,-132.5 301.37,-139.5"/>
</g>
<!-- Node7 -->
<g id="node7" class="node">
<title>Node7</title>
<g id="a_node7"><a xlink:href="namespaceinter__module.html#a338de641fc764e51a6ce814e25e70ef2" target="_top" xlink:title="Interpolation using modified prescription of Akima.">
<polygon fill="white" stroke="black" points="299,-88.5 299,-107.5 429,-107.5 429,-88.5 299,-88.5"/>
<text text-anchor="middle" x="364" y="-95.5" font-family="Helvetica,sans-Serif" font-size="10.00">inter_module::makimainter</text>
</a>
</g>
</g>
<!-- Node2&#45;&gt;Node7 -->
<g id="edge6" class="edge">
<title>Node2&#45;&gt;Node7</title>
<path fill="none" stroke="midnightblue" d="M247.49,-126.41C267.78,-121.42 292.79,-115.27 314.35,-109.97"/>
<polygon fill="midnightblue" stroke="midnightblue" points="315.42,-113.31 324.29,-107.52 313.75,-106.51 315.42,-113.31"/>
</g>
<!-- Node8 -->
<g id="node8" class="node">
<title>Node8</title>
<g id="a_node8"><a xlink:href="namespaceinter__module.html#a4b1d9613e140541539a602d2f985b5c7" target="_top" xlink:title="PCHIP interpolation in lin&#45;log space.">
<polygon fill="white" stroke="black" points="304.5,-0.5 304.5,-19.5 423.5,-19.5 423.5,-0.5 304.5,-0.5"/>
<text text-anchor="middle" x="364" y="-7.5" font-family="Helvetica,sans-Serif" font-size="10.00">inter_module::pchipinter</text>
</a>
</g>
</g>
<!-- Node2&#45;&gt;Node8 -->
<g id="edge7" class="edge">
<title>Node2&#45;&gt;Node8</title>
<path fill="none" stroke="midnightblue" d="M213.93,-126.39C226.26,-105.45 258.47,-55.48 299,-29 302.14,-26.95 305.52,-25.11 309.01,-23.46"/>
<polygon fill="midnightblue" stroke="midnightblue" points="310.57,-26.61 318.47,-19.55 307.89,-20.14 310.57,-26.61"/>
</g>
<!-- Node10 -->
<g id="node10" class="node">
<title>Node10</title>
<g id="a_node10"><a xlink:href="namespaceerror__msg__class.html#a2453d3b7cb363115c046840baa1dfb75" target="_top" xlink:title="Raise a exception with a given error message.">
<polygon fill="white" stroke="black" points="307,-39 307,-69 421,-69 421,-39 307,-39"/>
<text text-anchor="start" x="315" y="-57" font-family="Helvetica,sans-Serif" font-size="10.00">error_msg_class::raise</text>
<text text-anchor="middle" x="364" y="-46" font-family="Helvetica,sans-Serif" font-size="10.00">_exception</text>
</a>
</g>
</g>
<!-- Node2&#45;&gt;Node10 -->
<g id="edge9" class="edge">
<title>Node2&#45;&gt;Node10</title>
<path fill="none" stroke="midnightblue" d="M221.83,-126.47C239.07,-114.41 270.32,-93.47 299,-79 303.06,-76.95 307.34,-74.96 311.67,-73.05"/>
<polygon fill="midnightblue" stroke="midnightblue" points="313.34,-76.14 321.18,-69.01 310.61,-69.69 313.34,-76.14"/>
</g>
<!-- Node9 -->
<g id="node9" class="node">
<title>Node9</title>
<g id="a_node9"><a xlink:href="quadpack__module_8f90.html#aada5a652920db442d627f1ca24ff25d7" target="_top" xlink:title="Further information: http://netlib.org/quadpack/index.html https://orion.math.iastate....">
<polygon fill="white" stroke="black" points="502.5,-0.5 502.5,-19.5 531.5,-19.5 531.5,-0.5 502.5,-0.5"/>
<text text-anchor="middle" x="517" y="-7.5" font-family="Helvetica,sans-Serif" font-size="10.00">pi</text>
</a>
</g>
</g>
<!-- Node8&#45;&gt;Node9 -->
<g id="edge8" class="edge">
<title>Node8&#45;&gt;Node9</title>
<path fill="none" stroke="midnightblue" d="M423.81,-10C447.65,-10 473.83,-10 492.18,-10"/>
<polygon fill="midnightblue" stroke="midnightblue" points="492.25,-13.5 502.25,-10 492.25,-6.5 492.25,-13.5"/>
</g>
<!-- Node10&#45;&gt;Node5 -->
<g id="edge10" class="edge">
<title>Node10&#45;&gt;Node5</title>
<path fill="none" stroke="midnightblue" d="M403.61,-69.01C411.98,-72.29 420.79,-75.75 429,-79 442.15,-84.21 456.4,-89.92 469.49,-95.19"/>
<polygon fill="midnightblue" stroke="midnightblue" points="468.19,-98.44 478.78,-98.93 470.81,-91.95 468.19,-98.44"/>
</g>
</g>
</svg>
