<?xml version="1.0" encoding="UTF-8" standalone="no"?>
<!DOCTYPE svg PUBLIC "-//W3C//DTD SVG 1.1//EN"
 "http://www.w3.org/Graphics/SVG/1.1/DTD/svg11.dtd">
<!-- Generated by graphviz version 2.44.0 ()
 -->
<!-- Title: src_files.wreader.wreader.N Pages: 1 -->
<svg width="663pt" height="39pt"
 viewBox="0.00 0.00 663.00 39.00" xmlns="http://www.w3.org/2000/svg" xmlns:xlink="http://www.w3.org/1999/xlink">
<g id="graph0" class="graph" transform="scale(1 1) rotate(0) translate(4 35)">
<title>src_files.wreader.wreader.N</title>
<polygon fill="white" stroke="transparent" points="-4,4 -4,-35 659,-35 659,4 -4,4"/>
<!-- Node1 -->
<g id="node1" class="node">
<title>Node1</title>
<g id="a_node1"><a xlink:title=" ">
<polygon fill="#bfbfbf" stroke="black" points="0,-6 0,-25 136,-25 136,-6 0,-6"/>
<text text-anchor="middle" x="68" y="-13" font-family="Helvetica,sans-Serif" font-size="10.00">src_files.wreader.wreader.N</text>
</a>
</g>
</g>
<!-- Node2 -->
<g id="node2" class="node">
<title>Node2</title>
<g id="a_node2"><a xlink:href="classsrc__files_1_1wreader_1_1wreader.html#a8c261281a45f785439786bffa474159b" target="_top" xlink:title=" ">
<polygon fill="white" stroke="black" points="172,-0.5 172,-30.5 300,-30.5 300,-0.5 172,-0.5"/>
<text text-anchor="start" x="180" y="-18.5" font-family="Helvetica,sans-Serif" font-size="10.00">src_files.wreader.wreader.</text>
<text text-anchor="middle" x="236" y="-7.5" font-family="Helvetica,sans-Serif" font-size="10.00">__read_A_Z_N</text>
</a>
</g>
</g>
<!-- Node1&#45;&gt;Node2 -->
<g id="edge1" class="edge">
<title>Node1&#45;&gt;Node2</title>
<path fill="none" stroke="midnightblue" d="M136.04,-15.5C144.42,-15.5 153.03,-15.5 161.5,-15.5"/>
<polygon fill="midnightblue" stroke="midnightblue" points="161.74,-19 171.74,-15.5 161.74,-12 161.74,-19"/>
</g>
<!-- Node3 -->
<g id="node3" class="node">
<title>Node3</title>
<g id="a_node3"><a xlink:href="classsrc__files_1_1wreader_1_1wreader.html#a6cc2d629d39d6f1c36f484c8718449e0" target="_top" xlink:title=" ">
<polygon fill="white" stroke="black" points="336,-0.5 336,-30.5 491,-30.5 491,-0.5 336,-0.5"/>
<text text-anchor="start" x="344" y="-18.5" font-family="Helvetica,sans-Serif" font-size="10.00">src_files.wreader.wreader.check</text>
<text text-anchor="middle" x="413.5" y="-7.5" font-family="Helvetica,sans-Serif" font-size="10.00">_existence</text>
</a>
</g>
</g>
<!-- Node2&#45;&gt;Node3 -->
<g id="edge2" class="edge">
<title>Node2&#45;&gt;Node3</title>
<path fill="none" stroke="midnightblue" d="M300.36,-15.5C308.62,-15.5 317.19,-15.5 325.74,-15.5"/>
<polygon fill="midnightblue" stroke="midnightblue" points="325.76,-19 335.76,-15.5 325.76,-12 325.76,-19"/>
</g>
<!-- Node4 -->
<g id="node4" class="node">
<title>Node4</title>
<g id="a_node4"><a xlink:href="classsrc__files_1_1wreader_1_1wreader.html#ad7decec8890f297e25512ecb6fea313a" target="_top" xlink:title=" ">
<polygon fill="white" stroke="black" points="527,-0.5 527,-30.5 655,-30.5 655,-0.5 527,-0.5"/>
<text text-anchor="start" x="535" y="-18.5" font-family="Helvetica,sans-Serif" font-size="10.00">src_files.wreader.wreader.</text>
<text text-anchor="middle" x="591" y="-7.5" font-family="Helvetica,sans-Serif" font-size="10.00">__check_files</text>
</a>
</g>
</g>
<!-- Node3&#45;&gt;Node4 -->
<g id="edge3" class="edge">
<title>Node3&#45;&gt;Node4</title>
<path fill="none" stroke="midnightblue" d="M491.22,-15.5C499.68,-15.5 508.28,-15.5 516.69,-15.5"/>
<polygon fill="midnightblue" stroke="midnightblue" points="516.85,-19 526.85,-15.5 516.85,-12 516.85,-19"/>
</g>
</g>
</svg>
