<?xml version="1.0" encoding="UTF-8" standalone="no"?>
<!DOCTYPE svg PUBLIC "-//W3C//DTD SVG 1.1//EN"
 "http://www.w3.org/Graphics/SVG/1.1/DTD/svg11.dtd">
<!-- Generated by graphviz version 2.44.0 ()
 -->
<!-- Title: src_files.nucleus_class.nucleus.__init__ Pages: 1 -->
<svg width="354pt" height="197pt"
 viewBox="0.00 0.00 354.00 196.50" xmlns="http://www.w3.org/2000/svg" xmlns:xlink="http://www.w3.org/1999/xlink">
<g id="graph0" class="graph" transform="scale(1 1) rotate(0) translate(4 192.5)">
<title>src_files.nucleus_class.nucleus.__init__</title>
<polygon fill="white" stroke="transparent" points="-4,4 -4,-192.5 350,-192.5 350,4 -4,4"/>
<!-- Node1 -->
<g id="node1" class="node">
<title>Node1</title>
<g id="a_node1"><a xlink:title=" ">
<polygon fill="#bfbfbf" stroke="black" points="0,-73.5 0,-103.5 155,-103.5 155,-73.5 0,-73.5"/>
<text text-anchor="start" x="8" y="-91.5" font-family="Helvetica,sans-Serif" font-size="10.00">src_files.nucleus_class.nucleus.</text>
<text text-anchor="middle" x="77.5" y="-80.5" font-family="Helvetica,sans-Serif" font-size="10.00">__init__</text>
</a>
</g>
</g>
<!-- Node1&#45;&gt;Node1 -->
<g id="edge1" class="edge">
<title>Node1&#45;&gt;Node1</title>
<path fill="none" stroke="midnightblue" d="M44.39,-103.66C36.4,-113.06 47.44,-122 77.5,-122 95.82,-122 107.07,-118.68 111.26,-113.96"/>
<polygon fill="midnightblue" stroke="midnightblue" points="114.73,-113.42 110.61,-103.66 107.75,-113.86 114.73,-113.42"/>
</g>
<!-- Node2 -->
<g id="node2" class="node">
<title>Node2</title>
<g id="a_node2"><a xlink:href="classbin_1_1class__files_1_1nucleus__class_1_1nucleus.html#a55a5784d83fa52302ce1cb202dbf4abe" target="_top" xlink:title=" ">
<polygon fill="white" stroke="black" points="212,-147 212,-188 325,-188 325,-147 212,-147"/>
<text text-anchor="start" x="220" y="-176" font-family="Helvetica,sans-Serif" font-size="10.00">bin.class_files.nucleus</text>
<text text-anchor="start" x="220" y="-165" font-family="Helvetica,sans-Serif" font-size="10.00">_class.nucleus.__init</text>
<text text-anchor="middle" x="268.5" y="-154" font-family="Helvetica,sans-Serif" font-size="10.00">_properties</text>
</a>
</g>
</g>
<!-- Node1&#45;&gt;Node2 -->
<g id="edge2" class="edge">
<title>Node1&#45;&gt;Node2</title>
<path fill="none" stroke="midnightblue" d="M111.27,-103.65C133.61,-113.82 163.92,-127.36 191,-138.5 194.84,-140.08 198.8,-141.68 202.81,-143.27"/>
<polygon fill="midnightblue" stroke="midnightblue" points="201.61,-146.56 212.2,-146.96 204.17,-140.04 201.61,-146.56"/>
</g>
<!-- Node3 -->
<g id="node3" class="node">
<title>Node3</title>
<g id="a_node3"><a xlink:href="classsrc__files_1_1nucleus__class_1_1nucleus.html#aa57fb3ae6996785cf03ff30f89af5c51" target="_top" xlink:title=" ">
<polygon fill="white" stroke="black" points="191,-98.5 191,-128.5 346,-128.5 346,-98.5 191,-98.5"/>
<text text-anchor="start" x="199" y="-116.5" font-family="Helvetica,sans-Serif" font-size="10.00">src_files.nucleus_class.nucleus.</text>
<text text-anchor="middle" x="268.5" y="-105.5" font-family="Helvetica,sans-Serif" font-size="10.00">__init_properties</text>
</a>
</g>
</g>
<!-- Node1&#45;&gt;Node3 -->
<g id="edge3" class="edge">
<title>Node1&#45;&gt;Node3</title>
<path fill="none" stroke="midnightblue" d="M155.1,-98.63C163.56,-99.75 172.22,-100.9 180.79,-102.03"/>
<polygon fill="midnightblue" stroke="midnightblue" points="180.42,-105.51 190.79,-103.35 181.34,-98.57 180.42,-105.51"/>
</g>
<!-- Node4 -->
<g id="node4" class="node">
<title>Node4</title>
<g id="a_node4"><a xlink:href="classsrc__files_1_1nucleus__class_1_1nucleus.html#aebf0d8340b6faa0183f42571af57323f" target="_top" xlink:title=" ">
<polygon fill="white" stroke="black" points="191,-49.5 191,-79.5 346,-79.5 346,-49.5 191,-49.5"/>
<text text-anchor="start" x="199" y="-67.5" font-family="Helvetica,sans-Serif" font-size="10.00">src_files.nucleus_class.nucleus.</text>
<text text-anchor="middle" x="268.5" y="-56.5" font-family="Helvetica,sans-Serif" font-size="10.00">__initialize</text>
</a>
</g>
</g>
<!-- Node1&#45;&gt;Node4 -->
<g id="edge4" class="edge">
<title>Node1&#45;&gt;Node4</title>
<path fill="none" stroke="midnightblue" d="M155.1,-78.77C163.56,-77.7 172.22,-76.6 180.79,-75.51"/>
<polygon fill="midnightblue" stroke="midnightblue" points="181.31,-78.97 190.79,-74.24 180.43,-72.03 181.31,-78.97"/>
</g>
<!-- Node5 -->
<g id="node5" class="node">
<title>Node5</title>
<g id="a_node5"><a xlink:href="classbin_1_1class__files_1_1nucleus__class_1_1nucleus.html#a50f002c87d5fbd0329dc47f1ad208da3" target="_top" xlink:title=" ">
<polygon fill="white" stroke="black" points="204.5,-0.5 204.5,-30.5 332.5,-30.5 332.5,-0.5 204.5,-0.5"/>
<text text-anchor="start" x="212.5" y="-18.5" font-family="Helvetica,sans-Serif" font-size="10.00">bin.class_files.nucleus</text>
<text text-anchor="middle" x="268.5" y="-7.5" font-family="Helvetica,sans-Serif" font-size="10.00">_class.nucleus.__initialize</text>
</a>
</g>
</g>
<!-- Node1&#45;&gt;Node5 -->
<g id="edge5" class="edge">
<title>Node1&#45;&gt;Node5</title>
<path fill="none" stroke="midnightblue" d="M111.66,-73.45C133.91,-63.57 163.97,-50.66 191,-40.5 196.92,-38.27 203.14,-36.05 209.37,-33.91"/>
<polygon fill="midnightblue" stroke="midnightblue" points="210.78,-37.12 219.12,-30.6 208.53,-30.5 210.78,-37.12"/>
</g>
</g>
</svg>
