<?xml version="1.0" encoding="UTF-8" standalone="no"?>
<!DOCTYPE svg PUBLIC "-//W3C//DTD SVG 1.1//EN"
 "http://www.w3.org/Graphics/SVG/1.1/DTD/svg11.dtd">
<!-- Generated by graphviz version 2.44.0 ()
 -->
<!-- Title: bin.class_files.template_class.template.__getitem__ Pages: 1 -->
<svg width="467pt" height="61pt"
 viewBox="0.00 0.00 467.00 61.00" xmlns="http://www.w3.org/2000/svg" xmlns:xlink="http://www.w3.org/1999/xlink">
<g id="graph0" class="graph" transform="scale(1 1) rotate(0) translate(4 57)">
<title>bin.class_files.template_class.template.__getitem__</title>
<polygon fill="white" stroke="transparent" points="-4,4 -4,-57 463,-57 463,4 -4,4"/>
<!-- Node1 -->
<g id="node1" class="node">
<title>Node1</title>
<g id="a_node1"><a xlink:title=" ">
<polygon fill="#bfbfbf" stroke="black" points="0,-0.5 0,-30.5 140,-30.5 140,-0.5 0,-0.5"/>
<text text-anchor="start" x="8" y="-18.5" font-family="Helvetica,sans-Serif" font-size="10.00">bin.class_files.template</text>
<text text-anchor="middle" x="70" y="-7.5" font-family="Helvetica,sans-Serif" font-size="10.00">_class.template.__getitem__</text>
</a>
</g>
</g>
<!-- Node2 -->
<g id="node2" class="node">
<title>Node2</title>
<g id="a_node2"><a xlink:href="classbin_1_1class__files_1_1template__class_1_1template.html#abae75186e06fbd7df24126e1f47f3d4e" target="_top" xlink:title=" ">
<polygon fill="white" stroke="black" points="176,-22.5 176,-52.5 293,-52.5 293,-22.5 176,-22.5"/>
<text text-anchor="start" x="184" y="-40.5" font-family="Helvetica,sans-Serif" font-size="10.00">bin.class_files.template</text>
<text text-anchor="middle" x="234.5" y="-29.5" font-family="Helvetica,sans-Serif" font-size="10.00">_class.template.entries</text>
</a>
</g>
</g>
<!-- Node1&#45;&gt;Node2 -->
<g id="edge1" class="edge">
<title>Node1&#45;&gt;Node2</title>
<path fill="none" stroke="midnightblue" d="M140.39,-24.89C148.79,-26.03 157.36,-27.19 165.74,-28.33"/>
<polygon fill="midnightblue" stroke="midnightblue" points="165.46,-31.82 175.84,-29.69 166.4,-24.88 165.46,-31.82"/>
</g>
<!-- Node3 -->
<g id="node3" class="node">
<title>Node3</title>
<g id="a_node3"><a xlink:href="classbin_1_1class__files_1_1template__class_1_1template.html#a55583de91d553b423e902b0d2b7d8b05" target="_top" xlink:title=" ">
<polygon fill="white" stroke="black" points="329,-0.5 329,-30.5 459,-30.5 459,-0.5 329,-0.5"/>
<text text-anchor="start" x="337" y="-18.5" font-family="Helvetica,sans-Serif" font-size="10.00">bin.class_files.template</text>
<text text-anchor="middle" x="394" y="-7.5" font-family="Helvetica,sans-Serif" font-size="10.00">_class.template.read_data</text>
</a>
</g>
</g>
<!-- Node1&#45;&gt;Node3 -->
<g id="edge3" class="edge">
<title>Node1&#45;&gt;Node3</title>
<path fill="none" stroke="midnightblue" d="M140.19,-14C152.13,-13.79 164.42,-13.61 176,-13.5 228,-13 241,-12.98 293,-13.5 301.36,-13.58 310.12,-13.71 318.82,-13.85"/>
<polygon fill="midnightblue" stroke="midnightblue" points="318.93,-17.35 328.99,-14.03 319.05,-10.35 318.93,-17.35"/>
</g>
<!-- Node2&#45;&gt;Node3 -->
<g id="edge2" class="edge">
<title>Node2&#45;&gt;Node3</title>
<path fill="none" stroke="midnightblue" d="M293.25,-29.43C301.58,-28.27 310.25,-27.06 318.84,-25.86"/>
<polygon fill="midnightblue" stroke="midnightblue" points="319.46,-29.31 328.87,-24.46 318.49,-22.37 319.46,-29.31"/>
</g>
</g>
</svg>
