<?xml version="1.0" encoding="UTF-8" standalone="no"?>
<!DOCTYPE svg PUBLIC "-//W3C//DTD SVG 1.1//EN"
 "http://www.w3.org/Graphics/SVG/1.1/DTD/svg11.dtd">
<!-- Generated by graphviz version 2.44.0 ()
 -->
<!-- Title: src_files.nucleus_multiple_class.nucleus_multiple.plot_nuclear_chart Pages: 1 -->
<svg width="477pt" height="172pt"
 viewBox="0.00 0.00 477.00 171.50" xmlns="http://www.w3.org/2000/svg" xmlns:xlink="http://www.w3.org/1999/xlink">
<g id="graph0" class="graph" transform="scale(1 1) rotate(0) translate(4 167.5)">
<title>src_files.nucleus_multiple_class.nucleus_multiple.plot_nuclear_chart</title>
<polygon fill="white" stroke="transparent" points="-4,4 -4,-167.5 473,-167.5 473,4 -4,4"/>
<!-- Node1 -->
<g id="node1" class="node">
<title>Node1</title>
<g id="a_node1"><a xlink:title=" ">
<polygon fill="#bfbfbf" stroke="black" points="0,-68 0,-109 138,-109 138,-68 0,-68"/>
<text text-anchor="start" x="8" y="-97" font-family="Helvetica,sans-Serif" font-size="10.00">src_files.nucleus_multiple</text>
<text text-anchor="start" x="8" y="-86" font-family="Helvetica,sans-Serif" font-size="10.00">_class.nucleus_multiple.plot</text>
<text text-anchor="middle" x="69" y="-75" font-family="Helvetica,sans-Serif" font-size="10.00">_nuclear_chart</text>
</a>
</g>
</g>
<!-- Node2 -->
<g id="node2" class="node">
<title>Node2</title>
<g id="a_node2"><a xlink:href="classbin_1_1class__files_1_1nucleus__multiple__class_1_1nucleus__multiple.html#aec47e1e6766c18b5dfb8549773db0f3a" target="_top" xlink:title=" ">
<polygon fill="white" stroke="black" points="179.5,-122 179.5,-163 299.5,-163 299.5,-122 179.5,-122"/>
<text text-anchor="start" x="187.5" y="-151" font-family="Helvetica,sans-Serif" font-size="10.00">bin.class_files.nucleus</text>
<text text-anchor="start" x="187.5" y="-140" font-family="Helvetica,sans-Serif" font-size="10.00">_multiple_class.nucleus</text>
<text text-anchor="middle" x="239.5" y="-129" font-family="Helvetica,sans-Serif" font-size="10.00">_multiple.df</text>
</a>
</g>
</g>
<!-- Node1&#45;&gt;Node2 -->
<g id="edge1" class="edge">
<title>Node1&#45;&gt;Node2</title>
<path fill="none" stroke="midnightblue" d="M134.18,-109.07C145.81,-112.79 157.98,-116.69 169.73,-120.46"/>
<polygon fill="midnightblue" stroke="midnightblue" points="168.89,-123.87 179.48,-123.58 171.02,-117.2 168.89,-123.87"/>
</g>
<!-- Node3 -->
<g id="node3" class="node">
<title>Node3</title>
<g id="a_node3"><a xlink:href="classsrc__files_1_1nucleus__multiple__class_1_1nucleus__multiple.html#a3dcab74a866e6274b457626f645bab33" target="_top" xlink:title=" ">
<polygon fill="white" stroke="black" points="174,-73.5 174,-103.5 305,-103.5 305,-73.5 174,-73.5"/>
<text text-anchor="start" x="182" y="-91.5" font-family="Helvetica,sans-Serif" font-size="10.00">src_files.nucleus_multiple</text>
<text text-anchor="middle" x="239.5" y="-80.5" font-family="Helvetica,sans-Serif" font-size="10.00">_class.nucleus_multiple.df</text>
</a>
</g>
</g>
<!-- Node1&#45;&gt;Node3 -->
<g id="edge2" class="edge">
<title>Node1&#45;&gt;Node3</title>
<path fill="none" stroke="midnightblue" d="M138.05,-88.5C146.43,-88.5 155.03,-88.5 163.5,-88.5"/>
<polygon fill="midnightblue" stroke="midnightblue" points="163.75,-92 173.75,-88.5 163.75,-85 163.75,-92"/>
</g>
<!-- Node4 -->
<g id="node4" class="node">
<title>Node4</title>
<g id="a_node4"><a xlink:href="namespacesrc__files_1_1nucleus__multiple__class.html#a622d1581818a020ecc1340b9e89d6b01" target="_top" xlink:title=" ">
<polygon fill="white" stroke="black" points="175.5,-24.5 175.5,-54.5 303.5,-54.5 303.5,-24.5 175.5,-24.5"/>
<text text-anchor="start" x="183.5" y="-42.5" font-family="Helvetica,sans-Serif" font-size="10.00">src_files.nucleus_multiple</text>
<text text-anchor="middle" x="239.5" y="-31.5" font-family="Helvetica,sans-Serif" font-size="10.00">_class.plot_outlines</text>
</a>
</g>
</g>
<!-- Node1&#45;&gt;Node4 -->
<g id="edge3" class="edge">
<title>Node1&#45;&gt;Node4</title>
<path fill="none" stroke="midnightblue" d="M138.05,-68.71C150.88,-64.98 164.23,-61.1 176.85,-57.43"/>
<polygon fill="midnightblue" stroke="midnightblue" points="178.16,-60.69 186.79,-54.54 176.21,-53.97 178.16,-60.69"/>
</g>
<!-- Node5 -->
<g id="node5" class="node">
<title>Node5</title>
<g id="a_node5"><a xlink:href="namespacesrc__files_1_1nucleus__multiple__class.html#a4e587720ac394dcba92c1f7d91367a4c" target="_top" xlink:title=" ">
<polygon fill="white" stroke="black" points="341,-49.5 341,-79.5 469,-79.5 469,-49.5 341,-49.5"/>
<text text-anchor="start" x="349" y="-67.5" font-family="Helvetica,sans-Serif" font-size="10.00">src_files.nucleus_multiple</text>
<text text-anchor="middle" x="405" y="-56.5" font-family="Helvetica,sans-Serif" font-size="10.00">_class.close_loop_edges</text>
</a>
</g>
</g>
<!-- Node4&#45;&gt;Node5 -->
<g id="edge4" class="edge">
<title>Node4&#45;&gt;Node5</title>
<path fill="none" stroke="midnightblue" d="M303.71,-49.17C312.59,-50.52 321.78,-51.93 330.83,-53.31"/>
<polygon fill="midnightblue" stroke="midnightblue" points="330.54,-56.81 340.95,-54.86 331.6,-49.89 330.54,-56.81"/>
</g>
<!-- Node6 -->
<g id="node6" class="node">
<title>Node6</title>
<g id="a_node6"><a xlink:href="namespacesrc__files_1_1nucleus__multiple__class.html#ad45dab707df66be726208af4834a87ca" target="_top" xlink:title=" ">
<polygon fill="white" stroke="black" points="341,-0.5 341,-30.5 469,-30.5 469,-0.5 341,-0.5"/>
<text text-anchor="start" x="349" y="-18.5" font-family="Helvetica,sans-Serif" font-size="10.00">src_files.nucleus_multiple</text>
<text text-anchor="middle" x="405" y="-7.5" font-family="Helvetica,sans-Serif" font-size="10.00">_class.get_all_edges</text>
</a>
</g>
</g>
<!-- Node4&#45;&gt;Node6 -->
<g id="edge5" class="edge">
<title>Node4&#45;&gt;Node6</title>
<path fill="none" stroke="midnightblue" d="M303.71,-30.22C312.59,-28.92 321.78,-27.57 330.83,-26.24"/>
<polygon fill="midnightblue" stroke="midnightblue" points="331.57,-29.67 340.95,-24.75 330.55,-22.74 331.57,-29.67"/>
</g>
</g>
</svg>
