<?xml version="1.0" encoding="UTF-8" standalone="no"?>
<!DOCTYPE svg PUBLIC "-//W3C//DTD SVG 1.1//EN"
 "http://www.w3.org/Graphics/SVG/1.1/DTD/svg11.dtd">
<!-- Generated by graphviz version 2.44.0 ()
 -->
<!-- Title: bin.create_neutrino_nucleon_file.nunucleon.averageE_anu_p Pages: 1 -->
<svg width="933pt" height="110pt"
 viewBox="0.00 0.00 933.00 109.50" xmlns="http://www.w3.org/2000/svg" xmlns:xlink="http://www.w3.org/1999/xlink">
<g id="graph0" class="graph" transform="scale(1 1) rotate(0) translate(4 105.5)">
<title>bin.create_neutrino_nucleon_file.nunucleon.averageE_anu_p</title>
<polygon fill="white" stroke="transparent" points="-4,4 -4,-105.5 929,-105.5 929,4 -4,4"/>
<!-- Node1 -->
<g id="node1" class="node">
<title>Node1</title>
<g id="a_node1"><a xlink:title=" ">
<polygon fill="#bfbfbf" stroke="black" points="0,-22 0,-63 156,-63 156,-22 0,-22"/>
<text text-anchor="start" x="8" y="-51" font-family="Helvetica,sans-Serif" font-size="10.00">bin.create_neutrino</text>
<text text-anchor="start" x="8" y="-40" font-family="Helvetica,sans-Serif" font-size="10.00">_nucleon_file.nunucleon.average</text>
<text text-anchor="middle" x="78" y="-29" font-family="Helvetica,sans-Serif" font-size="10.00">E_anu_p</text>
</a>
</g>
</g>
<!-- Node2 -->
<g id="node2" class="node">
<title>Node2</title>
<g id="a_node2"><a xlink:href="classbin_1_1create__neutrino__nucleon__file_1_1nunucleon.html#ad6aaaefa464d1facfcd880c496d825a3" target="_top" xlink:title=" ">
<polygon fill="white" stroke="black" points="389.5,-60 389.5,-101 541.5,-101 541.5,-60 389.5,-60"/>
<text text-anchor="start" x="397.5" y="-89" font-family="Helvetica,sans-Serif" font-size="10.00">bin.create_neutrino</text>
<text text-anchor="start" x="397.5" y="-78" font-family="Helvetica,sans-Serif" font-size="10.00">_nucleon_file.nunucleon.Fermi_</text>
<text text-anchor="middle" x="465.5" y="-67" font-family="Helvetica,sans-Serif" font-size="10.00">Dirac</text>
</a>
</g>
</g>
<!-- Node1&#45;&gt;Node2 -->
<g id="edge1" class="edge">
<title>Node1&#45;&gt;Node2</title>
<path fill="none" stroke="midnightblue" d="M146.29,-63.07C161.21,-66.87 177.04,-70.32 192,-72.5 254.26,-81.56 325.34,-83.36 379.29,-83.01"/>
<polygon fill="midnightblue" stroke="midnightblue" points="379.53,-86.51 389.5,-82.92 379.47,-79.51 379.53,-86.51"/>
</g>
<!-- Node3 -->
<g id="node3" class="node">
<title>Node3</title>
<g id="a_node3"><a xlink:href="classbin_1_1create__neutrino__nucleon__file_1_1nunucleon.html#ac620b49e06adfc690472d7c4f7c3b38d" target="_top" xlink:title=" ">
<polygon fill="white" stroke="black" points="376,-0.5 376,-30.5 555,-30.5 555,-0.5 376,-0.5"/>
<text text-anchor="start" x="384" y="-18.5" font-family="Helvetica,sans-Serif" font-size="10.00">bin.create_neutrino</text>
<text text-anchor="middle" x="465.5" y="-7.5" font-family="Helvetica,sans-Serif" font-size="10.00">_nucleon_file.nunucleon.sigma_anu_p</text>
</a>
</g>
</g>
<!-- Node1&#45;&gt;Node3 -->
<g id="edge2" class="edge">
<title>Node1&#45;&gt;Node3</title>
<path fill="none" stroke="midnightblue" d="M144.75,-21.98C160.1,-18.04 176.5,-14.52 192,-12.5 249.18,-5.04 313.67,-5.36 365.56,-7.75"/>
<polygon fill="midnightblue" stroke="midnightblue" points="365.61,-11.25 375.77,-8.25 365.95,-4.26 365.61,-11.25"/>
</g>
<!-- Node6 -->
<g id="node6" class="node">
<title>Node6</title>
<g id="a_node6"><a xlink:href="classbin_1_1create__neutrino__nucleon__file_1_1nunucleon.html#a25276e317cc419829464b0d3c131c8ac" target="_top" xlink:title=" ">
<polygon fill="white" stroke="black" points="192,-22 192,-63 340,-63 340,-22 192,-22"/>
<text text-anchor="start" x="200" y="-51" font-family="Helvetica,sans-Serif" font-size="10.00">bin.create_neutrino</text>
<text text-anchor="start" x="200" y="-40" font-family="Helvetica,sans-Serif" font-size="10.00">_nucleon_file.nunucleon.sigma</text>
<text text-anchor="middle" x="266" y="-29" font-family="Helvetica,sans-Serif" font-size="10.00">_avg_anu_p</text>
</a>
</g>
</g>
<!-- Node1&#45;&gt;Node6 -->
<g id="edge5" class="edge">
<title>Node1&#45;&gt;Node6</title>
<path fill="none" stroke="midnightblue" d="M156.26,-42.5C164.64,-42.5 173.19,-42.5 181.63,-42.5"/>
<polygon fill="midnightblue" stroke="midnightblue" points="181.85,-46 191.85,-42.5 181.85,-39 181.85,-46"/>
</g>
<!-- Node4 -->
<g id="node4" class="node">
<title>Node4</title>
<g id="a_node4"><a xlink:href="classbin_1_1create__neutrino__nucleon__file_1_1nunucleon.html#a34d35c5fbf3f086958cbb6ff65334d71" target="_top" xlink:title=" ">
<polygon fill="white" stroke="black" points="591,-0.5 591,-30.5 743,-30.5 743,-0.5 591,-0.5"/>
<text text-anchor="start" x="599" y="-18.5" font-family="Helvetica,sans-Serif" font-size="10.00">bin.create_neutrino</text>
<text text-anchor="middle" x="667" y="-7.5" font-family="Helvetica,sans-Serif" font-size="10.00">_nucleon_file.nunucleon.WMbar</text>
</a>
</g>
</g>
<!-- Node3&#45;&gt;Node4 -->
<g id="edge3" class="edge">
<title>Node3&#45;&gt;Node4</title>
<path fill="none" stroke="midnightblue" d="M555.17,-15.5C563.6,-15.5 572.14,-15.5 580.54,-15.5"/>
<polygon fill="midnightblue" stroke="midnightblue" points="580.71,-19 590.71,-15.5 580.71,-12 580.71,-19"/>
</g>
<!-- Node5 -->
<g id="node5" class="node">
<title>Node5</title>
<g id="a_node5"><a xlink:href="classbin_1_1create__neutrino__nucleon__file_1_1nunucleon.html#a4cbdc40f98cdb7758822a5bfc600bd35" target="_top" xlink:title=" ">
<polygon fill="white" stroke="black" points="779,-0.5 779,-30.5 925,-30.5 925,-0.5 779,-0.5"/>
<text text-anchor="start" x="787" y="-18.5" font-family="Helvetica,sans-Serif" font-size="10.00">bin.create_neutrino</text>
<text text-anchor="middle" x="852" y="-7.5" font-family="Helvetica,sans-Serif" font-size="10.00">_nucleon_file.nunucleon.__cor</text>
</a>
</g>
</g>
<!-- Node4&#45;&gt;Node5 -->
<g id="edge4" class="edge">
<title>Node4&#45;&gt;Node5</title>
<path fill="none" stroke="midnightblue" d="M743.23,-15.5C751.57,-15.5 760.09,-15.5 768.52,-15.5"/>
<polygon fill="midnightblue" stroke="midnightblue" points="768.72,-19 778.72,-15.5 768.72,-12 768.72,-19"/>
</g>
<!-- Node6&#45;&gt;Node2 -->
<g id="edge6" class="edge">
<title>Node6&#45;&gt;Node2</title>
<path fill="none" stroke="midnightblue" d="M340.26,-56.6C353.03,-59.05 366.42,-61.63 379.47,-64.14"/>
<polygon fill="midnightblue" stroke="midnightblue" points="378.9,-67.59 389.38,-66.05 380.22,-60.72 378.9,-67.59"/>
</g>
<!-- Node6&#45;&gt;Node3 -->
<g id="edge7" class="edge">
<title>Node6&#45;&gt;Node3</title>
<path fill="none" stroke="midnightblue" d="M340.26,-32.48C348.62,-31.34 357.25,-30.16 365.87,-28.98"/>
<polygon fill="midnightblue" stroke="midnightblue" points="366.55,-32.42 375.98,-27.6 365.6,-25.49 366.55,-32.42"/>
</g>
</g>
</svg>
