<?xml version="1.0" encoding="UTF-8" standalone="no"?>
<!DOCTYPE svg PUBLIC "-//W3C//DTD SVG 1.1//EN"
 "http://www.w3.org/Graphics/SVG/1.1/DTD/svg11.dtd">
<!-- Generated by graphviz version 2.44.0 ()
 -->
<!-- Title: bin.create_neutrino_nucleon_file.nunucleon.sigma_anu_p Pages: 1 -->
<svg width="557pt" height="39pt"
 viewBox="0.00 0.00 557.00 39.00" xmlns="http://www.w3.org/2000/svg" xmlns:xlink="http://www.w3.org/1999/xlink">
<g id="graph0" class="graph" transform="scale(1 1) rotate(0) translate(4 35)">
<title>bin.create_neutrino_nucleon_file.nunucleon.sigma_anu_p</title>
<polygon fill="white" stroke="transparent" points="-4,4 -4,-35 553,-35 553,4 -4,4"/>
<!-- Node1 -->
<g id="node1" class="node">
<title>Node1</title>
<g id="a_node1"><a xlink:title=" ">
<polygon fill="#bfbfbf" stroke="black" points="0,-0.5 0,-30.5 179,-30.5 179,-0.5 0,-0.5"/>
<text text-anchor="start" x="8" y="-18.5" font-family="Helvetica,sans-Serif" font-size="10.00">bin.create_neutrino</text>
<text text-anchor="middle" x="89.5" y="-7.5" font-family="Helvetica,sans-Serif" font-size="10.00">_nucleon_file.nunucleon.sigma_anu_p</text>
</a>
</g>
</g>
<!-- Node2 -->
<g id="node2" class="node">
<title>Node2</title>
<g id="a_node2"><a xlink:href="classbin_1_1create__neutrino__nucleon__file_1_1nunucleon.html#a34d35c5fbf3f086958cbb6ff65334d71" target="_top" xlink:title=" ">
<polygon fill="white" stroke="black" points="215,-0.5 215,-30.5 367,-30.5 367,-0.5 215,-0.5"/>
<text text-anchor="start" x="223" y="-18.5" font-family="Helvetica,sans-Serif" font-size="10.00">bin.create_neutrino</text>
<text text-anchor="middle" x="291" y="-7.5" font-family="Helvetica,sans-Serif" font-size="10.00">_nucleon_file.nunucleon.WMbar</text>
</a>
</g>
</g>
<!-- Node1&#45;&gt;Node2 -->
<g id="edge1" class="edge">
<title>Node1&#45;&gt;Node2</title>
<path fill="none" stroke="midnightblue" d="M179.17,-15.5C187.6,-15.5 196.14,-15.5 204.54,-15.5"/>
<polygon fill="midnightblue" stroke="midnightblue" points="204.71,-19 214.71,-15.5 204.71,-12 204.71,-19"/>
</g>
<!-- Node3 -->
<g id="node3" class="node">
<title>Node3</title>
<g id="a_node3"><a xlink:href="classbin_1_1create__neutrino__nucleon__file_1_1nunucleon.html#a4cbdc40f98cdb7758822a5bfc600bd35" target="_top" xlink:title=" ">
<polygon fill="white" stroke="black" points="403,-0.5 403,-30.5 549,-30.5 549,-0.5 403,-0.5"/>
<text text-anchor="start" x="411" y="-18.5" font-family="Helvetica,sans-Serif" font-size="10.00">bin.create_neutrino</text>
<text text-anchor="middle" x="476" y="-7.5" font-family="Helvetica,sans-Serif" font-size="10.00">_nucleon_file.nunucleon.__cor</text>
</a>
</g>
</g>
<!-- Node2&#45;&gt;Node3 -->
<g id="edge2" class="edge">
<title>Node2&#45;&gt;Node3</title>
<path fill="none" stroke="midnightblue" d="M367.23,-15.5C375.57,-15.5 384.09,-15.5 392.52,-15.5"/>
<polygon fill="midnightblue" stroke="midnightblue" points="392.72,-19 402.72,-15.5 392.72,-12 392.72,-19"/>
</g>
</g>
</svg>
