<?xml version="1.0" encoding="UTF-8" standalone="no"?>
<!DOCTYPE svg PUBLIC "-//W3C//DTD SVG 1.1//EN"
 "http://www.w3.org/Graphics/SVG/1.1/DTD/svg11.dtd">
<!-- Generated by graphviz version 2.44.0 ()
 -->
<!-- Title: src_files.nucleus_multiple_class.nucleus_multiple.__rmul__ Pages: 1 -->
<svg width="649pt" height="230pt"
 viewBox="0.00 0.00 649.00 230.00" xmlns="http://www.w3.org/2000/svg" xmlns:xlink="http://www.w3.org/1999/xlink">
<g id="graph0" class="graph" transform="scale(1 1) rotate(0) translate(4 226)">
<title>src_files.nucleus_multiple_class.nucleus_multiple.__rmul__</title>
<polygon fill="white" stroke="transparent" points="-4,4 -4,-226 645,-226 645,4 -4,4"/>
<!-- Node1 -->
<g id="node1" class="node">
<title>Node1</title>
<g id="a_node1"><a xlink:title=" ">
<polygon fill="#bfbfbf" stroke="black" points="0,-120.5 0,-161.5 128,-161.5 128,-120.5 0,-120.5"/>
<text text-anchor="start" x="8" y="-149.5" font-family="Helvetica,sans-Serif" font-size="10.00">src_files.nucleus_multiple</text>
<text text-anchor="start" x="8" y="-138.5" font-family="Helvetica,sans-Serif" font-size="10.00">_class.nucleus_multiple.</text>
<text text-anchor="middle" x="64" y="-127.5" font-family="Helvetica,sans-Serif" font-size="10.00">__rmul__</text>
</a>
</g>
</g>
<!-- Node2 -->
<g id="node2" class="node">
<title>Node2</title>
<g id="a_node2"><a xlink:href="classbin_1_1class__files_1_1nucleus__multiple__class_1_1nucleus__multiple.html#a948a0f361dd687e5920858a39597b93d" target="_top" xlink:title=" ">
<polygon fill="white" stroke="black" points="183.5,-147.5 183.5,-188.5 303.5,-188.5 303.5,-147.5 183.5,-147.5"/>
<text text-anchor="start" x="191.5" y="-176.5" font-family="Helvetica,sans-Serif" font-size="10.00">bin.class_files.nucleus</text>
<text text-anchor="start" x="191.5" y="-165.5" font-family="Helvetica,sans-Serif" font-size="10.00">_multiple_class.nucleus</text>
<text text-anchor="middle" x="243.5" y="-154.5" font-family="Helvetica,sans-Serif" font-size="10.00">_multiple.__mul__</text>
</a>
</g>
</g>
<!-- Node1&#45;&gt;Node2 -->
<g id="edge1" class="edge">
<title>Node1&#45;&gt;Node2</title>
<path fill="none" stroke="midnightblue" d="M128.08,-150.6C142.73,-152.82 158.41,-155.21 173.31,-157.48"/>
<polygon fill="midnightblue" stroke="midnightblue" points="173.07,-160.98 183.48,-159.02 174.12,-154.06 173.07,-160.98"/>
</g>
<!-- Node6 -->
<g id="node6" class="node">
<title>Node6</title>
<g id="a_node6"><a xlink:href="classsrc__files_1_1nucleus__multiple__class_1_1nucleus__multiple.html#a224f560c5f13caf92c38ed4c70e0602b" target="_top" xlink:title=" ">
<polygon fill="white" stroke="black" points="164,-99 164,-129 323,-129 323,-99 164,-99"/>
<text text-anchor="start" x="172" y="-117" font-family="Helvetica,sans-Serif" font-size="10.00">src_files.nucleus_multiple</text>
<text text-anchor="middle" x="243.5" y="-106" font-family="Helvetica,sans-Serif" font-size="10.00">_class.nucleus_multiple.__mul__</text>
</a>
</g>
</g>
<!-- Node1&#45;&gt;Node6 -->
<g id="edge5" class="edge">
<title>Node1&#45;&gt;Node6</title>
<path fill="none" stroke="midnightblue" d="M128.08,-131.4C136.39,-130.14 145.02,-128.83 153.66,-127.51"/>
<polygon fill="midnightblue" stroke="midnightblue" points="154.42,-130.94 163.78,-125.97 153.37,-124.02 154.42,-130.94"/>
</g>
<!-- Node3 -->
<g id="node3" class="node">
<title>Node3</title>
<g id="a_node3"><a xlink:href="classbin_1_1class__files_1_1nucleus__multiple__class_1_1nucleus__multiple.html#a0fdfcbebc433ec89b478adc954d4532c" target="_top" xlink:title=" ">
<polygon fill="white" stroke="black" points="359,-180.5 359,-221.5 487,-221.5 487,-180.5 359,-180.5"/>
<text text-anchor="start" x="367" y="-209.5" font-family="Helvetica,sans-Serif" font-size="10.00">bin.class_files.nucleus</text>
<text text-anchor="start" x="367" y="-198.5" font-family="Helvetica,sans-Serif" font-size="10.00">_multiple_class.nucleus</text>
<text text-anchor="middle" x="423" y="-187.5" font-family="Helvetica,sans-Serif" font-size="10.00">_multiple.__init_with_data</text>
</a>
</g>
</g>
<!-- Node2&#45;&gt;Node3 -->
<g id="edge2" class="edge">
<title>Node2&#45;&gt;Node3</title>
<path fill="none" stroke="midnightblue" d="M303.6,-178.99C318.17,-181.7 333.93,-184.63 349.06,-187.44"/>
<polygon fill="midnightblue" stroke="midnightblue" points="348.42,-190.88 358.89,-189.27 349.7,-184 348.42,-190.88"/>
</g>
<!-- Node5 -->
<g id="node5" class="node">
<title>Node5</title>
<g id="a_node5"><a xlink:href="classbin_1_1class__files_1_1nucleus__multiple__class_1_1nucleus__multiple.html#ad429e18b5200db81490b842fd21b737e" target="_top" xlink:title=" ">
<polygon fill="white" stroke="black" points="360,-120.5 360,-161.5 486,-161.5 486,-120.5 360,-120.5"/>
<text text-anchor="start" x="368" y="-149.5" font-family="Helvetica,sans-Serif" font-size="10.00">bin.class_files.nucleus</text>
<text text-anchor="start" x="368" y="-138.5" font-family="Helvetica,sans-Serif" font-size="10.00">_multiple_class.nucleus</text>
<text text-anchor="middle" x="423" y="-127.5" font-family="Helvetica,sans-Serif" font-size="10.00">_multiple.__merge_nuclei</text>
</a>
</g>
</g>
<!-- Node2&#45;&gt;Node5 -->
<g id="edge4" class="edge">
<title>Node2&#45;&gt;Node5</title>
<path fill="none" stroke="midnightblue" d="M303.6,-159.01C318.41,-156.76 334.47,-154.32 349.83,-151.98"/>
<polygon fill="midnightblue" stroke="midnightblue" points="350.45,-155.42 359.81,-150.46 349.4,-148.5 350.45,-155.42"/>
</g>
<!-- Node4 -->
<g id="node4" class="node">
<title>Node4</title>
<g id="a_node4"><a xlink:href="namespacebin_1_1create__alpha__decay__file.html#ac34a94ae8e6f56f49f1dfb47a70e96cc" target="_top" xlink:title=" ">
<polygon fill="white" stroke="black" points="523,-126 523,-156 641,-156 641,-126 523,-126"/>
<text text-anchor="start" x="531" y="-144" font-family="Helvetica,sans-Serif" font-size="10.00">bin.create_alpha_decay</text>
<text text-anchor="middle" x="582" y="-133" font-family="Helvetica,sans-Serif" font-size="10.00">_file.get_name</text>
</a>
</g>
</g>
<!-- Node3&#45;&gt;Node4 -->
<g id="edge3" class="edge">
<title>Node3&#45;&gt;Node4</title>
<path fill="none" stroke="midnightblue" d="M478.03,-180.35C495.53,-173.66 514.83,-166.29 531.95,-159.75"/>
<polygon fill="midnightblue" stroke="midnightblue" points="533.65,-162.84 541.74,-156 531.15,-156.3 533.65,-162.84"/>
</g>
<!-- Node6&#45;&gt;Node3 -->
<g id="edge6" class="edge">
<title>Node6&#45;&gt;Node3</title>
<path fill="none" stroke="midnightblue" d="M303.99,-129.06C310.59,-131.64 317.06,-134.61 323,-138 341.84,-148.77 341,-158.87 359,-171 361.15,-172.45 363.39,-173.87 365.67,-175.25"/>
<polygon fill="midnightblue" stroke="midnightblue" points="364.27,-178.48 374.69,-180.39 367.73,-172.4 364.27,-178.48"/>
</g>
<!-- Node6&#45;&gt;Node5 -->
<g id="edge9" class="edge">
<title>Node6&#45;&gt;Node5</title>
<path fill="none" stroke="midnightblue" d="M323.13,-125.96C332.09,-127.32 341.19,-128.71 350.06,-130.06"/>
<polygon fill="midnightblue" stroke="midnightblue" points="349.54,-133.52 359.95,-131.56 350.59,-126.6 349.54,-133.52"/>
</g>
<!-- Node7 -->
<g id="node7" class="node">
<title>Node7</title>
<g id="a_node7"><a xlink:href="classsrc__files_1_1nucleus__multiple__class_1_1nucleus__multiple.html#aa062b647871d92716d07c5b531012778" target="_top" xlink:title=" ">
<polygon fill="white" stroke="black" points="359,-60.5 359,-101.5 487,-101.5 487,-60.5 359,-60.5"/>
<text text-anchor="start" x="367" y="-89.5" font-family="Helvetica,sans-Serif" font-size="10.00">src_files.nucleus_multiple</text>
<text text-anchor="start" x="367" y="-78.5" font-family="Helvetica,sans-Serif" font-size="10.00">_class.nucleus_multiple.</text>
<text text-anchor="middle" x="423" y="-67.5" font-family="Helvetica,sans-Serif" font-size="10.00">__init_with_data</text>
</a>
</g>
</g>
<!-- Node6&#45;&gt;Node7 -->
<g id="edge7" class="edge">
<title>Node6&#45;&gt;Node7</title>
<path fill="none" stroke="midnightblue" d="M323.13,-99.38C331.73,-97.78 340.45,-96.16 348.98,-94.58"/>
<polygon fill="midnightblue" stroke="midnightblue" points="349.69,-98 358.88,-92.74 348.41,-91.12 349.69,-98"/>
</g>
<!-- Node8 -->
<g id="node8" class="node">
<title>Node8</title>
<g id="a_node8"><a xlink:href="classsrc__files_1_1nucleus__multiple__class_1_1nucleus__multiple.html#af2c40a222291f5b9d64608ed5437a439" target="_top" xlink:title=" ">
<polygon fill="white" stroke="black" points="359,-0.5 359,-41.5 487,-41.5 487,-0.5 359,-0.5"/>
<text text-anchor="start" x="367" y="-29.5" font-family="Helvetica,sans-Serif" font-size="10.00">src_files.nucleus_multiple</text>
<text text-anchor="start" x="367" y="-18.5" font-family="Helvetica,sans-Serif" font-size="10.00">_class.nucleus_multiple.</text>
<text text-anchor="middle" x="423" y="-7.5" font-family="Helvetica,sans-Serif" font-size="10.00">__merge_nuclei</text>
</a>
</g>
</g>
<!-- Node6&#45;&gt;Node8 -->
<g id="edge10" class="edge">
<title>Node6&#45;&gt;Node8</title>
<path fill="none" stroke="midnightblue" d="M271.1,-98.79C294.15,-85.74 328.51,-66.63 359,-51 362.11,-49.4 365.32,-47.79 368.57,-46.17"/>
<polygon fill="midnightblue" stroke="midnightblue" points="370.34,-49.2 377.78,-41.65 367.26,-42.92 370.34,-49.2"/>
</g>
<!-- Node7&#45;&gt;Node4 -->
<g id="edge8" class="edge">
<title>Node7&#45;&gt;Node4</title>
<path fill="none" stroke="midnightblue" d="M478.03,-101.65C495.53,-108.34 514.83,-115.71 531.95,-122.25"/>
<polygon fill="midnightblue" stroke="midnightblue" points="531.15,-125.7 541.74,-126 533.65,-119.16 531.15,-125.7"/>
</g>
</g>
</svg>
