<?xml version="1.0" encoding="UTF-8" standalone="no"?>
<!DOCTYPE svg PUBLIC "-//W3C//DTD SVG 1.1//EN"
 "http://www.w3.org/Graphics/SVG/1.1/DTD/svg11.dtd">
<!-- Generated by graphviz version 2.44.0 ()
 -->
<!-- Title: src_files.wreader.wreader.__getitem__ Pages: 1 -->
<svg width="854pt" height="235pt"
 viewBox="0.00 0.00 854.00 235.00" xmlns="http://www.w3.org/2000/svg" xmlns:xlink="http://www.w3.org/1999/xlink">
<g id="graph0" class="graph" transform="scale(1 1) rotate(0) translate(4 231)">
<title>src_files.wreader.wreader.__getitem__</title>
<polygon fill="white" stroke="transparent" points="-4,4 -4,-231 850,-231 850,4 -4,4"/>
<!-- Node1 -->
<g id="node1" class="node">
<title>Node1</title>
<g id="a_node1"><a xlink:title=" ">
<polygon fill="#bfbfbf" stroke="black" points="0,-98.5 0,-128.5 128,-128.5 128,-98.5 0,-98.5"/>
<text text-anchor="start" x="8" y="-116.5" font-family="Helvetica,sans-Serif" font-size="10.00">src_files.wreader.wreader.</text>
<text text-anchor="middle" x="64" y="-105.5" font-family="Helvetica,sans-Serif" font-size="10.00">__getitem__</text>
</a>
</g>
</g>
<!-- Node1&#45;&gt;Node1 -->
<g id="edge1" class="edge">
<title>Node1&#45;&gt;Node1</title>
<path fill="none" stroke="midnightblue" d="M32.63,-128.66C25.07,-138.06 35.52,-147 64,-147 81.35,-147 92.01,-143.68 95.98,-138.96"/>
<polygon fill="midnightblue" stroke="midnightblue" points="99.46,-138.43 95.37,-128.66 92.47,-138.85 99.46,-138.43"/>
</g>
<!-- Node2 -->
<g id="node2" class="node">
<title>Node2</title>
<g id="a_node2"><a xlink:href="classsrc__files_1_1wreader_1_1wreader.html#af0bbd0624c9c20bffb25e13034b80d31" target="_top" xlink:title=" ">
<polygon fill="white" stroke="black" points="167,-193 167,-212 324,-212 324,-193 167,-193"/>
<text text-anchor="middle" x="245.5" y="-200" font-family="Helvetica,sans-Serif" font-size="10.00">src_files.wreader.wreader.energy</text>
</a>
</g>
</g>
<!-- Node1&#45;&gt;Node2 -->
<g id="edge2" class="edge">
<title>Node1&#45;&gt;Node2</title>
<path fill="none" stroke="midnightblue" d="M85.8,-128.56C105.28,-142.17 135.58,-162.07 164,-175.5 175.45,-180.91 188.29,-185.74 200.29,-189.75"/>
<polygon fill="midnightblue" stroke="midnightblue" points="199.53,-193.19 210.12,-192.93 201.68,-186.53 199.53,-193.19"/>
</g>
<!-- Node6 -->
<g id="node6" class="node">
<title>Node6</title>
<g id="a_node6"><a xlink:href="classsrc__files_1_1wreader_1_1wreader.html#ac7aad65bcc2991ab369d39bd26a2c904" target="_top" xlink:title=" ">
<polygon fill="white" stroke="black" points="164,-147 164,-166 327,-166 327,-147 164,-147"/>
<text text-anchor="middle" x="245.5" y="-154" font-family="Helvetica,sans-Serif" font-size="10.00">src_files.wreader.wreader.mainout</text>
</a>
</g>
</g>
<!-- Node1&#45;&gt;Node6 -->
<g id="edge6" class="edge">
<title>Node1&#45;&gt;Node6</title>
<path fill="none" stroke="midnightblue" d="M127.78,-128.54C149.76,-133.8 174.12,-139.64 194.88,-144.61"/>
<polygon fill="midnightblue" stroke="midnightblue" points="194.21,-148.05 204.75,-146.98 195.84,-141.24 194.21,-148.05"/>
</g>
<!-- Node8 -->
<g id="node8" class="node">
<title>Node8</title>
<g id="a_node8"><a xlink:href="classsrc__files_1_1wreader_1_1wreader.html#a0308106950e0f26b458b4bf18713660f" target="_top" xlink:title=" ">
<polygon fill="white" stroke="black" points="167,-104 167,-123 324,-123 324,-104 167,-104"/>
<text text-anchor="middle" x="245.5" y="-111" font-family="Helvetica,sans-Serif" font-size="10.00">src_files.wreader.wreader.nuloss</text>
</a>
</g>
</g>
<!-- Node1&#45;&gt;Node8 -->
<g id="edge9" class="edge">
<title>Node1&#45;&gt;Node8</title>
<path fill="none" stroke="midnightblue" d="M128.03,-113.5C137.33,-113.5 147.05,-113.5 156.73,-113.5"/>
<polygon fill="midnightblue" stroke="midnightblue" points="156.8,-117 166.8,-113.5 156.8,-110 156.8,-117"/>
</g>
<!-- Node10 -->
<g id="node10" class="node">
<title>Node10</title>
<g id="a_node10"><a xlink:href="classsrc__files_1_1wreader_1_1wreader.html#afeacebcebd5d8ce25e463f9dfcd40db6" target="_top" xlink:title=" ">
<polygon fill="white" stroke="black" points="174.5,-60 174.5,-79 316.5,-79 316.5,-60 174.5,-60"/>
<text text-anchor="middle" x="245.5" y="-67" font-family="Helvetica,sans-Serif" font-size="10.00">src_files.wreader.wreader.tau</text>
</a>
</g>
</g>
<!-- Node1&#45;&gt;Node10 -->
<g id="edge12" class="edge">
<title>Node1&#45;&gt;Node10</title>
<path fill="none" stroke="midnightblue" d="M126.27,-98.48C148.98,-92.91 174.4,-86.68 195.84,-81.43"/>
<polygon fill="midnightblue" stroke="midnightblue" points="196.81,-84.79 205.69,-79.01 195.15,-77.99 196.81,-84.79"/>
</g>
<!-- Node12 -->
<g id="node12" class="node">
<title>Node12</title>
<g id="a_node12"><a xlink:href="classsrc__files_1_1wreader_1_1wreader.html#ab4be4b0f098062ef90d44c428043a0e8" target="_top" xlink:title=" ">
<polygon fill="white" stroke="black" points="165,-8.5 165,-38.5 326,-38.5 326,-8.5 165,-8.5"/>
<text text-anchor="start" x="173" y="-26.5" font-family="Helvetica,sans-Serif" font-size="10.00">src_files.wreader.wreader.tracked</text>
<text text-anchor="middle" x="245.5" y="-15.5" font-family="Helvetica,sans-Serif" font-size="10.00">_nuclei</text>
</a>
</g>
</g>
<!-- Node1&#45;&gt;Node12 -->
<g id="edge15" class="edge">
<title>Node1&#45;&gt;Node12</title>
<path fill="none" stroke="midnightblue" d="M85.39,-98.44C104.83,-84.59 135.32,-64.19 164,-50.5 170.26,-47.51 176.93,-44.71 183.66,-42.13"/>
<polygon fill="midnightblue" stroke="midnightblue" points="185.34,-45.25 193.51,-38.51 182.92,-38.68 185.34,-45.25"/>
</g>
<!-- Node3 -->
<g id="node3" class="node">
<title>Node3</title>
<g id="a_node3"><a xlink:href="classsrc__files_1_1wreader_1_1wreader.html#a6cf70ad191cc1488b60ca4ae90067dad" target="_top" xlink:title=" ">
<polygon fill="white" stroke="black" points="363,-196.5 363,-226.5 491,-226.5 491,-196.5 363,-196.5"/>
<text text-anchor="start" x="371" y="-214.5" font-family="Helvetica,sans-Serif" font-size="10.00">src_files.wreader.wreader.</text>
<text text-anchor="middle" x="427" y="-203.5" font-family="Helvetica,sans-Serif" font-size="10.00">__read_energy</text>
</a>
</g>
</g>
<!-- Node2&#45;&gt;Node3 -->
<g id="edge3" class="edge">
<title>Node2&#45;&gt;Node3</title>
<path fill="none" stroke="midnightblue" d="M324.19,-206.4C333.65,-206.87 343.3,-207.35 352.69,-207.82"/>
<polygon fill="midnightblue" stroke="midnightblue" points="352.61,-211.32 362.77,-208.33 352.96,-204.33 352.61,-211.32"/>
</g>
<!-- Node4 -->
<g id="node4" class="node">
<title>Node4</title>
<g id="a_node4"><a xlink:href="classsrc__files_1_1wreader_1_1wreader.html#a6cc2d629d39d6f1c36f484c8718449e0" target="_top" xlink:title=" ">
<polygon fill="white" stroke="black" points="527,-98.5 527,-128.5 682,-128.5 682,-98.5 527,-98.5"/>
<text text-anchor="start" x="535" y="-116.5" font-family="Helvetica,sans-Serif" font-size="10.00">src_files.wreader.wreader.check</text>
<text text-anchor="middle" x="604.5" y="-105.5" font-family="Helvetica,sans-Serif" font-size="10.00">_existence</text>
</a>
</g>
</g>
<!-- Node3&#45;&gt;Node4 -->
<g id="edge4" class="edge">
<title>Node3&#45;&gt;Node4</title>
<path fill="none" stroke="midnightblue" d="M471.25,-196.46C477.97,-193.72 484.75,-190.7 491,-187.5 521.13,-172.08 553.16,-150.44 575.31,-134.54"/>
<polygon fill="midnightblue" stroke="midnightblue" points="577.54,-137.24 583.58,-128.54 573.43,-131.58 577.54,-137.24"/>
</g>
<!-- Node5 -->
<g id="node5" class="node">
<title>Node5</title>
<g id="a_node5"><a xlink:href="classsrc__files_1_1wreader_1_1wreader.html#ad7decec8890f297e25512ecb6fea313a" target="_top" xlink:title=" ">
<polygon fill="white" stroke="black" points="718,-98.5 718,-128.5 846,-128.5 846,-98.5 718,-98.5"/>
<text text-anchor="start" x="726" y="-116.5" font-family="Helvetica,sans-Serif" font-size="10.00">src_files.wreader.wreader.</text>
<text text-anchor="middle" x="782" y="-105.5" font-family="Helvetica,sans-Serif" font-size="10.00">__check_files</text>
</a>
</g>
</g>
<!-- Node4&#45;&gt;Node5 -->
<g id="edge5" class="edge">
<title>Node4&#45;&gt;Node5</title>
<path fill="none" stroke="midnightblue" d="M682.22,-113.5C690.68,-113.5 699.28,-113.5 707.69,-113.5"/>
<polygon fill="midnightblue" stroke="midnightblue" points="707.85,-117 717.85,-113.5 707.85,-110 707.85,-117"/>
</g>
<!-- Node7 -->
<g id="node7" class="node">
<title>Node7</title>
<g id="a_node7"><a xlink:href="classsrc__files_1_1wreader_1_1wreader.html#a02e9aad2b0b6586231f81a003926bc21" target="_top" xlink:title=" ">
<polygon fill="white" stroke="black" points="363,-147.5 363,-177.5 491,-177.5 491,-147.5 363,-147.5"/>
<text text-anchor="start" x="371" y="-165.5" font-family="Helvetica,sans-Serif" font-size="10.00">src_files.wreader.wreader.</text>
<text text-anchor="middle" x="427" y="-154.5" font-family="Helvetica,sans-Serif" font-size="10.00">__read_mainout</text>
</a>
</g>
</g>
<!-- Node6&#45;&gt;Node7 -->
<g id="edge7" class="edge">
<title>Node6&#45;&gt;Node7</title>
<path fill="none" stroke="midnightblue" d="M327.06,-159.19C335.61,-159.48 344.27,-159.77 352.73,-160.05"/>
<polygon fill="midnightblue" stroke="midnightblue" points="352.81,-163.56 362.92,-160.39 353.04,-156.56 352.81,-163.56"/>
</g>
<!-- Node7&#45;&gt;Node4 -->
<g id="edge8" class="edge">
<title>Node7&#45;&gt;Node4</title>
<path fill="none" stroke="midnightblue" d="M482.09,-147.4C500.36,-142.3 520.92,-136.56 539.86,-131.27"/>
<polygon fill="midnightblue" stroke="midnightblue" points="540.9,-134.61 549.59,-128.55 539.02,-127.87 540.9,-134.61"/>
</g>
<!-- Node9 -->
<g id="node9" class="node">
<title>Node9</title>
<g id="a_node9"><a xlink:href="classsrc__files_1_1wreader_1_1wreader.html#a81390e2b24da7bd40855650354552669" target="_top" xlink:title=" ">
<polygon fill="white" stroke="black" points="363,-98.5 363,-128.5 491,-128.5 491,-98.5 363,-98.5"/>
<text text-anchor="start" x="371" y="-116.5" font-family="Helvetica,sans-Serif" font-size="10.00">src_files.wreader.wreader.</text>
<text text-anchor="middle" x="427" y="-105.5" font-family="Helvetica,sans-Serif" font-size="10.00">__read_nuloss</text>
</a>
</g>
</g>
<!-- Node8&#45;&gt;Node9 -->
<g id="edge10" class="edge">
<title>Node8&#45;&gt;Node9</title>
<path fill="none" stroke="midnightblue" d="M324.19,-113.5C333.65,-113.5 343.3,-113.5 352.69,-113.5"/>
<polygon fill="midnightblue" stroke="midnightblue" points="352.77,-117 362.77,-113.5 352.77,-110 352.77,-117"/>
</g>
<!-- Node9&#45;&gt;Node4 -->
<g id="edge11" class="edge">
<title>Node9&#45;&gt;Node4</title>
<path fill="none" stroke="midnightblue" d="M491.36,-113.5C499.62,-113.5 508.19,-113.5 516.74,-113.5"/>
<polygon fill="midnightblue" stroke="midnightblue" points="516.76,-117 526.76,-113.5 516.76,-110 516.76,-117"/>
</g>
<!-- Node11 -->
<g id="node11" class="node">
<title>Node11</title>
<g id="a_node11"><a xlink:href="classsrc__files_1_1wreader_1_1wreader.html#a394335d4af61eb19c03cde0fe4acdb7f" target="_top" xlink:title=" ">
<polygon fill="white" stroke="black" points="363,-49.5 363,-79.5 491,-79.5 491,-49.5 363,-49.5"/>
<text text-anchor="start" x="371" y="-67.5" font-family="Helvetica,sans-Serif" font-size="10.00">src_files.wreader.wreader.</text>
<text text-anchor="middle" x="427" y="-56.5" font-family="Helvetica,sans-Serif" font-size="10.00">__read_timescales</text>
</a>
</g>
</g>
<!-- Node10&#45;&gt;Node11 -->
<g id="edge13" class="edge">
<title>Node10&#45;&gt;Node11</title>
<path fill="none" stroke="midnightblue" d="M316.67,-67.55C328.46,-67.22 340.72,-66.88 352.59,-66.54"/>
<polygon fill="midnightblue" stroke="midnightblue" points="352.99,-70.04 362.89,-66.26 352.8,-63.04 352.99,-70.04"/>
</g>
<!-- Node11&#45;&gt;Node4 -->
<g id="edge14" class="edge">
<title>Node11&#45;&gt;Node4</title>
<path fill="none" stroke="midnightblue" d="M482.09,-79.6C500.36,-84.7 520.92,-90.44 539.86,-95.73"/>
<polygon fill="midnightblue" stroke="midnightblue" points="539.02,-99.13 549.59,-98.45 540.9,-92.39 539.02,-99.13"/>
</g>
<!-- Node13 -->
<g id="node13" class="node">
<title>Node13</title>
<g id="a_node13"><a xlink:href="classsrc__files_1_1wreader_1_1wreader.html#aa1832c02508a15d0e13da3520d63e36e" target="_top" xlink:title=" ">
<polygon fill="white" stroke="black" points="363,-0.5 363,-30.5 491,-30.5 491,-0.5 363,-0.5"/>
<text text-anchor="start" x="371" y="-18.5" font-family="Helvetica,sans-Serif" font-size="10.00">src_files.wreader.wreader.</text>
<text text-anchor="middle" x="427" y="-7.5" font-family="Helvetica,sans-Serif" font-size="10.00">__read_tracked_nuclei</text>
</a>
</g>
</g>
<!-- Node12&#45;&gt;Node13 -->
<g id="edge16" class="edge">
<title>Node12&#45;&gt;Node13</title>
<path fill="none" stroke="midnightblue" d="M326.02,-19.96C334.91,-19.56 343.95,-19.16 352.76,-18.76"/>
<polygon fill="midnightblue" stroke="midnightblue" points="353.15,-22.25 362.98,-18.31 352.84,-15.26 353.15,-22.25"/>
</g>
<!-- Node13&#45;&gt;Node4 -->
<g id="edge17" class="edge">
<title>Node13&#45;&gt;Node4</title>
<path fill="none" stroke="midnightblue" d="M471.25,-30.54C477.97,-33.28 484.75,-36.3 491,-39.5 521.13,-54.92 553.16,-76.56 575.31,-92.46"/>
<polygon fill="midnightblue" stroke="midnightblue" points="573.43,-95.42 583.58,-98.46 577.54,-89.76 573.43,-95.42"/>
</g>
</g>
</svg>
