<?xml version="1.0" encoding="UTF-8" standalone="no"?>
<!DOCTYPE svg PUBLIC "-//W3C//DTD SVG 1.1//EN"
 "http://www.w3.org/Graphics/SVG/1.1/DTD/svg11.dtd">
<!-- Generated by graphviz version 2.44.0 ()
 -->
<!-- Title: src_files.template_class.template.__getitem__ Pages: 1 -->
<svg width="467pt" height="151pt"
 viewBox="0.00 0.00 467.00 151.00" xmlns="http://www.w3.org/2000/svg" xmlns:xlink="http://www.w3.org/1999/xlink">
<g id="graph0" class="graph" transform="scale(1 1) rotate(0) translate(4 147)">
<title>src_files.template_class.template.__getitem__</title>
<polygon fill="white" stroke="transparent" points="-4,4 -4,-147 463,-147 463,4 -4,4"/>
<!-- Node1 -->
<g id="node1" class="node">
<title>Node1</title>
<g id="a_node1"><a xlink:title=" ">
<polygon fill="#bfbfbf" stroke="black" points="0,-46.5 0,-76.5 140,-76.5 140,-46.5 0,-46.5"/>
<text text-anchor="start" x="8" y="-64.5" font-family="Helvetica,sans-Serif" font-size="10.00">src_files.template</text>
<text text-anchor="middle" x="70" y="-53.5" font-family="Helvetica,sans-Serif" font-size="10.00">_class.template.__getitem__</text>
</a>
</g>
</g>
<!-- Node2 -->
<g id="node2" class="node">
<title>Node2</title>
<g id="a_node2"><a xlink:href="classbin_1_1class__files_1_1template__class_1_1template.html#abae75186e06fbd7df24126e1f47f3d4e" target="_top" xlink:title=" ">
<polygon fill="white" stroke="black" points="176,-112.5 176,-142.5 293,-142.5 293,-112.5 176,-112.5"/>
<text text-anchor="start" x="184" y="-130.5" font-family="Helvetica,sans-Serif" font-size="10.00">bin.class_files.template</text>
<text text-anchor="middle" x="234.5" y="-119.5" font-family="Helvetica,sans-Serif" font-size="10.00">_class.template.entries</text>
</a>
</g>
</g>
<!-- Node1&#45;&gt;Node2 -->
<g id="edge1" class="edge">
<title>Node1&#45;&gt;Node2</title>
<path fill="none" stroke="midnightblue" d="M108.28,-76.64C131.71,-86.16 162.12,-98.51 187.11,-108.66"/>
<polygon fill="midnightblue" stroke="midnightblue" points="185.81,-111.91 196.39,-112.43 188.44,-105.42 185.81,-111.91"/>
</g>
<!-- Node3 -->
<g id="node3" class="node">
<title>Node3</title>
<g id="a_node3"><a xlink:href="classbin_1_1class__files_1_1template__class_1_1template.html#a55583de91d553b423e902b0d2b7d8b05" target="_top" xlink:title=" ">
<polygon fill="white" stroke="black" points="329,-68.5 329,-98.5 459,-98.5 459,-68.5 329,-68.5"/>
<text text-anchor="start" x="337" y="-86.5" font-family="Helvetica,sans-Serif" font-size="10.00">bin.class_files.template</text>
<text text-anchor="middle" x="394" y="-75.5" font-family="Helvetica,sans-Serif" font-size="10.00">_class.template.read_data</text>
</a>
</g>
</g>
<!-- Node1&#45;&gt;Node3 -->
<g id="edge6" class="edge">
<title>Node1&#45;&gt;Node3</title>
<path fill="none" stroke="midnightblue" d="M140.08,-66.22C192.68,-69.81 264.97,-74.75 318.8,-78.43"/>
<polygon fill="midnightblue" stroke="midnightblue" points="318.75,-81.93 328.96,-79.12 319.23,-74.95 318.75,-81.93"/>
</g>
<!-- Node4 -->
<g id="node4" class="node">
<title>Node4</title>
<g id="a_node4"><a xlink:href="classsrc__files_1_1template__class_1_1template.html#a8561d880605412dc42d76e39f5e0a754" target="_top" xlink:title=" ">
<polygon fill="white" stroke="black" points="176.5,-24.5 176.5,-54.5 292.5,-54.5 292.5,-24.5 176.5,-24.5"/>
<text text-anchor="start" x="184.5" y="-42.5" font-family="Helvetica,sans-Serif" font-size="10.00">src_files.template</text>
<text text-anchor="middle" x="234.5" y="-31.5" font-family="Helvetica,sans-Serif" font-size="10.00">_class.template.entries</text>
</a>
</g>
</g>
<!-- Node1&#45;&gt;Node4 -->
<g id="edge3" class="edge">
<title>Node1&#45;&gt;Node4</title>
<path fill="none" stroke="midnightblue" d="M140.39,-52.11C149,-50.94 157.8,-49.75 166.39,-48.59"/>
<polygon fill="midnightblue" stroke="midnightblue" points="166.9,-52.05 176.34,-47.24 165.96,-45.11 166.9,-52.05"/>
</g>
<!-- Node5 -->
<g id="node5" class="node">
<title>Node5</title>
<g id="a_node5"><a xlink:href="classsrc__files_1_1template__class_1_1template.html#a02e0b0991721d2effb1a8aae79c65c17" target="_top" xlink:title=" ">
<polygon fill="white" stroke="black" points="329,-0.5 329,-30.5 459,-30.5 459,-0.5 329,-0.5"/>
<text text-anchor="start" x="337" y="-18.5" font-family="Helvetica,sans-Serif" font-size="10.00">src_files.template</text>
<text text-anchor="middle" x="394" y="-7.5" font-family="Helvetica,sans-Serif" font-size="10.00">_class.template.read_data</text>
</a>
</g>
</g>
<!-- Node1&#45;&gt;Node5 -->
<g id="edge7" class="edge">
<title>Node1&#45;&gt;Node5</title>
<path fill="none" stroke="midnightblue" d="M96.7,-46.3C117.34,-35.02 147.48,-20.59 176,-14.5 222.63,-4.54 276.19,-4.67 318.44,-7.35"/>
<polygon fill="midnightblue" stroke="midnightblue" points="318.43,-10.86 328.64,-8.06 318.91,-3.88 318.43,-10.86"/>
</g>
<!-- Node2&#45;&gt;Node3 -->
<g id="edge2" class="edge">
<title>Node2&#45;&gt;Node3</title>
<path fill="none" stroke="midnightblue" d="M289.26,-112.48C302.12,-108.89 315.96,-105.02 329.22,-101.32"/>
<polygon fill="midnightblue" stroke="midnightblue" points="330.52,-104.59 339.21,-98.53 328.64,-97.85 330.52,-104.59"/>
</g>
<!-- Node4&#45;&gt;Node3 -->
<g id="edge4" class="edge">
<title>Node4&#45;&gt;Node3</title>
<path fill="none" stroke="midnightblue" d="M289.26,-54.52C302.12,-58.11 315.96,-61.98 329.22,-65.68"/>
<polygon fill="midnightblue" stroke="midnightblue" points="328.64,-69.15 339.21,-68.47 330.52,-62.41 328.64,-69.15"/>
</g>
<!-- Node4&#45;&gt;Node5 -->
<g id="edge5" class="edge">
<title>Node4&#45;&gt;Node5</title>
<path fill="none" stroke="midnightblue" d="M292.81,-30.77C301.21,-29.49 309.98,-28.15 318.66,-26.83"/>
<polygon fill="midnightblue" stroke="midnightblue" points="319.45,-30.25 328.81,-25.28 318.39,-23.33 319.45,-30.25"/>
</g>
</g>
</svg>
