<?xml version="1.0" encoding="UTF-8" standalone="no"?>
<!DOCTYPE svg PUBLIC "-//W3C//DTD SVG 1.1//EN"
 "http://www.w3.org/Graphics/SVG/1.1/DTD/svg11.dtd">
<!-- Generated by graphviz version 2.44.0 ()
 -->
<!-- Title: src_files.template_class.template.__getitem__ Pages: 1 -->
<svg width="467pt" height="125pt"
 viewBox="0.00 0.00 467.00 125.46" xmlns="http://www.w3.org/2000/svg" xmlns:xlink="http://www.w3.org/1999/xlink">
<g id="graph0" class="graph" transform="scale(1 1) rotate(0) translate(4 121.46)">
<title>src_files.template_class.template.__getitem__</title>
<polygon fill="white" stroke="transparent" points="-4,4 -4,-121.46 463,-121.46 463,4 -4,4"/>
<!-- Node1 -->
<g id="node1" class="node">
<title>Node1</title>
<g id="a_node1"><a xlink:title=" ">
<polygon fill="#bfbfbf" stroke="black" points="0,-46.5 0,-76.5 140,-76.5 140,-46.5 0,-46.5"/>
<text text-anchor="start" x="8" y="-64.5" font-family="Helvetica,sans-Serif" font-size="10.00">src_files.template</text>
<text text-anchor="middle" x="70" y="-53.5" font-family="Helvetica,sans-Serif" font-size="10.00">_class.template.__getitem__</text>
</a>
</g>
</g>
<!-- Node1&#45;&gt;Node1 -->
<g id="edge1" class="edge">
<title>Node1&#45;&gt;Node1</title>
<path fill="none" stroke="midnightblue" d="M41.42,-76.66C34.53,-86.06 44.05,-95 70,-95 85.81,-95 95.52,-91.68 99.14,-86.96"/>
<polygon fill="midnightblue" stroke="midnightblue" points="102.62,-86.45 98.58,-76.66 95.63,-86.83 102.62,-86.45"/>
</g>
<!-- Node2 -->
<g id="node2" class="node">
<title>Node2</title>
<g id="a_node2"><a xlink:href="classsrc__files_1_1template__class_1_1template.html#a8561d880605412dc42d76e39f5e0a754" target="_top" xlink:title=" ">
<polygon fill="white" stroke="black" points="176.5,-22.5 176.5,-52.5 292.5,-52.5 292.5,-22.5 176.5,-22.5"/>
<text text-anchor="start" x="184.5" y="-40.5" font-family="Helvetica,sans-Serif" font-size="10.00">src_files.template</text>
<text text-anchor="middle" x="234.5" y="-29.5" font-family="Helvetica,sans-Serif" font-size="10.00">_class.template.entries</text>
</a>
</g>
</g>
<!-- Node1&#45;&gt;Node2 -->
<g id="edge2" class="edge">
<title>Node1&#45;&gt;Node2</title>
<path fill="none" stroke="midnightblue" d="M140.39,-51.25C149,-49.98 157.8,-48.68 166.39,-47.41"/>
<polygon fill="midnightblue" stroke="midnightblue" points="166.96,-50.87 176.34,-45.94 165.94,-43.94 166.96,-50.87"/>
</g>
<!-- Node3 -->
<g id="node3" class="node">
<title>Node3</title>
<g id="a_node3"><a xlink:href="classbin_1_1class__files_1_1template__class_1_1template.html#a55583de91d553b423e902b0d2b7d8b05" target="_top" xlink:title=" ">
<polygon fill="white" stroke="black" points="329,-71.5 329,-101.5 459,-101.5 459,-71.5 329,-71.5"/>
<text text-anchor="start" x="337" y="-89.5" font-family="Helvetica,sans-Serif" font-size="10.00">bin.class_files.template</text>
<text text-anchor="middle" x="394" y="-78.5" font-family="Helvetica,sans-Serif" font-size="10.00">_class.template.read_data</text>
</a>
</g>
</g>
<!-- Node1&#45;&gt;Node3 -->
<g id="edge8" class="edge">
<title>Node1&#45;&gt;Node3</title>
<path fill="none" stroke="midnightblue" d="M94.9,-76.69C115.49,-88.81 146.46,-104.83 176,-111.5 228.51,-123.36 289.5,-114.39 333.43,-104.03"/>
<polygon fill="midnightblue" stroke="midnightblue" points="334.49,-107.37 343.37,-101.59 332.82,-100.57 334.49,-107.37"/>
</g>
<!-- Node4 -->
<g id="node4" class="node">
<title>Node4</title>
<g id="a_node4"><a xlink:href="classsrc__files_1_1template__class_1_1template.html#a02e0b0991721d2effb1a8aae79c65c17" target="_top" xlink:title=" ">
<polygon fill="white" stroke="black" points="329,-0.5 329,-30.5 459,-30.5 459,-0.5 329,-0.5"/>
<text text-anchor="start" x="337" y="-18.5" font-family="Helvetica,sans-Serif" font-size="10.00">src_files.template</text>
<text text-anchor="middle" x="394" y="-7.5" font-family="Helvetica,sans-Serif" font-size="10.00">_class.template.read_data</text>
</a>
</g>
</g>
<!-- Node1&#45;&gt;Node4 -->
<g id="edge7" class="edge">
<title>Node1&#45;&gt;Node4</title>
<path fill="none" stroke="midnightblue" d="M95.36,-46.38C115.97,-34.53 146.74,-18.99 176,-12.5 222.55,-2.17 276.12,-2.79 318.38,-6.05"/>
<polygon fill="midnightblue" stroke="midnightblue" points="318.33,-9.56 328.59,-6.91 318.92,-2.59 318.33,-9.56"/>
</g>
<!-- Node5 -->
<g id="node5" class="node">
<title>Node5</title>
<g id="a_node5"><a xlink:href="classbin_1_1class__files_1_1template__class_1_1template.html#abae75186e06fbd7df24126e1f47f3d4e" target="_top" xlink:title=" ">
<polygon fill="white" stroke="black" points="176,-71.5 176,-101.5 293,-101.5 293,-71.5 176,-71.5"/>
<text text-anchor="start" x="184" y="-89.5" font-family="Helvetica,sans-Serif" font-size="10.00">bin.class_files.template</text>
<text text-anchor="middle" x="234.5" y="-78.5" font-family="Helvetica,sans-Serif" font-size="10.00">_class.template.entries</text>
</a>
</g>
</g>
<!-- Node1&#45;&gt;Node5 -->
<g id="edge5" class="edge">
<title>Node1&#45;&gt;Node5</title>
<path fill="none" stroke="midnightblue" d="M140.39,-72.17C148.79,-73.47 157.36,-74.79 165.74,-76.08"/>
<polygon fill="midnightblue" stroke="midnightblue" points="165.42,-79.57 175.84,-77.63 166.49,-72.65 165.42,-79.57"/>
</g>
<!-- Node2&#45;&gt;Node3 -->
<g id="edge3" class="edge">
<title>Node2&#45;&gt;Node3</title>
<path fill="none" stroke="midnightblue" d="M284.04,-52.6C300.13,-57.61 318.21,-63.23 334.95,-68.44"/>
<polygon fill="midnightblue" stroke="midnightblue" points="334.03,-71.82 344.62,-71.45 336.11,-65.14 334.03,-71.82"/>
</g>
<!-- Node2&#45;&gt;Node4 -->
<g id="edge4" class="edge">
<title>Node2&#45;&gt;Node4</title>
<path fill="none" stroke="midnightblue" d="M292.81,-29.5C301.21,-28.32 309.98,-27.1 318.66,-25.88"/>
<polygon fill="midnightblue" stroke="midnightblue" points="319.39,-29.32 328.81,-24.47 318.42,-22.38 319.39,-29.32"/>
</g>
<!-- Node5&#45;&gt;Node3 -->
<g id="edge6" class="edge">
<title>Node5&#45;&gt;Node3</title>
<path fill="none" stroke="midnightblue" d="M293.25,-86.5C301.58,-86.5 310.25,-86.5 318.84,-86.5"/>
<polygon fill="midnightblue" stroke="midnightblue" points="318.87,-90 328.87,-86.5 318.87,-83 318.87,-90"/>
</g>
</g>
</svg>
