<?xml version="1.0" encoding="UTF-8" standalone="no"?>
<!DOCTYPE svg PUBLIC "-//W3C//DTD SVG 1.1//EN"
 "http://www.w3.org/Graphics/SVG/1.1/DTD/svg11.dtd">
<!-- Generated by graphviz version 2.44.0 ()
 -->
<!-- Title: src_files.nucleus_multiple_class.nucleus_multiple.__repr__ Pages: 1 -->
<svg width="303pt" height="99pt"
 viewBox="0.00 0.00 303.00 98.50" xmlns="http://www.w3.org/2000/svg" xmlns:xlink="http://www.w3.org/1999/xlink">
<g id="graph0" class="graph" transform="scale(1 1) rotate(0) translate(4 94.5)">
<title>src_files.nucleus_multiple_class.nucleus_multiple.__repr__</title>
<polygon fill="white" stroke="transparent" points="-4,4 -4,-94.5 299,-94.5 299,4 -4,4"/>
<!-- Node1 -->
<g id="node1" class="node">
<title>Node1</title>
<g id="a_node1"><a xlink:title=" ">
<polygon fill="#bfbfbf" stroke="black" points="0,-22 0,-63 128,-63 128,-22 0,-22"/>
<text text-anchor="start" x="8" y="-51" font-family="Helvetica,sans-Serif" font-size="10.00">src_files.nucleus_multiple</text>
<text text-anchor="start" x="8" y="-40" font-family="Helvetica,sans-Serif" font-size="10.00">_class.nucleus_multiple.</text>
<text text-anchor="middle" x="64" y="-29" font-family="Helvetica,sans-Serif" font-size="10.00">__repr__</text>
</a>
</g>
</g>
<!-- Node2 -->
<g id="node2" class="node">
<title>Node2</title>
<g id="a_node2"><a xlink:href="classbin_1_1class__files_1_1nucleus__multiple__class_1_1nucleus__multiple.html#aec47e1e6766c18b5dfb8549773db0f3a" target="_top" xlink:title=" ">
<polygon fill="white" stroke="black" points="169.5,-49 169.5,-90 289.5,-90 289.5,-49 169.5,-49"/>
<text text-anchor="start" x="177.5" y="-78" font-family="Helvetica,sans-Serif" font-size="10.00">bin.class_files.nucleus</text>
<text text-anchor="start" x="177.5" y="-67" font-family="Helvetica,sans-Serif" font-size="10.00">_multiple_class.nucleus</text>
<text text-anchor="middle" x="229.5" y="-56" font-family="Helvetica,sans-Serif" font-size="10.00">_multiple.df</text>
</a>
</g>
</g>
<!-- Node1&#45;&gt;Node2 -->
<g id="edge1" class="edge">
<title>Node1&#45;&gt;Node2</title>
<path fill="none" stroke="midnightblue" d="M128.21,-52.94C138.5,-54.64 149.19,-56.4 159.6,-58.12"/>
<polygon fill="midnightblue" stroke="midnightblue" points="159.04,-61.58 169.47,-59.75 160.18,-54.67 159.04,-61.58"/>
</g>
<!-- Node3 -->
<g id="node3" class="node">
<title>Node3</title>
<g id="a_node3"><a xlink:href="classsrc__files_1_1nucleus__multiple__class_1_1nucleus__multiple.html#a3dcab74a866e6274b457626f645bab33" target="_top" xlink:title=" ">
<polygon fill="white" stroke="black" points="164,-0.5 164,-30.5 295,-30.5 295,-0.5 164,-0.5"/>
<text text-anchor="start" x="172" y="-18.5" font-family="Helvetica,sans-Serif" font-size="10.00">src_files.nucleus_multiple</text>
<text text-anchor="middle" x="229.5" y="-7.5" font-family="Helvetica,sans-Serif" font-size="10.00">_class.nucleus_multiple.df</text>
</a>
</g>
</g>
<!-- Node1&#45;&gt;Node3 -->
<g id="edge2" class="edge">
<title>Node1&#45;&gt;Node3</title>
<path fill="none" stroke="midnightblue" d="M128.21,-32.06C136.61,-30.67 145.28,-29.24 153.85,-27.83"/>
<polygon fill="midnightblue" stroke="midnightblue" points="154.54,-31.26 163.83,-26.18 153.4,-24.35 154.54,-31.26"/>
</g>
</g>
</svg>
