<?xml version="1.0" encoding="UTF-8" standalone="no"?>
<!DOCTYPE svg PUBLIC "-//W3C//DTD SVG 1.1//EN"
 "http://www.w3.org/Graphics/SVG/1.1/DTD/svg11.dtd">
<!-- Generated by graphviz version 2.44.0 ()
 -->
<!-- Title: src_files.FlowAnimation.FlowAnimation.arrow_update Pages: 1 -->
<!--zoomable 663 -->
<svg id="main" version="1.1" xmlns="http://www.w3.org/2000/svg" xmlns:xlink="http://www.w3.org/1999/xlink" xml:space="preserve" onload="init(evt)">
<style type="text/css"><![CDATA[
.edge:hover path { stroke: red; }
.edge:hover polygon { stroke: red; fill: red; }
]]></style>
<script type="text/javascript"><![CDATA[
var edges = document.getElementsByTagName('g');
if (edges && edges.length) {
  for (var i=0;i<edges.length;i++) {
    if (edges[i].id.substr(0,4)=='edge') {
      edges[i].setAttribute('class','edge');
    }
  }
}
]]></script>
        <defs>
                <circle id="rim" cx="0" cy="0" r="7"/>
                <circle id="rim2" cx="0" cy="0" r="3.5"/>
                <g id="zoomPlus">
                        <use xlink:href="#rim" fill="#404040">
                                <set attributeName="fill" to="#808080" begin="zoomplus.mouseover" end="zoomplus.mouseout"/>
                        </use>
                        <path d="M-4,0h8M0,-4v8" fill="none" stroke="white" stroke-width="1.5" pointer-events="none"/>
                </g>
                <g id="zoomMin">
                        <use xlink:href="#rim" fill="#404040">
                                <set attributeName="fill" to="#808080" begin="zoomminus.mouseover" end="zoomminus.mouseout"/>
                        </use>
                        <path d="M-4,0h8" fill="none" stroke="white" stroke-width="1.5" pointer-events="none"/>
                </g>
                <g id="dirArrow">
                        <path fill="none" stroke="white" stroke-width="1.5" d="M0,-3.0v7 M-2.5,-0.5L0,-3.0L2.5,-0.5"/>
                </g>
               <g id="resetDef">
                       <use xlink:href="#rim2" fill="#404040">
                               <set attributeName="fill" to="#808080" begin="reset.mouseover" end="reset.mouseout"/>
                       </use>
               </g>
        </defs>

<script type="text/javascript">
var viewWidth = 536;
var viewHeight = 663;
var sectionId = 'dynsection-4';
</script>
<script xlink:href="svgpan.js"/>
<svg id="graph" class="graph">
<g id="viewport">
<title>src_files.FlowAnimation.FlowAnimation.arrow_update</title>
<polygon fill="white" stroke="transparent" points="-4,4 -4,-658.5 532,-658.5 532,4 -4,4"/>
<!-- Node1 -->
<g id="node1" class="node">
<title>Node1</title>
<g id="a_node1"><a xlink:title=" ">
<polygon fill="#bfbfbf" stroke="black" points="0,-234 0,-264 142,-264 142,-234 0,-234"/>
<text text-anchor="start" x="8" y="-252" font-family="Helvetica,sans-Serif" font-size="10.00">src_files.FlowAnimation.</text>
<text text-anchor="middle" x="71" y="-241" font-family="Helvetica,sans-Serif" font-size="10.00">FlowAnimation.arrow_update</text>
</a>
</g>
</g>
<!-- Node2 -->
<g id="node2" class="node">
<title>Node2</title>
<g id="a_node2"><a xlink:href="classsrc__files_1_1FlowAnimation_1_1FlowAnimation.html#ab9f628de100e29971284c03a1d3c9820" target="_top" xlink:title=" ">
<polygon fill="white" stroke="black" points="187.5,-534.5 187.5,-575.5 309.5,-575.5 309.5,-534.5 187.5,-534.5"/>
<text text-anchor="start" x="195.5" y="-563.5" font-family="Helvetica,sans-Serif" font-size="10.00">src_files.FlowAnimation.</text>
<text text-anchor="start" x="195.5" y="-552.5" font-family="Helvetica,sans-Serif" font-size="10.00">FlowAnimation.__toggle</text>
<text text-anchor="middle" x="248.5" y="-541.5" font-family="Helvetica,sans-Serif" font-size="10.00">_addmainout</text>
</a>
</g>
</g>
<!-- Node1&#45;&gt;Node2 -->
<g id="edge1" class="edge">
<title>Node1&#45;&gt;Node2</title>
<path fill="none" stroke="midnightblue" d="M80.7,-264.17C108.26,-312.22 193.93,-461.59 230.58,-525.5"/>
<polygon fill="midnightblue" stroke="midnightblue" points="227.61,-527.36 235.62,-534.29 233.68,-523.87 227.61,-527.36"/>
</g>
<!-- Node6 -->
<g id="node6" class="node">
<title>Node6</title>
<g id="a_node6"><a xlink:href="classsrc__files_1_1FlowAnimation_1_1FlowAnimation.html#a53b4a2c67f07fecf34dc4a96266d10cf" target="_top" xlink:title=" ">
<polygon fill="white" stroke="black" points="187.5,-366.5 187.5,-407.5 309.5,-407.5 309.5,-366.5 187.5,-366.5"/>
<text text-anchor="start" x="195.5" y="-395.5" font-family="Helvetica,sans-Serif" font-size="10.00">src_files.FlowAnimation.</text>
<text text-anchor="start" x="195.5" y="-384.5" font-family="Helvetica,sans-Serif" font-size="10.00">FlowAnimation.__toggle</text>
<text text-anchor="middle" x="248.5" y="-373.5" font-family="Helvetica,sans-Serif" font-size="10.00">_energy</text>
</a>
</g>
</g>
<!-- Node1&#45;&gt;Node6 -->
<g id="edge5" class="edge">
<title>Node1&#45;&gt;Node6</title>
<path fill="none" stroke="midnightblue" d="M91.12,-264.03C120.44,-287.09 176.94,-331.51 213.39,-360.18"/>
<polygon fill="midnightblue" stroke="midnightblue" points="211.28,-362.97 221.3,-366.4 215.6,-357.47 211.28,-362.97"/>
</g>
<!-- Node10 -->
<g id="node10" class="node">
<title>Node10</title>
<g id="a_node10"><a xlink:href="classsrc__files_1_1FlowAnimation_1_1FlowAnimation.html#acda8986ad315643a2bb365f0cb1d5834" target="_top" xlink:title=" ">
<polygon fill="white" stroke="black" points="187.5,-228.5 187.5,-269.5 309.5,-269.5 309.5,-228.5 187.5,-228.5"/>
<text text-anchor="start" x="195.5" y="-257.5" font-family="Helvetica,sans-Serif" font-size="10.00">src_files.FlowAnimation.</text>
<text text-anchor="start" x="195.5" y="-246.5" font-family="Helvetica,sans-Serif" font-size="10.00">FlowAnimation.__toggle</text>
<text text-anchor="middle" x="248.5" y="-235.5" font-family="Helvetica,sans-Serif" font-size="10.00">_timescales</text>
</a>
</g>
</g>
<!-- Node1&#45;&gt;Node10 -->
<g id="edge9" class="edge">
<title>Node1&#45;&gt;Node10</title>
<path fill="none" stroke="midnightblue" d="M142.12,-249C153.71,-249 165.73,-249 177.33,-249"/>
<polygon fill="midnightblue" stroke="midnightblue" points="177.39,-252.5 187.39,-249 177.39,-245.5 177.39,-252.5"/>
</g>
<!-- Node14 -->
<g id="node14" class="node">
<title>Node14</title>
<g id="a_node14"><a xlink:href="classsrc__files_1_1FlowAnimation_1_1FlowAnimation.html#a5bf1829b783741aa82fb5bdcf2342222" target="_top" xlink:title=" ">
<polygon fill="white" stroke="black" points="187.5,-114.5 187.5,-155.5 309.5,-155.5 309.5,-114.5 187.5,-114.5"/>
<text text-anchor="start" x="195.5" y="-143.5" font-family="Helvetica,sans-Serif" font-size="10.00">src_files.FlowAnimation.</text>
<text text-anchor="start" x="195.5" y="-132.5" font-family="Helvetica,sans-Serif" font-size="10.00">FlowAnimation.__toggle</text>
<text text-anchor="middle" x="248.5" y="-121.5" font-family="Helvetica,sans-Serif" font-size="10.00">_tracked</text>
</a>
</g>
</g>
<!-- Node1&#45;&gt;Node14 -->
<g id="edge13" class="edge">
<title>Node1&#45;&gt;Node14</title>
<path fill="none" stroke="midnightblue" d="M95.31,-233.86C123.84,-215.32 172.65,-183.62 207.29,-161.12"/>
<polygon fill="midnightblue" stroke="midnightblue" points="209.29,-163.99 215.77,-155.61 205.48,-158.12 209.29,-163.99"/>
</g>
<!-- Node18 -->
<g id="node18" class="node">
<title>Node18</title>
<g id="a_node18"><a xlink:href="classsrc__files_1_1FlowAnimation_1_1FlowAnimation.html#a62e8a3529e0064e1b04b6dfe5b3bcaae" target="_top" xlink:title=" ">
<polygon fill="white" stroke="black" points="178,-66 178,-96 319,-96 319,-66 178,-66"/>
<text text-anchor="start" x="186" y="-84" font-family="Helvetica,sans-Serif" font-size="10.00">src_files.FlowAnimation.</text>
<text text-anchor="middle" x="248.5" y="-73" font-family="Helvetica,sans-Serif" font-size="10.00">FlowAnimation.pause_movie</text>
</a>
</g>
</g>
<!-- Node1&#45;&gt;Node18 -->
<g id="edge17" class="edge">
<title>Node1&#45;&gt;Node18</title>
<path fill="none" stroke="midnightblue" d="M79.33,-233.58C94,-204.32 129.74,-140.51 178,-105 179.88,-103.62 181.85,-102.31 183.87,-101.07"/>
<polygon fill="midnightblue" stroke="midnightblue" points="185.97,-103.92 193.12,-96.1 182.65,-97.76 185.97,-103.92"/>
</g>
<!-- Node3 -->
<g id="node3" class="node">
<title>Node3</title>
<g id="a_node3"><a xlink:href="classsrc__files_1_1FlowAnimation_1_1FlowAnimation.html#a82e5fc842ff6fa51c332f80b4c5c374d" target="_top" xlink:title=" ">
<polygon fill="white" stroke="black" points="355,-624 355,-654 528,-654 528,-624 355,-624"/>
<text text-anchor="start" x="363" y="-642" font-family="Helvetica,sans-Serif" font-size="10.00">src_files.FlowAnimation.</text>
<text text-anchor="middle" x="441.5" y="-631" font-family="Helvetica,sans-Serif" font-size="10.00">FlowAnimation.__init_axAddMainout</text>
</a>
</g>
</g>
<!-- Node2&#45;&gt;Node3 -->
<g id="edge2" class="edge">
<title>Node2&#45;&gt;Node3</title>
<path fill="none" stroke="midnightblue" d="M281.25,-575.77C301.67,-588.43 329.14,-604.21 355,-615 359.77,-616.99 364.75,-618.87 369.82,-620.64"/>
<polygon fill="midnightblue" stroke="midnightblue" points="369.02,-624.06 379.62,-623.89 371.23,-617.42 369.02,-624.06"/>
</g>
<!-- Node4 -->
<g id="node4" class="node">
<title>Node4</title>
<g id="a_node4"><a xlink:href="classsrc__files_1_1FlowAnimation_1_1FlowAnimation.html#a8fc4810f1535c249641ab8cb7377d98b" target="_top" xlink:title=" ">
<polygon fill="white" stroke="black" points="376,-564.5 376,-605.5 507,-605.5 507,-564.5 376,-564.5"/>
<text text-anchor="start" x="384" y="-593.5" font-family="Helvetica,sans-Serif" font-size="10.00">src_files.FlowAnimation.</text>
<text text-anchor="start" x="384" y="-582.5" font-family="Helvetica,sans-Serif" font-size="10.00">FlowAnimation.__init_data</text>
<text text-anchor="middle" x="441.5" y="-571.5" font-family="Helvetica,sans-Serif" font-size="10.00">_addmainout</text>
</a>
</g>
</g>
<!-- Node2&#45;&gt;Node4 -->
<g id="edge3" class="edge">
<title>Node2&#45;&gt;Node4</title>
<path fill="none" stroke="midnightblue" d="M309.67,-564.45C327.47,-567.25 347.17,-570.34 365.77,-573.26"/>
<polygon fill="midnightblue" stroke="midnightblue" points="365.25,-576.72 375.67,-574.82 366.33,-569.81 365.25,-576.72"/>
</g>
<!-- Node5 -->
<g id="node5" class="node">
<title>Node5</title>
<g id="a_node5"><a xlink:href="classsrc__files_1_1FlowAnimation_1_1FlowAnimation.html#a91c176dad099715e90bf3d4c991e1d31" target="_top" xlink:title=" ">
<polygon fill="white" stroke="black" points="377.5,-504.5 377.5,-545.5 505.5,-545.5 505.5,-504.5 377.5,-504.5"/>
<text text-anchor="start" x="385.5" y="-533.5" font-family="Helvetica,sans-Serif" font-size="10.00">src_files.FlowAnimation.</text>
<text text-anchor="start" x="385.5" y="-522.5" font-family="Helvetica,sans-Serif" font-size="10.00">FlowAnimation.__init_plot</text>
<text text-anchor="middle" x="441.5" y="-511.5" font-family="Helvetica,sans-Serif" font-size="10.00">_addmainout</text>
</a>
</g>
</g>
<!-- Node2&#45;&gt;Node5 -->
<g id="edge4" class="edge">
<title>Node2&#45;&gt;Node5</title>
<path fill="none" stroke="midnightblue" d="M309.67,-545.55C327.93,-542.68 348.2,-539.5 367.22,-536.51"/>
<polygon fill="midnightblue" stroke="midnightblue" points="368,-539.93 377.33,-534.92 366.91,-533.02 368,-539.93"/>
</g>
<!-- Node7 -->
<g id="node7" class="node">
<title>Node7</title>
<g id="a_node7"><a xlink:href="classsrc__files_1_1FlowAnimation_1_1FlowAnimation.html#af102a367f95bf173f68afefb725758a6" target="_top" xlink:title=" ">
<polygon fill="white" stroke="black" points="366,-456 366,-486 517,-486 517,-456 366,-456"/>
<text text-anchor="start" x="374" y="-474" font-family="Helvetica,sans-Serif" font-size="10.00">src_files.FlowAnimation.</text>
<text text-anchor="middle" x="441.5" y="-463" font-family="Helvetica,sans-Serif" font-size="10.00">FlowAnimation.__init_axEnergy</text>
</a>
</g>
</g>
<!-- Node6&#45;&gt;Node7 -->
<g id="edge6" class="edge">
<title>Node6&#45;&gt;Node7</title>
<path fill="none" stroke="midnightblue" d="M281.25,-407.77C301.67,-420.43 329.14,-436.21 355,-447 359.77,-448.99 364.75,-450.87 369.82,-452.64"/>
<polygon fill="midnightblue" stroke="midnightblue" points="369.02,-456.06 379.62,-455.89 371.23,-449.42 369.02,-456.06"/>
</g>
<!-- Node8 -->
<g id="node8" class="node">
<title>Node8</title>
<g id="a_node8"><a xlink:href="classsrc__files_1_1FlowAnimation_1_1FlowAnimation.html#a9e88300af271ce4c397fb5b6368ffb68" target="_top" xlink:title=" ">
<polygon fill="white" stroke="black" points="376,-396.5 376,-437.5 507,-437.5 507,-396.5 376,-396.5"/>
<text text-anchor="start" x="384" y="-425.5" font-family="Helvetica,sans-Serif" font-size="10.00">src_files.FlowAnimation.</text>
<text text-anchor="start" x="384" y="-414.5" font-family="Helvetica,sans-Serif" font-size="10.00">FlowAnimation.__init_data</text>
<text text-anchor="middle" x="441.5" y="-403.5" font-family="Helvetica,sans-Serif" font-size="10.00">_energy</text>
</a>
</g>
</g>
<!-- Node6&#45;&gt;Node8 -->
<g id="edge7" class="edge">
<title>Node6&#45;&gt;Node8</title>
<path fill="none" stroke="midnightblue" d="M309.67,-396.45C327.47,-399.25 347.17,-402.34 365.77,-405.26"/>
<polygon fill="midnightblue" stroke="midnightblue" points="365.25,-408.72 375.67,-406.82 366.33,-401.81 365.25,-408.72"/>
</g>
<!-- Node9 -->
<g id="node9" class="node">
<title>Node9</title>
<g id="a_node9"><a xlink:href="classsrc__files_1_1FlowAnimation_1_1FlowAnimation.html#a4ad97a9e7a372a35eaeec7c6c0d99637" target="_top" xlink:title=" ">
<polygon fill="white" stroke="black" points="377.5,-336.5 377.5,-377.5 505.5,-377.5 505.5,-336.5 377.5,-336.5"/>
<text text-anchor="start" x="385.5" y="-365.5" font-family="Helvetica,sans-Serif" font-size="10.00">src_files.FlowAnimation.</text>
<text text-anchor="start" x="385.5" y="-354.5" font-family="Helvetica,sans-Serif" font-size="10.00">FlowAnimation.__init_plot</text>
<text text-anchor="middle" x="441.5" y="-343.5" font-family="Helvetica,sans-Serif" font-size="10.00">_energy</text>
</a>
</g>
</g>
<!-- Node6&#45;&gt;Node9 -->
<g id="edge8" class="edge">
<title>Node6&#45;&gt;Node9</title>
<path fill="none" stroke="midnightblue" d="M309.67,-377.55C327.93,-374.68 348.2,-371.5 367.22,-368.51"/>
<polygon fill="midnightblue" stroke="midnightblue" points="368,-371.93 377.33,-366.92 366.91,-365.02 368,-371.93"/>
</g>
<!-- Node11 -->
<g id="node11" class="node">
<title>Node11</title>
<g id="a_node11"><a xlink:href="classsrc__files_1_1FlowAnimation_1_1FlowAnimation.html#acf3dad87c92682e30112b49e466949c2" target="_top" xlink:title=" ">
<polygon fill="white" stroke="black" points="355.5,-288 355.5,-318 527.5,-318 527.5,-288 355.5,-288"/>
<text text-anchor="start" x="363.5" y="-306" font-family="Helvetica,sans-Serif" font-size="10.00">src_files.FlowAnimation.</text>
<text text-anchor="middle" x="441.5" y="-295" font-family="Helvetica,sans-Serif" font-size="10.00">FlowAnimation.__init_axTimescales</text>
</a>
</g>
</g>
<!-- Node10&#45;&gt;Node11 -->
<g id="edge10" class="edge">
<title>Node10&#45;&gt;Node11</title>
<path fill="none" stroke="midnightblue" d="M309.74,-266.17C324.54,-270.38 340.34,-274.86 355,-279 362.04,-280.99 369.4,-283.06 376.73,-285.13"/>
<polygon fill="midnightblue" stroke="midnightblue" points="376.1,-288.58 386.67,-287.92 377.99,-281.84 376.1,-288.58"/>
</g>
<!-- Node12 -->
<g id="node12" class="node">
<title>Node12</title>
<g id="a_node12"><a xlink:href="classsrc__files_1_1FlowAnimation_1_1FlowAnimation.html#a0e9148bf5756f81387be0f1c34c0b0f1" target="_top" xlink:title=" ">
<polygon fill="white" stroke="black" points="376,-228.5 376,-269.5 507,-269.5 507,-228.5 376,-228.5"/>
<text text-anchor="start" x="384" y="-257.5" font-family="Helvetica,sans-Serif" font-size="10.00">src_files.FlowAnimation.</text>
<text text-anchor="start" x="384" y="-246.5" font-family="Helvetica,sans-Serif" font-size="10.00">FlowAnimation.__init_data</text>
<text text-anchor="middle" x="441.5" y="-235.5" font-family="Helvetica,sans-Serif" font-size="10.00">_timescales</text>
</a>
</g>
</g>
<!-- Node10&#45;&gt;Node12 -->
<g id="edge11" class="edge">
<title>Node10&#45;&gt;Node12</title>
<path fill="none" stroke="midnightblue" d="M309.67,-249C327.39,-249 346.99,-249 365.51,-249"/>
<polygon fill="midnightblue" stroke="midnightblue" points="365.67,-252.5 375.67,-249 365.67,-245.5 365.67,-252.5"/>
</g>
<!-- Node13 -->
<g id="node13" class="node">
<title>Node13</title>
<g id="a_node13"><a xlink:href="classsrc__files_1_1FlowAnimation_1_1FlowAnimation.html#aad667b00d045fafe98a498ea392bab16" target="_top" xlink:title=" ">
<polygon fill="white" stroke="black" points="377.5,-168.5 377.5,-209.5 505.5,-209.5 505.5,-168.5 377.5,-168.5"/>
<text text-anchor="start" x="385.5" y="-197.5" font-family="Helvetica,sans-Serif" font-size="10.00">src_files.FlowAnimation.</text>
<text text-anchor="start" x="385.5" y="-186.5" font-family="Helvetica,sans-Serif" font-size="10.00">FlowAnimation.__init_plot</text>
<text text-anchor="middle" x="441.5" y="-175.5" font-family="Helvetica,sans-Serif" font-size="10.00">_timescales</text>
</a>
</g>
</g>
<!-- Node10&#45;&gt;Node13 -->
<g id="edge12" class="edge">
<title>Node10&#45;&gt;Node13</title>
<path fill="none" stroke="midnightblue" d="M309.67,-230.1C328.1,-224.31 348.57,-217.88 367.74,-211.86"/>
<polygon fill="midnightblue" stroke="midnightblue" points="368.84,-215.18 377.33,-208.84 366.74,-208.5 368.84,-215.18"/>
</g>
<!-- Node15 -->
<g id="node15" class="node">
<title>Node15</title>
<g id="a_node15"><a xlink:href="classsrc__files_1_1FlowAnimation_1_1FlowAnimation.html#a805c49c62b0dd55ec160f8bff49e81bc" target="_top" xlink:title=" ">
<polygon fill="white" stroke="black" points="363,-120 363,-150 520,-150 520,-120 363,-120"/>
<text text-anchor="start" x="371" y="-138" font-family="Helvetica,sans-Serif" font-size="10.00">src_files.FlowAnimation.</text>
<text text-anchor="middle" x="441.5" y="-127" font-family="Helvetica,sans-Serif" font-size="10.00">FlowAnimation.__init_axTracked</text>
</a>
</g>
</g>
<!-- Node14&#45;&gt;Node15 -->
<g id="edge14" class="edge">
<title>Node14&#45;&gt;Node15</title>
<path fill="none" stroke="midnightblue" d="M309.67,-135C323.35,-135 338.16,-135 352.73,-135"/>
<polygon fill="midnightblue" stroke="midnightblue" points="352.76,-138.5 362.76,-135 352.76,-131.5 352.76,-138.5"/>
</g>
<!-- Node16 -->
<g id="node16" class="node">
<title>Node16</title>
<g id="a_node16"><a xlink:href="classsrc__files_1_1FlowAnimation_1_1FlowAnimation.html#a7031b76d4d9ec67e745a8357a8704540" target="_top" xlink:title=" ">
<polygon fill="white" stroke="black" points="376,-60.5 376,-101.5 507,-101.5 507,-60.5 376,-60.5"/>
<text text-anchor="start" x="384" y="-89.5" font-family="Helvetica,sans-Serif" font-size="10.00">src_files.FlowAnimation.</text>
<text text-anchor="start" x="384" y="-78.5" font-family="Helvetica,sans-Serif" font-size="10.00">FlowAnimation.__init_data</text>
<text text-anchor="middle" x="441.5" y="-67.5" font-family="Helvetica,sans-Serif" font-size="10.00">_tracked</text>
</a>
</g>
</g>
<!-- Node14&#45;&gt;Node16 -->
<g id="edge15" class="edge">
<title>Node14&#45;&gt;Node16</title>
<path fill="none" stroke="midnightblue" d="M309.67,-117.99C327.55,-112.93 347.35,-107.34 366.02,-102.06"/>
<polygon fill="midnightblue" stroke="midnightblue" points="367,-105.42 375.67,-99.33 365.09,-98.68 367,-105.42"/>
</g>
<!-- Node17 -->
<g id="node17" class="node">
<title>Node17</title>
<g id="a_node17"><a xlink:href="classsrc__files_1_1FlowAnimation_1_1FlowAnimation.html#a86841076ebc4cc9ff1176c1a57f31d01" target="_top" xlink:title=" ">
<polygon fill="white" stroke="black" points="377.5,-0.5 377.5,-41.5 505.5,-41.5 505.5,-0.5 377.5,-0.5"/>
<text text-anchor="start" x="385.5" y="-29.5" font-family="Helvetica,sans-Serif" font-size="10.00">src_files.FlowAnimation.</text>
<text text-anchor="start" x="385.5" y="-18.5" font-family="Helvetica,sans-Serif" font-size="10.00">FlowAnimation.__init_plot</text>
<text text-anchor="middle" x="441.5" y="-7.5" font-family="Helvetica,sans-Serif" font-size="10.00">_tracked</text>
</a>
</g>
</g>
<!-- Node14&#45;&gt;Node17 -->
<g id="edge16" class="edge">
<title>Node14&#45;&gt;Node17</title>
<path fill="none" stroke="midnightblue" d="M306.9,-114.43C311.18,-111.89 315.28,-109.09 319,-106 341.47,-87.33 332,-69.01 355,-51 359.08,-47.81 363.52,-44.94 368.16,-42.37"/>
<polygon fill="midnightblue" stroke="midnightblue" points="369.94,-45.39 377.3,-37.78 366.79,-39.14 369.94,-45.39"/>
</g>
</g>
</svg>
        <g id="navigator" transform="translate(0 0)" fill="#404254">
                <rect fill="#f2f5e9" fill-opacity="0.5" stroke="#606060" stroke-width=".5" x="0" y="0" width="60" height="60"/>
                <use id="zoomplus" xlink:href="#zoomPlus" x="17" y="9" onmousedown="handleZoom(evt,'in')"/>
                <use id="zoomminus" xlink:href="#zoomMin" x="42" y="9" onmousedown="handleZoom(evt,'out')"/>
                <use id="reset" xlink:href="#resetDef" x="30" y="36" onmousedown="handleReset()"/>
                <g id="arrowUp" xlink:href="#dirArrow" transform="translate(30 24)" onmousedown="handlePan(0,-1)">
                  <use xlink:href="#rim" fill="#404040">
                        <set attributeName="fill" to="#808080" begin="arrowUp.mouseover" end="arrowUp.mouseout"/>
                  </use>
                  <path fill="none" stroke="white" stroke-width="1.5" d="M0,-3.0v7 M-2.5,-0.5L0,-3.0L2.5,-0.5"/>
                </g>
                <g id="arrowRight" xlink:href="#dirArrow" transform="rotate(90) translate(36 -43)" onmousedown="handlePan(1,0)">
                  <use xlink:href="#rim" fill="#404040">
                        <set attributeName="fill" to="#808080" begin="arrowRight.mouseover" end="arrowRight.mouseout"/>
                  </use>
                  <path fill="none" stroke="white" stroke-width="1.5" d="M0,-3.0v7 M-2.5,-0.5L0,-3.0L2.5,-0.5"/>
                </g>
                <g id="arrowDown" xlink:href="#dirArrow" transform="rotate(180) translate(-30 -48)" onmousedown="handlePan(0,1)">
                  <use xlink:href="#rim" fill="#404040">
                        <set attributeName="fill" to="#808080" begin="arrowDown.mouseover" end="arrowDown.mouseout"/>
                  </use>
                  <path fill="none" stroke="white" stroke-width="1.5" d="M0,-3.0v7 M-2.5,-0.5L0,-3.0L2.5,-0.5"/>
                </g>
                <g id="arrowLeft" xlink:href="#dirArrow" transform="rotate(270) translate(-36 17)" onmousedown="handlePan(-1,0)">
                  <use xlink:href="#rim" fill="#404040">
                        <set attributeName="fill" to="#808080" begin="arrowLeft.mouseover" end="arrowLeft.mouseout"/>
                  </use>
                  <path fill="none" stroke="white" stroke-width="1.5" d="M0,-3.0v7 M-2.5,-0.5L0,-3.0L2.5,-0.5"/>
                </g>
        </g>
        <svg viewBox="0 0 15 15" width="100%" height="30px" preserveAspectRatio="xMaxYMin meet">
         <g id="arrow_out" transform="scale(0.3 0.3)">
          <a xlink:href="classsrc__files_1_1FlowAnimation_1_1FlowAnimation_ac4304986d7dcdc2754ddeb09306f214b_cgraph_org.svg" target="_base">
           <rect id="button" ry="5" rx="5" y="6" x="6" height="38" width="38"
                fill="#f2f5e9" fill-opacity="0.5" stroke="#606060" stroke-width="1.0"/>
           <path id="arrow"
             d="M 11.500037,31.436501 C 11.940474,20.09759 22.043105,11.32322 32.158766,21.979434 L 37.068811,17.246167 C 37.068811,17.246167 37.088388,32 37.088388,32 L 22.160133,31.978069 C 22.160133,31.978069 26.997745,27.140456 26.997745,27.140456 C 18.528582,18.264221 13.291696,25.230495 11.500037,31.436501 z"
             style="fill:#404040;"/>
          </a>
         </g>
        </svg>
</svg>
