<?xml version="1.0" encoding="UTF-8" standalone="no"?>
<!DOCTYPE svg PUBLIC "-//W3C//DTD SVG 1.1//EN"
 "http://www.w3.org/Graphics/SVG/1.1/DTD/svg11.dtd">
<!-- Generated by graphviz version 2.44.0 ()
 -->
<!-- Title: bin.class_files.nucleus_multiple_class.nucleus_multiple.A_X Pages: 1 -->
<svg width="284pt" height="110pt"
 viewBox="0.00 0.00 284.00 110.00" xmlns="http://www.w3.org/2000/svg" xmlns:xlink="http://www.w3.org/1999/xlink">
<g id="graph0" class="graph" transform="scale(1 1) rotate(0) translate(4 106)">
<title>bin.class_files.nucleus_multiple_class.nucleus_multiple.A_X</title>
<polygon fill="white" stroke="transparent" points="-4,4 -4,-106 280,-106 280,4 -4,4"/>
<!-- Node1 -->
<g id="node1" class="node">
<title>Node1</title>
<g id="a_node1"><a xlink:title=" ">
<polygon fill="#bfbfbf" stroke="black" points="0,-30.5 0,-71.5 120,-71.5 120,-30.5 0,-30.5"/>
<text text-anchor="start" x="8" y="-59.5" font-family="Helvetica,sans-Serif" font-size="10.00">bin.class_files.nucleus</text>
<text text-anchor="start" x="8" y="-48.5" font-family="Helvetica,sans-Serif" font-size="10.00">_multiple_class.nucleus</text>
<text text-anchor="middle" x="60" y="-37.5" font-family="Helvetica,sans-Serif" font-size="10.00">_multiple.A_X</text>
</a>
</g>
</g>
<!-- Node2 -->
<g id="node2" class="node">
<title>Node2</title>
<g id="a_node2"><a xlink:href="classbin_1_1class__files_1_1nucleus__multiple__class_1_1nucleus__multiple.html#ac65a397805f0e4abf3cce66a03157eec" target="_top" xlink:title=" ">
<polygon fill="white" stroke="black" points="156,-60.5 156,-101.5 276,-101.5 276,-60.5 156,-60.5"/>
<text text-anchor="start" x="164" y="-89.5" font-family="Helvetica,sans-Serif" font-size="10.00">bin.class_files.nucleus</text>
<text text-anchor="start" x="164" y="-78.5" font-family="Helvetica,sans-Serif" font-size="10.00">_multiple_class.nucleus</text>
<text text-anchor="middle" x="216" y="-67.5" font-family="Helvetica,sans-Serif" font-size="10.00">_multiple.__sum_over</text>
</a>
</g>
</g>
<!-- Node1&#45;&gt;Node2 -->
<g id="edge1" class="edge">
<title>Node1&#45;&gt;Node2</title>
<path fill="none" stroke="midnightblue" d="M120.1,-62.51C128.51,-64.15 137.23,-65.85 145.81,-67.52"/>
<polygon fill="midnightblue" stroke="midnightblue" points="145.32,-70.99 155.8,-69.47 146.66,-64.12 145.32,-70.99"/>
</g>
<!-- Node3 -->
<g id="node3" class="node">
<title>Node3</title>
<g id="a_node3"><a xlink:href="classbin_1_1class__files_1_1nucleus__multiple__class_1_1nucleus__multiple.html#a34bb1264e87dbf9d143f7a6377249b0d" target="_top" xlink:title=" ">
<polygon fill="white" stroke="black" points="156,-0.5 156,-41.5 276,-41.5 276,-0.5 156,-0.5"/>
<text text-anchor="start" x="164" y="-29.5" font-family="Helvetica,sans-Serif" font-size="10.00">bin.class_files.nucleus</text>
<text text-anchor="start" x="164" y="-18.5" font-family="Helvetica,sans-Serif" font-size="10.00">_multiple_class.nucleus</text>
<text text-anchor="middle" x="216" y="-7.5" font-family="Helvetica,sans-Serif" font-size="10.00">_multiple.X</text>
</a>
</g>
</g>
<!-- Node1&#45;&gt;Node3 -->
<g id="edge2" class="edge">
<title>Node1&#45;&gt;Node3</title>
<path fill="none" stroke="midnightblue" d="M120.1,-39.49C128.51,-37.85 137.23,-36.15 145.81,-34.48"/>
<polygon fill="midnightblue" stroke="midnightblue" points="146.66,-37.88 155.8,-32.53 145.32,-31.01 146.66,-37.88"/>
</g>
</g>
</svg>
