<?xml version="1.0" encoding="UTF-8" standalone="no"?>
<!DOCTYPE svg PUBLIC "-//W3C//DTD SVG 1.1//EN"
 "http://www.w3.org/Graphics/SVG/1.1/DTD/svg11.dtd">
<!-- Generated by graphviz version 2.44.0 ()
 -->
<!-- Title: src_files.FlowAnimation.FlowAnimation.toggle_button_event Pages: 1 -->
<svg width="546pt" height="663pt"
 viewBox="0.00 0.00 546.00 662.50" xmlns="http://www.w3.org/2000/svg" xmlns:xlink="http://www.w3.org/1999/xlink">
<g id="graph0" class="graph" transform="scale(1 1) rotate(0) translate(4 658.5)">
<title>src_files.FlowAnimation.FlowAnimation.toggle_button_event</title>
<polygon fill="white" stroke="transparent" points="-4,4 -4,-658.5 542,-658.5 542,4 -4,4"/>
<!-- Node1 -->
<g id="node1" class="node">
<title>Node1</title>
<g id="a_node1"><a xlink:title=" ">
<polygon fill="#bfbfbf" stroke="black" points="0,-315 0,-345 171,-345 171,-315 0,-315"/>
<text text-anchor="start" x="8" y="-333" font-family="Helvetica,sans-Serif" font-size="10.00">src_files.FlowAnimation.</text>
<text text-anchor="middle" x="85.5" y="-322" font-family="Helvetica,sans-Serif" font-size="10.00">FlowAnimation.toggle_button_event</text>
</a>
</g>
</g>
<!-- Node2 -->
<g id="node2" class="node">
<title>Node2</title>
<g id="a_node2"><a xlink:href="classsrc__files_1_1FlowAnimation_1_1FlowAnimation.html#ab9f628de100e29971284c03a1d3c9820" target="_top" xlink:title=" ">
<polygon fill="white" stroke="black" points="207,-534.5 207,-575.5 329,-575.5 329,-534.5 207,-534.5"/>
<text text-anchor="start" x="215" y="-563.5" font-family="Helvetica,sans-Serif" font-size="10.00">src_files.FlowAnimation.</text>
<text text-anchor="start" x="215" y="-552.5" font-family="Helvetica,sans-Serif" font-size="10.00">FlowAnimation.__toggle</text>
<text text-anchor="middle" x="268" y="-541.5" font-family="Helvetica,sans-Serif" font-size="10.00">_addmainout</text>
</a>
</g>
</g>
<!-- Node1&#45;&gt;Node2 -->
<g id="edge1" class="edge">
<title>Node1&#45;&gt;Node2</title>
<path fill="none" stroke="midnightblue" d="M98.62,-345.11C128.36,-382.18 205.31,-478.11 244.03,-526.37"/>
<polygon fill="midnightblue" stroke="midnightblue" points="241.37,-528.64 250.35,-534.25 246.83,-524.26 241.37,-528.64"/>
</g>
<!-- Node6 -->
<g id="node6" class="node">
<title>Node6</title>
<g id="a_node6"><a xlink:href="classsrc__files_1_1FlowAnimation_1_1FlowAnimation.html#a53b4a2c67f07fecf34dc4a96266d10cf" target="_top" xlink:title=" ">
<polygon fill="white" stroke="black" points="207,-366.5 207,-407.5 329,-407.5 329,-366.5 207,-366.5"/>
<text text-anchor="start" x="215" y="-395.5" font-family="Helvetica,sans-Serif" font-size="10.00">src_files.FlowAnimation.</text>
<text text-anchor="start" x="215" y="-384.5" font-family="Helvetica,sans-Serif" font-size="10.00">FlowAnimation.__toggle</text>
<text text-anchor="middle" x="268" y="-373.5" font-family="Helvetica,sans-Serif" font-size="10.00">_energy</text>
</a>
</g>
</g>
<!-- Node1&#45;&gt;Node6 -->
<g id="edge5" class="edge">
<title>Node1&#45;&gt;Node6</title>
<path fill="none" stroke="midnightblue" d="M134.4,-345.13C153.69,-351.22 176.32,-358.36 197.37,-365.01"/>
<polygon fill="midnightblue" stroke="midnightblue" points="196.32,-368.35 206.91,-368.02 198.43,-361.68 196.32,-368.35"/>
</g>
<!-- Node10 -->
<g id="node10" class="node">
<title>Node10</title>
<g id="a_node10"><a xlink:href="classsrc__files_1_1FlowAnimation_1_1FlowAnimation.html#acda8986ad315643a2bb365f0cb1d5834" target="_top" xlink:title=" ">
<polygon fill="white" stroke="black" points="207,-255.5 207,-296.5 329,-296.5 329,-255.5 207,-255.5"/>
<text text-anchor="start" x="215" y="-284.5" font-family="Helvetica,sans-Serif" font-size="10.00">src_files.FlowAnimation.</text>
<text text-anchor="start" x="215" y="-273.5" font-family="Helvetica,sans-Serif" font-size="10.00">FlowAnimation.__toggle</text>
<text text-anchor="middle" x="268" y="-262.5" font-family="Helvetica,sans-Serif" font-size="10.00">_timescales</text>
</a>
</g>
</g>
<!-- Node1&#45;&gt;Node10 -->
<g id="edge9" class="edge">
<title>Node1&#45;&gt;Node10</title>
<path fill="none" stroke="midnightblue" d="M136.78,-314.96C155.43,-309.38 176.92,-302.95 197.01,-296.94"/>
<polygon fill="midnightblue" stroke="midnightblue" points="198.16,-300.25 206.74,-294.03 196.16,-293.54 198.16,-300.25"/>
</g>
<!-- Node14 -->
<g id="node14" class="node">
<title>Node14</title>
<g id="a_node14"><a xlink:href="classsrc__files_1_1FlowAnimation_1_1FlowAnimation.html#a5bf1829b783741aa82fb5bdcf2342222" target="_top" xlink:title=" ">
<polygon fill="white" stroke="black" points="207,-87.5 207,-128.5 329,-128.5 329,-87.5 207,-87.5"/>
<text text-anchor="start" x="215" y="-116.5" font-family="Helvetica,sans-Serif" font-size="10.00">src_files.FlowAnimation.</text>
<text text-anchor="start" x="215" y="-105.5" font-family="Helvetica,sans-Serif" font-size="10.00">FlowAnimation.__toggle</text>
<text text-anchor="middle" x="268" y="-94.5" font-family="Helvetica,sans-Serif" font-size="10.00">_tracked</text>
</a>
</g>
</g>
<!-- Node1&#45;&gt;Node14 -->
<g id="edge13" class="edge">
<title>Node1&#45;&gt;Node14</title>
<path fill="none" stroke="midnightblue" d="M98.91,-314.74C128.8,-277.98 205.18,-184.03 243.84,-136.48"/>
<polygon fill="midnightblue" stroke="midnightblue" points="246.56,-138.69 250.15,-128.72 241.13,-134.27 246.56,-138.69"/>
</g>
<!-- Node3 -->
<g id="node3" class="node">
<title>Node3</title>
<g id="a_node3"><a xlink:href="classsrc__files_1_1FlowAnimation_1_1FlowAnimation.html#a82e5fc842ff6fa51c332f80b4c5c374d" target="_top" xlink:title=" ">
<polygon fill="white" stroke="black" points="365,-624 365,-654 538,-654 538,-624 365,-624"/>
<text text-anchor="start" x="373" y="-642" font-family="Helvetica,sans-Serif" font-size="10.00">src_files.FlowAnimation.</text>
<text text-anchor="middle" x="451.5" y="-631" font-family="Helvetica,sans-Serif" font-size="10.00">FlowAnimation.__init_axAddMainout</text>
</a>
</g>
</g>
<!-- Node2&#45;&gt;Node3 -->
<g id="edge2" class="edge">
<title>Node2&#45;&gt;Node3</title>
<path fill="none" stroke="midnightblue" d="M297.21,-575.64C315.74,-588.41 340.91,-604.35 365,-615 369.44,-616.96 374.08,-618.8 378.8,-620.52"/>
<polygon fill="midnightblue" stroke="midnightblue" points="377.98,-623.94 388.58,-623.89 380.26,-617.33 377.98,-623.94"/>
</g>
<!-- Node4 -->
<g id="node4" class="node">
<title>Node4</title>
<g id="a_node4"><a xlink:href="classsrc__files_1_1FlowAnimation_1_1FlowAnimation.html#a8fc4810f1535c249641ab8cb7377d98b" target="_top" xlink:title=" ">
<polygon fill="white" stroke="black" points="386,-564.5 386,-605.5 517,-605.5 517,-564.5 386,-564.5"/>
<text text-anchor="start" x="394" y="-593.5" font-family="Helvetica,sans-Serif" font-size="10.00">src_files.FlowAnimation.</text>
<text text-anchor="start" x="394" y="-582.5" font-family="Helvetica,sans-Serif" font-size="10.00">FlowAnimation.__init_data</text>
<text text-anchor="middle" x="451.5" y="-571.5" font-family="Helvetica,sans-Serif" font-size="10.00">_addmainout</text>
</a>
</g>
</g>
<!-- Node2&#45;&gt;Node4 -->
<g id="edge3" class="edge">
<title>Node2&#45;&gt;Node4</title>
<path fill="none" stroke="midnightblue" d="M329.18,-564.95C344.08,-567.41 360.23,-570.08 375.73,-572.64"/>
<polygon fill="midnightblue" stroke="midnightblue" points="375.36,-576.13 385.8,-574.31 376.5,-569.22 375.36,-576.13"/>
</g>
<!-- Node5 -->
<g id="node5" class="node">
<title>Node5</title>
<g id="a_node5"><a xlink:href="classsrc__files_1_1FlowAnimation_1_1FlowAnimation.html#a91c176dad099715e90bf3d4c991e1d31" target="_top" xlink:title=" ">
<polygon fill="white" stroke="black" points="387.5,-504.5 387.5,-545.5 515.5,-545.5 515.5,-504.5 387.5,-504.5"/>
<text text-anchor="start" x="395.5" y="-533.5" font-family="Helvetica,sans-Serif" font-size="10.00">src_files.FlowAnimation.</text>
<text text-anchor="start" x="395.5" y="-522.5" font-family="Helvetica,sans-Serif" font-size="10.00">FlowAnimation.__init_plot</text>
<text text-anchor="middle" x="451.5" y="-511.5" font-family="Helvetica,sans-Serif" font-size="10.00">_addmainout</text>
</a>
</g>
</g>
<!-- Node2&#45;&gt;Node5 -->
<g id="edge4" class="edge">
<title>Node2&#45;&gt;Node5</title>
<path fill="none" stroke="midnightblue" d="M329.18,-545.05C344.65,-542.5 361.46,-539.72 377.5,-537.07"/>
<polygon fill="midnightblue" stroke="midnightblue" points="378.07,-540.52 387.37,-535.44 376.93,-533.61 378.07,-540.52"/>
</g>
<!-- Node7 -->
<g id="node7" class="node">
<title>Node7</title>
<g id="a_node7"><a xlink:href="classsrc__files_1_1FlowAnimation_1_1FlowAnimation.html#af102a367f95bf173f68afefb725758a6" target="_top" xlink:title=" ">
<polygon fill="white" stroke="black" points="376,-456 376,-486 527,-486 527,-456 376,-456"/>
<text text-anchor="start" x="384" y="-474" font-family="Helvetica,sans-Serif" font-size="10.00">src_files.FlowAnimation.</text>
<text text-anchor="middle" x="451.5" y="-463" font-family="Helvetica,sans-Serif" font-size="10.00">FlowAnimation.__init_axEnergy</text>
</a>
</g>
</g>
<!-- Node6&#45;&gt;Node7 -->
<g id="edge6" class="edge">
<title>Node6&#45;&gt;Node7</title>
<path fill="none" stroke="midnightblue" d="M297.21,-407.64C315.74,-420.41 340.91,-436.35 365,-447 369.44,-448.96 374.08,-450.8 378.8,-452.52"/>
<polygon fill="midnightblue" stroke="midnightblue" points="377.98,-455.94 388.58,-455.89 380.26,-449.33 377.98,-455.94"/>
</g>
<!-- Node8 -->
<g id="node8" class="node">
<title>Node8</title>
<g id="a_node8"><a xlink:href="classsrc__files_1_1FlowAnimation_1_1FlowAnimation.html#a9e88300af271ce4c397fb5b6368ffb68" target="_top" xlink:title=" ">
<polygon fill="white" stroke="black" points="386,-396.5 386,-437.5 517,-437.5 517,-396.5 386,-396.5"/>
<text text-anchor="start" x="394" y="-425.5" font-family="Helvetica,sans-Serif" font-size="10.00">src_files.FlowAnimation.</text>
<text text-anchor="start" x="394" y="-414.5" font-family="Helvetica,sans-Serif" font-size="10.00">FlowAnimation.__init_data</text>
<text text-anchor="middle" x="451.5" y="-403.5" font-family="Helvetica,sans-Serif" font-size="10.00">_energy</text>
</a>
</g>
</g>
<!-- Node6&#45;&gt;Node8 -->
<g id="edge7" class="edge">
<title>Node6&#45;&gt;Node8</title>
<path fill="none" stroke="midnightblue" d="M329.18,-396.95C344.08,-399.41 360.23,-402.08 375.73,-404.64"/>
<polygon fill="midnightblue" stroke="midnightblue" points="375.36,-408.13 385.8,-406.31 376.5,-401.22 375.36,-408.13"/>
</g>
<!-- Node9 -->
<g id="node9" class="node">
<title>Node9</title>
<g id="a_node9"><a xlink:href="classsrc__files_1_1FlowAnimation_1_1FlowAnimation.html#a4ad97a9e7a372a35eaeec7c6c0d99637" target="_top" xlink:title=" ">
<polygon fill="white" stroke="black" points="387.5,-336.5 387.5,-377.5 515.5,-377.5 515.5,-336.5 387.5,-336.5"/>
<text text-anchor="start" x="395.5" y="-365.5" font-family="Helvetica,sans-Serif" font-size="10.00">src_files.FlowAnimation.</text>
<text text-anchor="start" x="395.5" y="-354.5" font-family="Helvetica,sans-Serif" font-size="10.00">FlowAnimation.__init_plot</text>
<text text-anchor="middle" x="451.5" y="-343.5" font-family="Helvetica,sans-Serif" font-size="10.00">_energy</text>
</a>
</g>
</g>
<!-- Node6&#45;&gt;Node9 -->
<g id="edge8" class="edge">
<title>Node6&#45;&gt;Node9</title>
<path fill="none" stroke="midnightblue" d="M329.18,-377.05C344.65,-374.5 361.46,-371.72 377.5,-369.07"/>
<polygon fill="midnightblue" stroke="midnightblue" points="378.07,-372.52 387.37,-367.44 376.93,-365.61 378.07,-372.52"/>
</g>
<!-- Node11 -->
<g id="node11" class="node">
<title>Node11</title>
<g id="a_node11"><a xlink:href="classsrc__files_1_1FlowAnimation_1_1FlowAnimation.html#acf3dad87c92682e30112b49e466949c2" target="_top" xlink:title=" ">
<polygon fill="white" stroke="black" points="365.5,-288 365.5,-318 537.5,-318 537.5,-288 365.5,-288"/>
<text text-anchor="start" x="373.5" y="-306" font-family="Helvetica,sans-Serif" font-size="10.00">src_files.FlowAnimation.</text>
<text text-anchor="middle" x="451.5" y="-295" font-family="Helvetica,sans-Serif" font-size="10.00">FlowAnimation.__init_axTimescales</text>
</a>
</g>
</g>
<!-- Node10&#45;&gt;Node11 -->
<g id="edge10" class="edge">
<title>Node10&#45;&gt;Node11</title>
<path fill="none" stroke="midnightblue" d="M329.18,-284.95C337.58,-286.2 346.37,-287.51 355.22,-288.83"/>
<polygon fill="midnightblue" stroke="midnightblue" points="354.82,-292.3 365.22,-290.31 355.85,-285.38 354.82,-292.3"/>
</g>
<!-- Node12 -->
<g id="node12" class="node">
<title>Node12</title>
<g id="a_node12"><a xlink:href="classsrc__files_1_1FlowAnimation_1_1FlowAnimation.html#a0e9148bf5756f81387be0f1c34c0b0f1" target="_top" xlink:title=" ">
<polygon fill="white" stroke="black" points="386,-228.5 386,-269.5 517,-269.5 517,-228.5 386,-228.5"/>
<text text-anchor="start" x="394" y="-257.5" font-family="Helvetica,sans-Serif" font-size="10.00">src_files.FlowAnimation.</text>
<text text-anchor="start" x="394" y="-246.5" font-family="Helvetica,sans-Serif" font-size="10.00">FlowAnimation.__init_data</text>
<text text-anchor="middle" x="451.5" y="-235.5" font-family="Helvetica,sans-Serif" font-size="10.00">_timescales</text>
</a>
</g>
</g>
<!-- Node10&#45;&gt;Node12 -->
<g id="edge11" class="edge">
<title>Node10&#45;&gt;Node12</title>
<path fill="none" stroke="midnightblue" d="M329.18,-267.05C344.08,-264.83 360.23,-262.43 375.73,-260.12"/>
<polygon fill="midnightblue" stroke="midnightblue" points="376.42,-263.56 385.8,-258.62 375.39,-256.63 376.42,-263.56"/>
</g>
<!-- Node13 -->
<g id="node13" class="node">
<title>Node13</title>
<g id="a_node13"><a xlink:href="classsrc__files_1_1FlowAnimation_1_1FlowAnimation.html#aad667b00d045fafe98a498ea392bab16" target="_top" xlink:title=" ">
<polygon fill="white" stroke="black" points="387.5,-168.5 387.5,-209.5 515.5,-209.5 515.5,-168.5 387.5,-168.5"/>
<text text-anchor="start" x="395.5" y="-197.5" font-family="Helvetica,sans-Serif" font-size="10.00">src_files.FlowAnimation.</text>
<text text-anchor="start" x="395.5" y="-186.5" font-family="Helvetica,sans-Serif" font-size="10.00">FlowAnimation.__init_plot</text>
<text text-anchor="middle" x="451.5" y="-175.5" font-family="Helvetica,sans-Serif" font-size="10.00">_timescales</text>
</a>
</g>
</g>
<!-- Node10&#45;&gt;Node13 -->
<g id="edge12" class="edge">
<title>Node10&#45;&gt;Node13</title>
<path fill="none" stroke="midnightblue" d="M300.14,-255.37C318.52,-243.74 342.52,-229.49 365,-219 369.12,-217.08 373.4,-215.21 377.75,-213.4"/>
<polygon fill="midnightblue" stroke="midnightblue" points="379.37,-216.52 387.36,-209.55 376.77,-210.02 379.37,-216.52"/>
</g>
<!-- Node15 -->
<g id="node15" class="node">
<title>Node15</title>
<g id="a_node15"><a xlink:href="classsrc__files_1_1FlowAnimation_1_1FlowAnimation.html#a805c49c62b0dd55ec160f8bff49e81bc" target="_top" xlink:title=" ">
<polygon fill="white" stroke="black" points="373,-120 373,-150 530,-150 530,-120 373,-120"/>
<text text-anchor="start" x="381" y="-138" font-family="Helvetica,sans-Serif" font-size="10.00">src_files.FlowAnimation.</text>
<text text-anchor="middle" x="451.5" y="-127" font-family="Helvetica,sans-Serif" font-size="10.00">FlowAnimation.__init_axTracked</text>
</a>
</g>
</g>
<!-- Node14&#45;&gt;Node15 -->
<g id="edge14" class="edge">
<title>Node14&#45;&gt;Node15</title>
<path fill="none" stroke="midnightblue" d="M329.18,-116.95C339.96,-118.56 351.38,-120.26 362.75,-121.95"/>
<polygon fill="midnightblue" stroke="midnightblue" points="362.29,-125.42 372.7,-123.43 363.32,-118.49 362.29,-125.42"/>
</g>
<!-- Node16 -->
<g id="node16" class="node">
<title>Node16</title>
<g id="a_node16"><a xlink:href="classsrc__files_1_1FlowAnimation_1_1FlowAnimation.html#a7031b76d4d9ec67e745a8357a8704540" target="_top" xlink:title=" ">
<polygon fill="white" stroke="black" points="386,-60.5 386,-101.5 517,-101.5 517,-60.5 386,-60.5"/>
<text text-anchor="start" x="394" y="-89.5" font-family="Helvetica,sans-Serif" font-size="10.00">src_files.FlowAnimation.</text>
<text text-anchor="start" x="394" y="-78.5" font-family="Helvetica,sans-Serif" font-size="10.00">FlowAnimation.__init_data</text>
<text text-anchor="middle" x="451.5" y="-67.5" font-family="Helvetica,sans-Serif" font-size="10.00">_tracked</text>
</a>
</g>
</g>
<!-- Node14&#45;&gt;Node16 -->
<g id="edge15" class="edge">
<title>Node14&#45;&gt;Node16</title>
<path fill="none" stroke="midnightblue" d="M329.18,-99.05C344.08,-96.83 360.23,-94.43 375.73,-92.12"/>
<polygon fill="midnightblue" stroke="midnightblue" points="376.42,-95.56 385.8,-90.62 375.39,-88.63 376.42,-95.56"/>
</g>
<!-- Node17 -->
<g id="node17" class="node">
<title>Node17</title>
<g id="a_node17"><a xlink:href="classsrc__files_1_1FlowAnimation_1_1FlowAnimation.html#a86841076ebc4cc9ff1176c1a57f31d01" target="_top" xlink:title=" ">
<polygon fill="white" stroke="black" points="387.5,-0.5 387.5,-41.5 515.5,-41.5 515.5,-0.5 387.5,-0.5"/>
<text text-anchor="start" x="395.5" y="-29.5" font-family="Helvetica,sans-Serif" font-size="10.00">src_files.FlowAnimation.</text>
<text text-anchor="start" x="395.5" y="-18.5" font-family="Helvetica,sans-Serif" font-size="10.00">FlowAnimation.__init_plot</text>
<text text-anchor="middle" x="451.5" y="-7.5" font-family="Helvetica,sans-Serif" font-size="10.00">_tracked</text>
</a>
</g>
</g>
<!-- Node14&#45;&gt;Node17 -->
<g id="edge16" class="edge">
<title>Node14&#45;&gt;Node17</title>
<path fill="none" stroke="midnightblue" d="M300.14,-87.37C318.52,-75.74 342.52,-61.49 365,-51 369.12,-49.08 373.4,-47.21 377.75,-45.4"/>
<polygon fill="midnightblue" stroke="midnightblue" points="379.37,-48.52 387.36,-41.55 376.77,-42.02 379.37,-48.52"/>
</g>
</g>
</svg>
