<?xml version="1.0" encoding="UTF-8" standalone="no"?>
<!DOCTYPE svg PUBLIC "-//W3C//DTD SVG 1.1//EN"
 "http://www.w3.org/Graphics/SVG/1.1/DTD/svg11.dtd">
<!-- Generated by graphviz version 2.44.0 ()
 -->
<!-- Title: src_files.wreader.wreader.snapshot_time Pages: 1 -->
<svg width="719pt" height="39pt"
 viewBox="0.00 0.00 719.00 39.00" xmlns="http://www.w3.org/2000/svg" xmlns:xlink="http://www.w3.org/1999/xlink">
<g id="graph0" class="graph" transform="scale(1 1) rotate(0) translate(4 35)">
<title>src_files.wreader.wreader.snapshot_time</title>
<polygon fill="white" stroke="transparent" points="-4,4 -4,-35 715,-35 715,4 -4,4"/>
<!-- Node1 -->
<g id="node1" class="node">
<title>Node1</title>
<g id="a_node1"><a xlink:title=" ">
<polygon fill="#bfbfbf" stroke="black" points="0,-6 0,-25 192,-25 192,-6 0,-6"/>
<text text-anchor="middle" x="96" y="-13" font-family="Helvetica,sans-Serif" font-size="10.00">src_files.wreader.wreader.snapshot_time</text>
</a>
</g>
</g>
<!-- Node2 -->
<g id="node2" class="node">
<title>Node2</title>
<g id="a_node2"><a xlink:href="classsrc__files_1_1wreader_1_1wreader.html#a2f6c8d27b3383c5e072291ed76f6f028" target="_top" xlink:title=" ">
<polygon fill="white" stroke="black" points="228,-0.5 228,-30.5 356,-30.5 356,-0.5 228,-0.5"/>
<text text-anchor="start" x="236" y="-18.5" font-family="Helvetica,sans-Serif" font-size="10.00">src_files.wreader.wreader.</text>
<text text-anchor="middle" x="292" y="-7.5" font-family="Helvetica,sans-Serif" font-size="10.00">__read_snapshots</text>
</a>
</g>
</g>
<!-- Node1&#45;&gt;Node2 -->
<g id="edge1" class="edge">
<title>Node1&#45;&gt;Node2</title>
<path fill="none" stroke="midnightblue" d="M192.01,-15.5C200.68,-15.5 209.37,-15.5 217.8,-15.5"/>
<polygon fill="midnightblue" stroke="midnightblue" points="217.94,-19 227.94,-15.5 217.94,-12 217.94,-19"/>
</g>
<!-- Node3 -->
<g id="node3" class="node">
<title>Node3</title>
<g id="a_node3"><a xlink:href="classsrc__files_1_1wreader_1_1wreader.html#a6cc2d629d39d6f1c36f484c8718449e0" target="_top" xlink:title=" ">
<polygon fill="white" stroke="black" points="392,-0.5 392,-30.5 547,-30.5 547,-0.5 392,-0.5"/>
<text text-anchor="start" x="400" y="-18.5" font-family="Helvetica,sans-Serif" font-size="10.00">src_files.wreader.wreader.check</text>
<text text-anchor="middle" x="469.5" y="-7.5" font-family="Helvetica,sans-Serif" font-size="10.00">_existence</text>
</a>
</g>
</g>
<!-- Node2&#45;&gt;Node3 -->
<g id="edge2" class="edge">
<title>Node2&#45;&gt;Node3</title>
<path fill="none" stroke="midnightblue" d="M356.36,-15.5C364.62,-15.5 373.19,-15.5 381.74,-15.5"/>
<polygon fill="midnightblue" stroke="midnightblue" points="381.76,-19 391.76,-15.5 381.76,-12 381.76,-19"/>
</g>
<!-- Node4 -->
<g id="node4" class="node">
<title>Node4</title>
<g id="a_node4"><a xlink:href="classsrc__files_1_1wreader_1_1wreader.html#ad7decec8890f297e25512ecb6fea313a" target="_top" xlink:title=" ">
<polygon fill="white" stroke="black" points="583,-0.5 583,-30.5 711,-30.5 711,-0.5 583,-0.5"/>
<text text-anchor="start" x="591" y="-18.5" font-family="Helvetica,sans-Serif" font-size="10.00">src_files.wreader.wreader.</text>
<text text-anchor="middle" x="647" y="-7.5" font-family="Helvetica,sans-Serif" font-size="10.00">__check_files</text>
</a>
</g>
</g>
<!-- Node3&#45;&gt;Node4 -->
<g id="edge3" class="edge">
<title>Node3&#45;&gt;Node4</title>
<path fill="none" stroke="midnightblue" d="M547.22,-15.5C555.68,-15.5 564.28,-15.5 572.69,-15.5"/>
<polygon fill="midnightblue" stroke="midnightblue" points="572.85,-19 582.85,-15.5 572.85,-12 572.85,-19"/>
</g>
</g>
</svg>
