<?xml version="1.0" encoding="UTF-8" standalone="no"?>
<!DOCTYPE svg PUBLIC "-//W3C//DTD SVG 1.1//EN"
 "http://www.w3.org/Graphics/SVG/1.1/DTD/svg11.dtd">
<!-- Generated by graphviz version 2.44.0 ()
 -->
<!-- Title: src_files.nucleus_multiple_class.nucleus_multiple.__mul__ Pages: 1 -->
<svg width="485pt" height="230pt"
 viewBox="0.00 0.00 485.00 230.00" xmlns="http://www.w3.org/2000/svg" xmlns:xlink="http://www.w3.org/1999/xlink">
<g id="graph0" class="graph" transform="scale(1 1) rotate(0) translate(4 226)">
<title>src_files.nucleus_multiple_class.nucleus_multiple.__mul__</title>
<polygon fill="white" stroke="transparent" points="-4,4 -4,-226 481,-226 481,4 -4,4"/>
<!-- Node1 -->
<g id="node1" class="node">
<title>Node1</title>
<g id="a_node1"><a xlink:title=" ">
<polygon fill="#bfbfbf" stroke="black" points="0,-96 0,-126 159,-126 159,-96 0,-96"/>
<text text-anchor="start" x="8" y="-114" font-family="Helvetica,sans-Serif" font-size="10.00">src_files.nucleus_multiple</text>
<text text-anchor="middle" x="79.5" y="-103" font-family="Helvetica,sans-Serif" font-size="10.00">_class.nucleus_multiple.__mul__</text>
</a>
</g>
</g>
<!-- Node2 -->
<g id="node2" class="node">
<title>Node2</title>
<g id="a_node2"><a xlink:href="classbin_1_1class__files_1_1nucleus__multiple__class_1_1nucleus__multiple.html#a0fdfcbebc433ec89b478adc954d4532c" target="_top" xlink:title=" ">
<polygon fill="white" stroke="black" points="195,-180.5 195,-221.5 323,-221.5 323,-180.5 195,-180.5"/>
<text text-anchor="start" x="203" y="-209.5" font-family="Helvetica,sans-Serif" font-size="10.00">bin.class_files.nucleus</text>
<text text-anchor="start" x="203" y="-198.5" font-family="Helvetica,sans-Serif" font-size="10.00">_multiple_class.nucleus</text>
<text text-anchor="middle" x="259" y="-187.5" font-family="Helvetica,sans-Serif" font-size="10.00">_multiple.__init_with_data</text>
</a>
</g>
</g>
<!-- Node1&#45;&gt;Node2 -->
<g id="edge1" class="edge">
<title>Node1&#45;&gt;Node2</title>
<path fill="none" stroke="midnightblue" d="M108.58,-126.1C131.66,-138.42 165.29,-156.15 195,-171 198.28,-172.64 201.67,-174.31 205.09,-175.99"/>
<polygon fill="midnightblue" stroke="midnightblue" points="203.65,-179.18 214.18,-180.4 206.71,-172.88 203.65,-179.18"/>
</g>
<!-- Node4 -->
<g id="node4" class="node">
<title>Node4</title>
<g id="a_node4"><a xlink:href="classsrc__files_1_1nucleus__multiple__class_1_1nucleus__multiple.html#aa062b647871d92716d07c5b531012778" target="_top" xlink:title=" ">
<polygon fill="white" stroke="black" points="195,-120.5 195,-161.5 323,-161.5 323,-120.5 195,-120.5"/>
<text text-anchor="start" x="203" y="-149.5" font-family="Helvetica,sans-Serif" font-size="10.00">src_files.nucleus_multiple</text>
<text text-anchor="start" x="203" y="-138.5" font-family="Helvetica,sans-Serif" font-size="10.00">_class.nucleus_multiple.</text>
<text text-anchor="middle" x="259" y="-127.5" font-family="Helvetica,sans-Serif" font-size="10.00">__init_with_data</text>
</a>
</g>
</g>
<!-- Node1&#45;&gt;Node4 -->
<g id="edge3" class="edge">
<title>Node1&#45;&gt;Node4</title>
<path fill="none" stroke="midnightblue" d="M159.13,-124.29C167.73,-125.74 176.45,-127.22 184.98,-128.66"/>
<polygon fill="midnightblue" stroke="midnightblue" points="184.43,-132.12 194.88,-130.33 185.6,-125.21 184.43,-132.12"/>
</g>
<!-- Node5 -->
<g id="node5" class="node">
<title>Node5</title>
<g id="a_node5"><a xlink:href="classbin_1_1class__files_1_1nucleus__multiple__class_1_1nucleus__multiple.html#ad429e18b5200db81490b842fd21b737e" target="_top" xlink:title=" ">
<polygon fill="white" stroke="black" points="196,-60.5 196,-101.5 322,-101.5 322,-60.5 196,-60.5"/>
<text text-anchor="start" x="204" y="-89.5" font-family="Helvetica,sans-Serif" font-size="10.00">bin.class_files.nucleus</text>
<text text-anchor="start" x="204" y="-78.5" font-family="Helvetica,sans-Serif" font-size="10.00">_multiple_class.nucleus</text>
<text text-anchor="middle" x="259" y="-67.5" font-family="Helvetica,sans-Serif" font-size="10.00">_multiple.__merge_nuclei</text>
</a>
</g>
</g>
<!-- Node1&#45;&gt;Node5 -->
<g id="edge5" class="edge">
<title>Node1&#45;&gt;Node5</title>
<path fill="none" stroke="midnightblue" d="M159.13,-97.71C168.09,-96.2 177.19,-94.66 186.06,-93.16"/>
<polygon fill="midnightblue" stroke="midnightblue" points="186.67,-96.6 195.95,-91.49 185.51,-89.7 186.67,-96.6"/>
</g>
<!-- Node6 -->
<g id="node6" class="node">
<title>Node6</title>
<g id="a_node6"><a xlink:href="classsrc__files_1_1nucleus__multiple__class_1_1nucleus__multiple.html#af2c40a222291f5b9d64608ed5437a439" target="_top" xlink:title=" ">
<polygon fill="white" stroke="black" points="195,-0.5 195,-41.5 323,-41.5 323,-0.5 195,-0.5"/>
<text text-anchor="start" x="203" y="-29.5" font-family="Helvetica,sans-Serif" font-size="10.00">src_files.nucleus_multiple</text>
<text text-anchor="start" x="203" y="-18.5" font-family="Helvetica,sans-Serif" font-size="10.00">_class.nucleus_multiple.</text>
<text text-anchor="middle" x="259" y="-7.5" font-family="Helvetica,sans-Serif" font-size="10.00">__merge_nuclei</text>
</a>
</g>
</g>
<!-- Node1&#45;&gt;Node6 -->
<g id="edge6" class="edge">
<title>Node1&#45;&gt;Node6</title>
<path fill="none" stroke="midnightblue" d="M108.58,-95.9C131.66,-83.58 165.29,-65.85 195,-51 198.28,-49.36 201.67,-47.69 205.09,-46.01"/>
<polygon fill="midnightblue" stroke="midnightblue" points="206.71,-49.12 214.18,-41.6 203.65,-42.82 206.71,-49.12"/>
</g>
<!-- Node3 -->
<g id="node3" class="node">
<title>Node3</title>
<g id="a_node3"><a xlink:href="namespacebin_1_1create__alpha__decay__file.html#ac34a94ae8e6f56f49f1dfb47a70e96cc" target="_top" xlink:title=" ">
<polygon fill="white" stroke="black" points="359,-156 359,-186 477,-186 477,-156 359,-156"/>
<text text-anchor="start" x="367" y="-174" font-family="Helvetica,sans-Serif" font-size="10.00">bin.create_alpha_decay</text>
<text text-anchor="middle" x="418" y="-163" font-family="Helvetica,sans-Serif" font-size="10.00">_file.get_name</text>
</a>
</g>
</g>
<!-- Node2&#45;&gt;Node3 -->
<g id="edge2" class="edge">
<title>Node2&#45;&gt;Node3</title>
<path fill="none" stroke="midnightblue" d="M323.41,-188.88C331.85,-187.27 340.53,-185.61 349.04,-183.99"/>
<polygon fill="midnightblue" stroke="midnightblue" points="349.77,-187.41 358.94,-182.09 348.46,-180.53 349.77,-187.41"/>
</g>
<!-- Node4&#45;&gt;Node3 -->
<g id="edge4" class="edge">
<title>Node4&#45;&gt;Node3</title>
<path fill="none" stroke="midnightblue" d="M323.41,-153.12C331.85,-154.73 340.53,-156.39 349.04,-158.01"/>
<polygon fill="midnightblue" stroke="midnightblue" points="348.46,-161.47 358.94,-159.91 349.77,-154.59 348.46,-161.47"/>
</g>
</g>
</svg>
