<?xml version="1.0" encoding="UTF-8" standalone="no"?>
<!DOCTYPE svg PUBLIC "-//W3C//DTD SVG 1.1//EN"
 "http://www.w3.org/Graphics/SVG/1.1/DTD/svg11.dtd">
<!-- Generated by graphviz version 2.44.0 ()
 -->
<!-- Title: bin.class_files.reaclib_class.reaclib.update Pages: 1 -->
<svg width="286pt" height="99pt"
 viewBox="0.00 0.00 286.00 98.50" xmlns="http://www.w3.org/2000/svg" xmlns:xlink="http://www.w3.org/1999/xlink">
<g id="graph0" class="graph" transform="scale(1 1) rotate(0) translate(4 94.5)">
<title>bin.class_files.reaclib_class.reaclib.update</title>
<polygon fill="white" stroke="transparent" points="-4,4 -4,-94.5 282,-94.5 282,4 -4,4"/>
<!-- Node1 -->
<g id="node1" class="node">
<title>Node1</title>
<g id="a_node1"><a xlink:title=" ">
<polygon fill="#bfbfbf" stroke="black" points="0,-27.5 0,-57.5 108,-57.5 108,-27.5 0,-27.5"/>
<text text-anchor="start" x="8" y="-45.5" font-family="Helvetica,sans-Serif" font-size="10.00">bin.class_files.reaclib</text>
<text text-anchor="middle" x="54" y="-34.5" font-family="Helvetica,sans-Serif" font-size="10.00">_class.reaclib.update</text>
</a>
</g>
</g>
<!-- Node2 -->
<g id="node2" class="node">
<title>Node2</title>
<g id="a_node2"><a xlink:href="classbin_1_1class__files_1_1reaclib__class_1_1reaclib.html#a71210377652beff0c20713bb01db652b" target="_top" xlink:title=" ">
<polygon fill="white" stroke="black" points="150.5,-49 150.5,-90 271.5,-90 271.5,-49 150.5,-49"/>
<text text-anchor="start" x="158.5" y="-78" font-family="Helvetica,sans-Serif" font-size="10.00">bin.class_files.reaclib</text>
<text text-anchor="start" x="158.5" y="-67" font-family="Helvetica,sans-Serif" font-size="10.00">_class.reaclib.__analyze</text>
<text text-anchor="middle" x="211" y="-56" font-family="Helvetica,sans-Serif" font-size="10.00">_update</text>
</a>
</g>
</g>
<!-- Node1&#45;&gt;Node2 -->
<g id="edge1" class="edge">
<title>Node1&#45;&gt;Node2</title>
<path fill="none" stroke="midnightblue" d="M108.34,-51.79C118.73,-53.6 129.77,-55.52 140.59,-57.41"/>
<polygon fill="midnightblue" stroke="midnightblue" points="140,-60.86 150.45,-59.13 141.2,-53.96 140,-60.86"/>
</g>
<!-- Node3 -->
<g id="node3" class="node">
<title>Node3</title>
<g id="a_node3"><a xlink:href="classbin_1_1class__files_1_1reaclib__class_1_1reaclib.html#a174840c21d765fbe1235e9f7e579d08e" target="_top" xlink:title=" ">
<polygon fill="white" stroke="black" points="144,-0.5 144,-30.5 278,-30.5 278,-0.5 144,-0.5"/>
<text text-anchor="start" x="152" y="-18.5" font-family="Helvetica,sans-Serif" font-size="10.00">bin.class_files.reaclib</text>
<text text-anchor="middle" x="211" y="-7.5" font-family="Helvetica,sans-Serif" font-size="10.00">_class.reaclib.__filter_rates</text>
</a>
</g>
</g>
<!-- Node1&#45;&gt;Node3 -->
<g id="edge2" class="edge">
<title>Node1&#45;&gt;Node3</title>
<path fill="none" stroke="midnightblue" d="M108.34,-33.21C116.59,-31.77 125.24,-30.26 133.87,-28.76"/>
<polygon fill="midnightblue" stroke="midnightblue" points="134.71,-32.17 143.96,-27 133.51,-25.27 134.71,-32.17"/>
</g>
</g>
</svg>
