<?xml version="1.0" encoding="UTF-8" standalone="no"?>
<!DOCTYPE svg PUBLIC "-//W3C//DTD SVG 1.1//EN"
 "http://www.w3.org/Graphics/SVG/1.1/DTD/svg11.dtd">
<!-- Generated by graphviz version 2.44.0 ()
 -->
<!-- Title: bin.create_neutrino_nucleon_file.nunucleon.sigma_nu_n Pages: 1 -->
<svg width="539pt" height="39pt"
 viewBox="0.00 0.00 539.00 39.00" xmlns="http://www.w3.org/2000/svg" xmlns:xlink="http://www.w3.org/1999/xlink">
<g id="graph0" class="graph" transform="scale(1 1) rotate(0) translate(4 35)">
<title>bin.create_neutrino_nucleon_file.nunucleon.sigma_nu_n</title>
<polygon fill="white" stroke="transparent" points="-4,4 -4,-35 535,-35 535,4 -4,4"/>
<!-- Node1 -->
<g id="node1" class="node">
<title>Node1</title>
<g id="a_node1"><a xlink:title=" ">
<polygon fill="#bfbfbf" stroke="black" points="0,-0.5 0,-30.5 174,-30.5 174,-0.5 0,-0.5"/>
<text text-anchor="start" x="8" y="-18.5" font-family="Helvetica,sans-Serif" font-size="10.00">bin.create_neutrino</text>
<text text-anchor="middle" x="87" y="-7.5" font-family="Helvetica,sans-Serif" font-size="10.00">_nucleon_file.nunucleon.sigma_nu_n</text>
</a>
</g>
</g>
<!-- Node2 -->
<g id="node2" class="node">
<title>Node2</title>
<g id="a_node2"><a xlink:href="classbin_1_1create__neutrino__nucleon__file_1_1nunucleon.html#aba65e1a48977644763f13c057782caca" target="_top" xlink:title=" ">
<polygon fill="white" stroke="black" points="210,-0.5 210,-30.5 349,-30.5 349,-0.5 210,-0.5"/>
<text text-anchor="start" x="218" y="-18.5" font-family="Helvetica,sans-Serif" font-size="10.00">bin.create_neutrino</text>
<text text-anchor="middle" x="279.5" y="-7.5" font-family="Helvetica,sans-Serif" font-size="10.00">_nucleon_file.nunucleon.WM</text>
</a>
</g>
</g>
<!-- Node1&#45;&gt;Node2 -->
<g id="edge1" class="edge">
<title>Node1&#45;&gt;Node2</title>
<path fill="none" stroke="midnightblue" d="M174.05,-15.5C182.61,-15.5 191.26,-15.5 199.73,-15.5"/>
<polygon fill="midnightblue" stroke="midnightblue" points="199.96,-19 209.96,-15.5 199.96,-12 199.96,-19"/>
</g>
<!-- Node3 -->
<g id="node3" class="node">
<title>Node3</title>
<g id="a_node3"><a xlink:href="classbin_1_1create__neutrino__nucleon__file_1_1nunucleon.html#a4cbdc40f98cdb7758822a5bfc600bd35" target="_top" xlink:title=" ">
<polygon fill="white" stroke="black" points="385,-0.5 385,-30.5 531,-30.5 531,-0.5 385,-0.5"/>
<text text-anchor="start" x="393" y="-18.5" font-family="Helvetica,sans-Serif" font-size="10.00">bin.create_neutrino</text>
<text text-anchor="middle" x="458" y="-7.5" font-family="Helvetica,sans-Serif" font-size="10.00">_nucleon_file.nunucleon.__cor</text>
</a>
</g>
</g>
<!-- Node2&#45;&gt;Node3 -->
<g id="edge2" class="edge">
<title>Node2&#45;&gt;Node3</title>
<path fill="none" stroke="midnightblue" d="M349.24,-15.5C357.66,-15.5 366.33,-15.5 374.92,-15.5"/>
<polygon fill="midnightblue" stroke="midnightblue" points="374.95,-19 384.95,-15.5 374.95,-12 374.95,-19"/>
</g>
</g>
</svg>
