<?xml version="1.0" encoding="UTF-8" standalone="no"?>
<!DOCTYPE svg PUBLIC "-//W3C//DTD SVG 1.1//EN"
 "http://www.w3.org/Graphics/SVG/1.1/DTD/svg11.dtd">
<!-- Generated by graphviz version 2.44.0 ()
 -->
<!-- Title: bin.class_files.reaclib_class.reaclib.save_reaclib Pages: 1 -->
<svg width="298pt" height="110pt"
 viewBox="0.00 0.00 298.00 110.00" xmlns="http://www.w3.org/2000/svg" xmlns:xlink="http://www.w3.org/1999/xlink">
<g id="graph0" class="graph" transform="scale(1 1) rotate(0) translate(4 106)">
<title>bin.class_files.reaclib_class.reaclib.save_reaclib</title>
<polygon fill="white" stroke="transparent" points="-4,4 -4,-106 294,-106 294,4 -4,4"/>
<!-- Node1 -->
<g id="node1" class="node">
<title>Node1</title>
<g id="a_node1"><a xlink:title=" ">
<polygon fill="#bfbfbf" stroke="black" points="0,-36 0,-66 133,-66 133,-36 0,-36"/>
<text text-anchor="start" x="8" y="-54" font-family="Helvetica,sans-Serif" font-size="10.00">bin.class_files.reaclib</text>
<text text-anchor="middle" x="66.5" y="-43" font-family="Helvetica,sans-Serif" font-size="10.00">_class.reaclib.save_reaclib</text>
</a>
</g>
</g>
<!-- Node2 -->
<g id="node2" class="node">
<title>Node2</title>
<g id="a_node2"><a xlink:href="classbin_1_1class__files_1_1reaclib__class_1_1reaclib.html#a341325ea090091dc142d1633eb194fdd" target="_top" xlink:title=" ">
<polygon fill="white" stroke="black" points="169,-60.5 169,-101.5 290,-101.5 290,-60.5 169,-60.5"/>
<text text-anchor="start" x="177" y="-89.5" font-family="Helvetica,sans-Serif" font-size="10.00">bin.class_files.reaclib</text>
<text text-anchor="start" x="177" y="-78.5" font-family="Helvetica,sans-Serif" font-size="10.00">_class.reaclib.__convert</text>
<text text-anchor="middle" x="229.5" y="-67.5" font-family="Helvetica,sans-Serif" font-size="10.00">_series_to_string</text>
</a>
</g>
</g>
<!-- Node1&#45;&gt;Node2 -->
<g id="edge1" class="edge">
<title>Node1&#45;&gt;Node2</title>
<path fill="none" stroke="midnightblue" d="M133.45,-63.29C141.88,-64.86 150.52,-66.47 159,-68.05"/>
<polygon fill="midnightblue" stroke="midnightblue" points="158.39,-71.5 168.86,-69.89 159.67,-64.61 158.39,-71.5"/>
</g>
<!-- Node3 -->
<g id="node3" class="node">
<title>Node3</title>
<g id="a_node3"><a xlink:href="classbin_1_1class__files_1_1reaclib__class_1_1reaclib.html#a9a50b913c548a3093cac938d559e9887" target="_top" xlink:title=" ">
<polygon fill="white" stroke="black" points="175.5,-0.5 175.5,-41.5 283.5,-41.5 283.5,-0.5 175.5,-0.5"/>
<text text-anchor="start" x="183.5" y="-29.5" font-family="Helvetica,sans-Serif" font-size="10.00">bin.class_files.reaclib</text>
<text text-anchor="start" x="183.5" y="-18.5" font-family="Helvetica,sans-Serif" font-size="10.00">_class.reaclib.__sort</text>
<text text-anchor="middle" x="229.5" y="-7.5" font-family="Helvetica,sans-Serif" font-size="10.00">_prods_reacs</text>
</a>
</g>
</g>
<!-- Node1&#45;&gt;Node3 -->
<g id="edge2" class="edge">
<title>Node1&#45;&gt;Node3</title>
<path fill="none" stroke="midnightblue" d="M133.45,-38.71C143.98,-36.75 154.85,-34.72 165.32,-32.77"/>
<polygon fill="midnightblue" stroke="midnightblue" points="166.01,-36.2 175.2,-30.93 164.72,-29.32 166.01,-36.2"/>
</g>
</g>
</svg>
