<?xml version="1.0" encoding="UTF-8" standalone="no"?>
<!DOCTYPE svg PUBLIC "-//W3C//DTD SVG 1.1//EN"
 "http://www.w3.org/Graphics/SVG/1.1/DTD/svg11.dtd">
<!-- Generated by graphviz version 2.44.0 ()
 -->
<!-- Title: src_files.FlowAnimation.FlowAnimation.__toggle_timescales Pages: 1 -->
<svg width="338pt" height="159pt"
 viewBox="0.00 0.00 338.00 158.50" xmlns="http://www.w3.org/2000/svg" xmlns:xlink="http://www.w3.org/1999/xlink">
<g id="graph0" class="graph" transform="scale(1 1) rotate(0) translate(4 154.5)">
<title>src_files.FlowAnimation.FlowAnimation.__toggle_timescales</title>
<polygon fill="white" stroke="transparent" points="-4,4 -4,-154.5 334,-154.5 334,4 -4,4"/>
<!-- Node1 -->
<g id="node1" class="node">
<title>Node1</title>
<g id="a_node1"><a xlink:title=" ">
<polygon fill="#bfbfbf" stroke="black" points="0,-60.5 0,-101.5 122,-101.5 122,-60.5 0,-60.5"/>
<text text-anchor="start" x="8" y="-89.5" font-family="Helvetica,sans-Serif" font-size="10.00">src_files.FlowAnimation.</text>
<text text-anchor="start" x="8" y="-78.5" font-family="Helvetica,sans-Serif" font-size="10.00">FlowAnimation.__toggle</text>
<text text-anchor="middle" x="61" y="-67.5" font-family="Helvetica,sans-Serif" font-size="10.00">_timescales</text>
</a>
</g>
</g>
<!-- Node2 -->
<g id="node2" class="node">
<title>Node2</title>
<g id="a_node2"><a xlink:href="classsrc__files_1_1FlowAnimation_1_1FlowAnimation.html#acf3dad87c92682e30112b49e466949c2" target="_top" xlink:title=" ">
<polygon fill="white" stroke="black" points="158,-120 158,-150 330,-150 330,-120 158,-120"/>
<text text-anchor="start" x="166" y="-138" font-family="Helvetica,sans-Serif" font-size="10.00">src_files.FlowAnimation.</text>
<text text-anchor="middle" x="244" y="-127" font-family="Helvetica,sans-Serif" font-size="10.00">FlowAnimation.__init_axTimescales</text>
</a>
</g>
</g>
<!-- Node1&#45;&gt;Node2 -->
<g id="edge1" class="edge">
<title>Node1&#45;&gt;Node2</title>
<path fill="none" stroke="midnightblue" d="M122.09,-100.06C133.98,-103.75 146.37,-107.54 158,-111 164.87,-113.04 172.07,-115.14 179.24,-117.2"/>
<polygon fill="midnightblue" stroke="midnightblue" points="178.4,-120.6 188.98,-119.99 180.32,-113.87 178.4,-120.6"/>
</g>
<!-- Node3 -->
<g id="node3" class="node">
<title>Node3</title>
<g id="a_node3"><a xlink:href="classsrc__files_1_1FlowAnimation_1_1FlowAnimation.html#a0e9148bf5756f81387be0f1c34c0b0f1" target="_top" xlink:title=" ">
<polygon fill="white" stroke="black" points="178.5,-60.5 178.5,-101.5 309.5,-101.5 309.5,-60.5 178.5,-60.5"/>
<text text-anchor="start" x="186.5" y="-89.5" font-family="Helvetica,sans-Serif" font-size="10.00">src_files.FlowAnimation.</text>
<text text-anchor="start" x="186.5" y="-78.5" font-family="Helvetica,sans-Serif" font-size="10.00">FlowAnimation.__init_data</text>
<text text-anchor="middle" x="244" y="-67.5" font-family="Helvetica,sans-Serif" font-size="10.00">_timescales</text>
</a>
</g>
</g>
<!-- Node1&#45;&gt;Node3 -->
<g id="edge2" class="edge">
<title>Node1&#45;&gt;Node3</title>
<path fill="none" stroke="midnightblue" d="M122.02,-81C136.88,-81 152.97,-81 168.43,-81"/>
<polygon fill="midnightblue" stroke="midnightblue" points="168.48,-84.5 178.48,-81 168.48,-77.5 168.48,-84.5"/>
</g>
<!-- Node4 -->
<g id="node4" class="node">
<title>Node4</title>
<g id="a_node4"><a xlink:href="classsrc__files_1_1FlowAnimation_1_1FlowAnimation.html#aad667b00d045fafe98a498ea392bab16" target="_top" xlink:title=" ">
<polygon fill="white" stroke="black" points="180,-0.5 180,-41.5 308,-41.5 308,-0.5 180,-0.5"/>
<text text-anchor="start" x="188" y="-29.5" font-family="Helvetica,sans-Serif" font-size="10.00">src_files.FlowAnimation.</text>
<text text-anchor="start" x="188" y="-18.5" font-family="Helvetica,sans-Serif" font-size="10.00">FlowAnimation.__init_plot</text>
<text text-anchor="middle" x="244" y="-7.5" font-family="Helvetica,sans-Serif" font-size="10.00">_timescales</text>
</a>
</g>
</g>
<!-- Node1&#45;&gt;Node4 -->
<g id="edge3" class="edge">
<title>Node1&#45;&gt;Node4</title>
<path fill="none" stroke="midnightblue" d="M122.02,-61.1C137.85,-55.86 155.08,-50.14 171.45,-44.72"/>
<polygon fill="midnightblue" stroke="midnightblue" points="172.58,-48.03 180.98,-41.56 170.38,-41.39 172.58,-48.03"/>
</g>
</g>
</svg>
