<?xml version="1.0" encoding="UTF-8" standalone="no"?>
<!DOCTYPE svg PUBLIC "-//W3C//DTD SVG 1.1//EN"
 "http://www.w3.org/Graphics/SVG/1.1/DTD/svg11.dtd">
<!-- Generated by graphviz version 2.44.0 ()
 -->
<!-- Title: bin.class_files.nucleus_multiple_class.nucleus_multiple.__rmul__ Pages: 1 -->
<svg width="602pt" height="110pt"
 viewBox="0.00 0.00 602.00 110.00" xmlns="http://www.w3.org/2000/svg" xmlns:xlink="http://www.w3.org/1999/xlink">
<g id="graph0" class="graph" transform="scale(1 1) rotate(0) translate(4 106)">
<title>bin.class_files.nucleus_multiple_class.nucleus_multiple.__rmul__</title>
<polygon fill="white" stroke="transparent" points="-4,4 -4,-106 598,-106 598,4 -4,4"/>
<!-- Node1 -->
<g id="node1" class="node">
<title>Node1</title>
<g id="a_node1"><a xlink:title=" ">
<polygon fill="#bfbfbf" stroke="black" points="0,-30.5 0,-71.5 120,-71.5 120,-30.5 0,-30.5"/>
<text text-anchor="start" x="8" y="-59.5" font-family="Helvetica,sans-Serif" font-size="10.00">bin.class_files.nucleus</text>
<text text-anchor="start" x="8" y="-48.5" font-family="Helvetica,sans-Serif" font-size="10.00">_multiple_class.nucleus</text>
<text text-anchor="middle" x="60" y="-37.5" font-family="Helvetica,sans-Serif" font-size="10.00">_multiple.__rmul__</text>
</a>
</g>
</g>
<!-- Node2 -->
<g id="node2" class="node">
<title>Node2</title>
<g id="a_node2"><a xlink:href="classbin_1_1class__files_1_1nucleus__multiple__class_1_1nucleus__multiple.html#a948a0f361dd687e5920858a39597b93d" target="_top" xlink:title=" ">
<polygon fill="white" stroke="black" points="156,-30.5 156,-71.5 276,-71.5 276,-30.5 156,-30.5"/>
<text text-anchor="start" x="164" y="-59.5" font-family="Helvetica,sans-Serif" font-size="10.00">bin.class_files.nucleus</text>
<text text-anchor="start" x="164" y="-48.5" font-family="Helvetica,sans-Serif" font-size="10.00">_multiple_class.nucleus</text>
<text text-anchor="middle" x="216" y="-37.5" font-family="Helvetica,sans-Serif" font-size="10.00">_multiple.__mul__</text>
</a>
</g>
</g>
<!-- Node1&#45;&gt;Node2 -->
<g id="edge1" class="edge">
<title>Node1&#45;&gt;Node2</title>
<path fill="none" stroke="midnightblue" d="M120.1,-51C128.42,-51 137.04,-51 145.53,-51"/>
<polygon fill="midnightblue" stroke="midnightblue" points="145.8,-54.5 155.8,-51 145.8,-47.5 145.8,-54.5"/>
</g>
<!-- Node3 -->
<g id="node3" class="node">
<title>Node3</title>
<g id="a_node3"><a xlink:href="classbin_1_1class__files_1_1nucleus__multiple__class_1_1nucleus__multiple.html#a0fdfcbebc433ec89b478adc954d4532c" target="_top" xlink:title=" ">
<polygon fill="white" stroke="black" points="312,-60.5 312,-101.5 440,-101.5 440,-60.5 312,-60.5"/>
<text text-anchor="start" x="320" y="-89.5" font-family="Helvetica,sans-Serif" font-size="10.00">bin.class_files.nucleus</text>
<text text-anchor="start" x="320" y="-78.5" font-family="Helvetica,sans-Serif" font-size="10.00">_multiple_class.nucleus</text>
<text text-anchor="middle" x="376" y="-67.5" font-family="Helvetica,sans-Serif" font-size="10.00">_multiple.__init_with_data</text>
</a>
</g>
</g>
<!-- Node2&#45;&gt;Node3 -->
<g id="edge2" class="edge">
<title>Node2&#45;&gt;Node3</title>
<path fill="none" stroke="midnightblue" d="M276.28,-62.26C284.65,-63.85 293.34,-65.49 301.93,-67.13"/>
<polygon fill="midnightblue" stroke="midnightblue" points="301.47,-70.6 311.95,-69.03 302.78,-63.72 301.47,-70.6"/>
</g>
<!-- Node5 -->
<g id="node5" class="node">
<title>Node5</title>
<g id="a_node5"><a xlink:href="classbin_1_1class__files_1_1nucleus__multiple__class_1_1nucleus__multiple.html#ad429e18b5200db81490b842fd21b737e" target="_top" xlink:title=" ">
<polygon fill="white" stroke="black" points="313,-0.5 313,-41.5 439,-41.5 439,-0.5 313,-0.5"/>
<text text-anchor="start" x="321" y="-29.5" font-family="Helvetica,sans-Serif" font-size="10.00">bin.class_files.nucleus</text>
<text text-anchor="start" x="321" y="-18.5" font-family="Helvetica,sans-Serif" font-size="10.00">_multiple_class.nucleus</text>
<text text-anchor="middle" x="376" y="-7.5" font-family="Helvetica,sans-Serif" font-size="10.00">_multiple.__merge_nuclei</text>
</a>
</g>
</g>
<!-- Node2&#45;&gt;Node5 -->
<g id="edge4" class="edge">
<title>Node2&#45;&gt;Node5</title>
<path fill="none" stroke="midnightblue" d="M276.28,-39.74C284.94,-38.1 293.92,-36.39 302.8,-34.71"/>
<polygon fill="midnightblue" stroke="midnightblue" points="303.57,-38.12 312.75,-32.82 302.27,-31.25 303.57,-38.12"/>
</g>
<!-- Node4 -->
<g id="node4" class="node">
<title>Node4</title>
<g id="a_node4"><a xlink:href="namespacebin_1_1create__alpha__decay__file.html#ac34a94ae8e6f56f49f1dfb47a70e96cc" target="_top" xlink:title=" ">
<polygon fill="white" stroke="black" points="476,-66 476,-96 594,-96 594,-66 476,-66"/>
<text text-anchor="start" x="484" y="-84" font-family="Helvetica,sans-Serif" font-size="10.00">bin.create_alpha_decay</text>
<text text-anchor="middle" x="535" y="-73" font-family="Helvetica,sans-Serif" font-size="10.00">_file.get_name</text>
</a>
</g>
</g>
<!-- Node3&#45;&gt;Node4 -->
<g id="edge3" class="edge">
<title>Node3&#45;&gt;Node4</title>
<path fill="none" stroke="midnightblue" d="M440.41,-81C448.75,-81 457.34,-81 465.77,-81"/>
<polygon fill="midnightblue" stroke="midnightblue" points="465.94,-84.5 475.94,-81 465.94,-77.5 465.94,-84.5"/>
</g>
</g>
</svg>
