<?xml version="1.0" encoding="UTF-8" standalone="no"?>
<!DOCTYPE svg PUBLIC "-//W3C//DTD SVG 1.1//EN"
 "http://www.w3.org/Graphics/SVG/1.1/DTD/svg11.dtd">
<!-- Generated by graphviz version 2.44.0 ()
 -->
<!-- Title: src_files.FlowAnimation.FlowAnimation.__toggle_addmainout Pages: 1 -->
<svg width="339pt" height="159pt"
 viewBox="0.00 0.00 339.00 158.50" xmlns="http://www.w3.org/2000/svg" xmlns:xlink="http://www.w3.org/1999/xlink">
<g id="graph0" class="graph" transform="scale(1 1) rotate(0) translate(4 154.5)">
<title>src_files.FlowAnimation.FlowAnimation.__toggle_addmainout</title>
<polygon fill="white" stroke="transparent" points="-4,4 -4,-154.5 335,-154.5 335,4 -4,4"/>
<!-- Node1 -->
<g id="node1" class="node">
<title>Node1</title>
<g id="a_node1"><a xlink:title=" ">
<polygon fill="#bfbfbf" stroke="black" points="0,-60.5 0,-101.5 122,-101.5 122,-60.5 0,-60.5"/>
<text text-anchor="start" x="8" y="-89.5" font-family="Helvetica,sans-Serif" font-size="10.00">src_files.FlowAnimation.</text>
<text text-anchor="start" x="8" y="-78.5" font-family="Helvetica,sans-Serif" font-size="10.00">FlowAnimation.__toggle</text>
<text text-anchor="middle" x="61" y="-67.5" font-family="Helvetica,sans-Serif" font-size="10.00">_addmainout</text>
</a>
</g>
</g>
<!-- Node2 -->
<g id="node2" class="node">
<title>Node2</title>
<g id="a_node2"><a xlink:href="classsrc__files_1_1FlowAnimation_1_1FlowAnimation.html#a82e5fc842ff6fa51c332f80b4c5c374d" target="_top" xlink:title=" ">
<polygon fill="white" stroke="black" points="158,-120 158,-150 331,-150 331,-120 158,-120"/>
<text text-anchor="start" x="166" y="-138" font-family="Helvetica,sans-Serif" font-size="10.00">src_files.FlowAnimation.</text>
<text text-anchor="middle" x="244.5" y="-127" font-family="Helvetica,sans-Serif" font-size="10.00">FlowAnimation.__init_axAddMainout</text>
</a>
</g>
</g>
<!-- Node1&#45;&gt;Node2 -->
<g id="edge1" class="edge">
<title>Node1&#45;&gt;Node2</title>
<path fill="none" stroke="midnightblue" d="M122.09,-100.07C133.97,-103.76 146.37,-107.55 158,-111 164.81,-113.02 171.94,-115.09 179.04,-117.12"/>
<polygon fill="midnightblue" stroke="midnightblue" points="178.12,-120.5 188.7,-119.87 180.04,-113.77 178.12,-120.5"/>
</g>
<!-- Node3 -->
<g id="node3" class="node">
<title>Node3</title>
<g id="a_node3"><a xlink:href="classsrc__files_1_1FlowAnimation_1_1FlowAnimation.html#a8fc4810f1535c249641ab8cb7377d98b" target="_top" xlink:title=" ">
<polygon fill="white" stroke="black" points="179,-60.5 179,-101.5 310,-101.5 310,-60.5 179,-60.5"/>
<text text-anchor="start" x="187" y="-89.5" font-family="Helvetica,sans-Serif" font-size="10.00">src_files.FlowAnimation.</text>
<text text-anchor="start" x="187" y="-78.5" font-family="Helvetica,sans-Serif" font-size="10.00">FlowAnimation.__init_data</text>
<text text-anchor="middle" x="244.5" y="-67.5" font-family="Helvetica,sans-Serif" font-size="10.00">_addmainout</text>
</a>
</g>
</g>
<!-- Node1&#45;&gt;Node3 -->
<g id="edge2" class="edge">
<title>Node1&#45;&gt;Node3</title>
<path fill="none" stroke="midnightblue" d="M122.18,-81C137.08,-81 153.23,-81 168.73,-81"/>
<polygon fill="midnightblue" stroke="midnightblue" points="168.8,-84.5 178.8,-81 168.8,-77.5 168.8,-84.5"/>
</g>
<!-- Node4 -->
<g id="node4" class="node">
<title>Node4</title>
<g id="a_node4"><a xlink:href="classsrc__files_1_1FlowAnimation_1_1FlowAnimation.html#a91c176dad099715e90bf3d4c991e1d31" target="_top" xlink:title=" ">
<polygon fill="white" stroke="black" points="180.5,-0.5 180.5,-41.5 308.5,-41.5 308.5,-0.5 180.5,-0.5"/>
<text text-anchor="start" x="188.5" y="-29.5" font-family="Helvetica,sans-Serif" font-size="10.00">src_files.FlowAnimation.</text>
<text text-anchor="start" x="188.5" y="-18.5" font-family="Helvetica,sans-Serif" font-size="10.00">FlowAnimation.__init_plot</text>
<text text-anchor="middle" x="244.5" y="-7.5" font-family="Helvetica,sans-Serif" font-size="10.00">_addmainout</text>
</a>
</g>
</g>
<!-- Node1&#45;&gt;Node4 -->
<g id="edge3" class="edge">
<title>Node1&#45;&gt;Node4</title>
<path fill="none" stroke="midnightblue" d="M122.18,-61.1C138.06,-55.86 155.34,-50.14 171.76,-44.72"/>
<polygon fill="midnightblue" stroke="midnightblue" points="172.91,-48.02 181.3,-41.56 170.71,-41.38 172.91,-48.02"/>
</g>
</g>
</svg>
