<?xml version="1.0" encoding="UTF-8" standalone="no"?>
<!DOCTYPE svg PUBLIC "-//W3C//DTD SVG 1.1//EN"
 "http://www.w3.org/Graphics/SVG/1.1/DTD/svg11.dtd">
<!-- Generated by graphviz version 2.44.0 ()
 -->
<!-- Title: src_files.FlowAnimation.FlowAnimation.r_path_button_event Pages: 1 -->
<svg width="753pt" height="459pt"
 viewBox="0.00 0.00 753.00 458.50" xmlns="http://www.w3.org/2000/svg" xmlns:xlink="http://www.w3.org/1999/xlink">
<g id="graph0" class="graph" transform="scale(1 1) rotate(0) translate(4 454.5)">
<title>src_files.FlowAnimation.FlowAnimation.r_path_button_event</title>
<polygon fill="white" stroke="transparent" points="-4,4 -4,-454.5 749,-454.5 749,4 -4,4"/>
<!-- Node1 -->
<g id="node1" class="node">
<title>Node1</title>
<g id="a_node1"><a xlink:title=" ">
<polygon fill="#bfbfbf" stroke="black" points="0,-193.5 0,-223.5 172,-223.5 172,-193.5 0,-193.5"/>
<text text-anchor="start" x="8" y="-211.5" font-family="Helvetica,sans-Serif" font-size="10.00">src_files.FlowAnimation.</text>
<text text-anchor="middle" x="86" y="-200.5" font-family="Helvetica,sans-Serif" font-size="10.00">FlowAnimation.r_path_button_event</text>
</a>
</g>
</g>
<!-- Node2 -->
<g id="node2" class="node">
<title>Node2</title>
<g id="a_node2"><a xlink:href="classsrc__files_1_1FlowAnimation_1_1FlowAnimation.html#a95e4fc280171aeddd24ea64c7ac34ca1" target="_top" xlink:title=" ">
<polygon fill="white" stroke="black" points="410.5,-294.5 410.5,-324.5 547.5,-324.5 547.5,-294.5 410.5,-294.5"/>
<text text-anchor="start" x="418.5" y="-312.5" font-family="Helvetica,sans-Serif" font-size="10.00">src_files.FlowAnimation.</text>
<text text-anchor="middle" x="479" y="-301.5" font-family="Helvetica,sans-Serif" font-size="10.00">FlowAnimation.update_data</text>
</a>
</g>
</g>
<!-- Node1&#45;&gt;Node2 -->
<g id="edge1" class="edge">
<title>Node1&#45;&gt;Node2</title>
<path fill="none" stroke="midnightblue" d="M145.11,-223.51C215.86,-241.79 335.15,-272.6 410.07,-291.95"/>
<polygon fill="midnightblue" stroke="midnightblue" points="409.33,-295.38 419.89,-294.49 411.08,-288.6 409.33,-295.38"/>
</g>
<!-- Node8 -->
<g id="node8" class="node">
<title>Node8</title>
<g id="a_node8"><a xlink:href="classsrc__files_1_1FlowAnimation_1_1FlowAnimation.html#aa43d9d15f49ab97e34b6f975228b02f1" target="_top" xlink:title=" ">
<polygon fill="white" stroke="black" points="208,-171.5 208,-201.5 351,-201.5 351,-171.5 208,-171.5"/>
<text text-anchor="start" x="216" y="-189.5" font-family="Helvetica,sans-Serif" font-size="10.00">src_files.FlowAnimation.</text>
<text text-anchor="middle" x="279.5" y="-178.5" font-family="Helvetica,sans-Serif" font-size="10.00">FlowAnimation.update_frame</text>
</a>
</g>
</g>
<!-- Node1&#45;&gt;Node8 -->
<g id="edge7" class="edge">
<title>Node1&#45;&gt;Node8</title>
<path fill="none" stroke="midnightblue" d="M172.11,-198.72C180.73,-197.73 189.46,-196.73 198.02,-195.75"/>
<polygon fill="midnightblue" stroke="midnightblue" points="198.45,-199.22 207.98,-194.6 197.65,-192.27 198.45,-199.22"/>
</g>
<!-- Node3 -->
<g id="node3" class="node">
<title>Node3</title>
<g id="a_node3"><a xlink:href="classsrc__files_1_1FlowAnimation_1_1FlowAnimation.html#a8fc4810f1535c249641ab8cb7377d98b" target="_top" xlink:title=" ">
<polygon fill="white" stroke="black" points="610.5,-409 610.5,-450 741.5,-450 741.5,-409 610.5,-409"/>
<text text-anchor="start" x="618.5" y="-438" font-family="Helvetica,sans-Serif" font-size="10.00">src_files.FlowAnimation.</text>
<text text-anchor="start" x="618.5" y="-427" font-family="Helvetica,sans-Serif" font-size="10.00">FlowAnimation.__init_data</text>
<text text-anchor="middle" x="676" y="-416" font-family="Helvetica,sans-Serif" font-size="10.00">_addmainout</text>
</a>
</g>
</g>
<!-- Node2&#45;&gt;Node3 -->
<g id="edge2" class="edge">
<title>Node2&#45;&gt;Node3</title>
<path fill="none" stroke="midnightblue" d="M498.99,-324.8C523.14,-343.82 566.57,-376.57 607,-399.5 609.86,-401.12 612.83,-402.72 615.85,-404.28"/>
<polygon fill="midnightblue" stroke="midnightblue" points="614.52,-407.53 625.03,-408.84 617.63,-401.26 614.52,-407.53"/>
</g>
<!-- Node4 -->
<g id="node4" class="node">
<title>Node4</title>
<g id="a_node4"><a xlink:href="classsrc__files_1_1FlowAnimation_1_1FlowAnimation.html#a9e88300af271ce4c397fb5b6368ffb68" target="_top" xlink:title=" ">
<polygon fill="white" stroke="black" points="610.5,-349 610.5,-390 741.5,-390 741.5,-349 610.5,-349"/>
<text text-anchor="start" x="618.5" y="-378" font-family="Helvetica,sans-Serif" font-size="10.00">src_files.FlowAnimation.</text>
<text text-anchor="start" x="618.5" y="-367" font-family="Helvetica,sans-Serif" font-size="10.00">FlowAnimation.__init_data</text>
<text text-anchor="middle" x="676" y="-356" font-family="Helvetica,sans-Serif" font-size="10.00">_energy</text>
</a>
</g>
</g>
<!-- Node2&#45;&gt;Node4 -->
<g id="edge3" class="edge">
<title>Node2&#45;&gt;Node4</title>
<path fill="none" stroke="midnightblue" d="M528.96,-324.56C550.57,-331.21 576.46,-339.18 600.4,-346.55"/>
<polygon fill="midnightblue" stroke="midnightblue" points="599.58,-349.96 610.17,-349.55 601.64,-343.26 599.58,-349.96"/>
</g>
<!-- Node5 -->
<g id="node5" class="node">
<title>Node5</title>
<g id="a_node5"><a xlink:href="classsrc__files_1_1FlowAnimation_1_1FlowAnimation.html#a0e9148bf5756f81387be0f1c34c0b0f1" target="_top" xlink:title=" ">
<polygon fill="white" stroke="black" points="610.5,-289 610.5,-330 741.5,-330 741.5,-289 610.5,-289"/>
<text text-anchor="start" x="618.5" y="-318" font-family="Helvetica,sans-Serif" font-size="10.00">src_files.FlowAnimation.</text>
<text text-anchor="start" x="618.5" y="-307" font-family="Helvetica,sans-Serif" font-size="10.00">FlowAnimation.__init_data</text>
<text text-anchor="middle" x="676" y="-296" font-family="Helvetica,sans-Serif" font-size="10.00">_timescales</text>
</a>
</g>
</g>
<!-- Node2&#45;&gt;Node5 -->
<g id="edge4" class="edge">
<title>Node2&#45;&gt;Node5</title>
<path fill="none" stroke="midnightblue" d="M547.65,-309.5C564.67,-309.5 583.02,-309.5 600.35,-309.5"/>
<polygon fill="midnightblue" stroke="midnightblue" points="600.42,-313 610.42,-309.5 600.42,-306 600.42,-313"/>
</g>
<!-- Node6 -->
<g id="node6" class="node">
<title>Node6</title>
<g id="a_node6"><a xlink:href="classsrc__files_1_1FlowAnimation_1_1FlowAnimation.html#a7031b76d4d9ec67e745a8357a8704540" target="_top" xlink:title=" ">
<polygon fill="white" stroke="black" points="610.5,-229 610.5,-270 741.5,-270 741.5,-229 610.5,-229"/>
<text text-anchor="start" x="618.5" y="-258" font-family="Helvetica,sans-Serif" font-size="10.00">src_files.FlowAnimation.</text>
<text text-anchor="start" x="618.5" y="-247" font-family="Helvetica,sans-Serif" font-size="10.00">FlowAnimation.__init_data</text>
<text text-anchor="middle" x="676" y="-236" font-family="Helvetica,sans-Serif" font-size="10.00">_tracked</text>
</a>
</g>
</g>
<!-- Node2&#45;&gt;Node6 -->
<g id="edge5" class="edge">
<title>Node2&#45;&gt;Node6</title>
<path fill="none" stroke="midnightblue" d="M539.9,-294.39C550.31,-291.57 561,-288.55 571,-285.5 583.12,-281.81 595.93,-277.62 608.27,-273.43"/>
<polygon fill="midnightblue" stroke="midnightblue" points="609.71,-276.64 618.04,-270.08 607.44,-270.01 609.71,-276.64"/>
</g>
<!-- Node7 -->
<g id="node7" class="node">
<title>Node7</title>
<g id="a_node7"><a xlink:href="classsrc__files_1_1FlowAnimation_1_1FlowAnimation.html#a0b441e840894c30065df01b4a0c814ed" target="_top" xlink:title=" ">
<polygon fill="white" stroke="black" points="607,-180.5 607,-210.5 745,-210.5 745,-180.5 607,-180.5"/>
<text text-anchor="start" x="615" y="-198.5" font-family="Helvetica,sans-Serif" font-size="10.00">src_files.FlowAnimation.</text>
<text text-anchor="middle" x="676" y="-187.5" font-family="Helvetica,sans-Serif" font-size="10.00">FlowAnimation.sum_over_A</text>
</a>
</g>
</g>
<!-- Node2&#45;&gt;Node7 -->
<g id="edge6" class="edge">
<title>Node2&#45;&gt;Node7</title>
<path fill="none" stroke="midnightblue" d="M547.59,-298.42C555.99,-295.16 564.06,-290.94 571,-285.5 597.3,-264.89 581.56,-241.16 607,-219.5 608.5,-218.22 610.08,-217.01 611.71,-215.86"/>
<polygon fill="midnightblue" stroke="midnightblue" points="613.57,-218.82 620.28,-210.63 609.92,-212.85 613.57,-218.82"/>
</g>
<!-- Node8&#45;&gt;Node2 -->
<g id="edge9" class="edge">
<title>Node8&#45;&gt;Node2</title>
<path fill="none" stroke="midnightblue" d="M295.99,-201.69C322.92,-227.98 376.5,-279.72 387,-285.5 391.45,-287.95 396.16,-290.16 401,-292.15"/>
<polygon fill="midnightblue" stroke="midnightblue" points="399.85,-295.45 410.44,-295.71 402.32,-288.9 399.85,-295.45"/>
</g>
<!-- Node9 -->
<g id="node9" class="node">
<title>Node9</title>
<g id="a_node9"><a xlink:href="classsrc__files_1_1FlowAnimation_1_1FlowAnimation.html#ae5cf5c670cfd79914fba912bfada1083" target="_top" xlink:title=" ">
<polygon fill="white" stroke="black" points="399,-245.5 399,-275.5 559,-275.5 559,-245.5 399,-245.5"/>
<text text-anchor="start" x="407" y="-263.5" font-family="Helvetica,sans-Serif" font-size="10.00">src_files.FlowAnimation.</text>
<text text-anchor="middle" x="479" y="-252.5" font-family="Helvetica,sans-Serif" font-size="10.00">FlowAnimation.update_abun_plot</text>
</a>
</g>
</g>
<!-- Node8&#45;&gt;Node9 -->
<g id="edge8" class="edge">
<title>Node8&#45;&gt;Node9</title>
<path fill="none" stroke="midnightblue" d="M308.83,-201.52C329.95,-212.3 359.74,-226.6 387,-236.5 392.85,-238.62 398.96,-240.65 405.15,-242.55"/>
<polygon fill="midnightblue" stroke="midnightblue" points="404.3,-245.95 414.88,-245.44 406.29,-239.24 404.3,-245.95"/>
</g>
<!-- Node10 -->
<g id="node10" class="node">
<title>Node10</title>
<g id="a_node10"><a xlink:href="classsrc__files_1_1FlowAnimation_1_1FlowAnimation.html#a3c3a1682828427540b5999cfb2680498" target="_top" xlink:title=" ">
<polygon fill="white" stroke="black" points="395.5,-196.5 395.5,-226.5 562.5,-226.5 562.5,-196.5 395.5,-196.5"/>
<text text-anchor="start" x="403.5" y="-214.5" font-family="Helvetica,sans-Serif" font-size="10.00">src_files.FlowAnimation.</text>
<text text-anchor="middle" x="479" y="-203.5" font-family="Helvetica,sans-Serif" font-size="10.00">FlowAnimation.update_fission_plot</text>
</a>
</g>
</g>
<!-- Node8&#45;&gt;Node10 -->
<g id="edge10" class="edge">
<title>Node8&#45;&gt;Node10</title>
<path fill="none" stroke="midnightblue" d="M351.24,-195.45C362.29,-196.85 373.84,-198.32 385.28,-199.76"/>
<polygon fill="midnightblue" stroke="midnightblue" points="384.94,-203.25 395.3,-201.03 385.82,-196.3 384.94,-203.25"/>
</g>
<!-- Node11 -->
<g id="node11" class="node">
<title>Node11</title>
<g id="a_node11"><a xlink:href="classsrc__files_1_1FlowAnimation_1_1FlowAnimation.html#a69be16253d1914cf7d7b615f991b30b5" target="_top" xlink:title=" ">
<polygon fill="white" stroke="black" points="401,-147.5 401,-177.5 557,-177.5 557,-147.5 401,-147.5"/>
<text text-anchor="start" x="409" y="-165.5" font-family="Helvetica,sans-Serif" font-size="10.00">src_files.FlowAnimation.</text>
<text text-anchor="middle" x="479" y="-154.5" font-family="Helvetica,sans-Serif" font-size="10.00">FlowAnimation.update_flow_plot</text>
</a>
</g>
</g>
<!-- Node8&#45;&gt;Node11 -->
<g id="edge11" class="edge">
<title>Node8&#45;&gt;Node11</title>
<path fill="none" stroke="midnightblue" d="M351.24,-177.9C364.03,-176.35 377.51,-174.71 390.7,-173.11"/>
<polygon fill="midnightblue" stroke="midnightblue" points="391.22,-176.57 400.72,-171.89 390.37,-169.62 391.22,-176.57"/>
</g>
<!-- Node12 -->
<g id="node12" class="node">
<title>Node12</title>
<g id="a_node12"><a xlink:href="classsrc__files_1_1FlowAnimation_1_1FlowAnimation.html#a0f74e5f140064ab9090785781a2d397d" target="_top" xlink:title=" ">
<polygon fill="white" stroke="black" points="387,-98.5 387,-128.5 571,-128.5 571,-98.5 387,-98.5"/>
<text text-anchor="start" x="395" y="-116.5" font-family="Helvetica,sans-Serif" font-size="10.00">src_files.FlowAnimation.</text>
<text text-anchor="middle" x="479" y="-105.5" font-family="Helvetica,sans-Serif" font-size="10.00">FlowAnimation.update_interactive_text</text>
</a>
</g>
</g>
<!-- Node8&#45;&gt;Node12 -->
<g id="edge12" class="edge">
<title>Node8&#45;&gt;Node12</title>
<path fill="none" stroke="midnightblue" d="M310.74,-171.35C331.78,-161.19 360.67,-147.99 387,-138.5 393.78,-136.06 400.92,-133.71 408.09,-131.51"/>
<polygon fill="midnightblue" stroke="midnightblue" points="409.28,-134.81 417.87,-128.6 407.28,-128.1 409.28,-134.81"/>
</g>
<!-- Node13 -->
<g id="node13" class="node">
<title>Node13</title>
<g id="a_node13"><a xlink:href="classsrc__files_1_1FlowAnimation_1_1FlowAnimation.html#a884d661885aa9f83ca36713c791fd245" target="_top" xlink:title=" ">
<polygon fill="white" stroke="black" points="391,-49.5 391,-79.5 567,-79.5 567,-49.5 391,-49.5"/>
<text text-anchor="start" x="399" y="-67.5" font-family="Helvetica,sans-Serif" font-size="10.00">src_files.FlowAnimation.</text>
<text text-anchor="middle" x="479" y="-56.5" font-family="Helvetica,sans-Serif" font-size="10.00">FlowAnimation.update_ngamma_plot</text>
</a>
</g>
</g>
<!-- Node8&#45;&gt;Node13 -->
<g id="edge13" class="edge">
<title>Node8&#45;&gt;Node13</title>
<path fill="none" stroke="midnightblue" d="M292.97,-171.31C311.34,-149.92 347.79,-111.1 387,-89.5 391.18,-87.2 395.58,-85.1 400.1,-83.18"/>
<polygon fill="midnightblue" stroke="midnightblue" points="401.48,-86.4 409.52,-79.51 398.93,-79.88 401.48,-86.4"/>
</g>
<!-- Node14 -->
<g id="node14" class="node">
<title>Node14</title>
<g id="a_node14"><a xlink:href="classsrc__files_1_1FlowAnimation_1_1FlowAnimation.html#a269a1fec8ec2787aa0048fb744c544a2" target="_top" xlink:title=" ">
<polygon fill="white" stroke="black" points="408.5,-0.5 408.5,-30.5 549.5,-30.5 549.5,-0.5 408.5,-0.5"/>
<text text-anchor="start" x="416.5" y="-18.5" font-family="Helvetica,sans-Serif" font-size="10.00">src_files.FlowAnimation.</text>
<text text-anchor="middle" x="479" y="-7.5" font-family="Helvetica,sans-Serif" font-size="10.00">FlowAnimation.update_slider</text>
</a>
</g>
</g>
<!-- Node8&#45;&gt;Node14 -->
<g id="edge14" class="edge">
<title>Node8&#45;&gt;Node14</title>
<path fill="none" stroke="midnightblue" d="M287.12,-171.36C301.05,-141.35 336.31,-74.24 387,-39.5 390.74,-36.94 394.74,-34.65 398.9,-32.6"/>
<polygon fill="midnightblue" stroke="midnightblue" points="400.47,-35.73 408.21,-28.5 397.65,-29.33 400.47,-35.73"/>
</g>
</g>
</svg>
