<?xml version="1.0" encoding="UTF-8" standalone="no"?>
<!DOCTYPE svg PUBLIC "-//W3C//DTD SVG 1.1//EN"
 "http://www.w3.org/Graphics/SVG/1.1/DTD/svg11.dtd">
<!-- Generated by graphviz version 2.44.0 ()
 -->
<!-- Title: src_files.nucleus_class.nucleus.__init__ Pages: 1 -->
<svg width="354pt" height="196pt"
 viewBox="0.00 0.00 354.00 196.00" xmlns="http://www.w3.org/2000/svg" xmlns:xlink="http://www.w3.org/1999/xlink">
<g id="graph0" class="graph" transform="scale(1 1) rotate(0) translate(4 192)">
<title>src_files.nucleus_class.nucleus.__init__</title>
<polygon fill="white" stroke="transparent" points="-4,4 -4,-192 350,-192 350,4 -4,4"/>
<!-- Node1 -->
<g id="node1" class="node">
<title>Node1</title>
<g id="a_node1"><a xlink:title=" ">
<polygon fill="#bfbfbf" stroke="black" points="0,-76.5 0,-106.5 155,-106.5 155,-76.5 0,-76.5"/>
<text text-anchor="start" x="8" y="-94.5" font-family="Helvetica,sans-Serif" font-size="10.00">src_files.nucleus_class.nucleus.</text>
<text text-anchor="middle" x="77.5" y="-83.5" font-family="Helvetica,sans-Serif" font-size="10.00">__init__</text>
</a>
</g>
</g>
<!-- Node1&#45;&gt;Node1 -->
<g id="edge1" class="edge">
<title>Node1&#45;&gt;Node1</title>
<path fill="none" stroke="midnightblue" d="M44.39,-106.66C36.4,-116.06 47.44,-125 77.5,-125 95.82,-125 107.07,-121.68 111.26,-116.96"/>
<polygon fill="midnightblue" stroke="midnightblue" points="114.73,-116.42 110.61,-106.66 107.75,-116.86 114.73,-116.42"/>
</g>
<!-- Node2 -->
<g id="node2" class="node">
<title>Node2</title>
<g id="a_node2"><a xlink:href="classsrc__files_1_1nucleus__class_1_1nucleus.html#aa57fb3ae6996785cf03ff30f89af5c51" target="_top" xlink:title=" ">
<polygon fill="white" stroke="black" points="191,-157.5 191,-187.5 346,-187.5 346,-157.5 191,-157.5"/>
<text text-anchor="start" x="199" y="-175.5" font-family="Helvetica,sans-Serif" font-size="10.00">src_files.nucleus_class.nucleus.</text>
<text text-anchor="middle" x="268.5" y="-164.5" font-family="Helvetica,sans-Serif" font-size="10.00">__init_properties</text>
</a>
</g>
</g>
<!-- Node1&#45;&gt;Node2 -->
<g id="edge2" class="edge">
<title>Node1&#45;&gt;Node2</title>
<path fill="none" stroke="midnightblue" d="M105.19,-106.6C127.63,-118.91 160.78,-136.2 191,-148.5 195.71,-150.42 200.64,-152.28 205.63,-154.06"/>
<polygon fill="midnightblue" stroke="midnightblue" points="204.65,-157.42 215.24,-157.37 206.93,-150.8 204.65,-157.42"/>
</g>
<!-- Node3 -->
<g id="node3" class="node">
<title>Node3</title>
<g id="a_node3"><a xlink:href="classbin_1_1class__files_1_1nucleus__class_1_1nucleus.html#a55a5784d83fa52302ce1cb202dbf4abe" target="_top" xlink:title=" ">
<polygon fill="white" stroke="black" points="212,-98 212,-139 325,-139 325,-98 212,-98"/>
<text text-anchor="start" x="220" y="-127" font-family="Helvetica,sans-Serif" font-size="10.00">bin.class_files.nucleus</text>
<text text-anchor="start" x="220" y="-116" font-family="Helvetica,sans-Serif" font-size="10.00">_class.nucleus.__init</text>
<text text-anchor="middle" x="268.5" y="-105" font-family="Helvetica,sans-Serif" font-size="10.00">_properties</text>
</a>
</g>
</g>
<!-- Node1&#45;&gt;Node3 -->
<g id="edge3" class="edge">
<title>Node1&#45;&gt;Node3</title>
<path fill="none" stroke="midnightblue" d="M155.1,-102.44C170.56,-104.65 186.69,-106.96 201.74,-109.11"/>
<polygon fill="midnightblue" stroke="midnightblue" points="201.58,-112.62 211.97,-110.57 202.57,-105.69 201.58,-112.62"/>
</g>
<!-- Node4 -->
<g id="node4" class="node">
<title>Node4</title>
<g id="a_node4"><a xlink:href="classsrc__files_1_1nucleus__class_1_1nucleus.html#aebf0d8340b6faa0183f42571af57323f" target="_top" xlink:title=" ">
<polygon fill="white" stroke="black" points="191,-49.5 191,-79.5 346,-79.5 346,-49.5 191,-49.5"/>
<text text-anchor="start" x="199" y="-67.5" font-family="Helvetica,sans-Serif" font-size="10.00">src_files.nucleus_class.nucleus.</text>
<text text-anchor="middle" x="268.5" y="-56.5" font-family="Helvetica,sans-Serif" font-size="10.00">__initialize</text>
</a>
</g>
</g>
<!-- Node1&#45;&gt;Node4 -->
<g id="edge4" class="edge">
<title>Node1&#45;&gt;Node4</title>
<path fill="none" stroke="midnightblue" d="M155.1,-80.56C163.56,-79.35 172.22,-78.11 180.79,-76.89"/>
<polygon fill="midnightblue" stroke="midnightblue" points="181.39,-80.34 190.79,-75.46 180.4,-73.41 181.39,-80.34"/>
</g>
<!-- Node5 -->
<g id="node5" class="node">
<title>Node5</title>
<g id="a_node5"><a xlink:href="classbin_1_1class__files_1_1nucleus__class_1_1nucleus.html#a50f002c87d5fbd0329dc47f1ad208da3" target="_top" xlink:title=" ">
<polygon fill="white" stroke="black" points="204.5,-0.5 204.5,-30.5 332.5,-30.5 332.5,-0.5 204.5,-0.5"/>
<text text-anchor="start" x="212.5" y="-18.5" font-family="Helvetica,sans-Serif" font-size="10.00">bin.class_files.nucleus</text>
<text text-anchor="middle" x="268.5" y="-7.5" font-family="Helvetica,sans-Serif" font-size="10.00">_class.nucleus.__initialize</text>
</a>
</g>
</g>
<!-- Node1&#45;&gt;Node5 -->
<g id="edge5" class="edge">
<title>Node1&#45;&gt;Node5</title>
<path fill="none" stroke="midnightblue" d="M109.63,-76.28C132,-65.61 163.02,-51.38 191,-40.5 196.81,-38.24 202.92,-36.01 209.05,-33.87"/>
<polygon fill="midnightblue" stroke="midnightblue" points="210.33,-37.13 218.65,-30.58 208.06,-30.51 210.33,-37.13"/>
</g>
</g>
</svg>
