<?xml version="1.0" encoding="UTF-8" standalone="no"?>
<!DOCTYPE svg PUBLIC "-//W3C//DTD SVG 1.1//EN"
 "http://www.w3.org/Graphics/SVG/1.1/DTD/svg11.dtd">
<!-- Generated by graphviz version 2.44.0 ()
 -->
<!-- Title: bin.create_neutrino_nucleon_file.nunucleon.sigma_avg_anu_p Pages: 1 -->
<svg width="741pt" height="99pt"
 viewBox="0.00 0.00 741.00 98.50" xmlns="http://www.w3.org/2000/svg" xmlns:xlink="http://www.w3.org/1999/xlink">
<g id="graph0" class="graph" transform="scale(1 1) rotate(0) translate(4 94.5)">
<title>bin.create_neutrino_nucleon_file.nunucleon.sigma_avg_anu_p</title>
<polygon fill="white" stroke="transparent" points="-4,4 -4,-94.5 737,-94.5 737,4 -4,4"/>
<!-- Node1 -->
<g id="node1" class="node">
<title>Node1</title>
<g id="a_node1"><a xlink:title=" ">
<polygon fill="#bfbfbf" stroke="black" points="0,-22 0,-63 148,-63 148,-22 0,-22"/>
<text text-anchor="start" x="8" y="-51" font-family="Helvetica,sans-Serif" font-size="10.00">bin.create_neutrino</text>
<text text-anchor="start" x="8" y="-40" font-family="Helvetica,sans-Serif" font-size="10.00">_nucleon_file.nunucleon.sigma</text>
<text text-anchor="middle" x="74" y="-29" font-family="Helvetica,sans-Serif" font-size="10.00">_avg_anu_p</text>
</a>
</g>
</g>
<!-- Node2 -->
<g id="node2" class="node">
<title>Node2</title>
<g id="a_node2"><a xlink:href="classbin_1_1create__neutrino__nucleon__file_1_1nunucleon.html#ad6aaaefa464d1facfcd880c496d825a3" target="_top" xlink:title=" ">
<polygon fill="white" stroke="black" points="197.5,-49 197.5,-90 349.5,-90 349.5,-49 197.5,-49"/>
<text text-anchor="start" x="205.5" y="-78" font-family="Helvetica,sans-Serif" font-size="10.00">bin.create_neutrino</text>
<text text-anchor="start" x="205.5" y="-67" font-family="Helvetica,sans-Serif" font-size="10.00">_nucleon_file.nunucleon.Fermi_</text>
<text text-anchor="middle" x="273.5" y="-56" font-family="Helvetica,sans-Serif" font-size="10.00">Dirac</text>
</a>
</g>
</g>
<!-- Node1&#45;&gt;Node2 -->
<g id="edge1" class="edge">
<title>Node1&#45;&gt;Node2</title>
<path fill="none" stroke="midnightblue" d="M148.26,-52.52C160.91,-54.24 174.15,-56.06 187.09,-57.82"/>
<polygon fill="midnightblue" stroke="midnightblue" points="187,-61.34 197.38,-59.23 187.94,-54.41 187,-61.34"/>
</g>
<!-- Node3 -->
<g id="node3" class="node">
<title>Node3</title>
<g id="a_node3"><a xlink:href="classbin_1_1create__neutrino__nucleon__file_1_1nunucleon.html#ac620b49e06adfc690472d7c4f7c3b38d" target="_top" xlink:title=" ">
<polygon fill="white" stroke="black" points="184,-0.5 184,-30.5 363,-30.5 363,-0.5 184,-0.5"/>
<text text-anchor="start" x="192" y="-18.5" font-family="Helvetica,sans-Serif" font-size="10.00">bin.create_neutrino</text>
<text text-anchor="middle" x="273.5" y="-7.5" font-family="Helvetica,sans-Serif" font-size="10.00">_nucleon_file.nunucleon.sigma_anu_p</text>
</a>
</g>
</g>
<!-- Node1&#45;&gt;Node3 -->
<g id="edge2" class="edge">
<title>Node1&#45;&gt;Node3</title>
<path fill="none" stroke="midnightblue" d="M148.26,-32.48C156.62,-31.34 165.25,-30.16 173.87,-28.98"/>
<polygon fill="midnightblue" stroke="midnightblue" points="174.55,-32.42 183.98,-27.6 173.6,-25.49 174.55,-32.42"/>
</g>
<!-- Node4 -->
<g id="node4" class="node">
<title>Node4</title>
<g id="a_node4"><a xlink:href="classbin_1_1create__neutrino__nucleon__file_1_1nunucleon.html#a34d35c5fbf3f086958cbb6ff65334d71" target="_top" xlink:title=" ">
<polygon fill="white" stroke="black" points="399,-0.5 399,-30.5 551,-30.5 551,-0.5 399,-0.5"/>
<text text-anchor="start" x="407" y="-18.5" font-family="Helvetica,sans-Serif" font-size="10.00">bin.create_neutrino</text>
<text text-anchor="middle" x="475" y="-7.5" font-family="Helvetica,sans-Serif" font-size="10.00">_nucleon_file.nunucleon.WMbar</text>
</a>
</g>
</g>
<!-- Node3&#45;&gt;Node4 -->
<g id="edge3" class="edge">
<title>Node3&#45;&gt;Node4</title>
<path fill="none" stroke="midnightblue" d="M363.17,-15.5C371.6,-15.5 380.14,-15.5 388.54,-15.5"/>
<polygon fill="midnightblue" stroke="midnightblue" points="388.71,-19 398.71,-15.5 388.71,-12 388.71,-19"/>
</g>
<!-- Node5 -->
<g id="node5" class="node">
<title>Node5</title>
<g id="a_node5"><a xlink:href="classbin_1_1create__neutrino__nucleon__file_1_1nunucleon.html#a4cbdc40f98cdb7758822a5bfc600bd35" target="_top" xlink:title=" ">
<polygon fill="white" stroke="black" points="587,-0.5 587,-30.5 733,-30.5 733,-0.5 587,-0.5"/>
<text text-anchor="start" x="595" y="-18.5" font-family="Helvetica,sans-Serif" font-size="10.00">bin.create_neutrino</text>
<text text-anchor="middle" x="660" y="-7.5" font-family="Helvetica,sans-Serif" font-size="10.00">_nucleon_file.nunucleon.__cor</text>
</a>
</g>
</g>
<!-- Node4&#45;&gt;Node5 -->
<g id="edge4" class="edge">
<title>Node4&#45;&gt;Node5</title>
<path fill="none" stroke="midnightblue" d="M551.23,-15.5C559.57,-15.5 568.09,-15.5 576.52,-15.5"/>
<polygon fill="midnightblue" stroke="midnightblue" points="576.72,-19 586.72,-15.5 576.72,-12 576.72,-19"/>
</g>
</g>
</svg>
