<?xml version="1.0" encoding="UTF-8" standalone="no"?>
<!DOCTYPE svg PUBLIC "-//W3C//DTD SVG 1.1//EN"
 "http://www.w3.org/Graphics/SVG/1.1/DTD/svg11.dtd">
<!-- Generated by graphviz version 2.44.0 ()
 -->
<!-- Title: src_files.FlowAnimation.FlowAnimation.on_slider_release Pages: 1 -->
<!--zoomable 410 -->
<svg id="main" version="1.1" xmlns="http://www.w3.org/2000/svg" xmlns:xlink="http://www.w3.org/1999/xlink" xml:space="preserve" onload="init(evt)">
<style type="text/css"><![CDATA[
.edge:hover path { stroke: red; }
.edge:hover polygon { stroke: red; fill: red; }
]]></style>
<script type="text/javascript"><![CDATA[
var edges = document.getElementsByTagName('g');
if (edges && edges.length) {
  for (var i=0;i<edges.length;i++) {
    if (edges[i].id.substr(0,4)=='edge') {
      edges[i].setAttribute('class','edge');
    }
  }
}
]]></script>
        <defs>
                <circle id="rim" cx="0" cy="0" r="7"/>
                <circle id="rim2" cx="0" cy="0" r="3.5"/>
                <g id="zoomPlus">
                        <use xlink:href="#rim" fill="#404040">
                                <set attributeName="fill" to="#808080" begin="zoomplus.mouseover" end="zoomplus.mouseout"/>
                        </use>
                        <path d="M-4,0h8M0,-4v8" fill="none" stroke="white" stroke-width="1.5" pointer-events="none"/>
                </g>
                <g id="zoomMin">
                        <use xlink:href="#rim" fill="#404040">
                                <set attributeName="fill" to="#808080" begin="zoomminus.mouseover" end="zoomminus.mouseout"/>
                        </use>
                        <path d="M-4,0h8" fill="none" stroke="white" stroke-width="1.5" pointer-events="none"/>
                </g>
                <g id="dirArrow">
                        <path fill="none" stroke="white" stroke-width="1.5" d="M0,-3.0v7 M-2.5,-0.5L0,-3.0L2.5,-0.5"/>
                </g>
               <g id="resetDef">
                       <use xlink:href="#rim2" fill="#404040">
                               <set attributeName="fill" to="#808080" begin="reset.mouseover" end="reset.mouseout"/>
                       </use>
               </g>
        </defs>

<script type="text/javascript">
var viewWidth = 861;
var viewHeight = 410;
var sectionId = 'dynsection-7';
</script>
<script xlink:href="svgpan.js"/>
<svg id="graph" class="graph">
<g id="viewport">
<title>src_files.FlowAnimation.FlowAnimation.on_slider_release</title>
<polygon fill="white" stroke="transparent" points="-4,4 -4,-405.5 857,-405.5 857,4 -4,4"/>
<!-- Node1 -->
<g id="node1" class="node">
<title>Node1</title>
<g id="a_node1"><a xlink:title=" ">
<polygon fill="#bfbfbf" stroke="black" points="0,-142 0,-183 122,-183 122,-142 0,-142"/>
<text text-anchor="start" x="8" y="-171" font-family="Helvetica,sans-Serif" font-size="10.00">src_files.FlowAnimation.</text>
<text text-anchor="start" x="8" y="-160" font-family="Helvetica,sans-Serif" font-size="10.00">FlowAnimation.on_slider</text>
<text text-anchor="middle" x="61" y="-149" font-family="Helvetica,sans-Serif" font-size="10.00">_release</text>
</a>
</g>
</g>
<!-- Node2 -->
<g id="node2" class="node">
<title>Node2</title>
<g id="a_node2"><a xlink:href="classsrc__files_1_1FlowAnimation_1_1FlowAnimation.html#a9380a0b78d34369e5bb10e0109e53b60" target="_top" xlink:title=" ">
<polygon fill="white" stroke="black" points="158,-142 158,-183 280,-183 280,-142 158,-142"/>
<text text-anchor="start" x="166" y="-171" font-family="Helvetica,sans-Serif" font-size="10.00">src_files.FlowAnimation.</text>
<text text-anchor="start" x="166" y="-160" font-family="Helvetica,sans-Serif" font-size="10.00">FlowAnimation.on_slider</text>
<text text-anchor="middle" x="219" y="-149" font-family="Helvetica,sans-Serif" font-size="10.00">_update</text>
</a>
</g>
</g>
<!-- Node1&#45;&gt;Node2 -->
<g id="edge1" class="edge">
<title>Node1&#45;&gt;Node2</title>
<path fill="none" stroke="midnightblue" d="M122.31,-162.5C130.6,-162.5 139.17,-162.5 147.63,-162.5"/>
<polygon fill="midnightblue" stroke="midnightblue" points="147.85,-166 157.85,-162.5 147.85,-159 147.85,-166"/>
</g>
<!-- Node3 -->
<g id="node3" class="node">
<title>Node3</title>
<g id="a_node3"><a xlink:href="classsrc__files_1_1FlowAnimation_1_1FlowAnimation.html#aa43d9d15f49ab97e34b6f975228b02f1" target="_top" xlink:title=" ">
<polygon fill="white" stroke="black" points="316,-147.5 316,-177.5 459,-177.5 459,-147.5 316,-147.5"/>
<text text-anchor="start" x="324" y="-165.5" font-family="Helvetica,sans-Serif" font-size="10.00">src_files.FlowAnimation.</text>
<text text-anchor="middle" x="387.5" y="-154.5" font-family="Helvetica,sans-Serif" font-size="10.00">FlowAnimation.update_frame</text>
</a>
</g>
</g>
<!-- Node2&#45;&gt;Node3 -->
<g id="edge2" class="edge">
<title>Node2&#45;&gt;Node3</title>
<path fill="none" stroke="midnightblue" d="M280.11,-162.5C288.48,-162.5 297.19,-162.5 305.86,-162.5"/>
<polygon fill="midnightblue" stroke="midnightblue" points="305.99,-166 315.99,-162.5 305.99,-159 305.99,-166"/>
</g>
<!-- Node4 -->
<g id="node4" class="node">
<title>Node4</title>
<g id="a_node4"><a xlink:href="classsrc__files_1_1FlowAnimation_1_1FlowAnimation.html#ae5cf5c670cfd79914fba912bfada1083" target="_top" xlink:title=" ">
<polygon fill="white" stroke="black" points="507,-294.5 507,-324.5 667,-324.5 667,-294.5 507,-294.5"/>
<text text-anchor="start" x="515" y="-312.5" font-family="Helvetica,sans-Serif" font-size="10.00">src_files.FlowAnimation.</text>
<text text-anchor="middle" x="587" y="-301.5" font-family="Helvetica,sans-Serif" font-size="10.00">FlowAnimation.update_abun_plot</text>
</a>
</g>
</g>
<!-- Node3&#45;&gt;Node4 -->
<g id="edge3" class="edge">
<title>Node3&#45;&gt;Node4</title>
<path fill="none" stroke="midnightblue" d="M397.26,-177.56C413.24,-203.67 449.7,-257.25 495,-285.5 497.77,-287.23 500.67,-288.83 503.65,-290.32"/>
<polygon fill="midnightblue" stroke="midnightblue" points="502.26,-293.54 512.82,-294.46 505.14,-287.16 502.26,-293.54"/>
</g>
<!-- Node5 -->
<g id="node5" class="node">
<title>Node5</title>
<g id="a_node5"><a xlink:href="classsrc__files_1_1FlowAnimation_1_1FlowAnimation.html#a95e4fc280171aeddd24ea64c7ac34ca1" target="_top" xlink:title=" ">
<polygon fill="white" stroke="black" points="518.5,-245.5 518.5,-275.5 655.5,-275.5 655.5,-245.5 518.5,-245.5"/>
<text text-anchor="start" x="526.5" y="-263.5" font-family="Helvetica,sans-Serif" font-size="10.00">src_files.FlowAnimation.</text>
<text text-anchor="middle" x="587" y="-252.5" font-family="Helvetica,sans-Serif" font-size="10.00">FlowAnimation.update_data</text>
</a>
</g>
</g>
<!-- Node3&#45;&gt;Node5 -->
<g id="edge4" class="edge">
<title>Node3&#45;&gt;Node5</title>
<path fill="none" stroke="midnightblue" d="M406.15,-177.7C426.36,-194.37 461.07,-220.83 495,-236.5 499.4,-238.53 504.01,-240.42 508.71,-242.16"/>
<polygon fill="midnightblue" stroke="midnightblue" points="507.87,-245.57 518.47,-245.54 510.16,-238.96 507.87,-245.57"/>
</g>
<!-- Node11 -->
<g id="node11" class="node">
<title>Node11</title>
<g id="a_node11"><a xlink:href="classsrc__files_1_1FlowAnimation_1_1FlowAnimation.html#a3c3a1682828427540b5999cfb2680498" target="_top" xlink:title=" ">
<polygon fill="white" stroke="black" points="503.5,-196.5 503.5,-226.5 670.5,-226.5 670.5,-196.5 503.5,-196.5"/>
<text text-anchor="start" x="511.5" y="-214.5" font-family="Helvetica,sans-Serif" font-size="10.00">src_files.FlowAnimation.</text>
<text text-anchor="middle" x="587" y="-203.5" font-family="Helvetica,sans-Serif" font-size="10.00">FlowAnimation.update_fission_plot</text>
</a>
</g>
</g>
<!-- Node3&#45;&gt;Node11 -->
<g id="edge10" class="edge">
<title>Node3&#45;&gt;Node11</title>
<path fill="none" stroke="midnightblue" d="M449.1,-177.53C470.14,-182.76 493.92,-188.65 515.68,-194.05"/>
<polygon fill="midnightblue" stroke="midnightblue" points="514.97,-197.48 525.52,-196.49 516.65,-190.69 514.97,-197.48"/>
</g>
<!-- Node12 -->
<g id="node12" class="node">
<title>Node12</title>
<g id="a_node12"><a xlink:href="classsrc__files_1_1FlowAnimation_1_1FlowAnimation.html#a69be16253d1914cf7d7b615f991b30b5" target="_top" xlink:title=" ">
<polygon fill="white" stroke="black" points="509,-147.5 509,-177.5 665,-177.5 665,-147.5 509,-147.5"/>
<text text-anchor="start" x="517" y="-165.5" font-family="Helvetica,sans-Serif" font-size="10.00">src_files.FlowAnimation.</text>
<text text-anchor="middle" x="587" y="-154.5" font-family="Helvetica,sans-Serif" font-size="10.00">FlowAnimation.update_flow_plot</text>
</a>
</g>
</g>
<!-- Node3&#45;&gt;Node12 -->
<g id="edge11" class="edge">
<title>Node3&#45;&gt;Node12</title>
<path fill="none" stroke="midnightblue" d="M459.24,-162.5C472.03,-162.5 485.51,-162.5 498.7,-162.5"/>
<polygon fill="midnightblue" stroke="midnightblue" points="498.72,-166 508.72,-162.5 498.72,-159 498.72,-166"/>
</g>
<!-- Node13 -->
<g id="node13" class="node">
<title>Node13</title>
<g id="a_node13"><a xlink:href="classsrc__files_1_1FlowAnimation_1_1FlowAnimation.html#a0f74e5f140064ab9090785781a2d397d" target="_top" xlink:title=" ">
<polygon fill="white" stroke="black" points="495,-98.5 495,-128.5 679,-128.5 679,-98.5 495,-98.5"/>
<text text-anchor="start" x="503" y="-116.5" font-family="Helvetica,sans-Serif" font-size="10.00">src_files.FlowAnimation.</text>
<text text-anchor="middle" x="587" y="-105.5" font-family="Helvetica,sans-Serif" font-size="10.00">FlowAnimation.update_interactive_text</text>
</a>
</g>
</g>
<!-- Node3&#45;&gt;Node13 -->
<g id="edge12" class="edge">
<title>Node3&#45;&gt;Node13</title>
<path fill="none" stroke="midnightblue" d="M449.1,-147.47C470.14,-142.24 493.92,-136.35 515.68,-130.95"/>
<polygon fill="midnightblue" stroke="midnightblue" points="516.65,-134.31 525.52,-128.51 514.97,-127.52 516.65,-134.31"/>
</g>
<!-- Node14 -->
<g id="node14" class="node">
<title>Node14</title>
<g id="a_node14"><a xlink:href="classsrc__files_1_1FlowAnimation_1_1FlowAnimation.html#a884d661885aa9f83ca36713c791fd245" target="_top" xlink:title=" ">
<polygon fill="white" stroke="black" points="499,-49.5 499,-79.5 675,-79.5 675,-49.5 499,-49.5"/>
<text text-anchor="start" x="507" y="-67.5" font-family="Helvetica,sans-Serif" font-size="10.00">src_files.FlowAnimation.</text>
<text text-anchor="middle" x="587" y="-56.5" font-family="Helvetica,sans-Serif" font-size="10.00">FlowAnimation.update_ngamma_plot</text>
</a>
</g>
</g>
<!-- Node3&#45;&gt;Node14 -->
<g id="edge13" class="edge">
<title>Node3&#45;&gt;Node14</title>
<path fill="none" stroke="midnightblue" d="M406.15,-147.3C426.36,-130.63 461.07,-104.17 495,-88.5 499.32,-86.51 503.83,-84.66 508.43,-82.94"/>
<polygon fill="midnightblue" stroke="midnightblue" points="509.69,-86.21 517.98,-79.62 507.39,-79.6 509.69,-86.21"/>
</g>
<!-- Node15 -->
<g id="node15" class="node">
<title>Node15</title>
<g id="a_node15"><a xlink:href="classsrc__files_1_1FlowAnimation_1_1FlowAnimation.html#a269a1fec8ec2787aa0048fb744c544a2" target="_top" xlink:title=" ">
<polygon fill="white" stroke="black" points="516.5,-0.5 516.5,-30.5 657.5,-30.5 657.5,-0.5 516.5,-0.5"/>
<text text-anchor="start" x="524.5" y="-18.5" font-family="Helvetica,sans-Serif" font-size="10.00">src_files.FlowAnimation.</text>
<text text-anchor="middle" x="587" y="-7.5" font-family="Helvetica,sans-Serif" font-size="10.00">FlowAnimation.update_slider</text>
</a>
</g>
</g>
<!-- Node3&#45;&gt;Node15 -->
<g id="edge14" class="edge">
<title>Node3&#45;&gt;Node15</title>
<path fill="none" stroke="midnightblue" d="M397.26,-147.44C413.24,-121.33 449.7,-67.75 495,-39.5 498.67,-37.21 502.54,-35.15 506.55,-33.27"/>
<polygon fill="midnightblue" stroke="midnightblue" points="508.25,-36.36 516.11,-29.25 505.53,-29.9 508.25,-36.36"/>
</g>
<!-- Node6 -->
<g id="node6" class="node">
<title>Node6</title>
<g id="a_node6"><a xlink:href="classsrc__files_1_1FlowAnimation_1_1FlowAnimation.html#a8fc4810f1535c249641ab8cb7377d98b" target="_top" xlink:title=" ">
<polygon fill="white" stroke="black" points="718.5,-360 718.5,-401 849.5,-401 849.5,-360 718.5,-360"/>
<text text-anchor="start" x="726.5" y="-389" font-family="Helvetica,sans-Serif" font-size="10.00">src_files.FlowAnimation.</text>
<text text-anchor="start" x="726.5" y="-378" font-family="Helvetica,sans-Serif" font-size="10.00">FlowAnimation.__init_data</text>
<text text-anchor="middle" x="784" y="-367" font-family="Helvetica,sans-Serif" font-size="10.00">_addmainout</text>
</a>
</g>
</g>
<!-- Node5&#45;&gt;Node6 -->
<g id="edge5" class="edge">
<title>Node5&#45;&gt;Node6</title>
<path fill="none" stroke="midnightblue" d="M655.57,-272.41C663.98,-275.76 672.05,-280.03 679,-285.5 704.96,-305.92 690.62,-328.23 715,-350.5 716.31,-351.7 717.68,-352.85 719.09,-353.97"/>
<polygon fill="midnightblue" stroke="midnightblue" points="717.4,-357.05 727.6,-359.9 721.4,-351.31 717.4,-357.05"/>
</g>
<!-- Node7 -->
<g id="node7" class="node">
<title>Node7</title>
<g id="a_node7"><a xlink:href="classsrc__files_1_1FlowAnimation_1_1FlowAnimation.html#a9e88300af271ce4c397fb5b6368ffb68" target="_top" xlink:title=" ">
<polygon fill="white" stroke="black" points="718.5,-300 718.5,-341 849.5,-341 849.5,-300 718.5,-300"/>
<text text-anchor="start" x="726.5" y="-329" font-family="Helvetica,sans-Serif" font-size="10.00">src_files.FlowAnimation.</text>
<text text-anchor="start" x="726.5" y="-318" font-family="Helvetica,sans-Serif" font-size="10.00">FlowAnimation.__init_data</text>
<text text-anchor="middle" x="784" y="-307" font-family="Helvetica,sans-Serif" font-size="10.00">_energy</text>
</a>
</g>
</g>
<!-- Node5&#45;&gt;Node7 -->
<g id="edge6" class="edge">
<title>Node5&#45;&gt;Node7</title>
<path fill="none" stroke="midnightblue" d="M644.94,-275.61C656.26,-278.76 668.03,-282.15 679,-285.5 690.39,-288.98 702.41,-292.84 714.09,-296.7"/>
<polygon fill="midnightblue" stroke="midnightblue" points="713.2,-300.09 723.79,-299.93 715.41,-293.45 713.2,-300.09"/>
</g>
<!-- Node8 -->
<g id="node8" class="node">
<title>Node8</title>
<g id="a_node8"><a xlink:href="classsrc__files_1_1FlowAnimation_1_1FlowAnimation.html#a0e9148bf5756f81387be0f1c34c0b0f1" target="_top" xlink:title=" ">
<polygon fill="white" stroke="black" points="718.5,-240 718.5,-281 849.5,-281 849.5,-240 718.5,-240"/>
<text text-anchor="start" x="726.5" y="-269" font-family="Helvetica,sans-Serif" font-size="10.00">src_files.FlowAnimation.</text>
<text text-anchor="start" x="726.5" y="-258" font-family="Helvetica,sans-Serif" font-size="10.00">FlowAnimation.__init_data</text>
<text text-anchor="middle" x="784" y="-247" font-family="Helvetica,sans-Serif" font-size="10.00">_timescales</text>
</a>
</g>
</g>
<!-- Node5&#45;&gt;Node8 -->
<g id="edge7" class="edge">
<title>Node5&#45;&gt;Node8</title>
<path fill="none" stroke="midnightblue" d="M655.65,-260.5C672.67,-260.5 691.02,-260.5 708.35,-260.5"/>
<polygon fill="midnightblue" stroke="midnightblue" points="708.42,-264 718.42,-260.5 708.42,-257 708.42,-264"/>
</g>
<!-- Node9 -->
<g id="node9" class="node">
<title>Node9</title>
<g id="a_node9"><a xlink:href="classsrc__files_1_1FlowAnimation_1_1FlowAnimation.html#a7031b76d4d9ec67e745a8357a8704540" target="_top" xlink:title=" ">
<polygon fill="white" stroke="black" points="718.5,-180 718.5,-221 849.5,-221 849.5,-180 718.5,-180"/>
<text text-anchor="start" x="726.5" y="-209" font-family="Helvetica,sans-Serif" font-size="10.00">src_files.FlowAnimation.</text>
<text text-anchor="start" x="726.5" y="-198" font-family="Helvetica,sans-Serif" font-size="10.00">FlowAnimation.__init_data</text>
<text text-anchor="middle" x="784" y="-187" font-family="Helvetica,sans-Serif" font-size="10.00">_tracked</text>
</a>
</g>
</g>
<!-- Node5&#45;&gt;Node9 -->
<g id="edge8" class="edge">
<title>Node5&#45;&gt;Node9</title>
<path fill="none" stroke="midnightblue" d="M647.9,-245.39C658.31,-242.57 669,-239.55 679,-236.5 691.12,-232.81 703.93,-228.62 716.27,-224.43"/>
<polygon fill="midnightblue" stroke="midnightblue" points="717.71,-227.64 726.04,-221.08 715.44,-221.01 717.71,-227.64"/>
</g>
<!-- Node10 -->
<g id="node10" class="node">
<title>Node10</title>
<g id="a_node10"><a xlink:href="classsrc__files_1_1FlowAnimation_1_1FlowAnimation.html#a0b441e840894c30065df01b4a0c814ed" target="_top" xlink:title=" ">
<polygon fill="white" stroke="black" points="715,-131.5 715,-161.5 853,-161.5 853,-131.5 715,-131.5"/>
<text text-anchor="start" x="723" y="-149.5" font-family="Helvetica,sans-Serif" font-size="10.00">src_files.FlowAnimation.</text>
<text text-anchor="middle" x="784" y="-138.5" font-family="Helvetica,sans-Serif" font-size="10.00">FlowAnimation.sum_over_A</text>
</a>
</g>
</g>
<!-- Node5&#45;&gt;Node10 -->
<g id="edge9" class="edge">
<title>Node5&#45;&gt;Node10</title>
<path fill="none" stroke="midnightblue" d="M655.59,-249.42C663.99,-246.16 672.06,-241.94 679,-236.5 705.3,-215.89 689.56,-192.16 715,-170.5 716.5,-169.22 718.08,-168.01 719.71,-166.86"/>
<polygon fill="midnightblue" stroke="midnightblue" points="721.57,-169.82 728.28,-161.63 717.92,-163.85 721.57,-169.82"/>
</g>
</g>
</svg>
        <g id="navigator" transform="translate(0 0)" fill="#404254">
                <rect fill="#f2f5e9" fill-opacity="0.5" stroke="#606060" stroke-width=".5" x="0" y="0" width="60" height="60"/>
                <use id="zoomplus" xlink:href="#zoomPlus" x="17" y="9" onmousedown="handleZoom(evt,'in')"/>
                <use id="zoomminus" xlink:href="#zoomMin" x="42" y="9" onmousedown="handleZoom(evt,'out')"/>
                <use id="reset" xlink:href="#resetDef" x="30" y="36" onmousedown="handleReset()"/>
                <g id="arrowUp" xlink:href="#dirArrow" transform="translate(30 24)" onmousedown="handlePan(0,-1)">
                  <use xlink:href="#rim" fill="#404040">
                        <set attributeName="fill" to="#808080" begin="arrowUp.mouseover" end="arrowUp.mouseout"/>
                  </use>
                  <path fill="none" stroke="white" stroke-width="1.5" d="M0,-3.0v7 M-2.5,-0.5L0,-3.0L2.5,-0.5"/>
                </g>
                <g id="arrowRight" xlink:href="#dirArrow" transform="rotate(90) translate(36 -43)" onmousedown="handlePan(1,0)">
                  <use xlink:href="#rim" fill="#404040">
                        <set attributeName="fill" to="#808080" begin="arrowRight.mouseover" end="arrowRight.mouseout"/>
                  </use>
                  <path fill="none" stroke="white" stroke-width="1.5" d="M0,-3.0v7 M-2.5,-0.5L0,-3.0L2.5,-0.5"/>
                </g>
                <g id="arrowDown" xlink:href="#dirArrow" transform="rotate(180) translate(-30 -48)" onmousedown="handlePan(0,1)">
                  <use xlink:href="#rim" fill="#404040">
                        <set attributeName="fill" to="#808080" begin="arrowDown.mouseover" end="arrowDown.mouseout"/>
                  </use>
                  <path fill="none" stroke="white" stroke-width="1.5" d="M0,-3.0v7 M-2.5,-0.5L0,-3.0L2.5,-0.5"/>
                </g>
                <g id="arrowLeft" xlink:href="#dirArrow" transform="rotate(270) translate(-36 17)" onmousedown="handlePan(-1,0)">
                  <use xlink:href="#rim" fill="#404040">
                        <set attributeName="fill" to="#808080" begin="arrowLeft.mouseover" end="arrowLeft.mouseout"/>
                  </use>
                  <path fill="none" stroke="white" stroke-width="1.5" d="M0,-3.0v7 M-2.5,-0.5L0,-3.0L2.5,-0.5"/>
                </g>
        </g>
        <svg viewBox="0 0 15 15" width="100%" height="30px" preserveAspectRatio="xMaxYMin meet">
         <g id="arrow_out" transform="scale(0.3 0.3)">
          <a xlink:href="classsrc__files_1_1FlowAnimation_1_1FlowAnimation_a36e72acb6d6fd0a724971839ecb1255e_cgraph_org.svg" target="_base">
           <rect id="button" ry="5" rx="5" y="6" x="6" height="38" width="38"
                fill="#f2f5e9" fill-opacity="0.5" stroke="#606060" stroke-width="1.0"/>
           <path id="arrow"
             d="M 11.500037,31.436501 C 11.940474,20.09759 22.043105,11.32322 32.158766,21.979434 L 37.068811,17.246167 C 37.068811,17.246167 37.088388,32 37.088388,32 L 22.160133,31.978069 C 22.160133,31.978069 26.997745,27.140456 26.997745,27.140456 C 18.528582,18.264221 13.291696,25.230495 11.500037,31.436501 z"
             style="fill:#404040;"/>
          </a>
         </g>
        </svg>
</svg>
