<?xml version="1.0" encoding="UTF-8" standalone="no"?>
<!DOCTYPE svg PUBLIC "-//W3C//DTD SVG 1.1//EN"
 "http://www.w3.org/Graphics/SVG/1.1/DTD/svg11.dtd">
<!-- Generated by graphviz version 2.44.0 ()
 -->
<!-- Title: eosfxt Pages: 1 -->
<svg width="312pt" height="161pt"
 viewBox="0.00 0.00 312.00 161.00" xmlns="http://www.w3.org/2000/svg" xmlns:xlink="http://www.w3.org/1999/xlink">
<g id="graph0" class="graph" transform="scale(1 1) rotate(0) translate(4 157)">
<title>eosfxt</title>
<polygon fill="white" stroke="transparent" points="-4,4 -4,-157 308,-157 308,4 -4,4"/>
<!-- Node1 -->
<g id="node1" class="node">
<title>Node1</title>
<g id="a_node1"><a xlink:title=" ">
<polygon fill="#bfbfbf" stroke="black" points="0,-95.5 0,-114.5 43,-114.5 43,-95.5 0,-95.5"/>
<text text-anchor="middle" x="21.5" y="-102.5" font-family="Helvetica,sans-Serif" font-size="10.00">eosfxt</text>
</a>
</g>
</g>
<!-- Node2 -->
<g id="node2" class="node">
<title>Node2</title>
<g id="a_node2"><a xlink:href="eosfxt_8f.html#a4dd7b4a9689e75b5ee0f56fcf260b461" target="_top" xlink:title=" ">
<polygon fill="white" stroke="black" points="79,-133.5 79,-152.5 132,-152.5 132,-133.5 79,-133.5"/>
<text text-anchor="middle" x="105.5" y="-140.5" font-family="Helvetica,sans-Serif" font-size="10.00">coulomb</text>
</a>
</g>
</g>
<!-- Node1&#45;&gt;Node2 -->
<g id="edge1" class="edge">
<title>Node1&#45;&gt;Node2</title>
<path fill="none" stroke="midnightblue" d="M43.19,-114.59C52.71,-119 64.18,-124.31 74.61,-129.15"/>
<polygon fill="midnightblue" stroke="midnightblue" points="73.27,-132.38 83.81,-133.41 76.21,-126.03 73.27,-132.38"/>
</g>
<!-- Node4 -->
<g id="node4" class="node">
<title>Node4</title>
<g id="a_node4"><a xlink:href="eosfxt_8f.html#a40e1707c6481e6f394d33c9de7744a80" target="_top" xlink:title=" ">
<polygon fill="white" stroke="black" points="82.5,-95.5 82.5,-114.5 128.5,-114.5 128.5,-95.5 82.5,-95.5"/>
<text text-anchor="middle" x="105.5" y="-102.5" font-family="Helvetica,sans-Serif" font-size="10.00">etages</text>
</a>
</g>
</g>
<!-- Node1&#45;&gt;Node4 -->
<g id="edge3" class="edge">
<title>Node1&#45;&gt;Node4</title>
<path fill="none" stroke="midnightblue" d="M43.19,-105C51.97,-105 62.42,-105 72.17,-105"/>
<polygon fill="midnightblue" stroke="midnightblue" points="72.38,-108.5 82.38,-105 72.38,-101.5 72.38,-108.5"/>
</g>
<!-- Node5 -->
<g id="node5" class="node">
<title>Node5</title>
<g id="a_node5"><a xlink:href="eosfxt_8f.html#ac215ef28344d8bf47b95d146f191fc74" target="_top" xlink:title=" ">
<polygon fill="white" stroke="black" points="81.5,-57.5 81.5,-76.5 129.5,-76.5 129.5,-57.5 81.5,-57.5"/>
<text text-anchor="middle" x="105.5" y="-64.5" font-family="Helvetica,sans-Serif" font-size="10.00">xneroot</text>
</a>
</g>
</g>
<!-- Node1&#45;&gt;Node5 -->
<g id="edge5" class="edge">
<title>Node1&#45;&gt;Node5</title>
<path fill="none" stroke="midnightblue" d="M43.19,-95.41C52.71,-91 64.18,-85.69 74.61,-80.85"/>
<polygon fill="midnightblue" stroke="midnightblue" points="76.21,-83.97 83.81,-76.59 73.27,-77.62 76.21,-83.97"/>
</g>
<!-- Node3 -->
<g id="node3" class="node">
<title>Node3</title>
<g id="a_node3"><a xlink:href="quadpack__module_8f90.html#aada5a652920db442d627f1ca24ff25d7" target="_top" xlink:title="Further information: http://netlib.org/quadpack/index.html https://orion.math.iastate....">
<polygon fill="white" stroke="black" points="175.5,-114.5 175.5,-133.5 204.5,-133.5 204.5,-114.5 175.5,-114.5"/>
<text text-anchor="middle" x="190" y="-121.5" font-family="Helvetica,sans-Serif" font-size="10.00">pi</text>
</a>
</g>
</g>
<!-- Node2&#45;&gt;Node3 -->
<g id="edge2" class="edge">
<title>Node2&#45;&gt;Node3</title>
<path fill="none" stroke="midnightblue" d="M132.15,-137.09C142.68,-134.67 154.81,-131.87 165.14,-129.49"/>
<polygon fill="midnightblue" stroke="midnightblue" points="166.17,-132.85 175.13,-127.19 164.6,-126.03 166.17,-132.85"/>
</g>
<!-- Node4&#45;&gt;Node3 -->
<g id="edge4" class="edge">
<title>Node4&#45;&gt;Node3</title>
<path fill="none" stroke="midnightblue" d="M128.61,-110.09C140.01,-112.72 153.92,-115.92 165.51,-118.59"/>
<polygon fill="midnightblue" stroke="midnightblue" points="164.84,-122.03 175.37,-120.86 166.41,-115.21 164.84,-122.03"/>
</g>
<!-- Node6 -->
<g id="node6" class="node">
<title>Node6</title>
<g id="a_node6"><a xlink:href="eosfxt_8f.html#a5b92245336ba39f5012975d91948205f" target="_top" xlink:title=" ">
<polygon fill="white" stroke="black" points="168,-57.5 168,-76.5 212,-76.5 212,-57.5 168,-57.5"/>
<text text-anchor="middle" x="190" y="-64.5" font-family="Helvetica,sans-Serif" font-size="10.00">dfermi</text>
</a>
</g>
</g>
<!-- Node5&#45;&gt;Node6 -->
<g id="edge6" class="edge">
<title>Node5&#45;&gt;Node6</title>
<path fill="none" stroke="midnightblue" d="M129.92,-67C138.57,-67 148.52,-67 157.76,-67"/>
<polygon fill="midnightblue" stroke="midnightblue" points="157.78,-70.5 167.78,-67 157.78,-63.5 157.78,-70.5"/>
</g>
<!-- Node7 -->
<g id="node7" class="node">
<title>Node7</title>
<g id="a_node7"><a xlink:href="eosfxt_8f.html#abbb1b60c825d972dc00fe1f268f93f86" target="_top" xlink:title=" ">
<polygon fill="white" stroke="black" points="248,-114.5 248,-133.5 304,-133.5 304,-114.5 248,-114.5"/>
<text text-anchor="middle" x="276" y="-121.5" font-family="Helvetica,sans-Serif" font-size="10.00">dqlag020</text>
</a>
</g>
</g>
<!-- Node6&#45;&gt;Node7 -->
<g id="edge7" class="edge">
<title>Node6&#45;&gt;Node7</title>
<path fill="none" stroke="midnightblue" d="M205.25,-76.67C218.12,-85.4 237.28,-98.4 252.26,-108.57"/>
<polygon fill="midnightblue" stroke="midnightblue" points="250.72,-111.75 260.96,-114.47 254.65,-105.96 250.72,-111.75"/>
</g>
<!-- Node8 -->
<g id="node8" class="node">
<title>Node8</title>
<g id="a_node8"><a xlink:href="eosfxt_8f.html#a6cbbc7f07cffb75f5efaf893d547852f" target="_top" xlink:title=" ">
<polygon fill="white" stroke="black" points="248,-76.5 248,-95.5 304,-95.5 304,-76.5 248,-76.5"/>
<text text-anchor="middle" x="276" y="-83.5" font-family="Helvetica,sans-Serif" font-size="10.00">dqleg020</text>
</a>
</g>
</g>
<!-- Node6&#45;&gt;Node8 -->
<g id="edge8" class="edge">
<title>Node6&#45;&gt;Node8</title>
<path fill="none" stroke="midnightblue" d="M212.2,-71.79C220.04,-73.57 229.17,-75.63 238,-77.63"/>
<polygon fill="midnightblue" stroke="midnightblue" points="237.24,-81.05 247.76,-79.84 238.78,-74.22 237.24,-81.05"/>
</g>
<!-- Node9 -->
<g id="node9" class="node">
<title>Node9</title>
<g id="a_node9"><a xlink:href="eosfxt_8f.html#a9d9951640d440972fe5298fdd5d70c10" target="_top" xlink:title=" ">
<polygon fill="white" stroke="black" points="251.5,-38.5 251.5,-57.5 300.5,-57.5 300.5,-38.5 251.5,-38.5"/>
<text text-anchor="middle" x="276" y="-45.5" font-family="Helvetica,sans-Serif" font-size="10.00">fdfunc1</text>
</a>
</g>
</g>
<!-- Node6&#45;&gt;Node9 -->
<g id="edge9" class="edge">
<title>Node6&#45;&gt;Node9</title>
<path fill="none" stroke="midnightblue" d="M212.2,-62.21C221.07,-60.2 231.6,-57.82 241.48,-55.58"/>
<polygon fill="midnightblue" stroke="midnightblue" points="242.46,-58.95 251.44,-53.33 240.91,-52.12 242.46,-58.95"/>
</g>
<!-- Node10 -->
<g id="node10" class="node">
<title>Node10</title>
<g id="a_node10"><a xlink:href="eosfxt_8f.html#ae834089002139b7a18c24a337f6ff90a" target="_top" xlink:title=" ">
<polygon fill="white" stroke="black" points="251.5,-0.5 251.5,-19.5 300.5,-19.5 300.5,-0.5 251.5,-0.5"/>
<text text-anchor="middle" x="276" y="-7.5" font-family="Helvetica,sans-Serif" font-size="10.00">fdfunc2</text>
</a>
</g>
</g>
<!-- Node6&#45;&gt;Node10 -->
<g id="edge10" class="edge">
<title>Node6&#45;&gt;Node10</title>
<path fill="none" stroke="midnightblue" d="M205.25,-57.33C218.12,-48.6 237.28,-35.6 252.26,-25.43"/>
<polygon fill="midnightblue" stroke="midnightblue" points="254.65,-28.04 260.96,-19.53 250.72,-22.25 254.65,-28.04"/>
</g>
</g>
</svg>
