<?xml version="1.0" encoding="UTF-8" standalone="no"?>
<!DOCTYPE svg PUBLIC "-//W3C//DTD SVG 1.1//EN"
 "http://www.w3.org/Graphics/SVG/1.1/DTD/svg11.dtd">
<!-- Generated by graphviz version 2.44.0 ()
 -->
<!-- Title: hybrd Pages: 1 -->
<svg width="212pt" height="256pt"
 viewBox="0.00 0.00 212.00 256.00" xmlns="http://www.w3.org/2000/svg" xmlns:xlink="http://www.w3.org/1999/xlink">
<g id="graph0" class="graph" transform="scale(1 1) rotate(0) translate(4 252)">
<title>hybrd</title>
<polygon fill="white" stroke="transparent" points="-4,4 -4,-252 208,-252 208,4 -4,4"/>
<!-- Node1 -->
<g id="node1" class="node">
<title>Node1</title>
<g id="a_node1"><a xlink:title=" ">
<polygon fill="#bfbfbf" stroke="black" points="0,-114.5 0,-133.5 40,-133.5 40,-114.5 0,-114.5"/>
<text text-anchor="middle" x="20" y="-121.5" font-family="Helvetica,sans-Serif" font-size="10.00">hybrd</text>
</a>
</g>
</g>
<!-- Node2 -->
<g id="node2" class="node">
<title>Node2</title>
<g id="a_node2"><a xlink:href="fsolve_8f90.html#ab5a1319962e4855e0a2b7a7431085275" target="_top" xlink:title=" ">
<polygon fill="white" stroke="black" points="77.5,-228.5 77.5,-247.5 122.5,-247.5 122.5,-228.5 77.5,-228.5"/>
<text text-anchor="middle" x="100" y="-235.5" font-family="Helvetica,sans-Serif" font-size="10.00">dogleg</text>
</a>
</g>
</g>
<!-- Node1&#45;&gt;Node2 -->
<g id="edge1" class="edge">
<title>Node1&#45;&gt;Node2</title>
<path fill="none" stroke="midnightblue" d="M25.99,-133.63C34.97,-150.59 54.88,-186.58 76,-214 77.66,-216.16 79.5,-218.34 81.38,-220.46"/>
<polygon fill="midnightblue" stroke="midnightblue" points="79.23,-223.29 88.64,-228.16 84.33,-218.48 79.23,-223.29"/>
</g>
<!-- Node3 -->
<g id="node3" class="node">
<title>Node3</title>
<g id="a_node3"><a xlink:href="fsolve_8f90.html#a07a8827d47eead570957d377e64f7974" target="_top" xlink:title=" ">
<polygon fill="white" stroke="black" points="160,-190.5 160,-209.5 204,-209.5 204,-190.5 160,-190.5"/>
<text text-anchor="middle" x="182" y="-197.5" font-family="Helvetica,sans-Serif" font-size="10.00">enorm</text>
</a>
</g>
</g>
<!-- Node1&#45;&gt;Node3 -->
<g id="edge3" class="edge">
<title>Node1&#45;&gt;Node3</title>
<path fill="none" stroke="midnightblue" d="M27.5,-133.88C36.67,-146.92 54.66,-169.59 76,-181 98.74,-193.16 127.8,-197.72 149.58,-199.34"/>
<polygon fill="midnightblue" stroke="midnightblue" points="149.44,-202.84 159.63,-199.92 149.85,-195.85 149.44,-202.84"/>
</g>
<!-- Node4 -->
<g id="node4" class="node">
<title>Node4</title>
<g id="a_node4"><a xlink:href="fsolve_8f90.html#ab8444c326197a29a9f06bb863a1cee4a" target="_top" xlink:title=" ">
<polygon fill="white" stroke="black" points="78.5,-152.5 78.5,-171.5 121.5,-171.5 121.5,-152.5 78.5,-152.5"/>
<text text-anchor="middle" x="100" y="-159.5" font-family="Helvetica,sans-Serif" font-size="10.00">fdjac1</text>
</a>
</g>
</g>
<!-- Node1&#45;&gt;Node4 -->
<g id="edge4" class="edge">
<title>Node1&#45;&gt;Node4</title>
<path fill="none" stroke="midnightblue" d="M40.28,-133.39C49.31,-137.79 60.24,-143.12 70.22,-147.98"/>
<polygon fill="midnightblue" stroke="midnightblue" points="68.88,-151.22 79.4,-152.45 71.94,-144.92 68.88,-151.22"/>
</g>
<!-- Node5 -->
<g id="node5" class="node">
<title>Node5</title>
<g id="a_node5"><a xlink:href="fsolve_8f90.html#a12e8db1e181463d5c3af21f2b1b6b5a7" target="_top" xlink:title=" ">
<polygon fill="white" stroke="black" points="79.5,-114.5 79.5,-133.5 120.5,-133.5 120.5,-114.5 79.5,-114.5"/>
<text text-anchor="middle" x="100" y="-121.5" font-family="Helvetica,sans-Serif" font-size="10.00">qform</text>
</a>
</g>
</g>
<!-- Node1&#45;&gt;Node5 -->
<g id="edge5" class="edge">
<title>Node1&#45;&gt;Node5</title>
<path fill="none" stroke="midnightblue" d="M40.28,-124C49.03,-124 59.57,-124 69.29,-124"/>
<polygon fill="midnightblue" stroke="midnightblue" points="69.4,-127.5 79.4,-124 69.4,-120.5 69.4,-127.5"/>
</g>
<!-- Node6 -->
<g id="node6" class="node">
<title>Node6</title>
<g id="a_node6"><a xlink:href="fsolve_8f90.html#a64d35f73f2a85378c24dd7b99ddb0c0f" target="_top" xlink:title=" ">
<polygon fill="white" stroke="black" points="81,-76.5 81,-95.5 119,-95.5 119,-76.5 81,-76.5"/>
<text text-anchor="middle" x="100" y="-83.5" font-family="Helvetica,sans-Serif" font-size="10.00">qrfac</text>
</a>
</g>
</g>
<!-- Node1&#45;&gt;Node6 -->
<g id="edge6" class="edge">
<title>Node1&#45;&gt;Node6</title>
<path fill="none" stroke="midnightblue" d="M40.28,-114.61C49.74,-110 61.31,-104.36 71.67,-99.32"/>
<polygon fill="midnightblue" stroke="midnightblue" points="73.29,-102.42 80.74,-94.89 70.22,-96.13 73.29,-102.42"/>
</g>
<!-- Node7 -->
<g id="node7" class="node">
<title>Node7</title>
<g id="a_node7"><a xlink:href="fsolve_8f90.html#ab7f6e61d92cfd9ea516435ad523b989b" target="_top" xlink:title=" ">
<polygon fill="white" stroke="black" points="76,-38.5 76,-57.5 124,-57.5 124,-38.5 76,-38.5"/>
<text text-anchor="middle" x="100" y="-45.5" font-family="Helvetica,sans-Serif" font-size="10.00">r1mpyq</text>
</a>
</g>
</g>
<!-- Node1&#45;&gt;Node7 -->
<g id="edge8" class="edge">
<title>Node1&#45;&gt;Node7</title>
<path fill="none" stroke="midnightblue" d="M29.64,-114.4C40.22,-102.81 58.84,-82.88 76,-67 76.94,-66.13 77.91,-65.25 78.91,-64.37"/>
<polygon fill="midnightblue" stroke="midnightblue" points="81.27,-66.96 86.61,-57.81 76.72,-61.63 81.27,-66.96"/>
</g>
<!-- Node8 -->
<g id="node8" class="node">
<title>Node8</title>
<g id="a_node8"><a xlink:href="fsolve_8f90.html#a8ff726029b3ff9037b390910744ee58b" target="_top" xlink:title=" ">
<polygon fill="white" stroke="black" points="78,-0.5 78,-19.5 122,-19.5 122,-0.5 78,-0.5"/>
<text text-anchor="middle" x="100" y="-7.5" font-family="Helvetica,sans-Serif" font-size="10.00">r1updt</text>
</a>
</g>
</g>
<!-- Node1&#45;&gt;Node8 -->
<g id="edge9" class="edge">
<title>Node1&#45;&gt;Node8</title>
<path fill="none" stroke="midnightblue" d="M25.16,-114.39C33.24,-96.4 52.36,-56.93 76,-29 76.7,-28.17 77.45,-27.35 78.22,-26.54"/>
<polygon fill="midnightblue" stroke="midnightblue" points="80.64,-29.06 85.61,-19.71 75.89,-23.92 80.64,-29.06"/>
</g>
<!-- Node2&#45;&gt;Node3 -->
<g id="edge2" class="edge">
<title>Node2&#45;&gt;Node3</title>
<path fill="none" stroke="midnightblue" d="M121.19,-228.41C130.38,-224.05 141.43,-218.79 151.53,-214"/>
<polygon fill="midnightblue" stroke="midnightblue" points="153.29,-217.04 160.82,-209.59 150.28,-210.72 153.29,-217.04"/>
</g>
<!-- Node6&#45;&gt;Node3 -->
<g id="edge7" class="edge">
<title>Node6&#45;&gt;Node3</title>
<path fill="none" stroke="midnightblue" d="M114.35,-95.74C117.71,-98.52 121.16,-101.7 124,-105 144.6,-128.95 162.23,-161.27 172.22,-181.37"/>
<polygon fill="midnightblue" stroke="midnightblue" points="169.09,-182.94 176.61,-190.41 175.39,-179.88 169.09,-182.94"/>
</g>
</g>
</svg>
