<?xml version="1.0" encoding="UTF-8" standalone="no"?>
<!DOCTYPE svg PUBLIC "-//W3C//DTD SVG 1.1//EN"
 "http://www.w3.org/Graphics/SVG/1.1/DTD/svg11.dtd">
<!-- Generated by graphviz version 2.44.0 ()
 -->
<!-- Title: fsolve Pages: 1 -->
<svg width="291pt" height="256pt"
 viewBox="0.00 0.00 291.00 256.00" xmlns="http://www.w3.org/2000/svg" xmlns:xlink="http://www.w3.org/1999/xlink">
<g id="graph0" class="graph" transform="scale(1 1) rotate(0) translate(4 252)">
<title>fsolve</title>
<polygon fill="white" stroke="transparent" points="-4,4 -4,-252 287,-252 287,4 -4,4"/>
<!-- Node1 -->
<g id="node1" class="node">
<title>Node1</title>
<g id="a_node1"><a xlink:title=" ">
<polygon fill="#bfbfbf" stroke="black" points="0,-114.5 0,-133.5 43,-133.5 43,-114.5 0,-114.5"/>
<text text-anchor="middle" x="21.5" y="-121.5" font-family="Helvetica,sans-Serif" font-size="10.00">fsolve</text>
</a>
</g>
</g>
<!-- Node2 -->
<g id="node2" class="node">
<title>Node2</title>
<g id="a_node2"><a xlink:href="fsolve_8f90.html#a9d21cb00f8d0421a74dc05aebe71203a" target="_top" xlink:title=" ">
<polygon fill="white" stroke="black" points="79,-114.5 79,-133.5 119,-133.5 119,-114.5 79,-114.5"/>
<text text-anchor="middle" x="99" y="-121.5" font-family="Helvetica,sans-Serif" font-size="10.00">hybrd</text>
</a>
</g>
</g>
<!-- Node1&#45;&gt;Node2 -->
<g id="edge1" class="edge">
<title>Node1&#45;&gt;Node2</title>
<path fill="none" stroke="midnightblue" d="M43.13,-124C51.08,-124 60.31,-124 68.9,-124"/>
<polygon fill="midnightblue" stroke="midnightblue" points="68.95,-127.5 78.95,-124 68.95,-120.5 68.95,-127.5"/>
</g>
<!-- Node3 -->
<g id="node3" class="node">
<title>Node3</title>
<g id="a_node3"><a xlink:href="fsolve_8f90.html#ab5a1319962e4855e0a2b7a7431085275" target="_top" xlink:title=" ">
<polygon fill="white" stroke="black" points="156.5,-228.5 156.5,-247.5 201.5,-247.5 201.5,-228.5 156.5,-228.5"/>
<text text-anchor="middle" x="179" y="-235.5" font-family="Helvetica,sans-Serif" font-size="10.00">dogleg</text>
</a>
</g>
</g>
<!-- Node2&#45;&gt;Node3 -->
<g id="edge2" class="edge">
<title>Node2&#45;&gt;Node3</title>
<path fill="none" stroke="midnightblue" d="M104.99,-133.63C113.97,-150.59 133.88,-186.58 155,-214 156.66,-216.16 158.5,-218.34 160.38,-220.46"/>
<polygon fill="midnightblue" stroke="midnightblue" points="158.23,-223.29 167.64,-228.16 163.33,-218.48 158.23,-223.29"/>
</g>
<!-- Node4 -->
<g id="node4" class="node">
<title>Node4</title>
<g id="a_node4"><a xlink:href="fsolve_8f90.html#a07a8827d47eead570957d377e64f7974" target="_top" xlink:title=" ">
<polygon fill="white" stroke="black" points="239,-190.5 239,-209.5 283,-209.5 283,-190.5 239,-190.5"/>
<text text-anchor="middle" x="261" y="-197.5" font-family="Helvetica,sans-Serif" font-size="10.00">enorm</text>
</a>
</g>
</g>
<!-- Node2&#45;&gt;Node4 -->
<g id="edge4" class="edge">
<title>Node2&#45;&gt;Node4</title>
<path fill="none" stroke="midnightblue" d="M106.5,-133.88C115.67,-146.92 133.66,-169.59 155,-181 177.74,-193.16 206.8,-197.72 228.58,-199.34"/>
<polygon fill="midnightblue" stroke="midnightblue" points="228.44,-202.84 238.63,-199.92 228.85,-195.85 228.44,-202.84"/>
</g>
<!-- Node5 -->
<g id="node5" class="node">
<title>Node5</title>
<g id="a_node5"><a xlink:href="fsolve_8f90.html#ab8444c326197a29a9f06bb863a1cee4a" target="_top" xlink:title=" ">
<polygon fill="white" stroke="black" points="157.5,-152.5 157.5,-171.5 200.5,-171.5 200.5,-152.5 157.5,-152.5"/>
<text text-anchor="middle" x="179" y="-159.5" font-family="Helvetica,sans-Serif" font-size="10.00">fdjac1</text>
</a>
</g>
</g>
<!-- Node2&#45;&gt;Node5 -->
<g id="edge5" class="edge">
<title>Node2&#45;&gt;Node5</title>
<path fill="none" stroke="midnightblue" d="M119.28,-133.39C128.31,-137.79 139.24,-143.12 149.22,-147.98"/>
<polygon fill="midnightblue" stroke="midnightblue" points="147.88,-151.22 158.4,-152.45 150.94,-144.92 147.88,-151.22"/>
</g>
<!-- Node6 -->
<g id="node6" class="node">
<title>Node6</title>
<g id="a_node6"><a xlink:href="fsolve_8f90.html#a12e8db1e181463d5c3af21f2b1b6b5a7" target="_top" xlink:title=" ">
<polygon fill="white" stroke="black" points="158.5,-114.5 158.5,-133.5 199.5,-133.5 199.5,-114.5 158.5,-114.5"/>
<text text-anchor="middle" x="179" y="-121.5" font-family="Helvetica,sans-Serif" font-size="10.00">qform</text>
</a>
</g>
</g>
<!-- Node2&#45;&gt;Node6 -->
<g id="edge6" class="edge">
<title>Node2&#45;&gt;Node6</title>
<path fill="none" stroke="midnightblue" d="M119.28,-124C128.03,-124 138.57,-124 148.29,-124"/>
<polygon fill="midnightblue" stroke="midnightblue" points="148.4,-127.5 158.4,-124 148.4,-120.5 148.4,-127.5"/>
</g>
<!-- Node7 -->
<g id="node7" class="node">
<title>Node7</title>
<g id="a_node7"><a xlink:href="fsolve_8f90.html#a64d35f73f2a85378c24dd7b99ddb0c0f" target="_top" xlink:title=" ">
<polygon fill="white" stroke="black" points="160,-76.5 160,-95.5 198,-95.5 198,-76.5 160,-76.5"/>
<text text-anchor="middle" x="179" y="-83.5" font-family="Helvetica,sans-Serif" font-size="10.00">qrfac</text>
</a>
</g>
</g>
<!-- Node2&#45;&gt;Node7 -->
<g id="edge7" class="edge">
<title>Node2&#45;&gt;Node7</title>
<path fill="none" stroke="midnightblue" d="M119.28,-114.61C128.74,-110 140.31,-104.36 150.67,-99.32"/>
<polygon fill="midnightblue" stroke="midnightblue" points="152.29,-102.42 159.74,-94.89 149.22,-96.13 152.29,-102.42"/>
</g>
<!-- Node8 -->
<g id="node8" class="node">
<title>Node8</title>
<g id="a_node8"><a xlink:href="fsolve_8f90.html#ab7f6e61d92cfd9ea516435ad523b989b" target="_top" xlink:title=" ">
<polygon fill="white" stroke="black" points="155,-38.5 155,-57.5 203,-57.5 203,-38.5 155,-38.5"/>
<text text-anchor="middle" x="179" y="-45.5" font-family="Helvetica,sans-Serif" font-size="10.00">r1mpyq</text>
</a>
</g>
</g>
<!-- Node2&#45;&gt;Node8 -->
<g id="edge9" class="edge">
<title>Node2&#45;&gt;Node8</title>
<path fill="none" stroke="midnightblue" d="M108.64,-114.4C119.22,-102.81 137.84,-82.88 155,-67 155.94,-66.13 156.91,-65.25 157.91,-64.37"/>
<polygon fill="midnightblue" stroke="midnightblue" points="160.27,-66.96 165.61,-57.81 155.72,-61.63 160.27,-66.96"/>
</g>
<!-- Node9 -->
<g id="node9" class="node">
<title>Node9</title>
<g id="a_node9"><a xlink:href="fsolve_8f90.html#a8ff726029b3ff9037b390910744ee58b" target="_top" xlink:title=" ">
<polygon fill="white" stroke="black" points="157,-0.5 157,-19.5 201,-19.5 201,-0.5 157,-0.5"/>
<text text-anchor="middle" x="179" y="-7.5" font-family="Helvetica,sans-Serif" font-size="10.00">r1updt</text>
</a>
</g>
</g>
<!-- Node2&#45;&gt;Node9 -->
<g id="edge10" class="edge">
<title>Node2&#45;&gt;Node9</title>
<path fill="none" stroke="midnightblue" d="M104.16,-114.39C112.24,-96.4 131.36,-56.93 155,-29 155.7,-28.17 156.45,-27.35 157.22,-26.54"/>
<polygon fill="midnightblue" stroke="midnightblue" points="159.64,-29.06 164.61,-19.71 154.89,-23.92 159.64,-29.06"/>
</g>
<!-- Node3&#45;&gt;Node4 -->
<g id="edge3" class="edge">
<title>Node3&#45;&gt;Node4</title>
<path fill="none" stroke="midnightblue" d="M200.19,-228.41C209.38,-224.05 220.43,-218.79 230.53,-214"/>
<polygon fill="midnightblue" stroke="midnightblue" points="232.29,-217.04 239.82,-209.59 229.28,-210.72 232.29,-217.04"/>
</g>
<!-- Node7&#45;&gt;Node4 -->
<g id="edge8" class="edge">
<title>Node7&#45;&gt;Node4</title>
<path fill="none" stroke="midnightblue" d="M193.35,-95.74C196.71,-98.52 200.16,-101.7 203,-105 223.6,-128.95 241.23,-161.27 251.22,-181.37"/>
<polygon fill="midnightblue" stroke="midnightblue" points="248.09,-182.94 255.61,-190.41 254.39,-179.88 248.09,-182.94"/>
</g>
</g>
</svg>
