<?xml version="1.0" encoding="UTF-8" standalone="no"?>
<!DOCTYPE svg PUBLIC "-//W3C//DTD SVG 1.1//EN"
 "http://www.w3.org/Graphics/SVG/1.1/DTD/svg11.dtd">
<!-- Generated by graphviz version 2.44.0 ()
 -->
<!-- Title: Graphical Class Hierarchy Pages: 1 -->
<svg width="263pt" height="607pt"
 viewBox="0.00 0.00 263.00 606.50" xmlns="http://www.w3.org/2000/svg" xmlns:xlink="http://www.w3.org/1999/xlink">
<g id="graph0" class="graph" transform="scale(1 1) rotate(0) translate(4 602.5)">
<title>Graphical Class Hierarchy</title>
<polygon fill="white" stroke="transparent" points="-4,4 -4,-602.5 259,-602.5 259,4 -4,4"/>
<!-- Node8 -->
<g id="node1" class="node">
<title>Node8</title>
<g id="a_node1"><a xlink:title=" ">
<polygon fill="white" stroke="#bfbfbf" points="0,-269.5 0,-288.5 43,-288.5 43,-269.5 0,-269.5"/>
<text text-anchor="middle" x="21.5" y="-276.5" font-family="Helvetica,sans-Serif" font-size="10.00">object</text>
</a>
</g>
</g>
<!-- Node0 -->
<g id="node2" class="node">
<title>Node0</title>
<g id="a_node2"><a xlink:href="classbin_1_1class__files_1_1nucleus__class_1_1nucleus.html" target="_top" xlink:title=" ">
<polygon fill="white" stroke="black" points="110.5,-568 110.5,-598 223.5,-598 223.5,-568 110.5,-568"/>
<text text-anchor="start" x="118.5" y="-586" font-family="Helvetica,sans-Serif" font-size="10.00">bin.class_files.nucleus</text>
<text text-anchor="middle" x="167" y="-575" font-family="Helvetica,sans-Serif" font-size="10.00">_class.nucleus</text>
</a>
</g>
</g>
<!-- Node8&#45;&gt;Node0 -->
<g id="edge1" class="edge">
<title>Node8&#45;&gt;Node0</title>
<path fill="none" stroke="midnightblue" d="M23.85,-298.77C28.15,-356.12 43.41,-520.82 79,-559 87.33,-567.94 98.67,-573.66 110.4,-577.29"/>
<polygon fill="midnightblue" stroke="midnightblue" points="27.32,-298.25 23.11,-288.53 20.34,-298.75 27.32,-298.25"/>
</g>
<!-- Node10 -->
<g id="node3" class="node">
<title>Node10</title>
<g id="a_node3"><a xlink:href="classbin_1_1class__files_1_1nucleus__multiple__class_1_1nucleus__multiple.html" target="_top" xlink:title=" ">
<polygon fill="white" stroke="black" points="107,-508.5 107,-549.5 227,-549.5 227,-508.5 107,-508.5"/>
<text text-anchor="start" x="115" y="-537.5" font-family="Helvetica,sans-Serif" font-size="10.00">bin.class_files.nucleus</text>
<text text-anchor="start" x="115" y="-526.5" font-family="Helvetica,sans-Serif" font-size="10.00">_multiple_class.nucleus</text>
<text text-anchor="middle" x="167" y="-515.5" font-family="Helvetica,sans-Serif" font-size="10.00">_multiple</text>
</a>
</g>
</g>
<!-- Node8&#45;&gt;Node10 -->
<g id="edge2" class="edge">
<title>Node8&#45;&gt;Node10</title>
<path fill="none" stroke="midnightblue" d="M21.66,-299.15C21,-341.93 25.61,-442.65 79,-500 86.59,-508.16 96.54,-514.02 106.98,-518.24"/>
<polygon fill="midnightblue" stroke="midnightblue" points="25.16,-299.01 21.94,-288.91 18.16,-298.82 25.16,-299.01"/>
</g>
<!-- Node11 -->
<g id="node4" class="node">
<title>Node11</title>
<g id="a_node4"><a xlink:href="classbin_1_1class__files_1_1reaclib__class_1_1reaclib.html" target="_top" xlink:title=" ">
<polygon fill="white" stroke="black" points="113,-460 113,-490 221,-490 221,-460 113,-460"/>
<text text-anchor="start" x="121" y="-478" font-family="Helvetica,sans-Serif" font-size="10.00">bin.class_files.reaclib</text>
<text text-anchor="middle" x="167" y="-467" font-family="Helvetica,sans-Serif" font-size="10.00">_class.reaclib</text>
</a>
</g>
</g>
<!-- Node8&#45;&gt;Node11 -->
<g id="edge3" class="edge">
<title>Node8&#45;&gt;Node11</title>
<path fill="none" stroke="midnightblue" d="M23.19,-298.96C25.54,-334.7 35.68,-409.72 79,-451 88.3,-459.86 100.57,-465.51 112.95,-469.09"/>
<polygon fill="midnightblue" stroke="midnightblue" points="26.68,-298.64 22.67,-288.83 19.69,-299 26.68,-298.64"/>
</g>
<!-- Node12 -->
<g id="node5" class="node">
<title>Node12</title>
<g id="a_node5"><a xlink:href="classbin_1_1class__files_1_1template__class_1_1template.html" target="_top" xlink:title=" ">
<polygon fill="white" stroke="black" points="108.5,-411 108.5,-441 225.5,-441 225.5,-411 108.5,-411"/>
<text text-anchor="start" x="116.5" y="-429" font-family="Helvetica,sans-Serif" font-size="10.00">bin.class_files.template</text>
<text text-anchor="middle" x="167" y="-418" font-family="Helvetica,sans-Serif" font-size="10.00">_class.template</text>
</a>
</g>
</g>
<!-- Node8&#45;&gt;Node12 -->
<g id="edge4" class="edge">
<title>Node8&#45;&gt;Node12</title>
<path fill="none" stroke="midnightblue" d="M26.12,-298.56C32.2,-325.79 47.06,-374.84 79,-402 87.36,-409.1 97.65,-414.12 108.19,-417.65"/>
<polygon fill="midnightblue" stroke="midnightblue" points="29.53,-297.75 24.09,-288.66 22.67,-299.16 29.53,-297.75"/>
</g>
<!-- Node13 -->
<g id="node6" class="node">
<title>Node13</title>
<g id="a_node6"><a xlink:href="classbin_1_1class__files_1_1winnet__class_1_1winnet.html" target="_top" xlink:title=" ">
<polygon fill="white" stroke="black" points="113,-362 113,-392 221,-392 221,-362 113,-362"/>
<text text-anchor="start" x="121" y="-380" font-family="Helvetica,sans-Serif" font-size="10.00">bin.class_files.winnet</text>
<text text-anchor="middle" x="167" y="-369" font-family="Helvetica,sans-Serif" font-size="10.00">_class.winnet</text>
</a>
</g>
</g>
<!-- Node8&#45;&gt;Node13 -->
<g id="edge5" class="edge">
<title>Node8&#45;&gt;Node13</title>
<path fill="none" stroke="midnightblue" d="M32,-297.49C41.63,-314.4 58.06,-338.86 79,-353 89.13,-359.84 101.16,-364.74 113,-368.25"/>
<polygon fill="midnightblue" stroke="midnightblue" points="34.99,-295.66 27.14,-288.54 28.84,-299 34.99,-295.66"/>
</g>
<!-- Node14 -->
<g id="node7" class="node">
<title>Node14</title>
<g id="a_node7"><a xlink:href="classbin_1_1class__files_1_1winvn__class_1_1winvn.html" target="_top" xlink:title=" ">
<polygon fill="white" stroke="black" points="114.5,-313 114.5,-343 219.5,-343 219.5,-313 114.5,-313"/>
<text text-anchor="start" x="122.5" y="-331" font-family="Helvetica,sans-Serif" font-size="10.00">bin.class_files.winvn</text>
<text text-anchor="middle" x="167" y="-320" font-family="Helvetica,sans-Serif" font-size="10.00">_class.winvn</text>
</a>
</g>
</g>
<!-- Node8&#45;&gt;Node14 -->
<g id="edge6" class="edge">
<title>Node8&#45;&gt;Node14</title>
<path fill="none" stroke="midnightblue" d="M51.18,-292.67C60,-296.61 69.8,-300.72 79,-304 90.21,-308 102.44,-311.75 114.08,-315.03"/>
<polygon fill="midnightblue" stroke="midnightblue" points="52.63,-289.49 42.08,-288.52 49.73,-295.85 52.63,-289.49"/>
</g>
<!-- Node15 -->
<g id="node8" class="node">
<title>Node15</title>
<g id="a_node8"><a xlink:href="classbin_1_1create__neutrino__nucleon__file_1_1nunucleon.html" target="_top" xlink:title=" ">
<polygon fill="white" stroke="black" points="107.5,-264 107.5,-294 226.5,-294 226.5,-264 107.5,-264"/>
<text text-anchor="start" x="115.5" y="-282" font-family="Helvetica,sans-Serif" font-size="10.00">bin.create_neutrino</text>
<text text-anchor="middle" x="167" y="-271" font-family="Helvetica,sans-Serif" font-size="10.00">_nucleon_file.nunucleon</text>
</a>
</g>
</g>
<!-- Node8&#45;&gt;Node15 -->
<g id="edge7" class="edge">
<title>Node8&#45;&gt;Node15</title>
<path fill="none" stroke="midnightblue" d="M53.28,-279C69.06,-279 88.8,-279 107.34,-279"/>
<polygon fill="midnightblue" stroke="midnightblue" points="53.06,-275.5 43.06,-279 53.06,-282.5 53.06,-275.5"/>
</g>
<!-- Node16 -->
<g id="node9" class="node">
<title>Node16</title>
<g id="a_node9"><a xlink:href="classbin_1_1examplecase__class_1_1examplecase.html" target="_top" xlink:title=" ">
<polygon fill="white" stroke="black" points="79,-225.5 79,-244.5 255,-244.5 255,-225.5 79,-225.5"/>
<text text-anchor="middle" x="167" y="-232.5" font-family="Helvetica,sans-Serif" font-size="10.00">bin.examplecase_class.examplecase</text>
</a>
</g>
</g>
<!-- Node8&#45;&gt;Node16 -->
<g id="edge8" class="edge">
<title>Node8&#45;&gt;Node16</title>
<path fill="none" stroke="midnightblue" d="M51.85,-265.38C60.48,-261.69 70.01,-257.92 79,-255 91.38,-250.98 105.01,-247.45 117.72,-244.51"/>
<polygon fill="midnightblue" stroke="midnightblue" points="50.32,-262.23 42.57,-269.46 53.13,-268.64 50.32,-262.23"/>
</g>
<!-- Node17 -->
<g id="node10" class="node">
<title>Node17</title>
<g id="a_node10"><a xlink:href="classsrc__files_1_1FlowAnimation_1_1FlowAnimation.html" target="_top" xlink:title=" ">
<polygon fill="white" stroke="black" points="106,-176 106,-206 228,-206 228,-176 106,-176"/>
<text text-anchor="start" x="114" y="-194" font-family="Helvetica,sans-Serif" font-size="10.00">src_files.FlowAnimation.</text>
<text text-anchor="middle" x="167" y="-183" font-family="Helvetica,sans-Serif" font-size="10.00">FlowAnimation</text>
</a>
</g>
</g>
<!-- Node8&#45;&gt;Node17 -->
<g id="edge9" class="edge">
<title>Node8&#45;&gt;Node17</title>
<path fill="none" stroke="midnightblue" d="M34.42,-260.89C44.64,-246.71 60.62,-227.52 79,-216 87.12,-210.91 96.31,-206.83 105.6,-203.56"/>
<polygon fill="midnightblue" stroke="midnightblue" points="31.37,-259.14 28.56,-269.35 37.13,-263.12 31.37,-259.14"/>
</g>
<!-- Node18 -->
<g id="node11" class="node">
<title>Node18</title>
<g id="a_node11"><a xlink:href="classsrc__files_1_1nucleus__class_1_1nucleus.html" target="_top" xlink:title=" ">
<polygon fill="white" stroke="black" points="90.5,-137.5 90.5,-156.5 243.5,-156.5 243.5,-137.5 90.5,-137.5"/>
<text text-anchor="middle" x="167" y="-144.5" font-family="Helvetica,sans-Serif" font-size="10.00">src_files.nucleus_class.nucleus</text>
</a>
</g>
</g>
<!-- Node8&#45;&gt;Node18 -->
<g id="edge10" class="edge">
<title>Node8&#45;&gt;Node18</title>
<path fill="none" stroke="midnightblue" d="M26.87,-259.56C33.6,-234.26 48.99,-190.52 79,-167 84.49,-162.7 90.74,-159.29 97.31,-156.6"/>
<polygon fill="midnightblue" stroke="midnightblue" points="23.43,-258.9 24.43,-269.45 30.22,-260.58 23.43,-258.9"/>
</g>
<!-- Node19 -->
<g id="node12" class="node">
<title>Node19</title>
<g id="a_node12"><a xlink:href="classsrc__files_1_1nucleus__multiple__class_1_1nucleus__multiple.html" target="_top" xlink:title=" ">
<polygon fill="white" stroke="black" points="103,-88 103,-118 231,-118 231,-88 103,-88"/>
<text text-anchor="start" x="111" y="-106" font-family="Helvetica,sans-Serif" font-size="10.00">src_files.nucleus_multiple</text>
<text text-anchor="middle" x="167" y="-95" font-family="Helvetica,sans-Serif" font-size="10.00">_class.nucleus_multiple</text>
</a>
</g>
</g>
<!-- Node8&#45;&gt;Node19 -->
<g id="edge11" class="edge">
<title>Node8&#45;&gt;Node19</title>
<path fill="none" stroke="midnightblue" d="M24.28,-259.26C28.26,-227.08 40.76,-163.36 79,-128 85.81,-121.71 94.1,-116.98 102.83,-113.45"/>
<polygon fill="midnightblue" stroke="midnightblue" points="20.8,-258.92 23.21,-269.23 27.76,-259.67 20.8,-258.92"/>
</g>
<!-- Node20 -->
<g id="node13" class="node">
<title>Node20</title>
<g id="a_node13"><a xlink:href="classsrc__files_1_1template__class_1_1template.html" target="_top" xlink:title=" ">
<polygon fill="white" stroke="black" points="121,-39 121,-69 213,-69 213,-39 121,-39"/>
<text text-anchor="start" x="129" y="-57" font-family="Helvetica,sans-Serif" font-size="10.00">src_files.template</text>
<text text-anchor="middle" x="167" y="-46" font-family="Helvetica,sans-Serif" font-size="10.00">_class.template</text>
</a>
</g>
</g>
<!-- Node8&#45;&gt;Node20 -->
<g id="edge12" class="edge">
<title>Node8&#45;&gt;Node20</title>
<path fill="none" stroke="midnightblue" d="M22.14,-259.26C22.51,-219.44 29.19,-129.04 79,-79 90.09,-67.86 105.79,-61.61 120.81,-58.13"/>
<polygon fill="midnightblue" stroke="midnightblue" points="18.64,-259.5 22.17,-269.48 25.64,-259.47 18.64,-259.5"/>
</g>
<!-- Node21 -->
<g id="node14" class="node">
<title>Node21</title>
<g id="a_node14"><a xlink:href="classsrc__files_1_1wreader_1_1wreader.html" target="_top" xlink:title=" ">
<polygon fill="white" stroke="black" points="104,-0.5 104,-19.5 230,-19.5 230,-0.5 104,-0.5"/>
<text text-anchor="middle" x="167" y="-7.5" font-family="Helvetica,sans-Serif" font-size="10.00">src_files.wreader.wreader</text>
</a>
</g>
</g>
<!-- Node8&#45;&gt;Node21 -->
<g id="edge13" class="edge">
<title>Node8&#45;&gt;Node21</title>
<path fill="none" stroke="midnightblue" d="M24.3,-259.28C29.53,-206.28 46.49,-62.61 79,-30 85.89,-23.09 94.66,-18.36 103.97,-15.17"/>
<polygon fill="midnightblue" stroke="midnightblue" points="20.8,-259.11 23.33,-269.4 27.77,-259.78 20.8,-259.11"/>
</g>
</g>
</svg>
