<?xml version="1.0" encoding="UTF-8" standalone="no"?>
<!DOCTYPE svg PUBLIC "-//W3C//DTD SVG 1.1//EN"
 "http://www.w3.org/Graphics/SVG/1.1/DTD/svg11.dtd">
<!-- Generated by graphviz version 2.44.0 ()
 -->
<!-- Title: Graphical Class Hierarchy Pages: 1 -->
<svg width="263pt" height="509pt"
 viewBox="0.00 0.00 263.00 508.50" xmlns="http://www.w3.org/2000/svg" xmlns:xlink="http://www.w3.org/1999/xlink">
<g id="graph0" class="graph" transform="scale(1 1) rotate(0) translate(4 504.5)">
<title>Graphical Class Hierarchy</title>
<polygon fill="white" stroke="transparent" points="-4,4 -4,-504.5 259,-504.5 259,4 -4,4"/>
<!-- Node8 -->
<g id="node1" class="node">
<title>Node8</title>
<g id="a_node1"><a xlink:title=" ">
<polygon fill="white" stroke="#bfbfbf" points="0,-220.5 0,-239.5 43,-239.5 43,-220.5 0,-220.5"/>
<text text-anchor="middle" x="21.5" y="-227.5" font-family="Helvetica,sans-Serif" font-size="10.00">object</text>
</a>
</g>
</g>
<!-- Node0 -->
<g id="node2" class="node">
<title>Node0</title>
<g id="a_node2"><a xlink:href="classbin_1_1class__files_1_1nucleus__class_1_1nucleus.html" target="_top" xlink:title=" ">
<polygon fill="white" stroke="black" points="110.5,-470 110.5,-500 223.5,-500 223.5,-470 110.5,-470"/>
<text text-anchor="start" x="118.5" y="-488" font-family="Helvetica,sans-Serif" font-size="10.00">bin.class_files.nucleus</text>
<text text-anchor="middle" x="167" y="-477" font-family="Helvetica,sans-Serif" font-size="10.00">_class.nucleus</text>
</a>
</g>
</g>
<!-- Node8&#45;&gt;Node0 -->
<g id="edge1" class="edge">
<title>Node8&#45;&gt;Node0</title>
<path fill="none" stroke="midnightblue" d="M24.78,-249.87C30.93,-300.15 49.45,-430.57 79,-461 87.41,-469.65 98.62,-475.27 110.21,-478.9"/>
<polygon fill="midnightblue" stroke="midnightblue" points="28.22,-249.19 23.57,-239.67 21.27,-250.01 28.22,-249.19"/>
</g>
<!-- Node10 -->
<g id="node3" class="node">
<title>Node10</title>
<g id="a_node3"><a xlink:href="classbin_1_1class__files_1_1nucleus__multiple__class_1_1nucleus__multiple.html" target="_top" xlink:title=" ">
<polygon fill="white" stroke="black" points="107,-410.5 107,-451.5 227,-451.5 227,-410.5 107,-410.5"/>
<text text-anchor="start" x="115" y="-439.5" font-family="Helvetica,sans-Serif" font-size="10.00">bin.class_files.nucleus</text>
<text text-anchor="start" x="115" y="-428.5" font-family="Helvetica,sans-Serif" font-size="10.00">_multiple_class.nucleus</text>
<text text-anchor="middle" x="167" y="-417.5" font-family="Helvetica,sans-Serif" font-size="10.00">_multiple</text>
</a>
</g>
</g>
<!-- Node8&#45;&gt;Node10 -->
<g id="edge2" class="edge">
<title>Node8&#45;&gt;Node10</title>
<path fill="none" stroke="midnightblue" d="M23.41,-249.74C26.11,-285.13 36.78,-359.59 79,-402 86.75,-409.78 96.64,-415.48 106.96,-419.65"/>
<polygon fill="midnightblue" stroke="midnightblue" points="26.9,-249.48 22.79,-239.72 19.92,-249.92 26.9,-249.48"/>
</g>
<!-- Node11 -->
<g id="node4" class="node">
<title>Node11</title>
<g id="a_node4"><a xlink:href="classbin_1_1class__files_1_1reaclib__class_1_1reaclib.html" target="_top" xlink:title=" ">
<polygon fill="white" stroke="black" points="113,-362 113,-392 221,-392 221,-362 113,-362"/>
<text text-anchor="start" x="121" y="-380" font-family="Helvetica,sans-Serif" font-size="10.00">bin.class_files.reaclib</text>
<text text-anchor="middle" x="167" y="-369" font-family="Helvetica,sans-Serif" font-size="10.00">_class.reaclib</text>
</a>
</g>
</g>
<!-- Node8&#45;&gt;Node11 -->
<g id="edge3" class="edge">
<title>Node8&#45;&gt;Node11</title>
<path fill="none" stroke="midnightblue" d="M26.12,-249.56C32.2,-276.79 47.06,-325.84 79,-353 88.55,-361.12 100.63,-366.51 112.72,-370.08"/>
<polygon fill="midnightblue" stroke="midnightblue" points="29.53,-248.75 24.09,-239.66 22.67,-250.16 29.53,-248.75"/>
</g>
<!-- Node12 -->
<g id="node5" class="node">
<title>Node12</title>
<g id="a_node5"><a xlink:href="classbin_1_1class__files_1_1winnet__class_1_1winnet.html" target="_top" xlink:title=" ">
<polygon fill="white" stroke="black" points="113,-313 113,-343 221,-343 221,-313 113,-313"/>
<text text-anchor="start" x="121" y="-331" font-family="Helvetica,sans-Serif" font-size="10.00">bin.class_files.winnet</text>
<text text-anchor="middle" x="167" y="-320" font-family="Helvetica,sans-Serif" font-size="10.00">_class.winnet</text>
</a>
</g>
</g>
<!-- Node8&#45;&gt;Node12 -->
<g id="edge4" class="edge">
<title>Node8&#45;&gt;Node12</title>
<path fill="none" stroke="midnightblue" d="M32,-248.49C41.63,-265.4 58.06,-289.86 79,-304 89.13,-310.84 101.16,-315.74 113,-319.25"/>
<polygon fill="midnightblue" stroke="midnightblue" points="34.99,-246.66 27.14,-239.54 28.84,-250 34.99,-246.66"/>
</g>
<!-- Node13 -->
<g id="node6" class="node">
<title>Node13</title>
<g id="a_node6"><a xlink:href="classbin_1_1class__files_1_1winvn__class_1_1winvn.html" target="_top" xlink:title=" ">
<polygon fill="white" stroke="black" points="114.5,-264 114.5,-294 219.5,-294 219.5,-264 114.5,-264"/>
<text text-anchor="start" x="122.5" y="-282" font-family="Helvetica,sans-Serif" font-size="10.00">bin.class_files.winvn</text>
<text text-anchor="middle" x="167" y="-271" font-family="Helvetica,sans-Serif" font-size="10.00">_class.winvn</text>
</a>
</g>
</g>
<!-- Node8&#45;&gt;Node13 -->
<g id="edge5" class="edge">
<title>Node8&#45;&gt;Node13</title>
<path fill="none" stroke="midnightblue" d="M51.18,-243.67C60,-247.61 69.8,-251.72 79,-255 90.21,-259 102.44,-262.75 114.08,-266.03"/>
<polygon fill="midnightblue" stroke="midnightblue" points="52.63,-240.49 42.08,-239.52 49.73,-246.85 52.63,-240.49"/>
</g>
<!-- Node14 -->
<g id="node7" class="node">
<title>Node14</title>
<g id="a_node7"><a xlink:href="classbin_1_1create__neutrino__nucleon__file_1_1nunucleon.html" target="_top" xlink:title=" ">
<polygon fill="white" stroke="black" points="107.5,-215 107.5,-245 226.5,-245 226.5,-215 107.5,-215"/>
<text text-anchor="start" x="115.5" y="-233" font-family="Helvetica,sans-Serif" font-size="10.00">bin.create_neutrino</text>
<text text-anchor="middle" x="167" y="-222" font-family="Helvetica,sans-Serif" font-size="10.00">_nucleon_file.nunucleon</text>
</a>
</g>
</g>
<!-- Node8&#45;&gt;Node14 -->
<g id="edge6" class="edge">
<title>Node8&#45;&gt;Node14</title>
<path fill="none" stroke="midnightblue" d="M53.28,-230C69.06,-230 88.8,-230 107.34,-230"/>
<polygon fill="midnightblue" stroke="midnightblue" points="53.06,-226.5 43.06,-230 53.06,-233.5 53.06,-226.5"/>
</g>
<!-- Node15 -->
<g id="node8" class="node">
<title>Node15</title>
<g id="a_node8"><a xlink:href="classbin_1_1examplecase__class_1_1examplecase.html" target="_top" xlink:title=" ">
<polygon fill="white" stroke="black" points="79,-176.5 79,-195.5 255,-195.5 255,-176.5 79,-176.5"/>
<text text-anchor="middle" x="167" y="-183.5" font-family="Helvetica,sans-Serif" font-size="10.00">bin.examplecase_class.examplecase</text>
</a>
</g>
</g>
<!-- Node8&#45;&gt;Node15 -->
<g id="edge7" class="edge">
<title>Node8&#45;&gt;Node15</title>
<path fill="none" stroke="midnightblue" d="M51.85,-216.38C60.48,-212.69 70.01,-208.92 79,-206 91.38,-201.98 105.01,-198.45 117.72,-195.51"/>
<polygon fill="midnightblue" stroke="midnightblue" points="50.32,-213.23 42.57,-220.46 53.13,-219.64 50.32,-213.23"/>
</g>
<!-- Node16 -->
<g id="node9" class="node">
<title>Node16</title>
<g id="a_node9"><a xlink:href="classsrc__files_1_1FlowAnimation_1_1FlowAnimation.html" target="_top" xlink:title=" ">
<polygon fill="white" stroke="black" points="106,-127 106,-157 228,-157 228,-127 106,-127"/>
<text text-anchor="start" x="114" y="-145" font-family="Helvetica,sans-Serif" font-size="10.00">src_files.FlowAnimation.</text>
<text text-anchor="middle" x="167" y="-134" font-family="Helvetica,sans-Serif" font-size="10.00">FlowAnimation</text>
</a>
</g>
</g>
<!-- Node8&#45;&gt;Node16 -->
<g id="edge8" class="edge">
<title>Node8&#45;&gt;Node16</title>
<path fill="none" stroke="midnightblue" d="M34.42,-211.89C44.64,-197.71 60.62,-178.52 79,-167 87.12,-161.91 96.31,-157.83 105.6,-154.56"/>
<polygon fill="midnightblue" stroke="midnightblue" points="31.37,-210.14 28.56,-220.35 37.13,-214.12 31.37,-210.14"/>
</g>
<!-- Node17 -->
<g id="node10" class="node">
<title>Node17</title>
<g id="a_node10"><a xlink:href="classsrc__files_1_1nucleus__class_1_1nucleus.html" target="_top" xlink:title=" ">
<polygon fill="white" stroke="black" points="90.5,-88.5 90.5,-107.5 243.5,-107.5 243.5,-88.5 90.5,-88.5"/>
<text text-anchor="middle" x="167" y="-95.5" font-family="Helvetica,sans-Serif" font-size="10.00">src_files.nucleus_class.nucleus</text>
</a>
</g>
</g>
<!-- Node8&#45;&gt;Node17 -->
<g id="edge9" class="edge">
<title>Node8&#45;&gt;Node17</title>
<path fill="none" stroke="midnightblue" d="M26.87,-210.56C33.6,-185.26 48.99,-141.52 79,-118 84.49,-113.7 90.74,-110.29 97.31,-107.6"/>
<polygon fill="midnightblue" stroke="midnightblue" points="23.43,-209.9 24.43,-220.45 30.22,-211.58 23.43,-209.9"/>
</g>
<!-- Node18 -->
<g id="node11" class="node">
<title>Node18</title>
<g id="a_node11"><a xlink:href="classsrc__files_1_1nucleus__multiple__class_1_1nucleus__multiple.html" target="_top" xlink:title=" ">
<polygon fill="white" stroke="black" points="103,-39 103,-69 231,-69 231,-39 103,-39"/>
<text text-anchor="start" x="111" y="-57" font-family="Helvetica,sans-Serif" font-size="10.00">src_files.nucleus_multiple</text>
<text text-anchor="middle" x="167" y="-46" font-family="Helvetica,sans-Serif" font-size="10.00">_class.nucleus_multiple</text>
</a>
</g>
</g>
<!-- Node8&#45;&gt;Node18 -->
<g id="edge10" class="edge">
<title>Node8&#45;&gt;Node18</title>
<path fill="none" stroke="midnightblue" d="M24.28,-210.26C28.26,-178.08 40.76,-114.36 79,-79 85.81,-72.71 94.1,-67.98 102.83,-64.45"/>
<polygon fill="midnightblue" stroke="midnightblue" points="20.8,-209.92 23.21,-220.23 27.76,-210.67 20.8,-209.92"/>
</g>
<!-- Node19 -->
<g id="node12" class="node">
<title>Node19</title>
<g id="a_node12"><a xlink:href="classsrc__files_1_1wreader_1_1wreader.html" target="_top" xlink:title=" ">
<polygon fill="white" stroke="black" points="104,-0.5 104,-19.5 230,-19.5 230,-0.5 104,-0.5"/>
<text text-anchor="middle" x="167" y="-7.5" font-family="Helvetica,sans-Serif" font-size="10.00">src_files.wreader.wreader</text>
</a>
</g>
</g>
<!-- Node8&#45;&gt;Node19 -->
<g id="edge11" class="edge">
<title>Node8&#45;&gt;Node19</title>
<path fill="none" stroke="midnightblue" d="M21.91,-210.29C21.86,-170.19 27.75,-78.78 79,-30 85.96,-23.38 94.65,-18.79 103.83,-15.64"/>
<polygon fill="midnightblue" stroke="midnightblue" points="18.42,-210.42 22.06,-220.37 25.42,-210.32 18.42,-210.42"/>
</g>
</g>
</svg>
