<?xml version="1.0" encoding="UTF-8" standalone="no"?>
<!DOCTYPE svg PUBLIC "-//W3C//DTD SVG 1.1//EN"
 "http://www.w3.org/Graphics/SVG/1.1/DTD/svg11.dtd">
<!-- Generated by graphviz version 2.44.0 ()
 -->
<!-- Title: Graphical Class Hierarchy Pages: 1 -->
<svg width="263pt" height="683pt"
 viewBox="0.00 0.00 263.00 682.50" xmlns="http://www.w3.org/2000/svg" xmlns:xlink="http://www.w3.org/1999/xlink">
<g id="graph0" class="graph" transform="scale(1 1) rotate(0) translate(4 678.5)">
<title>Graphical Class Hierarchy</title>
<polygon fill="white" stroke="transparent" points="-4,4 -4,-678.5 259,-678.5 259,4 -4,4"/>
<!-- Node8 -->
<g id="node1" class="node">
<title>Node8</title>
<g id="a_node1"><a xlink:title=" ">
<polygon fill="white" stroke="#bfbfbf" points="0,-301.5 0,-320.5 43,-320.5 43,-301.5 0,-301.5"/>
<text text-anchor="middle" x="21.5" y="-308.5" font-family="Helvetica,sans-Serif" font-size="10.00">object</text>
</a>
</g>
</g>
<!-- Node0 -->
<g id="node2" class="node">
<title>Node0</title>
<g id="a_node2"><a xlink:href="classbin_1_1class__files_1_1nucleus__class_1_1nucleus.html" target="_top" xlink:title=" ">
<polygon fill="white" stroke="black" points="110.5,-644 110.5,-674 223.5,-674 223.5,-644 110.5,-644"/>
<text text-anchor="start" x="118.5" y="-662" font-family="Helvetica,sans-Serif" font-size="10.00">bin.class_files.nucleus</text>
<text text-anchor="middle" x="167" y="-651" font-family="Helvetica,sans-Serif" font-size="10.00">_class.nucleus</text>
</a>
</g>
</g>
<!-- Node8&#45;&gt;Node0 -->
<g id="edge1" class="edge">
<title>Node8&#45;&gt;Node0</title>
<path fill="none" stroke="midnightblue" d="M23.26,-330.92C26.08,-394.3 37.99,-589.83 79,-635 87.21,-644.05 98.5,-649.81 110.22,-653.45"/>
<polygon fill="midnightblue" stroke="midnightblue" points="26.75,-330.53 22.83,-320.68 19.75,-330.82 26.75,-330.53"/>
</g>
<!-- Node10 -->
<g id="node3" class="node">
<title>Node10</title>
<g id="a_node3"><a xlink:href="classbin_1_1class__files_1_1nucleus__multiple__class_1_1nucleus__multiple.html" target="_top" xlink:title=" ">
<polygon fill="white" stroke="black" points="107,-584.5 107,-625.5 227,-625.5 227,-584.5 107,-584.5"/>
<text text-anchor="start" x="115" y="-613.5" font-family="Helvetica,sans-Serif" font-size="10.00">bin.class_files.nucleus</text>
<text text-anchor="start" x="115" y="-602.5" font-family="Helvetica,sans-Serif" font-size="10.00">_multiple_class.nucleus</text>
<text text-anchor="middle" x="167" y="-591.5" font-family="Helvetica,sans-Serif" font-size="10.00">_multiple</text>
</a>
</g>
</g>
<!-- Node8&#45;&gt;Node10 -->
<g id="edge2" class="edge">
<title>Node8&#45;&gt;Node10</title>
<path fill="none" stroke="midnightblue" d="M24.19,-330.71C29.29,-385.73 46.21,-539.33 79,-576 86.43,-584.31 96.3,-590.24 106.72,-594.48"/>
<polygon fill="midnightblue" stroke="midnightblue" points="27.66,-330.19 23.28,-320.55 20.69,-330.82 27.66,-330.19"/>
</g>
<!-- Node11 -->
<g id="node4" class="node">
<title>Node11</title>
<g id="a_node4"><a xlink:href="classbin_1_1class__files_1_1reaclib__class_1_1reaclib.html" target="_top" xlink:title=" ">
<polygon fill="white" stroke="black" points="113,-536 113,-566 221,-566 221,-536 113,-536"/>
<text text-anchor="start" x="121" y="-554" font-family="Helvetica,sans-Serif" font-size="10.00">bin.class_files.reaclib</text>
<text text-anchor="middle" x="167" y="-543" font-family="Helvetica,sans-Serif" font-size="10.00">_class.reaclib</text>
</a>
</g>
</g>
<!-- Node8&#45;&gt;Node11 -->
<g id="edge3" class="edge">
<title>Node8&#45;&gt;Node11</title>
<path fill="none" stroke="midnightblue" d="M21.58,-330.92C20.78,-373.17 25.13,-472.41 79,-527 88.02,-536.15 100.19,-541.89 112.57,-545.48"/>
<polygon fill="midnightblue" stroke="midnightblue" points="25.09,-330.91 21.9,-320.81 18.09,-330.69 25.09,-330.91"/>
</g>
<!-- Node12 -->
<g id="node5" class="node">
<title>Node12</title>
<g id="a_node5"><a xlink:href="classbin_1_1class__files_1_1template__class_1_1template.html" target="_top" xlink:title=" ">
<polygon fill="white" stroke="black" points="108.5,-487 108.5,-517 225.5,-517 225.5,-487 108.5,-487"/>
<text text-anchor="start" x="116.5" y="-505" font-family="Helvetica,sans-Serif" font-size="10.00">bin.class_files.template</text>
<text text-anchor="middle" x="167" y="-494" font-family="Helvetica,sans-Serif" font-size="10.00">_class.template</text>
</a>
</g>
</g>
<!-- Node8&#45;&gt;Node12 -->
<g id="edge4" class="edge">
<title>Node8&#45;&gt;Node12</title>
<path fill="none" stroke="midnightblue" d="M23.42,-330.85C26.13,-365.75 36.82,-438.16 79,-478 87.2,-485.75 97.67,-491.03 108.48,-494.63"/>
<polygon fill="midnightblue" stroke="midnightblue" points="26.89,-330.32 22.77,-320.56 19.91,-330.76 26.89,-330.32"/>
</g>
<!-- Node13 -->
<g id="node6" class="node">
<title>Node13</title>
<g id="a_node6"><a xlink:href="classbin_1_1class__files_1_1winnet__class_1_1winnet.html" target="_top" xlink:title=" ">
<polygon fill="white" stroke="black" points="113,-438 113,-468 221,-468 221,-438 113,-438"/>
<text text-anchor="start" x="121" y="-456" font-family="Helvetica,sans-Serif" font-size="10.00">bin.class_files.winnet</text>
<text text-anchor="middle" x="167" y="-445" font-family="Helvetica,sans-Serif" font-size="10.00">_class.winnet</text>
</a>
</g>
</g>
<!-- Node8&#45;&gt;Node13 -->
<g id="edge5" class="edge">
<title>Node8&#45;&gt;Node13</title>
<path fill="none" stroke="midnightblue" d="M26.54,-330.52C33,-356.8 48.21,-403.24 79,-429 88.61,-437.04 100.71,-442.4 112.81,-445.97"/>
<polygon fill="midnightblue" stroke="midnightblue" points="29.92,-329.58 24.28,-320.61 23.09,-331.13 29.92,-329.58"/>
</g>
<!-- Node14 -->
<g id="node7" class="node">
<title>Node14</title>
<g id="a_node7"><a xlink:href="classbin_1_1class__files_1_1winvn__class_1_1winvn.html" target="_top" xlink:title=" ">
<polygon fill="white" stroke="black" points="114.5,-389 114.5,-419 219.5,-419 219.5,-389 114.5,-389"/>
<text text-anchor="start" x="122.5" y="-407" font-family="Helvetica,sans-Serif" font-size="10.00">bin.class_files.winvn</text>
<text text-anchor="middle" x="167" y="-396" font-family="Helvetica,sans-Serif" font-size="10.00">_class.winvn</text>
</a>
</g>
</g>
<!-- Node8&#45;&gt;Node14 -->
<g id="edge6" class="edge">
<title>Node8&#45;&gt;Node14</title>
<path fill="none" stroke="midnightblue" d="M33.06,-329.44C42.98,-345.14 59.23,-367.13 79,-380 89.51,-386.84 101.94,-391.74 114.08,-395.26"/>
<polygon fill="midnightblue" stroke="midnightblue" points="35.89,-327.37 27.73,-320.62 29.9,-330.99 35.89,-327.37"/>
</g>
<!-- Node15 -->
<g id="node8" class="node">
<title>Node15</title>
<g id="a_node8"><a xlink:href="classbin_1_1create__neutrino__nucleon__file_1_1nunucleon.html" target="_top" xlink:title=" ">
<polygon fill="white" stroke="black" points="107.5,-340 107.5,-370 226.5,-370 226.5,-340 107.5,-340"/>
<text text-anchor="start" x="115.5" y="-358" font-family="Helvetica,sans-Serif" font-size="10.00">bin.create_neutrino</text>
<text text-anchor="middle" x="167" y="-347" font-family="Helvetica,sans-Serif" font-size="10.00">_nucleon_file.nunucleon</text>
</a>
</g>
</g>
<!-- Node8&#45;&gt;Node15 -->
<g id="edge7" class="edge">
<title>Node8&#45;&gt;Node15</title>
<path fill="none" stroke="midnightblue" d="M52.63,-321.41C61.13,-324.27 70.41,-327.32 79,-330 89.65,-333.32 101.09,-336.72 112.05,-339.9"/>
<polygon fill="midnightblue" stroke="midnightblue" points="53.69,-318.07 43.09,-318.17 51.44,-324.7 53.69,-318.07"/>
</g>
<!-- Node16 -->
<g id="node9" class="node">
<title>Node16</title>
<g id="a_node9"><a xlink:href="classbin_1_1examplecase__class_1_1examplecase.html" target="_top" xlink:title=" ">
<polygon fill="white" stroke="black" points="79,-301.5 79,-320.5 255,-320.5 255,-301.5 79,-301.5"/>
<text text-anchor="middle" x="167" y="-308.5" font-family="Helvetica,sans-Serif" font-size="10.00">bin.examplecase_class.examplecase</text>
</a>
</g>
</g>
<!-- Node8&#45;&gt;Node16 -->
<g id="edge8" class="edge">
<title>Node8&#45;&gt;Node16</title>
<path fill="none" stroke="midnightblue" d="M53.28,-311C61,-311 69.68,-311 78.7,-311"/>
<polygon fill="midnightblue" stroke="midnightblue" points="53.06,-307.5 43.06,-311 53.06,-314.5 53.06,-307.5"/>
</g>
<!-- Node17 -->
<g id="node10" class="node">
<title>Node17</title>
<g id="a_node10"><a xlink:href="classsrc__files_1_1FlowAnimation_1_1FlowAnimation.html" target="_top" xlink:title=" ">
<polygon fill="white" stroke="black" points="106,-252 106,-282 228,-282 228,-252 106,-252"/>
<text text-anchor="start" x="114" y="-270" font-family="Helvetica,sans-Serif" font-size="10.00">src_files.FlowAnimation.</text>
<text text-anchor="middle" x="167" y="-259" font-family="Helvetica,sans-Serif" font-size="10.00">FlowAnimation</text>
</a>
</g>
</g>
<!-- Node8&#45;&gt;Node17 -->
<g id="edge9" class="edge">
<title>Node8&#45;&gt;Node17</title>
<path fill="none" stroke="midnightblue" d="M52.63,-300.59C61.13,-297.73 70.41,-294.68 79,-292 89.65,-288.68 101.09,-285.28 112.05,-282.1"/>
<polygon fill="midnightblue" stroke="midnightblue" points="51.44,-297.3 43.09,-303.83 53.69,-303.93 51.44,-297.3"/>
</g>
<!-- Node18 -->
<g id="node11" class="node">
<title>Node18</title>
<g id="a_node11"><a xlink:href="classsrc__files_1_1ngamma__eq_1_1ngamma__eq.html" target="_top" xlink:title=" ">
<polygon fill="white" stroke="black" points="85,-213.5 85,-232.5 249,-232.5 249,-213.5 85,-213.5"/>
<text text-anchor="middle" x="167" y="-220.5" font-family="Helvetica,sans-Serif" font-size="10.00">src_files.ngamma_eq.ngamma_eq</text>
</a>
</g>
</g>
<!-- Node8&#45;&gt;Node18 -->
<g id="edge10" class="edge">
<title>Node8&#45;&gt;Node18</title>
<path fill="none" stroke="midnightblue" d="M32.99,-292.62C42.86,-277.02 59.08,-255.26 79,-243 86.13,-238.61 94.12,-235.19 102.29,-232.51"/>
<polygon fill="midnightblue" stroke="midnightblue" points="29.86,-291.03 27.69,-301.4 35.85,-294.65 29.86,-291.03"/>
</g>
<!-- Node19 -->
<g id="node12" class="node">
<title>Node19</title>
<g id="a_node12"><a xlink:href="classsrc__files_1_1nucleus__class_1_1nucleus.html" target="_top" xlink:title=" ">
<polygon fill="white" stroke="black" points="90.5,-175.5 90.5,-194.5 243.5,-194.5 243.5,-175.5 90.5,-175.5"/>
<text text-anchor="middle" x="167" y="-182.5" font-family="Helvetica,sans-Serif" font-size="10.00">src_files.nucleus_class.nucleus</text>
</a>
</g>
</g>
<!-- Node8&#45;&gt;Node19 -->
<g id="edge11" class="edge">
<title>Node8&#45;&gt;Node19</title>
<path fill="none" stroke="midnightblue" d="M27.4,-291.3C34.51,-266.92 50.14,-225.94 79,-204 84.05,-200.16 89.71,-197.07 95.66,-194.58"/>
<polygon fill="midnightblue" stroke="midnightblue" points="23.95,-290.64 24.71,-301.21 30.7,-292.48 23.95,-290.64"/>
</g>
<!-- Node20 -->
<g id="node13" class="node">
<title>Node20</title>
<g id="a_node13"><a xlink:href="classsrc__files_1_1nucleus__multiple__class_1_1nucleus__multiple.html" target="_top" xlink:title=" ">
<polygon fill="white" stroke="black" points="103,-126 103,-156 231,-156 231,-126 103,-126"/>
<text text-anchor="start" x="111" y="-144" font-family="Helvetica,sans-Serif" font-size="10.00">src_files.nucleus_multiple</text>
<text text-anchor="middle" x="167" y="-133" font-family="Helvetica,sans-Serif" font-size="10.00">_class.nucleus_multiple</text>
</a>
</g>
</g>
<!-- Node8&#45;&gt;Node20 -->
<g id="edge12" class="edge">
<title>Node8&#45;&gt;Node20</title>
<path fill="none" stroke="midnightblue" d="M24.65,-291.18C29.1,-259.99 42.2,-199.57 79,-166 85.85,-159.75 94.16,-155.05 102.9,-151.53"/>
<polygon fill="midnightblue" stroke="midnightblue" points="21.16,-290.88 23.38,-301.24 28.11,-291.76 21.16,-290.88"/>
</g>
<!-- Node21 -->
<g id="node14" class="node">
<title>Node21</title>
<g id="a_node14"><a xlink:href="classsrc__files_1_1template__class_1_1template.html" target="_top" xlink:title=" ">
<polygon fill="white" stroke="black" points="121,-77 121,-107 213,-107 213,-77 121,-77"/>
<text text-anchor="start" x="129" y="-95" font-family="Helvetica,sans-Serif" font-size="10.00">src_files.template</text>
<text text-anchor="middle" x="167" y="-84" font-family="Helvetica,sans-Serif" font-size="10.00">_class.template</text>
</a>
</g>
</g>
<!-- Node8&#45;&gt;Node21 -->
<g id="edge13" class="edge">
<title>Node8&#45;&gt;Node21</title>
<path fill="none" stroke="midnightblue" d="M22.34,-291.29C23.14,-252.37 30.6,-165.23 79,-117 90.13,-105.91 105.84,-99.67 120.86,-96.18"/>
<polygon fill="midnightblue" stroke="midnightblue" points="18.84,-291.3 22.27,-301.33 25.84,-291.35 18.84,-291.3"/>
</g>
<!-- Node22 -->
<g id="node15" class="node">
<title>Node22</title>
<g id="a_node15"><a xlink:href="classsrc__files_1_1winvn__class_1_1winvn.html" target="_top" xlink:title=" ">
<polygon fill="white" stroke="black" points="98.5,-38.5 98.5,-57.5 235.5,-57.5 235.5,-38.5 98.5,-38.5"/>
<text text-anchor="middle" x="167" y="-45.5" font-family="Helvetica,sans-Serif" font-size="10.00">src_files.winvn_class.winvn</text>
</a>
</g>
</g>
<!-- Node8&#45;&gt;Node22 -->
<g id="edge14" class="edge">
<title>Node8&#45;&gt;Node22</title>
<path fill="none" stroke="midnightblue" d="M24.41,-291.4C29.86,-239.39 47.22,-99.7 79,-68 84.49,-62.53 91.15,-58.43 98.32,-55.38"/>
<polygon fill="midnightblue" stroke="midnightblue" points="20.92,-291.05 23.4,-301.35 27.89,-291.76 20.92,-291.05"/>
</g>
<!-- Node23 -->
<g id="node16" class="node">
<title>Node23</title>
<g id="a_node16"><a xlink:href="classsrc__files_1_1wreader_1_1wreader.html" target="_top" xlink:title=" ">
<polygon fill="white" stroke="black" points="104,-0.5 104,-19.5 230,-19.5 230,-0.5 104,-0.5"/>
<text text-anchor="middle" x="167" y="-7.5" font-family="Helvetica,sans-Serif" font-size="10.00">src_files.wreader.wreader</text>
</a>
</g>
</g>
<!-- Node8&#45;&gt;Node23 -->
<g id="edge15" class="edge">
<title>Node8&#45;&gt;Node23</title>
<path fill="none" stroke="midnightblue" d="M23.7,-291.35C27.64,-233.68 42.09,-66.56 79,-29 85.83,-22.05 94.56,-17.38 103.85,-14.27"/>
<polygon fill="midnightblue" stroke="midnightblue" points="20.21,-291.15 23.05,-301.36 27.2,-291.61 20.21,-291.15"/>
</g>
</g>
</svg>
