<?xml version="1.0" encoding="UTF-8" standalone="no"?>
<!DOCTYPE svg PUBLIC "-//W3C//DTD SVG 1.1//EN"
 "http://www.w3.org/Graphics/SVG/1.1/DTD/svg11.dtd">
<!-- Generated by graphviz version 2.44.0 ()
 -->
<!-- Title: Graphical Class Hierarchy Pages: 1 -->
<svg width="263pt" height="333pt"
 viewBox="0.00 0.00 263.00 332.50" xmlns="http://www.w3.org/2000/svg" xmlns:xlink="http://www.w3.org/1999/xlink">
<g id="graph0" class="graph" transform="scale(1 1) rotate(0) translate(4 328.5)">
<title>Graphical Class Hierarchy</title>
<polygon fill="white" stroke="transparent" points="-4,4 -4,-328.5 259,-328.5 259,4 -4,4"/>
<!-- Node8 -->
<g id="node1" class="node">
<title>Node8</title>
<g id="a_node1"><a xlink:title=" ">
<polygon fill="white" stroke="#bfbfbf" points="0,-142.5 0,-161.5 43,-161.5 43,-142.5 0,-142.5"/>
<text text-anchor="middle" x="21.5" y="-149.5" font-family="Helvetica,sans-Serif" font-size="10.00">object</text>
</a>
</g>
</g>
<!-- Node0 -->
<g id="node2" class="node">
<title>Node0</title>
<g id="a_node2"><a xlink:href="classbin_1_1class__files_1_1nucleus__class_1_1nucleus.html" target="_top" xlink:title=" ">
<polygon fill="white" stroke="black" points="110.5,-294 110.5,-324 223.5,-324 223.5,-294 110.5,-294"/>
<text text-anchor="start" x="118.5" y="-312" font-family="Helvetica,sans-Serif" font-size="10.00">bin.class_files.nucleus</text>
<text text-anchor="middle" x="167" y="-301" font-family="Helvetica,sans-Serif" font-size="10.00">_class.nucleus</text>
</a>
</g>
</g>
<!-- Node8&#45;&gt;Node0 -->
<g id="edge1" class="edge">
<title>Node8&#45;&gt;Node0</title>
<path fill="none" stroke="midnightblue" d="M25.41,-171.87C30.74,-201 44.84,-255.09 79,-285 87.84,-292.74 98.97,-298.01 110.29,-301.58"/>
<polygon fill="midnightblue" stroke="midnightblue" points="28.81,-170.99 23.73,-161.7 21.91,-172.14 28.81,-170.99"/>
</g>
<!-- Node10 -->
<g id="node3" class="node">
<title>Node10</title>
<g id="a_node3"><a xlink:href="classbin_1_1class__files_1_1nucleus__multiple__class_1_1nucleus__multiple.html" target="_top" xlink:title=" ">
<polygon fill="white" stroke="black" points="107,-234.5 107,-275.5 227,-275.5 227,-234.5 107,-234.5"/>
<text text-anchor="start" x="115" y="-263.5" font-family="Helvetica,sans-Serif" font-size="10.00">bin.class_files.nucleus</text>
<text text-anchor="start" x="115" y="-252.5" font-family="Helvetica,sans-Serif" font-size="10.00">_multiple_class.nucleus</text>
<text text-anchor="middle" x="167" y="-241.5" font-family="Helvetica,sans-Serif" font-size="10.00">_multiple</text>
</a>
</g>
</g>
<!-- Node8&#45;&gt;Node10 -->
<g id="edge2" class="edge">
<title>Node8&#45;&gt;Node10</title>
<path fill="none" stroke="midnightblue" d="M32.33,-170.51C42.1,-187.23 58.55,-211.39 79,-226 87.29,-231.92 96.88,-236.7 106.59,-240.53"/>
<polygon fill="midnightblue" stroke="midnightblue" points="35.31,-168.67 27.38,-161.65 29.21,-172.09 35.31,-168.67"/>
</g>
<!-- Node11 -->
<g id="node4" class="node">
<title>Node11</title>
<g id="a_node4"><a xlink:href="classbin_1_1class__files_1_1reaclib__class_1_1reaclib.html" target="_top" xlink:title=" ">
<polygon fill="white" stroke="black" points="113,-186 113,-216 221,-216 221,-186 113,-186"/>
<text text-anchor="start" x="121" y="-204" font-family="Helvetica,sans-Serif" font-size="10.00">bin.class_files.reaclib</text>
<text text-anchor="middle" x="167" y="-193" font-family="Helvetica,sans-Serif" font-size="10.00">_class.reaclib</text>
</a>
</g>
</g>
<!-- Node8&#45;&gt;Node11 -->
<g id="edge3" class="edge">
<title>Node8&#45;&gt;Node11</title>
<path fill="none" stroke="midnightblue" d="M51.18,-165.67C60,-169.61 69.8,-173.72 79,-177 89.77,-180.85 101.48,-184.45 112.7,-187.64"/>
<polygon fill="midnightblue" stroke="midnightblue" points="52.63,-162.49 42.08,-161.52 49.73,-168.85 52.63,-162.49"/>
</g>
<!-- Node12 -->
<g id="node5" class="node">
<title>Node12</title>
<g id="a_node5"><a xlink:href="classbin_1_1class__files_1_1winnet__class_1_1winnet.html" target="_top" xlink:title=" ">
<polygon fill="white" stroke="black" points="113,-137 113,-167 221,-167 221,-137 113,-137"/>
<text text-anchor="start" x="121" y="-155" font-family="Helvetica,sans-Serif" font-size="10.00">bin.class_files.winnet</text>
<text text-anchor="middle" x="167" y="-144" font-family="Helvetica,sans-Serif" font-size="10.00">_class.winnet</text>
</a>
</g>
</g>
<!-- Node8&#45;&gt;Node12 -->
<g id="edge4" class="edge">
<title>Node8&#45;&gt;Node12</title>
<path fill="none" stroke="midnightblue" d="M53.2,-152C70.6,-152 92.84,-152 112.98,-152"/>
<polygon fill="midnightblue" stroke="midnightblue" points="53.06,-148.5 43.06,-152 53.06,-155.5 53.06,-148.5"/>
</g>
<!-- Node13 -->
<g id="node6" class="node">
<title>Node13</title>
<g id="a_node6"><a xlink:href="classbin_1_1class__files_1_1winvn__class_1_1winvn.html" target="_top" xlink:title=" ">
<polygon fill="white" stroke="black" points="114.5,-88 114.5,-118 219.5,-118 219.5,-88 114.5,-88"/>
<text text-anchor="start" x="122.5" y="-106" font-family="Helvetica,sans-Serif" font-size="10.00">bin.class_files.winvn</text>
<text text-anchor="middle" x="167" y="-95" font-family="Helvetica,sans-Serif" font-size="10.00">_class.winvn</text>
</a>
</g>
</g>
<!-- Node8&#45;&gt;Node13 -->
<g id="edge5" class="edge">
<title>Node8&#45;&gt;Node13</title>
<path fill="none" stroke="midnightblue" d="M52.38,-138.51C60.9,-134.88 70.24,-131.11 79,-128 90.26,-124.01 102.5,-120.18 114.15,-116.78"/>
<polygon fill="midnightblue" stroke="midnightblue" points="50.97,-135.3 43.19,-142.5 53.76,-141.72 50.97,-135.3"/>
</g>
<!-- Node14 -->
<g id="node7" class="node">
<title>Node14</title>
<g id="a_node7"><a xlink:href="classbin_1_1create__neutrino__nucleon__file_1_1nunucleon.html" target="_top" xlink:title=" ">
<polygon fill="white" stroke="black" points="107.5,-39 107.5,-69 226.5,-69 226.5,-39 107.5,-39"/>
<text text-anchor="start" x="115.5" y="-57" font-family="Helvetica,sans-Serif" font-size="10.00">bin.create_neutrino</text>
<text text-anchor="middle" x="167" y="-46" font-family="Helvetica,sans-Serif" font-size="10.00">_nucleon_file.nunucleon</text>
</a>
</g>
</g>
<!-- Node8&#45;&gt;Node14 -->
<g id="edge6" class="edge">
<title>Node8&#45;&gt;Node14</title>
<path fill="none" stroke="midnightblue" d="M32.25,-133.54C41.96,-116.91 58.38,-92.99 79,-79 87.45,-73.27 97.22,-68.83 107.1,-65.41"/>
<polygon fill="midnightblue" stroke="midnightblue" points="29.15,-131.93 27.33,-142.36 35.26,-135.34 29.15,-131.93"/>
</g>
<!-- Node15 -->
<g id="node8" class="node">
<title>Node15</title>
<g id="a_node8"><a xlink:href="classbin_1_1examplecase__class_1_1examplecase.html" target="_top" xlink:title=" ">
<polygon fill="white" stroke="black" points="79,-0.5 79,-19.5 255,-19.5 255,-0.5 79,-0.5"/>
<text text-anchor="middle" x="167" y="-7.5" font-family="Helvetica,sans-Serif" font-size="10.00">bin.examplecase_class.examplecase</text>
</a>
</g>
</g>
<!-- Node8&#45;&gt;Node15 -->
<g id="edge7" class="edge">
<title>Node8&#45;&gt;Node15</title>
<path fill="none" stroke="midnightblue" d="M26.01,-132.41C31.95,-105.16 46.66,-56.24 79,-30 84.3,-25.7 90.34,-22.29 96.72,-19.59"/>
<polygon fill="midnightblue" stroke="midnightblue" points="22.56,-131.82 24.03,-142.32 29.42,-133.2 22.56,-131.82"/>
</g>
</g>
</svg>
