<?xml version="1.0" encoding="UTF-8" standalone="no"?>
<!DOCTYPE svg PUBLIC "-//W3C//DTD SVG 1.1//EN"
 "http://www.w3.org/Graphics/SVG/1.1/DTD/svg11.dtd">
<!-- Generated by graphviz version 2.44.0 ()
 -->
<!-- Title: nuclear_heating::output_debug_nufrac Pages: 1 -->
<svg width="682pt" height="61pt"
 viewBox="0.00 0.00 682.00 61.00" xmlns="http://www.w3.org/2000/svg" xmlns:xlink="http://www.w3.org/1999/xlink">
<g id="graph0" class="graph" transform="scale(1 1) rotate(0) translate(4 57)">
<title>nuclear_heating::output_debug_nufrac</title>
<polygon fill="white" stroke="transparent" points="-4,4 -4,-57 678,-57 678,4 -4,4"/>
<!-- Node1 -->
<g id="node1" class="node">
<title>Node1</title>
<g id="a_node1"><a xlink:title="Output the heating fractions to a debug file.">
<polygon fill="#bfbfbf" stroke="black" points="0,-0.5 0,-30.5 116,-30.5 116,-0.5 0,-0.5"/>
<text text-anchor="start" x="8" y="-18.5" font-family="Helvetica,sans-Serif" font-size="10.00">nuclear_heating::output</text>
<text text-anchor="middle" x="58" y="-7.5" font-family="Helvetica,sans-Serif" font-size="10.00">_debug_nufrac</text>
</a>
</g>
</g>
<!-- Node2 -->
<g id="node2" class="node">
<title>Node2</title>
<g id="a_node2"><a xlink:href="namespacefile__handling__class.html#aeddf55e8478d6220dc04310665427c3a" target="_top" xlink:title="Shorthand for opening a new file for writing (output file)">
<polygon fill="white" stroke="black" points="152,-0.5 152,-30.5 250,-30.5 250,-0.5 152,-0.5"/>
<text text-anchor="start" x="160" y="-18.5" font-family="Helvetica,sans-Serif" font-size="10.00">file_handling_class</text>
<text text-anchor="middle" x="201" y="-7.5" font-family="Helvetica,sans-Serif" font-size="10.00">::open_outfile</text>
</a>
</g>
</g>
<!-- Node1&#45;&gt;Node2 -->
<g id="edge1" class="edge">
<title>Node1&#45;&gt;Node2</title>
<path fill="none" stroke="midnightblue" d="M116.35,-15.5C124.7,-15.5 133.3,-15.5 141.67,-15.5"/>
<polygon fill="midnightblue" stroke="midnightblue" points="141.72,-19 151.72,-15.5 141.72,-12 141.72,-19"/>
</g>
<!-- Node3 -->
<g id="node3" class="node">
<title>Node3</title>
<g id="a_node3"><a xlink:href="namespacefile__handling__class.html#af02196bd5eaf70ecd5ab4cc650094d5e" target="_top" xlink:title="Finds the next unused unit number.">
<polygon fill="white" stroke="black" points="286,-22.5 286,-52.5 384,-52.5 384,-22.5 286,-22.5"/>
<text text-anchor="start" x="294" y="-40.5" font-family="Helvetica,sans-Serif" font-size="10.00">file_handling_class</text>
<text text-anchor="middle" x="335" y="-29.5" font-family="Helvetica,sans-Serif" font-size="10.00">::get_next_io_unit</text>
</a>
</g>
</g>
<!-- Node2&#45;&gt;Node3 -->
<g id="edge2" class="edge">
<title>Node2&#45;&gt;Node3</title>
<path fill="none" stroke="midnightblue" d="M250.03,-23.5C258.4,-24.9 267.19,-26.36 275.8,-27.8"/>
<polygon fill="midnightblue" stroke="midnightblue" points="275.35,-31.27 285.79,-29.46 276.5,-24.37 275.35,-31.27"/>
</g>
<!-- Node4 -->
<g id="node4" class="node">
<title>Node4</title>
<g id="a_node4"><a xlink:href="namespaceerror__msg__class.html#a2453d3b7cb363115c046840baa1dfb75" target="_top" xlink:title="Raise a exception with a given error message.">
<polygon fill="white" stroke="black" points="420,-0.5 420,-30.5 534,-30.5 534,-0.5 420,-0.5"/>
<text text-anchor="start" x="428" y="-18.5" font-family="Helvetica,sans-Serif" font-size="10.00">error_msg_class::raise</text>
<text text-anchor="middle" x="477" y="-7.5" font-family="Helvetica,sans-Serif" font-size="10.00">_exception</text>
</a>
</g>
</g>
<!-- Node2&#45;&gt;Node4 -->
<g id="edge5" class="edge">
<title>Node2&#45;&gt;Node4</title>
<path fill="none" stroke="midnightblue" d="M250.41,-14.15C262.07,-13.88 274.48,-13.64 286,-13.5 329.55,-12.98 340.45,-13.03 384,-13.5 392.27,-13.59 400.95,-13.73 409.55,-13.88"/>
<polygon fill="midnightblue" stroke="midnightblue" points="409.5,-17.38 419.56,-14.08 409.63,-10.38 409.5,-17.38"/>
</g>
<!-- Node3&#45;&gt;Node4 -->
<g id="edge3" class="edge">
<title>Node3&#45;&gt;Node4</title>
<path fill="none" stroke="midnightblue" d="M384.18,-29.93C392.37,-28.64 401,-27.29 409.55,-25.94"/>
<polygon fill="midnightblue" stroke="midnightblue" points="410.2,-29.38 419.54,-24.37 409.11,-22.47 410.2,-29.38"/>
</g>
<!-- Node5 -->
<g id="node5" class="node">
<title>Node5</title>
<g id="a_node5"><a xlink:href="namespaceerror__msg__class.html#a7e065585cc806a5c264de1f088266498" target="_top" xlink:title="Converts a given integer to a string.">
<polygon fill="white" stroke="black" points="570,-0.5 570,-30.5 674,-30.5 674,-0.5 570,-0.5"/>
<text text-anchor="start" x="578" y="-18.5" font-family="Helvetica,sans-Serif" font-size="10.00">error_msg_class::int</text>
<text text-anchor="middle" x="622" y="-7.5" font-family="Helvetica,sans-Serif" font-size="10.00">_to_str</text>
</a>
</g>
</g>
<!-- Node4&#45;&gt;Node5 -->
<g id="edge4" class="edge">
<title>Node4&#45;&gt;Node5</title>
<path fill="none" stroke="midnightblue" d="M534.11,-15.5C542.45,-15.5 551.09,-15.5 559.54,-15.5"/>
<polygon fill="midnightblue" stroke="midnightblue" points="559.71,-19 569.71,-15.5 559.71,-12 559.71,-19"/>
</g>
</g>
</svg>
