<?xml version="1.0" encoding="UTF-8" standalone="no"?>
<!DOCTYPE svg PUBLIC "-//W3C//DTD SVG 1.1//EN"
 "http://www.w3.org/Graphics/SVG/1.1/DTD/svg11.dtd">
<!-- Generated by graphviz version 2.44.0 ()
 -->
<!-- Title: analysis::finab Pages: 1 -->
<svg width="643pt" height="127pt"
 viewBox="0.00 0.00 643.00 127.00" xmlns="http://www.w3.org/2000/svg" xmlns:xlink="http://www.w3.org/1999/xlink">
<g id="graph0" class="graph" transform="scale(1 1) rotate(0) translate(4 123)">
<title>analysis::finab</title>
<polygon fill="white" stroke="transparent" points="-4,4 -4,-123 639,-123 639,4 -4,4"/>
<!-- Node1 -->
<g id="node1" class="node">
<title>Node1</title>
<g id="a_node1"><a xlink:title="Compute final abundances and write final output.">
<polygon fill="#bfbfbf" stroke="black" points="0,-56 0,-75 77,-75 77,-56 0,-56"/>
<text text-anchor="middle" x="38.5" y="-63" font-family="Helvetica,sans-Serif" font-size="10.00">analysis::finab</text>
</a>
</g>
</g>
<!-- Node2 -->
<g id="node2" class="node">
<title>Node2</title>
<g id="a_node2"><a xlink:href="namespacefile__handling__class.html#a01ba26324d7662cc0fb2e0eb306cd3e2" target="_top" xlink:title="Close an external file.">
<polygon fill="white" stroke="black" points="247,-88.5 247,-118.5 345,-118.5 345,-88.5 247,-88.5"/>
<text text-anchor="start" x="255" y="-106.5" font-family="Helvetica,sans-Serif" font-size="10.00">file_handling_class</text>
<text text-anchor="middle" x="296" y="-95.5" font-family="Helvetica,sans-Serif" font-size="10.00">::close_io_file</text>
</a>
</g>
</g>
<!-- Node1&#45;&gt;Node2 -->
<g id="edge1" class="edge">
<title>Node1&#45;&gt;Node2</title>
<path fill="none" stroke="midnightblue" d="M72.2,-75.07C84.85,-78.47 99.51,-82.07 113,-84.5 153.98,-91.89 200.7,-96.7 236.54,-99.62"/>
<polygon fill="midnightblue" stroke="midnightblue" points="236.58,-103.14 246.83,-100.44 237.13,-96.16 236.58,-103.14"/>
</g>
<!-- Node5 -->
<g id="node5" class="node">
<title>Node5</title>
<g id="a_node5"><a xlink:href="namespaceanalysis.html#a66afb43b197b91c6bd02c94478a5791e" target="_top" xlink:title="auxiliary sorting subroutine">
<polygon fill="white" stroke="black" points="113,-56 113,-75 211,-75 211,-56 113,-56"/>
<text text-anchor="middle" x="162" y="-63" font-family="Helvetica,sans-Serif" font-size="10.00">analysis::finab_sort</text>
</a>
</g>
</g>
<!-- Node1&#45;&gt;Node5 -->
<g id="edge5" class="edge">
<title>Node1&#45;&gt;Node5</title>
<path fill="none" stroke="midnightblue" d="M77.28,-65.5C85.39,-65.5 94.14,-65.5 102.82,-65.5"/>
<polygon fill="midnightblue" stroke="midnightblue" points="102.94,-69 112.94,-65.5 102.94,-62 102.94,-69"/>
</g>
<!-- Node6 -->
<g id="node6" class="node">
<title>Node6</title>
<g id="a_node6"><a xlink:href="namespacefile__handling__class.html#aeddf55e8478d6220dc04310665427c3a" target="_top" xlink:title="Shorthand for opening a new file for writing (output file)">
<polygon fill="white" stroke="black" points="113,-6.5 113,-36.5 211,-36.5 211,-6.5 113,-6.5"/>
<text text-anchor="start" x="121" y="-24.5" font-family="Helvetica,sans-Serif" font-size="10.00">file_handling_class</text>
<text text-anchor="middle" x="162" y="-13.5" font-family="Helvetica,sans-Serif" font-size="10.00">::open_outfile</text>
</a>
</g>
</g>
<!-- Node1&#45;&gt;Node6 -->
<g id="edge6" class="edge">
<title>Node1&#45;&gt;Node6</title>
<path fill="none" stroke="midnightblue" d="M65.86,-55.95C78.69,-51.31 94.56,-45.56 109.64,-40.1"/>
<polygon fill="midnightblue" stroke="midnightblue" points="111.19,-43.26 119.4,-36.57 108.8,-36.68 111.19,-43.26"/>
</g>
<!-- Node3 -->
<g id="node3" class="node">
<title>Node3</title>
<g id="a_node3"><a xlink:href="namespaceerror__msg__class.html#a7e065585cc806a5c264de1f088266498" target="_top" xlink:title="Converts a given integer to a string.">
<polygon fill="white" stroke="black" points="531,-66.5 531,-96.5 635,-96.5 635,-66.5 531,-66.5"/>
<text text-anchor="start" x="539" y="-84.5" font-family="Helvetica,sans-Serif" font-size="10.00">error_msg_class::int</text>
<text text-anchor="middle" x="583" y="-73.5" font-family="Helvetica,sans-Serif" font-size="10.00">_to_str</text>
</a>
</g>
</g>
<!-- Node2&#45;&gt;Node3 -->
<g id="edge2" class="edge">
<title>Node2&#45;&gt;Node3</title>
<path fill="none" stroke="midnightblue" d="M345.02,-99.79C393.36,-96.06 468.09,-90.29 520.68,-86.23"/>
<polygon fill="midnightblue" stroke="midnightblue" points="521.19,-89.7 530.89,-85.45 520.65,-82.73 521.19,-89.7"/>
</g>
<!-- Node4 -->
<g id="node4" class="node">
<title>Node4</title>
<g id="a_node4"><a xlink:href="namespaceerror__msg__class.html#a2453d3b7cb363115c046840baa1dfb75" target="_top" xlink:title="Raise a exception with a given error message.">
<polygon fill="white" stroke="black" points="381,-44.5 381,-74.5 495,-74.5 495,-44.5 381,-44.5"/>
<text text-anchor="start" x="389" y="-62.5" font-family="Helvetica,sans-Serif" font-size="10.00">error_msg_class::raise</text>
<text text-anchor="middle" x="438" y="-51.5" font-family="Helvetica,sans-Serif" font-size="10.00">_exception</text>
</a>
</g>
</g>
<!-- Node2&#45;&gt;Node4 -->
<g id="edge3" class="edge">
<title>Node2&#45;&gt;Node4</title>
<path fill="none" stroke="midnightblue" d="M344.79,-88.48C355.82,-85.01 367.66,-81.29 379.07,-77.71"/>
<polygon fill="midnightblue" stroke="midnightblue" points="380.46,-80.94 388.95,-74.6 378.36,-74.26 380.46,-80.94"/>
</g>
<!-- Node4&#45;&gt;Node3 -->
<g id="edge4" class="edge">
<title>Node4&#45;&gt;Node3</title>
<path fill="none" stroke="midnightblue" d="M495.11,-68.13C503.54,-69.43 512.28,-70.77 520.81,-72.09"/>
<polygon fill="midnightblue" stroke="midnightblue" points="520.3,-75.55 530.71,-73.61 521.36,-68.63 520.3,-75.55"/>
</g>
<!-- Node6&#45;&gt;Node4 -->
<g id="edge9" class="edge">
<title>Node6&#45;&gt;Node4</title>
<path fill="none" stroke="midnightblue" d="M211.25,-32.76C222.91,-35.22 235.36,-37.65 247,-39.5 287.87,-46.01 334.03,-50.93 370.62,-54.25"/>
<polygon fill="midnightblue" stroke="midnightblue" points="370.41,-57.75 380.68,-55.15 371.03,-50.78 370.41,-57.75"/>
</g>
<!-- Node7 -->
<g id="node7" class="node">
<title>Node7</title>
<g id="a_node7"><a xlink:href="namespacefile__handling__class.html#af02196bd5eaf70ecd5ab4cc650094d5e" target="_top" xlink:title="Finds the next unused unit number.">
<polygon fill="white" stroke="black" points="247,-0.5 247,-30.5 345,-30.5 345,-0.5 247,-0.5"/>
<text text-anchor="start" x="255" y="-18.5" font-family="Helvetica,sans-Serif" font-size="10.00">file_handling_class</text>
<text text-anchor="middle" x="296" y="-7.5" font-family="Helvetica,sans-Serif" font-size="10.00">::get_next_io_unit</text>
</a>
</g>
</g>
<!-- Node6&#45;&gt;Node7 -->
<g id="edge7" class="edge">
<title>Node6&#45;&gt;Node7</title>
<path fill="none" stroke="midnightblue" d="M211.03,-19.32C219.31,-18.94 228,-18.55 236.52,-18.16"/>
<polygon fill="midnightblue" stroke="midnightblue" points="236.96,-21.64 246.79,-17.69 236.64,-14.65 236.96,-21.64"/>
</g>
<!-- Node7&#45;&gt;Node4 -->
<g id="edge8" class="edge">
<title>Node7&#45;&gt;Node4</title>
<path fill="none" stroke="midnightblue" d="M344.79,-30.52C355.82,-33.99 367.66,-37.71 379.07,-41.29"/>
<polygon fill="midnightblue" stroke="midnightblue" points="378.36,-44.74 388.95,-44.4 380.46,-38.06 378.36,-44.74"/>
</g>
</g>
</svg>
