<?xml version="1.0" encoding="UTF-8" standalone="no"?>
<!DOCTYPE svg PUBLIC "-//W3C//DTD SVG 1.1//EN"
 "http://www.w3.org/Graphics/SVG/1.1/DTD/svg11.dtd">
<!-- Generated by graphviz version 2.44.0 ()
 -->
<!-- Title: network_init_module::print_reactions Pages: 1 -->
<svg width="714pt" height="127pt"
 viewBox="0.00 0.00 714.00 127.00" xmlns="http://www.w3.org/2000/svg" xmlns:xlink="http://www.w3.org/1999/xlink">
<g id="graph0" class="graph" transform="scale(1 1) rotate(0) translate(4 123)">
<title>network_init_module::print_reactions</title>
<polygon fill="white" stroke="transparent" points="-4,4 -4,-123 710,-123 710,4 -4,4"/>
<!-- Node1 -->
<g id="node1" class="node">
<title>Node1</title>
<g id="a_node1"><a xlink:title="Print an overview of the reactions involved in the calculation.">
<polygon fill="#bfbfbf" stroke="black" points="0,-50.5 0,-80.5 106,-80.5 106,-50.5 0,-50.5"/>
<text text-anchor="start" x="8" y="-68.5" font-family="Helvetica,sans-Serif" font-size="10.00">network_init_module</text>
<text text-anchor="middle" x="53" y="-57.5" font-family="Helvetica,sans-Serif" font-size="10.00">::print_reactions</text>
</a>
</g>
</g>
<!-- Node2 -->
<g id="node2" class="node">
<title>Node2</title>
<g id="a_node2"><a xlink:href="namespacefile__handling__class.html#a01ba26324d7662cc0fb2e0eb306cd3e2" target="_top" xlink:title="Close an external file.">
<polygon fill="white" stroke="black" points="318,-88.5 318,-118.5 416,-118.5 416,-88.5 318,-88.5"/>
<text text-anchor="start" x="326" y="-106.5" font-family="Helvetica,sans-Serif" font-size="10.00">file_handling_class</text>
<text text-anchor="middle" x="367" y="-95.5" font-family="Helvetica,sans-Serif" font-size="10.00">::close_io_file</text>
</a>
</g>
</g>
<!-- Node1&#45;&gt;Node2 -->
<g id="edge1" class="edge">
<title>Node1&#45;&gt;Node2</title>
<path fill="none" stroke="midnightblue" d="M106.38,-77.96C118.05,-80.41 130.41,-82.76 142,-84.5 197.86,-92.86 262.15,-97.84 307.49,-100.59"/>
<polygon fill="midnightblue" stroke="midnightblue" points="307.54,-104.1 317.73,-101.19 307.95,-97.11 307.54,-104.1"/>
</g>
<!-- Node5 -->
<g id="node5" class="node">
<title>Node5</title>
<g id="a_node5"><a xlink:href="namespacebenam__class.html#afd880df70f94c289b6bda0647f4494e3" target="_top" xlink:title="Getter of net_names, translating indices to a nucleus name.">
<polygon fill="white" stroke="black" points="142,-56 142,-75 282,-75 282,-56 142,-56"/>
<text text-anchor="middle" x="212" y="-63" font-family="Helvetica,sans-Serif" font-size="10.00">benam_class::get_net_name</text>
</a>
</g>
</g>
<!-- Node1&#45;&gt;Node5 -->
<g id="edge5" class="edge">
<title>Node1&#45;&gt;Node5</title>
<path fill="none" stroke="midnightblue" d="M106.28,-65.5C114.49,-65.5 123.12,-65.5 131.77,-65.5"/>
<polygon fill="midnightblue" stroke="midnightblue" points="131.91,-69 141.91,-65.5 131.91,-62 131.91,-69"/>
</g>
<!-- Node6 -->
<g id="node6" class="node">
<title>Node6</title>
<g id="a_node6"><a xlink:href="namespacefile__handling__class.html#aeddf55e8478d6220dc04310665427c3a" target="_top" xlink:title="Shorthand for opening a new file for writing (output file)">
<polygon fill="white" stroke="black" points="163,-6.5 163,-36.5 261,-36.5 261,-6.5 163,-6.5"/>
<text text-anchor="start" x="171" y="-24.5" font-family="Helvetica,sans-Serif" font-size="10.00">file_handling_class</text>
<text text-anchor="middle" x="212" y="-13.5" font-family="Helvetica,sans-Serif" font-size="10.00">::open_outfile</text>
</a>
</g>
</g>
<!-- Node1&#45;&gt;Node6 -->
<g id="edge6" class="edge">
<title>Node1&#45;&gt;Node6</title>
<path fill="none" stroke="midnightblue" d="M106.28,-50.85C121.28,-46.64 137.72,-42.04 153.04,-37.74"/>
<polygon fill="midnightblue" stroke="midnightblue" points="154.24,-41.04 162.92,-34.97 152.35,-34.3 154.24,-41.04"/>
</g>
<!-- Node3 -->
<g id="node3" class="node">
<title>Node3</title>
<g id="a_node3"><a xlink:href="namespaceerror__msg__class.html#a7e065585cc806a5c264de1f088266498" target="_top" xlink:title="Converts a given integer to a string.">
<polygon fill="white" stroke="black" points="602,-66.5 602,-96.5 706,-96.5 706,-66.5 602,-66.5"/>
<text text-anchor="start" x="610" y="-84.5" font-family="Helvetica,sans-Serif" font-size="10.00">error_msg_class::int</text>
<text text-anchor="middle" x="654" y="-73.5" font-family="Helvetica,sans-Serif" font-size="10.00">_to_str</text>
</a>
</g>
</g>
<!-- Node2&#45;&gt;Node3 -->
<g id="edge2" class="edge">
<title>Node2&#45;&gt;Node3</title>
<path fill="none" stroke="midnightblue" d="M416.02,-99.79C464.36,-96.06 539.09,-90.29 591.68,-86.23"/>
<polygon fill="midnightblue" stroke="midnightblue" points="592.19,-89.7 601.89,-85.45 591.65,-82.73 592.19,-89.7"/>
</g>
<!-- Node4 -->
<g id="node4" class="node">
<title>Node4</title>
<g id="a_node4"><a xlink:href="namespaceerror__msg__class.html#a2453d3b7cb363115c046840baa1dfb75" target="_top" xlink:title="Raise a exception with a given error message.">
<polygon fill="white" stroke="black" points="452,-44.5 452,-74.5 566,-74.5 566,-44.5 452,-44.5"/>
<text text-anchor="start" x="460" y="-62.5" font-family="Helvetica,sans-Serif" font-size="10.00">error_msg_class::raise</text>
<text text-anchor="middle" x="509" y="-51.5" font-family="Helvetica,sans-Serif" font-size="10.00">_exception</text>
</a>
</g>
</g>
<!-- Node2&#45;&gt;Node4 -->
<g id="edge3" class="edge">
<title>Node2&#45;&gt;Node4</title>
<path fill="none" stroke="midnightblue" d="M415.79,-88.48C426.82,-85.01 438.66,-81.29 450.07,-77.71"/>
<polygon fill="midnightblue" stroke="midnightblue" points="451.46,-80.94 459.95,-74.6 449.36,-74.26 451.46,-80.94"/>
</g>
<!-- Node4&#45;&gt;Node3 -->
<g id="edge4" class="edge">
<title>Node4&#45;&gt;Node3</title>
<path fill="none" stroke="midnightblue" d="M566.11,-68.13C574.54,-69.43 583.28,-70.77 591.81,-72.09"/>
<polygon fill="midnightblue" stroke="midnightblue" points="591.3,-75.55 601.71,-73.61 592.36,-68.63 591.3,-75.55"/>
</g>
<!-- Node6&#45;&gt;Node4 -->
<g id="edge9" class="edge">
<title>Node6&#45;&gt;Node4</title>
<path fill="none" stroke="midnightblue" d="M261.25,-30.45C279.05,-33.57 299.4,-36.93 318,-39.5 358.99,-45.17 405.16,-50.06 441.72,-53.59"/>
<polygon fill="midnightblue" stroke="midnightblue" points="441.48,-57.08 451.77,-54.55 442.14,-50.11 441.48,-57.08"/>
</g>
<!-- Node7 -->
<g id="node7" class="node">
<title>Node7</title>
<g id="a_node7"><a xlink:href="namespacefile__handling__class.html#af02196bd5eaf70ecd5ab4cc650094d5e" target="_top" xlink:title="Finds the next unused unit number.">
<polygon fill="white" stroke="black" points="318,-0.5 318,-30.5 416,-30.5 416,-0.5 318,-0.5"/>
<text text-anchor="start" x="326" y="-18.5" font-family="Helvetica,sans-Serif" font-size="10.00">file_handling_class</text>
<text text-anchor="middle" x="367" y="-7.5" font-family="Helvetica,sans-Serif" font-size="10.00">::get_next_io_unit</text>
</a>
</g>
</g>
<!-- Node6&#45;&gt;Node7 -->
<g id="edge7" class="edge">
<title>Node6&#45;&gt;Node7</title>
<path fill="none" stroke="midnightblue" d="M261.41,-19.6C276.06,-19.03 292.31,-18.39 307.55,-17.79"/>
<polygon fill="midnightblue" stroke="midnightblue" points="308.05,-21.28 317.9,-17.39 307.78,-14.28 308.05,-21.28"/>
</g>
<!-- Node7&#45;&gt;Node4 -->
<g id="edge8" class="edge">
<title>Node7&#45;&gt;Node4</title>
<path fill="none" stroke="midnightblue" d="M415.79,-30.52C426.82,-33.99 438.66,-37.71 450.07,-41.29"/>
<polygon fill="midnightblue" stroke="midnightblue" points="449.36,-44.74 459.95,-44.4 451.46,-38.06 449.36,-44.74"/>
</g>
</g>
</svg>
