<?xml version="1.0" encoding="UTF-8" standalone="no"?>
<!DOCTYPE svg PUBLIC "-//W3C//DTD SVG 1.1//EN"
 "http://www.w3.org/Graphics/SVG/1.1/DTD/svg11.dtd">
<!-- Generated by graphviz version 2.44.0 ()
 -->
<!-- Title: hdf5_module::init_hdf5_module Pages: 1 -->
<svg width="734pt" height="413pt"
 viewBox="0.00 0.00 734.00 413.09" xmlns="http://www.w3.org/2000/svg" xmlns:xlink="http://www.w3.org/1999/xlink">
<g id="graph0" class="graph" transform="scale(1 1) rotate(0) translate(4 409.09)">
<title>hdf5_module::init_hdf5_module</title>
<polygon fill="white" stroke="transparent" points="-4,4 -4,-409.09 730,-409.09 730,4 -4,4"/>
<!-- Node1 -->
<g id="node1" class="node">
<title>Node1</title>
<g id="a_node1"><a xlink:title="Initialize the hdf5 module.">
<polygon fill="#bfbfbf" stroke="black" points="0,-187 0,-217 113,-217 113,-187 0,-187"/>
<text text-anchor="start" x="8" y="-205" font-family="Helvetica,sans-Serif" font-size="10.00">hdf5_module::init_hdf5</text>
<text text-anchor="middle" x="56.5" y="-194" font-family="Helvetica,sans-Serif" font-size="10.00">_module</text>
</a>
</g>
</g>
<!-- Node2 -->
<g id="node2" class="node">
<title>Node2</title>
<g id="a_node2"><a xlink:href="namespacehdf5__module.html#ac23832e14905543a503a602cd3b3910a" target="_top" xlink:title="Initialize the timescales hdf5 group.">
<polygon fill="white" stroke="black" points="161,-291 161,-321 266,-321 266,-291 161,-291"/>
<text text-anchor="start" x="169" y="-309" font-family="Helvetica,sans-Serif" font-size="10.00">hdf5_module::init_av</text>
<text text-anchor="middle" x="213.5" y="-298" font-family="Helvetica,sans-Serif" font-size="10.00">_timescales</text>
</a>
</g>
</g>
<!-- Node1&#45;&gt;Node2 -->
<g id="edge1" class="edge">
<title>Node1&#45;&gt;Node2</title>
<path fill="none" stroke="midnightblue" d="M71.81,-217.12C88.85,-234.44 118.82,-262.76 149,-281 152.33,-283.01 155.84,-284.92 159.45,-286.71"/>
<polygon fill="midnightblue" stroke="midnightblue" points="157.99,-289.89 168.53,-290.94 160.94,-283.55 157.99,-289.89"/>
</g>
<!-- Node4 -->
<g id="node4" class="node">
<title>Node4</title>
<g id="a_node4"><a xlink:href="namespaceerror__msg__class.html#a2453d3b7cb363115c046840baa1dfb75" target="_top" xlink:title="Raise a exception with a given error message.">
<polygon fill="white" stroke="black" points="472,-203 472,-233 586,-233 586,-203 472,-203"/>
<text text-anchor="start" x="480" y="-221" font-family="Helvetica,sans-Serif" font-size="10.00">error_msg_class::raise</text>
<text text-anchor="middle" x="529" y="-210" font-family="Helvetica,sans-Serif" font-size="10.00">_exception</text>
</a>
</g>
</g>
<!-- Node1&#45;&gt;Node4 -->
<g id="edge29" class="edge">
<title>Node1&#45;&gt;Node4</title>
<path fill="none" stroke="midnightblue" d="M64.32,-217.02C77.16,-243.69 107.43,-299.48 149,-331 211.06,-378.05 237.26,-376.69 314,-390 367.42,-399.26 389.49,-417.87 436,-390 489.75,-357.79 513.86,-282.29 523.1,-242.9"/>
<polygon fill="midnightblue" stroke="midnightblue" points="526.54,-243.56 525.28,-233.04 519.71,-242.05 526.54,-243.56"/>
</g>
<!-- Node6 -->
<g id="node6" class="node">
<title>Node6</title>
<g id="a_node6"><a xlink:href="namespacehdf5__module.html#aa156d83505172b391c98a12a60869ab2" target="_top" xlink:title="Initialize energy generation output.">
<polygon fill="white" stroke="black" points="153,-214.5 153,-233.5 274,-233.5 274,-214.5 153,-214.5"/>
<text text-anchor="middle" x="213.5" y="-221.5" font-family="Helvetica,sans-Serif" font-size="10.00">hdf5_module::init_engen</text>
</a>
</g>
</g>
<!-- Node1&#45;&gt;Node6 -->
<g id="edge6" class="edge">
<title>Node1&#45;&gt;Node6</title>
<path fill="none" stroke="midnightblue" d="M113.02,-209.88C122.73,-211.26 132.94,-212.71 142.97,-214.13"/>
<polygon fill="midnightblue" stroke="midnightblue" points="142.52,-217.6 152.91,-215.54 143.5,-210.67 142.52,-217.6"/>
</g>
<!-- Node8 -->
<g id="node8" class="node">
<title>Node8</title>
<g id="a_node8"><a xlink:href="namespacehdf5__module.html#adcb03d9acc77a92623fb04cc70d368f8" target="_top" xlink:title="Initialize the flow output.">
<polygon fill="white" stroke="black" points="319,-0.5 319,-19.5 431,-19.5 431,-0.5 319,-0.5"/>
<text text-anchor="middle" x="375" y="-7.5" font-family="Helvetica,sans-Serif" font-size="10.00">hdf5_module::init_flow</text>
</a>
</g>
</g>
<!-- Node1&#45;&gt;Node8 -->
<g id="edge11" class="edge">
<title>Node1&#45;&gt;Node8</title>
<path fill="none" stroke="midnightblue" d="M63.45,-186.76C75.28,-158.54 104.49,-98.21 149,-67 196.12,-33.95 260.71,-20.04 308.6,-14.19"/>
<polygon fill="midnightblue" stroke="midnightblue" points="309.01,-17.67 318.55,-13.06 308.22,-10.71 309.01,-17.67"/>
</g>
<!-- Node9 -->
<g id="node9" class="node">
<title>Node9</title>
<g id="a_node9"><a xlink:href="namespacehdf5__module.html#ae48ccd578f598829fc412f843c0aff7d" target="_top" xlink:title="Initialize the mainout hdf5 group.">
<polygon fill="white" stroke="black" points="149,-252.5 149,-271.5 278,-271.5 278,-252.5 149,-252.5"/>
<text text-anchor="middle" x="213.5" y="-259.5" font-family="Helvetica,sans-Serif" font-size="10.00">hdf5_module::init_mainout</text>
</a>
</g>
</g>
<!-- Node1&#45;&gt;Node9 -->
<g id="edge13" class="edge">
<title>Node1&#45;&gt;Node9</title>
<path fill="none" stroke="midnightblue" d="M88.42,-217.07C105.96,-225.3 128.44,-235.36 149,-243 155.02,-245.24 161.43,-247.4 167.77,-249.42"/>
<polygon fill="midnightblue" stroke="midnightblue" points="167.04,-252.85 177.62,-252.46 169.1,-246.17 167.04,-252.85"/>
</g>
<!-- Node11 -->
<g id="node11" class="node">
<title>Node11</title>
<g id="a_node11"><a xlink:href="namespacehdf5__module.html#ac4bc499f1766102e6dc6a461ee554d08" target="_top" xlink:title="Initialize neutrino loss/gain output.">
<polygon fill="white" stroke="black" points="161,-165 161,-195 266,-195 266,-165 161,-165"/>
<text text-anchor="start" x="169" y="-183" font-family="Helvetica,sans-Serif" font-size="10.00">hdf5_module::init_nu</text>
<text text-anchor="middle" x="213.5" y="-172" font-family="Helvetica,sans-Serif" font-size="10.00">_loss_gain</text>
</a>
</g>
</g>
<!-- Node1&#45;&gt;Node11 -->
<g id="edge18" class="edge">
<title>Node1&#45;&gt;Node11</title>
<path fill="none" stroke="midnightblue" d="M113.02,-194.12C125.36,-192.37 138.51,-190.5 151.07,-188.72"/>
<polygon fill="midnightblue" stroke="midnightblue" points="151.58,-192.18 160.98,-187.31 150.59,-185.25 151.58,-192.18"/>
</g>
<!-- Node12 -->
<g id="node12" class="node">
<title>Node12</title>
<g id="a_node12"><a xlink:href="namespacehdf5__module.html#a66194278554c0d366251b3c2e15b16c2" target="_top" xlink:title="Initialize the snapshot hdf5 group.">
<polygon fill="white" stroke="black" points="153,-126.5 153,-145.5 274,-145.5 274,-126.5 153,-126.5"/>
<text text-anchor="middle" x="213.5" y="-133.5" font-family="Helvetica,sans-Serif" font-size="10.00">hdf5_module::init_snaps</text>
</a>
</g>
</g>
<!-- Node1&#45;&gt;Node12 -->
<g id="edge21" class="edge">
<title>Node1&#45;&gt;Node12</title>
<path fill="none" stroke="midnightblue" d="M83.72,-186.9C101.69,-176.95 126.3,-164.13 149,-155 154.61,-152.74 160.59,-150.61 166.55,-148.65"/>
<polygon fill="midnightblue" stroke="midnightblue" points="168.02,-151.86 176.5,-145.52 165.91,-145.18 168.02,-151.86"/>
</g>
<!-- Node13 -->
<g id="node13" class="node">
<title>Node13</title>
<g id="a_node13"><a xlink:href="namespacehdf5__module.html#ab9fc032c08e349615fd44c7761a3470c" target="_top" xlink:title="Initialize the tracked_nuclei hdf5 group.">
<polygon fill="white" stroke="black" points="155.5,-77 155.5,-107 271.5,-107 271.5,-77 155.5,-77"/>
<text text-anchor="start" x="163.5" y="-95" font-family="Helvetica,sans-Serif" font-size="10.00">hdf5_module::init_track</text>
<text text-anchor="middle" x="213.5" y="-84" font-family="Helvetica,sans-Serif" font-size="10.00">_nuclei</text>
</a>
</g>
</g>
<!-- Node1&#45;&gt;Node13 -->
<g id="edge25" class="edge">
<title>Node1&#45;&gt;Node13</title>
<path fill="none" stroke="midnightblue" d="M70.4,-186.97C86.98,-168.41 117.44,-136.87 149,-117 152.14,-115.02 155.47,-113.15 158.88,-111.4"/>
<polygon fill="midnightblue" stroke="midnightblue" points="160.55,-114.48 168.07,-107.01 157.54,-108.16 160.55,-114.48"/>
</g>
<!-- Node3 -->
<g id="node3" class="node">
<title>Node3</title>
<g id="a_node3"><a xlink:href="namespacehdf5__module.html#aaee7540701e1025315a58592932552cc" target="_top" xlink:title="Gets a dataset name and creates it.">
<polygon fill="white" stroke="black" points="323,-203 323,-233 427,-233 427,-203 323,-203"/>
<text text-anchor="start" x="331" y="-221" font-family="Helvetica,sans-Serif" font-size="10.00">hdf5_module::create</text>
<text text-anchor="middle" x="375" y="-210" font-family="Helvetica,sans-Serif" font-size="10.00">_1d_dataset</text>
</a>
</g>
</g>
<!-- Node2&#45;&gt;Node3 -->
<g id="edge2" class="edge">
<title>Node2&#45;&gt;Node3</title>
<path fill="none" stroke="midnightblue" d="M256.38,-290.93C263.7,-287.9 271.16,-284.54 278,-281 301.69,-268.73 326.84,-252.08 345.45,-238.97"/>
<polygon fill="midnightblue" stroke="midnightblue" points="347.66,-241.7 353.77,-233.04 343.6,-236 347.66,-241.7"/>
</g>
<!-- Node2&#45;&gt;Node4 -->
<g id="edge5" class="edge">
<title>Node2&#45;&gt;Node4</title>
<path fill="none" stroke="midnightblue" d="M231.68,-321.23C250.41,-336.72 281.99,-359.72 314,-369 366.08,-384.1 388.73,-395.55 436,-369 484.23,-341.91 510.15,-278.13 521.27,-242.74"/>
<polygon fill="midnightblue" stroke="midnightblue" points="524.62,-243.74 524.13,-233.16 517.91,-241.73 524.62,-243.74"/>
</g>
<!-- Node3&#45;&gt;Node4 -->
<g id="edge3" class="edge">
<title>Node3&#45;&gt;Node4</title>
<path fill="none" stroke="midnightblue" d="M427.04,-218C438.18,-218 450.12,-218 461.76,-218"/>
<polygon fill="midnightblue" stroke="midnightblue" points="461.87,-221.5 471.87,-218 461.87,-214.5 461.87,-221.5"/>
</g>
<!-- Node5 -->
<g id="node5" class="node">
<title>Node5</title>
<g id="a_node5"><a xlink:href="namespaceerror__msg__class.html#a7e065585cc806a5c264de1f088266498" target="_top" xlink:title="Converts a given integer to a string.">
<polygon fill="white" stroke="black" points="622,-203 622,-233 726,-233 726,-203 622,-203"/>
<text text-anchor="start" x="630" y="-221" font-family="Helvetica,sans-Serif" font-size="10.00">error_msg_class::int</text>
<text text-anchor="middle" x="674" y="-210" font-family="Helvetica,sans-Serif" font-size="10.00">_to_str</text>
</a>
</g>
</g>
<!-- Node4&#45;&gt;Node5 -->
<g id="edge4" class="edge">
<title>Node4&#45;&gt;Node5</title>
<path fill="none" stroke="midnightblue" d="M586.11,-218C594.45,-218 603.09,-218 611.54,-218"/>
<polygon fill="midnightblue" stroke="midnightblue" points="611.71,-221.5 621.71,-218 611.71,-214.5 611.71,-221.5"/>
</g>
<!-- Node6&#45;&gt;Node3 -->
<g id="edge7" class="edge">
<title>Node6&#45;&gt;Node3</title>
<path fill="none" stroke="midnightblue" d="M274.35,-221.75C286.85,-221.28 300.04,-220.78 312.6,-220.31"/>
<polygon fill="midnightblue" stroke="midnightblue" points="313.1,-223.79 322.96,-219.92 312.84,-216.8 313.1,-223.79"/>
</g>
<!-- Node6&#45;&gt;Node4 -->
<g id="edge10" class="edge">
<title>Node6&#45;&gt;Node4</title>
<path fill="none" stroke="midnightblue" d="M254.92,-233.51C272.89,-237.28 294.39,-241.14 314,-243 367.98,-248.11 382.25,-250.17 436,-243 447.92,-241.41 460.48,-238.71 472.37,-235.65"/>
<polygon fill="midnightblue" stroke="midnightblue" points="473.41,-239 482.16,-233.02 471.59,-232.24 473.41,-239"/>
</g>
<!-- Node7 -->
<g id="node7" class="node">
<title>Node7</title>
<g id="a_node7"><a xlink:href="namespacehdf5__module.html#afbf1071900336a7ed8fcb9b8980a6682" target="_top" xlink:title="Create a hdf5 entry with constant values.">
<polygon fill="white" stroke="black" points="314,-77 314,-107 436,-107 436,-77 314,-77"/>
<text text-anchor="start" x="322" y="-95" font-family="Helvetica,sans-Serif" font-size="10.00">hdf5_module::create</text>
<text text-anchor="middle" x="375" y="-84" font-family="Helvetica,sans-Serif" font-size="10.00">_constant_1d_int_arrays</text>
</a>
</g>
</g>
<!-- Node6&#45;&gt;Node7 -->
<g id="edge8" class="edge">
<title>Node6&#45;&gt;Node7</title>
<path fill="none" stroke="midnightblue" d="M258.67,-214.4C265.44,-211.93 272.12,-208.84 278,-205 313.51,-181.8 343.08,-141.66 359.64,-115.99"/>
<polygon fill="midnightblue" stroke="midnightblue" points="362.78,-117.57 365.14,-107.24 356.86,-113.84 362.78,-117.57"/>
</g>
<!-- Node7&#45;&gt;Node4 -->
<g id="edge9" class="edge">
<title>Node7&#45;&gt;Node4</title>
<path fill="none" stroke="midnightblue" d="M411.14,-107.04C419.61,-111.34 428.41,-116.4 436,-122 464.87,-143.28 492.59,-174.09 509.91,-195.03"/>
<polygon fill="midnightblue" stroke="midnightblue" points="507.21,-197.25 516.24,-202.8 512.64,-192.83 507.21,-197.25"/>
</g>
<!-- Node8&#45;&gt;Node4 -->
<g id="edge12" class="edge">
<title>Node8&#45;&gt;Node4</title>
<path fill="none" stroke="midnightblue" d="M412.09,-19.56C420.64,-23.07 429.23,-27.77 436,-34 484.29,-78.43 510.65,-153.86 521.69,-192.91"/>
<polygon fill="midnightblue" stroke="midnightblue" points="518.4,-194.17 524.4,-202.9 525.16,-192.33 518.4,-194.17"/>
</g>
<!-- Node9&#45;&gt;Node3 -->
<g id="edge14" class="edge">
<title>Node9&#45;&gt;Node3</title>
<path fill="none" stroke="midnightblue" d="M249.11,-252.45C267.78,-247.3 291.37,-240.79 313.01,-234.82"/>
<polygon fill="midnightblue" stroke="midnightblue" points="314.09,-238.16 322.79,-232.13 312.22,-231.41 314.09,-238.16"/>
</g>
<!-- Node9&#45;&gt;Node4 -->
<g id="edge17" class="edge">
<title>Node9&#45;&gt;Node4</title>
<path fill="none" stroke="midnightblue" d="M278.29,-267.89C322.97,-270.38 383.79,-270.48 436,-259 455.56,-254.7 476.03,-246.04 492.68,-237.79"/>
<polygon fill="midnightblue" stroke="midnightblue" points="494.71,-240.68 502.01,-233.01 491.52,-234.45 494.71,-240.68"/>
</g>
<!-- Node10 -->
<g id="node10" class="node">
<title>Node10</title>
<g id="a_node10"><a xlink:href="namespacehdf5__module.html#a9f787006556041c71ebaca1ae791f925" target="_top" xlink:title="Gets a dataset name and creates an integer dataset.">
<polygon fill="white" stroke="black" points="323,-329 323,-359 427,-359 427,-329 323,-329"/>
<text text-anchor="start" x="331" y="-347" font-family="Helvetica,sans-Serif" font-size="10.00">hdf5_module::create</text>
<text text-anchor="middle" x="375" y="-336" font-family="Helvetica,sans-Serif" font-size="10.00">_1d_int_dataset</text>
</a>
</g>
</g>
<!-- Node9&#45;&gt;Node10 -->
<g id="edge15" class="edge">
<title>Node9&#45;&gt;Node10</title>
<path fill="none" stroke="midnightblue" d="M253.87,-271.56C262.12,-274.33 270.56,-277.78 278,-282 296.62,-292.56 296.27,-302 314,-314 319.32,-317.6 325.12,-321.04 330.97,-324.22"/>
<polygon fill="midnightblue" stroke="midnightblue" points="329.63,-327.47 340.11,-329 332.87,-321.27 329.63,-327.47"/>
</g>
<!-- Node10&#45;&gt;Node4 -->
<g id="edge16" class="edge">
<title>Node10&#45;&gt;Node4</title>
<path fill="none" stroke="midnightblue" d="M411.14,-328.96C419.61,-324.66 428.41,-319.6 436,-314 464.87,-292.72 492.59,-261.91 509.91,-240.97"/>
<polygon fill="midnightblue" stroke="midnightblue" points="512.64,-243.17 516.24,-233.2 507.21,-238.75 512.64,-243.17"/>
</g>
<!-- Node11&#45;&gt;Node3 -->
<g id="edge19" class="edge">
<title>Node11&#45;&gt;Node3</title>
<path fill="none" stroke="midnightblue" d="M266.29,-192.34C281.13,-195.88 297.46,-199.77 312.82,-203.42"/>
<polygon fill="midnightblue" stroke="midnightblue" points="312.21,-206.88 322.75,-205.79 313.83,-200.07 312.21,-206.88"/>
</g>
<!-- Node11&#45;&gt;Node4 -->
<g id="edge20" class="edge">
<title>Node11&#45;&gt;Node4</title>
<path fill="none" stroke="midnightblue" d="M266.28,-180.47C311.37,-181.54 378.36,-184.75 436,-194 446.25,-195.65 457.02,-197.93 467.43,-200.44"/>
<polygon fill="midnightblue" stroke="midnightblue" points="466.72,-203.87 477.27,-202.91 468.42,-197.08 466.72,-203.87"/>
</g>
<!-- Node12&#45;&gt;Node3 -->
<g id="edge22" class="edge">
<title>Node12&#45;&gt;Node3</title>
<path fill="none" stroke="midnightblue" d="M253.11,-145.6C261.49,-148.22 270.18,-151.36 278,-155 302.49,-166.4 327.96,-183.39 346.51,-196.85"/>
<polygon fill="midnightblue" stroke="midnightblue" points="344.64,-199.83 354.76,-202.95 348.8,-194.19 344.64,-199.83"/>
</g>
<!-- Node12&#45;&gt;Node4 -->
<g id="edge24" class="edge">
<title>Node12&#45;&gt;Node4</title>
<path fill="none" stroke="midnightblue" d="M274.13,-143.63C319.22,-150.27 382.32,-161.47 436,-178 453.81,-183.49 472.8,-191.37 488.88,-198.7"/>
<polygon fill="midnightblue" stroke="midnightblue" points="487.44,-201.88 497.98,-202.92 490.38,-195.54 487.44,-201.88"/>
</g>
<!-- Node12&#45;&gt;Node7 -->
<g id="edge23" class="edge">
<title>Node12&#45;&gt;Node7</title>
<path fill="none" stroke="midnightblue" d="M249.11,-126.45C266.83,-121.57 288.98,-115.45 309.68,-109.74"/>
<polygon fill="midnightblue" stroke="midnightblue" points="310.68,-113.1 319.39,-107.07 308.82,-106.35 310.68,-113.1"/>
</g>
<!-- Node13&#45;&gt;Node3 -->
<g id="edge26" class="edge">
<title>Node13&#45;&gt;Node3</title>
<path fill="none" stroke="midnightblue" d="M260.14,-107.15C266.36,-110.01 272.5,-113.29 278,-117 309.84,-138.46 339.1,-172.13 356.74,-194.63"/>
<polygon fill="midnightblue" stroke="midnightblue" points="354.05,-196.86 362.92,-202.65 359.59,-192.59 354.05,-196.86"/>
</g>
<!-- Node13&#45;&gt;Node4 -->
<g id="edge28" class="edge">
<title>Node13&#45;&gt;Node4</title>
<path fill="none" stroke="midnightblue" d="M247.32,-76.9C292.79,-58.39 376.11,-33.36 436,-67 484.23,-94.09 510.15,-157.87 521.27,-193.26"/>
<polygon fill="midnightblue" stroke="midnightblue" points="517.91,-194.27 524.13,-202.84 524.62,-192.26 517.91,-194.27"/>
</g>
<!-- Node13&#45;&gt;Node7 -->
<g id="edge27" class="edge">
<title>Node13&#45;&gt;Node7</title>
<path fill="none" stroke="midnightblue" d="M271.63,-92C282,-92 292.92,-92 303.61,-92"/>
<polygon fill="midnightblue" stroke="midnightblue" points="303.76,-95.5 313.76,-92 303.76,-88.5 303.76,-95.5"/>
</g>
</g>
</svg>
