<?xml version="1.0" encoding="UTF-8" standalone="no"?>
<!DOCTYPE svg PUBLIC "-//W3C//DTD SVG 1.1//EN"
 "http://www.w3.org/Graphics/SVG/1.1/DTD/svg11.dtd">
<!-- Generated by graphviz version 2.44.0 ()
 -->
<!-- Title: alpha_decay_rate_module::count_reactions Pages: 1 -->
<svg width="705pt" height="116pt"
 viewBox="0.00 0.00 705.00 115.50" xmlns="http://www.w3.org/2000/svg" xmlns:xlink="http://www.w3.org/1999/xlink">
<g id="graph0" class="graph" transform="scale(1 1) rotate(0) translate(4 111.5)">
<title>alpha_decay_rate_module::count_reactions</title>
<polygon fill="white" stroke="transparent" points="-4,4 -4,-111.5 701,-111.5 701,4 -4,4"/>
<!-- Node1 -->
<g id="node1" class="node">
<title>Node1</title>
<g id="a_node1"><a xlink:title="Count the amount of possible alpha decays.">
<polygon fill="#bfbfbf" stroke="black" points="0,-44.5 0,-74.5 129,-74.5 129,-44.5 0,-44.5"/>
<text text-anchor="start" x="8" y="-62.5" font-family="Helvetica,sans-Serif" font-size="10.00">alpha_decay_rate_module</text>
<text text-anchor="middle" x="64.5" y="-51.5" font-family="Helvetica,sans-Serif" font-size="10.00">::count_reactions</text>
</a>
</g>
</g>
<!-- Node2 -->
<g id="node2" class="node">
<title>Node2</title>
<g id="a_node2"><a xlink:href="namespacebenam__class.html#ad20c821347dd5f7c08dff59c98e69657" target="_top" xlink:title="Returns the index number of isotope &#39;name&#39;.">
<polygon fill="white" stroke="black" points="165,-88 165,-107 273,-107 273,-88 165,-88"/>
<text text-anchor="middle" x="219" y="-95" font-family="Helvetica,sans-Serif" font-size="10.00">benam_class::benam</text>
</a>
</g>
</g>
<!-- Node1&#45;&gt;Node2 -->
<g id="edge1" class="edge">
<title>Node1&#45;&gt;Node2</title>
<path fill="none" stroke="midnightblue" d="M125.77,-74.52C140.38,-78.16 155.8,-82 169.77,-85.48"/>
<polygon fill="midnightblue" stroke="midnightblue" points="169.1,-88.92 179.65,-87.94 170.79,-82.13 169.1,-88.92"/>
</g>
<!-- Node3 -->
<g id="node3" class="node">
<title>Node3</title>
<g id="a_node3"><a xlink:href="namespacebenam__class.html#ad2f566697809a5731e560509d2ca7062" target="_top" xlink:title="Finds an isotope index in the network table, given its A and Z. In case it was not found,...">
<polygon fill="white" stroke="black" points="167,-50 167,-69 271,-69 271,-50 167,-50"/>
<text text-anchor="middle" x="219" y="-57" font-family="Helvetica,sans-Serif" font-size="10.00">benam_class::findaz</text>
</a>
</g>
</g>
<!-- Node1&#45;&gt;Node3 -->
<g id="edge2" class="edge">
<title>Node1&#45;&gt;Node3</title>
<path fill="none" stroke="midnightblue" d="M129.29,-59.5C138.42,-59.5 147.8,-59.5 156.88,-59.5"/>
<polygon fill="midnightblue" stroke="midnightblue" points="156.97,-63 166.97,-59.5 156.97,-56 156.97,-63"/>
</g>
<!-- Node4 -->
<g id="node4" class="node">
<title>Node4</title>
<g id="a_node4"><a xlink:href="namespacefile__handling__class.html#aab870caaf9cbaaf635d537708efbf793" target="_top" xlink:title="Same for reading (input file)">
<polygon fill="white" stroke="black" points="170,-0.5 170,-30.5 268,-30.5 268,-0.5 170,-0.5"/>
<text text-anchor="start" x="178" y="-18.5" font-family="Helvetica,sans-Serif" font-size="10.00">file_handling_class</text>
<text text-anchor="middle" x="219" y="-7.5" font-family="Helvetica,sans-Serif" font-size="10.00">::open_infile</text>
</a>
</g>
</g>
<!-- Node1&#45;&gt;Node4 -->
<g id="edge3" class="edge">
<title>Node1&#45;&gt;Node4</title>
<path fill="none" stroke="midnightblue" d="M117.56,-44.48C131.16,-40.55 145.92,-36.3 159.82,-32.28"/>
<polygon fill="midnightblue" stroke="midnightblue" points="161.13,-35.55 169.77,-29.42 159.19,-28.82 161.13,-35.55"/>
</g>
<!-- Node5 -->
<g id="node5" class="node">
<title>Node5</title>
<g id="a_node5"><a xlink:href="namespacefile__handling__class.html#af02196bd5eaf70ecd5ab4cc650094d5e" target="_top" xlink:title="Finds the next unused unit number.">
<polygon fill="white" stroke="black" points="309,-22.5 309,-52.5 407,-52.5 407,-22.5 309,-22.5"/>
<text text-anchor="start" x="317" y="-40.5" font-family="Helvetica,sans-Serif" font-size="10.00">file_handling_class</text>
<text text-anchor="middle" x="358" y="-29.5" font-family="Helvetica,sans-Serif" font-size="10.00">::get_next_io_unit</text>
</a>
</g>
</g>
<!-- Node4&#45;&gt;Node5 -->
<g id="edge4" class="edge">
<title>Node4&#45;&gt;Node5</title>
<path fill="none" stroke="midnightblue" d="M268.3,-23.26C278.12,-24.83 288.55,-26.51 298.68,-28.13"/>
<polygon fill="midnightblue" stroke="midnightblue" points="298.24,-31.61 308.67,-29.74 299.35,-24.7 298.24,-31.61"/>
</g>
<!-- Node6 -->
<g id="node6" class="node">
<title>Node6</title>
<g id="a_node6"><a xlink:href="namespaceerror__msg__class.html#a2453d3b7cb363115c046840baa1dfb75" target="_top" xlink:title="Raise a exception with a given error message.">
<polygon fill="white" stroke="black" points="443,-0.5 443,-30.5 557,-30.5 557,-0.5 443,-0.5"/>
<text text-anchor="start" x="451" y="-18.5" font-family="Helvetica,sans-Serif" font-size="10.00">error_msg_class::raise</text>
<text text-anchor="middle" x="500" y="-7.5" font-family="Helvetica,sans-Serif" font-size="10.00">_exception</text>
</a>
</g>
</g>
<!-- Node4&#45;&gt;Node6 -->
<g id="edge7" class="edge">
<title>Node4&#45;&gt;Node6</title>
<path fill="none" stroke="midnightblue" d="M268.03,-14.22C281.3,-13.92 295.71,-13.65 309,-13.5 352.55,-13.01 363.45,-13.03 407,-13.5 415.27,-13.59 423.95,-13.73 432.55,-13.88"/>
<polygon fill="midnightblue" stroke="midnightblue" points="432.5,-17.38 442.56,-14.08 432.63,-10.38 432.5,-17.38"/>
</g>
<!-- Node5&#45;&gt;Node6 -->
<g id="edge5" class="edge">
<title>Node5&#45;&gt;Node6</title>
<path fill="none" stroke="midnightblue" d="M407.18,-29.93C415.37,-28.64 424,-27.29 432.55,-25.94"/>
<polygon fill="midnightblue" stroke="midnightblue" points="433.2,-29.38 442.54,-24.37 432.11,-22.47 433.2,-29.38"/>
</g>
<!-- Node7 -->
<g id="node7" class="node">
<title>Node7</title>
<g id="a_node7"><a xlink:href="namespaceerror__msg__class.html#a7e065585cc806a5c264de1f088266498" target="_top" xlink:title="Converts a given integer to a string.">
<polygon fill="white" stroke="black" points="593,-0.5 593,-30.5 697,-30.5 697,-0.5 593,-0.5"/>
<text text-anchor="start" x="601" y="-18.5" font-family="Helvetica,sans-Serif" font-size="10.00">error_msg_class::int</text>
<text text-anchor="middle" x="645" y="-7.5" font-family="Helvetica,sans-Serif" font-size="10.00">_to_str</text>
</a>
</g>
</g>
<!-- Node6&#45;&gt;Node7 -->
<g id="edge6" class="edge">
<title>Node6&#45;&gt;Node7</title>
<path fill="none" stroke="midnightblue" d="M557.11,-15.5C565.45,-15.5 574.09,-15.5 582.54,-15.5"/>
<polygon fill="midnightblue" stroke="midnightblue" points="582.71,-19 592.71,-15.5 582.71,-12 582.71,-19"/>
</g>
</g>
</svg>
