<?xml version="1.0" encoding="UTF-8" standalone="no"?>
<!DOCTYPE svg PUBLIC "-//W3C//DTD SVG 1.1//EN"
 "http://www.w3.org/Graphics/SVG/1.1/DTD/svg11.dtd">
<!-- Generated by graphviz version 2.44.0 ()
 -->
<!-- Title: timestep_module::update_hydro Pages: 1 -->
<svg width="1294pt" height="735pt"
 viewBox="0.00 0.00 1294.00 734.50" xmlns="http://www.w3.org/2000/svg" xmlns:xlink="http://www.w3.org/1999/xlink">
<g id="graph0" class="graph" transform="scale(1 1) rotate(0) translate(4 730.5)">
<title>timestep_module::update_hydro</title>
<polygon fill="white" stroke="transparent" points="-4,4 -4,-730.5 1290,-730.5 1290,4 -4,4"/>
<!-- Node1 -->
<g id="node1" class="node">
<title>Node1</title>
<g id="a_node1"><a xlink:title="Returns temperature, density, and radius for a given time &quot;time_i&quot;.">
<polygon fill="#bfbfbf" stroke="black" points="0,-328.5 0,-358.5 125,-358.5 125,-328.5 0,-328.5"/>
<text text-anchor="start" x="8" y="-346.5" font-family="Helvetica,sans-Serif" font-size="10.00">timestep_module::update</text>
<text text-anchor="middle" x="62.5" y="-335.5" font-family="Helvetica,sans-Serif" font-size="10.00">_hydro</text>
</a>
</g>
</g>
<!-- Node2 -->
<g id="node2" class="node">
<title>Node2</title>
<g id="a_node2"><a xlink:href="namespaceexpansion__module.html#a4f1f21da864d689ea4184f55a4e68198" target="_top" xlink:title="Returns temperature, radius, density, and entropy after the trajectory has ended.">
<polygon fill="white" stroke="black" points="161,-137 161,-156 306,-156 306,-137 161,-137"/>
<text text-anchor="middle" x="233.5" y="-144" font-family="Helvetica,sans-Serif" font-size="10.00">expansion_module::expansion</text>
</a>
</g>
</g>
<!-- Node1&#45;&gt;Node2 -->
<g id="edge1" class="edge">
<title>Node1&#45;&gt;Node2</title>
<path fill="none" stroke="midnightblue" d="M76.48,-328.37C107.38,-292.35 185.14,-201.7 217.75,-163.69"/>
<polygon fill="midnightblue" stroke="midnightblue" points="220.48,-165.89 224.33,-156.02 215.17,-161.33 220.48,-165.89"/>
</g>
<!-- Node19 -->
<g id="node19" class="node">
<title>Node19</title>
<g id="a_node19"><a xlink:href="namespaceinter__module.html#a206d3ceb40bd2e40d41c462a31ad057e" target="_top" xlink:title="Interface for 1D interpolation routines.">
<polygon fill="white" stroke="black" points="668.5,-650 668.5,-669 779.5,-669 779.5,-650 668.5,-650"/>
<text text-anchor="middle" x="724" y="-657" font-family="Helvetica,sans-Serif" font-size="10.00">inter_module::interp1d</text>
</a>
</g>
</g>
<!-- Node1&#45;&gt;Node19 -->
<g id="edge21" class="edge">
<title>Node1&#45;&gt;Node19</title>
<path fill="none" stroke="midnightblue" d="M88.92,-358.52C169.43,-405.59 426.98,-552.35 655,-640.5 661,-642.82 667.4,-644.99 673.79,-646.97"/>
<polygon fill="midnightblue" stroke="midnightblue" points="673.16,-650.43 683.74,-649.92 675.15,-643.72 673.16,-650.43"/>
</g>
<!-- Node25 -->
<g id="node25" class="node">
<title>Node25</title>
<g id="a_node25"><a xlink:href="namespaceparser__module.html#a4b68bd8515796701c2b006fe79a0b162" target="_top" xlink:title="Takes a string and evaluates the expression.">
<polygon fill="white" stroke="black" points="179,-328.5 179,-358.5 288,-358.5 288,-328.5 179,-328.5"/>
<text text-anchor="start" x="187" y="-346.5" font-family="Helvetica,sans-Serif" font-size="10.00">parser_module::parse</text>
<text text-anchor="middle" x="233.5" y="-335.5" font-family="Helvetica,sans-Serif" font-size="10.00">_string</text>
</a>
</g>
</g>
<!-- Node1&#45;&gt;Node25 -->
<g id="edge30" class="edge">
<title>Node1&#45;&gt;Node25</title>
<path fill="none" stroke="midnightblue" d="M125.47,-343.5C139.57,-343.5 154.57,-343.5 168.74,-343.5"/>
<polygon fill="midnightblue" stroke="midnightblue" points="168.89,-347 178.89,-343.5 168.89,-340 168.89,-347"/>
</g>
<!-- Node3 -->
<g id="node3" class="node">
<title>Node3</title>
<g id="a_node3"><a xlink:href="namespaceerror__msg__class.html#a2453d3b7cb363115c046840baa1dfb75" target="_top" xlink:title="Raise a exception with a given error message.">
<polygon fill="white" stroke="black" points="837,-393.5 837,-423.5 951,-423.5 951,-393.5 837,-393.5"/>
<text text-anchor="start" x="845" y="-411.5" font-family="Helvetica,sans-Serif" font-size="10.00">error_msg_class::raise</text>
<text text-anchor="middle" x="894" y="-400.5" font-family="Helvetica,sans-Serif" font-size="10.00">_exception</text>
</a>
</g>
</g>
<!-- Node2&#45;&gt;Node3 -->
<g id="edge2" class="edge">
<title>Node2&#45;&gt;Node3</title>
<path fill="none" stroke="midnightblue" d="M270.96,-136.96C366.61,-114.22 628.67,-66.84 793,-181.5 810.79,-193.91 862.51,-327.37 883.74,-383.67"/>
<polygon fill="midnightblue" stroke="midnightblue" points="880.54,-385.11 887.33,-393.24 887.09,-382.65 880.54,-385.11"/>
</g>
<!-- Node5 -->
<g id="node5" class="node">
<title>Node5</title>
<g id="a_node5"><a xlink:href="namespacels__timmes__eos__module.html#a7f522fa32c0a061060a07863c7a8b05c" target="_top" xlink:title=" ">
<polygon fill="white" stroke="black" points="343.5,-68.5 343.5,-98.5 462.5,-98.5 462.5,-68.5 343.5,-68.5"/>
<text text-anchor="start" x="351.5" y="-86.5" font-family="Helvetica,sans-Serif" font-size="10.00">ls_timmes_eos_module</text>
<text text-anchor="middle" x="403" y="-75.5" font-family="Helvetica,sans-Serif" font-size="10.00">::timmes_eos</text>
</a>
</g>
</g>
<!-- Node2&#45;&gt;Node5 -->
<g id="edge4" class="edge">
<title>Node2&#45;&gt;Node5</title>
<path fill="none" stroke="midnightblue" d="M259.94,-136.93C284.38,-127.74 321.98,-113.6 352.36,-102.17"/>
<polygon fill="midnightblue" stroke="midnightblue" points="353.82,-105.36 361.95,-98.57 351.35,-98.81 353.82,-105.36"/>
</g>
<!-- Node4 -->
<g id="node4" class="node">
<title>Node4</title>
<g id="a_node4"><a xlink:href="namespaceerror__msg__class.html#a7e065585cc806a5c264de1f088266498" target="_top" xlink:title="Converts a given integer to a string.">
<polygon fill="white" stroke="black" points="1002.5,-480.5 1002.5,-510.5 1106.5,-510.5 1106.5,-480.5 1002.5,-480.5"/>
<text text-anchor="start" x="1010.5" y="-498.5" font-family="Helvetica,sans-Serif" font-size="10.00">error_msg_class::int</text>
<text text-anchor="middle" x="1054.5" y="-487.5" font-family="Helvetica,sans-Serif" font-size="10.00">_to_str</text>
</a>
</g>
</g>
<!-- Node3&#45;&gt;Node4 -->
<g id="edge3" class="edge">
<title>Node3&#45;&gt;Node4</title>
<path fill="none" stroke="midnightblue" d="M922.61,-423.65C948.78,-438.02 988.26,-459.69 1017.01,-475.47"/>
<polygon fill="midnightblue" stroke="midnightblue" points="1015.49,-478.63 1025.94,-480.37 1018.86,-472.49 1015.49,-478.63"/>
</g>
<!-- Node6 -->
<g id="node6" class="node">
<title>Node6</title>
<g id="a_node6"><a xlink:href="namespacels__timmes__eos__module.html#ac68ea6710f5164f7f29454fa4ffa6dcb" target="_top" xlink:title=" ">
<polygon fill="white" stroke="black" points="500,-49.5 500,-79.5 619,-79.5 619,-49.5 500,-49.5"/>
<text text-anchor="start" x="508" y="-67.5" font-family="Helvetica,sans-Serif" font-size="10.00">ls_timmes_eos_module</text>
<text text-anchor="middle" x="559.5" y="-56.5" font-family="Helvetica,sans-Serif" font-size="10.00">::timmes_eos_e_bisec</text>
</a>
</g>
</g>
<!-- Node5&#45;&gt;Node6 -->
<g id="edge5" class="edge">
<title>Node5&#45;&gt;Node6</title>
<path fill="none" stroke="midnightblue" d="M462.85,-76.26C471.65,-75.18 480.78,-74.06 489.77,-72.95"/>
<polygon fill="midnightblue" stroke="midnightblue" points="490.32,-76.41 499.81,-71.72 489.46,-69.46 490.32,-76.41"/>
</g>
<!-- Node7 -->
<g id="node7" class="node">
<title>Node7</title>
<g id="a_node7"><a xlink:href="namespacels__timmes__eos__module.html#a6da1e3b6ba3967536745de1073565b65" target="_top" xlink:title=" ">
<polygon fill="white" stroke="black" points="664.5,-68.5 664.5,-98.5 783.5,-98.5 783.5,-68.5 664.5,-68.5"/>
<text text-anchor="start" x="672.5" y="-86.5" font-family="Helvetica,sans-Serif" font-size="10.00">ls_timmes_eos_module</text>
<text text-anchor="middle" x="724" y="-75.5" font-family="Helvetica,sans-Serif" font-size="10.00">::timmes_eos_interface</text>
</a>
</g>
</g>
<!-- Node5&#45;&gt;Node7 -->
<g id="edge18" class="edge">
<title>Node5&#45;&gt;Node7</title>
<path fill="none" stroke="midnightblue" d="M462.62,-87.04C474.96,-87.65 487.9,-88.19 500,-88.5 552.87,-89.88 566.13,-89.77 619,-88.5 630.39,-88.23 642.48,-87.78 654.23,-87.27"/>
<polygon fill="midnightblue" stroke="midnightblue" points="654.61,-90.76 664.44,-86.81 654.29,-83.77 654.61,-90.76"/>
</g>
<!-- Node18 -->
<g id="node18" class="node">
<title>Node18</title>
<g id="a_node18"><a xlink:href="namespacels__timmes__eos__module.html#afd98ff063885638aaa5922c04fb9d6a9" target="_top" xlink:title=" ">
<polygon fill="white" stroke="black" points="500,-0.5 500,-30.5 619,-30.5 619,-0.5 500,-0.5"/>
<text text-anchor="start" x="508" y="-18.5" font-family="Helvetica,sans-Serif" font-size="10.00">ls_timmes_eos_module</text>
<text text-anchor="middle" x="559.5" y="-7.5" font-family="Helvetica,sans-Serif" font-size="10.00">::timmes_eos_s_bisec</text>
</a>
</g>
</g>
<!-- Node5&#45;&gt;Node18 -->
<g id="edge19" class="edge">
<title>Node5&#45;&gt;Node18</title>
<path fill="none" stroke="midnightblue" d="M436.29,-68.3C454.85,-59.67 478.64,-48.77 500,-39.5 503.85,-37.83 507.86,-36.12 511.89,-34.42"/>
<polygon fill="midnightblue" stroke="midnightblue" points="513.39,-37.59 521.27,-30.51 510.69,-31.13 513.39,-37.59"/>
</g>
<!-- Node6&#45;&gt;Node7 -->
<g id="edge6" class="edge">
<title>Node6&#45;&gt;Node7</title>
<path fill="none" stroke="midnightblue" d="M619.17,-71.36C630.56,-72.69 642.59,-74.1 654.27,-75.46"/>
<polygon fill="midnightblue" stroke="midnightblue" points="654.08,-78.97 664.42,-76.65 654.89,-72.01 654.08,-78.97"/>
</g>
<!-- Node8 -->
<g id="node8" class="node">
<title>Node8</title>
<g id="a_node8"><a xlink:href="eosfxt_8f.html#a7472b49a95882a089dc0b8e75b1abbfa" target="_top" xlink:title=" ">
<polygon fill="white" stroke="black" points="872.5,-215 872.5,-234 915.5,-234 915.5,-215 872.5,-215"/>
<text text-anchor="middle" x="894" y="-222" font-family="Helvetica,sans-Serif" font-size="10.00">eosfxt</text>
</a>
</g>
</g>
<!-- Node7&#45;&gt;Node8 -->
<g id="edge7" class="edge">
<title>Node7&#45;&gt;Node8</title>
<path fill="none" stroke="midnightblue" d="M747.24,-98.52C760.77,-107.9 778.23,-120.45 793,-132.5 823.53,-157.4 856.78,-188.96 876.21,-207.9"/>
<polygon fill="midnightblue" stroke="midnightblue" points="873.82,-210.46 883.41,-214.96 878.72,-205.46 873.82,-210.46"/>
</g>
<!-- Node9 -->
<g id="node9" class="node">
<title>Node9</title>
<g id="a_node9"><a xlink:href="eosfxt_8f.html#a4dd7b4a9689e75b5ee0f56fcf260b461" target="_top" xlink:title=" ">
<polygon fill="white" stroke="black" points="1028,-272 1028,-291 1081,-291 1081,-272 1028,-272"/>
<text text-anchor="middle" x="1054.5" y="-279" font-family="Helvetica,sans-Serif" font-size="10.00">coulomb</text>
</a>
</g>
</g>
<!-- Node8&#45;&gt;Node9 -->
<g id="edge8" class="edge">
<title>Node8&#45;&gt;Node9</title>
<path fill="none" stroke="midnightblue" d="M915.58,-232.66C935.72,-240.56 967.32,-252.75 995,-262.5 1002.42,-265.11 1010.42,-267.8 1018.05,-270.29"/>
<polygon fill="midnightblue" stroke="midnightblue" points="1017.19,-273.7 1027.78,-273.45 1019.35,-267.04 1017.19,-273.7"/>
</g>
<!-- Node11 -->
<g id="node11" class="node">
<title>Node11</title>
<g id="a_node11"><a xlink:href="eosfxt_8f.html#a40e1707c6481e6f394d33c9de7744a80" target="_top" xlink:title=" ">
<polygon fill="white" stroke="black" points="1031.5,-234 1031.5,-253 1077.5,-253 1077.5,-234 1031.5,-234"/>
<text text-anchor="middle" x="1054.5" y="-241" font-family="Helvetica,sans-Serif" font-size="10.00">etages</text>
</a>
</g>
</g>
<!-- Node8&#45;&gt;Node11 -->
<g id="edge10" class="edge">
<title>Node8&#45;&gt;Node11</title>
<path fill="none" stroke="midnightblue" d="M915.72,-226.98C942.56,-230.2 989.63,-235.84 1021.19,-239.63"/>
<polygon fill="midnightblue" stroke="midnightblue" points="1020.9,-243.12 1031.24,-240.83 1021.73,-236.17 1020.9,-243.12"/>
</g>
<!-- Node12 -->
<g id="node12" class="node">
<title>Node12</title>
<g id="a_node12"><a xlink:href="eosfxt_8f.html#ac215ef28344d8bf47b95d146f191fc74" target="_top" xlink:title=" ">
<polygon fill="white" stroke="black" points="1030.5,-196 1030.5,-215 1078.5,-215 1078.5,-196 1030.5,-196"/>
<text text-anchor="middle" x="1054.5" y="-203" font-family="Helvetica,sans-Serif" font-size="10.00">xneroot</text>
</a>
</g>
</g>
<!-- Node8&#45;&gt;Node12 -->
<g id="edge12" class="edge">
<title>Node8&#45;&gt;Node12</title>
<path fill="none" stroke="midnightblue" d="M915.72,-222.02C942.33,-218.83 988.84,-213.25 1020.39,-209.47"/>
<polygon fill="midnightblue" stroke="midnightblue" points="1020.95,-212.93 1030.46,-208.26 1020.12,-205.98 1020.95,-212.93"/>
</g>
<!-- Node10 -->
<g id="node10" class="node">
<title>Node10</title>
<g id="a_node10"><a xlink:href="quadpack__module_8f90.html#aada5a652920db442d627f1ca24ff25d7" target="_top" xlink:title="Further information: http://netlib.org/quadpack/index.html https://orion.math.iastate....">
<polygon fill="white" stroke="black" points="1157.5,-272 1157.5,-291 1186.5,-291 1186.5,-272 1157.5,-272"/>
<text text-anchor="middle" x="1172" y="-279" font-family="Helvetica,sans-Serif" font-size="10.00">pi</text>
</a>
</g>
</g>
<!-- Node9&#45;&gt;Node10 -->
<g id="edge9" class="edge">
<title>Node9&#45;&gt;Node10</title>
<path fill="none" stroke="midnightblue" d="M1081.13,-281.5C1100.89,-281.5 1128.01,-281.5 1147.27,-281.5"/>
<polygon fill="midnightblue" stroke="midnightblue" points="1147.33,-285 1157.33,-281.5 1147.33,-278 1147.33,-285"/>
</g>
<!-- Node11&#45;&gt;Node10 -->
<g id="edge11" class="edge">
<title>Node11&#45;&gt;Node10</title>
<path fill="none" stroke="midnightblue" d="M1077.74,-250.68C1088.67,-254.22 1102.03,-258.56 1114,-262.5 1125.15,-266.17 1137.5,-270.28 1147.86,-273.74"/>
<polygon fill="midnightblue" stroke="midnightblue" points="1146.83,-277.09 1157.42,-276.94 1149.05,-270.45 1146.83,-277.09"/>
</g>
<!-- Node13 -->
<g id="node13" class="node">
<title>Node13</title>
<g id="a_node13"><a xlink:href="eosfxt_8f.html#a5b92245336ba39f5012975d91948205f" target="_top" xlink:title=" ">
<polygon fill="white" stroke="black" points="1150,-196 1150,-215 1194,-215 1194,-196 1150,-196"/>
<text text-anchor="middle" x="1172" y="-203" font-family="Helvetica,sans-Serif" font-size="10.00">dfermi</text>
</a>
</g>
</g>
<!-- Node12&#45;&gt;Node13 -->
<g id="edge13" class="edge">
<title>Node12&#45;&gt;Node13</title>
<path fill="none" stroke="midnightblue" d="M1078.6,-205.5C1096.15,-205.5 1120.48,-205.5 1139.77,-205.5"/>
<polygon fill="midnightblue" stroke="midnightblue" points="1139.89,-209 1149.89,-205.5 1139.89,-202 1139.89,-209"/>
</g>
<!-- Node14 -->
<g id="node14" class="node">
<title>Node14</title>
<g id="a_node14"><a xlink:href="eosfxt_8f.html#abbb1b60c825d972dc00fe1f268f93f86" target="_top" xlink:title=" ">
<polygon fill="white" stroke="black" points="1230,-253 1230,-272 1286,-272 1286,-253 1230,-253"/>
<text text-anchor="middle" x="1258" y="-260" font-family="Helvetica,sans-Serif" font-size="10.00">dqlag020</text>
</a>
</g>
</g>
<!-- Node13&#45;&gt;Node14 -->
<g id="edge14" class="edge">
<title>Node13&#45;&gt;Node14</title>
<path fill="none" stroke="midnightblue" d="M1187.25,-215.17C1200.12,-223.9 1219.28,-236.9 1234.26,-247.07"/>
<polygon fill="midnightblue" stroke="midnightblue" points="1232.72,-250.25 1242.96,-252.97 1236.65,-244.46 1232.72,-250.25"/>
</g>
<!-- Node15 -->
<g id="node15" class="node">
<title>Node15</title>
<g id="a_node15"><a xlink:href="eosfxt_8f.html#a6cbbc7f07cffb75f5efaf893d547852f" target="_top" xlink:title=" ">
<polygon fill="white" stroke="black" points="1230,-215 1230,-234 1286,-234 1286,-215 1230,-215"/>
<text text-anchor="middle" x="1258" y="-222" font-family="Helvetica,sans-Serif" font-size="10.00">dqleg020</text>
</a>
</g>
</g>
<!-- Node13&#45;&gt;Node15 -->
<g id="edge15" class="edge">
<title>Node13&#45;&gt;Node15</title>
<path fill="none" stroke="midnightblue" d="M1194.2,-210.29C1202.04,-212.07 1211.17,-214.13 1220,-216.13"/>
<polygon fill="midnightblue" stroke="midnightblue" points="1219.24,-219.55 1229.76,-218.34 1220.78,-212.72 1219.24,-219.55"/>
</g>
<!-- Node16 -->
<g id="node16" class="node">
<title>Node16</title>
<g id="a_node16"><a xlink:href="eosfxt_8f.html#a9d9951640d440972fe5298fdd5d70c10" target="_top" xlink:title=" ">
<polygon fill="white" stroke="black" points="1233.5,-177 1233.5,-196 1282.5,-196 1282.5,-177 1233.5,-177"/>
<text text-anchor="middle" x="1258" y="-184" font-family="Helvetica,sans-Serif" font-size="10.00">fdfunc1</text>
</a>
</g>
</g>
<!-- Node13&#45;&gt;Node16 -->
<g id="edge16" class="edge">
<title>Node13&#45;&gt;Node16</title>
<path fill="none" stroke="midnightblue" d="M1194.2,-200.71C1203.07,-198.7 1213.6,-196.32 1223.48,-194.08"/>
<polygon fill="midnightblue" stroke="midnightblue" points="1224.46,-197.45 1233.44,-191.83 1222.91,-190.62 1224.46,-197.45"/>
</g>
<!-- Node17 -->
<g id="node17" class="node">
<title>Node17</title>
<g id="a_node17"><a xlink:href="eosfxt_8f.html#ae834089002139b7a18c24a337f6ff90a" target="_top" xlink:title=" ">
<polygon fill="white" stroke="black" points="1233.5,-139 1233.5,-158 1282.5,-158 1282.5,-139 1233.5,-139"/>
<text text-anchor="middle" x="1258" y="-146" font-family="Helvetica,sans-Serif" font-size="10.00">fdfunc2</text>
</a>
</g>
</g>
<!-- Node13&#45;&gt;Node17 -->
<g id="edge17" class="edge">
<title>Node13&#45;&gt;Node17</title>
<path fill="none" stroke="midnightblue" d="M1187.25,-195.83C1200.12,-187.1 1219.28,-174.1 1234.26,-163.93"/>
<polygon fill="midnightblue" stroke="midnightblue" points="1236.65,-166.54 1242.96,-158.03 1232.72,-160.75 1236.65,-166.54"/>
</g>
<!-- Node18&#45;&gt;Node7 -->
<g id="edge20" class="edge">
<title>Node18&#45;&gt;Node7</title>
<path fill="none" stroke="midnightblue" d="M597.35,-30.55C604.54,-33.5 612.01,-36.59 619,-39.5 638.42,-47.59 659.83,-56.63 678.15,-64.4"/>
<polygon fill="midnightblue" stroke="midnightblue" points="676.85,-67.65 687.42,-68.33 679.58,-61.21 676.85,-67.65"/>
</g>
<!-- Node19&#45;&gt;Node3 -->
<g id="edge29" class="edge">
<title>Node19&#45;&gt;Node3</title>
<path fill="none" stroke="midnightblue" d="M779.63,-650.14C784.58,-647.63 789.17,-644.47 793,-640.5 840.31,-591.48 799.55,-552.94 829,-491.5 839.72,-469.14 857.15,-447.07 871.12,-431.32"/>
<polygon fill="midnightblue" stroke="midnightblue" points="873.92,-433.44 878.06,-423.69 868.74,-428.73 873.92,-433.44"/>
</g>
<!-- Node19&#45;&gt;Node4 -->
<g id="edge24" class="edge">
<title>Node19&#45;&gt;Node4</title>
<path fill="none" stroke="midnightblue" d="M778.46,-649.96C783.76,-647.49 788.75,-644.39 793,-640.5 826.33,-610.04 794.87,-575.06 829,-545.5 873.94,-506.57 942.56,-496.01 992.1,-493.99"/>
<polygon fill="midnightblue" stroke="midnightblue" points="992.48,-497.48 1002.37,-493.68 992.27,-490.48 992.48,-497.48"/>
</g>
<!-- Node20 -->
<g id="node20" class="node">
<title>Node20</title>
<g id="a_node20"><a xlink:href="namespaceinter__module.html#a0f02e3fce3429d031516cf2f47f521de" target="_top" xlink:title="Interpolation using prescription of Akima.">
<polygon fill="white" stroke="black" points="833,-593 833,-612 955,-612 955,-593 833,-593"/>
<text text-anchor="middle" x="894" y="-600" font-family="Helvetica,sans-Serif" font-size="10.00">inter_module::akimainter</text>
</a>
</g>
</g>
<!-- Node19&#45;&gt;Node20 -->
<g id="edge22" class="edge">
<title>Node19&#45;&gt;Node20</title>
<path fill="none" stroke="midnightblue" d="M761.55,-650C771.79,-647.15 782.88,-643.87 793,-640.5 809.29,-635.07 812.96,-632.63 829,-626.5 838.38,-622.92 848.55,-619.08 857.96,-615.55"/>
<polygon fill="midnightblue" stroke="midnightblue" points="859.3,-618.79 867.44,-612.01 856.84,-612.23 859.3,-618.79"/>
</g>
<!-- Node21 -->
<g id="node21" class="node">
<title>Node21</title>
<g id="a_node21"><a xlink:href="namespaceinter__module.html#a5a696cd56302b2491c59781808af4c08" target="_top" xlink:title="Cubic interpolation in log&#45;log space. Here, it is assumed that.">
<polygon fill="white" stroke="black" points="838.5,-555 838.5,-574 949.5,-574 949.5,-555 838.5,-555"/>
<text text-anchor="middle" x="894" y="-562" font-family="Helvetica,sans-Serif" font-size="10.00">inter_module::cubinter</text>
</a>
</g>
</g>
<!-- Node19&#45;&gt;Node21 -->
<g id="edge23" class="edge">
<title>Node19&#45;&gt;Node21</title>
<path fill="none" stroke="midnightblue" d="M775.63,-649.92C781.82,-647.47 787.79,-644.38 793,-640.5 817.03,-622.61 805.11,-601.59 829,-583.5 831.46,-581.64 834.1,-579.95 836.86,-578.44"/>
<polygon fill="midnightblue" stroke="midnightblue" points="838.44,-581.56 845.99,-574.13 835.46,-575.23 838.44,-581.56"/>
</g>
<!-- Node22 -->
<g id="node22" class="node">
<title>Node22</title>
<g id="a_node22"><a xlink:href="namespaceinter__module.html#ac57284b6bef315c7066a880358ae0862" target="_top" xlink:title="Linear interpolation in lin&#45;log space.">
<polygon fill="white" stroke="black" points="841.5,-707 841.5,-726 946.5,-726 946.5,-707 841.5,-707"/>
<text text-anchor="middle" x="894" y="-714" font-family="Helvetica,sans-Serif" font-size="10.00">inter_module::lininter</text>
</a>
</g>
</g>
<!-- Node19&#45;&gt;Node22 -->
<g id="edge25" class="edge">
<title>Node19&#45;&gt;Node22</title>
<path fill="none" stroke="midnightblue" d="M750.07,-669.15C771.04,-677.11 801.81,-688.51 829,-697.5 835.58,-699.68 842.58,-701.87 849.44,-703.96"/>
<polygon fill="midnightblue" stroke="midnightblue" points="848.75,-707.41 859.33,-706.93 850.76,-700.7 848.75,-707.41"/>
</g>
<!-- Node23 -->
<g id="node23" class="node">
<title>Node23</title>
<g id="a_node23"><a xlink:href="namespaceinter__module.html#a338de641fc764e51a6ce814e25e70ef2" target="_top" xlink:title="Interpolation using modified prescription of Akima.">
<polygon fill="white" stroke="black" points="829,-669 829,-688 959,-688 959,-669 829,-669"/>
<text text-anchor="middle" x="894" y="-676" font-family="Helvetica,sans-Serif" font-size="10.00">inter_module::makimainter</text>
</a>
</g>
</g>
<!-- Node19&#45;&gt;Node23 -->
<g id="edge26" class="edge">
<title>Node19&#45;&gt;Node23</title>
<path fill="none" stroke="midnightblue" d="M779.54,-665.67C792.07,-667.08 805.59,-668.61 818.78,-670.11"/>
<polygon fill="midnightblue" stroke="midnightblue" points="818.46,-673.59 828.79,-671.24 819.24,-666.64 818.46,-673.59"/>
</g>
<!-- Node24 -->
<g id="node24" class="node">
<title>Node24</title>
<g id="a_node24"><a xlink:href="namespaceinter__module.html#a4b1d9613e140541539a602d2f985b5c7" target="_top" xlink:title="PCHIP interpolation in lin&#45;log space.">
<polygon fill="white" stroke="black" points="995,-565 995,-584 1114,-584 1114,-565 995,-565"/>
<text text-anchor="middle" x="1054.5" y="-572" font-family="Helvetica,sans-Serif" font-size="10.00">inter_module::pchipinter</text>
</a>
</g>
</g>
<!-- Node19&#45;&gt;Node24 -->
<g id="edge27" class="edge">
<title>Node19&#45;&gt;Node24</title>
<path fill="none" stroke="midnightblue" d="M779.52,-655.31C827.65,-650.53 899.25,-640.72 959,-621.5 984.07,-613.43 1010.77,-599.61 1029.38,-589.04"/>
<polygon fill="midnightblue" stroke="midnightblue" points="1031.17,-592.04 1038.07,-584 1027.66,-585.99 1031.17,-592.04"/>
</g>
<!-- Node24&#45;&gt;Node10 -->
<g id="edge28" class="edge">
<title>Node24&#45;&gt;Node10</title>
<path fill="none" stroke="midnightblue" d="M1070.06,-564.92C1083.52,-555.29 1103.03,-539.23 1114,-520.5 1156.65,-447.67 1167.42,-344.65 1170.11,-301.61"/>
<polygon fill="midnightblue" stroke="midnightblue" points="1173.62,-301.53 1170.67,-291.36 1166.63,-301.15 1173.62,-301.53"/>
</g>
<!-- Node26 -->
<g id="node26" class="node">
<title>Node26</title>
<g id="a_node26"><a xlink:href="namespaceparser__module.html#a5c583c26539a886921a9067fa425bc9c" target="_top" xlink:title="Evaluate a complex string expression.">
<polygon fill="white" stroke="black" points="342,-334 342,-353 464,-353 464,-334 342,-334"/>
<text text-anchor="middle" x="403" y="-341" font-family="Helvetica,sans-Serif" font-size="10.00">parser_module::evaluate</text>
</a>
</g>
</g>
<!-- Node25&#45;&gt;Node26 -->
<g id="edge31" class="edge">
<title>Node25&#45;&gt;Node26</title>
<path fill="none" stroke="midnightblue" d="M288.42,-343.5C302.12,-343.5 317.04,-343.5 331.43,-343.5"/>
<polygon fill="midnightblue" stroke="midnightblue" points="331.79,-347 341.79,-343.5 331.79,-340 331.79,-347"/>
</g>
<!-- Node27 -->
<g id="node27" class="node">
<title>Node27</title>
<g id="a_node27"><a xlink:href="namespaceparser__module.html#ad50643e6694300972743edc44679fbf7" target="_top" xlink:title="Function to perform a function operations.">
<polygon fill="white" stroke="black" points="508,-216.5 508,-246.5 611,-246.5 611,-216.5 508,-216.5"/>
<text text-anchor="start" x="516" y="-234.5" font-family="Helvetica,sans-Serif" font-size="10.00">parser_module::eval</text>
<text text-anchor="middle" x="559.5" y="-223.5" font-family="Helvetica,sans-Serif" font-size="10.00">_function</text>
</a>
</g>
</g>
<!-- Node26&#45;&gt;Node27 -->
<g id="edge32" class="edge">
<title>Node26&#45;&gt;Node27</title>
<path fill="none" stroke="midnightblue" d="M417.17,-333.95C441.82,-316.08 495.47,-277.19 529.12,-252.8"/>
<polygon fill="midnightblue" stroke="midnightblue" points="531.58,-255.34 537.62,-246.63 527.47,-249.67 531.58,-255.34"/>
</g>
<!-- Node28 -->
<g id="node28" class="node">
<title>Node28</title>
<g id="a_node28"><a xlink:href="namespaceparser__module.html#ae4ed3c6a08e74ffd03282ee7c30d8194" target="_top" xlink:title="Evaluate a simple string expression, without brackets and functions.">
<polygon fill="white" stroke="black" points="510.5,-328.5 510.5,-358.5 608.5,-358.5 608.5,-328.5 510.5,-328.5"/>
<text text-anchor="start" x="518.5" y="-346.5" font-family="Helvetica,sans-Serif" font-size="10.00">parser_module::get</text>
<text text-anchor="middle" x="559.5" y="-335.5" font-family="Helvetica,sans-Serif" font-size="10.00">_simple_result</text>
</a>
</g>
</g>
<!-- Node26&#45;&gt;Node28 -->
<g id="edge34" class="edge">
<title>Node26&#45;&gt;Node28</title>
<path fill="none" stroke="midnightblue" d="M464.18,-343.5C475.97,-343.5 488.33,-343.5 500.06,-343.5"/>
<polygon fill="midnightblue" stroke="midnightblue" points="500.19,-347 510.19,-343.5 500.19,-340 500.19,-347"/>
</g>
<!-- Node33 -->
<g id="node33" class="node">
<title>Node33</title>
<g id="a_node33"><a xlink:href="namespaceparser__module.html#a4b73870fbca7e3195b5d1efc61c3f039" target="_top" xlink:title="Function to decide whether a character is a number or not (i.e., 0&#45;9).">
<polygon fill="white" stroke="black" points="501.5,-290 501.5,-309 617.5,-309 617.5,-290 501.5,-290"/>
<text text-anchor="middle" x="559.5" y="-297" font-family="Helvetica,sans-Serif" font-size="10.00">parser_module::is_digit</text>
</a>
</g>
</g>
<!-- Node26&#45;&gt;Node33 -->
<g id="edge41" class="edge">
<title>Node26&#45;&gt;Node33</title>
<path fill="none" stroke="midnightblue" d="M437.52,-333.95C460.3,-327.47 490.64,-318.83 515.24,-311.82"/>
<polygon fill="midnightblue" stroke="midnightblue" points="516.38,-315.13 525.04,-309.03 514.46,-308.4 516.38,-315.13"/>
</g>
<!-- Node34 -->
<g id="node34" class="node">
<title>Node34</title>
<g id="a_node34"><a xlink:href="namespaceparser__module.html#af9cbf87119ef07db357b3240c716e462" target="_top" xlink:title="Function to decide whether a character is a mathematical operator or not. Functions (as e....">
<polygon fill="white" stroke="black" points="657.5,-437 657.5,-456 790.5,-456 790.5,-437 657.5,-437"/>
<text text-anchor="middle" x="724" y="-444" font-family="Helvetica,sans-Serif" font-size="10.00">parser_module::is_operator</text>
</a>
</g>
</g>
<!-- Node26&#45;&gt;Node34 -->
<g id="edge42" class="edge">
<title>Node26&#45;&gt;Node34</title>
<path fill="none" stroke="midnightblue" d="M433.44,-353.01C490.98,-371.58 618.39,-412.72 683.31,-433.68"/>
<polygon fill="midnightblue" stroke="midnightblue" points="682.58,-437.13 693.17,-436.87 684.73,-430.46 682.58,-437.13"/>
</g>
<!-- Node35 -->
<g id="node35" class="node">
<title>Node35</title>
<g id="a_node35"><a xlink:href="namespaceparser__module.html#a3441e2e009e491fac044cc02bc9b144d" target="_top" xlink:title="Store mathematical operators (+&#45;*/) and numbers in arrays.">
<polygon fill="white" stroke="black" points="506,-488.5 506,-518.5 613,-518.5 613,-488.5 506,-488.5"/>
<text text-anchor="start" x="514" y="-506.5" font-family="Helvetica,sans-Serif" font-size="10.00">parser_module::store</text>
<text text-anchor="middle" x="559.5" y="-495.5" font-family="Helvetica,sans-Serif" font-size="10.00">_digits_operator</text>
</a>
</g>
</g>
<!-- Node26&#45;&gt;Node35 -->
<g id="edge43" class="edge">
<title>Node26&#45;&gt;Node35</title>
<path fill="none" stroke="midnightblue" d="M413.2,-353.03C437.24,-377.92 502.42,-445.42 536.72,-480.95"/>
<polygon fill="midnightblue" stroke="midnightblue" points="534.48,-483.66 543.94,-488.43 539.51,-478.8 534.48,-483.66"/>
</g>
<!-- Node27&#45;&gt;Node3 -->
<g id="edge33" class="edge">
<title>Node27&#45;&gt;Node3</title>
<path fill="none" stroke="midnightblue" d="M591.04,-216.35C638.21,-195.32 729.9,-164.08 793,-203.5 826,-224.12 867.26,-333.89 884.66,-383.78"/>
<polygon fill="midnightblue" stroke="midnightblue" points="881.43,-385.15 888,-393.47 888.05,-382.87 881.43,-385.15"/>
</g>
<!-- Node28&#45;&gt;Node3 -->
<g id="edge40" class="edge">
<title>Node28&#45;&gt;Node3</title>
<path fill="none" stroke="midnightblue" d="M585.16,-358.68C603.66,-369.27 630,-382.68 655,-389.5 711.56,-404.93 778.27,-409.11 826.65,-409.76"/>
<polygon fill="midnightblue" stroke="midnightblue" points="826.66,-413.26 836.69,-409.85 826.72,-406.26 826.66,-413.26"/>
</g>
<!-- Node29 -->
<g id="node29" class="node">
<title>Node29</title>
<g id="a_node29"><a xlink:href="namespaceparser__module.html#a2cfd49c431619a7d7ded68e9f89bee70" target="_top" xlink:title="Function to decide whether a character is &quot;*&quot; or &quot;/&quot;.">
<polygon fill="white" stroke="black" points="668.5,-213.5 668.5,-243.5 779.5,-243.5 779.5,-213.5 668.5,-213.5"/>
<text text-anchor="start" x="676.5" y="-231.5" font-family="Helvetica,sans-Serif" font-size="10.00">parser_module::is_dot</text>
<text text-anchor="middle" x="724" y="-220.5" font-family="Helvetica,sans-Serif" font-size="10.00">_operator</text>
</a>
</g>
</g>
<!-- Node28&#45;&gt;Node29 -->
<g id="edge35" class="edge">
<title>Node28&#45;&gt;Node29</title>
<path fill="none" stroke="midnightblue" d="M604.94,-328.37C610,-325.56 614.83,-322.29 619,-318.5 643.73,-296.03 629.56,-274.16 655,-252.5 656.5,-251.22 658.08,-250.01 659.71,-248.86"/>
<polygon fill="midnightblue" stroke="midnightblue" points="661.57,-251.82 668.28,-243.63 657.92,-245.85 661.57,-251.82"/>
</g>
<!-- Node30 -->
<g id="node30" class="node">
<title>Node30</title>
<g id="a_node30"><a xlink:href="namespaceparser__module.html#ae2806c52d9868da3855d28c188a1679e" target="_top" xlink:title="Function to decide whether a character is a &quot;+&quot; or &quot;&#45;&quot;.">
<polygon fill="white" stroke="black" points="667.5,-311.5 667.5,-341.5 780.5,-341.5 780.5,-311.5 667.5,-311.5"/>
<text text-anchor="start" x="675.5" y="-329.5" font-family="Helvetica,sans-Serif" font-size="10.00">parser_module::is_line</text>
<text text-anchor="middle" x="724" y="-318.5" font-family="Helvetica,sans-Serif" font-size="10.00">_operator</text>
</a>
</g>
</g>
<!-- Node28&#45;&gt;Node30 -->
<g id="edge36" class="edge">
<title>Node28&#45;&gt;Node30</title>
<path fill="none" stroke="midnightblue" d="M608.82,-338.45C624.08,-336.85 641.21,-335.06 657.46,-333.36"/>
<polygon fill="midnightblue" stroke="midnightblue" points="657.87,-336.83 667.45,-332.31 657.14,-329.87 657.87,-336.83"/>
</g>
<!-- Node31 -->
<g id="node31" class="node">
<title>Node31</title>
<g id="a_node31"><a xlink:href="namespaceparser__module.html#a55c1c7aac46e95ec6634aa8a514a90b0" target="_top" xlink:title="Function to decide whether a character is a &quot;^&quot;.">
<polygon fill="white" stroke="black" points="662,-262.5 662,-292.5 786,-292.5 786,-262.5 662,-262.5"/>
<text text-anchor="start" x="670" y="-280.5" font-family="Helvetica,sans-Serif" font-size="10.00">parser_module::is_power</text>
<text text-anchor="middle" x="724" y="-269.5" font-family="Helvetica,sans-Serif" font-size="10.00">_operator</text>
</a>
</g>
</g>
<!-- Node28&#45;&gt;Node31 -->
<g id="edge37" class="edge">
<title>Node28&#45;&gt;Node31</title>
<path fill="none" stroke="midnightblue" d="M596.48,-328.37C603.95,-325.17 611.75,-321.76 619,-318.5 635.14,-311.24 638.64,-308.23 655,-301.5 659.4,-299.69 663.99,-297.89 668.62,-296.13"/>
<polygon fill="midnightblue" stroke="midnightblue" points="669.97,-299.37 678.13,-292.61 667.54,-292.8 669.97,-299.37"/>
</g>
<!-- Node32 -->
<g id="node32" class="node">
<title>Node32</title>
<g id="a_node32"><a xlink:href="namespaceparser__module.html#a2040007bd269f7920bcfee6840eb41de" target="_top" xlink:title="Function to perform a simple mathematical operation.">
<polygon fill="white" stroke="black" points="661.5,-361 661.5,-380 786.5,-380 786.5,-361 661.5,-361"/>
<text text-anchor="middle" x="724" y="-368" font-family="Helvetica,sans-Serif" font-size="10.00">parser_module::operation</text>
</a>
</g>
</g>
<!-- Node28&#45;&gt;Node32 -->
<g id="edge38" class="edge">
<title>Node28&#45;&gt;Node32</title>
<path fill="none" stroke="midnightblue" d="M608.82,-351.53C623.47,-353.96 639.85,-356.68 655.53,-359.29"/>
<polygon fill="midnightblue" stroke="midnightblue" points="655.26,-362.79 665.7,-360.98 656.41,-355.89 655.26,-362.79"/>
</g>
<!-- Node32&#45;&gt;Node3 -->
<g id="edge39" class="edge">
<title>Node32&#45;&gt;Node3</title>
<path fill="none" stroke="midnightblue" d="M767.39,-380.09C785.44,-384.17 806.91,-389.03 826.95,-393.56"/>
<polygon fill="midnightblue" stroke="midnightblue" points="826.44,-397.03 836.96,-395.83 827.98,-390.21 826.44,-397.03"/>
</g>
<!-- Node35&#45;&gt;Node3 -->
<g id="edge48" class="edge">
<title>Node35&#45;&gt;Node3</title>
<path fill="none" stroke="midnightblue" d="M613.07,-500.26C661.08,-496.05 733.43,-486.58 793,-465.5 818.05,-456.64 844.05,-441.61 863.26,-429.21"/>
<polygon fill="midnightblue" stroke="midnightblue" points="865.42,-431.97 871.84,-423.55 861.57,-426.13 865.42,-431.97"/>
</g>
<!-- Node35&#45;&gt;Node34 -->
<g id="edge45" class="edge">
<title>Node35&#45;&gt;Node34</title>
<path fill="none" stroke="midnightblue" d="M603.62,-488.37C629.24,-479.39 661.4,-468.11 685.88,-459.52"/>
<polygon fill="midnightblue" stroke="midnightblue" points="687.25,-462.75 695.53,-456.14 684.93,-456.14 687.25,-462.75"/>
</g>
<!-- Node36 -->
<g id="node36" class="node">
<title>Node36</title>
<g id="a_node36"><a xlink:href="namespaceparser__module.html#ad490bd346a873a280de4d7d6f343d588" target="_top" xlink:title="Function to define constants.">
<polygon fill="white" stroke="black" points="663,-551.5 663,-581.5 785,-581.5 785,-551.5 663,-551.5"/>
<text text-anchor="start" x="671" y="-569.5" font-family="Helvetica,sans-Serif" font-size="10.00">parser_module::common</text>
<text text-anchor="middle" x="724" y="-558.5" font-family="Helvetica,sans-Serif" font-size="10.00">_variables</text>
</a>
</g>
</g>
<!-- Node35&#45;&gt;Node36 -->
<g id="edge44" class="edge">
<title>Node35&#45;&gt;Node36</title>
<path fill="none" stroke="midnightblue" d="M597.2,-518.55C614.66,-525.64 635.86,-534.13 655,-541.5 660.49,-543.61 666.24,-545.79 671.98,-547.93"/>
<polygon fill="midnightblue" stroke="midnightblue" points="670.98,-551.29 681.57,-551.49 673.42,-544.73 670.98,-551.29"/>
</g>
<!-- Node37 -->
<g id="node37" class="node">
<title>Node37</title>
<g id="a_node37"><a xlink:href="namespaceparser__module.html#a7d1134a2461b12dc17514a1970d6b00b" target="_top" xlink:title="Function to decide whether a character can be associated with a number.">
<polygon fill="white" stroke="black" points="655,-513 655,-532 793,-532 793,-513 655,-513"/>
<text text-anchor="middle" x="724" y="-520" font-family="Helvetica,sans-Serif" font-size="10.00">parser_module::is_separator</text>
</a>
</g>
</g>
<!-- Node35&#45;&gt;Node37 -->
<g id="edge46" class="edge">
<title>Node35&#45;&gt;Node37</title>
<path fill="none" stroke="midnightblue" d="M613.26,-509.67C623.3,-510.84 634.01,-512.09 644.65,-513.34"/>
<polygon fill="midnightblue" stroke="midnightblue" points="644.47,-516.84 654.81,-514.53 645.28,-509.89 644.47,-516.84"/>
</g>
<!-- Node38 -->
<g id="node38" class="node">
<title>Node38</title>
<g id="a_node38"><a xlink:href="namespaceparser__module.html#afbaa22752e33bc2ac2a3437adb34ea52" target="_top" xlink:title="Subroutine to check the parsing string for consistency and correct it.">
<polygon fill="white" stroke="black" points="669.5,-600.5 669.5,-630.5 778.5,-630.5 778.5,-600.5 669.5,-600.5"/>
<text text-anchor="start" x="677.5" y="-618.5" font-family="Helvetica,sans-Serif" font-size="10.00">parser_module::make</text>
<text text-anchor="middle" x="724" y="-607.5" font-family="Helvetica,sans-Serif" font-size="10.00">_pars_str_consistent</text>
</a>
</g>
</g>
<!-- Node35&#45;&gt;Node38 -->
<g id="edge47" class="edge">
<title>Node35&#45;&gt;Node38</title>
<path fill="none" stroke="midnightblue" d="M573.11,-518.58C589.97,-537.9 621.63,-571.29 655,-591.5 657.78,-593.19 660.7,-594.78 663.7,-596.28"/>
<polygon fill="midnightblue" stroke="midnightblue" points="662.34,-599.5 672.89,-600.49 665.26,-593.14 662.34,-599.5"/>
</g>
</g>
</svg>
