<?xml version="1.0" encoding="UTF-8" standalone="no"?>
<!DOCTYPE svg PUBLIC "-//W3C//DTD SVG 1.1//EN"
 "http://www.w3.org/Graphics/SVG/1.1/DTD/svg11.dtd">
<!-- Generated by graphviz version 2.44.0 ()
 -->
<!-- Title: jacobian_class::abchange Pages: 1 -->
<svg width="1110pt" height="718pt"
 viewBox="0.00 0.00 1110.00 718.21" xmlns="http://www.w3.org/2000/svg" xmlns:xlink="http://www.w3.org/1999/xlink">
<g id="graph0" class="graph" transform="scale(1 1) rotate(0) translate(4 714.21)">
<title>jacobian_class::abchange</title>
<polygon fill="white" stroke="transparent" points="-4,4 -4,-714.21 1106,-714.21 1106,4 -4,4"/>
<!-- Node1 -->
<g id="node1" class="node">
<title>Node1</title>
<g id="a_node1"><a xlink:title="This subroutine calculates the change in abundances (dYdt) due to reaction rates at given temperature...">
<polygon fill="#bfbfbf" stroke="black" points="0,-92.21 0,-111.21 128,-111.21 128,-92.21 0,-92.21"/>
<text text-anchor="middle" x="64" y="-99.21" font-family="Helvetica,sans-Serif" font-size="10.00">jacobian_class::abchange</text>
</a>
</g>
</g>
<!-- Node2 -->
<g id="node2" class="node">
<title>Node2</title>
<g id="a_node2"><a xlink:href="namespacejacobian__class.html#a28af27c67392298788fdfa4023fe87c7" target="_top" xlink:title="Subroutine to calculate the reaction rates.">
<polygon fill="white" stroke="black" points="164,-363.71 164,-393.71 289,-393.71 289,-363.71 164,-363.71"/>
<text text-anchor="start" x="172" y="-381.71" font-family="Helvetica,sans-Serif" font-size="10.00">jacobian_class::calculate</text>
<text text-anchor="middle" x="226.5" y="-370.71" font-family="Helvetica,sans-Serif" font-size="10.00">_reaction_rate</text>
</a>
</g>
</g>
<!-- Node1&#45;&gt;Node2 -->
<g id="edge1" class="edge">
<title>Node1&#45;&gt;Node2</title>
<path fill="none" stroke="midnightblue" d="M70.52,-111.24C92.98,-149.99 177.79,-296.37 211.53,-354.6"/>
<polygon fill="midnightblue" stroke="midnightblue" points="208.63,-356.57 216.67,-363.47 214.69,-353.06 208.63,-356.57"/>
</g>
<!-- Node5 -->
<g id="node5" class="node">
<title>Node5</title>
<g id="a_node5"><a xlink:href="namespaceerror__msg__class.html#a2453d3b7cb363115c046840baa1dfb75" target="_top" xlink:title="Raise a exception with a given error message.">
<polygon fill="white" stroke="black" points="836.5,-265.71 836.5,-295.71 950.5,-295.71 950.5,-265.71 836.5,-265.71"/>
<text text-anchor="start" x="844.5" y="-283.71" font-family="Helvetica,sans-Serif" font-size="10.00">error_msg_class::raise</text>
<text text-anchor="middle" x="893.5" y="-272.71" font-family="Helvetica,sans-Serif" font-size="10.00">_exception</text>
</a>
</g>
</g>
<!-- Node1&#45;&gt;Node5 -->
<g id="edge44" class="edge">
<title>Node1&#45;&gt;Node5</title>
<path fill="none" stroke="midnightblue" d="M128.38,-93.11C231.4,-81.04 440.98,-64.45 613,-101.71 696.98,-119.9 717.84,-133.55 789,-181.71 821.5,-203.7 853.27,-236.21 872.85,-257.9"/>
<polygon fill="midnightblue" stroke="midnightblue" points="870.48,-260.5 879.74,-265.65 875.71,-255.85 870.48,-260.5"/>
</g>
<!-- Node6 -->
<g id="node6" class="node">
<title>Node6</title>
<g id="a_node6"><a xlink:href="namespaceerror__msg__class.html#a7e065585cc806a5c264de1f088266498" target="_top" xlink:title="Converts a given integer to a string.">
<polygon fill="white" stroke="black" points="998,-265.71 998,-295.71 1102,-295.71 1102,-265.71 998,-265.71"/>
<text text-anchor="start" x="1006" y="-283.71" font-family="Helvetica,sans-Serif" font-size="10.00">error_msg_class::int</text>
<text text-anchor="middle" x="1050" y="-272.71" font-family="Helvetica,sans-Serif" font-size="10.00">_to_str</text>
</a>
</g>
</g>
<!-- Node1&#45;&gt;Node6 -->
<g id="edge42" class="edge">
<title>Node1&#45;&gt;Node6</title>
<path fill="none" stroke="midnightblue" d="M73.71,-92.17C89.72,-75.37 125.71,-40.83 164,-25.71 257.24,11.12 288.24,-3.71 388.5,-3.71 388.5,-3.71 388.5,-3.71 720,-3.71 789.17,-3.71 948.84,-85 962,-97.71 1008.37,-142.5 1032.94,-216.95 1043.15,-255.63"/>
<polygon fill="midnightblue" stroke="midnightblue" points="1039.81,-256.71 1045.66,-265.54 1046.6,-254.99 1039.81,-256.71"/>
</g>
<!-- Node9 -->
<g id="node9" class="node">
<title>Node9</title>
<g id="a_node9"><a xlink:href="namespacebenam__class.html#a2e85786a53d55231776ae950b7b27953" target="_top" xlink:title="Return a string to represent a given reaction.">
<polygon fill="white" stroke="black" points="495,-679.71 495,-709.71 608,-709.71 608,-679.71 495,-679.71"/>
<text text-anchor="start" x="503" y="-697.71" font-family="Helvetica,sans-Serif" font-size="10.00">benam_class::reaction</text>
<text text-anchor="middle" x="551.5" y="-686.71" font-family="Helvetica,sans-Serif" font-size="10.00">_string</text>
</a>
</g>
</g>
<!-- Node1&#45;&gt;Node9 -->
<g id="edge45" class="edge">
<title>Node1&#45;&gt;Node9</title>
<path fill="none" stroke="midnightblue" d="M65.68,-111.52C70.73,-176.07 108.56,-541.37 325,-676.71 372.31,-706.29 436.56,-708.58 484.38,-704.76"/>
<polygon fill="midnightblue" stroke="midnightblue" points="484.99,-708.22 494.63,-703.83 484.35,-701.25 484.99,-708.22"/>
</g>
<!-- Node26 -->
<g id="node26" class="node">
<title>Node26</title>
<g id="a_node26"><a xlink:href="namespaceerror__msg__class.html#a5bc9f3b670b725cc43276934b867d801" target="_top" xlink:title="Converts a given real to a string with format &quot;(1pE10.2)&quot;.">
<polygon fill="white" stroke="black" points="495.5,-111.71 495.5,-141.71 607.5,-141.71 607.5,-111.71 495.5,-111.71"/>
<text text-anchor="start" x="503.5" y="-129.71" font-family="Helvetica,sans-Serif" font-size="10.00">error_msg_class::num</text>
<text text-anchor="middle" x="551.5" y="-118.71" font-family="Helvetica,sans-Serif" font-size="10.00">_to_str</text>
</a>
</g>
</g>
<!-- Node1&#45;&gt;Node26 -->
<g id="edge43" class="edge">
<title>Node1&#45;&gt;Node26</title>
<path fill="none" stroke="midnightblue" d="M128.47,-104.98C220.88,-109.73 391.6,-118.53 485.09,-123.34"/>
<polygon fill="midnightblue" stroke="midnightblue" points="485.11,-126.85 495.27,-123.86 485.47,-119.85 485.11,-126.85"/>
</g>
<!-- Node32 -->
<g id="node32" class="node">
<title>Node32</title>
<g id="a_node32"><a xlink:href="namespacejacobian__class.html#a95f6f4d14e95a44eb3589020bd1509f7" target="_top" xlink:title="Function to decide whether a rate can contribute or not.">
<polygon fill="white" stroke="black" points="164,-35.21 164,-54.21 289,-54.21 289,-35.21 164,-35.21"/>
<text text-anchor="middle" x="226.5" y="-42.21" font-family="Helvetica,sans-Serif" font-size="10.00">jacobian_class::skip_rate</text>
</a>
</g>
</g>
<!-- Node1&#45;&gt;Node32 -->
<g id="edge46" class="edge">
<title>Node1&#45;&gt;Node32</title>
<path fill="none" stroke="midnightblue" d="M91.86,-92.17C118.48,-82.71 159.44,-68.17 189,-57.67"/>
<polygon fill="midnightblue" stroke="midnightblue" points="190.3,-60.92 198.55,-54.28 187.95,-54.33 190.3,-60.92"/>
</g>
<!-- Node3 -->
<g id="node3" class="node">
<title>Node3</title>
<g id="a_node3"><a xlink:href="namespacenucstuff__class.html#a54b0d5681c0193e0b2276911713242e9" target="_top" xlink:title="A helper to compute powers of temperature used in the reaction rates.">
<polygon fill="white" stroke="black" points="338.5,-187.71 338.5,-217.71 440.5,-217.71 440.5,-187.71 338.5,-187.71"/>
<text text-anchor="start" x="346.5" y="-205.71" font-family="Helvetica,sans-Serif" font-size="10.00">nucstuff_class::calc</text>
<text text-anchor="middle" x="389.5" y="-194.71" font-family="Helvetica,sans-Serif" font-size="10.00">_t9_pow</text>
</a>
</g>
</g>
<!-- Node2&#45;&gt;Node3 -->
<g id="edge2" class="edge">
<title>Node2&#45;&gt;Node3</title>
<path fill="none" stroke="midnightblue" d="M233.45,-363.64C245.99,-333.7 277.92,-266.27 325,-227.71 327.05,-226.03 329.22,-224.46 331.48,-222.98"/>
<polygon fill="midnightblue" stroke="midnightblue" points="333.63,-225.78 340.55,-217.76 330.14,-219.72 333.63,-225.78"/>
</g>
<!-- Node4 -->
<g id="node4" class="node">
<title>Node4</title>
<g id="a_node4"><a xlink:href="namespacedetailed__balance.html#a4c2ebb1580b34cd40aca41258ba5c8b7" target="_top" xlink:title="Calculate the inverse rate from the forward one via detailed balance.">
<polygon fill="white" stroke="black" points="652.5,-331.71 652.5,-361.71 785.5,-361.71 785.5,-331.71 652.5,-331.71"/>
<text text-anchor="start" x="660.5" y="-349.71" font-family="Helvetica,sans-Serif" font-size="10.00">detailed_balance::calculate</text>
<text text-anchor="middle" x="719" y="-338.71" font-family="Helvetica,sans-Serif" font-size="10.00">_detailed_balance</text>
</a>
</g>
</g>
<!-- Node2&#45;&gt;Node4 -->
<g id="edge3" class="edge">
<title>Node2&#45;&gt;Node4</title>
<path fill="none" stroke="midnightblue" d="M277.72,-393.77C352.81,-413.7 497.84,-442.1 613,-403.71 631.97,-397.38 631.71,-386.76 649,-376.71 655.44,-372.96 662.44,-369.39 669.43,-366.11"/>
<polygon fill="midnightblue" stroke="midnightblue" points="671.23,-369.14 678.9,-361.82 668.34,-362.76 671.23,-369.14"/>
</g>
<!-- Node2&#45;&gt;Node5 -->
<g id="edge39" class="edge">
<title>Node2&#45;&gt;Node5</title>
<path fill="none" stroke="midnightblue" d="M229.46,-363.55C235.42,-324.43 257.29,-220.12 325,-177.71 396.61,-132.85 636.26,-170.35 789,-221.71 815.81,-230.72 843.52,-246.94 863.51,-260.1"/>
<polygon fill="midnightblue" stroke="midnightblue" points="861.59,-263.03 871.85,-265.71 865.5,-257.22 861.59,-263.03"/>
</g>
<!-- Node2&#45;&gt;Node6 -->
<g id="edge37" class="edge">
<title>Node2&#45;&gt;Node6</title>
<path fill="none" stroke="midnightblue" d="M249.97,-393.82C269.01,-405.66 297.53,-421.19 325,-427.71 380.79,-440.94 396.67,-427.89 454,-427.71 524.67,-427.49 543.17,-437.59 613,-426.71 693.98,-414.09 711.2,-397.47 789,-371.71 861.72,-347.63 945.23,-318.06 997.55,-299.29"/>
<polygon fill="midnightblue" stroke="midnightblue" points="999.04,-302.48 1007.27,-295.8 996.68,-295.89 999.04,-302.48"/>
</g>
<!-- Node7 -->
<g id="node7" class="node">
<title>Node7</title>
<g id="a_node7"><a xlink:href="namespacenuflux__class.html#ac04f6b0dca8f9120cb839749cc2dbbe0" target="_top" xlink:title="Calculates the cross section times the neutrino flux.">
<polygon fill="white" stroke="black" points="333,-538.71 333,-568.71 446,-568.71 446,-538.71 333,-538.71"/>
<text text-anchor="start" x="341" y="-556.71" font-family="Helvetica,sans-Serif" font-size="10.00">nuflux_class::calculate</text>
<text text-anchor="middle" x="389.5" y="-545.71" font-family="Helvetica,sans-Serif" font-size="10.00">_nu_rate</text>
</a>
</g>
</g>
<!-- Node2&#45;&gt;Node7 -->
<g id="edge6" class="edge">
<title>Node2&#45;&gt;Node7</title>
<path fill="none" stroke="midnightblue" d="M233.41,-393.83C245.87,-423.87 277.66,-491.47 325,-529.71 326.58,-530.99 328.24,-532.2 329.95,-533.35"/>
<polygon fill="midnightblue" stroke="midnightblue" points="328.53,-536.58 338.93,-538.63 332.08,-530.55 328.53,-536.58"/>
</g>
<!-- Node8 -->
<g id="node8" class="node">
<title>Node8</title>
<g id="a_node8"><a xlink:href="namespacereaclib__rate__module.html#a531d2052a5c27ee57c14c22159d1fbfe" target="_top" xlink:title="Calculate a reaclib rate.">
<polygon fill="white" stroke="black" points="335.5,-636.71 335.5,-666.71 443.5,-666.71 443.5,-636.71 335.5,-636.71"/>
<text text-anchor="start" x="343.5" y="-654.71" font-family="Helvetica,sans-Serif" font-size="10.00">reaclib_rate_module</text>
<text text-anchor="middle" x="389.5" y="-643.71" font-family="Helvetica,sans-Serif" font-size="10.00">::calculate_reacl_rate</text>
</a>
</g>
</g>
<!-- Node2&#45;&gt;Node8 -->
<g id="edge7" class="edge">
<title>Node2&#45;&gt;Node8</title>
<path fill="none" stroke="midnightblue" d="M229.17,-393.91C234.67,-436.7 255.98,-559.51 325,-627.71 326.07,-628.77 327.2,-629.78 328.37,-630.76"/>
<polygon fill="midnightblue" stroke="midnightblue" points="326.44,-633.68 336.64,-636.54 330.45,-627.94 326.44,-633.68"/>
</g>
<!-- Node11 -->
<g id="node11" class="node">
<title>Node11</title>
<g id="a_node11"><a xlink:href="namespacetabulated__rate__module.html#a8cd4cb35a24c56fffef12bff3e785906" target="_top" xlink:title="Calculates the tabulated rate.">
<polygon fill="white" stroke="black" points="332,-363.71 332,-393.71 447,-393.71 447,-363.71 332,-363.71"/>
<text text-anchor="start" x="340" y="-381.71" font-family="Helvetica,sans-Serif" font-size="10.00">tabulated_rate_module</text>
<text text-anchor="middle" x="389.5" y="-370.71" font-family="Helvetica,sans-Serif" font-size="10.00">::calculate_tab_rate</text>
</a>
</g>
</g>
<!-- Node2&#45;&gt;Node11 -->
<g id="edge10" class="edge">
<title>Node2&#45;&gt;Node11</title>
<path fill="none" stroke="midnightblue" d="M289.29,-378.71C299.9,-378.71 310.98,-378.71 321.72,-378.71"/>
<polygon fill="midnightblue" stroke="midnightblue" points="321.89,-382.21 331.89,-378.71 321.89,-375.21 321.89,-382.21"/>
</g>
<!-- Node13 -->
<g id="node13" class="node">
<title>Node13</title>
<g id="a_node13"><a xlink:href="namespacetw__rate__module.html#ae35ff1052a8049df8ab31be3f7f0b777" target="_top" xlink:title="Calculate the theoretical weak rate.">
<polygon fill="white" stroke="black" points="325,-489.71 325,-519.71 454,-519.71 454,-489.71 325,-489.71"/>
<text text-anchor="start" x="333" y="-507.71" font-family="Helvetica,sans-Serif" font-size="10.00">tw_rate_module::calculate</text>
<text text-anchor="middle" x="389.5" y="-496.71" font-family="Helvetica,sans-Serif" font-size="10.00">_twr_rate</text>
</a>
</g>
</g>
<!-- Node2&#45;&gt;Node13 -->
<g id="edge12" class="edge">
<title>Node2&#45;&gt;Node13</title>
<path fill="none" stroke="midnightblue" d="M240.07,-393.96C257.49,-414.37 290.72,-450.77 325,-474.71 330.25,-478.37 336.01,-481.8 341.87,-484.92"/>
<polygon fill="midnightblue" stroke="midnightblue" points="340.57,-488.19 351.07,-489.58 343.73,-481.94 340.57,-488.19"/>
</g>
<!-- Node25 -->
<g id="node25" class="node">
<title>Node25</title>
<g id="a_node25"><a xlink:href="chem__pot_8f90.html#a6e7fb350a916bae49d8520394fca6414" target="_top" xlink:title="Given a temperature temp [K], density den [g/cm**3], and a composition characterized by y_e,...">
<polygon fill="white" stroke="black" points="362.5,-325.21 362.5,-344.21 416.5,-344.21 416.5,-325.21 362.5,-325.21"/>
<text text-anchor="middle" x="389.5" y="-332.21" font-family="Helvetica,sans-Serif" font-size="10.00">chempot</text>
</a>
</g>
</g>
<!-- Node2&#45;&gt;Node25 -->
<g id="edge30" class="edge">
<title>Node2&#45;&gt;Node25</title>
<path fill="none" stroke="midnightblue" d="M282.46,-363.69C305.52,-357.39 331.71,-350.23 352.29,-344.6"/>
<polygon fill="midnightblue" stroke="midnightblue" points="353.48,-347.91 362.2,-341.9 351.63,-341.16 353.48,-347.91"/>
</g>
<!-- Node29 -->
<g id="node29" class="node">
<title>Node29</title>
<g id="a_node29"><a xlink:href="namespacenucstuff__class.html#a7f6b5ddec08f9564638a58091e6940d7" target="_top" xlink:title="Calculates partition function.">
<polygon fill="white" stroke="black" points="338,-275.71 338,-305.71 441,-305.71 441,-275.71 338,-275.71"/>
<text text-anchor="start" x="346" y="-293.71" font-family="Helvetica,sans-Serif" font-size="10.00">nucstuff_class::inter</text>
<text text-anchor="middle" x="389.5" y="-282.71" font-family="Helvetica,sans-Serif" font-size="10.00">_partf</text>
</a>
</g>
</g>
<!-- Node2&#45;&gt;Node29 -->
<g id="edge38" class="edge">
<title>Node2&#45;&gt;Node29</title>
<path fill="none" stroke="midnightblue" d="M248.08,-363.69C267.33,-350.06 297.21,-329.98 325,-315.71 328.96,-313.67 333.13,-311.7 337.35,-309.81"/>
<polygon fill="midnightblue" stroke="midnightblue" points="338.84,-312.98 346.64,-305.82 336.07,-306.55 338.84,-312.98"/>
</g>
<!-- Node30 -->
<g id="node30" class="node">
<title>Node30</title>
<g id="a_node30"><a xlink:href="namespacescreening__module.html#a849df594c989d90443acad283ef41bfb" target="_top" xlink:title="This function calculates the screening coefficients hv.">
<polygon fill="white" stroke="black" points="325,-237.21 325,-256.21 454,-256.21 454,-237.21 325,-237.21"/>
<text text-anchor="middle" x="389.5" y="-244.21" font-family="Helvetica,sans-Serif" font-size="10.00">screening_module::screen</text>
</a>
</g>
</g>
<!-- Node2&#45;&gt;Node30 -->
<g id="edge40" class="edge">
<title>Node2&#45;&gt;Node30</title>
<path fill="none" stroke="midnightblue" d="M236.56,-363.47C251.77,-339.18 284.77,-291.77 325,-265.71 328.18,-263.65 331.59,-261.8 335.13,-260.15"/>
<polygon fill="midnightblue" stroke="midnightblue" points="336.77,-263.26 344.69,-256.22 334.11,-256.79 336.77,-263.26"/>
</g>
<!-- Node31 -->
<g id="node31" class="node">
<title>Node31</title>
<g id="a_node31"><a xlink:href="namespacetabulated__rate__module.html#ab39e3f09d54fc4b3f8baf09c5621f303" target="_top" xlink:title="Set tab_index for a given temperature.">
<polygon fill="white" stroke="black" points="332,-587.71 332,-617.71 447,-617.71 447,-587.71 332,-587.71"/>
<text text-anchor="start" x="340" y="-605.71" font-family="Helvetica,sans-Serif" font-size="10.00">tabulated_rate_module</text>
<text text-anchor="middle" x="389.5" y="-594.71" font-family="Helvetica,sans-Serif" font-size="10.00">::tabulated_index</text>
</a>
</g>
</g>
<!-- Node2&#45;&gt;Node31 -->
<g id="edge41" class="edge">
<title>Node2&#45;&gt;Node31</title>
<path fill="none" stroke="midnightblue" d="M230.79,-393.81C239.56,-430.6 266.91,-525.75 325,-578.71 326.29,-579.88 327.64,-581 329.04,-582.07"/>
<polygon fill="midnightblue" stroke="midnightblue" points="327.26,-585.08 337.55,-587.6 331.08,-579.22 327.26,-585.08"/>
</g>
<!-- Node4&#45;&gt;Node5 -->
<g id="edge4" class="edge">
<title>Node4&#45;&gt;Node5</title>
<path fill="none" stroke="midnightblue" d="M759.57,-331.57C784.56,-322.01 817.02,-309.59 843.6,-299.42"/>
<polygon fill="midnightblue" stroke="midnightblue" points="845.02,-302.62 853.11,-295.78 842.52,-296.08 845.02,-302.62"/>
</g>
<!-- Node5&#45;&gt;Node6 -->
<g id="edge5" class="edge">
<title>Node5&#45;&gt;Node6</title>
<path fill="none" stroke="midnightblue" d="M950.72,-280.71C962.78,-280.71 975.59,-280.71 987.83,-280.71"/>
<polygon fill="midnightblue" stroke="midnightblue" points="987.95,-284.21 997.95,-280.71 987.95,-277.21 987.95,-284.21"/>
</g>
<!-- Node8&#45;&gt;Node9 -->
<g id="edge8" class="edge">
<title>Node8&#45;&gt;Node9</title>
<path fill="none" stroke="midnightblue" d="M443.78,-666.03C457.02,-669.58 471.36,-673.44 485.11,-677.13"/>
<polygon fill="midnightblue" stroke="midnightblue" points="484.42,-680.57 494.99,-679.79 486.24,-673.81 484.42,-680.57"/>
</g>
<!-- Node10 -->
<g id="node10" class="node">
<title>Node10</title>
<g id="a_node10"><a xlink:href="namespacebenam__class.html#afd880df70f94c289b6bda0647f4494e3" target="_top" xlink:title="Getter of net_names, translating indices to a nucleus name.">
<polygon fill="white" stroke="black" points="649,-685.21 649,-704.21 789,-704.21 789,-685.21 649,-685.21"/>
<text text-anchor="middle" x="719" y="-692.21" font-family="Helvetica,sans-Serif" font-size="10.00">benam_class::get_net_name</text>
</a>
</g>
</g>
<!-- Node9&#45;&gt;Node10 -->
<g id="edge9" class="edge">
<title>Node9&#45;&gt;Node10</title>
<path fill="none" stroke="midnightblue" d="M608.07,-694.71C617.86,-694.71 628.22,-694.71 638.51,-694.71"/>
<polygon fill="midnightblue" stroke="midnightblue" points="638.76,-698.21 648.76,-694.71 638.76,-691.21 638.76,-698.21"/>
</g>
<!-- Node12 -->
<g id="node12" class="node">
<title>Node12</title>
<g id="a_node12"><a xlink:href="namespacetabulated__rate__module.html#a26734ac5f0837b48d072ef67dd82d002" target="_top" xlink:title="Interpolate tabulated rates from the table.">
<polygon fill="white" stroke="black" points="494,-363.71 494,-393.71 609,-393.71 609,-363.71 494,-363.71"/>
<text text-anchor="start" x="502" y="-381.71" font-family="Helvetica,sans-Serif" font-size="10.00">tabulated_rate_module</text>
<text text-anchor="middle" x="551.5" y="-370.71" font-family="Helvetica,sans-Serif" font-size="10.00">::tabulated_inter</text>
</a>
</g>
</g>
<!-- Node11&#45;&gt;Node12 -->
<g id="edge11" class="edge">
<title>Node11&#45;&gt;Node12</title>
<path fill="none" stroke="midnightblue" d="M447.36,-378.71C459.15,-378.71 471.67,-378.71 483.78,-378.71"/>
<polygon fill="midnightblue" stroke="midnightblue" points="483.82,-382.21 493.82,-378.71 483.82,-375.21 483.82,-382.21"/>
</g>
<!-- Node14 -->
<g id="node14" class="node">
<title>Node14</title>
<g id="a_node14"><a xlink:href="namespaceeffphase__class.html#aa6f8c1dc7835aa0c93be9a61c90f9a36" target="_top" xlink:title=" ">
<polygon fill="white" stroke="black" points="490,-609.21 490,-628.21 613,-628.21 613,-609.21 490,-609.21"/>
<text text-anchor="middle" x="551.5" y="-616.21" font-family="Helvetica,sans-Serif" font-size="10.00">effphase_class::effphase</text>
</a>
</g>
</g>
<!-- Node13&#45;&gt;Node14 -->
<g id="edge13" class="edge">
<title>Node13&#45;&gt;Node14</title>
<path fill="none" stroke="midnightblue" d="M438.9,-519.78C444.3,-522.59 449.48,-525.88 454,-529.71 477.73,-549.81 467.01,-568.77 490,-589.71 496.7,-595.81 504.9,-600.87 513.09,-604.98"/>
<polygon fill="midnightblue" stroke="midnightblue" points="511.69,-608.19 522.24,-609.2 514.63,-601.83 511.69,-608.19"/>
</g>
<!-- Node20 -->
<g id="node20" class="node">
<title>Node20</title>
<g id="a_node20"><a xlink:href="namespacetw__rate__module.html#aae7dacb01f31b31c10189432cc750156" target="_top" xlink:title="Set wk_index for given T, &#160;and &#160;The index is written into module variable wk_index.">
<polygon fill="white" stroke="black" points="495,-549.71 495,-579.71 608,-579.71 608,-549.71 495,-549.71"/>
<text text-anchor="start" x="503" y="-567.71" font-family="Helvetica,sans-Serif" font-size="10.00">tw_rate_module::weak</text>
<text text-anchor="middle" x="551.5" y="-556.71" font-family="Helvetica,sans-Serif" font-size="10.00">_index</text>
</a>
</g>
</g>
<!-- Node13&#45;&gt;Node20 -->
<g id="edge19" class="edge">
<title>Node13&#45;&gt;Node20</title>
<path fill="none" stroke="midnightblue" d="M430.87,-519.85C452.18,-527.84 478.5,-537.71 501.02,-546.15"/>
<polygon fill="midnightblue" stroke="midnightblue" points="499.82,-549.44 510.42,-549.68 502.28,-542.89 499.82,-549.44"/>
</g>
<!-- Node22 -->
<g id="node22" class="node">
<title>Node22</title>
<g id="a_node22"><a xlink:href="namespacetw__rate__module.html#ad64c32f568ba69ca2822b1c0a2d4d911" target="_top" xlink:title="Interpolation interface.">
<polygon fill="white" stroke="black" points="495,-489.71 495,-519.71 608,-519.71 608,-489.71 495,-489.71"/>
<text text-anchor="start" x="503" y="-507.71" font-family="Helvetica,sans-Serif" font-size="10.00">tw_rate_module::weak</text>
<text text-anchor="middle" x="551.5" y="-496.71" font-family="Helvetica,sans-Serif" font-size="10.00">_inter</text>
</a>
</g>
</g>
<!-- Node13&#45;&gt;Node22 -->
<g id="edge21" class="edge">
<title>Node13&#45;&gt;Node22</title>
<path fill="none" stroke="midnightblue" d="M454.2,-504.71C464.16,-504.71 474.47,-504.71 484.48,-504.71"/>
<polygon fill="midnightblue" stroke="midnightblue" points="484.78,-508.21 494.78,-504.71 484.78,-501.21 484.78,-508.21"/>
</g>
<!-- Node15 -->
<g id="node15" class="node">
<title>Node15</title>
<g id="a_node15"><a xlink:href="quadpack__module_8f90.html#ac59eaf7c56c1d421d129425895fa0107" target="_top" xlink:title=" ">
<polygon fill="white" stroke="black" points="701.5,-647.21 701.5,-666.21 736.5,-666.21 736.5,-647.21 701.5,-647.21"/>
<text text-anchor="middle" x="719" y="-654.21" font-family="Helvetica,sans-Serif" font-size="10.00">qagi</text>
</a>
</g>
</g>
<!-- Node14&#45;&gt;Node15 -->
<g id="edge14" class="edge">
<title>Node14&#45;&gt;Node15</title>
<path fill="none" stroke="midnightblue" d="M594.26,-628.3C624.73,-635.29 665.11,-644.57 691.32,-650.58"/>
<polygon fill="midnightblue" stroke="midnightblue" points="690.76,-654.04 701.29,-652.87 692.32,-647.22 690.76,-654.04"/>
</g>
<!-- Node19 -->
<g id="node19" class="node">
<title>Node19</title>
<g id="a_node19"><a xlink:href="effphase__class_8f90.html#a9f43f9887f468d012dbae6ba88547dd7" target="_top" xlink:title="The integrand in effective psi, eq.[16] of Langanke &amp; Pinedo (2001)">
<polygon fill="white" stroke="black" points="700.5,-609.21 700.5,-628.21 737.5,-628.21 737.5,-609.21 700.5,-609.21"/>
<text text-anchor="middle" x="719" y="-616.21" font-family="Helvetica,sans-Serif" font-size="10.00">xeffc</text>
</a>
</g>
</g>
<!-- Node14&#45;&gt;Node19 -->
<g id="edge18" class="edge">
<title>Node14&#45;&gt;Node19</title>
<path fill="none" stroke="midnightblue" d="M613.19,-618.71C639.58,-618.71 669.21,-618.71 690.21,-618.71"/>
<polygon fill="midnightblue" stroke="midnightblue" points="690.35,-622.21 700.35,-618.71 690.35,-615.21 690.35,-622.21"/>
</g>
<!-- Node16 -->
<g id="node16" class="node">
<title>Node16</title>
<g id="a_node16"><a xlink:href="quadpack__module_8f90.html#a5a75101d080f224c63adde98a0e64386" target="_top" xlink:title=" ">
<polygon fill="white" stroke="black" points="874.5,-685.21 874.5,-704.21 912.5,-704.21 912.5,-685.21 874.5,-685.21"/>
<text text-anchor="middle" x="893.5" y="-692.21" font-family="Helvetica,sans-Serif" font-size="10.00">qextr</text>
</a>
</g>
</g>
<!-- Node15&#45;&gt;Node16 -->
<g id="edge15" class="edge">
<title>Node15&#45;&gt;Node16</title>
<path fill="none" stroke="midnightblue" d="M736.54,-660.35C766.09,-666.86 828.24,-680.55 864.53,-688.55"/>
<polygon fill="midnightblue" stroke="midnightblue" points="863.95,-692 874.47,-690.74 865.45,-685.17 863.95,-692"/>
</g>
<!-- Node17 -->
<g id="node17" class="node">
<title>Node17</title>
<g id="a_node17"><a xlink:href="quadpack__module_8f90.html#a59164415fc33f2f3bf4ebc4ee2220f7e" target="_top" xlink:title=" ">
<polygon fill="white" stroke="black" points="873.5,-647.21 873.5,-666.21 913.5,-666.21 913.5,-647.21 873.5,-647.21"/>
<text text-anchor="middle" x="893.5" y="-654.21" font-family="Helvetica,sans-Serif" font-size="10.00">qk15i</text>
</a>
</g>
</g>
<!-- Node15&#45;&gt;Node17 -->
<g id="edge16" class="edge">
<title>Node15&#45;&gt;Node17</title>
<path fill="none" stroke="midnightblue" d="M736.54,-656.71C765.78,-656.71 826.95,-656.71 863.39,-656.71"/>
<polygon fill="midnightblue" stroke="midnightblue" points="863.41,-660.21 873.41,-656.71 863.4,-653.21 863.41,-660.21"/>
</g>
<!-- Node18 -->
<g id="node18" class="node">
<title>Node18</title>
<g id="a_node18"><a xlink:href="quadpack__module_8f90.html#a55e08a684c5a6315fb37dd0fdc66d8e6" target="_top" xlink:title=" ">
<polygon fill="white" stroke="black" points="874.5,-609.21 874.5,-628.21 912.5,-628.21 912.5,-609.21 874.5,-609.21"/>
<text text-anchor="middle" x="893.5" y="-616.21" font-family="Helvetica,sans-Serif" font-size="10.00">qsort</text>
</a>
</g>
</g>
<!-- Node15&#45;&gt;Node18 -->
<g id="edge17" class="edge">
<title>Node15&#45;&gt;Node18</title>
<path fill="none" stroke="midnightblue" d="M736.54,-653.06C766.09,-646.56 828.24,-632.86 864.53,-624.87"/>
<polygon fill="midnightblue" stroke="midnightblue" points="865.45,-628.25 874.47,-622.68 863.95,-621.41 865.45,-628.25"/>
</g>
<!-- Node21 -->
<g id="node21" class="node">
<title>Node21</title>
<g id="a_node21"><a xlink:href="namespaceinter__module.html#a947ac5de821c77a2cd1cf1ea1ce43589" target="_top" xlink:title="Get indices of the grid for given x&#45; and y&#45; values.">
<polygon fill="white" stroke="black" points="825,-495.21 825,-514.21 962,-514.21 962,-495.21 825,-495.21"/>
<text text-anchor="middle" x="893.5" y="-502.21" font-family="Helvetica,sans-Serif" font-size="10.00">inter_module::get_indice_2d</text>
</a>
</g>
</g>
<!-- Node20&#45;&gt;Node21 -->
<g id="edge20" class="edge">
<title>Node20&#45;&gt;Node21</title>
<path fill="none" stroke="midnightblue" d="M608.44,-555.17C656.37,-546.96 727.26,-534.73 789,-523.71 802.68,-521.27 817.36,-518.6 831.25,-516.06"/>
<polygon fill="midnightblue" stroke="midnightblue" points="831.99,-519.48 841.19,-514.23 830.72,-512.59 831.99,-519.48"/>
</g>
<!-- Node22&#45;&gt;Node5 -->
<g id="edge29" class="edge">
<title>Node22&#45;&gt;Node5</title>
<path fill="none" stroke="midnightblue" d="M577.35,-489.7C596.75,-478.05 624.45,-461.62 649,-447.71 710.6,-412.81 730.94,-412.23 789,-371.71 819.1,-350.7 850.29,-322.2 870.46,-302.72"/>
<polygon fill="midnightblue" stroke="midnightblue" points="872.91,-305.22 877.62,-295.73 868.02,-300.21 872.91,-305.22"/>
</g>
<!-- Node22&#45;&gt;Node6 -->
<g id="edge25" class="edge">
<title>Node22&#45;&gt;Node6</title>
<path fill="none" stroke="midnightblue" d="M588.58,-519.8C665.29,-549.24 846.93,-604.74 962,-523.71 1033.85,-473.12 1046.67,-357.43 1048.74,-306.08"/>
<polygon fill="midnightblue" stroke="midnightblue" points="1052.25,-305.96 1049.04,-295.86 1045.25,-305.75 1052.25,-305.96"/>
</g>
<!-- Node23 -->
<g id="node23" class="node">
<title>Node23</title>
<g id="a_node23"><a xlink:href="namespaceinter__module.html#a63ff1c6e223efc802d231f8b0b354a22" target="_top" xlink:title="Cubic interpolate on 2&#45;Dimensional grid.">
<polygon fill="white" stroke="black" points="655.5,-457.21 655.5,-476.21 782.5,-476.21 782.5,-457.21 655.5,-457.21"/>
<text text-anchor="middle" x="719" y="-464.21" font-family="Helvetica,sans-Serif" font-size="10.00">inter_module::cubinter_2d</text>
</a>
</g>
</g>
<!-- Node22&#45;&gt;Node23 -->
<g id="edge22" class="edge">
<title>Node22&#45;&gt;Node23</title>
<path fill="none" stroke="midnightblue" d="M608.07,-491.95C627.01,-487.6 648.1,-482.76 666.69,-478.49"/>
<polygon fill="midnightblue" stroke="midnightblue" points="667.49,-481.9 676.45,-476.25 665.92,-475.08 667.49,-481.9"/>
</g>
<!-- Node24 -->
<g id="node24" class="node">
<title>Node24</title>
<g id="a_node24"><a xlink:href="namespaceinter__module.html#a926757c13b25424fa6d751c645dfa6dc" target="_top" xlink:title="Interpolate linearly on 2 Dimensional grid.">
<polygon fill="white" stroke="black" points="658.5,-495.21 658.5,-514.21 779.5,-514.21 779.5,-495.21 658.5,-495.21"/>
<text text-anchor="middle" x="719" y="-502.21" font-family="Helvetica,sans-Serif" font-size="10.00">inter_module::lininter_2d</text>
</a>
</g>
</g>
<!-- Node22&#45;&gt;Node24 -->
<g id="edge26" class="edge">
<title>Node22&#45;&gt;Node24</title>
<path fill="none" stroke="midnightblue" d="M608.07,-504.71C620.94,-504.71 634.8,-504.71 648.19,-504.71"/>
<polygon fill="midnightblue" stroke="midnightblue" points="648.32,-508.21 658.32,-504.71 648.32,-501.21 648.32,-508.21"/>
</g>
<!-- Node23&#45;&gt;Node5 -->
<g id="edge24" class="edge">
<title>Node23&#45;&gt;Node5</title>
<path fill="none" stroke="midnightblue" d="M761.71,-457.19C771.31,-453.7 781.04,-449 789,-442.71 835.96,-405.62 867.91,-341.01 882.84,-305.63"/>
<polygon fill="midnightblue" stroke="midnightblue" points="886.21,-306.64 886.76,-296.06 879.73,-303.99 886.21,-306.64"/>
</g>
<!-- Node23&#45;&gt;Node21 -->
<g id="edge23" class="edge">
<title>Node23&#45;&gt;Node21</title>
<path fill="none" stroke="midnightblue" d="M763.53,-476.3C786.6,-481.38 815.13,-487.66 839.48,-493.03"/>
<polygon fill="midnightblue" stroke="midnightblue" points="838.77,-496.45 849.28,-495.19 840.27,-489.62 838.77,-496.45"/>
</g>
<!-- Node24&#45;&gt;Node5 -->
<g id="edge28" class="edge">
<title>Node24&#45;&gt;Node5</title>
<path fill="none" stroke="midnightblue" d="M773.14,-495.09C778.85,-492.64 784.29,-489.56 789,-485.71 847.3,-437.98 875.93,-349 886.92,-305.69"/>
<polygon fill="midnightblue" stroke="midnightblue" points="890.39,-306.25 889.34,-295.71 883.58,-304.6 890.39,-306.25"/>
</g>
<!-- Node24&#45;&gt;Node21 -->
<g id="edge27" class="edge">
<title>Node24&#45;&gt;Node21</title>
<path fill="none" stroke="midnightblue" d="M779.85,-504.71C791.06,-504.71 802.94,-504.71 814.6,-504.71"/>
<polygon fill="midnightblue" stroke="midnightblue" points="814.78,-508.21 824.78,-504.71 814.78,-501.21 814.78,-508.21"/>
</g>
<!-- Node25&#45;&gt;Node5 -->
<g id="edge36" class="edge">
<title>Node25&#45;&gt;Node5</title>
<path fill="none" stroke="midnightblue" d="M416.77,-330.01C428.72,-327.1 442.68,-322.57 454,-315.71 473.62,-303.82 470.29,-290.45 490,-278.71 553.09,-241.11 576.25,-243.8 649,-233.71 710.63,-225.15 728.19,-220.55 789,-233.71 813.31,-238.97 838.77,-250.44 858.36,-260.74"/>
<polygon fill="midnightblue" stroke="midnightblue" points="856.73,-263.84 867.19,-265.51 860.06,-257.68 856.73,-263.84"/>
</g>
<!-- Node25&#45;&gt;Node26 -->
<g id="edge31" class="edge">
<title>Node25&#45;&gt;Node26</title>
<path fill="none" stroke="midnightblue" d="M416.59,-332.59C429.36,-330.27 444.09,-325.49 454,-315.71 492.11,-278.08 464.59,-247.85 490,-200.71 500.14,-181.9 515.38,-163.3 528.03,-149.45"/>
<polygon fill="midnightblue" stroke="midnightblue" points="530.83,-151.57 535.11,-141.88 525.73,-146.78 530.83,-151.57"/>
</g>
<!-- Node27 -->
<g id="node27" class="node">
<title>Node27</title>
<g id="a_node27"><a xlink:href="namespacefile__handling__class.html#aab870caaf9cbaaf635d537708efbf793" target="_top" xlink:title="Same for reading (input file)">
<polygon fill="white" stroke="black" points="502.5,-287.71 502.5,-317.71 600.5,-317.71 600.5,-287.71 502.5,-287.71"/>
<text text-anchor="start" x="510.5" y="-305.71" font-family="Helvetica,sans-Serif" font-size="10.00">file_handling_class</text>
<text text-anchor="middle" x="551.5" y="-294.71" font-family="Helvetica,sans-Serif" font-size="10.00">::open_infile</text>
</a>
</g>
</g>
<!-- Node25&#45;&gt;Node27 -->
<g id="edge32" class="edge">
<title>Node25&#45;&gt;Node27</title>
<path fill="none" stroke="midnightblue" d="M416.56,-329.5C437.04,-325.4 466.35,-319.54 492.34,-314.34"/>
<polygon fill="midnightblue" stroke="midnightblue" points="493.36,-317.71 502.48,-312.31 491.99,-310.84 493.36,-317.71"/>
</g>
<!-- Node27&#45;&gt;Node5 -->
<g id="edge35" class="edge">
<title>Node27&#45;&gt;Node5</title>
<path fill="none" stroke="midnightblue" d="M600.85,-299.58C659.85,-295.76 759.89,-289.29 826.08,-285.01"/>
<polygon fill="midnightblue" stroke="midnightblue" points="826.64,-288.48 836.4,-284.34 826.19,-281.49 826.64,-288.48"/>
</g>
<!-- Node28 -->
<g id="node28" class="node">
<title>Node28</title>
<g id="a_node28"><a xlink:href="namespacefile__handling__class.html#af02196bd5eaf70ecd5ab4cc650094d5e" target="_top" xlink:title="Finds the next unused unit number.">
<polygon fill="white" stroke="black" points="670,-243.71 670,-273.71 768,-273.71 768,-243.71 670,-243.71"/>
<text text-anchor="start" x="678" y="-261.71" font-family="Helvetica,sans-Serif" font-size="10.00">file_handling_class</text>
<text text-anchor="middle" x="719" y="-250.71" font-family="Helvetica,sans-Serif" font-size="10.00">::get_next_io_unit</text>
</a>
</g>
</g>
<!-- Node27&#45;&gt;Node28 -->
<g id="edge33" class="edge">
<title>Node27&#45;&gt;Node28</title>
<path fill="none" stroke="midnightblue" d="M600.81,-289.86C619.34,-284.94 640.67,-279.27 660,-274.13"/>
<polygon fill="midnightblue" stroke="midnightblue" points="661.15,-277.44 669.91,-271.49 659.35,-270.68 661.15,-277.44"/>
</g>
<!-- Node28&#45;&gt;Node5 -->
<g id="edge34" class="edge">
<title>Node28&#45;&gt;Node5</title>
<path fill="none" stroke="midnightblue" d="M768.05,-264.84C786.13,-267.14 807.02,-269.81 826.46,-272.29"/>
<polygon fill="midnightblue" stroke="midnightblue" points="826.11,-275.77 836.47,-273.56 826.99,-268.83 826.11,-275.77"/>
</g>
<!-- Node33 -->
<g id="node33" class="node">
<title>Node33</title>
<g id="a_node33"><a xlink:href="namespacenucstuff__class.html#a5fa1f79d38fd5b01a5d6d797fea0132d" target="_top" xlink:title="Get number of reactants of the reaction based on the reaclib chapter.">
<polygon fill="white" stroke="black" points="670,-32.71 670,-62.71 768,-62.71 768,-32.71 670,-32.71"/>
<text text-anchor="start" x="678" y="-50.71" font-family="Helvetica,sans-Serif" font-size="10.00">nucstuff_class::get</text>
<text text-anchor="middle" x="719" y="-39.71" font-family="Helvetica,sans-Serif" font-size="10.00">_nr_reactants</text>
</a>
</g>
</g>
<!-- Node32&#45;&gt;Node33 -->
<g id="edge47" class="edge">
<title>Node32&#45;&gt;Node33</title>
<path fill="none" stroke="midnightblue" d="M289.13,-45.09C384.48,-45.67 566.5,-46.78 659.76,-47.35"/>
<polygon fill="midnightblue" stroke="midnightblue" points="659.84,-50.85 669.86,-47.41 659.89,-43.85 659.84,-50.85"/>
</g>
<!-- Node33&#45;&gt;Node5 -->
<g id="edge49" class="edge">
<title>Node33&#45;&gt;Node5</title>
<path fill="none" stroke="midnightblue" d="M766.87,-62.82C774.86,-66.8 782.62,-71.71 789,-77.71 792.6,-81.1 853.78,-203.15 880.35,-256.34"/>
<polygon fill="midnightblue" stroke="midnightblue" points="877.28,-258.04 884.88,-265.43 883.55,-254.92 877.28,-258.04"/>
</g>
<!-- Node33&#45;&gt;Node6 -->
<g id="edge48" class="edge">
<title>Node33&#45;&gt;Node6</title>
<path fill="none" stroke="midnightblue" d="M759.54,-62.86C769.41,-67.19 779.79,-72.23 789,-77.71 882.83,-133.51 981.09,-218.77 1025.16,-258.68"/>
<polygon fill="midnightblue" stroke="midnightblue" points="1022.99,-261.44 1032.74,-265.58 1027.7,-256.26 1022.99,-261.44"/>
</g>
</g>
</svg>
