<?xml version="1.0" encoding="UTF-8" standalone="no"?>
<!DOCTYPE svg PUBLIC "-//W3C//DTD SVG 1.1//EN"
 "http://www.w3.org/Graphics/SVG/1.1/DTD/svg11.dtd">
<!-- Generated by graphviz version 2.44.0 ()
 -->
<!-- Title: winnse_module::winnse_calc Pages: 1 -->
<svg width="803pt" height="390pt"
 viewBox="0.00 0.00 803.00 389.56" xmlns="http://www.w3.org/2000/svg" xmlns:xlink="http://www.w3.org/1999/xlink">
<g id="graph0" class="graph" transform="scale(1 1) rotate(0) translate(4 385.56)">
<title>winnse_module::winnse_calc</title>
<polygon fill="white" stroke="transparent" points="-4,4 -4,-385.56 799,-385.56 799,4 -4,4"/>
<!-- Node1 -->
<g id="node1" class="node">
<title>Node1</title>
<g id="a_node1"><a xlink:title="Solves the nse&#45;equations.">
<polygon fill="#bfbfbf" stroke="black" points="0,-225.5 0,-244.5 143,-244.5 143,-225.5 0,-225.5"/>
<text text-anchor="middle" x="71.5" y="-232.5" font-family="Helvetica,sans-Serif" font-size="10.00">winnse_module::winnse_calc</text>
</a>
</g>
</g>
<!-- Node2 -->
<g id="node2" class="node">
<title>Node2</title>
<g id="a_node2"><a xlink:href="namespaceerror__msg__class.html#a7e065585cc806a5c264de1f088266498" target="_top" xlink:title="Converts a given integer to a string.">
<polygon fill="white" stroke="black" points="527,-333 527,-363 631,-363 631,-333 527,-333"/>
<text text-anchor="start" x="535" y="-351" font-family="Helvetica,sans-Serif" font-size="10.00">error_msg_class::int</text>
<text text-anchor="middle" x="579" y="-340" font-family="Helvetica,sans-Serif" font-size="10.00">_to_str</text>
</a>
</g>
</g>
<!-- Node1&#45;&gt;Node2 -->
<g id="edge1" class="edge">
<title>Node1&#45;&gt;Node2</title>
<path fill="none" stroke="midnightblue" d="M83.31,-244.62C101.82,-260.7 141.24,-293.32 179,-314 243.65,-349.4 261.5,-359.67 334,-373 402.63,-385.62 421.9,-382.73 491,-373 502.08,-371.44 513.73,-368.81 524.77,-365.83"/>
<polygon fill="midnightblue" stroke="midnightblue" points="526.04,-369.11 534.7,-363.02 524.13,-362.38 526.04,-369.11"/>
</g>
<!-- Node3 -->
<g id="node3" class="node">
<title>Node3</title>
<g id="a_node3"><a xlink:href="namespacewinnse__module.html#ab51d55fb32259605b02d665c4bfb979b" target="_top" xlink:title="Calls screening subroutine and adds subsequent proton capture screening corrections in scrn(1:zmax).">
<polygon fill="white" stroke="black" points="360.5,-196 360.5,-226 464.5,-226 464.5,-196 360.5,-196"/>
<text text-anchor="start" x="368.5" y="-214" font-family="Helvetica,sans-Serif" font-size="10.00">winnse_module::nse</text>
<text text-anchor="middle" x="412.5" y="-203" font-family="Helvetica,sans-Serif" font-size="10.00">_screen</text>
</a>
</g>
</g>
<!-- Node1&#45;&gt;Node3 -->
<g id="edge2" class="edge">
<title>Node1&#45;&gt;Node3</title>
<path fill="none" stroke="midnightblue" d="M143.15,-230C204.29,-225.67 291.81,-219.47 350.08,-215.35"/>
<polygon fill="midnightblue" stroke="midnightblue" points="350.52,-218.83 360.25,-214.63 350.03,-211.84 350.52,-218.83"/>
</g>
<!-- Node4 -->
<g id="node4" class="node">
<title>Node4</title>
<g id="a_node4"><a xlink:href="namespaceerror__msg__class.html#a2453d3b7cb363115c046840baa1dfb75" target="_top" xlink:title="Raise a exception with a given error message.">
<polygon fill="white" stroke="black" points="355.5,-333 355.5,-363 469.5,-363 469.5,-333 355.5,-333"/>
<text text-anchor="start" x="363.5" y="-351" font-family="Helvetica,sans-Serif" font-size="10.00">error_msg_class::raise</text>
<text text-anchor="middle" x="412.5" y="-340" font-family="Helvetica,sans-Serif" font-size="10.00">_exception</text>
</a>
</g>
</g>
<!-- Node1&#45;&gt;Node4 -->
<g id="edge3" class="edge">
<title>Node1&#45;&gt;Node4</title>
<path fill="none" stroke="midnightblue" d="M91.38,-244.56C112.39,-254.95 147.54,-271.59 179,-283 234.17,-303.02 298.56,-320.58 345.57,-332.39"/>
<polygon fill="midnightblue" stroke="midnightblue" points="344.77,-335.8 355.32,-334.82 346.47,-329.01 344.77,-335.8"/>
</g>
<!-- Node5 -->
<g id="node5" class="node">
<title>Node5</title>
<g id="a_node5"><a xlink:href="namespacewinnse__module.html#a7f059289a0c97c6be525337bfd649af9" target="_top" xlink:title="Calculates the nse coefficients C, as given in Hix,Thielemann &#39;99, Eq.25.">
<polygon fill="white" stroke="black" points="338.5,-157.5 338.5,-176.5 486.5,-176.5 486.5,-157.5 338.5,-157.5"/>
<text text-anchor="middle" x="412.5" y="-164.5" font-family="Helvetica,sans-Serif" font-size="10.00">winnse_module::wincnse_calc</text>
</a>
</g>
</g>
<!-- Node1&#45;&gt;Node5 -->
<g id="edge5" class="edge">
<title>Node1&#45;&gt;Node5</title>
<path fill="none" stroke="midnightblue" d="M119.99,-225.47C181.44,-213.15 288.38,-191.7 354.25,-178.48"/>
<polygon fill="midnightblue" stroke="midnightblue" points="354.94,-181.92 364.06,-176.52 353.56,-175.05 354.94,-181.92"/>
</g>
<!-- Node7 -->
<g id="node7" class="node">
<title>Node7</title>
<g id="a_node7"><a xlink:href="namespacewinnse__module.html#a72eefa0ccd8f0859c0019d2d18fad155" target="_top" xlink:title="Solves the nse&#45;equations using the Powell hybrid method.">
<polygon fill="white" stroke="black" points="179,-111 179,-141 298,-141 298,-111 179,-111"/>
<text text-anchor="start" x="187" y="-129" font-family="Helvetica,sans-Serif" font-size="10.00">winnse_module::winnse</text>
<text text-anchor="middle" x="238.5" y="-118" font-family="Helvetica,sans-Serif" font-size="10.00">_calc_hybrid_powell</text>
</a>
</g>
</g>
<!-- Node1&#45;&gt;Node7 -->
<g id="edge7" class="edge">
<title>Node1&#45;&gt;Node7</title>
<path fill="none" stroke="midnightblue" d="M85.37,-225.39C105.14,-210.75 144.35,-182.21 179,-160 186.25,-155.35 194.15,-150.58 201.72,-146.13"/>
<polygon fill="midnightblue" stroke="midnightblue" points="203.52,-149.14 210.41,-141.09 200.01,-143.08 203.52,-149.14"/>
</g>
<!-- Node18 -->
<g id="node18" class="node">
<title>Node18</title>
<g id="a_node18"><a xlink:href="namespacewinnse__module.html#a1789147c5a6bde2c78d2bdee255a44b8" target="_top" xlink:title="Solves the nse&#45;equations using a 2&#45;dimensional newton&#45;raphson scheme.">
<polygon fill="white" stroke="black" points="179,-243 179,-273 298,-273 298,-243 179,-243"/>
<text text-anchor="start" x="187" y="-261" font-family="Helvetica,sans-Serif" font-size="10.00">winnse_module::winnse</text>
<text text-anchor="middle" x="238.5" y="-250" font-family="Helvetica,sans-Serif" font-size="10.00">_calc_nr</text>
</a>
</g>
</g>
<!-- Node1&#45;&gt;Node18 -->
<g id="edge20" class="edge">
<title>Node1&#45;&gt;Node18</title>
<path fill="none" stroke="midnightblue" d="M141.04,-244.55C150.18,-245.83 159.55,-247.13 168.69,-248.41"/>
<polygon fill="midnightblue" stroke="midnightblue" points="168.5,-251.91 178.88,-249.83 169.46,-244.98 168.5,-251.91"/>
</g>
<!-- Node4&#45;&gt;Node2 -->
<g id="edge4" class="edge">
<title>Node4&#45;&gt;Node2</title>
<path fill="none" stroke="midnightblue" d="M469.65,-348C484.7,-348 501.05,-348 516.38,-348"/>
<polygon fill="midnightblue" stroke="midnightblue" points="516.8,-351.5 526.8,-348 516.8,-344.5 516.8,-351.5"/>
</g>
<!-- Node6 -->
<g id="node6" class="node">
<title>Node6</title>
<g id="a_node6"><a xlink:href="namespacenucstuff__class.html#a7f6b5ddec08f9564638a58091e6940d7" target="_top" xlink:title="Calculates partition function.">
<polygon fill="white" stroke="black" points="527.5,-153 527.5,-183 630.5,-183 630.5,-153 527.5,-153"/>
<text text-anchor="start" x="535.5" y="-171" font-family="Helvetica,sans-Serif" font-size="10.00">nucstuff_class::inter</text>
<text text-anchor="middle" x="579" y="-160" font-family="Helvetica,sans-Serif" font-size="10.00">_partf</text>
</a>
</g>
</g>
<!-- Node5&#45;&gt;Node6 -->
<g id="edge6" class="edge">
<title>Node5&#45;&gt;Node6</title>
<path fill="none" stroke="midnightblue" d="M486.61,-167.44C496.8,-167.51 507.18,-167.57 517.11,-167.63"/>
<polygon fill="midnightblue" stroke="midnightblue" points="517.25,-171.13 527.27,-167.69 517.3,-164.13 517.25,-171.13"/>
</g>
<!-- Node8 -->
<g id="node8" class="node">
<title>Node8</title>
<g id="a_node8"><a xlink:href="fsolve_8f90.html#ad671f9a8a86626f13d0db91642c1ac9e" target="_top" xlink:title=" ">
<polygon fill="white" stroke="black" points="391,-116.5 391,-135.5 434,-135.5 434,-116.5 391,-116.5"/>
<text text-anchor="middle" x="412.5" y="-123.5" font-family="Helvetica,sans-Serif" font-size="10.00">fsolve</text>
</a>
</g>
</g>
<!-- Node7&#45;&gt;Node8 -->
<g id="edge8" class="edge">
<title>Node7&#45;&gt;Node8</title>
<path fill="none" stroke="midnightblue" d="M298.21,-126C325.94,-126 357.88,-126 380.77,-126"/>
<polygon fill="midnightblue" stroke="midnightblue" points="380.91,-129.5 390.91,-126 380.91,-122.5 380.91,-129.5"/>
</g>
<!-- Node17 -->
<g id="node17" class="node">
<title>Node17</title>
<g id="a_node17"><a xlink:href="winnse__module_8f90.html#a76b0f9d4a7d2b6b5cfe01d69af969c0d" target="_top" xlink:title="Determines the mass and charge conservation for the NSE calculation.">
<polygon fill="white" stroke="black" points="334,-78.5 334,-97.5 491,-97.5 491,-78.5 334,-78.5"/>
<text text-anchor="middle" x="412.5" y="-85.5" font-family="Helvetica,sans-Serif" font-size="10.00">mass_and_charge_conservation</text>
</a>
</g>
</g>
<!-- Node7&#45;&gt;Node17 -->
<g id="edge19" class="edge">
<title>Node7&#45;&gt;Node17</title>
<path fill="none" stroke="midnightblue" d="M298.21,-113.03C317.68,-108.73 339.23,-103.97 358.26,-99.76"/>
<polygon fill="midnightblue" stroke="midnightblue" points="359.24,-103.13 368.25,-97.55 357.73,-96.29 359.24,-103.13"/>
</g>
<!-- Node9 -->
<g id="node9" class="node">
<title>Node9</title>
<g id="a_node9"><a xlink:href="fsolve_8f90.html#a9d21cb00f8d0421a74dc05aebe71203a" target="_top" xlink:title=" ">
<polygon fill="white" stroke="black" points="559,-114.5 559,-133.5 599,-133.5 599,-114.5 559,-114.5"/>
<text text-anchor="middle" x="579" y="-121.5" font-family="Helvetica,sans-Serif" font-size="10.00">hybrd</text>
</a>
</g>
</g>
<!-- Node8&#45;&gt;Node9 -->
<g id="edge9" class="edge">
<title>Node8&#45;&gt;Node9</title>
<path fill="none" stroke="midnightblue" d="M434,-125.75C462.79,-125.4 515.35,-124.76 548.38,-124.36"/>
<polygon fill="midnightblue" stroke="midnightblue" points="548.82,-127.86 558.77,-124.23 548.73,-120.86 548.82,-127.86"/>
</g>
<!-- Node10 -->
<g id="node10" class="node">
<title>Node10</title>
<g id="a_node10"><a xlink:href="fsolve_8f90.html#ab5a1319962e4855e0a2b7a7431085275" target="_top" xlink:title=" ">
<polygon fill="white" stroke="black" points="668.5,-190.5 668.5,-209.5 713.5,-209.5 713.5,-190.5 668.5,-190.5"/>
<text text-anchor="middle" x="691" y="-197.5" font-family="Helvetica,sans-Serif" font-size="10.00">dogleg</text>
</a>
</g>
</g>
<!-- Node9&#45;&gt;Node10 -->
<g id="edge10" class="edge">
<title>Node9&#45;&gt;Node10</title>
<path fill="none" stroke="midnightblue" d="M599.35,-129.42C609.3,-132.74 621.34,-137.58 631,-144 650.11,-156.7 650.13,-165.45 667,-181 667.94,-181.87 668.92,-182.75 669.91,-183.63"/>
<polygon fill="midnightblue" stroke="midnightblue" points="667.73,-186.37 677.61,-190.18 672.27,-181.04 667.73,-186.37"/>
</g>
<!-- Node11 -->
<g id="node11" class="node">
<title>Node11</title>
<g id="a_node11"><a xlink:href="fsolve_8f90.html#a07a8827d47eead570957d377e64f7974" target="_top" xlink:title=" ">
<polygon fill="white" stroke="black" points="751,-190.5 751,-209.5 795,-209.5 795,-190.5 751,-190.5"/>
<text text-anchor="middle" x="773" y="-197.5" font-family="Helvetica,sans-Serif" font-size="10.00">enorm</text>
</a>
</g>
</g>
<!-- Node9&#45;&gt;Node11 -->
<g id="edge12" class="edge">
<title>Node9&#45;&gt;Node11</title>
<path fill="none" stroke="midnightblue" d="M599.3,-127.93C609.73,-130.87 622.22,-135.84 631,-144 658.09,-169.16 635.71,-199.31 667,-219 690.9,-234.04 723.57,-224.43 746.09,-214.2"/>
<polygon fill="midnightblue" stroke="midnightblue" points="747.89,-217.21 755.36,-209.69 744.83,-210.91 747.89,-217.21"/>
</g>
<!-- Node12 -->
<g id="node12" class="node">
<title>Node12</title>
<g id="a_node12"><a xlink:href="fsolve_8f90.html#ab8444c326197a29a9f06bb863a1cee4a" target="_top" xlink:title=" ">
<polygon fill="white" stroke="black" points="669.5,-114.5 669.5,-133.5 712.5,-133.5 712.5,-114.5 669.5,-114.5"/>
<text text-anchor="middle" x="691" y="-121.5" font-family="Helvetica,sans-Serif" font-size="10.00">fdjac1</text>
</a>
</g>
</g>
<!-- Node9&#45;&gt;Node12 -->
<g id="edge13" class="edge">
<title>Node9&#45;&gt;Node12</title>
<path fill="none" stroke="midnightblue" d="M599.16,-124C615.68,-124 639.83,-124 659.08,-124"/>
<polygon fill="midnightblue" stroke="midnightblue" points="659.19,-127.5 669.19,-124 659.19,-120.5 659.19,-127.5"/>
</g>
<!-- Node13 -->
<g id="node13" class="node">
<title>Node13</title>
<g id="a_node13"><a xlink:href="fsolve_8f90.html#a12e8db1e181463d5c3af21f2b1b6b5a7" target="_top" xlink:title=" ">
<polygon fill="white" stroke="black" points="670.5,-76.5 670.5,-95.5 711.5,-95.5 711.5,-76.5 670.5,-76.5"/>
<text text-anchor="middle" x="691" y="-83.5" font-family="Helvetica,sans-Serif" font-size="10.00">qform</text>
</a>
</g>
</g>
<!-- Node9&#45;&gt;Node13 -->
<g id="edge14" class="edge">
<title>Node9&#45;&gt;Node13</title>
<path fill="none" stroke="midnightblue" d="M599.16,-117.38C616.14,-111.51 641.2,-102.86 660.7,-96.12"/>
<polygon fill="midnightblue" stroke="midnightblue" points="662.01,-99.37 670.32,-92.8 659.72,-92.76 662.01,-99.37"/>
</g>
<!-- Node14 -->
<g id="node14" class="node">
<title>Node14</title>
<g id="a_node14"><a xlink:href="fsolve_8f90.html#a64d35f73f2a85378c24dd7b99ddb0c0f" target="_top" xlink:title=" ">
<polygon fill="white" stroke="black" points="672,-152.5 672,-171.5 710,-171.5 710,-152.5 672,-152.5"/>
<text text-anchor="middle" x="691" y="-159.5" font-family="Helvetica,sans-Serif" font-size="10.00">qrfac</text>
</a>
</g>
</g>
<!-- Node9&#45;&gt;Node14 -->
<g id="edge15" class="edge">
<title>Node9&#45;&gt;Node14</title>
<path fill="none" stroke="midnightblue" d="M599.16,-130.62C616.56,-136.63 642.44,-145.57 662.13,-152.37"/>
<polygon fill="midnightblue" stroke="midnightblue" points="661.19,-155.75 671.79,-155.71 663.48,-149.14 661.19,-155.75"/>
</g>
<!-- Node15 -->
<g id="node15" class="node">
<title>Node15</title>
<g id="a_node15"><a xlink:href="fsolve_8f90.html#ab7f6e61d92cfd9ea516435ad523b989b" target="_top" xlink:title=" ">
<polygon fill="white" stroke="black" points="667,-38.5 667,-57.5 715,-57.5 715,-38.5 667,-38.5"/>
<text text-anchor="middle" x="691" y="-45.5" font-family="Helvetica,sans-Serif" font-size="10.00">r1mpyq</text>
</a>
</g>
</g>
<!-- Node9&#45;&gt;Node15 -->
<g id="edge17" class="edge">
<title>Node9&#45;&gt;Node15</title>
<path fill="none" stroke="midnightblue" d="M593.93,-114.37C612.53,-101.53 645.68,-78.62 667.75,-63.37"/>
<polygon fill="midnightblue" stroke="midnightblue" points="669.94,-66.11 676.18,-57.55 665.96,-60.35 669.94,-66.11"/>
</g>
<!-- Node16 -->
<g id="node16" class="node">
<title>Node16</title>
<g id="a_node16"><a xlink:href="fsolve_8f90.html#a8ff726029b3ff9037b390910744ee58b" target="_top" xlink:title=" ">
<polygon fill="white" stroke="black" points="669,-0.5 669,-19.5 713,-19.5 713,-0.5 669,-0.5"/>
<text text-anchor="middle" x="691" y="-7.5" font-family="Helvetica,sans-Serif" font-size="10.00">r1updt</text>
</a>
</g>
</g>
<!-- Node9&#45;&gt;Node16 -->
<g id="edge18" class="edge">
<title>Node9&#45;&gt;Node16</title>
<path fill="none" stroke="midnightblue" d="M587.99,-114.43C602.85,-96.82 636.03,-58.42 667,-29 667.93,-28.12 668.89,-27.23 669.88,-26.34"/>
<polygon fill="midnightblue" stroke="midnightblue" points="672.25,-28.92 677.55,-19.75 667.69,-23.61 672.25,-28.92"/>
</g>
<!-- Node10&#45;&gt;Node11 -->
<g id="edge11" class="edge">
<title>Node10&#45;&gt;Node11</title>
<path fill="none" stroke="midnightblue" d="M713.86,-200C722.17,-200 731.81,-200 740.82,-200"/>
<polygon fill="midnightblue" stroke="midnightblue" points="740.99,-203.5 750.99,-200 740.99,-196.5 740.99,-203.5"/>
</g>
<!-- Node14&#45;&gt;Node11 -->
<g id="edge16" class="edge">
<title>Node14&#45;&gt;Node11</title>
<path fill="none" stroke="midnightblue" d="M710.15,-170.62C719.78,-175.2 731.84,-180.93 742.75,-186.11"/>
<polygon fill="midnightblue" stroke="midnightblue" points="741.42,-189.35 751.95,-190.48 744.42,-183.03 741.42,-189.35"/>
</g>
<!-- Node18&#45;&gt;Node2 -->
<g id="edge21" class="edge">
<title>Node18&#45;&gt;Node2</title>
<path fill="none" stroke="midnightblue" d="M290.91,-273.04C304.86,-277.03 319.99,-281.26 334,-285 403.47,-303.55 421.45,-305.77 491,-324 499.48,-326.22 508.41,-328.62 517.18,-331.01"/>
<polygon fill="midnightblue" stroke="midnightblue" points="516.43,-334.43 527,-333.69 518.27,-327.68 516.43,-334.43"/>
</g>
<!-- Node18&#45;&gt;Node3 -->
<g id="edge22" class="edge">
<title>Node18&#45;&gt;Node3</title>
<path fill="none" stroke="midnightblue" d="M294.39,-243C312.31,-238.1 332.31,-232.64 350.64,-227.63"/>
<polygon fill="midnightblue" stroke="midnightblue" points="351.62,-230.99 360.34,-224.98 349.77,-224.24 351.62,-230.99"/>
</g>
<!-- Node18&#45;&gt;Node4 -->
<g id="edge24" class="edge">
<title>Node18&#45;&gt;Node4</title>
<path fill="none" stroke="midnightblue" d="M260.56,-273.07C279.26,-286.03 307.63,-304.69 334,-318 341.86,-321.97 350.38,-325.75 358.79,-329.21"/>
<polygon fill="midnightblue" stroke="midnightblue" points="357.62,-332.51 368.21,-332.97 360.22,-326.01 357.62,-332.51"/>
</g>
<!-- Node18&#45;&gt;Node5 -->
<g id="edge25" class="edge">
<title>Node18&#45;&gt;Node5</title>
<path fill="none" stroke="midnightblue" d="M255.59,-242.74C273.42,-226.63 303.67,-201.59 334,-187 339.97,-184.13 346.41,-181.63 352.93,-179.47"/>
<polygon fill="midnightblue" stroke="midnightblue" points="353.97,-182.81 362.51,-176.54 351.92,-176.12 353.97,-182.81"/>
</g>
<!-- Node19 -->
<g id="node19" class="node">
<title>Node19</title>
<g id="a_node19"><a xlink:href="namespaceerror__msg__class.html#a5bc9f3b670b725cc43276934b867d801" target="_top" xlink:title="Converts a given real to a string with format &quot;(1pE10.2)&quot;.">
<polygon fill="white" stroke="black" points="356.5,-245 356.5,-275 468.5,-275 468.5,-245 356.5,-245"/>
<text text-anchor="start" x="364.5" y="-263" font-family="Helvetica,sans-Serif" font-size="10.00">error_msg_class::num</text>
<text text-anchor="middle" x="412.5" y="-252" font-family="Helvetica,sans-Serif" font-size="10.00">_to_str</text>
</a>
</g>
</g>
<!-- Node18&#45;&gt;Node19 -->
<g id="edge23" class="edge">
<title>Node18&#45;&gt;Node19</title>
<path fill="none" stroke="midnightblue" d="M298.21,-258.68C313.62,-258.86 330.33,-259.06 346.07,-259.24"/>
<polygon fill="midnightblue" stroke="midnightblue" points="346.2,-262.74 356.24,-259.36 346.28,-255.74 346.2,-262.74"/>
</g>
</g>
</svg>
