<?xml version="1.0" encoding="UTF-8" standalone="no"?>
<!DOCTYPE svg PUBLIC "-//W3C//DTD SVG 1.1//EN"
 "http://www.w3.org/Graphics/SVG/1.1/DTD/svg11.dtd">
<!-- Generated by graphviz version 2.44.0 ()
 -->
<!-- Title: ls_timmes_eos_module::timmes_eos_e_bisec Pages: 1 -->
<svg width="622pt" height="161pt"
 viewBox="0.00 0.00 622.00 161.00" xmlns="http://www.w3.org/2000/svg" xmlns:xlink="http://www.w3.org/1999/xlink">
<g id="graph0" class="graph" transform="scale(1 1) rotate(0) translate(4 157)">
<title>ls_timmes_eos_module::timmes_eos_e_bisec</title>
<polygon fill="white" stroke="transparent" points="-4,4 -4,-157 618,-157 618,4 -4,4"/>
<!-- Node1 -->
<g id="node1" class="node">
<title>Node1</title>
<g id="a_node1"><a xlink:title=" ">
<polygon fill="#bfbfbf" stroke="black" points="0,-90 0,-120 119,-120 119,-90 0,-90"/>
<text text-anchor="start" x="8" y="-108" font-family="Helvetica,sans-Serif" font-size="10.00">ls_timmes_eos_module</text>
<text text-anchor="middle" x="59.5" y="-97" font-family="Helvetica,sans-Serif" font-size="10.00">::timmes_eos_e_bisec</text>
</a>
</g>
</g>
<!-- Node2 -->
<g id="node2" class="node">
<title>Node2</title>
<g id="a_node2"><a xlink:href="namespacels__timmes__eos__module.html#a6da1e3b6ba3967536745de1073565b65" target="_top" xlink:title=" ">
<polygon fill="white" stroke="black" points="155,-90 155,-120 274,-120 274,-90 155,-90"/>
<text text-anchor="start" x="163" y="-108" font-family="Helvetica,sans-Serif" font-size="10.00">ls_timmes_eos_module</text>
<text text-anchor="middle" x="214.5" y="-97" font-family="Helvetica,sans-Serif" font-size="10.00">::timmes_eos_interface</text>
</a>
</g>
</g>
<!-- Node1&#45;&gt;Node2 -->
<g id="edge1" class="edge">
<title>Node1&#45;&gt;Node2</title>
<path fill="none" stroke="midnightblue" d="M119.22,-105C127.54,-105 136.17,-105 144.67,-105"/>
<polygon fill="midnightblue" stroke="midnightblue" points="144.94,-108.5 154.94,-105 144.94,-101.5 144.94,-108.5"/>
</g>
<!-- Node3 -->
<g id="node3" class="node">
<title>Node3</title>
<g id="a_node3"><a xlink:href="eosfxt_8f.html#a7472b49a95882a089dc0b8e75b1abbfa" target="_top" xlink:title=" ">
<polygon fill="white" stroke="black" points="310,-95.5 310,-114.5 353,-114.5 353,-95.5 310,-95.5"/>
<text text-anchor="middle" x="331.5" y="-102.5" font-family="Helvetica,sans-Serif" font-size="10.00">eosfxt</text>
</a>
</g>
</g>
<!-- Node2&#45;&gt;Node3 -->
<g id="edge2" class="edge">
<title>Node2&#45;&gt;Node3</title>
<path fill="none" stroke="midnightblue" d="M274.01,-105C282.86,-105 291.68,-105 299.63,-105"/>
<polygon fill="midnightblue" stroke="midnightblue" points="299.84,-108.5 309.84,-105 299.84,-101.5 299.84,-108.5"/>
</g>
<!-- Node4 -->
<g id="node4" class="node">
<title>Node4</title>
<g id="a_node4"><a xlink:href="eosfxt_8f.html#a4dd7b4a9689e75b5ee0f56fcf260b461" target="_top" xlink:title=" ">
<polygon fill="white" stroke="black" points="389,-133.5 389,-152.5 442,-152.5 442,-133.5 389,-133.5"/>
<text text-anchor="middle" x="415.5" y="-140.5" font-family="Helvetica,sans-Serif" font-size="10.00">coulomb</text>
</a>
</g>
</g>
<!-- Node3&#45;&gt;Node4 -->
<g id="edge3" class="edge">
<title>Node3&#45;&gt;Node4</title>
<path fill="none" stroke="midnightblue" d="M353.19,-114.59C362.71,-119 374.18,-124.31 384.61,-129.15"/>
<polygon fill="midnightblue" stroke="midnightblue" points="383.27,-132.38 393.81,-133.41 386.21,-126.03 383.27,-132.38"/>
</g>
<!-- Node6 -->
<g id="node6" class="node">
<title>Node6</title>
<g id="a_node6"><a xlink:href="eosfxt_8f.html#a40e1707c6481e6f394d33c9de7744a80" target="_top" xlink:title=" ">
<polygon fill="white" stroke="black" points="392.5,-95.5 392.5,-114.5 438.5,-114.5 438.5,-95.5 392.5,-95.5"/>
<text text-anchor="middle" x="415.5" y="-102.5" font-family="Helvetica,sans-Serif" font-size="10.00">etages</text>
</a>
</g>
</g>
<!-- Node3&#45;&gt;Node6 -->
<g id="edge5" class="edge">
<title>Node3&#45;&gt;Node6</title>
<path fill="none" stroke="midnightblue" d="M353.19,-105C361.97,-105 372.42,-105 382.17,-105"/>
<polygon fill="midnightblue" stroke="midnightblue" points="382.38,-108.5 392.38,-105 382.38,-101.5 382.38,-108.5"/>
</g>
<!-- Node7 -->
<g id="node7" class="node">
<title>Node7</title>
<g id="a_node7"><a xlink:href="eosfxt_8f.html#ac215ef28344d8bf47b95d146f191fc74" target="_top" xlink:title=" ">
<polygon fill="white" stroke="black" points="391.5,-57.5 391.5,-76.5 439.5,-76.5 439.5,-57.5 391.5,-57.5"/>
<text text-anchor="middle" x="415.5" y="-64.5" font-family="Helvetica,sans-Serif" font-size="10.00">xneroot</text>
</a>
</g>
</g>
<!-- Node3&#45;&gt;Node7 -->
<g id="edge7" class="edge">
<title>Node3&#45;&gt;Node7</title>
<path fill="none" stroke="midnightblue" d="M353.19,-95.41C362.71,-91 374.18,-85.69 384.61,-80.85"/>
<polygon fill="midnightblue" stroke="midnightblue" points="386.21,-83.97 393.81,-76.59 383.27,-77.62 386.21,-83.97"/>
</g>
<!-- Node5 -->
<g id="node5" class="node">
<title>Node5</title>
<g id="a_node5"><a xlink:href="quadpack__module_8f90.html#aada5a652920db442d627f1ca24ff25d7" target="_top" xlink:title="Further information: http://netlib.org/quadpack/index.html https://orion.math.iastate....">
<polygon fill="white" stroke="black" points="485.5,-114.5 485.5,-133.5 514.5,-133.5 514.5,-114.5 485.5,-114.5"/>
<text text-anchor="middle" x="500" y="-121.5" font-family="Helvetica,sans-Serif" font-size="10.00">pi</text>
</a>
</g>
</g>
<!-- Node4&#45;&gt;Node5 -->
<g id="edge4" class="edge">
<title>Node4&#45;&gt;Node5</title>
<path fill="none" stroke="midnightblue" d="M442.15,-137.09C452.68,-134.67 464.81,-131.87 475.14,-129.49"/>
<polygon fill="midnightblue" stroke="midnightblue" points="476.17,-132.85 485.13,-127.19 474.6,-126.03 476.17,-132.85"/>
</g>
<!-- Node6&#45;&gt;Node5 -->
<g id="edge6" class="edge">
<title>Node6&#45;&gt;Node5</title>
<path fill="none" stroke="midnightblue" d="M438.61,-110.09C450.01,-112.72 463.92,-115.92 475.51,-118.59"/>
<polygon fill="midnightblue" stroke="midnightblue" points="474.84,-122.03 485.37,-120.86 476.41,-115.21 474.84,-122.03"/>
</g>
<!-- Node8 -->
<g id="node8" class="node">
<title>Node8</title>
<g id="a_node8"><a xlink:href="eosfxt_8f.html#a5b92245336ba39f5012975d91948205f" target="_top" xlink:title=" ">
<polygon fill="white" stroke="black" points="478,-57.5 478,-76.5 522,-76.5 522,-57.5 478,-57.5"/>
<text text-anchor="middle" x="500" y="-64.5" font-family="Helvetica,sans-Serif" font-size="10.00">dfermi</text>
</a>
</g>
</g>
<!-- Node7&#45;&gt;Node8 -->
<g id="edge8" class="edge">
<title>Node7&#45;&gt;Node8</title>
<path fill="none" stroke="midnightblue" d="M439.92,-67C448.57,-67 458.52,-67 467.76,-67"/>
<polygon fill="midnightblue" stroke="midnightblue" points="467.78,-70.5 477.78,-67 467.78,-63.5 467.78,-70.5"/>
</g>
<!-- Node9 -->
<g id="node9" class="node">
<title>Node9</title>
<g id="a_node9"><a xlink:href="eosfxt_8f.html#abbb1b60c825d972dc00fe1f268f93f86" target="_top" xlink:title=" ">
<polygon fill="white" stroke="black" points="558,-114.5 558,-133.5 614,-133.5 614,-114.5 558,-114.5"/>
<text text-anchor="middle" x="586" y="-121.5" font-family="Helvetica,sans-Serif" font-size="10.00">dqlag020</text>
</a>
</g>
</g>
<!-- Node8&#45;&gt;Node9 -->
<g id="edge9" class="edge">
<title>Node8&#45;&gt;Node9</title>
<path fill="none" stroke="midnightblue" d="M515.25,-76.67C528.12,-85.4 547.28,-98.4 562.26,-108.57"/>
<polygon fill="midnightblue" stroke="midnightblue" points="560.72,-111.75 570.96,-114.47 564.65,-105.96 560.72,-111.75"/>
</g>
<!-- Node10 -->
<g id="node10" class="node">
<title>Node10</title>
<g id="a_node10"><a xlink:href="eosfxt_8f.html#a6cbbc7f07cffb75f5efaf893d547852f" target="_top" xlink:title=" ">
<polygon fill="white" stroke="black" points="558,-76.5 558,-95.5 614,-95.5 614,-76.5 558,-76.5"/>
<text text-anchor="middle" x="586" y="-83.5" font-family="Helvetica,sans-Serif" font-size="10.00">dqleg020</text>
</a>
</g>
</g>
<!-- Node8&#45;&gt;Node10 -->
<g id="edge10" class="edge">
<title>Node8&#45;&gt;Node10</title>
<path fill="none" stroke="midnightblue" d="M522.2,-71.79C530.04,-73.57 539.17,-75.63 548,-77.63"/>
<polygon fill="midnightblue" stroke="midnightblue" points="547.24,-81.05 557.76,-79.84 548.78,-74.22 547.24,-81.05"/>
</g>
<!-- Node11 -->
<g id="node11" class="node">
<title>Node11</title>
<g id="a_node11"><a xlink:href="eosfxt_8f.html#a9d9951640d440972fe5298fdd5d70c10" target="_top" xlink:title=" ">
<polygon fill="white" stroke="black" points="561.5,-38.5 561.5,-57.5 610.5,-57.5 610.5,-38.5 561.5,-38.5"/>
<text text-anchor="middle" x="586" y="-45.5" font-family="Helvetica,sans-Serif" font-size="10.00">fdfunc1</text>
</a>
</g>
</g>
<!-- Node8&#45;&gt;Node11 -->
<g id="edge11" class="edge">
<title>Node8&#45;&gt;Node11</title>
<path fill="none" stroke="midnightblue" d="M522.2,-62.21C531.07,-60.2 541.6,-57.82 551.48,-55.58"/>
<polygon fill="midnightblue" stroke="midnightblue" points="552.46,-58.95 561.44,-53.33 550.91,-52.12 552.46,-58.95"/>
</g>
<!-- Node12 -->
<g id="node12" class="node">
<title>Node12</title>
<g id="a_node12"><a xlink:href="eosfxt_8f.html#ae834089002139b7a18c24a337f6ff90a" target="_top" xlink:title=" ">
<polygon fill="white" stroke="black" points="561.5,-0.5 561.5,-19.5 610.5,-19.5 610.5,-0.5 561.5,-0.5"/>
<text text-anchor="middle" x="586" y="-7.5" font-family="Helvetica,sans-Serif" font-size="10.00">fdfunc2</text>
</a>
</g>
</g>
<!-- Node8&#45;&gt;Node12 -->
<g id="edge12" class="edge">
<title>Node8&#45;&gt;Node12</title>
<path fill="none" stroke="midnightblue" d="M515.25,-57.33C528.12,-48.6 547.28,-35.6 562.26,-25.43"/>
<polygon fill="midnightblue" stroke="midnightblue" points="564.65,-28.04 570.96,-19.53 560.72,-22.25 564.65,-28.04"/>
</g>
</g>
</svg>
