<?xml version="1.0" encoding="UTF-8" standalone="no"?>
<!DOCTYPE svg PUBLIC "-//W3C//DTD SVG 1.1//EN"
 "http://www.w3.org/Graphics/SVG/1.1/DTD/svg11.dtd">
<!-- Generated by graphviz version 2.44.0 ()
 -->
<!-- Title: expansion_module::expansion_init Pages: 1 -->
<svg width="932pt" height="320pt"
 viewBox="0.00 0.00 932.00 320.29" xmlns="http://www.w3.org/2000/svg" xmlns:xlink="http://www.w3.org/1999/xlink">
<g id="graph0" class="graph" transform="scale(1 1) rotate(0) translate(4 316.29)">
<title>expansion_module::expansion_init</title>
<polygon fill="white" stroke="transparent" points="-4,4 -4,-316.29 928,-316.29 928,4 -4,4"/>
<!-- Node1 -->
<g id="node1" class="node">
<title>Node1</title>
<g id="a_node1"><a xlink:title="Initialize the expansion module and open files for debugging.">
<polygon fill="#bfbfbf" stroke="black" points="0,-235.79 0,-254.79 163,-254.79 163,-235.79 0,-235.79"/>
<text text-anchor="middle" x="81.5" y="-242.79" font-family="Helvetica,sans-Serif" font-size="10.00">expansion_module::expansion_init</text>
</a>
</g>
</g>
<!-- Node2 -->
<g id="node2" class="node">
<title>Node2</title>
<g id="a_node2"><a xlink:href="namespaceerror__msg__class.html#a7e065585cc806a5c264de1f088266498" target="_top" xlink:title="Converts a given integer to a string.">
<polygon fill="white" stroke="black" points="820,-193.29 820,-223.29 924,-223.29 924,-193.29 820,-193.29"/>
<text text-anchor="start" x="828" y="-211.29" font-family="Helvetica,sans-Serif" font-size="10.00">error_msg_class::int</text>
<text text-anchor="middle" x="872" y="-200.29" font-family="Helvetica,sans-Serif" font-size="10.00">_to_str</text>
</a>
</g>
</g>
<!-- Node1&#45;&gt;Node2 -->
<g id="edge1" class="edge">
<title>Node1&#45;&gt;Node2</title>
<path fill="none" stroke="midnightblue" d="M106.64,-254.95C129.92,-263.89 166.34,-276.88 199,-284.29 298.14,-306.76 324.35,-312.29 426,-312.29 426,-312.29 426,-312.29 578,-312.29 677.04,-312.29 784.63,-258.86 837.63,-228.59"/>
<polygon fill="midnightblue" stroke="midnightblue" points="839.68,-231.45 846.57,-223.41 836.17,-225.4 839.68,-231.45"/>
</g>
<!-- Node3 -->
<g id="node3" class="node">
<title>Node3</title>
<g id="a_node3"><a xlink:href="namespacefile__handling__class.html#aeddf55e8478d6220dc04310665427c3a" target="_top" xlink:title="Shorthand for opening a new file for writing (output file)">
<polygon fill="white" stroke="black" points="378,-196.29 378,-226.29 476,-226.29 476,-196.29 378,-196.29"/>
<text text-anchor="start" x="386" y="-214.29" font-family="Helvetica,sans-Serif" font-size="10.00">file_handling_class</text>
<text text-anchor="middle" x="427" y="-203.29" font-family="Helvetica,sans-Serif" font-size="10.00">::open_outfile</text>
</a>
</g>
</g>
<!-- Node1&#45;&gt;Node3 -->
<g id="edge2" class="edge">
<title>Node1&#45;&gt;Node3</title>
<path fill="none" stroke="midnightblue" d="M163.04,-237.31C225.76,-231.11 311.35,-222.63 367.61,-217.06"/>
<polygon fill="midnightblue" stroke="midnightblue" points="368.16,-220.53 377.76,-216.06 367.47,-213.56 368.16,-220.53"/>
</g>
<!-- Node5 -->
<g id="node5" class="node">
<title>Node5</title>
<g id="a_node5"><a xlink:href="namespaceerror__msg__class.html#a2453d3b7cb363115c046840baa1dfb75" target="_top" xlink:title="Raise a exception with a given error message.">
<polygon fill="white" stroke="black" points="670,-193.29 670,-223.29 784,-223.29 784,-193.29 670,-193.29"/>
<text text-anchor="start" x="678" y="-211.29" font-family="Helvetica,sans-Serif" font-size="10.00">error_msg_class::raise</text>
<text text-anchor="middle" x="727" y="-200.29" font-family="Helvetica,sans-Serif" font-size="10.00">_exception</text>
</a>
</g>
</g>
<!-- Node1&#45;&gt;Node5 -->
<g id="edge7" class="edge">
<title>Node1&#45;&gt;Node5</title>
<path fill="none" stroke="midnightblue" d="M134.38,-254.79C233.25,-271.03 454.77,-298.41 634,-255.29 655.48,-250.12 677.59,-239.04 694.75,-228.94"/>
<polygon fill="midnightblue" stroke="midnightblue" points="697.02,-231.66 703.74,-223.47 693.38,-225.68 697.02,-231.66"/>
</g>
<!-- Node6 -->
<g id="node6" class="node">
<title>Node6</title>
<g id="a_node6"><a xlink:href="namespaceexpansion__module.html#a78266dda4dfcaa5d9309c8b7fa8046fd" target="_top" xlink:title="Calculates the velocity for trajectory extrapolation by linear regression on a few last points; the n...">
<polygon fill="white" stroke="black" points="199,-111.29 199,-141.29 334,-141.29 334,-111.29 199,-111.29"/>
<text text-anchor="start" x="207" y="-129.29" font-family="Helvetica,sans-Serif" font-size="10.00">expansion_module::residual</text>
<text text-anchor="middle" x="266.5" y="-118.29" font-family="Helvetica,sans-Serif" font-size="10.00">_expansion</text>
</a>
</g>
</g>
<!-- Node1&#45;&gt;Node6 -->
<g id="edge8" class="edge">
<title>Node1&#45;&gt;Node6</title>
<path fill="none" stroke="midnightblue" d="M97.17,-235.75C126.66,-216.57 193.73,-172.96 233.73,-146.94"/>
<polygon fill="midnightblue" stroke="midnightblue" points="235.84,-149.75 242.32,-141.36 232.03,-143.88 235.84,-149.75"/>
</g>
<!-- Node4 -->
<g id="node4" class="node">
<title>Node4</title>
<g id="a_node4"><a xlink:href="namespacefile__handling__class.html#af02196bd5eaf70ecd5ab4cc650094d5e" target="_top" xlink:title="Finds the next unused unit number.">
<polygon fill="white" stroke="black" points="528,-215.29 528,-245.29 626,-245.29 626,-215.29 528,-215.29"/>
<text text-anchor="start" x="536" y="-233.29" font-family="Helvetica,sans-Serif" font-size="10.00">file_handling_class</text>
<text text-anchor="middle" x="577" y="-222.29" font-family="Helvetica,sans-Serif" font-size="10.00">::get_next_io_unit</text>
</a>
</g>
</g>
<!-- Node3&#45;&gt;Node4 -->
<g id="edge3" class="edge">
<title>Node3&#45;&gt;Node4</title>
<path fill="none" stroke="midnightblue" d="M476.05,-217.45C489.43,-219.17 504.11,-221.06 517.99,-222.84"/>
<polygon fill="midnightblue" stroke="midnightblue" points="517.57,-226.31 527.94,-224.12 518.46,-219.37 517.57,-226.31"/>
</g>
<!-- Node3&#45;&gt;Node5 -->
<g id="edge6" class="edge">
<title>Node3&#45;&gt;Node5</title>
<path fill="none" stroke="midnightblue" d="M476.2,-208.17C490.31,-207.39 505.77,-206.67 520,-206.29 566.54,-205.02 619.01,-205.56 659.35,-206.39"/>
<polygon fill="midnightblue" stroke="midnightblue" points="659.52,-209.9 669.6,-206.62 659.67,-202.9 659.52,-209.9"/>
</g>
<!-- Node4&#45;&gt;Node5 -->
<g id="edge4" class="edge">
<title>Node4&#45;&gt;Node5</title>
<path fill="none" stroke="midnightblue" d="M626.05,-223.14C636.89,-221.53 648.57,-219.79 660,-218.1"/>
<polygon fill="midnightblue" stroke="midnightblue" points="660.58,-221.55 669.95,-216.62 659.55,-214.63 660.58,-221.55"/>
</g>
<!-- Node5&#45;&gt;Node2 -->
<g id="edge5" class="edge">
<title>Node5&#45;&gt;Node2</title>
<path fill="none" stroke="midnightblue" d="M784.11,-208.29C792.45,-208.29 801.09,-208.29 809.54,-208.29"/>
<polygon fill="midnightblue" stroke="midnightblue" points="809.71,-211.79 819.71,-208.29 809.71,-204.79 809.71,-211.79"/>
</g>
<!-- Node6&#45;&gt;Node2 -->
<g id="edge9" class="edge">
<title>Node6&#45;&gt;Node2</title>
<path fill="none" stroke="midnightblue" d="M277.9,-110.95C294.33,-88.23 328.73,-46.59 370,-30.29 479.12,12.84 522.7,6.86 634,-30.29 727.12,-61.36 813.07,-144.98 850.82,-185.56"/>
<polygon fill="midnightblue" stroke="midnightblue" points="848.38,-188.08 857.72,-193.08 853.54,-183.35 848.38,-188.08"/>
</g>
<!-- Node6&#45;&gt;Node3 -->
<g id="edge11" class="edge">
<title>Node6&#45;&gt;Node3</title>
<path fill="none" stroke="midnightblue" d="M295.47,-141.29C321.45,-155.22 360.32,-176.06 388.89,-191.38"/>
<polygon fill="midnightblue" stroke="midnightblue" points="387.31,-194.51 397.77,-196.15 390.62,-188.34 387.31,-194.51"/>
</g>
<!-- Node6&#45;&gt;Node5 -->
<g id="edge12" class="edge">
<title>Node6&#45;&gt;Node5</title>
<path fill="none" stroke="midnightblue" d="M334.17,-138.21C421.25,-153.78 572.82,-180.89 659.71,-196.43"/>
<polygon fill="midnightblue" stroke="midnightblue" points="659.26,-199.9 669.72,-198.22 660.49,-193.01 659.26,-199.9"/>
</g>
<!-- Node7 -->
<g id="node7" class="node">
<title>Node7</title>
<g id="a_node7"><a xlink:href="namespaceerror__msg__class.html#a5bc9f3b670b725cc43276934b867d801" target="_top" xlink:title="Converts a given real to a string with format &quot;(1pE10.2)&quot;.">
<polygon fill="white" stroke="black" points="371,-89.29 371,-119.29 483,-119.29 483,-89.29 371,-89.29"/>
<text text-anchor="start" x="379" y="-107.29" font-family="Helvetica,sans-Serif" font-size="10.00">error_msg_class::num</text>
<text text-anchor="middle" x="427" y="-96.29" font-family="Helvetica,sans-Serif" font-size="10.00">_to_str</text>
</a>
</g>
</g>
<!-- Node6&#45;&gt;Node7 -->
<g id="edge10" class="edge">
<title>Node6&#45;&gt;Node7</title>
<path fill="none" stroke="midnightblue" d="M334.26,-117.02C343.02,-115.8 351.98,-114.56 360.71,-113.35"/>
<polygon fill="midnightblue" stroke="midnightblue" points="361.4,-116.79 370.83,-111.94 360.44,-109.85 361.4,-116.79"/>
</g>
<!-- Node8 -->
<g id="node8" class="node">
<title>Node8</title>
<g id="a_node8"><a xlink:href="namespaceerror__msg__class.html#a339dd5b38c125b6a04653762c94a91f2" target="_top" xlink:title="Write data to the standard output (usually OUT)">
<polygon fill="white" stroke="black" points="370,-40.29 370,-70.29 484,-70.29 484,-40.29 370,-40.29"/>
<text text-anchor="start" x="378" y="-58.29" font-family="Helvetica,sans-Serif" font-size="10.00">error_msg_class::write</text>
<text text-anchor="middle" x="427" y="-47.29" font-family="Helvetica,sans-Serif" font-size="10.00">_data_to_std_out</text>
</a>
</g>
</g>
<!-- Node6&#45;&gt;Node8 -->
<g id="edge13" class="edge">
<title>Node6&#45;&gt;Node8</title>
<path fill="none" stroke="midnightblue" d="M301.19,-111.14C321.19,-102.17 347.03,-90.57 370,-80.29 374.16,-78.42 378.49,-76.49 382.82,-74.55"/>
<polygon fill="midnightblue" stroke="midnightblue" points="384.53,-77.62 392.24,-70.35 381.68,-71.23 384.53,-77.62"/>
</g>
<!-- Node9 -->
<g id="node9" class="node">
<title>Node9</title>
<g id="a_node9"><a xlink:href="namespaceerror__msg__class.html#af62b9a0c5997255e792b9ebd7322a6a3" target="_top" xlink:title="Write the header of the standard output (usually OUT)">
<polygon fill="white" stroke="black" points="520,-40.29 520,-70.29 634,-70.29 634,-40.29 520,-40.29"/>
<text text-anchor="start" x="528" y="-58.29" font-family="Helvetica,sans-Serif" font-size="10.00">error_msg_class::write</text>
<text text-anchor="middle" x="577" y="-47.29" font-family="Helvetica,sans-Serif" font-size="10.00">_header</text>
</a>
</g>
</g>
<!-- Node8&#45;&gt;Node9 -->
<g id="edge14" class="edge">
<title>Node8&#45;&gt;Node9</title>
<path fill="none" stroke="midnightblue" d="M484.37,-48.71C492.62,-48.54 501.18,-48.5 509.6,-48.57"/>
<polygon fill="midnightblue" stroke="midnightblue" points="509.73,-52.07 519.78,-48.71 509.83,-45.07 509.73,-52.07"/>
</g>
<!-- Node9&#45;&gt;Node8 -->
<g id="edge15" class="edge">
<title>Node9&#45;&gt;Node8</title>
<path fill="none" stroke="midnightblue" d="M519.78,-61.86C511.54,-62.03 502.98,-62.07 494.56,-62.01"/>
<polygon fill="midnightblue" stroke="midnightblue" points="494.42,-58.5 484.37,-61.86 494.32,-65.5 494.42,-58.5"/>
</g>
</g>
</svg>
