<?xml version="1.0" encoding="UTF-8" standalone="no"?>
<!DOCTYPE svg PUBLIC "-//W3C//DTD SVG 1.1//EN"
 "http://www.w3.org/Graphics/SVG/1.1/DTD/svg11.dtd">
<!-- Generated by graphviz version 2.44.0 ()
 -->
<!-- Title: bin.testcase_class.compare_lists Pages: 1 -->
<svg width="598pt" height="268pt"
 viewBox="0.00 0.00 598.00 268.00" xmlns="http://www.w3.org/2000/svg" xmlns:xlink="http://www.w3.org/1999/xlink">
<g id="graph0" class="graph" transform="scale(1 1) rotate(0) translate(4 264)">
<title>bin.testcase_class.compare_lists</title>
<polygon fill="white" stroke="transparent" points="-4,4 -4,-264 594,-264 594,4 -4,4"/>
<!-- Node1 -->
<g id="node1" class="node">
<title>Node1</title>
<g id="a_node1"><a xlink:title=" ">
<polygon fill="#bfbfbf" stroke="black" points="0,-121 0,-151 137,-151 137,-121 0,-121"/>
<text text-anchor="start" x="8" y="-139" font-family="Helvetica,sans-Serif" font-size="10.00">bin.testcase_class.compare</text>
<text text-anchor="middle" x="68.5" y="-128" font-family="Helvetica,sans-Serif" font-size="10.00">_lists</text>
</a>
</g>
</g>
<!-- Node2 -->
<g id="node2" class="node">
<title>Node2</title>
<g id="a_node2"><a xlink:href="namespaceinter__module.html#a206d3ceb40bd2e40d41c462a31ad057e" target="_top" xlink:title="Interface for 1D interpolation routines.">
<polygon fill="white" stroke="black" points="173,-126.5 173,-145.5 284,-145.5 284,-126.5 173,-126.5"/>
<text text-anchor="middle" x="228.5" y="-133.5" font-family="Helvetica,sans-Serif" font-size="10.00">inter_module::interp1d</text>
</a>
</g>
</g>
<!-- Node1&#45;&gt;Node2 -->
<g id="edge1" class="edge">
<title>Node1&#45;&gt;Node2</title>
<path fill="none" stroke="midnightblue" d="M137.42,-136C145.87,-136 154.48,-136 162.87,-136"/>
<polygon fill="midnightblue" stroke="midnightblue" points="162.97,-139.5 172.97,-136 162.97,-132.5 162.97,-139.5"/>
</g>
<!-- Node3 -->
<g id="node3" class="node">
<title>Node3</title>
<g id="a_node3"><a xlink:href="namespaceinter__module.html#a0f02e3fce3429d031516cf2f47f521de" target="_top" xlink:title="Interpolation using prescription of Akima.">
<polygon fill="white" stroke="black" points="324,-240.5 324,-259.5 446,-259.5 446,-240.5 324,-240.5"/>
<text text-anchor="middle" x="385" y="-247.5" font-family="Helvetica,sans-Serif" font-size="10.00">inter_module::akimainter</text>
</a>
</g>
</g>
<!-- Node2&#45;&gt;Node3 -->
<g id="edge2" class="edge">
<title>Node2&#45;&gt;Node3</title>
<path fill="none" stroke="midnightblue" d="M236.01,-145.66C249.43,-164.83 282.11,-207.82 320,-231 323.41,-233.08 327.05,-234.95 330.82,-236.62"/>
<polygon fill="midnightblue" stroke="midnightblue" points="329.75,-239.97 340.34,-240.38 332.33,-233.45 329.75,-239.97"/>
</g>
<!-- Node4 -->
<g id="node4" class="node">
<title>Node4</title>
<g id="a_node4"><a xlink:href="namespaceinter__module.html#a5a696cd56302b2491c59781808af4c08" target="_top" xlink:title="Cubic interpolation in log&#45;log space. Here, it is assumed that.">
<polygon fill="white" stroke="black" points="329.5,-202.5 329.5,-221.5 440.5,-221.5 440.5,-202.5 329.5,-202.5"/>
<text text-anchor="middle" x="385" y="-209.5" font-family="Helvetica,sans-Serif" font-size="10.00">inter_module::cubinter</text>
</a>
</g>
</g>
<!-- Node2&#45;&gt;Node4 -->
<g id="edge3" class="edge">
<title>Node2&#45;&gt;Node4</title>
<path fill="none" stroke="midnightblue" d="M244.47,-145.61C262.09,-156.69 292.46,-175.03 320,-188 328.27,-191.89 337.35,-195.62 346.02,-198.92"/>
<polygon fill="midnightblue" stroke="midnightblue" points="344.96,-202.26 355.55,-202.46 347.39,-195.7 344.96,-202.26"/>
</g>
<!-- Node5 -->
<g id="node5" class="node">
<title>Node5</title>
<g id="a_node5"><a xlink:href="namespaceerror__msg__class.html#a7e065585cc806a5c264de1f088266498" target="_top" xlink:title="Converts a given integer to a string.">
<polygon fill="white" stroke="black" points="486,-99 486,-129 590,-129 590,-99 486,-99"/>
<text text-anchor="start" x="494" y="-117" font-family="Helvetica,sans-Serif" font-size="10.00">error_msg_class::int</text>
<text text-anchor="middle" x="538" y="-106" font-family="Helvetica,sans-Serif" font-size="10.00">_to_str</text>
</a>
</g>
</g>
<!-- Node2&#45;&gt;Node5 -->
<g id="edge4" class="edge">
<title>Node2&#45;&gt;Node5</title>
<path fill="none" stroke="midnightblue" d="M264.69,-145.55C308.59,-155.97 385.7,-169.39 450,-155 468.66,-150.82 488.04,-142.18 503.75,-133.9"/>
<polygon fill="midnightblue" stroke="midnightblue" points="505.45,-136.96 512.55,-129.1 502.1,-130.82 505.45,-136.96"/>
</g>
<!-- Node6 -->
<g id="node6" class="node">
<title>Node6</title>
<g id="a_node6"><a xlink:href="namespaceinter__module.html#ac57284b6bef315c7066a880358ae0862" target="_top" xlink:title="Linear interpolation in lin&#45;log space.">
<polygon fill="white" stroke="black" points="332.5,-126.5 332.5,-145.5 437.5,-145.5 437.5,-126.5 332.5,-126.5"/>
<text text-anchor="middle" x="385" y="-133.5" font-family="Helvetica,sans-Serif" font-size="10.00">inter_module::lininter</text>
</a>
</g>
</g>
<!-- Node2&#45;&gt;Node6 -->
<g id="edge5" class="edge">
<title>Node2&#45;&gt;Node6</title>
<path fill="none" stroke="midnightblue" d="M284.41,-136C296.6,-136 309.61,-136 322.07,-136"/>
<polygon fill="midnightblue" stroke="midnightblue" points="322.37,-139.5 332.37,-136 322.37,-132.5 322.37,-139.5"/>
</g>
<!-- Node7 -->
<g id="node7" class="node">
<title>Node7</title>
<g id="a_node7"><a xlink:href="namespaceinter__module.html#a338de641fc764e51a6ce814e25e70ef2" target="_top" xlink:title="Interpolation using modified prescription of Akima.">
<polygon fill="white" stroke="black" points="320,-88.5 320,-107.5 450,-107.5 450,-88.5 320,-88.5"/>
<text text-anchor="middle" x="385" y="-95.5" font-family="Helvetica,sans-Serif" font-size="10.00">inter_module::makimainter</text>
</a>
</g>
</g>
<!-- Node2&#45;&gt;Node7 -->
<g id="edge6" class="edge">
<title>Node2&#45;&gt;Node7</title>
<path fill="none" stroke="midnightblue" d="M268.49,-126.41C288.78,-121.42 313.79,-115.27 335.35,-109.97"/>
<polygon fill="midnightblue" stroke="midnightblue" points="336.42,-113.31 345.29,-107.52 334.75,-106.51 336.42,-113.31"/>
</g>
<!-- Node8 -->
<g id="node8" class="node">
<title>Node8</title>
<g id="a_node8"><a xlink:href="namespaceinter__module.html#a4b1d9613e140541539a602d2f985b5c7" target="_top" xlink:title="PCHIP interpolation in lin&#45;log space.">
<polygon fill="white" stroke="black" points="325.5,-0.5 325.5,-19.5 444.5,-19.5 444.5,-0.5 325.5,-0.5"/>
<text text-anchor="middle" x="385" y="-7.5" font-family="Helvetica,sans-Serif" font-size="10.00">inter_module::pchipinter</text>
</a>
</g>
</g>
<!-- Node2&#45;&gt;Node8 -->
<g id="edge7" class="edge">
<title>Node2&#45;&gt;Node8</title>
<path fill="none" stroke="midnightblue" d="M234.93,-126.39C247.26,-105.45 279.47,-55.48 320,-29 323.14,-26.95 326.52,-25.11 330.01,-23.46"/>
<polygon fill="midnightblue" stroke="midnightblue" points="331.57,-26.61 339.47,-19.55 328.89,-20.14 331.57,-26.61"/>
</g>
<!-- Node10 -->
<g id="node10" class="node">
<title>Node10</title>
<g id="a_node10"><a xlink:href="namespaceerror__msg__class.html#a2453d3b7cb363115c046840baa1dfb75" target="_top" xlink:title="Raise a exception with a given error message.">
<polygon fill="white" stroke="black" points="328,-39 328,-69 442,-69 442,-39 328,-39"/>
<text text-anchor="start" x="336" y="-57" font-family="Helvetica,sans-Serif" font-size="10.00">error_msg_class::raise</text>
<text text-anchor="middle" x="385" y="-46" font-family="Helvetica,sans-Serif" font-size="10.00">_exception</text>
</a>
</g>
</g>
<!-- Node2&#45;&gt;Node10 -->
<g id="edge9" class="edge">
<title>Node2&#45;&gt;Node10</title>
<path fill="none" stroke="midnightblue" d="M242.83,-126.47C260.07,-114.41 291.32,-93.47 320,-79 324.06,-76.95 328.34,-74.96 332.67,-73.05"/>
<polygon fill="midnightblue" stroke="midnightblue" points="334.34,-76.14 342.18,-69.01 331.61,-69.69 334.34,-76.14"/>
</g>
<!-- Node9 -->
<g id="node9" class="node">
<title>Node9</title>
<g id="a_node9"><a xlink:href="quadpack__module_8f90.html#aada5a652920db442d627f1ca24ff25d7" target="_top" xlink:title="Further information: http://netlib.org/quadpack/index.html https://orion.math.iastate....">
<polygon fill="white" stroke="black" points="523.5,-0.5 523.5,-19.5 552.5,-19.5 552.5,-0.5 523.5,-0.5"/>
<text text-anchor="middle" x="538" y="-7.5" font-family="Helvetica,sans-Serif" font-size="10.00">pi</text>
</a>
</g>
</g>
<!-- Node8&#45;&gt;Node9 -->
<g id="edge8" class="edge">
<title>Node8&#45;&gt;Node9</title>
<path fill="none" stroke="midnightblue" d="M444.81,-10C468.65,-10 494.83,-10 513.18,-10"/>
<polygon fill="midnightblue" stroke="midnightblue" points="513.25,-13.5 523.25,-10 513.25,-6.5 513.25,-13.5"/>
</g>
<!-- Node10&#45;&gt;Node5 -->
<g id="edge10" class="edge">
<title>Node10&#45;&gt;Node5</title>
<path fill="none" stroke="midnightblue" d="M424.61,-69.01C432.98,-72.29 441.79,-75.75 450,-79 463.15,-84.21 477.4,-89.92 490.49,-95.19"/>
<polygon fill="midnightblue" stroke="midnightblue" points="489.19,-98.44 499.78,-98.93 491.81,-91.95 489.19,-98.44"/>
</g>
</g>
</svg>
