<?xml version="1.0" encoding="UTF-8" standalone="no"?>
<!DOCTYPE svg PUBLIC "-//W3C//DTD SVG 1.1//EN"
 "http://www.w3.org/Graphics/SVG/1.1/DTD/svg11.dtd">
<!-- Generated by graphviz version 2.44.0 ()
 -->
<!-- Title: timestep_module::hydro_timestep Pages: 1 -->
<!--zoomable 753 -->
<svg id="main" version="1.1" xmlns="http://www.w3.org/2000/svg" xmlns:xlink="http://www.w3.org/1999/xlink" xml:space="preserve" onload="init(evt)">
<style type="text/css"><![CDATA[
.edge:hover path { stroke: red; }
.edge:hover polygon { stroke: red; fill: red; }
]]></style>
<script type="text/javascript"><![CDATA[
var edges = document.getElementsByTagName('g');
if (edges && edges.length) {
  for (var i=0;i<edges.length;i++) {
    if (edges[i].id.substr(0,4)=='edge') {
      edges[i].setAttribute('class','edge');
    }
  }
}
]]></script>
        <defs>
                <circle id="rim" cx="0" cy="0" r="7"/>
                <circle id="rim2" cx="0" cy="0" r="3.5"/>
                <g id="zoomPlus">
                        <use xlink:href="#rim" fill="#404040">
                                <set attributeName="fill" to="#808080" begin="zoomplus.mouseover" end="zoomplus.mouseout"/>
                        </use>
                        <path d="M-4,0h8M0,-4v8" fill="none" stroke="white" stroke-width="1.5" pointer-events="none"/>
                </g>
                <g id="zoomMin">
                        <use xlink:href="#rim" fill="#404040">
                                <set attributeName="fill" to="#808080" begin="zoomminus.mouseover" end="zoomminus.mouseout"/>
                        </use>
                        <path d="M-4,0h8" fill="none" stroke="white" stroke-width="1.5" pointer-events="none"/>
                </g>
                <g id="dirArrow">
                        <path fill="none" stroke="white" stroke-width="1.5" d="M0,-3.0v7 M-2.5,-0.5L0,-3.0L2.5,-0.5"/>
                </g>
               <g id="resetDef">
                       <use xlink:href="#rim2" fill="#404040">
                               <set attributeName="fill" to="#808080" begin="reset.mouseover" end="reset.mouseout"/>
                       </use>
               </g>
        </defs>

<script type="text/javascript">
var viewWidth = 1457;
var viewHeight = 753;
var sectionId = 'dynsection-2';
</script>
<script xlink:href="svgpan.js"/>
<svg id="graph" class="graph">
<g id="viewport">
<title>timestep_module::hydro_timestep</title>
<polygon fill="white" stroke="transparent" points="-4,4 -4,-749.11 1453,-749.11 1453,4 -4,4"/>
<!-- Node1 -->
<g id="node1" class="node">
<title>Node1</title>
<g id="a_node1"><a xlink:title="Estimate the hydro timestep.">
<polygon fill="#bfbfbf" stroke="black" points="0,-223 0,-253 119,-253 119,-223 0,-223"/>
<text text-anchor="start" x="8" y="-241" font-family="Helvetica,sans-Serif" font-size="10.00">timestep_module::hydro</text>
<text text-anchor="middle" x="59.5" y="-230" font-family="Helvetica,sans-Serif" font-size="10.00">_timestep</text>
</a>
</g>
</g>
<!-- Node2 -->
<g id="node2" class="node">
<title>Node2</title>
<g id="a_node2"><a xlink:href="namespacegear__module.html#a01b3c050b4c0d3256659848dc76a0ecb" target="_top" xlink:title="The current timestep.">
<polygon fill="white" stroke="black" points="155,-297.5 155,-316.5 288,-316.5 288,-297.5 155,-297.5"/>
<text text-anchor="middle" x="221.5" y="-304.5" font-family="Helvetica,sans-Serif" font-size="10.00">gear_module::get_timestep</text>
</a>
</g>
</g>
<!-- Node1&#45;&gt;Node2 -->
<g id="edge1" class="edge">
<title>Node1&#45;&gt;Node2</title>
<path fill="none" stroke="midnightblue" d="M85.49,-253.03C104.16,-263.81 130.57,-278.11 155,-288 160.76,-290.33 166.92,-292.51 173.06,-294.49"/>
<polygon fill="midnightblue" stroke="midnightblue" points="172.05,-297.84 182.64,-297.44 174.12,-291.15 172.05,-297.84"/>
</g>
<!-- Node3 -->
<g id="node3" class="node">
<title>Node3</title>
<g id="a_node3"><a xlink:href="namespaceerror__msg__class.html#a5bc9f3b670b725cc43276934b867d801" target="_top" xlink:title="Converts a given real to a string with format &quot;(1pE10.2)&quot;.">
<polygon fill="white" stroke="black" points="165.5,-248 165.5,-278 277.5,-278 277.5,-248 165.5,-248"/>
<text text-anchor="start" x="173.5" y="-266" font-family="Helvetica,sans-Serif" font-size="10.00">error_msg_class::num</text>
<text text-anchor="middle" x="221.5" y="-255" font-family="Helvetica,sans-Serif" font-size="10.00">_to_str</text>
</a>
</g>
</g>
<!-- Node1&#45;&gt;Node3 -->
<g id="edge2" class="edge">
<title>Node1&#45;&gt;Node3</title>
<path fill="none" stroke="midnightblue" d="M119.17,-247.17C130.95,-249.01 143.39,-250.95 155.37,-252.82"/>
<polygon fill="midnightblue" stroke="midnightblue" points="154.87,-256.29 165.3,-254.37 155.96,-249.37 154.87,-256.29"/>
</g>
<!-- Node4 -->
<g id="node4" class="node">
<title>Node4</title>
<g id="a_node4"><a xlink:href="namespaceerror__msg__class.html#a2453d3b7cb363115c046840baa1dfb75" target="_top" xlink:title="Raise a exception with a given error message.">
<polygon fill="white" stroke="black" points="1000,-285 1000,-315 1114,-315 1114,-285 1000,-285"/>
<text text-anchor="start" x="1008" y="-303" font-family="Helvetica,sans-Serif" font-size="10.00">error_msg_class::raise</text>
<text text-anchor="middle" x="1057" y="-292" font-family="Helvetica,sans-Serif" font-size="10.00">_exception</text>
</a>
</g>
</g>
<!-- Node1&#45;&gt;Node4 -->
<g id="edge3" class="edge">
<title>Node1&#45;&gt;Node4</title>
<path fill="none" stroke="midnightblue" d="M82.06,-222.74C133.6,-187.81 269.1,-105 395.5,-105 395.5,-105 395.5,-105 723.5,-105 827.87,-105 873.53,-74.03 956,-138 989.07,-163.65 970.15,-189.31 992,-225 1003.69,-244.09 1020.14,-263.25 1033.43,-277.43"/>
<polygon fill="midnightblue" stroke="midnightblue" points="1031,-279.95 1040.44,-284.76 1036.06,-275.11 1031,-279.95"/>
</g>
<!-- Node6 -->
<g id="node6" class="node">
<title>Node6</title>
<g id="a_node6"><a xlink:href="namespacetimestep__module.html#a3f5daca614b12181736095bd8ffbd7e0" target="_top" xlink:title="Returns temperature, density, and radius for a given time &quot;time_i&quot;.">
<polygon fill="white" stroke="black" points="159,-199 159,-229 284,-229 284,-199 159,-199"/>
<text text-anchor="start" x="167" y="-217" font-family="Helvetica,sans-Serif" font-size="10.00">timestep_module::update</text>
<text text-anchor="middle" x="221.5" y="-206" font-family="Helvetica,sans-Serif" font-size="10.00">_hydro</text>
</a>
</g>
</g>
<!-- Node1&#45;&gt;Node6 -->
<g id="edge5" class="edge">
<title>Node1&#45;&gt;Node6</title>
<path fill="none" stroke="midnightblue" d="M119.17,-229.2C128.87,-227.74 139.02,-226.22 148.99,-224.73"/>
<polygon fill="midnightblue" stroke="midnightblue" points="149.51,-228.19 158.88,-223.24 148.47,-221.27 149.51,-228.19"/>
</g>
<!-- Node5 -->
<g id="node5" class="node">
<title>Node5</title>
<g id="a_node5"><a xlink:href="namespaceerror__msg__class.html#a7e065585cc806a5c264de1f088266498" target="_top" xlink:title="Converts a given integer to a string.">
<polygon fill="white" stroke="black" points="1165.5,-238 1165.5,-268 1269.5,-268 1269.5,-238 1165.5,-238"/>
<text text-anchor="start" x="1173.5" y="-256" font-family="Helvetica,sans-Serif" font-size="10.00">error_msg_class::int</text>
<text text-anchor="middle" x="1217.5" y="-245" font-family="Helvetica,sans-Serif" font-size="10.00">_to_str</text>
</a>
</g>
</g>
<!-- Node4&#45;&gt;Node5 -->
<g id="edge4" class="edge">
<title>Node4&#45;&gt;Node5</title>
<path fill="none" stroke="midnightblue" d="M1108.59,-285C1123.74,-280.51 1140.51,-275.53 1156.23,-270.87"/>
<polygon fill="midnightblue" stroke="midnightblue" points="1157.26,-274.22 1165.85,-268.02 1155.27,-267.51 1157.26,-274.22"/>
</g>
<!-- Node7 -->
<g id="node7" class="node">
<title>Node7</title>
<g id="a_node7"><a xlink:href="namespaceexpansion__module.html#a4f1f21da864d689ea4184f55a4e68198" target="_top" xlink:title="Returns temperature, radius, density, and entropy after the trajectory has ended.">
<polygon fill="white" stroke="black" points="324,-608.5 324,-627.5 469,-627.5 469,-608.5 324,-608.5"/>
<text text-anchor="middle" x="396.5" y="-615.5" font-family="Helvetica,sans-Serif" font-size="10.00">expansion_module::expansion</text>
</a>
</g>
</g>
<!-- Node6&#45;&gt;Node7 -->
<g id="edge6" class="edge">
<title>Node6&#45;&gt;Node7</title>
<path fill="none" stroke="midnightblue" d="M275.74,-229.1C280.27,-231.87 284.47,-235.14 288,-239 338.09,-293.72 380.48,-527.83 392.25,-598.03"/>
<polygon fill="midnightblue" stroke="midnightblue" points="388.84,-598.87 393.93,-608.17 395.75,-597.73 388.84,-598.87"/>
</g>
<!-- Node22 -->
<g id="node22" class="node">
<title>Node22</title>
<g id="a_node22"><a xlink:href="namespaceinter__module.html#a206d3ceb40bd2e40d41c462a31ad057e" target="_top" xlink:title="Interface for 1D interpolation routines.">
<polygon fill="white" stroke="black" points="831.5,-57.5 831.5,-76.5 942.5,-76.5 942.5,-57.5 831.5,-57.5"/>
<text text-anchor="middle" x="887" y="-64.5" font-family="Helvetica,sans-Serif" font-size="10.00">inter_module::interp1d</text>
</a>
</g>
</g>
<!-- Node6&#45;&gt;Node22 -->
<g id="edge25" class="edge">
<title>Node6&#45;&gt;Node22</title>
<path fill="none" stroke="midnightblue" d="M284.03,-200.37C413.39,-171.71 711.62,-105.63 833.08,-78.72"/>
<polygon fill="midnightblue" stroke="midnightblue" points="833.89,-82.13 842.9,-76.55 832.38,-75.3 833.89,-82.13"/>
</g>
<!-- Node28 -->
<g id="node28" class="node">
<title>Node28</title>
<g id="a_node28"><a xlink:href="namespaceparser__module.html#a4b68bd8515796701c2b006fe79a0b162" target="_top" xlink:title="Takes a string and evaluates the expression.">
<polygon fill="white" stroke="black" points="342,-254 342,-284 451,-284 451,-254 342,-254"/>
<text text-anchor="start" x="350" y="-272" font-family="Helvetica,sans-Serif" font-size="10.00">parser_module::parse</text>
<text text-anchor="middle" x="396.5" y="-261" font-family="Helvetica,sans-Serif" font-size="10.00">_string</text>
</a>
</g>
</g>
<!-- Node6&#45;&gt;Node28 -->
<g id="edge34" class="edge">
<title>Node6&#45;&gt;Node28</title>
<path fill="none" stroke="midnightblue" d="M269.77,-229.03C291.04,-235.79 316.31,-243.82 338.61,-250.91"/>
<polygon fill="midnightblue" stroke="midnightblue" points="337.69,-254.29 348.28,-253.99 339.81,-247.62 337.69,-254.29"/>
</g>
<!-- Node7&#45;&gt;Node4 -->
<g id="edge7" class="edge">
<title>Node7&#45;&gt;Node4</title>
<path fill="none" stroke="midnightblue" d="M469.06,-620.59C611.66,-625.04 920.65,-630.83 956,-599 1042.04,-521.53 929.54,-438.48 992,-341 997.12,-333 1004.42,-326.26 1012.27,-320.7"/>
<polygon fill="midnightblue" stroke="midnightblue" points="1014.41,-323.49 1020.93,-315.13 1010.63,-317.6 1014.41,-323.49"/>
</g>
<!-- Node8 -->
<g id="node8" class="node">
<title>Node8</title>
<g id="a_node8"><a xlink:href="namespacels__timmes__eos__module.html#a7f522fa32c0a061060a07863c7a8b05c" target="_top" xlink:title=" ">
<polygon fill="white" stroke="black" points="506.5,-671 506.5,-701 625.5,-701 625.5,-671 506.5,-671"/>
<text text-anchor="start" x="514.5" y="-689" font-family="Helvetica,sans-Serif" font-size="10.00">ls_timmes_eos_module</text>
<text text-anchor="middle" x="566" y="-678" font-family="Helvetica,sans-Serif" font-size="10.00">::timmes_eos</text>
</a>
</g>
</g>
<!-- Node7&#45;&gt;Node8 -->
<g id="edge8" class="edge">
<title>Node7&#45;&gt;Node8</title>
<path fill="none" stroke="midnightblue" d="M421.14,-627.6C446.31,-637.82 486.8,-654.25 518.41,-667.09"/>
<polygon fill="midnightblue" stroke="midnightblue" points="517.33,-670.43 527.91,-670.94 519.96,-663.94 517.33,-670.43"/>
</g>
<!-- Node9 -->
<g id="node9" class="node">
<title>Node9</title>
<g id="a_node9"><a xlink:href="namespacels__timmes__eos__module.html#ac68ea6710f5164f7f29454fa4ffa6dcb" target="_top" xlink:title=" ">
<polygon fill="white" stroke="black" points="663,-696 663,-726 782,-726 782,-696 663,-696"/>
<text text-anchor="start" x="671" y="-714" font-family="Helvetica,sans-Serif" font-size="10.00">ls_timmes_eos_module</text>
<text text-anchor="middle" x="722.5" y="-703" font-family="Helvetica,sans-Serif" font-size="10.00">::timmes_eos_e_bisec</text>
</a>
</g>
</g>
<!-- Node8&#45;&gt;Node9 -->
<g id="edge9" class="edge">
<title>Node8&#45;&gt;Node9</title>
<path fill="none" stroke="midnightblue" d="M625.85,-695.52C634.65,-696.95 643.78,-698.42 652.77,-699.88"/>
<polygon fill="midnightblue" stroke="midnightblue" points="652.38,-703.36 662.81,-701.5 653.5,-696.45 652.38,-703.36"/>
</g>
<!-- Node10 -->
<g id="node10" class="node">
<title>Node10</title>
<g id="a_node10"><a xlink:href="namespacels__timmes__eos__module.html#a6da1e3b6ba3967536745de1073565b65" target="_top" xlink:title=" ">
<polygon fill="white" stroke="black" points="827.5,-672 827.5,-702 946.5,-702 946.5,-672 827.5,-672"/>
<text text-anchor="start" x="835.5" y="-690" font-family="Helvetica,sans-Serif" font-size="10.00">ls_timmes_eos_module</text>
<text text-anchor="middle" x="887" y="-679" font-family="Helvetica,sans-Serif" font-size="10.00">::timmes_eos_interface</text>
</a>
</g>
</g>
<!-- Node8&#45;&gt;Node10 -->
<g id="edge22" class="edge">
<title>Node8&#45;&gt;Node10</title>
<path fill="none" stroke="midnightblue" d="M588.66,-701.17C607.37,-713.28 635.62,-729.3 663,-736 714.37,-748.58 730.39,-747.55 782,-736 807.05,-730.39 833.19,-718.05 852.99,-707.16"/>
<polygon fill="midnightblue" stroke="midnightblue" points="854.91,-710.09 861.89,-702.12 851.46,-704 854.91,-710.09"/>
</g>
<!-- Node21 -->
<g id="node21" class="node">
<title>Node21</title>
<g id="a_node21"><a xlink:href="namespacels__timmes__eos__module.html#afd98ff063885638aaa5922c04fb9d6a9" target="_top" xlink:title=" ">
<polygon fill="white" stroke="black" points="663,-647 663,-677 782,-677 782,-647 663,-647"/>
<text text-anchor="start" x="671" y="-665" font-family="Helvetica,sans-Serif" font-size="10.00">ls_timmes_eos_module</text>
<text text-anchor="middle" x="722.5" y="-654" font-family="Helvetica,sans-Serif" font-size="10.00">::timmes_eos_s_bisec</text>
</a>
</g>
</g>
<!-- Node8&#45;&gt;Node21 -->
<g id="edge23" class="edge">
<title>Node8&#45;&gt;Node21</title>
<path fill="none" stroke="midnightblue" d="M625.85,-676.86C634.65,-675.49 643.78,-674.07 652.77,-672.68"/>
<polygon fill="midnightblue" stroke="midnightblue" points="653.47,-676.11 662.81,-671.12 652.39,-669.19 653.47,-676.11"/>
</g>
<!-- Node9&#45;&gt;Node10 -->
<g id="edge10" class="edge">
<title>Node9&#45;&gt;Node10</title>
<path fill="none" stroke="midnightblue" d="M782.17,-702.34C793.56,-700.65 805.59,-698.88 817.27,-697.15"/>
<polygon fill="midnightblue" stroke="midnightblue" points="818.04,-700.58 827.42,-695.65 817.02,-693.65 818.04,-700.58"/>
</g>
<!-- Node11 -->
<g id="node11" class="node">
<title>Node11</title>
<g id="a_node11"><a xlink:href="eosfxt_8f.html#a7472b49a95882a089dc0b8e75b1abbfa" target="_top" xlink:title=" ">
<polygon fill="white" stroke="black" points="1035.5,-350.5 1035.5,-369.5 1078.5,-369.5 1078.5,-350.5 1035.5,-350.5"/>
<text text-anchor="middle" x="1057" y="-357.5" font-family="Helvetica,sans-Serif" font-size="10.00">eosfxt</text>
</a>
</g>
</g>
<!-- Node10&#45;&gt;Node11 -->
<g id="edge11" class="edge">
<title>Node10&#45;&gt;Node11</title>
<path fill="none" stroke="midnightblue" d="M912.85,-671.81C927.15,-661.98 944.51,-648.05 956,-632 1015.4,-549.05 1043.44,-426.85 1052.53,-379.62"/>
<polygon fill="midnightblue" stroke="midnightblue" points="1056.02,-380.01 1054.4,-369.54 1049.14,-378.73 1056.02,-380.01"/>
</g>
<!-- Node12 -->
<g id="node12" class="node">
<title>Node12</title>
<g id="a_node12"><a xlink:href="eosfxt_8f.html#a4dd7b4a9689e75b5ee0f56fcf260b461" target="_top" xlink:title=" ">
<polygon fill="white" stroke="black" points="1191,-329.5 1191,-348.5 1244,-348.5 1244,-329.5 1191,-329.5"/>
<text text-anchor="middle" x="1217.5" y="-336.5" font-family="Helvetica,sans-Serif" font-size="10.00">coulomb</text>
</a>
</g>
</g>
<!-- Node11&#45;&gt;Node12 -->
<g id="edge12" class="edge">
<title>Node11&#45;&gt;Node12</title>
<path fill="none" stroke="midnightblue" d="M1078.72,-357.25C1104.58,-353.83 1149.22,-347.91 1180.67,-343.75"/>
<polygon fill="midnightblue" stroke="midnightblue" points="1181.33,-347.19 1190.78,-342.41 1180.41,-340.25 1181.33,-347.19"/>
</g>
<!-- Node14 -->
<g id="node14" class="node">
<title>Node14</title>
<g id="a_node14"><a xlink:href="eosfxt_8f.html#a40e1707c6481e6f394d33c9de7744a80" target="_top" xlink:title=" ">
<polygon fill="white" stroke="black" points="1194.5,-291.5 1194.5,-310.5 1240.5,-310.5 1240.5,-291.5 1194.5,-291.5"/>
<text text-anchor="middle" x="1217.5" y="-298.5" font-family="Helvetica,sans-Serif" font-size="10.00">etages</text>
</a>
</g>
</g>
<!-- Node11&#45;&gt;Node14 -->
<g id="edge14" class="edge">
<title>Node11&#45;&gt;Node14</title>
<path fill="none" stroke="midnightblue" d="M1078.53,-351.32C1098.64,-342.93 1130.22,-330.05 1158,-320 1166.59,-316.89 1175.97,-313.74 1184.65,-310.92"/>
<polygon fill="midnightblue" stroke="midnightblue" points="1185.98,-314.17 1194.44,-307.78 1183.85,-307.5 1185.98,-314.17"/>
</g>
<!-- Node15 -->
<g id="node15" class="node">
<title>Node15</title>
<g id="a_node15"><a xlink:href="eosfxt_8f.html#ac215ef28344d8bf47b95d146f191fc74" target="_top" xlink:title=" ">
<polygon fill="white" stroke="black" points="1193.5,-367.5 1193.5,-386.5 1241.5,-386.5 1241.5,-367.5 1193.5,-367.5"/>
<text text-anchor="middle" x="1217.5" y="-374.5" font-family="Helvetica,sans-Serif" font-size="10.00">xneroot</text>
</a>
</g>
</g>
<!-- Node11&#45;&gt;Node15 -->
<g id="edge16" class="edge">
<title>Node11&#45;&gt;Node15</title>
<path fill="none" stroke="midnightblue" d="M1078.72,-362.22C1105.33,-365.08 1151.84,-370.07 1183.39,-373.45"/>
<polygon fill="midnightblue" stroke="midnightblue" points="1183.14,-376.94 1193.46,-374.53 1183.89,-369.98 1183.14,-376.94"/>
</g>
<!-- Node13 -->
<g id="node13" class="node">
<title>Node13</title>
<g id="a_node13"><a xlink:href="quadpack__module_8f90.html#aada5a652920db442d627f1ca24ff25d7" target="_top" xlink:title="Further information: http://netlib.org/quadpack/index.html https://orion.math.iastate....">
<polygon fill="white" stroke="black" points="1320.5,-291.5 1320.5,-310.5 1349.5,-310.5 1349.5,-291.5 1320.5,-291.5"/>
<text text-anchor="middle" x="1335" y="-298.5" font-family="Helvetica,sans-Serif" font-size="10.00">pi</text>
</a>
</g>
</g>
<!-- Node12&#45;&gt;Node13 -->
<g id="edge13" class="edge">
<title>Node12&#45;&gt;Node13</title>
<path fill="none" stroke="midnightblue" d="M1244.14,-330.72C1254.37,-327.4 1266.25,-323.54 1277,-320 1288.15,-316.33 1300.5,-312.22 1310.86,-308.76"/>
<polygon fill="midnightblue" stroke="midnightblue" points="1312.05,-312.05 1320.42,-305.56 1309.83,-305.41 1312.05,-312.05"/>
</g>
<!-- Node14&#45;&gt;Node13 -->
<g id="edge15" class="edge">
<title>Node14&#45;&gt;Node13</title>
<path fill="none" stroke="midnightblue" d="M1240.77,-301C1260.77,-301 1290.05,-301 1310.44,-301"/>
<polygon fill="midnightblue" stroke="midnightblue" points="1310.47,-304.5 1320.47,-301 1310.47,-297.5 1310.47,-304.5"/>
</g>
<!-- Node16 -->
<g id="node16" class="node">
<title>Node16</title>
<g id="a_node16"><a xlink:href="eosfxt_8f.html#a5b92245336ba39f5012975d91948205f" target="_top" xlink:title=" ">
<polygon fill="white" stroke="black" points="1313,-367.5 1313,-386.5 1357,-386.5 1357,-367.5 1313,-367.5"/>
<text text-anchor="middle" x="1335" y="-374.5" font-family="Helvetica,sans-Serif" font-size="10.00">dfermi</text>
</a>
</g>
</g>
<!-- Node15&#45;&gt;Node16 -->
<g id="edge17" class="edge">
<title>Node15&#45;&gt;Node16</title>
<path fill="none" stroke="midnightblue" d="M1241.6,-377C1259.15,-377 1283.48,-377 1302.77,-377"/>
<polygon fill="midnightblue" stroke="midnightblue" points="1302.89,-380.5 1312.89,-377 1302.89,-373.5 1302.89,-380.5"/>
</g>
<!-- Node17 -->
<g id="node17" class="node">
<title>Node17</title>
<g id="a_node17"><a xlink:href="eosfxt_8f.html#abbb1b60c825d972dc00fe1f268f93f86" target="_top" xlink:title=" ">
<polygon fill="white" stroke="black" points="1393,-424.5 1393,-443.5 1449,-443.5 1449,-424.5 1393,-424.5"/>
<text text-anchor="middle" x="1421" y="-431.5" font-family="Helvetica,sans-Serif" font-size="10.00">dqlag020</text>
</a>
</g>
</g>
<!-- Node16&#45;&gt;Node17 -->
<g id="edge18" class="edge">
<title>Node16&#45;&gt;Node17</title>
<path fill="none" stroke="midnightblue" d="M1350.25,-386.67C1363.12,-395.4 1382.28,-408.4 1397.26,-418.57"/>
<polygon fill="midnightblue" stroke="midnightblue" points="1395.72,-421.75 1405.96,-424.47 1399.65,-415.96 1395.72,-421.75"/>
</g>
<!-- Node18 -->
<g id="node18" class="node">
<title>Node18</title>
<g id="a_node18"><a xlink:href="eosfxt_8f.html#a6cbbc7f07cffb75f5efaf893d547852f" target="_top" xlink:title=" ">
<polygon fill="white" stroke="black" points="1393,-386.5 1393,-405.5 1449,-405.5 1449,-386.5 1393,-386.5"/>
<text text-anchor="middle" x="1421" y="-393.5" font-family="Helvetica,sans-Serif" font-size="10.00">dqleg020</text>
</a>
</g>
</g>
<!-- Node16&#45;&gt;Node18 -->
<g id="edge19" class="edge">
<title>Node16&#45;&gt;Node18</title>
<path fill="none" stroke="midnightblue" d="M1357.2,-381.79C1365.04,-383.57 1374.17,-385.63 1383,-387.63"/>
<polygon fill="midnightblue" stroke="midnightblue" points="1382.24,-391.05 1392.76,-389.84 1383.78,-384.22 1382.24,-391.05"/>
</g>
<!-- Node19 -->
<g id="node19" class="node">
<title>Node19</title>
<g id="a_node19"><a xlink:href="eosfxt_8f.html#a9d9951640d440972fe5298fdd5d70c10" target="_top" xlink:title=" ">
<polygon fill="white" stroke="black" points="1396.5,-348.5 1396.5,-367.5 1445.5,-367.5 1445.5,-348.5 1396.5,-348.5"/>
<text text-anchor="middle" x="1421" y="-355.5" font-family="Helvetica,sans-Serif" font-size="10.00">fdfunc1</text>
</a>
</g>
</g>
<!-- Node16&#45;&gt;Node19 -->
<g id="edge20" class="edge">
<title>Node16&#45;&gt;Node19</title>
<path fill="none" stroke="midnightblue" d="M1357.2,-372.21C1366.07,-370.2 1376.6,-367.82 1386.48,-365.58"/>
<polygon fill="midnightblue" stroke="midnightblue" points="1387.46,-368.95 1396.44,-363.33 1385.91,-362.12 1387.46,-368.95"/>
</g>
<!-- Node20 -->
<g id="node20" class="node">
<title>Node20</title>
<g id="a_node20"><a xlink:href="eosfxt_8f.html#ae834089002139b7a18c24a337f6ff90a" target="_top" xlink:title=" ">
<polygon fill="white" stroke="black" points="1396.5,-310.5 1396.5,-329.5 1445.5,-329.5 1445.5,-310.5 1396.5,-310.5"/>
<text text-anchor="middle" x="1421" y="-317.5" font-family="Helvetica,sans-Serif" font-size="10.00">fdfunc2</text>
</a>
</g>
</g>
<!-- Node16&#45;&gt;Node20 -->
<g id="edge21" class="edge">
<title>Node16&#45;&gt;Node20</title>
<path fill="none" stroke="midnightblue" d="M1350.25,-367.33C1363.12,-358.6 1382.28,-345.6 1397.26,-335.43"/>
<polygon fill="midnightblue" stroke="midnightblue" points="1399.65,-338.04 1405.96,-329.53 1395.72,-332.25 1399.65,-338.04"/>
</g>
<!-- Node21&#45;&gt;Node10 -->
<g id="edge24" class="edge">
<title>Node21&#45;&gt;Node10</title>
<path fill="none" stroke="midnightblue" d="M782.17,-671.03C793.56,-672.78 805.59,-674.63 817.27,-676.43"/>
<polygon fill="midnightblue" stroke="midnightblue" points="817,-679.93 827.42,-677.99 818.07,-673.01 817,-679.93"/>
</g>
<!-- Node22&#45;&gt;Node4 -->
<g id="edge33" class="edge">
<title>Node22&#45;&gt;Node4</title>
<path fill="none" stroke="midnightblue" d="M935.01,-76.52C942.9,-79.95 950.35,-84.63 956,-91 1004.66,-145.85 952.21,-190.41 992,-252 998.89,-262.66 1009.02,-271.83 1019.2,-279.21"/>
<polygon fill="midnightblue" stroke="midnightblue" points="1017.45,-282.26 1027.68,-284.99 1021.38,-276.47 1017.45,-282.26"/>
</g>
<!-- Node22&#45;&gt;Node5 -->
<g id="edge28" class="edge">
<title>Node22&#45;&gt;Node5</title>
<path fill="none" stroke="midnightblue" d="M932.48,-76.54C941.06,-79.98 949.42,-84.66 956,-91 987.33,-121.17 960.18,-152.35 992,-182 1036.62,-223.59 1105.5,-240.82 1155.2,-247.95"/>
<polygon fill="midnightblue" stroke="midnightblue" points="1154.81,-251.43 1165.18,-249.29 1155.74,-244.49 1154.81,-251.43"/>
</g>
<!-- Node23 -->
<g id="node23" class="node">
<title>Node23</title>
<g id="a_node23"><a xlink:href="namespaceinter__module.html#a0f02e3fce3429d031516cf2f47f521de" target="_top" xlink:title="Interpolation using prescription of Akima.">
<polygon fill="white" stroke="black" points="996,-114.5 996,-133.5 1118,-133.5 1118,-114.5 996,-114.5"/>
<text text-anchor="middle" x="1057" y="-121.5" font-family="Helvetica,sans-Serif" font-size="10.00">inter_module::akimainter</text>
</a>
</g>
</g>
<!-- Node22&#45;&gt;Node23 -->
<g id="edge26" class="edge">
<title>Node22&#45;&gt;Node23</title>
<path fill="none" stroke="midnightblue" d="M915.86,-76.61C928.19,-80.92 942.85,-86.13 956,-91 972.1,-96.97 975.76,-99.44 992,-105 998.48,-107.22 1005.39,-109.43 1012.17,-111.51"/>
<polygon fill="midnightblue" stroke="midnightblue" points="1011.37,-114.92 1021.96,-114.46 1013.39,-108.22 1011.37,-114.92"/>
</g>
<!-- Node24 -->
<g id="node24" class="node">
<title>Node24</title>
<g id="a_node24"><a xlink:href="namespaceinter__module.html#a5a696cd56302b2491c59781808af4c08" target="_top" xlink:title="Cubic interpolation in log&#45;log space. Here, it is assumed that.">
<polygon fill="white" stroke="black" points="1001.5,-76.5 1001.5,-95.5 1112.5,-95.5 1112.5,-76.5 1001.5,-76.5"/>
<text text-anchor="middle" x="1057" y="-83.5" font-family="Helvetica,sans-Serif" font-size="10.00">inter_module::cubinter</text>
</a>
</g>
</g>
<!-- Node22&#45;&gt;Node24 -->
<g id="edge27" class="edge">
<title>Node22&#45;&gt;Node24</title>
<path fill="none" stroke="midnightblue" d="M942.54,-73.17C958.03,-74.92 975.04,-76.84 991.07,-78.66"/>
<polygon fill="midnightblue" stroke="midnightblue" points="991.11,-82.18 1001.44,-79.83 991.9,-75.23 991.11,-82.18"/>
</g>
<!-- Node25 -->
<g id="node25" class="node">
<title>Node25</title>
<g id="a_node25"><a xlink:href="namespaceinter__module.html#ac57284b6bef315c7066a880358ae0862" target="_top" xlink:title="Linear interpolation in lin&#45;log space.">
<polygon fill="white" stroke="black" points="1004.5,-38.5 1004.5,-57.5 1109.5,-57.5 1109.5,-38.5 1004.5,-38.5"/>
<text text-anchor="middle" x="1057" y="-45.5" font-family="Helvetica,sans-Serif" font-size="10.00">inter_module::lininter</text>
</a>
</g>
</g>
<!-- Node22&#45;&gt;Node25 -->
<g id="edge29" class="edge">
<title>Node22&#45;&gt;Node25</title>
<path fill="none" stroke="midnightblue" d="M942.54,-60.83C958.97,-58.97 977.11,-56.92 993.98,-55.01"/>
<polygon fill="midnightblue" stroke="midnightblue" points="994.75,-58.45 1004.3,-53.85 993.97,-51.49 994.75,-58.45"/>
</g>
<!-- Node26 -->
<g id="node26" class="node">
<title>Node26</title>
<g id="a_node26"><a xlink:href="namespaceinter__module.html#a338de641fc764e51a6ce814e25e70ef2" target="_top" xlink:title="Interpolation using modified prescription of Akima.">
<polygon fill="white" stroke="black" points="992,-0.5 992,-19.5 1122,-19.5 1122,-0.5 992,-0.5"/>
<text text-anchor="middle" x="1057" y="-7.5" font-family="Helvetica,sans-Serif" font-size="10.00">inter_module::makimainter</text>
</a>
</g>
</g>
<!-- Node22&#45;&gt;Node26 -->
<g id="edge30" class="edge">
<title>Node22&#45;&gt;Node26</title>
<path fill="none" stroke="midnightblue" d="M913.07,-57.35C934.04,-49.39 964.81,-37.99 992,-29 998.58,-26.82 1005.58,-24.63 1012.44,-22.54"/>
<polygon fill="midnightblue" stroke="midnightblue" points="1013.76,-25.8 1022.33,-19.57 1011.75,-19.09 1013.76,-25.8"/>
</g>
<!-- Node27 -->
<g id="node27" class="node">
<title>Node27</title>
<g id="a_node27"><a xlink:href="namespaceinter__module.html#a4b1d9613e140541539a602d2f985b5c7" target="_top" xlink:title="PCHIP interpolation in lin&#45;log space.">
<polygon fill="white" stroke="black" points="1158,-191.5 1158,-210.5 1277,-210.5 1277,-191.5 1158,-191.5"/>
<text text-anchor="middle" x="1217.5" y="-198.5" font-family="Helvetica,sans-Serif" font-size="10.00">inter_module::pchipinter</text>
</a>
</g>
</g>
<!-- Node22&#45;&gt;Node27 -->
<g id="edge31" class="edge">
<title>Node22&#45;&gt;Node27</title>
<path fill="none" stroke="midnightblue" d="M928.23,-76.55C937.93,-80.07 947.84,-84.77 956,-91 978.34,-108.06 968.94,-126.92 992,-143 1037.99,-175.08 1100.39,-189.42 1147.73,-195.83"/>
<polygon fill="midnightblue" stroke="midnightblue" points="1147.53,-199.33 1157.89,-197.11 1148.41,-192.39 1147.53,-199.33"/>
</g>
<!-- Node27&#45;&gt;Node13 -->
<g id="edge32" class="edge">
<title>Node27&#45;&gt;Node13</title>
<path fill="none" stroke="midnightblue" d="M1244.73,-210.52C1255.38,-215.13 1267.41,-221.34 1277,-229 1295.98,-244.16 1312.56,-266.78 1322.87,-282.61"/>
<polygon fill="midnightblue" stroke="midnightblue" points="1320.16,-284.87 1328.45,-291.46 1326.08,-281.13 1320.16,-284.87"/>
</g>
<!-- Node29 -->
<g id="node29" class="node">
<title>Node29</title>
<g id="a_node29"><a xlink:href="namespaceparser__module.html#a5c583c26539a886921a9067fa425bc9c" target="_top" xlink:title="Evaluate a complex string expression.">
<polygon fill="white" stroke="black" points="505,-292.5 505,-311.5 627,-311.5 627,-292.5 505,-292.5"/>
<text text-anchor="middle" x="566" y="-299.5" font-family="Helvetica,sans-Serif" font-size="10.00">parser_module::evaluate</text>
</a>
</g>
</g>
<!-- Node28&#45;&gt;Node29 -->
<g id="edge35" class="edge">
<title>Node28&#45;&gt;Node29</title>
<path fill="none" stroke="midnightblue" d="M451.42,-279.62C469.01,-283.09 488.62,-286.95 506.53,-290.48"/>
<polygon fill="midnightblue" stroke="midnightblue" points="506.07,-293.96 516.56,-292.46 507.43,-287.09 506.07,-293.96"/>
</g>
<!-- Node30 -->
<g id="node30" class="node">
<title>Node30</title>
<g id="a_node30"><a xlink:href="namespaceparser__module.html#ad50643e6694300972743edc44679fbf7" target="_top" xlink:title="Function to perform a function operations.">
<polygon fill="white" stroke="black" points="671,-175 671,-205 774,-205 774,-175 671,-175"/>
<text text-anchor="start" x="679" y="-193" font-family="Helvetica,sans-Serif" font-size="10.00">parser_module::eval</text>
<text text-anchor="middle" x="722.5" y="-182" font-family="Helvetica,sans-Serif" font-size="10.00">_function</text>
</a>
</g>
</g>
<!-- Node29&#45;&gt;Node30 -->
<g id="edge36" class="edge">
<title>Node29&#45;&gt;Node30</title>
<path fill="none" stroke="midnightblue" d="M580.17,-292.45C604.82,-274.58 658.47,-235.69 692.12,-211.3"/>
<polygon fill="midnightblue" stroke="midnightblue" points="694.58,-213.84 700.62,-205.13 690.47,-208.17 694.58,-213.84"/>
</g>
<!-- Node31 -->
<g id="node31" class="node">
<title>Node31</title>
<g id="a_node31"><a xlink:href="namespaceparser__module.html#ae4ed3c6a08e74ffd03282ee7c30d8194" target="_top" xlink:title="Evaluate a simple string expression, without brackets and functions.">
<polygon fill="white" stroke="black" points="673.5,-439 673.5,-469 771.5,-469 771.5,-439 673.5,-439"/>
<text text-anchor="start" x="681.5" y="-457" font-family="Helvetica,sans-Serif" font-size="10.00">parser_module::get</text>
<text text-anchor="middle" x="722.5" y="-446" font-family="Helvetica,sans-Serif" font-size="10.00">_simple_result</text>
</a>
</g>
</g>
<!-- Node29&#45;&gt;Node31 -->
<g id="edge38" class="edge">
<title>Node29&#45;&gt;Node31</title>
<path fill="none" stroke="midnightblue" d="M576.66,-311.51C600.86,-335.32 664.57,-397.99 698.87,-431.73"/>
<polygon fill="midnightblue" stroke="midnightblue" points="696.53,-434.35 706.11,-438.86 701.44,-429.36 696.53,-434.35"/>
</g>
<!-- Node36 -->
<g id="node36" class="node">
<title>Node36</title>
<g id="a_node36"><a xlink:href="namespaceparser__module.html#a4b73870fbca7e3195b5d1efc61c3f039" target="_top" xlink:title="Function to decide whether a character is a number or not (i.e., 0&#45;9).">
<polygon fill="white" stroke="black" points="664.5,-352.5 664.5,-371.5 780.5,-371.5 780.5,-352.5 664.5,-352.5"/>
<text text-anchor="middle" x="722.5" y="-359.5" font-family="Helvetica,sans-Serif" font-size="10.00">parser_module::is_digit</text>
</a>
</g>
</g>
<!-- Node29&#45;&gt;Node36 -->
<g id="edge45" class="edge">
<title>Node29&#45;&gt;Node36</title>
<path fill="none" stroke="midnightblue" d="M591.48,-311.51C617.4,-321.57 658.49,-337.53 687.53,-348.81"/>
<polygon fill="midnightblue" stroke="midnightblue" points="686.29,-352.08 696.88,-352.44 688.82,-345.56 686.29,-352.08"/>
</g>
<!-- Node37 -->
<g id="node37" class="node">
<title>Node37</title>
<g id="a_node37"><a xlink:href="namespaceparser__module.html#af9cbf87119ef07db357b3240c716e462" target="_top" xlink:title="Function to decide whether a character is a mathematical operator or not. Functions (as e....">
<polygon fill="white" stroke="black" points="820.5,-346.5 820.5,-365.5 953.5,-365.5 953.5,-346.5 820.5,-346.5"/>
<text text-anchor="middle" x="887" y="-353.5" font-family="Helvetica,sans-Serif" font-size="10.00">parser_module::is_operator</text>
</a>
</g>
</g>
<!-- Node29&#45;&gt;Node37 -->
<g id="edge46" class="edge">
<title>Node29&#45;&gt;Node37</title>
<path fill="none" stroke="midnightblue" d="M623.3,-311.53C678.13,-320.81 761.5,-334.92 819.56,-344.75"/>
<polygon fill="midnightblue" stroke="midnightblue" points="819.29,-348.26 829.73,-346.47 820.46,-341.35 819.29,-348.26"/>
</g>
<!-- Node38 -->
<g id="node38" class="node">
<title>Node38</title>
<g id="a_node38"><a xlink:href="namespaceparser__module.html#a3441e2e009e491fac044cc02bc9b144d" target="_top" xlink:title="Store mathematical operators (+&#45;*/) and numbers in arrays.">
<polygon fill="white" stroke="black" points="669,-265 669,-295 776,-295 776,-265 669,-265"/>
<text text-anchor="start" x="677" y="-283" font-family="Helvetica,sans-Serif" font-size="10.00">parser_module::store</text>
<text text-anchor="middle" x="722.5" y="-272" font-family="Helvetica,sans-Serif" font-size="10.00">_digits_operator</text>
</a>
</g>
</g>
<!-- Node29&#45;&gt;Node38 -->
<g id="edge47" class="edge">
<title>Node29&#45;&gt;Node38</title>
<path fill="none" stroke="midnightblue" d="M627.18,-293.43C637.47,-291.97 648.19,-290.44 658.56,-288.96"/>
<polygon fill="midnightblue" stroke="midnightblue" points="659.37,-292.38 668.77,-287.51 658.38,-285.45 659.37,-292.38"/>
</g>
<!-- Node30&#45;&gt;Node4 -->
<g id="edge37" class="edge">
<title>Node30&#45;&gt;Node4</title>
<path fill="none" stroke="midnightblue" d="M753.24,-174.83C800.54,-153.05 893.89,-119.95 956,-162 991.67,-186.15 965.79,-217.81 992,-252 1000,-262.44 1010.84,-271.72 1021.32,-279.28"/>
<polygon fill="midnightblue" stroke="midnightblue" points="1019.36,-282.18 1029.59,-284.95 1023.32,-276.41 1019.36,-282.18"/>
</g>
<!-- Node31&#45;&gt;Node4 -->
<g id="edge44" class="edge">
<title>Node31&#45;&gt;Node4</title>
<path fill="none" stroke="midnightblue" d="M755.42,-438.82C773.52,-430.54 796.75,-420.49 818,-413 877.99,-391.84 900.57,-406.21 956,-375 975.18,-364.2 974.66,-354.55 992,-341 1001.15,-333.85 1011.58,-326.76 1021.33,-320.55"/>
<polygon fill="midnightblue" stroke="midnightblue" points="1023.4,-323.38 1030.02,-315.11 1019.69,-317.44 1023.4,-323.38"/>
</g>
<!-- Node32 -->
<g id="node32" class="node">
<title>Node32</title>
<g id="a_node32"><a xlink:href="namespaceparser__module.html#a2cfd49c431619a7d7ded68e9f89bee70" target="_top" xlink:title="Function to decide whether a character is &quot;*&quot; or &quot;/&quot;.">
<polygon fill="white" stroke="black" points="831.5,-559 831.5,-589 942.5,-589 942.5,-559 831.5,-559"/>
<text text-anchor="start" x="839.5" y="-577" font-family="Helvetica,sans-Serif" font-size="10.00">parser_module::is_dot</text>
<text text-anchor="middle" x="887" y="-566" font-family="Helvetica,sans-Serif" font-size="10.00">_operator</text>
</a>
</g>
</g>
<!-- Node31&#45;&gt;Node32 -->
<g id="edge39" class="edge">
<title>Node31&#45;&gt;Node32</title>
<path fill="none" stroke="midnightblue" d="M734.69,-469.09C750.91,-489.98 782.87,-527.67 818,-550 820.56,-551.63 823.24,-553.16 826,-554.6"/>
<polygon fill="midnightblue" stroke="midnightblue" points="824.5,-557.76 835.03,-558.91 827.51,-551.45 824.5,-557.76"/>
</g>
<!-- Node33 -->
<g id="node33" class="node">
<title>Node33</title>
<g id="a_node33"><a xlink:href="namespaceparser__module.html#ae2806c52d9868da3855d28c188a1679e" target="_top" xlink:title="Function to decide whether a character is a &quot;+&quot; or &quot;&#45;&quot;.">
<polygon fill="white" stroke="black" points="830.5,-510 830.5,-540 943.5,-540 943.5,-510 830.5,-510"/>
<text text-anchor="start" x="838.5" y="-528" font-family="Helvetica,sans-Serif" font-size="10.00">parser_module::is_line</text>
<text text-anchor="middle" x="887" y="-517" font-family="Helvetica,sans-Serif" font-size="10.00">_operator</text>
</a>
</g>
</g>
<!-- Node31&#45;&gt;Node33 -->
<g id="edge40" class="edge">
<title>Node31&#45;&gt;Node33</title>
<path fill="none" stroke="midnightblue" d="M751.61,-469.11C770.19,-478.81 795.22,-491.36 818,-501 822.2,-502.78 826.58,-504.53 831.01,-506.24"/>
<polygon fill="midnightblue" stroke="midnightblue" points="830.12,-509.65 840.71,-509.89 832.58,-503.1 830.12,-509.65"/>
</g>
<!-- Node34 -->
<g id="node34" class="node">
<title>Node34</title>
<g id="a_node34"><a xlink:href="namespaceparser__module.html#a55c1c7aac46e95ec6634aa8a514a90b0" target="_top" xlink:title="Function to decide whether a character is a &quot;^&quot;.">
<polygon fill="white" stroke="black" points="825,-461 825,-491 949,-491 949,-461 825,-461"/>
<text text-anchor="start" x="833" y="-479" font-family="Helvetica,sans-Serif" font-size="10.00">parser_module::is_power</text>
<text text-anchor="middle" x="887" y="-468" font-family="Helvetica,sans-Serif" font-size="10.00">_operator</text>
</a>
</g>
</g>
<!-- Node31&#45;&gt;Node34 -->
<g id="edge41" class="edge">
<title>Node31&#45;&gt;Node34</title>
<path fill="none" stroke="midnightblue" d="M771.82,-460.54C785.35,-462.37 800.34,-464.4 814.9,-466.37"/>
<polygon fill="midnightblue" stroke="midnightblue" points="814.5,-469.85 824.88,-467.73 815.44,-462.92 814.5,-469.85"/>
</g>
<!-- Node35 -->
<g id="node35" class="node">
<title>Node35</title>
<g id="a_node35"><a xlink:href="namespaceparser__module.html#a2040007bd269f7920bcfee6840eb41de" target="_top" xlink:title="Function to perform a simple mathematical operation.">
<polygon fill="white" stroke="black" points="824.5,-422.5 824.5,-441.5 949.5,-441.5 949.5,-422.5 824.5,-422.5"/>
<text text-anchor="middle" x="887" y="-429.5" font-family="Helvetica,sans-Serif" font-size="10.00">parser_module::operation</text>
</a>
</g>
</g>
<!-- Node31&#45;&gt;Node35 -->
<g id="edge42" class="edge">
<title>Node31&#45;&gt;Node35</title>
<path fill="none" stroke="midnightblue" d="M771.82,-447.46C785.07,-445.67 799.72,-443.68 813.99,-441.75"/>
<polygon fill="midnightblue" stroke="midnightblue" points="814.85,-445.16 824.29,-440.35 813.91,-438.23 814.85,-445.16"/>
</g>
<!-- Node35&#45;&gt;Node4 -->
<g id="edge43" class="edge">
<title>Node35&#45;&gt;Node4</title>
<path fill="none" stroke="midnightblue" d="M930.51,-422.41C939.61,-418.94 948.68,-414.27 956,-408 981.67,-386 969.03,-365.8 992,-341 999.13,-333.3 1008,-326.43 1016.85,-320.62"/>
<polygon fill="midnightblue" stroke="midnightblue" points="1018.98,-323.42 1025.62,-315.16 1015.28,-317.47 1018.98,-323.42"/>
</g>
<!-- Node38&#45;&gt;Node4 -->
<g id="edge52" class="edge">
<title>Node38&#45;&gt;Node4</title>
<path fill="none" stroke="midnightblue" d="M776.2,-292.48C789.75,-295.16 804.35,-297.61 818,-299 875.64,-304.86 941.53,-304.6 989.35,-303.17"/>
<polygon fill="midnightblue" stroke="midnightblue" points="989.69,-306.66 999.58,-302.83 989.47,-299.66 989.69,-306.66"/>
</g>
<!-- Node38&#45;&gt;Node37 -->
<g id="edge49" class="edge">
<title>Node38&#45;&gt;Node37</title>
<path fill="none" stroke="midnightblue" d="M754.09,-295.14C763.15,-299.77 773.04,-304.97 782,-310 798.35,-319.17 801.07,-323.95 818,-332 826.55,-336.07 835.99,-339.83 845.04,-343.1"/>
<polygon fill="midnightblue" stroke="midnightblue" points="844.05,-346.47 854.64,-346.46 846.36,-339.86 844.05,-346.47"/>
</g>
<!-- Node39 -->
<g id="node39" class="node">
<title>Node39</title>
<g id="a_node39"><a xlink:href="namespaceparser__module.html#ad490bd346a873a280de4d7d6f343d588" target="_top" xlink:title="Function to define constants.">
<polygon fill="white" stroke="black" points="826,-172 826,-202 948,-202 948,-172 826,-172"/>
<text text-anchor="start" x="834" y="-190" font-family="Helvetica,sans-Serif" font-size="10.00">parser_module::common</text>
<text text-anchor="middle" x="887" y="-179" font-family="Helvetica,sans-Serif" font-size="10.00">_variables</text>
</a>
</g>
</g>
<!-- Node38&#45;&gt;Node39 -->
<g id="edge48" class="edge">
<title>Node38&#45;&gt;Node39</title>
<path fill="none" stroke="midnightblue" d="M741.35,-264.88C759.66,-249.94 789.44,-227.16 818,-212 821.98,-209.89 826.18,-207.87 830.46,-205.98"/>
<polygon fill="midnightblue" stroke="midnightblue" points="832.04,-209.11 839.9,-202.01 829.33,-202.66 832.04,-209.11"/>
</g>
<!-- Node40 -->
<g id="node40" class="node">
<title>Node40</title>
<g id="a_node40"><a xlink:href="namespaceparser__module.html#a7d1134a2461b12dc17514a1970d6b00b" target="_top" xlink:title="Function to decide whether a character can be associated with a number.">
<polygon fill="white" stroke="black" points="818,-270.5 818,-289.5 956,-289.5 956,-270.5 818,-270.5"/>
<text text-anchor="middle" x="887" y="-277.5" font-family="Helvetica,sans-Serif" font-size="10.00">parser_module::is_separator</text>
</a>
</g>
</g>
<!-- Node38&#45;&gt;Node40 -->
<g id="edge50" class="edge">
<title>Node38&#45;&gt;Node40</title>
<path fill="none" stroke="midnightblue" d="M776.26,-280C786.3,-280 797.01,-280 807.65,-280"/>
<polygon fill="midnightblue" stroke="midnightblue" points="807.81,-283.5 817.81,-280 807.81,-276.5 807.81,-283.5"/>
</g>
<!-- Node41 -->
<g id="node41" class="node">
<title>Node41</title>
<g id="a_node41"><a xlink:href="namespaceparser__module.html#afbaa22752e33bc2ac2a3437adb34ea52" target="_top" xlink:title="Subroutine to check the parsing string for consistency and correct it.">
<polygon fill="white" stroke="black" points="832.5,-221 832.5,-251 941.5,-251 941.5,-221 832.5,-221"/>
<text text-anchor="start" x="840.5" y="-239" font-family="Helvetica,sans-Serif" font-size="10.00">parser_module::make</text>
<text text-anchor="middle" x="887" y="-228" font-family="Helvetica,sans-Serif" font-size="10.00">_pars_str_consistent</text>
</a>
</g>
</g>
<!-- Node38&#45;&gt;Node41 -->
<g id="edge51" class="edge">
<title>Node38&#45;&gt;Node41</title>
<path fill="none" stroke="midnightblue" d="M776.26,-265.71C791.01,-261.72 807.19,-257.34 822.49,-253.2"/>
<polygon fill="midnightblue" stroke="midnightblue" points="823.65,-256.51 832.39,-250.52 821.82,-249.75 823.65,-256.51"/>
</g>
</g>
</svg>
        <g id="navigator" transform="translate(0 0)" fill="#404254">
                <rect fill="#f2f5e9" fill-opacity="0.5" stroke="#606060" stroke-width=".5" x="0" y="0" width="60" height="60"/>
                <use id="zoomplus" xlink:href="#zoomPlus" x="17" y="9" onmousedown="handleZoom(evt,'in')"/>
                <use id="zoomminus" xlink:href="#zoomMin" x="42" y="9" onmousedown="handleZoom(evt,'out')"/>
                <use id="reset" xlink:href="#resetDef" x="30" y="36" onmousedown="handleReset()"/>
                <g id="arrowUp" xlink:href="#dirArrow" transform="translate(30 24)" onmousedown="handlePan(0,-1)">
                  <use xlink:href="#rim" fill="#404040">
                        <set attributeName="fill" to="#808080" begin="arrowUp.mouseover" end="arrowUp.mouseout"/>
                  </use>
                  <path fill="none" stroke="white" stroke-width="1.5" d="M0,-3.0v7 M-2.5,-0.5L0,-3.0L2.5,-0.5"/>
                </g>
                <g id="arrowRight" xlink:href="#dirArrow" transform="rotate(90) translate(36 -43)" onmousedown="handlePan(1,0)">
                  <use xlink:href="#rim" fill="#404040">
                        <set attributeName="fill" to="#808080" begin="arrowRight.mouseover" end="arrowRight.mouseout"/>
                  </use>
                  <path fill="none" stroke="white" stroke-width="1.5" d="M0,-3.0v7 M-2.5,-0.5L0,-3.0L2.5,-0.5"/>
                </g>
                <g id="arrowDown" xlink:href="#dirArrow" transform="rotate(180) translate(-30 -48)" onmousedown="handlePan(0,1)">
                  <use xlink:href="#rim" fill="#404040">
                        <set attributeName="fill" to="#808080" begin="arrowDown.mouseover" end="arrowDown.mouseout"/>
                  </use>
                  <path fill="none" stroke="white" stroke-width="1.5" d="M0,-3.0v7 M-2.5,-0.5L0,-3.0L2.5,-0.5"/>
                </g>
                <g id="arrowLeft" xlink:href="#dirArrow" transform="rotate(270) translate(-36 17)" onmousedown="handlePan(-1,0)">
                  <use xlink:href="#rim" fill="#404040">
                        <set attributeName="fill" to="#808080" begin="arrowLeft.mouseover" end="arrowLeft.mouseout"/>
                  </use>
                  <path fill="none" stroke="white" stroke-width="1.5" d="M0,-3.0v7 M-2.5,-0.5L0,-3.0L2.5,-0.5"/>
                </g>
        </g>
        <svg viewBox="0 0 15 15" width="100%" height="30px" preserveAspectRatio="xMaxYMin meet">
         <g id="arrow_out" transform="scale(0.3 0.3)">
          <a xlink:href="namespacetimestep__module_ae9e873f62160bb697fe7aa485d3fd8e2_cgraph_org.svg" target="_base">
           <rect id="button" ry="5" rx="5" y="6" x="6" height="38" width="38"
                fill="#f2f5e9" fill-opacity="0.5" stroke="#606060" stroke-width="1.0"/>
           <path id="arrow"
             d="M 11.500037,31.436501 C 11.940474,20.09759 22.043105,11.32322 32.158766,21.979434 L 37.068811,17.246167 C 37.068811,17.246167 37.088388,32 37.088388,32 L 22.160133,31.978069 C 22.160133,31.978069 26.997745,27.140456 26.997745,27.140456 C 18.528582,18.264221 13.291696,25.230495 11.500037,31.436501 z"
             style="fill:#404040;"/>
          </a>
         </g>
        </svg>
</svg>
