<?xml version="1.0" encoding="UTF-8" standalone="no"?>
<!DOCTYPE svg PUBLIC "-//W3C//DTD SVG 1.1//EN"
 "http://www.w3.org/Graphics/SVG/1.1/DTD/svg11.dtd">
<!-- Generated by graphviz version 2.44.0 ()
 -->
<!-- Title: tw_rate_module::init_theoretical_weak_rates Pages: 1 -->
<!--zoomable 799 -->
<svg id="main" version="1.1" xmlns="http://www.w3.org/2000/svg" xmlns:xlink="http://www.w3.org/1999/xlink" xml:space="preserve" onload="init(evt)">
<style type="text/css"><![CDATA[
.edge:hover path { stroke: red; }
.edge:hover polygon { stroke: red; fill: red; }
]]></style>
<script type="text/javascript"><![CDATA[
var edges = document.getElementsByTagName('g');
if (edges && edges.length) {
  for (var i=0;i<edges.length;i++) {
    if (edges[i].id.substr(0,4)=='edge') {
      edges[i].setAttribute('class','edge');
    }
  }
}
]]></script>
        <defs>
                <circle id="rim" cx="0" cy="0" r="7"/>
                <circle id="rim2" cx="0" cy="0" r="3.5"/>
                <g id="zoomPlus">
                        <use xlink:href="#rim" fill="#404040">
                                <set attributeName="fill" to="#808080" begin="zoomplus.mouseover" end="zoomplus.mouseout"/>
                        </use>
                        <path d="M-4,0h8M0,-4v8" fill="none" stroke="white" stroke-width="1.5" pointer-events="none"/>
                </g>
                <g id="zoomMin">
                        <use xlink:href="#rim" fill="#404040">
                                <set attributeName="fill" to="#808080" begin="zoomminus.mouseover" end="zoomminus.mouseout"/>
                        </use>
                        <path d="M-4,0h8" fill="none" stroke="white" stroke-width="1.5" pointer-events="none"/>
                </g>
                <g id="dirArrow">
                        <path fill="none" stroke="white" stroke-width="1.5" d="M0,-3.0v7 M-2.5,-0.5L0,-3.0L2.5,-0.5"/>
                </g>
               <g id="resetDef">
                       <use xlink:href="#rim2" fill="#404040">
                               <set attributeName="fill" to="#808080" begin="reset.mouseover" end="reset.mouseout"/>
                       </use>
               </g>
        </defs>

<script type="text/javascript">
var viewWidth = 980;
var viewHeight = 799;
var sectionId = 'dynsection-1';
</script>
<script xlink:href="svgpan.js"/>
<svg id="graph" class="graph">
<g id="viewport">
<title>tw_rate_module::init_theoretical_weak_rates</title>
<polygon fill="white" stroke="transparent" points="-4,4 -4,-795.02 976,-795.02 976,4 -4,4"/>
<!-- Node1 -->
<g id="node1" class="node">
<title>Node1</title>
<g id="a_node1"><a xlink:title="Initialize theoretical weak rates.">
<polygon fill="#bfbfbf" stroke="black" points="0,-449.52 0,-479.52 122,-479.52 122,-449.52 0,-449.52"/>
<text text-anchor="start" x="8" y="-467.52" font-family="Helvetica,sans-Serif" font-size="10.00">tw_rate_module::init</text>
<text text-anchor="middle" x="61" y="-456.52" font-family="Helvetica,sans-Serif" font-size="10.00">_theoretical_weak_rates</text>
</a>
</g>
</g>
<!-- Node2 -->
<g id="node2" class="node">
<title>Node2</title>
<g id="a_node2"><a xlink:href="namespacetw__rate__module.html#a67d6cd5f4fe826b464106347b21bb477" target="_top" xlink:title="Calculate derivatives of weak reactions.">
<polygon fill="white" stroke="black" points="165.5,-711.52 165.5,-741.52 290.5,-741.52 290.5,-711.52 165.5,-711.52"/>
<text text-anchor="start" x="173.5" y="-729.52" font-family="Helvetica,sans-Serif" font-size="10.00">tw_rate_module::initialize</text>
<text text-anchor="middle" x="228" y="-718.52" font-family="Helvetica,sans-Serif" font-size="10.00">_cubic_interp</text>
</a>
</g>
</g>
<!-- Node1&#45;&gt;Node2 -->
<g id="edge1" class="edge">
<title>Node1&#45;&gt;Node2</title>
<path fill="none" stroke="midnightblue" d="M68.14,-479.95C81.7,-513.14 116.35,-593.1 158,-652.52 171.18,-671.34 188.91,-690.24 203.09,-704.23"/>
<polygon fill="midnightblue" stroke="midnightblue" points="200.94,-707.02 210.55,-711.47 205.81,-701.99 200.94,-707.02"/>
</g>
<!-- Node4 -->
<g id="node4" class="node">
<title>Node4</title>
<g id="a_node4"><a xlink:href="namespacetw__rate__module.html#a603e1c2b1e9a8baa1b7d409bfae94bef" target="_top" xlink:title=" ">
<polygon fill="white" stroke="black" points="159,-624.02 159,-643.02 297,-643.02 297,-624.02 159,-624.02"/>
<text text-anchor="middle" x="228" y="-631.02" font-family="Helvetica,sans-Serif" font-size="10.00">tw_rate_module::output_n_p</text>
</a>
</g>
</g>
<!-- Node1&#45;&gt;Node4 -->
<g id="edge3" class="edge">
<title>Node1&#45;&gt;Node4</title>
<path fill="none" stroke="midnightblue" d="M76.93,-479.82C107.65,-511.28 177.73,-583.06 210.07,-616.18"/>
<polygon fill="midnightblue" stroke="midnightblue" points="207.94,-619.01 217.43,-623.72 212.95,-614.12 207.94,-619.01"/>
</g>
<!-- Node15 -->
<g id="node15" class="node">
<title>Node15</title>
<g id="a_node15"><a xlink:href="namespacetw__rate__module.html#a9bc2872f0ebd60c52de3e6a797c37cb3" target="_top" xlink:title="Read the theoretical weak rates from a unformatted binary file.">
<polygon fill="white" stroke="black" points="158,-387.52 158,-417.52 298,-417.52 298,-387.52 158,-387.52"/>
<text text-anchor="start" x="166" y="-405.52" font-family="Helvetica,sans-Serif" font-size="10.00">tw_rate_module::read</text>
<text text-anchor="middle" x="228" y="-394.52" font-family="Helvetica,sans-Serif" font-size="10.00">_binary_weak_reaction_data</text>
</a>
</g>
</g>
<!-- Node1&#45;&gt;Node15 -->
<g id="edge23" class="edge">
<title>Node1&#45;&gt;Node15</title>
<path fill="none" stroke="midnightblue" d="M101.94,-449.52C124.57,-441.01 153.09,-430.3 177.18,-421.24"/>
<polygon fill="midnightblue" stroke="midnightblue" points="178.72,-424.4 186.85,-417.61 176.26,-417.85 178.72,-424.4"/>
</g>
<!-- Node17 -->
<g id="node17" class="node">
<title>Node17</title>
<g id="a_node17"><a xlink:href="namespacetw__rate__module.html#a248686b384413e5158c45ad1573f112e" target="_top" xlink:title="Reads and counts the amount of theoretical weak rates.">
<polygon fill="white" stroke="black" points="167,-235.52 167,-265.52 289,-265.52 289,-235.52 167,-235.52"/>
<text text-anchor="start" x="175" y="-253.52" font-family="Helvetica,sans-Serif" font-size="10.00">tw_rate_module::read</text>
<text text-anchor="middle" x="228" y="-242.52" font-family="Helvetica,sans-Serif" font-size="10.00">_theoretical_weak_rates</text>
</a>
</g>
</g>
<!-- Node1&#45;&gt;Node17 -->
<g id="edge28" class="edge">
<title>Node1&#45;&gt;Node17</title>
<path fill="none" stroke="midnightblue" d="M73.6,-449.48C102,-412.64 175.17,-317.74 209.16,-273.66"/>
<polygon fill="midnightblue" stroke="midnightblue" points="212.08,-275.61 215.41,-265.56 206.53,-271.34 212.08,-275.61"/>
</g>
<!-- Node28 -->
<g id="node28" class="node">
<title>Node28</title>
<g id="a_node28"><a xlink:href="namespacetw__rate__module.html#a0016151f3d88cbbea719a9028390dcb4" target="_top" xlink:title="Write the amount of individual reactions to the out.">
<polygon fill="white" stroke="black" points="172.5,-449.52 172.5,-479.52 283.5,-479.52 283.5,-449.52 172.5,-449.52"/>
<text text-anchor="start" x="180.5" y="-467.52" font-family="Helvetica,sans-Serif" font-size="10.00">tw_rate_module::write</text>
<text text-anchor="middle" x="228" y="-456.52" font-family="Helvetica,sans-Serif" font-size="10.00">_reac_verbose_out</text>
</a>
</g>
</g>
<!-- Node1&#45;&gt;Node28 -->
<g id="edge48" class="edge">
<title>Node1&#45;&gt;Node28</title>
<path fill="none" stroke="midnightblue" d="M122.04,-464.52C135.18,-464.52 149.15,-464.52 162.46,-464.52"/>
<polygon fill="midnightblue" stroke="midnightblue" points="162.48,-468.02 172.48,-464.52 162.48,-461.02 162.48,-468.02"/>
</g>
<!-- Node3 -->
<g id="node3" class="node">
<title>Node3</title>
<g id="a_node3"><a xlink:href="namespaceinter__module.html#a91a71b683c2b8d8dacfaad7352ce8a32" target="_top" xlink:title="Calculate derivatives at all points in a given grid.">
<polygon fill="white" stroke="black" points="358,-760.52 358,-790.52 453,-790.52 453,-760.52 358,-760.52"/>
<text text-anchor="start" x="366" y="-778.52" font-family="Helvetica,sans-Serif" font-size="10.00">inter_module::calc</text>
<text text-anchor="middle" x="405.5" y="-767.52" font-family="Helvetica,sans-Serif" font-size="10.00">_derivative_2d</text>
</a>
</g>
</g>
<!-- Node2&#45;&gt;Node3 -->
<g id="edge2" class="edge">
<title>Node2&#45;&gt;Node3</title>
<path fill="none" stroke="midnightblue" d="M283.09,-741.63C303.78,-747.4 327.42,-754 348.3,-759.83"/>
<polygon fill="midnightblue" stroke="midnightblue" points="347.42,-763.22 358,-762.54 349.31,-756.48 347.42,-763.22"/>
</g>
<!-- Node5 -->
<g id="node5" class="node">
<title>Node5</title>
<g id="a_node5"><a xlink:href="namespacefile__handling__class.html#a01ba26324d7662cc0fb2e0eb306cd3e2" target="_top" xlink:title="Close an external file.">
<polygon fill="white" stroke="black" points="537,-618.52 537,-648.52 635,-648.52 635,-618.52 537,-618.52"/>
<text text-anchor="start" x="545" y="-636.52" font-family="Helvetica,sans-Serif" font-size="10.00">file_handling_class</text>
<text text-anchor="middle" x="586" y="-625.52" font-family="Helvetica,sans-Serif" font-size="10.00">::close_io_file</text>
</a>
</g>
</g>
<!-- Node4&#45;&gt;Node5 -->
<g id="edge4" class="edge">
<title>Node4&#45;&gt;Node5</title>
<path fill="none" stroke="midnightblue" d="M297.22,-633.52C363.77,-633.52 463.92,-633.52 526.82,-633.52"/>
<polygon fill="midnightblue" stroke="midnightblue" points="526.96,-637.02 536.96,-633.52 526.96,-630.02 526.96,-637.02"/>
</g>
<!-- Node8 -->
<g id="node8" class="node">
<title>Node8</title>
<g id="a_node8"><a xlink:href="namespacefile__handling__class.html#aeddf55e8478d6220dc04310665427c3a" target="_top" xlink:title="Shorthand for opening a new file for writing (output file)">
<polygon fill="white" stroke="black" points="356.5,-492.52 356.5,-522.52 454.5,-522.52 454.5,-492.52 356.5,-492.52"/>
<text text-anchor="start" x="364.5" y="-510.52" font-family="Helvetica,sans-Serif" font-size="10.00">file_handling_class</text>
<text text-anchor="middle" x="405.5" y="-499.52" font-family="Helvetica,sans-Serif" font-size="10.00">::open_outfile</text>
</a>
</g>
</g>
<!-- Node4&#45;&gt;Node8 -->
<g id="edge8" class="edge">
<title>Node4&#45;&gt;Node8</title>
<path fill="none" stroke="midnightblue" d="M242.48,-623.85C270.76,-603.54 336.85,-556.09 375.31,-528.48"/>
<polygon fill="midnightblue" stroke="midnightblue" points="377.46,-531.25 383.54,-522.57 373.38,-525.56 377.46,-531.25"/>
</g>
<!-- Node10 -->
<g id="node10" class="node">
<title>Node10</title>
<g id="a_node10"><a xlink:href="namespacetw__rate__module.html#aae7dacb01f31b31c10189432cc750156" target="_top" xlink:title="Set wk_index for given T, &#160;and &#160;The index is written into module variable wk_index.">
<polygon fill="white" stroke="black" points="349,-711.52 349,-741.52 462,-741.52 462,-711.52 349,-711.52"/>
<text text-anchor="start" x="357" y="-729.52" font-family="Helvetica,sans-Serif" font-size="10.00">tw_rate_module::weak</text>
<text text-anchor="middle" x="405.5" y="-718.52" font-family="Helvetica,sans-Serif" font-size="10.00">_index</text>
</a>
</g>
</g>
<!-- Node4&#45;&gt;Node10 -->
<g id="edge12" class="edge">
<title>Node4&#45;&gt;Node10</title>
<path fill="none" stroke="midnightblue" d="M241.31,-643.12C260.31,-657.57 298.34,-685.09 334,-702.52 337.72,-704.34 341.62,-706.09 345.59,-707.74"/>
<polygon fill="midnightblue" stroke="midnightblue" points="344.34,-711.01 354.93,-711.43 346.92,-704.5 344.34,-711.01"/>
</g>
<!-- Node12 -->
<g id="node12" class="node">
<title>Node12</title>
<g id="a_node12"><a xlink:href="namespacetw__rate__module.html#ad64c32f568ba69ca2822b1c0a2d4d911" target="_top" xlink:title="Interpolation interface.">
<polygon fill="white" stroke="black" points="349,-662.52 349,-692.52 462,-692.52 462,-662.52 349,-662.52"/>
<text text-anchor="start" x="357" y="-680.52" font-family="Helvetica,sans-Serif" font-size="10.00">tw_rate_module::weak</text>
<text text-anchor="middle" x="405.5" y="-669.52" font-family="Helvetica,sans-Serif" font-size="10.00">_inter</text>
</a>
</g>
</g>
<!-- Node4&#45;&gt;Node12 -->
<g id="edge14" class="edge">
<title>Node4&#45;&gt;Node12</title>
<path fill="none" stroke="midnightblue" d="M267.08,-643.07C288.08,-648.34 314.74,-655.02 338.97,-661.1"/>
<polygon fill="midnightblue" stroke="midnightblue" points="338.28,-664.53 348.83,-663.57 339.98,-657.74 338.28,-664.53"/>
</g>
<!-- Node6 -->
<g id="node6" class="node">
<title>Node6</title>
<g id="a_node6"><a xlink:href="namespaceerror__msg__class.html#a7e065585cc806a5c264de1f088266498" target="_top" xlink:title="Converts a given integer to a string.">
<polygon fill="white" stroke="black" points="868,-361.52 868,-391.52 972,-391.52 972,-361.52 868,-361.52"/>
<text text-anchor="start" x="876" y="-379.52" font-family="Helvetica,sans-Serif" font-size="10.00">error_msg_class::int</text>
<text text-anchor="middle" x="920" y="-368.52" font-family="Helvetica,sans-Serif" font-size="10.00">_to_str</text>
</a>
</g>
</g>
<!-- Node5&#45;&gt;Node6 -->
<g id="edge5" class="edge">
<title>Node5&#45;&gt;Node6</title>
<path fill="none" stroke="midnightblue" d="M635.37,-631.87C689.23,-627.59 776.03,-613.16 832,-565.52 883.14,-522.01 905.88,-442.04 914.5,-401.5"/>
<polygon fill="midnightblue" stroke="midnightblue" points="917.95,-402.12 916.49,-391.63 911.09,-400.74 917.95,-402.12"/>
</g>
<!-- Node7 -->
<g id="node7" class="node">
<title>Node7</title>
<g id="a_node7"><a xlink:href="namespaceerror__msg__class.html#a2453d3b7cb363115c046840baa1dfb75" target="_top" xlink:title="Raise a exception with a given error message.">
<polygon fill="white" stroke="black" points="706.5,-361.52 706.5,-391.52 820.5,-391.52 820.5,-361.52 706.5,-361.52"/>
<text text-anchor="start" x="714.5" y="-379.52" font-family="Helvetica,sans-Serif" font-size="10.00">error_msg_class::raise</text>
<text text-anchor="middle" x="763.5" y="-368.52" font-family="Helvetica,sans-Serif" font-size="10.00">_exception</text>
</a>
</g>
</g>
<!-- Node5&#45;&gt;Node7 -->
<g id="edge6" class="edge">
<title>Node5&#45;&gt;Node7</title>
<path fill="none" stroke="midnightblue" d="M635.01,-619.46C643.72,-615.34 652.19,-610.12 659,-603.52 718.51,-545.95 746.86,-447.77 757.4,-401.74"/>
<polygon fill="midnightblue" stroke="midnightblue" points="760.87,-402.25 759.6,-391.73 754.03,-400.74 760.87,-402.25"/>
</g>
<!-- Node7&#45;&gt;Node6 -->
<g id="edge7" class="edge">
<title>Node7&#45;&gt;Node6</title>
<path fill="none" stroke="midnightblue" d="M820.72,-376.52C832.78,-376.52 845.59,-376.52 857.83,-376.52"/>
<polygon fill="midnightblue" stroke="midnightblue" points="857.95,-380.02 867.95,-376.52 857.95,-373.02 857.95,-380.02"/>
</g>
<!-- Node8&#45;&gt;Node7 -->
<g id="edge11" class="edge">
<title>Node8&#45;&gt;Node7</title>
<path fill="none" stroke="midnightblue" d="M454.82,-515.73C507.77,-522.37 593.82,-526.1 659,-494.52 700.64,-474.35 732.58,-429.02 749.36,-400.79"/>
<polygon fill="midnightblue" stroke="midnightblue" points="752.51,-402.34 754.47,-391.93 746.44,-398.85 752.51,-402.34"/>
</g>
<!-- Node9 -->
<g id="node9" class="node">
<title>Node9</title>
<g id="a_node9"><a xlink:href="namespacefile__handling__class.html#af02196bd5eaf70ecd5ab4cc650094d5e" target="_top" xlink:title="Finds the next unused unit number.">
<polygon fill="white" stroke="black" points="537,-405.52 537,-435.52 635,-435.52 635,-405.52 537,-405.52"/>
<text text-anchor="start" x="545" y="-423.52" font-family="Helvetica,sans-Serif" font-size="10.00">file_handling_class</text>
<text text-anchor="middle" x="586" y="-412.52" font-family="Helvetica,sans-Serif" font-size="10.00">::get_next_io_unit</text>
</a>
</g>
</g>
<!-- Node8&#45;&gt;Node9 -->
<g id="edge9" class="edge">
<title>Node8&#45;&gt;Node9</title>
<path fill="none" stroke="midnightblue" d="M454.6,-494.67C462.39,-491.61 470.14,-487.92 477,-483.52 496.58,-470.96 493.46,-458.14 513,-445.52 517.4,-442.68 522.17,-440.12 527.08,-437.82"/>
<polygon fill="midnightblue" stroke="midnightblue" points="528.83,-440.88 536.63,-433.72 526.06,-434.44 528.83,-440.88"/>
</g>
<!-- Node9&#45;&gt;Node7 -->
<g id="edge10" class="edge">
<title>Node9&#45;&gt;Node7</title>
<path fill="none" stroke="midnightblue" d="M635.42,-408.38C654.34,-403.64 676.34,-398.13 696.66,-393.03"/>
<polygon fill="midnightblue" stroke="midnightblue" points="697.63,-396.4 706.48,-390.57 695.93,-389.61 697.63,-396.4"/>
</g>
<!-- Node11 -->
<g id="node11" class="node">
<title>Node11</title>
<g id="a_node11"><a xlink:href="namespaceinter__module.html#a947ac5de821c77a2cd1cf1ea1ce43589" target="_top" xlink:title="Get indices of the grid for given x&#45; and y&#45; values.">
<polygon fill="white" stroke="black" points="695,-706.02 695,-725.02 832,-725.02 832,-706.02 695,-706.02"/>
<text text-anchor="middle" x="763.5" y="-713.02" font-family="Helvetica,sans-Serif" font-size="10.00">inter_module::get_indice_2d</text>
</a>
</g>
</g>
<!-- Node10&#45;&gt;Node11 -->
<g id="edge13" class="edge">
<title>Node10&#45;&gt;Node11</title>
<path fill="none" stroke="midnightblue" d="M462.28,-732.2C513.52,-736.48 591.52,-740.67 659,-734.52 675.87,-732.99 694.11,-730.07 710.5,-726.98"/>
<polygon fill="midnightblue" stroke="midnightblue" points="711.3,-730.39 720.44,-725.04 709.95,-723.52 711.3,-730.39"/>
</g>
<!-- Node12&#45;&gt;Node6 -->
<g id="edge18" class="edge">
<title>Node12&#45;&gt;Node6</title>
<path fill="none" stroke="midnightblue" d="M456.52,-692.53C463.6,-695.43 470.63,-698.76 477,-702.52 495.43,-713.41 492.99,-726.92 513,-734.52 645.52,-784.91 720.54,-822.14 832,-734.52 884.97,-692.88 909.68,-477.31 916.77,-402.29"/>
<polygon fill="midnightblue" stroke="midnightblue" points="920.29,-402.17 917.72,-391.89 913.32,-401.53 920.29,-402.17"/>
</g>
<!-- Node12&#45;&gt;Node7 -->
<g id="edge22" class="edge">
<title>Node12&#45;&gt;Node7</title>
<path fill="none" stroke="midnightblue" d="M430.1,-662.26C451.62,-648.38 484.34,-627.41 513,-609.52 577.47,-569.3 603.27,-572.19 659,-520.52 698.08,-484.3 731.63,-431.23 749.26,-400.65"/>
<polygon fill="midnightblue" stroke="midnightblue" points="752.32,-402.35 754.21,-391.93 746.23,-398.9 752.32,-402.35"/>
</g>
<!-- Node13 -->
<g id="node13" class="node">
<title>Node13</title>
<g id="a_node13"><a xlink:href="namespaceinter__module.html#a63ff1c6e223efc802d231f8b0b354a22" target="_top" xlink:title="Cubic interpolate on 2&#45;Dimensional grid.">
<polygon fill="white" stroke="black" points="522.5,-668.02 522.5,-687.02 649.5,-687.02 649.5,-668.02 522.5,-668.02"/>
<text text-anchor="middle" x="586" y="-675.02" font-family="Helvetica,sans-Serif" font-size="10.00">inter_module::cubinter_2d</text>
</a>
</g>
</g>
<!-- Node12&#45;&gt;Node13 -->
<g id="edge15" class="edge">
<title>Node12&#45;&gt;Node13</title>
<path fill="none" stroke="midnightblue" d="M462,-677.52C477.85,-677.52 495.36,-677.52 512.08,-677.52"/>
<polygon fill="midnightblue" stroke="midnightblue" points="512.37,-681.02 522.37,-677.52 512.37,-674.02 512.37,-681.02"/>
</g>
<!-- Node14 -->
<g id="node14" class="node">
<title>Node14</title>
<g id="a_node14"><a xlink:href="namespaceinter__module.html#a926757c13b25424fa6d751c645dfa6dc" target="_top" xlink:title="Interpolate linearly on 2 Dimensional grid.">
<polygon fill="white" stroke="black" points="525.5,-706.02 525.5,-725.02 646.5,-725.02 646.5,-706.02 525.5,-706.02"/>
<text text-anchor="middle" x="586" y="-713.02" font-family="Helvetica,sans-Serif" font-size="10.00">inter_module::lininter_2d</text>
</a>
</g>
</g>
<!-- Node12&#45;&gt;Node14 -->
<g id="edge19" class="edge">
<title>Node12&#45;&gt;Node14</title>
<path fill="none" stroke="midnightblue" d="M462,-689.34C483.73,-693.97 508.6,-699.26 530.26,-703.87"/>
<polygon fill="midnightblue" stroke="midnightblue" points="529.77,-707.35 540.28,-706 531.23,-700.5 529.77,-707.35"/>
</g>
<!-- Node13&#45;&gt;Node7 -->
<g id="edge17" class="edge">
<title>Node13&#45;&gt;Node7</title>
<path fill="none" stroke="midnightblue" d="M644.7,-667.89C649.91,-665.43 654.79,-662.35 659,-658.52 735.67,-588.73 755.68,-457.27 760.79,-402.01"/>
<polygon fill="midnightblue" stroke="midnightblue" points="764.31,-401.98 761.65,-391.72 757.33,-401.4 764.31,-401.98"/>
</g>
<!-- Node13&#45;&gt;Node11 -->
<g id="edge16" class="edge">
<title>Node13&#45;&gt;Node11</title>
<path fill="none" stroke="midnightblue" d="M631.29,-687.11C654.76,-692.2 683.78,-698.48 708.56,-703.84"/>
<polygon fill="midnightblue" stroke="midnightblue" points="708.02,-707.31 718.53,-706 709.5,-700.47 708.02,-707.31"/>
</g>
<!-- Node14&#45;&gt;Node7 -->
<g id="edge21" class="edge">
<title>Node14&#45;&gt;Node7</title>
<path fill="none" stroke="midnightblue" d="M645.2,-705.89C650.25,-703.42 654.96,-700.35 659,-696.52 744.83,-615.28 759.64,-462.47 762.08,-402.05"/>
<polygon fill="midnightblue" stroke="midnightblue" points="765.58,-401.98 762.4,-391.88 758.58,-401.76 765.58,-401.98"/>
</g>
<!-- Node14&#45;&gt;Node11 -->
<g id="edge20" class="edge">
<title>Node14&#45;&gt;Node11</title>
<path fill="none" stroke="midnightblue" d="M646.91,-715.52C659.05,-715.52 671.99,-715.52 684.65,-715.52"/>
<polygon fill="midnightblue" stroke="midnightblue" points="684.72,-719.02 694.72,-715.52 684.72,-712.02 684.72,-719.02"/>
</g>
<!-- Node15&#45;&gt;Node7 -->
<g id="edge27" class="edge">
<title>Node15&#45;&gt;Node7</title>
<path fill="none" stroke="midnightblue" d="M284.19,-387.51C300.14,-383.83 317.65,-380.41 334,-378.52 461.52,-363.83 611.81,-368.04 696.24,-372.34"/>
<polygon fill="midnightblue" stroke="midnightblue" points="696.29,-375.85 706.46,-372.88 696.66,-368.86 696.29,-375.85"/>
</g>
<!-- Node16 -->
<g id="node16" class="node">
<title>Node16</title>
<g id="a_node16"><a xlink:href="namespacefile__handling__class.html#a25b51db64738e74a129daae7428c8163" target="_top" xlink:title="Open an unformatted file for reading.">
<polygon fill="white" stroke="black" points="343.5,-387.52 343.5,-417.52 467.5,-417.52 467.5,-387.52 343.5,-387.52"/>
<text text-anchor="start" x="351.5" y="-405.52" font-family="Helvetica,sans-Serif" font-size="10.00">file_handling_class</text>
<text text-anchor="middle" x="405.5" y="-394.52" font-family="Helvetica,sans-Serif" font-size="10.00">::open_unformatted_infile</text>
</a>
</g>
</g>
<!-- Node15&#45;&gt;Node16 -->
<g id="edge24" class="edge">
<title>Node15&#45;&gt;Node16</title>
<path fill="none" stroke="midnightblue" d="M298.11,-402.52C309.68,-402.52 321.71,-402.52 333.33,-402.52"/>
<polygon fill="midnightblue" stroke="midnightblue" points="333.42,-406.02 343.42,-402.52 333.42,-399.02 333.42,-406.02"/>
</g>
<!-- Node16&#45;&gt;Node7 -->
<g id="edge26" class="edge">
<title>Node16&#45;&gt;Node7</title>
<path fill="none" stroke="midnightblue" d="M467.7,-398.05C531.39,-393.4 630.79,-386.14 696.28,-381.36"/>
<polygon fill="midnightblue" stroke="midnightblue" points="696.77,-384.83 706.49,-380.61 696.26,-377.85 696.77,-384.83"/>
</g>
<!-- Node16&#45;&gt;Node9 -->
<g id="edge25" class="edge">
<title>Node16&#45;&gt;Node9</title>
<path fill="none" stroke="midnightblue" d="M467.93,-408.72C487.08,-410.65 508.12,-412.77 527.03,-414.68"/>
<polygon fill="midnightblue" stroke="midnightblue" points="526.69,-418.16 536.99,-415.68 527.39,-411.2 526.69,-418.16"/>
</g>
<!-- Node18 -->
<g id="node18" class="node">
<title>Node18</title>
<g id="a_node18"><a xlink:href="namespacebenam__class.html#af8144ea43fb40187e32fb83da48458f1" target="_top" xlink:title="Returns the 1/n! factor where n is the number of equal isotopes entering a reaction....">
<polygon fill="white" stroke="black" points="335,-203.02 335,-222.02 476,-222.02 476,-203.02 335,-203.02"/>
<text text-anchor="middle" x="405.5" y="-210.02" font-family="Helvetica,sans-Serif" font-size="10.00">benam_class::getcoefficients</text>
</a>
</g>
</g>
<!-- Node17&#45;&gt;Node18 -->
<g id="edge29" class="edge">
<title>Node17&#45;&gt;Node18</title>
<path fill="none" stroke="midnightblue" d="M289.4,-237.45C309.32,-233.13 331.34,-228.36 350.74,-224.16"/>
<polygon fill="midnightblue" stroke="midnightblue" points="351.58,-227.56 360.62,-222.03 350.1,-220.72 351.58,-227.56"/>
</g>
<!-- Node19 -->
<g id="node19" class="node">
<title>Node19</title>
<g id="a_node19"><a xlink:href="namespacefile__handling__class.html#aab870caaf9cbaaf635d537708efbf793" target="_top" xlink:title="Same for reading (input file)">
<polygon fill="white" stroke="black" points="356.5,-279.52 356.5,-309.52 454.5,-309.52 454.5,-279.52 356.5,-279.52"/>
<text text-anchor="start" x="364.5" y="-297.52" font-family="Helvetica,sans-Serif" font-size="10.00">file_handling_class</text>
<text text-anchor="middle" x="405.5" y="-286.52" font-family="Helvetica,sans-Serif" font-size="10.00">::open_infile</text>
</a>
</g>
</g>
<!-- Node17&#45;&gt;Node19 -->
<g id="edge30" class="edge">
<title>Node17&#45;&gt;Node19</title>
<path fill="none" stroke="midnightblue" d="M288.91,-265.54C307.59,-270.23 328.16,-275.38 346.7,-280.03"/>
<polygon fill="midnightblue" stroke="midnightblue" points="345.92,-283.45 356.47,-282.48 347.62,-276.66 345.92,-283.45"/>
</g>
<!-- Node20 -->
<g id="node20" class="node">
<title>Node20</title>
<g id="a_node20"><a xlink:href="namespacetw__rate__module.html#aa8edd1fc29f46e7564d308ac68d43e55" target="_top" xlink:title="Reads weak reaction rates in log format.">
<polygon fill="white" stroke="black" points="339.5,-143.52 339.5,-173.52 471.5,-173.52 471.5,-143.52 339.5,-143.52"/>
<text text-anchor="start" x="347.5" y="-161.52" font-family="Helvetica,sans-Serif" font-size="10.00">tw_rate_module::readweak</text>
<text text-anchor="middle" x="405.5" y="-150.52" font-family="Helvetica,sans-Serif" font-size="10.00">_logft</text>
</a>
</g>
</g>
<!-- Node17&#45;&gt;Node20 -->
<g id="edge33" class="edge">
<title>Node17&#45;&gt;Node20</title>
<path fill="none" stroke="midnightblue" d="M256.05,-235.49C277.17,-223.83 307.31,-207.39 334,-193.52 343.74,-188.46 354.31,-183.13 364.23,-178.2"/>
<polygon fill="midnightblue" stroke="midnightblue" points="366.08,-181.19 373.49,-173.61 362.98,-174.92 366.08,-181.19"/>
</g>
<!-- Node27 -->
<g id="node27" class="node">
<title>Node27</title>
<g id="a_node27"><a xlink:href="namespacemergesort__module.html#a350624bb77af754147cd68332b16b9e5" target="_top" xlink:title="Sorts chapter one of the rate array.">
<polygon fill="white" stroke="black" points="334,-241.02 334,-260.02 477,-260.02 477,-241.02 334,-241.02"/>
<text text-anchor="middle" x="405.5" y="-248.02" font-family="Helvetica,sans-Serif" font-size="10.00">mergesort_module::rrate_sort</text>
</a>
</g>
</g>
<!-- Node17&#45;&gt;Node27 -->
<g id="edge47" class="edge">
<title>Node17&#45;&gt;Node27</title>
<path fill="none" stroke="midnightblue" d="M289.4,-250.52C300.44,-250.52 312.13,-250.52 323.65,-250.52"/>
<polygon fill="midnightblue" stroke="midnightblue" points="323.72,-254.02 333.72,-250.52 323.72,-247.02 323.72,-254.02"/>
</g>
<!-- Node19&#45;&gt;Node7 -->
<g id="edge32" class="edge">
<title>Node19&#45;&gt;Node7</title>
<path fill="none" stroke="midnightblue" d="M454.5,-295.31C506.05,-297.28 589.88,-303.75 659,-324.52 683.77,-331.97 709.78,-345.06 729.53,-356.24"/>
<polygon fill="midnightblue" stroke="midnightblue" points="728,-359.4 738.41,-361.38 731.51,-353.35 728,-359.4"/>
</g>
<!-- Node19&#45;&gt;Node9 -->
<g id="edge31" class="edge">
<title>Node19&#45;&gt;Node9</title>
<path fill="none" stroke="midnightblue" d="M428.03,-309.72C459.74,-332.11 519.13,-374.03 555.07,-399.4"/>
<polygon fill="midnightblue" stroke="midnightblue" points="553.48,-402.56 563.67,-405.47 557.52,-396.84 553.48,-402.56"/>
</g>
<!-- Node20&#45;&gt;Node6 -->
<g id="edge40" class="edge">
<title>Node20&#45;&gt;Node6</title>
<path fill="none" stroke="midnightblue" d="M416.01,-143.38C432.34,-118.97 468.32,-71.85 513,-53.52 644.18,0.27 719.46,32.71 832,-53.52 880.13,-90.41 907.63,-282.05 916.13,-351.42"/>
<polygon fill="midnightblue" stroke="midnightblue" points="912.67,-351.95 917.33,-361.46 919.62,-351.12 912.67,-351.95"/>
</g>
<!-- Node20&#45;&gt;Node7 -->
<g id="edge41" class="edge">
<title>Node20&#45;&gt;Node7</title>
<path fill="none" stroke="midnightblue" d="M437.19,-173.65C458.19,-183.6 486.85,-196.42 513,-205.52 576.32,-227.58 602.99,-206.66 659,-243.52 670.27,-250.94 718.99,-316.66 745.37,-352.86"/>
<polygon fill="midnightblue" stroke="midnightblue" points="742.85,-355.34 751.56,-361.37 748.51,-351.22 742.85,-355.34"/>
</g>
<!-- Node21 -->
<g id="node21" class="node">
<title>Node21</title>
<g id="a_node21"><a xlink:href="namespacebenam__class.html#ad20c821347dd5f7c08dff59c98e69657" target="_top" xlink:title="Returns the index number of isotope &#39;name&#39;.">
<polygon fill="white" stroke="black" points="532,-139.02 532,-158.02 640,-158.02 640,-139.02 532,-139.02"/>
<text text-anchor="middle" x="586" y="-146.02" font-family="Helvetica,sans-Serif" font-size="10.00">benam_class::benam</text>
</a>
</g>
</g>
<!-- Node20&#45;&gt;Node21 -->
<g id="edge34" class="edge">
<title>Node20&#45;&gt;Node21</title>
<path fill="none" stroke="midnightblue" d="M471.7,-154.87C487.96,-153.96 505.37,-152.99 521.54,-152.08"/>
<polygon fill="midnightblue" stroke="midnightblue" points="522.17,-155.55 531.96,-151.5 521.78,-148.56 522.17,-155.55"/>
</g>
<!-- Node22 -->
<g id="node22" class="node">
<title>Node22</title>
<g id="a_node22"><a xlink:href="namespacemergesort__module.html#a68c6cd380e0fbe122d41846adf3f6a5d" target="_top" xlink:title="Bubblesort of array.">
<polygon fill="white" stroke="black" points="513,-101.02 513,-120.02 659,-120.02 659,-101.02 513,-101.02"/>
<text text-anchor="middle" x="586" y="-108.02" font-family="Helvetica,sans-Serif" font-size="10.00">mergesort_module::bubblesort</text>
</a>
</g>
</g>
<!-- Node20&#45;&gt;Node22 -->
<g id="edge35" class="edge">
<title>Node20&#45;&gt;Node22</title>
<path fill="none" stroke="midnightblue" d="M461.48,-143.46C478.03,-138.95 496.25,-134.01 513,-129.52 521.35,-127.29 530.24,-124.92 538.83,-122.65"/>
<polygon fill="midnightblue" stroke="midnightblue" points="539.95,-125.97 548.73,-120.04 538.16,-119.21 539.95,-125.97"/>
</g>
<!-- Node23 -->
<g id="node23" class="node">
<title>Node23</title>
<g id="a_node23"><a xlink:href="namespacebenam__class.html#a65ba3b223cf1227557d9e4ab1fdab4dd" target="_top" xlink:title="Converts isotope names of weak&#45;table format to the ones in reaclib.">
<polygon fill="white" stroke="black" points="530.5,-63.02 530.5,-82.02 641.5,-82.02 641.5,-63.02 530.5,-63.02"/>
<text text-anchor="middle" x="586" y="-70.02" font-family="Helvetica,sans-Serif" font-size="10.00">benam_class::convert</text>
</a>
</g>
</g>
<!-- Node20&#45;&gt;Node23 -->
<g id="edge38" class="edge">
<title>Node20&#45;&gt;Node23</title>
<path fill="none" stroke="midnightblue" d="M426.29,-143.48C446.94,-128.42 480.74,-105.54 513,-91.52 518.47,-89.15 524.31,-87.01 530.2,-85.11"/>
<polygon fill="midnightblue" stroke="midnightblue" points="531.55,-88.35 540.11,-82.11 529.53,-81.65 531.55,-88.35"/>
</g>
<!-- Node25 -->
<g id="node25" class="node">
<title>Node25</title>
<g id="a_node25"><a xlink:href="namespacemergesort__module.html#a6276f21e37053ec65a8da23e55cd311c" target="_top" xlink:title="Takes an array and an array with indices to reorder the first array.">
<polygon fill="white" stroke="black" points="520.5,-177.02 520.5,-196.02 651.5,-196.02 651.5,-177.02 520.5,-177.02"/>
<text text-anchor="middle" x="586" y="-184.02" font-family="Helvetica,sans-Serif" font-size="10.00">mergesort_module::reorder</text>
</a>
</g>
</g>
<!-- Node20&#45;&gt;Node25 -->
<g id="edge42" class="edge">
<title>Node20&#45;&gt;Node25</title>
<path fill="none" stroke="midnightblue" d="M471.7,-168.75C485.56,-170.93 500.27,-173.23 514.32,-175.44"/>
<polygon fill="midnightblue" stroke="midnightblue" points="514,-178.93 524.42,-177.02 515.09,-172.01 514,-178.93"/>
</g>
<!-- Node26 -->
<g id="node26" class="node">
<title>Node26</title>
<g id="a_node26"><a xlink:href="namespacetw__rate__module.html#a245abf84e3851a5ce7d9b88a55919e0e" target="_top" xlink:title="Sorts the entries in weak_rate in increasing order of the decaying nuclide.">
<polygon fill="white" stroke="black" points="532.5,-253.02 532.5,-272.02 639.5,-272.02 639.5,-253.02 532.5,-253.02"/>
<text text-anchor="middle" x="586" y="-260.02" font-family="Helvetica,sans-Serif" font-size="10.00">tw_rate_module::sort</text>
</a>
</g>
</g>
<!-- Node20&#45;&gt;Node26 -->
<g id="edge45" class="edge">
<title>Node20&#45;&gt;Node26</title>
<path fill="none" stroke="midnightblue" d="M444.54,-173.67C455.61,-179.04 467.32,-185.72 477,-193.52 496.94,-209.6 491.99,-223.87 513,-238.52 519.09,-242.77 525.99,-246.31 533.05,-249.25"/>
<polygon fill="midnightblue" stroke="midnightblue" points="532.12,-252.64 542.71,-252.9 534.59,-246.09 532.12,-252.64"/>
</g>
<!-- Node22&#45;&gt;Node6 -->
<g id="edge36" class="edge">
<title>Node22&#45;&gt;Node6</title>
<path fill="none" stroke="midnightblue" d="M630.21,-120.06C639.84,-122.69 649.88,-125.86 659,-129.52 740.59,-162.33 769.32,-163.85 832,-225.52 869.75,-262.67 896.55,-319.62 909.73,-351.92"/>
<polygon fill="midnightblue" stroke="midnightblue" points="906.58,-353.48 913.52,-361.49 913.09,-350.9 906.58,-353.48"/>
</g>
<!-- Node22&#45;&gt;Node7 -->
<g id="edge37" class="edge">
<title>Node22&#45;&gt;Node7</title>
<path fill="none" stroke="midnightblue" d="M644.18,-120.17C649.55,-122.63 654.62,-125.7 659,-129.52 690.51,-157.06 678.87,-177.91 695,-216.52 715.03,-264.47 738.69,-320.38 752,-351.79"/>
<polygon fill="midnightblue" stroke="midnightblue" points="748.82,-353.25 755.95,-361.09 755.27,-350.52 748.82,-353.25"/>
</g>
<!-- Node24 -->
<g id="node24" class="node">
<title>Node24</title>
<g id="a_node24"><a xlink:href="namespacebenam__class.html#a230a820332630678a8a7b4fd112cfd63" target="_top" xlink:title="Returns lowercase of input string. Numbers are not changed.">
<polygon fill="white" stroke="black" points="702,-63.02 702,-82.02 825,-82.02 825,-63.02 702,-63.02"/>
<text text-anchor="middle" x="763.5" y="-70.02" font-family="Helvetica,sans-Serif" font-size="10.00">benam_class::lowercase</text>
</a>
</g>
</g>
<!-- Node23&#45;&gt;Node24 -->
<g id="edge39" class="edge">
<title>Node23&#45;&gt;Node24</title>
<path fill="none" stroke="midnightblue" d="M641.57,-72.52C657.4,-72.52 674.92,-72.52 691.6,-72.52"/>
<polygon fill="midnightblue" stroke="midnightblue" points="691.85,-76.02 701.85,-72.52 691.85,-69.02 691.85,-76.02"/>
</g>
<!-- Node25&#45;&gt;Node6 -->
<g id="edge43" class="edge">
<title>Node25&#45;&gt;Node6</title>
<path fill="none" stroke="midnightblue" d="M621.38,-196.08C633.52,-199.95 647.11,-204.85 659,-210.52 748.65,-253.28 844.86,-321.2 891.07,-355.39"/>
<polygon fill="midnightblue" stroke="midnightblue" points="889,-358.21 899.11,-361.37 893.18,-352.6 889,-358.21"/>
</g>
<!-- Node25&#45;&gt;Node7 -->
<g id="edge44" class="edge">
<title>Node25&#45;&gt;Node7</title>
<path fill="none" stroke="midnightblue" d="M632.62,-196.16C642.01,-199.6 651.36,-204.26 659,-210.52 683.94,-230.97 678.15,-246.02 695,-273.52 711.93,-301.16 732.47,-332.17 746.42,-352.88"/>
<polygon fill="midnightblue" stroke="midnightblue" points="743.64,-355.03 752.14,-361.35 749.44,-351.11 743.64,-355.03"/>
</g>
<!-- Node26&#45;&gt;Node7 -->
<g id="edge46" class="edge">
<title>Node26&#45;&gt;Node7</title>
<path fill="none" stroke="midnightblue" d="M624.83,-272.05C636.21,-275.72 648.47,-280.51 659,-286.52 691.09,-304.84 722.3,-334.02 741.92,-354.16"/>
<polygon fill="midnightblue" stroke="midnightblue" points="739.4,-356.6 748.84,-361.4 744.45,-351.76 739.4,-356.6"/>
</g>
<!-- Node28&#45;&gt;Node6 -->
<g id="edge49" class="edge">
<title>Node28&#45;&gt;Node6</title>
<path fill="none" stroke="midnightblue" d="M245.64,-479.74C265.13,-496.44 299.22,-522.24 334,-532.52 472.62,-573.49 520.32,-561.28 659,-520.52 750.39,-493.67 845.17,-430.67 890.94,-397.61"/>
<polygon fill="midnightblue" stroke="midnightblue" points="893.14,-400.33 899.16,-391.61 889.02,-394.68 893.14,-400.33"/>
</g>
<!-- Node29 -->
<g id="node29" class="node">
<title>Node29</title>
<g id="a_node29"><a xlink:href="namespaceerror__msg__class.html#a339dd5b38c125b6a04653762c94a91f2" target="_top" xlink:title="Write data to the standard output (usually OUT)">
<polygon fill="white" stroke="black" points="348.5,-443.52 348.5,-473.52 462.5,-473.52 462.5,-443.52 348.5,-443.52"/>
<text text-anchor="start" x="356.5" y="-461.52" font-family="Helvetica,sans-Serif" font-size="10.00">error_msg_class::write</text>
<text text-anchor="middle" x="405.5" y="-450.52" font-family="Helvetica,sans-Serif" font-size="10.00">_data_to_std_out</text>
</a>
</g>
</g>
<!-- Node28&#45;&gt;Node29 -->
<g id="edge50" class="edge">
<title>Node28&#45;&gt;Node29</title>
<path fill="none" stroke="midnightblue" d="M283.57,-462.66C300.89,-462.07 320.24,-461.4 338.29,-460.79"/>
<polygon fill="midnightblue" stroke="midnightblue" points="338.58,-464.28 348.45,-460.44 338.34,-457.28 338.58,-464.28"/>
</g>
<!-- Node30 -->
<g id="node30" class="node">
<title>Node30</title>
<g id="a_node30"><a xlink:href="namespaceerror__msg__class.html#af62b9a0c5997255e792b9ebd7322a6a3" target="_top" xlink:title="Write the header of the standard output (usually OUT)">
<polygon fill="white" stroke="black" points="529,-454.52 529,-484.52 643,-484.52 643,-454.52 529,-454.52"/>
<text text-anchor="start" x="537" y="-472.52" font-family="Helvetica,sans-Serif" font-size="10.00">error_msg_class::write</text>
<text text-anchor="middle" x="586" y="-461.52" font-family="Helvetica,sans-Serif" font-size="10.00">_header</text>
</a>
</g>
</g>
<!-- Node29&#45;&gt;Node30 -->
<g id="edge51" class="edge">
<title>Node29&#45;&gt;Node30</title>
<path fill="none" stroke="midnightblue" d="M462.98,-455.68C480.73,-456.29 500.49,-457.44 518.85,-458.9"/>
<polygon fill="midnightblue" stroke="midnightblue" points="518.63,-462.4 528.89,-459.75 519.22,-455.42 518.63,-462.4"/>
</g>
<!-- Node30&#45;&gt;Node29 -->
<g id="edge52" class="edge">
<title>Node30&#45;&gt;Node29</title>
<path fill="none" stroke="midnightblue" d="M528.89,-472.38C511.16,-471.77 491.41,-470.64 473.03,-469.18"/>
<polygon fill="midnightblue" stroke="midnightblue" points="473.24,-465.68 462.98,-468.33 472.65,-472.66 473.24,-465.68"/>
</g>
</g>
</svg>
        <g id="navigator" transform="translate(0 0)" fill="#404254">
                <rect fill="#f2f5e9" fill-opacity="0.5" stroke="#606060" stroke-width=".5" x="0" y="0" width="60" height="60"/>
                <use id="zoomplus" xlink:href="#zoomPlus" x="17" y="9" onmousedown="handleZoom(evt,'in')"/>
                <use id="zoomminus" xlink:href="#zoomMin" x="42" y="9" onmousedown="handleZoom(evt,'out')"/>
                <use id="reset" xlink:href="#resetDef" x="30" y="36" onmousedown="handleReset()"/>
                <g id="arrowUp" xlink:href="#dirArrow" transform="translate(30 24)" onmousedown="handlePan(0,-1)">
                  <use xlink:href="#rim" fill="#404040">
                        <set attributeName="fill" to="#808080" begin="arrowUp.mouseover" end="arrowUp.mouseout"/>
                  </use>
                  <path fill="none" stroke="white" stroke-width="1.5" d="M0,-3.0v7 M-2.5,-0.5L0,-3.0L2.5,-0.5"/>
                </g>
                <g id="arrowRight" xlink:href="#dirArrow" transform="rotate(90) translate(36 -43)" onmousedown="handlePan(1,0)">
                  <use xlink:href="#rim" fill="#404040">
                        <set attributeName="fill" to="#808080" begin="arrowRight.mouseover" end="arrowRight.mouseout"/>
                  </use>
                  <path fill="none" stroke="white" stroke-width="1.5" d="M0,-3.0v7 M-2.5,-0.5L0,-3.0L2.5,-0.5"/>
                </g>
                <g id="arrowDown" xlink:href="#dirArrow" transform="rotate(180) translate(-30 -48)" onmousedown="handlePan(0,1)">
                  <use xlink:href="#rim" fill="#404040">
                        <set attributeName="fill" to="#808080" begin="arrowDown.mouseover" end="arrowDown.mouseout"/>
                  </use>
                  <path fill="none" stroke="white" stroke-width="1.5" d="M0,-3.0v7 M-2.5,-0.5L0,-3.0L2.5,-0.5"/>
                </g>
                <g id="arrowLeft" xlink:href="#dirArrow" transform="rotate(270) translate(-36 17)" onmousedown="handlePan(-1,0)">
                  <use xlink:href="#rim" fill="#404040">
                        <set attributeName="fill" to="#808080" begin="arrowLeft.mouseover" end="arrowLeft.mouseout"/>
                  </use>
                  <path fill="none" stroke="white" stroke-width="1.5" d="M0,-3.0v7 M-2.5,-0.5L0,-3.0L2.5,-0.5"/>
                </g>
        </g>
        <svg viewBox="0 0 15 15" width="100%" height="30px" preserveAspectRatio="xMaxYMin meet">
         <g id="arrow_out" transform="scale(0.3 0.3)">
          <a xlink:href="namespacetw__rate__module_abbdd50e533f6aa8fe22b8104e00bcbaa_cgraph_org.svg" target="_base">
           <rect id="button" ry="5" rx="5" y="6" x="6" height="38" width="38"
                fill="#f2f5e9" fill-opacity="0.5" stroke="#606060" stroke-width="1.0"/>
           <path id="arrow"
             d="M 11.500037,31.436501 C 11.940474,20.09759 22.043105,11.32322 32.158766,21.979434 L 37.068811,17.246167 C 37.068811,17.246167 37.088388,32 37.088388,32 L 22.160133,31.978069 C 22.160133,31.978069 26.997745,27.140456 26.997745,27.140456 C 18.528582,18.264221 13.291696,25.230495 11.500037,31.436501 z"
             style="fill:#404040;"/>
          </a>
         </g>
        </svg>
</svg>
