<?xml version="1.0" encoding="UTF-8" standalone="no"?>
<!DOCTYPE svg PUBLIC "-//W3C//DTD SVG 1.1//EN"
 "http://www.w3.org/Graphics/SVG/1.1/DTD/svg11.dtd">
<!-- Generated by graphviz version 2.44.0 ()
 -->
<!-- Title: nuflux_class::readnucs Pages: 1 -->
<svg width="422pt" height="165pt"
 viewBox="0.00 0.00 422.00 164.50" xmlns="http://www.w3.org/2000/svg" xmlns:xlink="http://www.w3.org/1999/xlink">
<g id="graph0" class="graph" transform="scale(1 1) rotate(0) translate(4 160.5)">
<title>nuflux_class::readnucs</title>
<polygon fill="white" stroke="transparent" points="-4,4 -4,-160.5 418,-160.5 418,4 -4,4"/>
<!-- Node1 -->
<g id="node1" class="node">
<title>Node1</title>
<g id="a_node1"><a xlink:title="Reads neutrino&#45;nuclei reaction file.">
<polygon fill="#bfbfbf" stroke="black" points="0,-77 0,-96 114,-96 114,-77 0,-77"/>
<text text-anchor="middle" x="57" y="-84" font-family="Helvetica,sans-Serif" font-size="10.00">nuflux_class::readnucs</text>
</a>
</g>
</g>
<!-- Node2 -->
<g id="node2" class="node">
<title>Node2</title>
<g id="a_node2"><a xlink:href="namespacebenam__class.html#ad20c821347dd5f7c08dff59c98e69657" target="_top" xlink:title="Returns the index number of isotope &#39;name&#39;.">
<polygon fill="white" stroke="black" points="153,-137 153,-156 261,-156 261,-137 153,-137"/>
<text text-anchor="middle" x="207" y="-144" font-family="Helvetica,sans-Serif" font-size="10.00">benam_class::benam</text>
</a>
</g>
</g>
<!-- Node1&#45;&gt;Node2 -->
<g id="edge1" class="edge">
<title>Node1&#45;&gt;Node2</title>
<path fill="none" stroke="midnightblue" d="M78.23,-96.16C96.72,-104.84 124.92,-117.68 150,-127.5 155.26,-129.56 160.84,-131.61 166.37,-133.56"/>
<polygon fill="midnightblue" stroke="midnightblue" points="165.58,-136.99 176.17,-136.95 167.86,-130.37 165.58,-136.99"/>
</g>
<!-- Node3 -->
<g id="node3" class="node">
<title>Node3</title>
<g id="a_node3"><a xlink:href="namespacebenam__class.html#aef0b2a649260779b20729f29b8ec4a67" target="_top" xlink:title="Identifies the nuclide names and indices corresponding to z,n combinations (z1,n1),...">
<polygon fill="white" stroke="black" points="157,-99 157,-118 257,-118 257,-99 157,-99"/>
<text text-anchor="middle" x="207" y="-106" font-family="Helvetica,sans-Serif" font-size="10.00">benam_class::ident</text>
</a>
</g>
</g>
<!-- Node1&#45;&gt;Node3 -->
<g id="edge2" class="edge">
<title>Node1&#45;&gt;Node3</title>
<path fill="none" stroke="midnightblue" d="M114.37,-94.88C124.9,-96.44 135.93,-98.08 146.54,-99.66"/>
<polygon fill="midnightblue" stroke="midnightblue" points="146.15,-103.14 156.56,-101.15 147.18,-96.22 146.15,-103.14"/>
</g>
<!-- Node4 -->
<g id="node4" class="node">
<title>Node4</title>
<g id="a_node4"><a xlink:href="namespaceerror__msg__class.html#a7e065585cc806a5c264de1f088266498" target="_top" xlink:title="Converts a given integer to a string.">
<polygon fill="white" stroke="black" points="155,-49.5 155,-79.5 259,-79.5 259,-49.5 155,-49.5"/>
<text text-anchor="start" x="163" y="-67.5" font-family="Helvetica,sans-Serif" font-size="10.00">error_msg_class::int</text>
<text text-anchor="middle" x="207" y="-56.5" font-family="Helvetica,sans-Serif" font-size="10.00">_to_str</text>
</a>
</g>
</g>
<!-- Node1&#45;&gt;Node4 -->
<g id="edge3" class="edge">
<title>Node1&#45;&gt;Node4</title>
<path fill="none" stroke="midnightblue" d="M114.37,-78.12C124.3,-76.64 134.67,-75.1 144.73,-73.61"/>
<polygon fill="midnightblue" stroke="midnightblue" points="145.26,-77.07 154.64,-72.13 144.23,-70.14 145.26,-77.07"/>
</g>
<!-- Node5 -->
<g id="node5" class="node">
<title>Node5</title>
<g id="a_node5"><a xlink:href="namespaceerror__msg__class.html#a339dd5b38c125b6a04653762c94a91f2" target="_top" xlink:title="Write data to the standard output (usually OUT)">
<polygon fill="white" stroke="black" points="150,-0.5 150,-30.5 264,-30.5 264,-0.5 150,-0.5"/>
<text text-anchor="start" x="158" y="-18.5" font-family="Helvetica,sans-Serif" font-size="10.00">error_msg_class::write</text>
<text text-anchor="middle" x="207" y="-7.5" font-family="Helvetica,sans-Serif" font-size="10.00">_data_to_std_out</text>
</a>
</g>
</g>
<!-- Node1&#45;&gt;Node5 -->
<g id="edge4" class="edge">
<title>Node1&#45;&gt;Node5</title>
<path fill="none" stroke="midnightblue" d="M76.56,-76.92C95.06,-67.44 124.33,-52.64 150,-40.5 154.01,-38.61 158.19,-36.67 162.39,-34.75"/>
<polygon fill="midnightblue" stroke="midnightblue" points="163.87,-37.92 171.54,-30.6 160.98,-31.54 163.87,-37.92"/>
</g>
<!-- Node6 -->
<g id="node6" class="node">
<title>Node6</title>
<g id="a_node6"><a xlink:href="namespaceerror__msg__class.html#af62b9a0c5997255e792b9ebd7322a6a3" target="_top" xlink:title="Write the header of the standard output (usually OUT)">
<polygon fill="white" stroke="black" points="300,-0.5 300,-30.5 414,-30.5 414,-0.5 300,-0.5"/>
<text text-anchor="start" x="308" y="-18.5" font-family="Helvetica,sans-Serif" font-size="10.00">error_msg_class::write</text>
<text text-anchor="middle" x="357" y="-7.5" font-family="Helvetica,sans-Serif" font-size="10.00">_header</text>
</a>
</g>
</g>
<!-- Node5&#45;&gt;Node6 -->
<g id="edge5" class="edge">
<title>Node5&#45;&gt;Node6</title>
<path fill="none" stroke="midnightblue" d="M264.37,-8.92C272.62,-8.76 281.18,-8.71 289.6,-8.78"/>
<polygon fill="midnightblue" stroke="midnightblue" points="289.73,-12.28 299.78,-8.93 289.83,-5.28 289.73,-12.28"/>
</g>
<!-- Node6&#45;&gt;Node5 -->
<g id="edge6" class="edge">
<title>Node6&#45;&gt;Node5</title>
<path fill="none" stroke="midnightblue" d="M299.78,-22.07C291.54,-22.24 282.98,-22.29 274.56,-22.22"/>
<polygon fill="midnightblue" stroke="midnightblue" points="274.42,-18.72 264.37,-22.08 274.32,-25.72 274.42,-18.72"/>
</g>
</g>
</svg>
