<?xml version="1.0" encoding="UTF-8" standalone="no"?>
<!DOCTYPE svg PUBLIC "-//W3C//DTD SVG 1.1//EN"
 "http://www.w3.org/Graphics/SVG/1.1/DTD/svg11.dtd">
<!-- Generated by graphviz version 2.44.0 ()
 -->
<!-- Title: analysis::output_flow Pages: 1 -->
<svg width="830pt" height="160pt"
 viewBox="0.00 0.00 830.00 159.50" xmlns="http://www.w3.org/2000/svg" xmlns:xlink="http://www.w3.org/1999/xlink">
<g id="graph0" class="graph" transform="scale(1 1) rotate(0) translate(4 155.5)">
<title>analysis::output_flow</title>
<polygon fill="white" stroke="transparent" points="-4,4 -4,-155.5 826,-155.5 826,4 -4,4"/>
<!-- Node1 -->
<g id="node1" class="node">
<title>Node1</title>
<g id="a_node1"><a xlink:title="Output flow files.">
<polygon fill="#bfbfbf" stroke="black" points="0,-113 0,-132 106,-132 106,-113 0,-113"/>
<text text-anchor="middle" x="53" y="-120" font-family="Helvetica,sans-Serif" font-size="10.00">analysis::output_flow</text>
</a>
</g>
</g>
<!-- Node2 -->
<g id="node2" class="node">
<title>Node2</title>
<g id="a_node2"><a xlink:href="namespaceflow__module.html#ac28771864449e319476c3b5401713d6b" target="_top" xlink:title="Flow calculation from jacobian. It is calculated with the help of the Jacobian.">
<polygon fill="white" stroke="black" points="142.5,-132 142.5,-151 252.5,-151 252.5,-132 142.5,-132"/>
<text text-anchor="middle" x="197.5" y="-139" font-family="Helvetica,sans-Serif" font-size="10.00">flow_module::flowcalc</text>
</a>
</g>
</g>
<!-- Node1&#45;&gt;Node2 -->
<g id="edge1" class="edge">
<title>Node1&#45;&gt;Node2</title>
<path fill="none" stroke="midnightblue" d="M106.25,-129.47C114.7,-130.59 123.54,-131.77 132.23,-132.93"/>
<polygon fill="midnightblue" stroke="midnightblue" points="131.97,-136.43 142.34,-134.28 132.89,-129.49 131.97,-136.43"/>
</g>
<!-- Node4 -->
<g id="node4" class="node">
<title>Node4</title>
<g id="a_node4"><a xlink:href="namespaceflow__module.html#a257d9759a7c35a22893a7822acc029b0" target="_top" xlink:title="Output reaction flows to a file.">
<polygon fill="white" stroke="black" points="142,-94 142,-113 253,-113 253,-94 142,-94"/>
<text text-anchor="middle" x="197.5" y="-101" font-family="Helvetica,sans-Serif" font-size="10.00">flow_module::flowprint</text>
</a>
</g>
</g>
<!-- Node1&#45;&gt;Node4 -->
<g id="edge3" class="edge">
<title>Node1&#45;&gt;Node4</title>
<path fill="none" stroke="midnightblue" d="M106.25,-115.53C114.59,-114.42 123.3,-113.26 131.88,-112.12"/>
<polygon fill="midnightblue" stroke="midnightblue" points="132.41,-115.58 141.86,-110.79 131.49,-108.64 132.41,-115.58"/>
</g>
<!-- Node3 -->
<g id="node3" class="node">
<title>Node3</title>
<g id="a_node3"><a xlink:href="namespaceflow__module.html#a820ea4c7e98d83f9887628e9326c2b27" target="_top" xlink:title="Bring flows to correct format.">
<polygon fill="white" stroke="black" points="289,-132 289,-151 398,-151 398,-132 289,-132"/>
<text text-anchor="middle" x="343.5" y="-139" font-family="Helvetica,sans-Serif" font-size="10.00">flow_module::flowsort</text>
</a>
</g>
</g>
<!-- Node2&#45;&gt;Node3 -->
<g id="edge2" class="edge">
<title>Node2&#45;&gt;Node3</title>
<path fill="none" stroke="midnightblue" d="M252.53,-141.5C261.02,-141.5 269.86,-141.5 278.55,-141.5"/>
<polygon fill="midnightblue" stroke="midnightblue" points="278.65,-145 288.65,-141.5 278.65,-138 278.65,-145"/>
</g>
<!-- Node5 -->
<g id="node5" class="node">
<title>Node5</title>
<g id="a_node5"><a xlink:href="namespacefile__handling__class.html#a01ba26324d7662cc0fb2e0eb306cd3e2" target="_top" xlink:title="Close an external file.">
<polygon fill="white" stroke="black" points="434,-88.5 434,-118.5 532,-118.5 532,-88.5 434,-88.5"/>
<text text-anchor="start" x="442" y="-106.5" font-family="Helvetica,sans-Serif" font-size="10.00">file_handling_class</text>
<text text-anchor="middle" x="483" y="-95.5" font-family="Helvetica,sans-Serif" font-size="10.00">::close_io_file</text>
</a>
</g>
</g>
<!-- Node4&#45;&gt;Node5 -->
<g id="edge4" class="edge">
<title>Node4&#45;&gt;Node5</title>
<path fill="none" stroke="midnightblue" d="M253.16,-103.5C302.08,-103.5 373.6,-103.5 423.63,-103.5"/>
<polygon fill="midnightblue" stroke="midnightblue" points="423.65,-107 433.65,-103.5 423.65,-100 423.65,-107"/>
</g>
<!-- Node8 -->
<g id="node8" class="node">
<title>Node8</title>
<g id="a_node8"><a xlink:href="namespacefile__handling__class.html#aeddf55e8478d6220dc04310665427c3a" target="_top" xlink:title="Shorthand for opening a new file for writing (output file)">
<polygon fill="white" stroke="black" points="294.5,-44.5 294.5,-74.5 392.5,-74.5 392.5,-44.5 294.5,-44.5"/>
<text text-anchor="start" x="302.5" y="-62.5" font-family="Helvetica,sans-Serif" font-size="10.00">file_handling_class</text>
<text text-anchor="middle" x="343.5" y="-51.5" font-family="Helvetica,sans-Serif" font-size="10.00">::open_outfile</text>
</a>
</g>
</g>
<!-- Node4&#45;&gt;Node8 -->
<g id="edge8" class="edge">
<title>Node4&#45;&gt;Node8</title>
<path fill="none" stroke="midnightblue" d="M229.75,-93.95C245.81,-89.05 265.9,-82.91 284.66,-77.17"/>
<polygon fill="midnightblue" stroke="midnightblue" points="285.78,-80.49 294.32,-74.22 283.73,-73.8 285.78,-80.49"/>
</g>
<!-- Node6 -->
<g id="node6" class="node">
<title>Node6</title>
<g id="a_node6"><a xlink:href="namespaceerror__msg__class.html#a7e065585cc806a5c264de1f088266498" target="_top" xlink:title="Converts a given integer to a string.">
<polygon fill="white" stroke="black" points="718,-66.5 718,-96.5 822,-96.5 822,-66.5 718,-66.5"/>
<text text-anchor="start" x="726" y="-84.5" font-family="Helvetica,sans-Serif" font-size="10.00">error_msg_class::int</text>
<text text-anchor="middle" x="770" y="-73.5" font-family="Helvetica,sans-Serif" font-size="10.00">_to_str</text>
</a>
</g>
</g>
<!-- Node5&#45;&gt;Node6 -->
<g id="edge5" class="edge">
<title>Node5&#45;&gt;Node6</title>
<path fill="none" stroke="midnightblue" d="M532.02,-99.79C580.36,-96.06 655.09,-90.29 707.68,-86.23"/>
<polygon fill="midnightblue" stroke="midnightblue" points="708.19,-89.7 717.89,-85.45 707.65,-82.73 708.19,-89.7"/>
</g>
<!-- Node7 -->
<g id="node7" class="node">
<title>Node7</title>
<g id="a_node7"><a xlink:href="namespaceerror__msg__class.html#a2453d3b7cb363115c046840baa1dfb75" target="_top" xlink:title="Raise a exception with a given error message.">
<polygon fill="white" stroke="black" points="568,-44.5 568,-74.5 682,-74.5 682,-44.5 568,-44.5"/>
<text text-anchor="start" x="576" y="-62.5" font-family="Helvetica,sans-Serif" font-size="10.00">error_msg_class::raise</text>
<text text-anchor="middle" x="625" y="-51.5" font-family="Helvetica,sans-Serif" font-size="10.00">_exception</text>
</a>
</g>
</g>
<!-- Node5&#45;&gt;Node7 -->
<g id="edge6" class="edge">
<title>Node5&#45;&gt;Node7</title>
<path fill="none" stroke="midnightblue" d="M531.79,-88.48C542.82,-85.01 554.66,-81.29 566.07,-77.71"/>
<polygon fill="midnightblue" stroke="midnightblue" points="567.46,-80.94 575.95,-74.6 565.36,-74.26 567.46,-80.94"/>
</g>
<!-- Node7&#45;&gt;Node6 -->
<g id="edge7" class="edge">
<title>Node7&#45;&gt;Node6</title>
<path fill="none" stroke="midnightblue" d="M682.11,-68.13C690.54,-69.43 699.28,-70.77 707.81,-72.09"/>
<polygon fill="midnightblue" stroke="midnightblue" points="707.3,-75.55 717.71,-73.61 708.36,-68.63 707.3,-75.55"/>
</g>
<!-- Node8&#45;&gt;Node7 -->
<g id="edge11" class="edge">
<title>Node8&#45;&gt;Node7</title>
<path fill="none" stroke="midnightblue" d="M392.55,-59.5C438.11,-59.5 506.94,-59.5 557.71,-59.5"/>
<polygon fill="midnightblue" stroke="midnightblue" points="557.93,-63 567.93,-59.5 557.93,-56 557.93,-63"/>
</g>
<!-- Node9 -->
<g id="node9" class="node">
<title>Node9</title>
<g id="a_node9"><a xlink:href="namespacefile__handling__class.html#af02196bd5eaf70ecd5ab4cc650094d5e" target="_top" xlink:title="Finds the next unused unit number.">
<polygon fill="white" stroke="black" points="434,-0.5 434,-30.5 532,-30.5 532,-0.5 434,-0.5"/>
<text text-anchor="start" x="442" y="-18.5" font-family="Helvetica,sans-Serif" font-size="10.00">file_handling_class</text>
<text text-anchor="middle" x="483" y="-7.5" font-family="Helvetica,sans-Serif" font-size="10.00">::get_next_io_unit</text>
</a>
</g>
</g>
<!-- Node8&#45;&gt;Node9 -->
<g id="edge9" class="edge">
<title>Node8&#45;&gt;Node9</title>
<path fill="none" stroke="midnightblue" d="M391.44,-44.48C402.27,-41.01 413.9,-37.29 425.11,-33.71"/>
<polygon fill="midnightblue" stroke="midnightblue" points="426.35,-36.98 434.81,-30.6 424.22,-30.32 426.35,-36.98"/>
</g>
<!-- Node9&#45;&gt;Node7 -->
<g id="edge10" class="edge">
<title>Node9&#45;&gt;Node7</title>
<path fill="none" stroke="midnightblue" d="M531.79,-30.52C542.82,-33.99 554.66,-37.71 566.07,-41.29"/>
<polygon fill="midnightblue" stroke="midnightblue" points="565.36,-44.74 575.95,-44.4 567.46,-38.06 565.36,-44.74"/>
</g>
</g>
</svg>
