<?xml version="1.0" encoding="UTF-8" standalone="no"?>
<!DOCTYPE svg PUBLIC "-//W3C//DTD SVG 1.1//EN"
 "http://www.w3.org/Graphics/SVG/1.1/DTD/svg11.dtd">
<!-- Generated by graphviz version 2.44.0 ()
 -->
<!-- Title: hdf5_module::write_finab Pages: 1 -->
<svg width="554pt" height="127pt"
 viewBox="0.00 0.00 554.00 127.00" xmlns="http://www.w3.org/2000/svg" xmlns:xlink="http://www.w3.org/1999/xlink">
<g id="graph0" class="graph" transform="scale(1 1) rotate(0) translate(4 123)">
<title>hdf5_module::write_finab</title>
<polygon fill="white" stroke="transparent" points="-4,4 -4,-123 550,-123 550,4 -4,4"/>
<!-- Node1 -->
<g id="node1" class="node">
<title>Node1</title>
<g id="a_node1"><a xlink:title="Write final abundances into hdf5 file.">
<polygon fill="#bfbfbf" stroke="black" points="0,-44.5 0,-74.5 98,-74.5 98,-44.5 0,-44.5"/>
<text text-anchor="start" x="8" y="-62.5" font-family="Helvetica,sans-Serif" font-size="10.00">hdf5_module::write</text>
<text text-anchor="middle" x="49" y="-51.5" font-family="Helvetica,sans-Serif" font-size="10.00">_finab</text>
</a>
</g>
</g>
<!-- Node2 -->
<g id="node2" class="node">
<title>Node2</title>
<g id="a_node2"><a xlink:href="namespacehdf5__module.html#aae22efef4d912e845e2c61def9181f9f" target="_top" xlink:title="Create a hdf5 entry with constant values.">
<polygon fill="white" stroke="black" points="141.5,-88.5 141.5,-118.5 248.5,-118.5 248.5,-88.5 141.5,-88.5"/>
<text text-anchor="start" x="149.5" y="-106.5" font-family="Helvetica,sans-Serif" font-size="10.00">hdf5_module::create</text>
<text text-anchor="middle" x="195" y="-95.5" font-family="Helvetica,sans-Serif" font-size="10.00">_constant_1d_arrays</text>
</a>
</g>
</g>
<!-- Node1&#45;&gt;Node2 -->
<g id="edge1" class="edge">
<title>Node1&#45;&gt;Node2</title>
<path fill="none" stroke="midnightblue" d="M98.35,-74.27C110.08,-77.86 122.76,-81.73 134.93,-85.45"/>
<polygon fill="midnightblue" stroke="midnightblue" points="133.96,-88.81 144.55,-88.39 136.01,-82.12 133.96,-88.81"/>
</g>
<!-- Node3 -->
<g id="node3" class="node">
<title>Node3</title>
<g id="a_node3"><a xlink:href="namespaceerror__msg__class.html#a2453d3b7cb363115c046840baa1dfb75" target="_top" xlink:title="Raise a exception with a given error message.">
<polygon fill="white" stroke="black" points="292,-44.5 292,-74.5 406,-74.5 406,-44.5 292,-44.5"/>
<text text-anchor="start" x="300" y="-62.5" font-family="Helvetica,sans-Serif" font-size="10.00">error_msg_class::raise</text>
<text text-anchor="middle" x="349" y="-51.5" font-family="Helvetica,sans-Serif" font-size="10.00">_exception</text>
</a>
</g>
</g>
<!-- Node1&#45;&gt;Node3 -->
<g id="edge6" class="edge">
<title>Node1&#45;&gt;Node3</title>
<path fill="none" stroke="midnightblue" d="M98.21,-59.5C148.07,-59.5 226.27,-59.5 281.88,-59.5"/>
<polygon fill="midnightblue" stroke="midnightblue" points="281.99,-63 291.99,-59.5 281.99,-56 281.99,-63"/>
</g>
<!-- Node5 -->
<g id="node5" class="node">
<title>Node5</title>
<g id="a_node5"><a xlink:href="namespacehdf5__module.html#afbf1071900336a7ed8fcb9b8980a6682" target="_top" xlink:title="Create a hdf5 entry with constant values.">
<polygon fill="white" stroke="black" points="134,-0.5 134,-30.5 256,-30.5 256,-0.5 134,-0.5"/>
<text text-anchor="start" x="142" y="-18.5" font-family="Helvetica,sans-Serif" font-size="10.00">hdf5_module::create</text>
<text text-anchor="middle" x="195" y="-7.5" font-family="Helvetica,sans-Serif" font-size="10.00">_constant_1d_int_arrays</text>
</a>
</g>
</g>
<!-- Node1&#45;&gt;Node5 -->
<g id="edge4" class="edge">
<title>Node1&#45;&gt;Node5</title>
<path fill="none" stroke="midnightblue" d="M98.35,-44.73C110.08,-41.14 122.76,-37.27 134.93,-33.55"/>
<polygon fill="midnightblue" stroke="midnightblue" points="136.01,-36.88 144.55,-30.61 133.96,-30.19 136.01,-36.88"/>
</g>
<!-- Node2&#45;&gt;Node3 -->
<g id="edge2" class="edge">
<title>Node2&#45;&gt;Node3</title>
<path fill="none" stroke="midnightblue" d="M247.88,-88.48C260.29,-84.89 273.65,-81.02 286.44,-77.32"/>
<polygon fill="midnightblue" stroke="midnightblue" points="287.46,-80.67 296.09,-74.53 285.51,-73.94 287.46,-80.67"/>
</g>
<!-- Node4 -->
<g id="node4" class="node">
<title>Node4</title>
<g id="a_node4"><a xlink:href="namespaceerror__msg__class.html#a7e065585cc806a5c264de1f088266498" target="_top" xlink:title="Converts a given integer to a string.">
<polygon fill="white" stroke="black" points="442,-44.5 442,-74.5 546,-74.5 546,-44.5 442,-44.5"/>
<text text-anchor="start" x="450" y="-62.5" font-family="Helvetica,sans-Serif" font-size="10.00">error_msg_class::int</text>
<text text-anchor="middle" x="494" y="-51.5" font-family="Helvetica,sans-Serif" font-size="10.00">_to_str</text>
</a>
</g>
</g>
<!-- Node3&#45;&gt;Node4 -->
<g id="edge3" class="edge">
<title>Node3&#45;&gt;Node4</title>
<path fill="none" stroke="midnightblue" d="M406.11,-59.5C414.45,-59.5 423.09,-59.5 431.54,-59.5"/>
<polygon fill="midnightblue" stroke="midnightblue" points="431.71,-63 441.71,-59.5 431.71,-56 431.71,-63"/>
</g>
<!-- Node5&#45;&gt;Node3 -->
<g id="edge5" class="edge">
<title>Node5&#45;&gt;Node3</title>
<path fill="none" stroke="midnightblue" d="M247.88,-30.52C260.29,-34.11 273.65,-37.98 286.44,-41.68"/>
<polygon fill="midnightblue" stroke="midnightblue" points="285.51,-45.06 296.09,-44.47 287.46,-38.33 285.51,-45.06"/>
</g>
</g>
</svg>
