<?xml version="1.0" encoding="UTF-8" standalone="no"?>
<!DOCTYPE svg PUBLIC "-//W3C//DTD SVG 1.1//EN"
 "http://www.w3.org/Graphics/SVG/1.1/DTD/svg11.dtd">
<!-- Generated by graphviz version 2.44.0 ()
 -->
<!-- Title: fission_rate_module::count_fission_rates_reaclib_format Pages: 1 -->
<svg width="681pt" height="78pt"
 viewBox="0.00 0.00 681.00 77.50" xmlns="http://www.w3.org/2000/svg" xmlns:xlink="http://www.w3.org/1999/xlink">
<g id="graph0" class="graph" transform="scale(1 1) rotate(0) translate(4 73.5)">
<title>fission_rate_module::count_fission_rates_reaclib_format</title>
<polygon fill="white" stroke="transparent" points="-4,4 -4,-73.5 677,-73.5 677,4 -4,4"/>
<!-- Node1 -->
<g id="node1" class="node">
<title>Node1</title>
<g id="a_node1"><a xlink:title="Count the amount of fission rates in reaclib format.">
<polygon fill="#bfbfbf" stroke="black" points="0,-17 0,-58 105,-58 105,-17 0,-17"/>
<text text-anchor="start" x="8" y="-46" font-family="Helvetica,sans-Serif" font-size="10.00">fission_rate_module</text>
<text text-anchor="start" x="8" y="-35" font-family="Helvetica,sans-Serif" font-size="10.00">::count_fission_rates</text>
<text text-anchor="middle" x="52.5" y="-24" font-family="Helvetica,sans-Serif" font-size="10.00">_reaclib_format</text>
</a>
</g>
</g>
<!-- Node2 -->
<g id="node2" class="node">
<title>Node2</title>
<g id="a_node2"><a xlink:href="namespacebenam__class.html#ad20c821347dd5f7c08dff59c98e69657" target="_top" xlink:title="Returns the index number of isotope &#39;name&#39;.">
<polygon fill="white" stroke="black" points="141,-50 141,-69 249,-69 249,-50 141,-50"/>
<text text-anchor="middle" x="195" y="-57" font-family="Helvetica,sans-Serif" font-size="10.00">benam_class::benam</text>
</a>
</g>
</g>
<!-- Node1&#45;&gt;Node2 -->
<g id="edge1" class="edge">
<title>Node1&#45;&gt;Node2</title>
<path fill="none" stroke="midnightblue" d="M105.02,-45.57C113.35,-46.87 122.06,-48.24 130.63,-49.58"/>
<polygon fill="midnightblue" stroke="midnightblue" points="130.18,-53.05 140.6,-51.14 131.26,-46.13 130.18,-53.05"/>
</g>
<!-- Node3 -->
<g id="node3" class="node">
<title>Node3</title>
<g id="a_node3"><a xlink:href="namespacefile__handling__class.html#aab870caaf9cbaaf635d537708efbf793" target="_top" xlink:title="Same for reading (input file)">
<polygon fill="white" stroke="black" points="146,-0.5 146,-30.5 244,-30.5 244,-0.5 146,-0.5"/>
<text text-anchor="start" x="154" y="-18.5" font-family="Helvetica,sans-Serif" font-size="10.00">file_handling_class</text>
<text text-anchor="middle" x="195" y="-7.5" font-family="Helvetica,sans-Serif" font-size="10.00">::open_infile</text>
</a>
</g>
</g>
<!-- Node1&#45;&gt;Node3 -->
<g id="edge2" class="edge">
<title>Node1&#45;&gt;Node3</title>
<path fill="none" stroke="midnightblue" d="M105.02,-29.43C115,-27.87 125.53,-26.22 135.72,-24.63"/>
<polygon fill="midnightblue" stroke="midnightblue" points="136.42,-28.06 145.76,-23.05 135.33,-21.14 136.42,-28.06"/>
</g>
<!-- Node4 -->
<g id="node4" class="node">
<title>Node4</title>
<g id="a_node4"><a xlink:href="namespacefile__handling__class.html#af02196bd5eaf70ecd5ab4cc650094d5e" target="_top" xlink:title="Finds the next unused unit number.">
<polygon fill="white" stroke="black" points="285,-22.5 285,-52.5 383,-52.5 383,-22.5 285,-22.5"/>
<text text-anchor="start" x="293" y="-40.5" font-family="Helvetica,sans-Serif" font-size="10.00">file_handling_class</text>
<text text-anchor="middle" x="334" y="-29.5" font-family="Helvetica,sans-Serif" font-size="10.00">::get_next_io_unit</text>
</a>
</g>
</g>
<!-- Node3&#45;&gt;Node4 -->
<g id="edge3" class="edge">
<title>Node3&#45;&gt;Node4</title>
<path fill="none" stroke="midnightblue" d="M244.3,-23.26C254.12,-24.83 264.55,-26.51 274.68,-28.13"/>
<polygon fill="midnightblue" stroke="midnightblue" points="274.24,-31.61 284.67,-29.74 275.35,-24.7 274.24,-31.61"/>
</g>
<!-- Node5 -->
<g id="node5" class="node">
<title>Node5</title>
<g id="a_node5"><a xlink:href="namespaceerror__msg__class.html#a2453d3b7cb363115c046840baa1dfb75" target="_top" xlink:title="Raise a exception with a given error message.">
<polygon fill="white" stroke="black" points="419,-0.5 419,-30.5 533,-30.5 533,-0.5 419,-0.5"/>
<text text-anchor="start" x="427" y="-18.5" font-family="Helvetica,sans-Serif" font-size="10.00">error_msg_class::raise</text>
<text text-anchor="middle" x="476" y="-7.5" font-family="Helvetica,sans-Serif" font-size="10.00">_exception</text>
</a>
</g>
</g>
<!-- Node3&#45;&gt;Node5 -->
<g id="edge6" class="edge">
<title>Node3&#45;&gt;Node5</title>
<path fill="none" stroke="midnightblue" d="M244.03,-14.22C257.3,-13.92 271.71,-13.65 285,-13.5 328.55,-13.01 339.45,-13.03 383,-13.5 391.27,-13.59 399.95,-13.73 408.55,-13.88"/>
<polygon fill="midnightblue" stroke="midnightblue" points="408.5,-17.38 418.56,-14.08 408.63,-10.38 408.5,-17.38"/>
</g>
<!-- Node4&#45;&gt;Node5 -->
<g id="edge4" class="edge">
<title>Node4&#45;&gt;Node5</title>
<path fill="none" stroke="midnightblue" d="M383.18,-29.93C391.37,-28.64 400,-27.29 408.55,-25.94"/>
<polygon fill="midnightblue" stroke="midnightblue" points="409.2,-29.38 418.54,-24.37 408.11,-22.47 409.2,-29.38"/>
</g>
<!-- Node6 -->
<g id="node6" class="node">
<title>Node6</title>
<g id="a_node6"><a xlink:href="namespaceerror__msg__class.html#a7e065585cc806a5c264de1f088266498" target="_top" xlink:title="Converts a given integer to a string.">
<polygon fill="white" stroke="black" points="569,-0.5 569,-30.5 673,-30.5 673,-0.5 569,-0.5"/>
<text text-anchor="start" x="577" y="-18.5" font-family="Helvetica,sans-Serif" font-size="10.00">error_msg_class::int</text>
<text text-anchor="middle" x="621" y="-7.5" font-family="Helvetica,sans-Serif" font-size="10.00">_to_str</text>
</a>
</g>
</g>
<!-- Node5&#45;&gt;Node6 -->
<g id="edge5" class="edge">
<title>Node5&#45;&gt;Node6</title>
<path fill="none" stroke="midnightblue" d="M533.11,-15.5C541.45,-15.5 550.09,-15.5 558.54,-15.5"/>
<polygon fill="midnightblue" stroke="midnightblue" points="558.71,-19 568.71,-15.5 558.71,-12 558.71,-19"/>
</g>
</g>
</svg>
