<?xml version="1.0" encoding="UTF-8" standalone="no"?>
<!DOCTYPE svg PUBLIC "-//W3C//DTD SVG 1.1//EN"
 "http://www.w3.org/Graphics/SVG/1.1/DTD/svg11.dtd">
<!-- Generated by graphviz version 2.44.0 ()
 -->
<!-- Title: alpha_decay_rate_module::init_alpha_decay_rates Pages: 1 -->
<svg width="903pt" height="197pt"
 viewBox="0.00 0.00 903.00 197.47" xmlns="http://www.w3.org/2000/svg" xmlns:xlink="http://www.w3.org/1999/xlink">
<g id="graph0" class="graph" transform="scale(1 1) rotate(0) translate(4 193.47)">
<title>alpha_decay_rate_module::init_alpha_decay_rates</title>
<polygon fill="white" stroke="transparent" points="-4,4 -4,-193.47 899,-193.47 899,4 -4,4"/>
<!-- Node1 -->
<g id="node1" class="node">
<title>Node1</title>
<g id="a_node1"><a xlink:title="Initialize alpha decay rates.">
<polygon fill="#bfbfbf" stroke="black" points="0,-109.97 0,-139.97 129,-139.97 129,-109.97 0,-109.97"/>
<text text-anchor="start" x="8" y="-127.97" font-family="Helvetica,sans-Serif" font-size="10.00">alpha_decay_rate_module</text>
<text text-anchor="middle" x="64.5" y="-116.97" font-family="Helvetica,sans-Serif" font-size="10.00">::init_alpha_decay_rates</text>
</a>
</g>
</g>
<!-- Node2 -->
<g id="node2" class="node">
<title>Node2</title>
<g id="a_node2"><a xlink:href="namespacenucstuff__class.html#aaa645672174ccc163425da5aa3872aef" target="_top" xlink:title="Analyze a string and split it with delimiter &quot;;&quot;.">
<polygon fill="white" stroke="black" points="171.5,-158.97 171.5,-188.97 287.5,-188.97 287.5,-158.97 171.5,-158.97"/>
<text text-anchor="start" x="179.5" y="-176.97" font-family="Helvetica,sans-Serif" font-size="10.00">nucstuff_class::analyze</text>
<text text-anchor="middle" x="229.5" y="-165.97" font-family="Helvetica,sans-Serif" font-size="10.00">_src_string</text>
</a>
</g>
</g>
<!-- Node1&#45;&gt;Node2 -->
<g id="edge1" class="edge">
<title>Node1&#45;&gt;Node2</title>
<path fill="none" stroke="midnightblue" d="M115.74,-140.07C132.39,-145.07 151.1,-150.7 168.42,-155.9"/>
<polygon fill="midnightblue" stroke="midnightblue" points="167.85,-159.39 178.43,-158.91 169.86,-152.68 167.85,-159.39"/>
</g>
<!-- Node3 -->
<g id="node3" class="node">
<title>Node3</title>
<g id="a_node3"><a xlink:href="namespacealpha__decay__rate__module.html#a465d9fb4de9b8fc427b3ed859caaec07" target="_top" xlink:title="Count the amount of possible alpha decays.">
<polygon fill="white" stroke="black" points="165,-109.97 165,-139.97 294,-139.97 294,-109.97 165,-109.97"/>
<text text-anchor="start" x="173" y="-127.97" font-family="Helvetica,sans-Serif" font-size="10.00">alpha_decay_rate_module</text>
<text text-anchor="middle" x="229.5" y="-116.97" font-family="Helvetica,sans-Serif" font-size="10.00">::count_reactions</text>
</a>
</g>
</g>
<!-- Node1&#45;&gt;Node3 -->
<g id="edge2" class="edge">
<title>Node1&#45;&gt;Node3</title>
<path fill="none" stroke="midnightblue" d="M129.45,-124.97C137.76,-124.97 146.32,-124.97 154.77,-124.97"/>
<polygon fill="midnightblue" stroke="midnightblue" points="155,-128.47 165,-124.97 155,-121.47 155,-128.47"/>
</g>
<!-- Node10 -->
<g id="node10" class="node">
<title>Node10</title>
<g id="a_node10"><a xlink:href="namespacealpha__decay__rate__module.html#ada92dced3ed70981d06307cae945ff8e" target="_top" xlink:title="Read the alpha decays.">
<polygon fill="white" stroke="black" points="165,-60.97 165,-90.97 294,-90.97 294,-60.97 165,-60.97"/>
<text text-anchor="start" x="173" y="-78.97" font-family="Helvetica,sans-Serif" font-size="10.00">alpha_decay_rate_module</text>
<text text-anchor="middle" x="229.5" y="-67.97" font-family="Helvetica,sans-Serif" font-size="10.00">::read_reactions</text>
</a>
</g>
</g>
<!-- Node1&#45;&gt;Node10 -->
<g id="edge10" class="edge">
<title>Node1&#45;&gt;Node10</title>
<path fill="none" stroke="midnightblue" d="M115.74,-109.86C132.39,-104.86 151.1,-99.23 168.42,-94.03"/>
<polygon fill="midnightblue" stroke="midnightblue" points="169.86,-97.25 178.43,-91.02 167.85,-90.54 169.86,-97.25"/>
</g>
<!-- Node4 -->
<g id="node4" class="node">
<title>Node4</title>
<g id="a_node4"><a xlink:href="namespacebenam__class.html#ad20c821347dd5f7c08dff59c98e69657" target="_top" xlink:title="Returns the index number of isotope &#39;name&#39;.">
<polygon fill="white" stroke="black" points="346.5,-151.47 346.5,-170.47 454.5,-170.47 454.5,-151.47 346.5,-151.47"/>
<text text-anchor="middle" x="400.5" y="-158.47" font-family="Helvetica,sans-Serif" font-size="10.00">benam_class::benam</text>
</a>
</g>
</g>
<!-- Node3&#45;&gt;Node4 -->
<g id="edge3" class="edge">
<title>Node3&#45;&gt;Node4</title>
<path fill="none" stroke="midnightblue" d="M294.39,-138.58C311.03,-142.12 328.81,-145.91 344.92,-149.34"/>
<polygon fill="midnightblue" stroke="midnightblue" points="344.21,-152.77 354.72,-151.43 345.66,-145.92 344.21,-152.77"/>
</g>
<!-- Node5 -->
<g id="node5" class="node">
<title>Node5</title>
<g id="a_node5"><a xlink:href="namespacebenam__class.html#ad2f566697809a5731e560509d2ca7062" target="_top" xlink:title="Finds an isotope index in the network table, given its A and Z. In case it was not found,...">
<polygon fill="white" stroke="black" points="348.5,-113.47 348.5,-132.47 452.5,-132.47 452.5,-113.47 348.5,-113.47"/>
<text text-anchor="middle" x="400.5" y="-120.47" font-family="Helvetica,sans-Serif" font-size="10.00">benam_class::findaz</text>
</a>
</g>
</g>
<!-- Node3&#45;&gt;Node5 -->
<g id="edge4" class="edge">
<title>Node3&#45;&gt;Node5</title>
<path fill="none" stroke="midnightblue" d="M294.39,-124.21C308.76,-124.04 323.97,-123.86 338.23,-123.69"/>
<polygon fill="midnightblue" stroke="midnightblue" points="338.46,-127.19 348.41,-123.57 338.37,-120.19 338.46,-127.19"/>
</g>
<!-- Node6 -->
<g id="node6" class="node">
<title>Node6</title>
<g id="a_node6"><a xlink:href="namespacefile__handling__class.html#aab870caaf9cbaaf635d537708efbf793" target="_top" xlink:title="Same for reading (input file)">
<polygon fill="white" stroke="black" points="351.5,-63.97 351.5,-93.97 449.5,-93.97 449.5,-63.97 351.5,-63.97"/>
<text text-anchor="start" x="359.5" y="-81.97" font-family="Helvetica,sans-Serif" font-size="10.00">file_handling_class</text>
<text text-anchor="middle" x="400.5" y="-70.97" font-family="Helvetica,sans-Serif" font-size="10.00">::open_infile</text>
</a>
</g>
</g>
<!-- Node3&#45;&gt;Node6 -->
<g id="edge5" class="edge">
<title>Node3&#45;&gt;Node6</title>
<path fill="none" stroke="midnightblue" d="M285.84,-109.9C303.71,-105.04 323.56,-99.64 341.61,-94.72"/>
<polygon fill="midnightblue" stroke="midnightblue" points="342.69,-98.05 351.42,-92.05 340.86,-91.3 342.69,-98.05"/>
</g>
<!-- Node7 -->
<g id="node7" class="node">
<title>Node7</title>
<g id="a_node7"><a xlink:href="namespacefile__handling__class.html#af02196bd5eaf70ecd5ab4cc650094d5e" target="_top" xlink:title="Finds the next unused unit number.">
<polygon fill="white" stroke="black" points="507,-63.97 507,-93.97 605,-93.97 605,-63.97 507,-63.97"/>
<text text-anchor="start" x="515" y="-81.97" font-family="Helvetica,sans-Serif" font-size="10.00">file_handling_class</text>
<text text-anchor="middle" x="556" y="-70.97" font-family="Helvetica,sans-Serif" font-size="10.00">::get_next_io_unit</text>
</a>
</g>
</g>
<!-- Node6&#45;&gt;Node7 -->
<g id="edge6" class="edge">
<title>Node6&#45;&gt;Node7</title>
<path fill="none" stroke="midnightblue" d="M449.65,-78.97C464.58,-78.97 481.19,-78.97 496.73,-78.97"/>
<polygon fill="midnightblue" stroke="midnightblue" points="496.76,-82.47 506.76,-78.97 496.76,-75.47 496.76,-82.47"/>
</g>
<!-- Node8 -->
<g id="node8" class="node">
<title>Node8</title>
<g id="a_node8"><a xlink:href="namespaceerror__msg__class.html#a2453d3b7cb363115c046840baa1dfb75" target="_top" xlink:title="Raise a exception with a given error message.">
<polygon fill="white" stroke="black" points="641,-19.97 641,-49.97 755,-49.97 755,-19.97 641,-19.97"/>
<text text-anchor="start" x="649" y="-37.97" font-family="Helvetica,sans-Serif" font-size="10.00">error_msg_class::raise</text>
<text text-anchor="middle" x="698" y="-26.97" font-family="Helvetica,sans-Serif" font-size="10.00">_exception</text>
</a>
</g>
</g>
<!-- Node6&#45;&gt;Node8 -->
<g id="edge9" class="edge">
<title>Node6&#45;&gt;Node8</title>
<path fill="none" stroke="midnightblue" d="M449.58,-66.76C467.51,-62.55 488.1,-58.1 507,-54.97 547.83,-48.2 593.99,-43.28 630.59,-40.01"/>
<polygon fill="midnightblue" stroke="midnightblue" points="630.99,-43.49 640.65,-39.13 630.38,-36.51 630.99,-43.49"/>
</g>
<!-- Node7&#45;&gt;Node8 -->
<g id="edge7" class="edge">
<title>Node7&#45;&gt;Node8</title>
<path fill="none" stroke="midnightblue" d="M604.79,-63.95C615.82,-60.48 627.66,-56.76 639.07,-53.17"/>
<polygon fill="midnightblue" stroke="midnightblue" points="640.46,-56.4 648.95,-50.07 638.36,-49.73 640.46,-56.4"/>
</g>
<!-- Node9 -->
<g id="node9" class="node">
<title>Node9</title>
<g id="a_node9"><a xlink:href="namespaceerror__msg__class.html#a7e065585cc806a5c264de1f088266498" target="_top" xlink:title="Converts a given integer to a string.">
<polygon fill="white" stroke="black" points="791,-19.97 791,-49.97 895,-49.97 895,-19.97 791,-19.97"/>
<text text-anchor="start" x="799" y="-37.97" font-family="Helvetica,sans-Serif" font-size="10.00">error_msg_class::int</text>
<text text-anchor="middle" x="843" y="-26.97" font-family="Helvetica,sans-Serif" font-size="10.00">_to_str</text>
</a>
</g>
</g>
<!-- Node8&#45;&gt;Node9 -->
<g id="edge8" class="edge">
<title>Node8&#45;&gt;Node9</title>
<path fill="none" stroke="midnightblue" d="M755.11,-34.97C763.45,-34.97 772.09,-34.97 780.54,-34.97"/>
<polygon fill="midnightblue" stroke="midnightblue" points="780.71,-38.47 790.71,-34.97 780.71,-31.47 780.71,-38.47"/>
</g>
<!-- Node10&#45;&gt;Node4 -->
<g id="edge11" class="edge">
<title>Node10&#45;&gt;Node4</title>
<path fill="none" stroke="midnightblue" d="M276.61,-91.07C282.7,-93.93 288.67,-97.22 294,-100.97 313.84,-114.91 309.44,-129.11 330,-141.97 333.36,-144.07 336.96,-145.94 340.68,-147.61"/>
<polygon fill="midnightblue" stroke="midnightblue" points="339.54,-150.92 350.13,-151.35 342.12,-144.41 339.54,-150.92"/>
</g>
<!-- Node10&#45;&gt;Node5 -->
<g id="edge12" class="edge">
<title>Node10&#45;&gt;Node5</title>
<path fill="none" stroke="midnightblue" d="M283.67,-91.01C298.65,-95.22 314.96,-99.79 330,-103.97 337.97,-106.18 346.46,-108.51 354.67,-110.76"/>
<polygon fill="midnightblue" stroke="midnightblue" points="353.92,-114.19 364.49,-113.45 355.76,-107.43 353.92,-114.19"/>
</g>
<!-- Node10&#45;&gt;Node6 -->
<g id="edge14" class="edge">
<title>Node10&#45;&gt;Node6</title>
<path fill="none" stroke="midnightblue" d="M294.39,-77.1C309.73,-77.37 326.04,-77.66 341.12,-77.93"/>
<polygon fill="midnightblue" stroke="midnightblue" points="341.27,-81.43 351.33,-78.11 341.39,-74.43 341.27,-81.43"/>
</g>
<!-- Node10&#45;&gt;Node8 -->
<g id="edge15" class="edge">
<title>Node10&#45;&gt;Node8</title>
<path fill="none" stroke="midnightblue" d="M248.51,-60.91C267.42,-46.16 298.71,-24.67 330,-15.97 432,12.41 555.97,-3.99 630.57,-19.03"/>
<polygon fill="midnightblue" stroke="midnightblue" points="630.26,-22.54 640.76,-21.14 631.68,-15.69 630.26,-22.54"/>
</g>
<!-- Node11 -->
<g id="node11" class="node">
<title>Node11</title>
<g id="a_node11"><a xlink:href="namespacebenam__class.html#af8144ea43fb40187e32fb83da48458f1" target="_top" xlink:title="Returns the 1/n! factor where n is the number of equal isotopes entering a reaction....">
<polygon fill="white" stroke="black" points="330,-25.47 330,-44.47 471,-44.47 471,-25.47 330,-25.47"/>
<text text-anchor="middle" x="400.5" y="-32.47" font-family="Helvetica,sans-Serif" font-size="10.00">benam_class::getcoefficients</text>
</a>
</g>
</g>
<!-- Node10&#45;&gt;Node11 -->
<g id="edge13" class="edge">
<title>Node10&#45;&gt;Node11</title>
<path fill="none" stroke="midnightblue" d="M292.47,-60.93C311.55,-56.3 332.28,-51.27 350.37,-46.89"/>
<polygon fill="midnightblue" stroke="midnightblue" points="351.22,-50.28 360.12,-44.52 349.57,-43.48 351.22,-50.28"/>
</g>
</g>
</svg>
