<?xml version="1.0" encoding="UTF-8" standalone="no"?>
<!DOCTYPE svg PUBLIC "-//W3C//DTD SVG 1.1//EN"
 "http://www.w3.org/Graphics/SVG/1.1/DTD/svg11.dtd">
<!-- Generated by graphviz version 2.44.0 ()
 -->
<!-- Title: inter_module::inverse_nr Pages: 1 -->
<svg width="583pt" height="268pt"
 viewBox="0.00 0.00 583.00 268.00" xmlns="http://www.w3.org/2000/svg" xmlns:xlink="http://www.w3.org/1999/xlink">
<g id="graph0" class="graph" transform="scale(1 1) rotate(0) translate(4 264)">
<title>inter_module::inverse_nr</title>
<polygon fill="white" stroke="transparent" points="-4,4 -4,-264 579,-264 579,4 -4,4"/>
<!-- Node1 -->
<g id="node1" class="node">
<title>Node1</title>
<g id="a_node1"><a xlink:title="The inverse of the 1D interpolation function.">
<polygon fill="#bfbfbf" stroke="black" points="0,-126.5 0,-145.5 122,-145.5 122,-126.5 0,-126.5"/>
<text text-anchor="middle" x="61" y="-133.5" font-family="Helvetica,sans-Serif" font-size="10.00">inter_module::inverse_nr</text>
</a>
</g>
</g>
<!-- Node2 -->
<g id="node2" class="node">
<title>Node2</title>
<g id="a_node2"><a xlink:href="namespaceinter__module.html#a206d3ceb40bd2e40d41c462a31ad057e" target="_top" xlink:title="Interface for 1D interpolation routines.">
<polygon fill="white" stroke="black" points="158,-126.5 158,-145.5 269,-145.5 269,-126.5 158,-126.5"/>
<text text-anchor="middle" x="213.5" y="-133.5" font-family="Helvetica,sans-Serif" font-size="10.00">inter_module::interp1d</text>
</a>
</g>
</g>
<!-- Node1&#45;&gt;Node2 -->
<g id="edge1" class="edge">
<title>Node1&#45;&gt;Node2</title>
<path fill="none" stroke="midnightblue" d="M122.35,-136C130.72,-136 139.35,-136 147.79,-136"/>
<polygon fill="midnightblue" stroke="midnightblue" points="147.98,-139.5 157.98,-136 147.98,-132.5 147.98,-139.5"/>
</g>
<!-- Node3 -->
<g id="node3" class="node">
<title>Node3</title>
<g id="a_node3"><a xlink:href="namespaceinter__module.html#a0f02e3fce3429d031516cf2f47f521de" target="_top" xlink:title="Interpolation using prescription of Akima.">
<polygon fill="white" stroke="black" points="309,-240.5 309,-259.5 431,-259.5 431,-240.5 309,-240.5"/>
<text text-anchor="middle" x="370" y="-247.5" font-family="Helvetica,sans-Serif" font-size="10.00">inter_module::akimainter</text>
</a>
</g>
</g>
<!-- Node2&#45;&gt;Node3 -->
<g id="edge2" class="edge">
<title>Node2&#45;&gt;Node3</title>
<path fill="none" stroke="midnightblue" d="M221.01,-145.66C234.43,-164.83 267.11,-207.82 305,-231 308.41,-233.08 312.05,-234.95 315.82,-236.62"/>
<polygon fill="midnightblue" stroke="midnightblue" points="314.75,-239.97 325.34,-240.38 317.33,-233.45 314.75,-239.97"/>
</g>
<!-- Node4 -->
<g id="node4" class="node">
<title>Node4</title>
<g id="a_node4"><a xlink:href="namespaceinter__module.html#a5a696cd56302b2491c59781808af4c08" target="_top" xlink:title="Cubic interpolation in log&#45;log space. Here, it is assumed that.">
<polygon fill="white" stroke="black" points="314.5,-202.5 314.5,-221.5 425.5,-221.5 425.5,-202.5 314.5,-202.5"/>
<text text-anchor="middle" x="370" y="-209.5" font-family="Helvetica,sans-Serif" font-size="10.00">inter_module::cubinter</text>
</a>
</g>
</g>
<!-- Node2&#45;&gt;Node4 -->
<g id="edge3" class="edge">
<title>Node2&#45;&gt;Node4</title>
<path fill="none" stroke="midnightblue" d="M229.47,-145.61C247.09,-156.69 277.46,-175.03 305,-188 313.27,-191.89 322.35,-195.62 331.02,-198.92"/>
<polygon fill="midnightblue" stroke="midnightblue" points="329.96,-202.26 340.55,-202.46 332.39,-195.7 329.96,-202.26"/>
</g>
<!-- Node5 -->
<g id="node5" class="node">
<title>Node5</title>
<g id="a_node5"><a xlink:href="namespaceerror__msg__class.html#a7e065585cc806a5c264de1f088266498" target="_top" xlink:title="Converts a given integer to a string.">
<polygon fill="white" stroke="black" points="471,-99 471,-129 575,-129 575,-99 471,-99"/>
<text text-anchor="start" x="479" y="-117" font-family="Helvetica,sans-Serif" font-size="10.00">error_msg_class::int</text>
<text text-anchor="middle" x="523" y="-106" font-family="Helvetica,sans-Serif" font-size="10.00">_to_str</text>
</a>
</g>
</g>
<!-- Node2&#45;&gt;Node5 -->
<g id="edge4" class="edge">
<title>Node2&#45;&gt;Node5</title>
<path fill="none" stroke="midnightblue" d="M249.69,-145.55C293.59,-155.97 370.7,-169.39 435,-155 453.66,-150.82 473.04,-142.18 488.75,-133.9"/>
<polygon fill="midnightblue" stroke="midnightblue" points="490.45,-136.96 497.55,-129.1 487.1,-130.82 490.45,-136.96"/>
</g>
<!-- Node6 -->
<g id="node6" class="node">
<title>Node6</title>
<g id="a_node6"><a xlink:href="namespaceinter__module.html#ac57284b6bef315c7066a880358ae0862" target="_top" xlink:title="Linear interpolation in lin&#45;log space.">
<polygon fill="white" stroke="black" points="317.5,-126.5 317.5,-145.5 422.5,-145.5 422.5,-126.5 317.5,-126.5"/>
<text text-anchor="middle" x="370" y="-133.5" font-family="Helvetica,sans-Serif" font-size="10.00">inter_module::lininter</text>
</a>
</g>
</g>
<!-- Node2&#45;&gt;Node6 -->
<g id="edge5" class="edge">
<title>Node2&#45;&gt;Node6</title>
<path fill="none" stroke="midnightblue" d="M269.41,-136C281.6,-136 294.61,-136 307.07,-136"/>
<polygon fill="midnightblue" stroke="midnightblue" points="307.37,-139.5 317.37,-136 307.37,-132.5 307.37,-139.5"/>
</g>
<!-- Node7 -->
<g id="node7" class="node">
<title>Node7</title>
<g id="a_node7"><a xlink:href="namespaceinter__module.html#a338de641fc764e51a6ce814e25e70ef2" target="_top" xlink:title="Interpolation using modified prescription of Akima.">
<polygon fill="white" stroke="black" points="305,-88.5 305,-107.5 435,-107.5 435,-88.5 305,-88.5"/>
<text text-anchor="middle" x="370" y="-95.5" font-family="Helvetica,sans-Serif" font-size="10.00">inter_module::makimainter</text>
</a>
</g>
</g>
<!-- Node2&#45;&gt;Node7 -->
<g id="edge6" class="edge">
<title>Node2&#45;&gt;Node7</title>
<path fill="none" stroke="midnightblue" d="M253.49,-126.41C273.78,-121.42 298.79,-115.27 320.35,-109.97"/>
<polygon fill="midnightblue" stroke="midnightblue" points="321.42,-113.31 330.29,-107.52 319.75,-106.51 321.42,-113.31"/>
</g>
<!-- Node8 -->
<g id="node8" class="node">
<title>Node8</title>
<g id="a_node8"><a xlink:href="namespaceinter__module.html#a4b1d9613e140541539a602d2f985b5c7" target="_top" xlink:title="PCHIP interpolation in lin&#45;log space.">
<polygon fill="white" stroke="black" points="310.5,-0.5 310.5,-19.5 429.5,-19.5 429.5,-0.5 310.5,-0.5"/>
<text text-anchor="middle" x="370" y="-7.5" font-family="Helvetica,sans-Serif" font-size="10.00">inter_module::pchipinter</text>
</a>
</g>
</g>
<!-- Node2&#45;&gt;Node8 -->
<g id="edge7" class="edge">
<title>Node2&#45;&gt;Node8</title>
<path fill="none" stroke="midnightblue" d="M219.93,-126.39C232.26,-105.45 264.47,-55.48 305,-29 308.14,-26.95 311.52,-25.11 315.01,-23.46"/>
<polygon fill="midnightblue" stroke="midnightblue" points="316.57,-26.61 324.47,-19.55 313.89,-20.14 316.57,-26.61"/>
</g>
<!-- Node10 -->
<g id="node10" class="node">
<title>Node10</title>
<g id="a_node10"><a xlink:href="namespaceerror__msg__class.html#a2453d3b7cb363115c046840baa1dfb75" target="_top" xlink:title="Raise a exception with a given error message.">
<polygon fill="white" stroke="black" points="313,-39 313,-69 427,-69 427,-39 313,-39"/>
<text text-anchor="start" x="321" y="-57" font-family="Helvetica,sans-Serif" font-size="10.00">error_msg_class::raise</text>
<text text-anchor="middle" x="370" y="-46" font-family="Helvetica,sans-Serif" font-size="10.00">_exception</text>
</a>
</g>
</g>
<!-- Node2&#45;&gt;Node10 -->
<g id="edge9" class="edge">
<title>Node2&#45;&gt;Node10</title>
<path fill="none" stroke="midnightblue" d="M227.83,-126.47C245.07,-114.41 276.32,-93.47 305,-79 309.06,-76.95 313.34,-74.96 317.67,-73.05"/>
<polygon fill="midnightblue" stroke="midnightblue" points="319.34,-76.14 327.18,-69.01 316.61,-69.69 319.34,-76.14"/>
</g>
<!-- Node9 -->
<g id="node9" class="node">
<title>Node9</title>
<g id="a_node9"><a xlink:href="quadpack__module_8f90.html#aada5a652920db442d627f1ca24ff25d7" target="_top" xlink:title="Further information: http://netlib.org/quadpack/index.html https://orion.math.iastate....">
<polygon fill="white" stroke="black" points="508.5,-0.5 508.5,-19.5 537.5,-19.5 537.5,-0.5 508.5,-0.5"/>
<text text-anchor="middle" x="523" y="-7.5" font-family="Helvetica,sans-Serif" font-size="10.00">pi</text>
</a>
</g>
</g>
<!-- Node8&#45;&gt;Node9 -->
<g id="edge8" class="edge">
<title>Node8&#45;&gt;Node9</title>
<path fill="none" stroke="midnightblue" d="M429.81,-10C453.65,-10 479.83,-10 498.18,-10"/>
<polygon fill="midnightblue" stroke="midnightblue" points="498.25,-13.5 508.25,-10 498.25,-6.5 498.25,-13.5"/>
</g>
<!-- Node10&#45;&gt;Node5 -->
<g id="edge10" class="edge">
<title>Node10&#45;&gt;Node5</title>
<path fill="none" stroke="midnightblue" d="M409.61,-69.01C417.98,-72.29 426.79,-75.75 435,-79 448.15,-84.21 462.4,-89.92 475.49,-95.19"/>
<polygon fill="midnightblue" stroke="midnightblue" points="474.19,-98.44 484.78,-98.93 476.81,-91.95 474.19,-98.44"/>
</g>
</g>
</svg>
