<?xml version="1.0" encoding="UTF-8" standalone="no"?>
<!DOCTYPE svg PUBLIC "-//W3C//DTD SVG 1.1//EN"
 "http://www.w3.org/Graphics/SVG/1.1/DTD/svg11.dtd">
<!-- Generated by graphviz version 2.44.0 ()
 -->
<!-- Title: hdf5_module::extend_flow Pages: 1 -->
<svg width="584pt" height="151pt"
 viewBox="0.00 0.00 584.00 151.49" xmlns="http://www.w3.org/2000/svg" xmlns:xlink="http://www.w3.org/1999/xlink">
<g id="graph0" class="graph" transform="scale(1 1) rotate(0) translate(4 147.49)">
<title>hdf5_module::extend_flow</title>
<polygon fill="white" stroke="transparent" points="-4,4 -4,-147.49 580,-147.49 580,4 -4,4"/>
<!-- Node1 -->
<g id="node1" class="node">
<title>Node1</title>
<g id="a_node1"><a xlink:title="Extend the flow in the file With every call a new group is created and the flows are written in this ...">
<polygon fill="#bfbfbf" stroke="black" points="0,-52.49 0,-71.49 128,-71.49 128,-52.49 0,-52.49"/>
<text text-anchor="middle" x="64" y="-59.49" font-family="Helvetica,sans-Serif" font-size="10.00">hdf5_module::extend_flow</text>
</a>
</g>
</g>
<!-- Node2 -->
<g id="node2" class="node">
<title>Node2</title>
<g id="a_node2"><a xlink:href="namespacehdf5__module.html#aae22efef4d912e845e2c61def9181f9f" target="_top" xlink:title="Create a hdf5 entry with constant values.">
<polygon fill="white" stroke="black" points="171.5,-112.99 171.5,-142.99 278.5,-142.99 278.5,-112.99 171.5,-112.99"/>
<text text-anchor="start" x="179.5" y="-130.99" font-family="Helvetica,sans-Serif" font-size="10.00">hdf5_module::create</text>
<text text-anchor="middle" x="225" y="-119.99" font-family="Helvetica,sans-Serif" font-size="10.00">_constant_1d_arrays</text>
</a>
</g>
</g>
<!-- Node1&#45;&gt;Node2 -->
<g id="edge1" class="edge">
<title>Node1&#45;&gt;Node2</title>
<path fill="none" stroke="midnightblue" d="M88.12,-71.59C111.67,-81.37 148.81,-96.78 178.32,-109.03"/>
<polygon fill="midnightblue" stroke="midnightblue" points="177.03,-112.29 187.61,-112.89 179.71,-105.82 177.03,-112.29"/>
</g>
<!-- Node3 -->
<g id="node3" class="node">
<title>Node3</title>
<g id="a_node3"><a xlink:href="namespaceerror__msg__class.html#a2453d3b7cb363115c046840baa1dfb75" target="_top" xlink:title="Raise a exception with a given error message.">
<polygon fill="white" stroke="black" points="322,-46.99 322,-76.99 436,-76.99 436,-46.99 322,-46.99"/>
<text text-anchor="start" x="330" y="-64.99" font-family="Helvetica,sans-Serif" font-size="10.00">error_msg_class::raise</text>
<text text-anchor="middle" x="379" y="-53.99" font-family="Helvetica,sans-Serif" font-size="10.00">_exception</text>
</a>
</g>
</g>
<!-- Node1&#45;&gt;Node3 -->
<g id="edge7" class="edge">
<title>Node1&#45;&gt;Node3</title>
<path fill="none" stroke="midnightblue" d="M128.1,-64.19C140.03,-64.53 152.39,-64.82 164,-64.99 218.22,-65.81 231.78,-65.88 286,-64.99 294.27,-64.86 302.95,-64.66 311.55,-64.42"/>
<polygon fill="midnightblue" stroke="midnightblue" points="311.68,-67.92 321.57,-64.12 311.47,-60.92 311.68,-67.92"/>
</g>
<!-- Node4 -->
<g id="node4" class="node">
<title>Node4</title>
<g id="a_node4"><a xlink:href="namespaceerror__msg__class.html#a7e065585cc806a5c264de1f088266498" target="_top" xlink:title="Converts a given integer to a string.">
<polygon fill="white" stroke="black" points="472,-2.99 472,-32.99 576,-32.99 576,-2.99 472,-2.99"/>
<text text-anchor="start" x="480" y="-20.99" font-family="Helvetica,sans-Serif" font-size="10.00">error_msg_class::int</text>
<text text-anchor="middle" x="524" y="-9.99" font-family="Helvetica,sans-Serif" font-size="10.00">_to_str</text>
</a>
</g>
</g>
<!-- Node1&#45;&gt;Node4 -->
<g id="edge6" class="edge">
<title>Node1&#45;&gt;Node4</title>
<path fill="none" stroke="midnightblue" d="M79.67,-52.46C98.36,-40.93 132.08,-22.19 164,-14.99 266.43,8.09 389.52,-0.51 461.71,-9.09"/>
<polygon fill="midnightblue" stroke="midnightblue" points="461.63,-12.6 471.99,-10.35 462.49,-5.65 461.63,-12.6"/>
</g>
<!-- Node5 -->
<g id="node5" class="node">
<title>Node5</title>
<g id="a_node5"><a xlink:href="namespacehdf5__module.html#afbf1071900336a7ed8fcb9b8980a6682" target="_top" xlink:title="Create a hdf5 entry with constant values.">
<polygon fill="white" stroke="black" points="164,-24.99 164,-54.99 286,-54.99 286,-24.99 164,-24.99"/>
<text text-anchor="start" x="172" y="-42.99" font-family="Helvetica,sans-Serif" font-size="10.00">hdf5_module::create</text>
<text text-anchor="middle" x="225" y="-31.99" font-family="Helvetica,sans-Serif" font-size="10.00">_constant_1d_int_arrays</text>
</a>
</g>
</g>
<!-- Node1&#45;&gt;Node5 -->
<g id="edge4" class="edge">
<title>Node1&#45;&gt;Node5</title>
<path fill="none" stroke="midnightblue" d="M128.3,-53.24C136.61,-52.09 145.17,-50.9 153.59,-49.74"/>
<polygon fill="midnightblue" stroke="midnightblue" points="154.34,-53.17 163.77,-48.33 153.38,-46.23 154.34,-53.17"/>
</g>
<!-- Node2&#45;&gt;Node3 -->
<g id="edge2" class="edge">
<title>Node2&#45;&gt;Node3</title>
<path fill="none" stroke="midnightblue" d="M260.87,-112.85C282.6,-103.42 310.73,-91.2 333.99,-81.1"/>
<polygon fill="midnightblue" stroke="midnightblue" points="335.51,-84.26 343.29,-77.06 332.72,-77.84 335.51,-84.26"/>
</g>
<!-- Node3&#45;&gt;Node4 -->
<g id="edge3" class="edge">
<title>Node3&#45;&gt;Node4</title>
<path fill="none" stroke="midnightblue" d="M428.81,-46.97C440.19,-43.47 452.42,-39.71 464.18,-36.09"/>
<polygon fill="midnightblue" stroke="midnightblue" points="465.39,-39.38 473.92,-33.09 463.33,-32.69 465.39,-39.38"/>
</g>
<!-- Node5&#45;&gt;Node3 -->
<g id="edge5" class="edge">
<title>Node5&#45;&gt;Node3</title>
<path fill="none" stroke="midnightblue" d="M286.07,-48.69C294.54,-49.91 303.29,-51.18 311.86,-52.42"/>
<polygon fill="midnightblue" stroke="midnightblue" points="311.43,-55.89 321.83,-53.86 312.43,-48.97 311.43,-55.89"/>
</g>
</g>
</svg>
