<?xml version="1.0" encoding="UTF-8" standalone="no"?>
<!DOCTYPE svg PUBLIC "-//W3C//DTD SVG 1.1//EN"
 "http://www.w3.org/Graphics/SVG/1.1/DTD/svg11.dtd">
<!-- Generated by graphviz version 2.44.0 ()
 -->
<!-- Title: parameter_class::read_param Pages: 1 -->
<svg width="1098pt" height="535pt"
 viewBox="0.00 0.00 1098.00 534.50" xmlns="http://www.w3.org/2000/svg" xmlns:xlink="http://www.w3.org/1999/xlink">
<g id="graph0" class="graph" transform="scale(1 1) rotate(0) translate(4 530.5)">
<title>parameter_class::read_param</title>
<polygon fill="white" stroke="transparent" points="-4,4 -4,-530.5 1094,-530.5 1094,4 -4,4"/>
<!-- Node1 -->
<g id="node1" class="node">
<title>Node1</title>
<g id="a_node1"><a xlink:title="This function reads the parameter file.">
<polygon fill="#bfbfbf" stroke="black" points="0,-219.5 0,-249.5 112,-249.5 112,-219.5 0,-219.5"/>
<text text-anchor="start" x="8" y="-237.5" font-family="Helvetica,sans-Serif" font-size="10.00">parameter_class::read</text>
<text text-anchor="middle" x="56" y="-226.5" font-family="Helvetica,sans-Serif" font-size="10.00">_param</text>
</a>
</g>
</g>
<!-- Node2 -->
<g id="node2" class="node">
<title>Node2</title>
<g id="a_node2"><a xlink:href="namespaceparameter__class.html#abf23565b6e687986d3a13c46796c8976" target="_top" xlink:title="Check for consistency of parameter.">
<polygon fill="white" stroke="black" points="148,-385.5 148,-415.5 267,-415.5 267,-385.5 148,-385.5"/>
<text text-anchor="start" x="156" y="-403.5" font-family="Helvetica,sans-Serif" font-size="10.00">parameter_class::check</text>
<text text-anchor="middle" x="207.5" y="-392.5" font-family="Helvetica,sans-Serif" font-size="10.00">_param</text>
</a>
</g>
</g>
<!-- Node1&#45;&gt;Node2 -->
<g id="edge1" class="edge">
<title>Node1&#45;&gt;Node2</title>
<path fill="none" stroke="midnightblue" d="M70.53,-249.52C96.75,-278.64 154.62,-342.89 185.74,-377.45"/>
<polygon fill="midnightblue" stroke="midnightblue" points="183.38,-380.06 192.68,-385.15 188.58,-375.38 183.38,-380.06"/>
</g>
<!-- Node3 -->
<g id="node3" class="node">
<title>Node3</title>
<g id="a_node3"><a xlink:href="namespaceerror__msg__class.html#a7e065585cc806a5c264de1f088266498" target="_top" xlink:title="Converts a given integer to a string.">
<polygon fill="white" stroke="black" points="986,-423.5 986,-453.5 1090,-453.5 1090,-423.5 986,-423.5"/>
<text text-anchor="start" x="994" y="-441.5" font-family="Helvetica,sans-Serif" font-size="10.00">error_msg_class::int</text>
<text text-anchor="middle" x="1038" y="-430.5" font-family="Helvetica,sans-Serif" font-size="10.00">_to_str</text>
</a>
</g>
</g>
<!-- Node1&#45;&gt;Node3 -->
<g id="edge13" class="edge">
<title>Node1&#45;&gt;Node3</title>
<path fill="none" stroke="midnightblue" d="M60.48,-249.69C69.28,-284.95 95.52,-373.31 148,-425.5 222.86,-499.95 257.43,-526.5 363,-526.5 363,-526.5 363,-526.5 711.5,-526.5 819.21,-526.5 848.03,-518.18 950,-483.5 968.57,-477.18 988.07,-467.42 1003.89,-458.6"/>
<polygon fill="midnightblue" stroke="midnightblue" points="1005.8,-461.55 1012.75,-453.55 1002.33,-455.47 1005.8,-461.55"/>
</g>
<!-- Node5 -->
<g id="node5" class="node">
<title>Node5</title>
<g id="a_node5"><a xlink:href="namespaceerror__msg__class.html#a2453d3b7cb363115c046840baa1dfb75" target="_top" xlink:title="Raise a exception with a given error message.">
<polygon fill="white" stroke="black" points="836,-210.5 836,-240.5 950,-240.5 950,-210.5 836,-210.5"/>
<text text-anchor="start" x="844" y="-228.5" font-family="Helvetica,sans-Serif" font-size="10.00">error_msg_class::raise</text>
<text text-anchor="middle" x="893" y="-217.5" font-family="Helvetica,sans-Serif" font-size="10.00">_exception</text>
</a>
</g>
</g>
<!-- Node1&#45;&gt;Node5 -->
<g id="edge17" class="edge">
<title>Node1&#45;&gt;Node5</title>
<path fill="none" stroke="midnightblue" d="M112.11,-233.91C260.09,-232.31 665.73,-227.94 825.8,-226.21"/>
<polygon fill="midnightblue" stroke="midnightblue" points="826.02,-229.71 835.98,-226.1 825.94,-222.71 826.02,-229.71"/>
</g>
<!-- Node9 -->
<g id="node9" class="node">
<title>Node9</title>
<g id="a_node9"><a xlink:href="namespacefile__handling__class.html#aab870caaf9cbaaf635d537708efbf793" target="_top" xlink:title="Same for reading (input file)">
<polygon fill="white" stroke="black" points="474,-175.5 474,-205.5 572,-205.5 572,-175.5 474,-175.5"/>
<text text-anchor="start" x="482" y="-193.5" font-family="Helvetica,sans-Serif" font-size="10.00">file_handling_class</text>
<text text-anchor="middle" x="523" y="-182.5" font-family="Helvetica,sans-Serif" font-size="10.00">::open_infile</text>
</a>
</g>
</g>
<!-- Node1&#45;&gt;Node9 -->
<g id="edge14" class="edge">
<title>Node1&#45;&gt;Node9</title>
<path fill="none" stroke="midnightblue" d="M112.25,-225.34C124.03,-223.57 136.41,-221.85 148,-220.5 259.38,-207.48 390.09,-198.41 463.76,-193.86"/>
<polygon fill="midnightblue" stroke="midnightblue" points="464.01,-197.35 473.77,-193.25 463.58,-190.36 464.01,-197.35"/>
</g>
<!-- Node10 -->
<g id="node10" class="node">
<title>Node10</title>
<g id="a_node10"><a xlink:href="namespaceparameter__class.html#a1732f13c754204b16d3e3b7bf429ab05" target="_top" xlink:title="Sets a global parameter param_name to the value, given by its string representation param_value.">
<polygon fill="white" stroke="black" points="310.5,-90.5 310.5,-120.5 417.5,-120.5 417.5,-90.5 310.5,-90.5"/>
<text text-anchor="start" x="318.5" y="-108.5" font-family="Helvetica,sans-Serif" font-size="10.00">parameter_class::set</text>
<text text-anchor="middle" x="364" y="-97.5" font-family="Helvetica,sans-Serif" font-size="10.00">_param</text>
</a>
</g>
</g>
<!-- Node1&#45;&gt;Node10 -->
<g id="edge18" class="edge">
<title>Node1&#45;&gt;Node10</title>
<path fill="none" stroke="midnightblue" d="M79.08,-219.33C97.06,-207.43 123.42,-191 148,-179.5 197.7,-156.25 256.81,-136.43 300.46,-123.18"/>
<polygon fill="midnightblue" stroke="midnightblue" points="301.52,-126.51 310.08,-120.28 299.5,-119.81 301.52,-126.51"/>
</g>
<!-- Node2&#45;&gt;Node3 -->
<g id="edge2" class="edge">
<title>Node2&#45;&gt;Node3</title>
<path fill="none" stroke="midnightblue" d="M223.62,-415.7C241.06,-432.17 271.42,-457.66 303,-469.5 394.48,-503.79 424.3,-488.5 522,-488.5 522,-488.5 522,-488.5 711.5,-488.5 804.44,-488.5 910.59,-468.34 975.7,-453.62"/>
<polygon fill="midnightblue" stroke="midnightblue" points="976.82,-456.96 985.79,-451.31 975.26,-450.13 976.82,-456.96"/>
</g>
<!-- Node4 -->
<g id="node4" class="node">
<title>Node4</title>
<g id="a_node4"><a xlink:href="namespaceerror__msg__class.html#a5bc9f3b670b725cc43276934b867d801" target="_top" xlink:title="Converts a given real to a string with format &quot;(1pE10.2)&quot;.">
<polygon fill="white" stroke="black" points="308,-429.5 308,-459.5 420,-459.5 420,-429.5 308,-429.5"/>
<text text-anchor="start" x="316" y="-447.5" font-family="Helvetica,sans-Serif" font-size="10.00">error_msg_class::num</text>
<text text-anchor="middle" x="364" y="-436.5" font-family="Helvetica,sans-Serif" font-size="10.00">_to_str</text>
</a>
</g>
</g>
<!-- Node2&#45;&gt;Node4 -->
<g id="edge3" class="edge">
<title>Node2&#45;&gt;Node4</title>
<path fill="none" stroke="midnightblue" d="M261.24,-415.52C273.85,-419.11 287.43,-422.98 300.43,-426.68"/>
<polygon fill="midnightblue" stroke="midnightblue" points="299.66,-430.1 310.24,-429.47 301.58,-423.37 299.66,-430.1"/>
</g>
<!-- Node2&#45;&gt;Node5 -->
<g id="edge4" class="edge">
<title>Node2&#45;&gt;Node5</title>
<path fill="none" stroke="midnightblue" d="M267.3,-402.33C398.57,-405.4 710.97,-406.81 800,-354.5 840.91,-330.46 868.46,-280.25 882.08,-250.05"/>
<polygon fill="midnightblue" stroke="midnightblue" points="885.39,-251.21 886.16,-240.64 878.97,-248.42 885.39,-251.21"/>
</g>
<!-- Node6 -->
<g id="node6" class="node">
<title>Node6</title>
<g id="a_node6"><a xlink:href="namespaceparameter__class.html#a0f6fe42fb23535c03a09f8633d733b68" target="_top" xlink:title="Read important parameters from a binary file and check for consistency.">
<polygon fill="white" stroke="black" points="303,-331 303,-372 425,-372 425,-331 303,-331"/>
<text text-anchor="start" x="311" y="-360" font-family="Helvetica,sans-Serif" font-size="10.00">parameter_class::read</text>
<text text-anchor="start" x="311" y="-349" font-family="Helvetica,sans-Serif" font-size="10.00">_sanity_check_prepared</text>
<text text-anchor="middle" x="364" y="-338" font-family="Helvetica,sans-Serif" font-size="10.00">_network</text>
</a>
</g>
</g>
<!-- Node2&#45;&gt;Node6 -->
<g id="edge6" class="edge">
<title>Node2&#45;&gt;Node6</title>
<path fill="none" stroke="midnightblue" d="M256.12,-385.4C267.91,-381.66 280.8,-377.57 293.41,-373.57"/>
<polygon fill="midnightblue" stroke="midnightblue" points="294.51,-376.89 302.98,-370.54 292.39,-370.22 294.51,-376.89"/>
</g>
<!-- Node5&#45;&gt;Node3 -->
<g id="edge5" class="edge">
<title>Node5&#45;&gt;Node3</title>
<path fill="none" stroke="midnightblue" d="M904.28,-240.82C928.97,-277.59 991.7,-371.03 1021.21,-414.98"/>
<polygon fill="midnightblue" stroke="midnightblue" points="1018.33,-416.97 1026.81,-423.32 1024.14,-413.07 1018.33,-416.97"/>
</g>
<!-- Node6&#45;&gt;Node3 -->
<g id="edge7" class="edge">
<title>Node6&#45;&gt;Node3</title>
<path fill="none" stroke="midnightblue" d="M425.16,-367.87C436.98,-370.71 449.33,-373.41 461,-375.5 646.92,-408.75 869.94,-427.11 975.65,-434.54"/>
<polygon fill="midnightblue" stroke="midnightblue" points="975.6,-438.05 985.81,-435.25 976.08,-431.06 975.6,-438.05"/>
</g>
<!-- Node6&#45;&gt;Node5 -->
<g id="edge12" class="edge">
<title>Node6&#45;&gt;Node5</title>
<path fill="none" stroke="midnightblue" d="M425.29,-359.97C512.46,-369.45 676.72,-376.75 800,-319.5 832.91,-304.22 860.41,-271.69 876.54,-249.21"/>
<polygon fill="midnightblue" stroke="midnightblue" points="879.51,-251.07 882.35,-240.86 873.76,-247.07 879.51,-251.07"/>
</g>
<!-- Node7 -->
<g id="node7" class="node">
<title>Node7</title>
<g id="a_node7"><a xlink:href="namespacefile__handling__class.html#a25b51db64738e74a129daae7428c8163" target="_top" xlink:title="Open an unformatted file for reading.">
<polygon fill="white" stroke="black" points="461,-292.5 461,-322.5 585,-322.5 585,-292.5 461,-292.5"/>
<text text-anchor="start" x="469" y="-310.5" font-family="Helvetica,sans-Serif" font-size="10.00">file_handling_class</text>
<text text-anchor="middle" x="523" y="-299.5" font-family="Helvetica,sans-Serif" font-size="10.00">::open_unformatted_infile</text>
</a>
</g>
</g>
<!-- Node6&#45;&gt;Node7 -->
<g id="edge8" class="edge">
<title>Node6&#45;&gt;Node7</title>
<path fill="none" stroke="midnightblue" d="M425.25,-334.61C436.11,-331.57 447.46,-328.39 458.41,-325.32"/>
<polygon fill="midnightblue" stroke="midnightblue" points="459.64,-328.61 468.33,-322.54 457.75,-321.87 459.64,-328.61"/>
</g>
<!-- Node7&#45;&gt;Node5 -->
<g id="edge11" class="edge">
<title>Node7&#45;&gt;Node5</title>
<path fill="none" stroke="midnightblue" d="M585.21,-314.69C642.5,-319.12 729.58,-319.83 800,-294.5 827.21,-284.71 853.07,-263.92 870.41,-247.7"/>
<polygon fill="midnightblue" stroke="midnightblue" points="872.98,-250.09 877.75,-240.63 868.12,-245.05 872.98,-250.09"/>
</g>
<!-- Node8 -->
<g id="node8" class="node">
<title>Node8</title>
<g id="a_node8"><a xlink:href="namespacefile__handling__class.html#af02196bd5eaf70ecd5ab4cc650094d5e" target="_top" xlink:title="Finds the next unused unit number.">
<polygon fill="white" stroke="black" points="661.5,-254.5 661.5,-284.5 759.5,-284.5 759.5,-254.5 661.5,-254.5"/>
<text text-anchor="start" x="669.5" y="-272.5" font-family="Helvetica,sans-Serif" font-size="10.00">file_handling_class</text>
<text text-anchor="middle" x="710.5" y="-261.5" font-family="Helvetica,sans-Serif" font-size="10.00">::get_next_io_unit</text>
</a>
</g>
</g>
<!-- Node7&#45;&gt;Node8 -->
<g id="edge9" class="edge">
<title>Node7&#45;&gt;Node8</title>
<path fill="none" stroke="midnightblue" d="M585.25,-294.95C606.48,-290.6 630.19,-285.75 651.17,-281.45"/>
<polygon fill="midnightblue" stroke="midnightblue" points="652.14,-284.82 661.23,-279.39 650.73,-277.97 652.14,-284.82"/>
</g>
<!-- Node8&#45;&gt;Node5 -->
<g id="edge10" class="edge">
<title>Node8&#45;&gt;Node5</title>
<path fill="none" stroke="midnightblue" d="M759.87,-257.71C780.16,-252.76 804.07,-246.94 825.93,-241.6"/>
<polygon fill="midnightblue" stroke="midnightblue" points="826.93,-244.96 835.82,-239.2 825.27,-238.16 826.93,-244.96"/>
</g>
<!-- Node9&#45;&gt;Node5 -->
<g id="edge16" class="edge">
<title>Node9&#45;&gt;Node5</title>
<path fill="none" stroke="midnightblue" d="M572.47,-193.08C627.66,-196.28 720.5,-202.44 800,-211.5 808.31,-212.45 817.02,-213.58 825.62,-214.79"/>
<polygon fill="midnightblue" stroke="midnightblue" points="825.25,-218.28 835.65,-216.24 826.25,-211.35 825.25,-218.28"/>
</g>
<!-- Node9&#45;&gt;Node8 -->
<g id="edge15" class="edge">
<title>Node9&#45;&gt;Node8</title>
<path fill="none" stroke="midnightblue" d="M559.33,-205.55C589.27,-218.3 632.39,-236.66 664.74,-250.44"/>
<polygon fill="midnightblue" stroke="midnightblue" points="663.42,-253.68 673.99,-254.38 666.16,-247.24 663.42,-253.68"/>
</g>
<!-- Node10&#45;&gt;Node5 -->
<g id="edge19" class="edge">
<title>Node10&#45;&gt;Node5</title>
<path fill="none" stroke="midnightblue" d="M417.53,-113.12C499.93,-125.69 664.21,-153.25 800,-191.5 815.05,-195.74 831.14,-201.31 845.58,-206.71"/>
<polygon fill="midnightblue" stroke="midnightblue" points="844.7,-210.12 855.29,-210.41 847.19,-203.58 844.7,-210.12"/>
</g>
<!-- Node11 -->
<g id="node11" class="node">
<title>Node11</title>
<g id="a_node11"><a xlink:href="namespaceparameter__class.html#a6dcc6b03adff66e992d7a0ad46ec517e" target="_top" xlink:title="Converts a string to an float.">
<polygon fill="white" stroke="black" points="654.5,-90.5 654.5,-120.5 766.5,-120.5 766.5,-90.5 654.5,-90.5"/>
<text text-anchor="start" x="662.5" y="-108.5" font-family="Helvetica,sans-Serif" font-size="10.00">parameter_class::read</text>
<text text-anchor="middle" x="710.5" y="-97.5" font-family="Helvetica,sans-Serif" font-size="10.00">_float_param</text>
</a>
</g>
</g>
<!-- Node10&#45;&gt;Node11 -->
<g id="edge20" class="edge">
<title>Node10&#45;&gt;Node11</title>
<path fill="none" stroke="midnightblue" d="M417.7,-105.5C478.44,-105.5 578.32,-105.5 644,-105.5"/>
<polygon fill="midnightblue" stroke="midnightblue" points="644.24,-109 654.24,-105.5 644.24,-102 644.24,-109"/>
</g>
<!-- Node12 -->
<g id="node12" class="node">
<title>Node12</title>
<g id="a_node12"><a xlink:href="namespaceparameter__class.html#ad9528991ff0e7998e4556c35113bdc1b" target="_top" xlink:title="Converts a string to an integer.">
<polygon fill="white" stroke="black" points="654.5,-41.5 654.5,-71.5 766.5,-71.5 766.5,-41.5 654.5,-41.5"/>
<text text-anchor="start" x="662.5" y="-59.5" font-family="Helvetica,sans-Serif" font-size="10.00">parameter_class::read</text>
<text text-anchor="middle" x="710.5" y="-48.5" font-family="Helvetica,sans-Serif" font-size="10.00">_integer_param</text>
</a>
</g>
</g>
<!-- Node10&#45;&gt;Node12 -->
<g id="edge22" class="edge">
<title>Node10&#45;&gt;Node12</title>
<path fill="none" stroke="midnightblue" d="M417.7,-98C478.44,-89.37 578.32,-75.16 644,-65.82"/>
<polygon fill="midnightblue" stroke="midnightblue" points="644.83,-69.23 654.24,-64.36 643.85,-62.3 644.83,-69.23"/>
</g>
<!-- Node13 -->
<g id="node13" class="node">
<title>Node13</title>
<g id="a_node13"><a xlink:href="namespaceparameter__class.html#ac0277cbae2a8d4de25300cea11b59279" target="_top" xlink:title="Search for similar existing parameters.">
<polygon fill="white" stroke="black" points="462,-0.5 462,-30.5 584,-30.5 584,-0.5 462,-0.5"/>
<text text-anchor="start" x="470" y="-18.5" font-family="Helvetica,sans-Serif" font-size="10.00">parameter_class::search</text>
<text text-anchor="middle" x="523" y="-7.5" font-family="Helvetica,sans-Serif" font-size="10.00">_close_parameter</text>
</a>
</g>
</g>
<!-- Node10&#45;&gt;Node13 -->
<g id="edge24" class="edge">
<title>Node10&#45;&gt;Node13</title>
<path fill="none" stroke="midnightblue" d="M391.28,-90.44C417.43,-75.44 457.73,-52.34 486.67,-35.75"/>
<polygon fill="midnightblue" stroke="midnightblue" points="488.7,-38.62 495.64,-30.61 485.22,-32.55 488.7,-38.62"/>
</g>
<!-- Node11&#45;&gt;Node5 -->
<g id="edge21" class="edge">
<title>Node11&#45;&gt;Node5</title>
<path fill="none" stroke="midnightblue" d="M766.58,-119.9C778.06,-124.06 789.77,-129.22 800,-135.5 829.29,-153.48 856.59,-182.34 873.72,-202.52"/>
<polygon fill="midnightblue" stroke="midnightblue" points="871.12,-204.86 880.21,-210.32 876.5,-200.39 871.12,-204.86"/>
</g>
<!-- Node12&#45;&gt;Node5 -->
<g id="edge23" class="edge">
<title>Node12&#45;&gt;Node5</title>
<path fill="none" stroke="midnightblue" d="M766.79,-64.76C778.5,-68.29 790.26,-73.32 800,-80.5 842.01,-111.46 869.59,-167.88 882.82,-200.46"/>
<polygon fill="midnightblue" stroke="midnightblue" points="879.71,-202.11 886.62,-210.14 886.23,-199.56 879.71,-202.11"/>
</g>
<!-- Node14 -->
<g id="node14" class="node">
<title>Node14</title>
<g id="a_node14"><a xlink:href="namespaceparameter__class.html#accc37bb66eee84405ee5b2ff3227688a" target="_top" xlink:title="Calculates the Levenshtein distance between two strings.">
<polygon fill="white" stroke="black" points="621,-3 621,-22 800,-22 800,-3 621,-3"/>
<text text-anchor="middle" x="710.5" y="-10" font-family="Helvetica,sans-Serif" font-size="10.00">parameter_class::levenshteindistance</text>
</a>
</g>
</g>
<!-- Node13&#45;&gt;Node14 -->
<g id="edge25" class="edge">
<title>Node13&#45;&gt;Node14</title>
<path fill="none" stroke="midnightblue" d="M584.23,-14.53C592.76,-14.39 601.71,-14.24 610.74,-14.1"/>
<polygon fill="midnightblue" stroke="midnightblue" points="611,-17.59 620.95,-13.93 610.89,-10.59 611,-17.59"/>
</g>
<!-- Node14&#45;&gt;Node5 -->
<g id="edge26" class="edge">
<title>Node14&#45;&gt;Node5</title>
<path fill="none" stroke="midnightblue" d="M784.11,-22.11C789.8,-24.61 795.2,-27.7 800,-31.5 854.71,-74.82 878.6,-158.52 887.49,-200.38"/>
<polygon fill="midnightblue" stroke="midnightblue" points="884.08,-201.19 889.48,-210.31 890.95,-199.82 884.08,-201.19"/>
</g>
</g>
</svg>
