<?xml version="1.0" encoding="UTF-8" standalone="no"?>
<!DOCTYPE svg PUBLIC "-//W3C//DTD SVG 1.1//EN"
 "http://www.w3.org/Graphics/SVG/1.1/DTD/svg11.dtd">
<!-- Generated by graphviz version 2.44.0 ()
 -->
<!-- Title: reaclib_rate_module::count_reaclib_rates Pages: 1 -->
<svg width="682pt" height="78pt"
 viewBox="0.00 0.00 682.00 77.50" xmlns="http://www.w3.org/2000/svg" xmlns:xlink="http://www.w3.org/1999/xlink">
<g id="graph0" class="graph" transform="scale(1 1) rotate(0) translate(4 73.5)">
<title>reaclib_rate_module::count_reaclib_rates</title>
<polygon fill="white" stroke="transparent" points="-4,4 -4,-73.5 678,-73.5 678,4 -4,4"/>
<!-- Node1 -->
<g id="node1" class="node">
<title>Node1</title>
<g id="a_node1"><a xlink:title="Count the amount of reaclib reactions.">
<polygon fill="#bfbfbf" stroke="black" points="0,-22.5 0,-52.5 106,-52.5 106,-22.5 0,-22.5"/>
<text text-anchor="start" x="8" y="-40.5" font-family="Helvetica,sans-Serif" font-size="10.00">reaclib_rate_module</text>
<text text-anchor="middle" x="53" y="-29.5" font-family="Helvetica,sans-Serif" font-size="10.00">::count_reaclib_rates</text>
</a>
</g>
</g>
<!-- Node2 -->
<g id="node2" class="node">
<title>Node2</title>
<g id="a_node2"><a xlink:href="namespacebenam__class.html#ad20c821347dd5f7c08dff59c98e69657" target="_top" xlink:title="Returns the index number of isotope &#39;name&#39;.">
<polygon fill="white" stroke="black" points="142,-50 142,-69 250,-69 250,-50 142,-50"/>
<text text-anchor="middle" x="196" y="-57" font-family="Helvetica,sans-Serif" font-size="10.00">benam_class::benam</text>
</a>
</g>
</g>
<!-- Node1&#45;&gt;Node2 -->
<g id="edge1" class="edge">
<title>Node1&#45;&gt;Node2</title>
<path fill="none" stroke="midnightblue" d="M106.1,-45.63C114.45,-46.93 123.16,-48.29 131.73,-49.63"/>
<polygon fill="midnightblue" stroke="midnightblue" points="131.28,-53.1 141.7,-51.18 132.36,-46.18 131.28,-53.1"/>
</g>
<!-- Node3 -->
<g id="node3" class="node">
<title>Node3</title>
<g id="a_node3"><a xlink:href="namespacefile__handling__class.html#aab870caaf9cbaaf635d537708efbf793" target="_top" xlink:title="Same for reading (input file)">
<polygon fill="white" stroke="black" points="147,-0.5 147,-30.5 245,-30.5 245,-0.5 147,-0.5"/>
<text text-anchor="start" x="155" y="-18.5" font-family="Helvetica,sans-Serif" font-size="10.00">file_handling_class</text>
<text text-anchor="middle" x="196" y="-7.5" font-family="Helvetica,sans-Serif" font-size="10.00">::open_infile</text>
</a>
</g>
</g>
<!-- Node1&#45;&gt;Node3 -->
<g id="edge2" class="edge">
<title>Node1&#45;&gt;Node3</title>
<path fill="none" stroke="midnightblue" d="M106.1,-29.37C116.1,-27.81 126.64,-26.17 136.82,-24.58"/>
<polygon fill="midnightblue" stroke="midnightblue" points="137.51,-28.01 146.85,-23.01 136.43,-21.1 137.51,-28.01"/>
</g>
<!-- Node4 -->
<g id="node4" class="node">
<title>Node4</title>
<g id="a_node4"><a xlink:href="namespacefile__handling__class.html#af02196bd5eaf70ecd5ab4cc650094d5e" target="_top" xlink:title="Finds the next unused unit number.">
<polygon fill="white" stroke="black" points="286,-22.5 286,-52.5 384,-52.5 384,-22.5 286,-22.5"/>
<text text-anchor="start" x="294" y="-40.5" font-family="Helvetica,sans-Serif" font-size="10.00">file_handling_class</text>
<text text-anchor="middle" x="335" y="-29.5" font-family="Helvetica,sans-Serif" font-size="10.00">::get_next_io_unit</text>
</a>
</g>
</g>
<!-- Node3&#45;&gt;Node4 -->
<g id="edge3" class="edge">
<title>Node3&#45;&gt;Node4</title>
<path fill="none" stroke="midnightblue" d="M245.3,-23.26C255.12,-24.83 265.55,-26.51 275.68,-28.13"/>
<polygon fill="midnightblue" stroke="midnightblue" points="275.24,-31.61 285.67,-29.74 276.35,-24.7 275.24,-31.61"/>
</g>
<!-- Node5 -->
<g id="node5" class="node">
<title>Node5</title>
<g id="a_node5"><a xlink:href="namespaceerror__msg__class.html#a2453d3b7cb363115c046840baa1dfb75" target="_top" xlink:title="Raise a exception with a given error message.">
<polygon fill="white" stroke="black" points="420,-0.5 420,-30.5 534,-30.5 534,-0.5 420,-0.5"/>
<text text-anchor="start" x="428" y="-18.5" font-family="Helvetica,sans-Serif" font-size="10.00">error_msg_class::raise</text>
<text text-anchor="middle" x="477" y="-7.5" font-family="Helvetica,sans-Serif" font-size="10.00">_exception</text>
</a>
</g>
</g>
<!-- Node3&#45;&gt;Node5 -->
<g id="edge6" class="edge">
<title>Node3&#45;&gt;Node5</title>
<path fill="none" stroke="midnightblue" d="M245.03,-14.22C258.3,-13.92 272.71,-13.65 286,-13.5 329.55,-13.01 340.45,-13.03 384,-13.5 392.27,-13.59 400.95,-13.73 409.55,-13.88"/>
<polygon fill="midnightblue" stroke="midnightblue" points="409.5,-17.38 419.56,-14.08 409.63,-10.38 409.5,-17.38"/>
</g>
<!-- Node4&#45;&gt;Node5 -->
<g id="edge4" class="edge">
<title>Node4&#45;&gt;Node5</title>
<path fill="none" stroke="midnightblue" d="M384.18,-29.93C392.37,-28.64 401,-27.29 409.55,-25.94"/>
<polygon fill="midnightblue" stroke="midnightblue" points="410.2,-29.38 419.54,-24.37 409.11,-22.47 410.2,-29.38"/>
</g>
<!-- Node6 -->
<g id="node6" class="node">
<title>Node6</title>
<g id="a_node6"><a xlink:href="namespaceerror__msg__class.html#a7e065585cc806a5c264de1f088266498" target="_top" xlink:title="Converts a given integer to a string.">
<polygon fill="white" stroke="black" points="570,-0.5 570,-30.5 674,-30.5 674,-0.5 570,-0.5"/>
<text text-anchor="start" x="578" y="-18.5" font-family="Helvetica,sans-Serif" font-size="10.00">error_msg_class::int</text>
<text text-anchor="middle" x="622" y="-7.5" font-family="Helvetica,sans-Serif" font-size="10.00">_to_str</text>
</a>
</g>
</g>
<!-- Node5&#45;&gt;Node6 -->
<g id="edge5" class="edge">
<title>Node5&#45;&gt;Node6</title>
<path fill="none" stroke="midnightblue" d="M534.11,-15.5C542.45,-15.5 551.09,-15.5 559.54,-15.5"/>
<polygon fill="midnightblue" stroke="midnightblue" points="559.71,-19 569.71,-15.5 559.71,-12 559.71,-19"/>
</g>
</g>
</svg>
