<?xml version="1.0" encoding="UTF-8" standalone="no"?>
<!DOCTYPE svg PUBLIC "-//W3C//DTD SVG 1.1//EN"
 "http://www.w3.org/Graphics/SVG/1.1/DTD/svg11.dtd">
<!-- Generated by graphviz version 2.44.0 ()
 -->
<!-- Title: network_init_module::switch_evolution_mode Pages: 1 -->
<!--zoomable 617 -->
<svg id="main" version="1.1" xmlns="http://www.w3.org/2000/svg" xmlns:xlink="http://www.w3.org/1999/xlink" xml:space="preserve" onload="init(evt)">
<style type="text/css"><![CDATA[
.edge:hover path { stroke: red; }
.edge:hover polygon { stroke: red; fill: red; }
]]></style>
<script type="text/javascript"><![CDATA[
var edges = document.getElementsByTagName('g');
if (edges && edges.length) {
  for (var i=0;i<edges.length;i++) {
    if (edges[i].id.substr(0,4)=='edge') {
      edges[i].setAttribute('class','edge');
    }
  }
}
]]></script>
        <defs>
                <circle id="rim" cx="0" cy="0" r="7"/>
                <circle id="rim2" cx="0" cy="0" r="3.5"/>
                <g id="zoomPlus">
                        <use xlink:href="#rim" fill="#404040">
                                <set attributeName="fill" to="#808080" begin="zoomplus.mouseover" end="zoomplus.mouseout"/>
                        </use>
                        <path d="M-4,0h8M0,-4v8" fill="none" stroke="white" stroke-width="1.5" pointer-events="none"/>
                </g>
                <g id="zoomMin">
                        <use xlink:href="#rim" fill="#404040">
                                <set attributeName="fill" to="#808080" begin="zoomminus.mouseover" end="zoomminus.mouseout"/>
                        </use>
                        <path d="M-4,0h8" fill="none" stroke="white" stroke-width="1.5" pointer-events="none"/>
                </g>
                <g id="dirArrow">
                        <path fill="none" stroke="white" stroke-width="1.5" d="M0,-3.0v7 M-2.5,-0.5L0,-3.0L2.5,-0.5"/>
                </g>
               <g id="resetDef">
                       <use xlink:href="#rim2" fill="#404040">
                               <set attributeName="fill" to="#808080" begin="reset.mouseover" end="reset.mouseout"/>
                       </use>
               </g>
        </defs>

<script type="text/javascript">
var viewWidth = 1120;
var viewHeight = 617;
var sectionId = 'dynsection-5';
</script>
<script xlink:href="svgpan.js"/>
<svg id="graph" class="graph">
<g id="viewport">
<title>network_init_module::switch_evolution_mode</title>
<polygon fill="white" stroke="transparent" points="-4,4 -4,-613 1116,-613 1116,4 -4,4"/>
<!-- Node1 -->
<g id="node1" class="node">
<title>Node1</title>
<g id="a_node1"><a xlink:title="Switches between NSE and network modes (EM_NSE / EM_NETHOT / EM_NETCOLD)">
<polygon fill="#bfbfbf" stroke="black" points="0,-477 0,-507 123,-507 123,-477 0,-477"/>
<text text-anchor="start" x="8" y="-495" font-family="Helvetica,sans-Serif" font-size="10.00">network_init_module</text>
<text text-anchor="middle" x="61.5" y="-484" font-family="Helvetica,sans-Serif" font-size="10.00">::switch_evolution_mode</text>
</a>
</g>
</g>
<!-- Node2 -->
<g id="node2" class="node">
<title>Node2</title>
<g id="a_node2"><a xlink:href="namespacegear__module.html#a8825e3e4b050cf3dbbdff4c88ce05ae7" target="_top" xlink:title="Initialize iteration variables.">
<polygon fill="white" stroke="black" points="332,-512 332,-542 445,-542 445,-512 332,-512"/>
<text text-anchor="start" x="340" y="-530" font-family="Helvetica,sans-Serif" font-size="10.00">gear_module::init_gear</text>
<text text-anchor="middle" x="388.5" y="-519" font-family="Helvetica,sans-Serif" font-size="10.00">_solver</text>
</a>
</g>
</g>
<!-- Node1&#45;&gt;Node2 -->
<g id="edge1" class="edge">
<title>Node1&#45;&gt;Node2</title>
<path fill="none" stroke="midnightblue" d="M123.05,-505.12C134.93,-507.35 147.32,-509.45 159,-511 213.61,-518.26 276.02,-522.35 321.81,-524.57"/>
<polygon fill="midnightblue" stroke="midnightblue" points="321.74,-528.07 331.9,-525.04 322.07,-521.08 321.74,-528.07"/>
</g>
<!-- Node3 -->
<g id="node3" class="node">
<title>Node3</title>
<g id="a_node3"><a xlink:href="namespaceerror__msg__class.html#a2453d3b7cb363115c046840baa1dfb75" target="_top" xlink:title="Raise a exception with a given error message.">
<polygon fill="white" stroke="black" points="672.5,-474 672.5,-504 786.5,-504 786.5,-474 672.5,-474"/>
<text text-anchor="start" x="680.5" y="-492" font-family="Helvetica,sans-Serif" font-size="10.00">error_msg_class::raise</text>
<text text-anchor="middle" x="729.5" y="-481" font-family="Helvetica,sans-Serif" font-size="10.00">_exception</text>
</a>
</g>
</g>
<!-- Node1&#45;&gt;Node3 -->
<g id="edge6" class="edge">
<title>Node1&#45;&gt;Node3</title>
<path fill="none" stroke="midnightblue" d="M95.34,-507.18C113.71,-515.09 137.23,-524.28 159,-530 227.58,-548 246.27,-547.1 317,-552 449.8,-561.2 485.61,-553.26 615,-522 633.26,-517.59 652.98,-512.11 670.77,-506.9"/>
<polygon fill="midnightblue" stroke="midnightblue" points="671.84,-510.23 680.44,-504.03 669.85,-503.52 671.84,-510.23"/>
</g>
<!-- Node4 -->
<g id="node4" class="node">
<title>Node4</title>
<g id="a_node4"><a xlink:href="namespaceerror__msg__class.html#a7e065585cc806a5c264de1f088266498" target="_top" xlink:title="Converts a given integer to a string.">
<polygon fill="white" stroke="black" points="844,-430 844,-460 948,-460 948,-430 844,-430"/>
<text text-anchor="start" x="852" y="-448" font-family="Helvetica,sans-Serif" font-size="10.00">error_msg_class::int</text>
<text text-anchor="middle" x="896" y="-437" font-family="Helvetica,sans-Serif" font-size="10.00">_to_str</text>
</a>
</g>
</g>
<!-- Node1&#45;&gt;Node4 -->
<g id="edge4" class="edge">
<title>Node1&#45;&gt;Node4</title>
<path fill="none" stroke="midnightblue" d="M82.15,-507.11C100.94,-520.9 130.55,-540.9 159,-553 255.22,-593.91 282.94,-609 387.5,-609 387.5,-609 387.5,-609 556.5,-609 685.43,-609 816.83,-511.45 870.2,-466.82"/>
<polygon fill="midnightblue" stroke="midnightblue" points="872.72,-469.27 878.09,-460.13 868.2,-463.93 872.72,-469.27"/>
</g>
<!-- Node5 -->
<g id="node5" class="node">
<title>Node5</title>
<g id="a_node5"><a xlink:href="namespacewinnse__module.html#ae51f5347267d3b4c302aebc38f248a23" target="_top" xlink:title="Allocates and initialises various arrays needed for the nse calculation.">
<polygon fill="white" stroke="black" points="159,-482.5 159,-501.5 281,-501.5 281,-482.5 159,-482.5"/>
<text text-anchor="middle" x="220" y="-489.5" font-family="Helvetica,sans-Serif" font-size="10.00">winnse_module::nse_init</text>
</a>
</g>
</g>
<!-- Node1&#45;&gt;Node5 -->
<g id="edge5" class="edge">
<title>Node1&#45;&gt;Node5</title>
<path fill="none" stroke="midnightblue" d="M123.01,-492C131.48,-492 140.24,-492 148.87,-492"/>
<polygon fill="midnightblue" stroke="midnightblue" points="148.91,-495.5 158.91,-492 148.91,-488.5 148.91,-495.5"/>
</g>
<!-- Node6 -->
<g id="node6" class="node">
<title>Node6</title>
<g id="a_node6"><a xlink:href="namespacetw__rate__module.html#af565bf58e38d8c8ff547fc2b29e43cf1" target="_top" xlink:title="This routine is used to replace theoretical weak rates with experimental ones it&#39;s called when T9 &lt; p...">
<polygon fill="white" stroke="black" points="162,-433 162,-463 278,-463 278,-433 162,-433"/>
<text text-anchor="start" x="170" y="-451" font-family="Helvetica,sans-Serif" font-size="10.00">tw_rate_module::reload</text>
<text text-anchor="middle" x="220" y="-440" font-family="Helvetica,sans-Serif" font-size="10.00">_exp_weak_rates</text>
</a>
</g>
</g>
<!-- Node1&#45;&gt;Node6 -->
<g id="edge7" class="edge">
<title>Node1&#45;&gt;Node6</title>
<path fill="none" stroke="midnightblue" d="M115.92,-476.98C128.69,-473.39 142.45,-469.52 155.62,-465.82"/>
<polygon fill="midnightblue" stroke="midnightblue" points="156.88,-469.1 165.55,-463.03 154.98,-462.36 156.88,-469.1"/>
</g>
<!-- Node7 -->
<g id="node7" class="node">
<title>Node7</title>
<g id="a_node7"><a xlink:href="namespacewinnse__module.html#a52f86665c1e1c3a34ef53095bf471308" target="_top" xlink:title="This routine descends from an initially high temperature, at which the NSE abudances can be accuratel...">
<polygon fill="white" stroke="black" points="160.5,-384 160.5,-414 279.5,-414 279.5,-384 160.5,-384"/>
<text text-anchor="start" x="168.5" y="-402" font-family="Helvetica,sans-Serif" font-size="10.00">winnse_module::winnse</text>
<text text-anchor="middle" x="220" y="-391" font-family="Helvetica,sans-Serif" font-size="10.00">_descend</text>
</a>
</g>
</g>
<!-- Node1&#45;&gt;Node7 -->
<g id="edge8" class="edge">
<title>Node1&#45;&gt;Node7</title>
<path fill="none" stroke="midnightblue" d="M80.84,-476.84C99.62,-461.82 130.09,-438.82 159,-423 161.9,-421.41 164.93,-419.87 168.03,-418.39"/>
<polygon fill="midnightblue" stroke="midnightblue" points="169.75,-421.45 177.41,-414.12 166.86,-415.07 169.75,-421.45"/>
</g>
<!-- Node25 -->
<g id="node25" class="node">
<title>Node25</title>
<g id="a_node25"><a xlink:href="namespaceerror__msg__class.html#a339dd5b38c125b6a04653762c94a91f2" target="_top" xlink:title="Write data to the standard output (usually OUT)">
<polygon fill="white" stroke="black" points="163,-250 163,-280 277,-280 277,-250 163,-250"/>
<text text-anchor="start" x="171" y="-268" font-family="Helvetica,sans-Serif" font-size="10.00">error_msg_class::write</text>
<text text-anchor="middle" x="220" y="-257" font-family="Helvetica,sans-Serif" font-size="10.00">_data_to_std_out</text>
</a>
</g>
</g>
<!-- Node1&#45;&gt;Node25 -->
<g id="edge37" class="edge">
<title>Node1&#45;&gt;Node25</title>
<path fill="none" stroke="midnightblue" d="M73.01,-476.75C99.8,-437.9 170.75,-334.99 202.84,-288.44"/>
<polygon fill="midnightblue" stroke="midnightblue" points="205.74,-290.4 208.53,-280.18 199.98,-286.43 205.74,-290.4"/>
</g>
<!-- Node2&#45;&gt;Node3 -->
<g id="edge2" class="edge">
<title>Node2&#45;&gt;Node3</title>
<path fill="none" stroke="midnightblue" d="M445.1,-520.77C504.53,-514.11 598.73,-503.55 662.03,-496.45"/>
<polygon fill="midnightblue" stroke="midnightblue" points="662.76,-499.89 672.31,-495.3 661.98,-492.93 662.76,-499.89"/>
</g>
<!-- Node3&#45;&gt;Node4 -->
<g id="edge3" class="edge">
<title>Node3&#45;&gt;Node4</title>
<path fill="none" stroke="midnightblue" d="M786.65,-473.98C801.85,-469.92 818.36,-465.5 833.82,-461.36"/>
<polygon fill="midnightblue" stroke="midnightblue" points="835.04,-464.66 843.8,-458.7 833.23,-457.9 835.04,-464.66"/>
</g>
<!-- Node7&#45;&gt;Node3 -->
<g id="edge11" class="edge">
<title>Node7&#45;&gt;Node3</title>
<path fill="none" stroke="midnightblue" d="M264.67,-414.02C270.35,-416.67 275.94,-419.66 281,-423 299.89,-435.46 296.42,-449.59 317,-459 376.67,-486.3 561.69,-489.89 662.08,-489.72"/>
<polygon fill="midnightblue" stroke="midnightblue" points="662.13,-493.22 672.12,-489.69 662.11,-486.22 662.13,-493.22"/>
</g>
<!-- Node7&#45;&gt;Node4 -->
<g id="edge9" class="edge">
<title>Node7&#45;&gt;Node4</title>
<path fill="none" stroke="midnightblue" d="M279.63,-403.33C291.97,-404.22 304.91,-405.15 317,-406 505.36,-419.22 728.32,-434.03 833.82,-440.98"/>
<polygon fill="midnightblue" stroke="midnightblue" points="833.75,-444.48 843.96,-441.65 834.22,-437.5 833.75,-444.48"/>
</g>
<!-- Node8 -->
<g id="node8" class="node">
<title>Node8</title>
<g id="a_node8"><a xlink:href="namespaceerror__msg__class.html#a5bc9f3b670b725cc43276934b867d801" target="_top" xlink:title="Converts a given real to a string with format &quot;(1pE10.2)&quot;.">
<polygon fill="white" stroke="black" points="673.5,-360 673.5,-390 785.5,-390 785.5,-360 673.5,-360"/>
<text text-anchor="start" x="681.5" y="-378" font-family="Helvetica,sans-Serif" font-size="10.00">error_msg_class::num</text>
<text text-anchor="middle" x="729.5" y="-367" font-family="Helvetica,sans-Serif" font-size="10.00">_to_str</text>
</a>
</g>
</g>
<!-- Node7&#45;&gt;Node8 -->
<g id="edge10" class="edge">
<title>Node7&#45;&gt;Node8</title>
<path fill="none" stroke="midnightblue" d="M279.71,-396.22C375.22,-391.71 563.55,-382.8 663.17,-378.09"/>
<polygon fill="midnightblue" stroke="midnightblue" points="663.58,-381.57 673.4,-377.61 663.25,-374.58 663.58,-381.57"/>
</g>
<!-- Node9 -->
<g id="node9" class="node">
<title>Node9</title>
<g id="a_node9"><a xlink:href="namespacewinnse__module.html#a4bf79382f9c6599e04b48bf08e193270" target="_top" xlink:title="Solves the nse&#45;equations.">
<polygon fill="white" stroke="black" points="317,-299.5 317,-318.5 460,-318.5 460,-299.5 317,-299.5"/>
<text text-anchor="middle" x="388.5" y="-306.5" font-family="Helvetica,sans-Serif" font-size="10.00">winnse_module::winnse_calc</text>
</a>
</g>
</g>
<!-- Node7&#45;&gt;Node9 -->
<g id="edge12" class="edge">
<title>Node7&#45;&gt;Node9</title>
<path fill="none" stroke="midnightblue" d="M248.87,-383.94C280.08,-367.07 330.29,-339.92 360.95,-323.35"/>
<polygon fill="midnightblue" stroke="midnightblue" points="362.66,-326.4 369.8,-318.57 359.34,-320.25 362.66,-326.4"/>
</g>
<!-- Node9&#45;&gt;Node3 -->
<g id="edge15" class="edge">
<title>Node9&#45;&gt;Node3</title>
<path fill="none" stroke="midnightblue" d="M407.73,-318.68C461.16,-347.05 618.23,-430.45 690.87,-469.02"/>
<polygon fill="midnightblue" stroke="midnightblue" points="689.65,-472.34 700.13,-473.93 692.93,-466.15 689.65,-472.34"/>
</g>
<!-- Node9&#45;&gt;Node4 -->
<g id="edge13" class="edge">
<title>Node9&#45;&gt;Node4</title>
<path fill="none" stroke="midnightblue" d="M460.35,-313.17C571.58,-320.14 777.72,-334.86 808,-350 839.82,-365.91 865.69,-398.73 880.72,-421.3"/>
<polygon fill="midnightblue" stroke="midnightblue" points="877.94,-423.46 886.3,-429.98 883.83,-419.67 877.94,-423.46"/>
</g>
<!-- Node10 -->
<g id="node10" class="node">
<title>Node10</title>
<g id="a_node10"><a xlink:href="namespacewinnse__module.html#ab51d55fb32259605b02d665c4bfb979b" target="_top" xlink:title="Calls screening subroutine and adds subsequent proton capture screening corrections in scrn(1:zmax).">
<polygon fill="white" stroke="black" points="677.5,-194 677.5,-224 781.5,-224 781.5,-194 677.5,-194"/>
<text text-anchor="start" x="685.5" y="-212" font-family="Helvetica,sans-Serif" font-size="10.00">winnse_module::nse</text>
<text text-anchor="middle" x="729.5" y="-201" font-family="Helvetica,sans-Serif" font-size="10.00">_screen</text>
</a>
</g>
</g>
<!-- Node9&#45;&gt;Node10 -->
<g id="edge14" class="edge">
<title>Node9&#45;&gt;Node10</title>
<path fill="none" stroke="midnightblue" d="M439.13,-299.38C446.49,-296.72 453.71,-293.32 460,-289 481.98,-273.9 473.02,-254.53 496,-241 547.96,-210.41 617.53,-204.5 667,-204.95"/>
<polygon fill="midnightblue" stroke="midnightblue" points="667.17,-208.45 677.23,-205.13 667.3,-201.45 667.17,-208.45"/>
</g>
<!-- Node11 -->
<g id="node11" class="node">
<title>Node11</title>
<g id="a_node11"><a xlink:href="namespacewinnse__module.html#a7f059289a0c97c6be525337bfd649af9" target="_top" xlink:title="Calculates the nse coefficients C, as given in Hix,Thielemann &#39;99, Eq.25.">
<polygon fill="white" stroke="black" points="655.5,-244.5 655.5,-263.5 803.5,-263.5 803.5,-244.5 655.5,-244.5"/>
<text text-anchor="middle" x="729.5" y="-251.5" font-family="Helvetica,sans-Serif" font-size="10.00">winnse_module::wincnse_calc</text>
</a>
</g>
</g>
<!-- Node9&#45;&gt;Node11 -->
<g id="edge16" class="edge">
<title>Node9&#45;&gt;Node11</title>
<path fill="none" stroke="midnightblue" d="M432.57,-299.5C441.86,-296.71 451.45,-293.24 460,-289 477.92,-280.12 477.14,-268.65 496,-262 543.54,-245.24 599.99,-242.92 645.36,-244.94"/>
<polygon fill="midnightblue" stroke="midnightblue" points="645.29,-248.45 655.46,-245.47 645.65,-241.46 645.29,-248.45"/>
</g>
<!-- Node13 -->
<g id="node13" class="node">
<title>Node13</title>
<g id="a_node13"><a xlink:href="namespacewinnse__module.html#a72eefa0ccd8f0859c0019d2d18fad155" target="_top" xlink:title="Solves the nse&#45;equations using the Powell hybrid method.">
<polygon fill="white" stroke="black" points="496,-146 496,-176 615,-176 615,-146 496,-146"/>
<text text-anchor="start" x="504" y="-164" font-family="Helvetica,sans-Serif" font-size="10.00">winnse_module::winnse</text>
<text text-anchor="middle" x="555.5" y="-153" font-family="Helvetica,sans-Serif" font-size="10.00">_calc_hybrid_powell</text>
</a>
</g>
</g>
<!-- Node9&#45;&gt;Node13 -->
<g id="edge18" class="edge">
<title>Node9&#45;&gt;Node13</title>
<path fill="none" stroke="midnightblue" d="M443.92,-299.39C449.8,-296.72 455.34,-293.32 460,-289 494.03,-257.45 465.25,-225.75 496,-191 499.06,-187.54 502.62,-184.43 506.43,-181.63"/>
<polygon fill="midnightblue" stroke="midnightblue" points="508.62,-184.39 515.12,-176.02 504.82,-178.51 508.62,-184.39"/>
</g>
<!-- Node24 -->
<g id="node24" class="node">
<title>Node24</title>
<g id="a_node24"><a xlink:href="namespacewinnse__module.html#a1789147c5a6bde2c78d2bdee255a44b8" target="_top" xlink:title="Solves the nse&#45;equations using a 2&#45;dimensional newton&#45;raphson scheme.">
<polygon fill="white" stroke="black" points="496,-272 496,-302 615,-302 615,-272 496,-272"/>
<text text-anchor="start" x="504" y="-290" font-family="Helvetica,sans-Serif" font-size="10.00">winnse_module::winnse</text>
<text text-anchor="middle" x="555.5" y="-279" font-family="Helvetica,sans-Serif" font-size="10.00">_calc_nr</text>
</a>
</g>
</g>
<!-- Node9&#45;&gt;Node24 -->
<g id="edge31" class="edge">
<title>Node9&#45;&gt;Node24</title>
<path fill="none" stroke="midnightblue" d="M460.43,-299.54C468.82,-298.42 477.36,-297.29 485.71,-296.17"/>
<polygon fill="midnightblue" stroke="midnightblue" points="486.33,-299.62 495.78,-294.83 485.41,-292.68 486.33,-299.62"/>
</g>
<!-- Node12 -->
<g id="node12" class="node">
<title>Node12</title>
<g id="a_node12"><a xlink:href="namespacenucstuff__class.html#a7f6b5ddec08f9564638a58091e6940d7" target="_top" xlink:title="Calculates partition function.">
<polygon fill="white" stroke="black" points="844.5,-239 844.5,-269 947.5,-269 947.5,-239 844.5,-239"/>
<text text-anchor="start" x="852.5" y="-257" font-family="Helvetica,sans-Serif" font-size="10.00">nucstuff_class::inter</text>
<text text-anchor="middle" x="896" y="-246" font-family="Helvetica,sans-Serif" font-size="10.00">_partf</text>
</a>
</g>
</g>
<!-- Node11&#45;&gt;Node12 -->
<g id="edge17" class="edge">
<title>Node11&#45;&gt;Node12</title>
<path fill="none" stroke="midnightblue" d="M803.61,-254C813.8,-254 824.18,-254 834.11,-254"/>
<polygon fill="midnightblue" stroke="midnightblue" points="834.27,-257.5 844.27,-254 834.27,-250.5 834.27,-257.5"/>
</g>
<!-- Node14 -->
<g id="node14" class="node">
<title>Node14</title>
<g id="a_node14"><a xlink:href="fsolve_8f90.html#ad671f9a8a86626f13d0db91642c1ac9e" target="_top" xlink:title=" ">
<polygon fill="white" stroke="black" points="708,-114.5 708,-133.5 751,-133.5 751,-114.5 708,-114.5"/>
<text text-anchor="middle" x="729.5" y="-121.5" font-family="Helvetica,sans-Serif" font-size="10.00">fsolve</text>
</a>
</g>
</g>
<!-- Node13&#45;&gt;Node14 -->
<g id="edge19" class="edge">
<title>Node13&#45;&gt;Node14</title>
<path fill="none" stroke="midnightblue" d="M615.21,-148.37C643.06,-142.38 675.17,-135.47 698.08,-130.54"/>
<polygon fill="midnightblue" stroke="midnightblue" points="698.87,-133.95 707.91,-128.43 697.39,-127.11 698.87,-133.95"/>
</g>
<!-- Node23 -->
<g id="node23" class="node">
<title>Node23</title>
<g id="a_node23"><a xlink:href="winnse__module_8f90.html#a76b0f9d4a7d2b6b5cfe01d69af969c0d" target="_top" xlink:title="Determines the mass and charge conservation for the NSE calculation.">
<polygon fill="white" stroke="black" points="651,-152.5 651,-171.5 808,-171.5 808,-152.5 651,-152.5"/>
<text text-anchor="middle" x="729.5" y="-159.5" font-family="Helvetica,sans-Serif" font-size="10.00">mass_and_charge_conservation</text>
</a>
</g>
</g>
<!-- Node13&#45;&gt;Node23 -->
<g id="edge30" class="edge">
<title>Node13&#45;&gt;Node23</title>
<path fill="none" stroke="midnightblue" d="M615.21,-161.34C623.47,-161.39 632.09,-161.44 640.74,-161.49"/>
<polygon fill="midnightblue" stroke="midnightblue" points="640.87,-164.99 650.89,-161.55 640.91,-157.99 640.87,-164.99"/>
</g>
<!-- Node15 -->
<g id="node15" class="node">
<title>Node15</title>
<g id="a_node15"><a xlink:href="fsolve_8f90.html#a9d21cb00f8d0421a74dc05aebe71203a" target="_top" xlink:title=" ">
<polygon fill="white" stroke="black" points="876,-114.5 876,-133.5 916,-133.5 916,-114.5 876,-114.5"/>
<text text-anchor="middle" x="896" y="-121.5" font-family="Helvetica,sans-Serif" font-size="10.00">hybrd</text>
</a>
</g>
</g>
<!-- Node14&#45;&gt;Node15 -->
<g id="edge20" class="edge">
<title>Node14&#45;&gt;Node15</title>
<path fill="none" stroke="midnightblue" d="M751,-124C779.79,-124 832.35,-124 865.38,-124"/>
<polygon fill="midnightblue" stroke="midnightblue" points="865.78,-127.5 875.77,-124 865.77,-120.5 865.78,-127.5"/>
</g>
<!-- Node16 -->
<g id="node16" class="node">
<title>Node16</title>
<g id="a_node16"><a xlink:href="fsolve_8f90.html#ab5a1319962e4855e0a2b7a7431085275" target="_top" xlink:title=" ">
<polygon fill="white" stroke="black" points="985.5,-228.5 985.5,-247.5 1030.5,-247.5 1030.5,-228.5 985.5,-228.5"/>
<text text-anchor="middle" x="1008" y="-235.5" font-family="Helvetica,sans-Serif" font-size="10.00">dogleg</text>
</a>
</g>
</g>
<!-- Node15&#45;&gt;Node16 -->
<g id="edge21" class="edge">
<title>Node15&#45;&gt;Node16</title>
<path fill="none" stroke="midnightblue" d="M906.38,-133.72C925.05,-153.07 967.08,-196.63 990.48,-220.88"/>
<polygon fill="midnightblue" stroke="midnightblue" points="988.18,-223.54 997.65,-228.31 993.22,-218.68 988.18,-223.54"/>
</g>
<!-- Node17 -->
<g id="node17" class="node">
<title>Node17</title>
<g id="a_node17"><a xlink:href="fsolve_8f90.html#a07a8827d47eead570957d377e64f7974" target="_top" xlink:title=" ">
<polygon fill="white" stroke="black" points="1068,-190.5 1068,-209.5 1112,-209.5 1112,-190.5 1068,-190.5"/>
<text text-anchor="middle" x="1090" y="-197.5" font-family="Helvetica,sans-Serif" font-size="10.00">enorm</text>
</a>
</g>
</g>
<!-- Node15&#45;&gt;Node17 -->
<g id="edge23" class="edge">
<title>Node15&#45;&gt;Node17</title>
<path fill="none" stroke="midnightblue" d="M908.26,-133.55C924.09,-146.44 954.31,-169.16 984,-181 1007.7,-190.45 1036.29,-195.23 1057.65,-197.63"/>
<polygon fill="midnightblue" stroke="midnightblue" points="1057.5,-201.14 1067.8,-198.66 1058.2,-194.17 1057.5,-201.14"/>
</g>
<!-- Node18 -->
<g id="node18" class="node">
<title>Node18</title>
<g id="a_node18"><a xlink:href="fsolve_8f90.html#ab8444c326197a29a9f06bb863a1cee4a" target="_top" xlink:title=" ">
<polygon fill="white" stroke="black" points="986.5,-152.5 986.5,-171.5 1029.5,-171.5 1029.5,-152.5 986.5,-152.5"/>
<text text-anchor="middle" x="1008" y="-159.5" font-family="Helvetica,sans-Serif" font-size="10.00">fdjac1</text>
</a>
</g>
</g>
<!-- Node15&#45;&gt;Node18 -->
<g id="edge24" class="edge">
<title>Node15&#45;&gt;Node18</title>
<path fill="none" stroke="midnightblue" d="M916.16,-130.62C932.83,-136.38 957.28,-144.82 976.61,-151.5"/>
<polygon fill="midnightblue" stroke="midnightblue" points="975.59,-154.85 986.19,-154.81 977.88,-148.24 975.59,-154.85"/>
</g>
<!-- Node19 -->
<g id="node19" class="node">
<title>Node19</title>
<g id="a_node19"><a xlink:href="fsolve_8f90.html#a12e8db1e181463d5c3af21f2b1b6b5a7" target="_top" xlink:title=" ">
<polygon fill="white" stroke="black" points="987.5,-114.5 987.5,-133.5 1028.5,-133.5 1028.5,-114.5 987.5,-114.5"/>
<text text-anchor="middle" x="1008" y="-121.5" font-family="Helvetica,sans-Serif" font-size="10.00">qform</text>
</a>
</g>
</g>
<!-- Node15&#45;&gt;Node19 -->
<g id="edge25" class="edge">
<title>Node15&#45;&gt;Node19</title>
<path fill="none" stroke="midnightblue" d="M916.16,-124C932.99,-124 957.74,-124 977.16,-124"/>
<polygon fill="midnightblue" stroke="midnightblue" points="977.32,-127.5 987.32,-124 977.32,-120.5 977.32,-127.5"/>
</g>
<!-- Node20 -->
<g id="node20" class="node">
<title>Node20</title>
<g id="a_node20"><a xlink:href="fsolve_8f90.html#a64d35f73f2a85378c24dd7b99ddb0c0f" target="_top" xlink:title=" ">
<polygon fill="white" stroke="black" points="989,-76.5 989,-95.5 1027,-95.5 1027,-76.5 989,-76.5"/>
<text text-anchor="middle" x="1008" y="-83.5" font-family="Helvetica,sans-Serif" font-size="10.00">qrfac</text>
</a>
</g>
</g>
<!-- Node15&#45;&gt;Node20 -->
<g id="edge26" class="edge">
<title>Node15&#45;&gt;Node20</title>
<path fill="none" stroke="midnightblue" d="M916.16,-117.38C933.56,-111.37 959.44,-102.43 979.13,-95.63"/>
<polygon fill="midnightblue" stroke="midnightblue" points="980.48,-98.86 988.79,-92.29 978.19,-92.25 980.48,-98.86"/>
</g>
<!-- Node21 -->
<g id="node21" class="node">
<title>Node21</title>
<g id="a_node21"><a xlink:href="fsolve_8f90.html#ab7f6e61d92cfd9ea516435ad523b989b" target="_top" xlink:title=" ">
<polygon fill="white" stroke="black" points="984,-38.5 984,-57.5 1032,-57.5 1032,-38.5 984,-38.5"/>
<text text-anchor="middle" x="1008" y="-45.5" font-family="Helvetica,sans-Serif" font-size="10.00">r1mpyq</text>
</a>
</g>
</g>
<!-- Node15&#45;&gt;Node21 -->
<g id="edge28" class="edge">
<title>Node15&#45;&gt;Node21</title>
<path fill="none" stroke="midnightblue" d="M910.93,-114.37C929.53,-101.53 962.68,-78.62 984.75,-63.37"/>
<polygon fill="midnightblue" stroke="midnightblue" points="986.94,-66.11 993.18,-57.55 982.96,-60.35 986.94,-66.11"/>
</g>
<!-- Node22 -->
<g id="node22" class="node">
<title>Node22</title>
<g id="a_node22"><a xlink:href="fsolve_8f90.html#a8ff726029b3ff9037b390910744ee58b" target="_top" xlink:title=" ">
<polygon fill="white" stroke="black" points="986,-0.5 986,-19.5 1030,-19.5 1030,-0.5 986,-0.5"/>
<text text-anchor="middle" x="1008" y="-7.5" font-family="Helvetica,sans-Serif" font-size="10.00">r1updt</text>
</a>
</g>
</g>
<!-- Node15&#45;&gt;Node22 -->
<g id="edge29" class="edge">
<title>Node15&#45;&gt;Node22</title>
<path fill="none" stroke="midnightblue" d="M904.99,-114.43C919.85,-96.82 953.03,-58.42 984,-29 984.93,-28.12 985.89,-27.23 986.88,-26.34"/>
<polygon fill="midnightblue" stroke="midnightblue" points="989.25,-28.92 994.55,-19.75 984.69,-23.61 989.25,-28.92"/>
</g>
<!-- Node16&#45;&gt;Node17 -->
<g id="edge22" class="edge">
<title>Node16&#45;&gt;Node17</title>
<path fill="none" stroke="midnightblue" d="M1029.19,-228.41C1038.38,-224.05 1049.43,-218.79 1059.53,-214"/>
<polygon fill="midnightblue" stroke="midnightblue" points="1061.29,-217.04 1068.82,-209.59 1058.28,-210.72 1061.29,-217.04"/>
</g>
<!-- Node20&#45;&gt;Node17 -->
<g id="edge27" class="edge">
<title>Node20&#45;&gt;Node17</title>
<path fill="none" stroke="midnightblue" d="M1022.35,-95.74C1025.71,-98.52 1029.16,-101.7 1032,-105 1052.6,-128.95 1070.23,-161.27 1080.22,-181.37"/>
<polygon fill="midnightblue" stroke="midnightblue" points="1077.09,-182.94 1084.61,-190.41 1083.39,-179.88 1077.09,-182.94"/>
</g>
<!-- Node24&#45;&gt;Node3 -->
<g id="edge35" class="edge">
<title>Node24&#45;&gt;Node3</title>
<path fill="none" stroke="midnightblue" d="M569.29,-302.26C587.41,-323.85 621.62,-364.54 651,-399 670.49,-421.86 692.89,-447.85 708.59,-466"/>
<polygon fill="midnightblue" stroke="midnightblue" points="706.1,-468.48 715.29,-473.75 711.39,-463.9 706.1,-468.48"/>
</g>
<!-- Node24&#45;&gt;Node4 -->
<g id="edge32" class="edge">
<title>Node24&#45;&gt;Node4</title>
<path fill="none" stroke="midnightblue" d="M615.07,-280.83C669.07,-278.03 749.48,-281.42 808,-317 847.4,-340.95 873.07,-390.31 885.71,-420.25"/>
<polygon fill="midnightblue" stroke="midnightblue" points="882.5,-421.64 889.5,-429.59 888.99,-419.01 882.5,-421.64"/>
</g>
<!-- Node24&#45;&gt;Node8 -->
<g id="edge34" class="edge">
<title>Node24&#45;&gt;Node8</title>
<path fill="none" stroke="midnightblue" d="M586.07,-302.13C614.83,-316.84 658.67,-339.27 690.11,-355.36"/>
<polygon fill="midnightblue" stroke="midnightblue" points="688.53,-358.48 699.03,-359.92 691.72,-352.25 688.53,-358.48"/>
</g>
<!-- Node24&#45;&gt;Node10 -->
<g id="edge33" class="edge">
<title>Node24&#45;&gt;Node10</title>
<path fill="none" stroke="midnightblue" d="M581.15,-271.84C599.86,-260.72 626.48,-245.76 651,-235 656.88,-232.42 663.11,-229.94 669.38,-227.6"/>
<polygon fill="midnightblue" stroke="midnightblue" points="670.99,-230.74 679.21,-224.06 668.62,-224.15 670.99,-230.74"/>
</g>
<!-- Node24&#45;&gt;Node11 -->
<g id="edge36" class="edge">
<title>Node24&#45;&gt;Node11</title>
<path fill="none" stroke="midnightblue" d="M615.21,-275.74C632.54,-272.41 651.52,-268.77 668.9,-265.43"/>
<polygon fill="midnightblue" stroke="midnightblue" points="669.76,-268.83 678.93,-263.51 668.45,-261.96 669.76,-268.83"/>
</g>
<!-- Node26 -->
<g id="node26" class="node">
<title>Node26</title>
<g id="a_node26"><a xlink:href="namespaceerror__msg__class.html#af62b9a0c5997255e792b9ebd7322a6a3" target="_top" xlink:title="Write the header of the standard output (usually OUT)">
<polygon fill="white" stroke="black" points="331.5,-250 331.5,-280 445.5,-280 445.5,-250 331.5,-250"/>
<text text-anchor="start" x="339.5" y="-268" font-family="Helvetica,sans-Serif" font-size="10.00">error_msg_class::write</text>
<text text-anchor="middle" x="388.5" y="-257" font-family="Helvetica,sans-Serif" font-size="10.00">_header</text>
</a>
</g>
</g>
<!-- Node25&#45;&gt;Node26 -->
<g id="edge38" class="edge">
<title>Node25&#45;&gt;Node26</title>
<path fill="none" stroke="midnightblue" d="M277.37,-258.57C291.41,-258.22 306.6,-258.16 321.08,-258.37"/>
<polygon fill="midnightblue" stroke="midnightblue" points="321.4,-261.88 331.47,-258.58 321.54,-254.88 321.4,-261.88"/>
</g>
<!-- Node26&#45;&gt;Node25 -->
<g id="edge39" class="edge">
<title>Node26&#45;&gt;Node25</title>
<path fill="none" stroke="midnightblue" d="M331.47,-271.42C317.45,-271.77 302.26,-271.84 287.77,-271.63"/>
<polygon fill="midnightblue" stroke="midnightblue" points="287.44,-268.12 277.37,-271.43 287.3,-275.12 287.44,-268.12"/>
</g>
</g>
</svg>
        <g id="navigator" transform="translate(0 0)" fill="#404254">
                <rect fill="#f2f5e9" fill-opacity="0.5" stroke="#606060" stroke-width=".5" x="0" y="0" width="60" height="60"/>
                <use id="zoomplus" xlink:href="#zoomPlus" x="17" y="9" onmousedown="handleZoom(evt,'in')"/>
                <use id="zoomminus" xlink:href="#zoomMin" x="42" y="9" onmousedown="handleZoom(evt,'out')"/>
                <use id="reset" xlink:href="#resetDef" x="30" y="36" onmousedown="handleReset()"/>
                <g id="arrowUp" xlink:href="#dirArrow" transform="translate(30 24)" onmousedown="handlePan(0,-1)">
                  <use xlink:href="#rim" fill="#404040">
                        <set attributeName="fill" to="#808080" begin="arrowUp.mouseover" end="arrowUp.mouseout"/>
                  </use>
                  <path fill="none" stroke="white" stroke-width="1.5" d="M0,-3.0v7 M-2.5,-0.5L0,-3.0L2.5,-0.5"/>
                </g>
                <g id="arrowRight" xlink:href="#dirArrow" transform="rotate(90) translate(36 -43)" onmousedown="handlePan(1,0)">
                  <use xlink:href="#rim" fill="#404040">
                        <set attributeName="fill" to="#808080" begin="arrowRight.mouseover" end="arrowRight.mouseout"/>
                  </use>
                  <path fill="none" stroke="white" stroke-width="1.5" d="M0,-3.0v7 M-2.5,-0.5L0,-3.0L2.5,-0.5"/>
                </g>
                <g id="arrowDown" xlink:href="#dirArrow" transform="rotate(180) translate(-30 -48)" onmousedown="handlePan(0,1)">
                  <use xlink:href="#rim" fill="#404040">
                        <set attributeName="fill" to="#808080" begin="arrowDown.mouseover" end="arrowDown.mouseout"/>
                  </use>
                  <path fill="none" stroke="white" stroke-width="1.5" d="M0,-3.0v7 M-2.5,-0.5L0,-3.0L2.5,-0.5"/>
                </g>
                <g id="arrowLeft" xlink:href="#dirArrow" transform="rotate(270) translate(-36 17)" onmousedown="handlePan(-1,0)">
                  <use xlink:href="#rim" fill="#404040">
                        <set attributeName="fill" to="#808080" begin="arrowLeft.mouseover" end="arrowLeft.mouseout"/>
                  </use>
                  <path fill="none" stroke="white" stroke-width="1.5" d="M0,-3.0v7 M-2.5,-0.5L0,-3.0L2.5,-0.5"/>
                </g>
        </g>
        <svg viewBox="0 0 15 15" width="100%" height="30px" preserveAspectRatio="xMaxYMin meet">
         <g id="arrow_out" transform="scale(0.3 0.3)">
          <a xlink:href="namespacenetwork__init__module_a36efa77da8a1f8da66a21ec4279e00ac_cgraph_org.svg" target="_base">
           <rect id="button" ry="5" rx="5" y="6" x="6" height="38" width="38"
                fill="#f2f5e9" fill-opacity="0.5" stroke="#606060" stroke-width="1.0"/>
           <path id="arrow"
             d="M 11.500037,31.436501 C 11.940474,20.09759 22.043105,11.32322 32.158766,21.979434 L 37.068811,17.246167 C 37.068811,17.246167 37.088388,32 37.088388,32 L 22.160133,31.978069 C 22.160133,31.978069 26.997745,27.140456 26.997745,27.140456 C 18.528582,18.264221 13.291696,25.230495 11.500037,31.436501 z"
             style="fill:#404040;"/>
          </a>
         </g>
        </svg>
</svg>
