<?xml version="1.0" encoding="UTF-8" standalone="no"?>
<!DOCTYPE svg PUBLIC "-//W3C//DTD SVG 1.1//EN"
 "http://www.w3.org/Graphics/SVG/1.1/DTD/svg11.dtd">
<!-- Generated by graphviz version 2.44.0 ()
 -->
<!-- Title: fission_rate_module::init_fission_rates Pages: 1 -->
<svg width="1062pt" height="1256pt"
 viewBox="0.00 0.00 1062.00 1256.06" xmlns="http://www.w3.org/2000/svg" xmlns:xlink="http://www.w3.org/1999/xlink">
<g id="graph0" class="graph" transform="scale(1 1) rotate(0) translate(4 1252.06)">
<title>fission_rate_module::init_fission_rates</title>
<polygon fill="white" stroke="transparent" points="-4,4 -4,-1252.06 1058,-1252.06 1058,4 -4,4"/>
<!-- Node1 -->
<g id="node1" class="node">
<title>Node1</title>
<g id="a_node1"><a xlink:title="Initialize the fission reactions.">
<polygon fill="#bfbfbf" stroke="black" points="0,-474.06 0,-504.06 103,-504.06 103,-474.06 0,-474.06"/>
<text text-anchor="start" x="8" y="-492.06" font-family="Helvetica,sans-Serif" font-size="10.00">fission_rate_module</text>
<text text-anchor="middle" x="51.5" y="-481.06" font-family="Helvetica,sans-Serif" font-size="10.00">::init_fission_rates</text>
</a>
</g>
</g>
<!-- Node2 -->
<g id="node2" class="node">
<title>Node2</title>
<g id="a_node2"><a xlink:href="namespacefission__rate__module.html#a56a55c06edae09a1540ee2db9ef7d4ff" target="_top" xlink:title="Initializes the rates with fragments.">
<polygon fill="white" stroke="black" points="142,-926.06 142,-956.06 261,-956.06 261,-926.06 142,-926.06"/>
<text text-anchor="start" x="150" y="-944.06" font-family="Helvetica,sans-Serif" font-size="10.00">fission_rate_module</text>
<text text-anchor="middle" x="201.5" y="-933.06" font-family="Helvetica,sans-Serif" font-size="10.00">::add_fission_fragments</text>
</a>
</g>
</g>
<!-- Node1&#45;&gt;Node2 -->
<g id="edge1" class="edge">
<title>Node1&#45;&gt;Node2</title>
<path fill="none" stroke="midnightblue" d="M56.97,-504.25C69.41,-546.35 105.71,-667.97 139,-768.06 156.69,-821.24 179.09,-882.97 191.38,-916.43"/>
<polygon fill="midnightblue" stroke="midnightblue" points="188.12,-917.69 194.86,-925.86 194.69,-915.27 188.12,-917.69"/>
</g>
<!-- Node5 -->
<g id="node5" class="node">
<title>Node5</title>
<g id="a_node5"><a xlink:href="namespaceerror__msg__class.html#a2453d3b7cb363115c046840baa1dfb75" target="_top" xlink:title="Raise a exception with a given error message.">
<polygon fill="white" stroke="black" points="800,-661.06 800,-691.06 914,-691.06 914,-661.06 800,-661.06"/>
<text text-anchor="start" x="808" y="-679.06" font-family="Helvetica,sans-Serif" font-size="10.00">error_msg_class::raise</text>
<text text-anchor="middle" x="857" y="-668.06" font-family="Helvetica,sans-Serif" font-size="10.00">_exception</text>
</a>
</g>
</g>
<!-- Node1&#45;&gt;Node5 -->
<g id="edge49" class="edge">
<title>Node1&#45;&gt;Node5</title>
<path fill="none" stroke="midnightblue" d="M60.75,-504.07C87.57,-550.95 177.68,-693.95 300,-735.06 479.69,-795.46 708.79,-729.37 807.35,-694.63"/>
<polygon fill="midnightblue" stroke="midnightblue" points="808.79,-697.83 817.03,-691.17 806.44,-691.24 808.79,-697.83"/>
</g>
<!-- Node15 -->
<g id="node15" class="node">
<title>Node15</title>
<g id="a_node15"><a xlink:href="namespacefission__rate__module.html#ad32a6a04e2414163ecffd8f083291673" target="_top" xlink:title="Count the amount of fission rates.">
<polygon fill="white" stroke="black" points="149,-474.06 149,-504.06 254,-504.06 254,-474.06 149,-474.06"/>
<text text-anchor="start" x="157" y="-492.06" font-family="Helvetica,sans-Serif" font-size="10.00">fission_rate_module</text>
<text text-anchor="middle" x="201.5" y="-481.06" font-family="Helvetica,sans-Serif" font-size="10.00">::count_fission_rates</text>
</a>
</g>
</g>
<!-- Node1&#45;&gt;Node15 -->
<g id="edge36" class="edge">
<title>Node1&#45;&gt;Node15</title>
<path fill="none" stroke="midnightblue" d="M103.02,-489.06C114.48,-489.06 126.79,-489.06 138.66,-489.06"/>
<polygon fill="midnightblue" stroke="midnightblue" points="138.95,-492.56 148.95,-489.06 138.95,-485.56 138.95,-492.56"/>
</g>
<!-- Node20 -->
<g id="node20" class="node">
<title>Node20</title>
<g id="a_node20"><a xlink:href="namespacefission__rate__module.html#aaabbc87af022a4cae9e74747c84e134d" target="_top" xlink:title="Read the fission reactions and fragment distributions from a binary file.">
<polygon fill="white" stroke="black" points="308.5,-684.56 308.5,-725.56 412.5,-725.56 412.5,-684.56 308.5,-684.56"/>
<text text-anchor="start" x="316.5" y="-713.56" font-family="Helvetica,sans-Serif" font-size="10.00">fission_rate_module</text>
<text text-anchor="start" x="316.5" y="-702.56" font-family="Helvetica,sans-Serif" font-size="10.00">::read_binary_fission</text>
<text text-anchor="middle" x="360.5" y="-691.56" font-family="Helvetica,sans-Serif" font-size="10.00">_reaction_data</text>
</a>
</g>
</g>
<!-- Node1&#45;&gt;Node20 -->
<g id="edge50" class="edge">
<title>Node1&#45;&gt;Node20</title>
<path fill="none" stroke="midnightblue" d="M71.92,-504.29C113.04,-536.32 212.37,-612.45 300,-670.06 304.63,-673.11 309.53,-676.2 314.45,-679.21"/>
<polygon fill="midnightblue" stroke="midnightblue" points="312.91,-682.37 323.28,-684.53 316.52,-676.37 312.91,-682.37"/>
</g>
<!-- Node22 -->
<g id="node22" class="node">
<title>Node22</title>
<g id="a_node22"><a xlink:href="namespacefission__rate__module.html#a66a09d5b4e3a95b7c3ac9b70528ca482" target="_top" xlink:title="Read the fission rates, splitted into different types of fission.">
<polygon fill="white" stroke="black" points="150,-234.06 150,-264.06 253,-264.06 253,-234.06 150,-234.06"/>
<text text-anchor="start" x="158" y="-252.06" font-family="Helvetica,sans-Serif" font-size="10.00">fission_rate_module</text>
<text text-anchor="middle" x="201.5" y="-241.06" font-family="Helvetica,sans-Serif" font-size="10.00">::read_fission_rates</text>
</a>
</g>
</g>
<!-- Node1&#45;&gt;Node22 -->
<g id="edge55" class="edge">
<title>Node1&#45;&gt;Node22</title>
<path fill="none" stroke="midnightblue" d="M61.76,-474.05C86.73,-433.56 155.61,-321.86 185.89,-272.75"/>
<polygon fill="midnightblue" stroke="midnightblue" points="188.98,-274.42 191.25,-264.07 183.02,-270.75 188.98,-274.42"/>
</g>
<!-- Node26 -->
<g id="node26" class="node">
<title>Node26</title>
<g id="a_node26"><a xlink:href="namespacefission__rate__module.html#a482abf656979513ab2b0de0855d472a8" target="_top" xlink:title="Reorder the fission fragments.">
<polygon fill="white" stroke="black" points="467.5,-47.06 467.5,-77.06 570.5,-77.06 570.5,-47.06 467.5,-47.06"/>
<text text-anchor="start" x="475.5" y="-65.06" font-family="Helvetica,sans-Serif" font-size="10.00">fission_rate_module</text>
<text text-anchor="middle" x="519" y="-54.06" font-family="Helvetica,sans-Serif" font-size="10.00">::reorder_fragments</text>
</a>
</g>
</g>
<!-- Node1&#45;&gt;Node26 -->
<g id="edge69" class="edge">
<title>Node1&#45;&gt;Node26</title>
<path fill="none" stroke="midnightblue" d="M54.63,-473.81C61.15,-431.2 83.85,-308.56 139,-224.06 191.47,-143.67 211.8,-117.98 300,-80.06 349.85,-58.63 411.95,-55.52 457.11,-56.95"/>
<polygon fill="midnightblue" stroke="midnightblue" points="457.21,-60.45 467.34,-57.36 457.49,-53.46 457.21,-60.45"/>
</g>
<!-- Node29 -->
<g id="node29" class="node">
<title>Node29</title>
<g id="a_node29"><a xlink:href="namespacefission__rate__module.html#a3784e5987def2b49c3e0df3c3f575e12" target="_top" xlink:title="Write the amount of individual reactions to the out.">
<polygon fill="white" stroke="black" points="139,-425.06 139,-455.06 264,-455.06 264,-425.06 139,-425.06"/>
<text text-anchor="start" x="147" y="-443.06" font-family="Helvetica,sans-Serif" font-size="10.00">fission_rate_module</text>
<text text-anchor="middle" x="201.5" y="-432.06" font-family="Helvetica,sans-Serif" font-size="10.00">::write_reac_verbose_out</text>
</a>
</g>
</g>
<!-- Node1&#45;&gt;Node29 -->
<g id="edge76" class="edge">
<title>Node1&#45;&gt;Node29</title>
<path fill="none" stroke="midnightblue" d="M98.11,-473.96C113.09,-469 129.91,-463.44 145.51,-458.27"/>
<polygon fill="midnightblue" stroke="midnightblue" points="146.64,-461.58 155.04,-455.11 144.44,-454.94 146.64,-461.58"/>
</g>
<!-- Node3 -->
<g id="node3" class="node">
<title>Node3</title>
<g id="a_node3"><a xlink:href="namespacefission__rate__module.html#a3eccee43c86cd1e5ec4fc35e11c8ac8e" target="_top" xlink:title="Calculates the (beta&#45;delayed and spontaneous) fission fragment mass distribution according to the ABL...">
<polygon fill="white" stroke="black" points="639,-1063.06 639,-1093.06 742,-1093.06 742,-1063.06 639,-1063.06"/>
<text text-anchor="start" x="647" y="-1081.06" font-family="Helvetica,sans-Serif" font-size="10.00">fission_rate_module</text>
<text text-anchor="middle" x="690.5" y="-1070.06" font-family="Helvetica,sans-Serif" font-size="10.00">::abla_betafiss</text>
</a>
</g>
</g>
<!-- Node2&#45;&gt;Node3 -->
<g id="edge2" class="edge">
<title>Node2&#45;&gt;Node3</title>
<path fill="none" stroke="midnightblue" d="M220.28,-956.19C238.91,-971.22 269.65,-993.75 300,-1006.06 410.54,-1050.91 550.1,-1068.04 628.61,-1074.42"/>
<polygon fill="midnightblue" stroke="midnightblue" points="628.57,-1077.93 638.81,-1075.22 629.11,-1070.95 628.57,-1077.93"/>
</g>
<!-- Node2&#45;&gt;Node5 -->
<g id="edge31" class="edge">
<title>Node2&#45;&gt;Node5</title>
<path fill="none" stroke="midnightblue" d="M209.63,-925.81C223.11,-898.86 255.03,-843.24 300,-817.06 480.25,-712.15 572.19,-828.95 764,-747.06 790.71,-735.66 816.47,-714.63 833.91,-698.41"/>
<polygon fill="midnightblue" stroke="midnightblue" points="836.49,-700.78 841.3,-691.34 831.65,-695.72 836.49,-700.78"/>
</g>
<!-- Node6 -->
<g id="node6" class="node">
<title>Node6</title>
<g id="a_node6"><a xlink:href="namespaceerror__msg__class.html#a7e065585cc806a5c264de1f088266498" target="_top" xlink:title="Converts a given integer to a string.">
<polygon fill="white" stroke="black" points="950,-661.06 950,-691.06 1054,-691.06 1054,-661.06 950,-661.06"/>
<text text-anchor="start" x="958" y="-679.06" font-family="Helvetica,sans-Serif" font-size="10.00">error_msg_class::int</text>
<text text-anchor="middle" x="1002" y="-668.06" font-family="Helvetica,sans-Serif" font-size="10.00">_to_str</text>
</a>
</g>
</g>
<!-- Node2&#45;&gt;Node6 -->
<g id="edge25" class="edge">
<title>Node2&#45;&gt;Node6</title>
<path fill="none" stroke="midnightblue" d="M208.92,-956.29C236.18,-1018.23 348.72,-1248.06 518,-1248.06 518,-1248.06 518,-1248.06 691.5,-1248.06 799.74,-1248.06 847.04,-1234.1 914,-1149.06 969.85,-1078.13 993.42,-789.52 999.4,-701.6"/>
<polygon fill="midnightblue" stroke="midnightblue" points="1002.9,-701.67 1000.07,-691.46 995.92,-701.2 1002.9,-701.67"/>
</g>
<!-- Node7 -->
<g id="node7" class="node">
<title>Node7</title>
<g id="a_node7"><a xlink:href="namespacefission__rate__module.html#a07f34766739ee866664d2edd5134257e" target="_top" xlink:title="Calculates the (neutron&#45;induced) fission fragment mass distribution according to the ABLA07 model: Ke...">
<polygon fill="white" stroke="black" points="639,-1014.06 639,-1044.06 742,-1044.06 742,-1014.06 639,-1014.06"/>
<text text-anchor="start" x="647" y="-1032.06" font-family="Helvetica,sans-Serif" font-size="10.00">fission_rate_module</text>
<text text-anchor="middle" x="690.5" y="-1021.06" font-family="Helvetica,sans-Serif" font-size="10.00">::abla_nfiss</text>
</a>
</g>
</g>
<!-- Node2&#45;&gt;Node7 -->
<g id="edge6" class="edge">
<title>Node2&#45;&gt;Node7</title>
<path fill="none" stroke="midnightblue" d="M238.13,-956.23C256.38,-963.58 279.11,-972.08 300,-978.06 413.26,-1010.49 551.02,-1022.37 628.64,-1026.68"/>
<polygon fill="midnightblue" stroke="midnightblue" points="628.56,-1030.18 638.73,-1027.21 628.93,-1023.19 628.56,-1030.18"/>
</g>
<!-- Node8 -->
<g id="node8" class="node">
<title>Node8</title>
<g id="a_node8"><a xlink:href="namespacefile__handling__class.html#a01ba26324d7662cc0fb2e0eb306cd3e2" target="_top" xlink:title="Close an external file.">
<polygon fill="white" stroke="black" points="641.5,-838.06 641.5,-868.06 739.5,-868.06 739.5,-838.06 641.5,-838.06"/>
<text text-anchor="start" x="649.5" y="-856.06" font-family="Helvetica,sans-Serif" font-size="10.00">file_handling_class</text>
<text text-anchor="middle" x="690.5" y="-845.06" font-family="Helvetica,sans-Serif" font-size="10.00">::close_io_file</text>
</a>
</g>
</g>
<!-- Node2&#45;&gt;Node8 -->
<g id="edge9" class="edge">
<title>Node2&#45;&gt;Node8</title>
<path fill="none" stroke="midnightblue" d="M261.24,-930.45C355.1,-913.49 537.78,-880.48 631.29,-863.58"/>
<polygon fill="midnightblue" stroke="midnightblue" points="631.93,-867.02 641.15,-861.8 630.69,-860.13 631.93,-867.02"/>
</g>
<!-- Node9 -->
<g id="node9" class="node">
<title>Node9</title>
<g id="a_node9"><a xlink:href="namespacefission__rate__module.html#a6fd5b533d68c298b67c8a59fdef90e6b" target="_top" xlink:title="Fill the rates with the correct fragments.">
<polygon fill="white" stroke="black" points="467.5,-970.06 467.5,-1000.06 570.5,-1000.06 570.5,-970.06 467.5,-970.06"/>
<text text-anchor="start" x="475.5" y="-988.06" font-family="Helvetica,sans-Serif" font-size="10.00">fission_rate_module</text>
<text text-anchor="middle" x="519" y="-977.06" font-family="Helvetica,sans-Serif" font-size="10.00">::file_fiss_frag</text>
</a>
</g>
</g>
<!-- Node2&#45;&gt;Node9 -->
<g id="edge12" class="edge">
<title>Node2&#45;&gt;Node9</title>
<path fill="none" stroke="midnightblue" d="M261.01,-949.52C273.85,-951.36 287.38,-953.29 300,-955.06 353.06,-962.52 413.42,-970.81 457.15,-976.79"/>
<polygon fill="midnightblue" stroke="midnightblue" points="456.95,-980.29 467.33,-978.18 457.9,-973.36 456.95,-980.29"/>
</g>
<!-- Node10 -->
<g id="node10" class="node">
<title>Node10</title>
<g id="a_node10"><a xlink:href="namespacefission__rate__module.html#acb8bde13a563d9a5f99739b6cdb1682b" target="_top" xlink:title="Determines fission fragment mass distribution as described in Panov et al. 2001.">
<polygon fill="white" stroke="black" points="639,-1151.06 639,-1181.06 742,-1181.06 742,-1151.06 639,-1151.06"/>
<text text-anchor="start" x="647" y="-1169.06" font-family="Helvetica,sans-Serif" font-size="10.00">fission_rate_module</text>
<text text-anchor="middle" x="690.5" y="-1158.06" font-family="Helvetica,sans-Serif" font-size="10.00">::fiss_dist</text>
</a>
</g>
</g>
<!-- Node2&#45;&gt;Node10 -->
<g id="edge24" class="edge">
<title>Node2&#45;&gt;Node10</title>
<path fill="none" stroke="midnightblue" d="M213.73,-956.22C230.32,-977.61 263.41,-1016.55 300,-1039.06 406.02,-1104.29 549.12,-1139.69 629.05,-1155.56"/>
<polygon fill="midnightblue" stroke="midnightblue" points="628.47,-1159.01 638.95,-1157.49 629.81,-1152.14 628.47,-1159.01"/>
</g>
<!-- Node11 -->
<g id="node11" class="node">
<title>Node11</title>
<g id="a_node11"><a xlink:href="namespacefission__rate__module.html#aa9bd5afd5fef2fd78f7a26f5a401e854" target="_top" xlink:title="Kodama&#45;Takahashi distribution.">
<polygon fill="white" stroke="black" points="639,-926.06 639,-956.06 742,-956.06 742,-926.06 639,-926.06"/>
<text text-anchor="start" x="647" y="-944.06" font-family="Helvetica,sans-Serif" font-size="10.00">fission_rate_module</text>
<text text-anchor="middle" x="690.5" y="-933.06" font-family="Helvetica,sans-Serif" font-size="10.00">::kodtakdist</text>
</a>
</g>
</g>
<!-- Node2&#45;&gt;Node11 -->
<g id="edge26" class="edge">
<title>Node2&#45;&gt;Node11</title>
<path fill="none" stroke="midnightblue" d="M261.24,-941.06C354.15,-941.06 534.1,-941.06 628.43,-941.06"/>
<polygon fill="midnightblue" stroke="midnightblue" points="628.67,-944.56 638.67,-941.06 628.67,-937.56 628.67,-944.56"/>
</g>
<!-- Node12 -->
<g id="node12" class="node">
<title>Node12</title>
<g id="a_node12"><a xlink:href="namespacefile__handling__class.html#aab870caaf9cbaaf635d537708efbf793" target="_top" xlink:title="Same for reading (input file)">
<polygon fill="white" stroke="black" points="470,-452.06 470,-482.06 568,-482.06 568,-452.06 470,-452.06"/>
<text text-anchor="start" x="478" y="-470.06" font-family="Helvetica,sans-Serif" font-size="10.00">file_handling_class</text>
<text text-anchor="middle" x="519" y="-459.06" font-family="Helvetica,sans-Serif" font-size="10.00">::open_infile</text>
</a>
</g>
</g>
<!-- Node2&#45;&gt;Node12 -->
<g id="edge27" class="edge">
<title>Node2&#45;&gt;Node12</title>
<path fill="none" stroke="midnightblue" d="M201.91,-925.85C200.68,-871.75 203.94,-686.6 300,-587.06 339.14,-546.5 371.62,-576.24 421,-549.06 449.91,-533.16 478.16,-507.83 496.65,-489.53"/>
<polygon fill="midnightblue" stroke="midnightblue" points="499.39,-491.73 503.95,-482.17 494.42,-486.81 499.39,-491.73"/>
</g>
<!-- Node14 -->
<g id="node14" class="node">
<title>Node14</title>
<g id="a_node14"><a xlink:href="namespacefission__rate__module.html#afcee2134788e99f2e791a7d1ee3daa68" target="_top" xlink:title=" ">
<polygon fill="white" stroke="black" points="300,-827.06 300,-857.06 421,-857.06 421,-827.06 300,-827.06"/>
<text text-anchor="start" x="308" y="-845.06" font-family="Helvetica,sans-Serif" font-size="10.00">fission_rate_module</text>
<text text-anchor="middle" x="360.5" y="-834.06" font-family="Helvetica,sans-Serif" font-size="10.00">::read_fiss_fragment_file</text>
</a>
</g>
</g>
<!-- Node2&#45;&gt;Node14 -->
<g id="edge32" class="edge">
<title>Node2&#45;&gt;Node14</title>
<path fill="none" stroke="midnightblue" d="M226.34,-926.03C253.17,-909.12 296.88,-881.55 326.86,-862.65"/>
<polygon fill="midnightblue" stroke="midnightblue" points="329.1,-865.37 335.69,-857.08 325.36,-859.45 329.1,-865.37"/>
</g>
<!-- Node4 -->
<g id="node4" class="node">
<title>Node4</title>
<g id="a_node4"><a xlink:href="namespacebenam__class.html#ad2f566697809a5731e560509d2ca7062" target="_top" xlink:title="Finds an isotope index in the network table, given its A and Z. In case it was not found,...">
<polygon fill="white" stroke="black" points="805,-1080.56 805,-1099.56 909,-1099.56 909,-1080.56 805,-1080.56"/>
<text text-anchor="middle" x="857" y="-1087.56" font-family="Helvetica,sans-Serif" font-size="10.00">benam_class::findaz</text>
</a>
</g>
</g>
<!-- Node3&#45;&gt;Node4 -->
<g id="edge3" class="edge">
<title>Node3&#45;&gt;Node4</title>
<path fill="none" stroke="midnightblue" d="M742.2,-1081.76C758.85,-1082.98 777.53,-1084.34 794.87,-1085.6"/>
<polygon fill="midnightblue" stroke="midnightblue" points="794.67,-1089.1 804.9,-1086.34 795.18,-1082.12 794.67,-1089.1"/>
</g>
<!-- Node3&#45;&gt;Node5 -->
<g id="edge4" class="edge">
<title>Node3&#45;&gt;Node5</title>
<path fill="none" stroke="midnightblue" d="M742.22,-1068.66C750.38,-1065.21 758.07,-1060.5 764,-1054.06 812.44,-1001.53 843.66,-777.6 853.03,-701.5"/>
<polygon fill="midnightblue" stroke="midnightblue" points="856.53,-701.73 854.25,-691.38 849.58,-700.89 856.53,-701.73"/>
</g>
<!-- Node5&#45;&gt;Node6 -->
<g id="edge5" class="edge">
<title>Node5&#45;&gt;Node6</title>
<path fill="none" stroke="midnightblue" d="M914.11,-676.06C922.45,-676.06 931.09,-676.06 939.54,-676.06"/>
<polygon fill="midnightblue" stroke="midnightblue" points="939.71,-679.56 949.71,-676.06 939.71,-672.56 939.71,-679.56"/>
</g>
<!-- Node7&#45;&gt;Node4 -->
<g id="edge7" class="edge">
<title>Node7&#45;&gt;Node4</title>
<path fill="none" stroke="midnightblue" d="M736.08,-1044.11C745.33,-1047.33 755,-1050.75 764,-1054.06 783.51,-1061.24 805.17,-1069.69 822.57,-1076.6"/>
<polygon fill="midnightblue" stroke="midnightblue" points="821.69,-1080.02 832.27,-1080.47 824.28,-1073.52 821.69,-1080.02"/>
</g>
<!-- Node7&#45;&gt;Node5 -->
<g id="edge8" class="edge">
<title>Node7&#45;&gt;Node5</title>
<path fill="none" stroke="midnightblue" d="M714.42,-1013.93C730.39,-1002.29 751.07,-984.89 764,-965.06 820.66,-878.18 844.6,-753.89 852.62,-701.2"/>
<polygon fill="midnightblue" stroke="midnightblue" points="856.12,-701.49 854.1,-691.09 849.19,-700.48 856.12,-701.49"/>
</g>
<!-- Node8&#45;&gt;Node5 -->
<g id="edge11" class="edge">
<title>Node8&#45;&gt;Node5</title>
<path fill="none" stroke="midnightblue" d="M739.55,-838.14C748.25,-834.11 756.82,-829.13 764,-823.06 785.1,-805.22 823.26,-737.36 843.15,-700.41"/>
<polygon fill="midnightblue" stroke="midnightblue" points="846.39,-701.77 848.02,-691.3 840.22,-698.47 846.39,-701.77"/>
</g>
<!-- Node8&#45;&gt;Node6 -->
<g id="edge10" class="edge">
<title>Node8&#45;&gt;Node6</title>
<path fill="none" stroke="midnightblue" d="M731.16,-838.02C741.97,-833.55 753.58,-828.41 764,-823.06 841.39,-783.38 926.86,-727.02 970.97,-696.91"/>
<polygon fill="midnightblue" stroke="midnightblue" points="973.21,-699.62 979.48,-691.08 969.25,-693.85 973.21,-699.62"/>
</g>
<!-- Node9&#45;&gt;Node4 -->
<g id="edge13" class="edge">
<title>Node9&#45;&gt;Node4</title>
<path fill="none" stroke="midnightblue" d="M526.93,-1000.26C540.08,-1026.97 571.44,-1081.54 617,-1103.06 682.59,-1134.05 769.87,-1116.73 818.76,-1102.58"/>
<polygon fill="midnightblue" stroke="midnightblue" points="820.01,-1105.85 828.58,-1099.62 818,-1099.15 820.01,-1105.85"/>
</g>
<!-- Node9&#45;&gt;Node5 -->
<g id="edge23" class="edge">
<title>Node9&#45;&gt;Node5</title>
<path fill="none" stroke="midnightblue" d="M537.03,-970.03C555.52,-954.44 586.51,-930.38 617,-916.06 678.19,-887.35 714.04,-922.59 764,-877.06 798.3,-845.81 780.87,-821.34 800,-779.06 812.66,-751.08 829.85,-720.3 841.84,-699.75"/>
<polygon fill="midnightblue" stroke="midnightblue" points="844.89,-701.46 846.94,-691.07 838.85,-697.91 844.89,-701.46"/>
</g>
<!-- Node9&#45;&gt;Node6 -->
<g id="edge18" class="edge">
<title>Node9&#45;&gt;Node6</title>
<path fill="none" stroke="midnightblue" d="M570.93,-989.13C621.63,-991.31 700.8,-989.58 764,-965.06 842.57,-934.59 860.4,-914.1 914,-849.06 952.33,-802.54 979.65,-736.32 992.57,-700.82"/>
<polygon fill="midnightblue" stroke="midnightblue" points="995.92,-701.85 995.98,-691.25 989.33,-699.5 995.92,-701.85"/>
</g>
<!-- Node9&#45;&gt;Node10 -->
<g id="edge14" class="edge">
<title>Node9&#45;&gt;Node10</title>
<path fill="none" stroke="midnightblue" d="M526.15,-1000.52C538.83,-1030.57 570.61,-1097.3 617,-1136.06 621.55,-1139.87 626.66,-1143.25 631.99,-1146.23"/>
<polygon fill="midnightblue" stroke="midnightblue" points="630.63,-1149.47 641.13,-1150.9 633.81,-1143.23 630.63,-1149.47"/>
</g>
<!-- Node9&#45;&gt;Node11 -->
<g id="edge19" class="edge">
<title>Node9&#45;&gt;Node11</title>
<path fill="none" stroke="midnightblue" d="M570.86,-971.86C589.21,-967.1 610.1,-961.68 629.18,-956.72"/>
<polygon fill="midnightblue" stroke="midnightblue" points="630.17,-960.08 638.97,-954.18 628.41,-953.3 630.17,-960.08"/>
</g>
<!-- Node10&#45;&gt;Node4 -->
<g id="edge15" class="edge">
<title>Node10&#45;&gt;Node4</title>
<path fill="none" stroke="midnightblue" d="M729.35,-1151C740.57,-1146.37 752.85,-1141.15 764,-1136.06 786.14,-1125.96 810.77,-1113.59 828.97,-1104.21"/>
<polygon fill="midnightblue" stroke="midnightblue" points="830.59,-1107.32 837.86,-1099.62 827.37,-1101.1 830.59,-1107.32"/>
</g>
<!-- Node10&#45;&gt;Node5 -->
<g id="edge17" class="edge">
<title>Node10&#45;&gt;Node5</title>
<path fill="none" stroke="midnightblue" d="M716.05,-1150.87C732.14,-1139.63 752.29,-1122.87 764,-1103.06 844.04,-967.63 854.77,-771.3 855.97,-701.7"/>
<polygon fill="midnightblue" stroke="midnightblue" points="859.47,-701.32 856.09,-691.28 852.47,-701.24 859.47,-701.32"/>
</g>
<!-- Node10&#45;&gt;Node6 -->
<g id="edge16" class="edge">
<title>Node10&#45;&gt;Node6</title>
<path fill="none" stroke="midnightblue" d="M742.42,-1167.58C793.2,-1166.17 869.81,-1155.64 914,-1109.06 970.7,-1049.31 993.51,-784.86 999.37,-701.39"/>
<polygon fill="midnightblue" stroke="midnightblue" points="1002.87,-701.5 1000.06,-691.28 995.89,-701.02 1002.87,-701.5"/>
</g>
<!-- Node11&#45;&gt;Node4 -->
<g id="edge20" class="edge">
<title>Node11&#45;&gt;Node4</title>
<path fill="none" stroke="midnightblue" d="M709.24,-956.16C724.01,-968.82 745.54,-987.43 764,-1004.06 790.2,-1027.67 819.9,-1055.67 838.3,-1073.16"/>
<polygon fill="midnightblue" stroke="midnightblue" points="836.25,-1076.04 845.9,-1080.4 841.07,-1070.97 836.25,-1076.04"/>
</g>
<!-- Node11&#45;&gt;Node5 -->
<g id="edge22" class="edge">
<title>Node11&#45;&gt;Node5</title>
<path fill="none" stroke="midnightblue" d="M742.37,-926.25C750.31,-922.27 757.89,-917.29 764,-911.06 823.06,-850.85 845.32,-748.31 852.73,-701.15"/>
<polygon fill="midnightblue" stroke="midnightblue" points="856.2,-701.59 854.2,-691.18 849.28,-700.57 856.2,-701.59"/>
</g>
<!-- Node11&#45;&gt;Node6 -->
<g id="edge21" class="edge">
<title>Node11&#45;&gt;Node6</title>
<path fill="none" stroke="midnightblue" d="M734.39,-925.93C744.4,-921.69 754.82,-916.68 764,-911.06 838.74,-865.3 852.77,-845.77 914,-783.06 940.29,-756.15 967.08,-721.96 983.86,-699.57"/>
<polygon fill="midnightblue" stroke="midnightblue" points="986.83,-701.43 989.98,-691.32 981.21,-697.26 986.83,-701.43"/>
</g>
<!-- Node12&#45;&gt;Node5 -->
<g id="edge30" class="edge">
<title>Node12&#45;&gt;Node5</title>
<path fill="none" stroke="midnightblue" d="M568.21,-462.59C621.07,-460.2 706.08,-464.08 764,-505.06 814.43,-540.75 839.81,-612.98 850.15,-651.14"/>
<polygon fill="midnightblue" stroke="midnightblue" points="846.8,-652.13 852.68,-660.94 853.57,-650.38 846.8,-652.13"/>
</g>
<!-- Node13 -->
<g id="node13" class="node">
<title>Node13</title>
<g id="a_node13"><a xlink:href="namespacefile__handling__class.html#af02196bd5eaf70ecd5ab4cc650094d5e" target="_top" xlink:title="Finds the next unused unit number.">
<polygon fill="white" stroke="black" points="641.5,-598.06 641.5,-628.06 739.5,-628.06 739.5,-598.06 641.5,-598.06"/>
<text text-anchor="start" x="649.5" y="-616.06" font-family="Helvetica,sans-Serif" font-size="10.00">file_handling_class</text>
<text text-anchor="middle" x="690.5" y="-605.06" font-family="Helvetica,sans-Serif" font-size="10.00">::get_next_io_unit</text>
</a>
</g>
</g>
<!-- Node12&#45;&gt;Node13 -->
<g id="edge28" class="edge">
<title>Node12&#45;&gt;Node13</title>
<path fill="none" stroke="midnightblue" d="M537.5,-482.14C567.57,-508.04 629.16,-561.09 664.01,-591.1"/>
<polygon fill="midnightblue" stroke="midnightblue" points="661.98,-593.98 671.84,-597.85 666.55,-588.67 661.98,-593.98"/>
</g>
<!-- Node13&#45;&gt;Node5 -->
<g id="edge29" class="edge">
<title>Node13&#45;&gt;Node5</title>
<path fill="none" stroke="midnightblue" d="M730.9,-628.15C753.81,-636.93 782.87,-648.06 807.21,-657.38"/>
<polygon fill="midnightblue" stroke="midnightblue" points="806.04,-660.68 816.63,-660.99 808.55,-654.14 806.04,-660.68"/>
</g>
<!-- Node14&#45;&gt;Node4 -->
<g id="edge33" class="edge">
<title>Node14&#45;&gt;Node4</title>
<path fill="none" stroke="midnightblue" d="M366.44,-857.18C386.34,-915.12 466.82,-1123.13 617,-1191.06 676.53,-1217.99 704.24,-1217.46 764,-1191.06 802.14,-1174.21 831.28,-1132.88 845.79,-1108.64"/>
<polygon fill="midnightblue" stroke="midnightblue" points="848.99,-1110.11 850.95,-1099.7 842.92,-1106.61 848.99,-1110.11"/>
</g>
<!-- Node14&#45;&gt;Node5 -->
<g id="edge35" class="edge">
<title>Node14&#45;&gt;Node5</title>
<path fill="none" stroke="midnightblue" d="M421.25,-839.48C519.04,-834.29 708,-819.97 764,-785.06 788.17,-770 781.85,-754.01 800,-732.06 809.71,-720.33 821.5,-708.26 831.75,-698.35"/>
<polygon fill="midnightblue" stroke="midnightblue" points="834.4,-700.66 839.23,-691.23 829.58,-695.59 834.4,-700.66"/>
</g>
<!-- Node14&#45;&gt;Node12 -->
<g id="edge34" class="edge">
<title>Node14&#45;&gt;Node12</title>
<path fill="none" stroke="midnightblue" d="M372.06,-826.88C385.52,-806.8 408.52,-769.88 421,-735.06 451.03,-651.28 418.67,-618.39 457,-538.06 465.78,-519.67 480.59,-502.26 493.42,-489.29"/>
<polygon fill="midnightblue" stroke="midnightblue" points="495.98,-491.68 500.69,-482.19 491.09,-486.67 495.98,-491.68"/>
</g>
<!-- Node15&#45;&gt;Node5 -->
<g id="edge48" class="edge">
<title>Node15&#45;&gt;Node5</title>
<path fill="none" stroke="midnightblue" d="M220.49,-504.18C233.84,-516.12 251.77,-533.76 264,-552.06 286.57,-585.83 266.09,-613.7 300,-636.06 344.9,-665.67 367.71,-643.33 421,-636.06 437.45,-633.82 440.92,-630.2 457,-626.06 527.78,-607.83 544.41,-596.57 617,-588.06 681.89,-580.46 703.37,-563.73 764,-588.06 796.27,-601.01 823.62,-631.28 839.92,-652.69"/>
<polygon fill="midnightblue" stroke="midnightblue" points="837.26,-654.99 846,-660.97 842.9,-650.84 837.26,-654.99"/>
</g>
<!-- Node15&#45;&gt;Node6 -->
<g id="edge47" class="edge">
<title>Node15&#45;&gt;Node6</title>
<path fill="none" stroke="midnightblue" d="M253.38,-473.89C257.4,-471.14 261.04,-467.9 264,-464.06 339.33,-366.49 210.97,-274.32 300,-189.06 370.24,-121.8 420.74,-170.06 518,-170.06 518,-170.06 518,-170.06 691.5,-170.06 919.52,-170.06 984.64,-548.64 998.07,-650.88"/>
<polygon fill="midnightblue" stroke="midnightblue" points="994.61,-651.44 999.33,-660.92 1001.56,-650.56 994.61,-651.44"/>
</g>
<!-- Node16 -->
<g id="node16" class="node">
<title>Node16</title>
<g id="a_node16"><a xlink:href="namespacefission__rate__module.html#a2dbd5728daa5fdbff9298bcffefddef0" target="_top" xlink:title=" ">
<polygon fill="white" stroke="black" points="308,-378.56 308,-419.56 413,-419.56 413,-378.56 308,-378.56"/>
<text text-anchor="start" x="316" y="-407.56" font-family="Helvetica,sans-Serif" font-size="10.00">fission_rate_module</text>
<text text-anchor="start" x="316" y="-396.56" font-family="Helvetica,sans-Serif" font-size="10.00">::count_fission_rates</text>
<text text-anchor="middle" x="360.5" y="-385.56" font-family="Helvetica,sans-Serif" font-size="10.00">_halflife_format</text>
</a>
</g>
</g>
<!-- Node15&#45;&gt;Node16 -->
<g id="edge37" class="edge">
<title>Node15&#45;&gt;Node16</title>
<path fill="none" stroke="midnightblue" d="M245.59,-474.04C251.97,-471.12 258.31,-467.78 264,-464.06 282.68,-451.86 281.83,-442.01 300,-429.06 301.88,-427.73 303.82,-426.42 305.81,-425.14"/>
<polygon fill="midnightblue" stroke="midnightblue" points="308.01,-427.9 314.76,-419.73 304.39,-421.91 308.01,-427.9"/>
</g>
<!-- Node18 -->
<g id="node18" class="node">
<title>Node18</title>
<g id="a_node18"><a xlink:href="namespacefission__rate__module.html#a0a751f5633cad35f24663f97245307e5" target="_top" xlink:title=" ">
<polygon fill="white" stroke="black" points="308,-498.56 308,-539.56 413,-539.56 413,-498.56 308,-498.56"/>
<text text-anchor="start" x="316" y="-527.56" font-family="Helvetica,sans-Serif" font-size="10.00">fission_rate_module</text>
<text text-anchor="start" x="316" y="-516.56" font-family="Helvetica,sans-Serif" font-size="10.00">::count_fission_rates</text>
<text text-anchor="middle" x="360.5" y="-505.56" font-family="Helvetica,sans-Serif" font-size="10.00">_probability_format</text>
</a>
</g>
</g>
<!-- Node15&#45;&gt;Node18 -->
<g id="edge40" class="edge">
<title>Node15&#45;&gt;Node18</title>
<path fill="none" stroke="midnightblue" d="M254.34,-498.97C268.35,-501.65 283.64,-504.57 298.11,-507.33"/>
<polygon fill="midnightblue" stroke="midnightblue" points="297.5,-510.78 307.98,-509.22 298.81,-503.9 297.5,-510.78"/>
</g>
<!-- Node19 -->
<g id="node19" class="node">
<title>Node19</title>
<g id="a_node19"><a xlink:href="namespacefission__rate__module.html#a38fd7f41190a7ea401edbc0a653ac34b" target="_top" xlink:title="Count the amount of fission rates in reaclib format.">
<polygon fill="white" stroke="black" points="308,-438.56 308,-479.56 413,-479.56 413,-438.56 308,-438.56"/>
<text text-anchor="start" x="316" y="-467.56" font-family="Helvetica,sans-Serif" font-size="10.00">fission_rate_module</text>
<text text-anchor="start" x="316" y="-456.56" font-family="Helvetica,sans-Serif" font-size="10.00">::count_fission_rates</text>
<text text-anchor="middle" x="360.5" y="-445.56" font-family="Helvetica,sans-Serif" font-size="10.00">_reaclib_format</text>
</a>
</g>
</g>
<!-- Node15&#45;&gt;Node19 -->
<g id="edge44" class="edge">
<title>Node15&#45;&gt;Node19</title>
<path fill="none" stroke="midnightblue" d="M254.34,-479.16C268.35,-476.48 283.64,-473.56 298.11,-470.79"/>
<polygon fill="midnightblue" stroke="midnightblue" points="298.81,-474.22 307.98,-468.91 297.5,-467.35 298.81,-474.22"/>
</g>
<!-- Node16&#45;&gt;Node12 -->
<g id="edge39" class="edge">
<title>Node16&#45;&gt;Node12</title>
<path fill="none" stroke="midnightblue" d="M408.88,-419.65C429.54,-428.63 453.62,-439.09 473.89,-447.9"/>
<polygon fill="midnightblue" stroke="midnightblue" points="472.64,-451.17 483.21,-451.95 475.43,-444.75 472.64,-451.17"/>
</g>
<!-- Node17 -->
<g id="node17" class="node">
<title>Node17</title>
<g id="a_node17"><a xlink:href="namespacebenam__class.html#ad20c821347dd5f7c08dff59c98e69657" target="_top" xlink:title="Returns the index number of isotope &#39;name&#39;.">
<polygon fill="white" stroke="black" points="465,-359.56 465,-378.56 573,-378.56 573,-359.56 465,-359.56"/>
<text text-anchor="middle" x="519" y="-366.56" font-family="Helvetica,sans-Serif" font-size="10.00">benam_class::benam</text>
</a>
</g>
</g>
<!-- Node16&#45;&gt;Node17 -->
<g id="edge38" class="edge">
<title>Node16&#45;&gt;Node17</title>
<path fill="none" stroke="midnightblue" d="M413.18,-389.16C427.57,-386.4 443.33,-383.38 458.15,-380.54"/>
<polygon fill="midnightblue" stroke="midnightblue" points="459.08,-383.92 468.24,-378.6 457.76,-377.05 459.08,-383.92"/>
</g>
<!-- Node18&#45;&gt;Node5 -->
<g id="edge43" class="edge">
<title>Node18&#45;&gt;Node5</title>
<path fill="none" stroke="midnightblue" d="M413.31,-511.02C493.87,-501.16 651.59,-492.68 764,-555.06 803.22,-576.83 830.91,-623.03 845.1,-651.62"/>
<polygon fill="midnightblue" stroke="midnightblue" points="842.08,-653.42 849.55,-660.93 848.39,-650.4 842.08,-653.42"/>
</g>
<!-- Node18&#45;&gt;Node12 -->
<g id="edge42" class="edge">
<title>Node18&#45;&gt;Node12</title>
<path fill="none" stroke="midnightblue" d="M413.18,-501.89C429.1,-496.6 446.7,-490.76 462.85,-485.39"/>
<polygon fill="midnightblue" stroke="midnightblue" points="464.3,-488.59 472.69,-482.12 462.09,-481.95 464.3,-488.59"/>
</g>
<!-- Node18&#45;&gt;Node17 -->
<g id="edge41" class="edge">
<title>Node18&#45;&gt;Node17</title>
<path fill="none" stroke="midnightblue" d="M407.66,-498.48C412.36,-495.6 416.9,-492.46 421,-489.06 441.26,-472.27 440.56,-462.61 457,-442.06 472.35,-422.88 490.47,-401.33 502.95,-386.65"/>
<polygon fill="midnightblue" stroke="midnightblue" points="505.75,-388.75 509.58,-378.87 500.43,-384.21 505.75,-388.75"/>
</g>
<!-- Node19&#45;&gt;Node12 -->
<g id="edge46" class="edge">
<title>Node19&#45;&gt;Node12</title>
<path fill="none" stroke="midnightblue" d="M413.18,-461.7C428.01,-462.46 444.28,-463.29 459.49,-464.07"/>
<polygon fill="midnightblue" stroke="midnightblue" points="459.65,-467.59 469.82,-464.6 460.01,-460.59 459.65,-467.59"/>
</g>
<!-- Node19&#45;&gt;Node17 -->
<g id="edge45" class="edge">
<title>Node19&#45;&gt;Node17</title>
<path fill="none" stroke="midnightblue" d="M403.35,-438.54C409.32,-435.44 415.35,-432.23 421,-429.06 446.8,-414.61 475.51,-396.6 494.96,-384.1"/>
<polygon fill="midnightblue" stroke="midnightblue" points="496.95,-386.98 503.45,-378.62 493.15,-381.1 496.95,-386.98"/>
</g>
<!-- Node20&#45;&gt;Node5 -->
<g id="edge54" class="edge">
<title>Node20&#45;&gt;Node5</title>
<path fill="none" stroke="midnightblue" d="M412.56,-702.07C502.65,-696.79 689.72,-685.81 789.67,-679.95"/>
<polygon fill="midnightblue" stroke="midnightblue" points="790.17,-683.43 799.94,-679.35 789.76,-676.44 790.17,-683.43"/>
</g>
<!-- Node21 -->
<g id="node21" class="node">
<title>Node21</title>
<g id="a_node21"><a xlink:href="namespacefile__handling__class.html#a25b51db64738e74a129daae7428c8163" target="_top" xlink:title="Open an unformatted file for reading.">
<polygon fill="white" stroke="black" points="457,-636.06 457,-666.06 581,-666.06 581,-636.06 457,-636.06"/>
<text text-anchor="start" x="465" y="-654.06" font-family="Helvetica,sans-Serif" font-size="10.00">file_handling_class</text>
<text text-anchor="middle" x="519" y="-643.06" font-family="Helvetica,sans-Serif" font-size="10.00">::open_unformatted_infile</text>
</a>
</g>
</g>
<!-- Node20&#45;&gt;Node21 -->
<g id="edge51" class="edge">
<title>Node20&#45;&gt;Node21</title>
<path fill="none" stroke="midnightblue" d="M412.74,-687.38C429.44,-681.62 448,-675.22 464.83,-669.41"/>
<polygon fill="midnightblue" stroke="midnightblue" points="466.2,-672.64 474.51,-666.07 463.92,-666.02 466.2,-672.64"/>
</g>
<!-- Node21&#45;&gt;Node5 -->
<g id="edge53" class="edge">
<title>Node21&#45;&gt;Node5</title>
<path fill="none" stroke="midnightblue" d="M581.24,-655.62C640.2,-660.01 729.11,-666.62 789.71,-671.13"/>
<polygon fill="midnightblue" stroke="midnightblue" points="789.7,-674.64 799.93,-671.89 790.22,-667.66 789.7,-674.64"/>
</g>
<!-- Node21&#45;&gt;Node13 -->
<g id="edge52" class="edge">
<title>Node21&#45;&gt;Node13</title>
<path fill="none" stroke="midnightblue" d="M581.19,-637.34C597.61,-633.66 615.3,-629.7 631.53,-626.06"/>
<polygon fill="midnightblue" stroke="midnightblue" points="632.43,-629.44 641.42,-623.84 630.9,-622.61 632.43,-629.44"/>
</g>
<!-- Node22&#45;&gt;Node5 -->
<g id="edge57" class="edge">
<title>Node22&#45;&gt;Node5</title>
<path fill="none" stroke="midnightblue" d="M220.09,-234.01C238.58,-219.26 269.21,-197.78 300,-189.06 437.61,-150.11 755.26,-250.46 764,-259.06 820.58,-314.75 846.88,-569.09 853.96,-650.75"/>
<polygon fill="midnightblue" stroke="midnightblue" points="850.49,-651.21 854.82,-660.88 857.47,-650.62 850.49,-651.21"/>
</g>
<!-- Node22&#45;&gt;Node6 -->
<g id="edge56" class="edge">
<title>Node22&#45;&gt;Node6</title>
<path fill="none" stroke="midnightblue" d="M212.46,-233.91C247.57,-182.52 371.37,-18.06 518,-18.06 518,-18.06 518,-18.06 691.5,-18.06 790.71,-18.06 841.97,32.16 914,-36.06 959.6,-79.25 992.02,-537.02 999.4,-650.65"/>
<polygon fill="midnightblue" stroke="midnightblue" points="995.92,-651.07 1000.06,-660.83 1002.91,-650.62 995.92,-651.07"/>
</g>
<!-- Node23 -->
<g id="node23" class="node">
<title>Node23</title>
<g id="a_node23"><a xlink:href="namespacefission__rate__module.html#a4a2793ba7b5bdff0ad6a519b7518cc00" target="_top" xlink:title=" ">
<polygon fill="white" stroke="black" points="309,-258.56 309,-299.56 412,-299.56 412,-258.56 309,-258.56"/>
<text text-anchor="start" x="317" y="-287.56" font-family="Helvetica,sans-Serif" font-size="10.00">fission_rate_module</text>
<text text-anchor="start" x="317" y="-276.56" font-family="Helvetica,sans-Serif" font-size="10.00">::read_fission_rates</text>
<text text-anchor="middle" x="360.5" y="-265.56" font-family="Helvetica,sans-Serif" font-size="10.00">_halflife_format</text>
</a>
</g>
</g>
<!-- Node22&#45;&gt;Node23 -->
<g id="edge58" class="edge">
<title>Node22&#45;&gt;Node23</title>
<path fill="none" stroke="midnightblue" d="M253.04,-258.72C267.53,-261.49 283.49,-264.54 298.54,-267.41"/>
<polygon fill="midnightblue" stroke="midnightblue" points="298.31,-270.93 308.79,-269.37 299.62,-264.06 298.31,-270.93"/>
</g>
<!-- Node24 -->
<g id="node24" class="node">
<title>Node24</title>
<g id="a_node24"><a xlink:href="namespacefission__rate__module.html#a43a1f5e1e83f2a8babe622506d26a3a9" target="_top" xlink:title=" ">
<polygon fill="white" stroke="black" points="309,-198.56 309,-239.56 412,-239.56 412,-198.56 309,-198.56"/>
<text text-anchor="start" x="317" y="-227.56" font-family="Helvetica,sans-Serif" font-size="10.00">fission_rate_module</text>
<text text-anchor="start" x="317" y="-216.56" font-family="Helvetica,sans-Serif" font-size="10.00">::read_fission_rates</text>
<text text-anchor="middle" x="360.5" y="-205.56" font-family="Helvetica,sans-Serif" font-size="10.00">_probability_format</text>
</a>
</g>
</g>
<!-- Node22&#45;&gt;Node24 -->
<g id="edge62" class="edge">
<title>Node22&#45;&gt;Node24</title>
<path fill="none" stroke="midnightblue" d="M253.04,-239.41C267.53,-236.64 283.49,-233.59 298.54,-230.71"/>
<polygon fill="midnightblue" stroke="midnightblue" points="299.62,-234.07 308.79,-228.75 298.31,-227.19 299.62,-234.07"/>
</g>
<!-- Node25 -->
<g id="node25" class="node">
<title>Node25</title>
<g id="a_node25"><a xlink:href="namespacefission__rate__module.html#a911476fdfed2d6d2a13a04a04ec768ee" target="_top" xlink:title=" ">
<polygon fill="white" stroke="black" points="309,-318.56 309,-359.56 412,-359.56 412,-318.56 309,-318.56"/>
<text text-anchor="start" x="317" y="-347.56" font-family="Helvetica,sans-Serif" font-size="10.00">fission_rate_module</text>
<text text-anchor="start" x="317" y="-336.56" font-family="Helvetica,sans-Serif" font-size="10.00">::read_fission_rates</text>
<text text-anchor="middle" x="360.5" y="-325.56" font-family="Helvetica,sans-Serif" font-size="10.00">_reaclib_format</text>
</a>
</g>
</g>
<!-- Node22&#45;&gt;Node25 -->
<g id="edge66" class="edge">
<title>Node22&#45;&gt;Node25</title>
<path fill="none" stroke="midnightblue" d="M225.81,-264.18C245.36,-276.67 274.14,-294.62 300,-309.06 302.83,-310.64 305.75,-312.24 308.71,-313.82"/>
<polygon fill="midnightblue" stroke="midnightblue" points="307.17,-316.97 317.65,-318.53 310.43,-310.77 307.17,-316.97"/>
</g>
<!-- Node23&#45;&gt;Node5 -->
<g id="edge61" class="edge">
<title>Node23&#45;&gt;Node5</title>
<path fill="none" stroke="midnightblue" d="M412.27,-287.6C497.59,-304.62 669.65,-350.9 764,-459.06 814.71,-517.2 840.63,-607.39 850.76,-650.9"/>
<polygon fill="midnightblue" stroke="midnightblue" points="847.4,-651.91 853.01,-660.91 854.23,-650.38 847.4,-651.91"/>
</g>
<!-- Node23&#45;&gt;Node12 -->
<g id="edge60" class="edge">
<title>Node23&#45;&gt;Node12</title>
<path fill="none" stroke="midnightblue" d="M409.95,-299.77C413.95,-302.55 417.71,-305.64 421,-309.06 447.74,-336.88 437.08,-355.02 457,-388.06 469,-407.97 485.18,-428.71 497.86,-443.94"/>
<polygon fill="midnightblue" stroke="midnightblue" points="495.36,-446.41 504.49,-451.79 500.71,-441.9 495.36,-446.41"/>
</g>
<!-- Node23&#45;&gt;Node17 -->
<g id="edge59" class="edge">
<title>Node23&#45;&gt;Node17</title>
<path fill="none" stroke="midnightblue" d="M403.35,-299.59C409.32,-302.68 415.35,-305.9 421,-309.06 446.8,-323.51 475.51,-341.52 494.96,-354.02"/>
<polygon fill="midnightblue" stroke="midnightblue" points="493.15,-357.02 503.45,-359.51 496.95,-351.14 493.15,-357.02"/>
</g>
<!-- Node24&#45;&gt;Node5 -->
<g id="edge65" class="edge">
<title>Node24&#45;&gt;Node5</title>
<path fill="none" stroke="midnightblue" d="M412.02,-220.99C496.99,-227.01 668.52,-251.58 764,-351.06 846.19,-436.69 855.92,-590.08 856.4,-650.55"/>
<polygon fill="midnightblue" stroke="midnightblue" points="852.9,-650.72 856.39,-660.72 859.9,-650.73 852.9,-650.72"/>
</g>
<!-- Node24&#45;&gt;Node12 -->
<g id="edge64" class="edge">
<title>Node24&#45;&gt;Node12</title>
<path fill="none" stroke="midnightblue" d="M411.17,-239.62C414.82,-242.41 418.17,-245.55 421,-249.06 461.06,-298.74 428.93,-330.75 457,-388.06 467.16,-408.81 483.28,-429.37 496.4,-444.32"/>
<polygon fill="midnightblue" stroke="midnightblue" points="494.03,-446.91 503.32,-452.01 499.23,-442.23 494.03,-446.91"/>
</g>
<!-- Node24&#45;&gt;Node17 -->
<g id="edge63" class="edge">
<title>Node24&#45;&gt;Node17</title>
<path fill="none" stroke="midnightblue" d="M407.26,-239.57C412.09,-242.48 416.77,-245.65 421,-249.06 458.16,-279.05 490.59,-325.45 506.87,-350.87"/>
<polygon fill="midnightblue" stroke="midnightblue" points="504.01,-352.9 512.29,-359.51 509.94,-349.18 504.01,-352.9"/>
</g>
<!-- Node25&#45;&gt;Node12 -->
<g id="edge68" class="edge">
<title>Node25&#45;&gt;Node12</title>
<path fill="none" stroke="midnightblue" d="M406.3,-359.65C411.41,-362.57 416.42,-365.73 421,-369.06 451.25,-391.06 480.71,-422.72 499.08,-444.04"/>
<polygon fill="midnightblue" stroke="midnightblue" points="496.64,-446.58 505.78,-451.95 501.98,-442.06 496.64,-446.58"/>
</g>
<!-- Node25&#45;&gt;Node17 -->
<g id="edge67" class="edge">
<title>Node25&#45;&gt;Node17</title>
<path fill="none" stroke="midnightblue" d="M412.31,-348.8C426.89,-351.6 442.92,-354.67 457.99,-357.56"/>
<polygon fill="midnightblue" stroke="midnightblue" points="457.76,-361.08 468.24,-359.53 459.08,-354.21 457.76,-361.08"/>
</g>
<!-- Node27 -->
<g id="node27" class="node">
<title>Node27</title>
<g id="a_node27"><a xlink:href="namespacemergesort__module.html#a68c6cd380e0fbe122d41846adf3f6a5d" target="_top" xlink:title="Bubblesort of array.">
<polygon fill="white" stroke="black" points="617.5,-46.56 617.5,-65.56 763.5,-65.56 763.5,-46.56 617.5,-46.56"/>
<text text-anchor="middle" x="690.5" y="-53.56" font-family="Helvetica,sans-Serif" font-size="10.00">mergesort_module::bubblesort</text>
</a>
</g>
</g>
<!-- Node26&#45;&gt;Node27 -->
<g id="edge70" class="edge">
<title>Node26&#45;&gt;Node27</title>
<path fill="none" stroke="midnightblue" d="M570.86,-60.26C582.28,-59.86 594.69,-59.42 607.04,-58.98"/>
<polygon fill="midnightblue" stroke="midnightblue" points="607.5,-62.47 617.37,-58.62 607.26,-55.47 607.5,-62.47"/>
</g>
<!-- Node28 -->
<g id="node28" class="node">
<title>Node28</title>
<g id="a_node28"><a xlink:href="namespacemergesort__module.html#acbae2585fc0a5f2f3d14238cb54614d6" target="_top" xlink:title="Takes an array and an array with indices to reorder the first array.">
<polygon fill="white" stroke="black" points="617,-84.56 617,-103.56 764,-103.56 764,-84.56 617,-84.56"/>
<text text-anchor="middle" x="690.5" y="-91.56" font-family="Helvetica,sans-Serif" font-size="10.00">mergesort_module::reorder_int</text>
</a>
</g>
</g>
<!-- Node26&#45;&gt;Node28 -->
<g id="edge73" class="edge">
<title>Node26&#45;&gt;Node28</title>
<path fill="none" stroke="midnightblue" d="M570.86,-71.66C589.12,-75.11 609.91,-79.04 628.92,-82.63"/>
<polygon fill="midnightblue" stroke="midnightblue" points="628.5,-86.11 638.97,-84.52 629.8,-79.23 628.5,-86.11"/>
</g>
<!-- Node27&#45;&gt;Node5 -->
<g id="edge72" class="edge">
<title>Node27&#45;&gt;Node5</title>
<path fill="none" stroke="midnightblue" d="M752.14,-65.75C756.56,-68.23 760.6,-71.29 764,-75.06 842.21,-161.9 853.95,-548.16 855.7,-650.9"/>
<polygon fill="midnightblue" stroke="midnightblue" points="852.2,-651.02 855.85,-660.97 859.2,-650.92 852.2,-651.02"/>
</g>
<!-- Node27&#45;&gt;Node6 -->
<g id="edge71" class="edge">
<title>Node27&#45;&gt;Node6</title>
<path fill="none" stroke="midnightblue" d="M730.71,-46.54C780.31,-37.05 865.14,-29.79 914,-76.06 998.7,-156.28 1001.95,-547.46 1001.3,-650.92"/>
<polygon fill="midnightblue" stroke="midnightblue" points="997.79,-651.03 1001.21,-661.05 1004.79,-651.08 997.79,-651.03"/>
</g>
<!-- Node28&#45;&gt;Node5 -->
<g id="edge75" class="edge">
<title>Node28&#45;&gt;Node5</title>
<path fill="none" stroke="midnightblue" d="M700.74,-103.65C716.4,-120.47 748.01,-157.06 764,-194.06 834.89,-358.07 851.37,-576.87 855.02,-650.59"/>
<polygon fill="midnightblue" stroke="midnightblue" points="851.53,-650.95 855.48,-660.78 858.52,-650.63 851.53,-650.95"/>
</g>
<!-- Node28&#45;&gt;Node6 -->
<g id="edge74" class="edge">
<title>Node28&#45;&gt;Node6</title>
<path fill="none" stroke="midnightblue" d="M736.45,-84.51C786.67,-76.71 867.05,-73.28 914,-118.06 992.05,-192.51 1000.2,-551.16 1000.95,-650.51"/>
<polygon fill="midnightblue" stroke="midnightblue" points="997.45,-650.83 1001.01,-660.81 1004.45,-650.79 997.45,-650.83"/>
</g>
<!-- Node29&#45;&gt;Node6 -->
<g id="edge77" class="edge">
<title>Node29&#45;&gt;Node6</title>
<path fill="none" stroke="midnightblue" d="M208.44,-424.99C219.85,-395.85 245.31,-329.69 264,-273.06 281.85,-218.97 255.86,-186.07 300,-150.06 375.34,-88.61 420.78,-132.06 518,-132.06 518,-132.06 518,-132.06 691.5,-132.06 795.03,-132.06 845.29,-123.61 914,-201.06 974.29,-269.03 994.85,-562.36 999.74,-650.76"/>
<polygon fill="midnightblue" stroke="midnightblue" points="996.26,-651.14 1000.29,-660.94 1003.25,-650.77 996.26,-651.14"/>
</g>
<!-- Node30 -->
<g id="node30" class="node">
<title>Node30</title>
<g id="a_node30"><a xlink:href="namespaceerror__msg__class.html#a339dd5b38c125b6a04653762c94a91f2" target="_top" xlink:title="Write data to the standard output (usually OUT)">
<polygon fill="white" stroke="black" points="303.5,-597.06 303.5,-627.06 417.5,-627.06 417.5,-597.06 303.5,-597.06"/>
<text text-anchor="start" x="311.5" y="-615.06" font-family="Helvetica,sans-Serif" font-size="10.00">error_msg_class::write</text>
<text text-anchor="middle" x="360.5" y="-604.06" font-family="Helvetica,sans-Serif" font-size="10.00">_data_to_std_out</text>
</a>
</g>
</g>
<!-- Node29&#45;&gt;Node30 -->
<g id="edge78" class="edge">
<title>Node29&#45;&gt;Node30</title>
<path fill="none" stroke="midnightblue" d="M252.04,-455.13C256.38,-457.67 260.47,-460.63 264,-464.06 293.42,-492.66 277.56,-514.72 300,-549.06 309.72,-563.94 323.14,-578.5 334.77,-589.87"/>
<polygon fill="midnightblue" stroke="midnightblue" points="332.45,-592.49 342.1,-596.85 337.28,-587.42 332.45,-592.49"/>
</g>
<!-- Node31 -->
<g id="node31" class="node">
<title>Node31</title>
<g id="a_node31"><a xlink:href="namespaceerror__msg__class.html#af62b9a0c5997255e792b9ebd7322a6a3" target="_top" xlink:title="Write the header of the standard output (usually OUT)">
<polygon fill="white" stroke="black" points="462,-548.06 462,-578.06 576,-578.06 576,-548.06 462,-548.06"/>
<text text-anchor="start" x="470" y="-566.06" font-family="Helvetica,sans-Serif" font-size="10.00">error_msg_class::write</text>
<text text-anchor="middle" x="519" y="-555.06" font-family="Helvetica,sans-Serif" font-size="10.00">_header</text>
</a>
</g>
</g>
<!-- Node30&#45;&gt;Node31 -->
<g id="edge79" class="edge">
<title>Node30&#45;&gt;Node31</title>
<path fill="none" stroke="midnightblue" d="M392.05,-597.02C409.17,-590.6 431.22,-583.3 452.08,-577.03"/>
<polygon fill="midnightblue" stroke="midnightblue" points="453.28,-580.32 461.87,-574.13 451.29,-573.61 453.28,-580.32"/>
</g>
<!-- Node31&#45;&gt;Node30 -->
<g id="edge80" class="edge">
<title>Node31&#45;&gt;Node30</title>
<path fill="none" stroke="midnightblue" d="M487.32,-578.16C470.19,-584.57 448.16,-591.86 427.34,-598.12"/>
<polygon fill="midnightblue" stroke="midnightblue" points="426.16,-594.82 417.56,-601.01 428.14,-601.54 426.16,-594.82"/>
</g>
</g>
</svg>
