<?xml version="1.0" encoding="UTF-8" standalone="no"?>
<!DOCTYPE svg PUBLIC "-//W3C//DTD SVG 1.1//EN"
 "http://www.w3.org/Graphics/SVG/1.1/DTD/svg11.dtd">
<!-- Generated by graphviz version 2.44.0 ()
 -->
<!-- Title: readini::readini_init Pages: 1 -->
<!--zoomable 876 -->
<svg id="main" version="1.1" xmlns="http://www.w3.org/2000/svg" xmlns:xlink="http://www.w3.org/1999/xlink" xml:space="preserve" onload="init(evt)">
<style type="text/css"><![CDATA[
.edge:hover path { stroke: red; }
.edge:hover polygon { stroke: red; fill: red; }
]]></style>
<script type="text/javascript"><![CDATA[
var edges = document.getElementsByTagName('g');
if (edges && edges.length) {
  for (var i=0;i<edges.length;i++) {
    if (edges[i].id.substr(0,4)=='edge') {
      edges[i].setAttribute('class','edge');
    }
  }
}
]]></script>
        <defs>
                <circle id="rim" cx="0" cy="0" r="7"/>
                <circle id="rim2" cx="0" cy="0" r="3.5"/>
                <g id="zoomPlus">
                        <use xlink:href="#rim" fill="#404040">
                                <set attributeName="fill" to="#808080" begin="zoomplus.mouseover" end="zoomplus.mouseout"/>
                        </use>
                        <path d="M-4,0h8M0,-4v8" fill="none" stroke="white" stroke-width="1.5" pointer-events="none"/>
                </g>
                <g id="zoomMin">
                        <use xlink:href="#rim" fill="#404040">
                                <set attributeName="fill" to="#808080" begin="zoomminus.mouseover" end="zoomminus.mouseout"/>
                        </use>
                        <path d="M-4,0h8" fill="none" stroke="white" stroke-width="1.5" pointer-events="none"/>
                </g>
                <g id="dirArrow">
                        <path fill="none" stroke="white" stroke-width="1.5" d="M0,-3.0v7 M-2.5,-0.5L0,-3.0L2.5,-0.5"/>
                </g>
               <g id="resetDef">
                       <use xlink:href="#rim2" fill="#404040">
                               <set attributeName="fill" to="#808080" begin="reset.mouseover" end="reset.mouseout"/>
                       </use>
               </g>
        </defs>

<script type="text/javascript">
var viewWidth = 836;
var viewHeight = 876;
var sectionId = 'dynsection-10';
</script>
<script xlink:href="svgpan.js"/>
<svg id="graph" class="graph">
<g id="viewport">
<title>readini::readini_init</title>
<polygon fill="white" stroke="transparent" points="-4,4 -4,-872.46 832,-872.46 832,4 -4,4"/>
<!-- Node1 -->
<g id="node1" class="node">
<title>Node1</title>
<g id="a_node1"><a xlink:title="Initialize the readini module and open files.">
<polygon fill="#bfbfbf" stroke="black" points="0,-416.46 0,-435.46 96,-435.46 96,-416.46 0,-416.46"/>
<text text-anchor="middle" x="48" y="-423.46" font-family="Helvetica,sans-Serif" font-size="10.00">readini::readini_init</text>
</a>
</g>
</g>
<!-- Node2 -->
<g id="node2" class="node">
<title>Node2</title>
<g id="a_node2"><a xlink:href="namespacereadini.html#a178b1ed282a2b62ad03dea2ca288c285" target="_top" xlink:title="Make tests to ensure the trajectory is okay.">
<polygon fill="white" stroke="black" points="134.5,-755.96 134.5,-785.96 235.5,-785.96 235.5,-755.96 134.5,-755.96"/>
<text text-anchor="start" x="142.5" y="-773.96" font-family="Helvetica,sans-Serif" font-size="10.00">readini::consistency</text>
<text text-anchor="middle" x="185" y="-762.96" font-family="Helvetica,sans-Serif" font-size="10.00">_check</text>
</a>
</g>
</g>
<!-- Node1&#45;&gt;Node2 -->
<g id="edge1" class="edge">
<title>Node1&#45;&gt;Node2</title>
<path fill="none" stroke="midnightblue" d="M52.75,-435.54C70.57,-481.09 146.96,-676.29 174.25,-746.05"/>
<polygon fill="midnightblue" stroke="midnightblue" points="171.15,-747.73 178.06,-755.76 177.67,-745.18 171.15,-747.73"/>
</g>
<!-- Node6 -->
<g id="node6" class="node">
<title>Node6</title>
<g id="a_node6"><a xlink:href="namespacereadini.html#a186d2f5acef411b2a89d9fbfeaf4a0bf" target="_top" xlink:title="Reads the trajectory file.">
<polygon fill="white" stroke="black" points="132,-508.46 132,-527.46 238,-527.46 238,-508.46 132,-508.46"/>
<text text-anchor="middle" x="185" y="-515.46" font-family="Helvetica,sans-Serif" font-size="10.00">readini::custom_read</text>
</a>
</g>
</g>
<!-- Node1&#45;&gt;Node6 -->
<g id="edge5" class="edge">
<title>Node1&#45;&gt;Node6</title>
<path fill="none" stroke="midnightblue" d="M63.19,-435.63C86.65,-451.61 133.69,-483.67 161.65,-502.72"/>
<polygon fill="midnightblue" stroke="midnightblue" points="159.76,-505.68 170,-508.41 163.71,-499.89 159.76,-505.68"/>
</g>
<!-- Node17 -->
<g id="node17" class="node">
<title>Node17</title>
<g id="a_node17"><a xlink:href="namespacereadini.html#a301965675d97bfd3f865e9a4e4c5a37b" target="_top" xlink:title="Read in times for snapshots.">
<polygon fill="white" stroke="black" points="132,-322.96 132,-352.96 238,-352.96 238,-322.96 132,-322.96"/>
<text text-anchor="start" x="140" y="-340.96" font-family="Helvetica,sans-Serif" font-size="10.00">readini::read_custom</text>
<text text-anchor="middle" x="185" y="-329.96" font-family="Helvetica,sans-Serif" font-size="10.00">_snapshots</text>
</a>
</g>
</g>
<!-- Node1&#45;&gt;Node17 -->
<g id="edge29" class="edge">
<title>Node1&#45;&gt;Node17</title>
<path fill="none" stroke="midnightblue" d="M63.7,-416.37C84.79,-402.62 124.16,-376.96 152.11,-358.74"/>
<polygon fill="midnightblue" stroke="midnightblue" points="154.28,-361.5 160.75,-353.11 150.46,-355.64 154.28,-361.5"/>
</g>
<!-- Node18 -->
<g id="node18" class="node">
<title>Node18</title>
<g id="a_node18"><a xlink:href="namespacereadini.html#aab3cbd8d739c6ab3c83677fa2b4ced04" target="_top" xlink:title="Reads in nuclei that will be tracked and where the abundance will be stored in a separate file.">
<polygon fill="white" stroke="black" points="137.5,-140.96 137.5,-170.96 232.5,-170.96 232.5,-140.96 137.5,-140.96"/>
<text text-anchor="start" x="145.5" y="-158.96" font-family="Helvetica,sans-Serif" font-size="10.00">readini::read_track</text>
<text text-anchor="middle" x="185" y="-147.96" font-family="Helvetica,sans-Serif" font-size="10.00">_nuclei</text>
</a>
</g>
</g>
<!-- Node1&#45;&gt;Node18 -->
<g id="edge33" class="edge">
<title>Node1&#45;&gt;Node18</title>
<path fill="none" stroke="midnightblue" d="M53.8,-416.35C72.85,-378.25 143.41,-237.14 171.92,-180.11"/>
<polygon fill="midnightblue" stroke="midnightblue" points="175.09,-181.6 176.43,-171.09 168.83,-178.47 175.09,-181.6"/>
</g>
<!-- Node3 -->
<g id="node3" class="node">
<title>Node3</title>
<g id="a_node3"><a xlink:href="namespaceerror__msg__class.html#a5bc9f3b670b725cc43276934b867d801" target="_top" xlink:title="Converts a given real to a string with format &quot;(1pE10.2)&quot;.">
<polygon fill="white" stroke="black" points="275,-837.96 275,-867.96 387,-867.96 387,-837.96 275,-837.96"/>
<text text-anchor="start" x="283" y="-855.96" font-family="Helvetica,sans-Serif" font-size="10.00">error_msg_class::num</text>
<text text-anchor="middle" x="331" y="-844.96" font-family="Helvetica,sans-Serif" font-size="10.00">_to_str</text>
</a>
</g>
</g>
<!-- Node2&#45;&gt;Node3 -->
<g id="edge2" class="edge">
<title>Node2&#45;&gt;Node3</title>
<path fill="none" stroke="midnightblue" d="M210.87,-786.03C228.41,-796.57 252.51,-810.86 274,-822.96 279.94,-826.3 286.28,-829.78 292.47,-833.13"/>
<polygon fill="midnightblue" stroke="midnightblue" points="290.92,-836.27 301.39,-837.92 294.24,-830.11 290.92,-836.27"/>
</g>
<!-- Node4 -->
<g id="node4" class="node">
<title>Node4</title>
<g id="a_node4"><a xlink:href="namespaceerror__msg__class.html#a2453d3b7cb363115c046840baa1dfb75" target="_top" xlink:title="Raise a exception with a given error message.">
<polygon fill="white" stroke="black" points="574,-410.96 574,-440.96 688,-440.96 688,-410.96 574,-410.96"/>
<text text-anchor="start" x="582" y="-428.96" font-family="Helvetica,sans-Serif" font-size="10.00">error_msg_class::raise</text>
<text text-anchor="middle" x="631" y="-417.96" font-family="Helvetica,sans-Serif" font-size="10.00">_exception</text>
</a>
</g>
</g>
<!-- Node2&#45;&gt;Node4 -->
<g id="edge3" class="edge">
<title>Node2&#45;&gt;Node4</title>
<path fill="none" stroke="midnightblue" d="M235.75,-784.45C310.23,-801.41 451.21,-820.55 538,-750.96 585.77,-712.65 616.82,-520.58 626.65,-451.09"/>
<polygon fill="midnightblue" stroke="midnightblue" points="630.13,-451.42 628.04,-441.04 623.2,-450.46 630.13,-451.42"/>
</g>
<!-- Node5 -->
<g id="node5" class="node">
<title>Node5</title>
<g id="a_node5"><a xlink:href="namespaceerror__msg__class.html#a7e065585cc806a5c264de1f088266498" target="_top" xlink:title="Converts a given integer to a string.">
<polygon fill="white" stroke="black" points="724,-265.96 724,-295.96 828,-295.96 828,-265.96 724,-265.96"/>
<text text-anchor="start" x="732" y="-283.96" font-family="Helvetica,sans-Serif" font-size="10.00">error_msg_class::int</text>
<text text-anchor="middle" x="776" y="-272.96" font-family="Helvetica,sans-Serif" font-size="10.00">_to_str</text>
</a>
</g>
</g>
<!-- Node4&#45;&gt;Node5 -->
<g id="edge4" class="edge">
<title>Node4&#45;&gt;Node5</title>
<path fill="none" stroke="midnightblue" d="M647.03,-410.71C672.31,-385.08 723.44,-333.24 752.84,-303.43"/>
<polygon fill="midnightblue" stroke="midnightblue" points="755.64,-305.57 760.17,-296 750.65,-300.66 755.64,-305.57"/>
</g>
<!-- Node6&#45;&gt;Node4 -->
<g id="edge24" class="edge">
<title>Node6&#45;&gt;Node4</title>
<path fill="none" stroke="midnightblue" d="M197.91,-527.49C244.79,-563.81 419.77,-687.73 538,-613.96 595.85,-577.86 618.33,-493.66 626.2,-451.28"/>
<polygon fill="midnightblue" stroke="midnightblue" points="629.68,-451.67 627.94,-441.22 622.79,-450.48 629.68,-451.67"/>
</g>
<!-- Node6&#45;&gt;Node5 -->
<g id="edge13" class="edge">
<title>Node6&#45;&gt;Node5</title>
<path fill="none" stroke="midnightblue" d="M187.28,-527.54C192.09,-559.52 212.05,-663.5 274,-714.96 365.09,-790.62 437.16,-813.04 538,-750.96 704.82,-648.25 758.44,-387.97 771.47,-306.05"/>
<polygon fill="midnightblue" stroke="midnightblue" points="774.94,-306.54 772.99,-296.12 768.02,-305.48 774.94,-306.54"/>
</g>
<!-- Node7 -->
<g id="node7" class="node">
<title>Node7</title>
<g id="a_node7"><a xlink:href="namespacefile__handling__class.html#a01ba26324d7662cc0fb2e0eb306cd3e2" target="_top" xlink:title="Close an external file.">
<polygon fill="white" stroke="black" points="282,-175.96 282,-205.96 380,-205.96 380,-175.96 282,-175.96"/>
<text text-anchor="start" x="290" y="-193.96" font-family="Helvetica,sans-Serif" font-size="10.00">file_handling_class</text>
<text text-anchor="middle" x="331" y="-182.96" font-family="Helvetica,sans-Serif" font-size="10.00">::close_io_file</text>
</a>
</g>
</g>
<!-- Node6&#45;&gt;Node7 -->
<g id="edge6" class="edge">
<title>Node6&#45;&gt;Node7</title>
<path fill="none" stroke="midnightblue" d="M189.57,-508.19C198.42,-483.75 221.85,-417.91 238,-361.96 256.65,-297.33 230.51,-266.27 274,-214.96 274.72,-214.11 275.47,-213.29 276.26,-212.5"/>
<polygon fill="midnightblue" stroke="midnightblue" points="278.53,-215.17 284.05,-206.13 274.09,-209.75 278.53,-215.17"/>
</g>
<!-- Node8 -->
<g id="node8" class="node">
<title>Node8</title>
<g id="a_node8"><a xlink:href="namespacereadini.html#aa70dcb64b33b1effcebfdff61a477cb6" target="_top" xlink:title="Function to convert from a given density unit to g/ccm.">
<polygon fill="white" stroke="black" points="435,-574.96 435,-604.96 527,-604.96 527,-574.96 435,-574.96"/>
<text text-anchor="start" x="443" y="-592.96" font-family="Helvetica,sans-Serif" font-size="10.00">readini::dens_unit</text>
<text text-anchor="middle" x="481" y="-581.96" font-family="Helvetica,sans-Serif" font-size="10.00">_conversion</text>
</a>
</g>
</g>
<!-- Node6&#45;&gt;Node8 -->
<g id="edge9" class="edge">
<title>Node6&#45;&gt;Node8</title>
<path fill="none" stroke="midnightblue" d="M216.4,-527.49C233.29,-532.65 254.72,-538.96 274,-543.96 324.8,-557.12 383.22,-569.95 424.84,-578.7"/>
<polygon fill="midnightblue" stroke="midnightblue" points="424.28,-582.16 434.78,-580.78 425.71,-575.3 424.28,-582.16"/>
</g>
<!-- Node9 -->
<g id="node9" class="node">
<title>Node9</title>
<g id="a_node9"><a xlink:href="namespacereadini.html#a5a391d1e0a44bcc5834c46dfacbaaad6" target="_top" xlink:title="Function to convert from a given distance unit to km.">
<polygon fill="white" stroke="black" points="438,-525.96 438,-555.96 524,-555.96 524,-525.96 438,-525.96"/>
<text text-anchor="start" x="446" y="-543.96" font-family="Helvetica,sans-Serif" font-size="10.00">readini::dist_unit</text>
<text text-anchor="middle" x="481" y="-532.96" font-family="Helvetica,sans-Serif" font-size="10.00">_conversion</text>
</a>
</g>
</g>
<!-- Node6&#45;&gt;Node9 -->
<g id="edge11" class="edge">
<title>Node6&#45;&gt;Node9</title>
<path fill="none" stroke="midnightblue" d="M238.22,-522.04C291.59,-526.22 374.02,-532.67 427.49,-536.85"/>
<polygon fill="midnightblue" stroke="midnightblue" points="427.54,-540.36 437.78,-537.65 428.09,-533.38 427.54,-540.36"/>
</g>
<!-- Node10 -->
<g id="node10" class="node">
<title>Node10</title>
<g id="a_node10"><a xlink:href="namespacereadini.html#a9f2a1f49dc92cf959c6a9443b4f12111" target="_top" xlink:title="Function to convert from a given neutrino energy unit to neutrino temperatures in MeV.">
<polygon fill="white" stroke="black" points="426,-476.96 426,-506.96 536,-506.96 536,-476.96 426,-476.96"/>
<text text-anchor="start" x="434" y="-494.96" font-family="Helvetica,sans-Serif" font-size="10.00">readini::nuenergy_unit</text>
<text text-anchor="middle" x="481" y="-483.96" font-family="Helvetica,sans-Serif" font-size="10.00">_conversion</text>
</a>
</g>
</g>
<!-- Node6&#45;&gt;Node10 -->
<g id="edge14" class="edge">
<title>Node6&#45;&gt;Node10</title>
<path fill="none" stroke="midnightblue" d="M238.22,-513.34C287.83,-508.95 362.53,-502.34 415.76,-497.64"/>
<polygon fill="midnightblue" stroke="midnightblue" points="416.12,-501.12 425.78,-496.75 415.51,-494.15 416.12,-501.12"/>
</g>
<!-- Node11 -->
<g id="node11" class="node">
<title>Node11</title>
<g id="a_node11"><a xlink:href="namespacereadini.html#a296e65cce958b5e8acf268bcaeb52c6c" target="_top" xlink:title="Function to convert from a given neutrino luminosity unit to erg/s.">
<polygon fill="white" stroke="black" points="279,-433.96 279,-463.96 383,-463.96 383,-433.96 279,-433.96"/>
<text text-anchor="start" x="287" y="-451.96" font-family="Helvetica,sans-Serif" font-size="10.00">readini::nulumin_unit</text>
<text text-anchor="middle" x="331" y="-440.96" font-family="Helvetica,sans-Serif" font-size="10.00">_conversion</text>
</a>
</g>
</g>
<!-- Node6&#45;&gt;Node11 -->
<g id="edge16" class="edge">
<title>Node6&#45;&gt;Node11</title>
<path fill="none" stroke="midnightblue" d="M206.02,-508.36C227.45,-498.09 262.04,-481.52 289.24,-468.49"/>
<polygon fill="midnightblue" stroke="midnightblue" points="291.02,-471.52 298.52,-464.04 287.99,-465.21 291.02,-471.52"/>
</g>
<!-- Node12 -->
<g id="node12" class="node">
<title>Node12</title>
<g id="a_node12"><a xlink:href="namespacereadini.html#ab76df5cb8fe1d355cc07b92510a58609" target="_top" xlink:title="Function to convert from a given neutrino temperature unit to MeV.">
<polygon fill="white" stroke="black" points="429.5,-388.96 429.5,-418.96 532.5,-418.96 532.5,-388.96 429.5,-388.96"/>
<text text-anchor="start" x="437.5" y="-406.96" font-family="Helvetica,sans-Serif" font-size="10.00">readini::nutemp_unit</text>
<text text-anchor="middle" x="481" y="-395.96" font-family="Helvetica,sans-Serif" font-size="10.00">_conversion</text>
</a>
</g>
</g>
<!-- Node6&#45;&gt;Node12 -->
<g id="edge18" class="edge">
<title>Node6&#45;&gt;Node12</title>
<path fill="none" stroke="midnightblue" d="M191.57,-508.38C203.68,-488.59 234.49,-443.41 274,-423.96 319.12,-401.74 376.48,-397.84 419.2,-398.87"/>
<polygon fill="midnightblue" stroke="midnightblue" points="419.35,-402.37 429.46,-399.21 419.58,-395.38 419.35,-402.37"/>
</g>
<!-- Node13 -->
<g id="node13" class="node">
<title>Node13</title>
<g id="a_node13"><a xlink:href="namespacefile__handling__class.html#aab870caaf9cbaaf635d537708efbf793" target="_top" xlink:title="Same for reading (input file)">
<polygon fill="white" stroke="black" points="282,-300.96 282,-330.96 380,-330.96 380,-300.96 282,-300.96"/>
<text text-anchor="start" x="290" y="-318.96" font-family="Helvetica,sans-Serif" font-size="10.00">file_handling_class</text>
<text text-anchor="middle" x="331" y="-307.96" font-family="Helvetica,sans-Serif" font-size="10.00">::open_infile</text>
</a>
</g>
</g>
<!-- Node6&#45;&gt;Node13 -->
<g id="edge20" class="edge">
<title>Node6&#45;&gt;Node13</title>
<path fill="none" stroke="midnightblue" d="M192.48,-508.22C206.84,-486.68 242.6,-433.48 274,-389.96 286.45,-372.7 300.96,-353.55 312.09,-339.06"/>
<polygon fill="midnightblue" stroke="midnightblue" points="314.88,-341.17 318.21,-331.11 309.34,-336.9 314.88,-341.17"/>
</g>
<!-- Node15 -->
<g id="node15" class="node">
<title>Node15</title>
<g id="a_node15"><a xlink:href="namespacereadini.html#ae01875ac008f2d4d8e4af0e2b2c67a13" target="_top" xlink:title="Function to convert from a given temperature unit to GK.">
<polygon fill="white" stroke="black" points="435,-711.96 435,-741.96 527,-741.96 527,-711.96 435,-711.96"/>
<text text-anchor="start" x="443" y="-729.96" font-family="Helvetica,sans-Serif" font-size="10.00">readini::temp_unit</text>
<text text-anchor="middle" x="481" y="-718.96" font-family="Helvetica,sans-Serif" font-size="10.00">_conversion</text>
</a>
</g>
</g>
<!-- Node6&#45;&gt;Node15 -->
<g id="edge25" class="edge">
<title>Node6&#45;&gt;Node15</title>
<path fill="none" stroke="midnightblue" d="M188.34,-527.76C195.64,-556.07 220.74,-638.49 274,-678.96 317.54,-712.04 380.12,-722.87 424.86,-726.15"/>
<polygon fill="midnightblue" stroke="midnightblue" points="424.78,-729.65 434.98,-726.79 425.22,-722.67 424.78,-729.65"/>
</g>
<!-- Node16 -->
<g id="node16" class="node">
<title>Node16</title>
<g id="a_node16"><a xlink:href="namespacereadini.html#a5d1d1d270d692b2d720cde6b4a91ee07" target="_top" xlink:title="Function to convert from a given time unit to seconds.">
<polygon fill="white" stroke="black" points="436.5,-662.96 436.5,-692.96 525.5,-692.96 525.5,-662.96 436.5,-662.96"/>
<text text-anchor="start" x="444.5" y="-680.96" font-family="Helvetica,sans-Serif" font-size="10.00">readini::time_unit</text>
<text text-anchor="middle" x="481" y="-669.96" font-family="Helvetica,sans-Serif" font-size="10.00">_conversion</text>
</a>
</g>
</g>
<!-- Node6&#45;&gt;Node16 -->
<g id="edge27" class="edge">
<title>Node6&#45;&gt;Node16</title>
<path fill="none" stroke="midnightblue" d="M189.32,-527.48C198.44,-552.13 226.44,-618.13 274,-647.96 319.64,-676.58 381.96,-682.04 426.07,-681.61"/>
<polygon fill="midnightblue" stroke="midnightblue" points="426.39,-685.1 436.31,-681.4 426.25,-678.11 426.39,-685.1"/>
</g>
<!-- Node7&#45;&gt;Node4 -->
<g id="edge8" class="edge">
<title>Node7&#45;&gt;Node4</title>
<path fill="none" stroke="midnightblue" d="M380.3,-186.19C425.53,-184.33 492.75,-188.58 538,-222.96 596.23,-267.19 618.62,-356.75 626.36,-400.6"/>
<polygon fill="midnightblue" stroke="midnightblue" points="622.94,-401.41 628.02,-410.71 629.85,-400.27 622.94,-401.41"/>
</g>
<!-- Node7&#45;&gt;Node5 -->
<g id="edge7" class="edge">
<title>Node7&#45;&gt;Node5</title>
<path fill="none" stroke="midnightblue" d="M380.36,-183.18C422.43,-177.87 484.81,-173.49 538,-183.96 612.89,-198.69 693.92,-237.28 739.17,-261.11"/>
<polygon fill="midnightblue" stroke="midnightblue" points="737.53,-264.2 748,-265.81 740.82,-258.02 737.53,-264.2"/>
</g>
<!-- Node8&#45;&gt;Node4 -->
<g id="edge10" class="edge">
<title>Node8&#45;&gt;Node4</title>
<path fill="none" stroke="midnightblue" d="M523.09,-574.92C528.4,-572.06 533.53,-568.74 538,-564.96 576.05,-532.71 604.57,-480.88 619.14,-450.45"/>
<polygon fill="midnightblue" stroke="midnightblue" points="622.32,-451.92 623.37,-441.38 615.97,-448.96 622.32,-451.92"/>
</g>
<!-- Node9&#45;&gt;Node4 -->
<g id="edge12" class="edge">
<title>Node9&#45;&gt;Node4</title>
<path fill="none" stroke="midnightblue" d="M520.63,-525.9C526.64,-522.94 532.63,-519.61 538,-515.96 566.26,-496.74 593.59,-468.37 611.01,-448.63"/>
<polygon fill="midnightblue" stroke="midnightblue" points="613.71,-450.86 617.63,-441.01 608.43,-446.27 613.71,-450.86"/>
</g>
<!-- Node10&#45;&gt;Node4 -->
<g id="edge15" class="edge">
<title>Node10&#45;&gt;Node4</title>
<path fill="none" stroke="midnightblue" d="M515.95,-476.82C537.01,-467.42 564.26,-455.27 586.84,-445.2"/>
<polygon fill="midnightblue" stroke="midnightblue" points="588.5,-448.3 596.2,-441.03 585.65,-441.9 588.5,-448.3"/>
</g>
<!-- Node11&#45;&gt;Node4 -->
<g id="edge17" class="edge">
<title>Node11&#45;&gt;Node4</title>
<path fill="none" stroke="midnightblue" d="M383.23,-445C433.1,-441.15 509.13,-435.29 563.62,-431.08"/>
<polygon fill="midnightblue" stroke="midnightblue" points="564.17,-434.55 573.87,-430.29 563.63,-427.57 564.17,-434.55"/>
</g>
<!-- Node12&#45;&gt;Node4 -->
<g id="edge19" class="edge">
<title>Node12&#45;&gt;Node4</title>
<path fill="none" stroke="midnightblue" d="M532.52,-411.47C542.61,-412.97 553.35,-414.56 563.87,-416.13"/>
<polygon fill="midnightblue" stroke="midnightblue" points="563.46,-419.6 573.87,-417.61 564.49,-412.68 563.46,-419.6"/>
</g>
<!-- Node13&#45;&gt;Node4 -->
<g id="edge23" class="edge">
<title>Node13&#45;&gt;Node4</title>
<path fill="none" stroke="midnightblue" d="M380.38,-315.41C423.56,-316.64 487.58,-322.82 538,-345.96 566.95,-359.24 593.66,-384.56 610.76,-403.16"/>
<polygon fill="midnightblue" stroke="midnightblue" points="608.2,-405.55 617.47,-410.67 613.41,-400.89 608.2,-405.55"/>
</g>
<!-- Node14 -->
<g id="node14" class="node">
<title>Node14</title>
<g id="a_node14"><a xlink:href="namespacefile__handling__class.html#af02196bd5eaf70ecd5ab4cc650094d5e" target="_top" xlink:title="Finds the next unused unit number.">
<polygon fill="white" stroke="black" points="432,-262.96 432,-292.96 530,-292.96 530,-262.96 432,-262.96"/>
<text text-anchor="start" x="440" y="-280.96" font-family="Helvetica,sans-Serif" font-size="10.00">file_handling_class</text>
<text text-anchor="middle" x="481" y="-269.96" font-family="Helvetica,sans-Serif" font-size="10.00">::get_next_io_unit</text>
</a>
</g>
</g>
<!-- Node13&#45;&gt;Node14 -->
<g id="edge21" class="edge">
<title>Node13&#45;&gt;Node14</title>
<path fill="none" stroke="midnightblue" d="M380.05,-303.62C393.43,-300.18 408.11,-296.42 421.99,-292.85"/>
<polygon fill="midnightblue" stroke="midnightblue" points="423.12,-296.17 431.94,-290.3 421.38,-289.39 423.12,-296.17"/>
</g>
<!-- Node14&#45;&gt;Node4 -->
<g id="edge22" class="edge">
<title>Node14&#45;&gt;Node4</title>
<path fill="none" stroke="midnightblue" d="M515.74,-293.1C523.45,-297.34 531.34,-302.34 538,-307.96 570.73,-335.54 599.44,-376.49 615.75,-402.19"/>
<polygon fill="midnightblue" stroke="midnightblue" points="612.92,-404.27 621.18,-410.91 618.86,-400.57 612.92,-404.27"/>
</g>
<!-- Node15&#45;&gt;Node4 -->
<g id="edge26" class="edge">
<title>Node15&#45;&gt;Node4</title>
<path fill="none" stroke="midnightblue" d="M525.76,-711.94C530.28,-709.12 534.5,-705.82 538,-701.96 604.82,-628.24 623.28,-504.55 628.24,-451.44"/>
<polygon fill="midnightblue" stroke="midnightblue" points="631.75,-451.48 629.11,-441.22 624.77,-450.89 631.75,-451.48"/>
</g>
<!-- Node16&#45;&gt;Node4 -->
<g id="edge28" class="edge">
<title>Node16&#45;&gt;Node4</title>
<path fill="none" stroke="midnightblue" d="M518.94,-662.86C525.91,-658.79 532.67,-653.84 538,-647.96 591.17,-589.25 616.07,-495.53 625.4,-451.01"/>
<polygon fill="midnightblue" stroke="midnightblue" points="628.86,-451.54 627.39,-441.05 622,-450.16 628.86,-451.54"/>
</g>
<!-- Node17&#45;&gt;Node4 -->
<g id="edge32" class="edge">
<title>Node17&#45;&gt;Node4</title>
<path fill="none" stroke="midnightblue" d="M238.28,-341.76C322.23,-348.24 483.24,-362.37 538,-378.96 558.71,-385.23 580.34,-396.03 597.41,-405.7"/>
<polygon fill="midnightblue" stroke="midnightblue" points="595.99,-408.92 606.4,-410.91 599.51,-402.87 595.99,-408.92"/>
</g>
<!-- Node17&#45;&gt;Node7 -->
<g id="edge30" class="edge">
<title>Node17&#45;&gt;Node7</title>
<path fill="none" stroke="midnightblue" d="M193.39,-322.67C206.42,-297.18 235.74,-245.73 274,-214.96 275.58,-213.69 277.23,-212.48 278.94,-211.32"/>
<polygon fill="midnightblue" stroke="midnightblue" points="281.09,-214.11 287.87,-205.97 277.49,-208.11 281.09,-214.11"/>
</g>
<!-- Node17&#45;&gt;Node13 -->
<g id="edge31" class="edge">
<title>Node17&#45;&gt;Node13</title>
<path fill="none" stroke="midnightblue" d="M238.39,-329.95C249.23,-328.3 260.71,-326.54 271.74,-324.86"/>
<polygon fill="midnightblue" stroke="midnightblue" points="272.36,-328.3 281.71,-323.33 271.3,-321.38 272.36,-328.3"/>
</g>
<!-- Node18&#45;&gt;Node4 -->
<g id="edge41" class="edge">
<title>Node18&#45;&gt;Node4</title>
<path fill="none" stroke="midnightblue" d="M232.78,-144.87C306.17,-130.42 449.13,-114.49 538,-183.96 607.28,-238.11 624.4,-350.83 628.62,-400.98"/>
<polygon fill="midnightblue" stroke="midnightblue" points="625.13,-401.24 629.36,-410.95 632.11,-400.72 625.13,-401.24"/>
</g>
<!-- Node18&#45;&gt;Node5 -->
<g id="edge36" class="edge">
<title>Node18&#45;&gt;Node5</title>
<path fill="none" stroke="midnightblue" d="M190.02,-140.67C199.04,-109.85 224.12,-40.83 274,-12.96 318.23,11.76 337.72,-6.69 388,-12.96 456.24,-21.47 477.57,-18.12 538,-50.96 617.86,-94.35 623.23,-126.19 688,-189.96 711.17,-212.77 736.79,-239.79 754.18,-258.43"/>
<polygon fill="midnightblue" stroke="midnightblue" points="751.73,-260.94 761.11,-265.87 756.86,-256.17 751.73,-260.94"/>
</g>
<!-- Node18&#45;&gt;Node7 -->
<g id="edge35" class="edge">
<title>Node18&#45;&gt;Node7</title>
<path fill="none" stroke="midnightblue" d="M232.75,-167.32C245.19,-170.34 258.77,-173.64 271.74,-176.8"/>
<polygon fill="midnightblue" stroke="midnightblue" points="270.96,-180.21 281.5,-179.17 272.61,-173.41 270.96,-180.21"/>
</g>
<!-- Node18&#45;&gt;Node13 -->
<g id="edge37" class="edge">
<title>Node18&#45;&gt;Node13</title>
<path fill="none" stroke="midnightblue" d="M197.33,-171.18C213.51,-192.6 244.56,-232.55 274,-263.96 283.67,-274.27 294.98,-285 304.9,-294.02"/>
<polygon fill="midnightblue" stroke="midnightblue" points="302.73,-296.77 312.5,-300.85 307.4,-291.56 302.73,-296.77"/>
</g>
<!-- Node19 -->
<g id="node19" class="node">
<title>Node19</title>
<g id="a_node19"><a xlink:href="namespacebenam__class.html#ad20c821347dd5f7c08dff59c98e69657" target="_top" xlink:title="Returns the index number of isotope &#39;name&#39;.">
<polygon fill="white" stroke="black" points="277,-22.46 277,-41.46 385,-41.46 385,-22.46 277,-22.46"/>
<text text-anchor="middle" x="331" y="-29.46" font-family="Helvetica,sans-Serif" font-size="10.00">benam_class::benam</text>
</a>
</g>
</g>
<!-- Node18&#45;&gt;Node19 -->
<g id="edge34" class="edge">
<title>Node18&#45;&gt;Node19</title>
<path fill="none" stroke="midnightblue" d="M194.85,-140.84C208.87,-118.16 238.28,-75.41 274,-50.96 276.88,-48.98 279.99,-47.2 283.21,-45.59"/>
<polygon fill="midnightblue" stroke="midnightblue" points="284.75,-48.73 292.49,-41.5 281.93,-42.33 284.75,-48.73"/>
</g>
<!-- Node20 -->
<g id="node20" class="node">
<title>Node20</title>
<g id="a_node20"><a xlink:href="namespacefile__handling__class.html#aeddf55e8478d6220dc04310665427c3a" target="_top" xlink:title="Shorthand for opening a new file for writing (output file)">
<polygon fill="white" stroke="black" points="282,-224.96 282,-254.96 380,-254.96 380,-224.96 282,-224.96"/>
<text text-anchor="start" x="290" y="-242.96" font-family="Helvetica,sans-Serif" font-size="10.00">file_handling_class</text>
<text text-anchor="middle" x="331" y="-231.96" font-family="Helvetica,sans-Serif" font-size="10.00">::open_outfile</text>
</a>
</g>
</g>
<!-- Node18&#45;&gt;Node20 -->
<g id="edge38" class="edge">
<title>Node18&#45;&gt;Node20</title>
<path fill="none" stroke="midnightblue" d="M206.35,-171.06C223.79,-183.64 249.86,-201.6 274,-214.96 277.41,-216.85 281,-218.7 284.63,-220.51"/>
<polygon fill="midnightblue" stroke="midnightblue" points="283.18,-223.69 293.71,-224.84 286.19,-217.37 283.18,-223.69"/>
</g>
<!-- Node21 -->
<g id="node21" class="node">
<title>Node21</title>
<g id="a_node21"><a xlink:href="namespaceerror__msg__class.html#a339dd5b38c125b6a04653762c94a91f2" target="_top" xlink:title="Write data to the standard output (usually OUT)">
<polygon fill="white" stroke="black" points="274,-60.96 274,-90.96 388,-90.96 388,-60.96 274,-60.96"/>
<text text-anchor="start" x="282" y="-78.96" font-family="Helvetica,sans-Serif" font-size="10.00">error_msg_class::write</text>
<text text-anchor="middle" x="331" y="-67.96" font-family="Helvetica,sans-Serif" font-size="10.00">_data_to_std_out</text>
</a>
</g>
</g>
<!-- Node18&#45;&gt;Node21 -->
<g id="edge42" class="edge">
<title>Node18&#45;&gt;Node21</title>
<path fill="none" stroke="midnightblue" d="M212.09,-140.91C229.55,-130.89 253.08,-117.5 274,-105.96 279.97,-102.66 286.32,-99.21 292.52,-95.87"/>
<polygon fill="midnightblue" stroke="midnightblue" points="294.28,-98.9 301.44,-91.08 290.97,-92.73 294.28,-98.9"/>
</g>
<!-- Node20&#45;&gt;Node4 -->
<g id="edge40" class="edge">
<title>Node20&#45;&gt;Node4</title>
<path fill="none" stroke="midnightblue" d="M380.23,-230.49C424.8,-224.47 491.01,-222.67 538,-252.96 590.78,-286.97 615.27,-361.87 624.84,-401.02"/>
<polygon fill="midnightblue" stroke="midnightblue" points="621.44,-401.87 627.1,-410.82 628.26,-400.29 621.44,-401.87"/>
</g>
<!-- Node20&#45;&gt;Node14 -->
<g id="edge39" class="edge">
<title>Node20&#45;&gt;Node14</title>
<path fill="none" stroke="midnightblue" d="M380.05,-252.29C393.43,-255.73 408.11,-259.5 421.99,-263.06"/>
<polygon fill="midnightblue" stroke="midnightblue" points="421.38,-266.52 431.94,-265.62 423.12,-259.74 421.38,-266.52"/>
</g>
<!-- Node22 -->
<g id="node22" class="node">
<title>Node22</title>
<g id="a_node22"><a xlink:href="namespaceerror__msg__class.html#af62b9a0c5997255e792b9ebd7322a6a3" target="_top" xlink:title="Write the header of the standard output (usually OUT)">
<polygon fill="white" stroke="black" points="424,-60.96 424,-90.96 538,-90.96 538,-60.96 424,-60.96"/>
<text text-anchor="start" x="432" y="-78.96" font-family="Helvetica,sans-Serif" font-size="10.00">error_msg_class::write</text>
<text text-anchor="middle" x="481" y="-67.96" font-family="Helvetica,sans-Serif" font-size="10.00">_header</text>
</a>
</g>
</g>
<!-- Node21&#45;&gt;Node22 -->
<g id="edge43" class="edge">
<title>Node21&#45;&gt;Node22</title>
<path fill="none" stroke="midnightblue" d="M388.37,-69.38C396.62,-69.22 405.18,-69.17 413.6,-69.24"/>
<polygon fill="midnightblue" stroke="midnightblue" points="413.73,-72.74 423.78,-69.38 413.83,-65.74 413.73,-72.74"/>
</g>
<!-- Node22&#45;&gt;Node21 -->
<g id="edge44" class="edge">
<title>Node22&#45;&gt;Node21</title>
<path fill="none" stroke="midnightblue" d="M423.78,-82.53C415.54,-82.7 406.98,-82.75 398.56,-82.68"/>
<polygon fill="midnightblue" stroke="midnightblue" points="398.42,-79.17 388.37,-82.53 398.32,-86.17 398.42,-79.17"/>
</g>
</g>
</svg>
        <g id="navigator" transform="translate(0 0)" fill="#404254">
                <rect fill="#f2f5e9" fill-opacity="0.5" stroke="#606060" stroke-width=".5" x="0" y="0" width="60" height="60"/>
                <use id="zoomplus" xlink:href="#zoomPlus" x="17" y="9" onmousedown="handleZoom(evt,'in')"/>
                <use id="zoomminus" xlink:href="#zoomMin" x="42" y="9" onmousedown="handleZoom(evt,'out')"/>
                <use id="reset" xlink:href="#resetDef" x="30" y="36" onmousedown="handleReset()"/>
                <g id="arrowUp" xlink:href="#dirArrow" transform="translate(30 24)" onmousedown="handlePan(0,-1)">
                  <use xlink:href="#rim" fill="#404040">
                        <set attributeName="fill" to="#808080" begin="arrowUp.mouseover" end="arrowUp.mouseout"/>
                  </use>
                  <path fill="none" stroke="white" stroke-width="1.5" d="M0,-3.0v7 M-2.5,-0.5L0,-3.0L2.5,-0.5"/>
                </g>
                <g id="arrowRight" xlink:href="#dirArrow" transform="rotate(90) translate(36 -43)" onmousedown="handlePan(1,0)">
                  <use xlink:href="#rim" fill="#404040">
                        <set attributeName="fill" to="#808080" begin="arrowRight.mouseover" end="arrowRight.mouseout"/>
                  </use>
                  <path fill="none" stroke="white" stroke-width="1.5" d="M0,-3.0v7 M-2.5,-0.5L0,-3.0L2.5,-0.5"/>
                </g>
                <g id="arrowDown" xlink:href="#dirArrow" transform="rotate(180) translate(-30 -48)" onmousedown="handlePan(0,1)">
                  <use xlink:href="#rim" fill="#404040">
                        <set attributeName="fill" to="#808080" begin="arrowDown.mouseover" end="arrowDown.mouseout"/>
                  </use>
                  <path fill="none" stroke="white" stroke-width="1.5" d="M0,-3.0v7 M-2.5,-0.5L0,-3.0L2.5,-0.5"/>
                </g>
                <g id="arrowLeft" xlink:href="#dirArrow" transform="rotate(270) translate(-36 17)" onmousedown="handlePan(-1,0)">
                  <use xlink:href="#rim" fill="#404040">
                        <set attributeName="fill" to="#808080" begin="arrowLeft.mouseover" end="arrowLeft.mouseout"/>
                  </use>
                  <path fill="none" stroke="white" stroke-width="1.5" d="M0,-3.0v7 M-2.5,-0.5L0,-3.0L2.5,-0.5"/>
                </g>
        </g>
        <svg viewBox="0 0 15 15" width="100%" height="30px" preserveAspectRatio="xMaxYMin meet">
         <g id="arrow_out" transform="scale(0.3 0.3)">
          <a xlink:href="namespacereadini_a866aef64601a3db06ee8b24fbdc8b3f1_cgraph_org.svg" target="_base">
           <rect id="button" ry="5" rx="5" y="6" x="6" height="38" width="38"
                fill="#f2f5e9" fill-opacity="0.5" stroke="#606060" stroke-width="1.0"/>
           <path id="arrow"
             d="M 11.500037,31.436501 C 11.940474,20.09759 22.043105,11.32322 32.158766,21.979434 L 37.068811,17.246167 C 37.068811,17.246167 37.088388,32 37.088388,32 L 22.160133,31.978069 C 22.160133,31.978069 26.997745,27.140456 26.997745,27.140456 C 18.528582,18.264221 13.291696,25.230495 11.500037,31.436501 z"
             style="fill:#404040;"/>
          </a>
         </g>
        </svg>
</svg>
