<?xml version="1.0" encoding="UTF-8" standalone="no"?>
<!DOCTYPE svg PUBLIC "-//W3C//DTD SVG 1.1//EN"
 "http://www.w3.org/Graphics/SVG/1.1/DTD/svg11.dtd">
<!-- Generated by graphviz version 2.44.0 ()
 -->
<!-- Title: fission_rate_module::read_fission_rates Pages: 1 -->
<svg width="841pt" height="488pt"
 viewBox="0.00 0.00 841.00 487.88" xmlns="http://www.w3.org/2000/svg" xmlns:xlink="http://www.w3.org/1999/xlink">
<g id="graph0" class="graph" transform="scale(1 1) rotate(0) translate(4 483.88)">
<title>fission_rate_module::read_fission_rates</title>
<polygon fill="white" stroke="transparent" points="-4,4 -4,-483.88 837,-483.88 837,4 -4,4"/>
<!-- Node1 -->
<g id="node1" class="node">
<title>Node1</title>
<g id="a_node1"><a xlink:title="Reads fission rates.">
<polygon fill="#bfbfbf" stroke="black" points="0,-258.5 0,-288.5 103,-288.5 103,-258.5 0,-258.5"/>
<text text-anchor="start" x="8" y="-276.5" font-family="Helvetica,sans-Serif" font-size="10.00">fission_rate_module</text>
<text text-anchor="middle" x="51.5" y="-265.5" font-family="Helvetica,sans-Serif" font-size="10.00">::read_fission_rates</text>
</a>
</g>
</g>
<!-- Node2 -->
<g id="node2" class="node">
<title>Node2</title>
<g id="a_node2"><a xlink:href="namespacefission__rate__module.html#ae8db3f843a530e45390d2b6042de390e" target="_top" xlink:title="Calculates the (beta&#45;delayed and spontaneous) fission fragment mass distribution according to the ABL...">
<polygon fill="white" stroke="black" points="300,-214.5 300,-244.5 403,-244.5 403,-214.5 300,-214.5"/>
<text text-anchor="start" x="308" y="-232.5" font-family="Helvetica,sans-Serif" font-size="10.00">fission_rate_module</text>
<text text-anchor="middle" x="351.5" y="-221.5" font-family="Helvetica,sans-Serif" font-size="10.00">::abla_betafiss</text>
</a>
</g>
</g>
<!-- Node1&#45;&gt;Node2 -->
<g id="edge1" class="edge">
<title>Node1&#45;&gt;Node2</title>
<path fill="none" stroke="midnightblue" d="M101.1,-258.4C113.37,-255.03 126.59,-251.79 139,-249.5 189.26,-240.23 247.08,-235.13 289.55,-232.41"/>
<polygon fill="midnightblue" stroke="midnightblue" points="289.96,-235.89 299.73,-231.78 289.53,-228.9 289.96,-235.89"/>
</g>
<!-- Node4 -->
<g id="node4" class="node">
<title>Node4</title>
<g id="a_node4"><a xlink:href="namespaceerror__msg__class.html#a2453d3b7cb363115c046840baa1dfb75" target="_top" xlink:title="Raise a exception with a given error message.">
<polygon fill="white" stroke="black" points="579,-258.5 579,-288.5 693,-288.5 693,-258.5 579,-258.5"/>
<text text-anchor="start" x="587" y="-276.5" font-family="Helvetica,sans-Serif" font-size="10.00">error_msg_class::raise</text>
<text text-anchor="middle" x="636" y="-265.5" font-family="Helvetica,sans-Serif" font-size="10.00">_exception</text>
</a>
</g>
</g>
<!-- Node1&#45;&gt;Node4 -->
<g id="edge26" class="edge">
<title>Node1&#45;&gt;Node4</title>
<path fill="none" stroke="midnightblue" d="M62.94,-288.72C77.39,-308.28 105.52,-341.27 139,-354.5 306.65,-420.74 371.46,-373.89 543,-318.5 562.7,-312.14 583.51,-302.25 600.35,-293.37"/>
<polygon fill="midnightblue" stroke="midnightblue" points="602.12,-296.39 609.26,-288.56 598.8,-290.23 602.12,-296.39"/>
</g>
<!-- Node5 -->
<g id="node5" class="node">
<title>Node5</title>
<g id="a_node5"><a xlink:href="namespaceerror__msg__class.html#a7e065585cc806a5c264de1f088266498" target="_top" xlink:title="Converts a given integer to a string.">
<polygon fill="white" stroke="black" points="729,-416.5 729,-446.5 833,-446.5 833,-416.5 729,-416.5"/>
<text text-anchor="start" x="737" y="-434.5" font-family="Helvetica,sans-Serif" font-size="10.00">error_msg_class::int</text>
<text text-anchor="middle" x="781" y="-423.5" font-family="Helvetica,sans-Serif" font-size="10.00">_to_str</text>
</a>
</g>
</g>
<!-- Node1&#45;&gt;Node5 -->
<g id="edge14" class="edge">
<title>Node1&#45;&gt;Node5</title>
<path fill="none" stroke="midnightblue" d="M55.58,-288.72C63.21,-322.18 86.31,-402.21 139,-440.5 216.08,-496.51 255.22,-475.5 350.5,-475.5 350.5,-475.5 350.5,-475.5 492,-475.5 570.97,-475.5 660.73,-459.13 718.76,-446.37"/>
<polygon fill="midnightblue" stroke="midnightblue" points="719.86,-449.71 728.86,-444.11 718.33,-442.87 719.86,-449.71"/>
</g>
<!-- Node6 -->
<g id="node6" class="node">
<title>Node6</title>
<g id="a_node6"><a xlink:href="namespacefission__rate__module.html#a07f34766739ee866664d2edd5134257e" target="_top" xlink:title="Calculates the (neutron&#45;induced) fission fragment mass distribution according to the ABLA07 model: Ke...">
<polygon fill="white" stroke="black" points="300,-0.5 300,-30.5 403,-30.5 403,-0.5 300,-0.5"/>
<text text-anchor="start" x="308" y="-18.5" font-family="Helvetica,sans-Serif" font-size="10.00">fission_rate_module</text>
<text text-anchor="middle" x="351.5" y="-7.5" font-family="Helvetica,sans-Serif" font-size="10.00">::abla_nfiss</text>
</a>
</g>
</g>
<!-- Node1&#45;&gt;Node6 -->
<g id="edge5" class="edge">
<title>Node1&#45;&gt;Node6</title>
<path fill="none" stroke="midnightblue" d="M54.51,-258.27C60.27,-220.75 80.42,-123.24 139,-72.5 180.82,-36.27 243.42,-22.81 289.67,-17.94"/>
<polygon fill="midnightblue" stroke="midnightblue" points="290.25,-21.4 299.87,-16.98 289.59,-14.44 290.25,-21.4"/>
</g>
<!-- Node7 -->
<g id="node7" class="node">
<title>Node7</title>
<g id="a_node7"><a xlink:href="namespacebenam__class.html#ad20c821347dd5f7c08dff59c98e69657" target="_top" xlink:title="Returns the index number of isotope &#39;name&#39;.">
<polygon fill="white" stroke="black" points="147.5,-308 147.5,-327 255.5,-327 255.5,-308 147.5,-308"/>
<text text-anchor="middle" x="201.5" y="-315" font-family="Helvetica,sans-Serif" font-size="10.00">benam_class::benam</text>
</a>
</g>
</g>
<!-- Node1&#45;&gt;Node7 -->
<g id="edge8" class="edge">
<title>Node1&#45;&gt;Node7</title>
<path fill="none" stroke="midnightblue" d="M103.02,-288.52C121.08,-293.89 141.22,-299.88 158.49,-305.01"/>
<polygon fill="midnightblue" stroke="midnightblue" points="157.7,-308.43 168.28,-307.92 159.69,-301.72 157.7,-308.43"/>
</g>
<!-- Node8 -->
<g id="node8" class="node">
<title>Node8</title>
<g id="a_node8"><a xlink:href="namespacefile__handling__class.html#a01ba26324d7662cc0fb2e0eb306cd3e2" target="_top" xlink:title="Close an external file.">
<polygon fill="white" stroke="black" points="442,-416.5 442,-446.5 540,-446.5 540,-416.5 442,-416.5"/>
<text text-anchor="start" x="450" y="-434.5" font-family="Helvetica,sans-Serif" font-size="10.00">file_handling_class</text>
<text text-anchor="middle" x="491" y="-423.5" font-family="Helvetica,sans-Serif" font-size="10.00">::close_io_file</text>
</a>
</g>
</g>
<!-- Node1&#45;&gt;Node8 -->
<g id="edge9" class="edge">
<title>Node1&#45;&gt;Node8</title>
<path fill="none" stroke="midnightblue" d="M57.27,-288.92C67.18,-317.97 92.97,-380.35 139,-407.5 229.95,-461.14 358.12,-453.28 431.77,-442.52"/>
<polygon fill="midnightblue" stroke="midnightblue" points="432.44,-445.96 441.79,-440.99 431.38,-439.04 432.44,-445.96"/>
</g>
<!-- Node9 -->
<g id="node9" class="node">
<title>Node9</title>
<g id="a_node9"><a xlink:href="namespacefission__rate__module.html#a94d8dad6194b7b50ef10c43cf825bcb2" target="_top" xlink:title="Determines fission fragment mass distribution as described in Panov et al. 2001.">
<polygon fill="white" stroke="black" points="150,-170.5 150,-200.5 253,-200.5 253,-170.5 150,-170.5"/>
<text text-anchor="start" x="158" y="-188.5" font-family="Helvetica,sans-Serif" font-size="10.00">fission_rate_module</text>
<text text-anchor="middle" x="201.5" y="-177.5" font-family="Helvetica,sans-Serif" font-size="10.00">::fiss_dist</text>
</a>
</g>
</g>
<!-- Node1&#45;&gt;Node9 -->
<g id="edge12" class="edge">
<title>Node1&#45;&gt;Node9</title>
<path fill="none" stroke="midnightblue" d="M73.31,-258.37C90.52,-246.15 115.81,-228.85 139,-215.5 145.09,-212 151.64,-208.51 158.13,-205.22"/>
<polygon fill="midnightblue" stroke="midnightblue" points="160.11,-208.15 167.51,-200.56 157,-201.88 160.11,-208.15"/>
</g>
<!-- Node10 -->
<g id="node10" class="node">
<title>Node10</title>
<g id="a_node10"><a xlink:href="namespacefission__rate__module.html#a65555b9c0e03986c67316c9a6391b92b" target="_top" xlink:title="Kodama&#45;Takahashi distribution.">
<polygon fill="white" stroke="black" points="300,-126.5 300,-156.5 403,-156.5 403,-126.5 300,-126.5"/>
<text text-anchor="start" x="308" y="-144.5" font-family="Helvetica,sans-Serif" font-size="10.00">fission_rate_module</text>
<text text-anchor="middle" x="351.5" y="-133.5" font-family="Helvetica,sans-Serif" font-size="10.00">::kodtakdist</text>
</a>
</g>
</g>
<!-- Node1&#45;&gt;Node10 -->
<g id="edge15" class="edge">
<title>Node1&#45;&gt;Node10</title>
<path fill="none" stroke="midnightblue" d="M59.2,-258.31C71.15,-233.22 98.76,-183.68 139,-161.5 185,-136.15 245.27,-132.81 289.7,-134.84"/>
<polygon fill="midnightblue" stroke="midnightblue" points="289.6,-138.34 299.78,-135.41 289.99,-131.35 289.6,-138.34"/>
</g>
<!-- Node11 -->
<g id="node11" class="node">
<title>Node11</title>
<g id="a_node11"><a xlink:href="namespacefission__rate__module.html#a485bd4cff08304fddf3b750f249e4bcd" target="_top" xlink:title="Fill the rates with the correct fragments.">
<polygon fill="white" stroke="black" points="150,-82.5 150,-112.5 253,-112.5 253,-82.5 150,-82.5"/>
<text text-anchor="start" x="158" y="-100.5" font-family="Helvetica,sans-Serif" font-size="10.00">fission_rate_module</text>
<text text-anchor="middle" x="201.5" y="-89.5" font-family="Helvetica,sans-Serif" font-size="10.00">::mumpower_fiss</text>
</a>
</g>
</g>
<!-- Node1&#45;&gt;Node11 -->
<g id="edge18" class="edge">
<title>Node1&#45;&gt;Node11</title>
<path fill="none" stroke="midnightblue" d="M58.04,-258.33C69.26,-229.45 97.2,-166.05 139,-127.5 142.98,-123.83 147.5,-120.51 152.24,-117.54"/>
<polygon fill="midnightblue" stroke="midnightblue" points="153.99,-120.57 160.92,-112.56 150.51,-114.49 153.99,-120.57"/>
</g>
<!-- Node12 -->
<g id="node12" class="node">
<title>Node12</title>
<g id="a_node12"><a xlink:href="namespacefile__handling__class.html#aab870caaf9cbaaf635d537708efbf793" target="_top" xlink:title="Same for reading (input file)">
<polygon fill="white" stroke="black" points="302.5,-302.5 302.5,-332.5 400.5,-332.5 400.5,-302.5 302.5,-302.5"/>
<text text-anchor="start" x="310.5" y="-320.5" font-family="Helvetica,sans-Serif" font-size="10.00">file_handling_class</text>
<text text-anchor="middle" x="351.5" y="-309.5" font-family="Helvetica,sans-Serif" font-size="10.00">::open_infile</text>
</a>
</g>
</g>
<!-- Node1&#45;&gt;Node12 -->
<g id="edge22" class="edge">
<title>Node1&#45;&gt;Node12</title>
<path fill="none" stroke="midnightblue" d="M67.05,-288.69C83.01,-304.15 110.21,-327.13 139,-336.5 189.08,-352.81 249.14,-344.99 292.44,-334.9"/>
<polygon fill="midnightblue" stroke="midnightblue" points="293.35,-338.28 302.24,-332.52 291.69,-331.48 293.35,-338.28"/>
</g>
<!-- Node14 -->
<g id="node14" class="node">
<title>Node14</title>
<g id="a_node14"><a xlink:href="namespacefission__rate__module.html#a0b06b73d37a47426c5c291e84c5141aa" target="_top" xlink:title="Read the fission distribution from a file.">
<polygon fill="white" stroke="black" points="139,-258.5 139,-288.5 264,-288.5 264,-258.5 139,-258.5"/>
<text text-anchor="start" x="147" y="-276.5" font-family="Helvetica,sans-Serif" font-size="10.00">fission_rate_module</text>
<text text-anchor="middle" x="201.5" y="-265.5" font-family="Helvetica,sans-Serif" font-size="10.00">::read_mumpower_fissfile</text>
</a>
</g>
</g>
<!-- Node1&#45;&gt;Node14 -->
<g id="edge27" class="edge">
<title>Node1&#45;&gt;Node14</title>
<path fill="none" stroke="midnightblue" d="M103.02,-273.5C111.33,-273.5 120.07,-273.5 128.78,-273.5"/>
<polygon fill="midnightblue" stroke="midnightblue" points="128.95,-277 138.95,-273.5 128.95,-270 128.95,-277"/>
</g>
<!-- Node3 -->
<g id="node3" class="node">
<title>Node3</title>
<g id="a_node3"><a xlink:href="namespacebenam__class.html#ad2f566697809a5731e560509d2ca7062" target="_top" xlink:title="Finds an isotope index in the network table, given its A and Z. In case it was not found,...">
<polygon fill="white" stroke="black" points="439,-173 439,-192 543,-192 543,-173 439,-173"/>
<text text-anchor="middle" x="491" y="-180" font-family="Helvetica,sans-Serif" font-size="10.00">benam_class::findaz</text>
</a>
</g>
</g>
<!-- Node2&#45;&gt;Node3 -->
<g id="edge2" class="edge">
<title>Node2&#45;&gt;Node3</title>
<path fill="none" stroke="midnightblue" d="M396.38,-214.5C414.39,-208.35 435.02,-201.29 452.32,-195.38"/>
<polygon fill="midnightblue" stroke="midnightblue" points="453.75,-198.59 462.08,-192.04 451.49,-191.97 453.75,-198.59"/>
</g>
<!-- Node2&#45;&gt;Node4 -->
<g id="edge3" class="edge">
<title>Node2&#45;&gt;Node4</title>
<path fill="none" stroke="midnightblue" d="M403.33,-232.75C441.88,-235.71 496.05,-240.96 543,-249.5 552.74,-251.27 562.97,-253.53 572.93,-255.95"/>
<polygon fill="midnightblue" stroke="midnightblue" points="572.21,-259.38 582.76,-258.42 573.91,-252.59 572.21,-259.38"/>
</g>
<!-- Node4&#45;&gt;Node5 -->
<g id="edge4" class="edge">
<title>Node4&#45;&gt;Node5</title>
<path fill="none" stroke="midnightblue" d="M650.71,-288.65C675.84,-316.42 729.43,-375.63 759.12,-408.43"/>
<polygon fill="midnightblue" stroke="midnightblue" points="756.81,-411.1 766.12,-416.16 762,-406.4 756.81,-411.1"/>
</g>
<!-- Node6&#45;&gt;Node3 -->
<g id="edge6" class="edge">
<title>Node6&#45;&gt;Node3</title>
<path fill="none" stroke="midnightblue" d="M364.94,-30.61C390.43,-61.57 448.45,-132.03 475.55,-164.95"/>
<polygon fill="midnightblue" stroke="midnightblue" points="472.97,-167.32 482.03,-172.82 478.37,-162.87 472.97,-167.32"/>
</g>
<!-- Node6&#45;&gt;Node4 -->
<g id="edge7" class="edge">
<title>Node6&#45;&gt;Node4</title>
<path fill="none" stroke="midnightblue" d="M403.22,-10.6C445.04,-9.32 503.69,-14.25 543,-45.5 607.47,-96.76 627.02,-200.29 632.74,-248.16"/>
<polygon fill="midnightblue" stroke="midnightblue" points="629.28,-248.72 633.84,-258.29 636.24,-247.97 629.28,-248.72"/>
</g>
<!-- Node8&#45;&gt;Node4 -->
<g id="edge11" class="edge">
<title>Node8&#45;&gt;Node4</title>
<path fill="none" stroke="midnightblue" d="M522.3,-416.47C529.49,-412.17 536.85,-407.11 543,-401.5 576.82,-370.64 605.72,-325.46 621.69,-297.85"/>
<polygon fill="midnightblue" stroke="midnightblue" points="624.9,-299.29 626.79,-288.87 618.81,-295.84 624.9,-299.29"/>
</g>
<!-- Node8&#45;&gt;Node5 -->
<g id="edge10" class="edge">
<title>Node8&#45;&gt;Node5</title>
<path fill="none" stroke="midnightblue" d="M540.2,-431.5C589.25,-431.5 665.42,-431.5 718.71,-431.5"/>
<polygon fill="midnightblue" stroke="midnightblue" points="718.72,-435 728.72,-431.5 718.72,-428 718.72,-435"/>
</g>
<!-- Node9&#45;&gt;Node3 -->
<g id="edge13" class="edge">
<title>Node9&#45;&gt;Node3</title>
<path fill="none" stroke="midnightblue" d="M253.24,-184.97C302.2,-184.46 376.4,-183.69 428.66,-183.14"/>
<polygon fill="midnightblue" stroke="midnightblue" points="428.84,-186.64 438.8,-183.03 428.77,-179.64 428.84,-186.64"/>
</g>
<!-- Node10&#45;&gt;Node3 -->
<g id="edge16" class="edge">
<title>Node10&#45;&gt;Node3</title>
<path fill="none" stroke="midnightblue" d="M402.92,-156.53C417.72,-160.95 433.75,-165.73 447.97,-169.97"/>
<polygon fill="midnightblue" stroke="midnightblue" points="447.37,-173.44 457.96,-172.95 449.37,-166.73 447.37,-173.44"/>
</g>
<!-- Node10&#45;&gt;Node4 -->
<g id="edge17" class="edge">
<title>Node10&#45;&gt;Node4</title>
<path fill="none" stroke="midnightblue" d="M403.27,-137.43C443.51,-136.46 499.93,-140.27 543,-163.5 579.3,-183.08 607.14,-223.38 622.28,-249.39"/>
<polygon fill="midnightblue" stroke="midnightblue" points="619.31,-251.26 627.27,-258.25 625.41,-247.82 619.31,-251.26"/>
</g>
<!-- Node11&#45;&gt;Node3 -->
<g id="edge19" class="edge">
<title>Node11&#45;&gt;Node3</title>
<path fill="none" stroke="midnightblue" d="M253.28,-94.76C294.9,-94.27 354.62,-97.64 403,-116.5 430.93,-127.39 457.55,-150.01 473.82,-165.71"/>
<polygon fill="midnightblue" stroke="midnightblue" points="471.38,-168.22 480.94,-172.78 476.31,-163.25 471.38,-168.22"/>
</g>
<!-- Node11&#45;&gt;Node4 -->
<g id="edge21" class="edge">
<title>Node11&#45;&gt;Node4</title>
<path fill="none" stroke="midnightblue" d="M253.19,-88.3C325.12,-78.23 457.55,-71.04 543,-134.5 583.46,-164.55 611.45,-218.04 625.21,-249.17"/>
<polygon fill="midnightblue" stroke="midnightblue" points="622.02,-250.62 629.17,-258.44 628.46,-247.87 622.02,-250.62"/>
</g>
<!-- Node11&#45;&gt;Node10 -->
<g id="edge20" class="edge">
<title>Node11&#45;&gt;Node10</title>
<path fill="none" stroke="midnightblue" d="M253.02,-112.52C264.98,-116.07 277.85,-119.9 290.2,-123.57"/>
<polygon fill="midnightblue" stroke="midnightblue" points="289.37,-126.98 299.96,-126.47 291.37,-120.27 289.37,-126.98"/>
</g>
<!-- Node12&#45;&gt;Node4 -->
<g id="edge25" class="edge">
<title>Node12&#45;&gt;Node4</title>
<path fill="none" stroke="midnightblue" d="M400.57,-314.92C439.27,-312.31 494.95,-307.36 543,-298.5 553.72,-296.52 565.01,-293.91 575.87,-291.12"/>
<polygon fill="midnightblue" stroke="midnightblue" points="576.92,-294.46 585.69,-288.52 575.13,-287.69 576.92,-294.46"/>
</g>
<!-- Node13 -->
<g id="node13" class="node">
<title>Node13</title>
<g id="a_node13"><a xlink:href="namespacefile__handling__class.html#af02196bd5eaf70ecd5ab4cc650094d5e" target="_top" xlink:title="Finds the next unused unit number.">
<polygon fill="white" stroke="black" points="442,-258.5 442,-288.5 540,-288.5 540,-258.5 442,-258.5"/>
<text text-anchor="start" x="450" y="-276.5" font-family="Helvetica,sans-Serif" font-size="10.00">file_handling_class</text>
<text text-anchor="middle" x="491" y="-265.5" font-family="Helvetica,sans-Serif" font-size="10.00">::get_next_io_unit</text>
</a>
</g>
</g>
<!-- Node12&#45;&gt;Node13 -->
<g id="edge23" class="edge">
<title>Node12&#45;&gt;Node13</title>
<path fill="none" stroke="midnightblue" d="M399.44,-302.48C410.27,-299.01 421.9,-295.29 433.11,-291.71"/>
<polygon fill="midnightblue" stroke="midnightblue" points="434.35,-294.98 442.81,-288.6 432.22,-288.32 434.35,-294.98"/>
</g>
<!-- Node13&#45;&gt;Node4 -->
<g id="edge24" class="edge">
<title>Node13&#45;&gt;Node4</title>
<path fill="none" stroke="midnightblue" d="M540.01,-273.5C549.29,-273.5 559.16,-273.5 568.89,-273.5"/>
<polygon fill="midnightblue" stroke="midnightblue" points="568.95,-277 578.95,-273.5 568.95,-270 568.95,-277"/>
</g>
<!-- Node14&#45;&gt;Node3 -->
<g id="edge28" class="edge">
<title>Node14&#45;&gt;Node3</title>
<path fill="none" stroke="midnightblue" d="M264.41,-276.89C305.23,-276.93 359.07,-272.71 403,-254.5 432.26,-242.37 459.24,-216.88 475.16,-199.71"/>
<polygon fill="midnightblue" stroke="midnightblue" points="477.97,-201.83 482.05,-192.05 472.76,-197.15 477.97,-201.83"/>
</g>
<!-- Node14&#45;&gt;Node12 -->
<g id="edge29" class="edge">
<title>Node14&#45;&gt;Node12</title>
<path fill="none" stroke="midnightblue" d="M253.02,-288.52C265.7,-292.29 279.4,-296.36 292.42,-300.23"/>
<polygon fill="midnightblue" stroke="midnightblue" points="291.62,-303.65 302.21,-303.14 293.62,-296.94 291.62,-303.65"/>
</g>
</g>
</svg>
