<?xml version="1.0" encoding="UTF-8" standalone="no"?>
<!DOCTYPE svg PUBLIC "-//W3C//DTD SVG 1.1//EN"
 "http://www.w3.org/Graphics/SVG/1.1/DTD/svg11.dtd">
<!-- Generated by graphviz version 2.44.0 ()
 -->
<!-- Title: readini::readini_init Pages: 1 -->
<svg width="830pt" height="751pt"
 viewBox="0.00 0.00 830.00 751.29" xmlns="http://www.w3.org/2000/svg" xmlns:xlink="http://www.w3.org/1999/xlink">
<g id="graph0" class="graph" transform="scale(1 1) rotate(0) translate(4 747.29)">
<title>readini::readini_init</title>
<polygon fill="white" stroke="transparent" points="-4,4 -4,-747.29 826,-747.29 826,4 -4,4"/>
<!-- Node1 -->
<g id="node1" class="node">
<title>Node1</title>
<g id="a_node1"><a xlink:title="Initialize the readini module and open files.">
<polygon fill="#bfbfbf" stroke="black" points="0,-260.29 0,-279.29 96,-279.29 96,-260.29 0,-260.29"/>
<text text-anchor="middle" x="48" y="-267.29" font-family="Helvetica,sans-Serif" font-size="10.00">readini::readini_init</text>
</a>
</g>
</g>
<!-- Node2 -->
<g id="node2" class="node">
<title>Node2</title>
<g id="a_node2"><a xlink:href="namespacereadini.html#a178b1ed282a2b62ad03dea2ca288c285" target="_top" xlink:title="Make tests to ensure the trajectory is okay.">
<polygon fill="white" stroke="black" points="134.5,-668.79 134.5,-698.79 235.5,-698.79 235.5,-668.79 134.5,-668.79"/>
<text text-anchor="start" x="142.5" y="-686.79" font-family="Helvetica,sans-Serif" font-size="10.00">readini::consistency</text>
<text text-anchor="middle" x="185" y="-675.79" font-family="Helvetica,sans-Serif" font-size="10.00">_check</text>
</a>
</g>
</g>
<!-- Node1&#45;&gt;Node2 -->
<g id="edge1" class="edge">
<title>Node1&#45;&gt;Node2</title>
<path fill="none" stroke="midnightblue" d="M52.2,-279.62C69.29,-332 149.83,-579.01 175.86,-658.84"/>
<polygon fill="midnightblue" stroke="midnightblue" points="172.6,-660.13 179.03,-668.55 179.26,-657.96 172.6,-660.13"/>
</g>
<!-- Node6 -->
<g id="node6" class="node">
<title>Node6</title>
<g id="a_node6"><a xlink:href="namespacereadini.html#a186d2f5acef411b2a89d9fbfeaf4a0bf" target="_top" xlink:title="Reads the trajectory file.">
<polygon fill="white" stroke="black" points="132,-378.29 132,-397.29 238,-397.29 238,-378.29 132,-378.29"/>
<text text-anchor="middle" x="185" y="-385.29" font-family="Helvetica,sans-Serif" font-size="10.00">readini::custom_read</text>
</a>
</g>
</g>
<!-- Node1&#45;&gt;Node6 -->
<g id="edge5" class="edge">
<title>Node1&#45;&gt;Node6</title>
<path fill="none" stroke="midnightblue" d="M60.05,-279.45C83.09,-299.59 136.5,-346.27 165.11,-371.28"/>
<polygon fill="midnightblue" stroke="midnightblue" points="162.97,-374.05 172.8,-378 167.57,-368.78 162.97,-374.05"/>
</g>
<!-- Node17 -->
<g id="node17" class="node">
<title>Node17</title>
<g id="a_node17"><a xlink:href="namespacereadini.html#a301965675d97bfd3f865e9a4e4c5a37b" target="_top" xlink:title="Read in times for snapshots.">
<polygon fill="white" stroke="black" points="132,-74.79 132,-104.79 238,-104.79 238,-74.79 132,-74.79"/>
<text text-anchor="start" x="140" y="-92.79" font-family="Helvetica,sans-Serif" font-size="10.00">readini::read_custom</text>
<text text-anchor="middle" x="185" y="-81.79" font-family="Helvetica,sans-Serif" font-size="10.00">_snapshots</text>
</a>
</g>
</g>
<!-- Node1&#45;&gt;Node17 -->
<g id="edge29" class="edge">
<title>Node1&#45;&gt;Node17</title>
<path fill="none" stroke="midnightblue" d="M53.76,-260.06C65.29,-237.05 96.37,-178.05 132,-135.79 139.24,-127.2 148.1,-118.77 156.45,-111.52"/>
<polygon fill="midnightblue" stroke="midnightblue" points="158.83,-114.08 164.22,-104.96 154.32,-108.73 158.83,-114.08"/>
</g>
<!-- Node18 -->
<g id="node18" class="node">
<title>Node18</title>
<g id="a_node18"><a xlink:href="namespacereadini.html#aab3cbd8d739c6ab3c83677fa2b4ced04" target="_top" xlink:title="Reads in nuclei that will be tracked and where the abundance will be stored in a separate file.">
<polygon fill="white" stroke="black" points="137.5,-145.79 137.5,-175.79 232.5,-175.79 232.5,-145.79 137.5,-145.79"/>
<text text-anchor="start" x="145.5" y="-163.79" font-family="Helvetica,sans-Serif" font-size="10.00">readini::read_track</text>
<text text-anchor="middle" x="185" y="-152.79" font-family="Helvetica,sans-Serif" font-size="10.00">_nuclei</text>
</a>
</g>
</g>
<!-- Node1&#45;&gt;Node18 -->
<g id="edge33" class="edge">
<title>Node1&#45;&gt;Node18</title>
<path fill="none" stroke="midnightblue" d="M60.98,-260.12C82.45,-242.78 127.97,-206.03 157.21,-182.42"/>
<polygon fill="midnightblue" stroke="midnightblue" points="159.41,-185.14 164.99,-176.14 155.01,-179.7 159.41,-185.14"/>
</g>
<!-- Node3 -->
<g id="node3" class="node">
<title>Node3</title>
<g id="a_node3"><a xlink:href="namespaceerror__msg__class.html#a5bc9f3b670b725cc43276934b867d801" target="_top" xlink:title="Converts a given real to a string with format &quot;(1pE10.2)&quot;.">
<polygon fill="white" stroke="black" points="274,-712.79 274,-742.79 386,-742.79 386,-712.79 274,-712.79"/>
<text text-anchor="start" x="282" y="-730.79" font-family="Helvetica,sans-Serif" font-size="10.00">error_msg_class::num</text>
<text text-anchor="middle" x="330" y="-719.79" font-family="Helvetica,sans-Serif" font-size="10.00">_to_str</text>
</a>
</g>
</g>
<!-- Node2&#45;&gt;Node3 -->
<g id="edge2" class="edge">
<title>Node2&#45;&gt;Node3</title>
<path fill="none" stroke="midnightblue" d="M234.81,-698.81C246.19,-702.31 258.42,-706.07 270.18,-709.69"/>
<polygon fill="midnightblue" stroke="midnightblue" points="269.33,-713.09 279.92,-712.69 271.39,-706.4 269.33,-713.09"/>
</g>
<!-- Node4 -->
<g id="node4" class="node">
<title>Node4</title>
<g id="a_node4"><a xlink:href="namespaceerror__msg__class.html#a2453d3b7cb363115c046840baa1dfb75" target="_top" xlink:title="Raise a exception with a given error message.">
<polygon fill="white" stroke="black" points="568,-302.79 568,-332.79 682,-332.79 682,-302.79 568,-302.79"/>
<text text-anchor="start" x="576" y="-320.79" font-family="Helvetica,sans-Serif" font-size="10.00">error_msg_class::raise</text>
<text text-anchor="middle" x="625" y="-309.79" font-family="Helvetica,sans-Serif" font-size="10.00">_exception</text>
</a>
</g>
</g>
<!-- Node2&#45;&gt;Node4 -->
<g id="edge3" class="edge">
<title>Node2&#45;&gt;Node4</title>
<path fill="none" stroke="midnightblue" d="M235.79,-690.68C309.83,-697.96 449.1,-699.84 532,-626.79 616.82,-552.04 625.07,-402.89 624.77,-343.27"/>
<polygon fill="midnightblue" stroke="midnightblue" points="628.26,-342.86 624.62,-332.91 621.26,-342.95 628.26,-342.86"/>
</g>
<!-- Node5 -->
<g id="node5" class="node">
<title>Node5</title>
<g id="a_node5"><a xlink:href="namespaceerror__msg__class.html#a7e065585cc806a5c264de1f088266498" target="_top" xlink:title="Converts a given integer to a string.">
<polygon fill="white" stroke="black" points="718,-302.79 718,-332.79 822,-332.79 822,-302.79 718,-302.79"/>
<text text-anchor="start" x="726" y="-320.79" font-family="Helvetica,sans-Serif" font-size="10.00">error_msg_class::int</text>
<text text-anchor="middle" x="770" y="-309.79" font-family="Helvetica,sans-Serif" font-size="10.00">_to_str</text>
</a>
</g>
</g>
<!-- Node4&#45;&gt;Node5 -->
<g id="edge4" class="edge">
<title>Node4&#45;&gt;Node5</title>
<path fill="none" stroke="midnightblue" d="M682.11,-317.79C690.45,-317.79 699.09,-317.79 707.54,-317.79"/>
<polygon fill="midnightblue" stroke="midnightblue" points="707.71,-321.29 717.71,-317.79 707.71,-314.29 707.71,-321.29"/>
</g>
<!-- Node6&#45;&gt;Node4 -->
<g id="edge24" class="edge">
<title>Node6&#45;&gt;Node4</title>
<path fill="none" stroke="midnightblue" d="M200.09,-378.22C217.02,-367.05 246.6,-348.61 274,-336.79 337.01,-309.62 354.09,-302.67 422,-292.79 470.38,-285.75 483.54,-286.32 532,-292.79 543.92,-294.38 556.48,-297.08 568.37,-300.14"/>
<polygon fill="midnightblue" stroke="midnightblue" points="567.59,-303.55 578.16,-302.77 569.41,-296.79 567.59,-303.55"/>
</g>
<!-- Node6&#45;&gt;Node5 -->
<g id="edge13" class="edge">
<title>Node6&#45;&gt;Node5</title>
<path fill="none" stroke="midnightblue" d="M187.72,-397.71C193.67,-428.94 216.22,-526.25 274,-577.79 361.1,-655.48 427.33,-678.42 532,-626.79 656.35,-565.45 733.56,-404.08 759.36,-342.32"/>
<polygon fill="midnightblue" stroke="midnightblue" points="762.64,-343.55 763.19,-332.96 756.16,-340.89 762.64,-343.55"/>
</g>
<!-- Node7 -->
<g id="node7" class="node">
<title>Node7</title>
<g id="a_node7"><a xlink:href="namespacefile__handling__class.html#a01ba26324d7662cc0fb2e0eb306cd3e2" target="_top" xlink:title="Close an external file.">
<polygon fill="white" stroke="black" points="281,-39.79 281,-69.79 379,-69.79 379,-39.79 281,-39.79"/>
<text text-anchor="start" x="289" y="-57.79" font-family="Helvetica,sans-Serif" font-size="10.00">file_handling_class</text>
<text text-anchor="middle" x="330" y="-46.79" font-family="Helvetica,sans-Serif" font-size="10.00">::close_io_file</text>
</a>
</g>
</g>
<!-- Node6&#45;&gt;Node7 -->
<g id="edge6" class="edge">
<title>Node6&#45;&gt;Node7</title>
<path fill="none" stroke="midnightblue" d="M188.47,-378.27C201.64,-327.55 263.51,-90.78 274,-78.79 274.75,-77.93 275.55,-77.09 276.37,-76.29"/>
<polygon fill="midnightblue" stroke="midnightblue" points="278.87,-78.77 284.52,-69.81 274.52,-73.29 278.87,-78.77"/>
</g>
<!-- Node8 -->
<g id="node8" class="node">
<title>Node8</title>
<g id="a_node8"><a xlink:href="namespacereadini.html#aa70dcb64b33b1effcebfdff61a477cb6" target="_top" xlink:title="Function to convert from a given density unit to g/ccm.">
<polygon fill="white" stroke="black" points="431,-586.79 431,-616.79 523,-616.79 523,-586.79 431,-586.79"/>
<text text-anchor="start" x="439" y="-604.79" font-family="Helvetica,sans-Serif" font-size="10.00">readini::dens_unit</text>
<text text-anchor="middle" x="477" y="-593.79" font-family="Helvetica,sans-Serif" font-size="10.00">_conversion</text>
</a>
</g>
</g>
<!-- Node6&#45;&gt;Node8 -->
<g id="edge9" class="edge">
<title>Node6&#45;&gt;Node8</title>
<path fill="none" stroke="midnightblue" d="M188.89,-397.65C197.29,-424.64 224.36,-500.31 274,-539.79 316.35,-573.47 376.96,-588.92 420.73,-595.97"/>
<polygon fill="midnightblue" stroke="midnightblue" points="420.22,-599.43 430.64,-597.47 421.27,-592.51 420.22,-599.43"/>
</g>
<!-- Node9 -->
<g id="node9" class="node">
<title>Node9</title>
<g id="a_node9"><a xlink:href="namespacereadini.html#a5a391d1e0a44bcc5834c46dfacbaaad6" target="_top" xlink:title="Function to convert from a given distance unit to km.">
<polygon fill="white" stroke="black" points="434,-537.79 434,-567.79 520,-567.79 520,-537.79 434,-537.79"/>
<text text-anchor="start" x="442" y="-555.79" font-family="Helvetica,sans-Serif" font-size="10.00">readini::dist_unit</text>
<text text-anchor="middle" x="477" y="-544.79" font-family="Helvetica,sans-Serif" font-size="10.00">_conversion</text>
</a>
</g>
</g>
<!-- Node6&#45;&gt;Node9 -->
<g id="edge11" class="edge">
<title>Node6&#45;&gt;Node9</title>
<path fill="none" stroke="midnightblue" d="M190.33,-397.55C200.98,-420.4 230.8,-477.53 274,-505.79 319.05,-535.26 380.38,-546.34 423.61,-550.46"/>
<polygon fill="midnightblue" stroke="midnightblue" points="423.38,-553.95 433.64,-551.32 423.97,-546.98 423.38,-553.95"/>
</g>
<!-- Node10 -->
<g id="node10" class="node">
<title>Node10</title>
<g id="a_node10"><a xlink:href="namespacereadini.html#a9f2a1f49dc92cf959c6a9443b4f12111" target="_top" xlink:title="Function to convert from a given neutrino energy unit to neutrino temperatures in MeV.">
<polygon fill="white" stroke="black" points="422,-488.79 422,-518.79 532,-518.79 532,-488.79 422,-488.79"/>
<text text-anchor="start" x="430" y="-506.79" font-family="Helvetica,sans-Serif" font-size="10.00">readini::nuenergy_unit</text>
<text text-anchor="middle" x="477" y="-495.79" font-family="Helvetica,sans-Serif" font-size="10.00">_conversion</text>
</a>
</g>
</g>
<!-- Node6&#45;&gt;Node10 -->
<g id="edge14" class="edge">
<title>Node6&#45;&gt;Node10</title>
<path fill="none" stroke="midnightblue" d="M192.11,-397.45C204.77,-416.51 235.86,-458.78 274,-477.79 316.59,-499.02 370.24,-505.11 411.54,-506.12"/>
<polygon fill="midnightblue" stroke="midnightblue" points="411.71,-509.62 421.76,-506.27 411.81,-502.62 411.71,-509.62"/>
</g>
<!-- Node11 -->
<g id="node11" class="node">
<title>Node11</title>
<g id="a_node11"><a xlink:href="namespacereadini.html#a296e65cce958b5e8acf268bcaeb52c6c" target="_top" xlink:title="Function to convert from a given neutrino luminosity unit to erg/s.">
<polygon fill="white" stroke="black" points="278,-438.79 278,-468.79 382,-468.79 382,-438.79 278,-438.79"/>
<text text-anchor="start" x="286" y="-456.79" font-family="Helvetica,sans-Serif" font-size="10.00">readini::nulumin_unit</text>
<text text-anchor="middle" x="330" y="-445.79" font-family="Helvetica,sans-Serif" font-size="10.00">_conversion</text>
</a>
</g>
</g>
<!-- Node6&#45;&gt;Node11 -->
<g id="edge16" class="edge">
<title>Node6&#45;&gt;Node11</title>
<path fill="none" stroke="midnightblue" d="M206.79,-397.39C227.7,-407.03 260.51,-422.18 286.88,-434.35"/>
<polygon fill="midnightblue" stroke="midnightblue" points="285.72,-437.67 296.27,-438.68 288.65,-431.31 285.72,-437.67"/>
</g>
<!-- Node12 -->
<g id="node12" class="node">
<title>Node12</title>
<g id="a_node12"><a xlink:href="namespacereadini.html#ab76df5cb8fe1d355cc07b92510a58609" target="_top" xlink:title="Function to convert from a given neutrino temperature unit to MeV.">
<polygon fill="white" stroke="black" points="425.5,-400.79 425.5,-430.79 528.5,-430.79 528.5,-400.79 425.5,-400.79"/>
<text text-anchor="start" x="433.5" y="-418.79" font-family="Helvetica,sans-Serif" font-size="10.00">readini::nutemp_unit</text>
<text text-anchor="middle" x="477" y="-407.79" font-family="Helvetica,sans-Serif" font-size="10.00">_conversion</text>
</a>
</g>
</g>
<!-- Node6&#45;&gt;Node12 -->
<g id="edge18" class="edge">
<title>Node6&#45;&gt;Node12</title>
<path fill="none" stroke="midnightblue" d="M238.18,-392.83C287.87,-397.63 362.64,-404.84 415.04,-409.9"/>
<polygon fill="midnightblue" stroke="midnightblue" points="414.92,-413.41 425.21,-410.89 415.59,-406.44 414.92,-413.41"/>
</g>
<!-- Node13 -->
<g id="node13" class="node">
<title>Node13</title>
<g id="a_node13"><a xlink:href="namespacefile__handling__class.html#aab870caaf9cbaaf635d537708efbf793" target="_top" xlink:title="Same for reading (input file)">
<polygon fill="white" stroke="black" points="281,-88.79 281,-118.79 379,-118.79 379,-88.79 281,-88.79"/>
<text text-anchor="start" x="289" y="-106.79" font-family="Helvetica,sans-Serif" font-size="10.00">file_handling_class</text>
<text text-anchor="middle" x="330" y="-95.79" font-family="Helvetica,sans-Serif" font-size="10.00">::open_infile</text>
</a>
</g>
</g>
<!-- Node6&#45;&gt;Node13 -->
<g id="edge20" class="edge">
<title>Node6&#45;&gt;Node13</title>
<path fill="none" stroke="midnightblue" d="M188.17,-378.23C197.88,-336.19 238.38,-168.13 274,-128.79 275.19,-127.48 276.45,-126.23 277.79,-125.05"/>
<polygon fill="midnightblue" stroke="midnightblue" points="280.1,-127.69 286.04,-118.92 275.93,-122.07 280.1,-127.69"/>
</g>
<!-- Node15 -->
<g id="node15" class="node">
<title>Node15</title>
<g id="a_node15"><a xlink:href="namespacereadini.html#ae01875ac008f2d4d8e4af0e2b2c67a13" target="_top" xlink:title="Function to convert from a given temperature unit to GK.">
<polygon fill="white" stroke="black" points="431,-351.79 431,-381.79 523,-381.79 523,-351.79 431,-351.79"/>
<text text-anchor="start" x="439" y="-369.79" font-family="Helvetica,sans-Serif" font-size="10.00">readini::temp_unit</text>
<text text-anchor="middle" x="477" y="-358.79" font-family="Helvetica,sans-Serif" font-size="10.00">_conversion</text>
</a>
</g>
</g>
<!-- Node6&#45;&gt;Node15 -->
<g id="edge25" class="edge">
<title>Node6&#45;&gt;Node15</title>
<path fill="none" stroke="midnightblue" d="M238.18,-384.01C289.7,-380.28 368.19,-374.6 420.75,-370.79"/>
<polygon fill="midnightblue" stroke="midnightblue" points="421.18,-374.27 430.9,-370.06 420.68,-367.29 421.18,-374.27"/>
</g>
<!-- Node16 -->
<g id="node16" class="node">
<title>Node16</title>
<g id="a_node16"><a xlink:href="namespacereadini.html#a5d1d1d270d692b2d720cde6b4a91ee07" target="_top" xlink:title="Function to convert from a given time unit to seconds.">
<polygon fill="white" stroke="black" points="432.5,-302.79 432.5,-332.79 521.5,-332.79 521.5,-302.79 432.5,-302.79"/>
<text text-anchor="start" x="440.5" y="-320.79" font-family="Helvetica,sans-Serif" font-size="10.00">readini::time_unit</text>
<text text-anchor="middle" x="477" y="-309.79" font-family="Helvetica,sans-Serif" font-size="10.00">_conversion</text>
</a>
</g>
</g>
<!-- Node6&#45;&gt;Node16 -->
<g id="edge27" class="edge">
<title>Node6&#45;&gt;Node16</title>
<path fill="none" stroke="midnightblue" d="M225.41,-378.28C276.4,-365.97 365.43,-344.48 422.49,-330.71"/>
<polygon fill="midnightblue" stroke="midnightblue" points="423.51,-334.06 432.41,-328.31 421.87,-327.26 423.51,-334.06"/>
</g>
<!-- Node7&#45;&gt;Node4 -->
<g id="edge8" class="edge">
<title>Node7&#45;&gt;Node4</title>
<path fill="none" stroke="midnightblue" d="M379.41,-51.91C423.85,-51.85 489.1,-58.65 532,-93.79 594.47,-144.97 614.99,-245.47 621.34,-292.45"/>
<polygon fill="midnightblue" stroke="midnightblue" points="617.91,-293.18 622.61,-302.67 624.85,-292.31 617.91,-293.18"/>
</g>
<!-- Node7&#45;&gt;Node5 -->
<g id="edge7" class="edge">
<title>Node7&#45;&gt;Node5</title>
<path fill="none" stroke="midnightblue" d="M379.19,-42.66C421.42,-34.56 483.45,-28.97 532,-50.79 645.86,-101.97 727.26,-237.88 756.8,-293.52"/>
<polygon fill="midnightblue" stroke="midnightblue" points="753.82,-295.39 761.55,-302.64 760.03,-292.16 753.82,-295.39"/>
</g>
<!-- Node8&#45;&gt;Node4 -->
<g id="edge10" class="edge">
<title>Node8&#45;&gt;Node4</title>
<path fill="none" stroke="midnightblue" d="M521.19,-586.66C525.16,-584.12 528.87,-581.18 532,-577.79 595.6,-509.01 615.72,-393.51 621.68,-342.86"/>
<polygon fill="midnightblue" stroke="midnightblue" points="625.17,-343.13 622.77,-332.81 618.21,-342.37 625.17,-343.13"/>
</g>
<!-- Node9&#45;&gt;Node4 -->
<g id="edge12" class="edge">
<title>Node9&#45;&gt;Node4</title>
<path fill="none" stroke="midnightblue" d="M519.06,-537.78C523.78,-534.94 528.24,-531.63 532,-527.79 584.51,-474.18 609.57,-385.65 619.14,-342.7"/>
<polygon fill="midnightblue" stroke="midnightblue" points="622.58,-343.32 621.24,-332.81 615.74,-341.86 622.58,-343.32"/>
</g>
<!-- Node10&#45;&gt;Node4 -->
<g id="edge15" class="edge">
<title>Node10&#45;&gt;Node4</title>
<path fill="none" stroke="midnightblue" d="M511.61,-488.75C518.84,-484.56 526.09,-479.55 532,-473.79 571.79,-435.01 600.49,-375.43 614.44,-342.25"/>
<polygon fill="midnightblue" stroke="midnightblue" points="617.74,-343.43 618.3,-332.85 611.27,-340.78 617.74,-343.43"/>
</g>
<!-- Node11&#45;&gt;Node4 -->
<g id="edge17" class="edge">
<title>Node11&#45;&gt;Node4</title>
<path fill="none" stroke="midnightblue" d="M382.12,-461.45C424.8,-465.32 485.88,-464.81 532,-439.79 571.63,-418.29 599.19,-371.56 613.24,-342.58"/>
<polygon fill="midnightblue" stroke="midnightblue" points="616.59,-343.69 617.64,-333.14 610.24,-340.73 616.59,-343.69"/>
</g>
<!-- Node12&#45;&gt;Node4 -->
<g id="edge19" class="edge">
<title>Node12&#45;&gt;Node4</title>
<path fill="none" stroke="midnightblue" d="M513.78,-400.69C519.99,-397.66 526.28,-394.31 532,-390.79 556.54,-375.67 582.03,-354.99 599.94,-339.5"/>
<polygon fill="midnightblue" stroke="midnightblue" points="602.38,-342.01 607.6,-332.79 597.77,-336.75 602.38,-342.01"/>
</g>
<!-- Node13&#45;&gt;Node4 -->
<g id="edge23" class="edge">
<title>Node13&#45;&gt;Node4</title>
<path fill="none" stroke="midnightblue" d="M379.05,-97.62C422.92,-94.59 487.52,-96.98 532,-128.79 587.57,-168.53 611.06,-251.22 619.68,-292.79"/>
<polygon fill="midnightblue" stroke="midnightblue" points="616.25,-293.51 621.6,-302.65 623.12,-292.17 616.25,-293.51"/>
</g>
<!-- Node14 -->
<g id="node14" class="node">
<title>Node14</title>
<g id="a_node14"><a xlink:href="namespacefile__handling__class.html#af02196bd5eaf70ecd5ab4cc650094d5e" target="_top" xlink:title="Finds the next unused unit number.">
<polygon fill="white" stroke="black" points="428,-138.79 428,-168.79 526,-168.79 526,-138.79 428,-138.79"/>
<text text-anchor="start" x="436" y="-156.79" font-family="Helvetica,sans-Serif" font-size="10.00">file_handling_class</text>
<text text-anchor="middle" x="477" y="-145.79" font-family="Helvetica,sans-Serif" font-size="10.00">::get_next_io_unit</text>
</a>
</g>
</g>
<!-- Node13&#45;&gt;Node14 -->
<g id="edge21" class="edge">
<title>Node13&#45;&gt;Node14</title>
<path fill="none" stroke="midnightblue" d="M374.5,-118.79C389.63,-124.01 406.78,-129.92 422.61,-135.38"/>
<polygon fill="midnightblue" stroke="midnightblue" points="421.68,-138.76 432.28,-138.71 423.96,-132.14 421.68,-138.76"/>
</g>
<!-- Node14&#45;&gt;Node4 -->
<g id="edge22" class="edge">
<title>Node14&#45;&gt;Node4</title>
<path fill="none" stroke="midnightblue" d="M510.76,-168.81C518.19,-173.05 525.73,-178.09 532,-183.79 567.45,-216.03 596.35,-264.46 611.79,-293.41"/>
<polygon fill="midnightblue" stroke="midnightblue" points="608.77,-295.19 616.5,-302.43 614.97,-291.95 608.77,-295.19"/>
</g>
<!-- Node15&#45;&gt;Node4 -->
<g id="edge26" class="edge">
<title>Node15&#45;&gt;Node4</title>
<path fill="none" stroke="midnightblue" d="M523,-351.69C537.64,-346.78 554.05,-341.27 569.31,-336.14"/>
<polygon fill="midnightblue" stroke="midnightblue" points="570.79,-339.34 579.15,-332.84 568.56,-332.71 570.79,-339.34"/>
</g>
<!-- Node16&#45;&gt;Node4 -->
<g id="edge28" class="edge">
<title>Node16&#45;&gt;Node4</title>
<path fill="none" stroke="midnightblue" d="M521.8,-317.79C533.09,-317.79 545.49,-317.79 557.65,-317.79"/>
<polygon fill="midnightblue" stroke="midnightblue" points="557.77,-321.29 567.77,-317.79 557.77,-314.29 557.77,-321.29"/>
</g>
<!-- Node17&#45;&gt;Node4 -->
<g id="edge32" class="edge">
<title>Node17&#45;&gt;Node4</title>
<path fill="none" stroke="midnightblue" d="M201.61,-74.76C218.08,-60.03 245.55,-38.57 274,-29.79 383.93,4.12 443.34,22.52 532,-50.79 606.94,-112.76 620.98,-238.97 623.51,-292.68"/>
<polygon fill="midnightblue" stroke="midnightblue" points="620.01,-292.85 623.88,-302.71 627,-292.59 620.01,-292.85"/>
</g>
<!-- Node17&#45;&gt;Node7 -->
<g id="edge30" class="edge">
<title>Node17&#45;&gt;Node7</title>
<path fill="none" stroke="midnightblue" d="M238.03,-77.06C248.67,-74.45 259.93,-71.7 270.77,-69.04"/>
<polygon fill="midnightblue" stroke="midnightblue" points="271.69,-72.42 280.58,-66.64 270.03,-65.62 271.69,-72.42"/>
</g>
<!-- Node17&#45;&gt;Node13 -->
<g id="edge31" class="edge">
<title>Node17&#45;&gt;Node13</title>
<path fill="none" stroke="midnightblue" d="M238.03,-94.88C248.56,-95.91 259.7,-97.01 270.44,-98.06"/>
<polygon fill="midnightblue" stroke="midnightblue" points="270.28,-101.56 280.58,-99.05 270.96,-94.59 270.28,-101.56"/>
</g>
<!-- Node18&#45;&gt;Node4 -->
<g id="edge40" class="edge">
<title>Node18&#45;&gt;Node4</title>
<path fill="none" stroke="midnightblue" d="M206.36,-176C223.59,-188.25 249.36,-205.14 274,-215.79 382.84,-262.86 418.92,-248.08 532,-283.79 546.51,-288.37 562.11,-293.9 576.26,-299.15"/>
<polygon fill="midnightblue" stroke="midnightblue" points="575.2,-302.49 585.79,-302.73 577.66,-295.94 575.2,-302.49"/>
</g>
<!-- Node18&#45;&gt;Node7 -->
<g id="edge35" class="edge">
<title>Node18&#45;&gt;Node7</title>
<path fill="none" stroke="midnightblue" d="M203,-145.7C213.23,-136.56 226.46,-124.61 238,-113.79 254.28,-98.53 255.47,-91.23 274,-78.79 276.12,-77.37 278.34,-76 280.61,-74.68"/>
<polygon fill="midnightblue" stroke="midnightblue" points="282.43,-77.68 289.61,-69.89 279.14,-71.5 282.43,-77.68"/>
</g>
<!-- Node18&#45;&gt;Node13 -->
<g id="edge36" class="edge">
<title>Node18&#45;&gt;Node13</title>
<path fill="none" stroke="midnightblue" d="M223.95,-145.66C241.56,-138.64 262.69,-130.22 281.37,-122.78"/>
<polygon fill="midnightblue" stroke="midnightblue" points="282.88,-125.94 290.88,-118.99 280.29,-119.44 282.88,-125.94"/>
</g>
<!-- Node19 -->
<g id="node19" class="node">
<title>Node19</title>
<g id="a_node19"><a xlink:href="namespacebenam__class.html#ad20c821347dd5f7c08dff59c98e69657" target="_top" xlink:title="Returns the index number of isotope &#39;name&#39;.">
<polygon fill="white" stroke="black" points="276,-138.29 276,-157.29 384,-157.29 384,-138.29 276,-138.29"/>
<text text-anchor="middle" x="330" y="-145.29" font-family="Helvetica,sans-Serif" font-size="10.00">benam_class::benam</text>
</a>
</g>
</g>
<!-- Node18&#45;&gt;Node19 -->
<g id="edge34" class="edge">
<title>Node18&#45;&gt;Node19</title>
<path fill="none" stroke="midnightblue" d="M232.82,-156.53C243.36,-155.58 254.72,-154.54 265.8,-153.54"/>
<polygon fill="midnightblue" stroke="midnightblue" points="266.23,-157.01 275.88,-152.62 265.6,-150.04 266.23,-157.01"/>
</g>
<!-- Node20 -->
<g id="node20" class="node">
<title>Node20</title>
<g id="a_node20"><a xlink:href="namespacefile__handling__class.html#aeddf55e8478d6220dc04310665427c3a" target="_top" xlink:title="Shorthand for opening a new file for writing (output file)">
<polygon fill="white" stroke="black" points="281,-176.79 281,-206.79 379,-206.79 379,-176.79 281,-176.79"/>
<text text-anchor="start" x="289" y="-194.79" font-family="Helvetica,sans-Serif" font-size="10.00">file_handling_class</text>
<text text-anchor="middle" x="330" y="-183.79" font-family="Helvetica,sans-Serif" font-size="10.00">::open_outfile</text>
</a>
</g>
</g>
<!-- Node18&#45;&gt;Node20 -->
<g id="edge37" class="edge">
<title>Node18&#45;&gt;Node20</title>
<path fill="none" stroke="midnightblue" d="M232.82,-170.94C244.91,-173.56 258.06,-176.41 270.65,-179.14"/>
<polygon fill="midnightblue" stroke="midnightblue" points="270.08,-182.6 280.6,-181.3 271.57,-175.76 270.08,-182.6"/>
</g>
<!-- Node20&#45;&gt;Node4 -->
<g id="edge39" class="edge">
<title>Node20&#45;&gt;Node4</title>
<path fill="none" stroke="midnightblue" d="M379.15,-190.41C421.62,-191.11 484.05,-196.99 532,-221.79 564.58,-238.65 592.16,-271.56 608.4,-294.11"/>
<polygon fill="midnightblue" stroke="midnightblue" points="605.65,-296.29 614.25,-302.48 611.39,-292.28 605.65,-296.29"/>
</g>
<!-- Node20&#45;&gt;Node14 -->
<g id="edge38" class="edge">
<title>Node20&#45;&gt;Node14</title>
<path fill="none" stroke="midnightblue" d="M379.28,-179.14C391.76,-175.87 405.31,-172.32 418.21,-168.93"/>
<polygon fill="midnightblue" stroke="midnightblue" points="419.14,-172.31 427.93,-166.39 417.37,-165.54 419.14,-172.31"/>
</g>
</g>
</svg>
