<?xml version="1.0" encoding="UTF-8" standalone="no"?>
<!DOCTYPE svg PUBLIC "-//W3C//DTD SVG 1.1//EN"
 "http://www.w3.org/Graphics/SVG/1.1/DTD/svg11.dtd">
<!-- Generated by graphviz version 2.44.0 ()
 -->
<!-- Title: inter_module::inverse_interp1d Pages: 1 -->
<!--zoomable 268 -->
<svg id="main" version="1.1" xmlns="http://www.w3.org/2000/svg" xmlns:xlink="http://www.w3.org/1999/xlink" xml:space="preserve" onload="init(evt)">
<style type="text/css"><![CDATA[
.edge:hover path { stroke: red; }
.edge:hover polygon { stroke: red; fill: red; }
]]></style>
<script type="text/javascript"><![CDATA[
var edges = document.getElementsByTagName('g');
if (edges && edges.length) {
  for (var i=0;i<edges.length;i++) {
    if (edges[i].id.substr(0,4)=='edge') {
      edges[i].setAttribute('class','edge');
    }
  }
}
]]></script>
        <defs>
                <circle id="rim" cx="0" cy="0" r="7"/>
                <circle id="rim2" cx="0" cy="0" r="3.5"/>
                <g id="zoomPlus">
                        <use xlink:href="#rim" fill="#404040">
                                <set attributeName="fill" to="#808080" begin="zoomplus.mouseover" end="zoomplus.mouseout"/>
                        </use>
                        <path d="M-4,0h8M0,-4v8" fill="none" stroke="white" stroke-width="1.5" pointer-events="none"/>
                </g>
                <g id="zoomMin">
                        <use xlink:href="#rim" fill="#404040">
                                <set attributeName="fill" to="#808080" begin="zoomminus.mouseover" end="zoomminus.mouseout"/>
                        </use>
                        <path d="M-4,0h8" fill="none" stroke="white" stroke-width="1.5" pointer-events="none"/>
                </g>
                <g id="dirArrow">
                        <path fill="none" stroke="white" stroke-width="1.5" d="M0,-3.0v7 M-2.5,-0.5L0,-3.0L2.5,-0.5"/>
                </g>
               <g id="resetDef">
                       <use xlink:href="#rim2" fill="#404040">
                               <set attributeName="fill" to="#808080" begin="reset.mouseover" end="reset.mouseout"/>
                       </use>
               </g>
        </defs>

<script type="text/javascript">
var viewWidth = 727;
var viewHeight = 268;
var sectionId = 'dynsection-3';
</script>
<script xlink:href="svgpan.js"/>
<svg id="graph" class="graph">
<g id="viewport">
<title>inter_module::inverse_interp1d</title>
<polygon fill="white" stroke="transparent" points="-4,4 -4,-263.5 723,-263.5 723,4 -4,4"/>
<!-- Node1 -->
<g id="node1" class="node">
<title>Node1</title>
<g id="a_node1"><a xlink:title="The inverse of the 1D interpolation function.">
<polygon fill="#bfbfbf" stroke="black" points="0,-44.5 0,-74.5 108,-74.5 108,-44.5 0,-44.5"/>
<text text-anchor="start" x="8" y="-62.5" font-family="Helvetica,sans-Serif" font-size="10.00">inter_module::inverse</text>
<text text-anchor="middle" x="54" y="-51.5" font-family="Helvetica,sans-Serif" font-size="10.00">_interp1d</text>
</a>
</g>
</g>
<!-- Node2 -->
<g id="node2" class="node">
<title>Node2</title>
<g id="a_node2"><a xlink:href="namespaceinter__module.html#a0932d04c95a9a2d7e64b432d61d949d2" target="_top" xlink:title="The inverse of the 1D interpolation function.">
<polygon fill="white" stroke="black" points="151,-44.5 151,-74.5 259,-74.5 259,-44.5 151,-44.5"/>
<text text-anchor="start" x="159" y="-62.5" font-family="Helvetica,sans-Serif" font-size="10.00">inter_module::inverse</text>
<text text-anchor="middle" x="205" y="-51.5" font-family="Helvetica,sans-Serif" font-size="10.00">_brent</text>
</a>
</g>
</g>
<!-- Node1&#45;&gt;Node2 -->
<g id="edge1" class="edge">
<title>Node1&#45;&gt;Node2</title>
<path fill="none" stroke="midnightblue" d="M108.37,-59.5C118.81,-59.5 129.86,-59.5 140.59,-59.5"/>
<polygon fill="midnightblue" stroke="midnightblue" points="140.75,-63 150.75,-59.5 140.75,-56 140.75,-63"/>
</g>
<!-- Node11 -->
<g id="node11" class="node">
<title>Node11</title>
<g id="a_node11"><a xlink:href="namespaceerror__msg__class.html#a2453d3b7cb363115c046840baa1dfb75" target="_top" xlink:title="Raise a exception with a given error message.">
<polygon fill="white" stroke="black" points="457,-0.5 457,-30.5 571,-30.5 571,-0.5 457,-0.5"/>
<text text-anchor="start" x="465" y="-18.5" font-family="Helvetica,sans-Serif" font-size="10.00">error_msg_class::raise</text>
<text text-anchor="middle" x="514" y="-7.5" font-family="Helvetica,sans-Serif" font-size="10.00">_exception</text>
</a>
</g>
</g>
<!-- Node1&#45;&gt;Node11 -->
<g id="edge15" class="edge">
<title>Node1&#45;&gt;Node11</title>
<path fill="none" stroke="midnightblue" d="M101.21,-44.42C114.85,-40.54 129.9,-36.81 144,-34.5 248.89,-17.29 372.6,-14.4 446.81,-14.5"/>
<polygon fill="midnightblue" stroke="midnightblue" points="446.94,-18 456.95,-14.53 446.96,-11 446.94,-18"/>
</g>
<!-- Node12 -->
<g id="node12" class="node">
<title>Node12</title>
<g id="a_node12"><a xlink:href="namespaceinter__module.html#a07efb22c559d2d062f15dc5011eb557f" target="_top" xlink:title="The inverse of the 1D interpolation function.">
<polygon fill="white" stroke="black" points="144,-94 144,-113 266,-113 266,-94 144,-94"/>
<text text-anchor="middle" x="205" y="-101" font-family="Helvetica,sans-Serif" font-size="10.00">inter_module::inverse_nr</text>
</a>
</g>
</g>
<!-- Node1&#45;&gt;Node12 -->
<g id="edge13" class="edge">
<title>Node1&#45;&gt;Node12</title>
<path fill="none" stroke="midnightblue" d="M105.86,-74.52C124.04,-79.89 144.32,-85.88 161.7,-91.01"/>
<polygon fill="midnightblue" stroke="midnightblue" points="160.98,-94.45 171.56,-93.92 162.97,-87.73 160.98,-94.45"/>
</g>
<!-- Node3 -->
<g id="node3" class="node">
<title>Node3</title>
<g id="a_node3"><a xlink:href="namespaceinter__module.html#a206d3ceb40bd2e40d41c462a31ad057e" target="_top" xlink:title="Interface for 1D interpolation routines.">
<polygon fill="white" stroke="black" points="302,-94 302,-113 413,-113 413,-94 302,-94"/>
<text text-anchor="middle" x="357.5" y="-101" font-family="Helvetica,sans-Serif" font-size="10.00">inter_module::interp1d</text>
</a>
</g>
</g>
<!-- Node2&#45;&gt;Node3 -->
<g id="edge2" class="edge">
<title>Node2&#45;&gt;Node3</title>
<path fill="none" stroke="midnightblue" d="M257.37,-74.52C275.74,-79.89 296.22,-85.88 313.78,-91.01"/>
<polygon fill="midnightblue" stroke="midnightblue" points="313.16,-94.47 323.74,-93.92 315.12,-87.76 313.16,-94.47"/>
</g>
<!-- Node2&#45;&gt;Node11 -->
<g id="edge12" class="edge">
<title>Node2&#45;&gt;Node11</title>
<path fill="none" stroke="midnightblue" d="M259.12,-51.89C311.15,-44.43 390.56,-33.05 446.69,-25"/>
<polygon fill="midnightblue" stroke="midnightblue" points="447.49,-28.42 456.89,-23.54 446.5,-21.5 447.49,-28.42"/>
</g>
<!-- Node4 -->
<g id="node4" class="node">
<title>Node4</title>
<g id="a_node4"><a xlink:href="namespaceinter__module.html#a0f02e3fce3429d031516cf2f47f521de" target="_top" xlink:title="Interpolation using prescription of Akima.">
<polygon fill="white" stroke="black" points="453,-202 453,-221 575,-221 575,-202 453,-202"/>
<text text-anchor="middle" x="514" y="-209" font-family="Helvetica,sans-Serif" font-size="10.00">inter_module::akimainter</text>
</a>
</g>
</g>
<!-- Node3&#45;&gt;Node4 -->
<g id="edge3" class="edge">
<title>Node3&#45;&gt;Node4</title>
<path fill="none" stroke="midnightblue" d="M365.59,-113.09C379.53,-131.28 412.37,-170.9 449,-192.5 452.65,-194.65 456.56,-196.58 460.59,-198.3"/>
<polygon fill="midnightblue" stroke="midnightblue" points="459.53,-201.64 470.12,-201.94 462.03,-195.1 459.53,-201.64"/>
</g>
<!-- Node5 -->
<g id="node5" class="node">
<title>Node5</title>
<g id="a_node5"><a xlink:href="namespaceinter__module.html#a5a696cd56302b2491c59781808af4c08" target="_top" xlink:title="Cubic interpolation in log&#45;log space. Here, it is assumed that.">
<polygon fill="white" stroke="black" points="458.5,-164 458.5,-183 569.5,-183 569.5,-164 458.5,-164"/>
<text text-anchor="middle" x="514" y="-171" font-family="Helvetica,sans-Serif" font-size="10.00">inter_module::cubinter</text>
</a>
</g>
</g>
<!-- Node3&#45;&gt;Node5 -->
<g id="edge4" class="edge">
<title>Node3&#45;&gt;Node5</title>
<path fill="none" stroke="midnightblue" d="M375.91,-113.08C393.93,-122.82 423.03,-138.07 449,-149.5 457.61,-153.29 467.03,-157.04 475.93,-160.4"/>
<polygon fill="midnightblue" stroke="midnightblue" points="474.73,-163.69 485.32,-163.89 477.17,-157.12 474.73,-163.69"/>
</g>
<!-- Node6 -->
<g id="node6" class="node">
<title>Node6</title>
<g id="a_node6"><a xlink:href="namespaceerror__msg__class.html#a7e065585cc806a5c264de1f088266498" target="_top" xlink:title="Converts a given integer to a string.">
<polygon fill="white" stroke="black" points="615,-60.5 615,-90.5 719,-90.5 719,-60.5 615,-60.5"/>
<text text-anchor="start" x="623" y="-78.5" font-family="Helvetica,sans-Serif" font-size="10.00">error_msg_class::int</text>
<text text-anchor="middle" x="667" y="-67.5" font-family="Helvetica,sans-Serif" font-size="10.00">_to_str</text>
</a>
</g>
</g>
<!-- Node3&#45;&gt;Node6 -->
<g id="edge5" class="edge">
<title>Node3&#45;&gt;Node6</title>
<path fill="none" stroke="midnightblue" d="M401.75,-113.04C446.63,-121.31 518.56,-130.03 579,-116.5 597.66,-112.32 617.04,-103.68 632.75,-95.4"/>
<polygon fill="midnightblue" stroke="midnightblue" points="634.45,-98.46 641.55,-90.6 631.1,-92.32 634.45,-98.46"/>
</g>
<!-- Node7 -->
<g id="node7" class="node">
<title>Node7</title>
<g id="a_node7"><a xlink:href="namespaceinter__module.html#ac57284b6bef315c7066a880358ae0862" target="_top" xlink:title="Linear interpolation in lin&#45;log space.">
<polygon fill="white" stroke="black" points="461.5,-88 461.5,-107 566.5,-107 566.5,-88 461.5,-88"/>
<text text-anchor="middle" x="514" y="-95" font-family="Helvetica,sans-Serif" font-size="10.00">inter_module::lininter</text>
</a>
</g>
</g>
<!-- Node3&#45;&gt;Node7 -->
<g id="edge6" class="edge">
<title>Node3&#45;&gt;Node7</title>
<path fill="none" stroke="midnightblue" d="M413.41,-101.37C425.6,-100.89 438.61,-100.39 451.07,-99.91"/>
<polygon fill="midnightblue" stroke="midnightblue" points="451.52,-103.39 461.37,-99.5 451.24,-96.4 451.52,-103.39"/>
</g>
<!-- Node8 -->
<g id="node8" class="node">
<title>Node8</title>
<g id="a_node8"><a xlink:href="namespaceinter__module.html#a338de641fc764e51a6ce814e25e70ef2" target="_top" xlink:title="Interpolation using modified prescription of Akima.">
<polygon fill="white" stroke="black" points="449,-50 449,-69 579,-69 579,-50 449,-50"/>
<text text-anchor="middle" x="514" y="-57" font-family="Helvetica,sans-Serif" font-size="10.00">inter_module::makimainter</text>
</a>
</g>
</g>
<!-- Node3&#45;&gt;Node8 -->
<g id="edge7" class="edge">
<title>Node3&#45;&gt;Node8</title>
<path fill="none" stroke="midnightblue" d="M392.02,-93.95C414.8,-87.47 445.14,-78.83 469.74,-71.82"/>
<polygon fill="midnightblue" stroke="midnightblue" points="470.88,-75.13 479.54,-69.03 468.96,-68.4 470.88,-75.13"/>
</g>
<!-- Node9 -->
<g id="node9" class="node">
<title>Node9</title>
<g id="a_node9"><a xlink:href="namespaceinter__module.html#a4b1d9613e140541539a602d2f985b5c7" target="_top" xlink:title="PCHIP interpolation in lin&#45;log space.">
<polygon fill="white" stroke="black" points="454.5,-240 454.5,-259 573.5,-259 573.5,-240 454.5,-240"/>
<text text-anchor="middle" x="514" y="-247" font-family="Helvetica,sans-Serif" font-size="10.00">inter_module::pchipinter</text>
</a>
</g>
</g>
<!-- Node3&#45;&gt;Node9 -->
<g id="edge8" class="edge">
<title>Node3&#45;&gt;Node9</title>
<path fill="none" stroke="midnightblue" d="M362.62,-113.12C373.27,-136.81 404.05,-198.4 449,-230.5 451.82,-232.51 454.86,-234.32 458.02,-235.93"/>
<polygon fill="midnightblue" stroke="midnightblue" points="456.62,-239.14 467.18,-239.99 459.46,-232.74 456.62,-239.14"/>
</g>
<!-- Node3&#45;&gt;Node11 -->
<g id="edge10" class="edge">
<title>Node3&#45;&gt;Node11</title>
<path fill="none" stroke="midnightblue" d="M376.11,-93.74C386.99,-87.49 401.11,-78.98 413,-70.5 429.96,-58.41 431.07,-51.09 449,-40.5 452.37,-38.51 455.93,-36.62 459.57,-34.83"/>
<polygon fill="midnightblue" stroke="midnightblue" points="461.11,-37.98 468.74,-30.62 458.19,-31.62 461.11,-37.98"/>
</g>
<!-- Node10 -->
<g id="node10" class="node">
<title>Node10</title>
<g id="a_node10"><a xlink:href="quadpack__module_8f90.html#aada5a652920db442d627f1ca24ff25d7" target="_top" xlink:title="Further information: http://netlib.org/quadpack/index.html https://orion.math.iastate....">
<polygon fill="white" stroke="black" points="652.5,-240 652.5,-259 681.5,-259 681.5,-240 652.5,-240"/>
<text text-anchor="middle" x="667" y="-247" font-family="Helvetica,sans-Serif" font-size="10.00">pi</text>
</a>
</g>
</g>
<!-- Node9&#45;&gt;Node10 -->
<g id="edge9" class="edge">
<title>Node9&#45;&gt;Node10</title>
<path fill="none" stroke="midnightblue" d="M573.81,-249.5C597.65,-249.5 623.83,-249.5 642.18,-249.5"/>
<polygon fill="midnightblue" stroke="midnightblue" points="642.25,-253 652.25,-249.5 642.25,-246 642.25,-253"/>
</g>
<!-- Node11&#45;&gt;Node6 -->
<g id="edge11" class="edge">
<title>Node11&#45;&gt;Node6</title>
<path fill="none" stroke="midnightblue" d="M553.61,-30.51C561.98,-33.79 570.79,-37.25 579,-40.5 592.15,-45.71 606.4,-51.42 619.49,-56.69"/>
<polygon fill="midnightblue" stroke="midnightblue" points="618.19,-59.94 628.78,-60.43 620.81,-53.45 618.19,-59.94"/>
</g>
<!-- Node12&#45;&gt;Node3 -->
<g id="edge14" class="edge">
<title>Node12&#45;&gt;Node3</title>
<path fill="none" stroke="midnightblue" d="M266.35,-103.5C274.72,-103.5 283.35,-103.5 291.79,-103.5"/>
<polygon fill="midnightblue" stroke="midnightblue" points="291.98,-107 301.98,-103.5 291.98,-100 291.98,-107"/>
</g>
</g>
</svg>
        <g id="navigator" transform="translate(0 0)" fill="#404254">
                <rect fill="#f2f5e9" fill-opacity="0.5" stroke="#606060" stroke-width=".5" x="0" y="0" width="60" height="60"/>
                <use id="zoomplus" xlink:href="#zoomPlus" x="17" y="9" onmousedown="handleZoom(evt,'in')"/>
                <use id="zoomminus" xlink:href="#zoomMin" x="42" y="9" onmousedown="handleZoom(evt,'out')"/>
                <use id="reset" xlink:href="#resetDef" x="30" y="36" onmousedown="handleReset()"/>
                <g id="arrowUp" xlink:href="#dirArrow" transform="translate(30 24)" onmousedown="handlePan(0,-1)">
                  <use xlink:href="#rim" fill="#404040">
                        <set attributeName="fill" to="#808080" begin="arrowUp.mouseover" end="arrowUp.mouseout"/>
                  </use>
                  <path fill="none" stroke="white" stroke-width="1.5" d="M0,-3.0v7 M-2.5,-0.5L0,-3.0L2.5,-0.5"/>
                </g>
                <g id="arrowRight" xlink:href="#dirArrow" transform="rotate(90) translate(36 -43)" onmousedown="handlePan(1,0)">
                  <use xlink:href="#rim" fill="#404040">
                        <set attributeName="fill" to="#808080" begin="arrowRight.mouseover" end="arrowRight.mouseout"/>
                  </use>
                  <path fill="none" stroke="white" stroke-width="1.5" d="M0,-3.0v7 M-2.5,-0.5L0,-3.0L2.5,-0.5"/>
                </g>
                <g id="arrowDown" xlink:href="#dirArrow" transform="rotate(180) translate(-30 -48)" onmousedown="handlePan(0,1)">
                  <use xlink:href="#rim" fill="#404040">
                        <set attributeName="fill" to="#808080" begin="arrowDown.mouseover" end="arrowDown.mouseout"/>
                  </use>
                  <path fill="none" stroke="white" stroke-width="1.5" d="M0,-3.0v7 M-2.5,-0.5L0,-3.0L2.5,-0.5"/>
                </g>
                <g id="arrowLeft" xlink:href="#dirArrow" transform="rotate(270) translate(-36 17)" onmousedown="handlePan(-1,0)">
                  <use xlink:href="#rim" fill="#404040">
                        <set attributeName="fill" to="#808080" begin="arrowLeft.mouseover" end="arrowLeft.mouseout"/>
                  </use>
                  <path fill="none" stroke="white" stroke-width="1.5" d="M0,-3.0v7 M-2.5,-0.5L0,-3.0L2.5,-0.5"/>
                </g>
        </g>
        <svg viewBox="0 0 15 15" width="100%" height="30px" preserveAspectRatio="xMaxYMin meet">
         <g id="arrow_out" transform="scale(0.3 0.3)">
          <a xlink:href="namespaceinter__module_a85d255cd45a8968d3c7aa70b6d3eb6f3_cgraph_org.svg" target="_base">
           <rect id="button" ry="5" rx="5" y="6" x="6" height="38" width="38"
                fill="#f2f5e9" fill-opacity="0.5" stroke="#606060" stroke-width="1.0"/>
           <path id="arrow"
             d="M 11.500037,31.436501 C 11.940474,20.09759 22.043105,11.32322 32.158766,21.979434 L 37.068811,17.246167 C 37.068811,17.246167 37.088388,32 37.088388,32 L 22.160133,31.978069 C 22.160133,31.978069 26.997745,27.140456 26.997745,27.140456 C 18.528582,18.264221 13.291696,25.230495 11.500037,31.436501 z"
             style="fill:#404040;"/>
          </a>
         </g>
        </svg>
</svg>
