<?xml version="1.0" encoding="UTF-8" standalone="no"?>
<!DOCTYPE svg PUBLIC "-//W3C//DTD SVG 1.1//EN"
 "http://www.w3.org/Graphics/SVG/1.1/DTD/svg11.dtd">
<!-- Generated by graphviz version 2.44.0 ()
 -->
<!-- Title: detailed_balance::write_reac_rate Pages: 1 -->
<svg width="752pt" height="269pt"
 viewBox="0.00 0.00 752.00 268.50" xmlns="http://www.w3.org/2000/svg" xmlns:xlink="http://www.w3.org/1999/xlink">
<g id="graph0" class="graph" transform="scale(1 1) rotate(0) translate(4 264.5)">
<title>detailed_balance::write_reac_rate</title>
<polygon fill="white" stroke="transparent" points="-4,4 -4,-264.5 748,-264.5 748,4 -4,4"/>
<!-- Node1 -->
<g id="node1" class="node">
<title>Node1</title>
<g id="a_node1"><a xlink:title="Verbose routine to output one inverse reaction of chapter 4&#45;9.">
<polygon fill="#bfbfbf" stroke="black" points="0,-117.5 0,-147.5 115,-147.5 115,-117.5 0,-117.5"/>
<text text-anchor="start" x="8" y="-135.5" font-family="Helvetica,sans-Serif" font-size="10.00">detailed_balance::write</text>
<text text-anchor="middle" x="57.5" y="-124.5" font-family="Helvetica,sans-Serif" font-size="10.00">_reac_rate</text>
</a>
</g>
</g>
<!-- Node2 -->
<g id="node2" class="node">
<title>Node2</title>
<g id="a_node2"><a xlink:href="namespacebenam__class.html#ad20c821347dd5f7c08dff59c98e69657" target="_top" xlink:title="Returns the index number of isotope &#39;name&#39;.">
<polygon fill="white" stroke="black" points="151,-241 151,-260 259,-260 259,-241 151,-241"/>
<text text-anchor="middle" x="205" y="-248" font-family="Helvetica,sans-Serif" font-size="10.00">benam_class::benam</text>
</a>
</g>
</g>
<!-- Node1&#45;&gt;Node2 -->
<g id="edge1" class="edge">
<title>Node1&#45;&gt;Node2</title>
<path fill="none" stroke="midnightblue" d="M69.38,-147.82C85.16,-169.05 116.34,-207.42 151,-230.5 154.55,-232.86 158.41,-235 162.38,-236.91"/>
<polygon fill="midnightblue" stroke="midnightblue" points="161.18,-240.21 171.74,-241 163.98,-233.79 161.18,-240.21"/>
</g>
<!-- Node3 -->
<g id="node3" class="node">
<title>Node3</title>
<g id="a_node3"><a xlink:href="namespacenucstuff__class.html#a54b0d5681c0193e0b2276911713242e9" target="_top" xlink:title="A helper to compute powers of temperature used in the reaction rates.">
<polygon fill="white" stroke="black" points="154,-191.5 154,-221.5 256,-221.5 256,-191.5 154,-191.5"/>
<text text-anchor="start" x="162" y="-209.5" font-family="Helvetica,sans-Serif" font-size="10.00">nucstuff_class::calc</text>
<text text-anchor="middle" x="205" y="-198.5" font-family="Helvetica,sans-Serif" font-size="10.00">_t9_pow</text>
</a>
</g>
</g>
<!-- Node1&#45;&gt;Node3 -->
<g id="edge2" class="edge">
<title>Node1&#45;&gt;Node3</title>
<path fill="none" stroke="midnightblue" d="M86.26,-147.63C104.54,-157.5 129.06,-170.52 151,-181.5 154.58,-183.29 158.32,-185.13 162.07,-186.94"/>
<polygon fill="midnightblue" stroke="midnightblue" points="160.84,-190.23 171.37,-191.4 163.87,-183.92 160.84,-190.23"/>
</g>
<!-- Node4 -->
<g id="node4" class="node">
<title>Node4</title>
<g id="a_node4"><a xlink:href="namespacedetailed__balance.html#a4c2ebb1580b34cd40aca41258ba5c8b7" target="_top" xlink:title="Calculate the inverse rate from the forward one via detailed balance.">
<polygon fill="white" stroke="black" points="295,-49.5 295,-79.5 428,-79.5 428,-49.5 295,-49.5"/>
<text text-anchor="start" x="303" y="-67.5" font-family="Helvetica,sans-Serif" font-size="10.00">detailed_balance::calculate</text>
<text text-anchor="middle" x="361.5" y="-56.5" font-family="Helvetica,sans-Serif" font-size="10.00">_detailed_balance</text>
</a>
</g>
</g>
<!-- Node1&#45;&gt;Node4 -->
<g id="edge3" class="edge">
<title>Node1&#45;&gt;Node4</title>
<path fill="none" stroke="midnightblue" d="M80.97,-117.32C99.06,-105.93 125.57,-91.06 151,-83.5 194.08,-70.7 244.16,-65.82 284.55,-64.19"/>
<polygon fill="midnightblue" stroke="midnightblue" points="284.73,-67.69 294.6,-63.85 284.49,-60.69 284.73,-67.69"/>
</g>
<!-- Node7 -->
<g id="node7" class="node">
<title>Node7</title>
<g id="a_node7"><a xlink:href="namespacereaclib__rate__module.html#a531d2052a5c27ee57c14c22159d1fbfe" target="_top" xlink:title="Calculate a reaclib rate.">
<polygon fill="white" stroke="black" points="151,-142.5 151,-172.5 259,-172.5 259,-142.5 151,-142.5"/>
<text text-anchor="start" x="159" y="-160.5" font-family="Helvetica,sans-Serif" font-size="10.00">reaclib_rate_module</text>
<text text-anchor="middle" x="205" y="-149.5" font-family="Helvetica,sans-Serif" font-size="10.00">::calculate_reacl_rate</text>
</a>
</g>
</g>
<!-- Node1&#45;&gt;Node7 -->
<g id="edge6" class="edge">
<title>Node1&#45;&gt;Node7</title>
<path fill="none" stroke="midnightblue" d="M115.17,-142.24C123.54,-143.68 132.22,-145.17 140.71,-146.63"/>
<polygon fill="midnightblue" stroke="midnightblue" points="140.13,-150.08 150.58,-148.32 141.32,-143.18 140.13,-150.08"/>
</g>
<!-- Node10 -->
<g id="node10" class="node">
<title>Node10</title>
<g id="a_node10"><a xlink:href="namespacefile__handling__class.html#a01ba26324d7662cc0fb2e0eb306cd3e2" target="_top" xlink:title="Close an external file.">
<polygon fill="white" stroke="black" points="312.5,-0.5 312.5,-30.5 410.5,-30.5 410.5,-0.5 312.5,-0.5"/>
<text text-anchor="start" x="320.5" y="-18.5" font-family="Helvetica,sans-Serif" font-size="10.00">file_handling_class</text>
<text text-anchor="middle" x="361.5" y="-7.5" font-family="Helvetica,sans-Serif" font-size="10.00">::close_io_file</text>
</a>
</g>
</g>
<!-- Node1&#45;&gt;Node10 -->
<g id="edge9" class="edge">
<title>Node1&#45;&gt;Node10</title>
<path fill="none" stroke="midnightblue" d="M74.14,-117.26C91.5,-101.22 121.04,-76.4 151,-62.5 199.37,-40.07 259.09,-28.03 302.37,-21.77"/>
<polygon fill="midnightblue" stroke="midnightblue" points="303.03,-25.22 312.45,-20.38 302.07,-18.28 303.03,-25.22"/>
</g>
<!-- Node11 -->
<g id="node11" class="node">
<title>Node11</title>
<g id="a_node11"><a xlink:href="namespacefile__handling__class.html#aeddf55e8478d6220dc04310665427c3a" target="_top" xlink:title="Shorthand for opening a new file for writing (output file)">
<polygon fill="white" stroke="black" points="156,-93.5 156,-123.5 254,-123.5 254,-93.5 156,-93.5"/>
<text text-anchor="start" x="164" y="-111.5" font-family="Helvetica,sans-Serif" font-size="10.00">file_handling_class</text>
<text text-anchor="middle" x="205" y="-100.5" font-family="Helvetica,sans-Serif" font-size="10.00">::open_outfile</text>
</a>
</g>
</g>
<!-- Node1&#45;&gt;Node11 -->
<g id="edge12" class="edge">
<title>Node1&#45;&gt;Node11</title>
<path fill="none" stroke="midnightblue" d="M115.17,-123.15C125.22,-121.49 135.71,-119.76 145.81,-118.1"/>
<polygon fill="midnightblue" stroke="midnightblue" points="146.44,-121.54 155.74,-116.46 145.3,-114.63 146.44,-121.54"/>
</g>
<!-- Node5 -->
<g id="node5" class="node">
<title>Node5</title>
<g id="a_node5"><a xlink:href="namespaceerror__msg__class.html#a2453d3b7cb363115c046840baa1dfb75" target="_top" xlink:title="Raise a exception with a given error message.">
<polygon fill="white" stroke="black" points="477,-49.5 477,-79.5 591,-79.5 591,-49.5 477,-49.5"/>
<text text-anchor="start" x="485" y="-67.5" font-family="Helvetica,sans-Serif" font-size="10.00">error_msg_class::raise</text>
<text text-anchor="middle" x="534" y="-56.5" font-family="Helvetica,sans-Serif" font-size="10.00">_exception</text>
</a>
</g>
</g>
<!-- Node4&#45;&gt;Node5 -->
<g id="edge4" class="edge">
<title>Node4&#45;&gt;Node5</title>
<path fill="none" stroke="midnightblue" d="M428.42,-64.5C440.94,-64.5 454.04,-64.5 466.58,-64.5"/>
<polygon fill="midnightblue" stroke="midnightblue" points="466.95,-68 476.95,-64.5 466.95,-61 466.95,-68"/>
</g>
<!-- Node6 -->
<g id="node6" class="node">
<title>Node6</title>
<g id="a_node6"><a xlink:href="namespaceerror__msg__class.html#a7e065585cc806a5c264de1f088266498" target="_top" xlink:title="Converts a given integer to a string.">
<polygon fill="white" stroke="black" points="640,-25.5 640,-55.5 744,-55.5 744,-25.5 640,-25.5"/>
<text text-anchor="start" x="648" y="-43.5" font-family="Helvetica,sans-Serif" font-size="10.00">error_msg_class::int</text>
<text text-anchor="middle" x="692" y="-32.5" font-family="Helvetica,sans-Serif" font-size="10.00">_to_str</text>
</a>
</g>
</g>
<!-- Node5&#45;&gt;Node6 -->
<g id="edge5" class="edge">
<title>Node5&#45;&gt;Node6</title>
<path fill="none" stroke="midnightblue" d="M591.32,-55.84C603.85,-53.91 617.2,-51.85 629.91,-49.9"/>
<polygon fill="midnightblue" stroke="midnightblue" points="630.6,-53.33 639.95,-48.35 629.53,-46.42 630.6,-53.33"/>
</g>
<!-- Node8 -->
<g id="node8" class="node">
<title>Node8</title>
<g id="a_node8"><a xlink:href="namespacebenam__class.html#a2e85786a53d55231776ae950b7b27953" target="_top" xlink:title="Return a string to represent a given reaction.">
<polygon fill="white" stroke="black" points="305,-186.5 305,-216.5 418,-216.5 418,-186.5 305,-186.5"/>
<text text-anchor="start" x="313" y="-204.5" font-family="Helvetica,sans-Serif" font-size="10.00">benam_class::reaction</text>
<text text-anchor="middle" x="361.5" y="-193.5" font-family="Helvetica,sans-Serif" font-size="10.00">_string</text>
</a>
</g>
</g>
<!-- Node7&#45;&gt;Node8 -->
<g id="edge7" class="edge">
<title>Node7&#45;&gt;Node8</title>
<path fill="none" stroke="midnightblue" d="M258.74,-172.52C271.35,-176.11 284.93,-179.98 297.93,-183.68"/>
<polygon fill="midnightblue" stroke="midnightblue" points="297.16,-187.1 307.74,-186.47 299.08,-180.37 297.16,-187.1"/>
</g>
<!-- Node9 -->
<g id="node9" class="node">
<title>Node9</title>
<g id="a_node9"><a xlink:href="namespacebenam__class.html#afd880df70f94c289b6bda0647f4494e3" target="_top" xlink:title="Getter of net_names, translating indices to a nucleus name.">
<polygon fill="white" stroke="black" points="464,-192 464,-211 604,-211 604,-192 464,-192"/>
<text text-anchor="middle" x="534" y="-199" font-family="Helvetica,sans-Serif" font-size="10.00">benam_class::get_net_name</text>
</a>
</g>
</g>
<!-- Node8&#45;&gt;Node9 -->
<g id="edge8" class="edge">
<title>Node8&#45;&gt;Node9</title>
<path fill="none" stroke="midnightblue" d="M418.33,-201.5C429.71,-201.5 441.89,-201.5 453.9,-201.5"/>
<polygon fill="midnightblue" stroke="midnightblue" points="453.94,-205 463.94,-201.5 453.94,-198 453.94,-205"/>
</g>
<!-- Node10&#45;&gt;Node5 -->
<g id="edge11" class="edge">
<title>Node10&#45;&gt;Node5</title>
<path fill="none" stroke="midnightblue" d="M410.9,-29.41C429.52,-34.76 451.03,-40.94 470.77,-46.61"/>
<polygon fill="midnightblue" stroke="midnightblue" points="470.02,-50.04 480.59,-49.44 471.95,-43.31 470.02,-50.04"/>
</g>
<!-- Node10&#45;&gt;Node6 -->
<g id="edge10" class="edge">
<title>Node10&#45;&gt;Node6</title>
<path fill="none" stroke="midnightblue" d="M410.62,-19.16C468.61,-23.58 566.13,-31 629.52,-35.82"/>
<polygon fill="midnightblue" stroke="midnightblue" points="629.54,-39.33 639.78,-36.6 630.07,-32.35 629.54,-39.33"/>
</g>
<!-- Node11&#45;&gt;Node5 -->
<g id="edge15" class="edge">
<title>Node11&#45;&gt;Node5</title>
<path fill="none" stroke="midnightblue" d="M254.3,-106.03C299.43,-103.28 368.57,-97.93 428,-88.5 440.61,-86.5 453.95,-83.86 466.75,-81.07"/>
<polygon fill="midnightblue" stroke="midnightblue" points="467.88,-84.4 476.87,-78.8 466.35,-77.57 467.88,-84.4"/>
</g>
<!-- Node12 -->
<g id="node12" class="node">
<title>Node12</title>
<g id="a_node12"><a xlink:href="namespacefile__handling__class.html#af02196bd5eaf70ecd5ab4cc650094d5e" target="_top" xlink:title="Finds the next unused unit number.">
<polygon fill="white" stroke="black" points="312.5,-137.5 312.5,-167.5 410.5,-167.5 410.5,-137.5 312.5,-137.5"/>
<text text-anchor="start" x="320.5" y="-155.5" font-family="Helvetica,sans-Serif" font-size="10.00">file_handling_class</text>
<text text-anchor="middle" x="361.5" y="-144.5" font-family="Helvetica,sans-Serif" font-size="10.00">::get_next_io_unit</text>
</a>
</g>
</g>
<!-- Node11&#45;&gt;Node12 -->
<g id="edge13" class="edge">
<title>Node11&#45;&gt;Node12</title>
<path fill="none" stroke="midnightblue" d="M254.04,-122.18C269.44,-126.57 286.67,-131.47 302.69,-136.04"/>
<polygon fill="midnightblue" stroke="midnightblue" points="301.92,-139.45 312.49,-138.83 303.83,-132.72 301.92,-139.45"/>
</g>
<!-- Node12&#45;&gt;Node5 -->
<g id="edge14" class="edge">
<title>Node12&#45;&gt;Node5</title>
<path fill="none" stroke="midnightblue" d="M396.73,-137.41C406.87,-132.78 417.95,-127.57 428,-122.5 451.7,-110.55 477.84,-96.12 498.1,-84.64"/>
<polygon fill="midnightblue" stroke="midnightblue" points="500.01,-87.58 506.97,-79.59 496.55,-81.5 500.01,-87.58"/>
</g>
</g>
</svg>
