<?xml version="1.0" encoding="UTF-8" standalone="no"?>
<!DOCTYPE svg PUBLIC "-//W3C//DTD SVG 1.1//EN"
 "http://www.w3.org/Graphics/SVG/1.1/DTD/svg11.dtd">
<!-- Generated by graphviz version 2.44.0 ()
 -->
<!-- Title: alpha_decay_rate_module::unify_rate_array Pages: 1 -->
<svg width="941pt" height="329pt"
 viewBox="0.00 0.00 941.00 329.00" xmlns="http://www.w3.org/2000/svg" xmlns:xlink="http://www.w3.org/1999/xlink">
<g id="graph0" class="graph" transform="scale(1 1) rotate(0) translate(4 325)">
<title>alpha_decay_rate_module::unify_rate_array</title>
<polygon fill="white" stroke="transparent" points="-4,4 -4,-325 937,-325 937,4 -4,4"/>
<!-- Node1 -->
<g id="node1" class="node">
<title>Node1</title>
<g id="a_node1"><a xlink:title="Merge reaclib rates and alpha decays into one array.">
<polygon fill="#bfbfbf" stroke="black" points="0,-82.5 0,-112.5 129,-112.5 129,-82.5 0,-82.5"/>
<text text-anchor="start" x="8" y="-100.5" font-family="Helvetica,sans-Serif" font-size="10.00">alpha_decay_rate_module</text>
<text text-anchor="middle" x="64.5" y="-89.5" font-family="Helvetica,sans-Serif" font-size="10.00">::unify_rate_array</text>
</a>
</g>
</g>
<!-- Node2 -->
<g id="node2" class="node">
<title>Node2</title>
<g id="a_node2"><a xlink:href="namespacealpha__decay__rate__module.html#a64a50cc5ce3adb78bef569f79dda8d4f" target="_top" xlink:title="Creates a file with the decays.">
<polygon fill="white" stroke="black" points="165,-181.5 165,-211.5 302,-211.5 302,-181.5 165,-181.5"/>
<text text-anchor="start" x="173" y="-199.5" font-family="Helvetica,sans-Serif" font-size="10.00">alpha_decay_rate_module</text>
<text text-anchor="middle" x="233.5" y="-188.5" font-family="Helvetica,sans-Serif" font-size="10.00">::create_verbose_output_file</text>
</a>
</g>
</g>
<!-- Node1&#45;&gt;Node2 -->
<g id="edge1" class="edge">
<title>Node1&#45;&gt;Node2</title>
<path fill="none" stroke="midnightblue" d="M90.86,-112.54C119.52,-129.52 166.3,-157.25 198.19,-176.16"/>
<polygon fill="midnightblue" stroke="midnightblue" points="196.78,-179.4 207.17,-181.49 200.35,-173.37 196.78,-179.4"/>
</g>
<!-- Node5 -->
<g id="node5" class="node">
<title>Node5</title>
<g id="a_node5"><a xlink:href="namespaceerror__msg__class.html#a2453d3b7cb363115c046840baa1dfb75" target="_top" xlink:title="Raise a exception with a given error message.">
<polygon fill="white" stroke="black" points="679,-186.5 679,-216.5 793,-216.5 793,-186.5 679,-186.5"/>
<text text-anchor="start" x="687" y="-204.5" font-family="Helvetica,sans-Serif" font-size="10.00">error_msg_class::raise</text>
<text text-anchor="middle" x="736" y="-193.5" font-family="Helvetica,sans-Serif" font-size="10.00">_exception</text>
</a>
</g>
</g>
<!-- Node1&#45;&gt;Node5 -->
<g id="edge12" class="edge">
<title>Node1&#45;&gt;Node5</title>
<path fill="none" stroke="midnightblue" d="M129.14,-106.92C141.04,-108.55 153.39,-110.15 165,-111.5 376.91,-136.15 437.83,-97.01 643,-155.5 663.58,-161.37 685.04,-171.82 702.06,-181.28"/>
<polygon fill="midnightblue" stroke="midnightblue" points="700.6,-184.47 711.02,-186.39 704.08,-178.4 700.6,-184.47"/>
</g>
<!-- Node6 -->
<g id="node6" class="node">
<title>Node6</title>
<g id="a_node6"><a xlink:href="namespaceerror__msg__class.html#a7e065585cc806a5c264de1f088266498" target="_top" xlink:title="Converts a given integer to a string.">
<polygon fill="white" stroke="black" points="829,-104.5 829,-134.5 933,-134.5 933,-104.5 829,-104.5"/>
<text text-anchor="start" x="837" y="-122.5" font-family="Helvetica,sans-Serif" font-size="10.00">error_msg_class::int</text>
<text text-anchor="middle" x="881" y="-111.5" font-family="Helvetica,sans-Serif" font-size="10.00">_to_str</text>
</a>
</g>
</g>
<!-- Node1&#45;&gt;Node6 -->
<g id="edge11" class="edge">
<title>Node1&#45;&gt;Node6</title>
<path fill="none" stroke="midnightblue" d="M129.29,-97.5C196.87,-97.5 306.71,-97.5 401.5,-97.5 401.5,-97.5 401.5,-97.5 574,-97.5 659.14,-97.5 757.26,-106.08 818.96,-112.52"/>
<polygon fill="midnightblue" stroke="midnightblue" points="818.6,-116 828.92,-113.58 819.34,-109.04 818.6,-116"/>
</g>
<!-- Node10 -->
<g id="node10" class="node">
<title>Node10</title>
<g id="a_node10"><a xlink:href="namespacebenam__class.html#ad2f566697809a5731e560509d2ca7062" target="_top" xlink:title="Finds an isotope index in the network table, given its A and Z. In case it was not found,...">
<polygon fill="white" stroke="black" points="181.5,-50 181.5,-69 285.5,-69 285.5,-50 181.5,-50"/>
<text text-anchor="middle" x="233.5" y="-57" font-family="Helvetica,sans-Serif" font-size="10.00">benam_class::findaz</text>
</a>
</g>
</g>
<!-- Node1&#45;&gt;Node10 -->
<g id="edge10" class="edge">
<title>Node1&#45;&gt;Node10</title>
<path fill="none" stroke="midnightblue" d="M129.11,-83.03C146.13,-79.15 164.33,-75.01 180.63,-71.3"/>
<polygon fill="midnightblue" stroke="midnightblue" points="181.54,-74.69 190.51,-69.05 179.99,-67.86 181.54,-74.69"/>
</g>
<!-- Node11 -->
<g id="node11" class="node">
<title>Node11</title>
<g id="a_node11"><a xlink:href="namespaceerror__msg__class.html#a339dd5b38c125b6a04653762c94a91f2" target="_top" xlink:title="Write data to the standard output (usually OUT)">
<polygon fill="white" stroke="black" points="176.5,-0.5 176.5,-30.5 290.5,-30.5 290.5,-0.5 176.5,-0.5"/>
<text text-anchor="start" x="184.5" y="-18.5" font-family="Helvetica,sans-Serif" font-size="10.00">error_msg_class::write</text>
<text text-anchor="middle" x="233.5" y="-7.5" font-family="Helvetica,sans-Serif" font-size="10.00">_data_to_std_out</text>
</a>
</g>
</g>
<!-- Node1&#45;&gt;Node11 -->
<g id="edge13" class="edge">
<title>Node1&#45;&gt;Node11</title>
<path fill="none" stroke="midnightblue" d="M89.43,-82.29C109.23,-70.08 138.31,-52.98 165,-40.5 169.55,-38.37 174.34,-36.29 179.18,-34.3"/>
<polygon fill="midnightblue" stroke="midnightblue" points="180.5,-37.55 188.49,-30.6 177.91,-31.04 180.5,-37.55"/>
</g>
<!-- Node3 -->
<g id="node3" class="node">
<title>Node3</title>
<g id="a_node3"><a xlink:href="namespacefile__handling__class.html#aeddf55e8478d6220dc04310665427c3a" target="_top" xlink:title="Shorthand for opening a new file for writing (output file)">
<polygon fill="white" stroke="black" points="353.5,-246.5 353.5,-276.5 451.5,-276.5 451.5,-246.5 353.5,-246.5"/>
<text text-anchor="start" x="361.5" y="-264.5" font-family="Helvetica,sans-Serif" font-size="10.00">file_handling_class</text>
<text text-anchor="middle" x="402.5" y="-253.5" font-family="Helvetica,sans-Serif" font-size="10.00">::open_outfile</text>
</a>
</g>
</g>
<!-- Node2&#45;&gt;Node3 -->
<g id="edge2" class="edge">
<title>Node2&#45;&gt;Node3</title>
<path fill="none" stroke="midnightblue" d="M273.23,-211.58C297.07,-220.85 327.82,-232.82 353.23,-242.71"/>
<polygon fill="midnightblue" stroke="midnightblue" points="352.1,-246.03 362.69,-246.39 354.64,-239.5 352.1,-246.03"/>
</g>
<!-- Node7 -->
<g id="node7" class="node">
<title>Node7</title>
<g id="a_node7"><a xlink:href="namespacealpha__decay__rate__module.html#a8bd6b70a7807f48b1c1fef2b852460dd" target="_top" xlink:title="Return a string to represent a given reaction.">
<polygon fill="white" stroke="black" points="338,-181.5 338,-211.5 467,-211.5 467,-181.5 338,-181.5"/>
<text text-anchor="start" x="346" y="-199.5" font-family="Helvetica,sans-Serif" font-size="10.00">alpha_decay_rate_module</text>
<text text-anchor="middle" x="402.5" y="-188.5" font-family="Helvetica,sans-Serif" font-size="10.00">::reaction_string</text>
</a>
</g>
</g>
<!-- Node2&#45;&gt;Node7 -->
<g id="edge7" class="edge">
<title>Node2&#45;&gt;Node7</title>
<path fill="none" stroke="midnightblue" d="M302.43,-196.5C310.77,-196.5 319.33,-196.5 327.76,-196.5"/>
<polygon fill="midnightblue" stroke="midnightblue" points="327.95,-200 337.95,-196.5 327.95,-193 327.95,-200"/>
</g>
<!-- Node4 -->
<g id="node4" class="node">
<title>Node4</title>
<g id="a_node4"><a xlink:href="namespacefile__handling__class.html#af02196bd5eaf70ecd5ab4cc650094d5e" target="_top" xlink:title="Finds the next unused unit number.">
<polygon fill="white" stroke="black" points="524,-290.5 524,-320.5 622,-320.5 622,-290.5 524,-290.5"/>
<text text-anchor="start" x="532" y="-308.5" font-family="Helvetica,sans-Serif" font-size="10.00">file_handling_class</text>
<text text-anchor="middle" x="573" y="-297.5" font-family="Helvetica,sans-Serif" font-size="10.00">::get_next_io_unit</text>
</a>
</g>
</g>
<!-- Node3&#45;&gt;Node4 -->
<g id="edge3" class="edge">
<title>Node3&#45;&gt;Node4</title>
<path fill="none" stroke="midnightblue" d="M451.79,-274.11C471.26,-279.19 493.89,-285.1 514.22,-290.41"/>
<polygon fill="midnightblue" stroke="midnightblue" points="513.44,-293.83 524,-292.97 515.21,-287.05 513.44,-293.83"/>
</g>
<!-- Node3&#45;&gt;Node5 -->
<g id="edge6" class="edge">
<title>Node3&#45;&gt;Node5</title>
<path fill="none" stroke="midnightblue" d="M451.54,-262.43C500.46,-262.29 578.12,-259.01 643,-242.5 661.98,-237.67 681.97,-229.22 698.44,-221.24"/>
<polygon fill="midnightblue" stroke="midnightblue" points="700.31,-224.21 707.7,-216.62 697.19,-217.95 700.31,-224.21"/>
</g>
<!-- Node4&#45;&gt;Node5 -->
<g id="edge4" class="edge">
<title>Node4&#45;&gt;Node5</title>
<path fill="none" stroke="midnightblue" d="M613.59,-290.44C623.46,-286.11 633.83,-281.04 643,-275.5 667.95,-260.42 693.57,-239.26 711.42,-223.42"/>
<polygon fill="midnightblue" stroke="midnightblue" points="713.95,-225.85 719.04,-216.56 709.27,-220.65 713.95,-225.85"/>
</g>
<!-- Node5&#45;&gt;Node6 -->
<g id="edge5" class="edge">
<title>Node5&#45;&gt;Node6</title>
<path fill="none" stroke="midnightblue" d="M763.23,-186.46C786.06,-173.37 819.37,-154.27 844.57,-139.82"/>
<polygon fill="midnightblue" stroke="midnightblue" points="846.52,-142.73 853.45,-134.72 843.04,-136.66 846.52,-142.73"/>
</g>
<!-- Node8 -->
<g id="node8" class="node">
<title>Node8</title>
<g id="a_node8"><a xlink:href="namespacebenam__class.html#afd880df70f94c289b6bda0647f4494e3" target="_top" xlink:title="Getter of net_names, translating indices to a nucleus name.">
<polygon fill="white" stroke="black" points="503,-214 503,-233 643,-233 643,-214 503,-214"/>
<text text-anchor="middle" x="573" y="-221" font-family="Helvetica,sans-Serif" font-size="10.00">benam_class::get_net_name</text>
</a>
</g>
</g>
<!-- Node7&#45;&gt;Node8 -->
<g id="edge8" class="edge">
<title>Node7&#45;&gt;Node8</title>
<path fill="none" stroke="midnightblue" d="M467.2,-206.71C478.74,-208.56 490.82,-210.49 502.5,-212.36"/>
<polygon fill="midnightblue" stroke="midnightblue" points="502.22,-215.86 512.65,-213.99 503.33,-208.95 502.22,-215.86"/>
</g>
<!-- Node9 -->
<g id="node9" class="node">
<title>Node9</title>
<g id="a_node9"><a xlink:href="namespaceerror__msg__class.html#a5bc9f3b670b725cc43276934b867d801" target="_top" xlink:title="Converts a given real to a string with format &quot;(1pE10.2)&quot;.">
<polygon fill="white" stroke="black" points="517,-164.5 517,-194.5 629,-194.5 629,-164.5 517,-164.5"/>
<text text-anchor="start" x="525" y="-182.5" font-family="Helvetica,sans-Serif" font-size="10.00">error_msg_class::num</text>
<text text-anchor="middle" x="573" y="-171.5" font-family="Helvetica,sans-Serif" font-size="10.00">_to_str</text>
</a>
</g>
</g>
<!-- Node7&#45;&gt;Node9 -->
<g id="edge9" class="edge">
<title>Node7&#45;&gt;Node9</title>
<path fill="none" stroke="midnightblue" d="M467.2,-190.07C480.07,-188.77 493.62,-187.41 506.55,-186.1"/>
<polygon fill="midnightblue" stroke="midnightblue" points="507.16,-189.56 516.76,-185.07 506.46,-182.59 507.16,-189.56"/>
</g>
<!-- Node12 -->
<g id="node12" class="node">
<title>Node12</title>
<g id="a_node12"><a xlink:href="namespaceerror__msg__class.html#af62b9a0c5997255e792b9ebd7322a6a3" target="_top" xlink:title="Write the header of the standard output (usually OUT)">
<polygon fill="white" stroke="black" points="345.5,-0.5 345.5,-30.5 459.5,-30.5 459.5,-0.5 345.5,-0.5"/>
<text text-anchor="start" x="353.5" y="-18.5" font-family="Helvetica,sans-Serif" font-size="10.00">error_msg_class::write</text>
<text text-anchor="middle" x="402.5" y="-7.5" font-family="Helvetica,sans-Serif" font-size="10.00">_header</text>
</a>
</g>
</g>
<!-- Node11&#45;&gt;Node12 -->
<g id="edge14" class="edge">
<title>Node11&#45;&gt;Node12</title>
<path fill="none" stroke="midnightblue" d="M290.57,-9.08C304.89,-8.72 320.42,-8.65 335.2,-8.88"/>
<polygon fill="midnightblue" stroke="midnightblue" points="335.22,-12.38 345.29,-9.08 335.36,-5.38 335.22,-12.38"/>
</g>
<!-- Node12&#45;&gt;Node11 -->
<g id="edge15" class="edge">
<title>Node12&#45;&gt;Node11</title>
<path fill="none" stroke="midnightblue" d="M345.29,-21.92C330.96,-22.28 315.43,-22.35 300.66,-22.12"/>
<polygon fill="midnightblue" stroke="midnightblue" points="300.64,-18.62 290.57,-21.92 300.5,-25.62 300.64,-18.62"/>
</g>
</g>
</svg>
