<?xml version="1.0" encoding="UTF-8" standalone="no"?>
<!DOCTYPE svg PUBLIC "-//W3C//DTD SVG 1.1//EN"
 "http://www.w3.org/Graphics/SVG/1.1/DTD/svg11.dtd">
<!-- Generated by graphviz version 2.44.0 ()
 -->
<!-- Title: hdf5_module::init_engen Pages: 1 -->
<svg width="577pt" height="127pt"
 viewBox="0.00 0.00 577.00 127.00" xmlns="http://www.w3.org/2000/svg" xmlns:xlink="http://www.w3.org/1999/xlink">
<g id="graph0" class="graph" transform="scale(1 1) rotate(0) translate(4 123)">
<title>hdf5_module::init_engen</title>
<polygon fill="white" stroke="transparent" points="-4,4 -4,-123 573,-123 573,4 -4,4"/>
<!-- Node1 -->
<g id="node1" class="node">
<title>Node1</title>
<g id="a_node1"><a xlink:title="Initialize energy generation output.">
<polygon fill="#bfbfbf" stroke="black" points="0,-50 0,-69 121,-69 121,-50 0,-50"/>
<text text-anchor="middle" x="60.5" y="-57" font-family="Helvetica,sans-Serif" font-size="10.00">hdf5_module::init_engen</text>
</a>
</g>
</g>
<!-- Node2 -->
<g id="node2" class="node">
<title>Node2</title>
<g id="a_node2"><a xlink:href="namespacehdf5__module.html#aaee7540701e1025315a58592932552cc" target="_top" xlink:title="Gets a dataset name and creates it.">
<polygon fill="white" stroke="black" points="166,-88.5 166,-118.5 270,-118.5 270,-88.5 166,-88.5"/>
<text text-anchor="start" x="174" y="-106.5" font-family="Helvetica,sans-Serif" font-size="10.00">hdf5_module::create</text>
<text text-anchor="middle" x="218" y="-95.5" font-family="Helvetica,sans-Serif" font-size="10.00">_1d_dataset</text>
</a>
</g>
</g>
<!-- Node1&#45;&gt;Node2 -->
<g id="edge1" class="edge">
<title>Node1&#45;&gt;Node2</title>
<path fill="none" stroke="midnightblue" d="M95.24,-69.05C113.05,-74.09 135.46,-80.43 156.18,-86.29"/>
<polygon fill="midnightblue" stroke="midnightblue" points="155.3,-89.68 165.88,-89.03 157.21,-82.94 155.3,-89.68"/>
</g>
<!-- Node3 -->
<g id="node3" class="node">
<title>Node3</title>
<g id="a_node3"><a xlink:href="namespaceerror__msg__class.html#a2453d3b7cb363115c046840baa1dfb75" target="_top" xlink:title="Raise a exception with a given error message.">
<polygon fill="white" stroke="black" points="315,-44.5 315,-74.5 429,-74.5 429,-44.5 315,-44.5"/>
<text text-anchor="start" x="323" y="-62.5" font-family="Helvetica,sans-Serif" font-size="10.00">error_msg_class::raise</text>
<text text-anchor="middle" x="372" y="-51.5" font-family="Helvetica,sans-Serif" font-size="10.00">_exception</text>
</a>
</g>
</g>
<!-- Node1&#45;&gt;Node3 -->
<g id="edge6" class="edge">
<title>Node1&#45;&gt;Node3</title>
<path fill="none" stroke="midnightblue" d="M121.17,-59.5C173.73,-59.5 250.18,-59.5 304.65,-59.5"/>
<polygon fill="midnightblue" stroke="midnightblue" points="304.9,-63 314.9,-59.5 304.9,-56 304.9,-63"/>
</g>
<!-- Node5 -->
<g id="node5" class="node">
<title>Node5</title>
<g id="a_node5"><a xlink:href="namespacehdf5__module.html#afbf1071900336a7ed8fcb9b8980a6682" target="_top" xlink:title="Create a hdf5 entry with constant values.">
<polygon fill="white" stroke="black" points="157,-0.5 157,-30.5 279,-30.5 279,-0.5 157,-0.5"/>
<text text-anchor="start" x="165" y="-18.5" font-family="Helvetica,sans-Serif" font-size="10.00">hdf5_module::create</text>
<text text-anchor="middle" x="218" y="-7.5" font-family="Helvetica,sans-Serif" font-size="10.00">_constant_1d_int_arrays</text>
</a>
</g>
</g>
<!-- Node1&#45;&gt;Node5 -->
<g id="edge4" class="edge">
<title>Node1&#45;&gt;Node5</title>
<path fill="none" stroke="midnightblue" d="M95.24,-49.95C112.44,-45.09 133.91,-39.01 154.02,-33.32"/>
<polygon fill="midnightblue" stroke="midnightblue" points="155.09,-36.66 163.76,-30.57 153.18,-29.92 155.09,-36.66"/>
</g>
<!-- Node2&#45;&gt;Node3 -->
<g id="edge2" class="edge">
<title>Node2&#45;&gt;Node3</title>
<path fill="none" stroke="midnightblue" d="M270.04,-88.73C282.61,-85.09 296.22,-81.15 309.24,-77.38"/>
<polygon fill="midnightblue" stroke="midnightblue" points="310.43,-80.68 319.06,-74.53 308.48,-73.95 310.43,-80.68"/>
</g>
<!-- Node4 -->
<g id="node4" class="node">
<title>Node4</title>
<g id="a_node4"><a xlink:href="namespaceerror__msg__class.html#a7e065585cc806a5c264de1f088266498" target="_top" xlink:title="Converts a given integer to a string.">
<polygon fill="white" stroke="black" points="465,-44.5 465,-74.5 569,-74.5 569,-44.5 465,-44.5"/>
<text text-anchor="start" x="473" y="-62.5" font-family="Helvetica,sans-Serif" font-size="10.00">error_msg_class::int</text>
<text text-anchor="middle" x="517" y="-51.5" font-family="Helvetica,sans-Serif" font-size="10.00">_to_str</text>
</a>
</g>
</g>
<!-- Node3&#45;&gt;Node4 -->
<g id="edge3" class="edge">
<title>Node3&#45;&gt;Node4</title>
<path fill="none" stroke="midnightblue" d="M429.11,-59.5C437.45,-59.5 446.09,-59.5 454.54,-59.5"/>
<polygon fill="midnightblue" stroke="midnightblue" points="454.71,-63 464.71,-59.5 454.71,-56 454.71,-63"/>
</g>
<!-- Node5&#45;&gt;Node3 -->
<g id="edge5" class="edge">
<title>Node5&#45;&gt;Node3</title>
<path fill="none" stroke="midnightblue" d="M270.88,-30.52C283.29,-34.11 296.65,-37.98 309.44,-41.68"/>
<polygon fill="midnightblue" stroke="midnightblue" points="308.51,-45.06 319.09,-44.47 310.46,-38.33 308.51,-45.06"/>
</g>
</g>
</svg>
