<?xml version="1.0" encoding="UTF-8" standalone="no"?>
<!DOCTYPE svg PUBLIC "-//W3C//DTD SVG 1.1//EN"
 "http://www.w3.org/Graphics/SVG/1.1/DTD/svg11.dtd">
<!-- Generated by graphviz version 2.44.0 ()
 -->
<!-- Title: fission_rate_module::abla_nfiss Pages: 1 -->
<svg width="401pt" height="78pt"
 viewBox="0.00 0.00 401.00 77.50" xmlns="http://www.w3.org/2000/svg" xmlns:xlink="http://www.w3.org/1999/xlink">
<g id="graph0" class="graph" transform="scale(1 1) rotate(0) translate(4 73.5)">
<title>fission_rate_module::abla_nfiss</title>
<polygon fill="white" stroke="transparent" points="-4,4 -4,-73.5 397,-73.5 397,4 -4,4"/>
<!-- Node1 -->
<g id="node1" class="node">
<title>Node1</title>
<g id="a_node1"><a xlink:title="Calculates the (neutron&#45;induced) fission fragment mass distribution according to the ABLA07 model: Ke...">
<polygon fill="#bfbfbf" stroke="black" points="0,-22.5 0,-52.5 103,-52.5 103,-22.5 0,-22.5"/>
<text text-anchor="start" x="8" y="-40.5" font-family="Helvetica,sans-Serif" font-size="10.00">fission_rate_module</text>
<text text-anchor="middle" x="51.5" y="-29.5" font-family="Helvetica,sans-Serif" font-size="10.00">::abla_nfiss</text>
</a>
</g>
</g>
<!-- Node2 -->
<g id="node2" class="node">
<title>Node2</title>
<g id="a_node2"><a xlink:href="namespacebenam__class.html#ad2f566697809a5731e560509d2ca7062" target="_top" xlink:title="Finds an isotope index in the network table, given its A and Z. In case it was not found,...">
<polygon fill="white" stroke="black" points="144,-50 144,-69 248,-69 248,-50 144,-50"/>
<text text-anchor="middle" x="196" y="-57" font-family="Helvetica,sans-Serif" font-size="10.00">benam_class::findaz</text>
</a>
</g>
</g>
<!-- Node1&#45;&gt;Node2 -->
<g id="edge1" class="edge">
<title>Node1&#45;&gt;Node2</title>
<path fill="none" stroke="midnightblue" d="M103.14,-45.32C112.98,-46.84 123.39,-48.45 133.54,-50.01"/>
<polygon fill="midnightblue" stroke="midnightblue" points="133.14,-53.49 143.56,-51.56 134.21,-46.57 133.14,-53.49"/>
</g>
<!-- Node3 -->
<g id="node3" class="node">
<title>Node3</title>
<g id="a_node3"><a xlink:href="namespaceerror__msg__class.html#a2453d3b7cb363115c046840baa1dfb75" target="_top" xlink:title="Raise a exception with a given error message.">
<polygon fill="white" stroke="black" points="139,-0.5 139,-30.5 253,-30.5 253,-0.5 139,-0.5"/>
<text text-anchor="start" x="147" y="-18.5" font-family="Helvetica,sans-Serif" font-size="10.00">error_msg_class::raise</text>
<text text-anchor="middle" x="196" y="-7.5" font-family="Helvetica,sans-Serif" font-size="10.00">_exception</text>
</a>
</g>
</g>
<!-- Node1&#45;&gt;Node3 -->
<g id="edge2" class="edge">
<title>Node1&#45;&gt;Node3</title>
<path fill="none" stroke="midnightblue" d="M103.14,-29.68C111.42,-28.4 120.11,-27.06 128.7,-25.74"/>
<polygon fill="midnightblue" stroke="midnightblue" points="129.36,-29.18 138.71,-24.19 128.29,-22.26 129.36,-29.18"/>
</g>
<!-- Node4 -->
<g id="node4" class="node">
<title>Node4</title>
<g id="a_node4"><a xlink:href="namespaceerror__msg__class.html#a7e065585cc806a5c264de1f088266498" target="_top" xlink:title="Converts a given integer to a string.">
<polygon fill="white" stroke="black" points="289,-0.5 289,-30.5 393,-30.5 393,-0.5 289,-0.5"/>
<text text-anchor="start" x="297" y="-18.5" font-family="Helvetica,sans-Serif" font-size="10.00">error_msg_class::int</text>
<text text-anchor="middle" x="341" y="-7.5" font-family="Helvetica,sans-Serif" font-size="10.00">_to_str</text>
</a>
</g>
</g>
<!-- Node3&#45;&gt;Node4 -->
<g id="edge3" class="edge">
<title>Node3&#45;&gt;Node4</title>
<path fill="none" stroke="midnightblue" d="M253.11,-15.5C261.45,-15.5 270.09,-15.5 278.54,-15.5"/>
<polygon fill="midnightblue" stroke="midnightblue" points="278.71,-19 288.71,-15.5 278.71,-12 278.71,-19"/>
</g>
</g>
</svg>
