<?xml version="1.0" encoding="UTF-8" standalone="no"?>
<!DOCTYPE svg PUBLIC "-//W3C//DTD SVG 1.1//EN"
 "http://www.w3.org/Graphics/SVG/1.1/DTD/svg11.dtd">
<!-- Generated by graphviz version 2.44.0 ()
 -->
<!-- Title: hdf5_module::hdf5_module_finalize Pages: 1 -->
<!--zoomable 304 -->
<svg id="main" version="1.1" xmlns="http://www.w3.org/2000/svg" xmlns:xlink="http://www.w3.org/1999/xlink" xml:space="preserve" onload="init(evt)">
<style type="text/css"><![CDATA[
.edge:hover path { stroke: red; }
.edge:hover polygon { stroke: red; fill: red; }
]]></style>
<script type="text/javascript"><![CDATA[
var edges = document.getElementsByTagName('g');
if (edges && edges.length) {
  for (var i=0;i<edges.length;i++) {
    if (edges[i].id.substr(0,4)=='edge') {
      edges[i].setAttribute('class','edge');
    }
  }
}
]]></script>
        <defs>
                <circle id="rim" cx="0" cy="0" r="7"/>
                <circle id="rim2" cx="0" cy="0" r="3.5"/>
                <g id="zoomPlus">
                        <use xlink:href="#rim" fill="#404040">
                                <set attributeName="fill" to="#808080" begin="zoomplus.mouseover" end="zoomplus.mouseout"/>
                        </use>
                        <path d="M-4,0h8M0,-4v8" fill="none" stroke="white" stroke-width="1.5" pointer-events="none"/>
                </g>
                <g id="zoomMin">
                        <use xlink:href="#rim" fill="#404040">
                                <set attributeName="fill" to="#808080" begin="zoomminus.mouseover" end="zoomminus.mouseout"/>
                        </use>
                        <path d="M-4,0h8" fill="none" stroke="white" stroke-width="1.5" pointer-events="none"/>
                </g>
                <g id="dirArrow">
                        <path fill="none" stroke="white" stroke-width="1.5" d="M0,-3.0v7 M-2.5,-0.5L0,-3.0L2.5,-0.5"/>
                </g>
               <g id="resetDef">
                       <use xlink:href="#rim2" fill="#404040">
                               <set attributeName="fill" to="#808080" begin="reset.mouseover" end="reset.mouseout"/>
                       </use>
               </g>
        </defs>

<script type="text/javascript">
var viewWidth = 705;
var viewHeight = 304;
var sectionId = 'dynsection-13';
</script>
<script xlink:href="svgpan.js"/>
<svg id="graph" class="graph">
<g id="viewport">
<title>hdf5_module::hdf5_module_finalize</title>
<polygon fill="white" stroke="transparent" points="-4,4 -4,-299.95 701,-299.95 701,4 -4,4"/>
<!-- Node1 -->
<g id="node1" class="node">
<title>Node1</title>
<g id="a_node1"><a xlink:title="Finalize the hdf5 module.">
<polygon fill="#bfbfbf" stroke="black" points="0,-118.45 0,-148.45 132,-148.45 132,-118.45 0,-118.45"/>
<text text-anchor="start" x="8" y="-136.45" font-family="Helvetica,sans-Serif" font-size="10.00">hdf5_module::hdf5_module</text>
<text text-anchor="middle" x="66" y="-125.45" font-family="Helvetica,sans-Serif" font-size="10.00">_finalize</text>
</a>
</g>
</g>
<!-- Node2 -->
<g id="node2" class="node">
<title>Node2</title>
<g id="a_node2"><a xlink:href="namespaceerror__msg__class.html#a2453d3b7cb363115c046840baa1dfb75" target="_top" xlink:title="Raise a exception with a given error message.">
<polygon fill="white" stroke="black" points="443,-142.45 443,-172.45 557,-172.45 557,-142.45 443,-142.45"/>
<text text-anchor="start" x="451" y="-160.45" font-family="Helvetica,sans-Serif" font-size="10.00">error_msg_class::raise</text>
<text text-anchor="middle" x="500" y="-149.45" font-family="Helvetica,sans-Serif" font-size="10.00">_exception</text>
</a>
</g>
</g>
<!-- Node1&#45;&gt;Node2 -->
<g id="edge1" class="edge">
<title>Node1&#45;&gt;Node2</title>
<path fill="none" stroke="midnightblue" d="M74,-118.05C87.55,-90.38 120.29,-33.01 168,-10.45 207.38,8.16 223.08,-3.07 266,-10.45 331.53,-21.73 351.25,-24.22 407,-60.45 437.58,-80.33 465.28,-112.35 482.12,-134.12"/>
<polygon fill="midnightblue" stroke="midnightblue" points="479.4,-136.33 488.23,-142.2 484.99,-132.11 479.4,-136.33"/>
</g>
<!-- Node4 -->
<g id="node4" class="node">
<title>Node4</title>
<g id="a_node4"><a xlink:href="namespacehdf5__module.html#a45d4d702fca9ccedbead4f7814d35950" target="_top" xlink:title="Write average timescales and time into the hdf5 file.">
<polygon fill="white" stroke="black" points="168,-167.45 168,-197.45 266,-197.45 266,-167.45 168,-167.45"/>
<text text-anchor="start" x="176" y="-185.45" font-family="Helvetica,sans-Serif" font-size="10.00">hdf5_module::write</text>
<text text-anchor="middle" x="217" y="-174.45" font-family="Helvetica,sans-Serif" font-size="10.00">_av_timescales</text>
</a>
</g>
</g>
<!-- Node1&#45;&gt;Node4 -->
<g id="edge3" class="edge">
<title>Node1&#45;&gt;Node4</title>
<path fill="none" stroke="midnightblue" d="M112.92,-148.55C128,-153.51 144.93,-159.08 160.64,-164.25"/>
<polygon fill="midnightblue" stroke="midnightblue" points="159.64,-167.6 170.23,-167.4 161.82,-160.95 159.64,-167.6"/>
</g>
<!-- Node6 -->
<g id="node6" class="node">
<title>Node6</title>
<g id="a_node6"><a xlink:href="namespacehdf5__module.html#a5957d49b523e5a49afb2018c4018b496" target="_top" xlink:title="Write energy generations and time into the hdf5 file.">
<polygon fill="white" stroke="black" points="168,-20.45 168,-50.45 266,-50.45 266,-20.45 168,-20.45"/>
<text text-anchor="start" x="176" y="-38.45" font-family="Helvetica,sans-Serif" font-size="10.00">hdf5_module::write</text>
<text text-anchor="middle" x="217" y="-27.45" font-family="Helvetica,sans-Serif" font-size="10.00">_engen</text>
</a>
</g>
</g>
<!-- Node1&#45;&gt;Node6 -->
<g id="edge6" class="edge">
<title>Node1&#45;&gt;Node6</title>
<path fill="none" stroke="midnightblue" d="M86.16,-118.31C106.05,-102.91 138.36,-78.75 168,-60.45 170.76,-58.75 173.65,-57.05 176.58,-55.39"/>
<polygon fill="midnightblue" stroke="midnightblue" points="178.33,-58.42 185.41,-50.53 174.96,-52.28 178.33,-58.42"/>
</g>
<!-- Node8 -->
<g id="node8" class="node">
<title>Node8</title>
<g id="a_node8"><a xlink:href="namespacehdf5__module.html#a29ddf70908c42356e1a4f48c8f094d46" target="_top" xlink:title="Write the mainout data into a file.">
<polygon fill="white" stroke="black" points="168,-265.45 168,-295.45 266,-295.45 266,-265.45 168,-265.45"/>
<text text-anchor="start" x="176" y="-283.45" font-family="Helvetica,sans-Serif" font-size="10.00">hdf5_module::write</text>
<text text-anchor="middle" x="217" y="-272.45" font-family="Helvetica,sans-Serif" font-size="10.00">_mainout_data</text>
</a>
</g>
</g>
<!-- Node1&#45;&gt;Node8 -->
<g id="edge9" class="edge">
<title>Node1&#45;&gt;Node8</title>
<path fill="none" stroke="midnightblue" d="M76.51,-148.82C92.71,-173.99 127.83,-224.4 168,-256.45 169.53,-257.67 171.13,-258.85 172.78,-260"/>
<polygon fill="midnightblue" stroke="midnightblue" points="171.02,-263.02 181.35,-265.35 174.73,-257.09 171.02,-263.02"/>
</g>
<!-- Node10 -->
<g id="node10" class="node">
<title>Node10</title>
<g id="a_node10"><a xlink:href="namespacehdf5__module.html#a3f6ed00d156b624495d00c913c0cdd03" target="_top" xlink:title="Write the neutrino loss/gain into the hdf5 file.">
<polygon fill="white" stroke="black" points="168,-216.45 168,-246.45 266,-246.45 266,-216.45 168,-216.45"/>
<text text-anchor="start" x="176" y="-234.45" font-family="Helvetica,sans-Serif" font-size="10.00">hdf5_module::write</text>
<text text-anchor="middle" x="217" y="-223.45" font-family="Helvetica,sans-Serif" font-size="10.00">_nu_loss_gain</text>
</a>
</g>
</g>
<!-- Node1&#45;&gt;Node10 -->
<g id="edge13" class="edge">
<title>Node1&#45;&gt;Node10</title>
<path fill="none" stroke="midnightblue" d="M85.69,-148.64C105.48,-164.35 137.94,-189.11 168,-207.45 170.31,-208.86 172.71,-210.26 175.15,-211.63"/>
<polygon fill="midnightblue" stroke="midnightblue" points="173.63,-214.78 184.09,-216.45 176.95,-208.62 173.63,-214.78"/>
</g>
<!-- Node11 -->
<g id="node11" class="node">
<title>Node11</title>
<g id="a_node11"><a xlink:href="namespacehdf5__module.html#affeb5af83d3a7d79de373e6abfb470f0" target="_top" xlink:title="Write the abundances of all nuclei into a file.">
<polygon fill="white" stroke="black" points="168,-118.45 168,-148.45 266,-148.45 266,-118.45 168,-118.45"/>
<text text-anchor="start" x="176" y="-136.45" font-family="Helvetica,sans-Serif" font-size="10.00">hdf5_module::write</text>
<text text-anchor="middle" x="217" y="-125.45" font-family="Helvetica,sans-Serif" font-size="10.00">_snaps</text>
</a>
</g>
</g>
<!-- Node1&#45;&gt;Node11 -->
<g id="edge15" class="edge">
<title>Node1&#45;&gt;Node11</title>
<path fill="none" stroke="midnightblue" d="M132.35,-133.45C140.71,-133.45 149.22,-133.45 157.46,-133.45"/>
<polygon fill="midnightblue" stroke="midnightblue" points="157.72,-136.95 167.72,-133.45 157.72,-129.95 157.72,-136.95"/>
</g>
<!-- Node12 -->
<g id="node12" class="node">
<title>Node12</title>
<g id="a_node12"><a xlink:href="namespacehdf5__module.html#a9dbfa745d5c9e7ddd1b1fb17db70a896" target="_top" xlink:title="Write the abundances of track nuclei into a file.">
<polygon fill="white" stroke="black" points="168,-69.45 168,-99.45 266,-99.45 266,-69.45 168,-69.45"/>
<text text-anchor="start" x="176" y="-87.45" font-family="Helvetica,sans-Serif" font-size="10.00">hdf5_module::write</text>
<text text-anchor="middle" x="217" y="-76.45" font-family="Helvetica,sans-Serif" font-size="10.00">_track_data</text>
</a>
</g>
</g>
<!-- Node1&#45;&gt;Node12 -->
<g id="edge18" class="edge">
<title>Node1&#45;&gt;Node12</title>
<path fill="none" stroke="midnightblue" d="M112.92,-118.35C128,-113.39 144.93,-107.83 160.64,-102.66"/>
<polygon fill="midnightblue" stroke="midnightblue" points="161.82,-105.95 170.23,-99.5 159.64,-99.3 161.82,-105.95"/>
</g>
<!-- Node3 -->
<g id="node3" class="node">
<title>Node3</title>
<g id="a_node3"><a xlink:href="namespaceerror__msg__class.html#a7e065585cc806a5c264de1f088266498" target="_top" xlink:title="Converts a given integer to a string.">
<polygon fill="white" stroke="black" points="593,-142.45 593,-172.45 697,-172.45 697,-142.45 593,-142.45"/>
<text text-anchor="start" x="601" y="-160.45" font-family="Helvetica,sans-Serif" font-size="10.00">error_msg_class::int</text>
<text text-anchor="middle" x="645" y="-149.45" font-family="Helvetica,sans-Serif" font-size="10.00">_to_str</text>
</a>
</g>
</g>
<!-- Node2&#45;&gt;Node3 -->
<g id="edge2" class="edge">
<title>Node2&#45;&gt;Node3</title>
<path fill="none" stroke="midnightblue" d="M557.11,-157.45C565.45,-157.45 574.09,-157.45 582.54,-157.45"/>
<polygon fill="midnightblue" stroke="midnightblue" points="582.71,-160.95 592.71,-157.45 582.71,-153.95 582.71,-160.95"/>
</g>
<!-- Node5 -->
<g id="node5" class="node">
<title>Node5</title>
<g id="a_node5"><a xlink:href="namespacehdf5__module.html#a28a7b037320b89de7c8ab611e5f720d0" target="_top" xlink:title="Extend a previously created 1D &#45; dataset.">
<polygon fill="white" stroke="black" points="302,-142.45 302,-172.45 407,-172.45 407,-142.45 302,-142.45"/>
<text text-anchor="start" x="310" y="-160.45" font-family="Helvetica,sans-Serif" font-size="10.00">hdf5_module::extend</text>
<text text-anchor="middle" x="354.5" y="-149.45" font-family="Helvetica,sans-Serif" font-size="10.00">_1d_dataset</text>
</a>
</g>
</g>
<!-- Node4&#45;&gt;Node5 -->
<g id="edge4" class="edge">
<title>Node4&#45;&gt;Node5</title>
<path fill="none" stroke="midnightblue" d="M266.15,-173.57C274.46,-172.04 283.2,-170.42 291.81,-168.83"/>
<polygon fill="midnightblue" stroke="midnightblue" points="292.63,-172.24 301.83,-166.99 291.36,-165.36 292.63,-172.24"/>
</g>
<!-- Node5&#45;&gt;Node2 -->
<g id="edge5" class="edge">
<title>Node5&#45;&gt;Node2</title>
<path fill="none" stroke="midnightblue" d="M407.31,-157.45C415.62,-157.45 424.31,-157.45 432.9,-157.45"/>
<polygon fill="midnightblue" stroke="midnightblue" points="432.9,-160.95 442.9,-157.45 432.9,-153.95 432.9,-160.95"/>
</g>
<!-- Node6&#45;&gt;Node5 -->
<g id="edge7" class="edge">
<title>Node6&#45;&gt;Node5</title>
<path fill="none" stroke="midnightblue" d="M251.8,-50.52C256.81,-53.46 261.72,-56.78 266,-60.45 286.52,-78.04 284.04,-89.26 302,-109.45 309.96,-118.4 319.37,-127.53 327.96,-135.4"/>
<polygon fill="midnightblue" stroke="midnightblue" points="325.77,-138.14 335.55,-142.22 330.45,-132.93 325.77,-138.14"/>
</g>
<!-- Node7 -->
<g id="node7" class="node">
<title>Node7</title>
<g id="a_node7"><a xlink:href="namespacehdf5__module.html#a838e42f575c00ce846c2510cd035ac6a" target="_top" xlink:title="Extend the Y dataset for the net timestep.">
<polygon fill="white" stroke="black" points="302,-69.45 302,-99.45 407,-99.45 407,-69.45 302,-69.45"/>
<text text-anchor="start" x="310" y="-87.45" font-family="Helvetica,sans-Serif" font-size="10.00">hdf5_module::extend</text>
<text text-anchor="middle" x="354.5" y="-76.45" font-family="Helvetica,sans-Serif" font-size="10.00">_hdf5_y</text>
</a>
</g>
</g>
<!-- Node6&#45;&gt;Node7 -->
<g id="edge8" class="edge">
<title>Node6&#45;&gt;Node7</title>
<path fill="none" stroke="midnightblue" d="M259.76,-50.55C273.15,-55.4 288.15,-60.82 302.14,-65.88"/>
<polygon fill="midnightblue" stroke="midnightblue" points="301.05,-69.21 311.64,-69.32 303.43,-62.62 301.05,-69.21"/>
</g>
<!-- Node8&#45;&gt;Node5 -->
<g id="edge10" class="edge">
<title>Node8&#45;&gt;Node5</title>
<path fill="none" stroke="midnightblue" d="M252.29,-265.36C257.07,-262.67 261.79,-259.69 266,-256.45 294.45,-234.58 320.81,-202.47 337,-180.8"/>
<polygon fill="midnightblue" stroke="midnightblue" points="340,-182.63 343.1,-172.49 334.36,-178.49 340,-182.63"/>
</g>
<!-- Node9 -->
<g id="node9" class="node">
<title>Node9</title>
<g id="a_node9"><a xlink:href="namespacehdf5__module.html#a59c2f613eb6405d547d014f2e4ef5d1b" target="_top" xlink:title="Extend a previously created 1D integer &#45; dataset.">
<polygon fill="white" stroke="black" points="302,-240.45 302,-270.45 407,-270.45 407,-240.45 302,-240.45"/>
<text text-anchor="start" x="310" y="-258.45" font-family="Helvetica,sans-Serif" font-size="10.00">hdf5_module::extend</text>
<text text-anchor="middle" x="354.5" y="-247.45" font-family="Helvetica,sans-Serif" font-size="10.00">_1d_int_dataset</text>
</a>
</g>
</g>
<!-- Node8&#45;&gt;Node9 -->
<g id="edge11" class="edge">
<title>Node8&#45;&gt;Node9</title>
<path fill="none" stroke="midnightblue" d="M266.15,-271.57C274.46,-270.04 283.2,-268.42 291.81,-266.83"/>
<polygon fill="midnightblue" stroke="midnightblue" points="292.63,-270.24 301.83,-264.99 291.36,-263.36 292.63,-270.24"/>
</g>
<!-- Node9&#45;&gt;Node2 -->
<g id="edge12" class="edge">
<title>Node9&#45;&gt;Node2</title>
<path fill="none" stroke="midnightblue" d="M377.61,-240.36C401.87,-223.79 440.99,-197.07 468.23,-178.46"/>
<polygon fill="midnightblue" stroke="midnightblue" points="470.35,-181.26 476.63,-172.73 466.4,-175.48 470.35,-181.26"/>
</g>
<!-- Node10&#45;&gt;Node5 -->
<g id="edge14" class="edge">
<title>Node10&#45;&gt;Node5</title>
<path fill="none" stroke="midnightblue" d="M248.86,-216.34C254.59,-213.45 260.5,-210.4 266,-207.45 283.67,-198 303.04,-187 319.05,-177.72"/>
<polygon fill="midnightblue" stroke="midnightblue" points="321.17,-180.54 328.06,-172.49 317.65,-174.49 321.17,-180.54"/>
</g>
<!-- Node11&#45;&gt;Node5 -->
<g id="edge16" class="edge">
<title>Node11&#45;&gt;Node5</title>
<path fill="none" stroke="midnightblue" d="M266.15,-141.98C274.46,-143.45 283.2,-145 291.81,-146.53"/>
<polygon fill="midnightblue" stroke="midnightblue" points="291.37,-150 301.83,-148.3 292.59,-143.11 291.37,-150"/>
</g>
<!-- Node11&#45;&gt;Node7 -->
<g id="edge17" class="edge">
<title>Node11&#45;&gt;Node7</title>
<path fill="none" stroke="midnightblue" d="M259.76,-118.35C273.15,-113.51 288.15,-108.09 302.14,-103.02"/>
<polygon fill="midnightblue" stroke="midnightblue" points="303.43,-106.28 311.64,-99.59 301.05,-99.7 303.43,-106.28"/>
</g>
<!-- Node12&#45;&gt;Node5 -->
<g id="edge19" class="edge">
<title>Node12&#45;&gt;Node5</title>
<path fill="none" stroke="midnightblue" d="M247.24,-99.56C253.45,-102.8 259.95,-106.22 266,-109.45 282.99,-118.54 301.72,-128.78 317.49,-137.47"/>
<polygon fill="midnightblue" stroke="midnightblue" points="315.94,-140.61 326.39,-142.38 319.32,-134.49 315.94,-140.61"/>
</g>
<!-- Node12&#45;&gt;Node7 -->
<g id="edge20" class="edge">
<title>Node12&#45;&gt;Node7</title>
<path fill="none" stroke="midnightblue" d="M266.15,-84.45C274.46,-84.45 283.2,-84.45 291.81,-84.45"/>
<polygon fill="midnightblue" stroke="midnightblue" points="291.83,-87.95 301.83,-84.45 291.83,-80.95 291.83,-87.95"/>
</g>
</g>
</svg>
        <g id="navigator" transform="translate(0 0)" fill="#404254">
                <rect fill="#f2f5e9" fill-opacity="0.5" stroke="#606060" stroke-width=".5" x="0" y="0" width="60" height="60"/>
                <use id="zoomplus" xlink:href="#zoomPlus" x="17" y="9" onmousedown="handleZoom(evt,'in')"/>
                <use id="zoomminus" xlink:href="#zoomMin" x="42" y="9" onmousedown="handleZoom(evt,'out')"/>
                <use id="reset" xlink:href="#resetDef" x="30" y="36" onmousedown="handleReset()"/>
                <g id="arrowUp" xlink:href="#dirArrow" transform="translate(30 24)" onmousedown="handlePan(0,-1)">
                  <use xlink:href="#rim" fill="#404040">
                        <set attributeName="fill" to="#808080" begin="arrowUp.mouseover" end="arrowUp.mouseout"/>
                  </use>
                  <path fill="none" stroke="white" stroke-width="1.5" d="M0,-3.0v7 M-2.5,-0.5L0,-3.0L2.5,-0.5"/>
                </g>
                <g id="arrowRight" xlink:href="#dirArrow" transform="rotate(90) translate(36 -43)" onmousedown="handlePan(1,0)">
                  <use xlink:href="#rim" fill="#404040">
                        <set attributeName="fill" to="#808080" begin="arrowRight.mouseover" end="arrowRight.mouseout"/>
                  </use>
                  <path fill="none" stroke="white" stroke-width="1.5" d="M0,-3.0v7 M-2.5,-0.5L0,-3.0L2.5,-0.5"/>
                </g>
                <g id="arrowDown" xlink:href="#dirArrow" transform="rotate(180) translate(-30 -48)" onmousedown="handlePan(0,1)">
                  <use xlink:href="#rim" fill="#404040">
                        <set attributeName="fill" to="#808080" begin="arrowDown.mouseover" end="arrowDown.mouseout"/>
                  </use>
                  <path fill="none" stroke="white" stroke-width="1.5" d="M0,-3.0v7 M-2.5,-0.5L0,-3.0L2.5,-0.5"/>
                </g>
                <g id="arrowLeft" xlink:href="#dirArrow" transform="rotate(270) translate(-36 17)" onmousedown="handlePan(-1,0)">
                  <use xlink:href="#rim" fill="#404040">
                        <set attributeName="fill" to="#808080" begin="arrowLeft.mouseover" end="arrowLeft.mouseout"/>
                  </use>
                  <path fill="none" stroke="white" stroke-width="1.5" d="M0,-3.0v7 M-2.5,-0.5L0,-3.0L2.5,-0.5"/>
                </g>
        </g>
        <svg viewBox="0 0 15 15" width="100%" height="30px" preserveAspectRatio="xMaxYMin meet">
         <g id="arrow_out" transform="scale(0.3 0.3)">
          <a xlink:href="namespacehdf5__module_a2b3ab956533dae7844b8131df2fdfb85_cgraph_org.svg" target="_base">
           <rect id="button" ry="5" rx="5" y="6" x="6" height="38" width="38"
                fill="#f2f5e9" fill-opacity="0.5" stroke="#606060" stroke-width="1.0"/>
           <path id="arrow"
             d="M 11.500037,31.436501 C 11.940474,20.09759 22.043105,11.32322 32.158766,21.979434 L 37.068811,17.246167 C 37.068811,17.246167 37.088388,32 37.088388,32 L 22.160133,31.978069 C 22.160133,31.978069 26.997745,27.140456 26.997745,27.140456 C 18.528582,18.264221 13.291696,25.230495 11.500037,31.436501 z"
             style="fill:#404040;"/>
          </a>
         </g>
        </svg>
</svg>
