<?xml version="1.0" encoding="UTF-8" standalone="no"?>
<!DOCTYPE svg PUBLIC "-//W3C//DTD SVG 1.1//EN"
 "http://www.w3.org/Graphics/SVG/1.1/DTD/svg11.dtd">
<!-- Generated by graphviz version 2.44.0 ()
 -->
<!-- Title: hdf5_module::extend_av_timescales Pages: 1 -->
<svg width="678pt" height="39pt"
 viewBox="0.00 0.00 678.00 39.00" xmlns="http://www.w3.org/2000/svg" xmlns:xlink="http://www.w3.org/1999/xlink">
<g id="graph0" class="graph" transform="scale(1 1) rotate(0) translate(4 35)">
<title>hdf5_module::extend_av_timescales</title>
<polygon fill="white" stroke="transparent" points="-4,4 -4,-35 674,-35 674,4 -4,4"/>
<!-- Node1 -->
<g id="node1" class="node">
<title>Node1</title>
<g id="a_node1"><a xlink:title="Subroutine to write the average timescales (1/s) into the hdf5.">
<polygon fill="#bfbfbf" stroke="black" points="0,-0.5 0,-30.5 105,-30.5 105,-0.5 0,-0.5"/>
<text text-anchor="start" x="8" y="-18.5" font-family="Helvetica,sans-Serif" font-size="10.00">hdf5_module::extend</text>
<text text-anchor="middle" x="52.5" y="-7.5" font-family="Helvetica,sans-Serif" font-size="10.00">_av_timescales</text>
</a>
</g>
</g>
<!-- Node2 -->
<g id="node2" class="node">
<title>Node2</title>
<g id="a_node2"><a xlink:href="namespacehdf5__module.html#a45d4d702fca9ccedbead4f7814d35950" target="_top" xlink:title="Write average timescales and time into the hdf5 file.">
<polygon fill="white" stroke="black" points="141,-0.5 141,-30.5 239,-30.5 239,-0.5 141,-0.5"/>
<text text-anchor="start" x="149" y="-18.5" font-family="Helvetica,sans-Serif" font-size="10.00">hdf5_module::write</text>
<text text-anchor="middle" x="190" y="-7.5" font-family="Helvetica,sans-Serif" font-size="10.00">_av_timescales</text>
</a>
</g>
</g>
<!-- Node1&#45;&gt;Node2 -->
<g id="edge1" class="edge">
<title>Node1&#45;&gt;Node2</title>
<path fill="none" stroke="midnightblue" d="M105.11,-15.5C113.41,-15.5 122.05,-15.5 130.49,-15.5"/>
<polygon fill="midnightblue" stroke="midnightblue" points="130.65,-19 140.65,-15.5 130.65,-12 130.65,-19"/>
</g>
<!-- Node3 -->
<g id="node3" class="node">
<title>Node3</title>
<g id="a_node3"><a xlink:href="namespacehdf5__module.html#a28a7b037320b89de7c8ab611e5f720d0" target="_top" xlink:title="Extend a previously created 1D &#45; dataset.">
<polygon fill="white" stroke="black" points="275,-0.5 275,-30.5 380,-30.5 380,-0.5 275,-0.5"/>
<text text-anchor="start" x="283" y="-18.5" font-family="Helvetica,sans-Serif" font-size="10.00">hdf5_module::extend</text>
<text text-anchor="middle" x="327.5" y="-7.5" font-family="Helvetica,sans-Serif" font-size="10.00">_1d_dataset</text>
</a>
</g>
</g>
<!-- Node2&#45;&gt;Node3 -->
<g id="edge2" class="edge">
<title>Node2&#45;&gt;Node3</title>
<path fill="none" stroke="midnightblue" d="M239.15,-15.5C247.46,-15.5 256.2,-15.5 264.81,-15.5"/>
<polygon fill="midnightblue" stroke="midnightblue" points="264.83,-19 274.83,-15.5 264.83,-12 264.83,-19"/>
</g>
<!-- Node4 -->
<g id="node4" class="node">
<title>Node4</title>
<g id="a_node4"><a xlink:href="namespaceerror__msg__class.html#a2453d3b7cb363115c046840baa1dfb75" target="_top" xlink:title="Raise a exception with a given error message.">
<polygon fill="white" stroke="black" points="416,-0.5 416,-30.5 530,-30.5 530,-0.5 416,-0.5"/>
<text text-anchor="start" x="424" y="-18.5" font-family="Helvetica,sans-Serif" font-size="10.00">error_msg_class::raise</text>
<text text-anchor="middle" x="473" y="-7.5" font-family="Helvetica,sans-Serif" font-size="10.00">_exception</text>
</a>
</g>
</g>
<!-- Node3&#45;&gt;Node4 -->
<g id="edge3" class="edge">
<title>Node3&#45;&gt;Node4</title>
<path fill="none" stroke="midnightblue" d="M380.31,-15.5C388.62,-15.5 397.31,-15.5 405.9,-15.5"/>
<polygon fill="midnightblue" stroke="midnightblue" points="405.9,-19 415.9,-15.5 405.9,-12 405.9,-19"/>
</g>
<!-- Node5 -->
<g id="node5" class="node">
<title>Node5</title>
<g id="a_node5"><a xlink:href="namespaceerror__msg__class.html#a7e065585cc806a5c264de1f088266498" target="_top" xlink:title="Converts a given integer to a string.">
<polygon fill="white" stroke="black" points="566,-0.5 566,-30.5 670,-30.5 670,-0.5 566,-0.5"/>
<text text-anchor="start" x="574" y="-18.5" font-family="Helvetica,sans-Serif" font-size="10.00">error_msg_class::int</text>
<text text-anchor="middle" x="618" y="-7.5" font-family="Helvetica,sans-Serif" font-size="10.00">_to_str</text>
</a>
</g>
</g>
<!-- Node4&#45;&gt;Node5 -->
<g id="edge4" class="edge">
<title>Node4&#45;&gt;Node5</title>
<path fill="none" stroke="midnightblue" d="M530.11,-15.5C538.45,-15.5 547.09,-15.5 555.54,-15.5"/>
<polygon fill="midnightblue" stroke="midnightblue" points="555.71,-19 565.71,-15.5 555.71,-12 555.71,-19"/>
</g>
</g>
</svg>
