<?xml version="1.0" encoding="UTF-8" standalone="no"?>
<!DOCTYPE svg PUBLIC "-//W3C//DTD SVG 1.1//EN"
 "http://www.w3.org/Graphics/SVG/1.1/DTD/svg11.dtd">
<!-- Generated by graphviz version 2.44.0 ()
 -->
<!-- Title: inter_module::inverse_brent Pages: 1 -->
<svg width="569pt" height="268pt"
 viewBox="0.00 0.00 569.00 267.50" xmlns="http://www.w3.org/2000/svg" xmlns:xlink="http://www.w3.org/1999/xlink">
<g id="graph0" class="graph" transform="scale(1 1) rotate(0) translate(4 263.5)">
<title>inter_module::inverse_brent</title>
<polygon fill="white" stroke="transparent" points="-4,4 -4,-263.5 565,-263.5 565,4 -4,4"/>
<!-- Node1 -->
<g id="node1" class="node">
<title>Node1</title>
<g id="a_node1"><a xlink:title="The inverse of the 1D interpolation function.">
<polygon fill="#bfbfbf" stroke="black" points="0,-60.5 0,-90.5 108,-90.5 108,-60.5 0,-60.5"/>
<text text-anchor="start" x="8" y="-78.5" font-family="Helvetica,sans-Serif" font-size="10.00">inter_module::inverse</text>
<text text-anchor="middle" x="54" y="-67.5" font-family="Helvetica,sans-Serif" font-size="10.00">_brent</text>
</a>
</g>
</g>
<!-- Node2 -->
<g id="node2" class="node">
<title>Node2</title>
<g id="a_node2"><a xlink:href="namespaceinter__module.html#a206d3ceb40bd2e40d41c462a31ad057e" target="_top" xlink:title="Interface for 1D interpolation routines.">
<polygon fill="white" stroke="black" points="144,-107 144,-126 255,-126 255,-107 144,-107"/>
<text text-anchor="middle" x="199.5" y="-114" font-family="Helvetica,sans-Serif" font-size="10.00">inter_module::interp1d</text>
</a>
</g>
</g>
<!-- Node1&#45;&gt;Node2 -->
<g id="edge1" class="edge">
<title>Node1&#45;&gt;Node2</title>
<path fill="none" stroke="midnightblue" d="M107.62,-90.53C123.22,-94.99 140.12,-99.82 155.06,-104.09"/>
<polygon fill="midnightblue" stroke="midnightblue" points="154.48,-107.56 165.06,-106.95 156.41,-100.83 154.48,-107.56"/>
</g>
<!-- Node10 -->
<g id="node10" class="node">
<title>Node10</title>
<g id="a_node10"><a xlink:href="namespaceerror__msg__class.html#a2453d3b7cb363115c046840baa1dfb75" target="_top" xlink:title="Raise a exception with a given error message.">
<polygon fill="white" stroke="black" points="299,-0.5 299,-30.5 413,-30.5 413,-0.5 299,-0.5"/>
<text text-anchor="start" x="307" y="-18.5" font-family="Helvetica,sans-Serif" font-size="10.00">error_msg_class::raise</text>
<text text-anchor="middle" x="356" y="-7.5" font-family="Helvetica,sans-Serif" font-size="10.00">_exception</text>
</a>
</g>
</g>
<!-- Node1&#45;&gt;Node10 -->
<g id="edge11" class="edge">
<title>Node1&#45;&gt;Node10</title>
<path fill="none" stroke="midnightblue" d="M108.29,-64.84C158.77,-54.75 234.74,-39.55 289.03,-28.69"/>
<polygon fill="midnightblue" stroke="midnightblue" points="289.78,-32.11 298.9,-26.72 288.41,-25.25 289.78,-32.11"/>
</g>
<!-- Node3 -->
<g id="node3" class="node">
<title>Node3</title>
<g id="a_node3"><a xlink:href="namespaceinter__module.html#a0f02e3fce3429d031516cf2f47f521de" target="_top" xlink:title="Interpolation using prescription of Akima.">
<polygon fill="white" stroke="black" points="295,-202 295,-221 417,-221 417,-202 295,-202"/>
<text text-anchor="middle" x="356" y="-209" font-family="Helvetica,sans-Serif" font-size="10.00">inter_module::akimainter</text>
</a>
</g>
</g>
<!-- Node2&#45;&gt;Node3 -->
<g id="edge2" class="edge">
<title>Node2&#45;&gt;Node3</title>
<path fill="none" stroke="midnightblue" d="M209.32,-126.13C224.5,-142.15 257.21,-174.32 291,-192.5 295.18,-194.75 299.66,-196.77 304.24,-198.57"/>
<polygon fill="midnightblue" stroke="midnightblue" points="303.12,-201.88 313.72,-201.96 305.48,-195.29 303.12,-201.88"/>
</g>
<!-- Node4 -->
<g id="node4" class="node">
<title>Node4</title>
<g id="a_node4"><a xlink:href="namespaceinter__module.html#a5a696cd56302b2491c59781808af4c08" target="_top" xlink:title="Cubic interpolation in log&#45;log space. Here, it is assumed that.">
<polygon fill="white" stroke="black" points="300.5,-164 300.5,-183 411.5,-183 411.5,-164 300.5,-164"/>
<text text-anchor="middle" x="356" y="-171" font-family="Helvetica,sans-Serif" font-size="10.00">inter_module::cubinter</text>
</a>
</g>
</g>
<!-- Node2&#45;&gt;Node4 -->
<g id="edge3" class="edge">
<title>Node2&#45;&gt;Node4</title>
<path fill="none" stroke="midnightblue" d="M226.36,-126.04C251.87,-135.45 291.07,-149.91 319.49,-160.4"/>
<polygon fill="midnightblue" stroke="midnightblue" points="318.46,-163.75 329.06,-163.93 320.89,-157.18 318.46,-163.75"/>
</g>
<!-- Node5 -->
<g id="node5" class="node">
<title>Node5</title>
<g id="a_node5"><a xlink:href="namespaceerror__msg__class.html#a7e065585cc806a5c264de1f088266498" target="_top" xlink:title="Converts a given integer to a string.">
<polygon fill="white" stroke="black" points="457,-60.5 457,-90.5 561,-90.5 561,-60.5 457,-60.5"/>
<text text-anchor="start" x="465" y="-78.5" font-family="Helvetica,sans-Serif" font-size="10.00">error_msg_class::int</text>
<text text-anchor="middle" x="509" y="-67.5" font-family="Helvetica,sans-Serif" font-size="10.00">_to_str</text>
</a>
</g>
</g>
<!-- Node2&#45;&gt;Node5 -->
<g id="edge4" class="edge">
<title>Node2&#45;&gt;Node5</title>
<path fill="none" stroke="midnightblue" d="M255.14,-123.07C300.21,-126.93 365.52,-128.92 421,-116.5 439.66,-112.32 459.04,-103.68 474.75,-95.4"/>
<polygon fill="midnightblue" stroke="midnightblue" points="476.45,-98.46 483.55,-90.6 473.1,-92.32 476.45,-98.46"/>
</g>
<!-- Node6 -->
<g id="node6" class="node">
<title>Node6</title>
<g id="a_node6"><a xlink:href="namespaceinter__module.html#ac57284b6bef315c7066a880358ae0862" target="_top" xlink:title="Linear interpolation in lin&#45;log space.">
<polygon fill="white" stroke="black" points="303.5,-88 303.5,-107 408.5,-107 408.5,-88 303.5,-88"/>
<text text-anchor="middle" x="356" y="-95" font-family="Helvetica,sans-Serif" font-size="10.00">inter_module::lininter</text>
</a>
</g>
</g>
<!-- Node2&#45;&gt;Node6 -->
<g id="edge5" class="edge">
<title>Node2&#45;&gt;Node6</title>
<path fill="none" stroke="midnightblue" d="M255.41,-109.75C267.72,-108.23 280.87,-106.62 293.44,-105.07"/>
<polygon fill="midnightblue" stroke="midnightblue" points="293.87,-108.54 303.37,-103.85 293.02,-101.6 293.87,-108.54"/>
</g>
<!-- Node7 -->
<g id="node7" class="node">
<title>Node7</title>
<g id="a_node7"><a xlink:href="namespaceinter__module.html#a338de641fc764e51a6ce814e25e70ef2" target="_top" xlink:title="Interpolation using modified prescription of Akima.">
<polygon fill="white" stroke="black" points="291,-50 291,-69 421,-69 421,-50 291,-50"/>
<text text-anchor="middle" x="356" y="-57" font-family="Helvetica,sans-Serif" font-size="10.00">inter_module::makimainter</text>
</a>
</g>
</g>
<!-- Node2&#45;&gt;Node7 -->
<g id="edge6" class="edge">
<title>Node2&#45;&gt;Node7</title>
<path fill="none" stroke="midnightblue" d="M221.46,-106.93C239.64,-98.82 266.77,-87.16 291,-78.5 297.31,-76.25 304.03,-74.04 310.65,-71.98"/>
<polygon fill="midnightblue" stroke="midnightblue" points="311.68,-75.33 320.23,-69.07 309.65,-68.63 311.68,-75.33"/>
</g>
<!-- Node8 -->
<g id="node8" class="node">
<title>Node8</title>
<g id="a_node8"><a xlink:href="namespaceinter__module.html#a4b1d9613e140541539a602d2f985b5c7" target="_top" xlink:title="PCHIP interpolation in lin&#45;log space.">
<polygon fill="white" stroke="black" points="296.5,-240 296.5,-259 415.5,-259 415.5,-240 296.5,-240"/>
<text text-anchor="middle" x="356" y="-247" font-family="Helvetica,sans-Serif" font-size="10.00">inter_module::pchipinter</text>
</a>
</g>
</g>
<!-- Node2&#45;&gt;Node8 -->
<g id="edge7" class="edge">
<title>Node2&#45;&gt;Node8</title>
<path fill="none" stroke="midnightblue" d="M205.41,-126.09C217.13,-148 248.91,-202.06 291,-230.5 294.06,-232.57 297.35,-234.42 300.77,-236.07"/>
<polygon fill="midnightblue" stroke="midnightblue" points="299.46,-239.31 310.03,-239.99 302.19,-232.87 299.46,-239.31"/>
</g>
<!-- Node2&#45;&gt;Node10 -->
<g id="edge9" class="edge">
<title>Node2&#45;&gt;Node10</title>
<path fill="none" stroke="midnightblue" d="M211.8,-106.97C235.83,-86.71 289.9,-41.15 291,-40.5 294.37,-38.5 297.92,-36.61 301.56,-34.82"/>
<polygon fill="midnightblue" stroke="midnightblue" points="303.1,-37.96 310.72,-30.6 300.18,-31.6 303.1,-37.96"/>
</g>
<!-- Node9 -->
<g id="node9" class="node">
<title>Node9</title>
<g id="a_node9"><a xlink:href="quadpack__module_8f90.html#aada5a652920db442d627f1ca24ff25d7" target="_top" xlink:title="Further information: http://netlib.org/quadpack/index.html https://orion.math.iastate....">
<polygon fill="white" stroke="black" points="494.5,-240 494.5,-259 523.5,-259 523.5,-240 494.5,-240"/>
<text text-anchor="middle" x="509" y="-247" font-family="Helvetica,sans-Serif" font-size="10.00">pi</text>
</a>
</g>
</g>
<!-- Node8&#45;&gt;Node9 -->
<g id="edge8" class="edge">
<title>Node8&#45;&gt;Node9</title>
<path fill="none" stroke="midnightblue" d="M415.81,-249.5C439.65,-249.5 465.83,-249.5 484.18,-249.5"/>
<polygon fill="midnightblue" stroke="midnightblue" points="484.25,-253 494.25,-249.5 484.25,-246 484.25,-253"/>
</g>
<!-- Node10&#45;&gt;Node5 -->
<g id="edge10" class="edge">
<title>Node10&#45;&gt;Node5</title>
<path fill="none" stroke="midnightblue" d="M395.61,-30.51C403.98,-33.79 412.79,-37.25 421,-40.5 434.15,-45.71 448.4,-51.42 461.49,-56.69"/>
<polygon fill="midnightblue" stroke="midnightblue" points="460.19,-59.94 470.78,-60.43 462.81,-53.45 460.19,-59.94"/>
</g>
</g>
</svg>
