<?xml version="1.0" encoding="UTF-8" standalone="no"?>
<!DOCTYPE svg PUBLIC "-//W3C//DTD SVG 1.1//EN"
 "http://www.w3.org/Graphics/SVG/1.1/DTD/svg11.dtd">
<!-- Generated by graphviz version 2.44.0 ()
 -->
<!-- Title: effphase_class::effphase Pages: 1 -->
<svg width="280pt" height="104pt"
 viewBox="0.00 0.00 280.00 104.00" xmlns="http://www.w3.org/2000/svg" xmlns:xlink="http://www.w3.org/1999/xlink">
<g id="graph0" class="graph" transform="scale(1 1) rotate(0) translate(4 100)">
<title>effphase_class::effphase</title>
<polygon fill="white" stroke="transparent" points="-4,4 -4,-100 276,-100 276,4 -4,4"/>
<!-- Node1 -->
<g id="node1" class="node">
<title>Node1</title>
<g id="a_node1"><a xlink:title=" ">
<polygon fill="#bfbfbf" stroke="black" points="0,-19.5 0,-38.5 123,-38.5 123,-19.5 0,-19.5"/>
<text text-anchor="middle" x="61.5" y="-26.5" font-family="Helvetica,sans-Serif" font-size="10.00">effphase_class::effphase</text>
</a>
</g>
</g>
<!-- Node2 -->
<g id="node2" class="node">
<title>Node2</title>
<g id="a_node2"><a xlink:href="quadpack__module_8f90.html#ac59eaf7c56c1d421d129425895fa0107" target="_top" xlink:title=" ">
<polygon fill="white" stroke="black" points="160,-38.5 160,-57.5 195,-57.5 195,-38.5 160,-38.5"/>
<text text-anchor="middle" x="177.5" y="-45.5" font-family="Helvetica,sans-Serif" font-size="10.00">qagi</text>
</a>
</g>
</g>
<!-- Node1&#45;&gt;Node2 -->
<g id="edge1" class="edge">
<title>Node1&#45;&gt;Node2</title>
<path fill="none" stroke="midnightblue" d="M119.83,-38.56C130.35,-40.31 140.86,-42.06 149.92,-43.57"/>
<polygon fill="midnightblue" stroke="midnightblue" points="149.36,-47.02 159.8,-45.22 150.51,-40.12 149.36,-47.02"/>
</g>
<!-- Node6 -->
<g id="node6" class="node">
<title>Node6</title>
<g id="a_node6"><a xlink:href="effphase__class_8f90.html#a9f43f9887f468d012dbae6ba88547dd7" target="_top" xlink:title="The integrand in effective psi, eq.[16] of Langanke &amp; Pinedo (2001)">
<polygon fill="white" stroke="black" points="159,-0.5 159,-19.5 196,-19.5 196,-0.5 159,-0.5"/>
<text text-anchor="middle" x="177.5" y="-7.5" font-family="Helvetica,sans-Serif" font-size="10.00">xeffc</text>
</a>
</g>
</g>
<!-- Node1&#45;&gt;Node6 -->
<g id="edge5" class="edge">
<title>Node1&#45;&gt;Node6</title>
<path fill="none" stroke="midnightblue" d="M119.83,-19.44C129.93,-17.76 140,-16.08 148.8,-14.62"/>
<polygon fill="midnightblue" stroke="midnightblue" points="149.52,-18.04 158.81,-12.95 148.37,-11.14 149.52,-18.04"/>
</g>
<!-- Node3 -->
<g id="node3" class="node">
<title>Node3</title>
<g id="a_node3"><a xlink:href="quadpack__module_8f90.html#a5a75101d080f224c63adde98a0e64386" target="_top" xlink:title=" ">
<polygon fill="white" stroke="black" points="233,-76.5 233,-95.5 271,-95.5 271,-76.5 233,-76.5"/>
<text text-anchor="middle" x="252" y="-83.5" font-family="Helvetica,sans-Serif" font-size="10.00">qextr</text>
</a>
</g>
</g>
<!-- Node2&#45;&gt;Node3 -->
<g id="edge2" class="edge">
<title>Node2&#45;&gt;Node3</title>
<path fill="none" stroke="midnightblue" d="M195.32,-56.81C203.72,-61.22 214.11,-66.67 223.63,-71.65"/>
<polygon fill="midnightblue" stroke="midnightblue" points="222.27,-74.89 232.75,-76.44 225.52,-68.69 222.27,-74.89"/>
</g>
<!-- Node4 -->
<g id="node4" class="node">
<title>Node4</title>
<g id="a_node4"><a xlink:href="quadpack__module_8f90.html#a59164415fc33f2f3bf4ebc4ee2220f7e" target="_top" xlink:title=" ">
<polygon fill="white" stroke="black" points="232,-38.5 232,-57.5 272,-57.5 272,-38.5 232,-38.5"/>
<text text-anchor="middle" x="252" y="-45.5" font-family="Helvetica,sans-Serif" font-size="10.00">qk15i</text>
</a>
</g>
</g>
<!-- Node2&#45;&gt;Node4 -->
<g id="edge3" class="edge">
<title>Node2&#45;&gt;Node4</title>
<path fill="none" stroke="midnightblue" d="M195.32,-48C203.19,-48 212.81,-48 221.82,-48"/>
<polygon fill="midnightblue" stroke="midnightblue" points="221.98,-51.5 231.98,-48 221.98,-44.5 221.98,-51.5"/>
</g>
<!-- Node5 -->
<g id="node5" class="node">
<title>Node5</title>
<g id="a_node5"><a xlink:href="quadpack__module_8f90.html#a55e08a684c5a6315fb37dd0fdc66d8e6" target="_top" xlink:title=" ">
<polygon fill="white" stroke="black" points="233,-0.5 233,-19.5 271,-19.5 271,-0.5 233,-0.5"/>
<text text-anchor="middle" x="252" y="-7.5" font-family="Helvetica,sans-Serif" font-size="10.00">qsort</text>
</a>
</g>
</g>
<!-- Node2&#45;&gt;Node5 -->
<g id="edge4" class="edge">
<title>Node2&#45;&gt;Node5</title>
<path fill="none" stroke="midnightblue" d="M195.32,-39.19C203.72,-34.78 214.11,-29.33 223.63,-24.35"/>
<polygon fill="midnightblue" stroke="midnightblue" points="225.52,-27.31 232.75,-19.56 222.27,-21.11 225.52,-27.31"/>
</g>
</g>
</svg>
