<?xml version="1.0" encoding="UTF-8" standalone="no"?>
<!DOCTYPE svg PUBLIC "-//W3C//DTD SVG 1.1//EN"
 "http://www.w3.org/Graphics/SVG/1.1/DTD/svg11.dtd">
<!-- Generated by graphviz version 2.44.0 ()
 -->
<!-- Title: pardiso_class::netsolve Pages: 1 -->
<svg width="416pt" height="61pt"
 viewBox="0.00 0.00 416.00 61.00" xmlns="http://www.w3.org/2000/svg" xmlns:xlink="http://www.w3.org/1999/xlink">
<g id="graph0" class="graph" transform="scale(1 1) rotate(0) translate(4 57)">
<title>pardiso_class::netsolve</title>
<polygon fill="white" stroke="transparent" points="-4,4 -4,-57 412,-57 412,4 -4,4"/>
<!-- Node1 -->
<g id="node1" class="node">
<title>Node1</title>
<g id="a_node1"><a xlink:title="The solver core.">
<polygon fill="#bfbfbf" stroke="black" points="0,-28 0,-47 118,-47 118,-28 0,-28"/>
<text text-anchor="middle" x="59" y="-35" font-family="Helvetica,sans-Serif" font-size="10.00">pardiso_class::netsolve</text>
</a>
</g>
</g>
<!-- Node2 -->
<g id="node2" class="node">
<title>Node2</title>
<g id="a_node2"><a xlink:href="namespaceerror__msg__class.html#a7e065585cc806a5c264de1f088266498" target="_top" xlink:title="Converts a given integer to a string.">
<polygon fill="white" stroke="black" points="304,-22.5 304,-52.5 408,-52.5 408,-22.5 304,-22.5"/>
<text text-anchor="start" x="312" y="-40.5" font-family="Helvetica,sans-Serif" font-size="10.00">error_msg_class::int</text>
<text text-anchor="middle" x="356" y="-29.5" font-family="Helvetica,sans-Serif" font-size="10.00">_to_str</text>
</a>
</g>
</g>
<!-- Node1&#45;&gt;Node2 -->
<g id="edge1" class="edge">
<title>Node1&#45;&gt;Node2</title>
<path fill="none" stroke="midnightblue" d="M118.16,-39.65C130.02,-40 142.41,-40.32 154,-40.5 204.66,-41.31 217.34,-41.37 268,-40.5 276.36,-40.36 285.18,-40.13 293.85,-39.87"/>
<polygon fill="midnightblue" stroke="midnightblue" points="294.06,-43.37 303.94,-39.55 293.84,-36.37 294.06,-43.37"/>
</g>
<!-- Node3 -->
<g id="node3" class="node">
<title>Node3</title>
<g id="a_node3"><a xlink:href="namespaceerror__msg__class.html#a2453d3b7cb363115c046840baa1dfb75" target="_top" xlink:title="Raise a exception with a given error message.">
<polygon fill="white" stroke="black" points="154,-0.5 154,-30.5 268,-30.5 268,-0.5 154,-0.5"/>
<text text-anchor="start" x="162" y="-18.5" font-family="Helvetica,sans-Serif" font-size="10.00">error_msg_class::raise</text>
<text text-anchor="middle" x="211" y="-7.5" font-family="Helvetica,sans-Serif" font-size="10.00">_exception</text>
</a>
</g>
</g>
<!-- Node1&#45;&gt;Node3 -->
<g id="edge2" class="edge">
<title>Node1&#45;&gt;Node3</title>
<path fill="none" stroke="midnightblue" d="M118.42,-28.93C126.82,-27.7 135.51,-26.43 144.04,-25.17"/>
<polygon fill="midnightblue" stroke="midnightblue" points="144.56,-28.64 153.95,-23.72 143.55,-21.71 144.56,-28.64"/>
</g>
<!-- Node3&#45;&gt;Node2 -->
<g id="edge3" class="edge">
<title>Node3&#45;&gt;Node2</title>
<path fill="none" stroke="midnightblue" d="M268.11,-24.13C276.54,-25.43 285.28,-26.77 293.81,-28.09"/>
<polygon fill="midnightblue" stroke="midnightblue" points="293.3,-31.55 303.71,-29.61 294.36,-24.63 293.3,-31.55"/>
</g>
</g>
</svg>
