<?xml version="1.0" encoding="UTF-8" standalone="no"?>
<!DOCTYPE svg PUBLIC "-//W3C//DTD SVG 1.1//EN"
 "http://www.w3.org/Graphics/SVG/1.1/DTD/svg11.dtd">
<!-- Generated by graphviz version 2.44.0 ()
 -->
<!-- Title: analysis::analysis_init Pages: 1 -->
<svg width="880pt" height="601pt"
 viewBox="0.00 0.00 880.00 601.06" xmlns="http://www.w3.org/2000/svg" xmlns:xlink="http://www.w3.org/1999/xlink">
<g id="graph0" class="graph" transform="scale(1 1) rotate(0) translate(4 597.06)">
<title>analysis::analysis_init</title>
<polygon fill="white" stroke="transparent" points="-4,4 -4,-597.06 876,-597.06 876,4 -4,4"/>
<!-- Node1 -->
<g id="node1" class="node">
<title>Node1</title>
<g id="a_node1"><a xlink:title="Open files, write headers, allocate space etc.">
<polygon fill="#bfbfbf" stroke="black" points="0,-462.56 0,-481.56 110,-481.56 110,-462.56 0,-462.56"/>
<text text-anchor="middle" x="55" y="-469.56" font-family="Helvetica,sans-Serif" font-size="10.00">analysis::analysis_init</text>
</a>
</g>
</g>
<!-- Node2 -->
<g id="node2" class="node">
<title>Node2</title>
<g id="a_node2"><a xlink:href="namespacefile__handling__class.html#a01ba26324d7662cc0fb2e0eb306cd3e2" target="_top" xlink:title="Close an external file.">
<polygon fill="white" stroke="black" points="472,-534.06 472,-564.06 570,-564.06 570,-534.06 472,-534.06"/>
<text text-anchor="start" x="480" y="-552.06" font-family="Helvetica,sans-Serif" font-size="10.00">file_handling_class</text>
<text text-anchor="middle" x="521" y="-541.06" font-family="Helvetica,sans-Serif" font-size="10.00">::close_io_file</text>
</a>
</g>
</g>
<!-- Node1&#45;&gt;Node2 -->
<g id="edge1" class="edge">
<title>Node1&#45;&gt;Node2</title>
<path fill="none" stroke="midnightblue" d="M110.13,-481.04C198.07,-495.63 371.19,-524.36 461.72,-539.39"/>
<polygon fill="midnightblue" stroke="midnightblue" points="461.37,-542.88 471.81,-541.06 462.52,-535.97 461.37,-542.88"/>
</g>
<!-- Node3 -->
<g id="node3" class="node">
<title>Node3</title>
<g id="a_node3"><a xlink:href="namespaceerror__msg__class.html#a7e065585cc806a5c264de1f088266498" target="_top" xlink:title="Converts a given integer to a string.">
<polygon fill="white" stroke="black" points="768,-534.06 768,-564.06 872,-564.06 872,-534.06 768,-534.06"/>
<text text-anchor="start" x="776" y="-552.06" font-family="Helvetica,sans-Serif" font-size="10.00">error_msg_class::int</text>
<text text-anchor="middle" x="820" y="-541.06" font-family="Helvetica,sans-Serif" font-size="10.00">_to_str</text>
</a>
</g>
</g>
<!-- Node1&#45;&gt;Node3 -->
<g id="edge35" class="edge">
<title>Node1&#45;&gt;Node3</title>
<path fill="none" stroke="midnightblue" d="M69.4,-481.76C110.44,-510.47 238.87,-593.06 358.5,-593.06 358.5,-593.06 358.5,-593.06 522,-593.06 604.29,-593.06 698.03,-576.33 757.81,-563.5"/>
<polygon fill="midnightblue" stroke="midnightblue" points="758.81,-566.86 767.83,-561.32 757.32,-560.02 758.81,-566.86"/>
</g>
<!-- Node5 -->
<g id="node5" class="node">
<title>Node5</title>
<g id="a_node5"><a xlink:href="namespacebenam__class.html#ad2f566697809a5731e560509d2ca7062" target="_top" xlink:title="Finds an isotope index in the network table, given its A and Z. In case it was not found,...">
<polygon fill="white" stroke="black" points="150.5,-221.56 150.5,-240.56 254.5,-240.56 254.5,-221.56 150.5,-221.56"/>
<text text-anchor="middle" x="202.5" y="-228.56" font-family="Helvetica,sans-Serif" font-size="10.00">benam_class::findaz</text>
</a>
</g>
</g>
<!-- Node1&#45;&gt;Node5 -->
<g id="edge5" class="edge">
<title>Node1&#45;&gt;Node5</title>
<path fill="none" stroke="midnightblue" d="M57.07,-462.49C61.36,-428.47 80.45,-312.08 146,-250.06 147.65,-248.49 149.44,-247.06 151.33,-245.74"/>
<polygon fill="midnightblue" stroke="midnightblue" points="153.19,-248.71 160.11,-240.68 149.7,-242.64 153.19,-248.71"/>
</g>
<!-- Node6 -->
<g id="node6" class="node">
<title>Node6</title>
<g id="a_node6"><a xlink:href="namespacehdf5__module.html#ac958193ae724ed16ed813c9805bde522" target="_top" xlink:title="Initialize the hdf5 module.">
<polygon fill="white" stroke="black" points="146,-260.06 146,-290.06 259,-290.06 259,-260.06 146,-260.06"/>
<text text-anchor="start" x="154" y="-278.06" font-family="Helvetica,sans-Serif" font-size="10.00">hdf5_module::init_hdf5</text>
<text text-anchor="middle" x="202.5" y="-267.06" font-family="Helvetica,sans-Serif" font-size="10.00">_module</text>
</a>
</g>
</g>
<!-- Node1&#45;&gt;Node6 -->
<g id="edge6" class="edge">
<title>Node1&#45;&gt;Node6</title>
<path fill="none" stroke="midnightblue" d="M63.02,-462.56C84.9,-432.93 152.32,-341.65 184.31,-298.33"/>
<polygon fill="midnightblue" stroke="midnightblue" points="187.27,-300.22 190.39,-290.1 181.64,-296.06 187.27,-300.22"/>
</g>
<!-- Node17 -->
<g id="node17" class="node">
<title>Node17</title>
<g id="a_node17"><a xlink:href="namespacefile__handling__class.html#aeddf55e8478d6220dc04310665427c3a" target="_top" xlink:title="Shorthand for opening a new file for writing (output file)">
<polygon fill="white" stroke="black" points="310.5,-457.06 310.5,-487.06 408.5,-487.06 408.5,-457.06 310.5,-457.06"/>
<text text-anchor="start" x="318.5" y="-475.06" font-family="Helvetica,sans-Serif" font-size="10.00">file_handling_class</text>
<text text-anchor="middle" x="359.5" y="-464.06" font-family="Helvetica,sans-Serif" font-size="10.00">::open_outfile</text>
</a>
</g>
</g>
<!-- Node1&#45;&gt;Node17 -->
<g id="edge36" class="edge">
<title>Node1&#45;&gt;Node17</title>
<path fill="none" stroke="midnightblue" d="M110.08,-472.06C163.56,-472.06 245.16,-472.06 300.1,-472.06"/>
<polygon fill="midnightblue" stroke="midnightblue" points="300.37,-475.56 310.37,-472.06 300.37,-468.56 300.37,-475.56"/>
</g>
<!-- Node2&#45;&gt;Node3 -->
<g id="edge2" class="edge">
<title>Node2&#45;&gt;Node3</title>
<path fill="none" stroke="midnightblue" d="M570.05,-549.06C621.13,-549.06 702.06,-549.06 757.7,-549.06"/>
<polygon fill="midnightblue" stroke="midnightblue" points="757.78,-552.56 767.78,-549.06 757.78,-545.56 757.78,-552.56"/>
</g>
<!-- Node4 -->
<g id="node4" class="node">
<title>Node4</title>
<g id="a_node4"><a xlink:href="namespaceerror__msg__class.html#a2453d3b7cb363115c046840baa1dfb75" target="_top" xlink:title="Raise a exception with a given error message.">
<polygon fill="white" stroke="black" points="618,-282.06 618,-312.06 732,-312.06 732,-282.06 618,-282.06"/>
<text text-anchor="start" x="626" y="-300.06" font-family="Helvetica,sans-Serif" font-size="10.00">error_msg_class::raise</text>
<text text-anchor="middle" x="675" y="-289.06" font-family="Helvetica,sans-Serif" font-size="10.00">_exception</text>
</a>
</g>
</g>
<!-- Node2&#45;&gt;Node4 -->
<g id="edge3" class="edge">
<title>Node2&#45;&gt;Node4</title>
<path fill="none" stroke="midnightblue" d="M562.19,-534.01C569.44,-529.97 576.44,-525.02 582,-519.06 635.99,-461.11 660.5,-367.02 669.56,-322.26"/>
<polygon fill="midnightblue" stroke="midnightblue" points="673.04,-322.73 671.49,-312.24 666.16,-321.4 673.04,-322.73"/>
</g>
<!-- Node4&#45;&gt;Node3 -->
<g id="edge4" class="edge">
<title>Node4&#45;&gt;Node3</title>
<path fill="none" stroke="midnightblue" d="M684.52,-312.07C708.4,-354.16 776.19,-473.61 805.37,-525.03"/>
<polygon fill="midnightblue" stroke="midnightblue" points="802.37,-526.84 810.35,-533.81 808.46,-523.38 802.37,-526.84"/>
</g>
<!-- Node6&#45;&gt;Node4 -->
<g id="edge34" class="edge">
<title>Node6&#45;&gt;Node4</title>
<path fill="none" stroke="midnightblue" d="M231.55,-290.18C249.26,-299.07 272.9,-309.78 295,-316.06 418.06,-351.03 456.87,-364.68 582,-338.06 601.59,-333.89 622.06,-325.25 638.71,-316.97"/>
<polygon fill="midnightblue" stroke="midnightblue" points="640.74,-319.86 648.03,-312.17 637.54,-313.63 640.74,-319.86"/>
</g>
<!-- Node7 -->
<g id="node7" class="node">
<title>Node7</title>
<g id="a_node7"><a xlink:href="namespacehdf5__module.html#ac23832e14905543a503a602cd3b3910a" target="_top" xlink:title="Initialize the timescales hdf5 group.">
<polygon fill="white" stroke="black" points="307,-238.06 307,-268.06 412,-268.06 412,-238.06 307,-238.06"/>
<text text-anchor="start" x="315" y="-256.06" font-family="Helvetica,sans-Serif" font-size="10.00">hdf5_module::init_av</text>
<text text-anchor="middle" x="359.5" y="-245.06" font-family="Helvetica,sans-Serif" font-size="10.00">_timescales</text>
</a>
</g>
</g>
<!-- Node6&#45;&gt;Node7 -->
<g id="edge7" class="edge">
<title>Node6&#45;&gt;Node7</title>
<path fill="none" stroke="midnightblue" d="M259.02,-267.18C271.36,-265.43 284.51,-263.56 297.07,-261.78"/>
<polygon fill="midnightblue" stroke="midnightblue" points="297.58,-265.24 306.98,-260.37 296.59,-258.31 297.58,-265.24"/>
</g>
<!-- Node9 -->
<g id="node9" class="node">
<title>Node9</title>
<g id="a_node9"><a xlink:href="namespacehdf5__module.html#aa156d83505172b391c98a12a60869ab2" target="_top" xlink:title="Initialize energy generation output.">
<polygon fill="white" stroke="black" points="299,-146.56 299,-165.56 420,-165.56 420,-146.56 299,-146.56"/>
<text text-anchor="middle" x="359.5" y="-153.56" font-family="Helvetica,sans-Serif" font-size="10.00">hdf5_module::init_engen</text>
</a>
</g>
</g>
<!-- Node6&#45;&gt;Node9 -->
<g id="edge11" class="edge">
<title>Node6&#45;&gt;Node9</title>
<path fill="none" stroke="midnightblue" d="M245.49,-259.96C250.38,-257.14 255.03,-253.85 259,-250.06 284.59,-225.62 268.51,-202.51 295,-179.06 298.96,-175.55 303.49,-172.57 308.28,-170.03"/>
<polygon fill="midnightblue" stroke="midnightblue" points="310.09,-173.05 317.7,-165.68 307.16,-166.7 310.09,-173.05"/>
</g>
<!-- Node11 -->
<g id="node11" class="node">
<title>Node11</title>
<g id="a_node11"><a xlink:href="namespacehdf5__module.html#adcb03d9acc77a92623fb04cc70d368f8" target="_top" xlink:title="Initialize the flow output.">
<polygon fill="white" stroke="black" points="465,-407.56 465,-426.56 577,-426.56 577,-407.56 465,-407.56"/>
<text text-anchor="middle" x="521" y="-414.56" font-family="Helvetica,sans-Serif" font-size="10.00">hdf5_module::init_flow</text>
</a>
</g>
</g>
<!-- Node6&#45;&gt;Node11 -->
<g id="edge16" class="edge">
<title>Node6&#45;&gt;Node11</title>
<path fill="none" stroke="midnightblue" d="M210.23,-290.17C222.73,-316.25 252.21,-369.19 295,-393.06 343.58,-420.15 407.27,-424.62 454.48,-423.2"/>
<polygon fill="midnightblue" stroke="midnightblue" points="454.74,-426.69 464.59,-422.79 454.46,-419.69 454.74,-426.69"/>
</g>
<!-- Node12 -->
<g id="node12" class="node">
<title>Node12</title>
<g id="a_node12"><a xlink:href="namespacehdf5__module.html#ae48ccd578f598829fc412f843c0aff7d" target="_top" xlink:title="Initialize the mainout hdf5 group.">
<polygon fill="white" stroke="black" points="295,-287.56 295,-306.56 424,-306.56 424,-287.56 295,-287.56"/>
<text text-anchor="middle" x="359.5" y="-294.56" font-family="Helvetica,sans-Serif" font-size="10.00">hdf5_module::init_mainout</text>
</a>
</g>
</g>
<!-- Node6&#45;&gt;Node12 -->
<g id="edge18" class="edge">
<title>Node6&#45;&gt;Node12</title>
<path fill="none" stroke="midnightblue" d="M259.02,-282.94C267.39,-284.13 276.13,-285.37 284.8,-286.6"/>
<polygon fill="midnightblue" stroke="midnightblue" points="284.54,-290.1 294.93,-288.04 285.52,-283.17 284.54,-290.1"/>
</g>
<!-- Node14 -->
<g id="node14" class="node">
<title>Node14</title>
<g id="a_node14"><a xlink:href="namespacehdf5__module.html#ac4bc499f1766102e6dc6a461ee554d08" target="_top" xlink:title="Initialize neutrino loss/gain output.">
<polygon fill="white" stroke="black" points="307,-189.06 307,-219.06 412,-219.06 412,-189.06 307,-189.06"/>
<text text-anchor="start" x="315" y="-207.06" font-family="Helvetica,sans-Serif" font-size="10.00">hdf5_module::init_nu</text>
<text text-anchor="middle" x="359.5" y="-196.06" font-family="Helvetica,sans-Serif" font-size="10.00">_loss_gain</text>
</a>
</g>
</g>
<!-- Node6&#45;&gt;Node14 -->
<g id="edge23" class="edge">
<title>Node6&#45;&gt;Node14</title>
<path fill="none" stroke="midnightblue" d="M238.76,-259.98C245.55,-256.85 252.55,-253.46 259,-250.06 275.58,-241.3 278.16,-236.3 295,-228.06 298.53,-226.33 302.22,-224.65 305.97,-223.02"/>
<polygon fill="midnightblue" stroke="midnightblue" points="307.45,-226.2 315.34,-219.12 304.76,-219.73 307.45,-226.2"/>
</g>
<!-- Node15 -->
<g id="node15" class="node">
<title>Node15</title>
<g id="a_node15"><a xlink:href="namespacehdf5__module.html#a66194278554c0d366251b3c2e15b16c2" target="_top" xlink:title="Initialize the snapshot hdf5 group.">
<polygon fill="white" stroke="black" points="299,-100.56 299,-119.56 420,-119.56 420,-100.56 299,-100.56"/>
<text text-anchor="middle" x="359.5" y="-107.56" font-family="Helvetica,sans-Serif" font-size="10.00">hdf5_module::init_snaps</text>
</a>
</g>
</g>
<!-- Node6&#45;&gt;Node15 -->
<g id="edge26" class="edge">
<title>Node6&#45;&gt;Node15</title>
<path fill="none" stroke="midnightblue" d="M246.92,-260.04C251.39,-257.23 255.55,-253.92 259,-250.06 294.07,-210.71 259.51,-176.03 295,-137.06 299.77,-131.82 305.72,-127.56 312.06,-124.11"/>
<polygon fill="midnightblue" stroke="midnightblue" points="313.99,-127.07 321.52,-119.61 310.99,-120.74 313.99,-127.07"/>
</g>
<!-- Node16 -->
<g id="node16" class="node">
<title>Node16</title>
<g id="a_node16"><a xlink:href="namespacehdf5__module.html#ab9fc032c08e349615fd44c7761a3470c" target="_top" xlink:title="Initialize the tracked_nuclei hdf5 group.">
<polygon fill="white" stroke="black" points="301.5,-35.06 301.5,-65.06 417.5,-65.06 417.5,-35.06 301.5,-35.06"/>
<text text-anchor="start" x="309.5" y="-53.06" font-family="Helvetica,sans-Serif" font-size="10.00">hdf5_module::init_track</text>
<text text-anchor="middle" x="359.5" y="-42.06" font-family="Helvetica,sans-Serif" font-size="10.00">_nuclei</text>
</a>
</g>
</g>
<!-- Node6&#45;&gt;Node16 -->
<g id="edge30" class="edge">
<title>Node6&#45;&gt;Node16</title>
<path fill="none" stroke="midnightblue" d="M247.79,-259.97C252,-257.18 255.86,-253.9 259,-250.06 304.85,-193.95 253.49,-150.44 295,-91.06 300.58,-83.08 308.26,-76.28 316.36,-70.64"/>
<polygon fill="midnightblue" stroke="midnightblue" points="318.34,-73.53 324.87,-65.2 314.56,-67.64 318.34,-73.53"/>
</g>
<!-- Node7&#45;&gt;Node4 -->
<g id="edge10" class="edge">
<title>Node7&#45;&gt;Node4</title>
<path fill="none" stroke="midnightblue" d="M412.31,-254.87C457.42,-257.07 524.42,-261.85 582,-272.06 592.86,-273.98 604.29,-276.6 615.27,-279.42"/>
<polygon fill="midnightblue" stroke="midnightblue" points="614.63,-282.87 625.19,-282.04 616.42,-276.1 614.63,-282.87"/>
</g>
<!-- Node8 -->
<g id="node8" class="node">
<title>Node8</title>
<g id="a_node8"><a xlink:href="namespacehdf5__module.html#aaee7540701e1025315a58592932552cc" target="_top" xlink:title="Gets a dataset name and creates it.">
<polygon fill="white" stroke="black" points="469,-156.06 469,-186.06 573,-186.06 573,-156.06 469,-156.06"/>
<text text-anchor="start" x="477" y="-174.06" font-family="Helvetica,sans-Serif" font-size="10.00">hdf5_module::create</text>
<text text-anchor="middle" x="521" y="-163.06" font-family="Helvetica,sans-Serif" font-size="10.00">_1d_dataset</text>
</a>
</g>
</g>
<!-- Node7&#45;&gt;Node8 -->
<g id="edge8" class="edge">
<title>Node7&#45;&gt;Node8</title>
<path fill="none" stroke="midnightblue" d="M401.57,-238.01C409.12,-234.93 416.87,-231.55 424,-228.06 446.14,-217.21 469.98,-203.08 488.36,-191.59"/>
<polygon fill="midnightblue" stroke="midnightblue" points="490.32,-194.49 496.91,-186.2 486.59,-188.57 490.32,-194.49"/>
</g>
<!-- Node8&#45;&gt;Node4 -->
<g id="edge9" class="edge">
<title>Node8&#45;&gt;Node4</title>
<path fill="none" stroke="midnightblue" d="M557.14,-186.1C565.61,-190.4 574.41,-195.46 582,-201.06 610.87,-222.34 638.59,-253.15 655.91,-274.09"/>
<polygon fill="midnightblue" stroke="midnightblue" points="653.21,-276.31 662.24,-281.85 658.64,-271.89 653.21,-276.31"/>
</g>
<!-- Node9&#45;&gt;Node4 -->
<g id="edge15" class="edge">
<title>Node9&#45;&gt;Node4</title>
<path fill="none" stroke="midnightblue" d="M386.77,-146.47C430.46,-132.28 519.41,-110.9 582,-146.06 630.23,-173.15 656.15,-236.93 667.27,-272.31"/>
<polygon fill="midnightblue" stroke="midnightblue" points="663.91,-273.32 670.13,-281.9 670.62,-271.32 663.91,-273.32"/>
</g>
<!-- Node9&#45;&gt;Node8 -->
<g id="edge12" class="edge">
<title>Node9&#45;&gt;Node8</title>
<path fill="none" stroke="midnightblue" d="M420.35,-161.69C432.97,-162.87 446.31,-164.13 458.97,-165.32"/>
<polygon fill="midnightblue" stroke="midnightblue" points="458.68,-168.81 468.96,-166.26 459.34,-161.84 458.68,-168.81"/>
</g>
<!-- Node10 -->
<g id="node10" class="node">
<title>Node10</title>
<g id="a_node10"><a xlink:href="namespacehdf5__module.html#afbf1071900336a7ed8fcb9b8980a6682" target="_top" xlink:title="Create a hdf5 entry with constant values.">
<polygon fill="white" stroke="black" points="460,-30.06 460,-60.06 582,-60.06 582,-30.06 460,-30.06"/>
<text text-anchor="start" x="468" y="-48.06" font-family="Helvetica,sans-Serif" font-size="10.00">hdf5_module::create</text>
<text text-anchor="middle" x="521" y="-37.06" font-family="Helvetica,sans-Serif" font-size="10.00">_constant_1d_int_arrays</text>
</a>
</g>
</g>
<!-- Node9&#45;&gt;Node10 -->
<g id="edge13" class="edge">
<title>Node9&#45;&gt;Node10</title>
<path fill="none" stroke="midnightblue" d="M388.33,-146.44C399.79,-141.92 412.94,-136 424,-129.06 451.9,-111.55 479.79,-86.03 498.26,-67.71"/>
<polygon fill="midnightblue" stroke="midnightblue" points="501.01,-69.91 505.57,-60.35 496.04,-64.98 501.01,-69.91"/>
</g>
<!-- Node10&#45;&gt;Node4 -->
<g id="edge14" class="edge">
<title>Node10&#45;&gt;Node4</title>
<path fill="none" stroke="midnightblue" d="M562.19,-60.11C569.44,-64.15 576.44,-69.09 582,-75.06 635.99,-133.01 660.5,-227.1 669.56,-271.86"/>
<polygon fill="midnightblue" stroke="midnightblue" points="666.16,-272.72 671.49,-281.87 673.04,-271.39 666.16,-272.72"/>
</g>
<!-- Node11&#45;&gt;Node4 -->
<g id="edge17" class="edge">
<title>Node11&#45;&gt;Node4</title>
<path fill="none" stroke="midnightblue" d="M553.17,-407.48C562.85,-403.76 573.26,-398.96 582,-393.06 611.9,-372.88 639.58,-341.57 656.6,-320.23"/>
<polygon fill="midnightblue" stroke="midnightblue" points="659.39,-322.35 662.8,-312.31 653.88,-318.03 659.39,-322.35"/>
</g>
<!-- Node12&#45;&gt;Node4 -->
<g id="edge22" class="edge">
<title>Node12&#45;&gt;Node4</title>
<path fill="none" stroke="midnightblue" d="M391.97,-306.67C411.37,-312.09 436.88,-318.31 460,-321.06 513.84,-327.46 528.22,-327.96 582,-321.06 593.03,-319.64 604.63,-317.31 615.73,-314.64"/>
<polygon fill="midnightblue" stroke="midnightblue" points="616.91,-317.95 625.75,-312.11 615.2,-311.17 616.91,-317.95"/>
</g>
<!-- Node12&#45;&gt;Node8 -->
<g id="edge19" class="edge">
<title>Node12&#45;&gt;Node8</title>
<path fill="none" stroke="midnightblue" d="M401.9,-287.52C409.58,-284.8 417.29,-281.36 424,-277.06 457.88,-255.34 487.35,-218.63 504.4,-194.62"/>
<polygon fill="midnightblue" stroke="midnightblue" points="507.28,-196.61 510.11,-186.4 501.53,-192.61 507.28,-196.61"/>
</g>
<!-- Node13 -->
<g id="node13" class="node">
<title>Node13</title>
<g id="a_node13"><a xlink:href="namespacehdf5__module.html#a9f787006556041c71ebaca1ae791f925" target="_top" xlink:title="Gets a dataset name and creates an integer dataset.">
<polygon fill="white" stroke="black" points="469,-282.06 469,-312.06 573,-312.06 573,-282.06 469,-282.06"/>
<text text-anchor="start" x="477" y="-300.06" font-family="Helvetica,sans-Serif" font-size="10.00">hdf5_module::create</text>
<text text-anchor="middle" x="521" y="-289.06" font-family="Helvetica,sans-Serif" font-size="10.00">_1d_int_dataset</text>
</a>
</g>
</g>
<!-- Node12&#45;&gt;Node13 -->
<g id="edge20" class="edge">
<title>Node12&#45;&gt;Node13</title>
<path fill="none" stroke="midnightblue" d="M424.46,-297.06C435.74,-297.06 447.46,-297.06 458.66,-297.06"/>
<polygon fill="midnightblue" stroke="midnightblue" points="458.78,-300.56 468.78,-297.06 458.78,-293.56 458.78,-300.56"/>
</g>
<!-- Node13&#45;&gt;Node4 -->
<g id="edge21" class="edge">
<title>Node13&#45;&gt;Node4</title>
<path fill="none" stroke="midnightblue" d="M573.04,-297.06C584.18,-297.06 596.12,-297.06 607.76,-297.06"/>
<polygon fill="midnightblue" stroke="midnightblue" points="607.87,-300.56 617.87,-297.06 607.87,-293.56 607.87,-300.56"/>
</g>
<!-- Node14&#45;&gt;Node4 -->
<g id="edge25" class="edge">
<title>Node14&#45;&gt;Node4</title>
<path fill="none" stroke="midnightblue" d="M412.4,-212.51C457.85,-220.67 525.3,-234.66 582,-254.06 600.41,-260.36 620.04,-269.21 636.42,-277.25"/>
<polygon fill="midnightblue" stroke="midnightblue" points="635.14,-280.53 645.65,-281.87 638.27,-274.27 635.14,-280.53"/>
</g>
<!-- Node14&#45;&gt;Node8 -->
<g id="edge24" class="edge">
<title>Node14&#45;&gt;Node8</title>
<path fill="none" stroke="midnightblue" d="M412.29,-193.34C427.13,-190.27 443.46,-186.89 458.82,-183.72"/>
<polygon fill="midnightblue" stroke="midnightblue" points="459.66,-187.12 468.75,-181.66 458.25,-180.26 459.66,-187.12"/>
</g>
<!-- Node15&#45;&gt;Node4 -->
<g id="edge29" class="edge">
<title>Node15&#45;&gt;Node4</title>
<path fill="none" stroke="midnightblue" d="M406.05,-100.51C453.83,-93.11 529.19,-89.09 582,-123.06 635.05,-157.18 659.43,-232.55 668.9,-271.95"/>
<polygon fill="midnightblue" stroke="midnightblue" points="665.51,-272.84 671.14,-281.82 672.34,-271.3 665.51,-272.84"/>
</g>
<!-- Node15&#45;&gt;Node8 -->
<g id="edge27" class="edge">
<title>Node15&#45;&gt;Node8</title>
<path fill="none" stroke="midnightblue" d="M385.42,-119.59C408.33,-128.35 442.93,-141.58 471.31,-152.44"/>
<polygon fill="midnightblue" stroke="midnightblue" points="470.08,-155.72 480.68,-156.02 472.59,-149.18 470.08,-155.72"/>
</g>
<!-- Node15&#45;&gt;Node10 -->
<g id="edge28" class="edge">
<title>Node15&#45;&gt;Node10</title>
<path fill="none" stroke="midnightblue" d="M384.03,-100.47C407.47,-90.92 444.08,-76 473.41,-64.05"/>
<polygon fill="midnightblue" stroke="midnightblue" points="475.11,-67.13 483.05,-60.12 472.47,-60.65 475.11,-67.13"/>
</g>
<!-- Node16&#45;&gt;Node4 -->
<g id="edge33" class="edge">
<title>Node16&#45;&gt;Node4</title>
<path fill="none" stroke="midnightblue" d="M388.36,-34.9C433.55,-12.61 523.63,22.06 582,-20.06 664.25,-79.41 674.12,-215.28 674.52,-271.74"/>
<polygon fill="midnightblue" stroke="midnightblue" points="671.02,-271.91 674.49,-281.92 678.02,-271.93 671.02,-271.91"/>
</g>
<!-- Node16&#45;&gt;Node8 -->
<g id="edge31" class="edge">
<title>Node16&#45;&gt;Node8</title>
<path fill="none" stroke="midnightblue" d="M385.39,-65.15C397.3,-72.62 411.63,-81.96 424,-91.06 449.23,-109.61 476.54,-132.68 495.55,-149.28"/>
<polygon fill="midnightblue" stroke="midnightblue" points="493.34,-151.99 503.17,-155.96 497.96,-146.73 493.34,-151.99"/>
</g>
<!-- Node16&#45;&gt;Node10 -->
<g id="edge32" class="edge">
<title>Node16&#45;&gt;Node10</title>
<path fill="none" stroke="midnightblue" d="M417.63,-48.27C428,-47.94 438.92,-47.6 449.61,-47.27"/>
<polygon fill="midnightblue" stroke="midnightblue" points="449.88,-50.76 459.76,-46.95 449.66,-43.76 449.88,-50.76"/>
</g>
<!-- Node17&#45;&gt;Node4 -->
<g id="edge39" class="edge">
<title>Node17&#45;&gt;Node4</title>
<path fill="none" stroke="midnightblue" d="M398.65,-487.08C445.61,-502.91 525.97,-521.1 582,-486.06 640.21,-449.66 662.55,-364.69 670.3,-322.2"/>
<polygon fill="midnightblue" stroke="midnightblue" points="673.79,-322.57 672.01,-312.12 666.89,-321.4 673.79,-322.57"/>
</g>
<!-- Node18 -->
<g id="node18" class="node">
<title>Node18</title>
<g id="a_node18"><a xlink:href="namespacefile__handling__class.html#af02196bd5eaf70ecd5ab4cc650094d5e" target="_top" xlink:title="Finds the next unused unit number.">
<polygon fill="white" stroke="black" points="472,-446.06 472,-476.06 570,-476.06 570,-446.06 472,-446.06"/>
<text text-anchor="start" x="480" y="-464.06" font-family="Helvetica,sans-Serif" font-size="10.00">file_handling_class</text>
<text text-anchor="middle" x="521" y="-453.06" font-family="Helvetica,sans-Serif" font-size="10.00">::get_next_io_unit</text>
</a>
</g>
</g>
<!-- Node17&#45;&gt;Node18 -->
<g id="edge37" class="edge">
<title>Node17&#45;&gt;Node18</title>
<path fill="none" stroke="midnightblue" d="M408.79,-468.73C425.5,-467.58 444.4,-466.27 461.82,-465.07"/>
<polygon fill="midnightblue" stroke="midnightblue" points="462.14,-468.56 471.88,-464.38 461.66,-461.57 462.14,-468.56"/>
</g>
<!-- Node18&#45;&gt;Node4 -->
<g id="edge38" class="edge">
<title>Node18&#45;&gt;Node4</title>
<path fill="none" stroke="midnightblue" d="M566.65,-446.02C572.12,-443.17 577.39,-439.87 582,-436.06 620.49,-404.27 648.88,-352.21 663.31,-321.63"/>
<polygon fill="midnightblue" stroke="midnightblue" points="666.67,-322.69 667.66,-312.14 660.31,-319.77 666.67,-322.69"/>
</g>
</g>
</svg>
