<?xml version="1.0" encoding="UTF-8" standalone="no"?>
<!DOCTYPE svg PUBLIC "-//W3C//DTD SVG 1.1//EN"
 "http://www.w3.org/Graphics/SVG/1.1/DTD/svg11.dtd">
<!-- Generated by graphviz version 2.44.0 ()
 -->
<!-- Title: winnse_module::winnse_calc_nr Pages: 1 -->
<svg width="451pt" height="205pt"
 viewBox="0.00 0.00 451.00 205.18" xmlns="http://www.w3.org/2000/svg" xmlns:xlink="http://www.w3.org/1999/xlink">
<g id="graph0" class="graph" transform="scale(1 1) rotate(0) translate(4 201.18)">
<title>winnse_module::winnse_calc_nr</title>
<polygon fill="white" stroke="transparent" points="-4,4 -4,-201.18 447,-201.18 447,4 -4,4"/>
<!-- Node1 -->
<g id="node1" class="node">
<title>Node1</title>
<g id="a_node1"><a xlink:title="Solves the nse&#45;equations using a 2&#45;dimensional newton&#45;raphson scheme.">
<polygon fill="#bfbfbf" stroke="black" points="0,-93.5 0,-123.5 119,-123.5 119,-93.5 0,-93.5"/>
<text text-anchor="start" x="8" y="-111.5" font-family="Helvetica,sans-Serif" font-size="10.00">winnse_module::winnse</text>
<text text-anchor="middle" x="59.5" y="-100.5" font-family="Helvetica,sans-Serif" font-size="10.00">_calc_nr</text>
</a>
</g>
</g>
<!-- Node2 -->
<g id="node2" class="node">
<title>Node2</title>
<g id="a_node2"><a xlink:href="namespaceerror__msg__class.html#a7e065585cc806a5c264de1f088266498" target="_top" xlink:title="Converts a given integer to a string.">
<polygon fill="white" stroke="black" points="339,-117.5 339,-147.5 443,-147.5 443,-117.5 339,-117.5"/>
<text text-anchor="start" x="347" y="-135.5" font-family="Helvetica,sans-Serif" font-size="10.00">error_msg_class::int</text>
<text text-anchor="middle" x="391" y="-124.5" font-family="Helvetica,sans-Serif" font-size="10.00">_to_str</text>
</a>
</g>
</g>
<!-- Node1&#45;&gt;Node2 -->
<g id="edge1" class="edge">
<title>Node1&#45;&gt;Node2</title>
<path fill="none" stroke="midnightblue" d="M73.7,-123.71C90.47,-141.77 121.32,-170.88 155,-182.5 217.18,-203.95 239.45,-199.46 303,-182.5 324.3,-176.81 345.81,-164.53 362.11,-153.56"/>
<polygon fill="midnightblue" stroke="midnightblue" points="364.38,-156.24 370.59,-147.65 360.38,-150.49 364.38,-156.24"/>
</g>
<!-- Node3 -->
<g id="node3" class="node">
<title>Node3</title>
<g id="a_node3"><a xlink:href="namespacewinnse__module.html#ab51d55fb32259605b02d665c4bfb979b" target="_top" xlink:title="Calls screening subroutine and adds subsequent proton capture screening corrections in scrn(1:zmax).">
<polygon fill="white" stroke="black" points="177,-142.5 177,-172.5 281,-172.5 281,-142.5 177,-142.5"/>
<text text-anchor="start" x="185" y="-160.5" font-family="Helvetica,sans-Serif" font-size="10.00">winnse_module::nse</text>
<text text-anchor="middle" x="229" y="-149.5" font-family="Helvetica,sans-Serif" font-size="10.00">_screen</text>
</a>
</g>
</g>
<!-- Node1&#45;&gt;Node3 -->
<g id="edge2" class="edge">
<title>Node1&#45;&gt;Node3</title>
<path fill="none" stroke="midnightblue" d="M112.12,-123.6C129.48,-128.68 149,-134.39 167.01,-139.66"/>
<polygon fill="midnightblue" stroke="midnightblue" points="166.26,-143.08 176.84,-142.53 168.22,-136.37 166.26,-143.08"/>
</g>
<!-- Node4 -->
<g id="node4" class="node">
<title>Node4</title>
<g id="a_node4"><a xlink:href="namespaceerror__msg__class.html#a5bc9f3b670b725cc43276934b867d801" target="_top" xlink:title="Converts a given real to a string with format &quot;(1pE10.2)&quot;.">
<polygon fill="white" stroke="black" points="173,-93.5 173,-123.5 285,-123.5 285,-93.5 173,-93.5"/>
<text text-anchor="start" x="181" y="-111.5" font-family="Helvetica,sans-Serif" font-size="10.00">error_msg_class::num</text>
<text text-anchor="middle" x="229" y="-100.5" font-family="Helvetica,sans-Serif" font-size="10.00">_to_str</text>
</a>
</g>
</g>
<!-- Node1&#45;&gt;Node4 -->
<g id="edge3" class="edge">
<title>Node1&#45;&gt;Node4</title>
<path fill="none" stroke="midnightblue" d="M119.08,-108.5C133.13,-108.5 148.21,-108.5 162.55,-108.5"/>
<polygon fill="midnightblue" stroke="midnightblue" points="162.82,-112 172.82,-108.5 162.82,-105 162.82,-112"/>
</g>
<!-- Node5 -->
<g id="node5" class="node">
<title>Node5</title>
<g id="a_node5"><a xlink:href="namespaceerror__msg__class.html#a2453d3b7cb363115c046840baa1dfb75" target="_top" xlink:title="Raise a exception with a given error message.">
<polygon fill="white" stroke="black" points="172,-44.5 172,-74.5 286,-74.5 286,-44.5 172,-44.5"/>
<text text-anchor="start" x="180" y="-62.5" font-family="Helvetica,sans-Serif" font-size="10.00">error_msg_class::raise</text>
<text text-anchor="middle" x="229" y="-51.5" font-family="Helvetica,sans-Serif" font-size="10.00">_exception</text>
</a>
</g>
</g>
<!-- Node1&#45;&gt;Node5 -->
<g id="edge4" class="edge">
<title>Node1&#45;&gt;Node5</title>
<path fill="none" stroke="midnightblue" d="M112.12,-93.4C129.4,-88.34 148.82,-82.66 166.76,-77.42"/>
<polygon fill="midnightblue" stroke="midnightblue" points="167.93,-80.72 176.55,-74.55 165.97,-74 167.93,-80.72"/>
</g>
<!-- Node6 -->
<g id="node6" class="node">
<title>Node6</title>
<g id="a_node6"><a xlink:href="namespacewinnse__module.html#a7f059289a0c97c6be525337bfd649af9" target="_top" xlink:title="Calculates the nse coefficients C, as given in Hix,Thielemann &#39;99, Eq.25.">
<polygon fill="white" stroke="black" points="155,-6 155,-25 303,-25 303,-6 155,-6"/>
<text text-anchor="middle" x="229" y="-13" font-family="Helvetica,sans-Serif" font-size="10.00">winnse_module::wincnse_calc</text>
</a>
</g>
</g>
<!-- Node1&#45;&gt;Node6 -->
<g id="edge6" class="edge">
<title>Node1&#45;&gt;Node6</title>
<path fill="none" stroke="midnightblue" d="M75.51,-93.48C93.1,-76.72 123.81,-49.93 155,-34.5 159.84,-32.1 165.02,-29.99 170.3,-28.12"/>
<polygon fill="midnightblue" stroke="midnightblue" points="171.42,-31.44 179.86,-25.03 169.26,-24.78 171.42,-31.44"/>
</g>
<!-- Node5&#45;&gt;Node2 -->
<g id="edge5" class="edge">
<title>Node5&#45;&gt;Node2</title>
<path fill="none" stroke="midnightblue" d="M277.98,-74.59C286.41,-77.63 295.04,-80.97 303,-84.5 321.19,-92.56 340.66,-103.1 356.55,-112.26"/>
<polygon fill="midnightblue" stroke="midnightblue" points="355.06,-115.44 365.46,-117.45 358.59,-109.39 355.06,-115.44"/>
</g>
<!-- Node7 -->
<g id="node7" class="node">
<title>Node7</title>
<g id="a_node7"><a xlink:href="namespacenucstuff__class.html#a7f6b5ddec08f9564638a58091e6940d7" target="_top" xlink:title="Calculates partition function.">
<polygon fill="white" stroke="black" points="339.5,-0.5 339.5,-30.5 442.5,-30.5 442.5,-0.5 339.5,-0.5"/>
<text text-anchor="start" x="347.5" y="-18.5" font-family="Helvetica,sans-Serif" font-size="10.00">nucstuff_class::inter</text>
<text text-anchor="middle" x="391" y="-7.5" font-family="Helvetica,sans-Serif" font-size="10.00">_partf</text>
</a>
</g>
</g>
<!-- Node6&#45;&gt;Node7 -->
<g id="edge7" class="edge">
<title>Node6&#45;&gt;Node7</title>
<path fill="none" stroke="midnightblue" d="M303.44,-15.5C312.09,-15.5 320.83,-15.5 329.28,-15.5"/>
<polygon fill="midnightblue" stroke="midnightblue" points="329.4,-19 339.4,-15.5 329.4,-12 329.4,-19"/>
</g>
</g>
</svg>
