<?xml version="1.0" encoding="UTF-8" standalone="no"?>
<!DOCTYPE svg PUBLIC "-//W3C//DTD SVG 1.1//EN"
 "http://www.w3.org/Graphics/SVG/1.1/DTD/svg11.dtd">
<!-- Generated by graphviz version 2.44.0 ()
 -->
<!-- Title: nuflux_class::merge_neutrino_rates Pages: 1 -->
<svg width="578pt" height="91pt"
 viewBox="0.00 0.00 578.00 90.50" xmlns="http://www.w3.org/2000/svg" xmlns:xlink="http://www.w3.org/1999/xlink">
<g id="graph0" class="graph" transform="scale(1 1) rotate(0) translate(4 86.5)">
<title>nuflux_class::merge_neutrino_rates</title>
<polygon fill="white" stroke="transparent" points="-4,4 -4,-86.5 574,-86.5 574,4 -4,4"/>
<!-- Node1 -->
<g id="node1" class="node">
<title>Node1</title>
<g id="a_node1"><a xlink:title="Routine to merge neutrino rates into rrate array.">
<polygon fill="#bfbfbf" stroke="black" points="0,-33 0,-63 101,-63 101,-33 0,-33"/>
<text text-anchor="start" x="8" y="-51" font-family="Helvetica,sans-Serif" font-size="10.00">nuflux_class::merge</text>
<text text-anchor="middle" x="50.5" y="-40" font-family="Helvetica,sans-Serif" font-size="10.00">_neutrino_rates</text>
</a>
</g>
</g>
<!-- Node2 -->
<g id="node2" class="node">
<title>Node2</title>
<g id="a_node2"><a xlink:href="namespaceerror__msg__class.html#a2453d3b7cb363115c046840baa1dfb75" target="_top" xlink:title="Raise a exception with a given error message.">
<polygon fill="white" stroke="black" points="316,-52 316,-82 430,-82 430,-52 316,-52"/>
<text text-anchor="start" x="324" y="-70" font-family="Helvetica,sans-Serif" font-size="10.00">error_msg_class::raise</text>
<text text-anchor="middle" x="373" y="-59" font-family="Helvetica,sans-Serif" font-size="10.00">_exception</text>
</a>
</g>
</g>
<!-- Node1&#45;&gt;Node2 -->
<g id="edge1" class="edge">
<title>Node1&#45;&gt;Node2</title>
<path fill="none" stroke="midnightblue" d="M101.38,-61C112.99,-63.49 125.36,-65.72 137,-67 193.67,-73.22 258.5,-72.65 305.69,-70.85"/>
<polygon fill="midnightblue" stroke="midnightblue" points="305.94,-74.34 315.78,-70.43 305.65,-67.35 305.94,-74.34"/>
</g>
<!-- Node4 -->
<g id="node4" class="node">
<title>Node4</title>
<g id="a_node4"><a xlink:href="namespacemergesort__module.html#abf490436dad94120a2c99efc036f2b1b" target="_top" xlink:title="Merges two tables of rates (of type global_class::reactionrate_type).">
<polygon fill="white" stroke="black" points="138.5,-38.5 138.5,-57.5 278.5,-57.5 278.5,-38.5 138.5,-38.5"/>
<text text-anchor="middle" x="208.5" y="-45.5" font-family="Helvetica,sans-Serif" font-size="10.00">mergesort_module::rrate_ms</text>
</a>
</g>
</g>
<!-- Node1&#45;&gt;Node4 -->
<g id="edge3" class="edge">
<title>Node1&#45;&gt;Node4</title>
<path fill="none" stroke="midnightblue" d="M101.29,-48C109.84,-48 118.91,-48 128.02,-48"/>
<polygon fill="midnightblue" stroke="midnightblue" points="128.28,-51.5 138.28,-48 128.28,-44.5 128.28,-51.5"/>
</g>
<!-- Node5 -->
<g id="node5" class="node">
<title>Node5</title>
<g id="a_node5"><a xlink:href="namespacemergesort__module.html#a350624bb77af754147cd68332b16b9e5" target="_top" xlink:title="Sorts chapter one of the rate array.">
<polygon fill="white" stroke="black" points="137,-0.5 137,-19.5 280,-19.5 280,-0.5 137,-0.5"/>
<text text-anchor="middle" x="208.5" y="-7.5" font-family="Helvetica,sans-Serif" font-size="10.00">mergesort_module::rrate_sort</text>
</a>
</g>
</g>
<!-- Node1&#45;&gt;Node5 -->
<g id="edge5" class="edge">
<title>Node1&#45;&gt;Node5</title>
<path fill="none" stroke="midnightblue" d="M101.29,-35.87C119.57,-31.42 140.24,-26.38 158.46,-21.95"/>
<polygon fill="midnightblue" stroke="midnightblue" points="159.41,-25.32 168.3,-19.55 157.75,-18.52 159.41,-25.32"/>
</g>
<!-- Node3 -->
<g id="node3" class="node">
<title>Node3</title>
<g id="a_node3"><a xlink:href="namespaceerror__msg__class.html#a7e065585cc806a5c264de1f088266498" target="_top" xlink:title="Converts a given integer to a string.">
<polygon fill="white" stroke="black" points="466,-52 466,-82 570,-82 570,-52 466,-52"/>
<text text-anchor="start" x="474" y="-70" font-family="Helvetica,sans-Serif" font-size="10.00">error_msg_class::int</text>
<text text-anchor="middle" x="518" y="-59" font-family="Helvetica,sans-Serif" font-size="10.00">_to_str</text>
</a>
</g>
</g>
<!-- Node2&#45;&gt;Node3 -->
<g id="edge2" class="edge">
<title>Node2&#45;&gt;Node3</title>
<path fill="none" stroke="midnightblue" d="M430.11,-67C438.45,-67 447.09,-67 455.54,-67"/>
<polygon fill="midnightblue" stroke="midnightblue" points="455.71,-70.5 465.71,-67 455.71,-63.5 455.71,-70.5"/>
</g>
<!-- Node4&#45;&gt;Node2 -->
<g id="edge4" class="edge">
<title>Node4&#45;&gt;Node2</title>
<path fill="none" stroke="midnightblue" d="M278.89,-56.11C287.75,-57.15 296.81,-58.21 305.63,-59.24"/>
<polygon fill="midnightblue" stroke="midnightblue" points="305.5,-62.75 315.84,-60.43 306.32,-55.8 305.5,-62.75"/>
</g>
</g>
</svg>
