<?xml version="1.0" encoding="UTF-8" standalone="no"?>
<!DOCTYPE svg PUBLIC "-//W3C//DTD SVG 1.1//EN"
 "http://www.w3.org/Graphics/SVG/1.1/DTD/svg11.dtd">
<!-- Generated by graphviz version 2.44.0 ()
 -->
<!-- Title: expansion_module::expansion_finalize Pages: 1 -->
<svg width="577pt" height="61pt"
 viewBox="0.00 0.00 577.00 61.00" xmlns="http://www.w3.org/2000/svg" xmlns:xlink="http://www.w3.org/1999/xlink">
<g id="graph0" class="graph" transform="scale(1 1) rotate(0) translate(4 57)">
<title>expansion_module::expansion_finalize</title>
<polygon fill="white" stroke="transparent" points="-4,4 -4,-57 573,-57 573,4 -4,4"/>
<!-- Node1 -->
<g id="node1" class="node">
<title>Node1</title>
<g id="a_node1"><a xlink:title="Close debug files of the module.">
<polygon fill="#bfbfbf" stroke="black" points="0,-22.5 0,-52.5 145,-52.5 145,-22.5 0,-22.5"/>
<text text-anchor="start" x="8" y="-40.5" font-family="Helvetica,sans-Serif" font-size="10.00">expansion_module::expansion</text>
<text text-anchor="middle" x="72.5" y="-29.5" font-family="Helvetica,sans-Serif" font-size="10.00">_finalize</text>
</a>
</g>
</g>
<!-- Node2 -->
<g id="node2" class="node">
<title>Node2</title>
<g id="a_node2"><a xlink:href="namespacefile__handling__class.html#a01ba26324d7662cc0fb2e0eb306cd3e2" target="_top" xlink:title="Close an external file.">
<polygon fill="white" stroke="black" points="181,-22.5 181,-52.5 279,-52.5 279,-22.5 181,-22.5"/>
<text text-anchor="start" x="189" y="-40.5" font-family="Helvetica,sans-Serif" font-size="10.00">file_handling_class</text>
<text text-anchor="middle" x="230" y="-29.5" font-family="Helvetica,sans-Serif" font-size="10.00">::close_io_file</text>
</a>
</g>
</g>
<!-- Node1&#45;&gt;Node2 -->
<g id="edge1" class="edge">
<title>Node1&#45;&gt;Node2</title>
<path fill="none" stroke="midnightblue" d="M145.33,-37.5C153.73,-37.5 162.21,-37.5 170.39,-37.5"/>
<polygon fill="midnightblue" stroke="midnightblue" points="170.57,-41 180.57,-37.5 170.57,-34 170.57,-41"/>
</g>
<!-- Node3 -->
<g id="node3" class="node">
<title>Node3</title>
<g id="a_node3"><a xlink:href="namespaceerror__msg__class.html#a7e065585cc806a5c264de1f088266498" target="_top" xlink:title="Converts a given integer to a string.">
<polygon fill="white" stroke="black" points="465,-22.5 465,-52.5 569,-52.5 569,-22.5 465,-22.5"/>
<text text-anchor="start" x="473" y="-40.5" font-family="Helvetica,sans-Serif" font-size="10.00">error_msg_class::int</text>
<text text-anchor="middle" x="517" y="-29.5" font-family="Helvetica,sans-Serif" font-size="10.00">_to_str</text>
</a>
</g>
</g>
<!-- Node2&#45;&gt;Node3 -->
<g id="edge2" class="edge">
<title>Node2&#45;&gt;Node3</title>
<path fill="none" stroke="midnightblue" d="M279.41,-39.52C291.06,-39.93 303.47,-40.29 315,-40.5 365.66,-41.4 378.34,-41.37 429,-40.5 437.36,-40.36 446.18,-40.13 454.85,-39.87"/>
<polygon fill="midnightblue" stroke="midnightblue" points="455.06,-43.37 464.94,-39.55 454.84,-36.37 455.06,-43.37"/>
</g>
<!-- Node4 -->
<g id="node4" class="node">
<title>Node4</title>
<g id="a_node4"><a xlink:href="namespaceerror__msg__class.html#a2453d3b7cb363115c046840baa1dfb75" target="_top" xlink:title="Raise a exception with a given error message.">
<polygon fill="white" stroke="black" points="315,-0.5 315,-30.5 429,-30.5 429,-0.5 315,-0.5"/>
<text text-anchor="start" x="323" y="-18.5" font-family="Helvetica,sans-Serif" font-size="10.00">error_msg_class::raise</text>
<text text-anchor="middle" x="372" y="-7.5" font-family="Helvetica,sans-Serif" font-size="10.00">_exception</text>
</a>
</g>
</g>
<!-- Node2&#45;&gt;Node4 -->
<g id="edge3" class="edge">
<title>Node2&#45;&gt;Node4</title>
<path fill="none" stroke="midnightblue" d="M279.18,-29.93C287.37,-28.64 296,-27.29 304.55,-25.94"/>
<polygon fill="midnightblue" stroke="midnightblue" points="305.2,-29.38 314.54,-24.37 304.11,-22.47 305.2,-29.38"/>
</g>
<!-- Node4&#45;&gt;Node3 -->
<g id="edge4" class="edge">
<title>Node4&#45;&gt;Node3</title>
<path fill="none" stroke="midnightblue" d="M429.11,-24.13C437.54,-25.43 446.28,-26.77 454.81,-28.09"/>
<polygon fill="midnightblue" stroke="midnightblue" points="454.3,-31.55 464.71,-29.61 455.36,-24.63 454.3,-31.55"/>
</g>
</g>
</svg>
