<?xml version="1.0" encoding="UTF-8" standalone="no"?>
<!DOCTYPE svg PUBLIC "-//W3C//DTD SVG 1.1//EN"
 "http://www.w3.org/Graphics/SVG/1.1/DTD/svg11.dtd">
<!-- Generated by graphviz version 2.44.0 ()
 -->
<!-- Title: ls_timmes_eos_module::timmes_eos_interface Pages: 1 -->
<svg width="467pt" height="161pt"
 viewBox="0.00 0.00 467.00 161.00" xmlns="http://www.w3.org/2000/svg" xmlns:xlink="http://www.w3.org/1999/xlink">
<g id="graph0" class="graph" transform="scale(1 1) rotate(0) translate(4 157)">
<title>ls_timmes_eos_module::timmes_eos_interface</title>
<polygon fill="white" stroke="transparent" points="-4,4 -4,-157 463,-157 463,4 -4,4"/>
<!-- Node1 -->
<g id="node1" class="node">
<title>Node1</title>
<g id="a_node1"><a xlink:title=" ">
<polygon fill="#bfbfbf" stroke="black" points="0,-90 0,-120 119,-120 119,-90 0,-90"/>
<text text-anchor="start" x="8" y="-108" font-family="Helvetica,sans-Serif" font-size="10.00">ls_timmes_eos_module</text>
<text text-anchor="middle" x="59.5" y="-97" font-family="Helvetica,sans-Serif" font-size="10.00">::timmes_eos_interface</text>
</a>
</g>
</g>
<!-- Node2 -->
<g id="node2" class="node">
<title>Node2</title>
<g id="a_node2"><a xlink:href="eosfxt_8f.html#a7472b49a95882a089dc0b8e75b1abbfa" target="_top" xlink:title=" ">
<polygon fill="white" stroke="black" points="155,-95.5 155,-114.5 198,-114.5 198,-95.5 155,-95.5"/>
<text text-anchor="middle" x="176.5" y="-102.5" font-family="Helvetica,sans-Serif" font-size="10.00">eosfxt</text>
</a>
</g>
</g>
<!-- Node1&#45;&gt;Node2 -->
<g id="edge1" class="edge">
<title>Node1&#45;&gt;Node2</title>
<path fill="none" stroke="midnightblue" d="M119.01,-105C127.86,-105 136.68,-105 144.63,-105"/>
<polygon fill="midnightblue" stroke="midnightblue" points="144.84,-108.5 154.84,-105 144.84,-101.5 144.84,-108.5"/>
</g>
<!-- Node3 -->
<g id="node3" class="node">
<title>Node3</title>
<g id="a_node3"><a xlink:href="eosfxt_8f.html#a4dd7b4a9689e75b5ee0f56fcf260b461" target="_top" xlink:title=" ">
<polygon fill="white" stroke="black" points="234,-133.5 234,-152.5 287,-152.5 287,-133.5 234,-133.5"/>
<text text-anchor="middle" x="260.5" y="-140.5" font-family="Helvetica,sans-Serif" font-size="10.00">coulomb</text>
</a>
</g>
</g>
<!-- Node2&#45;&gt;Node3 -->
<g id="edge2" class="edge">
<title>Node2&#45;&gt;Node3</title>
<path fill="none" stroke="midnightblue" d="M198.19,-114.59C207.71,-119 219.18,-124.31 229.61,-129.15"/>
<polygon fill="midnightblue" stroke="midnightblue" points="228.27,-132.38 238.81,-133.41 231.21,-126.03 228.27,-132.38"/>
</g>
<!-- Node5 -->
<g id="node5" class="node">
<title>Node5</title>
<g id="a_node5"><a xlink:href="eosfxt_8f.html#a40e1707c6481e6f394d33c9de7744a80" target="_top" xlink:title=" ">
<polygon fill="white" stroke="black" points="237.5,-95.5 237.5,-114.5 283.5,-114.5 283.5,-95.5 237.5,-95.5"/>
<text text-anchor="middle" x="260.5" y="-102.5" font-family="Helvetica,sans-Serif" font-size="10.00">etages</text>
</a>
</g>
</g>
<!-- Node2&#45;&gt;Node5 -->
<g id="edge4" class="edge">
<title>Node2&#45;&gt;Node5</title>
<path fill="none" stroke="midnightblue" d="M198.19,-105C206.97,-105 217.42,-105 227.17,-105"/>
<polygon fill="midnightblue" stroke="midnightblue" points="227.38,-108.5 237.38,-105 227.38,-101.5 227.38,-108.5"/>
</g>
<!-- Node6 -->
<g id="node6" class="node">
<title>Node6</title>
<g id="a_node6"><a xlink:href="eosfxt_8f.html#ac215ef28344d8bf47b95d146f191fc74" target="_top" xlink:title=" ">
<polygon fill="white" stroke="black" points="236.5,-57.5 236.5,-76.5 284.5,-76.5 284.5,-57.5 236.5,-57.5"/>
<text text-anchor="middle" x="260.5" y="-64.5" font-family="Helvetica,sans-Serif" font-size="10.00">xneroot</text>
</a>
</g>
</g>
<!-- Node2&#45;&gt;Node6 -->
<g id="edge6" class="edge">
<title>Node2&#45;&gt;Node6</title>
<path fill="none" stroke="midnightblue" d="M198.19,-95.41C207.71,-91 219.18,-85.69 229.61,-80.85"/>
<polygon fill="midnightblue" stroke="midnightblue" points="231.21,-83.97 238.81,-76.59 228.27,-77.62 231.21,-83.97"/>
</g>
<!-- Node4 -->
<g id="node4" class="node">
<title>Node4</title>
<g id="a_node4"><a xlink:href="quadpack__module_8f90.html#aada5a652920db442d627f1ca24ff25d7" target="_top" xlink:title="Further information: http://netlib.org/quadpack/index.html https://orion.math.iastate....">
<polygon fill="white" stroke="black" points="330.5,-114.5 330.5,-133.5 359.5,-133.5 359.5,-114.5 330.5,-114.5"/>
<text text-anchor="middle" x="345" y="-121.5" font-family="Helvetica,sans-Serif" font-size="10.00">pi</text>
</a>
</g>
</g>
<!-- Node3&#45;&gt;Node4 -->
<g id="edge3" class="edge">
<title>Node3&#45;&gt;Node4</title>
<path fill="none" stroke="midnightblue" d="M287.15,-137.09C297.68,-134.67 309.81,-131.87 320.14,-129.49"/>
<polygon fill="midnightblue" stroke="midnightblue" points="321.17,-132.85 330.13,-127.19 319.6,-126.03 321.17,-132.85"/>
</g>
<!-- Node5&#45;&gt;Node4 -->
<g id="edge5" class="edge">
<title>Node5&#45;&gt;Node4</title>
<path fill="none" stroke="midnightblue" d="M283.61,-110.09C295.01,-112.72 308.92,-115.92 320.51,-118.59"/>
<polygon fill="midnightblue" stroke="midnightblue" points="319.84,-122.03 330.37,-120.86 321.41,-115.21 319.84,-122.03"/>
</g>
<!-- Node7 -->
<g id="node7" class="node">
<title>Node7</title>
<g id="a_node7"><a xlink:href="eosfxt_8f.html#a5b92245336ba39f5012975d91948205f" target="_top" xlink:title=" ">
<polygon fill="white" stroke="black" points="323,-57.5 323,-76.5 367,-76.5 367,-57.5 323,-57.5"/>
<text text-anchor="middle" x="345" y="-64.5" font-family="Helvetica,sans-Serif" font-size="10.00">dfermi</text>
</a>
</g>
</g>
<!-- Node6&#45;&gt;Node7 -->
<g id="edge7" class="edge">
<title>Node6&#45;&gt;Node7</title>
<path fill="none" stroke="midnightblue" d="M284.92,-67C293.57,-67 303.52,-67 312.76,-67"/>
<polygon fill="midnightblue" stroke="midnightblue" points="312.78,-70.5 322.78,-67 312.78,-63.5 312.78,-70.5"/>
</g>
<!-- Node8 -->
<g id="node8" class="node">
<title>Node8</title>
<g id="a_node8"><a xlink:href="eosfxt_8f.html#abbb1b60c825d972dc00fe1f268f93f86" target="_top" xlink:title=" ">
<polygon fill="white" stroke="black" points="403,-114.5 403,-133.5 459,-133.5 459,-114.5 403,-114.5"/>
<text text-anchor="middle" x="431" y="-121.5" font-family="Helvetica,sans-Serif" font-size="10.00">dqlag020</text>
</a>
</g>
</g>
<!-- Node7&#45;&gt;Node8 -->
<g id="edge8" class="edge">
<title>Node7&#45;&gt;Node8</title>
<path fill="none" stroke="midnightblue" d="M360.25,-76.67C373.12,-85.4 392.28,-98.4 407.26,-108.57"/>
<polygon fill="midnightblue" stroke="midnightblue" points="405.72,-111.75 415.96,-114.47 409.65,-105.96 405.72,-111.75"/>
</g>
<!-- Node9 -->
<g id="node9" class="node">
<title>Node9</title>
<g id="a_node9"><a xlink:href="eosfxt_8f.html#a6cbbc7f07cffb75f5efaf893d547852f" target="_top" xlink:title=" ">
<polygon fill="white" stroke="black" points="403,-76.5 403,-95.5 459,-95.5 459,-76.5 403,-76.5"/>
<text text-anchor="middle" x="431" y="-83.5" font-family="Helvetica,sans-Serif" font-size="10.00">dqleg020</text>
</a>
</g>
</g>
<!-- Node7&#45;&gt;Node9 -->
<g id="edge9" class="edge">
<title>Node7&#45;&gt;Node9</title>
<path fill="none" stroke="midnightblue" d="M367.2,-71.79C375.04,-73.57 384.17,-75.63 393,-77.63"/>
<polygon fill="midnightblue" stroke="midnightblue" points="392.24,-81.05 402.76,-79.84 393.78,-74.22 392.24,-81.05"/>
</g>
<!-- Node10 -->
<g id="node10" class="node">
<title>Node10</title>
<g id="a_node10"><a xlink:href="eosfxt_8f.html#a9d9951640d440972fe5298fdd5d70c10" target="_top" xlink:title=" ">
<polygon fill="white" stroke="black" points="406.5,-38.5 406.5,-57.5 455.5,-57.5 455.5,-38.5 406.5,-38.5"/>
<text text-anchor="middle" x="431" y="-45.5" font-family="Helvetica,sans-Serif" font-size="10.00">fdfunc1</text>
</a>
</g>
</g>
<!-- Node7&#45;&gt;Node10 -->
<g id="edge10" class="edge">
<title>Node7&#45;&gt;Node10</title>
<path fill="none" stroke="midnightblue" d="M367.2,-62.21C376.07,-60.2 386.6,-57.82 396.48,-55.58"/>
<polygon fill="midnightblue" stroke="midnightblue" points="397.46,-58.95 406.44,-53.33 395.91,-52.12 397.46,-58.95"/>
</g>
<!-- Node11 -->
<g id="node11" class="node">
<title>Node11</title>
<g id="a_node11"><a xlink:href="eosfxt_8f.html#ae834089002139b7a18c24a337f6ff90a" target="_top" xlink:title=" ">
<polygon fill="white" stroke="black" points="406.5,-0.5 406.5,-19.5 455.5,-19.5 455.5,-0.5 406.5,-0.5"/>
<text text-anchor="middle" x="431" y="-7.5" font-family="Helvetica,sans-Serif" font-size="10.00">fdfunc2</text>
</a>
</g>
</g>
<!-- Node7&#45;&gt;Node11 -->
<g id="edge11" class="edge">
<title>Node7&#45;&gt;Node11</title>
<path fill="none" stroke="midnightblue" d="M360.25,-57.33C373.12,-48.6 392.28,-35.6 407.26,-25.43"/>
<polygon fill="midnightblue" stroke="midnightblue" points="409.65,-28.04 415.96,-19.53 405.72,-22.25 409.65,-28.04"/>
</g>
</g>
</svg>
