<?xml version="1.0" encoding="UTF-8" standalone="no"?>
<!DOCTYPE svg PUBLIC "-//W3C//DTD SVG 1.1//EN"
 "http://www.w3.org/Graphics/SVG/1.1/DTD/svg11.dtd">
<!-- Generated by graphviz version 2.44.0 ()
 -->
<!-- Title: tw_rate_module::read_binary_weak_reaction_data Pages: 1 -->
<svg width="732pt" height="99pt"
 viewBox="0.00 0.00 732.00 99.00" xmlns="http://www.w3.org/2000/svg" xmlns:xlink="http://www.w3.org/1999/xlink">
<g id="graph0" class="graph" transform="scale(1 1) rotate(0) translate(4 95)">
<title>tw_rate_module::read_binary_weak_reaction_data</title>
<polygon fill="white" stroke="transparent" points="-4,4 -4,-95 728,-95 728,4 -4,4"/>
<!-- Node1 -->
<g id="node1" class="node">
<title>Node1</title>
<g id="a_node1"><a xlink:title="Read the theoretical weak rates from a unformatted binary file.">
<polygon fill="#bfbfbf" stroke="black" points="0,-0.5 0,-30.5 140,-30.5 140,-0.5 0,-0.5"/>
<text text-anchor="start" x="8" y="-18.5" font-family="Helvetica,sans-Serif" font-size="10.00">tw_rate_module::read</text>
<text text-anchor="middle" x="70" y="-7.5" font-family="Helvetica,sans-Serif" font-size="10.00">_binary_weak_reaction_data</text>
</a>
</g>
</g>
<!-- Node2 -->
<g id="node2" class="node">
<title>Node2</title>
<g id="a_node2"><a xlink:href="namespacefile__handling__class.html#a25b51db64738e74a129daae7428c8163" target="_top" xlink:title="Open an unformatted file for reading.">
<polygon fill="white" stroke="black" points="176,-22.5 176,-52.5 300,-52.5 300,-22.5 176,-22.5"/>
<text text-anchor="start" x="184" y="-40.5" font-family="Helvetica,sans-Serif" font-size="10.00">file_handling_class</text>
<text text-anchor="middle" x="238" y="-29.5" font-family="Helvetica,sans-Serif" font-size="10.00">::open_unformatted_infile</text>
</a>
</g>
</g>
<!-- Node1&#45;&gt;Node2 -->
<g id="edge1" class="edge">
<title>Node1&#45;&gt;Node2</title>
<path fill="none" stroke="midnightblue" d="M140.44,-24.7C148.77,-25.81 157.3,-26.94 165.66,-28.05"/>
<polygon fill="midnightblue" stroke="midnightblue" points="165.39,-31.54 175.76,-29.38 166.31,-24.6 165.39,-31.54"/>
</g>
<!-- Node4 -->
<g id="node4" class="node">
<title>Node4</title>
<g id="a_node4"><a xlink:href="namespaceerror__msg__class.html#a2453d3b7cb363115c046840baa1dfb75" target="_top" xlink:title="Raise a exception with a given error message.">
<polygon fill="white" stroke="black" points="470,-16.5 470,-46.5 584,-46.5 584,-16.5 470,-16.5"/>
<text text-anchor="start" x="478" y="-34.5" font-family="Helvetica,sans-Serif" font-size="10.00">error_msg_class::raise</text>
<text text-anchor="middle" x="527" y="-23.5" font-family="Helvetica,sans-Serif" font-size="10.00">_exception</text>
</a>
</g>
</g>
<!-- Node1&#45;&gt;Node4 -->
<g id="edge6" class="edge">
<title>Node1&#45;&gt;Node4</title>
<path fill="none" stroke="midnightblue" d="M140.18,-13.24C152.13,-12.93 164.42,-12.67 176,-12.5 231.11,-11.71 244.94,-10.19 300,-12.5 353.83,-14.76 414.69,-20.03 459.68,-24.45"/>
<polygon fill="midnightblue" stroke="midnightblue" points="459.6,-27.96 469.89,-25.47 460.29,-20.99 459.6,-27.96"/>
</g>
<!-- Node3 -->
<g id="node3" class="node">
<title>Node3</title>
<g id="a_node3"><a xlink:href="namespacefile__handling__class.html#af02196bd5eaf70ecd5ab4cc650094d5e" target="_top" xlink:title="Finds the next unused unit number.">
<polygon fill="white" stroke="black" points="336,-60.5 336,-90.5 434,-90.5 434,-60.5 336,-60.5"/>
<text text-anchor="start" x="344" y="-78.5" font-family="Helvetica,sans-Serif" font-size="10.00">file_handling_class</text>
<text text-anchor="middle" x="385" y="-67.5" font-family="Helvetica,sans-Serif" font-size="10.00">::get_next_io_unit</text>
</a>
</g>
</g>
<!-- Node2&#45;&gt;Node3 -->
<g id="edge2" class="edge">
<title>Node2&#45;&gt;Node3</title>
<path fill="none" stroke="midnightblue" d="M296.31,-52.52C306.16,-55.1 316.41,-57.79 326.28,-60.37"/>
<polygon fill="midnightblue" stroke="midnightblue" points="325.43,-63.77 335.99,-62.92 327.2,-57 325.43,-63.77"/>
</g>
<!-- Node2&#45;&gt;Node4 -->
<g id="edge5" class="edge">
<title>Node2&#45;&gt;Node4</title>
<path fill="none" stroke="midnightblue" d="M300.22,-36.22C347.09,-35.24 411.66,-33.89 459.75,-32.89"/>
<polygon fill="midnightblue" stroke="midnightblue" points="459.82,-36.38 469.75,-32.68 459.68,-29.39 459.82,-36.38"/>
</g>
<!-- Node3&#45;&gt;Node4 -->
<g id="edge3" class="edge">
<title>Node3&#45;&gt;Node4</title>
<path fill="none" stroke="midnightblue" d="M433.79,-60.48C444.82,-57.01 456.66,-53.29 468.07,-49.71"/>
<polygon fill="midnightblue" stroke="midnightblue" points="469.46,-52.94 477.95,-46.6 467.36,-46.26 469.46,-52.94"/>
</g>
<!-- Node5 -->
<g id="node5" class="node">
<title>Node5</title>
<g id="a_node5"><a xlink:href="namespaceerror__msg__class.html#a7e065585cc806a5c264de1f088266498" target="_top" xlink:title="Converts a given integer to a string.">
<polygon fill="white" stroke="black" points="620,-16.5 620,-46.5 724,-46.5 724,-16.5 620,-16.5"/>
<text text-anchor="start" x="628" y="-34.5" font-family="Helvetica,sans-Serif" font-size="10.00">error_msg_class::int</text>
<text text-anchor="middle" x="672" y="-23.5" font-family="Helvetica,sans-Serif" font-size="10.00">_to_str</text>
</a>
</g>
</g>
<!-- Node4&#45;&gt;Node5 -->
<g id="edge4" class="edge">
<title>Node4&#45;&gt;Node5</title>
<path fill="none" stroke="midnightblue" d="M584.11,-31.5C592.45,-31.5 601.09,-31.5 609.54,-31.5"/>
<polygon fill="midnightblue" stroke="midnightblue" points="609.71,-35 619.71,-31.5 609.71,-28 609.71,-35"/>
</g>
</g>
</svg>
