<?xml version="1.0" encoding="UTF-8" standalone="no"?>
<!DOCTYPE svg PUBLIC "-//W3C//DTD SVG 1.1//EN"
 "http://www.w3.org/Graphics/SVG/1.1/DTD/svg11.dtd">
<!-- Generated by graphviz version 2.44.0 ()
 -->
<!-- Title: readini::read_custom_snapshots Pages: 1 -->
<svg width="672pt" height="165pt"
 viewBox="0.00 0.00 672.00 165.00" xmlns="http://www.w3.org/2000/svg" xmlns:xlink="http://www.w3.org/1999/xlink">
<g id="graph0" class="graph" transform="scale(1 1) rotate(0) translate(4 161)">
<title>readini::read_custom_snapshots</title>
<polygon fill="white" stroke="transparent" points="-4,4 -4,-161 668,-161 668,4 -4,4"/>
<!-- Node1 -->
<g id="node1" class="node">
<title>Node1</title>
<g id="a_node1"><a xlink:title="Read in times for snapshots.">
<polygon fill="#bfbfbf" stroke="black" points="0,-82.5 0,-112.5 106,-112.5 106,-82.5 0,-82.5"/>
<text text-anchor="start" x="8" y="-100.5" font-family="Helvetica,sans-Serif" font-size="10.00">readini::read_custom</text>
<text text-anchor="middle" x="53" y="-89.5" font-family="Helvetica,sans-Serif" font-size="10.00">_snapshots</text>
</a>
</g>
</g>
<!-- Node2 -->
<g id="node2" class="node">
<title>Node2</title>
<g id="a_node2"><a xlink:href="namespacefile__handling__class.html#a01ba26324d7662cc0fb2e0eb306cd3e2" target="_top" xlink:title="Close an external file.">
<polygon fill="white" stroke="black" points="276,-126.5 276,-156.5 374,-156.5 374,-126.5 276,-126.5"/>
<text text-anchor="start" x="284" y="-144.5" font-family="Helvetica,sans-Serif" font-size="10.00">file_handling_class</text>
<text text-anchor="middle" x="325" y="-133.5" font-family="Helvetica,sans-Serif" font-size="10.00">::close_io_file</text>
</a>
</g>
</g>
<!-- Node1&#45;&gt;Node2 -->
<g id="edge1" class="edge">
<title>Node1&#45;&gt;Node2</title>
<path fill="none" stroke="midnightblue" d="M106.06,-105.98C151.74,-113.43 218.12,-124.25 265.6,-131.98"/>
<polygon fill="midnightblue" stroke="midnightblue" points="265.3,-135.48 275.73,-133.63 266.42,-128.57 265.3,-135.48"/>
</g>
<!-- Node4 -->
<g id="node4" class="node">
<title>Node4</title>
<g id="a_node4"><a xlink:href="namespaceerror__msg__class.html#a2453d3b7cb363115c046840baa1dfb75" target="_top" xlink:title="Raise a exception with a given error message.">
<polygon fill="white" stroke="black" points="410,-82.5 410,-112.5 524,-112.5 524,-82.5 410,-82.5"/>
<text text-anchor="start" x="418" y="-100.5" font-family="Helvetica,sans-Serif" font-size="10.00">error_msg_class::raise</text>
<text text-anchor="middle" x="467" y="-89.5" font-family="Helvetica,sans-Serif" font-size="10.00">_exception</text>
</a>
</g>
</g>
<!-- Node1&#45;&gt;Node4 -->
<g id="edge9" class="edge">
<title>Node1&#45;&gt;Node4</title>
<path fill="none" stroke="midnightblue" d="M106.18,-97.5C180.83,-97.5 318.09,-97.5 399.8,-97.5"/>
<polygon fill="midnightblue" stroke="midnightblue" points="399.97,-101 409.97,-97.5 399.97,-94 399.97,-101"/>
</g>
<!-- Node5 -->
<g id="node5" class="node">
<title>Node5</title>
<g id="a_node5"><a xlink:href="namespacefile__handling__class.html#aab870caaf9cbaaf635d537708efbf793" target="_top" xlink:title="Same for reading (input file)">
<polygon fill="white" stroke="black" points="142,-38.5 142,-68.5 240,-68.5 240,-38.5 142,-38.5"/>
<text text-anchor="start" x="150" y="-56.5" font-family="Helvetica,sans-Serif" font-size="10.00">file_handling_class</text>
<text text-anchor="middle" x="191" y="-45.5" font-family="Helvetica,sans-Serif" font-size="10.00">::open_infile</text>
</a>
</g>
</g>
<!-- Node1&#45;&gt;Node5 -->
<g id="edge5" class="edge">
<title>Node1&#45;&gt;Node5</title>
<path fill="none" stroke="midnightblue" d="M100.42,-82.48C111.14,-79.01 122.65,-75.29 133.73,-71.71"/>
<polygon fill="midnightblue" stroke="midnightblue" points="134.89,-75.01 143.32,-68.6 132.73,-68.35 134.89,-75.01"/>
</g>
<!-- Node3 -->
<g id="node3" class="node">
<title>Node3</title>
<g id="a_node3"><a xlink:href="namespaceerror__msg__class.html#a7e065585cc806a5c264de1f088266498" target="_top" xlink:title="Converts a given integer to a string.">
<polygon fill="white" stroke="black" points="560,-104.5 560,-134.5 664,-134.5 664,-104.5 560,-104.5"/>
<text text-anchor="start" x="568" y="-122.5" font-family="Helvetica,sans-Serif" font-size="10.00">error_msg_class::int</text>
<text text-anchor="middle" x="612" y="-111.5" font-family="Helvetica,sans-Serif" font-size="10.00">_to_str</text>
</a>
</g>
</g>
<!-- Node2&#45;&gt;Node3 -->
<g id="edge2" class="edge">
<title>Node2&#45;&gt;Node3</title>
<path fill="none" stroke="midnightblue" d="M374.02,-137.79C422.36,-134.06 497.09,-128.29 549.68,-124.23"/>
<polygon fill="midnightblue" stroke="midnightblue" points="550.19,-127.7 559.89,-123.45 549.65,-120.73 550.19,-127.7"/>
</g>
<!-- Node2&#45;&gt;Node4 -->
<g id="edge3" class="edge">
<title>Node2&#45;&gt;Node4</title>
<path fill="none" stroke="midnightblue" d="M373.79,-126.48C384.82,-123.01 396.66,-119.29 408.07,-115.71"/>
<polygon fill="midnightblue" stroke="midnightblue" points="409.46,-118.94 417.95,-112.6 407.36,-112.26 409.46,-118.94"/>
</g>
<!-- Node4&#45;&gt;Node3 -->
<g id="edge4" class="edge">
<title>Node4&#45;&gt;Node3</title>
<path fill="none" stroke="midnightblue" d="M524.11,-106.13C532.54,-107.43 541.28,-108.77 549.81,-110.09"/>
<polygon fill="midnightblue" stroke="midnightblue" points="549.3,-113.55 559.71,-111.61 550.36,-106.63 549.3,-113.55"/>
</g>
<!-- Node5&#45;&gt;Node4 -->
<g id="edge8" class="edge">
<title>Node5&#45;&gt;Node4</title>
<path fill="none" stroke="midnightblue" d="M240.04,-61.21C284.41,-68.34 350.71,-78.99 400.03,-86.91"/>
<polygon fill="midnightblue" stroke="midnightblue" points="399.54,-90.37 409.97,-88.5 400.65,-83.46 399.54,-90.37"/>
</g>
<!-- Node6 -->
<g id="node6" class="node">
<title>Node6</title>
<g id="a_node6"><a xlink:href="namespacefile__handling__class.html#af02196bd5eaf70ecd5ab4cc650094d5e" target="_top" xlink:title="Finds the next unused unit number.">
<polygon fill="white" stroke="black" points="276,-0.5 276,-30.5 374,-30.5 374,-0.5 276,-0.5"/>
<text text-anchor="start" x="284" y="-18.5" font-family="Helvetica,sans-Serif" font-size="10.00">file_handling_class</text>
<text text-anchor="middle" x="325" y="-7.5" font-family="Helvetica,sans-Serif" font-size="10.00">::get_next_io_unit</text>
</a>
</g>
</g>
<!-- Node5&#45;&gt;Node6 -->
<g id="edge6" class="edge">
<title>Node5&#45;&gt;Node6</title>
<path fill="none" stroke="midnightblue" d="M240.03,-39.67C248.49,-37.24 257.38,-34.68 266.08,-32.17"/>
<polygon fill="midnightblue" stroke="midnightblue" points="267.14,-35.51 275.79,-29.38 265.21,-28.78 267.14,-35.51"/>
</g>
<!-- Node6&#45;&gt;Node4 -->
<g id="edge7" class="edge">
<title>Node6&#45;&gt;Node4</title>
<path fill="none" stroke="midnightblue" d="M351.68,-30.54C374.04,-43.63 406.64,-62.73 431.31,-77.18"/>
<polygon fill="midnightblue" stroke="midnightblue" points="429.61,-80.24 440.01,-82.28 433.15,-74.2 429.61,-80.24"/>
</g>
</g>
</svg>
