<?xml version="1.0" encoding="UTF-8" standalone="no"?>
<!DOCTYPE svg PUBLIC "-//W3C//DTD SVG 1.1//EN"
 "http://www.w3.org/Graphics/SVG/1.1/DTD/svg11.dtd">
<!-- Generated by graphviz version 2.44.0 ()
 -->
<!-- Title: benam_class::load_network Pages: 1 -->
<svg width="735pt" height="253pt"
 viewBox="0.00 0.00 735.00 252.50" xmlns="http://www.w3.org/2000/svg" xmlns:xlink="http://www.w3.org/1999/xlink">
<g id="graph0" class="graph" transform="scale(1 1) rotate(0) translate(4 248.5)">
<title>benam_class::load_network</title>
<polygon fill="white" stroke="transparent" points="-4,4 -4,-248.5 731,-248.5 731,4 -4,4"/>
<!-- Node1 -->
<g id="node1" class="node">
<title>Node1</title>
<g id="a_node1"><a xlink:title="Reads isotope names from file &#39;net_source&#39; and saves them in net_names(). Returns number of isotopes ...">
<polygon fill="#bfbfbf" stroke="black" points="0,-143 0,-162 137,-162 137,-143 0,-143"/>
<text text-anchor="middle" x="68.5" y="-150" font-family="Helvetica,sans-Serif" font-size="10.00">benam_class::load_network</text>
</a>
</g>
</g>
<!-- Node2 -->
<g id="node2" class="node">
<title>Node2</title>
<g id="a_node2"><a xlink:href="namespacebenam__class.html#ad20c821347dd5f7c08dff59c98e69657" target="_top" xlink:title="Returns the index number of isotope &#39;name&#39;.">
<polygon fill="white" stroke="black" points="176,-225 176,-244 284,-244 284,-225 176,-225"/>
<text text-anchor="middle" x="230" y="-232" font-family="Helvetica,sans-Serif" font-size="10.00">benam_class::benam</text>
</a>
</g>
</g>
<!-- Node1&#45;&gt;Node2 -->
<g id="edge1" class="edge">
<title>Node1&#45;&gt;Node2</title>
<path fill="none" stroke="midnightblue" d="M85.35,-162.08C105.42,-174.04 141.22,-194.84 173,-210.5 180.27,-214.08 188.21,-217.67 195.76,-220.94"/>
<polygon fill="midnightblue" stroke="midnightblue" points="194.47,-224.2 205.04,-224.89 197.21,-217.75 194.47,-224.2"/>
</g>
<!-- Node3 -->
<g id="node3" class="node">
<title>Node3</title>
<g id="a_node3"><a xlink:href="namespacefile__handling__class.html#a01ba26324d7662cc0fb2e0eb306cd3e2" target="_top" xlink:title="Close an external file.">
<polygon fill="white" stroke="black" points="331,-137.5 331,-167.5 429,-167.5 429,-137.5 331,-137.5"/>
<text text-anchor="start" x="339" y="-155.5" font-family="Helvetica,sans-Serif" font-size="10.00">file_handling_class</text>
<text text-anchor="middle" x="380" y="-144.5" font-family="Helvetica,sans-Serif" font-size="10.00">::close_io_file</text>
</a>
</g>
</g>
<!-- Node1&#45;&gt;Node3 -->
<g id="edge2" class="edge">
<title>Node1&#45;&gt;Node3</title>
<path fill="none" stroke="midnightblue" d="M137.04,-152.5C191.9,-152.5 268.47,-152.5 320.69,-152.5"/>
<polygon fill="midnightblue" stroke="midnightblue" points="320.79,-156 330.79,-152.5 320.79,-149 320.79,-156"/>
</g>
<!-- Node4 -->
<g id="node4" class="node">
<title>Node4</title>
<g id="a_node4"><a xlink:href="namespaceerror__msg__class.html#a7e065585cc806a5c264de1f088266498" target="_top" xlink:title="Converts a given integer to a string.">
<polygon fill="white" stroke="black" points="623,-137.5 623,-167.5 727,-167.5 727,-137.5 623,-137.5"/>
<text text-anchor="start" x="631" y="-155.5" font-family="Helvetica,sans-Serif" font-size="10.00">error_msg_class::int</text>
<text text-anchor="middle" x="675" y="-144.5" font-family="Helvetica,sans-Serif" font-size="10.00">_to_str</text>
</a>
</g>
</g>
<!-- Node1&#45;&gt;Node4 -->
<g id="edge6" class="edge">
<title>Node1&#45;&gt;Node4</title>
<path fill="none" stroke="midnightblue" d="M135.41,-162.03C147.88,-163.66 160.83,-165.23 173,-166.5 356.01,-185.57 404.24,-187.87 587,-166.5 595.3,-165.53 604.02,-164.34 612.6,-163.06"/>
<polygon fill="midnightblue" stroke="midnightblue" points="613.22,-166.5 622.58,-161.53 612.16,-159.58 613.22,-166.5"/>
</g>
<!-- Node6 -->
<g id="node6" class="node">
<title>Node6</title>
<g id="a_node6"><a xlink:href="namespacefile__handling__class.html#aab870caaf9cbaaf635d537708efbf793" target="_top" xlink:title="Same for reading (input file)">
<polygon fill="white" stroke="black" points="181,-93.5 181,-123.5 279,-123.5 279,-93.5 181,-93.5"/>
<text text-anchor="start" x="189" y="-111.5" font-family="Helvetica,sans-Serif" font-size="10.00">file_handling_class</text>
<text text-anchor="middle" x="230" y="-100.5" font-family="Helvetica,sans-Serif" font-size="10.00">::open_infile</text>
</a>
</g>
</g>
<!-- Node1&#45;&gt;Node6 -->
<g id="edge7" class="edge">
<title>Node1&#45;&gt;Node6</title>
<path fill="none" stroke="midnightblue" d="M104.11,-142.95C123.66,-137.56 148.61,-130.68 171.07,-124.48"/>
<polygon fill="midnightblue" stroke="midnightblue" points="172.14,-127.82 180.85,-121.78 170.27,-121.07 172.14,-127.82"/>
</g>
<!-- Node8 -->
<g id="node8" class="node">
<title>Node8</title>
<g id="a_node8"><a xlink:href="namespaceerror__msg__class.html#a339dd5b38c125b6a04653762c94a91f2" target="_top" xlink:title="Write data to the standard output (usually OUT)">
<polygon fill="white" stroke="black" points="173,-0.5 173,-30.5 287,-30.5 287,-0.5 173,-0.5"/>
<text text-anchor="start" x="181" y="-18.5" font-family="Helvetica,sans-Serif" font-size="10.00">error_msg_class::write</text>
<text text-anchor="middle" x="230" y="-7.5" font-family="Helvetica,sans-Serif" font-size="10.00">_data_to_std_out</text>
</a>
</g>
</g>
<!-- Node1&#45;&gt;Node8 -->
<g id="edge11" class="edge">
<title>Node1&#45;&gt;Node8</title>
<path fill="none" stroke="midnightblue" d="M80.72,-142.87C106.06,-121.1 168.26,-67.67 203.52,-37.38"/>
<polygon fill="midnightblue" stroke="midnightblue" points="206.15,-39.74 211.45,-30.57 201.59,-34.43 206.15,-39.74"/>
</g>
<!-- Node3&#45;&gt;Node4 -->
<g id="edge3" class="edge">
<title>Node3&#45;&gt;Node4</title>
<path fill="none" stroke="midnightblue" d="M429.05,-152.5C479.23,-152.5 558.09,-152.5 612.72,-152.5"/>
<polygon fill="midnightblue" stroke="midnightblue" points="612.96,-156 622.96,-152.5 612.96,-149 612.96,-156"/>
</g>
<!-- Node5 -->
<g id="node5" class="node">
<title>Node5</title>
<g id="a_node5"><a xlink:href="namespaceerror__msg__class.html#a2453d3b7cb363115c046840baa1dfb75" target="_top" xlink:title="Raise a exception with a given error message.">
<polygon fill="white" stroke="black" points="473,-93.5 473,-123.5 587,-123.5 587,-93.5 473,-93.5"/>
<text text-anchor="start" x="481" y="-111.5" font-family="Helvetica,sans-Serif" font-size="10.00">error_msg_class::raise</text>
<text text-anchor="middle" x="530" y="-100.5" font-family="Helvetica,sans-Serif" font-size="10.00">_exception</text>
</a>
</g>
</g>
<!-- Node3&#45;&gt;Node5 -->
<g id="edge4" class="edge">
<title>Node3&#45;&gt;Node5</title>
<path fill="none" stroke="midnightblue" d="M429.05,-138.21C441.63,-134.48 455.35,-130.4 468.49,-126.49"/>
<polygon fill="midnightblue" stroke="midnightblue" points="469.8,-129.75 478.39,-123.55 467.81,-123.04 469.8,-129.75"/>
</g>
<!-- Node5&#45;&gt;Node4 -->
<g id="edge5" class="edge">
<title>Node5&#45;&gt;Node4</title>
<path fill="none" stroke="midnightblue" d="M579.81,-123.52C591.19,-127.02 603.42,-130.78 615.18,-134.4"/>
<polygon fill="midnightblue" stroke="midnightblue" points="614.33,-137.8 624.92,-137.4 616.39,-131.11 614.33,-137.8"/>
</g>
<!-- Node6&#45;&gt;Node5 -->
<g id="edge10" class="edge">
<title>Node6&#45;&gt;Node5</title>
<path fill="none" stroke="midnightblue" d="M279.21,-108.5C329.07,-108.5 407.27,-108.5 462.88,-108.5"/>
<polygon fill="midnightblue" stroke="midnightblue" points="462.99,-112 472.99,-108.5 462.99,-105 462.99,-112"/>
</g>
<!-- Node7 -->
<g id="node7" class="node">
<title>Node7</title>
<g id="a_node7"><a xlink:href="namespacefile__handling__class.html#af02196bd5eaf70ecd5ab4cc650094d5e" target="_top" xlink:title="Finds the next unused unit number.">
<polygon fill="white" stroke="black" points="331,-49.5 331,-79.5 429,-79.5 429,-49.5 331,-49.5"/>
<text text-anchor="start" x="339" y="-67.5" font-family="Helvetica,sans-Serif" font-size="10.00">file_handling_class</text>
<text text-anchor="middle" x="380" y="-56.5" font-family="Helvetica,sans-Serif" font-size="10.00">::get_next_io_unit</text>
</a>
</g>
</g>
<!-- Node6&#45;&gt;Node7 -->
<g id="edge8" class="edge">
<title>Node6&#45;&gt;Node7</title>
<path fill="none" stroke="midnightblue" d="M279.05,-94.21C292.43,-90.24 307.11,-85.87 320.99,-81.74"/>
<polygon fill="midnightblue" stroke="midnightblue" points="322.35,-84.99 330.94,-78.79 320.35,-78.28 322.35,-84.99"/>
</g>
<!-- Node7&#45;&gt;Node5 -->
<g id="edge9" class="edge">
<title>Node7&#45;&gt;Node5</title>
<path fill="none" stroke="midnightblue" d="M429.05,-78.79C441.63,-82.52 455.35,-86.6 468.49,-90.51"/>
<polygon fill="midnightblue" stroke="midnightblue" points="467.81,-93.96 478.39,-93.45 469.8,-87.25 467.81,-93.96"/>
</g>
<!-- Node9 -->
<g id="node9" class="node">
<title>Node9</title>
<g id="a_node9"><a xlink:href="namespaceerror__msg__class.html#af62b9a0c5997255e792b9ebd7322a6a3" target="_top" xlink:title="Write the header of the standard output (usually OUT)">
<polygon fill="white" stroke="black" points="323,-0.5 323,-30.5 437,-30.5 437,-0.5 323,-0.5"/>
<text text-anchor="start" x="331" y="-18.5" font-family="Helvetica,sans-Serif" font-size="10.00">error_msg_class::write</text>
<text text-anchor="middle" x="380" y="-7.5" font-family="Helvetica,sans-Serif" font-size="10.00">_header</text>
</a>
</g>
</g>
<!-- Node8&#45;&gt;Node9 -->
<g id="edge12" class="edge">
<title>Node8&#45;&gt;Node9</title>
<path fill="none" stroke="midnightblue" d="M287.37,-8.92C295.62,-8.76 304.18,-8.71 312.6,-8.78"/>
<polygon fill="midnightblue" stroke="midnightblue" points="312.73,-12.28 322.78,-8.93 312.83,-5.28 312.73,-12.28"/>
</g>
<!-- Node9&#45;&gt;Node8 -->
<g id="edge13" class="edge">
<title>Node9&#45;&gt;Node8</title>
<path fill="none" stroke="midnightblue" d="M322.78,-22.07C314.54,-22.24 305.98,-22.29 297.56,-22.22"/>
<polygon fill="midnightblue" stroke="midnightblue" points="297.42,-18.72 287.37,-22.08 297.32,-25.72 297.42,-18.72"/>
</g>
</g>
</svg>
