<?xml version="1.0" encoding="UTF-8" standalone="no"?>
<!DOCTYPE svg PUBLIC "-//W3C//DTD SVG 1.1//EN"
 "http://www.w3.org/Graphics/SVG/1.1/DTD/svg11.dtd">
<!-- Generated by graphviz version 2.44.0 ()
 -->
<!-- Title: parameter_class::read_sanity_check_prepared_network Pages: 1 -->
<svg width="714pt" height="84pt"
 viewBox="0.00 0.00 714.00 84.15" xmlns="http://www.w3.org/2000/svg" xmlns:xlink="http://www.w3.org/1999/xlink">
<g id="graph0" class="graph" transform="scale(1 1) rotate(0) translate(4 80.15)">
<title>parameter_class::read_sanity_check_prepared_network</title>
<polygon fill="white" stroke="transparent" points="-4,4 -4,-80.15 710,-80.15 710,4 -4,4"/>
<!-- Node1 -->
<g id="node1" class="node">
<title>Node1</title>
<g id="a_node1"><a xlink:title="Read important parameters from a binary file and check for consistency.">
<polygon fill="#bfbfbf" stroke="black" points="0,-10.14 0,-51.14 122,-51.14 122,-10.14 0,-10.14"/>
<text text-anchor="start" x="8" y="-39.14" font-family="Helvetica,sans-Serif" font-size="10.00">parameter_class::read</text>
<text text-anchor="start" x="8" y="-28.14" font-family="Helvetica,sans-Serif" font-size="10.00">_sanity_check_prepared</text>
<text text-anchor="middle" x="61" y="-17.14" font-family="Helvetica,sans-Serif" font-size="10.00">_network</text>
</a>
</g>
</g>
<!-- Node2 -->
<g id="node2" class="node">
<title>Node2</title>
<g id="a_node2"><a xlink:href="namespaceerror__msg__class.html#a7e065585cc806a5c264de1f088266498" target="_top" xlink:title="Converts a given integer to a string.">
<polygon fill="white" stroke="black" points="602,-34.64 602,-64.64 706,-64.64 706,-34.64 602,-34.64"/>
<text text-anchor="start" x="610" y="-52.64" font-family="Helvetica,sans-Serif" font-size="10.00">error_msg_class::int</text>
<text text-anchor="middle" x="654" y="-41.64" font-family="Helvetica,sans-Serif" font-size="10.00">_to_str</text>
</a>
</g>
</g>
<!-- Node1&#45;&gt;Node2 -->
<g id="edge1" class="edge">
<title>Node1&#45;&gt;Node2</title>
<path fill="none" stroke="midnightblue" d="M122.17,-46.92C133.99,-49.77 146.34,-52.5 158,-54.64 271.09,-75.4 301.17,-79.44 416,-73.64 475.84,-70.62 543.85,-63.33 591.62,-57.57"/>
<polygon fill="midnightblue" stroke="midnightblue" points="592.29,-61.01 601.8,-56.33 591.45,-54.07 592.29,-61.01"/>
</g>
<!-- Node3 -->
<g id="node3" class="node">
<title>Node3</title>
<g id="a_node3"><a xlink:href="namespacefile__handling__class.html#a25b51db64738e74a129daae7428c8163" target="_top" xlink:title="Open an unformatted file for reading.">
<polygon fill="white" stroke="black" points="158,-15.64 158,-45.64 282,-45.64 282,-15.64 158,-15.64"/>
<text text-anchor="start" x="166" y="-33.64" font-family="Helvetica,sans-Serif" font-size="10.00">file_handling_class</text>
<text text-anchor="middle" x="220" y="-22.64" font-family="Helvetica,sans-Serif" font-size="10.00">::open_unformatted_infile</text>
</a>
</g>
</g>
<!-- Node1&#45;&gt;Node3 -->
<g id="edge2" class="edge">
<title>Node1&#45;&gt;Node3</title>
<path fill="none" stroke="midnightblue" d="M122.25,-30.64C130.55,-30.64 139.14,-30.64 147.61,-30.64"/>
<polygon fill="midnightblue" stroke="midnightblue" points="147.87,-34.14 157.87,-30.64 147.87,-27.14 147.87,-34.14"/>
</g>
<!-- Node5 -->
<g id="node5" class="node">
<title>Node5</title>
<g id="a_node5"><a xlink:href="namespaceerror__msg__class.html#a2453d3b7cb363115c046840baa1dfb75" target="_top" xlink:title="Raise a exception with a given error message.">
<polygon fill="white" stroke="black" points="452,-12.64 452,-42.64 566,-42.64 566,-12.64 452,-12.64"/>
<text text-anchor="start" x="460" y="-30.64" font-family="Helvetica,sans-Serif" font-size="10.00">error_msg_class::raise</text>
<text text-anchor="middle" x="509" y="-19.64" font-family="Helvetica,sans-Serif" font-size="10.00">_exception</text>
</a>
</g>
</g>
<!-- Node1&#45;&gt;Node5 -->
<g id="edge7" class="edge">
<title>Node1&#45;&gt;Node5</title>
<path fill="none" stroke="midnightblue" d="M122.23,-12.46C133.99,-9.62 146.3,-7.14 158,-5.64 256.28,6.95 371.06,-5.36 441.63,-16"/>
<polygon fill="midnightblue" stroke="midnightblue" points="441.3,-19.49 451.72,-17.55 442.37,-12.57 441.3,-19.49"/>
</g>
<!-- Node4 -->
<g id="node4" class="node">
<title>Node4</title>
<g id="a_node4"><a xlink:href="namespacefile__handling__class.html#af02196bd5eaf70ecd5ab4cc650094d5e" target="_top" xlink:title="Finds the next unused unit number.">
<polygon fill="white" stroke="black" points="318,-34.64 318,-64.64 416,-64.64 416,-34.64 318,-34.64"/>
<text text-anchor="start" x="326" y="-52.64" font-family="Helvetica,sans-Serif" font-size="10.00">file_handling_class</text>
<text text-anchor="middle" x="367" y="-41.64" font-family="Helvetica,sans-Serif" font-size="10.00">::get_next_io_unit</text>
</a>
</g>
</g>
<!-- Node3&#45;&gt;Node4 -->
<g id="edge3" class="edge">
<title>Node3&#45;&gt;Node4</title>
<path fill="none" stroke="midnightblue" d="M282.07,-38.64C290.55,-39.75 299.23,-40.89 307.66,-41.99"/>
<polygon fill="midnightblue" stroke="midnightblue" points="307.4,-45.49 317.77,-43.32 308.31,-38.55 307.4,-45.49"/>
</g>
<!-- Node3&#45;&gt;Node5 -->
<g id="edge6" class="edge">
<title>Node3&#45;&gt;Node5</title>
<path fill="none" stroke="midnightblue" d="M282.03,-26.29C293.95,-25.6 306.36,-25 318,-24.64 361.53,-23.29 372.45,-23.93 416,-24.64 424.27,-24.77 432.95,-24.98 441.55,-25.21"/>
<polygon fill="midnightblue" stroke="midnightblue" points="441.47,-28.71 451.57,-25.51 441.68,-21.72 441.47,-28.71"/>
</g>
<!-- Node4&#45;&gt;Node5 -->
<g id="edge4" class="edge">
<title>Node4&#45;&gt;Node5</title>
<path fill="none" stroke="midnightblue" d="M416.18,-42.07C424.37,-40.78 433,-39.42 441.55,-38.08"/>
<polygon fill="midnightblue" stroke="midnightblue" points="442.2,-41.52 451.54,-36.51 441.11,-34.61 442.2,-41.52"/>
</g>
<!-- Node5&#45;&gt;Node2 -->
<g id="edge5" class="edge">
<title>Node5&#45;&gt;Node2</title>
<path fill="none" stroke="midnightblue" d="M566.11,-36.27C574.54,-37.57 583.28,-38.91 591.81,-40.22"/>
<polygon fill="midnightblue" stroke="midnightblue" points="591.3,-43.69 601.71,-41.75 592.36,-36.77 591.3,-43.69"/>
</g>
</g>
</svg>
