<?xml version="1.0" encoding="UTF-8" standalone="no"?>
<!DOCTYPE svg PUBLIC "-//W3C//DTD SVG 1.1//EN"
 "http://www.w3.org/Graphics/SVG/1.1/DTD/svg11.dtd">
<!-- Generated by graphviz version 2.44.0 ()
 -->
<!-- Title: benam_class::get_nuclear_properties Pages: 1 -->
<svg width="932pt" height="329pt"
 viewBox="0.00 0.00 932.00 329.00" xmlns="http://www.w3.org/2000/svg" xmlns:xlink="http://www.w3.org/1999/xlink">
<g id="graph0" class="graph" transform="scale(1 1) rotate(0) translate(4 325)">
<title>benam_class::get_nuclear_properties</title>
<polygon fill="white" stroke="transparent" points="-4,4 -4,-325 928,-325 928,4 -4,4"/>
<!-- Node1 -->
<g id="node1" class="node">
<title>Node1</title>
<g id="a_node1"><a xlink:title="Reads nuclear properties (name,a,n,z,spin,mass excess,partition functions) from file &#39;winvn&#39; and htpf...">
<polygon fill="#bfbfbf" stroke="black" points="0,-158.5 0,-188.5 129,-188.5 129,-158.5 0,-158.5"/>
<text text-anchor="start" x="8" y="-176.5" font-family="Helvetica,sans-Serif" font-size="10.00">benam_class::get_nuclear</text>
<text text-anchor="middle" x="64.5" y="-165.5" font-family="Helvetica,sans-Serif" font-size="10.00">_properties</text>
</a>
</g>
</g>
<!-- Node2 -->
<g id="node2" class="node">
<title>Node2</title>
<g id="a_node2"><a xlink:href="namespacefile__handling__class.html#a01ba26324d7662cc0fb2e0eb306cd3e2" target="_top" xlink:title="Close an external file.">
<polygon fill="white" stroke="black" points="531,-290.5 531,-320.5 629,-320.5 629,-290.5 531,-290.5"/>
<text text-anchor="start" x="539" y="-308.5" font-family="Helvetica,sans-Serif" font-size="10.00">file_handling_class</text>
<text text-anchor="middle" x="580" y="-297.5" font-family="Helvetica,sans-Serif" font-size="10.00">::close_io_file</text>
</a>
</g>
</g>
<!-- Node1&#45;&gt;Node2 -->
<g id="edge1" class="edge">
<title>Node1&#45;&gt;Node2</title>
<path fill="none" stroke="midnightblue" d="M74.89,-188.61C90.38,-212.02 123.72,-256.32 165,-275.5 282,-329.88 437.83,-322.87 520.96,-313.74"/>
<polygon fill="midnightblue" stroke="midnightblue" points="521.44,-317.21 530.98,-312.59 520.64,-310.26 521.44,-317.21"/>
</g>
<!-- Node4 -->
<g id="node4" class="node">
<title>Node4</title>
<g id="a_node4"><a xlink:href="namespaceerror__msg__class.html#a2453d3b7cb363115c046840baa1dfb75" target="_top" xlink:title="Raise a exception with a given error message.">
<polygon fill="white" stroke="black" points="670,-186.5 670,-216.5 784,-216.5 784,-186.5 670,-186.5"/>
<text text-anchor="start" x="678" y="-204.5" font-family="Helvetica,sans-Serif" font-size="10.00">error_msg_class::raise</text>
<text text-anchor="middle" x="727" y="-193.5" font-family="Helvetica,sans-Serif" font-size="10.00">_exception</text>
</a>
</g>
</g>
<!-- Node1&#45;&gt;Node4 -->
<g id="edge10" class="edge">
<title>Node1&#45;&gt;Node4</title>
<path fill="none" stroke="midnightblue" d="M80.74,-188.62C98.98,-205.54 131.29,-231.96 165,-242.5 342.01,-297.87 565.16,-248.52 668.55,-219.35"/>
<polygon fill="midnightblue" stroke="midnightblue" points="669.83,-222.63 678.48,-216.51 667.9,-215.9 669.83,-222.63"/>
</g>
<!-- Node5 -->
<g id="node5" class="node">
<title>Node5</title>
<g id="a_node5"><a xlink:href="namespacenucstuff__class.html#a2c1904ab59fa22ca27e7a4b6eda76529" target="_top" xlink:title="Function to decide whether a given isotope is stable or not.">
<polygon fill="white" stroke="black" points="199.5,-202.5 199.5,-232.5 291.5,-232.5 291.5,-202.5 199.5,-202.5"/>
<text text-anchor="start" x="207.5" y="-220.5" font-family="Helvetica,sans-Serif" font-size="10.00">nucstuff_class::is</text>
<text text-anchor="middle" x="245.5" y="-209.5" font-family="Helvetica,sans-Serif" font-size="10.00">_stable</text>
</a>
</g>
</g>
<!-- Node1&#45;&gt;Node5 -->
<g id="edge5" class="edge">
<title>Node1&#45;&gt;Node5</title>
<path fill="none" stroke="midnightblue" d="M126.6,-188.52C147.05,-193.55 169.7,-199.11 189.64,-204.02"/>
<polygon fill="midnightblue" stroke="midnightblue" points="188.95,-207.45 199.49,-206.44 190.62,-200.65 188.95,-207.45"/>
</g>
<!-- Node6 -->
<g id="node6" class="node">
<title>Node6</title>
<g id="a_node6"><a xlink:href="namespacefile__handling__class.html#aab870caaf9cbaaf635d537708efbf793" target="_top" xlink:title="Same for reading (input file)">
<polygon fill="white" stroke="black" points="377,-164.5 377,-194.5 475,-194.5 475,-164.5 377,-164.5"/>
<text text-anchor="start" x="385" y="-182.5" font-family="Helvetica,sans-Serif" font-size="10.00">file_handling_class</text>
<text text-anchor="middle" x="426" y="-171.5" font-family="Helvetica,sans-Serif" font-size="10.00">::open_infile</text>
</a>
</g>
</g>
<!-- Node1&#45;&gt;Node6 -->
<g id="edge6" class="edge">
<title>Node1&#45;&gt;Node6</title>
<path fill="none" stroke="midnightblue" d="M129.36,-174.57C196.68,-175.69 301.81,-177.44 366.88,-178.53"/>
<polygon fill="midnightblue" stroke="midnightblue" points="366.91,-182.03 376.97,-178.7 367.03,-175.03 366.91,-182.03"/>
</g>
<!-- Node8 -->
<g id="node8" class="node">
<title>Node8</title>
<g id="a_node8"><a xlink:href="namespacebenam__class.html#a470f2c9e8dd0a6b9a447dda9f4e10dac" target="_top" xlink:title="Read the file with high&#45;temperature partition function (normally datafile2.dat). An example of the fi...">
<polygon fill="white" stroke="black" points="186,-126 186,-145 305,-145 305,-126 186,-126"/>
<text text-anchor="middle" x="245.5" y="-133" font-family="Helvetica,sans-Serif" font-size="10.00">benam_class::read_htpf</text>
</a>
</g>
</g>
<!-- Node1&#45;&gt;Node8 -->
<g id="edge11" class="edge">
<title>Node1&#45;&gt;Node8</title>
<path fill="none" stroke="midnightblue" d="M129.11,-160C148.87,-155.8 170.48,-151.21 189.59,-147.16"/>
<polygon fill="midnightblue" stroke="midnightblue" points="190.58,-150.53 199.63,-145.02 189.13,-143.68 190.58,-150.53"/>
</g>
<!-- Node9 -->
<g id="node9" class="node">
<title>Node9</title>
<g id="a_node9"><a xlink:href="namespacebenam__class.html#a66521b1701ea14a0f6062955e0021f27" target="_top" xlink:title="Read a file with neutrino loss energy.">
<polygon fill="white" stroke="black" points="165,-88 165,-107 326,-107 326,-88 165,-88"/>
<text text-anchor="middle" x="245.5" y="-95" font-family="Helvetica,sans-Serif" font-size="10.00">benam_class::read_neutrino_loss</text>
</a>
</g>
</g>
<!-- Node1&#45;&gt;Node9 -->
<g id="edge12" class="edge">
<title>Node1&#45;&gt;Node9</title>
<path fill="none" stroke="midnightblue" d="M87.49,-158.44C107.07,-145.66 136.87,-127.65 165,-116.5 171.38,-113.97 178.19,-111.72 185.04,-109.73"/>
<polygon fill="midnightblue" stroke="midnightblue" points="186.32,-113.01 195.05,-107 184.48,-106.25 186.32,-113.01"/>
</g>
<!-- Node10 -->
<g id="node10" class="node">
<title>Node10</title>
<g id="a_node10"><a xlink:href="namespacebenam__class.html#a7302351a3858d65f88b5424ee17746d8" target="_top" xlink:title="Reads nuclear properties (name,a,n,z,spin,mass excess,partition functions) from file &#39;winvn&#39; and writ...">
<polygon fill="white" stroke="black" points="362,-50 362,-69 490,-69 490,-50 362,-50"/>
<text text-anchor="middle" x="426" y="-57" font-family="Helvetica,sans-Serif" font-size="10.00">benam_class::read_winvn</text>
</a>
</g>
</g>
<!-- Node1&#45;&gt;Node10 -->
<g id="edge15" class="edge">
<title>Node1&#45;&gt;Node10</title>
<path fill="none" stroke="midnightblue" d="M75.94,-158.33C92.11,-136.26 125.49,-96.03 165,-78.5 223.98,-52.33 297.9,-49.42 351.83,-51.97"/>
<polygon fill="midnightblue" stroke="midnightblue" points="351.82,-55.48 362,-52.53 352.21,-48.49 351.82,-55.48"/>
</g>
<!-- Node3 -->
<g id="node3" class="node">
<title>Node3</title>
<g id="a_node3"><a xlink:href="namespaceerror__msg__class.html#a7e065585cc806a5c264de1f088266498" target="_top" xlink:title="Converts a given integer to a string.">
<polygon fill="white" stroke="black" points="820,-208.5 820,-238.5 924,-238.5 924,-208.5 820,-208.5"/>
<text text-anchor="start" x="828" y="-226.5" font-family="Helvetica,sans-Serif" font-size="10.00">error_msg_class::int</text>
<text text-anchor="middle" x="872" y="-215.5" font-family="Helvetica,sans-Serif" font-size="10.00">_to_str</text>
</a>
</g>
</g>
<!-- Node2&#45;&gt;Node3 -->
<g id="edge2" class="edge">
<title>Node2&#45;&gt;Node3</title>
<path fill="none" stroke="midnightblue" d="M629.21,-291.87C678.79,-277.85 756.16,-255.97 809.98,-240.76"/>
<polygon fill="midnightblue" stroke="midnightblue" points="811.07,-244.08 819.74,-237.99 809.16,-237.35 811.07,-244.08"/>
</g>
<!-- Node2&#45;&gt;Node4 -->
<g id="edge3" class="edge">
<title>Node2&#45;&gt;Node4</title>
<path fill="none" stroke="midnightblue" d="M609.57,-290.45C617.63,-285.9 626.3,-280.72 634,-275.5 657.83,-259.33 683.21,-238.62 701.26,-223.23"/>
<polygon fill="midnightblue" stroke="midnightblue" points="703.71,-225.74 709.01,-216.56 699.15,-220.43 703.71,-225.74"/>
</g>
<!-- Node4&#45;&gt;Node3 -->
<g id="edge4" class="edge">
<title>Node4&#45;&gt;Node3</title>
<path fill="none" stroke="midnightblue" d="M784.11,-210.13C792.54,-211.43 801.28,-212.77 809.81,-214.09"/>
<polygon fill="midnightblue" stroke="midnightblue" points="809.3,-217.55 819.71,-215.61 810.36,-210.63 809.3,-217.55"/>
</g>
<!-- Node6&#45;&gt;Node4 -->
<g id="edge9" class="edge">
<title>Node6&#45;&gt;Node4</title>
<path fill="none" stroke="midnightblue" d="M475.14,-194.2C491.16,-198.4 509.2,-202.41 526,-204.5 570.29,-210.01 620.51,-209.23 659.55,-207.09"/>
<polygon fill="midnightblue" stroke="midnightblue" points="659.96,-210.57 669.74,-206.48 659.55,-203.58 659.96,-210.57"/>
</g>
<!-- Node7 -->
<g id="node7" class="node">
<title>Node7</title>
<g id="a_node7"><a xlink:href="namespacefile__handling__class.html#af02196bd5eaf70ecd5ab4cc650094d5e" target="_top" xlink:title="Finds the next unused unit number.">
<polygon fill="white" stroke="black" points="531,-164.5 531,-194.5 629,-194.5 629,-164.5 531,-164.5"/>
<text text-anchor="start" x="539" y="-182.5" font-family="Helvetica,sans-Serif" font-size="10.00">file_handling_class</text>
<text text-anchor="middle" x="580" y="-171.5" font-family="Helvetica,sans-Serif" font-size="10.00">::get_next_io_unit</text>
</a>
</g>
</g>
<!-- Node6&#45;&gt;Node7 -->
<g id="edge7" class="edge">
<title>Node6&#45;&gt;Node7</title>
<path fill="none" stroke="midnightblue" d="M475.09,-179.5C489.58,-179.5 505.64,-179.5 520.71,-179.5"/>
<polygon fill="midnightblue" stroke="midnightblue" points="520.96,-183 530.96,-179.5 520.96,-176 520.96,-183"/>
</g>
<!-- Node7&#45;&gt;Node4 -->
<g id="edge8" class="edge">
<title>Node7&#45;&gt;Node4</title>
<path fill="none" stroke="midnightblue" d="M629.28,-186.83C639.05,-188.31 649.47,-189.89 659.73,-191.44"/>
<polygon fill="midnightblue" stroke="midnightblue" points="659.49,-194.95 669.9,-192.99 660.54,-188.03 659.49,-194.95"/>
</g>
<!-- Node9&#45;&gt;Node4 -->
<g id="edge14" class="edge">
<title>Node9&#45;&gt;Node4</title>
<path fill="none" stroke="midnightblue" d="M326.07,-102.07C405.58,-108.34 530.55,-122.8 634,-155.5 654.11,-161.86 675.25,-172.14 692.19,-181.38"/>
<polygon fill="midnightblue" stroke="midnightblue" points="690.7,-184.55 701.13,-186.37 694.11,-178.44 690.7,-184.55"/>
</g>
<!-- Node9&#45;&gt;Node6 -->
<g id="edge13" class="edge">
<title>Node9&#45;&gt;Node6</title>
<path fill="none" stroke="midnightblue" d="M302.56,-107.09C310.68,-109.55 318.73,-112.64 326,-116.5 345.17,-126.68 344,-137.37 362,-149.5 367.53,-153.23 373.6,-156.75 379.72,-159.96"/>
<polygon fill="midnightblue" stroke="midnightblue" points="378.16,-163.1 388.67,-164.46 381.3,-156.84 378.16,-163.1"/>
</g>
<!-- Node10&#45;&gt;Node4 -->
<g id="edge17" class="edge">
<title>Node10&#45;&gt;Node4</title>
<path fill="none" stroke="midnightblue" d="M480.91,-69.09C524.19,-78.29 585.53,-94.81 634,-121.5 661.33,-136.55 687.7,-160.8 705.14,-178.66"/>
<polygon fill="midnightblue" stroke="midnightblue" points="703.06,-181.55 712.5,-186.36 708.12,-176.71 703.06,-181.55"/>
</g>
<!-- Node11 -->
<g id="node11" class="node">
<title>Node11</title>
<g id="a_node11"><a xlink:href="namespacebenam__class.html#ad20c821347dd5f7c08dff59c98e69657" target="_top" xlink:title="Returns the index number of isotope &#39;name&#39;.">
<polygon fill="white" stroke="black" points="526,-50 526,-69 634,-69 634,-50 526,-50"/>
<text text-anchor="middle" x="580" y="-57" font-family="Helvetica,sans-Serif" font-size="10.00">benam_class::benam</text>
</a>
</g>
</g>
<!-- Node10&#45;&gt;Node11 -->
<g id="edge16" class="edge">
<title>Node10&#45;&gt;Node11</title>
<path fill="none" stroke="midnightblue" d="M490.14,-59.5C498.61,-59.5 507.29,-59.5 515.76,-59.5"/>
<polygon fill="midnightblue" stroke="midnightblue" points="515.95,-63 525.95,-59.5 515.95,-56 515.95,-63"/>
</g>
<!-- Node12 -->
<g id="node12" class="node">
<title>Node12</title>
<g id="a_node12"><a xlink:href="namespacebenam__class.html#aea8a78ad9767e22772a94d7475dedbbb" target="_top" xlink:title="Checks if sunet file contains valid isotope names.">
<polygon fill="white" stroke="black" points="528.5,-0.5 528.5,-30.5 631.5,-30.5 631.5,-0.5 528.5,-0.5"/>
<text text-anchor="start" x="536.5" y="-18.5" font-family="Helvetica,sans-Serif" font-size="10.00">benam_class::sunet</text>
<text text-anchor="middle" x="580" y="-7.5" font-family="Helvetica,sans-Serif" font-size="10.00">_check</text>
</a>
</g>
</g>
<!-- Node10&#45;&gt;Node12 -->
<g id="edge18" class="edge">
<title>Node10&#45;&gt;Node12</title>
<path fill="none" stroke="midnightblue" d="M459.98,-49.95C477.16,-44.98 498.72,-38.74 518.75,-32.94"/>
<polygon fill="midnightblue" stroke="midnightblue" points="519.8,-36.28 528.44,-30.14 517.86,-29.56 519.8,-36.28"/>
</g>
<!-- Node12&#45;&gt;Node4 -->
<g id="edge19" class="edge">
<title>Node12&#45;&gt;Node4</title>
<path fill="none" stroke="midnightblue" d="M620.11,-30.51C625.1,-33.38 629.89,-36.7 634,-40.5 675.99,-79.32 704,-141.78 717.22,-176.38"/>
<polygon fill="midnightblue" stroke="midnightblue" points="714.09,-178.01 720.84,-186.17 720.65,-175.58 714.09,-178.01"/>
</g>
</g>
</svg>
