<?xml version="1.0" encoding="UTF-8" standalone="no"?>
<!DOCTYPE svg PUBLIC "-//W3C//DTD SVG 1.1//EN"
 "http://www.w3.org/Graphics/SVG/1.1/DTD/svg11.dtd">
<!-- Generated by graphviz version 2.44.0 ()
 -->
<!-- Title: reaclib_rate_module::output_binary_reaclib_reaction_data Pages: 1 -->
<svg width="711pt" height="67pt"
 viewBox="0.00 0.00 711.00 66.50" xmlns="http://www.w3.org/2000/svg" xmlns:xlink="http://www.w3.org/1999/xlink">
<g id="graph0" class="graph" transform="scale(1 1) rotate(0) translate(4 62.5)">
<title>reaclib_rate_module::output_binary_reaclib_reaction_data</title>
<polygon fill="white" stroke="transparent" points="-4,4 -4,-62.5 707,-62.5 707,4 -4,4"/>
<!-- Node1 -->
<g id="node1" class="node">
<title>Node1</title>
<g id="a_node1"><a xlink:title="Save the complete rrate array to a binary file.">
<polygon fill="#bfbfbf" stroke="black" points="0,-0.5 0,-41.5 113,-41.5 113,-0.5 0,-0.5"/>
<text text-anchor="start" x="8" y="-29.5" font-family="Helvetica,sans-Serif" font-size="10.00">reaclib_rate_module</text>
<text text-anchor="start" x="8" y="-18.5" font-family="Helvetica,sans-Serif" font-size="10.00">::output_binary_reaclib</text>
<text text-anchor="middle" x="56.5" y="-7.5" font-family="Helvetica,sans-Serif" font-size="10.00">_reaction_data</text>
</a>
</g>
</g>
<!-- Node2 -->
<g id="node2" class="node">
<title>Node2</title>
<g id="a_node2"><a xlink:href="namespacefile__handling__class.html#a3396a31619e5149278d09cdd614d3497" target="_top" xlink:title="Shorthand for opening a new unformatted file for writing (output file)">
<polygon fill="white" stroke="black" points="149,-6 149,-36 279,-36 279,-6 149,-6"/>
<text text-anchor="start" x="157" y="-24" font-family="Helvetica,sans-Serif" font-size="10.00">file_handling_class</text>
<text text-anchor="middle" x="214" y="-13" font-family="Helvetica,sans-Serif" font-size="10.00">::open_unformatted_outfile</text>
</a>
</g>
</g>
<!-- Node1&#45;&gt;Node2 -->
<g id="edge1" class="edge">
<title>Node1&#45;&gt;Node2</title>
<path fill="none" stroke="midnightblue" d="M113.2,-21C121.53,-21 130.23,-21 138.87,-21"/>
<polygon fill="midnightblue" stroke="midnightblue" points="138.96,-24.5 148.96,-21 138.96,-17.5 138.96,-24.5"/>
</g>
<!-- Node3 -->
<g id="node3" class="node">
<title>Node3</title>
<g id="a_node3"><a xlink:href="namespacefile__handling__class.html#af02196bd5eaf70ecd5ab4cc650094d5e" target="_top" xlink:title="Finds the next unused unit number.">
<polygon fill="white" stroke="black" points="315,-28 315,-58 413,-58 413,-28 315,-28"/>
<text text-anchor="start" x="323" y="-46" font-family="Helvetica,sans-Serif" font-size="10.00">file_handling_class</text>
<text text-anchor="middle" x="364" y="-35" font-family="Helvetica,sans-Serif" font-size="10.00">::get_next_io_unit</text>
</a>
</g>
</g>
<!-- Node2&#45;&gt;Node3 -->
<g id="edge2" class="edge">
<title>Node2&#45;&gt;Node3</title>
<path fill="none" stroke="midnightblue" d="M279.05,-30.52C287.61,-31.79 296.34,-33.09 304.79,-34.35"/>
<polygon fill="midnightblue" stroke="midnightblue" points="304.51,-37.84 314.92,-35.85 305.54,-30.92 304.51,-37.84"/>
</g>
<!-- Node4 -->
<g id="node4" class="node">
<title>Node4</title>
<g id="a_node4"><a xlink:href="namespaceerror__msg__class.html#a2453d3b7cb363115c046840baa1dfb75" target="_top" xlink:title="Raise a exception with a given error message.">
<polygon fill="white" stroke="black" points="449,-6 449,-36 563,-36 563,-6 449,-6"/>
<text text-anchor="start" x="457" y="-24" font-family="Helvetica,sans-Serif" font-size="10.00">error_msg_class::raise</text>
<text text-anchor="middle" x="506" y="-13" font-family="Helvetica,sans-Serif" font-size="10.00">_exception</text>
</a>
</g>
</g>
<!-- Node2&#45;&gt;Node4 -->
<g id="edge5" class="edge">
<title>Node2&#45;&gt;Node4</title>
<path fill="none" stroke="midnightblue" d="M279.01,-19.53C290.97,-19.31 303.37,-19.12 315,-19 358.55,-18.56 369.45,-18.53 413,-19 421.27,-19.09 429.95,-19.23 438.55,-19.38"/>
<polygon fill="midnightblue" stroke="midnightblue" points="438.5,-22.88 448.56,-19.58 438.63,-15.88 438.5,-22.88"/>
</g>
<!-- Node3&#45;&gt;Node4 -->
<g id="edge3" class="edge">
<title>Node3&#45;&gt;Node4</title>
<path fill="none" stroke="midnightblue" d="M413.18,-35.43C421.37,-34.14 430,-32.79 438.55,-31.44"/>
<polygon fill="midnightblue" stroke="midnightblue" points="439.2,-34.88 448.54,-29.87 438.11,-27.97 439.2,-34.88"/>
</g>
<!-- Node5 -->
<g id="node5" class="node">
<title>Node5</title>
<g id="a_node5"><a xlink:href="namespaceerror__msg__class.html#a7e065585cc806a5c264de1f088266498" target="_top" xlink:title="Converts a given integer to a string.">
<polygon fill="white" stroke="black" points="599,-6 599,-36 703,-36 703,-6 599,-6"/>
<text text-anchor="start" x="607" y="-24" font-family="Helvetica,sans-Serif" font-size="10.00">error_msg_class::int</text>
<text text-anchor="middle" x="651" y="-13" font-family="Helvetica,sans-Serif" font-size="10.00">_to_str</text>
</a>
</g>
</g>
<!-- Node4&#45;&gt;Node5 -->
<g id="edge4" class="edge">
<title>Node4&#45;&gt;Node5</title>
<path fill="none" stroke="midnightblue" d="M563.11,-21C571.45,-21 580.09,-21 588.54,-21"/>
<polygon fill="midnightblue" stroke="midnightblue" points="588.71,-24.5 598.71,-21 588.71,-17.5 588.71,-24.5"/>
</g>
</g>
</svg>
