<?xml version="1.0" encoding="UTF-8" standalone="no"?>
<!DOCTYPE svg PUBLIC "-//W3C//DTD SVG 1.1//EN"
 "http://www.w3.org/Graphics/SVG/1.1/DTD/svg11.dtd">
<!-- Generated by graphviz version 2.44.0 ()
 -->
<!-- Title: benam_class::get_nuclear_properties Pages: 1 -->
<!--zoomable 486 -->
<svg id="main" version="1.1" xmlns="http://www.w3.org/2000/svg" xmlns:xlink="http://www.w3.org/1999/xlink" xml:space="preserve" onload="init(evt)">
<style type="text/css"><![CDATA[
.edge:hover path { stroke: red; }
.edge:hover polygon { stroke: red; fill: red; }
]]></style>
<script type="text/javascript"><![CDATA[
var edges = document.getElementsByTagName('g');
if (edges && edges.length) {
  for (var i=0;i<edges.length;i++) {
    if (edges[i].id.substr(0,4)=='edge') {
      edges[i].setAttribute('class','edge');
    }
  }
}
]]></script>
        <defs>
                <circle id="rim" cx="0" cy="0" r="7"/>
                <circle id="rim2" cx="0" cy="0" r="3.5"/>
                <g id="zoomPlus">
                        <use xlink:href="#rim" fill="#404040">
                                <set attributeName="fill" to="#808080" begin="zoomplus.mouseover" end="zoomplus.mouseout"/>
                        </use>
                        <path d="M-4,0h8M0,-4v8" fill="none" stroke="white" stroke-width="1.5" pointer-events="none"/>
                </g>
                <g id="zoomMin">
                        <use xlink:href="#rim" fill="#404040">
                                <set attributeName="fill" to="#808080" begin="zoomminus.mouseover" end="zoomminus.mouseout"/>
                        </use>
                        <path d="M-4,0h8" fill="none" stroke="white" stroke-width="1.5" pointer-events="none"/>
                </g>
                <g id="dirArrow">
                        <path fill="none" stroke="white" stroke-width="1.5" d="M0,-3.0v7 M-2.5,-0.5L0,-3.0L2.5,-0.5"/>
                </g>
               <g id="resetDef">
                       <use xlink:href="#rim2" fill="#404040">
                               <set attributeName="fill" to="#808080" begin="reset.mouseover" end="reset.mouseout"/>
                       </use>
               </g>
        </defs>

<script type="text/javascript">
var viewWidth = 1093;
var viewHeight = 486;
var sectionId = 'dynsection-1';
</script>
<script xlink:href="svgpan.js"/>
<svg id="graph" class="graph">
<g id="viewport">
<title>benam_class::get_nuclear_properties</title>
<polygon fill="white" stroke="transparent" points="-4,4 -4,-482.43 1089,-482.43 1089,4 -4,4"/>
<!-- Node1 -->
<g id="node1" class="node">
<title>Node1</title>
<g id="a_node1"><a xlink:title="Reads nuclear properties (name,a,n,z,spin,mass excess,partition functions) from file &#39;winvn&#39; and htpf...">
<polygon fill="#bfbfbf" stroke="black" points="0,-142.93 0,-172.93 129,-172.93 129,-142.93 0,-142.93"/>
<text text-anchor="start" x="8" y="-160.93" font-family="Helvetica,sans-Serif" font-size="10.00">benam_class::get_nuclear</text>
<text text-anchor="middle" x="64.5" y="-149.93" font-family="Helvetica,sans-Serif" font-size="10.00">_properties</text>
</a>
</g>
</g>
<!-- Node2 -->
<g id="node2" class="node">
<title>Node2</title>
<g id="a_node2"><a xlink:href="namespacebenam__class.html#a95931751f9ab5819869210a561661790" target="_top" xlink:title="Reads nuclear properties (name,a,n,z,spin,mass excess,partition functions) from file &#39;winvn&#39; and htpf...">
<polygon fill="white" stroke="black" points="165,-239.93 165,-269.93 288,-269.93 288,-239.93 165,-239.93"/>
<text text-anchor="start" x="173" y="-257.93" font-family="Helvetica,sans-Serif" font-size="10.00">benam_class::read_ascii</text>
<text text-anchor="middle" x="226.5" y="-246.93" font-family="Helvetica,sans-Serif" font-size="10.00">_network_data</text>
</a>
</g>
</g>
<!-- Node1&#45;&gt;Node2 -->
<g id="edge1" class="edge">
<title>Node1&#45;&gt;Node2</title>
<path fill="none" stroke="midnightblue" d="M90.5,-173.09C117.74,-189.6 161.47,-216.11 191.75,-234.47"/>
<polygon fill="midnightblue" stroke="midnightblue" points="190.31,-237.69 200.68,-239.88 193.94,-231.7 190.31,-237.69"/>
</g>
<!-- Node17 -->
<g id="node17" class="node">
<title>Node17</title>
<g id="a_node17"><a xlink:href="namespacebenam__class.html#a72485363e8459a51cc23724f0aa4291a" target="_top" xlink:title="Read the general network information from a binary file.">
<polygon fill="white" stroke="black" points="340.5,-44.93 340.5,-74.93 468.5,-74.93 468.5,-44.93 340.5,-44.93"/>
<text text-anchor="start" x="348.5" y="-62.93" font-family="Helvetica,sans-Serif" font-size="10.00">benam_class::read_binary</text>
<text text-anchor="middle" x="404.5" y="-51.93" font-family="Helvetica,sans-Serif" font-size="10.00">_network_data</text>
</a>
</g>
</g>
<!-- Node1&#45;&gt;Node17 -->
<g id="edge29" class="edge">
<title>Node1&#45;&gt;Node17</title>
<path fill="none" stroke="midnightblue" d="M117.57,-142.83C177.95,-125.33 277.39,-96.5 341.65,-77.87"/>
<polygon fill="midnightblue" stroke="midnightblue" points="343.02,-81.11 351.65,-74.97 341.07,-74.39 343.02,-81.11"/>
</g>
<!-- Node3 -->
<g id="node3" class="node">
<title>Node3</title>
<g id="a_node3"><a xlink:href="namespacefile__handling__class.html#a01ba26324d7662cc0fb2e0eb306cd3e2" target="_top" xlink:title="Close an external file.">
<polygon fill="white" stroke="black" points="689,-447.93 689,-477.93 787,-477.93 787,-447.93 689,-447.93"/>
<text text-anchor="start" x="697" y="-465.93" font-family="Helvetica,sans-Serif" font-size="10.00">file_handling_class</text>
<text text-anchor="middle" x="738" y="-454.93" font-family="Helvetica,sans-Serif" font-size="10.00">::close_io_file</text>
</a>
</g>
</g>
<!-- Node2&#45;&gt;Node3 -->
<g id="edge2" class="edge">
<title>Node2&#45;&gt;Node3</title>
<path fill="none" stroke="midnightblue" d="M233.44,-270.18C245.74,-299.75 276.85,-365.03 324,-399.93 429.59,-478.1 592.53,-477.19 678.79,-469.98"/>
<polygon fill="midnightblue" stroke="midnightblue" points="679.27,-473.45 688.92,-469.07 678.65,-466.47 679.27,-473.45"/>
</g>
<!-- Node5 -->
<g id="node5" class="node">
<title>Node5</title>
<g id="a_node5"><a xlink:href="namespaceerror__msg__class.html#a2453d3b7cb363115c046840baa1dfb75" target="_top" xlink:title="Raise a exception with a given error message.">
<polygon fill="white" stroke="black" points="831,-232.93 831,-262.93 945,-262.93 945,-232.93 831,-232.93"/>
<text text-anchor="start" x="839" y="-250.93" font-family="Helvetica,sans-Serif" font-size="10.00">error_msg_class::raise</text>
<text text-anchor="middle" x="888" y="-239.93" font-family="Helvetica,sans-Serif" font-size="10.00">_exception</text>
</a>
</g>
</g>
<!-- Node2&#45;&gt;Node5 -->
<g id="edge19" class="edge">
<title>Node2&#45;&gt;Node5</title>
<path fill="none" stroke="midnightblue" d="M237.92,-239.72C253.74,-217.98 286.03,-178.6 324,-159.93 467.72,-89.26 521.22,-121.85 681,-110.93 731.55,-107.48 750.29,-87.1 795,-110.93 839.49,-134.64 866.28,-190.48 878.69,-223.08"/>
<polygon fill="midnightblue" stroke="midnightblue" points="875.51,-224.58 882.22,-232.78 882.09,-222.18 875.51,-224.58"/>
</g>
<!-- Node6 -->
<g id="node6" class="node">
<title>Node6</title>
<g id="a_node6"><a xlink:href="namespacenucstuff__class.html#a2c1904ab59fa22ca27e7a4b6eda76529" target="_top" xlink:title="Function to decide whether a given isotope is stable or not.">
<polygon fill="white" stroke="black" points="358.5,-283.93 358.5,-313.93 450.5,-313.93 450.5,-283.93 358.5,-283.93"/>
<text text-anchor="start" x="366.5" y="-301.93" font-family="Helvetica,sans-Serif" font-size="10.00">nucstuff_class::is</text>
<text text-anchor="middle" x="404.5" y="-290.93" font-family="Helvetica,sans-Serif" font-size="10.00">_stable</text>
</a>
</g>
</g>
<!-- Node2&#45;&gt;Node6 -->
<g id="edge6" class="edge">
<title>Node2&#45;&gt;Node6</title>
<path fill="none" stroke="midnightblue" d="M287.58,-269.95C307.34,-274.89 329.19,-280.35 348.55,-285.19"/>
<polygon fill="midnightblue" stroke="midnightblue" points="347.87,-288.63 358.42,-287.66 349.57,-281.84 347.87,-288.63"/>
</g>
<!-- Node7 -->
<g id="node7" class="node">
<title>Node7</title>
<g id="a_node7"><a xlink:href="namespacebenam__class.html#ab2f30d9af7c94727fc2af1ebe7b839d0" target="_top" xlink:title="Reads isotope names from file &#39;net_source&#39; and saves them in net_names(). Returns number of isotopes ...">
<polygon fill="white" stroke="black" points="336,-371.43 336,-390.43 473,-390.43 473,-371.43 336,-371.43"/>
<text text-anchor="middle" x="404.5" y="-378.43" font-family="Helvetica,sans-Serif" font-size="10.00">benam_class::load_network</text>
</a>
</g>
</g>
<!-- Node2&#45;&gt;Node7 -->
<g id="edge7" class="edge">
<title>Node2&#45;&gt;Node7</title>
<path fill="none" stroke="midnightblue" d="M236.71,-269.99C251.89,-293.44 284.42,-338.43 324,-361.93 327.71,-364.13 331.65,-366.08 335.73,-367.8"/>
<polygon fill="midnightblue" stroke="midnightblue" points="334.83,-371.2 345.43,-371.42 337.28,-364.64 334.83,-371.2"/>
</g>
<!-- Node9 -->
<g id="node9" class="node">
<title>Node9</title>
<g id="a_node9"><a xlink:href="namespacefile__handling__class.html#aab870caaf9cbaaf635d537708efbf793" target="_top" xlink:title="Same for reading (input file)">
<polygon fill="white" stroke="black" points="534,-207.93 534,-237.93 632,-237.93 632,-207.93 534,-207.93"/>
<text text-anchor="start" x="542" y="-225.93" font-family="Helvetica,sans-Serif" font-size="10.00">file_handling_class</text>
<text text-anchor="middle" x="583" y="-214.93" font-family="Helvetica,sans-Serif" font-size="10.00">::open_infile</text>
</a>
</g>
</g>
<!-- Node2&#45;&gt;Node9 -->
<g id="edge18" class="edge">
<title>Node2&#45;&gt;Node9</title>
<path fill="none" stroke="midnightblue" d="M288.03,-241.63C299.91,-239.41 312.31,-237.37 324,-235.93 392.23,-227.54 471.25,-224.54 523.68,-223.48"/>
<polygon fill="midnightblue" stroke="midnightblue" points="523.86,-226.97 533.8,-223.29 523.73,-219.98 523.86,-226.97"/>
</g>
<!-- Node13 -->
<g id="node13" class="node">
<title>Node13</title>
<g id="a_node13"><a xlink:href="namespacebenam__class.html#a470f2c9e8dd0a6b9a447dda9f4e10dac" target="_top" xlink:title="Read the file with high&#45;temperature partition function (normally datafile2.dat). An example of the fi...">
<polygon fill="white" stroke="black" points="345,-169.43 345,-188.43 464,-188.43 464,-169.43 345,-169.43"/>
<text text-anchor="middle" x="404.5" y="-176.43" font-family="Helvetica,sans-Serif" font-size="10.00">benam_class::read_htpf</text>
</a>
</g>
</g>
<!-- Node2&#45;&gt;Node13 -->
<g id="edge20" class="edge">
<title>Node2&#45;&gt;Node13</title>
<path fill="none" stroke="midnightblue" d="M252.22,-239.82C271.32,-228.58 298.69,-213.44 324,-202.93 334.3,-198.65 345.63,-194.77 356.42,-191.43"/>
<polygon fill="midnightblue" stroke="midnightblue" points="357.57,-194.75 366.15,-188.53 355.56,-188.04 357.57,-194.75"/>
</g>
<!-- Node14 -->
<g id="node14" class="node">
<title>Node14</title>
<g id="a_node14"><a xlink:href="namespacebenam__class.html#a66521b1701ea14a0f6062955e0021f27" target="_top" xlink:title="Read a file with neutrino loss energy.">
<polygon fill="white" stroke="black" points="324,-245.43 324,-264.43 485,-264.43 485,-245.43 324,-245.43"/>
<text text-anchor="middle" x="404.5" y="-252.43" font-family="Helvetica,sans-Serif" font-size="10.00">benam_class::read_neutrino_loss</text>
</a>
</g>
</g>
<!-- Node2&#45;&gt;Node14 -->
<g id="edge21" class="edge">
<title>Node2&#45;&gt;Node14</title>
<path fill="none" stroke="midnightblue" d="M288.07,-254.93C296.36,-254.93 305.01,-254.93 313.69,-254.93"/>
<polygon fill="midnightblue" stroke="midnightblue" points="313.86,-258.43 323.86,-254.93 313.86,-251.43 313.86,-258.43"/>
</g>
<!-- Node15 -->
<g id="node15" class="node">
<title>Node15</title>
<g id="a_node15"><a xlink:href="namespacebenam__class.html#a7302351a3858d65f88b5424ee17746d8" target="_top" xlink:title="Reads nuclear properties (name,a,n,z,spin,mass excess,partition functions) from file &#39;winvn&#39; and writ...">
<polygon fill="white" stroke="black" points="340.5,-333.43 340.5,-352.43 468.5,-352.43 468.5,-333.43 340.5,-333.43"/>
<text text-anchor="middle" x="404.5" y="-340.43" font-family="Helvetica,sans-Serif" font-size="10.00">benam_class::read_winvn</text>
</a>
</g>
</g>
<!-- Node2&#45;&gt;Node15 -->
<g id="edge24" class="edge">
<title>Node2&#45;&gt;Node15</title>
<path fill="none" stroke="midnightblue" d="M244.77,-270.1C263.19,-285.53 293.82,-309.09 324,-322.93 330.26,-325.8 336.99,-328.3 343.79,-330.47"/>
<polygon fill="midnightblue" stroke="midnightblue" points="343.18,-333.94 353.76,-333.41 345.16,-327.22 343.18,-333.94"/>
</g>
<!-- Node4 -->
<g id="node4" class="node">
<title>Node4</title>
<g id="a_node4"><a xlink:href="namespaceerror__msg__class.html#a7e065585cc806a5c264de1f088266498" target="_top" xlink:title="Converts a given integer to a string.">
<polygon fill="white" stroke="black" points="981,-327.93 981,-357.93 1085,-357.93 1085,-327.93 981,-327.93"/>
<text text-anchor="start" x="989" y="-345.93" font-family="Helvetica,sans-Serif" font-size="10.00">error_msg_class::int</text>
<text text-anchor="middle" x="1033" y="-334.93" font-family="Helvetica,sans-Serif" font-size="10.00">_to_str</text>
</a>
</g>
</g>
<!-- Node3&#45;&gt;Node4 -->
<g id="edge3" class="edge">
<title>Node3&#45;&gt;Node4</title>
<path fill="none" stroke="midnightblue" d="M787.03,-464.53C830.56,-464.05 895.3,-458.39 945,-432.93 975.12,-417.5 1000.8,-387.53 1016.28,-366.43"/>
<polygon fill="midnightblue" stroke="midnightblue" points="1019.34,-368.17 1022.28,-357.99 1013.63,-364.11 1019.34,-368.17"/>
</g>
<!-- Node3&#45;&gt;Node5 -->
<g id="edge4" class="edge">
<title>Node3&#45;&gt;Node5</title>
<path fill="none" stroke="midnightblue" d="M749.41,-447.81C774.83,-410.88 840.24,-315.86 870.81,-271.45"/>
<polygon fill="midnightblue" stroke="midnightblue" points="873.82,-273.25 876.6,-263.03 868.05,-269.29 873.82,-273.25"/>
</g>
<!-- Node5&#45;&gt;Node4 -->
<g id="edge5" class="edge">
<title>Node5&#45;&gt;Node4</title>
<path fill="none" stroke="midnightblue" d="M911.66,-262.98C935.57,-278.87 973.45,-304.04 1000.32,-321.89"/>
<polygon fill="midnightblue" stroke="midnightblue" points="998.71,-325.02 1008.97,-327.63 1002.58,-319.19 998.71,-325.02"/>
</g>
<!-- Node7&#45;&gt;Node3 -->
<g id="edge9" class="edge">
<title>Node7&#45;&gt;Node3</title>
<path fill="none" stroke="midnightblue" d="M422.52,-390.46C444.55,-402.35 484.44,-422.4 521,-432.93 573.2,-447.97 634.75,-455.58 678.76,-459.36"/>
<polygon fill="midnightblue" stroke="midnightblue" points="678.74,-462.87 689,-460.19 679.32,-455.89 678.74,-462.87"/>
</g>
<!-- Node7&#45;&gt;Node4 -->
<g id="edge10" class="edge">
<title>Node7&#45;&gt;Node4</title>
<path fill="none" stroke="midnightblue" d="M452.49,-390.44C473.37,-394.21 498.32,-398.08 521,-399.93 684.05,-413.25 875.53,-378.29 971.17,-357.35"/>
<polygon fill="midnightblue" stroke="midnightblue" points="971.96,-360.76 980.96,-355.18 970.44,-353.92 971.96,-360.76"/>
</g>
<!-- Node8 -->
<g id="node8" class="node">
<title>Node8</title>
<g id="a_node8"><a xlink:href="namespacebenam__class.html#ad20c821347dd5f7c08dff59c98e69657" target="_top" xlink:title="Returns the index number of isotope &#39;name&#39;.">
<polygon fill="white" stroke="black" points="529,-371.43 529,-390.43 637,-390.43 637,-371.43 529,-371.43"/>
<text text-anchor="middle" x="583" y="-378.43" font-family="Helvetica,sans-Serif" font-size="10.00">benam_class::benam</text>
</a>
</g>
</g>
<!-- Node7&#45;&gt;Node8 -->
<g id="edge8" class="edge">
<title>Node7&#45;&gt;Node8</title>
<path fill="none" stroke="midnightblue" d="M473.23,-380.93C488.24,-380.93 504.09,-380.93 518.9,-380.93"/>
<polygon fill="midnightblue" stroke="midnightblue" points="518.97,-384.43 528.97,-380.93 518.97,-377.43 518.97,-384.43"/>
</g>
<!-- Node7&#45;&gt;Node9 -->
<g id="edge11" class="edge">
<title>Node7&#45;&gt;Node9</title>
<path fill="none" stroke="midnightblue" d="M466.51,-371.28C473.06,-368.83 479.37,-365.77 485,-361.93 527.35,-333.08 556.97,-279.15 571.58,-247.62"/>
<polygon fill="midnightblue" stroke="midnightblue" points="574.9,-248.79 575.8,-238.23 568.51,-245.92 574.9,-248.79"/>
</g>
<!-- Node11 -->
<g id="node11" class="node">
<title>Node11</title>
<g id="a_node11"><a xlink:href="namespaceerror__msg__class.html#a339dd5b38c125b6a04653762c94a91f2" target="_top" xlink:title="Write data to the standard output (usually OUT)">
<polygon fill="white" stroke="black" points="526,-158.93 526,-188.93 640,-188.93 640,-158.93 526,-158.93"/>
<text text-anchor="start" x="534" y="-176.93" font-family="Helvetica,sans-Serif" font-size="10.00">error_msg_class::write</text>
<text text-anchor="middle" x="583" y="-165.93" font-family="Helvetica,sans-Serif" font-size="10.00">_data_to_std_out</text>
</a>
</g>
</g>
<!-- Node7&#45;&gt;Node11 -->
<g id="edge15" class="edge">
<title>Node7&#45;&gt;Node11</title>
<path fill="none" stroke="midnightblue" d="M472.42,-371.23C477.05,-368.74 481.32,-365.68 485,-361.93 537.28,-308.68 472.58,-254.72 521,-197.93 521.74,-197.07 522.51,-196.23 523.32,-195.43"/>
<polygon fill="midnightblue" stroke="midnightblue" points="525.74,-197.97 531.31,-188.96 521.33,-192.53 525.74,-197.97"/>
</g>
<!-- Node9&#45;&gt;Node5 -->
<g id="edge14" class="edge">
<title>Node9&#45;&gt;Node5</title>
<path fill="none" stroke="midnightblue" d="M632.01,-226.89C683.02,-231.1 763.99,-237.78 820.98,-242.48"/>
<polygon fill="midnightblue" stroke="midnightblue" points="820.72,-245.97 830.98,-243.31 821.3,-239 820.72,-245.97"/>
</g>
<!-- Node10 -->
<g id="node10" class="node">
<title>Node10</title>
<g id="a_node10"><a xlink:href="namespacefile__handling__class.html#af02196bd5eaf70ecd5ab4cc650094d5e" target="_top" xlink:title="Finds the next unused unit number.">
<polygon fill="white" stroke="black" points="689,-120.93 689,-150.93 787,-150.93 787,-120.93 689,-120.93"/>
<text text-anchor="start" x="697" y="-138.93" font-family="Helvetica,sans-Serif" font-size="10.00">file_handling_class</text>
<text text-anchor="middle" x="738" y="-127.93" font-family="Helvetica,sans-Serif" font-size="10.00">::get_next_io_unit</text>
</a>
</g>
</g>
<!-- Node9&#45;&gt;Node10 -->
<g id="edge12" class="edge">
<title>Node9&#45;&gt;Node10</title>
<path fill="none" stroke="midnightblue" d="M627.52,-207.78C633.61,-204.9 639.62,-201.62 645,-197.93 664.19,-184.78 661.91,-173.23 681,-159.93 683.09,-158.48 685.28,-157.08 687.53,-155.75"/>
<polygon fill="midnightblue" stroke="midnightblue" points="689.33,-158.76 696.47,-150.93 686.01,-152.6 689.33,-158.76"/>
</g>
<!-- Node10&#45;&gt;Node5 -->
<g id="edge13" class="edge">
<title>Node10&#45;&gt;Node5</title>
<path fill="none" stroke="midnightblue" d="M779.09,-151.01C784.6,-153.68 790.06,-156.67 795,-159.93 822.91,-178.38 849.98,-205.78 867.45,-225.09"/>
<polygon fill="midnightblue" stroke="midnightblue" points="865.06,-227.68 874.32,-232.83 870.29,-223.03 865.06,-227.68"/>
</g>
<!-- Node12 -->
<g id="node12" class="node">
<title>Node12</title>
<g id="a_node12"><a xlink:href="namespaceerror__msg__class.html#af62b9a0c5997255e792b9ebd7322a6a3" target="_top" xlink:title="Write the header of the standard output (usually OUT)">
<polygon fill="white" stroke="black" points="681,-169.93 681,-199.93 795,-199.93 795,-169.93 681,-169.93"/>
<text text-anchor="start" x="689" y="-187.93" font-family="Helvetica,sans-Serif" font-size="10.00">error_msg_class::write</text>
<text text-anchor="middle" x="738" y="-176.93" font-family="Helvetica,sans-Serif" font-size="10.00">_header</text>
</a>
</g>
</g>
<!-- Node11&#45;&gt;Node12 -->
<g id="edge16" class="edge">
<title>Node11&#45;&gt;Node12</title>
<path fill="none" stroke="midnightblue" d="M640.1,-171.43C650.08,-171.93 660.56,-172.63 670.79,-173.48"/>
<polygon fill="midnightblue" stroke="midnightblue" points="670.64,-176.98 680.9,-174.37 671.25,-170 670.64,-176.98"/>
</g>
<!-- Node12&#45;&gt;Node11 -->
<g id="edge17" class="edge">
<title>Node12&#45;&gt;Node11</title>
<path fill="none" stroke="midnightblue" d="M680.9,-187.43C670.93,-186.93 660.45,-186.23 650.22,-185.39"/>
<polygon fill="midnightblue" stroke="midnightblue" points="650.37,-181.89 640.1,-184.5 649.76,-188.86 650.37,-181.89"/>
</g>
<!-- Node14&#45;&gt;Node5 -->
<g id="edge23" class="edge">
<title>Node14&#45;&gt;Node5</title>
<path fill="none" stroke="midnightblue" d="M485.32,-254.11C564.06,-253.26 687.83,-251.78 795,-249.93 803.27,-249.79 811.95,-249.62 820.54,-249.45"/>
<polygon fill="midnightblue" stroke="midnightblue" points="820.64,-252.95 830.56,-249.24 820.49,-245.95 820.64,-252.95"/>
</g>
<!-- Node14&#45;&gt;Node9 -->
<g id="edge22" class="edge">
<title>Node14&#45;&gt;Node9</title>
<path fill="none" stroke="midnightblue" d="M457.98,-245.42C478.77,-241.65 502.75,-237.3 524.05,-233.44"/>
<polygon fill="midnightblue" stroke="midnightblue" points="524.73,-236.87 533.94,-231.64 523.48,-229.98 524.73,-236.87"/>
</g>
<!-- Node15&#45;&gt;Node5 -->
<g id="edge26" class="edge">
<title>Node15&#45;&gt;Node5</title>
<path fill="none" stroke="midnightblue" d="M453.87,-333.39C540.59,-316.28 722.61,-280.37 820.81,-260.99"/>
<polygon fill="midnightblue" stroke="midnightblue" points="821.78,-264.37 830.92,-259 820.43,-257.5 821.78,-264.37"/>
</g>
<!-- Node15&#45;&gt;Node8 -->
<g id="edge25" class="edge">
<title>Node15&#45;&gt;Node8</title>
<path fill="none" stroke="midnightblue" d="M450.04,-352.52C473.64,-357.6 502.83,-363.89 527.75,-369.25"/>
<polygon fill="midnightblue" stroke="midnightblue" points="527.27,-372.73 537.78,-371.41 528.74,-365.88 527.27,-372.73"/>
</g>
<!-- Node16 -->
<g id="node16" class="node">
<title>Node16</title>
<g id="a_node16"><a xlink:href="namespacebenam__class.html#aea8a78ad9767e22772a94d7475dedbbb" target="_top" xlink:title="Checks if sunet file contains valid isotope names.">
<polygon fill="white" stroke="black" points="686.5,-333.93 686.5,-363.93 789.5,-363.93 789.5,-333.93 686.5,-333.93"/>
<text text-anchor="start" x="694.5" y="-351.93" font-family="Helvetica,sans-Serif" font-size="10.00">benam_class::sunet</text>
<text text-anchor="middle" x="738" y="-340.93" font-family="Helvetica,sans-Serif" font-size="10.00">_check</text>
</a>
</g>
</g>
<!-- Node15&#45;&gt;Node16 -->
<g id="edge27" class="edge">
<title>Node15&#45;&gt;Node16</title>
<path fill="none" stroke="midnightblue" d="M468.63,-344.07C528.27,-345.15 617.11,-346.76 676.03,-347.83"/>
<polygon fill="midnightblue" stroke="midnightblue" points="676.24,-351.33 686.3,-348.01 676.37,-344.33 676.24,-351.33"/>
</g>
<!-- Node16&#45;&gt;Node5 -->
<g id="edge28" class="edge">
<title>Node16&#45;&gt;Node5</title>
<path fill="none" stroke="midnightblue" d="M769.46,-333.79C777.9,-329.28 786.95,-324.15 795,-318.93 818.5,-303.72 843.55,-284.14 861.57,-269.4"/>
<polygon fill="midnightblue" stroke="midnightblue" points="863.84,-272.06 869.32,-263 859.38,-266.66 863.84,-272.06"/>
</g>
<!-- Node17&#45;&gt;Node4 -->
<g id="edge30" class="edge">
<title>Node17&#45;&gt;Node4</title>
<path fill="none" stroke="midnightblue" d="M427.73,-44.8C450.14,-30.54 486.28,-10.16 521,-1.93 539.27,2.4 791.53,-2.09 795,-3.93 926.32,-73.47 1000.19,-252.09 1023.69,-318.01"/>
<polygon fill="midnightblue" stroke="midnightblue" points="1020.43,-319.29 1027.03,-327.58 1027.04,-316.99 1020.43,-319.29"/>
</g>
<!-- Node17&#45;&gt;Node5 -->
<g id="edge34" class="edge">
<title>Node17&#45;&gt;Node5</title>
<path fill="none" stroke="midnightblue" d="M443.44,-44.87C518.27,-17.88 687,29.28 795,-45.93 855.03,-87.74 876.62,-178.63 883.77,-222.81"/>
<polygon fill="midnightblue" stroke="midnightblue" points="880.31,-223.36 885.26,-232.73 887.24,-222.33 880.31,-223.36"/>
</g>
<!-- Node17&#45;&gt;Node11 -->
<g id="edge35" class="edge">
<title>Node17&#45;&gt;Node11</title>
<path fill="none" stroke="midnightblue" d="M428.94,-75.07C460.14,-95.23 515.45,-130.95 550.34,-153.48"/>
<polygon fill="midnightblue" stroke="midnightblue" points="548.45,-156.43 558.75,-158.91 552.25,-150.55 548.45,-156.43"/>
</g>
<!-- Node18 -->
<g id="node18" class="node">
<title>Node18</title>
<g id="a_node18"><a xlink:href="namespacefile__handling__class.html#a25b51db64738e74a129daae7428c8163" target="_top" xlink:title="Open an unformatted file for reading.">
<polygon fill="white" stroke="black" points="521,-44.93 521,-74.93 645,-74.93 645,-44.93 521,-44.93"/>
<text text-anchor="start" x="529" y="-62.93" font-family="Helvetica,sans-Serif" font-size="10.00">file_handling_class</text>
<text text-anchor="middle" x="583" y="-51.93" font-family="Helvetica,sans-Serif" font-size="10.00">::open_unformatted_infile</text>
</a>
</g>
</g>
<!-- Node17&#45;&gt;Node18 -->
<g id="edge31" class="edge">
<title>Node17&#45;&gt;Node18</title>
<path fill="none" stroke="midnightblue" d="M468.72,-59.93C482.41,-59.93 496.98,-59.93 510.95,-59.93"/>
<polygon fill="midnightblue" stroke="midnightblue" points="510.99,-63.43 520.99,-59.93 510.99,-56.43 510.99,-63.43"/>
</g>
<!-- Node18&#45;&gt;Node5 -->
<g id="edge33" class="edge">
<title>Node18&#45;&gt;Node5</title>
<path fill="none" stroke="midnightblue" d="M645.33,-50.52C690.34,-46.88 751.02,-49.12 795,-77.93 846.58,-111.72 871.51,-184.57 881.47,-223.01"/>
<polygon fill="midnightblue" stroke="midnightblue" points="878.11,-224 883.9,-232.88 884.91,-222.33 878.11,-224"/>
</g>
<!-- Node18&#45;&gt;Node10 -->
<g id="edge32" class="edge">
<title>Node18&#45;&gt;Node10</title>
<path fill="none" stroke="midnightblue" d="M614.23,-74.95C638.04,-86.77 671.43,-103.36 697.38,-116.25"/>
<polygon fill="midnightblue" stroke="midnightblue" points="696.06,-119.5 706.57,-120.82 699.17,-113.23 696.06,-119.5"/>
</g>
</g>
</svg>
        <g id="navigator" transform="translate(0 0)" fill="#404254">
                <rect fill="#f2f5e9" fill-opacity="0.5" stroke="#606060" stroke-width=".5" x="0" y="0" width="60" height="60"/>
                <use id="zoomplus" xlink:href="#zoomPlus" x="17" y="9" onmousedown="handleZoom(evt,'in')"/>
                <use id="zoomminus" xlink:href="#zoomMin" x="42" y="9" onmousedown="handleZoom(evt,'out')"/>
                <use id="reset" xlink:href="#resetDef" x="30" y="36" onmousedown="handleReset()"/>
                <g id="arrowUp" xlink:href="#dirArrow" transform="translate(30 24)" onmousedown="handlePan(0,-1)">
                  <use xlink:href="#rim" fill="#404040">
                        <set attributeName="fill" to="#808080" begin="arrowUp.mouseover" end="arrowUp.mouseout"/>
                  </use>
                  <path fill="none" stroke="white" stroke-width="1.5" d="M0,-3.0v7 M-2.5,-0.5L0,-3.0L2.5,-0.5"/>
                </g>
                <g id="arrowRight" xlink:href="#dirArrow" transform="rotate(90) translate(36 -43)" onmousedown="handlePan(1,0)">
                  <use xlink:href="#rim" fill="#404040">
                        <set attributeName="fill" to="#808080" begin="arrowRight.mouseover" end="arrowRight.mouseout"/>
                  </use>
                  <path fill="none" stroke="white" stroke-width="1.5" d="M0,-3.0v7 M-2.5,-0.5L0,-3.0L2.5,-0.5"/>
                </g>
                <g id="arrowDown" xlink:href="#dirArrow" transform="rotate(180) translate(-30 -48)" onmousedown="handlePan(0,1)">
                  <use xlink:href="#rim" fill="#404040">
                        <set attributeName="fill" to="#808080" begin="arrowDown.mouseover" end="arrowDown.mouseout"/>
                  </use>
                  <path fill="none" stroke="white" stroke-width="1.5" d="M0,-3.0v7 M-2.5,-0.5L0,-3.0L2.5,-0.5"/>
                </g>
                <g id="arrowLeft" xlink:href="#dirArrow" transform="rotate(270) translate(-36 17)" onmousedown="handlePan(-1,0)">
                  <use xlink:href="#rim" fill="#404040">
                        <set attributeName="fill" to="#808080" begin="arrowLeft.mouseover" end="arrowLeft.mouseout"/>
                  </use>
                  <path fill="none" stroke="white" stroke-width="1.5" d="M0,-3.0v7 M-2.5,-0.5L0,-3.0L2.5,-0.5"/>
                </g>
        </g>
        <svg viewBox="0 0 15 15" width="100%" height="30px" preserveAspectRatio="xMaxYMin meet">
         <g id="arrow_out" transform="scale(0.3 0.3)">
          <a xlink:href="namespacebenam__class_ae8ad1000ee495505fa72a163562513c8_cgraph_org.svg" target="_base">
           <rect id="button" ry="5" rx="5" y="6" x="6" height="38" width="38"
                fill="#f2f5e9" fill-opacity="0.5" stroke="#606060" stroke-width="1.0"/>
           <path id="arrow"
             d="M 11.500037,31.436501 C 11.940474,20.09759 22.043105,11.32322 32.158766,21.979434 L 37.068811,17.246167 C 37.068811,17.246167 37.088388,32 37.088388,32 L 22.160133,31.978069 C 22.160133,31.978069 26.997745,27.140456 26.997745,27.140456 C 18.528582,18.264221 13.291696,25.230495 11.500037,31.436501 z"
             style="fill:#404040;"/>
          </a>
         </g>
        </svg>
</svg>
