<?xml version="1.0" encoding="UTF-8" standalone="no"?>
<!DOCTYPE svg PUBLIC "-//W3C//DTD SVG 1.1//EN"
 "http://www.w3.org/Graphics/SVG/1.1/DTD/svg11.dtd">
<!-- Generated by graphviz version 2.44.0 ()
 -->
<!-- Title: benam_class::read_neutrino_loss Pages: 1 -->
<svg width="727pt" height="94pt"
 viewBox="0.00 0.00 727.00 93.50" xmlns="http://www.w3.org/2000/svg" xmlns:xlink="http://www.w3.org/1999/xlink">
<g id="graph0" class="graph" transform="scale(1 1) rotate(0) translate(4 89.5)">
<title>benam_class::read_neutrino_loss</title>
<polygon fill="white" stroke="transparent" points="-4,4 -4,-89.5 723,-89.5 723,4 -4,4"/>
<!-- Node1 -->
<g id="node1" class="node">
<title>Node1</title>
<g id="a_node1"><a xlink:title="Read a file with neutrino loss energy.">
<polygon fill="#bfbfbf" stroke="black" points="0,-0.5 0,-19.5 161,-19.5 161,-0.5 0,-0.5"/>
<text text-anchor="middle" x="80.5" y="-7.5" font-family="Helvetica,sans-Serif" font-size="10.00">benam_class::read_neutrino_loss</text>
</a>
</g>
</g>
<!-- Node2 -->
<g id="node2" class="node">
<title>Node2</title>
<g id="a_node2"><a xlink:href="namespacefile__handling__class.html#aab870caaf9cbaaf635d537708efbf793" target="_top" xlink:title="Same for reading (input file)">
<polygon fill="white" stroke="black" points="197,-17 197,-47 295,-47 295,-17 197,-17"/>
<text text-anchor="start" x="205" y="-35" font-family="Helvetica,sans-Serif" font-size="10.00">file_handling_class</text>
<text text-anchor="middle" x="246" y="-24" font-family="Helvetica,sans-Serif" font-size="10.00">::open_infile</text>
</a>
</g>
</g>
<!-- Node1&#45;&gt;Node2 -->
<g id="edge1" class="edge">
<title>Node1&#45;&gt;Node2</title>
<path fill="none" stroke="midnightblue" d="M152.26,-19.52C163.76,-21.07 175.55,-22.66 186.71,-24.16"/>
<polygon fill="midnightblue" stroke="midnightblue" points="186.37,-27.64 196.75,-25.51 187.3,-20.7 186.37,-27.64"/>
</g>
<!-- Node4 -->
<g id="node4" class="node">
<title>Node4</title>
<g id="a_node4"><a xlink:href="namespaceerror__msg__class.html#a2453d3b7cb363115c046840baa1dfb75" target="_top" xlink:title="Raise a exception with a given error message.">
<polygon fill="white" stroke="black" points="465,-11 465,-41 579,-41 579,-11 465,-11"/>
<text text-anchor="start" x="473" y="-29" font-family="Helvetica,sans-Serif" font-size="10.00">error_msg_class::raise</text>
<text text-anchor="middle" x="522" y="-18" font-family="Helvetica,sans-Serif" font-size="10.00">_exception</text>
</a>
</g>
</g>
<!-- Node1&#45;&gt;Node4 -->
<g id="edge6" class="edge">
<title>Node1&#45;&gt;Node4</title>
<path fill="none" stroke="midnightblue" d="M161.02,-7.66C173.08,-7.39 185.37,-7.15 197,-7 240.55,-6.43 251.48,-5.17 295,-7 348.83,-9.26 409.69,-14.53 454.68,-18.95"/>
<polygon fill="midnightblue" stroke="midnightblue" points="454.6,-22.46 464.89,-19.97 455.29,-15.49 454.6,-22.46"/>
</g>
<!-- Node3 -->
<g id="node3" class="node">
<title>Node3</title>
<g id="a_node3"><a xlink:href="namespacefile__handling__class.html#af02196bd5eaf70ecd5ab4cc650094d5e" target="_top" xlink:title="Finds the next unused unit number.">
<polygon fill="white" stroke="black" points="331,-55 331,-85 429,-85 429,-55 331,-55"/>
<text text-anchor="start" x="339" y="-73" font-family="Helvetica,sans-Serif" font-size="10.00">file_handling_class</text>
<text text-anchor="middle" x="380" y="-62" font-family="Helvetica,sans-Serif" font-size="10.00">::get_next_io_unit</text>
</a>
</g>
</g>
<!-- Node2&#45;&gt;Node3 -->
<g id="edge2" class="edge">
<title>Node2&#45;&gt;Node3</title>
<path fill="none" stroke="midnightblue" d="M295.03,-45.83C303.49,-48.26 312.38,-50.82 321.08,-53.33"/>
<polygon fill="midnightblue" stroke="midnightblue" points="320.21,-56.72 330.79,-56.12 322.14,-49.99 320.21,-56.72"/>
</g>
<!-- Node2&#45;&gt;Node4 -->
<g id="edge5" class="edge">
<title>Node2&#45;&gt;Node4</title>
<path fill="none" stroke="midnightblue" d="M295.04,-30.95C339.32,-29.98 405.43,-28.53 454.72,-27.45"/>
<polygon fill="midnightblue" stroke="midnightblue" points="455.05,-30.95 464.97,-27.23 454.9,-23.95 455.05,-30.95"/>
</g>
<!-- Node3&#45;&gt;Node4 -->
<g id="edge3" class="edge">
<title>Node3&#45;&gt;Node4</title>
<path fill="none" stroke="midnightblue" d="M428.79,-54.98C439.82,-51.51 451.66,-47.79 463.07,-44.21"/>
<polygon fill="midnightblue" stroke="midnightblue" points="464.46,-47.44 472.95,-41.1 462.36,-40.76 464.46,-47.44"/>
</g>
<!-- Node5 -->
<g id="node5" class="node">
<title>Node5</title>
<g id="a_node5"><a xlink:href="namespaceerror__msg__class.html#a7e065585cc806a5c264de1f088266498" target="_top" xlink:title="Converts a given integer to a string.">
<polygon fill="white" stroke="black" points="615,-11 615,-41 719,-41 719,-11 615,-11"/>
<text text-anchor="start" x="623" y="-29" font-family="Helvetica,sans-Serif" font-size="10.00">error_msg_class::int</text>
<text text-anchor="middle" x="667" y="-18" font-family="Helvetica,sans-Serif" font-size="10.00">_to_str</text>
</a>
</g>
</g>
<!-- Node4&#45;&gt;Node5 -->
<g id="edge4" class="edge">
<title>Node4&#45;&gt;Node5</title>
<path fill="none" stroke="midnightblue" d="M579.11,-26C587.45,-26 596.09,-26 604.54,-26"/>
<polygon fill="midnightblue" stroke="midnightblue" points="604.71,-29.5 614.71,-26 604.71,-22.5 604.71,-29.5"/>
</g>
</g>
</svg>
