<?xml version="1.0" encoding="UTF-8" standalone="no"?>
<!DOCTYPE svg PUBLIC "-//W3C//DTD SVG 1.1//EN"
 "http://www.w3.org/Graphics/SVG/1.1/DTD/svg11.dtd">
<!-- Generated by graphviz version 2.44.0 ()
 -->
<!-- Title: beta_decay_rate_module::ignore_reactions Pages: 1 -->
<svg width="423pt" height="61pt"
 viewBox="0.00 0.00 423.00 61.00" xmlns="http://www.w3.org/2000/svg" xmlns:xlink="http://www.w3.org/1999/xlink">
<g id="graph0" class="graph" transform="scale(1 1) rotate(0) translate(4 57)">
<title>beta_decay_rate_module::ignore_reactions</title>
<polygon fill="white" stroke="transparent" points="-4,4 -4,-57 419,-57 419,4 -4,4"/>
<!-- Node1 -->
<g id="node1" class="node">
<title>Node1</title>
<g id="a_node1"><a xlink:title="Subroutine to remove weak rates from the beta decay rate array.">
<polygon fill="#bfbfbf" stroke="black" points="0,-22.5 0,-52.5 125,-52.5 125,-22.5 0,-22.5"/>
<text text-anchor="start" x="8" y="-40.5" font-family="Helvetica,sans-Serif" font-size="10.00">beta_decay_rate_module</text>
<text text-anchor="middle" x="62.5" y="-29.5" font-family="Helvetica,sans-Serif" font-size="10.00">::ignore_reactions</text>
</a>
</g>
</g>
<!-- Node2 -->
<g id="node2" class="node">
<title>Node2</title>
<g id="a_node2"><a xlink:href="namespaceerror__msg__class.html#a7e065585cc806a5c264de1f088266498" target="_top" xlink:title="Converts a given integer to a string.">
<polygon fill="white" stroke="black" points="311,-22.5 311,-52.5 415,-52.5 415,-22.5 311,-22.5"/>
<text text-anchor="start" x="319" y="-40.5" font-family="Helvetica,sans-Serif" font-size="10.00">error_msg_class::int</text>
<text text-anchor="middle" x="363" y="-29.5" font-family="Helvetica,sans-Serif" font-size="10.00">_to_str</text>
</a>
</g>
</g>
<!-- Node1&#45;&gt;Node2 -->
<g id="edge1" class="edge">
<title>Node1&#45;&gt;Node2</title>
<path fill="none" stroke="midnightblue" d="M125.13,-39.68C137.03,-40.02 149.4,-40.32 161,-40.5 211.66,-41.28 224.34,-41.37 275,-40.5 283.36,-40.36 292.18,-40.13 300.85,-39.87"/>
<polygon fill="midnightblue" stroke="midnightblue" points="301.06,-43.37 310.94,-39.55 300.84,-36.37 301.06,-43.37"/>
</g>
<!-- Node3 -->
<g id="node3" class="node">
<title>Node3</title>
<g id="a_node3"><a xlink:href="namespaceerror__msg__class.html#a2453d3b7cb363115c046840baa1dfb75" target="_top" xlink:title="Raise a exception with a given error message.">
<polygon fill="white" stroke="black" points="161,-0.5 161,-30.5 275,-30.5 275,-0.5 161,-0.5"/>
<text text-anchor="start" x="169" y="-18.5" font-family="Helvetica,sans-Serif" font-size="10.00">error_msg_class::raise</text>
<text text-anchor="middle" x="218" y="-7.5" font-family="Helvetica,sans-Serif" font-size="10.00">_exception</text>
</a>
</g>
</g>
<!-- Node1&#45;&gt;Node3 -->
<g id="edge2" class="edge">
<title>Node1&#45;&gt;Node3</title>
<path fill="none" stroke="midnightblue" d="M125.05,-28.68C133.56,-27.46 142.34,-26.2 150.93,-24.97"/>
<polygon fill="midnightblue" stroke="midnightblue" points="151.5,-28.42 160.9,-23.54 150.51,-21.49 151.5,-28.42"/>
</g>
<!-- Node3&#45;&gt;Node2 -->
<g id="edge3" class="edge">
<title>Node3&#45;&gt;Node2</title>
<path fill="none" stroke="midnightblue" d="M275.11,-24.13C283.54,-25.43 292.28,-26.77 300.81,-28.09"/>
<polygon fill="midnightblue" stroke="midnightblue" points="300.3,-31.55 310.71,-29.61 301.36,-24.63 300.3,-31.55"/>
</g>
</g>
</svg>
