<?xml version="1.0" encoding="UTF-8" standalone="no"?>
<!DOCTYPE svg PUBLIC "-//W3C//DTD SVG 1.1//EN"
 "http://www.w3.org/Graphics/SVG/1.1/DTD/svg11.dtd">
<!-- Generated by graphviz version 2.44.0 ()
 -->
<!-- Title: benam_class::read_ascii_network_data Pages: 1 -->
<svg width="918pt" height="351pt"
 viewBox="0.00 0.00 918.00 351.42" xmlns="http://www.w3.org/2000/svg" xmlns:xlink="http://www.w3.org/1999/xlink">
<g id="graph0" class="graph" transform="scale(1 1) rotate(0) translate(4 347.42)">
<title>benam_class::read_ascii_network_data</title>
<polygon fill="white" stroke="transparent" points="-4,4 -4,-347.42 914,-347.42 914,4 -4,4"/>
<!-- Node1 -->
<g id="node1" class="node">
<title>Node1</title>
<g id="a_node1"><a xlink:title="Reads nuclear properties (name,a,n,z,spin,mass excess,partition functions) from file &#39;winvn&#39; and htpf...">
<polygon fill="#bfbfbf" stroke="black" points="0,-154.73 0,-184.73 123,-184.73 123,-154.73 0,-154.73"/>
<text text-anchor="start" x="8" y="-172.73" font-family="Helvetica,sans-Serif" font-size="10.00">benam_class::read_ascii</text>
<text text-anchor="middle" x="61.5" y="-161.73" font-family="Helvetica,sans-Serif" font-size="10.00">_network_data</text>
</a>
</g>
</g>
<!-- Node2 -->
<g id="node2" class="node">
<title>Node2</title>
<g id="a_node2"><a xlink:href="namespacefile__handling__class.html#a01ba26324d7662cc0fb2e0eb306cd3e2" target="_top" xlink:title="Close an external file.">
<polygon fill="white" stroke="black" points="514,-299.73 514,-329.73 612,-329.73 612,-299.73 514,-299.73"/>
<text text-anchor="start" x="522" y="-317.73" font-family="Helvetica,sans-Serif" font-size="10.00">file_handling_class</text>
<text text-anchor="middle" x="563" y="-306.73" font-family="Helvetica,sans-Serif" font-size="10.00">::close_io_file</text>
</a>
</g>
</g>
<!-- Node1&#45;&gt;Node2 -->
<g id="edge1" class="edge">
<title>Node1&#45;&gt;Node2</title>
<path fill="none" stroke="midnightblue" d="M69.18,-184.9C82.11,-212.27 113.37,-269.5 159,-295.73 267.57,-358.14 421.06,-342.64 503.77,-327.62"/>
<polygon fill="midnightblue" stroke="midnightblue" points="504.56,-331.03 513.74,-325.75 503.27,-324.15 504.56,-331.03"/>
</g>
<!-- Node4 -->
<g id="node4" class="node">
<title>Node4</title>
<g id="a_node4"><a xlink:href="namespaceerror__msg__class.html#a2453d3b7cb363115c046840baa1dfb75" target="_top" xlink:title="Raise a exception with a given error message.">
<polygon fill="white" stroke="black" points="656,-125.73 656,-155.73 770,-155.73 770,-125.73 656,-125.73"/>
<text text-anchor="start" x="664" y="-143.73" font-family="Helvetica,sans-Serif" font-size="10.00">error_msg_class::raise</text>
<text text-anchor="middle" x="713" y="-132.73" font-family="Helvetica,sans-Serif" font-size="10.00">_exception</text>
</a>
</g>
</g>
<!-- Node1&#45;&gt;Node4 -->
<g id="edge18" class="edge">
<title>Node1&#45;&gt;Node4</title>
<path fill="none" stroke="midnightblue" d="M71.61,-154.73C86.64,-131.42 118.98,-87 159,-65.73 296.82,7.53 350.39,-23.77 506,-11.73 556.52,-7.82 574.96,11.47 620,-11.73 662.4,-33.57 689.57,-85.01 702.69,-115.93"/>
<polygon fill="midnightblue" stroke="midnightblue" points="699.6,-117.61 706.6,-125.55 706.08,-114.97 699.6,-117.61"/>
</g>
<!-- Node5 -->
<g id="node5" class="node">
<title>Node5</title>
<g id="a_node5"><a xlink:href="namespacenucstuff__class.html#a2c1904ab59fa22ca27e7a4b6eda76529" target="_top" xlink:title="Function to decide whether a given isotope is stable or not.">
<polygon fill="white" stroke="black" points="193.5,-217.73 193.5,-247.73 285.5,-247.73 285.5,-217.73 193.5,-217.73"/>
<text text-anchor="start" x="201.5" y="-235.73" font-family="Helvetica,sans-Serif" font-size="10.00">nucstuff_class::is</text>
<text text-anchor="middle" x="239.5" y="-224.73" font-family="Helvetica,sans-Serif" font-size="10.00">_stable</text>
</a>
</g>
</g>
<!-- Node1&#45;&gt;Node5 -->
<g id="edge5" class="edge">
<title>Node1&#45;&gt;Node5</title>
<path fill="none" stroke="midnightblue" d="M98.93,-184.78C116.9,-192.02 138.97,-200.65 159,-207.73 166.94,-210.54 175.38,-213.36 183.69,-216.05"/>
<polygon fill="midnightblue" stroke="midnightblue" points="182.74,-219.42 193.33,-219.13 184.87,-212.75 182.74,-219.42"/>
</g>
<!-- Node6 -->
<g id="node6" class="node">
<title>Node6</title>
<g id="a_node6"><a xlink:href="namespacebenam__class.html#ab2f30d9af7c94727fc2af1ebe7b839d0" target="_top" xlink:title="Reads isotope names from file &#39;net_source&#39; and saves them in net_names(). Returns number of isotopes ...">
<polygon fill="white" stroke="black" points="171,-267.23 171,-286.23 308,-286.23 308,-267.23 171,-267.23"/>
<text text-anchor="middle" x="239.5" y="-274.23" font-family="Helvetica,sans-Serif" font-size="10.00">benam_class::load_network</text>
</a>
</g>
</g>
<!-- Node1&#45;&gt;Node6 -->
<g id="edge6" class="edge">
<title>Node1&#45;&gt;Node6</title>
<path fill="none" stroke="midnightblue" d="M74.84,-185.01C91.72,-204.86 123.93,-239.16 159,-257.73 163.32,-260.02 167.91,-262.03 172.63,-263.81"/>
<polygon fill="midnightblue" stroke="midnightblue" points="171.85,-267.24 182.45,-267.13 174.1,-260.61 171.85,-267.24"/>
</g>
<!-- Node8 -->
<g id="node8" class="node">
<title>Node8</title>
<g id="a_node8"><a xlink:href="namespacefile__handling__class.html#aab870caaf9cbaaf635d537708efbf793" target="_top" xlink:title="Same for reading (input file)">
<polygon fill="white" stroke="black" points="364,-59.73 364,-89.73 462,-89.73 462,-59.73 364,-59.73"/>
<text text-anchor="start" x="372" y="-77.73" font-family="Helvetica,sans-Serif" font-size="10.00">file_handling_class</text>
<text text-anchor="middle" x="413" y="-66.73" font-family="Helvetica,sans-Serif" font-size="10.00">::open_infile</text>
</a>
</g>
</g>
<!-- Node1&#45;&gt;Node8 -->
<g id="edge17" class="edge">
<title>Node1&#45;&gt;Node8</title>
<path fill="none" stroke="midnightblue" d="M76.11,-154.53C93.38,-136.42 125.02,-106.95 159,-93.73 222.11,-69.18 300.68,-67.26 353.36,-69.65"/>
<polygon fill="midnightblue" stroke="midnightblue" points="353.38,-73.16 363.54,-70.18 353.74,-66.16 353.38,-73.16"/>
</g>
<!-- Node12 -->
<g id="node12" class="node">
<title>Node12</title>
<g id="a_node12"><a xlink:href="namespacebenam__class.html#a470f2c9e8dd0a6b9a447dda9f4e10dac" target="_top" xlink:title="Read the file with high&#45;temperature partition function (normally datafile2.dat). An example of the fi...">
<polygon fill="white" stroke="black" points="180,-103.23 180,-122.23 299,-122.23 299,-103.23 180,-103.23"/>
<text text-anchor="middle" x="239.5" y="-110.23" font-family="Helvetica,sans-Serif" font-size="10.00">benam_class::read_htpf</text>
</a>
</g>
</g>
<!-- Node1&#45;&gt;Node12 -->
<g id="edge19" class="edge">
<title>Node1&#45;&gt;Node12</title>
<path fill="none" stroke="midnightblue" d="M97.37,-154.63C115.52,-147.12 138.22,-138.27 159,-131.73 166.98,-129.22 175.5,-126.86 183.88,-124.71"/>
<polygon fill="midnightblue" stroke="midnightblue" points="184.77,-128.1 193.63,-122.29 183.08,-121.3 184.77,-128.1"/>
</g>
<!-- Node13 -->
<g id="node13" class="node">
<title>Node13</title>
<g id="a_node13"><a xlink:href="namespacebenam__class.html#a66521b1701ea14a0f6062955e0021f27" target="_top" xlink:title="Read a file with neutrino loss energy.">
<polygon fill="white" stroke="black" points="159,-141.23 159,-160.23 320,-160.23 320,-141.23 159,-141.23"/>
<text text-anchor="middle" x="239.5" y="-148.23" font-family="Helvetica,sans-Serif" font-size="10.00">benam_class::read_neutrino_loss</text>
</a>
</g>
</g>
<!-- Node1&#45;&gt;Node13 -->
<g id="edge20" class="edge">
<title>Node1&#45;&gt;Node13</title>
<path fill="none" stroke="midnightblue" d="M123.07,-163.19C131.36,-162.3 140.01,-161.36 148.69,-160.43"/>
<polygon fill="midnightblue" stroke="midnightblue" points="149.29,-163.88 158.86,-159.33 148.54,-156.92 149.29,-163.88"/>
</g>
<!-- Node14 -->
<g id="node14" class="node">
<title>Node14</title>
<g id="a_node14"><a xlink:href="namespacebenam__class.html#a7302351a3858d65f88b5424ee17746d8" target="_top" xlink:title="Reads nuclear properties (name,a,n,z,spin,mass excess,partition functions) from file &#39;winvn&#39; and writ...">
<polygon fill="white" stroke="black" points="175.5,-179.23 175.5,-198.23 303.5,-198.23 303.5,-179.23 175.5,-179.23"/>
<text text-anchor="middle" x="239.5" y="-186.23" font-family="Helvetica,sans-Serif" font-size="10.00">benam_class::read_winvn</text>
</a>
</g>
</g>
<!-- Node1&#45;&gt;Node14 -->
<g id="edge23" class="edge">
<title>Node1&#45;&gt;Node14</title>
<path fill="none" stroke="midnightblue" d="M123.07,-176.27C136.67,-177.74 151.25,-179.31 165.3,-180.83"/>
<polygon fill="midnightblue" stroke="midnightblue" points="165.1,-184.33 175.42,-181.92 165.86,-177.37 165.1,-184.33"/>
</g>
<!-- Node3 -->
<g id="node3" class="node">
<title>Node3</title>
<g id="a_node3"><a xlink:href="namespaceerror__msg__class.html#a7e065585cc806a5c264de1f088266498" target="_top" xlink:title="Converts a given integer to a string.">
<polygon fill="white" stroke="black" points="806,-299.73 806,-329.73 910,-329.73 910,-299.73 806,-299.73"/>
<text text-anchor="start" x="814" y="-317.73" font-family="Helvetica,sans-Serif" font-size="10.00">error_msg_class::int</text>
<text text-anchor="middle" x="858" y="-306.73" font-family="Helvetica,sans-Serif" font-size="10.00">_to_str</text>
</a>
</g>
</g>
<!-- Node2&#45;&gt;Node3 -->
<g id="edge2" class="edge">
<title>Node2&#45;&gt;Node3</title>
<path fill="none" stroke="midnightblue" d="M612.05,-314.73C662.23,-314.73 741.09,-314.73 795.72,-314.73"/>
<polygon fill="midnightblue" stroke="midnightblue" points="795.96,-318.23 805.96,-314.73 795.96,-311.23 795.96,-318.23"/>
</g>
<!-- Node2&#45;&gt;Node4 -->
<g id="edge3" class="edge">
<title>Node2&#45;&gt;Node4</title>
<path fill="none" stroke="midnightblue" d="M606.94,-299.68C611.61,-297.09 616.08,-294.12 620,-290.73 660.63,-255.61 688.85,-197.98 702.54,-165.32"/>
<polygon fill="midnightblue" stroke="midnightblue" points="705.78,-166.62 706.32,-156.04 699.3,-163.98 705.78,-166.62"/>
</g>
<!-- Node4&#45;&gt;Node3 -->
<g id="edge4" class="edge">
<title>Node4&#45;&gt;Node3</title>
<path fill="none" stroke="midnightblue" d="M726.44,-155.87C751.48,-186.33 808.1,-255.22 837.87,-291.46"/>
<polygon fill="midnightblue" stroke="midnightblue" points="835.43,-294 844.49,-299.5 840.84,-289.56 835.43,-294"/>
</g>
<!-- Node6&#45;&gt;Node2 -->
<g id="edge8" class="edge">
<title>Node6&#45;&gt;Node2</title>
<path fill="none" stroke="midnightblue" d="M277.7,-286.27C300.21,-291.67 329.58,-298.06 356,-301.73 405.57,-308.62 462.37,-311.86 503.75,-313.38"/>
<polygon fill="midnightblue" stroke="midnightblue" points="503.81,-316.89 513.93,-313.74 504.05,-309.89 503.81,-316.89"/>
</g>
<!-- Node6&#45;&gt;Node3 -->
<g id="edge9" class="edge">
<title>Node6&#45;&gt;Node3</title>
<path fill="none" stroke="midnightblue" d="M261.3,-286.39C284.06,-296.54 321.86,-312.19 356,-320.73 510.5,-359.36 700.25,-339.67 795.81,-325.32"/>
<polygon fill="midnightblue" stroke="midnightblue" points="796.53,-328.75 805.88,-323.77 795.46,-321.83 796.53,-328.75"/>
</g>
<!-- Node7 -->
<g id="node7" class="node">
<title>Node7</title>
<g id="a_node7"><a xlink:href="namespacebenam__class.html#ad20c821347dd5f7c08dff59c98e69657" target="_top" xlink:title="Returns the index number of isotope &#39;name&#39;.">
<polygon fill="white" stroke="black" points="359,-223.23 359,-242.23 467,-242.23 467,-223.23 359,-223.23"/>
<text text-anchor="middle" x="413" y="-230.23" font-family="Helvetica,sans-Serif" font-size="10.00">benam_class::benam</text>
</a>
</g>
</g>
<!-- Node6&#45;&gt;Node7 -->
<g id="edge7" class="edge">
<title>Node6&#45;&gt;Node7</title>
<path fill="none" stroke="midnightblue" d="M281.41,-267.21C293.83,-264.25 307.49,-260.92 320,-257.73 335.79,-253.7 353.04,-249.07 368.29,-244.9"/>
<polygon fill="midnightblue" stroke="midnightblue" points="369.27,-248.26 377.99,-242.24 367.42,-241.51 369.27,-248.26"/>
</g>
<!-- Node6&#45;&gt;Node8 -->
<g id="edge10" class="edge">
<title>Node6&#45;&gt;Node8</title>
<path fill="none" stroke="midnightblue" d="M303.69,-267.2C309.54,-264.71 315.11,-261.61 320,-257.73 346.77,-236.53 385.15,-144.16 402.65,-99.32"/>
<polygon fill="midnightblue" stroke="midnightblue" points="406.01,-100.35 406.35,-89.77 399.48,-97.83 406.01,-100.35"/>
</g>
<!-- Node10 -->
<g id="node10" class="node">
<title>Node10</title>
<g id="a_node10"><a xlink:href="namespaceerror__msg__class.html#a339dd5b38c125b6a04653762c94a91f2" target="_top" xlink:title="Write data to the standard output (usually OUT)">
<polygon fill="white" stroke="black" points="356,-261.73 356,-291.73 470,-291.73 470,-261.73 356,-261.73"/>
<text text-anchor="start" x="364" y="-279.73" font-family="Helvetica,sans-Serif" font-size="10.00">error_msg_class::write</text>
<text text-anchor="middle" x="413" y="-268.73" font-family="Helvetica,sans-Serif" font-size="10.00">_data_to_std_out</text>
</a>
</g>
</g>
<!-- Node6&#45;&gt;Node10 -->
<g id="edge14" class="edge">
<title>Node6&#45;&gt;Node10</title>
<path fill="none" stroke="midnightblue" d="M308.28,-276.73C320.57,-276.73 333.37,-276.73 345.62,-276.73"/>
<polygon fill="midnightblue" stroke="midnightblue" points="345.76,-280.23 355.76,-276.73 345.76,-273.23 345.76,-280.23"/>
</g>
<!-- Node8&#45;&gt;Node4 -->
<g id="edge13" class="edge">
<title>Node8&#45;&gt;Node4</title>
<path fill="none" stroke="midnightblue" d="M462.08,-78.6C504.23,-82.73 566.89,-90.67 620,-104.73 636.61,-109.13 654.32,-115.6 669.71,-121.85"/>
<polygon fill="midnightblue" stroke="midnightblue" points="668.39,-125.09 678.97,-125.69 671.07,-118.62 668.39,-125.09"/>
</g>
<!-- Node9 -->
<g id="node9" class="node">
<title>Node9</title>
<g id="a_node9"><a xlink:href="namespacefile__handling__class.html#af02196bd5eaf70ecd5ab4cc650094d5e" target="_top" xlink:title="Finds the next unused unit number.">
<polygon fill="white" stroke="black" points="514,-21.73 514,-51.73 612,-51.73 612,-21.73 514,-21.73"/>
<text text-anchor="start" x="522" y="-39.73" font-family="Helvetica,sans-Serif" font-size="10.00">file_handling_class</text>
<text text-anchor="middle" x="563" y="-28.73" font-family="Helvetica,sans-Serif" font-size="10.00">::get_next_io_unit</text>
</a>
</g>
</g>
<!-- Node8&#45;&gt;Node9 -->
<g id="edge11" class="edge">
<title>Node8&#45;&gt;Node9</title>
<path fill="none" stroke="midnightblue" d="M462.05,-62.39C475.43,-58.96 490.11,-55.19 503.99,-51.62"/>
<polygon fill="midnightblue" stroke="midnightblue" points="505.12,-54.95 513.94,-49.07 503.38,-48.17 505.12,-54.95"/>
</g>
<!-- Node9&#45;&gt;Node4 -->
<g id="edge12" class="edge">
<title>Node9&#45;&gt;Node4</title>
<path fill="none" stroke="midnightblue" d="M594.53,-51.77C602.97,-56.27 612,-61.43 620,-66.73 644.01,-82.62 669.38,-103.36 687.38,-118.83"/>
<polygon fill="midnightblue" stroke="midnightblue" points="685.25,-121.62 695.1,-125.54 689.84,-116.34 685.25,-121.62"/>
</g>
<!-- Node11 -->
<g id="node11" class="node">
<title>Node11</title>
<g id="a_node11"><a xlink:href="namespaceerror__msg__class.html#af62b9a0c5997255e792b9ebd7322a6a3" target="_top" xlink:title="Write the header of the standard output (usually OUT)">
<polygon fill="white" stroke="black" points="506,-250.73 506,-280.73 620,-280.73 620,-250.73 506,-250.73"/>
<text text-anchor="start" x="514" y="-268.73" font-family="Helvetica,sans-Serif" font-size="10.00">error_msg_class::write</text>
<text text-anchor="middle" x="563" y="-257.73" font-family="Helvetica,sans-Serif" font-size="10.00">_header</text>
</a>
</g>
</g>
<!-- Node10&#45;&gt;Node11 -->
<g id="edge15" class="edge">
<title>Node10&#45;&gt;Node11</title>
<path fill="none" stroke="midnightblue" d="M470.37,-265.96C478.62,-265.19 487.18,-264.5 495.6,-263.95"/>
<polygon fill="midnightblue" stroke="midnightblue" points="496.01,-267.43 505.78,-263.33 495.59,-260.44 496.01,-267.43"/>
</g>
<!-- Node11&#45;&gt;Node10 -->
<g id="edge16" class="edge">
<title>Node11&#45;&gt;Node10</title>
<path fill="none" stroke="midnightblue" d="M505.78,-276.48C497.54,-277.26 488.98,-277.95 480.56,-278.5"/>
<polygon fill="midnightblue" stroke="midnightblue" points="480.15,-275.02 470.37,-279.12 480.57,-282.01 480.15,-275.02"/>
</g>
<!-- Node13&#45;&gt;Node4 -->
<g id="edge22" class="edge">
<title>Node13&#45;&gt;Node4</title>
<path fill="none" stroke="midnightblue" d="M320.04,-145.82C372.77,-142.81 443.49,-139.26 506,-137.73 556.65,-136.49 569.34,-136.9 620,-137.73 628.27,-137.86 636.95,-138.07 645.55,-138.31"/>
<polygon fill="midnightblue" stroke="midnightblue" points="645.47,-141.8 655.57,-138.6 645.68,-134.81 645.47,-141.8"/>
</g>
<!-- Node13&#45;&gt;Node8 -->
<g id="edge21" class="edge">
<title>Node13&#45;&gt;Node8</title>
<path fill="none" stroke="midnightblue" d="M293.71,-141.21C302.7,-138.71 311.78,-135.59 320,-131.73 338.1,-123.23 339.14,-115.48 356,-104.73 361.37,-101.31 367.17,-97.9 372.93,-94.68"/>
<polygon fill="midnightblue" stroke="midnightblue" points="374.78,-97.65 381.88,-89.79 371.42,-91.51 374.78,-97.65"/>
</g>
<!-- Node14&#45;&gt;Node4 -->
<g id="edge25" class="edge">
<title>Node14&#45;&gt;Node4</title>
<path fill="none" stroke="midnightblue" d="M303.66,-197.05C379.84,-205.12 511.22,-212.71 620,-186.73 641.25,-181.65 663.2,-170.92 680.33,-161.1"/>
<polygon fill="midnightblue" stroke="midnightblue" points="682.49,-163.89 689.31,-155.78 678.93,-157.87 682.49,-163.89"/>
</g>
<!-- Node14&#45;&gt;Node7 -->
<g id="edge24" class="edge">
<title>Node14&#45;&gt;Node7</title>
<path fill="none" stroke="midnightblue" d="M278.93,-198.33C291.97,-201.6 306.63,-205.3 320,-208.73 334.94,-212.56 351.23,-216.79 365.9,-220.62"/>
<polygon fill="midnightblue" stroke="midnightblue" points="365.19,-224.05 375.75,-223.2 366.96,-217.28 365.19,-224.05"/>
</g>
<!-- Node15 -->
<g id="node15" class="node">
<title>Node15</title>
<g id="a_node15"><a xlink:href="namespacebenam__class.html#aea8a78ad9767e22772a94d7475dedbbb" target="_top" xlink:title="Checks if sunet file contains valid isotope names.">
<polygon fill="white" stroke="black" points="511.5,-147.73 511.5,-177.73 614.5,-177.73 614.5,-147.73 511.5,-147.73"/>
<text text-anchor="start" x="519.5" y="-165.73" font-family="Helvetica,sans-Serif" font-size="10.00">benam_class::sunet</text>
<text text-anchor="middle" x="563" y="-154.73" font-family="Helvetica,sans-Serif" font-size="10.00">_check</text>
</a>
</g>
</g>
<!-- Node14&#45;&gt;Node15 -->
<g id="edge26" class="edge">
<title>Node14&#45;&gt;Node15</title>
<path fill="none" stroke="midnightblue" d="M303.63,-183.62C360.88,-179 444.69,-172.22 501.2,-167.65"/>
<polygon fill="midnightblue" stroke="midnightblue" points="501.73,-171.12 511.42,-166.82 501.17,-164.14 501.73,-171.12"/>
</g>
<!-- Node15&#45;&gt;Node4 -->
<g id="edge27" class="edge">
<title>Node15&#45;&gt;Node4</title>
<path fill="none" stroke="midnightblue" d="M614.52,-155.22C624.61,-153.72 635.35,-152.12 645.87,-150.56"/>
<polygon fill="midnightblue" stroke="midnightblue" points="646.49,-154.01 655.87,-149.07 645.46,-147.08 646.49,-154.01"/>
</g>
</g>
</svg>
