<?xml version="1.0" encoding="UTF-8" standalone="no"?>
<!DOCTYPE svg PUBLIC "-//W3C//DTD SVG 1.1//EN"
 "http://www.w3.org/Graphics/SVG/1.1/DTD/svg11.dtd">
<!-- Generated by graphviz version 2.44.0 ()
 -->
<!-- Title: benam_class::read_binary_network_data Pages: 1 -->
<svg width="736pt" height="177pt"
 viewBox="0.00 0.00 736.00 177.10" xmlns="http://www.w3.org/2000/svg" xmlns:xlink="http://www.w3.org/1999/xlink">
<g id="graph0" class="graph" transform="scale(1 1) rotate(0) translate(4 173.1)">
<title>benam_class::read_binary_network_data</title>
<polygon fill="white" stroke="transparent" points="-4,4 -4,-173.1 732,-173.1 732,4 -4,4"/>
<!-- Node1 -->
<g id="node1" class="node">
<title>Node1</title>
<g id="a_node1"><a xlink:title="Read the general network information from a binary file.">
<polygon fill="#bfbfbf" stroke="black" points="0,-66.5 0,-96.5 128,-96.5 128,-66.5 0,-66.5"/>
<text text-anchor="start" x="8" y="-84.5" font-family="Helvetica,sans-Serif" font-size="10.00">benam_class::read_binary</text>
<text text-anchor="middle" x="64" y="-73.5" font-family="Helvetica,sans-Serif" font-size="10.00">_network_data</text>
</a>
</g>
</g>
<!-- Node2 -->
<g id="node2" class="node">
<title>Node2</title>
<g id="a_node2"><a xlink:href="namespaceerror__msg__class.html#a7e065585cc806a5c264de1f088266498" target="_top" xlink:title="Converts a given integer to a string.">
<polygon fill="white" stroke="black" points="624,-126.5 624,-156.5 728,-156.5 728,-126.5 624,-126.5"/>
<text text-anchor="start" x="632" y="-144.5" font-family="Helvetica,sans-Serif" font-size="10.00">error_msg_class::int</text>
<text text-anchor="middle" x="676" y="-133.5" font-family="Helvetica,sans-Serif" font-size="10.00">_to_str</text>
</a>
</g>
</g>
<!-- Node1&#45;&gt;Node2 -->
<g id="edge1" class="edge">
<title>Node1&#45;&gt;Node2</title>
<path fill="none" stroke="midnightblue" d="M92.92,-96.7C112.4,-106.81 139.23,-119.79 164,-128.5 279.98,-169.29 315.23,-172.96 438,-166.5 497.86,-163.35 565.86,-155.76 613.63,-149.76"/>
<polygon fill="midnightblue" stroke="midnightblue" points="614.33,-153.2 623.81,-148.47 613.44,-146.26 614.33,-153.2"/>
</g>
<!-- Node3 -->
<g id="node3" class="node">
<title>Node3</title>
<g id="a_node3"><a xlink:href="namespacefile__handling__class.html#a25b51db64738e74a129daae7428c8163" target="_top" xlink:title="Open an unformatted file for reading.">
<polygon fill="white" stroke="black" points="164,-88.5 164,-118.5 288,-118.5 288,-88.5 164,-88.5"/>
<text text-anchor="start" x="172" y="-106.5" font-family="Helvetica,sans-Serif" font-size="10.00">file_handling_class</text>
<text text-anchor="middle" x="226" y="-95.5" font-family="Helvetica,sans-Serif" font-size="10.00">::open_unformatted_infile</text>
</a>
</g>
</g>
<!-- Node1&#45;&gt;Node3 -->
<g id="edge2" class="edge">
<title>Node1&#45;&gt;Node3</title>
<path fill="none" stroke="midnightblue" d="M128.24,-90.19C136.65,-91.35 145.32,-92.54 153.86,-93.72"/>
<polygon fill="midnightblue" stroke="midnightblue" points="153.41,-97.19 163.79,-95.08 154.36,-90.25 153.41,-97.19"/>
</g>
<!-- Node5 -->
<g id="node5" class="node">
<title>Node5</title>
<g id="a_node5"><a xlink:href="namespaceerror__msg__class.html#a2453d3b7cb363115c046840baa1dfb75" target="_top" xlink:title="Raise a exception with a given error message.">
<polygon fill="white" stroke="black" points="474,-104.5 474,-134.5 588,-134.5 588,-104.5 474,-104.5"/>
<text text-anchor="start" x="482" y="-122.5" font-family="Helvetica,sans-Serif" font-size="10.00">error_msg_class::raise</text>
<text text-anchor="middle" x="531" y="-111.5" font-family="Helvetica,sans-Serif" font-size="10.00">_exception</text>
</a>
</g>
</g>
<!-- Node1&#45;&gt;Node5 -->
<g id="edge7" class="edge">
<title>Node1&#45;&gt;Node5</title>
<path fill="none" stroke="midnightblue" d="M128.11,-80.03C140.03,-79.81 152.4,-79.62 164,-79.5 219.11,-78.94 233.07,-74.99 288,-79.5 347.83,-84.41 415.15,-96.04 463.57,-105.5"/>
<polygon fill="midnightblue" stroke="midnightblue" points="463.12,-108.98 473.61,-107.49 464.47,-102.12 463.12,-108.98"/>
</g>
<!-- Node6 -->
<g id="node6" class="node">
<title>Node6</title>
<g id="a_node6"><a xlink:href="namespaceerror__msg__class.html#a339dd5b38c125b6a04653762c94a91f2" target="_top" xlink:title="Write data to the standard output (usually OUT)">
<polygon fill="white" stroke="black" points="169,-0.5 169,-30.5 283,-30.5 283,-0.5 169,-0.5"/>
<text text-anchor="start" x="177" y="-18.5" font-family="Helvetica,sans-Serif" font-size="10.00">error_msg_class::write</text>
<text text-anchor="middle" x="226" y="-7.5" font-family="Helvetica,sans-Serif" font-size="10.00">_data_to_std_out</text>
</a>
</g>
</g>
<!-- Node1&#45;&gt;Node6 -->
<g id="edge8" class="edge">
<title>Node1&#45;&gt;Node6</title>
<path fill="none" stroke="midnightblue" d="M101.71,-66.36C124.68,-56.88 154.46,-44.6 179,-34.48"/>
<polygon fill="midnightblue" stroke="midnightblue" points="180.55,-37.62 188.46,-30.57 177.88,-31.15 180.55,-37.62"/>
</g>
<!-- Node4 -->
<g id="node4" class="node">
<title>Node4</title>
<g id="a_node4"><a xlink:href="namespacefile__handling__class.html#af02196bd5eaf70ecd5ab4cc650094d5e" target="_top" xlink:title="Finds the next unused unit number.">
<polygon fill="white" stroke="black" points="332,-126.5 332,-156.5 430,-156.5 430,-126.5 332,-126.5"/>
<text text-anchor="start" x="340" y="-144.5" font-family="Helvetica,sans-Serif" font-size="10.00">file_handling_class</text>
<text text-anchor="middle" x="381" y="-133.5" font-family="Helvetica,sans-Serif" font-size="10.00">::get_next_io_unit</text>
</a>
</g>
</g>
<!-- Node3&#45;&gt;Node4 -->
<g id="edge3" class="edge">
<title>Node3&#45;&gt;Node4</title>
<path fill="none" stroke="midnightblue" d="M287.47,-118.52C298.84,-121.34 310.7,-124.29 322,-127.09"/>
<polygon fill="midnightblue" stroke="midnightblue" points="321.2,-130.5 331.75,-129.52 322.89,-123.71 321.2,-130.5"/>
</g>
<!-- Node3&#45;&gt;Node5 -->
<g id="edge6" class="edge">
<title>Node3&#45;&gt;Node5</title>
<path fill="none" stroke="midnightblue" d="M288.32,-106.74C339.22,-109.43 411.48,-113.24 463.72,-116"/>
<polygon fill="midnightblue" stroke="midnightblue" points="463.71,-119.5 473.88,-116.54 464.08,-112.51 463.71,-119.5"/>
</g>
<!-- Node4&#45;&gt;Node5 -->
<g id="edge4" class="edge">
<title>Node4&#45;&gt;Node5</title>
<path fill="none" stroke="midnightblue" d="M430.05,-134.36C440.89,-132.75 452.57,-131.01 464,-129.31"/>
<polygon fill="midnightblue" stroke="midnightblue" points="464.58,-132.76 473.95,-127.83 463.55,-125.84 464.58,-132.76"/>
</g>
<!-- Node5&#45;&gt;Node2 -->
<g id="edge5" class="edge">
<title>Node5&#45;&gt;Node2</title>
<path fill="none" stroke="midnightblue" d="M588.11,-128.13C596.54,-129.43 605.28,-130.77 613.81,-132.09"/>
<polygon fill="midnightblue" stroke="midnightblue" points="613.3,-135.55 623.71,-133.61 614.36,-128.63 613.3,-135.55"/>
</g>
<!-- Node7 -->
<g id="node7" class="node">
<title>Node7</title>
<g id="a_node7"><a xlink:href="namespaceerror__msg__class.html#af62b9a0c5997255e792b9ebd7322a6a3" target="_top" xlink:title="Write the header of the standard output (usually OUT)">
<polygon fill="white" stroke="black" points="324,-0.5 324,-30.5 438,-30.5 438,-0.5 324,-0.5"/>
<text text-anchor="start" x="332" y="-18.5" font-family="Helvetica,sans-Serif" font-size="10.00">error_msg_class::write</text>
<text text-anchor="middle" x="381" y="-7.5" font-family="Helvetica,sans-Serif" font-size="10.00">_header</text>
</a>
</g>
</g>
<!-- Node6&#45;&gt;Node7 -->
<g id="edge9" class="edge">
<title>Node6&#45;&gt;Node7</title>
<path fill="none" stroke="midnightblue" d="M283.1,-8.97C293.08,-8.75 303.56,-8.7 313.79,-8.8"/>
<polygon fill="midnightblue" stroke="midnightblue" points="313.85,-12.31 323.9,-8.97 313.96,-5.31 313.85,-12.31"/>
</g>
<!-- Node7&#45;&gt;Node6 -->
<g id="edge10" class="edge">
<title>Node7&#45;&gt;Node6</title>
<path fill="none" stroke="midnightblue" d="M323.9,-22.03C313.93,-22.25 303.45,-22.3 293.22,-22.2"/>
<polygon fill="midnightblue" stroke="midnightblue" points="293.16,-18.69 283.1,-22.03 293.04,-25.69 293.16,-18.69"/>
</g>
</g>
</svg>
