<?xml version="1.0" encoding="UTF-8" standalone="no"?>
<!DOCTYPE svg PUBLIC "-//W3C//DTD SVG 1.1//EN"
 "http://www.w3.org/Graphics/SVG/1.1/DTD/svg11.dtd">
<!-- Generated by graphviz version 2.44.0 ()
 -->
<!-- Title: fission_rate_module::read_fission_rates_reaclib_format Pages: 1 -->
<svg width="679pt" height="78pt"
 viewBox="0.00 0.00 679.00 77.50" xmlns="http://www.w3.org/2000/svg" xmlns:xlink="http://www.w3.org/1999/xlink">
<g id="graph0" class="graph" transform="scale(1 1) rotate(0) translate(4 73.5)">
<title>fission_rate_module::read_fission_rates_reaclib_format</title>
<polygon fill="white" stroke="transparent" points="-4,4 -4,-73.5 675,-73.5 675,4 -4,4"/>
<!-- Node1 -->
<g id="node1" class="node">
<title>Node1</title>
<g id="a_node1"><a xlink:title=" ">
<polygon fill="#bfbfbf" stroke="black" points="0,-17 0,-58 103,-58 103,-17 0,-17"/>
<text text-anchor="start" x="8" y="-46" font-family="Helvetica,sans-Serif" font-size="10.00">fission_rate_module</text>
<text text-anchor="start" x="8" y="-35" font-family="Helvetica,sans-Serif" font-size="10.00">::read_fission_rates</text>
<text text-anchor="middle" x="51.5" y="-24" font-family="Helvetica,sans-Serif" font-size="10.00">_reaclib_format</text>
</a>
</g>
</g>
<!-- Node2 -->
<g id="node2" class="node">
<title>Node2</title>
<g id="a_node2"><a xlink:href="namespacebenam__class.html#ad20c821347dd5f7c08dff59c98e69657" target="_top" xlink:title="Returns the index number of isotope &#39;name&#39;.">
<polygon fill="white" stroke="black" points="139,-50 139,-69 247,-69 247,-50 139,-50"/>
<text text-anchor="middle" x="193" y="-57" font-family="Helvetica,sans-Serif" font-size="10.00">benam_class::benam</text>
</a>
</g>
</g>
<!-- Node1&#45;&gt;Node2 -->
<g id="edge1" class="edge">
<title>Node1&#45;&gt;Node2</title>
<path fill="none" stroke="midnightblue" d="M103.26,-45.5C111.54,-46.81 120.22,-48.18 128.76,-49.53"/>
<polygon fill="midnightblue" stroke="midnightblue" points="128.27,-52.99 138.7,-51.09 129.37,-46.08 128.27,-52.99"/>
</g>
<!-- Node3 -->
<g id="node3" class="node">
<title>Node3</title>
<g id="a_node3"><a xlink:href="namespacefile__handling__class.html#aab870caaf9cbaaf635d537708efbf793" target="_top" xlink:title="Same for reading (input file)">
<polygon fill="white" stroke="black" points="144,-0.5 144,-30.5 242,-30.5 242,-0.5 144,-0.5"/>
<text text-anchor="start" x="152" y="-18.5" font-family="Helvetica,sans-Serif" font-size="10.00">file_handling_class</text>
<text text-anchor="middle" x="193" y="-7.5" font-family="Helvetica,sans-Serif" font-size="10.00">::open_infile</text>
</a>
</g>
</g>
<!-- Node1&#45;&gt;Node3 -->
<g id="edge2" class="edge">
<title>Node1&#45;&gt;Node3</title>
<path fill="none" stroke="midnightblue" d="M103.26,-29.5C113.19,-27.93 123.68,-26.27 133.83,-24.67"/>
<polygon fill="midnightblue" stroke="midnightblue" points="134.51,-28.11 143.84,-23.1 133.41,-21.2 134.51,-28.11"/>
</g>
<!-- Node4 -->
<g id="node4" class="node">
<title>Node4</title>
<g id="a_node4"><a xlink:href="namespacefile__handling__class.html#af02196bd5eaf70ecd5ab4cc650094d5e" target="_top" xlink:title="Finds the next unused unit number.">
<polygon fill="white" stroke="black" points="283,-22.5 283,-52.5 381,-52.5 381,-22.5 283,-22.5"/>
<text text-anchor="start" x="291" y="-40.5" font-family="Helvetica,sans-Serif" font-size="10.00">file_handling_class</text>
<text text-anchor="middle" x="332" y="-29.5" font-family="Helvetica,sans-Serif" font-size="10.00">::get_next_io_unit</text>
</a>
</g>
</g>
<!-- Node3&#45;&gt;Node4 -->
<g id="edge3" class="edge">
<title>Node3&#45;&gt;Node4</title>
<path fill="none" stroke="midnightblue" d="M242.3,-23.26C252.12,-24.83 262.55,-26.51 272.68,-28.13"/>
<polygon fill="midnightblue" stroke="midnightblue" points="272.24,-31.61 282.67,-29.74 273.35,-24.7 272.24,-31.61"/>
</g>
<!-- Node5 -->
<g id="node5" class="node">
<title>Node5</title>
<g id="a_node5"><a xlink:href="namespaceerror__msg__class.html#a2453d3b7cb363115c046840baa1dfb75" target="_top" xlink:title="Raise a exception with a given error message.">
<polygon fill="white" stroke="black" points="417,-0.5 417,-30.5 531,-30.5 531,-0.5 417,-0.5"/>
<text text-anchor="start" x="425" y="-18.5" font-family="Helvetica,sans-Serif" font-size="10.00">error_msg_class::raise</text>
<text text-anchor="middle" x="474" y="-7.5" font-family="Helvetica,sans-Serif" font-size="10.00">_exception</text>
</a>
</g>
</g>
<!-- Node3&#45;&gt;Node5 -->
<g id="edge6" class="edge">
<title>Node3&#45;&gt;Node5</title>
<path fill="none" stroke="midnightblue" d="M242.03,-14.22C255.3,-13.92 269.71,-13.65 283,-13.5 326.55,-13.01 337.45,-13.03 381,-13.5 389.27,-13.59 397.95,-13.73 406.55,-13.88"/>
<polygon fill="midnightblue" stroke="midnightblue" points="406.5,-17.38 416.56,-14.08 406.63,-10.38 406.5,-17.38"/>
</g>
<!-- Node4&#45;&gt;Node5 -->
<g id="edge4" class="edge">
<title>Node4&#45;&gt;Node5</title>
<path fill="none" stroke="midnightblue" d="M381.18,-29.93C389.37,-28.64 398,-27.29 406.55,-25.94"/>
<polygon fill="midnightblue" stroke="midnightblue" points="407.2,-29.38 416.54,-24.37 406.11,-22.47 407.2,-29.38"/>
</g>
<!-- Node6 -->
<g id="node6" class="node">
<title>Node6</title>
<g id="a_node6"><a xlink:href="namespaceerror__msg__class.html#a7e065585cc806a5c264de1f088266498" target="_top" xlink:title="Converts a given integer to a string.">
<polygon fill="white" stroke="black" points="567,-0.5 567,-30.5 671,-30.5 671,-0.5 567,-0.5"/>
<text text-anchor="start" x="575" y="-18.5" font-family="Helvetica,sans-Serif" font-size="10.00">error_msg_class::int</text>
<text text-anchor="middle" x="619" y="-7.5" font-family="Helvetica,sans-Serif" font-size="10.00">_to_str</text>
</a>
</g>
</g>
<!-- Node5&#45;&gt;Node6 -->
<g id="edge5" class="edge">
<title>Node5&#45;&gt;Node6</title>
<path fill="none" stroke="midnightblue" d="M531.11,-15.5C539.45,-15.5 548.09,-15.5 556.54,-15.5"/>
<polygon fill="midnightblue" stroke="midnightblue" points="556.71,-19 566.71,-15.5 556.71,-12 556.71,-19"/>
</g>
</g>
</svg>
