<?xml version="1.0" encoding="UTF-8" standalone="no"?>
<!DOCTYPE svg PUBLIC "-//W3C//DTD SVG 1.1//EN"
 "http://www.w3.org/Graphics/SVG/1.1/DTD/svg11.dtd">
<!-- Generated by graphviz version 2.44.0 ()
 -->
<!-- Title: fission_rate_module::read_fission_rates_halflife_format Pages: 1 -->
<svg width="679pt" height="93pt"
 viewBox="0.00 0.00 679.00 93.39" xmlns="http://www.w3.org/2000/svg" xmlns:xlink="http://www.w3.org/1999/xlink">
<g id="graph0" class="graph" transform="scale(1 1) rotate(0) translate(4 89.39)">
<title>fission_rate_module::read_fission_rates_halflife_format</title>
<polygon fill="white" stroke="transparent" points="-4,4 -4,-89.39 675,-89.39 675,4 -4,4"/>
<!-- Node1 -->
<g id="node1" class="node">
<title>Node1</title>
<g id="a_node1"><a xlink:title=" ">
<polygon fill="#bfbfbf" stroke="black" points="0,-10.89 0,-51.89 103,-51.89 103,-10.89 0,-10.89"/>
<text text-anchor="start" x="8" y="-39.89" font-family="Helvetica,sans-Serif" font-size="10.00">fission_rate_module</text>
<text text-anchor="start" x="8" y="-28.89" font-family="Helvetica,sans-Serif" font-size="10.00">::read_fission_rates</text>
<text text-anchor="middle" x="51.5" y="-17.89" font-family="Helvetica,sans-Serif" font-size="10.00">_halflife_format</text>
</a>
</g>
</g>
<!-- Node2 -->
<g id="node2" class="node">
<title>Node2</title>
<g id="a_node2"><a xlink:href="namespacebenam__class.html#ad20c821347dd5f7c08dff59c98e69657" target="_top" xlink:title="Returns the index number of isotope &#39;name&#39;.">
<polygon fill="white" stroke="black" points="139,-65.89 139,-84.89 247,-84.89 247,-65.89 139,-65.89"/>
<text text-anchor="middle" x="193" y="-72.89" font-family="Helvetica,sans-Serif" font-size="10.00">benam_class::benam</text>
</a>
</g>
</g>
<!-- Node1&#45;&gt;Node2 -->
<g id="edge1" class="edge">
<title>Node1&#45;&gt;Node2</title>
<path fill="none" stroke="midnightblue" d="M103.26,-47.4C119.36,-52.48 136.93,-58.02 152.15,-62.82"/>
<polygon fill="midnightblue" stroke="midnightblue" points="151.19,-66.19 161.78,-65.86 153.29,-59.51 151.19,-66.19"/>
</g>
<!-- Node3 -->
<g id="node3" class="node">
<title>Node3</title>
<g id="a_node3"><a xlink:href="namespacefile__handling__class.html#aab870caaf9cbaaf635d537708efbf793" target="_top" xlink:title="Same for reading (input file)">
<polygon fill="white" stroke="black" points="144,-16.39 144,-46.39 242,-46.39 242,-16.39 144,-16.39"/>
<text text-anchor="start" x="152" y="-34.39" font-family="Helvetica,sans-Serif" font-size="10.00">file_handling_class</text>
<text text-anchor="middle" x="193" y="-23.39" font-family="Helvetica,sans-Serif" font-size="10.00">::open_infile</text>
</a>
</g>
</g>
<!-- Node1&#45;&gt;Node3 -->
<g id="edge2" class="edge">
<title>Node1&#45;&gt;Node3</title>
<path fill="none" stroke="midnightblue" d="M103.26,-31.39C113.19,-31.39 123.68,-31.39 133.83,-31.39"/>
<polygon fill="midnightblue" stroke="midnightblue" points="133.84,-34.89 143.84,-31.39 133.84,-27.89 133.84,-34.89"/>
</g>
<!-- Node5 -->
<g id="node5" class="node">
<title>Node5</title>
<g id="a_node5"><a xlink:href="namespaceerror__msg__class.html#a2453d3b7cb363115c046840baa1dfb75" target="_top" xlink:title="Raise a exception with a given error message.">
<polygon fill="white" stroke="black" points="417,-10.39 417,-40.39 531,-40.39 531,-10.39 417,-10.39"/>
<text text-anchor="start" x="425" y="-28.39" font-family="Helvetica,sans-Serif" font-size="10.00">error_msg_class::raise</text>
<text text-anchor="middle" x="474" y="-17.39" font-family="Helvetica,sans-Serif" font-size="10.00">_exception</text>
</a>
</g>
</g>
<!-- Node1&#45;&gt;Node5 -->
<g id="edge7" class="edge">
<title>Node1&#45;&gt;Node5</title>
<path fill="none" stroke="midnightblue" d="M103.21,-14.16C114.83,-10.94 127.24,-8.05 139,-6.39 231.3,6.68 339.16,-4.11 406.78,-13.97"/>
<polygon fill="midnightblue" stroke="midnightblue" points="406.46,-17.47 416.87,-15.48 407.5,-10.54 406.46,-17.47"/>
</g>
<!-- Node4 -->
<g id="node4" class="node">
<title>Node4</title>
<g id="a_node4"><a xlink:href="namespacefile__handling__class.html#af02196bd5eaf70ecd5ab4cc650094d5e" target="_top" xlink:title="Finds the next unused unit number.">
<polygon fill="white" stroke="black" points="283,-54.39 283,-84.39 381,-84.39 381,-54.39 283,-54.39"/>
<text text-anchor="start" x="291" y="-72.39" font-family="Helvetica,sans-Serif" font-size="10.00">file_handling_class</text>
<text text-anchor="middle" x="332" y="-61.39" font-family="Helvetica,sans-Serif" font-size="10.00">::get_next_io_unit</text>
</a>
</g>
</g>
<!-- Node3&#45;&gt;Node4 -->
<g id="edge3" class="edge">
<title>Node3&#45;&gt;Node4</title>
<path fill="none" stroke="midnightblue" d="M242.3,-44.79C252.23,-47.54 262.77,-50.46 273,-53.3"/>
<polygon fill="midnightblue" stroke="midnightblue" points="272.1,-56.68 282.67,-55.98 273.97,-49.94 272.1,-56.68"/>
</g>
<!-- Node3&#45;&gt;Node5 -->
<g id="edge6" class="edge">
<title>Node3&#45;&gt;Node5</title>
<path fill="none" stroke="midnightblue" d="M242.28,-30.35C287.66,-29.38 355.97,-27.91 406.49,-26.82"/>
<polygon fill="midnightblue" stroke="midnightblue" points="406.75,-30.31 416.67,-26.6 406.6,-23.32 406.75,-30.31"/>
</g>
<!-- Node4&#45;&gt;Node5 -->
<g id="edge4" class="edge">
<title>Node4&#45;&gt;Node5</title>
<path fill="none" stroke="midnightblue" d="M380.79,-54.37C391.82,-50.9 403.66,-47.18 415.07,-43.6"/>
<polygon fill="midnightblue" stroke="midnightblue" points="416.46,-46.83 424.95,-40.49 414.36,-40.15 416.46,-46.83"/>
</g>
<!-- Node6 -->
<g id="node6" class="node">
<title>Node6</title>
<g id="a_node6"><a xlink:href="namespaceerror__msg__class.html#a7e065585cc806a5c264de1f088266498" target="_top" xlink:title="Converts a given integer to a string.">
<polygon fill="white" stroke="black" points="567,-10.39 567,-40.39 671,-40.39 671,-10.39 567,-10.39"/>
<text text-anchor="start" x="575" y="-28.39" font-family="Helvetica,sans-Serif" font-size="10.00">error_msg_class::int</text>
<text text-anchor="middle" x="619" y="-17.39" font-family="Helvetica,sans-Serif" font-size="10.00">_to_str</text>
</a>
</g>
</g>
<!-- Node5&#45;&gt;Node6 -->
<g id="edge5" class="edge">
<title>Node5&#45;&gt;Node6</title>
<path fill="none" stroke="midnightblue" d="M531.11,-25.39C539.45,-25.39 548.09,-25.39 556.54,-25.39"/>
<polygon fill="midnightblue" stroke="midnightblue" points="556.71,-28.89 566.71,-25.39 556.71,-21.89 556.71,-28.89"/>
</g>
</g>
</svg>
