<?xml version="1.0" encoding="UTF-8" standalone="no"?>
<!DOCTYPE svg PUBLIC "-//W3C//DTD SVG 1.1//EN"
 "http://www.w3.org/Graphics/SVG/1.1/DTD/svg11.dtd">
<!-- Generated by graphviz version 2.44.0 ()
 -->
<!-- Title: fission_rate_module::file_fiss_frag Pages: 1 -->
<!--zoomable 190 -->
<svg id="main" version="1.1" xmlns="http://www.w3.org/2000/svg" xmlns:xlink="http://www.w3.org/1999/xlink" xml:space="preserve" onload="init(evt)">
<style type="text/css"><![CDATA[
.edge:hover path { stroke: red; }
.edge:hover polygon { stroke: red; fill: red; }
]]></style>
<script type="text/javascript"><![CDATA[
var edges = document.getElementsByTagName('g');
if (edges && edges.length) {
  for (var i=0;i<edges.length;i++) {
    if (edges[i].id.substr(0,4)=='edge') {
      edges[i].setAttribute('class','edge');
    }
  }
}
]]></script>
        <defs>
                <circle id="rim" cx="0" cy="0" r="7"/>
                <circle id="rim2" cx="0" cy="0" r="3.5"/>
                <g id="zoomPlus">
                        <use xlink:href="#rim" fill="#404040">
                                <set attributeName="fill" to="#808080" begin="zoomplus.mouseover" end="zoomplus.mouseout"/>
                        </use>
                        <path d="M-4,0h8M0,-4v8" fill="none" stroke="white" stroke-width="1.5" pointer-events="none"/>
                </g>
                <g id="zoomMin">
                        <use xlink:href="#rim" fill="#404040">
                                <set attributeName="fill" to="#808080" begin="zoomminus.mouseover" end="zoomminus.mouseout"/>
                        </use>
                        <path d="M-4,0h8" fill="none" stroke="white" stroke-width="1.5" pointer-events="none"/>
                </g>
                <g id="dirArrow">
                        <path fill="none" stroke="white" stroke-width="1.5" d="M0,-3.0v7 M-2.5,-0.5L0,-3.0L2.5,-0.5"/>
                </g>
               <g id="resetDef">
                       <use xlink:href="#rim2" fill="#404040">
                               <set attributeName="fill" to="#808080" begin="reset.mouseover" end="reset.mouseout"/>
                       </use>
               </g>
        </defs>

<script type="text/javascript">
var viewWidth = 540;
var viewHeight = 190;
var sectionId = 'dynsection-7';
</script>
<script xlink:href="svgpan.js"/>
<svg id="graph" class="graph">
<g id="viewport">
<title>fission_rate_module::file_fiss_frag</title>
<polygon fill="white" stroke="transparent" points="-4,4 -4,-186.2 536,-186.2 536,4 -4,4"/>
<!-- Node1 -->
<g id="node1" class="node">
<title>Node1</title>
<g id="a_node1"><a xlink:title="Fill the rates with the correct fragments.">
<polygon fill="#bfbfbf" stroke="black" points="0,-88.5 0,-118.5 103,-118.5 103,-88.5 0,-88.5"/>
<text text-anchor="start" x="8" y="-106.5" font-family="Helvetica,sans-Serif" font-size="10.00">fission_rate_module</text>
<text text-anchor="middle" x="51.5" y="-95.5" font-family="Helvetica,sans-Serif" font-size="10.00">::file_fiss_frag</text>
</a>
</g>
</g>
<!-- Node2 -->
<g id="node2" class="node">
<title>Node2</title>
<g id="a_node2"><a xlink:href="namespacebenam__class.html#ad2f566697809a5731e560509d2ca7062" target="_top" xlink:title="Finds an isotope index in the network table, given its A and Z. In case it was not found,...">
<polygon fill="white" stroke="black" points="283,-132 283,-151 387,-151 387,-132 283,-132"/>
<text text-anchor="middle" x="335" y="-139" font-family="Helvetica,sans-Serif" font-size="10.00">benam_class::findaz</text>
</a>
</g>
</g>
<!-- Node1&#45;&gt;Node2 -->
<g id="edge1" class="edge">
<title>Node1&#45;&gt;Node2</title>
<path fill="none" stroke="midnightblue" d="M100.16,-118.55C112.68,-122 126.25,-125.3 139,-127.5 183.36,-135.17 234.11,-138.65 272.71,-140.22"/>
<polygon fill="midnightblue" stroke="midnightblue" points="272.63,-143.72 282.75,-140.6 272.89,-136.73 272.63,-143.72"/>
</g>
<!-- Node3 -->
<g id="node3" class="node">
<title>Node3</title>
<g id="a_node3"><a xlink:href="namespacefission__rate__module.html#acb8bde13a563d9a5f99739b6cdb1682b" target="_top" xlink:title="Determines fission fragment mass distribution as described in Panov et al. 2001.">
<polygon fill="white" stroke="black" points="139,-0.5 139,-30.5 242,-30.5 242,-0.5 139,-0.5"/>
<text text-anchor="start" x="147" y="-18.5" font-family="Helvetica,sans-Serif" font-size="10.00">fission_rate_module</text>
<text text-anchor="middle" x="190.5" y="-7.5" font-family="Helvetica,sans-Serif" font-size="10.00">::fiss_dist</text>
</a>
</g>
</g>
<!-- Node1&#45;&gt;Node3 -->
<g id="edge2" class="edge">
<title>Node1&#45;&gt;Node3</title>
<path fill="none" stroke="midnightblue" d="M74.32,-88.39C91.69,-76.48 116.68,-59.6 139,-45.5 144.03,-42.33 149.38,-39.04 154.66,-35.86"/>
<polygon fill="midnightblue" stroke="midnightblue" points="156.6,-38.78 163.38,-30.65 153.01,-32.77 156.6,-38.78"/>
</g>
<!-- Node4 -->
<g id="node4" class="node">
<title>Node4</title>
<g id="a_node4"><a xlink:href="namespaceerror__msg__class.html#a7e065585cc806a5c264de1f088266498" target="_top" xlink:title="Converts a given integer to a string.">
<polygon fill="white" stroke="black" points="428,-66.5 428,-96.5 532,-96.5 532,-66.5 428,-66.5"/>
<text text-anchor="start" x="436" y="-84.5" font-family="Helvetica,sans-Serif" font-size="10.00">error_msg_class::int</text>
<text text-anchor="middle" x="480" y="-73.5" font-family="Helvetica,sans-Serif" font-size="10.00">_to_str</text>
</a>
</g>
</g>
<!-- Node1&#45;&gt;Node4 -->
<g id="edge7" class="edge">
<title>Node1&#45;&gt;Node4</title>
<path fill="none" stroke="midnightblue" d="M76.89,-118.61C93.7,-128.26 116.92,-140.13 139,-146.5 247.2,-177.71 286.95,-201.08 392,-160.5 420.85,-149.36 446.03,-123.72 461.78,-104.65"/>
<polygon fill="midnightblue" stroke="midnightblue" points="464.63,-106.69 468.13,-96.69 459.16,-102.32 464.63,-106.69"/>
</g>
<!-- Node5 -->
<g id="node5" class="node">
<title>Node5</title>
<g id="a_node5"><a xlink:href="namespaceerror__msg__class.html#a2453d3b7cb363115c046840baa1dfb75" target="_top" xlink:title="Raise a exception with a given error message.">
<polygon fill="white" stroke="black" points="278,-44.5 278,-74.5 392,-74.5 392,-44.5 278,-44.5"/>
<text text-anchor="start" x="286" y="-62.5" font-family="Helvetica,sans-Serif" font-size="10.00">error_msg_class::raise</text>
<text text-anchor="middle" x="335" y="-51.5" font-family="Helvetica,sans-Serif" font-size="10.00">_exception</text>
</a>
</g>
</g>
<!-- Node1&#45;&gt;Node5 -->
<g id="edge12" class="edge">
<title>Node1&#45;&gt;Node5</title>
<path fill="none" stroke="midnightblue" d="M98.81,-88.41C111.7,-84.68 125.8,-81.03 139,-78.5 181.29,-70.4 229.44,-65.66 267.32,-62.95"/>
<polygon fill="midnightblue" stroke="midnightblue" points="267.98,-66.41 277.71,-62.23 267.5,-59.43 267.98,-66.41"/>
</g>
<!-- Node6 -->
<g id="node6" class="node">
<title>Node6</title>
<g id="a_node6"><a xlink:href="namespacefission__rate__module.html#aa9bd5afd5fef2fd78f7a26f5a401e854" target="_top" xlink:title="Kodama&#45;Takahashi distribution.">
<polygon fill="white" stroke="black" points="139,-88.5 139,-118.5 242,-118.5 242,-88.5 139,-88.5"/>
<text text-anchor="start" x="147" y="-106.5" font-family="Helvetica,sans-Serif" font-size="10.00">fission_rate_module</text>
<text text-anchor="middle" x="190.5" y="-95.5" font-family="Helvetica,sans-Serif" font-size="10.00">::kodtakdist</text>
</a>
</g>
</g>
<!-- Node1&#45;&gt;Node6 -->
<g id="edge8" class="edge">
<title>Node1&#45;&gt;Node6</title>
<path fill="none" stroke="midnightblue" d="M103.12,-103.5C111.36,-103.5 119.97,-103.5 128.42,-103.5"/>
<polygon fill="midnightblue" stroke="midnightblue" points="128.63,-107 138.63,-103.5 128.63,-100 128.63,-107"/>
</g>
<!-- Node3&#45;&gt;Node2 -->
<g id="edge3" class="edge">
<title>Node3&#45;&gt;Node2</title>
<path fill="none" stroke="midnightblue" d="M208.69,-30.7C235.66,-54.54 287.69,-100.55 315.47,-125.11"/>
<polygon fill="midnightblue" stroke="midnightblue" points="313.44,-128 323.25,-132 318.08,-122.75 313.44,-128"/>
</g>
<!-- Node3&#45;&gt;Node4 -->
<g id="edge4" class="edge">
<title>Node3&#45;&gt;Node4</title>
<path fill="none" stroke="midnightblue" d="M242.01,-14.76C283.21,-15.46 342.49,-19.46 392,-34.5 411.64,-40.46 431.9,-51.11 447.93,-60.76"/>
<polygon fill="midnightblue" stroke="midnightblue" points="446.5,-63.99 456.84,-66.28 450.19,-58.04 446.5,-63.99"/>
</g>
<!-- Node3&#45;&gt;Node5 -->
<g id="edge5" class="edge">
<title>Node3&#45;&gt;Node5</title>
<path fill="none" stroke="midnightblue" d="M240.14,-30.52C251.48,-34.02 263.67,-37.78 275.39,-41.4"/>
<polygon fill="midnightblue" stroke="midnightblue" points="274.51,-44.79 285.09,-44.4 276.57,-38.1 274.51,-44.79"/>
</g>
<!-- Node5&#45;&gt;Node4 -->
<g id="edge6" class="edge">
<title>Node5&#45;&gt;Node4</title>
<path fill="none" stroke="midnightblue" d="M392.11,-68.13C400.54,-69.43 409.28,-70.77 417.81,-72.09"/>
<polygon fill="midnightblue" stroke="midnightblue" points="417.3,-75.55 427.71,-73.61 418.36,-68.63 417.3,-75.55"/>
</g>
<!-- Node6&#45;&gt;Node2 -->
<g id="edge9" class="edge">
<title>Node6&#45;&gt;Node2</title>
<path fill="none" stroke="midnightblue" d="M242.14,-117C257.22,-121.03 273.65,-125.41 288.39,-129.34"/>
<polygon fill="midnightblue" stroke="midnightblue" points="287.72,-132.78 298.28,-131.98 289.52,-126.02 287.72,-132.78"/>
</g>
<!-- Node6&#45;&gt;Node4 -->
<g id="edge10" class="edge">
<title>Node6&#45;&gt;Node4</title>
<path fill="none" stroke="midnightblue" d="M242.24,-99.62C291.2,-95.87 365.4,-90.19 417.66,-86.19"/>
<polygon fill="midnightblue" stroke="midnightblue" points="418.1,-89.67 427.8,-85.42 417.56,-82.69 418.1,-89.67"/>
</g>
<!-- Node6&#45;&gt;Node5 -->
<g id="edge11" class="edge">
<title>Node6&#45;&gt;Node5</title>
<path fill="none" stroke="midnightblue" d="M240.14,-88.48C251.48,-84.98 263.67,-81.22 275.39,-77.6"/>
<polygon fill="midnightblue" stroke="midnightblue" points="276.57,-80.9 285.09,-74.6 274.51,-74.21 276.57,-80.9"/>
</g>
</g>
</svg>
        <g id="navigator" transform="translate(0 0)" fill="#404254">
                <rect fill="#f2f5e9" fill-opacity="0.5" stroke="#606060" stroke-width=".5" x="0" y="0" width="60" height="60"/>
                <use id="zoomplus" xlink:href="#zoomPlus" x="17" y="9" onmousedown="handleZoom(evt,'in')"/>
                <use id="zoomminus" xlink:href="#zoomMin" x="42" y="9" onmousedown="handleZoom(evt,'out')"/>
                <use id="reset" xlink:href="#resetDef" x="30" y="36" onmousedown="handleReset()"/>
                <g id="arrowUp" xlink:href="#dirArrow" transform="translate(30 24)" onmousedown="handlePan(0,-1)">
                  <use xlink:href="#rim" fill="#404040">
                        <set attributeName="fill" to="#808080" begin="arrowUp.mouseover" end="arrowUp.mouseout"/>
                  </use>
                  <path fill="none" stroke="white" stroke-width="1.5" d="M0,-3.0v7 M-2.5,-0.5L0,-3.0L2.5,-0.5"/>
                </g>
                <g id="arrowRight" xlink:href="#dirArrow" transform="rotate(90) translate(36 -43)" onmousedown="handlePan(1,0)">
                  <use xlink:href="#rim" fill="#404040">
                        <set attributeName="fill" to="#808080" begin="arrowRight.mouseover" end="arrowRight.mouseout"/>
                  </use>
                  <path fill="none" stroke="white" stroke-width="1.5" d="M0,-3.0v7 M-2.5,-0.5L0,-3.0L2.5,-0.5"/>
                </g>
                <g id="arrowDown" xlink:href="#dirArrow" transform="rotate(180) translate(-30 -48)" onmousedown="handlePan(0,1)">
                  <use xlink:href="#rim" fill="#404040">
                        <set attributeName="fill" to="#808080" begin="arrowDown.mouseover" end="arrowDown.mouseout"/>
                  </use>
                  <path fill="none" stroke="white" stroke-width="1.5" d="M0,-3.0v7 M-2.5,-0.5L0,-3.0L2.5,-0.5"/>
                </g>
                <g id="arrowLeft" xlink:href="#dirArrow" transform="rotate(270) translate(-36 17)" onmousedown="handlePan(-1,0)">
                  <use xlink:href="#rim" fill="#404040">
                        <set attributeName="fill" to="#808080" begin="arrowLeft.mouseover" end="arrowLeft.mouseout"/>
                  </use>
                  <path fill="none" stroke="white" stroke-width="1.5" d="M0,-3.0v7 M-2.5,-0.5L0,-3.0L2.5,-0.5"/>
                </g>
        </g>
        <svg viewBox="0 0 15 15" width="100%" height="30px" preserveAspectRatio="xMaxYMin meet">
         <g id="arrow_out" transform="scale(0.3 0.3)">
          <a xlink:href="namespacefission__rate__module_a6fd5b533d68c298b67c8a59fdef90e6b_cgraph_org.svg" target="_base">
           <rect id="button" ry="5" rx="5" y="6" x="6" height="38" width="38"
                fill="#f2f5e9" fill-opacity="0.5" stroke="#606060" stroke-width="1.0"/>
           <path id="arrow"
             d="M 11.500037,31.436501 C 11.940474,20.09759 22.043105,11.32322 32.158766,21.979434 L 37.068811,17.246167 C 37.068811,17.246167 37.088388,32 37.088388,32 L 22.160133,31.978069 C 22.160133,31.978069 26.997745,27.140456 26.997745,27.140456 C 18.528582,18.264221 13.291696,25.230495 11.500037,31.436501 z"
             style="fill:#404040;"/>
          </a>
         </g>
        </svg>
</svg>
