<?xml version="1.0" encoding="UTF-8" standalone="no"?>
<!DOCTYPE svg PUBLIC "-//W3C//DTD SVG 1.1//EN"
 "http://www.w3.org/Graphics/SVG/1.1/DTD/svg11.dtd">
<!-- Generated by graphviz version 2.44.0 ()
 -->
<!-- Title: reaclib_rate_module::set_reaction_type Pages: 1 -->
<svg width="578pt" height="127pt"
 viewBox="0.00 0.00 578.00 126.50" xmlns="http://www.w3.org/2000/svg" xmlns:xlink="http://www.w3.org/1999/xlink">
<g id="graph0" class="graph" transform="scale(1 1) rotate(0) translate(4 122.5)">
<title>reaclib_rate_module::set_reaction_type</title>
<polygon fill="white" stroke="transparent" points="-4,4 -4,-122.5 574,-122.5 574,4 -4,4"/>
<!-- Node1 -->
<g id="node1" class="node">
<title>Node1</title>
<g id="a_node1"><a xlink:title="Set a flag for the reaction type.">
<polygon fill="#bfbfbf" stroke="black" points="0,-49.5 0,-79.5 104,-79.5 104,-49.5 0,-49.5"/>
<text text-anchor="start" x="8" y="-67.5" font-family="Helvetica,sans-Serif" font-size="10.00">reaclib_rate_module</text>
<text text-anchor="middle" x="52" y="-56.5" font-family="Helvetica,sans-Serif" font-size="10.00">::set_reaction_type</text>
</a>
</g>
</g>
<!-- Node2 -->
<g id="node2" class="node">
<title>Node2</title>
<g id="a_node2"><a xlink:href="namespacebenam__class.html#afd880df70f94c289b6bda0647f4494e3" target="_top" xlink:title="Getter of net_names, translating indices to a nucleus name.">
<polygon fill="white" stroke="black" points="140,-99 140,-118 280,-118 280,-99 140,-99"/>
<text text-anchor="middle" x="210" y="-106" font-family="Helvetica,sans-Serif" font-size="10.00">benam_class::get_net_name</text>
</a>
</g>
</g>
<!-- Node1&#45;&gt;Node2 -->
<g id="edge1" class="edge">
<title>Node1&#45;&gt;Node2</title>
<path fill="none" stroke="midnightblue" d="M104.04,-79.27C115.84,-82.66 128.35,-86.22 140,-89.5 147.82,-91.7 156.15,-94.02 164.22,-96.25"/>
<polygon fill="midnightblue" stroke="midnightblue" points="163.31,-99.63 173.88,-98.91 165.17,-92.88 163.31,-99.63"/>
</g>
<!-- Node3 -->
<g id="node3" class="node">
<title>Node3</title>
<g id="a_node3"><a xlink:href="namespacenucstuff__class.html#adb871d9f6d0e6ec5db0a0808201ab3db" target="_top" xlink:title="Get number of products of the reaction based on the reaclib chapter.">
<polygon fill="white" stroke="black" points="161,-49.5 161,-79.5 259,-79.5 259,-49.5 161,-49.5"/>
<text text-anchor="start" x="169" y="-67.5" font-family="Helvetica,sans-Serif" font-size="10.00">nucstuff_class::get</text>
<text text-anchor="middle" x="210" y="-56.5" font-family="Helvetica,sans-Serif" font-size="10.00">_nr_products</text>
</a>
</g>
</g>
<!-- Node1&#45;&gt;Node3 -->
<g id="edge2" class="edge">
<title>Node1&#45;&gt;Node3</title>
<path fill="none" stroke="midnightblue" d="M104.08,-64.5C118.95,-64.5 135.31,-64.5 150.6,-64.5"/>
<polygon fill="midnightblue" stroke="midnightblue" points="150.98,-68 160.98,-64.5 150.98,-61 150.98,-68"/>
</g>
<!-- Node6 -->
<g id="node6" class="node">
<title>Node6</title>
<g id="a_node6"><a xlink:href="namespacenucstuff__class.html#a5fa1f79d38fd5b01a5d6d797fea0132d" target="_top" xlink:title="Get number of reactants of the reaction based on the reaclib chapter.">
<polygon fill="white" stroke="black" points="161,-0.5 161,-30.5 259,-30.5 259,-0.5 161,-0.5"/>
<text text-anchor="start" x="169" y="-18.5" font-family="Helvetica,sans-Serif" font-size="10.00">nucstuff_class::get</text>
<text text-anchor="middle" x="210" y="-7.5" font-family="Helvetica,sans-Serif" font-size="10.00">_nr_reactants</text>
</a>
</g>
</g>
<!-- Node1&#45;&gt;Node6 -->
<g id="edge6" class="edge">
<title>Node1&#45;&gt;Node6</title>
<path fill="none" stroke="midnightblue" d="M101.08,-49.4C117.02,-44.39 134.92,-38.77 151.5,-33.56"/>
<polygon fill="midnightblue" stroke="midnightblue" points="152.59,-36.89 161.08,-30.55 150.49,-30.21 152.59,-36.89"/>
</g>
<!-- Node4 -->
<g id="node4" class="node">
<title>Node4</title>
<g id="a_node4"><a xlink:href="namespaceerror__msg__class.html#a7e065585cc806a5c264de1f088266498" target="_top" xlink:title="Converts a given integer to a string.">
<polygon fill="white" stroke="black" points="466,-25.5 466,-55.5 570,-55.5 570,-25.5 466,-25.5"/>
<text text-anchor="start" x="474" y="-43.5" font-family="Helvetica,sans-Serif" font-size="10.00">error_msg_class::int</text>
<text text-anchor="middle" x="518" y="-32.5" font-family="Helvetica,sans-Serif" font-size="10.00">_to_str</text>
</a>
</g>
</g>
<!-- Node3&#45;&gt;Node4 -->
<g id="edge3" class="edge">
<title>Node3&#45;&gt;Node4</title>
<path fill="none" stroke="midnightblue" d="M259.12,-68.68C303.67,-71.62 371.64,-73.72 430,-65.5 441.08,-63.94 452.73,-61.31 463.77,-58.33"/>
<polygon fill="midnightblue" stroke="midnightblue" points="465.04,-61.61 473.7,-55.52 463.13,-54.88 465.04,-61.61"/>
</g>
<!-- Node5 -->
<g id="node5" class="node">
<title>Node5</title>
<g id="a_node5"><a xlink:href="namespaceerror__msg__class.html#a2453d3b7cb363115c046840baa1dfb75" target="_top" xlink:title="Raise a exception with a given error message.">
<polygon fill="white" stroke="black" points="316,-25.5 316,-55.5 430,-55.5 430,-25.5 316,-25.5"/>
<text text-anchor="start" x="324" y="-43.5" font-family="Helvetica,sans-Serif" font-size="10.00">error_msg_class::raise</text>
<text text-anchor="middle" x="373" y="-32.5" font-family="Helvetica,sans-Serif" font-size="10.00">_exception</text>
</a>
</g>
</g>
<!-- Node3&#45;&gt;Node5 -->
<g id="edge4" class="edge">
<title>Node3&#45;&gt;Node5</title>
<path fill="none" stroke="midnightblue" d="M259.31,-57.3C273.89,-55.12 290.17,-52.7 305.72,-50.38"/>
<polygon fill="midnightblue" stroke="midnightblue" points="306.43,-53.81 315.8,-48.88 305.4,-46.89 306.43,-53.81"/>
</g>
<!-- Node5&#45;&gt;Node4 -->
<g id="edge5" class="edge">
<title>Node5&#45;&gt;Node4</title>
<path fill="none" stroke="midnightblue" d="M430.11,-40.5C438.45,-40.5 447.09,-40.5 455.54,-40.5"/>
<polygon fill="midnightblue" stroke="midnightblue" points="455.71,-44 465.71,-40.5 455.71,-37 455.71,-44"/>
</g>
<!-- Node6&#45;&gt;Node4 -->
<g id="edge7" class="edge">
<title>Node6&#45;&gt;Node4</title>
<path fill="none" stroke="midnightblue" d="M259.12,-11.66C303.67,-9.02 371.64,-7.28 430,-15.5 441.08,-17.06 452.73,-19.69 463.77,-22.67"/>
<polygon fill="midnightblue" stroke="midnightblue" points="463.13,-26.12 473.7,-25.48 465.04,-19.39 463.13,-26.12"/>
</g>
<!-- Node6&#45;&gt;Node5 -->
<g id="edge8" class="edge">
<title>Node6&#45;&gt;Node5</title>
<path fill="none" stroke="midnightblue" d="M259.31,-23C273.89,-25.27 290.17,-27.79 305.72,-30.21"/>
<polygon fill="midnightblue" stroke="midnightblue" points="305.38,-33.7 315.8,-31.77 306.46,-26.78 305.38,-33.7"/>
</g>
</g>
</svg>
