<?xml version="1.0" encoding="UTF-8" standalone="no"?>
<!DOCTYPE svg PUBLIC "-//W3C//DTD SVG 1.1//EN"
 "http://www.w3.org/Graphics/SVG/1.1/DTD/svg11.dtd">
<!-- Generated by graphviz version 2.44.0 ()
 -->
<!-- Title: nuclear_heating::nuclear_heating_entropy Pages: 1 -->
<!--zoomable 310 -->
<svg id="main" version="1.1" xmlns="http://www.w3.org/2000/svg" xmlns:xlink="http://www.w3.org/1999/xlink" xml:space="preserve" onload="init(evt)">
<style type="text/css"><![CDATA[
.edge:hover path { stroke: red; }
.edge:hover polygon { stroke: red; fill: red; }
]]></style>
<script type="text/javascript"><![CDATA[
var edges = document.getElementsByTagName('g');
if (edges && edges.length) {
  for (var i=0;i<edges.length;i++) {
    if (edges[i].id.substr(0,4)=='edge') {
      edges[i].setAttribute('class','edge');
    }
  }
}
]]></script>
        <defs>
                <circle id="rim" cx="0" cy="0" r="7"/>
                <circle id="rim2" cx="0" cy="0" r="3.5"/>
                <g id="zoomPlus">
                        <use xlink:href="#rim" fill="#404040">
                                <set attributeName="fill" to="#808080" begin="zoomplus.mouseover" end="zoomplus.mouseout"/>
                        </use>
                        <path d="M-4,0h8M0,-4v8" fill="none" stroke="white" stroke-width="1.5" pointer-events="none"/>
                </g>
                <g id="zoomMin">
                        <use xlink:href="#rim" fill="#404040">
                                <set attributeName="fill" to="#808080" begin="zoomminus.mouseover" end="zoomminus.mouseout"/>
                        </use>
                        <path d="M-4,0h8" fill="none" stroke="white" stroke-width="1.5" pointer-events="none"/>
                </g>
                <g id="dirArrow">
                        <path fill="none" stroke="white" stroke-width="1.5" d="M0,-3.0v7 M-2.5,-0.5L0,-3.0L2.5,-0.5"/>
                </g>
               <g id="resetDef">
                       <use xlink:href="#rim2" fill="#404040">
                               <set attributeName="fill" to="#808080" begin="reset.mouseover" end="reset.mouseout"/>
                       </use>
               </g>
        </defs>

<script type="text/javascript">
var viewWidth = 1056;
var viewHeight = 310;
var sectionId = 'dynsection-1';
</script>
<script xlink:href="svgpan.js"/>
<svg id="graph" class="graph">
<g id="viewport">
<title>nuclear_heating::nuclear_heating_entropy</title>
<polygon fill="white" stroke="transparent" points="-4,4 -4,-305.5 1052,-305.5 1052,4 -4,4"/>
<!-- Node1 -->
<g id="node1" class="node">
<title>Node1</title>
<g id="a_node1"><a xlink:title="Modifies the temperature and ent_p to account for nuclear heating.">
<polygon fill="#bfbfbf" stroke="black" points="0,-168 0,-198 121,-198 121,-168 0,-168"/>
<text text-anchor="start" x="8" y="-186" font-family="Helvetica,sans-Serif" font-size="10.00">nuclear_heating::nuclear</text>
<text text-anchor="middle" x="60.5" y="-175" font-family="Helvetica,sans-Serif" font-size="10.00">_heating_entropy</text>
</a>
</g>
</g>
<!-- Node2 -->
<g id="node2" class="node">
<title>Node2</title>
<g id="a_node2"><a xlink:href="chem__pot_8f90.html#a6e7fb350a916bae49d8520394fca6414" target="_top" xlink:title="Given a temperature temp [K], density den [g/cm**3], and a composition characterized by y_e,...">
<polygon fill="white" stroke="black" points="189.5,-222.5 189.5,-241.5 243.5,-241.5 243.5,-222.5 189.5,-222.5"/>
<text text-anchor="middle" x="216.5" y="-229.5" font-family="Helvetica,sans-Serif" font-size="10.00">chempot</text>
</a>
</g>
</g>
<!-- Node1&#45;&gt;Node2 -->
<g id="edge1" class="edge">
<title>Node1&#45;&gt;Node2</title>
<path fill="none" stroke="midnightblue" d="M108.96,-198.1C131.85,-205.38 158.84,-213.97 179.93,-220.68"/>
<polygon fill="midnightblue" stroke="midnightblue" points="178.88,-224.02 189.47,-223.72 181,-217.35 178.88,-224.02"/>
</g>
<!-- Node8 -->
<g id="node8" class="node">
<title>Node8</title>
<g id="a_node8"><a xlink:href="namespacenucstuff__class.html#a7f6b5ddec08f9564638a58091e6940d7" target="_top" xlink:title="Calculates partition function.">
<polygon fill="white" stroke="black" points="165,-168 165,-198 268,-198 268,-168 165,-168"/>
<text text-anchor="start" x="173" y="-186" font-family="Helvetica,sans-Serif" font-size="10.00">nucstuff_class::inter</text>
<text text-anchor="middle" x="216.5" y="-175" font-family="Helvetica,sans-Serif" font-size="10.00">_partf</text>
</a>
</g>
</g>
<!-- Node1&#45;&gt;Node8 -->
<g id="edge9" class="edge">
<title>Node1&#45;&gt;Node8</title>
<path fill="none" stroke="midnightblue" d="M121.04,-183C131.94,-183 143.34,-183 154.29,-183"/>
<polygon fill="midnightblue" stroke="midnightblue" points="154.63,-186.5 164.63,-183 154.63,-179.5 154.63,-186.5"/>
</g>
<!-- Node9 -->
<g id="node9" class="node">
<title>Node9</title>
<g id="a_node9"><a xlink:href="namespacels__timmes__eos__module.html#a7f522fa32c0a061060a07863c7a8b05c" target="_top" xlink:title=" ">
<polygon fill="white" stroke="black" points="157,-109 157,-139 276,-139 276,-109 157,-109"/>
<text text-anchor="start" x="165" y="-127" font-family="Helvetica,sans-Serif" font-size="10.00">ls_timmes_eos_module</text>
<text text-anchor="middle" x="216.5" y="-116" font-family="Helvetica,sans-Serif" font-size="10.00">::timmes_eos</text>
</a>
</g>
</g>
<!-- Node1&#45;&gt;Node9 -->
<g id="edge10" class="edge">
<title>Node1&#45;&gt;Node9</title>
<path fill="none" stroke="midnightblue" d="M100.76,-167.96C120.85,-160.26 145.5,-150.82 166.79,-142.66"/>
<polygon fill="midnightblue" stroke="midnightblue" points="168.23,-145.86 176.31,-139.01 165.72,-139.32 168.23,-145.86"/>
</g>
<!-- Node3 -->
<g id="node3" class="node">
<title>Node3</title>
<g id="a_node3"><a xlink:href="namespaceerror__msg__class.html#a5bc9f3b670b725cc43276934b867d801" target="_top" xlink:title="Converts a given real to a string with format &quot;(1pE10.2)&quot;.">
<polygon fill="white" stroke="black" points="315.5,-271 315.5,-301 427.5,-301 427.5,-271 315.5,-271"/>
<text text-anchor="start" x="323.5" y="-289" font-family="Helvetica,sans-Serif" font-size="10.00">error_msg_class::num</text>
<text text-anchor="middle" x="371.5" y="-278" font-family="Helvetica,sans-Serif" font-size="10.00">_to_str</text>
</a>
</g>
</g>
<!-- Node2&#45;&gt;Node3 -->
<g id="edge2" class="edge">
<title>Node2&#45;&gt;Node3</title>
<path fill="none" stroke="midnightblue" d="M243.8,-241.28C264.17,-248.47 293.03,-258.66 318.06,-267.49"/>
<polygon fill="midnightblue" stroke="midnightblue" points="317.21,-270.9 327.8,-270.93 319.54,-264.3 317.21,-270.9"/>
</g>
<!-- Node4 -->
<g id="node4" class="node">
<title>Node4</title>
<g id="a_node4"><a xlink:href="namespacefile__handling__class.html#aab870caaf9cbaaf635d537708efbf793" target="_top" xlink:title="Same for reading (input file)">
<polygon fill="white" stroke="black" points="322.5,-222 322.5,-252 420.5,-252 420.5,-222 322.5,-222"/>
<text text-anchor="start" x="330.5" y="-240" font-family="Helvetica,sans-Serif" font-size="10.00">file_handling_class</text>
<text text-anchor="middle" x="371.5" y="-229" font-family="Helvetica,sans-Serif" font-size="10.00">::open_infile</text>
</a>
</g>
</g>
<!-- Node2&#45;&gt;Node4 -->
<g id="edge3" class="edge">
<title>Node2&#45;&gt;Node4</title>
<path fill="none" stroke="midnightblue" d="M243.8,-232.86C262.56,-233.47 288.52,-234.32 312.06,-235.09"/>
<polygon fill="midnightblue" stroke="midnightblue" points="312.21,-238.6 322.32,-235.43 312.44,-231.6 312.21,-238.6"/>
</g>
<!-- Node6 -->
<g id="node6" class="node">
<title>Node6</title>
<g id="a_node6"><a xlink:href="namespaceerror__msg__class.html#a2453d3b7cb363115c046840baa1dfb75" target="_top" xlink:title="Raise a exception with a given error message.">
<polygon fill="white" stroke="black" points="622,-216 622,-246 736,-246 736,-216 622,-216"/>
<text text-anchor="start" x="630" y="-234" font-family="Helvetica,sans-Serif" font-size="10.00">error_msg_class::raise</text>
<text text-anchor="middle" x="679" y="-223" font-family="Helvetica,sans-Serif" font-size="10.00">_exception</text>
</a>
</g>
</g>
<!-- Node2&#45;&gt;Node6 -->
<g id="edge8" class="edge">
<title>Node2&#45;&gt;Node6</title>
<path fill="none" stroke="midnightblue" d="M243.76,-225.26C262.61,-220.79 288.69,-215.32 312,-213 416.45,-202.6 538.29,-213.08 611.72,-221.85"/>
<polygon fill="midnightblue" stroke="midnightblue" points="611.4,-225.34 621.75,-223.07 612.25,-218.39 611.4,-225.34"/>
</g>
<!-- Node5 -->
<g id="node5" class="node">
<title>Node5</title>
<g id="a_node5"><a xlink:href="namespacefile__handling__class.html#af02196bd5eaf70ecd5ab4cc650094d5e" target="_top" xlink:title="Finds the next unused unit number.">
<polygon fill="white" stroke="black" points="477.5,-260 477.5,-290 575.5,-290 575.5,-260 477.5,-260"/>
<text text-anchor="start" x="485.5" y="-278" font-family="Helvetica,sans-Serif" font-size="10.00">file_handling_class</text>
<text text-anchor="middle" x="526.5" y="-267" font-family="Helvetica,sans-Serif" font-size="10.00">::get_next_io_unit</text>
</a>
</g>
</g>
<!-- Node4&#45;&gt;Node5 -->
<g id="edge4" class="edge">
<title>Node4&#45;&gt;Node5</title>
<path fill="none" stroke="midnightblue" d="M420.91,-249.02C435.7,-252.7 452.13,-256.78 467.49,-260.59"/>
<polygon fill="midnightblue" stroke="midnightblue" points="466.86,-264.04 477.4,-263.05 468.54,-257.25 466.86,-264.04"/>
</g>
<!-- Node4&#45;&gt;Node6 -->
<g id="edge7" class="edge">
<title>Node4&#45;&gt;Node6</title>
<path fill="none" stroke="midnightblue" d="M420.57,-236.06C472.09,-235.04 554.21,-233.43 611.82,-232.3"/>
<polygon fill="midnightblue" stroke="midnightblue" points="611.99,-235.8 621.92,-232.1 611.85,-228.8 611.99,-235.8"/>
</g>
<!-- Node5&#45;&gt;Node6 -->
<g id="edge5" class="edge">
<title>Node5&#45;&gt;Node6</title>
<path fill="none" stroke="midnightblue" d="M575.53,-260.96C588.62,-257.13 602.97,-252.94 616.68,-248.93"/>
<polygon fill="midnightblue" stroke="midnightblue" points="617.91,-252.21 626.52,-246.05 615.94,-245.5 617.91,-252.21"/>
</g>
<!-- Node7 -->
<g id="node7" class="node">
<title>Node7</title>
<g id="a_node7"><a xlink:href="namespaceerror__msg__class.html#a7e065585cc806a5c264de1f088266498" target="_top" xlink:title="Converts a given integer to a string.">
<polygon fill="white" stroke="black" points="772,-216 772,-246 876,-246 876,-216 772,-216"/>
<text text-anchor="start" x="780" y="-234" font-family="Helvetica,sans-Serif" font-size="10.00">error_msg_class::int</text>
<text text-anchor="middle" x="824" y="-223" font-family="Helvetica,sans-Serif" font-size="10.00">_to_str</text>
</a>
</g>
</g>
<!-- Node6&#45;&gt;Node7 -->
<g id="edge6" class="edge">
<title>Node6&#45;&gt;Node7</title>
<path fill="none" stroke="midnightblue" d="M736.11,-231C744.45,-231 753.09,-231 761.54,-231"/>
<polygon fill="midnightblue" stroke="midnightblue" points="761.71,-234.5 771.71,-231 761.71,-227.5 761.71,-234.5"/>
</g>
<!-- Node10 -->
<g id="node10" class="node">
<title>Node10</title>
<g id="a_node10"><a xlink:href="namespacels__timmes__eos__module.html#ac68ea6710f5164f7f29454fa4ffa6dcb" target="_top" xlink:title=" ">
<polygon fill="white" stroke="black" points="312,-134 312,-164 431,-164 431,-134 312,-134"/>
<text text-anchor="start" x="320" y="-152" font-family="Helvetica,sans-Serif" font-size="10.00">ls_timmes_eos_module</text>
<text text-anchor="middle" x="371.5" y="-141" font-family="Helvetica,sans-Serif" font-size="10.00">::timmes_eos_e_bisec</text>
</a>
</g>
</g>
<!-- Node9&#45;&gt;Node10 -->
<g id="edge11" class="edge">
<title>Node9&#45;&gt;Node10</title>
<path fill="none" stroke="midnightblue" d="M276.22,-133.59C284.64,-134.97 293.36,-136.4 301.95,-137.8"/>
<polygon fill="midnightblue" stroke="midnightblue" points="301.51,-141.27 311.94,-139.43 302.64,-134.36 301.51,-141.27"/>
</g>
<!-- Node11 -->
<g id="node11" class="node">
<title>Node11</title>
<g id="a_node11"><a xlink:href="namespacels__timmes__eos__module.html#a6da1e3b6ba3967536745de1073565b65" target="_top" xlink:title=" ">
<polygon fill="white" stroke="black" points="467,-90 467,-120 586,-120 586,-90 467,-90"/>
<text text-anchor="start" x="475" y="-108" font-family="Helvetica,sans-Serif" font-size="10.00">ls_timmes_eos_module</text>
<text text-anchor="middle" x="526.5" y="-97" font-family="Helvetica,sans-Serif" font-size="10.00">::timmes_eos_interface</text>
</a>
</g>
</g>
<!-- Node9&#45;&gt;Node11 -->
<g id="edge24" class="edge">
<title>Node9&#45;&gt;Node11</title>
<path fill="none" stroke="midnightblue" d="M276.16,-120.38C327.56,-117.21 402.33,-112.6 456.58,-109.25"/>
<polygon fill="midnightblue" stroke="midnightblue" points="457.03,-112.73 466.8,-108.62 456.6,-105.74 457.03,-112.73"/>
</g>
<!-- Node22 -->
<g id="node22" class="node">
<title>Node22</title>
<g id="a_node22"><a xlink:href="namespacels__timmes__eos__module.html#afd98ff063885638aaa5922c04fb9d6a9" target="_top" xlink:title=" ">
<polygon fill="white" stroke="black" points="312,-46 312,-76 431,-76 431,-46 312,-46"/>
<text text-anchor="start" x="320" y="-64" font-family="Helvetica,sans-Serif" font-size="10.00">ls_timmes_eos_module</text>
<text text-anchor="middle" x="371.5" y="-53" font-family="Helvetica,sans-Serif" font-size="10.00">::timmes_eos_s_bisec</text>
</a>
</g>
</g>
<!-- Node9&#45;&gt;Node22 -->
<g id="edge25" class="edge">
<title>Node9&#45;&gt;Node22</title>
<path fill="none" stroke="midnightblue" d="M254.15,-108.91C275.27,-100.21 302,-89.2 324.52,-79.93"/>
<polygon fill="midnightblue" stroke="midnightblue" points="325.97,-83.12 333.89,-76.08 323.31,-76.65 325.97,-83.12"/>
</g>
<!-- Node10&#45;&gt;Node11 -->
<g id="edge12" class="edge">
<title>Node10&#45;&gt;Node11</title>
<path fill="none" stroke="midnightblue" d="M424.73,-133.98C437.21,-130.39 450.66,-126.52 463.54,-122.82"/>
<polygon fill="midnightblue" stroke="midnightblue" points="464.61,-126.15 473.25,-120.03 462.67,-119.43 464.61,-126.15"/>
</g>
<!-- Node12 -->
<g id="node12" class="node">
<title>Node12</title>
<g id="a_node12"><a xlink:href="eosfxt_8f.html#a7472b49a95882a089dc0b8e75b1abbfa" target="_top" xlink:title=" ">
<polygon fill="white" stroke="black" points="657.5,-95.5 657.5,-114.5 700.5,-114.5 700.5,-95.5 657.5,-95.5"/>
<text text-anchor="middle" x="679" y="-102.5" font-family="Helvetica,sans-Serif" font-size="10.00">eosfxt</text>
</a>
</g>
</g>
<!-- Node11&#45;&gt;Node12 -->
<g id="edge13" class="edge">
<title>Node11&#45;&gt;Node12</title>
<path fill="none" stroke="midnightblue" d="M586.12,-105C606.9,-105 629.46,-105 647.02,-105"/>
<polygon fill="midnightblue" stroke="midnightblue" points="647.25,-108.5 657.25,-105 647.25,-101.5 647.25,-108.5"/>
</g>
<!-- Node13 -->
<g id="node13" class="node">
<title>Node13</title>
<g id="a_node13"><a xlink:href="eosfxt_8f.html#a4dd7b4a9689e75b5ee0f56fcf260b461" target="_top" xlink:title=" ">
<polygon fill="white" stroke="black" points="797.5,-133.5 797.5,-152.5 850.5,-152.5 850.5,-133.5 797.5,-133.5"/>
<text text-anchor="middle" x="824" y="-140.5" font-family="Helvetica,sans-Serif" font-size="10.00">coulomb</text>
</a>
</g>
</g>
<!-- Node12&#45;&gt;Node13 -->
<g id="edge14" class="edge">
<title>Node12&#45;&gt;Node13</title>
<path fill="none" stroke="midnightblue" d="M700.79,-110.53C723.46,-116.55 760.13,-126.29 787.4,-133.54"/>
<polygon fill="midnightblue" stroke="midnightblue" points="786.78,-137 797.34,-136.18 788.58,-130.23 786.78,-137"/>
</g>
<!-- Node15 -->
<g id="node15" class="node">
<title>Node15</title>
<g id="a_node15"><a xlink:href="eosfxt_8f.html#a40e1707c6481e6f394d33c9de7744a80" target="_top" xlink:title=" ">
<polygon fill="white" stroke="black" points="801,-95.5 801,-114.5 847,-114.5 847,-95.5 801,-95.5"/>
<text text-anchor="middle" x="824" y="-102.5" font-family="Helvetica,sans-Serif" font-size="10.00">etages</text>
</a>
</g>
</g>
<!-- Node12&#45;&gt;Node15 -->
<g id="edge16" class="edge">
<title>Node12&#45;&gt;Node15</title>
<path fill="none" stroke="midnightblue" d="M700.79,-105C724.32,-105 762.93,-105 790.45,-105"/>
<polygon fill="midnightblue" stroke="midnightblue" points="790.77,-108.5 800.77,-105 790.77,-101.5 790.77,-108.5"/>
</g>
<!-- Node16 -->
<g id="node16" class="node">
<title>Node16</title>
<g id="a_node16"><a xlink:href="eosfxt_8f.html#ac215ef28344d8bf47b95d146f191fc74" target="_top" xlink:title=" ">
<polygon fill="white" stroke="black" points="800,-57.5 800,-76.5 848,-76.5 848,-57.5 800,-57.5"/>
<text text-anchor="middle" x="824" y="-64.5" font-family="Helvetica,sans-Serif" font-size="10.00">xneroot</text>
</a>
</g>
</g>
<!-- Node12&#45;&gt;Node16 -->
<g id="edge18" class="edge">
<title>Node12&#45;&gt;Node16</title>
<path fill="none" stroke="midnightblue" d="M700.79,-99.47C724.15,-93.27 762.37,-83.11 789.85,-75.81"/>
<polygon fill="midnightblue" stroke="midnightblue" points="791.04,-79.11 799.81,-73.16 789.24,-72.35 791.04,-79.11"/>
</g>
<!-- Node14 -->
<g id="node14" class="node">
<title>Node14</title>
<g id="a_node14"><a xlink:href="quadpack__module_8f90.html#aada5a652920db442d627f1ca24ff25d7" target="_top" xlink:title="Further information: http://netlib.org/quadpack/index.html https://orion.math.iastate....">
<polygon fill="white" stroke="black" points="919.5,-114.5 919.5,-133.5 948.5,-133.5 948.5,-114.5 919.5,-114.5"/>
<text text-anchor="middle" x="934" y="-121.5" font-family="Helvetica,sans-Serif" font-size="10.00">pi</text>
</a>
</g>
</g>
<!-- Node13&#45;&gt;Node14 -->
<g id="edge15" class="edge">
<title>Node13&#45;&gt;Node14</title>
<path fill="none" stroke="midnightblue" d="M850.59,-138.5C868.47,-135.35 892.14,-131.19 909.53,-128.13"/>
<polygon fill="midnightblue" stroke="midnightblue" points="910.19,-131.57 919.44,-126.39 908.98,-124.67 910.19,-131.57"/>
</g>
<!-- Node15&#45;&gt;Node14 -->
<g id="edge17" class="edge">
<title>Node15&#45;&gt;Node14</title>
<path fill="none" stroke="midnightblue" d="M847.12,-108.89C865.27,-112.09 890.93,-116.6 909.46,-119.86"/>
<polygon fill="midnightblue" stroke="midnightblue" points="908.99,-123.33 919.44,-121.62 910.2,-116.44 908.99,-123.33"/>
</g>
<!-- Node17 -->
<g id="node17" class="node">
<title>Node17</title>
<g id="a_node17"><a xlink:href="eosfxt_8f.html#a5b92245336ba39f5012975d91948205f" target="_top" xlink:title=" ">
<polygon fill="white" stroke="black" points="912,-57.5 912,-76.5 956,-76.5 956,-57.5 912,-57.5"/>
<text text-anchor="middle" x="934" y="-64.5" font-family="Helvetica,sans-Serif" font-size="10.00">dfermi</text>
</a>
</g>
</g>
<!-- Node16&#45;&gt;Node17 -->
<g id="edge19" class="edge">
<title>Node16&#45;&gt;Node17</title>
<path fill="none" stroke="midnightblue" d="M848.17,-67C863.77,-67 884.54,-67 901.62,-67"/>
<polygon fill="midnightblue" stroke="midnightblue" points="901.7,-70.5 911.7,-67 901.7,-63.5 901.7,-70.5"/>
</g>
<!-- Node18 -->
<g id="node18" class="node">
<title>Node18</title>
<g id="a_node18"><a xlink:href="eosfxt_8f.html#abbb1b60c825d972dc00fe1f268f93f86" target="_top" xlink:title=" ">
<polygon fill="white" stroke="black" points="992,-114.5 992,-133.5 1048,-133.5 1048,-114.5 992,-114.5"/>
<text text-anchor="middle" x="1020" y="-121.5" font-family="Helvetica,sans-Serif" font-size="10.00">dqlag020</text>
</a>
</g>
</g>
<!-- Node17&#45;&gt;Node18 -->
<g id="edge20" class="edge">
<title>Node17&#45;&gt;Node18</title>
<path fill="none" stroke="midnightblue" d="M949.25,-76.67C962.12,-85.4 981.28,-98.4 996.26,-108.57"/>
<polygon fill="midnightblue" stroke="midnightblue" points="994.72,-111.75 1004.96,-114.47 998.65,-105.96 994.72,-111.75"/>
</g>
<!-- Node19 -->
<g id="node19" class="node">
<title>Node19</title>
<g id="a_node19"><a xlink:href="eosfxt_8f.html#a6cbbc7f07cffb75f5efaf893d547852f" target="_top" xlink:title=" ">
<polygon fill="white" stroke="black" points="992,-76.5 992,-95.5 1048,-95.5 1048,-76.5 992,-76.5"/>
<text text-anchor="middle" x="1020" y="-83.5" font-family="Helvetica,sans-Serif" font-size="10.00">dqleg020</text>
</a>
</g>
</g>
<!-- Node17&#45;&gt;Node19 -->
<g id="edge21" class="edge">
<title>Node17&#45;&gt;Node19</title>
<path fill="none" stroke="midnightblue" d="M956.2,-71.79C964.04,-73.57 973.17,-75.63 982,-77.63"/>
<polygon fill="midnightblue" stroke="midnightblue" points="981.24,-81.05 991.76,-79.84 982.78,-74.22 981.24,-81.05"/>
</g>
<!-- Node20 -->
<g id="node20" class="node">
<title>Node20</title>
<g id="a_node20"><a xlink:href="eosfxt_8f.html#a9d9951640d440972fe5298fdd5d70c10" target="_top" xlink:title=" ">
<polygon fill="white" stroke="black" points="995.5,-38.5 995.5,-57.5 1044.5,-57.5 1044.5,-38.5 995.5,-38.5"/>
<text text-anchor="middle" x="1020" y="-45.5" font-family="Helvetica,sans-Serif" font-size="10.00">fdfunc1</text>
</a>
</g>
</g>
<!-- Node17&#45;&gt;Node20 -->
<g id="edge22" class="edge">
<title>Node17&#45;&gt;Node20</title>
<path fill="none" stroke="midnightblue" d="M956.2,-62.21C965.07,-60.2 975.6,-57.82 985.48,-55.58"/>
<polygon fill="midnightblue" stroke="midnightblue" points="986.46,-58.95 995.44,-53.33 984.91,-52.12 986.46,-58.95"/>
</g>
<!-- Node21 -->
<g id="node21" class="node">
<title>Node21</title>
<g id="a_node21"><a xlink:href="eosfxt_8f.html#ae834089002139b7a18c24a337f6ff90a" target="_top" xlink:title=" ">
<polygon fill="white" stroke="black" points="995.5,-0.5 995.5,-19.5 1044.5,-19.5 1044.5,-0.5 995.5,-0.5"/>
<text text-anchor="middle" x="1020" y="-7.5" font-family="Helvetica,sans-Serif" font-size="10.00">fdfunc2</text>
</a>
</g>
</g>
<!-- Node17&#45;&gt;Node21 -->
<g id="edge23" class="edge">
<title>Node17&#45;&gt;Node21</title>
<path fill="none" stroke="midnightblue" d="M949.25,-57.33C962.12,-48.6 981.28,-35.6 996.26,-25.43"/>
<polygon fill="midnightblue" stroke="midnightblue" points="998.65,-28.04 1004.96,-19.53 994.72,-22.25 998.65,-28.04"/>
</g>
<!-- Node22&#45;&gt;Node11 -->
<g id="edge26" class="edge">
<title>Node22&#45;&gt;Node11</title>
<path fill="none" stroke="midnightblue" d="M424.73,-76.02C437.21,-79.61 450.66,-83.48 463.54,-87.18"/>
<polygon fill="midnightblue" stroke="midnightblue" points="462.67,-90.57 473.25,-89.97 464.61,-83.85 462.67,-90.57"/>
</g>
</g>
</svg>
        <g id="navigator" transform="translate(0 0)" fill="#404254">
                <rect fill="#f2f5e9" fill-opacity="0.5" stroke="#606060" stroke-width=".5" x="0" y="0" width="60" height="60"/>
                <use id="zoomplus" xlink:href="#zoomPlus" x="17" y="9" onmousedown="handleZoom(evt,'in')"/>
                <use id="zoomminus" xlink:href="#zoomMin" x="42" y="9" onmousedown="handleZoom(evt,'out')"/>
                <use id="reset" xlink:href="#resetDef" x="30" y="36" onmousedown="handleReset()"/>
                <g id="arrowUp" xlink:href="#dirArrow" transform="translate(30 24)" onmousedown="handlePan(0,-1)">
                  <use xlink:href="#rim" fill="#404040">
                        <set attributeName="fill" to="#808080" begin="arrowUp.mouseover" end="arrowUp.mouseout"/>
                  </use>
                  <path fill="none" stroke="white" stroke-width="1.5" d="M0,-3.0v7 M-2.5,-0.5L0,-3.0L2.5,-0.5"/>
                </g>
                <g id="arrowRight" xlink:href="#dirArrow" transform="rotate(90) translate(36 -43)" onmousedown="handlePan(1,0)">
                  <use xlink:href="#rim" fill="#404040">
                        <set attributeName="fill" to="#808080" begin="arrowRight.mouseover" end="arrowRight.mouseout"/>
                  </use>
                  <path fill="none" stroke="white" stroke-width="1.5" d="M0,-3.0v7 M-2.5,-0.5L0,-3.0L2.5,-0.5"/>
                </g>
                <g id="arrowDown" xlink:href="#dirArrow" transform="rotate(180) translate(-30 -48)" onmousedown="handlePan(0,1)">
                  <use xlink:href="#rim" fill="#404040">
                        <set attributeName="fill" to="#808080" begin="arrowDown.mouseover" end="arrowDown.mouseout"/>
                  </use>
                  <path fill="none" stroke="white" stroke-width="1.5" d="M0,-3.0v7 M-2.5,-0.5L0,-3.0L2.5,-0.5"/>
                </g>
                <g id="arrowLeft" xlink:href="#dirArrow" transform="rotate(270) translate(-36 17)" onmousedown="handlePan(-1,0)">
                  <use xlink:href="#rim" fill="#404040">
                        <set attributeName="fill" to="#808080" begin="arrowLeft.mouseover" end="arrowLeft.mouseout"/>
                  </use>
                  <path fill="none" stroke="white" stroke-width="1.5" d="M0,-3.0v7 M-2.5,-0.5L0,-3.0L2.5,-0.5"/>
                </g>
        </g>
        <svg viewBox="0 0 15 15" width="100%" height="30px" preserveAspectRatio="xMaxYMin meet">
         <g id="arrow_out" transform="scale(0.3 0.3)">
          <a xlink:href="namespacenuclear__heating_a49033cfa463654768cc70d8ce9029fa1_cgraph_org.svg" target="_base">
           <rect id="button" ry="5" rx="5" y="6" x="6" height="38" width="38"
                fill="#f2f5e9" fill-opacity="0.5" stroke="#606060" stroke-width="1.0"/>
           <path id="arrow"
             d="M 11.500037,31.436501 C 11.940474,20.09759 22.043105,11.32322 32.158766,21.979434 L 37.068811,17.246167 C 37.068811,17.246167 37.088388,32 37.088388,32 L 22.160133,31.978069 C 22.160133,31.978069 26.997745,27.140456 26.997745,27.140456 C 18.528582,18.264221 13.291696,25.230495 11.500037,31.436501 z"
             style="fill:#404040;"/>
          </a>
         </g>
        </svg>
</svg>
