<?xml version="1.0" encoding="UTF-8" standalone="no"?>
<!DOCTYPE svg PUBLIC "-//W3C//DTD SVG 1.1//EN"
 "http://www.w3.org/Graphics/SVG/1.1/DTD/svg11.dtd">
<!-- Generated by graphviz version 2.44.0 ()
 -->
<!-- Title: nuflux_class::init_nuflux Pages: 1 -->
<!--zoomable 449 -->
<svg id="main" version="1.1" xmlns="http://www.w3.org/2000/svg" xmlns:xlink="http://www.w3.org/1999/xlink" xml:space="preserve" onload="init(evt)">
<style type="text/css"><![CDATA[
.edge:hover path { stroke: red; }
.edge:hover polygon { stroke: red; fill: red; }
]]></style>
<script type="text/javascript"><![CDATA[
var edges = document.getElementsByTagName('g');
if (edges && edges.length) {
  for (var i=0;i<edges.length;i++) {
    if (edges[i].id.substr(0,4)=='edge') {
      edges[i].setAttribute('class','edge');
    }
  }
}
]]></script>
        <defs>
                <circle id="rim" cx="0" cy="0" r="7"/>
                <circle id="rim2" cx="0" cy="0" r="3.5"/>
                <g id="zoomPlus">
                        <use xlink:href="#rim" fill="#404040">
                                <set attributeName="fill" to="#808080" begin="zoomplus.mouseover" end="zoomplus.mouseout"/>
                        </use>
                        <path d="M-4,0h8M0,-4v8" fill="none" stroke="white" stroke-width="1.5" pointer-events="none"/>
                </g>
                <g id="zoomMin">
                        <use xlink:href="#rim" fill="#404040">
                                <set attributeName="fill" to="#808080" begin="zoomminus.mouseover" end="zoomminus.mouseout"/>
                        </use>
                        <path d="M-4,0h8" fill="none" stroke="white" stroke-width="1.5" pointer-events="none"/>
                </g>
                <g id="dirArrow">
                        <path fill="none" stroke="white" stroke-width="1.5" d="M0,-3.0v7 M-2.5,-0.5L0,-3.0L2.5,-0.5"/>
                </g>
               <g id="resetDef">
                       <use xlink:href="#rim2" fill="#404040">
                               <set attributeName="fill" to="#808080" begin="reset.mouseover" end="reset.mouseout"/>
                       </use>
               </g>
        </defs>

<script type="text/javascript">
var viewWidth = 1026;
var viewHeight = 449;
var sectionId = 'dynsection-0';
</script>
<script xlink:href="svgpan.js"/>
<svg id="graph" class="graph">
<g id="viewport">
<title>nuflux_class::init_nuflux</title>
<polygon fill="white" stroke="transparent" points="-4,4 -4,-444.91 1022,-444.91 1022,4 -4,4"/>
<!-- Node1 -->
<g id="node1" class="node">
<title>Node1</title>
<g id="a_node1"><a xlink:title="Initialize nuflux module.">
<polygon fill="#bfbfbf" stroke="black" points="0,-244.82 0,-274.82 87,-274.82 87,-244.82 0,-244.82"/>
<text text-anchor="start" x="8" y="-262.82" font-family="Helvetica,sans-Serif" font-size="10.00">nuflux_class::init</text>
<text text-anchor="middle" x="43.5" y="-251.82" font-family="Helvetica,sans-Serif" font-size="10.00">_nuflux</text>
</a>
</g>
</g>
<!-- Node2 -->
<g id="node2" class="node">
<title>Node2</title>
<g id="a_node2"><a xlink:href="namespacefile__handling__class.html#aeddf55e8478d6220dc04310665427c3a" target="_top" xlink:title="Shorthand for opening a new file for writing (output file)">
<polygon fill="white" stroke="black" points="439,-317.82 439,-347.82 537,-347.82 537,-317.82 439,-317.82"/>
<text text-anchor="start" x="447" y="-335.82" font-family="Helvetica,sans-Serif" font-size="10.00">file_handling_class</text>
<text text-anchor="middle" x="488" y="-324.82" font-family="Helvetica,sans-Serif" font-size="10.00">::open_outfile</text>
</a>
</g>
</g>
<!-- Node1&#45;&gt;Node2 -->
<g id="edge1" class="edge">
<title>Node1&#45;&gt;Node2</title>
<path fill="none" stroke="midnightblue" d="M56.83,-274.82C86.23,-309.28 164.6,-393.45 252,-423.82 312.03,-444.68 336.22,-447.98 395,-423.82 428.02,-410.25 455.49,-378.46 471.59,-356.3"/>
<polygon fill="midnightblue" stroke="midnightblue" points="474.5,-358.25 477.38,-348.05 468.77,-354.22 474.5,-358.25"/>
</g>
<!-- Node6 -->
<g id="node6" class="node">
<title>Node6</title>
<g id="a_node6"><a xlink:href="namespacenuflux__class.html#aecce62a44d76c3407077af69277eaf86" target="_top" xlink:title="Read neutrino reactions and fill the global_class::nurate array.">
<polygon fill="white" stroke="black" points="123,-244.82 123,-274.82 216,-274.82 216,-244.82 123,-244.82"/>
<text text-anchor="start" x="131" y="-262.82" font-family="Helvetica,sans-Serif" font-size="10.00">nuflux_class::read</text>
<text text-anchor="middle" x="169.5" y="-251.82" font-family="Helvetica,sans-Serif" font-size="10.00">_neutrino_rates</text>
</a>
</g>
</g>
<!-- Node1&#45;&gt;Node6 -->
<g id="edge6" class="edge">
<title>Node1&#45;&gt;Node6</title>
<path fill="none" stroke="midnightblue" d="M87.17,-259.82C95.34,-259.82 104.01,-259.82 112.52,-259.82"/>
<polygon fill="midnightblue" stroke="midnightblue" points="112.78,-263.32 122.78,-259.82 112.78,-256.32 112.78,-263.32"/>
</g>
<!-- Node20 -->
<g id="node20" class="node">
<title>Node20</title>
<g id="a_node20"><a xlink:href="namespacenuflux__class.html#ab1da7d099980f713b1537e3ba6f0e671" target="_top" xlink:title="Write the amount of individual reactions to the out.">
<polygon fill="white" stroke="black" points="274,-26.82 274,-56.82 373,-56.82 373,-26.82 274,-26.82"/>
<text text-anchor="start" x="282" y="-44.82" font-family="Helvetica,sans-Serif" font-size="10.00">nuflux_class::write</text>
<text text-anchor="middle" x="323.5" y="-33.82" font-family="Helvetica,sans-Serif" font-size="10.00">_reac_verbose_out</text>
</a>
</g>
</g>
<!-- Node1&#45;&gt;Node20 -->
<g id="edge27" class="edge">
<title>Node1&#45;&gt;Node20</title>
<path fill="none" stroke="midnightblue" d="M59.72,-244.71C92.85,-212.3 174.71,-134.67 252,-80.82 261.76,-74.01 272.82,-67.43 283.24,-61.66"/>
<polygon fill="midnightblue" stroke="midnightblue" points="285.05,-64.66 292.18,-56.82 281.72,-58.5 285.05,-64.66"/>
</g>
<!-- Node3 -->
<g id="node3" class="node">
<title>Node3</title>
<g id="a_node3"><a xlink:href="namespacefile__handling__class.html#af02196bd5eaf70ecd5ab4cc650094d5e" target="_top" xlink:title="Finds the next unused unit number.">
<polygon fill="white" stroke="black" points="605.5,-269.82 605.5,-299.82 703.5,-299.82 703.5,-269.82 605.5,-269.82"/>
<text text-anchor="start" x="613.5" y="-287.82" font-family="Helvetica,sans-Serif" font-size="10.00">file_handling_class</text>
<text text-anchor="middle" x="654.5" y="-276.82" font-family="Helvetica,sans-Serif" font-size="10.00">::get_next_io_unit</text>
</a>
</g>
</g>
<!-- Node2&#45;&gt;Node3 -->
<g id="edge2" class="edge">
<title>Node2&#45;&gt;Node3</title>
<path fill="none" stroke="midnightblue" d="M537.02,-318.8C555.35,-313.46 576.45,-307.3 595.6,-301.71"/>
<polygon fill="midnightblue" stroke="midnightblue" points="596.8,-305.01 605.42,-298.85 594.84,-298.29 596.8,-305.01"/>
</g>
<!-- Node4 -->
<g id="node4" class="node">
<title>Node4</title>
<g id="a_node4"><a xlink:href="namespaceerror__msg__class.html#a2453d3b7cb363115c046840baa1dfb75" target="_top" xlink:title="Raise a exception with a given error message.">
<polygon fill="white" stroke="black" points="764,-225.82 764,-255.82 878,-255.82 878,-225.82 764,-225.82"/>
<text text-anchor="start" x="772" y="-243.82" font-family="Helvetica,sans-Serif" font-size="10.00">error_msg_class::raise</text>
<text text-anchor="middle" x="821" y="-232.82" font-family="Helvetica,sans-Serif" font-size="10.00">_exception</text>
</a>
</g>
</g>
<!-- Node2&#45;&gt;Node4 -->
<g id="edge5" class="edge">
<title>Node2&#45;&gt;Node4</title>
<path fill="none" stroke="midnightblue" d="M537.43,-335.34C586.98,-336.25 665.36,-332.99 728,-308.82 754.51,-298.59 780.13,-278.55 797.57,-262.86"/>
<polygon fill="midnightblue" stroke="midnightblue" points="800.01,-265.37 804.98,-256.01 795.26,-260.23 800.01,-265.37"/>
</g>
<!-- Node3&#45;&gt;Node4 -->
<g id="edge3" class="edge">
<title>Node3&#45;&gt;Node4</title>
<path fill="none" stroke="midnightblue" d="M703.52,-271.97C719.3,-267.75 737.12,-262.99 753.99,-258.47"/>
<polygon fill="midnightblue" stroke="midnightblue" points="755.03,-261.82 763.79,-255.85 753.23,-255.06 755.03,-261.82"/>
</g>
<!-- Node5 -->
<g id="node5" class="node">
<title>Node5</title>
<g id="a_node5"><a xlink:href="namespaceerror__msg__class.html#a7e065585cc806a5c264de1f088266498" target="_top" xlink:title="Converts a given integer to a string.">
<polygon fill="white" stroke="black" points="914,-146.82 914,-176.82 1018,-176.82 1018,-146.82 914,-146.82"/>
<text text-anchor="start" x="922" y="-164.82" font-family="Helvetica,sans-Serif" font-size="10.00">error_msg_class::int</text>
<text text-anchor="middle" x="966" y="-153.82" font-family="Helvetica,sans-Serif" font-size="10.00">_to_str</text>
</a>
</g>
</g>
<!-- Node4&#45;&gt;Node5 -->
<g id="edge4" class="edge">
<title>Node4&#45;&gt;Node5</title>
<path fill="none" stroke="midnightblue" d="M849.23,-225.77C871.65,-213.39 903.64,-195.71 928.32,-182.08"/>
<polygon fill="midnightblue" stroke="midnightblue" points="930.32,-184.97 937.38,-177.08 926.93,-178.85 930.32,-184.97"/>
</g>
<!-- Node7 -->
<g id="node7" class="node">
<title>Node7</title>
<g id="a_node7"><a xlink:href="namespacebenam__class.html#af8144ea43fb40187e32fb83da48458f1" target="_top" xlink:title="Returns the 1/n! factor where n is the number of equal isotopes entering a reaction....">
<polygon fill="white" stroke="black" points="253,-90.32 253,-109.32 394,-109.32 394,-90.32 253,-90.32"/>
<text text-anchor="middle" x="323.5" y="-97.32" font-family="Helvetica,sans-Serif" font-size="10.00">benam_class::getcoefficients</text>
</a>
</g>
</g>
<!-- Node6&#45;&gt;Node7 -->
<g id="edge7" class="edge">
<title>Node6&#45;&gt;Node7</title>
<path fill="none" stroke="midnightblue" d="M175.02,-244.44C184.38,-215.32 208.72,-152.06 252,-118.82 254.36,-117.01 256.87,-115.37 259.5,-113.89"/>
<polygon fill="midnightblue" stroke="midnightblue" points="261.28,-116.91 268.78,-109.43 258.25,-110.6 261.28,-116.91"/>
</g>
<!-- Node8 -->
<g id="node8" class="node">
<title>Node8</title>
<g id="a_node8"><a xlink:href="namespacemergesort__module.html#afdba6e49a853cbc2b93f08758ab87cf6" target="_top" xlink:title="Merges two tables of neutrino rates (of type global_class::nurate_type).">
<polygon fill="white" stroke="black" points="581,-191.32 581,-210.32 728,-210.32 728,-191.32 581,-191.32"/>
<text text-anchor="middle" x="654.5" y="-198.32" font-family="Helvetica,sans-Serif" font-size="10.00">mergesort_module::nurate_ms</text>
</a>
</g>
</g>
<!-- Node6&#45;&gt;Node8 -->
<g id="edge8" class="edge">
<title>Node6&#45;&gt;Node8</title>
<path fill="none" stroke="midnightblue" d="M189.25,-244.66C204.96,-232.95 228.54,-217.64 252,-210.82 358.69,-179.78 488.13,-183.51 570.65,-190.75"/>
<polygon fill="midnightblue" stroke="midnightblue" points="570.45,-194.24 580.73,-191.67 571.09,-187.27 570.45,-194.24"/>
</g>
<!-- Node9 -->
<g id="node9" class="node">
<title>Node9</title>
<g id="a_node9"><a xlink:href="namespacefile__handling__class.html#aab870caaf9cbaaf635d537708efbf793" target="_top" xlink:title="Same for reading (input file)">
<polygon fill="white" stroke="black" points="439,-268.82 439,-298.82 537,-298.82 537,-268.82 439,-268.82"/>
<text text-anchor="start" x="447" y="-286.82" font-family="Helvetica,sans-Serif" font-size="10.00">file_handling_class</text>
<text text-anchor="middle" x="488" y="-275.82" font-family="Helvetica,sans-Serif" font-size="10.00">::open_infile</text>
</a>
</g>
</g>
<!-- Node6&#45;&gt;Node9 -->
<g id="edge10" class="edge">
<title>Node6&#45;&gt;Node9</title>
<path fill="none" stroke="midnightblue" d="M188.89,-274.9C204.58,-286.72 228.3,-302.24 252,-308.82 311.42,-325.31 382.08,-313.81 430.29,-301.51"/>
<polygon fill="midnightblue" stroke="midnightblue" points="431.46,-304.83 440.23,-298.89 429.67,-298.06 431.46,-304.83"/>
</g>
<!-- Node10 -->
<g id="node10" class="node">
<title>Node10</title>
<g id="a_node10"><a xlink:href="namespacenuflux__class.html#a0e6d31694c86416d2766c5decc2422e1" target="_top" xlink:title="Read the channels from a file in the format of Sieverding et al 2018.">
<polygon fill="white" stroke="black" points="277,-269.82 277,-299.82 370,-299.82 370,-269.82 277,-269.82"/>
<text text-anchor="start" x="285" y="-287.82" font-family="Helvetica,sans-Serif" font-size="10.00">nuflux_class::read</text>
<text text-anchor="middle" x="323.5" y="-276.82" font-family="Helvetica,sans-Serif" font-size="10.00">_channels</text>
</a>
</g>
</g>
<!-- Node6&#45;&gt;Node10 -->
<g id="edge13" class="edge">
<title>Node6&#45;&gt;Node10</title>
<path fill="none" stroke="midnightblue" d="M216.11,-267.32C232.04,-269.94 250.1,-272.91 266.76,-275.65"/>
<polygon fill="midnightblue" stroke="midnightblue" points="266.49,-279.15 276.93,-277.32 267.63,-272.25 266.49,-279.15"/>
</g>
<!-- Node11 -->
<g id="node11" class="node">
<title>Node11</title>
<g id="a_node11"><a xlink:href="namespacenuflux__class.html#ae7a5cf7e2f89eb84f4dbc8b999bb21a6" target="_top" xlink:title="Read the reactions from a file in the format of Sieverding et al 2018.">
<polygon fill="white" stroke="black" points="268,-220.82 268,-250.82 379,-250.82 379,-220.82 268,-220.82"/>
<text text-anchor="start" x="276" y="-238.82" font-family="Helvetica,sans-Serif" font-size="10.00">nuflux_class::read</text>
<text text-anchor="middle" x="323.5" y="-227.82" font-family="Helvetica,sans-Serif" font-size="10.00">_reactions_sieverding</text>
</a>
</g>
</g>
<!-- Node6&#45;&gt;Node11 -->
<g id="edge15" class="edge">
<title>Node6&#45;&gt;Node11</title>
<path fill="none" stroke="midnightblue" d="M216.11,-252.62C229.19,-250.55 243.72,-248.26 257.73,-246.04"/>
<polygon fill="midnightblue" stroke="midnightblue" points="258.48,-249.47 267.81,-244.45 257.39,-242.56 258.48,-249.47"/>
</g>
<!-- Node13 -->
<g id="node13" class="node">
<title>Node13</title>
<g id="a_node13"><a xlink:href="namespacenuflux__class.html#a36ed0c2924e75dea4015e928ee424303" target="_top" xlink:title="Reads neutrino&#45;nuclei reaction file.">
<polygon fill="white" stroke="black" points="266.5,-128.32 266.5,-147.32 380.5,-147.32 380.5,-128.32 266.5,-128.32"/>
<text text-anchor="middle" x="323.5" y="-135.32" font-family="Helvetica,sans-Serif" font-size="10.00">nuflux_class::readnucs</text>
</a>
</g>
</g>
<!-- Node6&#45;&gt;Node13 -->
<g id="edge18" class="edge">
<title>Node6&#45;&gt;Node13</title>
<path fill="none" stroke="midnightblue" d="M183.27,-244.67C198.48,-227.2 225.2,-198.29 252,-177.82 264.78,-168.06 280.2,-159.04 293.35,-152.05"/>
<polygon fill="midnightblue" stroke="midnightblue" points="295.19,-155.04 302.46,-147.33 291.97,-148.82 295.19,-155.04"/>
</g>
<!-- Node18 -->
<g id="node18" class="node">
<title>Node18</title>
<g id="a_node18"><a xlink:href="namespacemergesort__module.html#a350624bb77af754147cd68332b16b9e5" target="_top" xlink:title="Sorts chapter one of the rate array.">
<polygon fill="white" stroke="black" points="252,-395.32 252,-414.32 395,-414.32 395,-395.32 252,-395.32"/>
<text text-anchor="middle" x="323.5" y="-402.32" font-family="Helvetica,sans-Serif" font-size="10.00">mergesort_module::rrate_sort</text>
</a>
</g>
</g>
<!-- Node6&#45;&gt;Node18 -->
<g id="edge25" class="edge">
<title>Node6&#45;&gt;Node18</title>
<path fill="none" stroke="midnightblue" d="M176.15,-275.23C186.75,-301.96 212.21,-356.81 252,-385.82 254.66,-387.76 257.51,-389.5 260.48,-391.07"/>
<polygon fill="midnightblue" stroke="midnightblue" points="259.14,-394.3 269.69,-395.25 262.03,-387.93 259.14,-394.3"/>
</g>
<!-- Node19 -->
<g id="node19" class="node">
<title>Node19</title>
<g id="a_node19"><a xlink:href="namespacenuflux__class.html#a7913cb5d1c5cdb8217a26ed63f2d9166" target="_top" xlink:title="Set the type of a neutrino reaction.">
<polygon fill="white" stroke="black" points="262.5,-357.32 262.5,-376.32 384.5,-376.32 384.5,-357.32 262.5,-357.32"/>
<text text-anchor="middle" x="323.5" y="-364.32" font-family="Helvetica,sans-Serif" font-size="10.00">nuflux_class::set_nutype</text>
</a>
</g>
</g>
<!-- Node6&#45;&gt;Node19 -->
<g id="edge26" class="edge">
<title>Node6&#45;&gt;Node19</title>
<path fill="none" stroke="midnightblue" d="M181.82,-275.11C196.22,-293.58 222.77,-324.43 252,-342.82 258.85,-347.12 266.56,-350.76 274.3,-353.79"/>
<polygon fill="midnightblue" stroke="midnightblue" points="273.11,-357.08 283.71,-357.2 275.5,-350.5 273.11,-357.08"/>
</g>
<!-- Node8&#45;&gt;Node4 -->
<g id="edge9" class="edge">
<title>Node8&#45;&gt;Node4</title>
<path fill="none" stroke="midnightblue" d="M694.9,-210.4C712.55,-214.69 733.84,-219.87 753.82,-224.73"/>
<polygon fill="midnightblue" stroke="midnightblue" points="753.27,-228.19 763.81,-227.15 754.92,-221.39 753.27,-228.19"/>
</g>
<!-- Node9&#45;&gt;Node3 -->
<g id="edge11" class="edge">
<title>Node9&#45;&gt;Node3</title>
<path fill="none" stroke="midnightblue" d="M537.02,-284.11C555.27,-284.22 576.25,-284.35 595.34,-284.46"/>
<polygon fill="midnightblue" stroke="midnightblue" points="595.4,-287.96 605.42,-284.53 595.44,-280.96 595.4,-287.96"/>
</g>
<!-- Node9&#45;&gt;Node4 -->
<g id="edge12" class="edge">
<title>Node9&#45;&gt;Node4</title>
<path fill="none" stroke="midnightblue" d="M537.36,-269.5C551.33,-265.83 566.68,-262.24 581,-259.82 638.86,-250.05 705.47,-245.28 753.65,-242.96"/>
<polygon fill="midnightblue" stroke="midnightblue" points="753.81,-246.46 763.64,-242.5 753.49,-239.47 753.81,-246.46"/>
</g>
<!-- Node10&#45;&gt;Node9 -->
<g id="edge14" class="edge">
<title>Node10&#45;&gt;Node9</title>
<path fill="none" stroke="midnightblue" d="M370.2,-284.54C388.34,-284.42 409.43,-284.29 428.65,-284.18"/>
<polygon fill="midnightblue" stroke="midnightblue" points="428.83,-287.68 438.81,-284.11 428.79,-280.68 428.83,-287.68"/>
</g>
<!-- Node11&#45;&gt;Node9 -->
<g id="edge17" class="edge">
<title>Node11&#45;&gt;Node9</title>
<path fill="none" stroke="midnightblue" d="M375.47,-250.87C392.43,-255.88 411.45,-261.5 428.91,-266.66"/>
<polygon fill="midnightblue" stroke="midnightblue" points="428.4,-270.16 438.98,-269.63 430.38,-263.44 428.4,-270.16"/>
</g>
<!-- Node12 -->
<g id="node12" class="node">
<title>Node12</title>
<g id="a_node12"><a xlink:href="namespacebenam__class.html#ad2f566697809a5731e560509d2ca7062" target="_top" xlink:title="Finds an isotope index in the network table, given its A and Z. In case it was not found,...">
<polygon fill="white" stroke="black" points="436,-228.32 436,-247.32 540,-247.32 540,-228.32 436,-228.32"/>
<text text-anchor="middle" x="488" y="-235.32" font-family="Helvetica,sans-Serif" font-size="10.00">benam_class::findaz</text>
</a>
</g>
</g>
<!-- Node11&#45;&gt;Node12 -->
<g id="edge16" class="edge">
<title>Node11&#45;&gt;Node12</title>
<path fill="none" stroke="midnightblue" d="M379.06,-236.49C393.97,-236.67 410.23,-236.87 425.49,-237.06"/>
<polygon fill="midnightblue" stroke="midnightblue" points="425.83,-240.56 435.88,-237.19 425.92,-233.57 425.83,-240.56"/>
</g>
<!-- Node13&#45;&gt;Node5 -->
<g id="edge21" class="edge">
<title>Node13&#45;&gt;Node5</title>
<path fill="none" stroke="midnightblue" d="M380.6,-140.57C396.85,-141.34 414.63,-142.14 431,-142.82 602.21,-149.88 804.36,-156.64 903.67,-159.86"/>
<polygon fill="midnightblue" stroke="midnightblue" points="903.71,-163.36 913.82,-160.19 903.93,-156.37 903.71,-163.36"/>
</g>
<!-- Node14 -->
<g id="node14" class="node">
<title>Node14</title>
<g id="a_node14"><a xlink:href="namespacebenam__class.html#ad20c821347dd5f7c08dff59c98e69657" target="_top" xlink:title="Returns the index number of isotope &#39;name&#39;.">
<polygon fill="white" stroke="black" points="434,-114.32 434,-133.32 542,-133.32 542,-114.32 434,-114.32"/>
<text text-anchor="middle" x="488" y="-121.32" font-family="Helvetica,sans-Serif" font-size="10.00">benam_class::benam</text>
</a>
</g>
</g>
<!-- Node13&#45;&gt;Node14 -->
<g id="edge19" class="edge">
<title>Node13&#45;&gt;Node14</title>
<path fill="none" stroke="midnightblue" d="M380.88,-132.96C394.75,-131.77 409.68,-130.48 423.85,-129.26"/>
<polygon fill="midnightblue" stroke="midnightblue" points="424.34,-132.73 434,-128.38 423.74,-125.75 424.34,-132.73"/>
</g>
<!-- Node15 -->
<g id="node15" class="node">
<title>Node15</title>
<g id="a_node15"><a xlink:href="namespacebenam__class.html#aef0b2a649260779b20729f29b8ec4a67" target="_top" xlink:title="Identifies the nuclide names and indices corresponding to z,n combinations (z1,n1),...">
<polygon fill="white" stroke="black" points="438,-76.32 438,-95.32 538,-95.32 538,-76.32 438,-76.32"/>
<text text-anchor="middle" x="488" y="-83.32" font-family="Helvetica,sans-Serif" font-size="10.00">benam_class::ident</text>
</a>
</g>
</g>
<!-- Node13&#45;&gt;Node15 -->
<g id="edge20" class="edge">
<title>Node13&#45;&gt;Node15</title>
<path fill="none" stroke="midnightblue" d="M362.77,-128.31C373.29,-125.48 384.64,-122.22 395,-118.82 411.31,-113.46 414.87,-110.69 431,-104.82 436.62,-102.77 442.59,-100.67 448.45,-98.65"/>
<polygon fill="midnightblue" stroke="midnightblue" points="449.81,-101.88 458.14,-95.34 447.54,-95.26 449.81,-101.88"/>
</g>
<!-- Node16 -->
<g id="node16" class="node">
<title>Node16</title>
<g id="a_node16"><a xlink:href="namespaceerror__msg__class.html#a339dd5b38c125b6a04653762c94a91f2" target="_top" xlink:title="Write data to the standard output (usually OUT)">
<polygon fill="white" stroke="black" points="431,-26.82 431,-56.82 545,-56.82 545,-26.82 431,-26.82"/>
<text text-anchor="start" x="439" y="-44.82" font-family="Helvetica,sans-Serif" font-size="10.00">error_msg_class::write</text>
<text text-anchor="middle" x="488" y="-33.82" font-family="Helvetica,sans-Serif" font-size="10.00">_data_to_std_out</text>
</a>
</g>
</g>
<!-- Node13&#45;&gt;Node16 -->
<g id="edge22" class="edge">
<title>Node13&#45;&gt;Node16</title>
<path fill="none" stroke="midnightblue" d="M376.83,-128.23C383.27,-125.77 389.51,-122.69 395,-118.82 417.97,-102.62 409.37,-84.77 431,-66.82 432.97,-65.18 435.07,-63.63 437.25,-62.17"/>
<polygon fill="midnightblue" stroke="midnightblue" points="439.2,-65.08 445.98,-56.94 435.6,-59.07 439.2,-65.08"/>
</g>
<!-- Node17 -->
<g id="node17" class="node">
<title>Node17</title>
<g id="a_node17"><a xlink:href="namespaceerror__msg__class.html#af62b9a0c5997255e792b9ebd7322a6a3" target="_top" xlink:title="Write the header of the standard output (usually OUT)">
<polygon fill="white" stroke="black" points="597.5,-26.82 597.5,-56.82 711.5,-56.82 711.5,-26.82 597.5,-26.82"/>
<text text-anchor="start" x="605.5" y="-44.82" font-family="Helvetica,sans-Serif" font-size="10.00">error_msg_class::write</text>
<text text-anchor="middle" x="654.5" y="-33.82" font-family="Helvetica,sans-Serif" font-size="10.00">_header</text>
</a>
</g>
</g>
<!-- Node16&#45;&gt;Node17 -->
<g id="edge23" class="edge">
<title>Node16&#45;&gt;Node17</title>
<path fill="none" stroke="midnightblue" d="M545.15,-35.38C558.71,-35.04 573.32,-34.98 587.29,-35.18"/>
<polygon fill="midnightblue" stroke="midnightblue" points="587.26,-38.68 597.32,-35.38 587.39,-31.68 587.26,-38.68"/>
</g>
<!-- Node17&#45;&gt;Node16 -->
<g id="edge24" class="edge">
<title>Node17&#45;&gt;Node16</title>
<path fill="none" stroke="midnightblue" d="M597.32,-48.26C583.76,-48.59 569.15,-48.66 555.18,-48.45"/>
<polygon fill="midnightblue" stroke="midnightblue" points="555.22,-44.95 545.15,-48.26 555.08,-51.95 555.22,-44.95"/>
</g>
<!-- Node20&#45;&gt;Node5 -->
<g id="edge28" class="edge">
<title>Node20&#45;&gt;Node5</title>
<path fill="none" stroke="midnightblue" d="M373.11,-28.61C450.05,-9.96 603.86,18.15 728,-16.82 813.79,-40.98 899.2,-105.8 940.09,-140"/>
<polygon fill="midnightblue" stroke="midnightblue" points="938,-142.82 947.89,-146.61 942.53,-137.47 938,-142.82"/>
</g>
<!-- Node20&#45;&gt;Node16 -->
<g id="edge29" class="edge">
<title>Node20&#45;&gt;Node16</title>
<path fill="none" stroke="midnightblue" d="M373.26,-41.82C388.13,-41.82 404.75,-41.82 420.59,-41.82"/>
<polygon fill="midnightblue" stroke="midnightblue" points="420.86,-45.32 430.86,-41.82 420.86,-38.32 420.86,-45.32"/>
</g>
</g>
</svg>
        <g id="navigator" transform="translate(0 0)" fill="#404254">
                <rect fill="#f2f5e9" fill-opacity="0.5" stroke="#606060" stroke-width=".5" x="0" y="0" width="60" height="60"/>
                <use id="zoomplus" xlink:href="#zoomPlus" x="17" y="9" onmousedown="handleZoom(evt,'in')"/>
                <use id="zoomminus" xlink:href="#zoomMin" x="42" y="9" onmousedown="handleZoom(evt,'out')"/>
                <use id="reset" xlink:href="#resetDef" x="30" y="36" onmousedown="handleReset()"/>
                <g id="arrowUp" xlink:href="#dirArrow" transform="translate(30 24)" onmousedown="handlePan(0,-1)">
                  <use xlink:href="#rim" fill="#404040">
                        <set attributeName="fill" to="#808080" begin="arrowUp.mouseover" end="arrowUp.mouseout"/>
                  </use>
                  <path fill="none" stroke="white" stroke-width="1.5" d="M0,-3.0v7 M-2.5,-0.5L0,-3.0L2.5,-0.5"/>
                </g>
                <g id="arrowRight" xlink:href="#dirArrow" transform="rotate(90) translate(36 -43)" onmousedown="handlePan(1,0)">
                  <use xlink:href="#rim" fill="#404040">
                        <set attributeName="fill" to="#808080" begin="arrowRight.mouseover" end="arrowRight.mouseout"/>
                  </use>
                  <path fill="none" stroke="white" stroke-width="1.5" d="M0,-3.0v7 M-2.5,-0.5L0,-3.0L2.5,-0.5"/>
                </g>
                <g id="arrowDown" xlink:href="#dirArrow" transform="rotate(180) translate(-30 -48)" onmousedown="handlePan(0,1)">
                  <use xlink:href="#rim" fill="#404040">
                        <set attributeName="fill" to="#808080" begin="arrowDown.mouseover" end="arrowDown.mouseout"/>
                  </use>
                  <path fill="none" stroke="white" stroke-width="1.5" d="M0,-3.0v7 M-2.5,-0.5L0,-3.0L2.5,-0.5"/>
                </g>
                <g id="arrowLeft" xlink:href="#dirArrow" transform="rotate(270) translate(-36 17)" onmousedown="handlePan(-1,0)">
                  <use xlink:href="#rim" fill="#404040">
                        <set attributeName="fill" to="#808080" begin="arrowLeft.mouseover" end="arrowLeft.mouseout"/>
                  </use>
                  <path fill="none" stroke="white" stroke-width="1.5" d="M0,-3.0v7 M-2.5,-0.5L0,-3.0L2.5,-0.5"/>
                </g>
        </g>
        <svg viewBox="0 0 15 15" width="100%" height="30px" preserveAspectRatio="xMaxYMin meet">
         <g id="arrow_out" transform="scale(0.3 0.3)">
          <a xlink:href="namespacenuflux__class_a9484d93accf5ec49a5fa3c72398b4038_cgraph_org.svg" target="_base">
           <rect id="button" ry="5" rx="5" y="6" x="6" height="38" width="38"
                fill="#f2f5e9" fill-opacity="0.5" stroke="#606060" stroke-width="1.0"/>
           <path id="arrow"
             d="M 11.500037,31.436501 C 11.940474,20.09759 22.043105,11.32322 32.158766,21.979434 L 37.068811,17.246167 C 37.068811,17.246167 37.088388,32 37.088388,32 L 22.160133,31.978069 C 22.160133,31.978069 26.997745,27.140456 26.997745,27.140456 C 18.528582,18.264221 13.291696,25.230495 11.500037,31.436501 z"
             style="fill:#404040;"/>
          </a>
         </g>
        </svg>
</svg>
