<?xml version="1.0" encoding="UTF-8" standalone="no"?>
<!DOCTYPE svg PUBLIC "-//W3C//DTD SVG 1.1//EN"
 "http://www.w3.org/Graphics/SVG/1.1/DTD/svg11.dtd">
<!-- Generated by graphviz version 2.44.0 ()
 -->
<!-- Title: alpha_decay_rate_module::merge_alpha_decays Pages: 1 -->
<svg width="1120pt" height="377pt"
 viewBox="0.00 0.00 1120.00 377.00" xmlns="http://www.w3.org/2000/svg" xmlns:xlink="http://www.w3.org/1999/xlink">
<g id="graph0" class="graph" transform="scale(1 1) rotate(0) translate(4 373)">
<title>alpha_decay_rate_module::merge_alpha_decays</title>
<polygon fill="white" stroke="transparent" points="-4,4 -4,-373 1116,-373 1116,4 -4,4"/>
<!-- Node1 -->
<g id="node1" class="node">
<title>Node1</title>
<g id="a_node1"><a xlink:title="Merge alpha decays into the larger rate array.">
<polygon fill="#bfbfbf" stroke="black" points="0,-275 0,-305 129,-305 129,-275 0,-275"/>
<text text-anchor="start" x="8" y="-293" font-family="Helvetica,sans-Serif" font-size="10.00">alpha_decay_rate_module</text>
<text text-anchor="middle" x="64.5" y="-282" font-family="Helvetica,sans-Serif" font-size="10.00">::merge_alpha_decays</text>
</a>
</g>
</g>
<!-- Node2 -->
<g id="node2" class="node">
<title>Node2</title>
<g id="a_node2"><a xlink:href="namespaceerror__msg__class.html#a2453d3b7cb363115c046840baa1dfb75" target="_top" xlink:title="Raise a exception with a given error message.">
<polygon fill="white" stroke="black" points="858,-180 858,-210 972,-210 972,-180 858,-180"/>
<text text-anchor="start" x="866" y="-198" font-family="Helvetica,sans-Serif" font-size="10.00">error_msg_class::raise</text>
<text text-anchor="middle" x="915" y="-187" font-family="Helvetica,sans-Serif" font-size="10.00">_exception</text>
</a>
</g>
</g>
<!-- Node1&#45;&gt;Node2 -->
<g id="edge1" class="edge">
<title>Node1&#45;&gt;Node2</title>
<path fill="none" stroke="midnightblue" d="M96.64,-305.08C115.92,-313.84 141.42,-324.43 165,-331 271.78,-360.77 300.65,-369 411.5,-369 411.5,-369 411.5,-369 582.5,-369 711.76,-369 840.23,-264 891.15,-217.14"/>
<polygon fill="midnightblue" stroke="midnightblue" points="893.72,-219.52 898.64,-210.14 888.94,-214.4 893.72,-219.52"/>
</g>
<!-- Node4 -->
<g id="node4" class="node">
<title>Node4</title>
<g id="a_node4"><a xlink:href="namespacemergesort__module.html#abf490436dad94120a2c99efc036f2b1b" target="_top" xlink:title="Merges two tables of rates (of type global_class::reactionrate_type).">
<polygon fill="white" stroke="black" points="166.5,-302.5 166.5,-321.5 306.5,-321.5 306.5,-302.5 166.5,-302.5"/>
<text text-anchor="middle" x="236.5" y="-309.5" font-family="Helvetica,sans-Serif" font-size="10.00">mergesort_module::rrate_ms</text>
</a>
</g>
</g>
<!-- Node1&#45;&gt;Node4 -->
<g id="edge3" class="edge">
<title>Node1&#45;&gt;Node4</title>
<path fill="none" stroke="midnightblue" d="M129.29,-298.25C138.05,-299.39 147.13,-300.56 156.13,-301.73"/>
<polygon fill="midnightblue" stroke="midnightblue" points="155.87,-305.22 166.23,-303.04 156.76,-298.28 155.87,-305.22"/>
</g>
<!-- Node5 -->
<g id="node5" class="node">
<title>Node5</title>
<g id="a_node5"><a xlink:href="namespacemergesort__module.html#a350624bb77af754147cd68332b16b9e5" target="_top" xlink:title="Sorts chapter one of the rate array.">
<polygon fill="white" stroke="black" points="165,-195.5 165,-214.5 308,-214.5 308,-195.5 165,-195.5"/>
<text text-anchor="middle" x="236.5" y="-202.5" font-family="Helvetica,sans-Serif" font-size="10.00">mergesort_module::rrate_sort</text>
</a>
</g>
</g>
<!-- Node1&#45;&gt;Node5 -->
<g id="edge5" class="edge">
<title>Node1&#45;&gt;Node5</title>
<path fill="none" stroke="midnightblue" d="M84.23,-274.88C103.47,-260.03 134.78,-237.66 165,-224 170.33,-221.59 176.02,-219.43 181.78,-217.52"/>
<polygon fill="midnightblue" stroke="midnightblue" points="182.97,-220.81 191.48,-214.51 180.89,-214.13 182.97,-220.81"/>
</g>
<!-- Node6 -->
<g id="node6" class="node">
<title>Node6</title>
<g id="a_node6"><a xlink:href="namespacealpha__decay__rate__module.html#af38465d3d3867bd3fe3fdaa4c998be2c" target="_top" xlink:title="Merge reaclib rates and alpha decays into one array.">
<polygon fill="white" stroke="black" points="172,-234 172,-264 301,-264 301,-234 172,-234"/>
<text text-anchor="start" x="180" y="-252" font-family="Helvetica,sans-Serif" font-size="10.00">alpha_decay_rate_module</text>
<text text-anchor="middle" x="236.5" y="-241" font-family="Helvetica,sans-Serif" font-size="10.00">::unify_rate_array</text>
</a>
</g>
</g>
<!-- Node1&#45;&gt;Node6 -->
<g id="edge6" class="edge">
<title>Node1&#45;&gt;Node6</title>
<path fill="none" stroke="midnightblue" d="M127.84,-274.97C139.39,-272.18 151.54,-269.25 163.35,-266.4"/>
<polygon fill="midnightblue" stroke="midnightblue" points="164.27,-269.78 173.17,-264.03 162.63,-262.97 164.27,-269.78"/>
</g>
<!-- Node3 -->
<g id="node3" class="node">
<title>Node3</title>
<g id="a_node3"><a xlink:href="namespaceerror__msg__class.html#a7e065585cc806a5c264de1f088266498" target="_top" xlink:title="Converts a given integer to a string.">
<polygon fill="white" stroke="black" points="1008,-73 1008,-103 1112,-103 1112,-73 1008,-73"/>
<text text-anchor="start" x="1016" y="-91" font-family="Helvetica,sans-Serif" font-size="10.00">error_msg_class::int</text>
<text text-anchor="middle" x="1060" y="-80" font-family="Helvetica,sans-Serif" font-size="10.00">_to_str</text>
</a>
</g>
</g>
<!-- Node2&#45;&gt;Node3 -->
<g id="edge2" class="edge">
<title>Node2&#45;&gt;Node3</title>
<path fill="none" stroke="midnightblue" d="M936.19,-179.9C960.88,-161.42 1002.85,-130.01 1030.75,-109.14"/>
<polygon fill="midnightblue" stroke="midnightblue" points="1033.01,-111.82 1038.92,-103.03 1028.81,-106.22 1033.01,-111.82"/>
</g>
<!-- Node4&#45;&gt;Node2 -->
<g id="edge4" class="edge">
<title>Node4&#45;&gt;Node2</title>
<path fill="none" stroke="midnightblue" d="M306.76,-316.25C355.62,-318.22 422.53,-318.82 481,-312 623.41,-295.4 784.96,-242.15 864.45,-213.56"/>
<polygon fill="midnightblue" stroke="midnightblue" points="865.98,-216.73 874.19,-210.04 863.59,-210.15 865.98,-216.73"/>
</g>
<!-- Node6&#45;&gt;Node2 -->
<g id="edge17" class="edge">
<title>Node6&#45;&gt;Node2</title>
<path fill="none" stroke="midnightblue" d="M292.97,-233.99C309.29,-230.11 327.26,-226.37 344,-224 524.87,-198.38 740.85,-194.62 847.56,-194.52"/>
<polygon fill="midnightblue" stroke="midnightblue" points="847.85,-198.02 857.86,-194.53 847.86,-191.02 847.85,-198.02"/>
</g>
<!-- Node6&#45;&gt;Node3 -->
<g id="edge16" class="edge">
<title>Node6&#45;&gt;Node3</title>
<path fill="none" stroke="midnightblue" d="M294.77,-233.81C299.6,-231.06 304.11,-227.82 308,-224 340.51,-192.07 314.06,-162.36 344,-128 422.52,-37.89 460.98,0 580.5,0 580.5,0 580.5,0 753,0 851.7,0 961.59,-42.81 1019.03,-68.71"/>
<polygon fill="midnightblue" stroke="midnightblue" points="1017.58,-71.9 1028.13,-72.87 1020.49,-65.53 1017.58,-71.9"/>
</g>
<!-- Node7 -->
<g id="node7" class="node">
<title>Node7</title>
<g id="a_node7"><a xlink:href="namespacealpha__decay__rate__module.html#a64a50cc5ce3adb78bef569f79dda8d4f" target="_top" xlink:title="Creates a file with the decays.">
<polygon fill="white" stroke="black" points="344,-138 344,-168 481,-168 481,-138 344,-138"/>
<text text-anchor="start" x="352" y="-156" font-family="Helvetica,sans-Serif" font-size="10.00">alpha_decay_rate_module</text>
<text text-anchor="middle" x="412.5" y="-145" font-family="Helvetica,sans-Serif" font-size="10.00">::create_verbose_output_file</text>
</a>
</g>
</g>
<!-- Node6&#45;&gt;Node7 -->
<g id="edge7" class="edge">
<title>Node6&#45;&gt;Node7</title>
<path fill="none" stroke="midnightblue" d="M287.94,-233.93C294.89,-231.05 301.77,-227.75 308,-224 326.6,-212.82 326.43,-203.74 344,-191 352.83,-184.6 362.84,-178.44 372.39,-173.01"/>
<polygon fill="midnightblue" stroke="midnightblue" points="374.3,-175.95 381.36,-168.05 370.91,-169.83 374.3,-175.95"/>
</g>
<!-- Node13 -->
<g id="node13" class="node">
<title>Node13</title>
<g id="a_node13"><a xlink:href="namespacebenam__class.html#ad2f566697809a5731e560509d2ca7062" target="_top" xlink:title="Finds an isotope index in the network table, given its A and Z. In case it was not found,...">
<polygon fill="white" stroke="black" points="360.5,-283.5 360.5,-302.5 464.5,-302.5 464.5,-283.5 360.5,-283.5"/>
<text text-anchor="middle" x="412.5" y="-290.5" font-family="Helvetica,sans-Serif" font-size="10.00">benam_class::findaz</text>
</a>
</g>
</g>
<!-- Node6&#45;&gt;Node13 -->
<g id="edge15" class="edge">
<title>Node6&#45;&gt;Node13</title>
<path fill="none" stroke="midnightblue" d="M296.89,-264.02C318.81,-269.56 343.33,-275.76 364.05,-281"/>
<polygon fill="midnightblue" stroke="midnightblue" points="363.33,-284.43 373.88,-283.49 365.05,-277.64 363.33,-284.43"/>
</g>
<!-- Node14 -->
<g id="node14" class="node">
<title>Node14</title>
<g id="a_node14"><a xlink:href="namespaceerror__msg__class.html#a339dd5b38c125b6a04653762c94a91f2" target="_top" xlink:title="Write data to the standard output (usually OUT)">
<polygon fill="white" stroke="black" points="355.5,-234 355.5,-264 469.5,-264 469.5,-234 355.5,-234"/>
<text text-anchor="start" x="363.5" y="-252" font-family="Helvetica,sans-Serif" font-size="10.00">error_msg_class::write</text>
<text text-anchor="middle" x="412.5" y="-241" font-family="Helvetica,sans-Serif" font-size="10.00">_data_to_std_out</text>
</a>
</g>
</g>
<!-- Node6&#45;&gt;Node14 -->
<g id="edge18" class="edge">
<title>Node6&#45;&gt;Node14</title>
<path fill="none" stroke="midnightblue" d="M301.3,-249C315.59,-249 330.77,-249 345.15,-249"/>
<polygon fill="midnightblue" stroke="midnightblue" points="345.46,-252.5 355.46,-249 345.46,-245.5 345.46,-252.5"/>
</g>
<!-- Node8 -->
<g id="node8" class="node">
<title>Node8</title>
<g id="a_node8"><a xlink:href="namespacefile__handling__class.html#aeddf55e8478d6220dc04310665427c3a" target="_top" xlink:title="Shorthand for opening a new file for writing (output file)">
<polygon fill="white" stroke="black" points="532.5,-138 532.5,-168 630.5,-168 630.5,-138 532.5,-138"/>
<text text-anchor="start" x="540.5" y="-156" font-family="Helvetica,sans-Serif" font-size="10.00">file_handling_class</text>
<text text-anchor="middle" x="581.5" y="-145" font-family="Helvetica,sans-Serif" font-size="10.00">::open_outfile</text>
</a>
</g>
</g>
<!-- Node7&#45;&gt;Node8 -->
<g id="edge8" class="edge">
<title>Node7&#45;&gt;Node8</title>
<path fill="none" stroke="midnightblue" d="M481.43,-153C494.89,-153 508.92,-153 522.04,-153"/>
<polygon fill="midnightblue" stroke="midnightblue" points="522.34,-156.5 532.34,-153 522.34,-149.5 522.34,-156.5"/>
</g>
<!-- Node10 -->
<g id="node10" class="node">
<title>Node10</title>
<g id="a_node10"><a xlink:href="namespacealpha__decay__rate__module.html#a8bd6b70a7807f48b1c1fef2b852460dd" target="_top" xlink:title="Return a string to represent a given reaction.">
<polygon fill="white" stroke="black" points="517,-73 517,-103 646,-103 646,-73 517,-73"/>
<text text-anchor="start" x="525" y="-91" font-family="Helvetica,sans-Serif" font-size="10.00">alpha_decay_rate_module</text>
<text text-anchor="middle" x="581.5" y="-80" font-family="Helvetica,sans-Serif" font-size="10.00">::reaction_string</text>
</a>
</g>
</g>
<!-- Node7&#45;&gt;Node10 -->
<g id="edge12" class="edge">
<title>Node7&#45;&gt;Node10</title>
<path fill="none" stroke="midnightblue" d="M452.23,-137.92C476.07,-128.65 506.82,-116.68 532.23,-106.79"/>
<polygon fill="midnightblue" stroke="midnightblue" points="533.64,-110 541.69,-103.11 531.1,-103.47 533.64,-110"/>
</g>
<!-- Node8&#45;&gt;Node2 -->
<g id="edge11" class="edge">
<title>Node8&#45;&gt;Node2</title>
<path fill="none" stroke="midnightblue" d="M630.7,-159.11C687.98,-166.36 783.82,-178.51 847.97,-186.63"/>
<polygon fill="midnightblue" stroke="midnightblue" points="847.62,-190.12 857.98,-187.9 848.5,-183.17 847.62,-190.12"/>
</g>
<!-- Node9 -->
<g id="node9" class="node">
<title>Node9</title>
<g id="a_node9"><a xlink:href="namespacefile__handling__class.html#af02196bd5eaf70ecd5ab4cc650094d5e" target="_top" xlink:title="Finds the next unused unit number.">
<polygon fill="white" stroke="black" points="703,-117 703,-147 801,-147 801,-117 703,-117"/>
<text text-anchor="start" x="711" y="-135" font-family="Helvetica,sans-Serif" font-size="10.00">file_handling_class</text>
<text text-anchor="middle" x="752" y="-124" font-family="Helvetica,sans-Serif" font-size="10.00">::get_next_io_unit</text>
</a>
</g>
</g>
<!-- Node8&#45;&gt;Node9 -->
<g id="edge9" class="edge">
<title>Node8&#45;&gt;Node9</title>
<path fill="none" stroke="midnightblue" d="M630.79,-146.98C650.17,-144.57 672.68,-141.76 692.95,-139.24"/>
<polygon fill="midnightblue" stroke="midnightblue" points="693.51,-142.69 703,-137.98 692.64,-135.75 693.51,-142.69"/>
</g>
<!-- Node9&#45;&gt;Node2 -->
<g id="edge10" class="edge">
<title>Node9&#45;&gt;Node2</title>
<path fill="none" stroke="midnightblue" d="M791.56,-147.09C813.88,-155.82 842.17,-166.89 865.94,-176.19"/>
<polygon fill="midnightblue" stroke="midnightblue" points="864.88,-179.54 875.47,-179.92 867.44,-173.02 864.88,-179.54"/>
</g>
<!-- Node11 -->
<g id="node11" class="node">
<title>Node11</title>
<g id="a_node11"><a xlink:href="namespacebenam__class.html#afd880df70f94c289b6bda0647f4494e3" target="_top" xlink:title="Getter of net_names, translating indices to a nucleus name.">
<polygon fill="white" stroke="black" points="682,-78.5 682,-97.5 822,-97.5 822,-78.5 682,-78.5"/>
<text text-anchor="middle" x="752" y="-85.5" font-family="Helvetica,sans-Serif" font-size="10.00">benam_class::get_net_name</text>
</a>
</g>
</g>
<!-- Node10&#45;&gt;Node11 -->
<g id="edge13" class="edge">
<title>Node10&#45;&gt;Node11</title>
<path fill="none" stroke="midnightblue" d="M646.2,-88C654.58,-88 663.24,-88 671.83,-88"/>
<polygon fill="midnightblue" stroke="midnightblue" points="671.86,-91.5 681.86,-88 671.86,-84.5 671.86,-91.5"/>
</g>
<!-- Node12 -->
<g id="node12" class="node">
<title>Node12</title>
<g id="a_node12"><a xlink:href="namespaceerror__msg__class.html#a5bc9f3b670b725cc43276934b867d801" target="_top" xlink:title="Converts a given real to a string with format &quot;(1pE10.2)&quot;.">
<polygon fill="white" stroke="black" points="696,-29 696,-59 808,-59 808,-29 696,-29"/>
<text text-anchor="start" x="704" y="-47" font-family="Helvetica,sans-Serif" font-size="10.00">error_msg_class::num</text>
<text text-anchor="middle" x="752" y="-36" font-family="Helvetica,sans-Serif" font-size="10.00">_to_str</text>
</a>
</g>
</g>
<!-- Node10&#45;&gt;Node12 -->
<g id="edge14" class="edge">
<title>Node10&#45;&gt;Node12</title>
<path fill="none" stroke="midnightblue" d="M640.02,-72.98C654.8,-69.12 670.8,-64.94 685.94,-60.99"/>
<polygon fill="midnightblue" stroke="midnightblue" points="686.94,-64.34 695.73,-58.43 685.17,-57.57 686.94,-64.34"/>
</g>
<!-- Node15 -->
<g id="node15" class="node">
<title>Node15</title>
<g id="a_node15"><a xlink:href="namespaceerror__msg__class.html#af62b9a0c5997255e792b9ebd7322a6a3" target="_top" xlink:title="Write the header of the standard output (usually OUT)">
<polygon fill="white" stroke="black" points="524.5,-234 524.5,-264 638.5,-264 638.5,-234 524.5,-234"/>
<text text-anchor="start" x="532.5" y="-252" font-family="Helvetica,sans-Serif" font-size="10.00">error_msg_class::write</text>
<text text-anchor="middle" x="581.5" y="-241" font-family="Helvetica,sans-Serif" font-size="10.00">_header</text>
</a>
</g>
</g>
<!-- Node14&#45;&gt;Node15 -->
<g id="edge19" class="edge">
<title>Node14&#45;&gt;Node15</title>
<path fill="none" stroke="midnightblue" d="M469.57,-242.58C483.89,-242.22 499.42,-242.15 514.2,-242.38"/>
<polygon fill="midnightblue" stroke="midnightblue" points="514.22,-245.88 524.29,-242.58 514.36,-238.88 514.22,-245.88"/>
</g>
<!-- Node15&#45;&gt;Node14 -->
<g id="edge20" class="edge">
<title>Node15&#45;&gt;Node14</title>
<path fill="none" stroke="midnightblue" d="M524.29,-255.42C509.96,-255.78 494.43,-255.85 479.66,-255.62"/>
<polygon fill="midnightblue" stroke="midnightblue" points="479.64,-252.12 469.57,-255.42 479.5,-259.12 479.64,-252.12"/>
</g>
</g>
</svg>
