<?xml version="1.0" encoding="UTF-8" standalone="no"?>
<!DOCTYPE svg PUBLIC "-//W3C//DTD SVG 1.1//EN"
 "http://www.w3.org/Graphics/SVG/1.1/DTD/svg11.dtd">
<!-- Generated by graphviz version 2.44.0 ()
 -->
<!-- Title: beta_decay_rate_module::remove_weak_rates Pages: 1 -->
<svg width="584pt" height="61pt"
 viewBox="0.00 0.00 584.00 61.00" xmlns="http://www.w3.org/2000/svg" xmlns:xlink="http://www.w3.org/1999/xlink">
<g id="graph0" class="graph" transform="scale(1 1) rotate(0) translate(4 57)">
<title>beta_decay_rate_module::remove_weak_rates</title>
<polygon fill="white" stroke="transparent" points="-4,4 -4,-57 580,-57 580,4 -4,4"/>
<!-- Node1 -->
<g id="node1" class="node">
<title>Node1</title>
<g id="a_node1"><a xlink:title="Remove beta decays from the rate array.">
<polygon fill="#bfbfbf" stroke="black" points="0,-0.5 0,-30.5 125,-30.5 125,-0.5 0,-0.5"/>
<text text-anchor="start" x="8" y="-18.5" font-family="Helvetica,sans-Serif" font-size="10.00">beta_decay_rate_module</text>
<text text-anchor="middle" x="62.5" y="-7.5" font-family="Helvetica,sans-Serif" font-size="10.00">::remove_weak_rates</text>
</a>
</g>
</g>
<!-- Node2 -->
<g id="node2" class="node">
<title>Node2</title>
<g id="a_node2"><a xlink:href="namespacebeta__decay__rate__module.html#ad0881130a25dea6caaa0766b489ab30e" target="_top" xlink:title="Convert beta_pn_type to reactionrate_type.">
<polygon fill="white" stroke="black" points="161,-22.5 161,-52.5 286,-52.5 286,-22.5 161,-22.5"/>
<text text-anchor="start" x="169" y="-40.5" font-family="Helvetica,sans-Serif" font-size="10.00">beta_decay_rate_module</text>
<text text-anchor="middle" x="223.5" y="-29.5" font-family="Helvetica,sans-Serif" font-size="10.00">::create_rrate_array</text>
</a>
</g>
</g>
<!-- Node1&#45;&gt;Node2 -->
<g id="edge1" class="edge">
<title>Node1&#45;&gt;Node2</title>
<path fill="none" stroke="midnightblue" d="M125.43,-24.07C133.67,-25.21 142.18,-26.39 150.58,-27.55"/>
<polygon fill="midnightblue" stroke="midnightblue" points="150.35,-31.05 160.74,-28.95 151.31,-24.12 150.35,-31.05"/>
</g>
<!-- Node3 -->
<g id="node3" class="node">
<title>Node3</title>
<g id="a_node3"><a xlink:href="namespaceerror__msg__class.html#a2453d3b7cb363115c046840baa1dfb75" target="_top" xlink:title="Raise a exception with a given error message.">
<polygon fill="white" stroke="black" points="322,-0.5 322,-30.5 436,-30.5 436,-0.5 322,-0.5"/>
<text text-anchor="start" x="330" y="-18.5" font-family="Helvetica,sans-Serif" font-size="10.00">error_msg_class::raise</text>
<text text-anchor="middle" x="379" y="-7.5" font-family="Helvetica,sans-Serif" font-size="10.00">_exception</text>
</a>
</g>
</g>
<!-- Node1&#45;&gt;Node3 -->
<g id="edge4" class="edge">
<title>Node1&#45;&gt;Node3</title>
<path fill="none" stroke="midnightblue" d="M125.13,-14.04C137.03,-13.82 149.4,-13.62 161,-13.5 216.55,-12.93 230.45,-12.9 286,-13.5 294.27,-13.59 302.95,-13.73 311.55,-13.88"/>
<polygon fill="midnightblue" stroke="midnightblue" points="311.5,-17.38 321.56,-14.08 311.63,-10.38 311.5,-17.38"/>
</g>
<!-- Node2&#45;&gt;Node3 -->
<g id="edge2" class="edge">
<title>Node2&#45;&gt;Node3</title>
<path fill="none" stroke="midnightblue" d="M286.05,-28.68C294.56,-27.46 303.34,-26.2 311.93,-24.97"/>
<polygon fill="midnightblue" stroke="midnightblue" points="312.5,-28.42 321.9,-23.54 311.51,-21.49 312.5,-28.42"/>
</g>
<!-- Node4 -->
<g id="node4" class="node">
<title>Node4</title>
<g id="a_node4"><a xlink:href="namespaceerror__msg__class.html#a7e065585cc806a5c264de1f088266498" target="_top" xlink:title="Converts a given integer to a string.">
<polygon fill="white" stroke="black" points="472,-0.5 472,-30.5 576,-30.5 576,-0.5 472,-0.5"/>
<text text-anchor="start" x="480" y="-18.5" font-family="Helvetica,sans-Serif" font-size="10.00">error_msg_class::int</text>
<text text-anchor="middle" x="524" y="-7.5" font-family="Helvetica,sans-Serif" font-size="10.00">_to_str</text>
</a>
</g>
</g>
<!-- Node3&#45;&gt;Node4 -->
<g id="edge3" class="edge">
<title>Node3&#45;&gt;Node4</title>
<path fill="none" stroke="midnightblue" d="M436.11,-15.5C444.45,-15.5 453.09,-15.5 461.54,-15.5"/>
<polygon fill="midnightblue" stroke="midnightblue" points="461.71,-19 471.71,-15.5 461.71,-12 461.71,-19"/>
</g>
</g>
</svg>
