<?xml version="1.0" encoding="UTF-8" standalone="no"?>
<!DOCTYPE svg PUBLIC "-//W3C//DTD SVG 1.1//EN"
 "http://www.w3.org/Graphics/SVG/1.1/DTD/svg11.dtd">
<!-- Generated by graphviz version 2.44.0 ()
 -->
<!-- Title: tw_rate_module::calculate_twr_rate Pages: 1 -->
<svg width="772pt" height="230pt"
 viewBox="0.00 0.00 772.00 229.50" xmlns="http://www.w3.org/2000/svg" xmlns:xlink="http://www.w3.org/1999/xlink">
<g id="graph0" class="graph" transform="scale(1 1) rotate(0) translate(4 225.5)">
<title>tw_rate_module::calculate_twr_rate</title>
<polygon fill="white" stroke="transparent" points="-4,4 -4,-225.5 768,-225.5 768,4 -4,4"/>
<!-- Node1 -->
<g id="node1" class="node">
<title>Node1</title>
<g id="a_node1"><a xlink:title="Calculate the theoretical weak rate.">
<polygon fill="#bfbfbf" stroke="black" points="0,-115.5 0,-145.5 129,-145.5 129,-115.5 0,-115.5"/>
<text text-anchor="start" x="8" y="-133.5" font-family="Helvetica,sans-Serif" font-size="10.00">tw_rate_module::calculate</text>
<text text-anchor="middle" x="64.5" y="-122.5" font-family="Helvetica,sans-Serif" font-size="10.00">_twr_rate</text>
</a>
</g>
</g>
<!-- Node2 -->
<g id="node2" class="node">
<title>Node2</title>
<g id="a_node2"><a xlink:href="namespaceeffphase__class.html#aa6f8c1dc7835aa0c93be9a61c90f9a36" target="_top" xlink:title=" ">
<polygon fill="white" stroke="black" points="165,-165 165,-184 288,-184 288,-165 165,-165"/>
<text text-anchor="middle" x="226.5" y="-172" font-family="Helvetica,sans-Serif" font-size="10.00">effphase_class::effphase</text>
</a>
</g>
</g>
<!-- Node1&#45;&gt;Node2 -->
<g id="edge1" class="edge">
<title>Node1&#45;&gt;Node2</title>
<path fill="none" stroke="midnightblue" d="M120.12,-145.52C139.91,-150.96 162.03,-157.04 180.86,-162.22"/>
<polygon fill="midnightblue" stroke="midnightblue" points="180.1,-165.64 190.67,-164.92 181.96,-158.9 180.1,-165.64"/>
</g>
<!-- Node8 -->
<g id="node8" class="node">
<title>Node8</title>
<g id="a_node8"><a xlink:href="namespacetw__rate__module.html#aae7dacb01f31b31c10189432cc750156" target="_top" xlink:title="Set wk_index for given T, &#160;and &#160;The index is written into module variable wk_index.">
<polygon fill="white" stroke="black" points="170,-115.5 170,-145.5 283,-145.5 283,-115.5 170,-115.5"/>
<text text-anchor="start" x="178" y="-133.5" font-family="Helvetica,sans-Serif" font-size="10.00">tw_rate_module::weak</text>
<text text-anchor="middle" x="226.5" y="-122.5" font-family="Helvetica,sans-Serif" font-size="10.00">_index</text>
</a>
</g>
</g>
<!-- Node1&#45;&gt;Node8 -->
<g id="edge7" class="edge">
<title>Node1&#45;&gt;Node8</title>
<path fill="none" stroke="midnightblue" d="M129.2,-130.5C139.16,-130.5 149.47,-130.5 159.48,-130.5"/>
<polygon fill="midnightblue" stroke="midnightblue" points="159.78,-134 169.78,-130.5 159.78,-127 159.78,-134"/>
</g>
<!-- Node10 -->
<g id="node10" class="node">
<title>Node10</title>
<g id="a_node10"><a xlink:href="namespacetw__rate__module.html#ad64c32f568ba69ca2822b1c0a2d4d911" target="_top" xlink:title="Interpolation interface.">
<polygon fill="white" stroke="black" points="170,-41.5 170,-71.5 283,-71.5 283,-41.5 170,-41.5"/>
<text text-anchor="start" x="178" y="-59.5" font-family="Helvetica,sans-Serif" font-size="10.00">tw_rate_module::weak</text>
<text text-anchor="middle" x="226.5" y="-48.5" font-family="Helvetica,sans-Serif" font-size="10.00">_inter</text>
</a>
</g>
</g>
<!-- Node1&#45;&gt;Node10 -->
<g id="edge9" class="edge">
<title>Node1&#45;&gt;Node10</title>
<path fill="none" stroke="midnightblue" d="M98.26,-115.35C123.04,-103.89 157.25,-88.07 183.95,-75.72"/>
<polygon fill="midnightblue" stroke="midnightblue" points="185.45,-78.88 193.05,-71.51 182.51,-72.53 185.45,-78.88"/>
</g>
<!-- Node3 -->
<g id="node3" class="node">
<title>Node3</title>
<g id="a_node3"><a xlink:href="quadpack__module_8f90.html#ac59eaf7c56c1d421d129425895fa0107" target="_top" xlink:title=" ">
<polygon fill="white" stroke="black" points="370,-164 370,-183 405,-183 405,-164 370,-164"/>
<text text-anchor="middle" x="387.5" y="-171" font-family="Helvetica,sans-Serif" font-size="10.00">qagi</text>
</a>
</g>
</g>
<!-- Node2&#45;&gt;Node3 -->
<g id="edge2" class="edge">
<title>Node2&#45;&gt;Node3</title>
<path fill="none" stroke="midnightblue" d="M288.06,-174.12C312.8,-173.96 340.12,-173.79 359.7,-173.67"/>
<polygon fill="midnightblue" stroke="midnightblue" points="359.73,-177.17 369.71,-173.61 359.69,-170.17 359.73,-177.17"/>
</g>
<!-- Node7 -->
<g id="node7" class="node">
<title>Node7</title>
<g id="a_node7"><a xlink:href="effphase__class_8f90.html#a9f43f9887f468d012dbae6ba88547dd7" target="_top" xlink:title="The integrand in effective psi, eq.[16] of Langanke &amp; Pinedo (2001)">
<polygon fill="white" stroke="black" points="369,-202 369,-221 406,-221 406,-202 369,-202"/>
<text text-anchor="middle" x="387.5" y="-209" font-family="Helvetica,sans-Serif" font-size="10.00">xeffc</text>
</a>
</g>
</g>
<!-- Node2&#45;&gt;Node7 -->
<g id="edge6" class="edge">
<title>Node2&#45;&gt;Node7</title>
<path fill="none" stroke="midnightblue" d="M268.45,-184.03C296.79,-190.62 333.75,-199.23 358.71,-205.03"/>
<polygon fill="midnightblue" stroke="midnightblue" points="358.08,-208.48 368.61,-207.34 359.66,-201.66 358.08,-208.48"/>
</g>
<!-- Node4 -->
<g id="node4" class="node">
<title>Node4</title>
<g id="a_node4"><a xlink:href="quadpack__module_8f90.html#a5a75101d080f224c63adde98a0e64386" target="_top" xlink:title=" ">
<polygon fill="white" stroke="black" points="536.5,-202 536.5,-221 574.5,-221 574.5,-202 536.5,-202"/>
<text text-anchor="middle" x="555.5" y="-209" font-family="Helvetica,sans-Serif" font-size="10.00">qextr</text>
</a>
</g>
</g>
<!-- Node3&#45;&gt;Node4 -->
<g id="edge3" class="edge">
<title>Node3&#45;&gt;Node4</title>
<path fill="none" stroke="midnightblue" d="M405.02,-177.28C433.34,-183.76 491.44,-197.07 526.28,-205.04"/>
<polygon fill="midnightblue" stroke="midnightblue" points="525.76,-208.51 536.29,-207.33 527.32,-201.69 525.76,-208.51"/>
</g>
<!-- Node5 -->
<g id="node5" class="node">
<title>Node5</title>
<g id="a_node5"><a xlink:href="quadpack__module_8f90.html#a59164415fc33f2f3bf4ebc4ee2220f7e" target="_top" xlink:title=" ">
<polygon fill="white" stroke="black" points="535.5,-164 535.5,-183 575.5,-183 575.5,-164 535.5,-164"/>
<text text-anchor="middle" x="555.5" y="-171" font-family="Helvetica,sans-Serif" font-size="10.00">qk15i</text>
</a>
</g>
</g>
<!-- Node3&#45;&gt;Node5 -->
<g id="edge4" class="edge">
<title>Node3&#45;&gt;Node5</title>
<path fill="none" stroke="midnightblue" d="M405.02,-173.5C433.04,-173.5 490.23,-173.5 525.18,-173.5"/>
<polygon fill="midnightblue" stroke="midnightblue" points="525.25,-177 535.25,-173.5 525.25,-170 525.25,-177"/>
</g>
<!-- Node6 -->
<g id="node6" class="node">
<title>Node6</title>
<g id="a_node6"><a xlink:href="quadpack__module_8f90.html#a55e08a684c5a6315fb37dd0fdc66d8e6" target="_top" xlink:title=" ">
<polygon fill="white" stroke="black" points="536.5,-126 536.5,-145 574.5,-145 574.5,-126 536.5,-126"/>
<text text-anchor="middle" x="555.5" y="-133" font-family="Helvetica,sans-Serif" font-size="10.00">qsort</text>
</a>
</g>
</g>
<!-- Node3&#45;&gt;Node6 -->
<g id="edge5" class="edge">
<title>Node3&#45;&gt;Node6</title>
<path fill="none" stroke="midnightblue" d="M405.02,-169.72C433.34,-163.24 491.44,-149.93 526.28,-141.96"/>
<polygon fill="midnightblue" stroke="midnightblue" points="527.32,-145.31 536.29,-139.67 525.76,-138.49 527.32,-145.31"/>
</g>
<!-- Node9 -->
<g id="node9" class="node">
<title>Node9</title>
<g id="a_node9"><a xlink:href="namespaceinter__module.html#a947ac5de821c77a2cd1cf1ea1ce43589" target="_top" xlink:title="Get indices of the grid for given x&#45; and y&#45; values.">
<polygon fill="white" stroke="black" points="487,-85 487,-104 624,-104 624,-85 487,-85"/>
<text text-anchor="middle" x="555.5" y="-92" font-family="Helvetica,sans-Serif" font-size="10.00">inter_module::get_indice_2d</text>
</a>
</g>
</g>
<!-- Node8&#45;&gt;Node9 -->
<g id="edge8" class="edge">
<title>Node8&#45;&gt;Node9</title>
<path fill="none" stroke="midnightblue" d="M283.24,-127.9C328.55,-125.39 394.08,-120.87 451,-113.5 466.53,-111.49 483.27,-108.7 498.66,-105.87"/>
<polygon fill="midnightblue" stroke="midnightblue" points="499.37,-109.29 508.55,-104.01 498.08,-102.41 499.37,-109.29"/>
</g>
<!-- Node11 -->
<g id="node11" class="node">
<title>Node11</title>
<g id="a_node11"><a xlink:href="namespaceinter__module.html#a63ff1c6e223efc802d231f8b0b354a22" target="_top" xlink:title="Cubic interpolate on 2&#45;Dimensional grid.">
<polygon fill="white" stroke="black" points="324,-85 324,-104 451,-104 451,-85 324,-85"/>
<text text-anchor="middle" x="387.5" y="-92" font-family="Helvetica,sans-Serif" font-size="10.00">inter_module::cubinter_2d</text>
</a>
</g>
</g>
<!-- Node10&#45;&gt;Node11 -->
<g id="edge10" class="edge">
<title>Node10&#45;&gt;Node11</title>
<path fill="none" stroke="midnightblue" d="M283.11,-69.79C300.63,-73.98 319.85,-78.57 336.92,-82.65"/>
<polygon fill="midnightblue" stroke="midnightblue" points="336.15,-86.07 346.69,-84.99 337.78,-79.26 336.15,-86.07"/>
</g>
<!-- Node12 -->
<g id="node12" class="node">
<title>Node12</title>
<g id="a_node12"><a xlink:href="namespaceerror__msg__class.html#a2453d3b7cb363115c046840baa1dfb75" target="_top" xlink:title="Raise a exception with a given error message.">
<polygon fill="white" stroke="black" points="498.5,-22.5 498.5,-52.5 612.5,-52.5 612.5,-22.5 498.5,-22.5"/>
<text text-anchor="start" x="506.5" y="-40.5" font-family="Helvetica,sans-Serif" font-size="10.00">error_msg_class::raise</text>
<text text-anchor="middle" x="555.5" y="-29.5" font-family="Helvetica,sans-Serif" font-size="10.00">_exception</text>
</a>
</g>
</g>
<!-- Node10&#45;&gt;Node12 -->
<g id="edge18" class="edge">
<title>Node10&#45;&gt;Node12</title>
<path fill="none" stroke="midnightblue" d="M283.1,-43.64C296.43,-41.09 310.66,-38.8 324,-37.5 379.17,-32.12 442.13,-32.56 488.29,-34.1"/>
<polygon fill="midnightblue" stroke="midnightblue" points="488.34,-37.61 498.46,-34.47 488.59,-30.61 488.34,-37.61"/>
</g>
<!-- Node13 -->
<g id="node13" class="node">
<title>Node13</title>
<g id="a_node13"><a xlink:href="namespaceerror__msg__class.html#a7e065585cc806a5c264de1f088266498" target="_top" xlink:title="Converts a given integer to a string.">
<polygon fill="white" stroke="black" points="660,-0.5 660,-30.5 764,-30.5 764,-0.5 660,-0.5"/>
<text text-anchor="start" x="668" y="-18.5" font-family="Helvetica,sans-Serif" font-size="10.00">error_msg_class::int</text>
<text text-anchor="middle" x="712" y="-7.5" font-family="Helvetica,sans-Serif" font-size="10.00">_to_str</text>
</a>
</g>
</g>
<!-- Node10&#45;&gt;Node13 -->
<g id="edge14" class="edge">
<title>Node10&#45;&gt;Node13</title>
<path fill="none" stroke="midnightblue" d="M275.22,-41.43C290.66,-37.02 307.94,-32.56 324,-29.5 437.22,-7.92 572.35,-8.96 649.28,-12.01"/>
<polygon fill="midnightblue" stroke="midnightblue" points="649.6,-15.53 659.74,-12.45 649.89,-8.53 649.6,-15.53"/>
</g>
<!-- Node14 -->
<g id="node14" class="node">
<title>Node14</title>
<g id="a_node14"><a xlink:href="namespaceinter__module.html#a926757c13b25424fa6d751c645dfa6dc" target="_top" xlink:title="Interpolate linearly on 2 Dimensional grid.">
<polygon fill="white" stroke="black" points="327,-47 327,-66 448,-66 448,-47 327,-47"/>
<text text-anchor="middle" x="387.5" y="-54" font-family="Helvetica,sans-Serif" font-size="10.00">inter_module::lininter_2d</text>
</a>
</g>
</g>
<!-- Node10&#45;&gt;Node14 -->
<g id="edge15" class="edge">
<title>Node10&#45;&gt;Node14</title>
<path fill="none" stroke="midnightblue" d="M283.11,-56.5C293.94,-56.5 305.43,-56.5 316.65,-56.5"/>
<polygon fill="midnightblue" stroke="midnightblue" points="316.86,-60 326.86,-56.5 316.86,-53 316.86,-60"/>
</g>
<!-- Node11&#45;&gt;Node9 -->
<g id="edge11" class="edge">
<title>Node11&#45;&gt;Node9</title>
<path fill="none" stroke="midnightblue" d="M451.26,-94.5C459.64,-94.5 468.31,-94.5 476.91,-94.5"/>
<polygon fill="midnightblue" stroke="midnightblue" points="476.94,-98 486.94,-94.5 476.94,-91 476.94,-98"/>
</g>
<!-- Node11&#45;&gt;Node12 -->
<g id="edge12" class="edge">
<title>Node11&#45;&gt;Node12</title>
<path fill="none" stroke="midnightblue" d="M421.05,-84.99C430.72,-82.06 441.32,-78.74 451,-75.5 468.75,-69.55 488.04,-62.6 505.11,-56.28"/>
<polygon fill="midnightblue" stroke="midnightblue" points="506.72,-59.42 514.88,-52.65 504.28,-52.85 506.72,-59.42"/>
</g>
<!-- Node12&#45;&gt;Node13 -->
<g id="edge13" class="edge">
<title>Node12&#45;&gt;Node13</title>
<path fill="none" stroke="midnightblue" d="M612.72,-29.5C624.78,-27.78 637.59,-25.95 649.83,-24.21"/>
<polygon fill="midnightblue" stroke="midnightblue" points="650.55,-27.64 659.95,-22.77 649.56,-20.71 650.55,-27.64"/>
</g>
<!-- Node14&#45;&gt;Node9 -->
<g id="edge16" class="edge">
<title>Node14&#45;&gt;Node9</title>
<path fill="none" stroke="midnightblue" d="M430.39,-66.09C452.39,-71.13 479.55,-77.34 502.85,-82.68"/>
<polygon fill="midnightblue" stroke="midnightblue" points="502.38,-86.16 512.91,-84.98 503.95,-79.34 502.38,-86.16"/>
</g>
<!-- Node14&#45;&gt;Node12 -->
<g id="edge17" class="edge">
<title>Node14&#45;&gt;Node12</title>
<path fill="none" stroke="midnightblue" d="M448.43,-49.64C461.38,-48.16 475.15,-46.58 488.32,-45.07"/>
<polygon fill="midnightblue" stroke="midnightblue" points="488.72,-48.55 498.26,-43.94 487.92,-41.6 488.72,-48.55"/>
</g>
</g>
</svg>
