<?xml version="1.0" encoding="UTF-8" standalone="no"?>
<!DOCTYPE svg PUBLIC "-//W3C//DTD SVG 1.1//EN"
 "http://www.w3.org/Graphics/SVG/1.1/DTD/svg11.dtd">
<!-- Generated by graphviz version 2.44.0 ()
 -->
<!-- Title: parser_module::store_digits_operator Pages: 1 -->
<svg width="429pt" height="214pt"
 viewBox="0.00 0.00 429.00 214.00" xmlns="http://www.w3.org/2000/svg" xmlns:xlink="http://www.w3.org/1999/xlink">
<g id="graph0" class="graph" transform="scale(1 1) rotate(0) translate(4 210)">
<title>parser_module::store_digits_operator</title>
<polygon fill="white" stroke="transparent" points="-4,4 -4,-210 425,-210 425,4 -4,4"/>
<!-- Node1 -->
<g id="node1" class="node">
<title>Node1</title>
<g id="a_node1"><a xlink:title="Store mathematical operators (+&#45;*/) and numbers in arrays.">
<polygon fill="#bfbfbf" stroke="black" points="0,-93.5 0,-123.5 107,-123.5 107,-93.5 0,-93.5"/>
<text text-anchor="start" x="8" y="-111.5" font-family="Helvetica,sans-Serif" font-size="10.00">parser_module::store</text>
<text text-anchor="middle" x="53.5" y="-100.5" font-family="Helvetica,sans-Serif" font-size="10.00">_digits_operator</text>
</a>
</g>
</g>
<!-- Node2 -->
<g id="node2" class="node">
<title>Node2</title>
<g id="a_node2"><a xlink:href="namespaceparser__module.html#ad490bd346a873a280de4d7d6f343d588" target="_top" xlink:title="Function to define constants.">
<polygon fill="white" stroke="black" points="151,-175.5 151,-205.5 273,-205.5 273,-175.5 151,-175.5"/>
<text text-anchor="start" x="159" y="-193.5" font-family="Helvetica,sans-Serif" font-size="10.00">parser_module::common</text>
<text text-anchor="middle" x="212" y="-182.5" font-family="Helvetica,sans-Serif" font-size="10.00">_variables</text>
</a>
</g>
</g>
<!-- Node1&#45;&gt;Node2 -->
<g id="edge1" class="edge">
<title>Node1&#45;&gt;Node2</title>
<path fill="none" stroke="midnightblue" d="M75.18,-123.68C92.65,-136.04 118.63,-153.36 143,-165.5 147.28,-167.63 151.78,-169.68 156.36,-171.63"/>
<polygon fill="midnightblue" stroke="midnightblue" points="155.2,-174.93 165.78,-175.46 157.84,-168.45 155.2,-174.93"/>
</g>
<!-- Node3 -->
<g id="node3" class="node">
<title>Node3</title>
<g id="a_node3"><a xlink:href="namespaceparser__module.html#af9cbf87119ef07db357b3240c716e462" target="_top" xlink:title="Function to decide whether a character is a mathematical operator or not. Functions (as e....">
<polygon fill="white" stroke="black" points="145.5,-137 145.5,-156 278.5,-156 278.5,-137 145.5,-137"/>
<text text-anchor="middle" x="212" y="-144" font-family="Helvetica,sans-Serif" font-size="10.00">parser_module::is_operator</text>
</a>
</g>
</g>
<!-- Node1&#45;&gt;Node3 -->
<g id="edge2" class="edge">
<title>Node1&#45;&gt;Node3</title>
<path fill="none" stroke="midnightblue" d="M107.05,-121.26C124.71,-125.55 144.35,-130.32 161.75,-134.54"/>
<polygon fill="midnightblue" stroke="midnightblue" points="161.17,-138 171.71,-136.96 162.82,-131.2 161.17,-138"/>
</g>
<!-- Node4 -->
<g id="node4" class="node">
<title>Node4</title>
<g id="a_node4"><a xlink:href="namespaceparser__module.html#a7d1134a2461b12dc17514a1970d6b00b" target="_top" xlink:title="Function to decide whether a character can be associated with a number.">
<polygon fill="white" stroke="black" points="143,-99 143,-118 281,-118 281,-99 143,-99"/>
<text text-anchor="middle" x="212" y="-106" font-family="Helvetica,sans-Serif" font-size="10.00">parser_module::is_separator</text>
</a>
</g>
</g>
<!-- Node1&#45;&gt;Node4 -->
<g id="edge3" class="edge">
<title>Node1&#45;&gt;Node4</title>
<path fill="none" stroke="midnightblue" d="M107.05,-108.5C115.28,-108.5 123.94,-108.5 132.6,-108.5"/>
<polygon fill="midnightblue" stroke="midnightblue" points="132.75,-112 142.75,-108.5 132.75,-105 132.75,-112"/>
</g>
<!-- Node5 -->
<g id="node5" class="node">
<title>Node5</title>
<g id="a_node5"><a xlink:href="namespaceparser__module.html#afbaa22752e33bc2ac2a3437adb34ea52" target="_top" xlink:title="Subroutine to check the parsing string for consistency and correct it.">
<polygon fill="white" stroke="black" points="157.5,-49.5 157.5,-79.5 266.5,-79.5 266.5,-49.5 157.5,-49.5"/>
<text text-anchor="start" x="165.5" y="-67.5" font-family="Helvetica,sans-Serif" font-size="10.00">parser_module::make</text>
<text text-anchor="middle" x="212" y="-56.5" font-family="Helvetica,sans-Serif" font-size="10.00">_pars_str_consistent</text>
</a>
</g>
</g>
<!-- Node1&#45;&gt;Node5 -->
<g id="edge4" class="edge">
<title>Node1&#45;&gt;Node5</title>
<path fill="none" stroke="midnightblue" d="M107.05,-93.73C120.12,-90.05 134.28,-86.07 147.81,-82.27"/>
<polygon fill="midnightblue" stroke="midnightblue" points="148.84,-85.61 157.52,-79.53 146.95,-78.87 148.84,-85.61"/>
</g>
<!-- Node6 -->
<g id="node6" class="node">
<title>Node6</title>
<g id="a_node6"><a xlink:href="namespaceerror__msg__class.html#a2453d3b7cb363115c046840baa1dfb75" target="_top" xlink:title="Raise a exception with a given error message.">
<polygon fill="white" stroke="black" points="155,-0.5 155,-30.5 269,-30.5 269,-0.5 155,-0.5"/>
<text text-anchor="start" x="163" y="-18.5" font-family="Helvetica,sans-Serif" font-size="10.00">error_msg_class::raise</text>
<text text-anchor="middle" x="212" y="-7.5" font-family="Helvetica,sans-Serif" font-size="10.00">_exception</text>
</a>
</g>
</g>
<!-- Node1&#45;&gt;Node6 -->
<g id="edge5" class="edge">
<title>Node1&#45;&gt;Node6</title>
<path fill="none" stroke="midnightblue" d="M71.05,-93.3C88.07,-78.29 115.85,-55.46 143,-40.5 146.72,-38.45 150.64,-36.51 154.64,-34.68"/>
<polygon fill="midnightblue" stroke="midnightblue" points="156.28,-37.78 164.08,-30.62 153.51,-31.35 156.28,-37.78"/>
</g>
<!-- Node7 -->
<g id="node7" class="node">
<title>Node7</title>
<g id="a_node7"><a xlink:href="namespaceerror__msg__class.html#a7e065585cc806a5c264de1f088266498" target="_top" xlink:title="Converts a given integer to a string.">
<polygon fill="white" stroke="black" points="317,-0.5 317,-30.5 421,-30.5 421,-0.5 317,-0.5"/>
<text text-anchor="start" x="325" y="-18.5" font-family="Helvetica,sans-Serif" font-size="10.00">error_msg_class::int</text>
<text text-anchor="middle" x="369" y="-7.5" font-family="Helvetica,sans-Serif" font-size="10.00">_to_str</text>
</a>
</g>
</g>
<!-- Node6&#45;&gt;Node7 -->
<g id="edge6" class="edge">
<title>Node6&#45;&gt;Node7</title>
<path fill="none" stroke="midnightblue" d="M269.4,-15.5C281.5,-15.5 294.35,-15.5 306.63,-15.5"/>
<polygon fill="midnightblue" stroke="midnightblue" points="306.79,-19 316.79,-15.5 306.79,-12 306.79,-19"/>
</g>
</g>
</svg>
