<?xml version="1.0" encoding="UTF-8" standalone="no"?>
<!DOCTYPE svg PUBLIC "-//W3C//DTD SVG 1.1//EN"
 "http://www.w3.org/Graphics/SVG/1.1/DTD/svg11.dtd">
<!-- Generated by graphviz version 2.44.0 ()
 -->
<!-- Title: alpha_decay_rate_module::read_reactions Pages: 1 -->
<svg width="738pt" height="181pt"
 viewBox="0.00 0.00 738.00 180.79" xmlns="http://www.w3.org/2000/svg" xmlns:xlink="http://www.w3.org/1999/xlink">
<g id="graph0" class="graph" transform="scale(1 1) rotate(0) translate(4 176.79)">
<title>alpha_decay_rate_module::read_reactions</title>
<polygon fill="white" stroke="transparent" points="-4,4 -4,-176.79 734,-176.79 734,4 -4,4"/>
<!-- Node1 -->
<g id="node1" class="node">
<title>Node1</title>
<g id="a_node1"><a xlink:title="Read the alpha decays.">
<polygon fill="#bfbfbf" stroke="black" points="0,-71.79 0,-101.79 129,-101.79 129,-71.79 0,-71.79"/>
<text text-anchor="start" x="8" y="-89.79" font-family="Helvetica,sans-Serif" font-size="10.00">alpha_decay_rate_module</text>
<text text-anchor="middle" x="64.5" y="-78.79" font-family="Helvetica,sans-Serif" font-size="10.00">::read_reactions</text>
</a>
</g>
</g>
<!-- Node2 -->
<g id="node2" class="node">
<title>Node2</title>
<g id="a_node2"><a xlink:href="namespacebenam__class.html#ad20c821347dd5f7c08dff59c98e69657" target="_top" xlink:title="Returns the index number of isotope &#39;name&#39;.">
<polygon fill="white" stroke="black" points="181.5,-153.29 181.5,-172.29 289.5,-172.29 289.5,-153.29 181.5,-153.29"/>
<text text-anchor="middle" x="235.5" y="-160.29" font-family="Helvetica,sans-Serif" font-size="10.00">benam_class::benam</text>
</a>
</g>
</g>
<!-- Node1&#45;&gt;Node2 -->
<g id="edge1" class="edge">
<title>Node1&#45;&gt;Node2</title>
<path fill="none" stroke="midnightblue" d="M87.97,-101.88C107.61,-114.5 137.24,-132.26 165,-143.79 170.76,-146.18 176.92,-148.37 183.09,-150.33"/>
<polygon fill="midnightblue" stroke="midnightblue" points="182.18,-153.71 192.76,-153.23 184.19,-147 182.18,-153.71"/>
</g>
<!-- Node3 -->
<g id="node3" class="node">
<title>Node3</title>
<g id="a_node3"><a xlink:href="namespacebenam__class.html#ad2f566697809a5731e560509d2ca7062" target="_top" xlink:title="Finds an isotope index in the network table, given its A and Z. In case it was not found,...">
<polygon fill="white" stroke="black" points="183.5,-115.29 183.5,-134.29 287.5,-134.29 287.5,-115.29 183.5,-115.29"/>
<text text-anchor="middle" x="235.5" y="-122.29" font-family="Helvetica,sans-Serif" font-size="10.00">benam_class::findaz</text>
</a>
</g>
</g>
<!-- Node1&#45;&gt;Node3 -->
<g id="edge2" class="edge">
<title>Node1&#45;&gt;Node3</title>
<path fill="none" stroke="midnightblue" d="M129.39,-101.16C146.73,-105.06 165.3,-109.23 181.94,-112.97"/>
<polygon fill="midnightblue" stroke="midnightblue" points="181.49,-116.46 192.02,-115.24 183.03,-109.63 181.49,-116.46"/>
</g>
<!-- Node4 -->
<g id="node4" class="node">
<title>Node4</title>
<g id="a_node4"><a xlink:href="namespacebenam__class.html#af8144ea43fb40187e32fb83da48458f1" target="_top" xlink:title="Returns the 1/n! factor where n is the number of equal isotopes entering a reaction....">
<polygon fill="white" stroke="black" points="165,-77.29 165,-96.29 306,-96.29 306,-77.29 165,-77.29"/>
<text text-anchor="middle" x="235.5" y="-84.29" font-family="Helvetica,sans-Serif" font-size="10.00">benam_class::getcoefficients</text>
</a>
</g>
</g>
<!-- Node1&#45;&gt;Node4 -->
<g id="edge3" class="edge">
<title>Node1&#45;&gt;Node4</title>
<path fill="none" stroke="midnightblue" d="M129.39,-86.79C137.63,-86.79 146.15,-86.79 154.61,-86.79"/>
<polygon fill="midnightblue" stroke="midnightblue" points="154.87,-90.29 164.87,-86.79 154.87,-83.29 154.87,-90.29"/>
</g>
<!-- Node5 -->
<g id="node5" class="node">
<title>Node5</title>
<g id="a_node5"><a xlink:href="namespacefile__handling__class.html#aab870caaf9cbaaf635d537708efbf793" target="_top" xlink:title="Same for reading (input file)">
<polygon fill="white" stroke="black" points="186.5,-27.79 186.5,-57.79 284.5,-57.79 284.5,-27.79 186.5,-27.79"/>
<text text-anchor="start" x="194.5" y="-45.79" font-family="Helvetica,sans-Serif" font-size="10.00">file_handling_class</text>
<text text-anchor="middle" x="235.5" y="-34.79" font-family="Helvetica,sans-Serif" font-size="10.00">::open_infile</text>
</a>
</g>
</g>
<!-- Node1&#45;&gt;Node5 -->
<g id="edge4" class="edge">
<title>Node1&#45;&gt;Node5</title>
<path fill="none" stroke="midnightblue" d="M123.19,-71.77C140.37,-67.3 159.21,-62.39 176.42,-57.91"/>
<polygon fill="midnightblue" stroke="midnightblue" points="177.55,-61.24 186.34,-55.33 175.78,-54.46 177.55,-61.24"/>
</g>
<!-- Node7 -->
<g id="node7" class="node">
<title>Node7</title>
<g id="a_node7"><a xlink:href="namespaceerror__msg__class.html#a2453d3b7cb363115c046840baa1dfb75" target="_top" xlink:title="Raise a exception with a given error message.">
<polygon fill="white" stroke="black" points="476,-21.79 476,-51.79 590,-51.79 590,-21.79 476,-21.79"/>
<text text-anchor="start" x="484" y="-39.79" font-family="Helvetica,sans-Serif" font-size="10.00">error_msg_class::raise</text>
<text text-anchor="middle" x="533" y="-28.79" font-family="Helvetica,sans-Serif" font-size="10.00">_exception</text>
</a>
</g>
</g>
<!-- Node1&#45;&gt;Node7 -->
<g id="edge9" class="edge">
<title>Node1&#45;&gt;Node7</title>
<path fill="none" stroke="midnightblue" d="M80.74,-71.67C98.98,-54.76 131.29,-28.34 165,-17.79 266.4,13.93 391.17,-3.66 466,-19.83"/>
<polygon fill="midnightblue" stroke="midnightblue" points="465.25,-23.25 475.77,-21.99 466.76,-16.41 465.25,-23.25"/>
</g>
<!-- Node6 -->
<g id="node6" class="node">
<title>Node6</title>
<g id="a_node6"><a xlink:href="namespacefile__handling__class.html#af02196bd5eaf70ecd5ab4cc650094d5e" target="_top" xlink:title="Finds the next unused unit number.">
<polygon fill="white" stroke="black" points="342,-65.79 342,-95.79 440,-95.79 440,-65.79 342,-65.79"/>
<text text-anchor="start" x="350" y="-83.79" font-family="Helvetica,sans-Serif" font-size="10.00">file_handling_class</text>
<text text-anchor="middle" x="391" y="-72.79" font-family="Helvetica,sans-Serif" font-size="10.00">::get_next_io_unit</text>
</a>
</g>
</g>
<!-- Node5&#45;&gt;Node6 -->
<g id="edge5" class="edge">
<title>Node5&#45;&gt;Node6</title>
<path fill="none" stroke="midnightblue" d="M284.65,-54.71C299.58,-58.41 316.19,-62.52 331.73,-66.37"/>
<polygon fill="midnightblue" stroke="midnightblue" points="331.21,-69.84 341.76,-68.85 332.89,-63.05 331.21,-69.84"/>
</g>
<!-- Node5&#45;&gt;Node7 -->
<g id="edge8" class="edge">
<title>Node5&#45;&gt;Node7</title>
<path fill="none" stroke="midnightblue" d="M284.63,-41.81C333.9,-40.81 410.83,-39.25 465.81,-38.14"/>
<polygon fill="midnightblue" stroke="midnightblue" points="465.88,-41.64 475.81,-37.93 465.74,-34.64 465.88,-41.64"/>
</g>
<!-- Node6&#45;&gt;Node7 -->
<g id="edge6" class="edge">
<title>Node6&#45;&gt;Node7</title>
<path fill="none" stroke="midnightblue" d="M439.79,-65.77C450.82,-62.31 462.66,-58.58 474.07,-55"/>
<polygon fill="midnightblue" stroke="midnightblue" points="475.46,-58.23 483.95,-51.89 473.36,-51.55 475.46,-58.23"/>
</g>
<!-- Node8 -->
<g id="node8" class="node">
<title>Node8</title>
<g id="a_node8"><a xlink:href="namespaceerror__msg__class.html#a7e065585cc806a5c264de1f088266498" target="_top" xlink:title="Converts a given integer to a string.">
<polygon fill="white" stroke="black" points="626,-21.79 626,-51.79 730,-51.79 730,-21.79 626,-21.79"/>
<text text-anchor="start" x="634" y="-39.79" font-family="Helvetica,sans-Serif" font-size="10.00">error_msg_class::int</text>
<text text-anchor="middle" x="678" y="-28.79" font-family="Helvetica,sans-Serif" font-size="10.00">_to_str</text>
</a>
</g>
</g>
<!-- Node7&#45;&gt;Node8 -->
<g id="edge7" class="edge">
<title>Node7&#45;&gt;Node8</title>
<path fill="none" stroke="midnightblue" d="M590.11,-36.79C598.45,-36.79 607.09,-36.79 615.54,-36.79"/>
<polygon fill="midnightblue" stroke="midnightblue" points="615.71,-40.29 625.71,-36.79 615.71,-33.29 615.71,-40.29"/>
</g>
</g>
</svg>
