<?xml version="1.0" encoding="UTF-8" standalone="no"?>
<!DOCTYPE svg PUBLIC "-//W3C//DTD SVG 1.1//EN"
 "http://www.w3.org/Graphics/SVG/1.1/DTD/svg11.dtd">
<!-- Generated by graphviz version 2.44.0 ()
 -->
<!-- Title: tabulated_rate_module::init_tabulated_rates Pages: 1 -->
<svg width="927pt" height="396pt"
 viewBox="0.00 0.00 927.00 396.15" xmlns="http://www.w3.org/2000/svg" xmlns:xlink="http://www.w3.org/1999/xlink">
<g id="graph0" class="graph" transform="scale(1 1) rotate(0) translate(4 392.15)">
<title>tabulated_rate_module::init_tabulated_rates</title>
<polygon fill="white" stroke="transparent" points="-4,4 -4,-392.15 923,-392.15 923,4 -4,4"/>
<!-- Node1 -->
<g id="node1" class="node">
<title>Node1</title>
<g id="a_node1"><a xlink:title="Initialize tabulated rates.">
<polygon fill="#bfbfbf" stroke="black" points="0,-139.5 0,-169.5 115,-169.5 115,-139.5 0,-139.5"/>
<text text-anchor="start" x="8" y="-157.5" font-family="Helvetica,sans-Serif" font-size="10.00">tabulated_rate_module</text>
<text text-anchor="middle" x="57.5" y="-146.5" font-family="Helvetica,sans-Serif" font-size="10.00">::init_tabulated_rates</text>
</a>
</g>
</g>
<!-- Node2 -->
<g id="node2" class="node">
<title>Node2</title>
<g id="a_node2"><a xlink:href="namespacefile__handling__class.html#aab870caaf9cbaaf635d537708efbf793" target="_top" xlink:title="Same for reading (input file)">
<polygon fill="white" stroke="black" points="333.5,-338.5 333.5,-368.5 431.5,-368.5 431.5,-338.5 333.5,-338.5"/>
<text text-anchor="start" x="341.5" y="-356.5" font-family="Helvetica,sans-Serif" font-size="10.00">file_handling_class</text>
<text text-anchor="middle" x="382.5" y="-345.5" font-family="Helvetica,sans-Serif" font-size="10.00">::open_infile</text>
</a>
</g>
</g>
<!-- Node1&#45;&gt;Node2 -->
<g id="edge1" class="edge">
<title>Node1&#45;&gt;Node2</title>
<path fill="none" stroke="midnightblue" d="M83.04,-169.62C140.41,-204.96 283.33,-293.02 348.35,-333.08"/>
<polygon fill="midnightblue" stroke="midnightblue" points="346.64,-336.14 356.99,-338.4 350.32,-330.18 346.64,-336.14"/>
</g>
<!-- Node6 -->
<g id="node6" class="node">
<title>Node6</title>
<g id="a_node6"><a xlink:href="namespacetabulated__rate__module.html#ab0345a4c09d10f8e2b0ab0427c4c11d5" target="_top" xlink:title="Reads tabulated reaction rates.">
<polygon fill="white" stroke="black" points="156,-139.5 156,-169.5 271,-169.5 271,-139.5 156,-139.5"/>
<text text-anchor="start" x="164" y="-157.5" font-family="Helvetica,sans-Serif" font-size="10.00">tabulated_rate_module</text>
<text text-anchor="middle" x="213.5" y="-146.5" font-family="Helvetica,sans-Serif" font-size="10.00">::readtabulated</text>
</a>
</g>
</g>
<!-- Node1&#45;&gt;Node6 -->
<g id="edge6" class="edge">
<title>Node1&#45;&gt;Node6</title>
<path fill="none" stroke="midnightblue" d="M115.41,-154.5C125.3,-154.5 135.67,-154.5 145.8,-154.5"/>
<polygon fill="midnightblue" stroke="midnightblue" points="145.83,-158 155.83,-154.5 145.83,-151 145.83,-158"/>
</g>
<!-- Node13 -->
<g id="node13" class="node">
<title>Node13</title>
<g id="a_node13"><a xlink:href="namespacetabulated__rate__module.html#a8d0b52c25878d310df45d282e268043a" target="_top" xlink:title="Write the verbose output of the reaction rates.">
<polygon fill="white" stroke="black" points="151,-44.5 151,-74.5 276,-74.5 276,-44.5 151,-44.5"/>
<text text-anchor="start" x="159" y="-62.5" font-family="Helvetica,sans-Serif" font-size="10.00">tabulated_rate_module</text>
<text text-anchor="middle" x="213.5" y="-51.5" font-family="Helvetica,sans-Serif" font-size="10.00">::write_reac_verbose_out</text>
</a>
</g>
</g>
<!-- Node1&#45;&gt;Node13 -->
<g id="edge18" class="edge">
<title>Node1&#45;&gt;Node13</title>
<path fill="none" stroke="midnightblue" d="M82.9,-139.45C108.96,-123.37 150.41,-97.8 179.39,-79.92"/>
<polygon fill="midnightblue" stroke="midnightblue" points="181.28,-82.87 187.96,-74.64 177.61,-76.91 181.28,-82.87"/>
</g>
<!-- Node3 -->
<g id="node3" class="node">
<title>Node3</title>
<g id="a_node3"><a xlink:href="namespacefile__handling__class.html#af02196bd5eaf70ecd5ab4cc650094d5e" target="_top" xlink:title="Finds the next unused unit number.">
<polygon fill="white" stroke="black" points="510,-338.5 510,-368.5 608,-368.5 608,-338.5 510,-338.5"/>
<text text-anchor="start" x="518" y="-356.5" font-family="Helvetica,sans-Serif" font-size="10.00">file_handling_class</text>
<text text-anchor="middle" x="559" y="-345.5" font-family="Helvetica,sans-Serif" font-size="10.00">::get_next_io_unit</text>
</a>
</g>
</g>
<!-- Node2&#45;&gt;Node3 -->
<g id="edge2" class="edge">
<title>Node2&#45;&gt;Node3</title>
<path fill="none" stroke="midnightblue" d="M431.64,-353.5C452.63,-353.5 477.43,-353.5 499.47,-353.5"/>
<polygon fill="midnightblue" stroke="midnightblue" points="499.71,-357 509.71,-353.5 499.71,-350 499.71,-357"/>
</g>
<!-- Node4 -->
<g id="node4" class="node">
<title>Node4</title>
<g id="a_node4"><a xlink:href="namespaceerror__msg__class.html#a2453d3b7cb363115c046840baa1dfb75" target="_top" xlink:title="Raise a exception with a given error message.">
<polygon fill="white" stroke="black" points="665,-305.5 665,-335.5 779,-335.5 779,-305.5 665,-305.5"/>
<text text-anchor="start" x="673" y="-323.5" font-family="Helvetica,sans-Serif" font-size="10.00">error_msg_class::raise</text>
<text text-anchor="middle" x="722" y="-312.5" font-family="Helvetica,sans-Serif" font-size="10.00">_exception</text>
</a>
</g>
</g>
<!-- Node2&#45;&gt;Node4 -->
<g id="edge5" class="edge">
<title>Node2&#45;&gt;Node4</title>
<path fill="none" stroke="midnightblue" d="M430.14,-368.55C480.23,-382.35 561.71,-397.94 629,-378.5 653.79,-371.34 678.32,-355.3 695.82,-341.9"/>
<polygon fill="midnightblue" stroke="midnightblue" points="698.13,-344.53 703.81,-335.58 693.79,-339.04 698.13,-344.53"/>
</g>
<!-- Node3&#45;&gt;Node4 -->
<g id="edge3" class="edge">
<title>Node3&#45;&gt;Node4</title>
<path fill="none" stroke="midnightblue" d="M608.31,-343.6C622.89,-340.61 639.17,-337.27 654.72,-334.09"/>
<polygon fill="midnightblue" stroke="midnightblue" points="655.71,-337.46 664.8,-332.02 654.3,-330.6 655.71,-337.46"/>
</g>
<!-- Node5 -->
<g id="node5" class="node">
<title>Node5</title>
<g id="a_node5"><a xlink:href="namespaceerror__msg__class.html#a7e065585cc806a5c264de1f088266498" target="_top" xlink:title="Converts a given integer to a string.">
<polygon fill="white" stroke="black" points="815,-223.5 815,-253.5 919,-253.5 919,-223.5 815,-223.5"/>
<text text-anchor="start" x="823" y="-241.5" font-family="Helvetica,sans-Serif" font-size="10.00">error_msg_class::int</text>
<text text-anchor="middle" x="867" y="-230.5" font-family="Helvetica,sans-Serif" font-size="10.00">_to_str</text>
</a>
</g>
</g>
<!-- Node4&#45;&gt;Node5 -->
<g id="edge4" class="edge">
<title>Node4&#45;&gt;Node5</title>
<path fill="none" stroke="midnightblue" d="M751.63,-305.49C760.45,-300.78 770.17,-295.5 779,-290.5 796.96,-280.33 816.72,-268.57 832.87,-258.8"/>
<polygon fill="midnightblue" stroke="midnightblue" points="834.7,-261.78 841.43,-253.6 831.07,-255.8 834.7,-261.78"/>
</g>
<!-- Node6&#45;&gt;Node5 -->
<g id="edge9" class="edge">
<title>Node6&#45;&gt;Node5</title>
<path fill="none" stroke="midnightblue" d="M271.03,-157.88C351.01,-163.07 501.66,-174.35 629,-192.5 689.24,-201.09 757.37,-214.73 805.07,-224.93"/>
<polygon fill="midnightblue" stroke="midnightblue" points="804.42,-228.37 814.93,-227.05 805.89,-221.52 804.42,-228.37"/>
</g>
<!-- Node7 -->
<g id="node7" class="node">
<title>Node7</title>
<g id="a_node7"><a xlink:href="namespacebenam__class.html#ad20c821347dd5f7c08dff59c98e69657" target="_top" xlink:title="Returns the index number of isotope &#39;name&#39;.">
<polygon fill="white" stroke="black" points="328.5,-126 328.5,-145 436.5,-145 436.5,-126 328.5,-126"/>
<text text-anchor="middle" x="382.5" y="-133" font-family="Helvetica,sans-Serif" font-size="10.00">benam_class::benam</text>
</a>
</g>
</g>
<!-- Node6&#45;&gt;Node7 -->
<g id="edge7" class="edge">
<title>Node6&#45;&gt;Node7</title>
<path fill="none" stroke="midnightblue" d="M271.04,-148.07C286.25,-146.34 302.8,-144.45 318.35,-142.68"/>
<polygon fill="midnightblue" stroke="midnightblue" points="318.86,-146.15 328.4,-141.54 318.07,-139.19 318.86,-146.15"/>
</g>
<!-- Node8 -->
<g id="node8" class="node">
<title>Node8</title>
<g id="a_node8"><a xlink:href="namespacebenam__class.html#af8144ea43fb40187e32fb83da48458f1" target="_top" xlink:title="Returns the 1/n! factor where n is the number of equal isotopes entering a reaction....">
<polygon fill="white" stroke="black" points="312,-88 312,-107 453,-107 453,-88 312,-88"/>
<text text-anchor="middle" x="382.5" y="-95" font-family="Helvetica,sans-Serif" font-size="10.00">benam_class::getcoefficients</text>
</a>
</g>
</g>
<!-- Node6&#45;&gt;Node8 -->
<g id="edge8" class="edge">
<title>Node6&#45;&gt;Node8</title>
<path fill="none" stroke="midnightblue" d="M250.75,-139.33C268.96,-131.97 291.47,-123.29 312,-116.5 319.1,-114.15 326.68,-111.86 334.12,-109.74"/>
<polygon fill="midnightblue" stroke="midnightblue" points="335.08,-113.1 343.77,-107.04 333.2,-106.36 335.08,-113.1"/>
</g>
<!-- Node9 -->
<g id="node9" class="node">
<title>Node9</title>
<g id="a_node9"><a xlink:href="namespacereaclib__rate__module.html#a8e23d45ed0420de076b8f07863151a34" target="_top" xlink:title="Set a flag for the reaction type.">
<polygon fill="white" stroke="black" points="330.5,-221.5 330.5,-251.5 434.5,-251.5 434.5,-221.5 330.5,-221.5"/>
<text text-anchor="start" x="338.5" y="-239.5" font-family="Helvetica,sans-Serif" font-size="10.00">reaclib_rate_module</text>
<text text-anchor="middle" x="382.5" y="-228.5" font-family="Helvetica,sans-Serif" font-size="10.00">::set_reaction_type</text>
</a>
</g>
</g>
<!-- Node6&#45;&gt;Node9 -->
<g id="edge10" class="edge">
<title>Node6&#45;&gt;Node9</title>
<path fill="none" stroke="midnightblue" d="M245.13,-169.54C272.23,-182.85 311.97,-202.36 341.56,-216.89"/>
<polygon fill="midnightblue" stroke="midnightblue" points="340.26,-220.15 350.78,-221.42 343.35,-213.87 340.26,-220.15"/>
</g>
<!-- Node10 -->
<g id="node10" class="node">
<title>Node10</title>
<g id="a_node10"><a xlink:href="namespacebenam__class.html#afd880df70f94c289b6bda0647f4494e3" target="_top" xlink:title="Getter of net_names, translating indices to a nucleus name.">
<polygon fill="white" stroke="black" points="489,-202 489,-221 629,-221 629,-202 489,-202"/>
<text text-anchor="middle" x="559" y="-209" font-family="Helvetica,sans-Serif" font-size="10.00">benam_class::get_net_name</text>
</a>
</g>
</g>
<!-- Node9&#45;&gt;Node10 -->
<g id="edge11" class="edge">
<title>Node9&#45;&gt;Node10</title>
<path fill="none" stroke="midnightblue" d="M434.91,-229.13C449.43,-227.05 465.54,-224.75 481.2,-222.5"/>
<polygon fill="midnightblue" stroke="midnightblue" points="482,-225.92 491.41,-221.04 481.01,-218.99 482,-225.92"/>
</g>
<!-- Node11 -->
<g id="node11" class="node">
<title>Node11</title>
<g id="a_node11"><a xlink:href="namespacenucstuff__class.html#adb871d9f6d0e6ec5db0a0808201ab3db" target="_top" xlink:title="Get number of products of the reaction based on the reaclib chapter.">
<polygon fill="white" stroke="black" points="510,-289.5 510,-319.5 608,-319.5 608,-289.5 510,-289.5"/>
<text text-anchor="start" x="518" y="-307.5" font-family="Helvetica,sans-Serif" font-size="10.00">nucstuff_class::get</text>
<text text-anchor="middle" x="559" y="-296.5" font-family="Helvetica,sans-Serif" font-size="10.00">_nr_products</text>
</a>
</g>
</g>
<!-- Node9&#45;&gt;Node11 -->
<g id="edge12" class="edge">
<title>Node9&#45;&gt;Node11</title>
<path fill="none" stroke="midnightblue" d="M418.45,-251.7C438.9,-260.43 465.27,-271.43 489,-280.5 493.77,-282.32 498.74,-284.16 503.73,-285.97"/>
<polygon fill="midnightblue" stroke="midnightblue" points="502.72,-289.33 513.32,-289.4 505.08,-282.74 502.72,-289.33"/>
</g>
<!-- Node12 -->
<g id="node12" class="node">
<title>Node12</title>
<g id="a_node12"><a xlink:href="namespacenucstuff__class.html#a5fa1f79d38fd5b01a5d6d797fea0132d" target="_top" xlink:title="Get number of reactants of the reaction based on the reaclib chapter.">
<polygon fill="white" stroke="black" points="510,-240.5 510,-270.5 608,-270.5 608,-240.5 510,-240.5"/>
<text text-anchor="start" x="518" y="-258.5" font-family="Helvetica,sans-Serif" font-size="10.00">nucstuff_class::get</text>
<text text-anchor="middle" x="559" y="-247.5" font-family="Helvetica,sans-Serif" font-size="10.00">_nr_reactants</text>
</a>
</g>
</g>
<!-- Node9&#45;&gt;Node12 -->
<g id="edge15" class="edge">
<title>Node9&#45;&gt;Node12</title>
<path fill="none" stroke="midnightblue" d="M434.91,-242.1C455.3,-244.32 478.85,-246.88 499.86,-249.17"/>
<polygon fill="midnightblue" stroke="midnightblue" points="499.62,-252.66 509.94,-250.27 500.38,-245.71 499.62,-252.66"/>
</g>
<!-- Node11&#45;&gt;Node4 -->
<g id="edge14" class="edge">
<title>Node11&#45;&gt;Node4</title>
<path fill="none" stroke="midnightblue" d="M608.31,-309.3C622.89,-310.75 639.17,-312.37 654.72,-313.91"/>
<polygon fill="midnightblue" stroke="midnightblue" points="654.51,-317.41 664.8,-314.92 655.2,-310.44 654.51,-317.41"/>
</g>
<!-- Node11&#45;&gt;Node5 -->
<g id="edge13" class="edge">
<title>Node11&#45;&gt;Node5</title>
<path fill="none" stroke="midnightblue" d="M608.42,-295.48C652.9,-287.03 720.57,-273.75 779,-260.5 787.3,-258.62 796.02,-256.54 804.6,-254.43"/>
<polygon fill="midnightblue" stroke="midnightblue" points="805.72,-257.76 814.58,-251.95 804.03,-250.96 805.72,-257.76"/>
</g>
<!-- Node12&#45;&gt;Node4 -->
<g id="edge17" class="edge">
<title>Node12&#45;&gt;Node4</title>
<path fill="none" stroke="midnightblue" d="M602.85,-270.56C611.55,-273.74 620.6,-277.15 629,-280.5 645.21,-286.95 662.83,-294.49 678.27,-301.26"/>
<polygon fill="midnightblue" stroke="midnightblue" points="677,-304.53 687.57,-305.36 679.83,-298.12 677,-304.53"/>
</g>
<!-- Node12&#45;&gt;Node5 -->
<g id="edge16" class="edge">
<title>Node12&#45;&gt;Node5</title>
<path fill="none" stroke="midnightblue" d="M608.15,-252.83C661.26,-249.87 746.85,-245.12 804.71,-241.91"/>
<polygon fill="midnightblue" stroke="midnightblue" points="805.03,-245.39 814.82,-241.34 804.64,-238.4 805.03,-245.39"/>
</g>
<!-- Node13&#45;&gt;Node5 -->
<g id="edge19" class="edge">
<title>Node13&#45;&gt;Node5</title>
<path fill="none" stroke="midnightblue" d="M276.16,-59.99C324.7,-61.44 393.8,-65.84 453,-78.5 603.39,-110.66 637.66,-133.9 779,-194.5 795.75,-201.68 813.79,-210.6 829.09,-218.53"/>
<polygon fill="midnightblue" stroke="midnightblue" points="827.73,-221.78 838.22,-223.32 830.98,-215.58 827.73,-221.78"/>
</g>
<!-- Node14 -->
<g id="node14" class="node">
<title>Node14</title>
<g id="a_node14"><a xlink:href="namespaceerror__msg__class.html#a339dd5b38c125b6a04653762c94a91f2" target="_top" xlink:title="Write data to the standard output (usually OUT)">
<polygon fill="white" stroke="black" points="325.5,-0.5 325.5,-30.5 439.5,-30.5 439.5,-0.5 325.5,-0.5"/>
<text text-anchor="start" x="333.5" y="-18.5" font-family="Helvetica,sans-Serif" font-size="10.00">error_msg_class::write</text>
<text text-anchor="middle" x="382.5" y="-7.5" font-family="Helvetica,sans-Serif" font-size="10.00">_data_to_std_out</text>
</a>
</g>
</g>
<!-- Node13&#45;&gt;Node14 -->
<g id="edge20" class="edge">
<title>Node13&#45;&gt;Node14</title>
<path fill="none" stroke="midnightblue" d="M271.5,-44.48C285.63,-40.76 300.89,-36.74 315.41,-32.91"/>
<polygon fill="midnightblue" stroke="midnightblue" points="316.54,-36.23 325.32,-30.3 314.76,-29.47 316.54,-36.23"/>
</g>
<!-- Node15 -->
<g id="node15" class="node">
<title>Node15</title>
<g id="a_node15"><a xlink:href="namespaceerror__msg__class.html#af62b9a0c5997255e792b9ebd7322a6a3" target="_top" xlink:title="Write the header of the standard output (usually OUT)">
<polygon fill="white" stroke="black" points="502,-0.5 502,-30.5 616,-30.5 616,-0.5 502,-0.5"/>
<text text-anchor="start" x="510" y="-18.5" font-family="Helvetica,sans-Serif" font-size="10.00">error_msg_class::write</text>
<text text-anchor="middle" x="559" y="-7.5" font-family="Helvetica,sans-Serif" font-size="10.00">_header</text>
</a>
</g>
</g>
<!-- Node14&#45;&gt;Node15 -->
<g id="edge21" class="edge">
<title>Node14&#45;&gt;Node15</title>
<path fill="none" stroke="midnightblue" d="M439.67,-9.15C456.18,-8.71 474.38,-8.63 491.47,-8.92"/>
<polygon fill="midnightblue" stroke="midnightblue" points="491.86,-12.43 501.93,-9.15 492.01,-5.43 491.86,-12.43"/>
</g>
<!-- Node15&#45;&gt;Node14 -->
<g id="edge22" class="edge">
<title>Node15&#45;&gt;Node14</title>
<path fill="none" stroke="midnightblue" d="M501.93,-21.85C485.44,-22.29 467.23,-22.37 450.14,-22.08"/>
<polygon fill="midnightblue" stroke="midnightblue" points="449.75,-18.57 439.67,-21.85 449.6,-25.57 449.75,-18.57"/>
</g>
</g>
</svg>
