<?xml version="1.0" encoding="UTF-8" standalone="no"?>
<!DOCTYPE svg PUBLIC "-//W3C//DTD SVG 1.1//EN"
 "http://www.w3.org/Graphics/SVG/1.1/DTD/svg11.dtd">
<!-- Generated by graphviz version 2.44.0 ()
 -->
<!-- Title: winnse_module::winnse_guess Pages: 1 -->
<svg width="1113pt" height="501pt"
 viewBox="0.00 0.00 1113.00 501.01" xmlns="http://www.w3.org/2000/svg" xmlns:xlink="http://www.w3.org/1999/xlink">
<g id="graph0" class="graph" transform="scale(1 1) rotate(0) translate(4 497.01)">
<title>winnse_module::winnse_guess</title>
<polygon fill="white" stroke="transparent" points="-4,4 -4,-497.01 1109,-497.01 1109,4 -4,4"/>
<!-- Node1 -->
<g id="node1" class="node">
<title>Node1</title>
<g id="a_node1"><a xlink:title="Calculate NSE composition with an initial guess.">
<polygon fill="#bfbfbf" stroke="black" points="0,-327 0,-357 119,-357 119,-327 0,-327"/>
<text text-anchor="start" x="8" y="-345" font-family="Helvetica,sans-Serif" font-size="10.00">winnse_module::winnse</text>
<text text-anchor="middle" x="59.5" y="-334" font-family="Helvetica,sans-Serif" font-size="10.00">_guess</text>
</a>
</g>
</g>
<!-- Node2 -->
<g id="node2" class="node">
<title>Node2</title>
<g id="a_node2"><a xlink:href="namespacewinnse__module.html#a4bf79382f9c6599e04b48bf08e193270" target="_top" xlink:title="Solves the nse&#45;equations.">
<polygon fill="white" stroke="black" points="310,-289.5 310,-308.5 453,-308.5 453,-289.5 310,-289.5"/>
<text text-anchor="middle" x="381.5" y="-296.5" font-family="Helvetica,sans-Serif" font-size="10.00">winnse_module::winnse_calc</text>
</a>
</g>
</g>
<!-- Node1&#45;&gt;Node2 -->
<g id="edge1" class="edge">
<title>Node1&#45;&gt;Node2</title>
<path fill="none" stroke="midnightblue" d="M119.19,-334.11C169.92,-327.3 243.72,-317.38 299.96,-309.82"/>
<polygon fill="midnightblue" stroke="midnightblue" points="300.45,-313.29 309.89,-308.49 299.51,-306.35 300.45,-313.29"/>
</g>
<!-- Node21 -->
<g id="node21" class="node">
<title>Node21</title>
<g id="a_node21"><a xlink:href="namespacewinnse__module.html#a52f86665c1e1c3a34ef53095bf471308" target="_top" xlink:title="This routine descends from an initially high temperature, at which the NSE abudances can be accuratel...">
<polygon fill="white" stroke="black" points="155,-390 155,-420 274,-420 274,-390 155,-390"/>
<text text-anchor="start" x="163" y="-408" font-family="Helvetica,sans-Serif" font-size="10.00">winnse_module::winnse</text>
<text text-anchor="middle" x="214.5" y="-397" font-family="Helvetica,sans-Serif" font-size="10.00">_descend</text>
</a>
</g>
</g>
<!-- Node1&#45;&gt;Node21 -->
<g id="edge27" class="edge">
<title>Node1&#45;&gt;Node21</title>
<path fill="none" stroke="midnightblue" d="M97.15,-357.09C118.27,-365.79 145,-376.8 167.52,-386.07"/>
<polygon fill="midnightblue" stroke="midnightblue" points="166.31,-389.35 176.89,-389.92 168.97,-382.88 166.31,-389.35"/>
</g>
<!-- Node3 -->
<g id="node3" class="node">
<title>Node3</title>
<g id="a_node3"><a xlink:href="namespaceerror__msg__class.html#a7e065585cc806a5c264de1f088266498" target="_top" xlink:title="Converts a given integer to a string.">
<polygon fill="white" stroke="black" points="837,-341 837,-371 941,-371 941,-341 837,-341"/>
<text text-anchor="start" x="845" y="-359" font-family="Helvetica,sans-Serif" font-size="10.00">error_msg_class::int</text>
<text text-anchor="middle" x="889" y="-348" font-family="Helvetica,sans-Serif" font-size="10.00">_to_str</text>
</a>
</g>
</g>
<!-- Node2&#45;&gt;Node3 -->
<g id="edge2" class="edge">
<title>Node2&#45;&gt;Node3</title>
<path fill="none" stroke="midnightblue" d="M397.05,-289.47C454.24,-253.3 666.98,-131.17 801,-223 837.56,-248.05 810.62,-280.38 837,-316 842.15,-322.95 848.81,-329.34 855.61,-334.87"/>
<polygon fill="midnightblue" stroke="midnightblue" points="853.49,-337.66 863.56,-340.96 857.74,-332.1 853.49,-337.66"/>
</g>
<!-- Node4 -->
<g id="node4" class="node">
<title>Node4</title>
<g id="a_node4"><a xlink:href="namespacewinnse__module.html#ab51d55fb32259605b02d665c4bfb979b" target="_top" xlink:title="Calls screening subroutine and adds subsequent proton capture screening corrections in scrn(1:zmax).">
<polygon fill="white" stroke="black" points="670.5,-232 670.5,-262 774.5,-262 774.5,-232 670.5,-232"/>
<text text-anchor="start" x="678.5" y="-250" font-family="Helvetica,sans-Serif" font-size="10.00">winnse_module::nse</text>
<text text-anchor="middle" x="722.5" y="-239" font-family="Helvetica,sans-Serif" font-size="10.00">_screen</text>
</a>
</g>
</g>
<!-- Node2&#45;&gt;Node4 -->
<g id="edge3" class="edge">
<title>Node2&#45;&gt;Node4</title>
<path fill="none" stroke="midnightblue" d="M444.68,-289.46C505.93,-280.07 598.95,-265.8 659.98,-256.44"/>
<polygon fill="midnightblue" stroke="midnightblue" points="660.88,-259.84 670.24,-254.86 659.82,-252.92 660.88,-259.84"/>
</g>
<!-- Node5 -->
<g id="node5" class="node">
<title>Node5</title>
<g id="a_node5"><a xlink:href="namespaceerror__msg__class.html#a2453d3b7cb363115c046840baa1dfb75" target="_top" xlink:title="Raise a exception with a given error message.">
<polygon fill="white" stroke="black" points="665.5,-358 665.5,-388 779.5,-388 779.5,-358 665.5,-358"/>
<text text-anchor="start" x="673.5" y="-376" font-family="Helvetica,sans-Serif" font-size="10.00">error_msg_class::raise</text>
<text text-anchor="middle" x="722.5" y="-365" font-family="Helvetica,sans-Serif" font-size="10.00">_exception</text>
</a>
</g>
</g>
<!-- Node2&#45;&gt;Node5 -->
<g id="edge4" class="edge">
<title>Node2&#45;&gt;Node5</title>
<path fill="none" stroke="midnightblue" d="M398.83,-308.56C419.2,-319.99 455.45,-338.74 489,-348 543.69,-363.09 607.95,-369.15 655.04,-371.55"/>
<polygon fill="midnightblue" stroke="midnightblue" points="654.97,-375.05 665.12,-372.02 655.29,-368.06 654.97,-375.05"/>
</g>
<!-- Node6 -->
<g id="node6" class="node">
<title>Node6</title>
<g id="a_node6"><a xlink:href="namespacewinnse__module.html#a7f059289a0c97c6be525337bfd649af9" target="_top" xlink:title="Calculates the nse coefficients C, as given in Hix,Thielemann &#39;99, Eq.25.">
<polygon fill="white" stroke="black" points="648.5,-281.5 648.5,-300.5 796.5,-300.5 796.5,-281.5 648.5,-281.5"/>
<text text-anchor="middle" x="722.5" y="-288.5" font-family="Helvetica,sans-Serif" font-size="10.00">winnse_module::wincnse_calc</text>
</a>
</g>
</g>
<!-- Node2&#45;&gt;Node6 -->
<g id="edge6" class="edge">
<title>Node2&#45;&gt;Node6</title>
<path fill="none" stroke="midnightblue" d="M453.15,-297.33C507.06,-296.06 581.48,-294.3 638.27,-292.96"/>
<polygon fill="midnightblue" stroke="midnightblue" points="638.39,-296.46 648.3,-292.73 638.22,-289.46 638.39,-296.46"/>
</g>
<!-- Node8 -->
<g id="node8" class="node">
<title>Node8</title>
<g id="a_node8"><a xlink:href="namespacewinnse__module.html#a72eefa0ccd8f0859c0019d2d18fad155" target="_top" xlink:title="Solves the nse&#45;equations using the Powell hybrid method.">
<polygon fill="white" stroke="black" points="489,-144 489,-174 608,-174 608,-144 489,-144"/>
<text text-anchor="start" x="497" y="-162" font-family="Helvetica,sans-Serif" font-size="10.00">winnse_module::winnse</text>
<text text-anchor="middle" x="548.5" y="-151" font-family="Helvetica,sans-Serif" font-size="10.00">_calc_hybrid_powell</text>
</a>
</g>
</g>
<!-- Node2&#45;&gt;Node8 -->
<g id="edge8" class="edge">
<title>Node2&#45;&gt;Node8</title>
<path fill="none" stroke="midnightblue" d="M389.91,-289.44C406.13,-269 446.71,-220.33 489,-189 493.82,-185.43 499.12,-182.06 504.51,-178.96"/>
<polygon fill="midnightblue" stroke="midnightblue" points="506.48,-181.88 513.58,-174.02 503.13,-175.73 506.48,-181.88"/>
</g>
<!-- Node19 -->
<g id="node19" class="node">
<title>Node19</title>
<g id="a_node19"><a xlink:href="namespacewinnse__module.html#a1789147c5a6bde2c78d2bdee255a44b8" target="_top" xlink:title="Solves the nse&#45;equations using a 2&#45;dimensional newton&#45;raphson scheme.">
<polygon fill="white" stroke="black" points="489,-308 489,-338 608,-338 608,-308 489,-308"/>
<text text-anchor="start" x="497" y="-326" font-family="Helvetica,sans-Serif" font-size="10.00">winnse_module::winnse</text>
<text text-anchor="middle" x="548.5" y="-315" font-family="Helvetica,sans-Serif" font-size="10.00">_calc_nr</text>
</a>
</g>
</g>
<!-- Node2&#45;&gt;Node19 -->
<g id="edge21" class="edge">
<title>Node2&#45;&gt;Node19</title>
<path fill="none" stroke="midnightblue" d="M448.19,-308.55C458.3,-310.02 468.76,-311.55 478.93,-313.03"/>
<polygon fill="midnightblue" stroke="midnightblue" points="478.58,-316.51 488.98,-314.49 479.59,-309.59 478.58,-316.51"/>
</g>
<!-- Node5&#45;&gt;Node3 -->
<g id="edge5" class="edge">
<title>Node5&#45;&gt;Node3</title>
<path fill="none" stroke="midnightblue" d="M779.65,-367.2C794.85,-365.63 811.36,-363.92 826.82,-362.32"/>
<polygon fill="midnightblue" stroke="midnightblue" points="827.21,-365.8 836.8,-361.29 826.49,-358.84 827.21,-365.8"/>
</g>
<!-- Node7 -->
<g id="node7" class="node">
<title>Node7</title>
<g id="a_node7"><a xlink:href="namespacenucstuff__class.html#a7f6b5ddec08f9564638a58091e6940d7" target="_top" xlink:title="Calculates partition function.">
<polygon fill="white" stroke="black" points="837.5,-276 837.5,-306 940.5,-306 940.5,-276 837.5,-276"/>
<text text-anchor="start" x="845.5" y="-294" font-family="Helvetica,sans-Serif" font-size="10.00">nucstuff_class::inter</text>
<text text-anchor="middle" x="889" y="-283" font-family="Helvetica,sans-Serif" font-size="10.00">_partf</text>
</a>
</g>
</g>
<!-- Node6&#45;&gt;Node7 -->
<g id="edge7" class="edge">
<title>Node6&#45;&gt;Node7</title>
<path fill="none" stroke="midnightblue" d="M796.61,-291C806.8,-291 817.18,-291 827.11,-291"/>
<polygon fill="midnightblue" stroke="midnightblue" points="827.27,-294.5 837.27,-291 827.27,-287.5 827.27,-294.5"/>
</g>
<!-- Node9 -->
<g id="node9" class="node">
<title>Node9</title>
<g id="a_node9"><a xlink:href="fsolve_8f90.html#ad671f9a8a86626f13d0db91642c1ac9e" target="_top" xlink:title=" ">
<polygon fill="white" stroke="black" points="701,-114.5 701,-133.5 744,-133.5 744,-114.5 701,-114.5"/>
<text text-anchor="middle" x="722.5" y="-121.5" font-family="Helvetica,sans-Serif" font-size="10.00">fsolve</text>
</a>
</g>
</g>
<!-- Node8&#45;&gt;Node9 -->
<g id="edge9" class="edge">
<title>Node8&#45;&gt;Node9</title>
<path fill="none" stroke="midnightblue" d="M608.21,-147.05C636.06,-141.39 668.17,-134.85 691.08,-130.19"/>
<polygon fill="midnightblue" stroke="midnightblue" points="691.81,-133.61 700.91,-128.19 690.41,-126.75 691.81,-133.61"/>
</g>
<!-- Node18 -->
<g id="node18" class="node">
<title>Node18</title>
<g id="a_node18"><a xlink:href="winnse__module_8f90.html#a76b0f9d4a7d2b6b5cfe01d69af969c0d" target="_top" xlink:title="Determines the mass and charge conservation for the NSE calculation.">
<polygon fill="white" stroke="black" points="644,-152.5 644,-171.5 801,-171.5 801,-152.5 644,-152.5"/>
<text text-anchor="middle" x="722.5" y="-159.5" font-family="Helvetica,sans-Serif" font-size="10.00">mass_and_charge_conservation</text>
</a>
</g>
</g>
<!-- Node8&#45;&gt;Node18 -->
<g id="edge20" class="edge">
<title>Node8&#45;&gt;Node18</title>
<path fill="none" stroke="midnightblue" d="M608.21,-160.02C616.47,-160.17 625.09,-160.32 633.74,-160.47"/>
<polygon fill="midnightblue" stroke="midnightblue" points="633.83,-163.97 643.89,-160.65 633.95,-156.97 633.83,-163.97"/>
</g>
<!-- Node10 -->
<g id="node10" class="node">
<title>Node10</title>
<g id="a_node10"><a xlink:href="fsolve_8f90.html#a9d21cb00f8d0421a74dc05aebe71203a" target="_top" xlink:title=" ">
<polygon fill="white" stroke="black" points="869,-114.5 869,-133.5 909,-133.5 909,-114.5 869,-114.5"/>
<text text-anchor="middle" x="889" y="-121.5" font-family="Helvetica,sans-Serif" font-size="10.00">hybrd</text>
</a>
</g>
</g>
<!-- Node9&#45;&gt;Node10 -->
<g id="edge10" class="edge">
<title>Node9&#45;&gt;Node10</title>
<path fill="none" stroke="midnightblue" d="M744,-124C772.79,-124 825.35,-124 858.38,-124"/>
<polygon fill="midnightblue" stroke="midnightblue" points="858.78,-127.5 868.77,-124 858.77,-120.5 858.78,-127.5"/>
</g>
<!-- Node11 -->
<g id="node11" class="node">
<title>Node11</title>
<g id="a_node11"><a xlink:href="fsolve_8f90.html#ab5a1319962e4855e0a2b7a7431085275" target="_top" xlink:title=" ">
<polygon fill="white" stroke="black" points="978.5,-228.5 978.5,-247.5 1023.5,-247.5 1023.5,-228.5 978.5,-228.5"/>
<text text-anchor="middle" x="1001" y="-235.5" font-family="Helvetica,sans-Serif" font-size="10.00">dogleg</text>
</a>
</g>
</g>
<!-- Node10&#45;&gt;Node11 -->
<g id="edge11" class="edge">
<title>Node10&#45;&gt;Node11</title>
<path fill="none" stroke="midnightblue" d="M897.99,-133.57C912.85,-151.18 946.03,-189.58 977,-219 977.93,-219.88 978.89,-220.77 979.88,-221.66"/>
<polygon fill="midnightblue" stroke="midnightblue" points="977.69,-224.39 987.55,-228.25 982.25,-219.08 977.69,-224.39"/>
</g>
<!-- Node12 -->
<g id="node12" class="node">
<title>Node12</title>
<g id="a_node12"><a xlink:href="fsolve_8f90.html#a07a8827d47eead570957d377e64f7974" target="_top" xlink:title=" ">
<polygon fill="white" stroke="black" points="1061,-190.5 1061,-209.5 1105,-209.5 1105,-190.5 1061,-190.5"/>
<text text-anchor="middle" x="1083" y="-197.5" font-family="Helvetica,sans-Serif" font-size="10.00">enorm</text>
</a>
</g>
</g>
<!-- Node10&#45;&gt;Node12 -->
<g id="edge13" class="edge">
<title>Node10&#45;&gt;Node12</title>
<path fill="none" stroke="midnightblue" d="M909.11,-131.57C942.43,-144.75 1011.39,-172.05 1051.42,-187.9"/>
<polygon fill="midnightblue" stroke="midnightblue" points="1050.35,-191.24 1060.94,-191.66 1052.93,-184.73 1050.35,-191.24"/>
</g>
<!-- Node13 -->
<g id="node13" class="node">
<title>Node13</title>
<g id="a_node13"><a xlink:href="fsolve_8f90.html#ab8444c326197a29a9f06bb863a1cee4a" target="_top" xlink:title=" ">
<polygon fill="white" stroke="black" points="979.5,-114.5 979.5,-133.5 1022.5,-133.5 1022.5,-114.5 979.5,-114.5"/>
<text text-anchor="middle" x="1001" y="-121.5" font-family="Helvetica,sans-Serif" font-size="10.00">fdjac1</text>
</a>
</g>
</g>
<!-- Node10&#45;&gt;Node13 -->
<g id="edge14" class="edge">
<title>Node10&#45;&gt;Node13</title>
<path fill="none" stroke="midnightblue" d="M909.16,-124C925.68,-124 949.83,-124 969.08,-124"/>
<polygon fill="midnightblue" stroke="midnightblue" points="969.19,-127.5 979.19,-124 969.19,-120.5 969.19,-127.5"/>
</g>
<!-- Node14 -->
<g id="node14" class="node">
<title>Node14</title>
<g id="a_node14"><a xlink:href="fsolve_8f90.html#a12e8db1e181463d5c3af21f2b1b6b5a7" target="_top" xlink:title=" ">
<polygon fill="white" stroke="black" points="980.5,-76.5 980.5,-95.5 1021.5,-95.5 1021.5,-76.5 980.5,-76.5"/>
<text text-anchor="middle" x="1001" y="-83.5" font-family="Helvetica,sans-Serif" font-size="10.00">qform</text>
</a>
</g>
</g>
<!-- Node10&#45;&gt;Node14 -->
<g id="edge15" class="edge">
<title>Node10&#45;&gt;Node14</title>
<path fill="none" stroke="midnightblue" d="M909.16,-117.38C926.14,-111.51 951.2,-102.86 970.7,-96.12"/>
<polygon fill="midnightblue" stroke="midnightblue" points="972.01,-99.37 980.32,-92.8 969.72,-92.76 972.01,-99.37"/>
</g>
<!-- Node15 -->
<g id="node15" class="node">
<title>Node15</title>
<g id="a_node15"><a xlink:href="fsolve_8f90.html#a64d35f73f2a85378c24dd7b99ddb0c0f" target="_top" xlink:title=" ">
<polygon fill="white" stroke="black" points="982,-190.5 982,-209.5 1020,-209.5 1020,-190.5 982,-190.5"/>
<text text-anchor="middle" x="1001" y="-197.5" font-family="Helvetica,sans-Serif" font-size="10.00">qrfac</text>
</a>
</g>
</g>
<!-- Node10&#45;&gt;Node15 -->
<g id="edge16" class="edge">
<title>Node10&#45;&gt;Node15</title>
<path fill="none" stroke="midnightblue" d="M903.93,-133.63C922.53,-146.47 955.68,-169.38 977.75,-184.63"/>
<polygon fill="midnightblue" stroke="midnightblue" points="975.96,-187.65 986.18,-190.45 979.94,-181.89 975.96,-187.65"/>
</g>
<!-- Node16 -->
<g id="node16" class="node">
<title>Node16</title>
<g id="a_node16"><a xlink:href="fsolve_8f90.html#ab7f6e61d92cfd9ea516435ad523b989b" target="_top" xlink:title=" ">
<polygon fill="white" stroke="black" points="977,-38.5 977,-57.5 1025,-57.5 1025,-38.5 977,-38.5"/>
<text text-anchor="middle" x="1001" y="-45.5" font-family="Helvetica,sans-Serif" font-size="10.00">r1mpyq</text>
</a>
</g>
</g>
<!-- Node10&#45;&gt;Node16 -->
<g id="edge18" class="edge">
<title>Node10&#45;&gt;Node16</title>
<path fill="none" stroke="midnightblue" d="M903.93,-114.37C922.53,-101.53 955.68,-78.62 977.75,-63.37"/>
<polygon fill="midnightblue" stroke="midnightblue" points="979.94,-66.11 986.18,-57.55 975.96,-60.35 979.94,-66.11"/>
</g>
<!-- Node17 -->
<g id="node17" class="node">
<title>Node17</title>
<g id="a_node17"><a xlink:href="fsolve_8f90.html#a8ff726029b3ff9037b390910744ee58b" target="_top" xlink:title=" ">
<polygon fill="white" stroke="black" points="979,-0.5 979,-19.5 1023,-19.5 1023,-0.5 979,-0.5"/>
<text text-anchor="middle" x="1001" y="-7.5" font-family="Helvetica,sans-Serif" font-size="10.00">r1updt</text>
</a>
</g>
</g>
<!-- Node10&#45;&gt;Node17 -->
<g id="edge19" class="edge">
<title>Node10&#45;&gt;Node17</title>
<path fill="none" stroke="midnightblue" d="M897.99,-114.43C912.85,-96.82 946.03,-58.42 977,-29 977.93,-28.12 978.89,-27.23 979.88,-26.34"/>
<polygon fill="midnightblue" stroke="midnightblue" points="982.25,-28.92 987.55,-19.75 977.69,-23.61 982.25,-28.92"/>
</g>
<!-- Node11&#45;&gt;Node12 -->
<g id="edge12" class="edge">
<title>Node11&#45;&gt;Node12</title>
<path fill="none" stroke="midnightblue" d="M1022.19,-228.41C1031.38,-224.05 1042.43,-218.79 1052.53,-214"/>
<polygon fill="midnightblue" stroke="midnightblue" points="1054.29,-217.04 1061.82,-209.59 1051.28,-210.72 1054.29,-217.04"/>
</g>
<!-- Node15&#45;&gt;Node12 -->
<g id="edge17" class="edge">
<title>Node15&#45;&gt;Node12</title>
<path fill="none" stroke="midnightblue" d="M1020.15,-200C1029.12,-200 1040.19,-200 1050.48,-200"/>
<polygon fill="midnightblue" stroke="midnightblue" points="1050.8,-203.5 1060.8,-200 1050.8,-196.5 1050.8,-203.5"/>
</g>
<!-- Node19&#45;&gt;Node3 -->
<g id="edge22" class="edge">
<title>Node19&#45;&gt;Node3</title>
<path fill="none" stroke="midnightblue" d="M608.08,-328.71C669.2,-334.67 764.61,-343.97 826.72,-350.03"/>
<polygon fill="midnightblue" stroke="midnightblue" points="826.48,-353.52 836.78,-351.01 827.16,-346.55 826.48,-353.52"/>
</g>
<!-- Node19&#45;&gt;Node4 -->
<g id="edge23" class="edge">
<title>Node19&#45;&gt;Node4</title>
<path fill="none" stroke="midnightblue" d="M574.54,-307.85C593.24,-296.95 619.65,-282.39 644,-272 649.33,-269.72 654.94,-267.54 660.61,-265.47"/>
<polygon fill="midnightblue" stroke="midnightblue" points="661.89,-268.73 670.15,-262.1 659.56,-262.13 661.89,-268.73"/>
</g>
<!-- Node19&#45;&gt;Node5 -->
<g id="edge25" class="edge">
<title>Node19&#45;&gt;Node5</title>
<path fill="none" stroke="midnightblue" d="M601.11,-338C619.64,-343.39 640.74,-349.52 660.03,-355.13"/>
<polygon fill="midnightblue" stroke="midnightblue" points="659.05,-358.49 669.63,-357.92 661.01,-351.77 659.05,-358.49"/>
</g>
<!-- Node19&#45;&gt;Node6 -->
<g id="edge26" class="edge">
<title>Node19&#45;&gt;Node6</title>
<path fill="none" stroke="midnightblue" d="M608.21,-312.08C624.89,-308.97 643.1,-305.59 659.95,-302.45"/>
<polygon fill="midnightblue" stroke="midnightblue" points="661.05,-305.81 670.24,-300.54 659.77,-298.93 661.05,-305.81"/>
</g>
<!-- Node20 -->
<g id="node20" class="node">
<title>Node20</title>
<g id="a_node20"><a xlink:href="namespaceerror__msg__class.html#a5bc9f3b670b725cc43276934b867d801" target="_top" xlink:title="Converts a given real to a string with format &quot;(1pE10.2)&quot;.">
<polygon fill="white" stroke="black" points="666.5,-415 666.5,-445 778.5,-445 778.5,-415 666.5,-415"/>
<text text-anchor="start" x="674.5" y="-433" font-family="Helvetica,sans-Serif" font-size="10.00">error_msg_class::num</text>
<text text-anchor="middle" x="722.5" y="-422" font-family="Helvetica,sans-Serif" font-size="10.00">_to_str</text>
</a>
</g>
</g>
<!-- Node19&#45;&gt;Node20 -->
<g id="edge24" class="edge">
<title>Node19&#45;&gt;Node20</title>
<path fill="none" stroke="midnightblue" d="M565.54,-338.06C583.56,-354.4 614.2,-380.49 644,-398 652.02,-402.71 660.86,-407.06 669.62,-410.94"/>
<polygon fill="midnightblue" stroke="midnightblue" points="668.47,-414.26 679.04,-414.96 671.22,-407.82 668.47,-414.26"/>
</g>
<!-- Node21&#45;&gt;Node2 -->
<g id="edge31" class="edge">
<title>Node21&#45;&gt;Node2</title>
<path fill="none" stroke="midnightblue" d="M239.14,-389.81C270.45,-369.7 325.35,-334.43 356.72,-314.28"/>
<polygon fill="midnightblue" stroke="midnightblue" points="358.76,-317.13 365.28,-308.78 354.97,-311.24 358.76,-317.13"/>
</g>
<!-- Node21&#45;&gt;Node3 -->
<g id="edge28" class="edge">
<title>Node21&#45;&gt;Node3</title>
<path fill="none" stroke="midnightblue" d="M252.22,-420.03C347.72,-456.67 609.76,-541.53 801,-455 834.68,-439.76 860.5,-404.33 874.96,-380.26"/>
<polygon fill="midnightblue" stroke="midnightblue" points="878.14,-381.76 880.12,-371.35 872.08,-378.25 878.14,-381.76"/>
</g>
<!-- Node21&#45;&gt;Node5 -->
<g id="edge30" class="edge">
<title>Node21&#45;&gt;Node5</title>
<path fill="none" stroke="midnightblue" d="M274.04,-401.3C368.89,-395.3 555.56,-383.49 655.18,-377.19"/>
<polygon fill="midnightblue" stroke="midnightblue" points="655.66,-380.67 665.42,-376.55 655.22,-373.68 655.66,-380.67"/>
</g>
<!-- Node21&#45;&gt;Node20 -->
<g id="edge29" class="edge">
<title>Node21&#45;&gt;Node20</title>
<path fill="none" stroke="midnightblue" d="M274.1,-414.8C285.95,-416.47 298.35,-417.99 310,-419 432.04,-429.63 575.15,-430.96 656.39,-430.67"/>
<polygon fill="midnightblue" stroke="midnightblue" points="656.48,-434.17 666.47,-430.63 656.45,-427.17 656.48,-434.17"/>
</g>
</g>
</svg>
