<?xml version="1.0" encoding="UTF-8" standalone="no"?>
<!DOCTYPE svg PUBLIC "-//W3C//DTD SVG 1.1//EN"
 "http://www.w3.org/Graphics/SVG/1.1/DTD/svg11.dtd">
<!-- Generated by graphviz version 2.44.0 ()
 -->
<!-- Title: analysis::analysis_init Pages: 1 -->
<!--zoomable 567 -->
<svg id="main" version="1.1" xmlns="http://www.w3.org/2000/svg" xmlns:xlink="http://www.w3.org/1999/xlink" xml:space="preserve" onload="init(evt)">
<style type="text/css"><![CDATA[
.edge:hover path { stroke: red; }
.edge:hover polygon { stroke: red; fill: red; }
]]></style>
<script type="text/javascript"><![CDATA[
var edges = document.getElementsByTagName('g');
if (edges && edges.length) {
  for (var i=0;i<edges.length;i++) {
    if (edges[i].id.substr(0,4)=='edge') {
      edges[i].setAttribute('class','edge');
    }
  }
}
]]></script>
        <defs>
                <circle id="rim" cx="0" cy="0" r="7"/>
                <circle id="rim2" cx="0" cy="0" r="3.5"/>
                <g id="zoomPlus">
                        <use xlink:href="#rim" fill="#404040">
                                <set attributeName="fill" to="#808080" begin="zoomplus.mouseover" end="zoomplus.mouseout"/>
                        </use>
                        <path d="M-4,0h8M0,-4v8" fill="none" stroke="white" stroke-width="1.5" pointer-events="none"/>
                </g>
                <g id="zoomMin">
                        <use xlink:href="#rim" fill="#404040">
                                <set attributeName="fill" to="#808080" begin="zoomminus.mouseover" end="zoomminus.mouseout"/>
                        </use>
                        <path d="M-4,0h8" fill="none" stroke="white" stroke-width="1.5" pointer-events="none"/>
                </g>
                <g id="dirArrow">
                        <path fill="none" stroke="white" stroke-width="1.5" d="M0,-3.0v7 M-2.5,-0.5L0,-3.0L2.5,-0.5"/>
                </g>
               <g id="resetDef">
                       <use xlink:href="#rim2" fill="#404040">
                               <set attributeName="fill" to="#808080" begin="reset.mouseover" end="reset.mouseout"/>
                       </use>
               </g>
        </defs>

<script type="text/javascript">
var viewWidth = 880;
var viewHeight = 567;
var sectionId = 'dynsection-1';
</script>
<script xlink:href="svgpan.js"/>
<svg id="graph" class="graph">
<g id="viewport">
<title>analysis::analysis_init</title>
<polygon fill="white" stroke="transparent" points="-4,4 -4,-563.39 876,-563.39 876,4 -4,4"/>
<!-- Node1 -->
<g id="node1" class="node">
<title>Node1</title>
<g id="a_node1"><a xlink:title="Open files, write headers, allocate space etc.">
<polygon fill="#bfbfbf" stroke="black" points="0,-351.39 0,-370.39 110,-370.39 110,-351.39 0,-351.39"/>
<text text-anchor="middle" x="55" y="-358.39" font-family="Helvetica,sans-Serif" font-size="10.00">analysis::analysis_init</text>
</a>
</g>
</g>
<!-- Node2 -->
<g id="node2" class="node">
<title>Node2</title>
<g id="a_node2"><a xlink:href="namespacefile__handling__class.html#a01ba26324d7662cc0fb2e0eb306cd3e2" target="_top" xlink:title="Close an external file.">
<polygon fill="white" stroke="black" points="472,-528.89 472,-558.89 570,-558.89 570,-528.89 472,-528.89"/>
<text text-anchor="start" x="480" y="-546.89" font-family="Helvetica,sans-Serif" font-size="10.00">file_handling_class</text>
<text text-anchor="middle" x="521" y="-535.89" font-family="Helvetica,sans-Serif" font-size="10.00">::close_io_file</text>
</a>
</g>
</g>
<!-- Node1&#45;&gt;Node2 -->
<g id="edge1" class="edge">
<title>Node1&#45;&gt;Node2</title>
<path fill="none" stroke="midnightblue" d="M68.61,-370.48C85.58,-383.1 116.98,-405.47 146,-420.89 251.14,-476.74 386.34,-513.53 462.03,-531.34"/>
<polygon fill="midnightblue" stroke="midnightblue" points="461.32,-534.77 471.85,-533.63 462.91,-527.95 461.32,-534.77"/>
</g>
<!-- Node5 -->
<g id="node5" class="node">
<title>Node5</title>
<g id="a_node5"><a xlink:href="namespacebenam__class.html#ad2f566697809a5731e560509d2ca7062" target="_top" xlink:title="Finds an isotope index in the network table, given its A and Z. In case it was not found,...">
<polygon fill="white" stroke="black" points="150.5,-252.39 150.5,-271.39 254.5,-271.39 254.5,-252.39 150.5,-252.39"/>
<text text-anchor="middle" x="202.5" y="-259.39" font-family="Helvetica,sans-Serif" font-size="10.00">benam_class::findaz</text>
</a>
</g>
</g>
<!-- Node1&#45;&gt;Node5 -->
<g id="edge5" class="edge">
<title>Node1&#45;&gt;Node5</title>
<path fill="none" stroke="midnightblue" d="M64.49,-351.15C79.43,-334.56 112.05,-300.7 146,-280.89 149.61,-278.78 153.49,-276.86 157.46,-275.12"/>
<polygon fill="midnightblue" stroke="midnightblue" points="158.82,-278.35 166.81,-271.39 156.22,-271.85 158.82,-278.35"/>
</g>
<!-- Node6 -->
<g id="node6" class="node">
<title>Node6</title>
<g id="a_node6"><a xlink:href="namespacehdf5__module.html#ac958193ae724ed16ed813c9805bde522" target="_top" xlink:title="Initialize the hdf5 module.">
<polygon fill="white" stroke="black" points="146,-290.89 146,-320.89 259,-320.89 259,-290.89 146,-290.89"/>
<text text-anchor="start" x="154" y="-308.89" font-family="Helvetica,sans-Serif" font-size="10.00">hdf5_module::init_hdf5</text>
<text text-anchor="middle" x="202.5" y="-297.89" font-family="Helvetica,sans-Serif" font-size="10.00">_module</text>
</a>
</g>
</g>
<!-- Node1&#45;&gt;Node6 -->
<g id="edge6" class="edge">
<title>Node1&#45;&gt;Node6</title>
<path fill="none" stroke="midnightblue" d="M81.34,-351.31C100.81,-343.95 128.29,-333.56 152.06,-324.58"/>
<polygon fill="midnightblue" stroke="midnightblue" points="153.53,-327.76 161.65,-320.95 151.05,-321.22 153.53,-327.76"/>
</g>
<!-- Node17 -->
<g id="node17" class="node">
<title>Node17</title>
<g id="a_node17"><a xlink:href="namespacefile__handling__class.html#aeddf55e8478d6220dc04310665427c3a" target="_top" xlink:title="Shorthand for opening a new file for writing (output file)">
<polygon fill="white" stroke="black" points="310.5,-441.89 310.5,-471.89 408.5,-471.89 408.5,-441.89 310.5,-441.89"/>
<text text-anchor="start" x="318.5" y="-459.89" font-family="Helvetica,sans-Serif" font-size="10.00">file_handling_class</text>
<text text-anchor="middle" x="359.5" y="-448.89" font-family="Helvetica,sans-Serif" font-size="10.00">::open_outfile</text>
</a>
</g>
</g>
<!-- Node1&#45;&gt;Node17 -->
<g id="edge35" class="edge">
<title>Node1&#45;&gt;Node17</title>
<path fill="none" stroke="midnightblue" d="M86.11,-370.45C136.22,-386.35 237.51,-418.49 301.46,-438.79"/>
<polygon fill="midnightblue" stroke="midnightblue" points="300.41,-442.13 311,-441.82 302.53,-435.46 300.41,-442.13"/>
</g>
<!-- Node3 -->
<g id="node3" class="node">
<title>Node3</title>
<g id="a_node3"><a xlink:href="namespaceerror__msg__class.html#a7e065585cc806a5c264de1f088266498" target="_top" xlink:title="Converts a given integer to a string.">
<polygon fill="white" stroke="black" points="768,-305.89 768,-335.89 872,-335.89 872,-305.89 768,-305.89"/>
<text text-anchor="start" x="776" y="-323.89" font-family="Helvetica,sans-Serif" font-size="10.00">error_msg_class::int</text>
<text text-anchor="middle" x="820" y="-312.89" font-family="Helvetica,sans-Serif" font-size="10.00">_to_str</text>
</a>
</g>
</g>
<!-- Node2&#45;&gt;Node3 -->
<g id="edge2" class="edge">
<title>Node2&#45;&gt;Node3</title>
<path fill="none" stroke="midnightblue" d="M564.45,-528.88C570.5,-526.19 576.51,-523.17 582,-519.89 669.51,-467.49 757.56,-383.37 797.23,-343.39"/>
<polygon fill="midnightblue" stroke="midnightblue" points="799.98,-345.59 804.5,-336.01 794.99,-340.68 799.98,-345.59"/>
</g>
<!-- Node4 -->
<g id="node4" class="node">
<title>Node4</title>
<g id="a_node4"><a xlink:href="namespaceerror__msg__class.html#a2453d3b7cb363115c046840baa1dfb75" target="_top" xlink:title="Raise a exception with a given error message.">
<polygon fill="white" stroke="black" points="618,-283.89 618,-313.89 732,-313.89 732,-283.89 618,-283.89"/>
<text text-anchor="start" x="626" y="-301.89" font-family="Helvetica,sans-Serif" font-size="10.00">error_msg_class::raise</text>
<text text-anchor="middle" x="675" y="-290.89" font-family="Helvetica,sans-Serif" font-size="10.00">_exception</text>
</a>
</g>
</g>
<!-- Node2&#45;&gt;Node4 -->
<g id="edge3" class="edge">
<title>Node2&#45;&gt;Node4</title>
<path fill="none" stroke="midnightblue" d="M570.12,-528.97C574.46,-526.39 578.52,-523.39 582,-519.89 612.7,-489.08 601.39,-469.09 618,-428.89 633.24,-392 651.69,-349.58 663.13,-323.51"/>
<polygon fill="midnightblue" stroke="midnightblue" points="666.48,-324.6 667.3,-314.04 660.07,-321.78 666.48,-324.6"/>
</g>
<!-- Node4&#45;&gt;Node3 -->
<g id="edge4" class="edge">
<title>Node4&#45;&gt;Node3</title>
<path fill="none" stroke="midnightblue" d="M732.11,-307.52C740.54,-308.82 749.28,-310.16 757.81,-311.48"/>
<polygon fill="midnightblue" stroke="midnightblue" points="757.3,-314.94 767.71,-313 758.36,-308.02 757.3,-314.94"/>
</g>
<!-- Node6&#45;&gt;Node4 -->
<g id="edge34" class="edge">
<title>Node6&#45;&gt;Node4</title>
<path fill="none" stroke="midnightblue" d="M224.04,-321.05C241.8,-333.16 268.69,-349.17 295,-355.89 412.91,-386 555.79,-343.99 627.78,-317.55"/>
<polygon fill="midnightblue" stroke="midnightblue" points="629.32,-320.71 637.46,-313.93 626.87,-314.15 629.32,-320.71"/>
</g>
<!-- Node7 -->
<g id="node7" class="node">
<title>Node7</title>
<g id="a_node7"><a xlink:href="namespacehdf5__module.html#ac23832e14905543a503a602cd3b3910a" target="_top" xlink:title="Initialize the timescales hdf5 group.">
<polygon fill="white" stroke="black" points="307,-266.89 307,-296.89 412,-296.89 412,-266.89 307,-266.89"/>
<text text-anchor="start" x="315" y="-284.89" font-family="Helvetica,sans-Serif" font-size="10.00">hdf5_module::init_av</text>
<text text-anchor="middle" x="359.5" y="-273.89" font-family="Helvetica,sans-Serif" font-size="10.00">_timescales</text>
</a>
</g>
</g>
<!-- Node6&#45;&gt;Node7 -->
<g id="edge7" class="edge">
<title>Node6&#45;&gt;Node7</title>
<path fill="none" stroke="midnightblue" d="M259.02,-297.29C271.36,-295.38 284.51,-293.35 297.07,-291.4"/>
<polygon fill="midnightblue" stroke="midnightblue" points="297.64,-294.86 306.98,-289.87 296.57,-287.94 297.64,-294.86"/>
</g>
<!-- Node9 -->
<g id="node9" class="node">
<title>Node9</title>
<g id="a_node9"><a xlink:href="namespacehdf5__module.html#aa156d83505172b391c98a12a60869ab2" target="_top" xlink:title="Initialize energy generation output.">
<polygon fill="white" stroke="black" points="299,-228.39 299,-247.39 420,-247.39 420,-228.39 299,-228.39"/>
<text text-anchor="middle" x="359.5" y="-235.39" font-family="Helvetica,sans-Serif" font-size="10.00">hdf5_module::init_engen</text>
</a>
</g>
</g>
<!-- Node6&#45;&gt;Node9 -->
<g id="edge11" class="edge">
<title>Node6&#45;&gt;Node9</title>
<path fill="none" stroke="midnightblue" d="M239.16,-290.88C245.85,-287.77 252.71,-284.37 259,-280.89 275.82,-271.58 277.6,-265.07 295,-256.89 299.88,-254.6 305.1,-252.5 310.38,-250.62"/>
<polygon fill="midnightblue" stroke="midnightblue" points="311.5,-253.94 319.87,-247.45 309.28,-247.3 311.5,-253.94"/>
</g>
<!-- Node11 -->
<g id="node11" class="node">
<title>Node11</title>
<g id="a_node11"><a xlink:href="namespacehdf5__module.html#adcb03d9acc77a92623fb04cc70d368f8" target="_top" xlink:title="Initialize the flow output.">
<polygon fill="white" stroke="black" points="465,-403.39 465,-422.39 577,-422.39 577,-403.39 465,-403.39"/>
<text text-anchor="middle" x="521" y="-410.39" font-family="Helvetica,sans-Serif" font-size="10.00">hdf5_module::init_flow</text>
</a>
</g>
</g>
<!-- Node6&#45;&gt;Node11 -->
<g id="edge16" class="edge">
<title>Node6&#45;&gt;Node11</title>
<path fill="none" stroke="midnightblue" d="M214.9,-320.95C230.57,-340.39 260.75,-373.53 295,-388.89 345.32,-411.45 408.11,-416.49 454.57,-416.43"/>
<polygon fill="midnightblue" stroke="midnightblue" points="454.85,-419.93 464.81,-416.34 454.78,-412.93 454.85,-419.93"/>
</g>
<!-- Node12 -->
<g id="node12" class="node">
<title>Node12</title>
<g id="a_node12"><a xlink:href="namespacehdf5__module.html#ae48ccd578f598829fc412f843c0aff7d" target="_top" xlink:title="Initialize the mainout hdf5 group.">
<polygon fill="white" stroke="black" points="295,-67.39 295,-86.39 424,-86.39 424,-67.39 295,-67.39"/>
<text text-anchor="middle" x="359.5" y="-74.39" font-family="Helvetica,sans-Serif" font-size="10.00">hdf5_module::init_mainout</text>
</a>
</g>
</g>
<!-- Node6&#45;&gt;Node12 -->
<g id="edge18" class="edge">
<title>Node6&#45;&gt;Node12</title>
<path fill="none" stroke="midnightblue" d="M247.74,-290.76C251.96,-287.98 255.83,-284.72 259,-280.89 302.72,-228.08 259.12,-189.31 295,-130.89 304.63,-115.21 320.36,-101.79 333.75,-92.24"/>
<polygon fill="midnightblue" stroke="midnightblue" points="335.83,-95.06 342.13,-86.55 331.89,-89.28 335.83,-95.06"/>
</g>
<!-- Node14 -->
<g id="node14" class="node">
<title>Node14</title>
<g id="a_node14"><a xlink:href="namespacehdf5__module.html#ac4bc499f1766102e6dc6a461ee554d08" target="_top" xlink:title="Initialize neutrino loss/gain output.">
<polygon fill="white" stroke="black" points="307,-315.89 307,-345.89 412,-345.89 412,-315.89 307,-315.89"/>
<text text-anchor="start" x="315" y="-333.89" font-family="Helvetica,sans-Serif" font-size="10.00">hdf5_module::init_nu</text>
<text text-anchor="middle" x="359.5" y="-322.89" font-family="Helvetica,sans-Serif" font-size="10.00">_loss_gain</text>
</a>
</g>
</g>
<!-- Node6&#45;&gt;Node14 -->
<g id="edge23" class="edge">
<title>Node6&#45;&gt;Node14</title>
<path fill="none" stroke="midnightblue" d="M259.02,-314.84C271.36,-316.83 284.51,-318.96 297.07,-320.98"/>
<polygon fill="midnightblue" stroke="midnightblue" points="296.56,-324.44 306.98,-322.58 297.67,-317.53 296.56,-324.44"/>
</g>
<!-- Node15 -->
<g id="node15" class="node">
<title>Node15</title>
<g id="a_node15"><a xlink:href="namespacehdf5__module.html#a66194278554c0d366251b3c2e15b16c2" target="_top" xlink:title="Initialize the snapshot hdf5 group.">
<polygon fill="white" stroke="black" points="299,-190.39 299,-209.39 420,-209.39 420,-190.39 299,-190.39"/>
<text text-anchor="middle" x="359.5" y="-197.39" font-family="Helvetica,sans-Serif" font-size="10.00">hdf5_module::init_snaps</text>
</a>
</g>
</g>
<!-- Node6&#45;&gt;Node15 -->
<g id="edge26" class="edge">
<title>Node6&#45;&gt;Node15</title>
<path fill="none" stroke="midnightblue" d="M245,-290.74C250.03,-287.91 254.84,-284.64 259,-280.89 282.66,-259.55 269.98,-238.62 295,-218.89 297.29,-217.09 299.74,-215.45 302.31,-213.98"/>
<polygon fill="midnightblue" stroke="midnightblue" points="303.96,-217.07 311.4,-209.52 300.88,-210.78 303.96,-217.07"/>
</g>
<!-- Node16 -->
<g id="node16" class="node">
<title>Node16</title>
<g id="a_node16"><a xlink:href="namespacehdf5__module.html#ab9fc032c08e349615fd44c7761a3470c" target="_top" xlink:title="Initialize the tracked_nuclei hdf5 group.">
<polygon fill="white" stroke="black" points="301.5,-140.89 301.5,-170.89 417.5,-170.89 417.5,-140.89 301.5,-140.89"/>
<text text-anchor="start" x="309.5" y="-158.89" font-family="Helvetica,sans-Serif" font-size="10.00">hdf5_module::init_track</text>
<text text-anchor="middle" x="359.5" y="-147.89" font-family="Helvetica,sans-Serif" font-size="10.00">_nuclei</text>
</a>
</g>
</g>
<!-- Node6&#45;&gt;Node16 -->
<g id="edge30" class="edge">
<title>Node6&#45;&gt;Node16</title>
<path fill="none" stroke="midnightblue" d="M246.78,-290.74C251.28,-287.95 255.48,-284.69 259,-280.89 291.08,-246.22 262.1,-214.78 295,-180.89 296.39,-179.46 297.88,-178.1 299.44,-176.82"/>
<polygon fill="midnightblue" stroke="midnightblue" points="301.54,-179.62 307.77,-171.05 297.55,-173.87 301.54,-179.62"/>
</g>
<!-- Node7&#45;&gt;Node4 -->
<g id="edge10" class="edge">
<title>Node7&#45;&gt;Node4</title>
<path fill="none" stroke="midnightblue" d="M412.27,-284.7C465.75,-287.6 549.41,-292.13 607.71,-295.29"/>
<polygon fill="midnightblue" stroke="midnightblue" points="607.74,-298.8 617.92,-295.85 608.12,-291.81 607.74,-298.8"/>
</g>
<!-- Node8 -->
<g id="node8" class="node">
<title>Node8</title>
<g id="a_node8"><a xlink:href="namespacehdf5__module.html#aaee7540701e1025315a58592932552cc" target="_top" xlink:title="Gets a dataset name and creates it.">
<polygon fill="white" stroke="black" points="469,-201.89 469,-231.89 573,-231.89 573,-201.89 469,-201.89"/>
<text text-anchor="start" x="477" y="-219.89" font-family="Helvetica,sans-Serif" font-size="10.00">hdf5_module::create</text>
<text text-anchor="middle" x="521" y="-208.89" font-family="Helvetica,sans-Serif" font-size="10.00">_1d_dataset</text>
</a>
</g>
</g>
<!-- Node7&#45;&gt;Node8 -->
<g id="edge8" class="edge">
<title>Node7&#45;&gt;Node8</title>
<path fill="none" stroke="midnightblue" d="M399.17,-266.81C407.38,-263.57 415.98,-260.14 424,-256.89 440.49,-250.21 458.51,-242.74 474.44,-236.09"/>
<polygon fill="midnightblue" stroke="midnightblue" points="476.18,-239.15 484.06,-232.06 473.48,-232.7 476.18,-239.15"/>
</g>
<!-- Node8&#45;&gt;Node4 -->
<g id="edge9" class="edge">
<title>Node8&#45;&gt;Node4</title>
<path fill="none" stroke="midnightblue" d="M552.99,-232.01C562.36,-236.68 572.64,-241.91 582,-246.89 601,-257 621.9,-268.76 638.97,-278.54"/>
<polygon fill="midnightblue" stroke="midnightblue" points="637.61,-281.79 648.02,-283.74 641.1,-275.72 637.61,-281.79"/>
</g>
<!-- Node9&#45;&gt;Node4 -->
<g id="edge15" class="edge">
<title>Node9&#45;&gt;Node4</title>
<path fill="none" stroke="midnightblue" d="M409.48,-247.42C462.88,-257.81 548.61,-274.49 607.93,-286.03"/>
<polygon fill="midnightblue" stroke="midnightblue" points="607.47,-289.51 617.95,-287.98 608.81,-282.64 607.47,-289.51"/>
</g>
<!-- Node9&#45;&gt;Node8 -->
<g id="edge12" class="edge">
<title>Node9&#45;&gt;Node8</title>
<path fill="none" stroke="midnightblue" d="M420.35,-230.01C432.97,-228.35 446.31,-226.59 458.97,-224.92"/>
<polygon fill="midnightblue" stroke="midnightblue" points="459.51,-228.38 468.96,-223.61 458.59,-221.44 459.51,-228.38"/>
</g>
<!-- Node10 -->
<g id="node10" class="node">
<title>Node10</title>
<g id="a_node10"><a xlink:href="namespacehdf5__module.html#afbf1071900336a7ed8fcb9b8980a6682" target="_top" xlink:title="Create a hdf5 entry with constant values.">
<polygon fill="white" stroke="black" points="460,-152.89 460,-182.89 582,-182.89 582,-152.89 460,-152.89"/>
<text text-anchor="start" x="468" y="-170.89" font-family="Helvetica,sans-Serif" font-size="10.00">hdf5_module::create</text>
<text text-anchor="middle" x="521" y="-159.89" font-family="Helvetica,sans-Serif" font-size="10.00">_constant_1d_int_arrays</text>
</a>
</g>
</g>
<!-- Node9&#45;&gt;Node10 -->
<g id="edge13" class="edge">
<title>Node9&#45;&gt;Node10</title>
<path fill="none" stroke="midnightblue" d="M400.29,-228.34C408.34,-225.76 416.6,-222.62 424,-218.89 441.86,-209.88 442.56,-201.69 460,-191.89 462.89,-190.27 465.9,-188.7 468.98,-187.2"/>
<polygon fill="midnightblue" stroke="midnightblue" points="470.72,-190.25 478.34,-182.89 467.8,-183.89 470.72,-190.25"/>
</g>
<!-- Node10&#45;&gt;Node4 -->
<g id="edge14" class="edge">
<title>Node10&#45;&gt;Node4</title>
<path fill="none" stroke="midnightblue" d="M566.85,-183.01C572.16,-185.61 577.35,-188.56 582,-191.89 614.17,-214.88 642.34,-251.41 658.77,-275.27"/>
<polygon fill="midnightblue" stroke="midnightblue" points="655.99,-277.4 664.48,-283.74 661.79,-273.49 655.99,-277.4"/>
</g>
<!-- Node11&#45;&gt;Node4 -->
<g id="edge17" class="edge">
<title>Node11&#45;&gt;Node4</title>
<path fill="none" stroke="midnightblue" d="M552.44,-403.37C562.28,-399.61 572.98,-394.77 582,-388.89 610.63,-370.24 637.89,-341.75 655.19,-321.84"/>
<polygon fill="midnightblue" stroke="midnightblue" points="657.93,-324.02 661.76,-314.14 652.6,-319.48 657.93,-324.02"/>
</g>
<!-- Node12&#45;&gt;Node4 -->
<g id="edge22" class="edge">
<title>Node12&#45;&gt;Node4</title>
<path fill="none" stroke="midnightblue" d="M372.57,-67.21C408.11,-39.95 514.12,32.36 582,-16.89 665.62,-77.57 674.68,-216.34 674.69,-273.53"/>
<polygon fill="midnightblue" stroke="midnightblue" points="671.18,-273.8 674.59,-283.84 678.18,-273.87 671.18,-273.8"/>
</g>
<!-- Node12&#45;&gt;Node8 -->
<g id="edge19" class="edge">
<title>Node12&#45;&gt;Node8</title>
<path fill="none" stroke="midnightblue" d="M374.3,-86.5C388.01,-96.51 409.09,-113.17 424,-130.89 444.27,-154.97 436.25,-171.22 460,-191.89 461.76,-193.42 463.63,-194.87 465.58,-196.24"/>
<polygon fill="midnightblue" stroke="midnightblue" points="464.19,-199.5 474.55,-201.74 467.85,-193.53 464.19,-199.5"/>
</g>
<!-- Node13 -->
<g id="node13" class="node">
<title>Node13</title>
<g id="a_node13"><a xlink:href="namespacehdf5__module.html#a9f787006556041c71ebaca1ae791f925" target="_top" xlink:title="Gets a dataset name and creates an integer dataset.">
<polygon fill="white" stroke="black" points="469,-26.89 469,-56.89 573,-56.89 573,-26.89 469,-26.89"/>
<text text-anchor="start" x="477" y="-44.89" font-family="Helvetica,sans-Serif" font-size="10.00">hdf5_module::create</text>
<text text-anchor="middle" x="521" y="-33.89" font-family="Helvetica,sans-Serif" font-size="10.00">_1d_int_dataset</text>
</a>
</g>
</g>
<!-- Node12&#45;&gt;Node13 -->
<g id="edge20" class="edge">
<title>Node12&#45;&gt;Node13</title>
<path fill="none" stroke="midnightblue" d="M404.08,-67.33C420.97,-63.62 440.6,-59.31 458.86,-55.31"/>
<polygon fill="midnightblue" stroke="midnightblue" points="459.82,-58.68 468.83,-53.12 458.32,-51.84 459.82,-58.68"/>
</g>
<!-- Node13&#45;&gt;Node4 -->
<g id="edge21" class="edge">
<title>Node13&#45;&gt;Node4</title>
<path fill="none" stroke="midnightblue" d="M562.23,-56.91C569.47,-60.95 576.47,-65.9 582,-71.89 637.05,-131.44 661.14,-228.24 669.84,-273.75"/>
<polygon fill="midnightblue" stroke="midnightblue" points="666.41,-274.44 671.65,-283.66 673.3,-273.19 666.41,-274.44"/>
</g>
<!-- Node14&#45;&gt;Node4 -->
<g id="edge25" class="edge">
<title>Node14&#45;&gt;Node4</title>
<path fill="none" stroke="midnightblue" d="M412.27,-325.61C465.75,-320.15 549.41,-311.61 607.71,-305.66"/>
<polygon fill="midnightblue" stroke="midnightblue" points="608.33,-309.11 617.92,-304.61 607.61,-302.15 608.33,-309.11"/>
</g>
<!-- Node14&#45;&gt;Node8 -->
<g id="edge24" class="edge">
<title>Node14&#45;&gt;Node8</title>
<path fill="none" stroke="midnightblue" d="M404.92,-315.87C411.52,-312.94 418.08,-309.61 424,-305.89 453.42,-287.39 481.95,-259.23 500.15,-239.56"/>
<polygon fill="midnightblue" stroke="midnightblue" points="502.93,-241.71 507.07,-231.95 497.75,-237 502.93,-241.71"/>
</g>
<!-- Node15&#45;&gt;Node4 -->
<g id="edge29" class="edge">
<title>Node15&#45;&gt;Node4</title>
<path fill="none" stroke="midnightblue" d="M401.44,-190.28C409.24,-187.55 417.11,-184.13 424,-179.89 443.53,-167.86 438.86,-151.81 460,-142.89 509.95,-121.8 534.92,-116 582,-142.89 631.45,-171.14 656.98,-237.5 667.68,-273.91"/>
<polygon fill="midnightblue" stroke="midnightblue" points="664.37,-275.06 670.43,-283.75 671.11,-273.17 664.37,-275.06"/>
</g>
<!-- Node15&#45;&gt;Node8 -->
<g id="edge27" class="edge">
<title>Node15&#45;&gt;Node8</title>
<path fill="none" stroke="midnightblue" d="M420.35,-206.27C432.97,-207.61 446.31,-209.04 458.97,-210.39"/>
<polygon fill="midnightblue" stroke="midnightblue" points="458.65,-213.87 468.96,-211.45 459.39,-206.91 458.65,-213.87"/>
</g>
<!-- Node15&#45;&gt;Node10 -->
<g id="edge28" class="edge">
<title>Node15&#45;&gt;Node10</title>
<path fill="none" stroke="midnightblue" d="M407.92,-190.38C421,-187.75 435.48,-184.85 449.56,-182.02"/>
<polygon fill="midnightblue" stroke="midnightblue" points="450.6,-185.38 459.72,-179.98 449.23,-178.52 450.6,-185.38"/>
</g>
<!-- Node16&#45;&gt;Node4 -->
<g id="edge33" class="edge">
<title>Node16&#45;&gt;Node4</title>
<path fill="none" stroke="midnightblue" d="M387.61,-140.84C431.72,-118.58 520.31,-83.33 582,-120.89 637.37,-154.6 660.88,-233.55 669.57,-274.02"/>
<polygon fill="midnightblue" stroke="midnightblue" points="666.15,-274.77 671.56,-283.88 673.01,-273.39 666.15,-274.77"/>
</g>
<!-- Node16&#45;&gt;Node8 -->
<g id="edge31" class="edge">
<title>Node16&#45;&gt;Node8</title>
<path fill="none" stroke="midnightblue" d="M399.93,-170.97C421.48,-179.21 448.36,-189.49 471.23,-198.24"/>
<polygon fill="midnightblue" stroke="midnightblue" points="470.16,-201.58 480.75,-201.88 472.66,-195.04 470.16,-201.58"/>
</g>
<!-- Node16&#45;&gt;Node10 -->
<g id="edge32" class="edge">
<title>Node16&#45;&gt;Node10</title>
<path fill="none" stroke="midnightblue" d="M417.63,-160.19C428,-160.97 438.92,-161.79 449.61,-162.59"/>
<polygon fill="midnightblue" stroke="midnightblue" points="449.53,-166.1 459.76,-163.36 450.06,-159.12 449.53,-166.1"/>
</g>
<!-- Node17&#45;&gt;Node4 -->
<g id="edge38" class="edge">
<title>Node17&#45;&gt;Node4</title>
<path fill="none" stroke="midnightblue" d="M408.61,-462.42C456.08,-465.48 529.03,-463.57 582,-431.89 623.96,-406.79 651.41,-354.29 664.67,-323.29"/>
<polygon fill="midnightblue" stroke="midnightblue" points="667.91,-324.62 668.48,-314.04 661.43,-321.95 667.91,-324.62"/>
</g>
<!-- Node18 -->
<g id="node18" class="node">
<title>Node18</title>
<g id="a_node18"><a xlink:href="namespacefile__handling__class.html#af02196bd5eaf70ecd5ab4cc650094d5e" target="_top" xlink:title="Finds the next unused unit number.">
<polygon fill="white" stroke="black" points="472,-479.89 472,-509.89 570,-509.89 570,-479.89 472,-479.89"/>
<text text-anchor="start" x="480" y="-497.89" font-family="Helvetica,sans-Serif" font-size="10.00">file_handling_class</text>
<text text-anchor="middle" x="521" y="-486.89" font-family="Helvetica,sans-Serif" font-size="10.00">::get_next_io_unit</text>
</a>
</g>
</g>
<!-- Node17&#45;&gt;Node18 -->
<g id="edge36" class="edge">
<title>Node17&#45;&gt;Node18</title>
<path fill="none" stroke="midnightblue" d="M408.79,-468.39C425.5,-472.37 444.4,-476.88 461.82,-481.03"/>
<polygon fill="midnightblue" stroke="midnightblue" points="461.34,-484.51 471.88,-483.42 462.96,-477.7 461.34,-484.51"/>
</g>
<!-- Node18&#45;&gt;Node4 -->
<g id="edge37" class="edge">
<title>Node18&#45;&gt;Node4</title>
<path fill="none" stroke="midnightblue" d="M560.74,-479.83C568.35,-475.74 575.86,-470.77 582,-464.89 624.65,-424.01 652.69,-358.96 665.66,-323.65"/>
<polygon fill="midnightblue" stroke="midnightblue" points="669,-324.71 669.06,-314.12 662.4,-322.36 669,-324.71"/>
</g>
</g>
</svg>
        <g id="navigator" transform="translate(0 0)" fill="#404254">
                <rect fill="#f2f5e9" fill-opacity="0.5" stroke="#606060" stroke-width=".5" x="0" y="0" width="60" height="60"/>
                <use id="zoomplus" xlink:href="#zoomPlus" x="17" y="9" onmousedown="handleZoom(evt,'in')"/>
                <use id="zoomminus" xlink:href="#zoomMin" x="42" y="9" onmousedown="handleZoom(evt,'out')"/>
                <use id="reset" xlink:href="#resetDef" x="30" y="36" onmousedown="handleReset()"/>
                <g id="arrowUp" xlink:href="#dirArrow" transform="translate(30 24)" onmousedown="handlePan(0,-1)">
                  <use xlink:href="#rim" fill="#404040">
                        <set attributeName="fill" to="#808080" begin="arrowUp.mouseover" end="arrowUp.mouseout"/>
                  </use>
                  <path fill="none" stroke="white" stroke-width="1.5" d="M0,-3.0v7 M-2.5,-0.5L0,-3.0L2.5,-0.5"/>
                </g>
                <g id="arrowRight" xlink:href="#dirArrow" transform="rotate(90) translate(36 -43)" onmousedown="handlePan(1,0)">
                  <use xlink:href="#rim" fill="#404040">
                        <set attributeName="fill" to="#808080" begin="arrowRight.mouseover" end="arrowRight.mouseout"/>
                  </use>
                  <path fill="none" stroke="white" stroke-width="1.5" d="M0,-3.0v7 M-2.5,-0.5L0,-3.0L2.5,-0.5"/>
                </g>
                <g id="arrowDown" xlink:href="#dirArrow" transform="rotate(180) translate(-30 -48)" onmousedown="handlePan(0,1)">
                  <use xlink:href="#rim" fill="#404040">
                        <set attributeName="fill" to="#808080" begin="arrowDown.mouseover" end="arrowDown.mouseout"/>
                  </use>
                  <path fill="none" stroke="white" stroke-width="1.5" d="M0,-3.0v7 M-2.5,-0.5L0,-3.0L2.5,-0.5"/>
                </g>
                <g id="arrowLeft" xlink:href="#dirArrow" transform="rotate(270) translate(-36 17)" onmousedown="handlePan(-1,0)">
                  <use xlink:href="#rim" fill="#404040">
                        <set attributeName="fill" to="#808080" begin="arrowLeft.mouseover" end="arrowLeft.mouseout"/>
                  </use>
                  <path fill="none" stroke="white" stroke-width="1.5" d="M0,-3.0v7 M-2.5,-0.5L0,-3.0L2.5,-0.5"/>
                </g>
        </g>
        <svg viewBox="0 0 15 15" width="100%" height="30px" preserveAspectRatio="xMaxYMin meet">
         <g id="arrow_out" transform="scale(0.3 0.3)">
          <a xlink:href="namespaceanalysis_a3eedd1e52d6c07825508bd13bd9565bf_cgraph_org.svg" target="_base">
           <rect id="button" ry="5" rx="5" y="6" x="6" height="38" width="38"
                fill="#f2f5e9" fill-opacity="0.5" stroke="#606060" stroke-width="1.0"/>
           <path id="arrow"
             d="M 11.500037,31.436501 C 11.940474,20.09759 22.043105,11.32322 32.158766,21.979434 L 37.068811,17.246167 C 37.068811,17.246167 37.088388,32 37.088388,32 L 22.160133,31.978069 C 22.160133,31.978069 26.997745,27.140456 26.997745,27.140456 C 18.528582,18.264221 13.291696,25.230495 11.500037,31.436501 z"
             style="fill:#404040;"/>
          </a>
         </g>
        </svg>
</svg>
