<?xml version="1.0" encoding="UTF-8" standalone="no"?>
<!DOCTYPE svg PUBLIC "-//W3C//DTD SVG 1.1//EN"
 "http://www.w3.org/Graphics/SVG/1.1/DTD/svg11.dtd">
<!-- Generated by graphviz version 2.44.0 ()
 -->
<!-- Title: ls_timmes_eos_module::timmes_eos Pages: 1 -->
<!--zoomable 173 -->
<svg id="main" version="1.1" xmlns="http://www.w3.org/2000/svg" xmlns:xlink="http://www.w3.org/1999/xlink" xml:space="preserve" onload="init(evt)">
<style type="text/css"><![CDATA[
.edge:hover path { stroke: red; }
.edge:hover polygon { stroke: red; fill: red; }
]]></style>
<script type="text/javascript"><![CDATA[
var edges = document.getElementsByTagName('g');
if (edges && edges.length) {
  for (var i=0;i<edges.length;i++) {
    if (edges[i].id.substr(0,4)=='edge') {
      edges[i].setAttribute('class','edge');
    }
  }
}
]]></script>
        <defs>
                <circle id="rim" cx="0" cy="0" r="7"/>
                <circle id="rim2" cx="0" cy="0" r="3.5"/>
                <g id="zoomPlus">
                        <use xlink:href="#rim" fill="#404040">
                                <set attributeName="fill" to="#808080" begin="zoomplus.mouseover" end="zoomplus.mouseout"/>
                        </use>
                        <path d="M-4,0h8M0,-4v8" fill="none" stroke="white" stroke-width="1.5" pointer-events="none"/>
                </g>
                <g id="zoomMin">
                        <use xlink:href="#rim" fill="#404040">
                                <set attributeName="fill" to="#808080" begin="zoomminus.mouseover" end="zoomminus.mouseout"/>
                        </use>
                        <path d="M-4,0h8" fill="none" stroke="white" stroke-width="1.5" pointer-events="none"/>
                </g>
                <g id="dirArrow">
                        <path fill="none" stroke="white" stroke-width="1.5" d="M0,-3.0v7 M-2.5,-0.5L0,-3.0L2.5,-0.5"/>
                </g>
               <g id="resetDef">
                       <use xlink:href="#rim2" fill="#404040">
                               <set attributeName="fill" to="#808080" begin="reset.mouseover" end="reset.mouseout"/>
                       </use>
               </g>
        </defs>

<script type="text/javascript">
var viewWidth = 777;
var viewHeight = 173;
var sectionId = 'dynsection-0';
</script>
<script xlink:href="svgpan.js"/>
<svg id="graph" class="graph">
<g id="viewport">
<title>ls_timmes_eos_module::timmes_eos</title>
<polygon fill="white" stroke="transparent" points="-4,4 -4,-168.5 773,-168.5 773,4 -4,4"/>
<!-- Node1 -->
<g id="node1" class="node">
<title>Node1</title>
<g id="a_node1"><a xlink:title=" ">
<polygon fill="#bfbfbf" stroke="black" points="0,-90 0,-120 119,-120 119,-90 0,-90"/>
<text text-anchor="start" x="8" y="-108" font-family="Helvetica,sans-Serif" font-size="10.00">ls_timmes_eos_module</text>
<text text-anchor="middle" x="59.5" y="-97" font-family="Helvetica,sans-Serif" font-size="10.00">::timmes_eos</text>
</a>
</g>
</g>
<!-- Node2 -->
<g id="node2" class="node">
<title>Node2</title>
<g id="a_node2"><a xlink:href="namespacels__timmes__eos__module.html#ac68ea6710f5164f7f29454fa4ffa6dcb" target="_top" xlink:title=" ">
<polygon fill="white" stroke="black" points="155,-134 155,-164 274,-164 274,-134 155,-134"/>
<text text-anchor="start" x="163" y="-152" font-family="Helvetica,sans-Serif" font-size="10.00">ls_timmes_eos_module</text>
<text text-anchor="middle" x="214.5" y="-141" font-family="Helvetica,sans-Serif" font-size="10.00">::timmes_eos_e_bisec</text>
</a>
</g>
</g>
<!-- Node1&#45;&gt;Node2 -->
<g id="edge1" class="edge">
<title>Node1&#45;&gt;Node2</title>
<path fill="none" stroke="midnightblue" d="M112.73,-120.02C125.21,-123.61 138.66,-127.48 151.54,-131.18"/>
<polygon fill="midnightblue" stroke="midnightblue" points="150.67,-134.57 161.25,-133.97 152.61,-127.85 150.67,-134.57"/>
</g>
<!-- Node3 -->
<g id="node3" class="node">
<title>Node3</title>
<g id="a_node3"><a xlink:href="namespacels__timmes__eos__module.html#a6da1e3b6ba3967536745de1073565b65" target="_top" xlink:title=" ">
<polygon fill="white" stroke="black" points="310,-90 310,-120 429,-120 429,-90 310,-90"/>
<text text-anchor="start" x="318" y="-108" font-family="Helvetica,sans-Serif" font-size="10.00">ls_timmes_eos_module</text>
<text text-anchor="middle" x="369.5" y="-97" font-family="Helvetica,sans-Serif" font-size="10.00">::timmes_eos_interface</text>
</a>
</g>
</g>
<!-- Node1&#45;&gt;Node3 -->
<g id="edge14" class="edge">
<title>Node1&#45;&gt;Node3</title>
<path fill="none" stroke="midnightblue" d="M119.16,-105C170.56,-105 245.33,-105 299.58,-105"/>
<polygon fill="midnightblue" stroke="midnightblue" points="299.8,-108.5 309.8,-105 299.8,-101.5 299.8,-108.5"/>
</g>
<!-- Node14 -->
<g id="node14" class="node">
<title>Node14</title>
<g id="a_node14"><a xlink:href="namespacels__timmes__eos__module.html#afd98ff063885638aaa5922c04fb9d6a9" target="_top" xlink:title=" ">
<polygon fill="white" stroke="black" points="155,-46 155,-76 274,-76 274,-46 155,-46"/>
<text text-anchor="start" x="163" y="-64" font-family="Helvetica,sans-Serif" font-size="10.00">ls_timmes_eos_module</text>
<text text-anchor="middle" x="214.5" y="-53" font-family="Helvetica,sans-Serif" font-size="10.00">::timmes_eos_s_bisec</text>
</a>
</g>
</g>
<!-- Node1&#45;&gt;Node14 -->
<g id="edge15" class="edge">
<title>Node1&#45;&gt;Node14</title>
<path fill="none" stroke="midnightblue" d="M112.73,-89.98C125.21,-86.39 138.66,-82.52 151.54,-78.82"/>
<polygon fill="midnightblue" stroke="midnightblue" points="152.61,-82.15 161.25,-76.03 150.67,-75.43 152.61,-82.15"/>
</g>
<!-- Node2&#45;&gt;Node3 -->
<g id="edge2" class="edge">
<title>Node2&#45;&gt;Node3</title>
<path fill="none" stroke="midnightblue" d="M267.73,-133.98C280.21,-130.39 293.66,-126.52 306.54,-122.82"/>
<polygon fill="midnightblue" stroke="midnightblue" points="307.61,-126.15 316.25,-120.03 305.67,-119.43 307.61,-126.15"/>
</g>
<!-- Node4 -->
<g id="node4" class="node">
<title>Node4</title>
<g id="a_node4"><a xlink:href="eosfxt_8f.html#a7472b49a95882a089dc0b8e75b1abbfa" target="_top" xlink:title=" ">
<polygon fill="white" stroke="black" points="465,-95.5 465,-114.5 508,-114.5 508,-95.5 465,-95.5"/>
<text text-anchor="middle" x="486.5" y="-102.5" font-family="Helvetica,sans-Serif" font-size="10.00">eosfxt</text>
</a>
</g>
</g>
<!-- Node3&#45;&gt;Node4 -->
<g id="edge3" class="edge">
<title>Node3&#45;&gt;Node4</title>
<path fill="none" stroke="midnightblue" d="M429.01,-105C437.86,-105 446.68,-105 454.63,-105"/>
<polygon fill="midnightblue" stroke="midnightblue" points="454.84,-108.5 464.84,-105 454.84,-101.5 454.84,-108.5"/>
</g>
<!-- Node5 -->
<g id="node5" class="node">
<title>Node5</title>
<g id="a_node5"><a xlink:href="eosfxt_8f.html#a4dd7b4a9689e75b5ee0f56fcf260b461" target="_top" xlink:title=" ">
<polygon fill="white" stroke="black" points="544,-133.5 544,-152.5 597,-152.5 597,-133.5 544,-133.5"/>
<text text-anchor="middle" x="570.5" y="-140.5" font-family="Helvetica,sans-Serif" font-size="10.00">coulomb</text>
</a>
</g>
</g>
<!-- Node4&#45;&gt;Node5 -->
<g id="edge4" class="edge">
<title>Node4&#45;&gt;Node5</title>
<path fill="none" stroke="midnightblue" d="M508.19,-114.59C517.71,-119 529.18,-124.31 539.61,-129.15"/>
<polygon fill="midnightblue" stroke="midnightblue" points="538.27,-132.38 548.81,-133.41 541.21,-126.03 538.27,-132.38"/>
</g>
<!-- Node7 -->
<g id="node7" class="node">
<title>Node7</title>
<g id="a_node7"><a xlink:href="eosfxt_8f.html#a40e1707c6481e6f394d33c9de7744a80" target="_top" xlink:title=" ">
<polygon fill="white" stroke="black" points="547.5,-95.5 547.5,-114.5 593.5,-114.5 593.5,-95.5 547.5,-95.5"/>
<text text-anchor="middle" x="570.5" y="-102.5" font-family="Helvetica,sans-Serif" font-size="10.00">etages</text>
</a>
</g>
</g>
<!-- Node4&#45;&gt;Node7 -->
<g id="edge6" class="edge">
<title>Node4&#45;&gt;Node7</title>
<path fill="none" stroke="midnightblue" d="M508.19,-105C516.97,-105 527.42,-105 537.17,-105"/>
<polygon fill="midnightblue" stroke="midnightblue" points="537.38,-108.5 547.38,-105 537.38,-101.5 537.38,-108.5"/>
</g>
<!-- Node8 -->
<g id="node8" class="node">
<title>Node8</title>
<g id="a_node8"><a xlink:href="eosfxt_8f.html#ac215ef28344d8bf47b95d146f191fc74" target="_top" xlink:title=" ">
<polygon fill="white" stroke="black" points="546.5,-57.5 546.5,-76.5 594.5,-76.5 594.5,-57.5 546.5,-57.5"/>
<text text-anchor="middle" x="570.5" y="-64.5" font-family="Helvetica,sans-Serif" font-size="10.00">xneroot</text>
</a>
</g>
</g>
<!-- Node4&#45;&gt;Node8 -->
<g id="edge8" class="edge">
<title>Node4&#45;&gt;Node8</title>
<path fill="none" stroke="midnightblue" d="M508.19,-95.41C517.71,-91 529.18,-85.69 539.61,-80.85"/>
<polygon fill="midnightblue" stroke="midnightblue" points="541.21,-83.97 548.81,-76.59 538.27,-77.62 541.21,-83.97"/>
</g>
<!-- Node6 -->
<g id="node6" class="node">
<title>Node6</title>
<g id="a_node6"><a xlink:href="quadpack__module_8f90.html#aada5a652920db442d627f1ca24ff25d7" target="_top" xlink:title="Further information: http://netlib.org/quadpack/index.html https://orion.math.iastate....">
<polygon fill="white" stroke="black" points="640.5,-114.5 640.5,-133.5 669.5,-133.5 669.5,-114.5 640.5,-114.5"/>
<text text-anchor="middle" x="655" y="-121.5" font-family="Helvetica,sans-Serif" font-size="10.00">pi</text>
</a>
</g>
</g>
<!-- Node5&#45;&gt;Node6 -->
<g id="edge5" class="edge">
<title>Node5&#45;&gt;Node6</title>
<path fill="none" stroke="midnightblue" d="M597.15,-137.09C607.68,-134.67 619.81,-131.87 630.14,-129.49"/>
<polygon fill="midnightblue" stroke="midnightblue" points="631.17,-132.85 640.13,-127.19 629.6,-126.03 631.17,-132.85"/>
</g>
<!-- Node7&#45;&gt;Node6 -->
<g id="edge7" class="edge">
<title>Node7&#45;&gt;Node6</title>
<path fill="none" stroke="midnightblue" d="M593.61,-110.09C605.01,-112.72 618.92,-115.92 630.51,-118.59"/>
<polygon fill="midnightblue" stroke="midnightblue" points="629.84,-122.03 640.37,-120.86 631.41,-115.21 629.84,-122.03"/>
</g>
<!-- Node9 -->
<g id="node9" class="node">
<title>Node9</title>
<g id="a_node9"><a xlink:href="eosfxt_8f.html#a5b92245336ba39f5012975d91948205f" target="_top" xlink:title=" ">
<polygon fill="white" stroke="black" points="633,-57.5 633,-76.5 677,-76.5 677,-57.5 633,-57.5"/>
<text text-anchor="middle" x="655" y="-64.5" font-family="Helvetica,sans-Serif" font-size="10.00">dfermi</text>
</a>
</g>
</g>
<!-- Node8&#45;&gt;Node9 -->
<g id="edge9" class="edge">
<title>Node8&#45;&gt;Node9</title>
<path fill="none" stroke="midnightblue" d="M594.92,-67C603.57,-67 613.52,-67 622.76,-67"/>
<polygon fill="midnightblue" stroke="midnightblue" points="622.78,-70.5 632.78,-67 622.78,-63.5 622.78,-70.5"/>
</g>
<!-- Node10 -->
<g id="node10" class="node">
<title>Node10</title>
<g id="a_node10"><a xlink:href="eosfxt_8f.html#abbb1b60c825d972dc00fe1f268f93f86" target="_top" xlink:title=" ">
<polygon fill="white" stroke="black" points="713,-114.5 713,-133.5 769,-133.5 769,-114.5 713,-114.5"/>
<text text-anchor="middle" x="741" y="-121.5" font-family="Helvetica,sans-Serif" font-size="10.00">dqlag020</text>
</a>
</g>
</g>
<!-- Node9&#45;&gt;Node10 -->
<g id="edge10" class="edge">
<title>Node9&#45;&gt;Node10</title>
<path fill="none" stroke="midnightblue" d="M670.25,-76.67C683.12,-85.4 702.28,-98.4 717.26,-108.57"/>
<polygon fill="midnightblue" stroke="midnightblue" points="715.72,-111.75 725.96,-114.47 719.65,-105.96 715.72,-111.75"/>
</g>
<!-- Node11 -->
<g id="node11" class="node">
<title>Node11</title>
<g id="a_node11"><a xlink:href="eosfxt_8f.html#a6cbbc7f07cffb75f5efaf893d547852f" target="_top" xlink:title=" ">
<polygon fill="white" stroke="black" points="713,-76.5 713,-95.5 769,-95.5 769,-76.5 713,-76.5"/>
<text text-anchor="middle" x="741" y="-83.5" font-family="Helvetica,sans-Serif" font-size="10.00">dqleg020</text>
</a>
</g>
</g>
<!-- Node9&#45;&gt;Node11 -->
<g id="edge11" class="edge">
<title>Node9&#45;&gt;Node11</title>
<path fill="none" stroke="midnightblue" d="M677.2,-71.79C685.04,-73.57 694.17,-75.63 703,-77.63"/>
<polygon fill="midnightblue" stroke="midnightblue" points="702.24,-81.05 712.76,-79.84 703.78,-74.22 702.24,-81.05"/>
</g>
<!-- Node12 -->
<g id="node12" class="node">
<title>Node12</title>
<g id="a_node12"><a xlink:href="eosfxt_8f.html#a9d9951640d440972fe5298fdd5d70c10" target="_top" xlink:title=" ">
<polygon fill="white" stroke="black" points="716.5,-38.5 716.5,-57.5 765.5,-57.5 765.5,-38.5 716.5,-38.5"/>
<text text-anchor="middle" x="741" y="-45.5" font-family="Helvetica,sans-Serif" font-size="10.00">fdfunc1</text>
</a>
</g>
</g>
<!-- Node9&#45;&gt;Node12 -->
<g id="edge12" class="edge">
<title>Node9&#45;&gt;Node12</title>
<path fill="none" stroke="midnightblue" d="M677.2,-62.21C686.07,-60.2 696.6,-57.82 706.48,-55.58"/>
<polygon fill="midnightblue" stroke="midnightblue" points="707.46,-58.95 716.44,-53.33 705.91,-52.12 707.46,-58.95"/>
</g>
<!-- Node13 -->
<g id="node13" class="node">
<title>Node13</title>
<g id="a_node13"><a xlink:href="eosfxt_8f.html#ae834089002139b7a18c24a337f6ff90a" target="_top" xlink:title=" ">
<polygon fill="white" stroke="black" points="716.5,-0.5 716.5,-19.5 765.5,-19.5 765.5,-0.5 716.5,-0.5"/>
<text text-anchor="middle" x="741" y="-7.5" font-family="Helvetica,sans-Serif" font-size="10.00">fdfunc2</text>
</a>
</g>
</g>
<!-- Node9&#45;&gt;Node13 -->
<g id="edge13" class="edge">
<title>Node9&#45;&gt;Node13</title>
<path fill="none" stroke="midnightblue" d="M670.25,-57.33C683.12,-48.6 702.28,-35.6 717.26,-25.43"/>
<polygon fill="midnightblue" stroke="midnightblue" points="719.65,-28.04 725.96,-19.53 715.72,-22.25 719.65,-28.04"/>
</g>
<!-- Node14&#45;&gt;Node3 -->
<g id="edge16" class="edge">
<title>Node14&#45;&gt;Node3</title>
<path fill="none" stroke="midnightblue" d="M267.73,-76.02C280.21,-79.61 293.66,-83.48 306.54,-87.18"/>
<polygon fill="midnightblue" stroke="midnightblue" points="305.67,-90.57 316.25,-89.97 307.61,-83.85 305.67,-90.57"/>
</g>
</g>
</svg>
        <g id="navigator" transform="translate(0 0)" fill="#404254">
                <rect fill="#f2f5e9" fill-opacity="0.5" stroke="#606060" stroke-width=".5" x="0" y="0" width="60" height="60"/>
                <use id="zoomplus" xlink:href="#zoomPlus" x="17" y="9" onmousedown="handleZoom(evt,'in')"/>
                <use id="zoomminus" xlink:href="#zoomMin" x="42" y="9" onmousedown="handleZoom(evt,'out')"/>
                <use id="reset" xlink:href="#resetDef" x="30" y="36" onmousedown="handleReset()"/>
                <g id="arrowUp" xlink:href="#dirArrow" transform="translate(30 24)" onmousedown="handlePan(0,-1)">
                  <use xlink:href="#rim" fill="#404040">
                        <set attributeName="fill" to="#808080" begin="arrowUp.mouseover" end="arrowUp.mouseout"/>
                  </use>
                  <path fill="none" stroke="white" stroke-width="1.5" d="M0,-3.0v7 M-2.5,-0.5L0,-3.0L2.5,-0.5"/>
                </g>
                <g id="arrowRight" xlink:href="#dirArrow" transform="rotate(90) translate(36 -43)" onmousedown="handlePan(1,0)">
                  <use xlink:href="#rim" fill="#404040">
                        <set attributeName="fill" to="#808080" begin="arrowRight.mouseover" end="arrowRight.mouseout"/>
                  </use>
                  <path fill="none" stroke="white" stroke-width="1.5" d="M0,-3.0v7 M-2.5,-0.5L0,-3.0L2.5,-0.5"/>
                </g>
                <g id="arrowDown" xlink:href="#dirArrow" transform="rotate(180) translate(-30 -48)" onmousedown="handlePan(0,1)">
                  <use xlink:href="#rim" fill="#404040">
                        <set attributeName="fill" to="#808080" begin="arrowDown.mouseover" end="arrowDown.mouseout"/>
                  </use>
                  <path fill="none" stroke="white" stroke-width="1.5" d="M0,-3.0v7 M-2.5,-0.5L0,-3.0L2.5,-0.5"/>
                </g>
                <g id="arrowLeft" xlink:href="#dirArrow" transform="rotate(270) translate(-36 17)" onmousedown="handlePan(-1,0)">
                  <use xlink:href="#rim" fill="#404040">
                        <set attributeName="fill" to="#808080" begin="arrowLeft.mouseover" end="arrowLeft.mouseout"/>
                  </use>
                  <path fill="none" stroke="white" stroke-width="1.5" d="M0,-3.0v7 M-2.5,-0.5L0,-3.0L2.5,-0.5"/>
                </g>
        </g>
        <svg viewBox="0 0 15 15" width="100%" height="30px" preserveAspectRatio="xMaxYMin meet">
         <g id="arrow_out" transform="scale(0.3 0.3)">
          <a xlink:href="namespacels__timmes__eos__module_a7f522fa32c0a061060a07863c7a8b05c_cgraph_org.svg" target="_base">
           <rect id="button" ry="5" rx="5" y="6" x="6" height="38" width="38"
                fill="#f2f5e9" fill-opacity="0.5" stroke="#606060" stroke-width="1.0"/>
           <path id="arrow"
             d="M 11.500037,31.436501 C 11.940474,20.09759 22.043105,11.32322 32.158766,21.979434 L 37.068811,17.246167 C 37.068811,17.246167 37.088388,32 37.088388,32 L 22.160133,31.978069 C 22.160133,31.978069 26.997745,27.140456 26.997745,27.140456 C 18.528582,18.264221 13.291696,25.230495 11.500037,31.436501 z"
             style="fill:#404040;"/>
          </a>
         </g>
        </svg>
</svg>
