<?xml version="1.0" encoding="UTF-8" standalone="no"?>
<!DOCTYPE svg PUBLIC "-//W3C//DTD SVG 1.1//EN"
 "http://www.w3.org/Graphics/SVG/1.1/DTD/svg11.dtd">
<!-- Generated by graphviz version 2.44.0 ()
 -->
<!-- Title: inter_module::interp1d Pages: 1 -->
<svg width="425pt" height="268pt"
 viewBox="0.00 0.00 425.00 268.00" xmlns="http://www.w3.org/2000/svg" xmlns:xlink="http://www.w3.org/1999/xlink">
<g id="graph0" class="graph" transform="scale(1 1) rotate(0) translate(4 264)">
<title>inter_module::interp1d</title>
<polygon fill="white" stroke="transparent" points="-4,4 -4,-264 421,-264 421,4 -4,4"/>
<!-- Node1 -->
<g id="node1" class="node">
<title>Node1</title>
<g id="a_node1"><a xlink:title="Interface for 1D interpolation routines.">
<polygon fill="#bfbfbf" stroke="black" points="0,-126.5 0,-145.5 111,-145.5 111,-126.5 0,-126.5"/>
<text text-anchor="middle" x="55.5" y="-133.5" font-family="Helvetica,sans-Serif" font-size="10.00">inter_module::interp1d</text>
</a>
</g>
</g>
<!-- Node2 -->
<g id="node2" class="node">
<title>Node2</title>
<g id="a_node2"><a xlink:href="namespaceinter__module.html#a0f02e3fce3429d031516cf2f47f521de" target="_top" xlink:title="Interpolation using prescription of Akima.">
<polygon fill="white" stroke="black" points="151,-240.5 151,-259.5 273,-259.5 273,-240.5 151,-240.5"/>
<text text-anchor="middle" x="212" y="-247.5" font-family="Helvetica,sans-Serif" font-size="10.00">inter_module::akimainter</text>
</a>
</g>
</g>
<!-- Node1&#45;&gt;Node2 -->
<g id="edge1" class="edge">
<title>Node1&#45;&gt;Node2</title>
<path fill="none" stroke="midnightblue" d="M63.01,-145.66C76.43,-164.83 109.11,-207.82 147,-231 150.41,-233.08 154.05,-234.95 157.82,-236.62"/>
<polygon fill="midnightblue" stroke="midnightblue" points="156.75,-239.97 167.34,-240.38 159.33,-233.45 156.75,-239.97"/>
</g>
<!-- Node3 -->
<g id="node3" class="node">
<title>Node3</title>
<g id="a_node3"><a xlink:href="namespaceinter__module.html#a5a696cd56302b2491c59781808af4c08" target="_top" xlink:title="Cubic interpolation in log&#45;log space. Here, it is assumed that.">
<polygon fill="white" stroke="black" points="156.5,-202.5 156.5,-221.5 267.5,-221.5 267.5,-202.5 156.5,-202.5"/>
<text text-anchor="middle" x="212" y="-209.5" font-family="Helvetica,sans-Serif" font-size="10.00">inter_module::cubinter</text>
</a>
</g>
</g>
<!-- Node1&#45;&gt;Node3 -->
<g id="edge2" class="edge">
<title>Node1&#45;&gt;Node3</title>
<path fill="none" stroke="midnightblue" d="M71.47,-145.61C89.09,-156.69 119.46,-175.03 147,-188 155.27,-191.89 164.35,-195.62 173.02,-198.92"/>
<polygon fill="midnightblue" stroke="midnightblue" points="171.96,-202.26 182.55,-202.46 174.39,-195.7 171.96,-202.26"/>
</g>
<!-- Node4 -->
<g id="node4" class="node">
<title>Node4</title>
<g id="a_node4"><a xlink:href="namespaceerror__msg__class.html#a7e065585cc806a5c264de1f088266498" target="_top" xlink:title="Converts a given integer to a string.">
<polygon fill="white" stroke="black" points="313,-99 313,-129 417,-129 417,-99 313,-99"/>
<text text-anchor="start" x="321" y="-117" font-family="Helvetica,sans-Serif" font-size="10.00">error_msg_class::int</text>
<text text-anchor="middle" x="365" y="-106" font-family="Helvetica,sans-Serif" font-size="10.00">_to_str</text>
</a>
</g>
</g>
<!-- Node1&#45;&gt;Node4 -->
<g id="edge3" class="edge">
<title>Node1&#45;&gt;Node4</title>
<path fill="none" stroke="midnightblue" d="M91.69,-145.55C135.59,-155.97 212.7,-169.39 277,-155 295.66,-150.82 315.04,-142.18 330.75,-133.9"/>
<polygon fill="midnightblue" stroke="midnightblue" points="332.45,-136.96 339.55,-129.1 329.1,-130.82 332.45,-136.96"/>
</g>
<!-- Node5 -->
<g id="node5" class="node">
<title>Node5</title>
<g id="a_node5"><a xlink:href="namespaceinter__module.html#ac57284b6bef315c7066a880358ae0862" target="_top" xlink:title="Linear interpolation in lin&#45;log space.">
<polygon fill="white" stroke="black" points="159.5,-126.5 159.5,-145.5 264.5,-145.5 264.5,-126.5 159.5,-126.5"/>
<text text-anchor="middle" x="212" y="-133.5" font-family="Helvetica,sans-Serif" font-size="10.00">inter_module::lininter</text>
</a>
</g>
</g>
<!-- Node1&#45;&gt;Node5 -->
<g id="edge4" class="edge">
<title>Node1&#45;&gt;Node5</title>
<path fill="none" stroke="midnightblue" d="M111.41,-136C123.6,-136 136.61,-136 149.07,-136"/>
<polygon fill="midnightblue" stroke="midnightblue" points="149.37,-139.5 159.37,-136 149.37,-132.5 149.37,-139.5"/>
</g>
<!-- Node6 -->
<g id="node6" class="node">
<title>Node6</title>
<g id="a_node6"><a xlink:href="namespaceinter__module.html#a338de641fc764e51a6ce814e25e70ef2" target="_top" xlink:title="Interpolation using modified prescription of Akima.">
<polygon fill="white" stroke="black" points="147,-88.5 147,-107.5 277,-107.5 277,-88.5 147,-88.5"/>
<text text-anchor="middle" x="212" y="-95.5" font-family="Helvetica,sans-Serif" font-size="10.00">inter_module::makimainter</text>
</a>
</g>
</g>
<!-- Node1&#45;&gt;Node6 -->
<g id="edge5" class="edge">
<title>Node1&#45;&gt;Node6</title>
<path fill="none" stroke="midnightblue" d="M95.49,-126.41C115.78,-121.42 140.79,-115.27 162.35,-109.97"/>
<polygon fill="midnightblue" stroke="midnightblue" points="163.42,-113.31 172.29,-107.52 161.75,-106.51 163.42,-113.31"/>
</g>
<!-- Node7 -->
<g id="node7" class="node">
<title>Node7</title>
<g id="a_node7"><a xlink:href="namespaceinter__module.html#a4b1d9613e140541539a602d2f985b5c7" target="_top" xlink:title="PCHIP interpolation in lin&#45;log space.">
<polygon fill="white" stroke="black" points="152.5,-0.5 152.5,-19.5 271.5,-19.5 271.5,-0.5 152.5,-0.5"/>
<text text-anchor="middle" x="212" y="-7.5" font-family="Helvetica,sans-Serif" font-size="10.00">inter_module::pchipinter</text>
</a>
</g>
</g>
<!-- Node1&#45;&gt;Node7 -->
<g id="edge6" class="edge">
<title>Node1&#45;&gt;Node7</title>
<path fill="none" stroke="midnightblue" d="M61.93,-126.39C74.26,-105.45 106.47,-55.48 147,-29 150.14,-26.95 153.52,-25.11 157.01,-23.46"/>
<polygon fill="midnightblue" stroke="midnightblue" points="158.57,-26.61 166.47,-19.55 155.89,-20.14 158.57,-26.61"/>
</g>
<!-- Node9 -->
<g id="node9" class="node">
<title>Node9</title>
<g id="a_node9"><a xlink:href="namespaceerror__msg__class.html#a2453d3b7cb363115c046840baa1dfb75" target="_top" xlink:title="Raise a exception with a given error message.">
<polygon fill="white" stroke="black" points="155,-39 155,-69 269,-69 269,-39 155,-39"/>
<text text-anchor="start" x="163" y="-57" font-family="Helvetica,sans-Serif" font-size="10.00">error_msg_class::raise</text>
<text text-anchor="middle" x="212" y="-46" font-family="Helvetica,sans-Serif" font-size="10.00">_exception</text>
</a>
</g>
</g>
<!-- Node1&#45;&gt;Node9 -->
<g id="edge8" class="edge">
<title>Node1&#45;&gt;Node9</title>
<path fill="none" stroke="midnightblue" d="M69.83,-126.47C87.07,-114.41 118.32,-93.47 147,-79 151.06,-76.95 155.34,-74.96 159.67,-73.05"/>
<polygon fill="midnightblue" stroke="midnightblue" points="161.34,-76.14 169.18,-69.01 158.61,-69.69 161.34,-76.14"/>
</g>
<!-- Node8 -->
<g id="node8" class="node">
<title>Node8</title>
<g id="a_node8"><a xlink:href="quadpack__module_8f90.html#aada5a652920db442d627f1ca24ff25d7" target="_top" xlink:title="Further information: http://netlib.org/quadpack/index.html https://orion.math.iastate....">
<polygon fill="white" stroke="black" points="350.5,-0.5 350.5,-19.5 379.5,-19.5 379.5,-0.5 350.5,-0.5"/>
<text text-anchor="middle" x="365" y="-7.5" font-family="Helvetica,sans-Serif" font-size="10.00">pi</text>
</a>
</g>
</g>
<!-- Node7&#45;&gt;Node8 -->
<g id="edge7" class="edge">
<title>Node7&#45;&gt;Node8</title>
<path fill="none" stroke="midnightblue" d="M271.81,-10C295.65,-10 321.83,-10 340.18,-10"/>
<polygon fill="midnightblue" stroke="midnightblue" points="340.25,-13.5 350.25,-10 340.25,-6.5 340.25,-13.5"/>
</g>
<!-- Node9&#45;&gt;Node4 -->
<g id="edge9" class="edge">
<title>Node9&#45;&gt;Node4</title>
<path fill="none" stroke="midnightblue" d="M251.61,-69.01C259.98,-72.29 268.79,-75.75 277,-79 290.15,-84.21 304.4,-89.92 317.49,-95.19"/>
<polygon fill="midnightblue" stroke="midnightblue" points="316.19,-98.44 326.78,-98.93 318.81,-91.95 316.19,-98.44"/>
</g>
</g>
</svg>
