<?xml version="1.0" encoding="UTF-8" standalone="no"?>
<!DOCTYPE svg PUBLIC "-//W3C//DTD SVG 1.1//EN"
 "http://www.w3.org/Graphics/SVG/1.1/DTD/svg11.dtd">
<!-- Generated by graphviz version 2.44.0 ()
 -->
<!-- Title: fission_rate_module::write_reac_verbose_out Pages: 1 -->
<svg width="433pt" height="88pt"
 viewBox="0.00 0.00 433.00 88.00" xmlns="http://www.w3.org/2000/svg" xmlns:xlink="http://www.w3.org/1999/xlink">
<g id="graph0" class="graph" transform="scale(1 1) rotate(0) translate(4 84)">
<title>fission_rate_module::write_reac_verbose_out</title>
<polygon fill="white" stroke="transparent" points="-4,4 -4,-84 429,-84 429,4 -4,4"/>
<!-- Node1 -->
<g id="node1" class="node">
<title>Node1</title>
<g id="a_node1"><a xlink:title="Write the amount of individual reactions to the out.">
<polygon fill="#bfbfbf" stroke="black" points="0,-24.5 0,-54.5 125,-54.5 125,-24.5 0,-24.5"/>
<text text-anchor="start" x="8" y="-42.5" font-family="Helvetica,sans-Serif" font-size="10.00">fission_rate_module</text>
<text text-anchor="middle" x="62.5" y="-31.5" font-family="Helvetica,sans-Serif" font-size="10.00">::write_reac_verbose_out</text>
</a>
</g>
</g>
<!-- Node2 -->
<g id="node2" class="node">
<title>Node2</title>
<g id="a_node2"><a xlink:href="namespaceerror__msg__class.html#a7e065585cc806a5c264de1f088266498" target="_top" xlink:title="Converts a given integer to a string.">
<polygon fill="white" stroke="black" points="166,-49.5 166,-79.5 270,-79.5 270,-49.5 166,-49.5"/>
<text text-anchor="start" x="174" y="-67.5" font-family="Helvetica,sans-Serif" font-size="10.00">error_msg_class::int</text>
<text text-anchor="middle" x="218" y="-56.5" font-family="Helvetica,sans-Serif" font-size="10.00">_to_str</text>
</a>
</g>
</g>
<!-- Node1&#45;&gt;Node2 -->
<g id="edge1" class="edge">
<title>Node1&#45;&gt;Node2</title>
<path fill="none" stroke="midnightblue" d="M125.05,-49.52C135.18,-51.17 145.69,-52.89 155.81,-54.53"/>
<polygon fill="midnightblue" stroke="midnightblue" points="155.35,-58.01 165.78,-56.16 156.48,-51.1 155.35,-58.01"/>
</g>
<!-- Node3 -->
<g id="node3" class="node">
<title>Node3</title>
<g id="a_node3"><a xlink:href="namespaceerror__msg__class.html#a339dd5b38c125b6a04653762c94a91f2" target="_top" xlink:title="Write data to the standard output (usually OUT)">
<polygon fill="white" stroke="black" points="161,-0.5 161,-30.5 275,-30.5 275,-0.5 161,-0.5"/>
<text text-anchor="start" x="169" y="-18.5" font-family="Helvetica,sans-Serif" font-size="10.00">error_msg_class::write</text>
<text text-anchor="middle" x="218" y="-7.5" font-family="Helvetica,sans-Serif" font-size="10.00">_data_to_std_out</text>
</a>
</g>
</g>
<!-- Node1&#45;&gt;Node3 -->
<g id="edge2" class="edge">
<title>Node1&#45;&gt;Node3</title>
<path fill="none" stroke="midnightblue" d="M125.05,-29.88C133.56,-28.55 142.34,-27.17 150.93,-25.83"/>
<polygon fill="midnightblue" stroke="midnightblue" points="151.56,-29.27 160.9,-24.27 150.48,-22.36 151.56,-29.27"/>
</g>
<!-- Node4 -->
<g id="node4" class="node">
<title>Node4</title>
<g id="a_node4"><a xlink:href="namespaceerror__msg__class.html#af62b9a0c5997255e792b9ebd7322a6a3" target="_top" xlink:title="Write the header of the standard output (usually OUT)">
<polygon fill="white" stroke="black" points="311,-0.5 311,-30.5 425,-30.5 425,-0.5 311,-0.5"/>
<text text-anchor="start" x="319" y="-18.5" font-family="Helvetica,sans-Serif" font-size="10.00">error_msg_class::write</text>
<text text-anchor="middle" x="368" y="-7.5" font-family="Helvetica,sans-Serif" font-size="10.00">_header</text>
</a>
</g>
</g>
<!-- Node3&#45;&gt;Node4 -->
<g id="edge3" class="edge">
<title>Node3&#45;&gt;Node4</title>
<path fill="none" stroke="midnightblue" d="M275.37,-8.92C283.62,-8.76 292.18,-8.71 300.6,-8.78"/>
<polygon fill="midnightblue" stroke="midnightblue" points="300.73,-12.28 310.78,-8.93 300.83,-5.28 300.73,-12.28"/>
</g>
<!-- Node4&#45;&gt;Node3 -->
<g id="edge4" class="edge">
<title>Node4&#45;&gt;Node3</title>
<path fill="none" stroke="midnightblue" d="M310.78,-22.07C302.54,-22.24 293.98,-22.29 285.56,-22.22"/>
<polygon fill="midnightblue" stroke="midnightblue" points="285.42,-18.72 275.37,-22.08 285.32,-25.72 285.42,-18.72"/>
</g>
</g>
</svg>
