<?xml version="1.0" encoding="UTF-8" standalone="no"?>
<!DOCTYPE svg PUBLIC "-//W3C//DTD SVG 1.1//EN"
 "http://www.w3.org/Graphics/SVG/1.1/DTD/svg11.dtd">
<!-- Generated by graphviz version 2.44.0 ()
 -->
<!-- Title: mergesort_module::qsort Pages: 1 -->
<svg width="421pt" height="116pt"
 viewBox="0.00 0.00 421.00 116.00" xmlns="http://www.w3.org/2000/svg" xmlns:xlink="http://www.w3.org/1999/xlink">
<g id="graph0" class="graph" transform="scale(1 1) rotate(0) translate(4 112)">
<title>mergesort_module::qsort</title>
<polygon fill="white" stroke="transparent" points="-4,4 -4,-112 417,-112 417,4 -4,4"/>
<!-- Node1 -->
<g id="node1" class="node">
<title>Node1</title>
<g id="a_node1"><a xlink:title="Modified quicksort algorithm.">
<polygon fill="#bfbfbf" stroke="black" points="0,-44.5 0,-63.5 123,-63.5 123,-44.5 0,-44.5"/>
<text text-anchor="middle" x="61.5" y="-51.5" font-family="Helvetica,sans-Serif" font-size="10.00">mergesort_module::qsort</text>
</a>
</g>
</g>
<!-- Node2 -->
<g id="node2" class="node">
<title>Node2</title>
<g id="a_node2"><a xlink:href="quadpack__module_8f90.html#a55e08a684c5a6315fb37dd0fdc66d8e6" target="_top" xlink:title=" ">
<polygon fill="white" stroke="black" points="197,-88.5 197,-107.5 235,-107.5 235,-88.5 197,-88.5"/>
<text text-anchor="middle" x="216" y="-95.5" font-family="Helvetica,sans-Serif" font-size="10.00">qsort</text>
</a>
</g>
</g>
<!-- Node1&#45;&gt;Node2 -->
<g id="edge1" class="edge">
<title>Node1&#45;&gt;Node2</title>
<path fill="none" stroke="midnightblue" d="M95.59,-63.55C122.85,-71.41 161.07,-82.44 186.87,-89.88"/>
<polygon fill="midnightblue" stroke="midnightblue" points="186.19,-93.33 196.76,-92.74 188.13,-86.6 186.19,-93.33"/>
</g>
<!-- Node3 -->
<g id="node3" class="node">
<title>Node3</title>
<g id="a_node3"><a xlink:href="namespaceerror__msg__class.html#a2453d3b7cb363115c046840baa1dfb75" target="_top" xlink:title="Raise a exception with a given error message.">
<polygon fill="white" stroke="black" points="159,-39 159,-69 273,-69 273,-39 159,-39"/>
<text text-anchor="start" x="167" y="-57" font-family="Helvetica,sans-Serif" font-size="10.00">error_msg_class::raise</text>
<text text-anchor="middle" x="216" y="-46" font-family="Helvetica,sans-Serif" font-size="10.00">_exception</text>
</a>
</g>
</g>
<!-- Node1&#45;&gt;Node3 -->
<g id="edge2" class="edge">
<title>Node1&#45;&gt;Node3</title>
<path fill="none" stroke="midnightblue" d="M123.21,-54C131.6,-54 140.24,-54 148.72,-54"/>
<polygon fill="midnightblue" stroke="midnightblue" points="148.95,-57.5 158.95,-54 148.95,-50.5 148.95,-57.5"/>
</g>
<!-- Node5 -->
<g id="node5" class="node">
<title>Node5</title>
<g id="a_node5"><a xlink:href="mergesort__module_8f90.html#abd5c6789399ce78a2b89066e4d658078" target="_top" xlink:title="Returns a key for sorting a rate array by concatenating isotope indices.">
<polygon fill="white" stroke="black" points="183.5,-0.5 183.5,-19.5 248.5,-19.5 248.5,-0.5 183.5,-0.5"/>
<text text-anchor="middle" x="216" y="-7.5" font-family="Helvetica,sans-Serif" font-size="10.00">ratesortkey</text>
</a>
</g>
</g>
<!-- Node1&#45;&gt;Node5 -->
<g id="edge4" class="edge">
<title>Node1&#45;&gt;Node5</title>
<path fill="none" stroke="midnightblue" d="M95.59,-44.45C118.46,-37.86 149.05,-29.03 173.54,-21.96"/>
<polygon fill="midnightblue" stroke="midnightblue" points="174.64,-25.29 183.28,-19.15 172.7,-18.56 174.64,-25.29"/>
</g>
<!-- Node4 -->
<g id="node4" class="node">
<title>Node4</title>
<g id="a_node4"><a xlink:href="namespaceerror__msg__class.html#a7e065585cc806a5c264de1f088266498" target="_top" xlink:title="Converts a given integer to a string.">
<polygon fill="white" stroke="black" points="309,-39 309,-69 413,-69 413,-39 309,-39"/>
<text text-anchor="start" x="317" y="-57" font-family="Helvetica,sans-Serif" font-size="10.00">error_msg_class::int</text>
<text text-anchor="middle" x="361" y="-46" font-family="Helvetica,sans-Serif" font-size="10.00">_to_str</text>
</a>
</g>
</g>
<!-- Node3&#45;&gt;Node4 -->
<g id="edge3" class="edge">
<title>Node3&#45;&gt;Node4</title>
<path fill="none" stroke="midnightblue" d="M273.11,-54C281.45,-54 290.09,-54 298.54,-54"/>
<polygon fill="midnightblue" stroke="midnightblue" points="298.71,-57.5 308.71,-54 298.71,-50.5 298.71,-57.5"/>
</g>
</g>
</svg>
