<?xml version="1.0" encoding="UTF-8" standalone="no"?>
<!DOCTYPE svg PUBLIC "-//W3C//DTD SVG 1.1//EN"
 "http://www.w3.org/Graphics/SVG/1.1/DTD/svg11.dtd">
<!-- Generated by graphviz version 2.44.0 ()
 -->
<!-- Title: mergesort_module::reorder Pages: 1 -->
<svg width="429pt" height="61pt"
 viewBox="0.00 0.00 429.00 61.00" xmlns="http://www.w3.org/2000/svg" xmlns:xlink="http://www.w3.org/1999/xlink">
<g id="graph0" class="graph" transform="scale(1 1) rotate(0) translate(4 57)">
<title>mergesort_module::reorder</title>
<polygon fill="white" stroke="transparent" points="-4,4 -4,-57 425,-57 425,4 -4,4"/>
<!-- Node1 -->
<g id="node1" class="node">
<title>Node1</title>
<g id="a_node1"><a xlink:title="Takes an array and an array with indices to reorder the first array.">
<polygon fill="#bfbfbf" stroke="black" points="0,-28 0,-47 131,-47 131,-28 0,-28"/>
<text text-anchor="middle" x="65.5" y="-35" font-family="Helvetica,sans-Serif" font-size="10.00">mergesort_module::reorder</text>
</a>
</g>
</g>
<!-- Node2 -->
<g id="node2" class="node">
<title>Node2</title>
<g id="a_node2"><a xlink:href="namespaceerror__msg__class.html#a7e065585cc806a5c264de1f088266498" target="_top" xlink:title="Converts a given integer to a string.">
<polygon fill="white" stroke="black" points="317,-22.5 317,-52.5 421,-52.5 421,-22.5 317,-22.5"/>
<text text-anchor="start" x="325" y="-40.5" font-family="Helvetica,sans-Serif" font-size="10.00">error_msg_class::int</text>
<text text-anchor="middle" x="369" y="-29.5" font-family="Helvetica,sans-Serif" font-size="10.00">_to_str</text>
</a>
</g>
</g>
<!-- Node1&#45;&gt;Node2 -->
<g id="edge1" class="edge">
<title>Node1&#45;&gt;Node2</title>
<path fill="none" stroke="midnightblue" d="M131.1,-39.71C143.04,-40.04 155.39,-40.33 167,-40.5 217.66,-41.26 230.34,-41.37 281,-40.5 289.36,-40.36 298.18,-40.13 306.85,-39.87"/>
<polygon fill="midnightblue" stroke="midnightblue" points="307.06,-43.37 316.94,-39.55 306.84,-36.37 307.06,-43.37"/>
</g>
<!-- Node3 -->
<g id="node3" class="node">
<title>Node3</title>
<g id="a_node3"><a xlink:href="namespaceerror__msg__class.html#a2453d3b7cb363115c046840baa1dfb75" target="_top" xlink:title="Raise a exception with a given error message.">
<polygon fill="white" stroke="black" points="167,-0.5 167,-30.5 281,-30.5 281,-0.5 167,-0.5"/>
<text text-anchor="start" x="175" y="-18.5" font-family="Helvetica,sans-Serif" font-size="10.00">error_msg_class::raise</text>
<text text-anchor="middle" x="224" y="-7.5" font-family="Helvetica,sans-Serif" font-size="10.00">_exception</text>
</a>
</g>
</g>
<!-- Node1&#45;&gt;Node3 -->
<g id="edge2" class="edge">
<title>Node1&#45;&gt;Node3</title>
<path fill="none" stroke="midnightblue" d="M131.06,-28.42C139.44,-27.25 148.04,-26.04 156.45,-24.86"/>
<polygon fill="midnightblue" stroke="midnightblue" points="157.17,-28.29 166.59,-23.43 156.2,-21.36 157.17,-28.29"/>
</g>
<!-- Node3&#45;&gt;Node2 -->
<g id="edge3" class="edge">
<title>Node3&#45;&gt;Node2</title>
<path fill="none" stroke="midnightblue" d="M281.11,-24.13C289.54,-25.43 298.28,-26.77 306.81,-28.09"/>
<polygon fill="midnightblue" stroke="midnightblue" points="306.3,-31.55 316.71,-29.61 307.36,-24.63 306.3,-31.55"/>
</g>
</g>
</svg>
