<?xml version="1.0" encoding="UTF-8" standalone="no"?>
<!DOCTYPE svg PUBLIC "-//W3C//DTD SVG 1.1//EN"
 "http://www.w3.org/Graphics/SVG/1.1/DTD/svg11.dtd">
<!-- Generated by graphviz version 2.44.0 ()
 -->
<!-- Title: reaclib_rate_module::calculate_reacl_rate Pages: 1 -->
<svg width="441pt" height="39pt"
 viewBox="0.00 0.00 441.00 39.00" xmlns="http://www.w3.org/2000/svg" xmlns:xlink="http://www.w3.org/1999/xlink">
<g id="graph0" class="graph" transform="scale(1 1) rotate(0) translate(4 35)">
<title>reaclib_rate_module::calculate_reacl_rate</title>
<polygon fill="white" stroke="transparent" points="-4,4 -4,-35 437,-35 437,4 -4,4"/>
<!-- Node1 -->
<g id="node1" class="node">
<title>Node1</title>
<g id="a_node1"><a xlink:title="Calculate a reaclib rate.">
<polygon fill="#bfbfbf" stroke="black" points="0,-0.5 0,-30.5 108,-30.5 108,-0.5 0,-0.5"/>
<text text-anchor="start" x="8" y="-18.5" font-family="Helvetica,sans-Serif" font-size="10.00">reaclib_rate_module</text>
<text text-anchor="middle" x="54" y="-7.5" font-family="Helvetica,sans-Serif" font-size="10.00">::calculate_reacl_rate</text>
</a>
</g>
</g>
<!-- Node2 -->
<g id="node2" class="node">
<title>Node2</title>
<g id="a_node2"><a xlink:href="namespacebenam__class.html#a2e85786a53d55231776ae950b7b27953" target="_top" xlink:title="Return a string to represent a given reaction.">
<polygon fill="white" stroke="black" points="144,-0.5 144,-30.5 257,-30.5 257,-0.5 144,-0.5"/>
<text text-anchor="start" x="152" y="-18.5" font-family="Helvetica,sans-Serif" font-size="10.00">benam_class::reaction</text>
<text text-anchor="middle" x="200.5" y="-7.5" font-family="Helvetica,sans-Serif" font-size="10.00">_string</text>
</a>
</g>
</g>
<!-- Node1&#45;&gt;Node2 -->
<g id="edge1" class="edge">
<title>Node1&#45;&gt;Node2</title>
<path fill="none" stroke="midnightblue" d="M108.4,-15.5C116.63,-15.5 125.21,-15.5 133.67,-15.5"/>
<polygon fill="midnightblue" stroke="midnightblue" points="133.9,-19 143.9,-15.5 133.9,-12 133.9,-19"/>
</g>
<!-- Node3 -->
<g id="node3" class="node">
<title>Node3</title>
<g id="a_node3"><a xlink:href="namespacebenam__class.html#afd880df70f94c289b6bda0647f4494e3" target="_top" xlink:title="Getter of net_names, translating indices to a nucleus name.">
<polygon fill="white" stroke="black" points="293,-6 293,-25 433,-25 433,-6 293,-6"/>
<text text-anchor="middle" x="363" y="-13" font-family="Helvetica,sans-Serif" font-size="10.00">benam_class::get_net_name</text>
</a>
</g>
</g>
<!-- Node2&#45;&gt;Node3 -->
<g id="edge2" class="edge">
<title>Node2&#45;&gt;Node3</title>
<path fill="none" stroke="midnightblue" d="M257.18,-15.5C265.45,-15.5 274.1,-15.5 282.73,-15.5"/>
<polygon fill="midnightblue" stroke="midnightblue" points="282.84,-19 292.84,-15.5 282.84,-12 282.84,-19"/>
</g>
</g>
</svg>
