<?xml version="1.0" encoding="UTF-8" standalone="no"?>
<!DOCTYPE svg PUBLIC "-//W3C//DTD SVG 1.1//EN"
 "http://www.w3.org/Graphics/SVG/1.1/DTD/svg11.dtd">
<!-- Generated by graphviz version 2.44.0 ()
 -->
<!-- Title: gear_module::geterrors Pages: 1 -->
<svg width="536pt" height="104pt"
 viewBox="0.00 0.00 536.00 104.00" xmlns="http://www.w3.org/2000/svg" xmlns:xlink="http://www.w3.org/1999/xlink">
<g id="graph0" class="graph" transform="scale(1 1) rotate(0) translate(4 100)">
<title>gear_module::geterrors</title>
<polygon fill="white" stroke="transparent" points="-4,4 -4,-100 532,-100 532,4 -4,4"/>
<!-- Node1 -->
<g id="node1" class="node">
<title>Node1</title>
<g id="a_node1"><a xlink:title="Calculate errors (helper functions below)">
<polygon fill="#bfbfbf" stroke="black" points="0,-38.5 0,-57.5 115,-57.5 115,-38.5 0,-38.5"/>
<text text-anchor="middle" x="57.5" y="-45.5" font-family="Helvetica,sans-Serif" font-size="10.00">gear_module::geterrors</text>
</a>
</g>
</g>
<!-- Node2 -->
<g id="node2" class="node">
<title>Node2</title>
<g id="a_node2"><a xlink:href="namespacegear__module.html#a2cbafe47bb69873fc1a49f0308b10d1b" target="_top" xlink:title="Calculate the errors for the current order.">
<polygon fill="white" stroke="black" points="158,-76.5 158,-95.5 259,-95.5 259,-76.5 158,-76.5"/>
<text text-anchor="middle" x="208.5" y="-83.5" font-family="Helvetica,sans-Serif" font-size="10.00">gear_module::errorq</text>
</a>
</g>
</g>
<!-- Node1&#45;&gt;Node2 -->
<g id="edge1" class="edge">
<title>Node1&#45;&gt;Node2</title>
<path fill="none" stroke="midnightblue" d="M96.1,-57.59C115.58,-62.56 139.57,-68.68 160.3,-73.96"/>
<polygon fill="midnightblue" stroke="midnightblue" points="159.62,-77.4 170.17,-76.48 161.35,-70.62 159.62,-77.4"/>
</g>
<!-- Node3 -->
<g id="node3" class="node">
<title>Node3</title>
<g id="a_node3"><a xlink:href="namespacegear__module.html#ab3f9c438be424fb461b8a90dd3381ddf" target="_top" xlink:title="Calculate the errors for the order (q&#45;1)">
<polygon fill="white" stroke="black" points="151,-38.5 151,-57.5 266,-57.5 266,-38.5 151,-38.5"/>
<text text-anchor="middle" x="208.5" y="-45.5" font-family="Helvetica,sans-Serif" font-size="10.00">gear_module::errorqm1</text>
</a>
</g>
</g>
<!-- Node1&#45;&gt;Node3 -->
<g id="edge2" class="edge">
<title>Node1&#45;&gt;Node3</title>
<path fill="none" stroke="midnightblue" d="M115.26,-48C123.56,-48 132.17,-48 140.65,-48"/>
<polygon fill="midnightblue" stroke="midnightblue" points="140.9,-51.5 150.9,-48 140.9,-44.5 140.9,-51.5"/>
</g>
<!-- Node4 -->
<g id="node4" class="node">
<title>Node4</title>
<g id="a_node4"><a xlink:href="namespacegear__module.html#a5aabe000afc0b33a84492e16c3edd9e0" target="_top" xlink:title="Calculate the errors for the order (q+1)">
<polygon fill="white" stroke="black" points="152.5,-0.5 152.5,-19.5 264.5,-19.5 264.5,-0.5 152.5,-0.5"/>
<text text-anchor="middle" x="208.5" y="-7.5" font-family="Helvetica,sans-Serif" font-size="10.00">gear_module::errorqp1</text>
</a>
</g>
</g>
<!-- Node1&#45;&gt;Node4 -->
<g id="edge3" class="edge">
<title>Node1&#45;&gt;Node4</title>
<path fill="none" stroke="midnightblue" d="M96.1,-38.41C115.58,-33.44 139.57,-27.32 160.3,-22.04"/>
<polygon fill="midnightblue" stroke="midnightblue" points="161.35,-25.38 170.17,-19.52 159.62,-18.6 161.35,-25.38"/>
</g>
<!-- Node5 -->
<g id="node5" class="node">
<title>Node5</title>
<g id="a_node5"><a xlink:href="namespacegear__module.html#a5eb8eb2d29f325cb87a93372cdca9e7b" target="_top" xlink:title="Calculate Helper function Q.">
<polygon fill="white" stroke="black" points="302,-0.5 302,-19.5 397,-19.5 397,-0.5 302,-0.5"/>
<text text-anchor="middle" x="349.5" y="-7.5" font-family="Helvetica,sans-Serif" font-size="10.00">gear_module::qfun</text>
</a>
</g>
</g>
<!-- Node4&#45;&gt;Node5 -->
<g id="edge4" class="edge">
<title>Node4&#45;&gt;Node5</title>
<path fill="none" stroke="midnightblue" d="M264.84,-10C273.65,-10 282.78,-10 291.63,-10"/>
<polygon fill="midnightblue" stroke="midnightblue" points="291.86,-13.5 301.86,-10 291.86,-6.5 291.86,-13.5"/>
</g>
<!-- Node6 -->
<g id="node6" class="node">
<title>Node6</title>
<g id="a_node6"><a xlink:href="namespacegear__module.html#a5e0c979e530f76ee4cd8af42cf121194" target="_top" xlink:title="Calculate helper function C.">
<polygon fill="white" stroke="black" points="433,-0.5 433,-19.5 528,-19.5 528,-0.5 433,-0.5"/>
<text text-anchor="middle" x="480.5" y="-7.5" font-family="Helvetica,sans-Serif" font-size="10.00">gear_module::cfun</text>
</a>
</g>
</g>
<!-- Node5&#45;&gt;Node6 -->
<g id="edge5" class="edge">
<title>Node5&#45;&gt;Node6</title>
<path fill="none" stroke="midnightblue" d="M397.07,-10C405.48,-10 414.32,-10 422.97,-10"/>
<polygon fill="midnightblue" stroke="midnightblue" points="423,-13.5 433,-10 423,-6.5 423,-13.5"/>
</g>
</g>
</svg>
