<?xml version="1.0" encoding="UTF-8" standalone="no"?>
<!DOCTYPE svg PUBLIC "-//W3C//DTD SVG 1.1//EN"
 "http://www.w3.org/Graphics/SVG/1.1/DTD/svg11.dtd">
<!-- Generated by graphviz version 2.44.0 ()
 -->
<!-- Title: tw_rate_module::weak_inter Pages: 1 -->
<svg width="597pt" height="107pt"
 viewBox="0.00 0.00 597.00 107.20" xmlns="http://www.w3.org/2000/svg" xmlns:xlink="http://www.w3.org/1999/xlink">
<g id="graph0" class="graph" transform="scale(1 1) rotate(0) translate(4 103.2)">
<title>tw_rate_module::weak_inter</title>
<polygon fill="white" stroke="transparent" points="-4,4 -4,-103.2 593,-103.2 593,4 -4,4"/>
<!-- Node1 -->
<g id="node1" class="node">
<title>Node1</title>
<g id="a_node1"><a xlink:title="Interpolation interface.">
<polygon fill="#bfbfbf" stroke="black" points="0,-29.65 0,-59.65 113,-59.65 113,-29.65 0,-29.65"/>
<text text-anchor="start" x="8" y="-47.65" font-family="Helvetica,sans-Serif" font-size="10.00">tw_rate_module::weak</text>
<text text-anchor="middle" x="56.5" y="-36.65" font-family="Helvetica,sans-Serif" font-size="10.00">_inter</text>
</a>
</g>
</g>
<!-- Node2 -->
<g id="node2" class="node">
<title>Node2</title>
<g id="a_node2"><a xlink:href="namespaceinter__module.html#a63ff1c6e223efc802d231f8b0b354a22" target="_top" xlink:title="Cubic interpolate on 2&#45;Dimensional grid.">
<polygon fill="white" stroke="black" points="149,-54.15 149,-73.15 276,-73.15 276,-54.15 149,-54.15"/>
<text text-anchor="middle" x="212.5" y="-61.15" font-family="Helvetica,sans-Serif" font-size="10.00">inter_module::cubinter_2d</text>
</a>
</g>
</g>
<!-- Node1&#45;&gt;Node2 -->
<g id="edge1" class="edge">
<title>Node1&#45;&gt;Node2</title>
<path fill="none" stroke="midnightblue" d="M113.1,-51.51C121.46,-52.54 130.18,-53.62 138.83,-54.68"/>
<polygon fill="midnightblue" stroke="midnightblue" points="138.58,-58.18 148.93,-55.93 139.44,-51.23 138.58,-58.18"/>
</g>
<!-- Node4 -->
<g id="node4" class="node">
<title>Node4</title>
<g id="a_node4"><a xlink:href="namespaceerror__msg__class.html#a2453d3b7cb363115c046840baa1dfb75" target="_top" xlink:title="Raise a exception with a given error message.">
<polygon fill="white" stroke="black" points="323.5,-4.65 323.5,-34.65 437.5,-34.65 437.5,-4.65 323.5,-4.65"/>
<text text-anchor="start" x="331.5" y="-22.65" font-family="Helvetica,sans-Serif" font-size="10.00">error_msg_class::raise</text>
<text text-anchor="middle" x="380.5" y="-11.65" font-family="Helvetica,sans-Serif" font-size="10.00">_exception</text>
</a>
</g>
</g>
<!-- Node1&#45;&gt;Node4 -->
<g id="edge9" class="edge">
<title>Node1&#45;&gt;Node4</title>
<path fill="none" stroke="midnightblue" d="M85.84,-29.47C103.46,-20.9 126.9,-11.05 149,-6.65 203.56,4.23 266.73,-0.51 313.12,-7.13"/>
<polygon fill="midnightblue" stroke="midnightblue" points="312.65,-10.6 323.05,-8.61 313.68,-3.67 312.65,-10.6"/>
</g>
<!-- Node5 -->
<g id="node5" class="node">
<title>Node5</title>
<g id="a_node5"><a xlink:href="namespaceerror__msg__class.html#a7e065585cc806a5c264de1f088266498" target="_top" xlink:title="Converts a given integer to a string.">
<polygon fill="white" stroke="black" points="485,-45.65 485,-75.65 589,-75.65 589,-45.65 485,-45.65"/>
<text text-anchor="start" x="493" y="-63.65" font-family="Helvetica,sans-Serif" font-size="10.00">error_msg_class::int</text>
<text text-anchor="middle" x="537" y="-52.65" font-family="Helvetica,sans-Serif" font-size="10.00">_to_str</text>
</a>
</g>
</g>
<!-- Node1&#45;&gt;Node5 -->
<g id="edge5" class="edge">
<title>Node1&#45;&gt;Node5</title>
<path fill="none" stroke="midnightblue" d="M85.84,-59.83C103.46,-68.39 126.9,-78.24 149,-82.65 279.76,-108.72 316.69,-99.12 449,-82.65 457.65,-81.57 466.67,-79.91 475.49,-77.98"/>
<polygon fill="midnightblue" stroke="midnightblue" points="476.39,-81.37 485.34,-75.7 474.81,-74.55 476.39,-81.37"/>
</g>
<!-- Node6 -->
<g id="node6" class="node">
<title>Node6</title>
<g id="a_node6"><a xlink:href="namespaceinter__module.html#a926757c13b25424fa6d751c645dfa6dc" target="_top" xlink:title="Interpolate linearly on 2 Dimensional grid.">
<polygon fill="white" stroke="black" points="152,-16.15 152,-35.15 273,-35.15 273,-16.15 152,-16.15"/>
<text text-anchor="middle" x="212.5" y="-23.15" font-family="Helvetica,sans-Serif" font-size="10.00">inter_module::lininter_2d</text>
</a>
</g>
</g>
<!-- Node1&#45;&gt;Node6 -->
<g id="edge6" class="edge">
<title>Node1&#45;&gt;Node6</title>
<path fill="none" stroke="midnightblue" d="M113.1,-37.79C122.43,-36.64 132.22,-35.43 141.86,-34.24"/>
<polygon fill="midnightblue" stroke="midnightblue" points="142.33,-37.71 151.82,-33.01 141.47,-30.76 142.33,-37.71"/>
</g>
<!-- Node3 -->
<g id="node3" class="node">
<title>Node3</title>
<g id="a_node3"><a xlink:href="namespaceinter__module.html#a947ac5de821c77a2cd1cf1ea1ce43589" target="_top" xlink:title="Get indices of the grid for given x&#45; and y&#45; values.">
<polygon fill="white" stroke="black" points="312,-54.15 312,-73.15 449,-73.15 449,-54.15 312,-54.15"/>
<text text-anchor="middle" x="380.5" y="-61.15" font-family="Helvetica,sans-Serif" font-size="10.00">inter_module::get_indice_2d</text>
</a>
</g>
</g>
<!-- Node2&#45;&gt;Node3 -->
<g id="edge2" class="edge">
<title>Node2&#45;&gt;Node3</title>
<path fill="none" stroke="midnightblue" d="M276.26,-63.65C284.64,-63.65 293.31,-63.65 301.91,-63.65"/>
<polygon fill="midnightblue" stroke="midnightblue" points="301.94,-67.15 311.94,-63.65 301.94,-60.15 301.94,-67.15"/>
</g>
<!-- Node2&#45;&gt;Node4 -->
<g id="edge3" class="edge">
<title>Node2&#45;&gt;Node4</title>
<path fill="none" stroke="midnightblue" d="M249.52,-54.1C268.21,-49.15 291.63,-42.94 313.43,-37.16"/>
<polygon fill="midnightblue" stroke="midnightblue" points="314.54,-40.49 323.31,-34.54 312.75,-33.72 314.54,-40.49"/>
</g>
<!-- Node4&#45;&gt;Node5 -->
<g id="edge4" class="edge">
<title>Node4&#45;&gt;Node5</title>
<path fill="none" stroke="midnightblue" d="M437.72,-34.57C449.9,-37.8 462.84,-41.23 475.2,-44.51"/>
<polygon fill="midnightblue" stroke="midnightblue" points="474.39,-47.92 484.95,-47.1 476.19,-41.15 474.39,-47.92"/>
</g>
<!-- Node6&#45;&gt;Node3 -->
<g id="edge7" class="edge">
<title>Node6&#45;&gt;Node3</title>
<path fill="none" stroke="midnightblue" d="M255.39,-35.24C277.39,-40.27 304.55,-46.49 327.85,-51.82"/>
<polygon fill="midnightblue" stroke="midnightblue" points="327.38,-55.31 337.91,-54.13 328.95,-48.48 327.38,-55.31"/>
</g>
<!-- Node6&#45;&gt;Node4 -->
<g id="edge8" class="edge">
<title>Node6&#45;&gt;Node4</title>
<path fill="none" stroke="midnightblue" d="M273.43,-23.48C286.25,-23.02 299.88,-22.53 312.93,-22.05"/>
<polygon fill="midnightblue" stroke="midnightblue" points="313.39,-25.54 323.26,-21.68 313.14,-18.54 313.39,-25.54"/>
</g>
</g>
</svg>
