<?xml version="1.0" encoding="UTF-8" standalone="no"?>
<!DOCTYPE svg PUBLIC "-//W3C//DTD SVG 1.1//EN"
 "http://www.w3.org/Graphics/SVG/1.1/DTD/svg11.dtd">
<!-- Generated by graphviz version 2.44.0 ()
 -->
<!-- Title: expansion_module::residual_expansion Pages: 1 -->
<svg width="733pt" height="212pt"
 viewBox="0.00 0.00 733.00 212.08" xmlns="http://www.w3.org/2000/svg" xmlns:xlink="http://www.w3.org/1999/xlink">
<g id="graph0" class="graph" transform="scale(1 1) rotate(0) translate(4 208.08)">
<title>expansion_module::residual_expansion</title>
<polygon fill="white" stroke="transparent" points="-4,4 -4,-208.08 729,-208.08 729,4 -4,4"/>
<!-- Node1 -->
<g id="node1" class="node">
<title>Node1</title>
<g id="a_node1"><a xlink:title="Calculates the velocity for trajectory extrapolation by linear regression on a few last points; the n...">
<polygon fill="#bfbfbf" stroke="black" points="0,-88.5 0,-118.5 135,-118.5 135,-88.5 0,-88.5"/>
<text text-anchor="start" x="8" y="-106.5" font-family="Helvetica,sans-Serif" font-size="10.00">expansion_module::residual</text>
<text text-anchor="middle" x="67.5" y="-95.5" font-family="Helvetica,sans-Serif" font-size="10.00">_expansion</text>
</a>
</g>
</g>
<!-- Node2 -->
<g id="node2" class="node">
<title>Node2</title>
<g id="a_node2"><a xlink:href="namespaceerror__msg__class.html#a7e065585cc806a5c264de1f088266498" target="_top" xlink:title="Converts a given integer to a string.">
<polygon fill="white" stroke="black" points="621,-144.5 621,-174.5 725,-174.5 725,-144.5 621,-144.5"/>
<text text-anchor="start" x="629" y="-162.5" font-family="Helvetica,sans-Serif" font-size="10.00">error_msg_class::int</text>
<text text-anchor="middle" x="673" y="-151.5" font-family="Helvetica,sans-Serif" font-size="10.00">_to_str</text>
</a>
</g>
</g>
<!-- Node1&#45;&gt;Node2 -->
<g id="edge1" class="edge">
<title>Node1&#45;&gt;Node2</title>
<path fill="none" stroke="midnightblue" d="M83.09,-118.74C101.55,-136.82 135.29,-165.96 171,-177.5 322.97,-226.63 514.5,-196.07 610.79,-174.83"/>
<polygon fill="midnightblue" stroke="midnightblue" points="611.66,-178.22 620.65,-172.61 610.12,-171.39 611.66,-178.22"/>
</g>
<!-- Node3 -->
<g id="node3" class="node">
<title>Node3</title>
<g id="a_node3"><a xlink:href="namespaceerror__msg__class.html#a5bc9f3b670b725cc43276934b867d801" target="_top" xlink:title="Converts a given real to a string with format &quot;(1pE10.2)&quot;.">
<polygon fill="white" stroke="black" points="172,-137.5 172,-167.5 284,-167.5 284,-137.5 172,-137.5"/>
<text text-anchor="start" x="180" y="-155.5" font-family="Helvetica,sans-Serif" font-size="10.00">error_msg_class::num</text>
<text text-anchor="middle" x="228" y="-144.5" font-family="Helvetica,sans-Serif" font-size="10.00">_to_str</text>
</a>
</g>
</g>
<!-- Node1&#45;&gt;Node3 -->
<g id="edge2" class="edge">
<title>Node1&#45;&gt;Node3</title>
<path fill="none" stroke="midnightblue" d="M117.35,-118.6C133.54,-123.61 151.74,-129.23 168.58,-134.44"/>
<polygon fill="midnightblue" stroke="midnightblue" points="167.73,-137.84 178.31,-137.45 169.79,-131.15 167.73,-137.84"/>
</g>
<!-- Node4 -->
<g id="node4" class="node">
<title>Node4</title>
<g id="a_node4"><a xlink:href="namespacefile__handling__class.html#aeddf55e8478d6220dc04310665427c3a" target="_top" xlink:title="Shorthand for opening a new file for writing (output file)">
<polygon fill="white" stroke="black" points="179,-88.5 179,-118.5 277,-118.5 277,-88.5 179,-88.5"/>
<text text-anchor="start" x="187" y="-106.5" font-family="Helvetica,sans-Serif" font-size="10.00">file_handling_class</text>
<text text-anchor="middle" x="228" y="-95.5" font-family="Helvetica,sans-Serif" font-size="10.00">::open_outfile</text>
</a>
</g>
</g>
<!-- Node1&#45;&gt;Node4 -->
<g id="edge3" class="edge">
<title>Node1&#45;&gt;Node4</title>
<path fill="none" stroke="midnightblue" d="M135.26,-103.5C146.29,-103.5 157.64,-103.5 168.45,-103.5"/>
<polygon fill="midnightblue" stroke="midnightblue" points="168.61,-107 178.61,-103.5 168.61,-100 168.61,-107"/>
</g>
<!-- Node6 -->
<g id="node6" class="node">
<title>Node6</title>
<g id="a_node6"><a xlink:href="namespaceerror__msg__class.html#a2453d3b7cb363115c046840baa1dfb75" target="_top" xlink:title="Raise a exception with a given error message.">
<polygon fill="white" stroke="black" points="471,-107.5 471,-137.5 585,-137.5 585,-107.5 471,-107.5"/>
<text text-anchor="start" x="479" y="-125.5" font-family="Helvetica,sans-Serif" font-size="10.00">error_msg_class::raise</text>
<text text-anchor="middle" x="528" y="-114.5" font-family="Helvetica,sans-Serif" font-size="10.00">_exception</text>
</a>
</g>
</g>
<!-- Node1&#45;&gt;Node6 -->
<g id="edge8" class="edge">
<title>Node1&#45;&gt;Node6</title>
<path fill="none" stroke="midnightblue" d="M122.35,-88.44C137.92,-84.76 155.02,-81.35 171,-79.5 272.3,-67.8 389.71,-88.67 461.14,-105.23"/>
<polygon fill="midnightblue" stroke="midnightblue" points="460.38,-108.64 470.91,-107.53 461.98,-101.83 460.38,-108.64"/>
</g>
<!-- Node7 -->
<g id="node7" class="node">
<title>Node7</title>
<g id="a_node7"><a xlink:href="namespaceerror__msg__class.html#a339dd5b38c125b6a04653762c94a91f2" target="_top" xlink:title="Write data to the standard output (usually OUT)">
<polygon fill="white" stroke="black" points="171,-0.5 171,-30.5 285,-30.5 285,-0.5 171,-0.5"/>
<text text-anchor="start" x="179" y="-18.5" font-family="Helvetica,sans-Serif" font-size="10.00">error_msg_class::write</text>
<text text-anchor="middle" x="228" y="-7.5" font-family="Helvetica,sans-Serif" font-size="10.00">_data_to_std_out</text>
</a>
</g>
</g>
<!-- Node1&#45;&gt;Node7 -->
<g id="edge9" class="edge">
<title>Node1&#45;&gt;Node7</title>
<path fill="none" stroke="midnightblue" d="M94.95,-88.31C115.6,-76.51 145.03,-59.8 171,-45.5 176.97,-42.21 183.32,-38.76 189.53,-35.42"/>
<polygon fill="midnightblue" stroke="midnightblue" points="191.29,-38.45 198.44,-30.63 187.98,-32.28 191.29,-38.45"/>
</g>
<!-- Node5 -->
<g id="node5" class="node">
<title>Node5</title>
<g id="a_node5"><a xlink:href="namespacefile__handling__class.html#af02196bd5eaf70ecd5ab4cc650094d5e" target="_top" xlink:title="Finds the next unused unit number.">
<polygon fill="white" stroke="black" points="329,-129.5 329,-159.5 427,-159.5 427,-129.5 329,-129.5"/>
<text text-anchor="start" x="337" y="-147.5" font-family="Helvetica,sans-Serif" font-size="10.00">file_handling_class</text>
<text text-anchor="middle" x="378" y="-136.5" font-family="Helvetica,sans-Serif" font-size="10.00">::get_next_io_unit</text>
</a>
</g>
</g>
<!-- Node4&#45;&gt;Node5 -->
<g id="edge4" class="edge">
<title>Node4&#45;&gt;Node5</title>
<path fill="none" stroke="midnightblue" d="M277.05,-116.81C290.43,-120.52 305.11,-124.58 318.99,-128.43"/>
<polygon fill="midnightblue" stroke="midnightblue" points="318.37,-131.89 328.94,-131.19 320.23,-125.14 318.37,-131.89"/>
</g>
<!-- Node4&#45;&gt;Node6 -->
<g id="edge7" class="edge">
<title>Node4&#45;&gt;Node6</title>
<path fill="none" stroke="midnightblue" d="M277.21,-106.57C327.07,-109.75 405.27,-114.74 460.88,-118.28"/>
<polygon fill="midnightblue" stroke="midnightblue" points="460.78,-121.79 470.99,-118.93 461.23,-114.8 460.78,-121.79"/>
</g>
<!-- Node5&#45;&gt;Node6 -->
<g id="edge5" class="edge">
<title>Node5&#45;&gt;Node6</title>
<path fill="none" stroke="midnightblue" d="M427.05,-137.36C437.89,-135.75 449.57,-134.01 461,-132.31"/>
<polygon fill="midnightblue" stroke="midnightblue" points="461.58,-135.76 470.95,-130.83 460.55,-128.84 461.58,-135.76"/>
</g>
<!-- Node6&#45;&gt;Node2 -->
<g id="edge6" class="edge">
<title>Node6&#45;&gt;Node2</title>
<path fill="none" stroke="midnightblue" d="M585.11,-137.02C593.54,-139.2 602.28,-141.46 610.81,-143.67"/>
<polygon fill="midnightblue" stroke="midnightblue" points="610.16,-147.11 620.71,-146.23 611.91,-140.34 610.16,-147.11"/>
</g>
<!-- Node8 -->
<g id="node8" class="node">
<title>Node8</title>
<g id="a_node8"><a xlink:href="namespaceerror__msg__class.html#af62b9a0c5997255e792b9ebd7322a6a3" target="_top" xlink:title="Write the header of the standard output (usually OUT)">
<polygon fill="white" stroke="black" points="321,-0.5 321,-30.5 435,-30.5 435,-0.5 321,-0.5"/>
<text text-anchor="start" x="329" y="-18.5" font-family="Helvetica,sans-Serif" font-size="10.00">error_msg_class::write</text>
<text text-anchor="middle" x="378" y="-7.5" font-family="Helvetica,sans-Serif" font-size="10.00">_header</text>
</a>
</g>
</g>
<!-- Node7&#45;&gt;Node8 -->
<g id="edge10" class="edge">
<title>Node7&#45;&gt;Node8</title>
<path fill="none" stroke="midnightblue" d="M285.37,-8.92C293.62,-8.76 302.18,-8.71 310.6,-8.78"/>
<polygon fill="midnightblue" stroke="midnightblue" points="310.73,-12.28 320.78,-8.93 310.83,-5.28 310.73,-12.28"/>
</g>
<!-- Node8&#45;&gt;Node7 -->
<g id="edge11" class="edge">
<title>Node8&#45;&gt;Node7</title>
<path fill="none" stroke="midnightblue" d="M320.78,-22.07C312.54,-22.24 303.98,-22.29 295.56,-22.22"/>
<polygon fill="midnightblue" stroke="midnightblue" points="295.42,-18.72 285.37,-22.08 295.32,-25.72 295.42,-18.72"/>
</g>
</g>
</svg>
