<?xml version="1.0" encoding="UTF-8" standalone="no"?>
<!DOCTYPE svg PUBLIC "-//W3C//DTD SVG 1.1//EN"
 "http://www.w3.org/Graphics/SVG/1.1/DTD/svg11.dtd">
<!-- Generated by graphviz version 2.44.0 ()
 -->
<!-- Title: nucstuff_class::get_nr_reactants Pages: 1 -->
<svg width="396pt" height="61pt"
 viewBox="0.00 0.00 396.00 61.00" xmlns="http://www.w3.org/2000/svg" xmlns:xlink="http://www.w3.org/1999/xlink">
<g id="graph0" class="graph" transform="scale(1 1) rotate(0) translate(4 57)">
<title>nucstuff_class::get_nr_reactants</title>
<polygon fill="white" stroke="transparent" points="-4,4 -4,-57 392,-57 392,4 -4,4"/>
<!-- Node1 -->
<g id="node1" class="node">
<title>Node1</title>
<g id="a_node1"><a xlink:title="Get number of reactants of the reaction based on the reaclib chapter.">
<polygon fill="#bfbfbf" stroke="black" points="0,-22.5 0,-52.5 98,-52.5 98,-22.5 0,-22.5"/>
<text text-anchor="start" x="8" y="-40.5" font-family="Helvetica,sans-Serif" font-size="10.00">nucstuff_class::get</text>
<text text-anchor="middle" x="49" y="-29.5" font-family="Helvetica,sans-Serif" font-size="10.00">_nr_reactants</text>
</a>
</g>
</g>
<!-- Node2 -->
<g id="node2" class="node">
<title>Node2</title>
<g id="a_node2"><a xlink:href="namespaceerror__msg__class.html#a7e065585cc806a5c264de1f088266498" target="_top" xlink:title="Converts a given integer to a string.">
<polygon fill="white" stroke="black" points="284,-22.5 284,-52.5 388,-52.5 388,-22.5 284,-22.5"/>
<text text-anchor="start" x="292" y="-40.5" font-family="Helvetica,sans-Serif" font-size="10.00">error_msg_class::int</text>
<text text-anchor="middle" x="336" y="-29.5" font-family="Helvetica,sans-Serif" font-size="10.00">_to_str</text>
</a>
</g>
</g>
<!-- Node1&#45;&gt;Node2 -->
<g id="edge1" class="edge">
<title>Node1&#45;&gt;Node2</title>
<path fill="none" stroke="midnightblue" d="M98.41,-39.52C110.06,-39.93 122.47,-40.29 134,-40.5 184.66,-41.4 197.34,-41.37 248,-40.5 256.36,-40.36 265.18,-40.13 273.85,-39.87"/>
<polygon fill="midnightblue" stroke="midnightblue" points="274.06,-43.37 283.94,-39.55 273.84,-36.37 274.06,-43.37"/>
</g>
<!-- Node3 -->
<g id="node3" class="node">
<title>Node3</title>
<g id="a_node3"><a xlink:href="namespaceerror__msg__class.html#a2453d3b7cb363115c046840baa1dfb75" target="_top" xlink:title="Raise a exception with a given error message.">
<polygon fill="white" stroke="black" points="134,-0.5 134,-30.5 248,-30.5 248,-0.5 134,-0.5"/>
<text text-anchor="start" x="142" y="-18.5" font-family="Helvetica,sans-Serif" font-size="10.00">error_msg_class::raise</text>
<text text-anchor="middle" x="191" y="-7.5" font-family="Helvetica,sans-Serif" font-size="10.00">_exception</text>
</a>
</g>
</g>
<!-- Node1&#45;&gt;Node3 -->
<g id="edge2" class="edge">
<title>Node1&#45;&gt;Node3</title>
<path fill="none" stroke="midnightblue" d="M98.18,-29.93C106.37,-28.64 115,-27.29 123.55,-25.94"/>
<polygon fill="midnightblue" stroke="midnightblue" points="124.2,-29.38 133.54,-24.37 123.11,-22.47 124.2,-29.38"/>
</g>
<!-- Node3&#45;&gt;Node2 -->
<g id="edge3" class="edge">
<title>Node3&#45;&gt;Node2</title>
<path fill="none" stroke="midnightblue" d="M248.11,-24.13C256.54,-25.43 265.28,-26.77 273.81,-28.09"/>
<polygon fill="midnightblue" stroke="midnightblue" points="273.3,-31.55 283.71,-29.61 274.36,-24.63 273.3,-31.55"/>
</g>
</g>
</svg>
