<?xml version="1.0" encoding="UTF-8" standalone="no"?>
<!DOCTYPE svg PUBLIC "-//W3C//DTD SVG 1.1//EN"
 "http://www.w3.org/Graphics/SVG/1.1/DTD/svg11.dtd">
<!-- Generated by graphviz version 2.44.0 ()
 -->
<!-- Title: reaclib_rate_module::read_reaclib Pages: 1 -->
<svg width="755pt" height="259pt"
 viewBox="0.00 0.00 755.00 259.00" xmlns="http://www.w3.org/2000/svg" xmlns:xlink="http://www.w3.org/1999/xlink">
<g id="graph0" class="graph" transform="scale(1 1) rotate(0) translate(4 255)">
<title>reaclib_rate_module::read_reaclib</title>
<polygon fill="white" stroke="transparent" points="-4,4 -4,-255 751,-255 751,4 -4,4"/>
<!-- Node1 -->
<g id="node1" class="node">
<title>Node1</title>
<g id="a_node1"><a xlink:title="Read reaclib reaction rates.">
<polygon fill="#bfbfbf" stroke="black" points="0,-110.5 0,-140.5 104,-140.5 104,-110.5 0,-110.5"/>
<text text-anchor="start" x="8" y="-128.5" font-family="Helvetica,sans-Serif" font-size="10.00">reaclib_rate_module</text>
<text text-anchor="middle" x="52" y="-117.5" font-family="Helvetica,sans-Serif" font-size="10.00">::read_reaclib</text>
</a>
</g>
</g>
<!-- Node2 -->
<g id="node2" class="node">
<title>Node2</title>
<g id="a_node2"><a xlink:href="namespacebenam__class.html#ad20c821347dd5f7c08dff59c98e69657" target="_top" xlink:title="Returns the index number of isotope &#39;name&#39;.">
<polygon fill="white" stroke="black" points="156.5,-226 156.5,-245 264.5,-245 264.5,-226 156.5,-226"/>
<text text-anchor="middle" x="210.5" y="-233" font-family="Helvetica,sans-Serif" font-size="10.00">benam_class::benam</text>
</a>
</g>
</g>
<!-- Node1&#45;&gt;Node2 -->
<g id="edge1" class="edge">
<title>Node1&#45;&gt;Node2</title>
<path fill="none" stroke="midnightblue" d="M63.5,-140.84C78.22,-161.18 106.95,-196.81 140,-216.5 143.63,-218.66 147.51,-220.58 151.51,-222.29"/>
<polygon fill="midnightblue" stroke="midnightblue" points="150.41,-225.62 161,-225.9 152.9,-219.07 150.41,-225.62"/>
</g>
<!-- Node3 -->
<g id="node3" class="node">
<title>Node3</title>
<g id="a_node3"><a xlink:href="namespacenucstuff__class.html#a5fa1f79d38fd5b01a5d6d797fea0132d" target="_top" xlink:title="Get number of reactants of the reaction based on the reaclib chapter.">
<polygon fill="white" stroke="black" points="338,-132.5 338,-162.5 436,-162.5 436,-132.5 338,-132.5"/>
<text text-anchor="start" x="346" y="-150.5" font-family="Helvetica,sans-Serif" font-size="10.00">nucstuff_class::get</text>
<text text-anchor="middle" x="387" y="-139.5" font-family="Helvetica,sans-Serif" font-size="10.00">_nr_reactants</text>
</a>
</g>
</g>
<!-- Node1&#45;&gt;Node3 -->
<g id="edge2" class="edge">
<title>Node1&#45;&gt;Node3</title>
<path fill="none" stroke="midnightblue" d="M104.3,-128.89C164.62,-132.87 264.49,-139.47 327.69,-143.65"/>
<polygon fill="midnightblue" stroke="midnightblue" points="327.68,-147.15 337.89,-144.32 328.14,-140.17 327.68,-147.15"/>
</g>
<!-- Node6 -->
<g id="node6" class="node">
<title>Node6</title>
<g id="a_node6"><a xlink:href="namespacebenam__class.html#af8144ea43fb40187e32fb83da48458f1" target="_top" xlink:title="Returns the 1/n! factor where n is the number of equal isotopes entering a reaction....">
<polygon fill="white" stroke="black" points="140,-50 140,-69 281,-69 281,-50 140,-50"/>
<text text-anchor="middle" x="210.5" y="-57" font-family="Helvetica,sans-Serif" font-size="10.00">benam_class::getcoefficients</text>
</a>
</g>
</g>
<!-- Node1&#45;&gt;Node6 -->
<g id="edge6" class="edge">
<title>Node1&#45;&gt;Node6</title>
<path fill="none" stroke="midnightblue" d="M77.4,-110.36C94.45,-100.28 118.01,-87.31 140,-78.5 145.94,-76.12 152.29,-73.93 158.64,-71.95"/>
<polygon fill="midnightblue" stroke="midnightblue" points="159.96,-75.21 168.56,-69.02 157.98,-68.5 159.96,-75.21"/>
</g>
<!-- Node7 -->
<g id="node7" class="node">
<title>Node7</title>
<g id="a_node7"><a xlink:href="namespacefile__handling__class.html#aab870caaf9cbaaf635d537708efbf793" target="_top" xlink:title="Same for reading (input file)">
<polygon fill="white" stroke="black" points="161.5,-176.5 161.5,-206.5 259.5,-206.5 259.5,-176.5 161.5,-176.5"/>
<text text-anchor="start" x="169.5" y="-194.5" font-family="Helvetica,sans-Serif" font-size="10.00">file_handling_class</text>
<text text-anchor="middle" x="210.5" y="-183.5" font-family="Helvetica,sans-Serif" font-size="10.00">::open_infile</text>
</a>
</g>
</g>
<!-- Node1&#45;&gt;Node7 -->
<g id="edge7" class="edge">
<title>Node1&#45;&gt;Node7</title>
<path fill="none" stroke="midnightblue" d="M88.9,-140.64C111.37,-150.12 140.5,-162.4 164.5,-172.52"/>
<polygon fill="midnightblue" stroke="midnightblue" points="163.19,-175.77 173.76,-176.43 165.91,-169.32 163.19,-175.77"/>
</g>
<!-- Node9 -->
<g id="node9" class="node">
<title>Node9</title>
<g id="a_node9"><a xlink:href="namespacereaclib__rate__module.html#a42077841ed26c539240b9d7218a7be4a" target="_top" xlink:title="Set the fraction of energy radiated away by neutrinos.">
<polygon fill="white" stroke="black" points="158.5,-0.5 158.5,-30.5 262.5,-30.5 262.5,-0.5 158.5,-0.5"/>
<text text-anchor="start" x="166.5" y="-18.5" font-family="Helvetica,sans-Serif" font-size="10.00">reaclib_rate_module</text>
<text text-anchor="middle" x="210.5" y="-7.5" font-family="Helvetica,sans-Serif" font-size="10.00">::set_heating_frac</text>
</a>
</g>
</g>
<!-- Node1&#45;&gt;Node9 -->
<g id="edge11" class="edge">
<title>Node1&#45;&gt;Node9</title>
<path fill="none" stroke="midnightblue" d="M65.01,-110.28C80.53,-91.52 109.22,-59.78 140,-40.5 143.18,-38.51 146.53,-36.65 149.98,-34.92"/>
<polygon fill="midnightblue" stroke="midnightblue" points="151.69,-37.98 159.3,-30.61 148.75,-31.63 151.69,-37.98"/>
</g>
<!-- Node10 -->
<g id="node10" class="node">
<title>Node10</title>
<g id="a_node10"><a xlink:href="namespacereaclib__rate__module.html#a8e23d45ed0420de076b8f07863151a34" target="_top" xlink:title="Set a flag for the reaction type.">
<polygon fill="white" stroke="black" points="158.5,-88.5 158.5,-118.5 262.5,-118.5 262.5,-88.5 158.5,-88.5"/>
<text text-anchor="start" x="166.5" y="-106.5" font-family="Helvetica,sans-Serif" font-size="10.00">reaclib_rate_module</text>
<text text-anchor="middle" x="210.5" y="-95.5" font-family="Helvetica,sans-Serif" font-size="10.00">::set_reaction_type</text>
</a>
</g>
</g>
<!-- Node1&#45;&gt;Node10 -->
<g id="edge12" class="edge">
<title>Node1&#45;&gt;Node10</title>
<path fill="none" stroke="midnightblue" d="M104.24,-118.3C118.37,-116.31 133.83,-114.14 148.45,-112.08"/>
<polygon fill="midnightblue" stroke="midnightblue" points="148.99,-115.54 158.41,-110.68 148.02,-108.61 148.99,-115.54"/>
</g>
<!-- Node4 -->
<g id="node4" class="node">
<title>Node4</title>
<g id="a_node4"><a xlink:href="namespaceerror__msg__class.html#a7e065585cc806a5c264de1f088266498" target="_top" xlink:title="Converts a given integer to a string.">
<polygon fill="white" stroke="black" points="643,-110.5 643,-140.5 747,-140.5 747,-110.5 643,-110.5"/>
<text text-anchor="start" x="651" y="-128.5" font-family="Helvetica,sans-Serif" font-size="10.00">error_msg_class::int</text>
<text text-anchor="middle" x="695" y="-117.5" font-family="Helvetica,sans-Serif" font-size="10.00">_to_str</text>
</a>
</g>
</g>
<!-- Node3&#45;&gt;Node4 -->
<g id="edge3" class="edge">
<title>Node3&#45;&gt;Node4</title>
<path fill="none" stroke="midnightblue" d="M436.15,-144.04C489.26,-140.22 574.85,-134.07 632.71,-129.91"/>
<polygon fill="midnightblue" stroke="midnightblue" points="633.09,-133.39 642.82,-129.18 632.59,-126.41 633.09,-133.39"/>
</g>
<!-- Node5 -->
<g id="node5" class="node">
<title>Node5</title>
<g id="a_node5"><a xlink:href="namespaceerror__msg__class.html#a2453d3b7cb363115c046840baa1dfb75" target="_top" xlink:title="Raise a exception with a given error message.">
<polygon fill="white" stroke="black" points="493,-154.5 493,-184.5 607,-184.5 607,-154.5 493,-154.5"/>
<text text-anchor="start" x="501" y="-172.5" font-family="Helvetica,sans-Serif" font-size="10.00">error_msg_class::raise</text>
<text text-anchor="middle" x="550" y="-161.5" font-family="Helvetica,sans-Serif" font-size="10.00">_exception</text>
</a>
</g>
</g>
<!-- Node3&#45;&gt;Node5 -->
<g id="edge4" class="edge">
<title>Node3&#45;&gt;Node5</title>
<path fill="none" stroke="midnightblue" d="M436.31,-154.1C450.89,-156.09 467.17,-158.32 482.72,-160.44"/>
<polygon fill="midnightblue" stroke="midnightblue" points="482.42,-163.93 492.8,-161.82 483.37,-157 482.42,-163.93"/>
</g>
<!-- Node5&#45;&gt;Node4 -->
<g id="edge5" class="edge">
<title>Node5&#45;&gt;Node4</title>
<path fill="none" stroke="midnightblue" d="M599.81,-154.48C611.19,-150.98 623.42,-147.22 635.18,-143.6"/>
<polygon fill="midnightblue" stroke="midnightblue" points="636.39,-146.89 644.92,-140.6 634.33,-140.2 636.39,-146.89"/>
</g>
<!-- Node7&#45;&gt;Node5 -->
<g id="edge10" class="edge">
<title>Node7&#45;&gt;Node5</title>
<path fill="none" stroke="midnightblue" d="M259.86,-188.35C318.33,-184.54 417.06,-178.1 482.63,-173.83"/>
<polygon fill="midnightblue" stroke="midnightblue" points="483.11,-177.3 492.86,-173.16 482.65,-170.32 483.11,-177.3"/>
</g>
<!-- Node8 -->
<g id="node8" class="node">
<title>Node8</title>
<g id="a_node8"><a xlink:href="namespacefile__handling__class.html#af02196bd5eaf70ecd5ab4cc650094d5e" target="_top" xlink:title="Finds the next unused unit number.">
<polygon fill="white" stroke="black" points="338,-220.5 338,-250.5 436,-250.5 436,-220.5 338,-220.5"/>
<text text-anchor="start" x="346" y="-238.5" font-family="Helvetica,sans-Serif" font-size="10.00">file_handling_class</text>
<text text-anchor="middle" x="387" y="-227.5" font-family="Helvetica,sans-Serif" font-size="10.00">::get_next_io_unit</text>
</a>
</g>
</g>
<!-- Node7&#45;&gt;Node8 -->
<g id="edge8" class="edge">
<title>Node7&#45;&gt;Node8</title>
<path fill="none" stroke="midnightblue" d="M259.64,-203.64C280.73,-208.96 305.65,-215.24 327.77,-220.82"/>
<polygon fill="midnightblue" stroke="midnightblue" points="327.16,-224.27 337.71,-223.32 328.87,-217.48 327.16,-224.27"/>
</g>
<!-- Node8&#45;&gt;Node5 -->
<g id="edge9" class="edge">
<title>Node8&#45;&gt;Node5</title>
<path fill="none" stroke="midnightblue" d="M424.94,-220.36C448.05,-210.88 478.02,-198.6 502.71,-188.48"/>
<polygon fill="midnightblue" stroke="midnightblue" points="504.31,-191.6 512.24,-184.57 501.65,-185.13 504.31,-191.6"/>
</g>
<!-- Node10&#45;&gt;Node3 -->
<g id="edge17" class="edge">
<title>Node10&#45;&gt;Node3</title>
<path fill="none" stroke="midnightblue" d="M262.91,-116.46C283.39,-121.63 307.07,-127.6 328.14,-132.91"/>
<polygon fill="midnightblue" stroke="midnightblue" points="327.39,-136.33 337.94,-135.38 329.1,-129.54 327.39,-136.33"/>
</g>
<!-- Node11 -->
<g id="node11" class="node">
<title>Node11</title>
<g id="a_node11"><a xlink:href="namespacebenam__class.html#afd880df70f94c289b6bda0647f4494e3" target="_top" xlink:title="Getter of net_names, translating indices to a nucleus name.">
<polygon fill="white" stroke="black" points="317,-94 317,-113 457,-113 457,-94 317,-94"/>
<text text-anchor="middle" x="387" y="-101" font-family="Helvetica,sans-Serif" font-size="10.00">benam_class::get_net_name</text>
</a>
</g>
</g>
<!-- Node10&#45;&gt;Node11 -->
<g id="edge13" class="edge">
<title>Node10&#45;&gt;Node11</title>
<path fill="none" stroke="midnightblue" d="M262.91,-103.5C276.63,-103.5 291.79,-103.5 306.64,-103.5"/>
<polygon fill="midnightblue" stroke="midnightblue" points="306.85,-107 316.85,-103.5 306.84,-100 306.85,-107"/>
</g>
<!-- Node12 -->
<g id="node12" class="node">
<title>Node12</title>
<g id="a_node12"><a xlink:href="namespacenucstuff__class.html#adb871d9f6d0e6ec5db0a0808201ab3db" target="_top" xlink:title="Get number of products of the reaction based on the reaclib chapter.">
<polygon fill="white" stroke="black" points="338,-44.5 338,-74.5 436,-74.5 436,-44.5 338,-44.5"/>
<text text-anchor="start" x="346" y="-62.5" font-family="Helvetica,sans-Serif" font-size="10.00">nucstuff_class::get</text>
<text text-anchor="middle" x="387" y="-51.5" font-family="Helvetica,sans-Serif" font-size="10.00">_nr_products</text>
</a>
</g>
</g>
<!-- Node10&#45;&gt;Node12 -->
<g id="edge14" class="edge">
<title>Node10&#45;&gt;Node12</title>
<path fill="none" stroke="midnightblue" d="M262.91,-90.54C283.39,-85.37 307.07,-79.4 328.14,-74.09"/>
<polygon fill="midnightblue" stroke="midnightblue" points="329.1,-77.46 337.94,-71.62 327.39,-70.67 329.1,-77.46"/>
</g>
<!-- Node12&#45;&gt;Node4 -->
<g id="edge15" class="edge">
<title>Node12&#45;&gt;Node4</title>
<path fill="none" stroke="midnightblue" d="M436.15,-69.89C489.26,-81.34 574.85,-99.8 632.71,-112.28"/>
<polygon fill="midnightblue" stroke="midnightblue" points="632.3,-115.77 642.82,-114.46 633.78,-108.93 632.3,-115.77"/>
</g>
<!-- Node12&#45;&gt;Node5 -->
<g id="edge16" class="edge">
<title>Node12&#45;&gt;Node5</title>
<path fill="none" stroke="midnightblue" d="M436.29,-74.19C443.45,-77.16 450.58,-80.59 457,-84.5 484.96,-101.52 511.84,-127.9 529.25,-146.76"/>
<polygon fill="midnightblue" stroke="midnightblue" points="526.8,-149.27 536.1,-154.33 531.99,-144.57 526.8,-149.27"/>
</g>
</g>
</svg>
