<?xml version="1.0" encoding="UTF-8" standalone="no"?>
<!DOCTYPE svg PUBLIC "-//W3C//DTD SVG 1.1//EN"
 "http://www.w3.org/Graphics/SVG/1.1/DTD/svg11.dtd">
<!-- Generated by graphviz version 2.44.0 ()
 -->
<!-- Title: file_handling_class::delete_io_file Pages: 1 -->
<svg width="530pt" height="99pt"
 viewBox="0.00 0.00 530.00 99.00" xmlns="http://www.w3.org/2000/svg" xmlns:xlink="http://www.w3.org/1999/xlink">
<g id="graph0" class="graph" transform="scale(1 1) rotate(0) translate(4 95)">
<title>file_handling_class::delete_io_file</title>
<polygon fill="white" stroke="transparent" points="-4,4 -4,-95 526,-95 526,4 -4,4"/>
<!-- Node1 -->
<g id="node1" class="node">
<title>Node1</title>
<g id="a_node1"><a xlink:title="Delete a file.">
<polygon fill="#bfbfbf" stroke="black" points="0,-16.5 0,-46.5 98,-46.5 98,-16.5 0,-16.5"/>
<text text-anchor="start" x="8" y="-34.5" font-family="Helvetica,sans-Serif" font-size="10.00">file_handling_class</text>
<text text-anchor="middle" x="49" y="-23.5" font-family="Helvetica,sans-Serif" font-size="10.00">::delete_io_file</text>
</a>
</g>
</g>
<!-- Node2 -->
<g id="node2" class="node">
<title>Node2</title>
<g id="a_node2"><a xlink:href="namespacefile__handling__class.html#af02196bd5eaf70ecd5ab4cc650094d5e" target="_top" xlink:title="Finds the next unused unit number.">
<polygon fill="white" stroke="black" points="134,-60.5 134,-90.5 232,-90.5 232,-60.5 134,-60.5"/>
<text text-anchor="start" x="142" y="-78.5" font-family="Helvetica,sans-Serif" font-size="10.00">file_handling_class</text>
<text text-anchor="middle" x="183" y="-67.5" font-family="Helvetica,sans-Serif" font-size="10.00">::get_next_io_unit</text>
</a>
</g>
</g>
<!-- Node1&#45;&gt;Node2 -->
<g id="edge1" class="edge">
<title>Node1&#45;&gt;Node2</title>
<path fill="none" stroke="midnightblue" d="M95.06,-46.52C105.35,-49.95 116.4,-53.63 127.06,-57.19"/>
<polygon fill="midnightblue" stroke="midnightblue" points="126.1,-60.56 136.7,-60.4 128.32,-53.92 126.1,-60.56"/>
</g>
<!-- Node3 -->
<g id="node3" class="node">
<title>Node3</title>
<g id="a_node3"><a xlink:href="namespaceerror__msg__class.html#a2453d3b7cb363115c046840baa1dfb75" target="_top" xlink:title="Raise a exception with a given error message.">
<polygon fill="white" stroke="black" points="268,-22.5 268,-52.5 382,-52.5 382,-22.5 268,-22.5"/>
<text text-anchor="start" x="276" y="-40.5" font-family="Helvetica,sans-Serif" font-size="10.00">error_msg_class::raise</text>
<text text-anchor="middle" x="325" y="-29.5" font-family="Helvetica,sans-Serif" font-size="10.00">_exception</text>
</a>
</g>
</g>
<!-- Node1&#45;&gt;Node3 -->
<g id="edge5" class="edge">
<title>Node1&#45;&gt;Node3</title>
<path fill="none" stroke="midnightblue" d="M98.04,-32.55C142.32,-33.52 208.43,-34.97 257.72,-36.05"/>
<polygon fill="midnightblue" stroke="midnightblue" points="257.9,-39.55 267.97,-36.27 258.05,-32.55 257.9,-39.55"/>
</g>
<!-- Node4 -->
<g id="node4" class="node">
<title>Node4</title>
<g id="a_node4"><a xlink:href="namespaceerror__msg__class.html#a7e065585cc806a5c264de1f088266498" target="_top" xlink:title="Converts a given integer to a string.">
<polygon fill="white" stroke="black" points="418,-0.5 418,-30.5 522,-30.5 522,-0.5 418,-0.5"/>
<text text-anchor="start" x="426" y="-18.5" font-family="Helvetica,sans-Serif" font-size="10.00">error_msg_class::int</text>
<text text-anchor="middle" x="470" y="-7.5" font-family="Helvetica,sans-Serif" font-size="10.00">_to_str</text>
</a>
</g>
</g>
<!-- Node1&#45;&gt;Node4 -->
<g id="edge4" class="edge">
<title>Node1&#45;&gt;Node4</title>
<path fill="none" stroke="midnightblue" d="M98.42,-26.35C142.55,-21.93 209.57,-15.91 268,-13.5 318.62,-11.41 331.34,-12.92 382,-13.5 390.36,-13.6 399.17,-13.74 407.85,-13.92"/>
<polygon fill="midnightblue" stroke="midnightblue" points="407.87,-17.42 417.94,-14.13 408.02,-10.42 407.87,-17.42"/>
</g>
<!-- Node2&#45;&gt;Node3 -->
<g id="edge2" class="edge">
<title>Node2&#45;&gt;Node3</title>
<path fill="none" stroke="midnightblue" d="M232.18,-62.42C240.78,-60.09 249.86,-57.62 258.84,-55.19"/>
<polygon fill="midnightblue" stroke="midnightblue" points="259.78,-58.56 268.51,-52.56 257.94,-51.8 259.78,-58.56"/>
</g>
<!-- Node3&#45;&gt;Node4 -->
<g id="edge3" class="edge">
<title>Node3&#45;&gt;Node4</title>
<path fill="none" stroke="midnightblue" d="M382.11,-28.87C390.54,-27.57 399.28,-26.23 407.81,-24.91"/>
<polygon fill="midnightblue" stroke="midnightblue" points="408.36,-28.37 417.71,-23.39 407.3,-21.45 408.36,-28.37"/>
</g>
</g>
</svg>
