<?xml version="1.0" encoding="UTF-8" standalone="no"?>
<!DOCTYPE svg PUBLIC "-//W3C//DTD SVG 1.1//EN"
 "http://www.w3.org/Graphics/SVG/1.1/DTD/svg11.dtd">
<!-- Generated by graphviz version 2.44.0 ()
 -->
<!-- Title: inter_module::inverse_interp1d Pages: 1 -->
<svg width="569pt" height="268pt"
 viewBox="0.00 0.00 569.00 268.00" xmlns="http://www.w3.org/2000/svg" xmlns:xlink="http://www.w3.org/1999/xlink">
<g id="graph0" class="graph" transform="scale(1 1) rotate(0) translate(4 264)">
<title>inter_module::inverse_interp1d</title>
<polygon fill="white" stroke="transparent" points="-4,4 -4,-264 565,-264 565,4 -4,4"/>
<!-- Node1 -->
<g id="node1" class="node">
<title>Node1</title>
<g id="a_node1"><a xlink:title="The inverse of the 1D interpolation function.">
<polygon fill="#bfbfbf" stroke="black" points="0,-121 0,-151 108,-151 108,-121 0,-121"/>
<text text-anchor="start" x="8" y="-139" font-family="Helvetica,sans-Serif" font-size="10.00">inter_module::inverse</text>
<text text-anchor="middle" x="54" y="-128" font-family="Helvetica,sans-Serif" font-size="10.00">_interp1d</text>
</a>
</g>
</g>
<!-- Node2 -->
<g id="node2" class="node">
<title>Node2</title>
<g id="a_node2"><a xlink:href="namespaceinter__module.html#a206d3ceb40bd2e40d41c462a31ad057e" target="_top" xlink:title="Interface for 1D interpolation routines.">
<polygon fill="white" stroke="black" points="144,-126.5 144,-145.5 255,-145.5 255,-126.5 144,-126.5"/>
<text text-anchor="middle" x="199.5" y="-133.5" font-family="Helvetica,sans-Serif" font-size="10.00">inter_module::interp1d</text>
</a>
</g>
</g>
<!-- Node1&#45;&gt;Node2 -->
<g id="edge1" class="edge">
<title>Node1&#45;&gt;Node2</title>
<path fill="none" stroke="midnightblue" d="M108.03,-136C116.4,-136 125.15,-136 133.76,-136"/>
<polygon fill="midnightblue" stroke="midnightblue" points="133.77,-139.5 143.77,-136 133.77,-132.5 133.77,-139.5"/>
</g>
<!-- Node3 -->
<g id="node3" class="node">
<title>Node3</title>
<g id="a_node3"><a xlink:href="namespaceinter__module.html#a0f02e3fce3429d031516cf2f47f521de" target="_top" xlink:title="Interpolation using prescription of Akima.">
<polygon fill="white" stroke="black" points="295,-240.5 295,-259.5 417,-259.5 417,-240.5 295,-240.5"/>
<text text-anchor="middle" x="356" y="-247.5" font-family="Helvetica,sans-Serif" font-size="10.00">inter_module::akimainter</text>
</a>
</g>
</g>
<!-- Node2&#45;&gt;Node3 -->
<g id="edge2" class="edge">
<title>Node2&#45;&gt;Node3</title>
<path fill="none" stroke="midnightblue" d="M207.01,-145.66C220.43,-164.83 253.11,-207.82 291,-231 294.41,-233.08 298.05,-234.95 301.82,-236.62"/>
<polygon fill="midnightblue" stroke="midnightblue" points="300.75,-239.97 311.34,-240.38 303.33,-233.45 300.75,-239.97"/>
</g>
<!-- Node4 -->
<g id="node4" class="node">
<title>Node4</title>
<g id="a_node4"><a xlink:href="namespaceinter__module.html#a5a696cd56302b2491c59781808af4c08" target="_top" xlink:title="Cubic interpolation in log&#45;log space. Here, it is assumed that.">
<polygon fill="white" stroke="black" points="300.5,-202.5 300.5,-221.5 411.5,-221.5 411.5,-202.5 300.5,-202.5"/>
<text text-anchor="middle" x="356" y="-209.5" font-family="Helvetica,sans-Serif" font-size="10.00">inter_module::cubinter</text>
</a>
</g>
</g>
<!-- Node2&#45;&gt;Node4 -->
<g id="edge3" class="edge">
<title>Node2&#45;&gt;Node4</title>
<path fill="none" stroke="midnightblue" d="M215.47,-145.61C233.09,-156.69 263.46,-175.03 291,-188 299.27,-191.89 308.35,-195.62 317.02,-198.92"/>
<polygon fill="midnightblue" stroke="midnightblue" points="315.96,-202.26 326.55,-202.46 318.39,-195.7 315.96,-202.26"/>
</g>
<!-- Node5 -->
<g id="node5" class="node">
<title>Node5</title>
<g id="a_node5"><a xlink:href="namespaceerror__msg__class.html#a7e065585cc806a5c264de1f088266498" target="_top" xlink:title="Converts a given integer to a string.">
<polygon fill="white" stroke="black" points="457,-99 457,-129 561,-129 561,-99 457,-99"/>
<text text-anchor="start" x="465" y="-117" font-family="Helvetica,sans-Serif" font-size="10.00">error_msg_class::int</text>
<text text-anchor="middle" x="509" y="-106" font-family="Helvetica,sans-Serif" font-size="10.00">_to_str</text>
</a>
</g>
</g>
<!-- Node2&#45;&gt;Node5 -->
<g id="edge4" class="edge">
<title>Node2&#45;&gt;Node5</title>
<path fill="none" stroke="midnightblue" d="M235.69,-145.55C279.59,-155.97 356.7,-169.39 421,-155 439.66,-150.82 459.04,-142.18 474.75,-133.9"/>
<polygon fill="midnightblue" stroke="midnightblue" points="476.45,-136.96 483.55,-129.1 473.1,-130.82 476.45,-136.96"/>
</g>
<!-- Node6 -->
<g id="node6" class="node">
<title>Node6</title>
<g id="a_node6"><a xlink:href="namespaceinter__module.html#ac57284b6bef315c7066a880358ae0862" target="_top" xlink:title="Linear interpolation in lin&#45;log space.">
<polygon fill="white" stroke="black" points="303.5,-126.5 303.5,-145.5 408.5,-145.5 408.5,-126.5 303.5,-126.5"/>
<text text-anchor="middle" x="356" y="-133.5" font-family="Helvetica,sans-Serif" font-size="10.00">inter_module::lininter</text>
</a>
</g>
</g>
<!-- Node2&#45;&gt;Node6 -->
<g id="edge5" class="edge">
<title>Node2&#45;&gt;Node6</title>
<path fill="none" stroke="midnightblue" d="M255.41,-136C267.6,-136 280.61,-136 293.07,-136"/>
<polygon fill="midnightblue" stroke="midnightblue" points="293.37,-139.5 303.37,-136 293.37,-132.5 293.37,-139.5"/>
</g>
<!-- Node7 -->
<g id="node7" class="node">
<title>Node7</title>
<g id="a_node7"><a xlink:href="namespaceinter__module.html#a338de641fc764e51a6ce814e25e70ef2" target="_top" xlink:title="Interpolation using modified prescription of Akima.">
<polygon fill="white" stroke="black" points="291,-88.5 291,-107.5 421,-107.5 421,-88.5 291,-88.5"/>
<text text-anchor="middle" x="356" y="-95.5" font-family="Helvetica,sans-Serif" font-size="10.00">inter_module::makimainter</text>
</a>
</g>
</g>
<!-- Node2&#45;&gt;Node7 -->
<g id="edge6" class="edge">
<title>Node2&#45;&gt;Node7</title>
<path fill="none" stroke="midnightblue" d="M239.49,-126.41C259.78,-121.42 284.79,-115.27 306.35,-109.97"/>
<polygon fill="midnightblue" stroke="midnightblue" points="307.42,-113.31 316.29,-107.52 305.75,-106.51 307.42,-113.31"/>
</g>
<!-- Node8 -->
<g id="node8" class="node">
<title>Node8</title>
<g id="a_node8"><a xlink:href="namespaceinter__module.html#a4b1d9613e140541539a602d2f985b5c7" target="_top" xlink:title="PCHIP interpolation in lin&#45;log space.">
<polygon fill="white" stroke="black" points="296.5,-0.5 296.5,-19.5 415.5,-19.5 415.5,-0.5 296.5,-0.5"/>
<text text-anchor="middle" x="356" y="-7.5" font-family="Helvetica,sans-Serif" font-size="10.00">inter_module::pchipinter</text>
</a>
</g>
</g>
<!-- Node2&#45;&gt;Node8 -->
<g id="edge7" class="edge">
<title>Node2&#45;&gt;Node8</title>
<path fill="none" stroke="midnightblue" d="M205.93,-126.39C218.26,-105.45 250.47,-55.48 291,-29 294.14,-26.95 297.52,-25.11 301.01,-23.46"/>
<polygon fill="midnightblue" stroke="midnightblue" points="302.57,-26.61 310.47,-19.55 299.89,-20.14 302.57,-26.61"/>
</g>
<!-- Node10 -->
<g id="node10" class="node">
<title>Node10</title>
<g id="a_node10"><a xlink:href="namespaceerror__msg__class.html#a2453d3b7cb363115c046840baa1dfb75" target="_top" xlink:title="Raise a exception with a given error message.">
<polygon fill="white" stroke="black" points="299,-39 299,-69 413,-69 413,-39 299,-39"/>
<text text-anchor="start" x="307" y="-57" font-family="Helvetica,sans-Serif" font-size="10.00">error_msg_class::raise</text>
<text text-anchor="middle" x="356" y="-46" font-family="Helvetica,sans-Serif" font-size="10.00">_exception</text>
</a>
</g>
</g>
<!-- Node2&#45;&gt;Node10 -->
<g id="edge9" class="edge">
<title>Node2&#45;&gt;Node10</title>
<path fill="none" stroke="midnightblue" d="M213.83,-126.47C231.07,-114.41 262.32,-93.47 291,-79 295.06,-76.95 299.34,-74.96 303.67,-73.05"/>
<polygon fill="midnightblue" stroke="midnightblue" points="305.34,-76.14 313.18,-69.01 302.61,-69.69 305.34,-76.14"/>
</g>
<!-- Node9 -->
<g id="node9" class="node">
<title>Node9</title>
<g id="a_node9"><a xlink:href="quadpack__module_8f90.html#aada5a652920db442d627f1ca24ff25d7" target="_top" xlink:title="Further information: http://netlib.org/quadpack/index.html https://orion.math.iastate....">
<polygon fill="white" stroke="black" points="494.5,-0.5 494.5,-19.5 523.5,-19.5 523.5,-0.5 494.5,-0.5"/>
<text text-anchor="middle" x="509" y="-7.5" font-family="Helvetica,sans-Serif" font-size="10.00">pi</text>
</a>
</g>
</g>
<!-- Node8&#45;&gt;Node9 -->
<g id="edge8" class="edge">
<title>Node8&#45;&gt;Node9</title>
<path fill="none" stroke="midnightblue" d="M415.81,-10C439.65,-10 465.83,-10 484.18,-10"/>
<polygon fill="midnightblue" stroke="midnightblue" points="484.25,-13.5 494.25,-10 484.25,-6.5 484.25,-13.5"/>
</g>
<!-- Node10&#45;&gt;Node5 -->
<g id="edge10" class="edge">
<title>Node10&#45;&gt;Node5</title>
<path fill="none" stroke="midnightblue" d="M395.61,-69.01C403.98,-72.29 412.79,-75.75 421,-79 434.15,-84.21 448.4,-89.92 461.49,-95.19"/>
<polygon fill="midnightblue" stroke="midnightblue" points="460.19,-98.44 470.78,-98.93 462.81,-91.95 460.19,-98.44"/>
</g>
</g>
</svg>
