<?xml version="1.0" encoding="UTF-8" standalone="no"?>
<!DOCTYPE svg PUBLIC "-//W3C//DTD SVG 1.1//EN"
 "http://www.w3.org/Graphics/SVG/1.1/DTD/svg11.dtd">
<!-- Generated by graphviz version 2.44.0 ()
 -->
<!-- Title: beta_decay_rate_module::merge_beta_decays Pages: 1 -->
<svg width="778pt" height="233pt"
 viewBox="0.00 0.00 778.00 233.00" xmlns="http://www.w3.org/2000/svg" xmlns:xlink="http://www.w3.org/1999/xlink">
<g id="graph0" class="graph" transform="scale(1 1) rotate(0) translate(4 229)">
<title>beta_decay_rate_module::merge_beta_decays</title>
<polygon fill="white" stroke="transparent" points="-4,4 -4,-229 774,-229 774,4 -4,4"/>
<!-- Node1 -->
<g id="node1" class="node">
<title>Node1</title>
<g id="a_node1"><a xlink:title="Merge external beta decays into the larger rate array.">
<polygon fill="#bfbfbf" stroke="black" points="0,-99 0,-129 125,-129 125,-99 0,-99"/>
<text text-anchor="start" x="8" y="-117" font-family="Helvetica,sans-Serif" font-size="10.00">beta_decay_rate_module</text>
<text text-anchor="middle" x="62.5" y="-106" font-family="Helvetica,sans-Serif" font-size="10.00">::merge_beta_decays</text>
</a>
</g>
</g>
<!-- Node2 -->
<g id="node2" class="node">
<title>Node2</title>
<g id="a_node2"><a xlink:href="namespacebeta__decay__rate__module.html#ad0881130a25dea6caaa0766b489ab30e" target="_top" xlink:title="Convert beta_pn_type to reactionrate_type.">
<polygon fill="white" stroke="black" points="347.5,-118 347.5,-148 472.5,-148 472.5,-118 347.5,-118"/>
<text text-anchor="start" x="355.5" y="-136" font-family="Helvetica,sans-Serif" font-size="10.00">beta_decay_rate_module</text>
<text text-anchor="middle" x="410" y="-125" font-family="Helvetica,sans-Serif" font-size="10.00">::create_rrate_array</text>
</a>
</g>
</g>
<!-- Node1&#45;&gt;Node2 -->
<g id="edge1" class="edge">
<title>Node1&#45;&gt;Node2</title>
<path fill="none" stroke="midnightblue" d="M125.27,-117.4C184.75,-120.67 274.67,-125.61 337.28,-129.06"/>
<polygon fill="midnightblue" stroke="midnightblue" points="337.3,-132.56 347.48,-129.62 337.68,-125.57 337.3,-132.56"/>
</g>
<!-- Node3 -->
<g id="node3" class="node">
<title>Node3</title>
<g id="a_node3"><a xlink:href="namespaceerror__msg__class.html#a2453d3b7cb363115c046840baa1dfb75" target="_top" xlink:title="Raise a exception with a given error message.">
<polygon fill="white" stroke="black" points="516,-107 516,-137 630,-137 630,-107 516,-107"/>
<text text-anchor="start" x="524" y="-125" font-family="Helvetica,sans-Serif" font-size="10.00">error_msg_class::raise</text>
<text text-anchor="middle" x="573" y="-114" font-family="Helvetica,sans-Serif" font-size="10.00">_exception</text>
</a>
</g>
</g>
<!-- Node1&#45;&gt;Node3 -->
<g id="edge7" class="edge">
<title>Node1&#45;&gt;Node3</title>
<path fill="none" stroke="midnightblue" d="M115.19,-129.05C194.31,-149.95 349.96,-182.54 480,-158 497.73,-154.66 516.41,-147.98 532.28,-141.28"/>
<polygon fill="midnightblue" stroke="midnightblue" points="534.01,-144.35 541.77,-137.13 531.2,-137.93 534.01,-144.35"/>
</g>
<!-- Node5 -->
<g id="node5" class="node">
<title>Node5</title>
<g id="a_node5"><a xlink:href="namespacebeta__decay__rate__module.html#a85d6563db714efb3a6a49faf58fe4d15" target="_top" xlink:title="Subroutine to remove weak rates from the beta decay rate array.">
<polygon fill="white" stroke="black" points="347.5,-30 347.5,-60 472.5,-60 472.5,-30 347.5,-30"/>
<text text-anchor="start" x="355.5" y="-48" font-family="Helvetica,sans-Serif" font-size="10.00">beta_decay_rate_module</text>
<text text-anchor="middle" x="410" y="-37" font-family="Helvetica,sans-Serif" font-size="10.00">::ignore_reactions</text>
</a>
</g>
</g>
<!-- Node1&#45;&gt;Node5 -->
<g id="edge4" class="edge">
<title>Node1&#45;&gt;Node5</title>
<path fill="none" stroke="midnightblue" d="M88.58,-98.78C107.71,-87.97 135.09,-74.14 161,-67 218.89,-51.05 286.99,-45.93 337.16,-44.59"/>
<polygon fill="midnightblue" stroke="midnightblue" points="337.35,-48.08 347.27,-44.36 337.19,-41.09 337.35,-48.08"/>
</g>
<!-- Node6 -->
<g id="node6" class="node">
<title>Node6</title>
<g id="a_node6"><a xlink:href="namespacebeta__decay__rate__module.html#a19fa91d401f7f165f22dada0dc5236c4" target="_top" xlink:title="Remove beta decays from the rate array.">
<polygon fill="white" stroke="black" points="170,-77 170,-107 295,-107 295,-77 170,-77"/>
<text text-anchor="start" x="178" y="-95" font-family="Helvetica,sans-Serif" font-size="10.00">beta_decay_rate_module</text>
<text text-anchor="middle" x="232.5" y="-84" font-family="Helvetica,sans-Serif" font-size="10.00">::remove_weak_rates</text>
</a>
</g>
</g>
<!-- Node1&#45;&gt;Node6 -->
<g id="edge8" class="edge">
<title>Node1&#45;&gt;Node6</title>
<path fill="none" stroke="midnightblue" d="M125.1,-105.93C136.4,-104.45 148.28,-102.9 159.85,-101.38"/>
<polygon fill="midnightblue" stroke="midnightblue" points="160.44,-104.83 169.9,-100.07 159.53,-97.89 160.44,-104.83"/>
</g>
<!-- Node7 -->
<g id="node7" class="node">
<title>Node7</title>
<g id="a_node7"><a xlink:href="namespacemergesort__module.html#abf490436dad94120a2c99efc036f2b1b" target="_top" xlink:title="Merges two tables of rates (of type global_class::reactionrate_type).">
<polygon fill="white" stroke="black" points="340,-205.5 340,-224.5 480,-224.5 480,-205.5 340,-205.5"/>
<text text-anchor="middle" x="410" y="-212.5" font-family="Helvetica,sans-Serif" font-size="10.00">mergesort_module::rrate_ms</text>
</a>
</g>
</g>
<!-- Node1&#45;&gt;Node7 -->
<g id="edge11" class="edge">
<title>Node1&#45;&gt;Node7</title>
<path fill="none" stroke="midnightblue" d="M77.29,-129.28C94.77,-147.5 126.78,-177.23 161,-191 214.6,-212.56 279.76,-218.16 329.85,-218.58"/>
<polygon fill="midnightblue" stroke="midnightblue" points="329.97,-222.08 339.97,-218.6 329.98,-215.08 329.97,-222.08"/>
</g>
<!-- Node8 -->
<g id="node8" class="node">
<title>Node8</title>
<g id="a_node8"><a xlink:href="namespacemergesort__module.html#a350624bb77af754147cd68332b16b9e5" target="_top" xlink:title="Sorts chapter one of the rate array.">
<polygon fill="white" stroke="black" points="161,-0.5 161,-19.5 304,-19.5 304,-0.5 161,-0.5"/>
<text text-anchor="middle" x="232.5" y="-7.5" font-family="Helvetica,sans-Serif" font-size="10.00">mergesort_module::rrate_sort</text>
</a>
</g>
</g>
<!-- Node1&#45;&gt;Node8 -->
<g id="edge13" class="edge">
<title>Node1&#45;&gt;Node8</title>
<path fill="none" stroke="midnightblue" d="M78.42,-98.79C96.53,-81.09 128.66,-51.99 161,-34 168.72,-29.71 177.33,-26 185.82,-22.86"/>
<polygon fill="midnightblue" stroke="midnightblue" points="187,-26.16 195.3,-19.57 184.7,-19.55 187,-26.16"/>
</g>
<!-- Node2&#45;&gt;Node3 -->
<g id="edge2" class="edge">
<title>Node2&#45;&gt;Node3</title>
<path fill="none" stroke="midnightblue" d="M472.79,-128.78C483.54,-128.04 494.76,-127.28 505.63,-126.53"/>
<polygon fill="midnightblue" stroke="midnightblue" points="506.18,-130.01 515.92,-125.83 505.7,-123.02 506.18,-130.01"/>
</g>
<!-- Node4 -->
<g id="node4" class="node">
<title>Node4</title>
<g id="a_node4"><a xlink:href="namespaceerror__msg__class.html#a7e065585cc806a5c264de1f088266498" target="_top" xlink:title="Converts a given integer to a string.">
<polygon fill="white" stroke="black" points="666,-74 666,-104 770,-104 770,-74 666,-74"/>
<text text-anchor="start" x="674" y="-92" font-family="Helvetica,sans-Serif" font-size="10.00">error_msg_class::int</text>
<text text-anchor="middle" x="718" y="-81" font-family="Helvetica,sans-Serif" font-size="10.00">_to_str</text>
</a>
</g>
</g>
<!-- Node3&#45;&gt;Node4 -->
<g id="edge3" class="edge">
<title>Node3&#45;&gt;Node4</title>
<path fill="none" stroke="midnightblue" d="M630.11,-109.05C638.54,-107.11 647.28,-105.09 655.81,-103.12"/>
<polygon fill="midnightblue" stroke="midnightblue" points="656.76,-106.49 665.71,-100.84 655.18,-99.67 656.76,-106.49"/>
</g>
<!-- Node5&#45;&gt;Node3 -->
<g id="edge6" class="edge">
<title>Node5&#45;&gt;Node3</title>
<path fill="none" stroke="midnightblue" d="M447,-60.15C457.69,-64.78 469.37,-69.98 480,-75 498.2,-83.6 518.12,-93.69 534.76,-102.31"/>
<polygon fill="midnightblue" stroke="midnightblue" points="533.15,-105.42 543.63,-106.93 536.38,-99.21 533.15,-105.42"/>
</g>
<!-- Node5&#45;&gt;Node4 -->
<g id="edge5" class="edge">
<title>Node5&#45;&gt;Node4</title>
<path fill="none" stroke="midnightblue" d="M472.56,-53.85C525.84,-61.51 602.5,-72.54 655.71,-80.19"/>
<polygon fill="midnightblue" stroke="midnightblue" points="655.3,-83.66 665.69,-81.62 656.29,-76.73 655.3,-83.66"/>
</g>
<!-- Node6&#45;&gt;Node2 -->
<g id="edge9" class="edge">
<title>Node6&#45;&gt;Node2</title>
<path fill="none" stroke="midnightblue" d="M295.37,-106.46C308.95,-109.63 323.44,-113.01 337.37,-116.27"/>
<polygon fill="midnightblue" stroke="midnightblue" points="336.85,-119.74 347.39,-118.61 338.45,-112.92 336.85,-119.74"/>
</g>
<!-- Node6&#45;&gt;Node3 -->
<g id="edge10" class="edge">
<title>Node6&#45;&gt;Node3</title>
<path fill="none" stroke="midnightblue" d="M295.15,-95.03C345.07,-97.77 417.18,-102.4 480,-109 488.3,-109.87 497.01,-110.92 505.61,-112.04"/>
<polygon fill="midnightblue" stroke="midnightblue" points="505.26,-115.53 515.64,-113.39 506.19,-108.59 505.26,-115.53"/>
</g>
<!-- Node7&#45;&gt;Node3 -->
<g id="edge12" class="edge">
<title>Node7&#45;&gt;Node3</title>
<path fill="none" stroke="midnightblue" d="M445.22,-205.42C456.6,-201.63 469.14,-196.78 480,-191 504.38,-178.02 529.28,-158.92 547.02,-144.1"/>
<polygon fill="midnightblue" stroke="midnightblue" points="549.77,-146.36 555.12,-137.21 545.23,-141.03 549.77,-146.36"/>
</g>
</g>
</svg>
