<?xml version="1.0" encoding="UTF-8" standalone="no"?>
<!DOCTYPE svg PUBLIC "-//W3C//DTD SVG 1.1//EN"
 "http://www.w3.org/Graphics/SVG/1.1/DTD/svg11.dtd">
<!-- Generated by graphviz version 2.44.0 ()
 -->
<!-- Title: jacobian_class::calculate_reaction_rate Pages: 1 -->
<svg width="946pt" height="649pt"
 viewBox="0.00 0.00 946.00 649.00" xmlns="http://www.w3.org/2000/svg" xmlns:xlink="http://www.w3.org/1999/xlink">
<g id="graph0" class="graph" transform="scale(1 1) rotate(0) translate(4 645)">
<title>jacobian_class::calculate_reaction_rate</title>
<polygon fill="white" stroke="transparent" points="-4,4 -4,-645 942,-645 942,4 -4,4"/>
<!-- Node1 -->
<g id="node1" class="node">
<title>Node1</title>
<g id="a_node1"><a xlink:title="Subroutine to calculate the reaction rates.">
<polygon fill="#bfbfbf" stroke="black" points="0,-317.5 0,-347.5 125,-347.5 125,-317.5 0,-317.5"/>
<text text-anchor="start" x="8" y="-335.5" font-family="Helvetica,sans-Serif" font-size="10.00">jacobian_class::calculate</text>
<text text-anchor="middle" x="62.5" y="-324.5" font-family="Helvetica,sans-Serif" font-size="10.00">_reaction_rate</text>
</a>
</g>
</g>
<!-- Node2 -->
<g id="node2" class="node">
<title>Node2</title>
<g id="a_node2"><a xlink:href="namespacenucstuff__class.html#a54b0d5681c0193e0b2276911713242e9" target="_top" xlink:title="A helper to compute powers of temperature used in the reaction rates.">
<polygon fill="white" stroke="black" points="174.5,-610.5 174.5,-640.5 276.5,-640.5 276.5,-610.5 174.5,-610.5"/>
<text text-anchor="start" x="182.5" y="-628.5" font-family="Helvetica,sans-Serif" font-size="10.00">nucstuff_class::calc</text>
<text text-anchor="middle" x="225.5" y="-617.5" font-family="Helvetica,sans-Serif" font-size="10.00">_t9_pow</text>
</a>
</g>
</g>
<!-- Node1&#45;&gt;Node2 -->
<g id="edge1" class="edge">
<title>Node1&#45;&gt;Node2</title>
<path fill="none" stroke="midnightblue" d="M64.66,-347.6C68.89,-392.53 87.39,-526.88 161,-601.5 162.58,-603.1 164.28,-604.6 166.07,-606"/>
<polygon fill="midnightblue" stroke="midnightblue" points="164.14,-608.92 174.41,-611.51 168,-603.08 164.14,-608.92"/>
</g>
<!-- Node3 -->
<g id="node3" class="node">
<title>Node3</title>
<g id="a_node3"><a xlink:href="namespacedetailed__balance.html#a4c2ebb1580b34cd40aca41258ba5c8b7" target="_top" xlink:title="Calculate the inverse rate from the forward one via detailed balance.">
<polygon fill="white" stroke="black" points="488.5,-523.5 488.5,-553.5 621.5,-553.5 621.5,-523.5 488.5,-523.5"/>
<text text-anchor="start" x="496.5" y="-541.5" font-family="Helvetica,sans-Serif" font-size="10.00">detailed_balance::calculate</text>
<text text-anchor="middle" x="555" y="-530.5" font-family="Helvetica,sans-Serif" font-size="10.00">_detailed_balance</text>
</a>
</g>
</g>
<!-- Node1&#45;&gt;Node3 -->
<g id="edge2" class="edge">
<title>Node1&#45;&gt;Node3</title>
<path fill="none" stroke="midnightblue" d="M66.76,-347.6C75.24,-382.84 101.62,-470.39 161,-508.5 211.75,-541.07 378.93,-543.01 478.14,-541.06"/>
<polygon fill="midnightblue" stroke="midnightblue" points="478.49,-544.55 488.41,-540.84 478.34,-537.56 478.49,-544.55"/>
</g>
<!-- Node4 -->
<g id="node4" class="node">
<title>Node4</title>
<g id="a_node4"><a xlink:href="namespaceerror__msg__class.html#a2453d3b7cb363115c046840baa1dfb75" target="_top" xlink:title="Raise a exception with a given error message.">
<polygon fill="white" stroke="black" points="672.5,-353.5 672.5,-383.5 786.5,-383.5 786.5,-353.5 672.5,-353.5"/>
<text text-anchor="start" x="680.5" y="-371.5" font-family="Helvetica,sans-Serif" font-size="10.00">error_msg_class::raise</text>
<text text-anchor="middle" x="729.5" y="-360.5" font-family="Helvetica,sans-Serif" font-size="10.00">_exception</text>
</a>
</g>
</g>
<!-- Node1&#45;&gt;Node4 -->
<g id="edge38" class="edge">
<title>Node1&#45;&gt;Node4</title>
<path fill="none" stroke="midnightblue" d="M75.33,-347.56C92.16,-367.93 124.98,-403.95 161,-423.5 227.41,-459.54 251.09,-454.61 326,-464.5 457.75,-481.89 501.66,-516.99 625,-467.5 662.82,-452.33 694.63,-416.01 712.63,-391.84"/>
<polygon fill="midnightblue" stroke="midnightblue" points="715.6,-393.7 718.62,-383.55 709.93,-389.6 715.6,-393.7"/>
</g>
<!-- Node5 -->
<g id="node5" class="node">
<title>Node5</title>
<g id="a_node5"><a xlink:href="namespaceerror__msg__class.html#a7e065585cc806a5c264de1f088266498" target="_top" xlink:title="Converts a given integer to a string.">
<polygon fill="white" stroke="black" points="834,-201.5 834,-231.5 938,-231.5 938,-201.5 834,-201.5"/>
<text text-anchor="start" x="842" y="-219.5" font-family="Helvetica,sans-Serif" font-size="10.00">error_msg_class::int</text>
<text text-anchor="middle" x="886" y="-208.5" font-family="Helvetica,sans-Serif" font-size="10.00">_to_str</text>
</a>
</g>
</g>
<!-- Node1&#45;&gt;Node5 -->
<g id="edge36" class="edge">
<title>Node1&#45;&gt;Node5</title>
<path fill="none" stroke="midnightblue" d="M75.77,-317.47C93.37,-296.42 127.37,-257.61 161,-229.5 282.19,-128.21 328.14,-101.98 485,-83.5 623.16,-67.22 675.64,-17.32 798,-83.5 840.49,-106.48 865.55,-160.22 877.15,-191.91"/>
<polygon fill="midnightblue" stroke="midnightblue" points="873.85,-193.07 880.45,-201.36 880.46,-190.76 873.85,-193.07"/>
</g>
<!-- Node6 -->
<g id="node6" class="node">
<title>Node6</title>
<g id="a_node6"><a xlink:href="namespacenuflux__class.html#ac04f6b0dca8f9120cb839749cc2dbbe0" target="_top" xlink:title="Calculates the cross section times the neutrino flux.">
<polygon fill="white" stroke="black" points="169,-384.5 169,-414.5 282,-414.5 282,-384.5 169,-384.5"/>
<text text-anchor="start" x="177" y="-402.5" font-family="Helvetica,sans-Serif" font-size="10.00">nuflux_class::calculate</text>
<text text-anchor="middle" x="225.5" y="-391.5" font-family="Helvetica,sans-Serif" font-size="10.00">_nu_rate</text>
</a>
</g>
</g>
<!-- Node1&#45;&gt;Node6 -->
<g id="edge5" class="edge">
<title>Node1&#45;&gt;Node6</title>
<path fill="none" stroke="midnightblue" d="M97.68,-347.54C116.33,-355.67 139.87,-365.79 161,-374.5 166,-376.56 171.23,-378.68 176.46,-380.77"/>
<polygon fill="midnightblue" stroke="midnightblue" points="175.22,-384.05 185.8,-384.49 177.81,-377.54 175.22,-384.05"/>
</g>
<!-- Node7 -->
<g id="node7" class="node">
<title>Node7</title>
<g id="a_node7"><a xlink:href="namespacereaclib__rate__module.html#a531d2052a5c27ee57c14c22159d1fbfe" target="_top" xlink:title="Calculate a reaclib rate.">
<polygon fill="white" stroke="black" points="171.5,-561.5 171.5,-591.5 279.5,-591.5 279.5,-561.5 171.5,-561.5"/>
<text text-anchor="start" x="179.5" y="-579.5" font-family="Helvetica,sans-Serif" font-size="10.00">reaclib_rate_module</text>
<text text-anchor="middle" x="225.5" y="-568.5" font-family="Helvetica,sans-Serif" font-size="10.00">::calculate_reacl_rate</text>
</a>
</g>
</g>
<!-- Node1&#45;&gt;Node7 -->
<g id="edge6" class="edge">
<title>Node1&#45;&gt;Node7</title>
<path fill="none" stroke="midnightblue" d="M66.57,-347.5C75.06,-385.53 102.23,-486.91 161,-546.5 164.6,-550.15 168.73,-553.41 173.12,-556.31"/>
<polygon fill="midnightblue" stroke="midnightblue" points="171.42,-559.37 181.81,-561.45 174.98,-553.35 171.42,-559.37"/>
</g>
<!-- Node10 -->
<g id="node10" class="node">
<title>Node10</title>
<g id="a_node10"><a xlink:href="namespacetabulated__rate__module.html#a8cd4cb35a24c56fffef12bff3e785906" target="_top" xlink:title="Calculates the tabulated rate.">
<polygon fill="white" stroke="black" points="168,-293.5 168,-323.5 283,-323.5 283,-293.5 168,-293.5"/>
<text text-anchor="start" x="176" y="-311.5" font-family="Helvetica,sans-Serif" font-size="10.00">tabulated_rate_module</text>
<text text-anchor="middle" x="225.5" y="-300.5" font-family="Helvetica,sans-Serif" font-size="10.00">::calculate_tab_rate</text>
</a>
</g>
</g>
<!-- Node1&#45;&gt;Node10 -->
<g id="edge9" class="edge">
<title>Node1&#45;&gt;Node10</title>
<path fill="none" stroke="midnightblue" d="M125.29,-323.29C135.9,-321.71 146.98,-320.06 157.72,-318.45"/>
<polygon fill="midnightblue" stroke="midnightblue" points="158.52,-321.87 167.89,-316.94 157.49,-314.95 158.52,-321.87"/>
</g>
<!-- Node12 -->
<g id="node12" class="node">
<title>Node12</title>
<g id="a_node12"><a xlink:href="namespacetw__rate__module.html#ae35ff1052a8049df8ab31be3f7f0b777" target="_top" xlink:title="Calculate the theoretical weak rate.">
<polygon fill="white" stroke="black" points="161,-239.5 161,-269.5 290,-269.5 290,-239.5 161,-239.5"/>
<text text-anchor="start" x="169" y="-257.5" font-family="Helvetica,sans-Serif" font-size="10.00">tw_rate_module::calculate</text>
<text text-anchor="middle" x="225.5" y="-246.5" font-family="Helvetica,sans-Serif" font-size="10.00">_twr_rate</text>
</a>
</g>
</g>
<!-- Node1&#45;&gt;Node12 -->
<g id="edge11" class="edge">
<title>Node1&#45;&gt;Node12</title>
<path fill="none" stroke="midnightblue" d="M92.8,-317.42C112.09,-307.58 137.94,-294.56 161,-283.5 167.61,-280.33 174.64,-277.04 181.53,-273.86"/>
<polygon fill="midnightblue" stroke="midnightblue" points="183.15,-276.97 190.78,-269.62 180.23,-270.61 183.15,-276.97"/>
</g>
<!-- Node24 -->
<g id="node24" class="node">
<title>Node24</title>
<g id="a_node24"><a xlink:href="chem__pot_8f90.html#a6e7fb350a916bae49d8520394fca6414" target="_top" xlink:title="Given a temperature temp [K], density den [g/cm**3], and a composition characterized by y_e,...">
<polygon fill="white" stroke="black" points="198.5,-346 198.5,-365 252.5,-365 252.5,-346 198.5,-346"/>
<text text-anchor="middle" x="225.5" y="-353" font-family="Helvetica,sans-Serif" font-size="10.00">chempot</text>
</a>
</g>
</g>
<!-- Node1&#45;&gt;Node24 -->
<g id="edge29" class="edge">
<title>Node1&#45;&gt;Node24</title>
<path fill="none" stroke="midnightblue" d="M125.29,-341.33C146.59,-344.37 169.74,-347.68 188.31,-350.33"/>
<polygon fill="midnightblue" stroke="midnightblue" points="188,-353.82 198.4,-351.77 188.99,-346.89 188,-353.82"/>
</g>
<!-- Node28 -->
<g id="node28" class="node">
<title>Node28</title>
<g id="a_node28"><a xlink:href="namespacenucstuff__class.html#a7f6b5ddec08f9564638a58091e6940d7" target="_top" xlink:title="Calculates partition function.">
<polygon fill="white" stroke="black" points="174,-88.5 174,-118.5 277,-118.5 277,-88.5 174,-88.5"/>
<text text-anchor="start" x="182" y="-106.5" font-family="Helvetica,sans-Serif" font-size="10.00">nucstuff_class::inter</text>
<text text-anchor="middle" x="225.5" y="-95.5" font-family="Helvetica,sans-Serif" font-size="10.00">_partf</text>
</a>
</g>
</g>
<!-- Node1&#45;&gt;Node28 -->
<g id="edge37" class="edge">
<title>Node1&#45;&gt;Node28</title>
<path fill="none" stroke="midnightblue" d="M67.16,-317.49C76.66,-281.33 105.38,-188.33 161,-133.5 164.7,-129.85 168.94,-126.58 173.42,-123.67"/>
<polygon fill="midnightblue" stroke="midnightblue" points="175.4,-126.57 182.27,-118.51 171.87,-120.52 175.4,-126.57"/>
</g>
<!-- Node29 -->
<g id="node29" class="node">
<title>Node29</title>
<g id="a_node29"><a xlink:href="namespacescreening__module.html#a849df594c989d90443acad283ef41bfb" target="_top" xlink:title="This function calculates the screening coefficients hv.">
<polygon fill="white" stroke="black" points="161,-50 161,-69 290,-69 290,-50 161,-50"/>
<text text-anchor="middle" x="225.5" y="-57" font-family="Helvetica,sans-Serif" font-size="10.00">screening_module::screen</text>
</a>
</g>
</g>
<!-- Node1&#45;&gt;Node29 -->
<g id="edge39" class="edge">
<title>Node1&#45;&gt;Node29</title>
<path fill="none" stroke="midnightblue" d="M64.77,-317.38C69.25,-273.65 88.25,-145.93 161,-78.5 162.71,-76.91 164.56,-75.45 166.49,-74.12"/>
<polygon fill="midnightblue" stroke="midnightblue" points="168.54,-76.98 175.52,-69.01 165.09,-70.89 168.54,-76.98"/>
</g>
<!-- Node30 -->
<g id="node30" class="node">
<title>Node30</title>
<g id="a_node30"><a xlink:href="namespacetabulated__rate__module.html#ab39e3f09d54fc4b3f8baf09c5621f303" target="_top" xlink:title="Set tab_index for a given temperature.">
<polygon fill="white" stroke="black" points="168,-0.5 168,-30.5 283,-30.5 283,-0.5 168,-0.5"/>
<text text-anchor="start" x="176" y="-18.5" font-family="Helvetica,sans-Serif" font-size="10.00">tabulated_rate_module</text>
<text text-anchor="middle" x="225.5" y="-7.5" font-family="Helvetica,sans-Serif" font-size="10.00">::tabulated_index</text>
</a>
</g>
</g>
<!-- Node1&#45;&gt;Node30 -->
<g id="edge40" class="edge">
<title>Node1&#45;&gt;Node30</title>
<path fill="none" stroke="midnightblue" d="M64.22,-317.21C67.26,-269.7 82.84,-122.9 161,-40.5 162.38,-39.05 163.85,-37.68 165.39,-36.39"/>
<polygon fill="midnightblue" stroke="midnightblue" points="167.51,-39.18 173.67,-30.57 163.48,-33.46 167.51,-39.18"/>
</g>
<!-- Node3&#45;&gt;Node4 -->
<g id="edge3" class="edge">
<title>Node3&#45;&gt;Node4</title>
<path fill="none" stroke="midnightblue" d="M600.29,-523.36C608.96,-519.29 617.64,-514.36 625,-508.5 665.98,-475.89 698.89,-423.3 715.89,-392.71"/>
<polygon fill="midnightblue" stroke="midnightblue" points="719.14,-394.06 720.84,-383.6 712.99,-390.71 719.14,-394.06"/>
</g>
<!-- Node4&#45;&gt;Node5 -->
<g id="edge4" class="edge">
<title>Node4&#45;&gt;Node5</title>
<path fill="none" stroke="midnightblue" d="M745.88,-353.37C773.3,-326.4 830.72,-269.9 862.55,-238.59"/>
<polygon fill="midnightblue" stroke="midnightblue" points="865.01,-241.08 869.68,-231.57 860.1,-236.09 865.01,-241.08"/>
</g>
<!-- Node8 -->
<g id="node8" class="node">
<title>Node8</title>
<g id="a_node8"><a xlink:href="namespacebenam__class.html#a2e85786a53d55231776ae950b7b27953" target="_top" xlink:title="Return a string to represent a given reaction.">
<polygon fill="white" stroke="black" points="331,-564.5 331,-594.5 444,-594.5 444,-564.5 331,-564.5"/>
<text text-anchor="start" x="339" y="-582.5" font-family="Helvetica,sans-Serif" font-size="10.00">benam_class::reaction</text>
<text text-anchor="middle" x="387.5" y="-571.5" font-family="Helvetica,sans-Serif" font-size="10.00">_string</text>
</a>
</g>
</g>
<!-- Node7&#45;&gt;Node8 -->
<g id="edge7" class="edge">
<title>Node7&#45;&gt;Node8</title>
<path fill="none" stroke="midnightblue" d="M279.78,-577.5C292.89,-577.74 307.08,-578.01 320.71,-578.27"/>
<polygon fill="midnightblue" stroke="midnightblue" points="320.93,-581.77 330.99,-578.46 321.06,-574.77 320.93,-581.77"/>
</g>
<!-- Node9 -->
<g id="node9" class="node">
<title>Node9</title>
<g id="a_node9"><a xlink:href="namespacebenam__class.html#afd880df70f94c289b6bda0647f4494e3" target="_top" xlink:title="Getter of net_names, translating indices to a nucleus name.">
<polygon fill="white" stroke="black" points="485,-573 485,-592 625,-592 625,-573 485,-573"/>
<text text-anchor="middle" x="555" y="-580" font-family="Helvetica,sans-Serif" font-size="10.00">benam_class::get_net_name</text>
</a>
</g>
</g>
<!-- Node8&#45;&gt;Node9 -->
<g id="edge8" class="edge">
<title>Node8&#45;&gt;Node9</title>
<path fill="none" stroke="midnightblue" d="M444.07,-580.51C453.86,-580.68 464.22,-580.87 474.51,-581.06"/>
<polygon fill="midnightblue" stroke="midnightblue" points="474.7,-584.56 484.76,-581.24 474.82,-577.56 474.7,-584.56"/>
</g>
<!-- Node11 -->
<g id="node11" class="node">
<title>Node11</title>
<g id="a_node11"><a xlink:href="namespacetabulated__rate__module.html#a26734ac5f0837b48d072ef67dd82d002" target="_top" xlink:title="Interpolate tabulated rates from the table.">
<polygon fill="white" stroke="black" points="330,-291.5 330,-321.5 445,-321.5 445,-291.5 330,-291.5"/>
<text text-anchor="start" x="338" y="-309.5" font-family="Helvetica,sans-Serif" font-size="10.00">tabulated_rate_module</text>
<text text-anchor="middle" x="387.5" y="-298.5" font-family="Helvetica,sans-Serif" font-size="10.00">::tabulated_inter</text>
</a>
</g>
</g>
<!-- Node10&#45;&gt;Node11 -->
<g id="edge10" class="edge">
<title>Node10&#45;&gt;Node11</title>
<path fill="none" stroke="midnightblue" d="M283.36,-307.79C295.15,-307.64 307.67,-307.49 319.78,-307.33"/>
<polygon fill="midnightblue" stroke="midnightblue" points="319.87,-310.83 329.82,-307.21 319.78,-303.83 319.87,-310.83"/>
</g>
<!-- Node13 -->
<g id="node13" class="node">
<title>Node13</title>
<g id="a_node13"><a xlink:href="namespaceeffphase__class.html#aa6f8c1dc7835aa0c93be9a61c90f9a36" target="_top" xlink:title=" ">
<polygon fill="white" stroke="black" points="326,-131 326,-150 449,-150 449,-131 326,-131"/>
<text text-anchor="middle" x="387.5" y="-138" font-family="Helvetica,sans-Serif" font-size="10.00">effphase_class::effphase</text>
</a>
</g>
</g>
<!-- Node12&#45;&gt;Node13 -->
<g id="edge12" class="edge">
<title>Node12&#45;&gt;Node13</title>
<path fill="none" stroke="midnightblue" d="M242.1,-239.25C260.93,-221.35 294.06,-191.46 326,-170.5 334.97,-164.61 345.26,-159.1 354.77,-154.45"/>
<polygon fill="midnightblue" stroke="midnightblue" points="356.41,-157.55 363.95,-150.1 353.42,-151.22 356.41,-157.55"/>
</g>
<!-- Node19 -->
<g id="node19" class="node">
<title>Node19</title>
<g id="a_node19"><a xlink:href="namespacetw__rate__module.html#aae7dacb01f31b31c10189432cc750156" target="_top" xlink:title="Set wk_index for given T, &#160;and &#160;The index is written into module variable wk_index.">
<polygon fill="white" stroke="black" points="331,-180.5 331,-210.5 444,-210.5 444,-180.5 331,-180.5"/>
<text text-anchor="start" x="339" y="-198.5" font-family="Helvetica,sans-Serif" font-size="10.00">tw_rate_module::weak</text>
<text text-anchor="middle" x="387.5" y="-187.5" font-family="Helvetica,sans-Serif" font-size="10.00">_index</text>
</a>
</g>
</g>
<!-- Node12&#45;&gt;Node19 -->
<g id="edge18" class="edge">
<title>Node12&#45;&gt;Node19</title>
<path fill="none" stroke="midnightblue" d="M267.29,-239.46C288.26,-231.73 314,-222.23 336.19,-214.05"/>
<polygon fill="midnightblue" stroke="midnightblue" points="337.61,-217.26 345.79,-210.51 335.19,-210.69 337.61,-217.26"/>
</g>
<!-- Node21 -->
<g id="node21" class="node">
<title>Node21</title>
<g id="a_node21"><a xlink:href="namespacetw__rate__module.html#ad64c32f568ba69ca2822b1c0a2d4d911" target="_top" xlink:title="Interpolation interface.">
<polygon fill="white" stroke="black" points="331,-239.5 331,-269.5 444,-269.5 444,-239.5 331,-239.5"/>
<text text-anchor="start" x="339" y="-257.5" font-family="Helvetica,sans-Serif" font-size="10.00">tw_rate_module::weak</text>
<text text-anchor="middle" x="387.5" y="-246.5" font-family="Helvetica,sans-Serif" font-size="10.00">_inter</text>
</a>
</g>
</g>
<!-- Node12&#45;&gt;Node21 -->
<g id="edge20" class="edge">
<title>Node12&#45;&gt;Node21</title>
<path fill="none" stroke="midnightblue" d="M290.2,-254.5C300.16,-254.5 310.47,-254.5 320.48,-254.5"/>
<polygon fill="midnightblue" stroke="midnightblue" points="320.78,-258 330.78,-254.5 320.78,-251 320.78,-258"/>
</g>
<!-- Node14 -->
<g id="node14" class="node">
<title>Node14</title>
<g id="a_node14"><a xlink:href="quadpack__module_8f90.html#ac59eaf7c56c1d421d129425895fa0107" target="_top" xlink:title=" ">
<polygon fill="white" stroke="black" points="537.5,-93 537.5,-112 572.5,-112 572.5,-93 537.5,-93"/>
<text text-anchor="middle" x="555" y="-100" font-family="Helvetica,sans-Serif" font-size="10.00">qagi</text>
</a>
</g>
</g>
<!-- Node13&#45;&gt;Node14 -->
<g id="edge13" class="edge">
<title>Node13&#45;&gt;Node14</title>
<path fill="none" stroke="midnightblue" d="M430.26,-130.91C460.73,-123.92 501.11,-114.64 527.32,-108.63"/>
<polygon fill="midnightblue" stroke="midnightblue" points="528.32,-111.99 537.29,-106.34 526.76,-105.16 528.32,-111.99"/>
</g>
<!-- Node18 -->
<g id="node18" class="node">
<title>Node18</title>
<g id="a_node18"><a xlink:href="effphase__class_8f90.html#a9f43f9887f468d012dbae6ba88547dd7" target="_top" xlink:title="The integrand in effective psi, eq.[16] of Langanke &amp; Pinedo (2001)">
<polygon fill="white" stroke="black" points="536.5,-131 536.5,-150 573.5,-150 573.5,-131 536.5,-131"/>
<text text-anchor="middle" x="555" y="-138" font-family="Helvetica,sans-Serif" font-size="10.00">xeffc</text>
</a>
</g>
</g>
<!-- Node13&#45;&gt;Node18 -->
<g id="edge17" class="edge">
<title>Node13&#45;&gt;Node18</title>
<path fill="none" stroke="midnightblue" d="M449.19,-140.5C475.58,-140.5 505.21,-140.5 526.21,-140.5"/>
<polygon fill="midnightblue" stroke="midnightblue" points="526.35,-144 536.35,-140.5 526.35,-137 526.35,-144"/>
</g>
<!-- Node15 -->
<g id="node15" class="node">
<title>Node15</title>
<g id="a_node15"><a xlink:href="quadpack__module_8f90.html#a5a75101d080f224c63adde98a0e64386" target="_top" xlink:title=" ">
<polygon fill="white" stroke="black" points="710.5,-93 710.5,-112 748.5,-112 748.5,-93 710.5,-93"/>
<text text-anchor="middle" x="729.5" y="-100" font-family="Helvetica,sans-Serif" font-size="10.00">qextr</text>
</a>
</g>
</g>
<!-- Node14&#45;&gt;Node15 -->
<g id="edge14" class="edge">
<title>Node14&#45;&gt;Node15</title>
<path fill="none" stroke="midnightblue" d="M572.54,-102.5C601.96,-102.5 663.71,-102.5 700.06,-102.5"/>
<polygon fill="midnightblue" stroke="midnightblue" points="700.47,-106 710.47,-102.5 700.47,-99 700.47,-106"/>
</g>
<!-- Node16 -->
<g id="node16" class="node">
<title>Node16</title>
<g id="a_node16"><a xlink:href="quadpack__module_8f90.html#a59164415fc33f2f3bf4ebc4ee2220f7e" target="_top" xlink:title=" ">
<polygon fill="white" stroke="black" points="709.5,-169 709.5,-188 749.5,-188 749.5,-169 709.5,-169"/>
<text text-anchor="middle" x="729.5" y="-176" font-family="Helvetica,sans-Serif" font-size="10.00">qk15i</text>
</a>
</g>
</g>
<!-- Node14&#45;&gt;Node16 -->
<g id="edge15" class="edge">
<title>Node14&#45;&gt;Node16</title>
<path fill="none" stroke="midnightblue" d="M572.61,-104.5C587.24,-106.84 608.7,-111.72 625,-121.5 644.95,-133.47 641.09,-147.47 661,-159.5 672.64,-166.53 686.98,-171.05 699.44,-173.9"/>
<polygon fill="midnightblue" stroke="midnightblue" points="698.87,-177.35 709.37,-175.92 700.27,-170.5 698.87,-177.35"/>
</g>
<!-- Node17 -->
<g id="node17" class="node">
<title>Node17</title>
<g id="a_node17"><a xlink:href="quadpack__module_8f90.html#a55e08a684c5a6315fb37dd0fdc66d8e6" target="_top" xlink:title=" ">
<polygon fill="white" stroke="black" points="710.5,-131 710.5,-150 748.5,-150 748.5,-131 710.5,-131"/>
<text text-anchor="middle" x="729.5" y="-138" font-family="Helvetica,sans-Serif" font-size="10.00">qsort</text>
</a>
</g>
</g>
<!-- Node14&#45;&gt;Node17 -->
<g id="edge16" class="edge">
<title>Node14&#45;&gt;Node17</title>
<path fill="none" stroke="midnightblue" d="M572.54,-106.14C602.09,-112.65 664.24,-126.34 700.53,-134.34"/>
<polygon fill="midnightblue" stroke="midnightblue" points="699.95,-137.79 710.47,-136.53 701.45,-130.96 699.95,-137.79"/>
</g>
<!-- Node20 -->
<g id="node20" class="node">
<title>Node20</title>
<g id="a_node20"><a xlink:href="namespaceinter__module.html#a947ac5de821c77a2cd1cf1ea1ce43589" target="_top" xlink:title="Get indices of the grid for given x&#45; and y&#45; values.">
<polygon fill="white" stroke="black" points="661,-245 661,-264 798,-264 798,-245 661,-245"/>
<text text-anchor="middle" x="729.5" y="-252" font-family="Helvetica,sans-Serif" font-size="10.00">inter_module::get_indice_2d</text>
</a>
</g>
</g>
<!-- Node19&#45;&gt;Node20 -->
<g id="edge19" class="edge">
<title>Node19&#45;&gt;Node20</title>
<path fill="none" stroke="midnightblue" d="M444.45,-204.74C492.39,-212.7 563.28,-224.62 625,-235.5 638.75,-237.93 653.52,-240.6 667.47,-243.15"/>
<polygon fill="midnightblue" stroke="midnightblue" points="666.99,-246.62 677.46,-244.98 668.26,-239.74 666.99,-246.62"/>
</g>
<!-- Node21&#45;&gt;Node4 -->
<g id="edge28" class="edge">
<title>Node21&#45;&gt;Node4</title>
<path fill="none" stroke="midnightblue" d="M426.44,-269.51C434.11,-273.07 441.97,-277.12 449,-281.5 466.68,-292.51 466.36,-302.21 485,-311.5 541.17,-339.49 611.53,-354.05 662.16,-361.41"/>
<polygon fill="midnightblue" stroke="midnightblue" points="661.94,-364.92 672.33,-362.83 662.91,-357.98 661.94,-364.92"/>
</g>
<!-- Node21&#45;&gt;Node5 -->
<g id="edge24" class="edge">
<title>Node21&#45;&gt;Node5</title>
<path fill="none" stroke="midnightblue" d="M444.15,-242.1C457.47,-239.53 471.69,-237.12 485,-235.5 604.38,-220.99 745.07,-217.42 823.75,-216.62"/>
<polygon fill="midnightblue" stroke="midnightblue" points="824,-220.12 833.97,-216.53 823.94,-213.12 824,-220.12"/>
</g>
<!-- Node22 -->
<g id="node22" class="node">
<title>Node22</title>
<g id="a_node22"><a xlink:href="namespaceinter__module.html#a63ff1c6e223efc802d231f8b0b354a22" target="_top" xlink:title="Cubic interpolate on 2&#45;Dimensional grid.">
<polygon fill="white" stroke="black" points="491.5,-245 491.5,-264 618.5,-264 618.5,-245 491.5,-245"/>
<text text-anchor="middle" x="555" y="-252" font-family="Helvetica,sans-Serif" font-size="10.00">inter_module::cubinter_2d</text>
</a>
</g>
</g>
<!-- Node21&#45;&gt;Node22 -->
<g id="edge21" class="edge">
<title>Node21&#45;&gt;Node22</title>
<path fill="none" stroke="midnightblue" d="M444.07,-254.5C455.95,-254.5 468.68,-254.5 481.11,-254.5"/>
<polygon fill="midnightblue" stroke="midnightblue" points="481.45,-258 491.45,-254.5 481.45,-251 481.45,-258"/>
</g>
<!-- Node23 -->
<g id="node23" class="node">
<title>Node23</title>
<g id="a_node23"><a xlink:href="namespaceinter__module.html#a926757c13b25424fa6d751c645dfa6dc" target="_top" xlink:title="Interpolate linearly on 2 Dimensional grid.">
<polygon fill="white" stroke="black" points="494.5,-283 494.5,-302 615.5,-302 615.5,-283 494.5,-283"/>
<text text-anchor="middle" x="555" y="-290" font-family="Helvetica,sans-Serif" font-size="10.00">inter_module::lininter_2d</text>
</a>
</g>
</g>
<!-- Node21&#45;&gt;Node23 -->
<g id="edge25" class="edge">
<title>Node21&#45;&gt;Node23</title>
<path fill="none" stroke="midnightblue" d="M444.07,-267.26C463.01,-271.61 484.1,-276.45 502.69,-280.72"/>
<polygon fill="midnightblue" stroke="midnightblue" points="501.92,-284.13 512.45,-282.96 503.49,-277.31 501.92,-284.13"/>
</g>
<!-- Node22&#45;&gt;Node4 -->
<g id="edge23" class="edge">
<title>Node22&#45;&gt;Node4</title>
<path fill="none" stroke="midnightblue" d="M602.48,-264.03C610.25,-266.53 618.04,-269.65 625,-273.5 658.68,-292.15 690.17,-323.91 709.37,-345.53"/>
<polygon fill="midnightblue" stroke="midnightblue" points="706.9,-348.03 716.11,-353.27 712.18,-343.43 706.9,-348.03"/>
</g>
<!-- Node22&#45;&gt;Node20 -->
<g id="edge22" class="edge">
<title>Node22&#45;&gt;Node20</title>
<path fill="none" stroke="midnightblue" d="M618.76,-254.5C629.13,-254.5 639.99,-254.5 650.67,-254.5"/>
<polygon fill="midnightblue" stroke="midnightblue" points="650.84,-258 660.84,-254.5 650.84,-251 650.84,-258"/>
</g>
<!-- Node23&#45;&gt;Node4 -->
<g id="edge27" class="edge">
<title>Node23&#45;&gt;Node4</title>
<path fill="none" stroke="midnightblue" d="M586.21,-302.05C598.4,-306.15 612.5,-311.21 625,-316.5 647.7,-326.1 672.4,-338.43 691.97,-348.68"/>
<polygon fill="midnightblue" stroke="midnightblue" points="690.37,-351.79 700.85,-353.37 693.64,-345.6 690.37,-351.79"/>
</g>
<!-- Node23&#45;&gt;Node20 -->
<g id="edge26" class="edge">
<title>Node23&#45;&gt;Node20</title>
<path fill="none" stroke="midnightblue" d="M599.53,-282.91C622.6,-277.83 651.13,-271.54 675.48,-266.18"/>
<polygon fill="midnightblue" stroke="midnightblue" points="676.27,-269.59 685.28,-264.02 674.77,-262.75 676.27,-269.59"/>
</g>
<!-- Node24&#45;&gt;Node4 -->
<g id="edge35" class="edge">
<title>Node24&#45;&gt;Node4</title>
<path fill="none" stroke="midnightblue" d="M252.76,-359.14C264.98,-361.84 279.18,-366.49 290,-374.5 313.19,-391.65 300.92,-414.25 326,-428.5 441.59,-494.15 497.64,-474.6 625,-436.5 655.1,-427.5 684.56,-406.62 704.3,-390.35"/>
<polygon fill="midnightblue" stroke="midnightblue" points="706.77,-392.84 712.14,-383.71 702.25,-387.5 706.77,-392.84"/>
</g>
<!-- Node25 -->
<g id="node25" class="node">
<title>Node25</title>
<g id="a_node25"><a xlink:href="namespaceerror__msg__class.html#a5bc9f3b670b725cc43276934b867d801" target="_top" xlink:title="Converts a given real to a string with format &quot;(1pE10.2)&quot;.">
<polygon fill="white" stroke="black" points="331.5,-340.5 331.5,-370.5 443.5,-370.5 443.5,-340.5 331.5,-340.5"/>
<text text-anchor="start" x="339.5" y="-358.5" font-family="Helvetica,sans-Serif" font-size="10.00">error_msg_class::num</text>
<text text-anchor="middle" x="387.5" y="-347.5" font-family="Helvetica,sans-Serif" font-size="10.00">_to_str</text>
</a>
</g>
</g>
<!-- Node24&#45;&gt;Node25 -->
<g id="edge30" class="edge">
<title>Node24&#45;&gt;Node25</title>
<path fill="none" stroke="midnightblue" d="M252.56,-355.5C271.16,-355.5 297.03,-355.5 321.08,-355.5"/>
<polygon fill="midnightblue" stroke="midnightblue" points="321.26,-359 331.26,-355.5 321.26,-352 321.26,-359"/>
</g>
<!-- Node26 -->
<g id="node26" class="node">
<title>Node26</title>
<g id="a_node26"><a xlink:href="namespacefile__handling__class.html#aab870caaf9cbaaf635d537708efbf793" target="_top" xlink:title="Same for reading (input file)">
<polygon fill="white" stroke="black" points="338.5,-389.5 338.5,-419.5 436.5,-419.5 436.5,-389.5 338.5,-389.5"/>
<text text-anchor="start" x="346.5" y="-407.5" font-family="Helvetica,sans-Serif" font-size="10.00">file_handling_class</text>
<text text-anchor="middle" x="387.5" y="-396.5" font-family="Helvetica,sans-Serif" font-size="10.00">::open_infile</text>
</a>
</g>
</g>
<!-- Node24&#45;&gt;Node26 -->
<g id="edge31" class="edge">
<title>Node24&#45;&gt;Node26</title>
<path fill="none" stroke="midnightblue" d="M252.78,-363.29C264.22,-366.71 277.78,-370.77 290,-374.5 302.57,-378.33 316.05,-382.49 328.82,-386.46"/>
<polygon fill="midnightblue" stroke="midnightblue" points="327.84,-389.82 338.43,-389.44 329.92,-383.13 327.84,-389.82"/>
</g>
<!-- Node26&#45;&gt;Node4 -->
<g id="edge34" class="edge">
<title>Node26&#45;&gt;Node4</title>
<path fill="none" stroke="midnightblue" d="M436.96,-395.02C452.28,-392.28 469.31,-389.49 485,-387.5 544.69,-379.93 613.03,-374.92 662.08,-371.95"/>
<polygon fill="midnightblue" stroke="midnightblue" points="662.47,-375.43 672.25,-371.35 662.06,-368.44 662.47,-375.43"/>
</g>
<!-- Node27 -->
<g id="node27" class="node">
<title>Node27</title>
<g id="a_node27"><a xlink:href="namespacefile__handling__class.html#af02196bd5eaf70ecd5ab4cc650094d5e" target="_top" xlink:title="Finds the next unused unit number.">
<polygon fill="white" stroke="black" points="506,-397.5 506,-427.5 604,-427.5 604,-397.5 506,-397.5"/>
<text text-anchor="start" x="514" y="-415.5" font-family="Helvetica,sans-Serif" font-size="10.00">file_handling_class</text>
<text text-anchor="middle" x="555" y="-404.5" font-family="Helvetica,sans-Serif" font-size="10.00">::get_next_io_unit</text>
</a>
</g>
</g>
<!-- Node26&#45;&gt;Node27 -->
<g id="edge32" class="edge">
<title>Node26&#45;&gt;Node27</title>
<path fill="none" stroke="midnightblue" d="M436.81,-406.84C455.25,-407.73 476.47,-408.75 495.74,-409.68"/>
<polygon fill="midnightblue" stroke="midnightblue" points="495.75,-413.19 505.91,-410.18 496.09,-406.2 495.75,-413.19"/>
</g>
<!-- Node27&#45;&gt;Node4 -->
<g id="edge33" class="edge">
<title>Node27&#45;&gt;Node4</title>
<path fill="none" stroke="midnightblue" d="M604.05,-400.24C622.22,-395.61 643.21,-390.25 662.73,-385.28"/>
<polygon fill="midnightblue" stroke="midnightblue" points="663.65,-388.65 672.47,-382.79 661.92,-381.87 663.65,-388.65"/>
</g>
</g>
</svg>
