<?xml version="1.0" encoding="UTF-8" standalone="no"?>
<!DOCTYPE svg PUBLIC "-//W3C//DTD SVG 1.1//EN"
 "http://www.w3.org/Graphics/SVG/1.1/DTD/svg11.dtd">
<!-- Generated by graphviz version 2.44.0 ()
 -->
<!-- Title: parser_module::parse_string Pages: 1 -->
<svg width="891pt" height="437pt"
 viewBox="0.00 0.00 891.00 436.87" xmlns="http://www.w3.org/2000/svg" xmlns:xlink="http://www.w3.org/1999/xlink">
<g id="graph0" class="graph" transform="scale(1 1) rotate(0) translate(4 432.87)">
<title>parser_module::parse_string</title>
<polygon fill="white" stroke="transparent" points="-4,4 -4,-432.87 887,-432.87 887,4 -4,4"/>
<!-- Node1 -->
<g id="node1" class="node">
<title>Node1</title>
<g id="a_node1"><a xlink:title="Takes a string and evaluates the expression.">
<polygon fill="#bfbfbf" stroke="black" points="0,-208.5 0,-238.5 109,-238.5 109,-208.5 0,-208.5"/>
<text text-anchor="start" x="8" y="-226.5" font-family="Helvetica,sans-Serif" font-size="10.00">parser_module::parse</text>
<text text-anchor="middle" x="54.5" y="-215.5" font-family="Helvetica,sans-Serif" font-size="10.00">_string</text>
</a>
</g>
</g>
<!-- Node2 -->
<g id="node2" class="node">
<title>Node2</title>
<g id="a_node2"><a xlink:href="namespaceparser__module.html#a5c583c26539a886921a9067fa425bc9c" target="_top" xlink:title="Evaluate a complex string expression.">
<polygon fill="white" stroke="black" points="145,-214 145,-233 267,-233 267,-214 145,-214"/>
<text text-anchor="middle" x="206" y="-221" font-family="Helvetica,sans-Serif" font-size="10.00">parser_module::evaluate</text>
</a>
</g>
</g>
<!-- Node1&#45;&gt;Node2 -->
<g id="edge1" class="edge">
<title>Node1&#45;&gt;Node2</title>
<path fill="none" stroke="midnightblue" d="M109.05,-223.5C117.42,-223.5 126.18,-223.5 134.85,-223.5"/>
<polygon fill="midnightblue" stroke="midnightblue" points="134.97,-227 144.97,-223.5 134.97,-220 134.97,-227"/>
</g>
<!-- Node3 -->
<g id="node3" class="node">
<title>Node3</title>
<g id="a_node3"><a xlink:href="namespaceparser__module.html#ad50643e6694300972743edc44679fbf7" target="_top" xlink:title="Function to perform a function operations.">
<polygon fill="white" stroke="black" points="309.5,-390.5 309.5,-420.5 412.5,-420.5 412.5,-390.5 309.5,-390.5"/>
<text text-anchor="start" x="317.5" y="-408.5" font-family="Helvetica,sans-Serif" font-size="10.00">parser_module::eval</text>
<text text-anchor="middle" x="361" y="-397.5" font-family="Helvetica,sans-Serif" font-size="10.00">_function</text>
</a>
</g>
</g>
<!-- Node2&#45;&gt;Node3 -->
<g id="edge2" class="edge">
<title>Node2&#45;&gt;Node3</title>
<path fill="none" stroke="midnightblue" d="M215.23,-233.29C238.8,-261.33 307.07,-342.54 340.75,-382.6"/>
<polygon fill="midnightblue" stroke="midnightblue" points="338.08,-384.86 347.19,-390.27 343.44,-380.36 338.08,-384.86"/>
</g>
<!-- Node6 -->
<g id="node6" class="node">
<title>Node6</title>
<g id="a_node6"><a xlink:href="namespaceparser__module.html#ae4ed3c6a08e74ffd03282ee7c30d8194" target="_top" xlink:title="Evaluate a simple string expression, without brackets and functions.">
<polygon fill="white" stroke="black" points="312,-276.5 312,-306.5 410,-306.5 410,-276.5 312,-276.5"/>
<text text-anchor="start" x="320" y="-294.5" font-family="Helvetica,sans-Serif" font-size="10.00">parser_module::get</text>
<text text-anchor="middle" x="361" y="-283.5" font-family="Helvetica,sans-Serif" font-size="10.00">_simple_result</text>
</a>
</g>
</g>
<!-- Node2&#45;&gt;Node6 -->
<g id="edge5" class="edge">
<title>Node2&#45;&gt;Node6</title>
<path fill="none" stroke="midnightblue" d="M228.6,-233.1C251.39,-243.23 287.93,-259.47 316.7,-272.25"/>
<polygon fill="midnightblue" stroke="midnightblue" points="315.56,-275.58 326.12,-276.44 318.41,-269.18 315.56,-275.58"/>
</g>
<!-- Node11 -->
<g id="node11" class="node">
<title>Node11</title>
<g id="a_node11"><a xlink:href="namespaceparser__module.html#a4b73870fbca7e3195b5d1efc61c3f039" target="_top" xlink:title="Function to decide whether a character is a number or not (i.e., 0&#45;9).">
<polygon fill="white" stroke="black" points="303,-214 303,-233 419,-233 419,-214 303,-214"/>
<text text-anchor="middle" x="361" y="-221" font-family="Helvetica,sans-Serif" font-size="10.00">parser_module::is_digit</text>
</a>
</g>
</g>
<!-- Node2&#45;&gt;Node11 -->
<g id="edge12" class="edge">
<title>Node2&#45;&gt;Node11</title>
<path fill="none" stroke="midnightblue" d="M267.03,-223.5C275.36,-223.5 283.97,-223.5 292.43,-223.5"/>
<polygon fill="midnightblue" stroke="midnightblue" points="292.64,-227 302.64,-223.5 292.64,-220 292.64,-227"/>
</g>
<!-- Node12 -->
<g id="node12" class="node">
<title>Node12</title>
<g id="a_node12"><a xlink:href="namespaceparser__module.html#af9cbf87119ef07db357b3240c716e462" target="_top" xlink:title="Function to decide whether a character is a mathematical operator or not. Functions (as e....">
<polygon fill="white" stroke="black" points="457.5,-176 457.5,-195 590.5,-195 590.5,-176 457.5,-176"/>
<text text-anchor="middle" x="524" y="-183" font-family="Helvetica,sans-Serif" font-size="10.00">parser_module::is_operator</text>
</a>
</g>
</g>
<!-- Node2&#45;&gt;Node12 -->
<g id="edge13" class="edge">
<title>Node2&#45;&gt;Node12</title>
<path fill="none" stroke="midnightblue" d="M249.84,-213.98C266.38,-210.58 285.51,-206.98 303,-204.5 350.79,-197.73 404.79,-193.02 447.33,-189.99"/>
<polygon fill="midnightblue" stroke="midnightblue" points="447.6,-193.48 457.33,-189.29 447.11,-186.49 447.6,-193.48"/>
</g>
<!-- Node13 -->
<g id="node13" class="node">
<title>Node13</title>
<g id="a_node13"><a xlink:href="namespaceparser__module.html#a3441e2e009e491fac044cc02bc9b144d" target="_top" xlink:title="Store mathematical operators (+&#45;*/) and numbers in arrays.">
<polygon fill="white" stroke="black" points="307.5,-107.5 307.5,-137.5 414.5,-137.5 414.5,-107.5 307.5,-107.5"/>
<text text-anchor="start" x="315.5" y="-125.5" font-family="Helvetica,sans-Serif" font-size="10.00">parser_module::store</text>
<text text-anchor="middle" x="361" y="-114.5" font-family="Helvetica,sans-Serif" font-size="10.00">_digits_operator</text>
</a>
</g>
</g>
<!-- Node2&#45;&gt;Node13 -->
<g id="edge14" class="edge">
<title>Node2&#45;&gt;Node13</title>
<path fill="none" stroke="midnightblue" d="M221.39,-214C245.84,-197.86 296.01,-164.74 328.81,-143.09"/>
<polygon fill="midnightblue" stroke="midnightblue" points="330.74,-146.01 337.15,-137.58 326.88,-140.17 330.74,-146.01"/>
</g>
<!-- Node4 -->
<g id="node4" class="node">
<title>Node4</title>
<g id="a_node4"><a xlink:href="namespaceerror__msg__class.html#a2453d3b7cb363115c046840baa1dfb75" target="_top" xlink:title="Raise a exception with a given error message.">
<polygon fill="white" stroke="black" points="629,-301.5 629,-331.5 743,-331.5 743,-301.5 629,-301.5"/>
<text text-anchor="start" x="637" y="-319.5" font-family="Helvetica,sans-Serif" font-size="10.00">error_msg_class::raise</text>
<text text-anchor="middle" x="686" y="-308.5" font-family="Helvetica,sans-Serif" font-size="10.00">_exception</text>
</a>
</g>
</g>
<!-- Node3&#45;&gt;Node4 -->
<g id="edge3" class="edge">
<title>Node3&#45;&gt;Node4</title>
<path fill="none" stroke="midnightblue" d="M412.93,-418.92C461.31,-428.99 535.06,-437.22 593,-412.5 627.11,-397.94 654.65,-363.84 670.42,-340.47"/>
<polygon fill="midnightblue" stroke="midnightblue" points="673.54,-342.08 676.07,-331.79 667.68,-338.26 673.54,-342.08"/>
</g>
<!-- Node5 -->
<g id="node5" class="node">
<title>Node5</title>
<g id="a_node5"><a xlink:href="namespaceerror__msg__class.html#a7e065585cc806a5c264de1f088266498" target="_top" xlink:title="Converts a given integer to a string.">
<polygon fill="white" stroke="black" points="779,-301.5 779,-331.5 883,-331.5 883,-301.5 779,-301.5"/>
<text text-anchor="start" x="787" y="-319.5" font-family="Helvetica,sans-Serif" font-size="10.00">error_msg_class::int</text>
<text text-anchor="middle" x="831" y="-308.5" font-family="Helvetica,sans-Serif" font-size="10.00">_to_str</text>
</a>
</g>
</g>
<!-- Node4&#45;&gt;Node5 -->
<g id="edge4" class="edge">
<title>Node4&#45;&gt;Node5</title>
<path fill="none" stroke="midnightblue" d="M743.11,-316.5C751.45,-316.5 760.09,-316.5 768.54,-316.5"/>
<polygon fill="midnightblue" stroke="midnightblue" points="768.71,-320 778.71,-316.5 768.71,-313 768.71,-320"/>
</g>
<!-- Node6&#45;&gt;Node4 -->
<g id="edge11" class="edge">
<title>Node6&#45;&gt;Node4</title>
<path fill="none" stroke="midnightblue" d="M370.71,-306.88C384.89,-330.14 415.39,-373.36 455,-390.5 511.29,-414.85 535.15,-410.88 593,-390.5 621.67,-380.4 647.99,-357.17 665.07,-339.41"/>
<polygon fill="midnightblue" stroke="midnightblue" points="667.99,-341.41 672.24,-331.71 662.87,-336.64 667.99,-341.41"/>
</g>
<!-- Node7 -->
<g id="node7" class="node">
<title>Node7</title>
<g id="a_node7"><a xlink:href="namespaceparser__module.html#a2cfd49c431619a7d7ded68e9f89bee70" target="_top" xlink:title="Function to decide whether a character is &quot;*&quot; or &quot;/&quot;.">
<polygon fill="white" stroke="black" points="468.5,-350.5 468.5,-380.5 579.5,-380.5 579.5,-350.5 468.5,-350.5"/>
<text text-anchor="start" x="476.5" y="-368.5" font-family="Helvetica,sans-Serif" font-size="10.00">parser_module::is_dot</text>
<text text-anchor="middle" x="524" y="-357.5" font-family="Helvetica,sans-Serif" font-size="10.00">_operator</text>
</a>
</g>
</g>
<!-- Node6&#45;&gt;Node7 -->
<g id="edge6" class="edge">
<title>Node6&#45;&gt;Node7</title>
<path fill="none" stroke="midnightblue" d="M387.52,-306.6C405.91,-317.14 431.53,-331.12 455,-341.5 459.1,-343.31 463.39,-345.09 467.73,-346.81"/>
<polygon fill="midnightblue" stroke="midnightblue" points="466.67,-350.15 477.26,-350.45 469.17,-343.61 466.67,-350.15"/>
</g>
<!-- Node8 -->
<g id="node8" class="node">
<title>Node8</title>
<g id="a_node8"><a xlink:href="namespaceparser__module.html#ae2806c52d9868da3855d28c188a1679e" target="_top" xlink:title="Function to decide whether a character is a &quot;+&quot; or &quot;&#45;&quot;.">
<polygon fill="white" stroke="black" points="467.5,-301.5 467.5,-331.5 580.5,-331.5 580.5,-301.5 467.5,-301.5"/>
<text text-anchor="start" x="475.5" y="-319.5" font-family="Helvetica,sans-Serif" font-size="10.00">parser_module::is_line</text>
<text text-anchor="middle" x="524" y="-308.5" font-family="Helvetica,sans-Serif" font-size="10.00">_operator</text>
</a>
</g>
</g>
<!-- Node6&#45;&gt;Node8 -->
<g id="edge7" class="edge">
<title>Node6&#45;&gt;Node8</title>
<path fill="none" stroke="midnightblue" d="M410.31,-299C425.05,-301.29 441.51,-303.85 457.2,-306.28"/>
<polygon fill="midnightblue" stroke="midnightblue" points="456.96,-309.79 467.38,-307.86 458.03,-302.87 456.96,-309.79"/>
</g>
<!-- Node9 -->
<g id="node9" class="node">
<title>Node9</title>
<g id="a_node9"><a xlink:href="namespaceparser__module.html#a55c1c7aac46e95ec6634aa8a514a90b0" target="_top" xlink:title="Function to decide whether a character is a &quot;^&quot;.">
<polygon fill="white" stroke="black" points="462,-252.5 462,-282.5 586,-282.5 586,-252.5 462,-252.5"/>
<text text-anchor="start" x="470" y="-270.5" font-family="Helvetica,sans-Serif" font-size="10.00">parser_module::is_power</text>
<text text-anchor="middle" x="524" y="-259.5" font-family="Helvetica,sans-Serif" font-size="10.00">_operator</text>
</a>
</g>
</g>
<!-- Node6&#45;&gt;Node9 -->
<g id="edge8" class="edge">
<title>Node6&#45;&gt;Node9</title>
<path fill="none" stroke="midnightblue" d="M410.31,-284.3C423.35,-282.35 437.74,-280.21 451.76,-278.12"/>
<polygon fill="midnightblue" stroke="midnightblue" points="452.49,-281.55 461.87,-276.61 451.46,-274.63 452.49,-281.55"/>
</g>
<!-- Node10 -->
<g id="node10" class="node">
<title>Node10</title>
<g id="a_node10"><a xlink:href="namespaceparser__module.html#a2040007bd269f7920bcfee6840eb41de" target="_top" xlink:title="Function to perform a simple mathematical operation.">
<polygon fill="white" stroke="black" points="461.5,-214 461.5,-233 586.5,-233 586.5,-214 461.5,-214"/>
<text text-anchor="middle" x="524" y="-221" font-family="Helvetica,sans-Serif" font-size="10.00">parser_module::operation</text>
</a>
</g>
</g>
<!-- Node6&#45;&gt;Node10 -->
<g id="edge9" class="edge">
<title>Node6&#45;&gt;Node10</title>
<path fill="none" stroke="midnightblue" d="M387.83,-276.47C406.15,-266.24 431.56,-252.9 455,-243.5 461.75,-240.79 469.01,-238.27 476.19,-235.99"/>
<polygon fill="midnightblue" stroke="midnightblue" points="477.32,-239.3 485.86,-233.04 475.28,-232.61 477.32,-239.3"/>
</g>
<!-- Node10&#45;&gt;Node4 -->
<g id="edge10" class="edge">
<title>Node10&#45;&gt;Node4</title>
<path fill="none" stroke="midnightblue" d="M566.98,-233.1C575.82,-235.87 584.92,-239.31 593,-243.5 618.9,-256.93 644.59,-278.15 662.21,-294.26"/>
<polygon fill="midnightblue" stroke="midnightblue" points="660.01,-297 669.71,-301.26 664.78,-291.88 660.01,-297"/>
</g>
<!-- Node13&#45;&gt;Node4 -->
<g id="edge19" class="edge">
<title>Node13&#45;&gt;Node4</title>
<path fill="none" stroke="midnightblue" d="M414.59,-127.56C473.58,-134.08 564.7,-146.95 593,-166.5 637.65,-197.34 664.63,-257.6 676.97,-291.6"/>
<polygon fill="midnightblue" stroke="midnightblue" points="673.73,-292.96 680.33,-301.25 680.34,-290.66 673.73,-292.96"/>
</g>
<!-- Node13&#45;&gt;Node12 -->
<g id="edge16" class="edge">
<title>Node13&#45;&gt;Node12</title>
<path fill="none" stroke="midnightblue" d="M396.7,-137.61C414.1,-145.05 435.56,-154 455,-161.5 464.72,-165.25 475.31,-169.1 485.18,-172.59"/>
<polygon fill="midnightblue" stroke="midnightblue" points="484.15,-175.94 494.74,-175.94 486.46,-169.33 484.15,-175.94"/>
</g>
<!-- Node14 -->
<g id="node14" class="node">
<title>Node14</title>
<g id="a_node14"><a xlink:href="namespaceparser__module.html#ad490bd346a873a280de4d7d6f343d588" target="_top" xlink:title="Function to define constants.">
<polygon fill="white" stroke="black" points="463,-88.5 463,-118.5 585,-118.5 585,-88.5 463,-88.5"/>
<text text-anchor="start" x="471" y="-106.5" font-family="Helvetica,sans-Serif" font-size="10.00">parser_module::common</text>
<text text-anchor="middle" x="524" y="-95.5" font-family="Helvetica,sans-Serif" font-size="10.00">_variables</text>
</a>
</g>
</g>
<!-- Node13&#45;&gt;Node14 -->
<g id="edge15" class="edge">
<title>Node13&#45;&gt;Node14</title>
<path fill="none" stroke="midnightblue" d="M414.72,-116.28C426.87,-114.84 439.99,-113.3 452.77,-111.79"/>
<polygon fill="midnightblue" stroke="midnightblue" points="453.39,-115.24 462.91,-110.59 452.57,-108.29 453.39,-115.24"/>
</g>
<!-- Node15 -->
<g id="node15" class="node">
<title>Node15</title>
<g id="a_node15"><a xlink:href="namespaceparser__module.html#a7d1134a2461b12dc17514a1970d6b00b" target="_top" xlink:title="Function to decide whether a character can be associated with a number.">
<polygon fill="white" stroke="black" points="455,-50 455,-69 593,-69 593,-50 455,-50"/>
<text text-anchor="middle" x="524" y="-57" font-family="Helvetica,sans-Serif" font-size="10.00">parser_module::is_separator</text>
</a>
</g>
</g>
<!-- Node13&#45;&gt;Node15 -->
<g id="edge17" class="edge">
<title>Node13&#45;&gt;Node15</title>
<path fill="none" stroke="midnightblue" d="M390.77,-107.33C408.88,-98.18 432.91,-86.74 455,-78.5 461.33,-76.14 468.08,-73.91 474.78,-71.88"/>
<polygon fill="midnightblue" stroke="midnightblue" points="475.9,-75.2 484.51,-69.03 473.93,-68.48 475.9,-75.2"/>
</g>
<!-- Node16 -->
<g id="node16" class="node">
<title>Node16</title>
<g id="a_node16"><a xlink:href="namespaceparser__module.html#afbaa22752e33bc2ac2a3437adb34ea52" target="_top" xlink:title="Subroutine to check the parsing string for consistency and correct it.">
<polygon fill="white" stroke="black" points="469.5,-0.5 469.5,-30.5 578.5,-30.5 578.5,-0.5 469.5,-0.5"/>
<text text-anchor="start" x="477.5" y="-18.5" font-family="Helvetica,sans-Serif" font-size="10.00">parser_module::make</text>
<text text-anchor="middle" x="524" y="-7.5" font-family="Helvetica,sans-Serif" font-size="10.00">_pars_str_consistent</text>
</a>
</g>
</g>
<!-- Node13&#45;&gt;Node16 -->
<g id="edge18" class="edge">
<title>Node13&#45;&gt;Node16</title>
<path fill="none" stroke="midnightblue" d="M375.79,-107.3C392.87,-89.25 423.57,-59.23 455,-40.5 458.43,-38.46 462.05,-36.54 465.76,-34.74"/>
<polygon fill="midnightblue" stroke="midnightblue" points="467.45,-37.82 475.14,-30.53 464.58,-31.44 467.45,-37.82"/>
</g>
</g>
</svg>
