<?xml version="1.0" encoding="UTF-8" standalone="no"?>
<!DOCTYPE svg PUBLIC "-//W3C//DTD SVG 1.1//EN"
 "http://www.w3.org/Graphics/SVG/1.1/DTD/svg11.dtd">
<!-- Generated by graphviz version 2.44.0 ()
 -->
<!-- Title: timestep_module::restrict_timestep Pages: 1 -->
<svg width="1231pt" height="713pt"
 viewBox="0.00 0.00 1231.00 712.57" xmlns="http://www.w3.org/2000/svg" xmlns:xlink="http://www.w3.org/1999/xlink">
<g id="graph0" class="graph" transform="scale(1 1) rotate(0) translate(4 708.57)">
<title>timestep_module::restrict_timestep</title>
<polygon fill="white" stroke="transparent" points="-4,4 -4,-708.57 1227,-708.57 1227,4 -4,4"/>
<!-- Node1 -->
<g id="node1" class="node">
<title>Node1</title>
<g id="a_node1"><a xlink:title="Restricting the previously selected timestep.">
<polygon fill="#bfbfbf" stroke="black" points="0,-172 0,-202 125,-202 125,-172 0,-172"/>
<text text-anchor="start" x="8" y="-190" font-family="Helvetica,sans-Serif" font-size="10.00">timestep_module::restrict</text>
<text text-anchor="middle" x="62.5" y="-179" font-family="Helvetica,sans-Serif" font-size="10.00">_timestep</text>
</a>
</g>
</g>
<!-- Node2 -->
<g id="node2" class="node">
<title>Node2</title>
<g id="a_node2"><a xlink:href="namespaceparser__module.html#aeb3f9da839f12180d2a21cae271f4de6" target="_top" xlink:title="Finds a value of the variable for a given y&#45;value.">
<polygon fill="white" stroke="black" points="177.5,-364 177.5,-394 277.5,-394 277.5,-364 177.5,-364"/>
<text text-anchor="start" x="185.5" y="-382" font-family="Helvetica,sans-Serif" font-size="10.00">parser_module::find</text>
<text text-anchor="middle" x="227.5" y="-371" font-family="Helvetica,sans-Serif" font-size="10.00">_start_value</text>
</a>
</g>
</g>
<!-- Node1&#45;&gt;Node2 -->
<g id="edge1" class="edge">
<title>Node1&#45;&gt;Node2</title>
<path fill="none" stroke="midnightblue" d="M76.29,-202.07C104.67,-235.49 173.05,-316.04 206.88,-355.89"/>
<polygon fill="midnightblue" stroke="midnightblue" points="204.4,-358.38 213.54,-363.74 209.74,-353.85 204.4,-358.38"/>
</g>
<!-- Node19 -->
<g id="node19" class="node">
<title>Node19</title>
<g id="a_node19"><a xlink:href="namespacegear__module.html#a01b3c050b4c0d3256659848dc76a0ecb" target="_top" xlink:title="The current timestep.">
<polygon fill="white" stroke="black" points="161,-215.5 161,-234.5 294,-234.5 294,-215.5 161,-215.5"/>
<text text-anchor="middle" x="227.5" y="-222.5" font-family="Helvetica,sans-Serif" font-size="10.00">gear_module::get_timestep</text>
</a>
</g>
</g>
<!-- Node1&#45;&gt;Node19 -->
<g id="edge22" class="edge">
<title>Node1&#45;&gt;Node19</title>
<path fill="none" stroke="midnightblue" d="M125.12,-201.37C141.69,-205.23 159.42,-209.36 175.35,-213.08"/>
<polygon fill="midnightblue" stroke="midnightblue" points="174.99,-216.59 185.53,-215.45 176.58,-209.77 174.99,-216.59"/>
</g>
<!-- Node20 -->
<g id="node20" class="node">
<title>Node20</title>
<g id="a_node20"><a xlink:href="namespaceinter__module.html#a206d3ceb40bd2e40d41c462a31ad057e" target="_top" xlink:title="Interface for 1D interpolation routines.">
<polygon fill="white" stroke="black" points="330,-133.5 330,-152.5 441,-152.5 441,-133.5 330,-133.5"/>
<text text-anchor="middle" x="385.5" y="-140.5" font-family="Helvetica,sans-Serif" font-size="10.00">inter_module::interp1d</text>
</a>
</g>
</g>
<!-- Node1&#45;&gt;Node20 -->
<g id="edge23" class="edge">
<title>Node1&#45;&gt;Node20</title>
<path fill="none" stroke="midnightblue" d="M125.02,-184.55C171.67,-182 237.22,-176.92 294,-167 310.55,-164.11 328.49,-159.64 344,-155.34"/>
<polygon fill="midnightblue" stroke="midnightblue" points="345.14,-158.65 353.8,-152.56 343.22,-151.92 345.14,-158.65"/>
</g>
<!-- Node27 -->
<g id="node27" class="node">
<title>Node27</title>
<g id="a_node27"><a xlink:href="namespaceinter__module.html#ae35af47f2c3989d78abd0f6ae6cd180c" target="_top" xlink:title="The inverse of the 1D interpolation function.">
<polygon fill="white" stroke="black" points="173.5,-128 173.5,-158 281.5,-158 281.5,-128 173.5,-128"/>
<text text-anchor="start" x="181.5" y="-146" font-family="Helvetica,sans-Serif" font-size="10.00">inter_module::inverse</text>
<text text-anchor="middle" x="227.5" y="-135" font-family="Helvetica,sans-Serif" font-size="10.00">_interp1d</text>
</a>
</g>
</g>
<!-- Node1&#45;&gt;Node27 -->
<g id="edge32" class="edge">
<title>Node1&#45;&gt;Node27</title>
<path fill="none" stroke="midnightblue" d="M119.14,-171.98C133.38,-168.14 148.79,-163.98 163.37,-160.04"/>
<polygon fill="midnightblue" stroke="midnightblue" points="164.57,-163.34 173.31,-157.36 162.75,-156.58 164.57,-163.34"/>
</g>
<!-- Node28 -->
<g id="node28" class="node">
<title>Node28</title>
<g id="a_node28"><a xlink:href="namespacegear__module.html#a292bc71ee0e40cc9722331071387a16e" target="_top" xlink:title="Set the current timestep.">
<polygon fill="white" stroke="black" points="161,-89.5 161,-108.5 294,-108.5 294,-89.5 161,-89.5"/>
<text text-anchor="middle" x="227.5" y="-96.5" font-family="Helvetica,sans-Serif" font-size="10.00">gear_module::set_timestep</text>
</a>
</g>
</g>
<!-- Node1&#45;&gt;Node28 -->
<g id="edge34" class="edge">
<title>Node1&#45;&gt;Node28</title>
<path fill="none" stroke="midnightblue" d="M81.04,-171.82C99.73,-156.34 130.74,-132.58 161,-118 165.68,-115.74 170.68,-113.7 175.75,-111.87"/>
<polygon fill="midnightblue" stroke="midnightblue" points="177.16,-115.09 185.53,-108.6 174.94,-108.45 177.16,-115.09"/>
</g>
<!-- Node3 -->
<g id="node3" class="node">
<title>Node3</title>
<g id="a_node3"><a xlink:href="namespaceparser__module.html#a4b68bd8515796701c2b006fe79a0b162" target="_top" xlink:title="Takes a string and evaluates the expression.">
<polygon fill="white" stroke="black" points="331,-419 331,-449 440,-449 440,-419 331,-419"/>
<text text-anchor="start" x="339" y="-437" font-family="Helvetica,sans-Serif" font-size="10.00">parser_module::parse</text>
<text text-anchor="middle" x="385.5" y="-426" font-family="Helvetica,sans-Serif" font-size="10.00">_string</text>
</a>
</g>
</g>
<!-- Node2&#45;&gt;Node3 -->
<g id="edge2" class="edge">
<title>Node2&#45;&gt;Node3</title>
<path fill="none" stroke="midnightblue" d="M271.13,-394.03C290.04,-400.7 312.48,-408.61 332.38,-415.63"/>
<polygon fill="midnightblue" stroke="midnightblue" points="331.33,-418.96 341.92,-418.99 333.66,-412.36 331.33,-418.96"/>
</g>
<!-- Node4 -->
<g id="node4" class="node">
<title>Node4</title>
<g id="a_node4"><a xlink:href="namespaceparser__module.html#a5c583c26539a886921a9067fa425bc9c" target="_top" xlink:title="Evaluate a complex string expression.">
<polygon fill="white" stroke="black" points="481,-461.5 481,-480.5 603,-480.5 603,-461.5 481,-461.5"/>
<text text-anchor="middle" x="542" y="-468.5" font-family="Helvetica,sans-Serif" font-size="10.00">parser_module::evaluate</text>
</a>
</g>
</g>
<!-- Node3&#45;&gt;Node4 -->
<g id="edge3" class="edge">
<title>Node3&#45;&gt;Node4</title>
<path fill="none" stroke="midnightblue" d="M440.1,-446.84C456.7,-450.81 474.92,-455.17 491.24,-459.08"/>
<polygon fill="midnightblue" stroke="midnightblue" points="490.6,-462.53 501.14,-461.45 492.23,-455.72 490.6,-462.53"/>
</g>
<!-- Node5 -->
<g id="node5" class="node">
<title>Node5</title>
<g id="a_node5"><a xlink:href="namespaceparser__module.html#ad50643e6694300972743edc44679fbf7" target="_top" xlink:title="Function to perform a function operations.">
<polygon fill="white" stroke="black" points="649.5,-657 649.5,-687 752.5,-687 752.5,-657 649.5,-657"/>
<text text-anchor="start" x="657.5" y="-675" font-family="Helvetica,sans-Serif" font-size="10.00">parser_module::eval</text>
<text text-anchor="middle" x="701" y="-664" font-family="Helvetica,sans-Serif" font-size="10.00">_function</text>
</a>
</g>
</g>
<!-- Node4&#45;&gt;Node5 -->
<g id="edge4" class="edge">
<title>Node4&#45;&gt;Node5</title>
<path fill="none" stroke="midnightblue" d="M550.57,-480.69C574.29,-511.06 647.59,-604.9 681.92,-648.85"/>
<polygon fill="midnightblue" stroke="midnightblue" points="679.32,-651.21 688.24,-656.94 684.84,-646.91 679.32,-651.21"/>
</g>
<!-- Node8 -->
<g id="node8" class="node">
<title>Node8</title>
<g id="a_node8"><a xlink:href="namespaceparser__module.html#ae4ed3c6a08e74ffd03282ee7c30d8194" target="_top" xlink:title="Evaluate a simple string expression, without brackets and functions.">
<polygon fill="white" stroke="black" points="652,-543 652,-573 750,-573 750,-543 652,-543"/>
<text text-anchor="start" x="660" y="-561" font-family="Helvetica,sans-Serif" font-size="10.00">parser_module::get</text>
<text text-anchor="middle" x="701" y="-550" font-family="Helvetica,sans-Serif" font-size="10.00">_simple_result</text>
</a>
</g>
</g>
<!-- Node4&#45;&gt;Node8 -->
<g id="edge7" class="edge">
<title>Node4&#45;&gt;Node8</title>
<path fill="none" stroke="midnightblue" d="M560.4,-480.64C585.29,-494.43 631.61,-520.1 664.05,-538.08"/>
<polygon fill="midnightblue" stroke="midnightblue" points="662.35,-541.14 672.8,-542.93 665.75,-535.02 662.35,-541.14"/>
</g>
<!-- Node13 -->
<g id="node13" class="node">
<title>Node13</title>
<g id="a_node13"><a xlink:href="namespaceparser__module.html#a4b73870fbca7e3195b5d1efc61c3f039" target="_top" xlink:title="Function to decide whether a character is a number or not (i.e., 0&#45;9).">
<polygon fill="white" stroke="black" points="643,-480.5 643,-499.5 759,-499.5 759,-480.5 643,-480.5"/>
<text text-anchor="middle" x="701" y="-487.5" font-family="Helvetica,sans-Serif" font-size="10.00">parser_module::is_digit</text>
</a>
</g>
</g>
<!-- Node4&#45;&gt;Node13 -->
<g id="edge14" class="edge">
<title>Node4&#45;&gt;Node13</title>
<path fill="none" stroke="midnightblue" d="M603.25,-478.29C612.88,-479.46 622.89,-480.67 632.67,-481.85"/>
<polygon fill="midnightblue" stroke="midnightblue" points="632.4,-485.34 642.75,-483.07 633.24,-478.4 632.4,-485.34"/>
</g>
<!-- Node14 -->
<g id="node14" class="node">
<title>Node14</title>
<g id="a_node14"><a xlink:href="namespaceparser__module.html#af9cbf87119ef07db357b3240c716e462" target="_top" xlink:title="Function to decide whether a character is a mathematical operator or not. Functions (as e....">
<polygon fill="white" stroke="black" points="797.5,-442.5 797.5,-461.5 930.5,-461.5 930.5,-442.5 797.5,-442.5"/>
<text text-anchor="middle" x="864" y="-449.5" font-family="Helvetica,sans-Serif" font-size="10.00">parser_module::is_operator</text>
</a>
</g>
</g>
<!-- Node4&#45;&gt;Node14 -->
<g id="edge15" class="edge">
<title>Node4&#45;&gt;Node14</title>
<path fill="none" stroke="midnightblue" d="M603.19,-467.43C655.26,-464.33 730.81,-459.85 787.03,-456.51"/>
<polygon fill="midnightblue" stroke="midnightblue" points="787.52,-459.99 797.29,-455.9 787.1,-453 787.52,-459.99"/>
</g>
<!-- Node15 -->
<g id="node15" class="node">
<title>Node15</title>
<g id="a_node15"><a xlink:href="namespaceparser__module.html#a3441e2e009e491fac044cc02bc9b144d" target="_top" xlink:title="Store mathematical operators (+&#45;*/) and numbers in arrays.">
<polygon fill="white" stroke="black" points="647.5,-374 647.5,-404 754.5,-404 754.5,-374 647.5,-374"/>
<text text-anchor="start" x="655.5" y="-392" font-family="Helvetica,sans-Serif" font-size="10.00">parser_module::store</text>
<text text-anchor="middle" x="701" y="-381" font-family="Helvetica,sans-Serif" font-size="10.00">_digits_operator</text>
</a>
</g>
</g>
<!-- Node4&#45;&gt;Node15 -->
<g id="edge16" class="edge">
<title>Node4&#45;&gt;Node15</title>
<path fill="none" stroke="midnightblue" d="M561.32,-461.43C585.91,-448.59 630.19,-425.46 662.1,-408.79"/>
<polygon fill="midnightblue" stroke="midnightblue" points="663.92,-411.79 671.17,-404.06 660.68,-405.59 663.92,-411.79"/>
</g>
<!-- Node6 -->
<g id="node6" class="node">
<title>Node6</title>
<g id="a_node6"><a xlink:href="namespaceerror__msg__class.html#a2453d3b7cb363115c046840baa1dfb75" target="_top" xlink:title="Raise a exception with a given error message.">
<polygon fill="white" stroke="black" points="969,-437 969,-467 1083,-467 1083,-437 969,-437"/>
<text text-anchor="start" x="977" y="-455" font-family="Helvetica,sans-Serif" font-size="10.00">error_msg_class::raise</text>
<text text-anchor="middle" x="1026" y="-444" font-family="Helvetica,sans-Serif" font-size="10.00">_exception</text>
</a>
</g>
</g>
<!-- Node5&#45;&gt;Node6 -->
<g id="edge5" class="edge">
<title>Node5&#45;&gt;Node6</title>
<path fill="none" stroke="midnightblue" d="M742.68,-687.03C792.17,-702.51 876.14,-719.43 933,-681 1001.97,-634.38 1019.24,-526.61 1023.56,-477.37"/>
<polygon fill="midnightblue" stroke="midnightblue" points="1027.06,-477.49 1024.34,-467.25 1020.08,-476.95 1027.06,-477.49"/>
</g>
<!-- Node7 -->
<g id="node7" class="node">
<title>Node7</title>
<g id="a_node7"><a xlink:href="namespaceerror__msg__class.html#a7e065585cc806a5c264de1f088266498" target="_top" xlink:title="Converts a given integer to a string.">
<polygon fill="white" stroke="black" points="1119,-292 1119,-322 1223,-322 1223,-292 1119,-292"/>
<text text-anchor="start" x="1127" y="-310" font-family="Helvetica,sans-Serif" font-size="10.00">error_msg_class::int</text>
<text text-anchor="middle" x="1171" y="-299" font-family="Helvetica,sans-Serif" font-size="10.00">_to_str</text>
</a>
</g>
</g>
<!-- Node6&#45;&gt;Node7 -->
<g id="edge6" class="edge">
<title>Node6&#45;&gt;Node7</title>
<path fill="none" stroke="midnightblue" d="M1042.03,-436.76C1067.31,-411.13 1118.44,-359.28 1147.84,-329.47"/>
<polygon fill="midnightblue" stroke="midnightblue" points="1150.64,-331.62 1155.17,-322.04 1145.65,-326.7 1150.64,-331.62"/>
</g>
<!-- Node8&#45;&gt;Node6 -->
<g id="edge13" class="edge">
<title>Node8&#45;&gt;Node6</title>
<path fill="none" stroke="midnightblue" d="M710.71,-573.38C724.89,-596.64 755.39,-639.86 795,-657 851.29,-681.35 881.51,-690.33 933,-657 995.47,-616.56 1015.93,-522.55 1022.29,-477.27"/>
<polygon fill="midnightblue" stroke="midnightblue" points="1025.79,-477.48 1023.6,-467.12 1018.85,-476.59 1025.79,-477.48"/>
</g>
<!-- Node9 -->
<g id="node9" class="node">
<title>Node9</title>
<g id="a_node9"><a xlink:href="namespaceparser__module.html#a2cfd49c431619a7d7ded68e9f89bee70" target="_top" xlink:title="Function to decide whether a character is &quot;*&quot; or &quot;/&quot;.">
<polygon fill="white" stroke="black" points="808.5,-617 808.5,-647 919.5,-647 919.5,-617 808.5,-617"/>
<text text-anchor="start" x="816.5" y="-635" font-family="Helvetica,sans-Serif" font-size="10.00">parser_module::is_dot</text>
<text text-anchor="middle" x="864" y="-624" font-family="Helvetica,sans-Serif" font-size="10.00">_operator</text>
</a>
</g>
</g>
<!-- Node8&#45;&gt;Node9 -->
<g id="edge8" class="edge">
<title>Node8&#45;&gt;Node9</title>
<path fill="none" stroke="midnightblue" d="M727.52,-573.1C745.91,-583.64 771.53,-597.62 795,-608 799.1,-609.81 803.39,-611.59 807.73,-613.31"/>
<polygon fill="midnightblue" stroke="midnightblue" points="806.67,-616.65 817.26,-616.95 809.17,-610.11 806.67,-616.65"/>
</g>
<!-- Node10 -->
<g id="node10" class="node">
<title>Node10</title>
<g id="a_node10"><a xlink:href="namespaceparser__module.html#ae2806c52d9868da3855d28c188a1679e" target="_top" xlink:title="Function to decide whether a character is a &quot;+&quot; or &quot;&#45;&quot;.">
<polygon fill="white" stroke="black" points="807.5,-568 807.5,-598 920.5,-598 920.5,-568 807.5,-568"/>
<text text-anchor="start" x="815.5" y="-586" font-family="Helvetica,sans-Serif" font-size="10.00">parser_module::is_line</text>
<text text-anchor="middle" x="864" y="-575" font-family="Helvetica,sans-Serif" font-size="10.00">_operator</text>
</a>
</g>
</g>
<!-- Node8&#45;&gt;Node10 -->
<g id="edge9" class="edge">
<title>Node8&#45;&gt;Node10</title>
<path fill="none" stroke="midnightblue" d="M750.31,-565.5C765.05,-567.79 781.51,-570.35 797.2,-572.78"/>
<polygon fill="midnightblue" stroke="midnightblue" points="796.96,-576.29 807.38,-574.36 798.03,-569.37 796.96,-576.29"/>
</g>
<!-- Node11 -->
<g id="node11" class="node">
<title>Node11</title>
<g id="a_node11"><a xlink:href="namespaceparser__module.html#a55c1c7aac46e95ec6634aa8a514a90b0" target="_top" xlink:title="Function to decide whether a character is a &quot;^&quot;.">
<polygon fill="white" stroke="black" points="802,-519 802,-549 926,-549 926,-519 802,-519"/>
<text text-anchor="start" x="810" y="-537" font-family="Helvetica,sans-Serif" font-size="10.00">parser_module::is_power</text>
<text text-anchor="middle" x="864" y="-526" font-family="Helvetica,sans-Serif" font-size="10.00">_operator</text>
</a>
</g>
</g>
<!-- Node8&#45;&gt;Node11 -->
<g id="edge10" class="edge">
<title>Node8&#45;&gt;Node11</title>
<path fill="none" stroke="midnightblue" d="M750.31,-550.8C763.35,-548.85 777.74,-546.71 791.76,-544.62"/>
<polygon fill="midnightblue" stroke="midnightblue" points="792.49,-548.05 801.87,-543.11 791.46,-541.13 792.49,-548.05"/>
</g>
<!-- Node12 -->
<g id="node12" class="node">
<title>Node12</title>
<g id="a_node12"><a xlink:href="namespaceparser__module.html#a2040007bd269f7920bcfee6840eb41de" target="_top" xlink:title="Function to perform a simple mathematical operation.">
<polygon fill="white" stroke="black" points="801.5,-480.5 801.5,-499.5 926.5,-499.5 926.5,-480.5 801.5,-480.5"/>
<text text-anchor="middle" x="864" y="-487.5" font-family="Helvetica,sans-Serif" font-size="10.00">parser_module::operation</text>
</a>
</g>
</g>
<!-- Node8&#45;&gt;Node12 -->
<g id="edge11" class="edge">
<title>Node8&#45;&gt;Node12</title>
<path fill="none" stroke="midnightblue" d="M727.83,-542.97C746.15,-532.74 771.56,-519.4 795,-510 801.75,-507.29 809.01,-504.77 816.19,-502.49"/>
<polygon fill="midnightblue" stroke="midnightblue" points="817.32,-505.8 825.86,-499.54 815.28,-499.11 817.32,-505.8"/>
</g>
<!-- Node12&#45;&gt;Node6 -->
<g id="edge12" class="edge">
<title>Node12&#45;&gt;Node6</title>
<path fill="none" stroke="midnightblue" d="M905.37,-480.41C921.62,-476.55 940.79,-472 958.96,-467.68"/>
<polygon fill="midnightblue" stroke="midnightblue" points="960.01,-471.03 968.93,-465.32 958.39,-464.22 960.01,-471.03"/>
</g>
<!-- Node15&#45;&gt;Node6 -->
<g id="edge21" class="edge">
<title>Node15&#45;&gt;Node6</title>
<path fill="none" stroke="midnightblue" d="M754.8,-398.82C801.65,-407.59 871.93,-420.88 933,-433 941.28,-434.64 949.97,-436.4 958.57,-438.15"/>
<polygon fill="midnightblue" stroke="midnightblue" points="958.09,-441.63 968.59,-440.21 959.5,-434.77 958.09,-441.63"/>
</g>
<!-- Node15&#45;&gt;Node14 -->
<g id="edge18" class="edge">
<title>Node15&#45;&gt;Node14</title>
<path fill="none" stroke="midnightblue" d="M736.7,-404.11C754.1,-411.55 775.56,-420.5 795,-428 804.72,-431.75 815.31,-435.6 825.18,-439.09"/>
<polygon fill="midnightblue" stroke="midnightblue" points="824.15,-442.44 834.74,-442.44 826.46,-435.83 824.15,-442.44"/>
</g>
<!-- Node16 -->
<g id="node16" class="node">
<title>Node16</title>
<g id="a_node16"><a xlink:href="namespaceparser__module.html#ad490bd346a873a280de4d7d6f343d588" target="_top" xlink:title="Function to define constants.">
<polygon fill="white" stroke="black" points="803,-355 803,-385 925,-385 925,-355 803,-355"/>
<text text-anchor="start" x="811" y="-373" font-family="Helvetica,sans-Serif" font-size="10.00">parser_module::common</text>
<text text-anchor="middle" x="864" y="-362" font-family="Helvetica,sans-Serif" font-size="10.00">_variables</text>
</a>
</g>
</g>
<!-- Node15&#45;&gt;Node16 -->
<g id="edge17" class="edge">
<title>Node15&#45;&gt;Node16</title>
<path fill="none" stroke="midnightblue" d="M754.72,-382.78C766.87,-381.34 779.99,-379.8 792.77,-378.29"/>
<polygon fill="midnightblue" stroke="midnightblue" points="793.39,-381.74 802.91,-377.09 792.57,-374.79 793.39,-381.74"/>
</g>
<!-- Node17 -->
<g id="node17" class="node">
<title>Node17</title>
<g id="a_node17"><a xlink:href="namespaceparser__module.html#a7d1134a2461b12dc17514a1970d6b00b" target="_top" xlink:title="Function to decide whether a character can be associated with a number.">
<polygon fill="white" stroke="black" points="795,-316.5 795,-335.5 933,-335.5 933,-316.5 795,-316.5"/>
<text text-anchor="middle" x="864" y="-323.5" font-family="Helvetica,sans-Serif" font-size="10.00">parser_module::is_separator</text>
</a>
</g>
</g>
<!-- Node15&#45;&gt;Node17 -->
<g id="edge19" class="edge">
<title>Node15&#45;&gt;Node17</title>
<path fill="none" stroke="midnightblue" d="M730.77,-373.83C748.88,-364.68 772.91,-353.24 795,-345 801.33,-342.64 808.08,-340.41 814.78,-338.38"/>
<polygon fill="midnightblue" stroke="midnightblue" points="815.9,-341.7 824.51,-335.53 813.93,-334.98 815.9,-341.7"/>
</g>
<!-- Node18 -->
<g id="node18" class="node">
<title>Node18</title>
<g id="a_node18"><a xlink:href="namespaceparser__module.html#afbaa22752e33bc2ac2a3437adb34ea52" target="_top" xlink:title="Subroutine to check the parsing string for consistency and correct it.">
<polygon fill="white" stroke="black" points="809.5,-267 809.5,-297 918.5,-297 918.5,-267 809.5,-267"/>
<text text-anchor="start" x="817.5" y="-285" font-family="Helvetica,sans-Serif" font-size="10.00">parser_module::make</text>
<text text-anchor="middle" x="864" y="-274" font-family="Helvetica,sans-Serif" font-size="10.00">_pars_str_consistent</text>
</a>
</g>
</g>
<!-- Node15&#45;&gt;Node18 -->
<g id="edge20" class="edge">
<title>Node15&#45;&gt;Node18</title>
<path fill="none" stroke="midnightblue" d="M715.79,-373.8C732.87,-355.75 763.57,-325.73 795,-307 798.43,-304.96 802.05,-303.04 805.76,-301.24"/>
<polygon fill="midnightblue" stroke="midnightblue" points="807.45,-304.32 815.14,-297.03 804.58,-297.94 807.45,-304.32"/>
</g>
<!-- Node20&#45;&gt;Node6 -->
<g id="edge31" class="edge">
<title>Node20&#45;&gt;Node6</title>
<path fill="none" stroke="midnightblue" d="M395.12,-152.68C410.01,-168.66 442.31,-200.16 477,-214 571.54,-251.72 849.69,-198.53 933,-257 990.76,-297.54 1013.34,-384.12 1021.23,-426.95"/>
<polygon fill="midnightblue" stroke="midnightblue" points="1017.79,-427.58 1022.94,-436.84 1024.69,-426.39 1017.79,-427.58"/>
</g>
<!-- Node20&#45;&gt;Node7 -->
<g id="edge26" class="edge">
<title>Node20&#45;&gt;Node7</title>
<path fill="none" stroke="midnightblue" d="M404.64,-152.61C422.51,-161.6 450.86,-174.57 477,-181 573.59,-204.77 600.53,-200 700,-200 700,-200 700,-200 865,-200 968.71,-200 1081.63,-255.76 1136.42,-286.78"/>
<polygon fill="midnightblue" stroke="midnightblue" points="1134.91,-289.95 1145.33,-291.9 1138.4,-283.88 1134.91,-289.95"/>
</g>
<!-- Node21 -->
<g id="node21" class="node">
<title>Node21</title>
<g id="a_node21"><a xlink:href="namespaceinter__module.html#a0f02e3fce3429d031516cf2f47f521de" target="_top" xlink:title="Interpolation using prescription of Akima.">
<polygon fill="white" stroke="black" points="481,-152.5 481,-171.5 603,-171.5 603,-152.5 481,-152.5"/>
<text text-anchor="middle" x="542" y="-159.5" font-family="Helvetica,sans-Serif" font-size="10.00">inter_module::akimainter</text>
</a>
</g>
</g>
<!-- Node20&#45;&gt;Node21 -->
<g id="edge24" class="edge">
<title>Node20&#45;&gt;Node21</title>
<path fill="none" stroke="midnightblue" d="M441.41,-149.75C450.87,-150.92 460.82,-152.14 470.62,-153.35"/>
<polygon fill="midnightblue" stroke="midnightblue" points="470.41,-156.84 480.76,-154.59 471.26,-149.9 470.41,-156.84"/>
</g>
<!-- Node22 -->
<g id="node22" class="node">
<title>Node22</title>
<g id="a_node22"><a xlink:href="namespaceinter__module.html#a5a696cd56302b2491c59781808af4c08" target="_top" xlink:title="Cubic interpolation in log&#45;log space. Here, it is assumed that.">
<polygon fill="white" stroke="black" points="486.5,-114.5 486.5,-133.5 597.5,-133.5 597.5,-114.5 486.5,-114.5"/>
<text text-anchor="middle" x="542" y="-121.5" font-family="Helvetica,sans-Serif" font-size="10.00">inter_module::cubinter</text>
</a>
</g>
</g>
<!-- Node20&#45;&gt;Node22 -->
<g id="edge25" class="edge">
<title>Node20&#45;&gt;Node22</title>
<path fill="none" stroke="midnightblue" d="M441.41,-136.25C452.68,-134.86 464.64,-133.39 476.22,-131.97"/>
<polygon fill="midnightblue" stroke="midnightblue" points="476.77,-135.42 486.27,-130.73 475.92,-128.48 476.77,-135.42"/>
</g>
<!-- Node23 -->
<g id="node23" class="node">
<title>Node23</title>
<g id="a_node23"><a xlink:href="namespaceinter__module.html#ac57284b6bef315c7066a880358ae0862" target="_top" xlink:title="Linear interpolation in lin&#45;log space.">
<polygon fill="white" stroke="black" points="489.5,-76.5 489.5,-95.5 594.5,-95.5 594.5,-76.5 489.5,-76.5"/>
<text text-anchor="middle" x="542" y="-83.5" font-family="Helvetica,sans-Serif" font-size="10.00">inter_module::lininter</text>
</a>
</g>
</g>
<!-- Node20&#45;&gt;Node23 -->
<g id="edge27" class="edge">
<title>Node20&#45;&gt;Node23</title>
<path fill="none" stroke="midnightblue" d="M407.46,-133.43C425.64,-125.32 452.77,-113.66 477,-105 483.31,-102.75 490.03,-100.54 496.65,-98.48"/>
<polygon fill="midnightblue" stroke="midnightblue" points="497.68,-101.83 506.23,-95.57 495.65,-95.13 497.68,-101.83"/>
</g>
<!-- Node24 -->
<g id="node24" class="node">
<title>Node24</title>
<g id="a_node24"><a xlink:href="namespaceinter__module.html#a338de641fc764e51a6ce814e25e70ef2" target="_top" xlink:title="Interpolation using modified prescription of Akima.">
<polygon fill="white" stroke="black" points="477,-38.5 477,-57.5 607,-57.5 607,-38.5 477,-38.5"/>
<text text-anchor="middle" x="542" y="-45.5" font-family="Helvetica,sans-Serif" font-size="10.00">inter_module::makimainter</text>
</a>
</g>
</g>
<!-- Node20&#45;&gt;Node24 -->
<g id="edge28" class="edge">
<title>Node20&#45;&gt;Node24</title>
<path fill="none" stroke="midnightblue" d="M395.32,-133.37C410.5,-117.35 443.21,-85.18 477,-67 481.18,-64.75 485.66,-62.73 490.24,-60.93"/>
<polygon fill="midnightblue" stroke="midnightblue" points="491.48,-64.21 499.72,-57.54 489.12,-57.62 491.48,-64.21"/>
</g>
<!-- Node25 -->
<g id="node25" class="node">
<title>Node25</title>
<g id="a_node25"><a xlink:href="namespaceinter__module.html#a4b1d9613e140541539a602d2f985b5c7" target="_top" xlink:title="PCHIP interpolation in lin&#45;log space.">
<polygon fill="white" stroke="black" points="482.5,-0.5 482.5,-19.5 601.5,-19.5 601.5,-0.5 482.5,-0.5"/>
<text text-anchor="middle" x="542" y="-7.5" font-family="Helvetica,sans-Serif" font-size="10.00">inter_module::pchipinter</text>
</a>
</g>
</g>
<!-- Node20&#45;&gt;Node25 -->
<g id="edge29" class="edge">
<title>Node20&#45;&gt;Node25</title>
<path fill="none" stroke="midnightblue" d="M391.41,-133.41C403.13,-111.5 434.91,-57.44 477,-29 480.06,-26.93 483.35,-25.08 486.77,-23.43"/>
<polygon fill="midnightblue" stroke="midnightblue" points="488.19,-26.63 496.03,-19.51 485.46,-20.19 488.19,-26.63"/>
</g>
<!-- Node26 -->
<g id="node26" class="node">
<title>Node26</title>
<g id="a_node26"><a xlink:href="quadpack__module_8f90.html#aada5a652920db442d627f1ca24ff25d7" target="_top" xlink:title="Further information: http://netlib.org/quadpack/index.html https://orion.math.iastate....">
<polygon fill="white" stroke="black" points="686.5,-0.5 686.5,-19.5 715.5,-19.5 715.5,-0.5 686.5,-0.5"/>
<text text-anchor="middle" x="701" y="-7.5" font-family="Helvetica,sans-Serif" font-size="10.00">pi</text>
</a>
</g>
</g>
<!-- Node25&#45;&gt;Node26 -->
<g id="edge30" class="edge">
<title>Node25&#45;&gt;Node26</title>
<path fill="none" stroke="midnightblue" d="M601.91,-10C627.63,-10 656.35,-10 676.03,-10"/>
<polygon fill="midnightblue" stroke="midnightblue" points="676.22,-13.5 686.22,-10 676.22,-6.5 676.22,-13.5"/>
</g>
<!-- Node27&#45;&gt;Node20 -->
<g id="edge33" class="edge">
<title>Node27&#45;&gt;Node20</title>
<path fill="none" stroke="midnightblue" d="M281.75,-143C294.01,-143 307.18,-143 319.86,-143"/>
<polygon fill="midnightblue" stroke="midnightblue" points="319.9,-146.5 329.9,-143 319.9,-139.5 319.9,-146.5"/>
</g>
</g>
</svg>
