<?xml version="1.0" encoding="UTF-8" standalone="no"?>
<!DOCTYPE svg PUBLIC "-//W3C//DTD SVG 1.1//EN"
 "http://www.w3.org/Graphics/SVG/1.1/DTD/svg11.dtd">
<!-- Generated by graphviz version 2.44.0 ()
 -->
<!-- Title: detailed_balance::merge_inverse_rates Pages: 1 -->
<!--zoomable 580 -->
<svg id="main" version="1.1" xmlns="http://www.w3.org/2000/svg" xmlns:xlink="http://www.w3.org/1999/xlink" xml:space="preserve" onload="init(evt)">
<style type="text/css"><![CDATA[
.edge:hover path { stroke: red; }
.edge:hover polygon { stroke: red; fill: red; }
]]></style>
<script type="text/javascript"><![CDATA[
var edges = document.getElementsByTagName('g');
if (edges && edges.length) {
  for (var i=0;i<edges.length;i++) {
    if (edges[i].id.substr(0,4)=='edge') {
      edges[i].setAttribute('class','edge');
    }
  }
}
]]></script>
        <defs>
                <circle id="rim" cx="0" cy="0" r="7"/>
                <circle id="rim2" cx="0" cy="0" r="3.5"/>
                <g id="zoomPlus">
                        <use xlink:href="#rim" fill="#404040">
                                <set attributeName="fill" to="#808080" begin="zoomplus.mouseover" end="zoomplus.mouseout"/>
                        </use>
                        <path d="M-4,0h8M0,-4v8" fill="none" stroke="white" stroke-width="1.5" pointer-events="none"/>
                </g>
                <g id="zoomMin">
                        <use xlink:href="#rim" fill="#404040">
                                <set attributeName="fill" to="#808080" begin="zoomminus.mouseover" end="zoomminus.mouseout"/>
                        </use>
                        <path d="M-4,0h8" fill="none" stroke="white" stroke-width="1.5" pointer-events="none"/>
                </g>
                <g id="dirArrow">
                        <path fill="none" stroke="white" stroke-width="1.5" d="M0,-3.0v7 M-2.5,-0.5L0,-3.0L2.5,-0.5"/>
                </g>
               <g id="resetDef">
                       <use xlink:href="#rim2" fill="#404040">
                               <set attributeName="fill" to="#808080" begin="reset.mouseover" end="reset.mouseout"/>
                       </use>
               </g>
        </defs>

<script type="text/javascript">
var viewWidth = 941;
var viewHeight = 580;
var sectionId = 'dynsection-3';
</script>
<script xlink:href="svgpan.js"/>
<svg id="graph" class="graph">
<g id="viewport">
<title>detailed_balance::merge_inverse_rates</title>
<polygon fill="white" stroke="transparent" points="-4,4 -4,-576.36 937,-576.36 937,4 -4,4"/>
<!-- Node1 -->
<g id="node1" class="node">
<title>Node1</title>
<g id="a_node1"><a xlink:title="Delete and create new inverse rates.">
<polygon fill="#bfbfbf" stroke="black" points="0,-197.5 0,-227.5 121,-227.5 121,-197.5 0,-197.5"/>
<text text-anchor="start" x="8" y="-215.5" font-family="Helvetica,sans-Serif" font-size="10.00">detailed_balance::merge</text>
<text text-anchor="middle" x="60.5" y="-204.5" font-family="Helvetica,sans-Serif" font-size="10.00">_inverse_rates</text>
</a>
</g>
</g>
<!-- Node2 -->
<g id="node2" class="node">
<title>Node2</title>
<g id="a_node2"><a xlink:href="namespacedetailed__balance.html#a6163da72c848a1fd418b8a1869a4dc1b" target="_top" xlink:title="Routine to create an inverse rate, based on the forward rate.">
<polygon fill="white" stroke="black" points="167,-405.5 167,-435.5 288,-435.5 288,-405.5 167,-405.5"/>
<text text-anchor="start" x="175" y="-423.5" font-family="Helvetica,sans-Serif" font-size="10.00">detailed_balance::create</text>
<text text-anchor="middle" x="227.5" y="-412.5" font-family="Helvetica,sans-Serif" font-size="10.00">_inverse_rate</text>
</a>
</g>
</g>
<!-- Node1&#45;&gt;Node2 -->
<g id="edge1" class="edge">
<title>Node1&#45;&gt;Node2</title>
<path fill="none" stroke="midnightblue" d="M73.63,-227.79C102.31,-263.94 174.4,-354.82 208.32,-397.58"/>
<polygon fill="midnightblue" stroke="midnightblue" points="205.62,-399.8 214.57,-405.46 211.1,-395.45 205.62,-399.8"/>
</g>
<!-- Node5 -->
<g id="node5" class="node">
<title>Node5</title>
<g id="a_node5"><a xlink:href="namespaceerror__msg__class.html#a2453d3b7cb363115c046840baa1dfb75" target="_top" xlink:title="Raise a exception with a given error message.">
<polygon fill="white" stroke="black" points="666,-333.5 666,-363.5 780,-363.5 780,-333.5 666,-333.5"/>
<text text-anchor="start" x="674" y="-351.5" font-family="Helvetica,sans-Serif" font-size="10.00">error_msg_class::raise</text>
<text text-anchor="middle" x="723" y="-340.5" font-family="Helvetica,sans-Serif" font-size="10.00">_exception</text>
</a>
</g>
</g>
<!-- Node1&#45;&gt;Node5 -->
<g id="edge17" class="edge">
<title>Node1&#45;&gt;Node5</title>
<path fill="none" stroke="midnightblue" d="M62.89,-227.59C67.58,-269.39 86.74,-387.43 157,-445.5 316.4,-577.25 435.99,-615.51 617,-515.5 672.08,-485.07 702.18,-412.3 714.79,-373.64"/>
<polygon fill="midnightblue" stroke="midnightblue" points="718.25,-374.29 717.89,-363.7 711.57,-372.21 718.25,-374.29"/>
</g>
<!-- Node10 -->
<g id="node10" class="node">
<title>Node10</title>
<g id="a_node10"><a xlink:href="namespacebenam__class.html#af8144ea43fb40187e32fb83da48458f1" target="_top" xlink:title="Returns the 1/n! factor where n is the number of equal isotopes entering a reaction....">
<polygon fill="white" stroke="black" points="157,-69 157,-88 298,-88 298,-69 157,-69"/>
<text text-anchor="middle" x="227.5" y="-76" font-family="Helvetica,sans-Serif" font-size="10.00">benam_class::getcoefficients</text>
</a>
</g>
</g>
<!-- Node1&#45;&gt;Node10 -->
<g id="edge16" class="edge">
<title>Node1&#45;&gt;Node10</title>
<path fill="none" stroke="midnightblue" d="M69.91,-197.27C84.39,-172.5 116.42,-123.64 157,-97.5 160.18,-95.45 163.59,-93.62 167.11,-91.98"/>
<polygon fill="midnightblue" stroke="midnightblue" points="168.72,-95.1 176.67,-88.09 166.09,-88.62 168.72,-95.1"/>
</g>
<!-- Node11 -->
<g id="node11" class="node">
<title>Node11</title>
<g id="a_node11"><a xlink:href="namespacedetailed__balance.html#ae5d55a056d18ca2d155d82c63e6acf48" target="_top" xlink:title="Verbose routine to output one inverse reaction of chapter 4&#45;9.">
<polygon fill="white" stroke="black" points="170,-197.5 170,-227.5 285,-227.5 285,-197.5 170,-197.5"/>
<text text-anchor="start" x="178" y="-215.5" font-family="Helvetica,sans-Serif" font-size="10.00">detailed_balance::write</text>
<text text-anchor="middle" x="227.5" y="-204.5" font-family="Helvetica,sans-Serif" font-size="10.00">_reac_rate</text>
</a>
</g>
</g>
<!-- Node1&#45;&gt;Node11 -->
<g id="edge18" class="edge">
<title>Node1&#45;&gt;Node11</title>
<path fill="none" stroke="midnightblue" d="M121.07,-212.5C133.6,-212.5 146.89,-212.5 159.67,-212.5"/>
<polygon fill="midnightblue" stroke="midnightblue" points="159.77,-216 169.77,-212.5 159.77,-209 159.77,-216"/>
</g>
<!-- Node20 -->
<g id="node20" class="node">
<title>Node20</title>
<g id="a_node20"><a xlink:href="namespacedetailed__balance.html#a9c5618f65b75159844f8c01641995cfd" target="_top" xlink:title="Write the verbose output of the reaction rates.">
<polygon fill="white" stroke="black" points="170,-107.5 170,-137.5 285,-137.5 285,-107.5 170,-107.5"/>
<text text-anchor="start" x="178" y="-125.5" font-family="Helvetica,sans-Serif" font-size="10.00">detailed_balance::write</text>
<text text-anchor="middle" x="227.5" y="-114.5" font-family="Helvetica,sans-Serif" font-size="10.00">_reac_verbose_out</text>
</a>
</g>
</g>
<!-- Node1&#45;&gt;Node20 -->
<g id="edge33" class="edge">
<title>Node1&#45;&gt;Node20</title>
<path fill="none" stroke="midnightblue" d="M89.12,-197.44C116.72,-182.38 159.32,-159.14 189.77,-142.54"/>
<polygon fill="midnightblue" stroke="midnightblue" points="191.69,-145.47 198.79,-137.61 188.34,-139.33 191.69,-145.47"/>
</g>
<!-- Node3 -->
<g id="node3" class="node">
<title>Node3</title>
<g id="a_node3"><a xlink:href="namespacenucstuff__class.html#a798cb2b4630a9e026012c858d700b3b0" target="_top" xlink:title="Get the reaclib chapter based on nr. of prods. and educts.">
<polygon fill="white" stroke="black" points="511,-475.5 511,-505.5 609,-505.5 609,-475.5 511,-475.5"/>
<text text-anchor="start" x="519" y="-493.5" font-family="Helvetica,sans-Serif" font-size="10.00">nucstuff_class::get</text>
<text text-anchor="middle" x="560" y="-482.5" font-family="Helvetica,sans-Serif" font-size="10.00">_chapter</text>
</a>
</g>
</g>
<!-- Node2&#45;&gt;Node3 -->
<g id="edge2" class="edge">
<title>Node2&#45;&gt;Node3</title>
<path fill="none" stroke="midnightblue" d="M275.46,-435.55C293.63,-441.04 314.66,-447 334,-451.5 390.18,-464.58 455.18,-475.39 500.83,-482.28"/>
<polygon fill="midnightblue" stroke="midnightblue" points="500.43,-485.76 510.84,-483.78 501.47,-478.84 500.43,-485.76"/>
</g>
<!-- Node6 -->
<g id="node6" class="node">
<title>Node6</title>
<g id="a_node6"><a xlink:href="namespacenucstuff__class.html#adb871d9f6d0e6ec5db0a0808201ab3db" target="_top" xlink:title="Get number of products of the reaction based on the reaclib chapter.">
<polygon fill="white" stroke="black" points="511,-377.5 511,-407.5 609,-407.5 609,-377.5 511,-377.5"/>
<text text-anchor="start" x="519" y="-395.5" font-family="Helvetica,sans-Serif" font-size="10.00">nucstuff_class::get</text>
<text text-anchor="middle" x="560" y="-384.5" font-family="Helvetica,sans-Serif" font-size="10.00">_nr_products</text>
</a>
</g>
</g>
<!-- Node2&#45;&gt;Node6 -->
<g id="edge6" class="edge">
<title>Node2&#45;&gt;Node6</title>
<path fill="none" stroke="midnightblue" d="M288.31,-416.04C336.57,-412.36 406.18,-406.9 467,-401.5 477.89,-400.53 489.5,-399.44 500.68,-398.36"/>
<polygon fill="midnightblue" stroke="midnightblue" points="501.18,-401.83 510.79,-397.38 500.5,-394.87 501.18,-401.83"/>
</g>
<!-- Node7 -->
<g id="node7" class="node">
<title>Node7</title>
<g id="a_node7"><a xlink:href="namespacenucstuff__class.html#a5fa1f79d38fd5b01a5d6d797fea0132d" target="_top" xlink:title="Get number of reactants of the reaction based on the reaclib chapter.">
<polygon fill="white" stroke="black" points="511,-426.5 511,-456.5 609,-456.5 609,-426.5 511,-426.5"/>
<text text-anchor="start" x="519" y="-444.5" font-family="Helvetica,sans-Serif" font-size="10.00">nucstuff_class::get</text>
<text text-anchor="middle" x="560" y="-433.5" font-family="Helvetica,sans-Serif" font-size="10.00">_nr_reactants</text>
</a>
</g>
</g>
<!-- Node2&#45;&gt;Node7 -->
<g id="edge9" class="edge">
<title>Node2&#45;&gt;Node7</title>
<path fill="none" stroke="midnightblue" d="M288.09,-429.47C303.04,-431.43 319.08,-433.28 334,-434.5 390.37,-439.11 454.92,-440.74 500.38,-441.29"/>
<polygon fill="midnightblue" stroke="midnightblue" points="500.6,-444.8 510.64,-441.4 500.68,-437.8 500.6,-444.8"/>
</g>
<!-- Node8 -->
<g id="node8" class="node">
<title>Node8</title>
<g id="a_node8"><a xlink:href="namespacereaclib__rate__module.html#a8e23d45ed0420de076b8f07863151a34" target="_top" xlink:title="Set a flag for the reaction type.">
<polygon fill="white" stroke="black" points="348.5,-361.5 348.5,-391.5 452.5,-391.5 452.5,-361.5 348.5,-361.5"/>
<text text-anchor="start" x="356.5" y="-379.5" font-family="Helvetica,sans-Serif" font-size="10.00">reaclib_rate_module</text>
<text text-anchor="middle" x="400.5" y="-368.5" font-family="Helvetica,sans-Serif" font-size="10.00">::set_reaction_type</text>
</a>
</g>
</g>
<!-- Node2&#45;&gt;Node8 -->
<g id="edge12" class="edge">
<title>Node2&#45;&gt;Node8</title>
<path fill="none" stroke="midnightblue" d="M286.87,-405.48C303.53,-401.19 321.73,-396.51 338.54,-392.19"/>
<polygon fill="midnightblue" stroke="midnightblue" points="339.44,-395.57 348.25,-389.69 337.7,-388.79 339.44,-395.57"/>
</g>
<!-- Node4 -->
<g id="node4" class="node">
<title>Node4</title>
<g id="a_node4"><a xlink:href="namespaceerror__msg__class.html#a7e065585cc806a5c264de1f088266498" target="_top" xlink:title="Converts a given integer to a string.">
<polygon fill="white" stroke="black" points="829,-355.5 829,-385.5 933,-385.5 933,-355.5 829,-355.5"/>
<text text-anchor="start" x="837" y="-373.5" font-family="Helvetica,sans-Serif" font-size="10.00">error_msg_class::int</text>
<text text-anchor="middle" x="881" y="-362.5" font-family="Helvetica,sans-Serif" font-size="10.00">_to_str</text>
</a>
</g>
</g>
<!-- Node3&#45;&gt;Node4 -->
<g id="edge3" class="edge">
<title>Node3&#45;&gt;Node4</title>
<path fill="none" stroke="midnightblue" d="M609.4,-480.49C657.26,-469.67 731.98,-450.32 793,-423.5 812.95,-414.73 833.84,-402.13 850.15,-391.41"/>
<polygon fill="midnightblue" stroke="midnightblue" points="852.34,-394.16 858.71,-385.69 848.45,-388.34 852.34,-394.16"/>
</g>
<!-- Node3&#45;&gt;Node5 -->
<g id="edge4" class="edge">
<title>Node3&#45;&gt;Node5</title>
<path fill="none" stroke="midnightblue" d="M601.92,-475.49C607.19,-472.84 612.37,-469.84 617,-466.5 653.98,-439.86 687.2,-398.07 705.96,-372.03"/>
<polygon fill="midnightblue" stroke="midnightblue" points="708.83,-374.04 711.75,-363.85 703.12,-369.99 708.83,-374.04"/>
</g>
<!-- Node5&#45;&gt;Node4 -->
<g id="edge5" class="edge">
<title>Node5&#45;&gt;Node4</title>
<path fill="none" stroke="midnightblue" d="M780.32,-356.44C792.85,-358.21 806.2,-360.09 818.91,-361.89"/>
<polygon fill="midnightblue" stroke="midnightblue" points="818.56,-365.37 828.95,-363.3 819.53,-358.44 818.56,-365.37"/>
</g>
<!-- Node6&#45;&gt;Node4 -->
<g id="edge7" class="edge">
<title>Node6&#45;&gt;Node4</title>
<path fill="none" stroke="midnightblue" d="M609.1,-389.18C665.04,-385.32 757.5,-378.95 818.59,-374.74"/>
<polygon fill="midnightblue" stroke="midnightblue" points="819.13,-378.21 828.86,-374.03 818.64,-371.22 819.13,-378.21"/>
</g>
<!-- Node6&#45;&gt;Node5 -->
<g id="edge8" class="edge">
<title>Node6&#45;&gt;Node5</title>
<path fill="none" stroke="midnightblue" d="M609.31,-379.3C624.34,-375.19 641.17,-370.59 657.14,-366.23"/>
<polygon fill="midnightblue" stroke="midnightblue" points="658.23,-369.56 666.95,-363.54 656.38,-362.8 658.23,-369.56"/>
</g>
<!-- Node7&#45;&gt;Node4 -->
<g id="edge10" class="edge">
<title>Node7&#45;&gt;Node4</title>
<path fill="none" stroke="midnightblue" d="M609.25,-433.16C656.35,-424.72 729.95,-410.78 793,-395.5 801.97,-393.33 811.41,-390.83 820.62,-388.28"/>
<polygon fill="midnightblue" stroke="midnightblue" points="821.82,-391.58 830.5,-385.5 819.93,-384.84 821.82,-391.58"/>
</g>
<!-- Node7&#45;&gt;Node5 -->
<g id="edge11" class="edge">
<title>Node7&#45;&gt;Node5</title>
<path fill="none" stroke="midnightblue" d="M598.78,-426.39C604.96,-423.61 611.22,-420.6 617,-417.5 643.73,-403.13 672.42,-384 693.04,-369.53"/>
<polygon fill="midnightblue" stroke="midnightblue" points="695.22,-372.28 701.36,-363.64 691.17,-366.56 695.22,-372.28"/>
</g>
<!-- Node8&#45;&gt;Node6 -->
<g id="edge14" class="edge">
<title>Node8&#45;&gt;Node6</title>
<path fill="none" stroke="midnightblue" d="M452.64,-381.69C467.96,-383.25 484.89,-384.97 500.64,-386.57"/>
<polygon fill="midnightblue" stroke="midnightblue" points="500.49,-390.07 510.8,-387.6 501.2,-383.11 500.49,-390.07"/>
</g>
<!-- Node8&#45;&gt;Node7 -->
<g id="edge15" class="edge">
<title>Node8&#45;&gt;Node7</title>
<path fill="none" stroke="midnightblue" d="M438.03,-391.58C460.31,-400.77 489,-412.61 512.85,-422.45"/>
<polygon fill="midnightblue" stroke="midnightblue" points="511.82,-425.81 522.4,-426.39 514.49,-419.34 511.82,-425.81"/>
</g>
<!-- Node9 -->
<g id="node9" class="node">
<title>Node9</title>
<g id="a_node9"><a xlink:href="namespacebenam__class.html#afd880df70f94c289b6bda0647f4494e3" target="_top" xlink:title="Getter of net_names, translating indices to a nucleus name.">
<polygon fill="white" stroke="black" points="653,-170 653,-189 793,-189 793,-170 653,-170"/>
<text text-anchor="middle" x="723" y="-177" font-family="Helvetica,sans-Serif" font-size="10.00">benam_class::get_net_name</text>
</a>
</g>
</g>
<!-- Node8&#45;&gt;Node9 -->
<g id="edge13" class="edge">
<title>Node8&#45;&gt;Node9</title>
<path fill="none" stroke="midnightblue" d="M452.56,-363.47C498.33,-350.21 565.95,-326.57 617,-291.5 655.76,-264.87 690.98,-221.74 709.12,-197.51"/>
<polygon fill="midnightblue" stroke="midnightblue" points="712.1,-199.35 715.2,-189.22 706.46,-195.21 712.1,-199.35"/>
</g>
<!-- Node12 -->
<g id="node12" class="node">
<title>Node12</title>
<g id="a_node12"><a xlink:href="namespacebenam__class.html#ad20c821347dd5f7c08dff59c98e69657" target="_top" xlink:title="Returns the index number of isotope &#39;name&#39;.">
<polygon fill="white" stroke="black" points="346.5,-88 346.5,-107 454.5,-107 454.5,-88 346.5,-88"/>
<text text-anchor="middle" x="400.5" y="-95" font-family="Helvetica,sans-Serif" font-size="10.00">benam_class::benam</text>
</a>
</g>
</g>
<!-- Node11&#45;&gt;Node12 -->
<g id="edge19" class="edge">
<title>Node11&#45;&gt;Node12</title>
<path fill="none" stroke="midnightblue" d="M244.3,-197.39C271.15,-171.82 323.79,-122.22 334,-116.5 337.94,-114.29 342.16,-112.32 346.5,-110.57"/>
<polygon fill="midnightblue" stroke="midnightblue" points="347.9,-113.78 356.08,-107.05 345.49,-107.21 347.9,-113.78"/>
</g>
<!-- Node13 -->
<g id="node13" class="node">
<title>Node13</title>
<g id="a_node13"><a xlink:href="namespacenucstuff__class.html#a54b0d5681c0193e0b2276911713242e9" target="_top" xlink:title="A helper to compute powers of temperature used in the reaction rates.">
<polygon fill="white" stroke="black" points="349.5,-312.5 349.5,-342.5 451.5,-342.5 451.5,-312.5 349.5,-312.5"/>
<text text-anchor="start" x="357.5" y="-330.5" font-family="Helvetica,sans-Serif" font-size="10.00">nucstuff_class::calc</text>
<text text-anchor="middle" x="400.5" y="-319.5" font-family="Helvetica,sans-Serif" font-size="10.00">_t9_pow</text>
</a>
</g>
</g>
<!-- Node11&#45;&gt;Node13 -->
<g id="edge20" class="edge">
<title>Node11&#45;&gt;Node13</title>
<path fill="none" stroke="midnightblue" d="M242.54,-227.62C261.61,-247.4 297.51,-282.05 334,-303.5 336.82,-305.16 339.77,-306.73 342.8,-308.22"/>
<polygon fill="midnightblue" stroke="midnightblue" points="341.49,-311.47 352.04,-312.44 344.4,-305.11 341.49,-311.47"/>
</g>
<!-- Node14 -->
<g id="node14" class="node">
<title>Node14</title>
<g id="a_node14"><a xlink:href="namespacedetailed__balance.html#a4c2ebb1580b34cd40aca41258ba5c8b7" target="_top" xlink:title="Calculate the inverse rate from the forward one via detailed balance.">
<polygon fill="white" stroke="black" points="334,-263.5 334,-293.5 467,-293.5 467,-263.5 334,-263.5"/>
<text text-anchor="start" x="342" y="-281.5" font-family="Helvetica,sans-Serif" font-size="10.00">detailed_balance::calculate</text>
<text text-anchor="middle" x="400.5" y="-270.5" font-family="Helvetica,sans-Serif" font-size="10.00">_detailed_balance</text>
</a>
</g>
</g>
<!-- Node11&#45;&gt;Node14 -->
<g id="edge21" class="edge">
<title>Node11&#45;&gt;Node14</title>
<path fill="none" stroke="midnightblue" d="M267.73,-227.64C292.5,-237.2 324.67,-249.62 351.03,-259.79"/>
<polygon fill="midnightblue" stroke="midnightblue" points="349.86,-263.09 360.45,-263.43 352.38,-256.56 349.86,-263.09"/>
</g>
<!-- Node15 -->
<g id="node15" class="node">
<title>Node15</title>
<g id="a_node15"><a xlink:href="namespacereaclib__rate__module.html#a531d2052a5c27ee57c14c22159d1fbfe" target="_top" xlink:title="Calculate a reaclib rate.">
<polygon fill="white" stroke="black" points="346.5,-126.5 346.5,-156.5 454.5,-156.5 454.5,-126.5 346.5,-126.5"/>
<text text-anchor="start" x="354.5" y="-144.5" font-family="Helvetica,sans-Serif" font-size="10.00">reaclib_rate_module</text>
<text text-anchor="middle" x="400.5" y="-133.5" font-family="Helvetica,sans-Serif" font-size="10.00">::calculate_reacl_rate</text>
</a>
</g>
</g>
<!-- Node11&#45;&gt;Node15 -->
<g id="edge23" class="edge">
<title>Node11&#45;&gt;Node15</title>
<path fill="none" stroke="midnightblue" d="M262.06,-197.39C282.71,-188.21 309.77,-176.4 334,-166.5 339.07,-164.43 344.38,-162.31 349.69,-160.23"/>
<polygon fill="midnightblue" stroke="midnightblue" points="351.15,-163.42 359.2,-156.54 348.61,-156.9 351.15,-163.42"/>
</g>
<!-- Node17 -->
<g id="node17" class="node">
<title>Node17</title>
<g id="a_node17"><a xlink:href="namespacefile__handling__class.html#a01ba26324d7662cc0fb2e0eb306cd3e2" target="_top" xlink:title="Close an external file.">
<polygon fill="white" stroke="black" points="511,-251.5 511,-281.5 609,-281.5 609,-251.5 511,-251.5"/>
<text text-anchor="start" x="519" y="-269.5" font-family="Helvetica,sans-Serif" font-size="10.00">file_handling_class</text>
<text text-anchor="middle" x="560" y="-258.5" font-family="Helvetica,sans-Serif" font-size="10.00">::close_io_file</text>
</a>
</g>
</g>
<!-- Node11&#45;&gt;Node17 -->
<g id="edge26" class="edge">
<title>Node11&#45;&gt;Node17</title>
<path fill="none" stroke="midnightblue" d="M285.31,-221.78C345.51,-231.62 440.06,-247.07 500.78,-256.99"/>
<polygon fill="midnightblue" stroke="midnightblue" points="500.53,-260.49 510.97,-258.65 501.66,-253.58 500.53,-260.49"/>
</g>
<!-- Node18 -->
<g id="node18" class="node">
<title>Node18</title>
<g id="a_node18"><a xlink:href="namespacefile__handling__class.html#aeddf55e8478d6220dc04310665427c3a" target="_top" xlink:title="Shorthand for opening a new file for writing (output file)">
<polygon fill="white" stroke="black" points="351.5,-175.5 351.5,-205.5 449.5,-205.5 449.5,-175.5 351.5,-175.5"/>
<text text-anchor="start" x="359.5" y="-193.5" font-family="Helvetica,sans-Serif" font-size="10.00">file_handling_class</text>
<text text-anchor="middle" x="400.5" y="-182.5" font-family="Helvetica,sans-Serif" font-size="10.00">::open_outfile</text>
</a>
</g>
</g>
<!-- Node11&#45;&gt;Node18 -->
<g id="edge29" class="edge">
<title>Node11&#45;&gt;Node18</title>
<path fill="none" stroke="midnightblue" d="M285.44,-205.17C303.39,-202.86 323.24,-200.31 341.28,-197.99"/>
<polygon fill="midnightblue" stroke="midnightblue" points="341.9,-201.44 351.38,-196.69 341.01,-194.5 341.9,-201.44"/>
</g>
<!-- Node14&#45;&gt;Node5 -->
<g id="edge22" class="edge">
<title>Node14&#45;&gt;Node5</title>
<path fill="none" stroke="midnightblue" d="M467.13,-292.83C522.22,-304.87 600.54,-321.97 655.78,-334.04"/>
<polygon fill="midnightblue" stroke="midnightblue" points="655.3,-337.52 665.82,-336.23 656.8,-330.68 655.3,-337.52"/>
</g>
<!-- Node16 -->
<g id="node16" class="node">
<title>Node16</title>
<g id="a_node16"><a xlink:href="namespacebenam__class.html#a2e85786a53d55231776ae950b7b27953" target="_top" xlink:title="Return a string to represent a given reaction.">
<polygon fill="white" stroke="black" points="503.5,-114.5 503.5,-144.5 616.5,-144.5 616.5,-114.5 503.5,-114.5"/>
<text text-anchor="start" x="511.5" y="-132.5" font-family="Helvetica,sans-Serif" font-size="10.00">benam_class::reaction</text>
<text text-anchor="middle" x="560" y="-121.5" font-family="Helvetica,sans-Serif" font-size="10.00">_string</text>
</a>
</g>
</g>
<!-- Node15&#45;&gt;Node16 -->
<g id="edge24" class="edge">
<title>Node15&#45;&gt;Node16</title>
<path fill="none" stroke="midnightblue" d="M454.82,-137.44C467.15,-136.5 480.4,-135.49 493.19,-134.51"/>
<polygon fill="midnightblue" stroke="midnightblue" points="493.61,-137.99 503.31,-133.74 493.08,-131.01 493.61,-137.99"/>
</g>
<!-- Node16&#45;&gt;Node9 -->
<g id="edge25" class="edge">
<title>Node16&#45;&gt;Node9</title>
<path fill="none" stroke="midnightblue" d="M609.31,-144.5C632.28,-151.64 659.44,-160.07 681.34,-166.87"/>
<polygon fill="midnightblue" stroke="midnightblue" points="680.41,-170.25 691,-169.87 682.48,-163.56 680.41,-170.25"/>
</g>
<!-- Node17&#45;&gt;Node4 -->
<g id="edge27" class="edge">
<title>Node17&#45;&gt;Node4</title>
<path fill="none" stroke="midnightblue" d="M609.13,-275C656.79,-284.24 731.35,-300.9 793,-324.5 811.27,-331.5 830.61,-341.44 846.4,-350.29"/>
<polygon fill="midnightblue" stroke="midnightblue" points="844.83,-353.43 855.25,-355.35 848.3,-347.35 844.83,-353.43"/>
</g>
<!-- Node17&#45;&gt;Node5 -->
<g id="edge28" class="edge">
<title>Node17&#45;&gt;Node5</title>
<path fill="none" stroke="midnightblue" d="M590.53,-281.54C616.55,-294.79 654.63,-314.19 683.12,-328.7"/>
<polygon fill="midnightblue" stroke="midnightblue" points="681.89,-332 692.39,-333.42 685.06,-325.76 681.89,-332"/>
</g>
<!-- Node18&#45;&gt;Node5 -->
<g id="edge32" class="edge">
<title>Node18&#45;&gt;Node5</title>
<path fill="none" stroke="midnightblue" d="M449.62,-179.07C495.52,-170.84 565.13,-165.52 617,-193.5 668.81,-221.45 699.87,-287.44 713.6,-323.65"/>
<polygon fill="midnightblue" stroke="midnightblue" points="710.46,-325.24 717.17,-333.44 717.04,-322.84 710.46,-325.24"/>
</g>
<!-- Node19 -->
<g id="node19" class="node">
<title>Node19</title>
<g id="a_node19"><a xlink:href="namespacefile__handling__class.html#af02196bd5eaf70ecd5ab4cc650094d5e" target="_top" xlink:title="Finds the next unused unit number.">
<polygon fill="white" stroke="black" points="511,-202.5 511,-232.5 609,-232.5 609,-202.5 511,-202.5"/>
<text text-anchor="start" x="519" y="-220.5" font-family="Helvetica,sans-Serif" font-size="10.00">file_handling_class</text>
<text text-anchor="middle" x="560" y="-209.5" font-family="Helvetica,sans-Serif" font-size="10.00">::get_next_io_unit</text>
</a>
</g>
</g>
<!-- Node18&#45;&gt;Node19 -->
<g id="edge30" class="edge">
<title>Node18&#45;&gt;Node19</title>
<path fill="none" stroke="midnightblue" d="M449.61,-198.75C465.72,-201.51 483.85,-204.62 500.65,-207.5"/>
<polygon fill="midnightblue" stroke="midnightblue" points="500.46,-211.02 510.91,-209.26 501.65,-204.12 500.46,-211.02"/>
</g>
<!-- Node19&#45;&gt;Node5 -->
<g id="edge31" class="edge">
<title>Node19&#45;&gt;Node5</title>
<path fill="none" stroke="midnightblue" d="M599.97,-232.63C605.88,-235.56 611.75,-238.87 617,-242.5 651.34,-266.25 684.07,-302.12 703.6,-325.43"/>
<polygon fill="midnightblue" stroke="midnightblue" points="701.11,-327.92 710.17,-333.4 706.51,-323.46 701.11,-327.92"/>
</g>
<!-- Node20&#45;&gt;Node4 -->
<g id="edge34" class="edge">
<title>Node20&#45;&gt;Node4</title>
<path fill="none" stroke="midnightblue" d="M273.36,-107.41C281.63,-104.33 290.14,-100.97 298,-97.5 314.55,-90.2 316.44,-82.85 334,-78.5 535.15,-28.68 640.39,-20.3 793,-160.5 847.92,-210.96 869.17,-301.36 876.53,-345.23"/>
<polygon fill="midnightblue" stroke="midnightblue" points="873.1,-346 878.11,-355.33 880.02,-344.91 873.1,-346"/>
</g>
<!-- Node21 -->
<g id="node21" class="node">
<title>Node21</title>
<g id="a_node21"><a xlink:href="namespaceerror__msg__class.html#a339dd5b38c125b6a04653762c94a91f2" target="_top" xlink:title="Write data to the standard output (usually OUT)">
<polygon fill="white" stroke="black" points="343.5,-0.5 343.5,-30.5 457.5,-30.5 457.5,-0.5 343.5,-0.5"/>
<text text-anchor="start" x="351.5" y="-18.5" font-family="Helvetica,sans-Serif" font-size="10.00">error_msg_class::write</text>
<text text-anchor="middle" x="400.5" y="-7.5" font-family="Helvetica,sans-Serif" font-size="10.00">_data_to_std_out</text>
</a>
</g>
</g>
<!-- Node20&#45;&gt;Node21 -->
<g id="edge35" class="edge">
<title>Node20&#45;&gt;Node21</title>
<path fill="none" stroke="midnightblue" d="M281.56,-107.41C287.4,-104.61 293.02,-101.33 298,-97.5 320.29,-80.37 312.45,-63.55 334,-45.5 338.48,-41.74 343.51,-38.36 348.74,-35.33"/>
<polygon fill="midnightblue" stroke="midnightblue" points="350.49,-38.37 357.67,-30.58 347.2,-32.19 350.49,-38.37"/>
</g>
<!-- Node22 -->
<g id="node22" class="node">
<title>Node22</title>
<g id="a_node22"><a xlink:href="namespaceerror__msg__class.html#af62b9a0c5997255e792b9ebd7322a6a3" target="_top" xlink:title="Write the header of the standard output (usually OUT)">
<polygon fill="white" stroke="black" points="503,-0.5 503,-30.5 617,-30.5 617,-0.5 503,-0.5"/>
<text text-anchor="start" x="511" y="-18.5" font-family="Helvetica,sans-Serif" font-size="10.00">error_msg_class::write</text>
<text text-anchor="middle" x="560" y="-7.5" font-family="Helvetica,sans-Serif" font-size="10.00">_header</text>
</a>
</g>
</g>
<!-- Node21&#45;&gt;Node22 -->
<g id="edge36" class="edge">
<title>Node21&#45;&gt;Node22</title>
<path fill="none" stroke="midnightblue" d="M457.92,-9C469.25,-8.74 481.25,-8.68 492.88,-8.83"/>
<polygon fill="midnightblue" stroke="midnightblue" points="492.92,-12.33 502.98,-9.01 493.04,-5.33 492.92,-12.33"/>
</g>
<!-- Node22&#45;&gt;Node21 -->
<g id="edge37" class="edge">
<title>Node22&#45;&gt;Node21</title>
<path fill="none" stroke="midnightblue" d="M502.98,-21.99C491.66,-22.26 479.66,-22.32 468.02,-22.18"/>
<polygon fill="midnightblue" stroke="midnightblue" points="467.98,-18.68 457.92,-22 467.85,-25.67 467.98,-18.68"/>
</g>
</g>
</svg>
        <g id="navigator" transform="translate(0 0)" fill="#404254">
                <rect fill="#f2f5e9" fill-opacity="0.5" stroke="#606060" stroke-width=".5" x="0" y="0" width="60" height="60"/>
                <use id="zoomplus" xlink:href="#zoomPlus" x="17" y="9" onmousedown="handleZoom(evt,'in')"/>
                <use id="zoomminus" xlink:href="#zoomMin" x="42" y="9" onmousedown="handleZoom(evt,'out')"/>
                <use id="reset" xlink:href="#resetDef" x="30" y="36" onmousedown="handleReset()"/>
                <g id="arrowUp" xlink:href="#dirArrow" transform="translate(30 24)" onmousedown="handlePan(0,-1)">
                  <use xlink:href="#rim" fill="#404040">
                        <set attributeName="fill" to="#808080" begin="arrowUp.mouseover" end="arrowUp.mouseout"/>
                  </use>
                  <path fill="none" stroke="white" stroke-width="1.5" d="M0,-3.0v7 M-2.5,-0.5L0,-3.0L2.5,-0.5"/>
                </g>
                <g id="arrowRight" xlink:href="#dirArrow" transform="rotate(90) translate(36 -43)" onmousedown="handlePan(1,0)">
                  <use xlink:href="#rim" fill="#404040">
                        <set attributeName="fill" to="#808080" begin="arrowRight.mouseover" end="arrowRight.mouseout"/>
                  </use>
                  <path fill="none" stroke="white" stroke-width="1.5" d="M0,-3.0v7 M-2.5,-0.5L0,-3.0L2.5,-0.5"/>
                </g>
                <g id="arrowDown" xlink:href="#dirArrow" transform="rotate(180) translate(-30 -48)" onmousedown="handlePan(0,1)">
                  <use xlink:href="#rim" fill="#404040">
                        <set attributeName="fill" to="#808080" begin="arrowDown.mouseover" end="arrowDown.mouseout"/>
                  </use>
                  <path fill="none" stroke="white" stroke-width="1.5" d="M0,-3.0v7 M-2.5,-0.5L0,-3.0L2.5,-0.5"/>
                </g>
                <g id="arrowLeft" xlink:href="#dirArrow" transform="rotate(270) translate(-36 17)" onmousedown="handlePan(-1,0)">
                  <use xlink:href="#rim" fill="#404040">
                        <set attributeName="fill" to="#808080" begin="arrowLeft.mouseover" end="arrowLeft.mouseout"/>
                  </use>
                  <path fill="none" stroke="white" stroke-width="1.5" d="M0,-3.0v7 M-2.5,-0.5L0,-3.0L2.5,-0.5"/>
                </g>
        </g>
        <svg viewBox="0 0 15 15" width="100%" height="30px" preserveAspectRatio="xMaxYMin meet">
         <g id="arrow_out" transform="scale(0.3 0.3)">
          <a xlink:href="namespacedetailed__balance_a3365fc235470affbb8cde40f0252bb09_cgraph_org.svg" target="_base">
           <rect id="button" ry="5" rx="5" y="6" x="6" height="38" width="38"
                fill="#f2f5e9" fill-opacity="0.5" stroke="#606060" stroke-width="1.0"/>
           <path id="arrow"
             d="M 11.500037,31.436501 C 11.940474,20.09759 22.043105,11.32322 32.158766,21.979434 L 37.068811,17.246167 C 37.068811,17.246167 37.088388,32 37.088388,32 L 22.160133,31.978069 C 22.160133,31.978069 26.997745,27.140456 26.997745,27.140456 C 18.528582,18.264221 13.291696,25.230495 11.500037,31.436501 z"
             style="fill:#404040;"/>
          </a>
         </g>
        </svg>
</svg>
