<?xml version="1.0" encoding="UTF-8" standalone="no"?>
<!DOCTYPE svg PUBLIC "-//W3C//DTD SVG 1.1//EN"
 "http://www.w3.org/Graphics/SVG/1.1/DTD/svg11.dtd">
<!-- Generated by graphviz version 2.44.0 ()
 -->
<!-- Title: hdf5_module::extend_mainout Pages: 1 -->
<svg width="678pt" height="88pt"
 viewBox="0.00 0.00 678.00 88.00" xmlns="http://www.w3.org/2000/svg" xmlns:xlink="http://www.w3.org/1999/xlink">
<g id="graph0" class="graph" transform="scale(1 1) rotate(0) translate(4 84)">
<title>hdf5_module::extend_mainout</title>
<polygon fill="white" stroke="transparent" points="-4,4 -4,-84 674,-84 674,4 -4,4"/>
<!-- Node1 -->
<g id="node1" class="node">
<title>Node1</title>
<g id="a_node1"><a xlink:title="Write the mainout data to the hdf5.">
<polygon fill="#bfbfbf" stroke="black" points="0,-24.5 0,-54.5 105,-54.5 105,-24.5 0,-24.5"/>
<text text-anchor="start" x="8" y="-42.5" font-family="Helvetica,sans-Serif" font-size="10.00">hdf5_module::extend</text>
<text text-anchor="middle" x="52.5" y="-31.5" font-family="Helvetica,sans-Serif" font-size="10.00">_mainout</text>
</a>
</g>
</g>
<!-- Node2 -->
<g id="node2" class="node">
<title>Node2</title>
<g id="a_node2"><a xlink:href="namespacehdf5__module.html#a29ddf70908c42356e1a4f48c8f094d46" target="_top" xlink:title="Write the mainout data into a file.">
<polygon fill="white" stroke="black" points="141,-24.5 141,-54.5 239,-54.5 239,-24.5 141,-24.5"/>
<text text-anchor="start" x="149" y="-42.5" font-family="Helvetica,sans-Serif" font-size="10.00">hdf5_module::write</text>
<text text-anchor="middle" x="190" y="-31.5" font-family="Helvetica,sans-Serif" font-size="10.00">_mainout_data</text>
</a>
</g>
</g>
<!-- Node1&#45;&gt;Node2 -->
<g id="edge1" class="edge">
<title>Node1&#45;&gt;Node2</title>
<path fill="none" stroke="midnightblue" d="M105.11,-39.5C113.41,-39.5 122.05,-39.5 130.49,-39.5"/>
<polygon fill="midnightblue" stroke="midnightblue" points="130.65,-43 140.65,-39.5 130.65,-36 130.65,-43"/>
</g>
<!-- Node3 -->
<g id="node3" class="node">
<title>Node3</title>
<g id="a_node3"><a xlink:href="namespacehdf5__module.html#a28a7b037320b89de7c8ab611e5f720d0" target="_top" xlink:title="Extend a previously created 1D &#45; dataset.">
<polygon fill="white" stroke="black" points="275,-49.5 275,-79.5 380,-79.5 380,-49.5 275,-49.5"/>
<text text-anchor="start" x="283" y="-67.5" font-family="Helvetica,sans-Serif" font-size="10.00">hdf5_module::extend</text>
<text text-anchor="middle" x="327.5" y="-56.5" font-family="Helvetica,sans-Serif" font-size="10.00">_1d_dataset</text>
</a>
</g>
</g>
<!-- Node2&#45;&gt;Node3 -->
<g id="edge2" class="edge">
<title>Node2&#45;&gt;Node3</title>
<path fill="none" stroke="midnightblue" d="M239.15,-48.38C247.46,-49.92 256.2,-51.53 264.81,-53.12"/>
<polygon fill="midnightblue" stroke="midnightblue" points="264.36,-56.59 274.83,-54.97 265.63,-49.71 264.36,-56.59"/>
</g>
<!-- Node6 -->
<g id="node6" class="node">
<title>Node6</title>
<g id="a_node6"><a xlink:href="namespacehdf5__module.html#a59c2f613eb6405d547d014f2e4ef5d1b" target="_top" xlink:title="Extend a previously created 1D integer &#45; dataset.">
<polygon fill="white" stroke="black" points="275,-0.5 275,-30.5 380,-30.5 380,-0.5 275,-0.5"/>
<text text-anchor="start" x="283" y="-18.5" font-family="Helvetica,sans-Serif" font-size="10.00">hdf5_module::extend</text>
<text text-anchor="middle" x="327.5" y="-7.5" font-family="Helvetica,sans-Serif" font-size="10.00">_1d_int_dataset</text>
</a>
</g>
</g>
<!-- Node2&#45;&gt;Node6 -->
<g id="edge5" class="edge">
<title>Node2&#45;&gt;Node6</title>
<path fill="none" stroke="midnightblue" d="M239.15,-30.97C247.46,-29.5 256.2,-27.95 264.81,-26.43"/>
<polygon fill="midnightblue" stroke="midnightblue" points="265.59,-29.84 274.83,-24.65 264.37,-22.95 265.59,-29.84"/>
</g>
<!-- Node4 -->
<g id="node4" class="node">
<title>Node4</title>
<g id="a_node4"><a xlink:href="namespaceerror__msg__class.html#a2453d3b7cb363115c046840baa1dfb75" target="_top" xlink:title="Raise a exception with a given error message.">
<polygon fill="white" stroke="black" points="416,-24.5 416,-54.5 530,-54.5 530,-24.5 416,-24.5"/>
<text text-anchor="start" x="424" y="-42.5" font-family="Helvetica,sans-Serif" font-size="10.00">error_msg_class::raise</text>
<text text-anchor="middle" x="473" y="-31.5" font-family="Helvetica,sans-Serif" font-size="10.00">_exception</text>
</a>
</g>
</g>
<!-- Node3&#45;&gt;Node4 -->
<g id="edge3" class="edge">
<title>Node3&#45;&gt;Node4</title>
<path fill="none" stroke="midnightblue" d="M380.31,-55.47C388.62,-54.03 397.31,-52.51 405.9,-51.02"/>
<polygon fill="midnightblue" stroke="midnightblue" points="406.65,-54.44 415.9,-49.27 405.45,-47.54 406.65,-54.44"/>
</g>
<!-- Node5 -->
<g id="node5" class="node">
<title>Node5</title>
<g id="a_node5"><a xlink:href="namespaceerror__msg__class.html#a7e065585cc806a5c264de1f088266498" target="_top" xlink:title="Converts a given integer to a string.">
<polygon fill="white" stroke="black" points="566,-24.5 566,-54.5 670,-54.5 670,-24.5 566,-24.5"/>
<text text-anchor="start" x="574" y="-42.5" font-family="Helvetica,sans-Serif" font-size="10.00">error_msg_class::int</text>
<text text-anchor="middle" x="618" y="-31.5" font-family="Helvetica,sans-Serif" font-size="10.00">_to_str</text>
</a>
</g>
</g>
<!-- Node4&#45;&gt;Node5 -->
<g id="edge4" class="edge">
<title>Node4&#45;&gt;Node5</title>
<path fill="none" stroke="midnightblue" d="M530.11,-39.5C538.45,-39.5 547.09,-39.5 555.54,-39.5"/>
<polygon fill="midnightblue" stroke="midnightblue" points="555.71,-43 565.71,-39.5 555.71,-36 555.71,-43"/>
</g>
<!-- Node6&#45;&gt;Node4 -->
<g id="edge6" class="edge">
<title>Node6&#45;&gt;Node4</title>
<path fill="none" stroke="midnightblue" d="M380.31,-24.16C388.62,-25.55 397.31,-27.01 405.9,-28.45"/>
<polygon fill="midnightblue" stroke="midnightblue" points="405.46,-31.92 415.9,-30.12 406.62,-25.02 405.46,-31.92"/>
</g>
</g>
</svg>
