<?xml version="1.0" encoding="UTF-8" standalone="no"?>
<!DOCTYPE svg PUBLIC "-//W3C//DTD SVG 1.1//EN"
 "http://www.w3.org/Graphics/SVG/1.1/DTD/svg11.dtd">
<!-- Generated by graphviz version 2.44.0 ()
 -->
<!-- Title: hdf5_module::init_track_nuclei Pages: 1 -->
<svg width="572pt" height="127pt"
 viewBox="0.00 0.00 572.00 127.00" xmlns="http://www.w3.org/2000/svg" xmlns:xlink="http://www.w3.org/1999/xlink">
<g id="graph0" class="graph" transform="scale(1 1) rotate(0) translate(4 123)">
<title>hdf5_module::init_track_nuclei</title>
<polygon fill="white" stroke="transparent" points="-4,4 -4,-123 568,-123 568,4 -4,4"/>
<!-- Node1 -->
<g id="node1" class="node">
<title>Node1</title>
<g id="a_node1"><a xlink:title="Initialize the tracked_nuclei hdf5 group.">
<polygon fill="#bfbfbf" stroke="black" points="0,-44.5 0,-74.5 116,-74.5 116,-44.5 0,-44.5"/>
<text text-anchor="start" x="8" y="-62.5" font-family="Helvetica,sans-Serif" font-size="10.00">hdf5_module::init_track</text>
<text text-anchor="middle" x="58" y="-51.5" font-family="Helvetica,sans-Serif" font-size="10.00">_nuclei</text>
</a>
</g>
</g>
<!-- Node2 -->
<g id="node2" class="node">
<title>Node2</title>
<g id="a_node2"><a xlink:href="namespacehdf5__module.html#aaee7540701e1025315a58592932552cc" target="_top" xlink:title="Gets a dataset name and creates it.">
<polygon fill="white" stroke="black" points="161,-88.5 161,-118.5 265,-118.5 265,-88.5 161,-88.5"/>
<text text-anchor="start" x="169" y="-106.5" font-family="Helvetica,sans-Serif" font-size="10.00">hdf5_module::create</text>
<text text-anchor="middle" x="213" y="-95.5" font-family="Helvetica,sans-Serif" font-size="10.00">_1d_dataset</text>
</a>
</g>
</g>
<!-- Node1&#45;&gt;Node2 -->
<g id="edge1" class="edge">
<title>Node1&#45;&gt;Node2</title>
<path fill="none" stroke="midnightblue" d="M111.23,-74.52C123.99,-78.19 137.76,-82.15 150.89,-85.93"/>
<polygon fill="midnightblue" stroke="midnightblue" points="150.21,-89.37 160.79,-88.77 152.14,-82.64 150.21,-89.37"/>
</g>
<!-- Node3 -->
<g id="node3" class="node">
<title>Node3</title>
<g id="a_node3"><a xlink:href="namespaceerror__msg__class.html#a2453d3b7cb363115c046840baa1dfb75" target="_top" xlink:title="Raise a exception with a given error message.">
<polygon fill="white" stroke="black" points="310,-44.5 310,-74.5 424,-74.5 424,-44.5 310,-44.5"/>
<text text-anchor="start" x="318" y="-62.5" font-family="Helvetica,sans-Serif" font-size="10.00">error_msg_class::raise</text>
<text text-anchor="middle" x="367" y="-51.5" font-family="Helvetica,sans-Serif" font-size="10.00">_exception</text>
</a>
</g>
</g>
<!-- Node1&#45;&gt;Node3 -->
<g id="edge6" class="edge">
<title>Node1&#45;&gt;Node3</title>
<path fill="none" stroke="midnightblue" d="M116.02,-59.5C167.99,-59.5 244.77,-59.5 299.5,-59.5"/>
<polygon fill="midnightblue" stroke="midnightblue" points="299.8,-63 309.8,-59.5 299.8,-56 299.8,-63"/>
</g>
<!-- Node5 -->
<g id="node5" class="node">
<title>Node5</title>
<g id="a_node5"><a xlink:href="namespacehdf5__module.html#afbf1071900336a7ed8fcb9b8980a6682" target="_top" xlink:title="Create a hdf5 entry with constant values.">
<polygon fill="white" stroke="black" points="152,-0.5 152,-30.5 274,-30.5 274,-0.5 152,-0.5"/>
<text text-anchor="start" x="160" y="-18.5" font-family="Helvetica,sans-Serif" font-size="10.00">hdf5_module::create</text>
<text text-anchor="middle" x="213" y="-7.5" font-family="Helvetica,sans-Serif" font-size="10.00">_constant_1d_int_arrays</text>
</a>
</g>
</g>
<!-- Node1&#45;&gt;Node5 -->
<g id="edge4" class="edge">
<title>Node1&#45;&gt;Node5</title>
<path fill="none" stroke="midnightblue" d="M111.23,-44.48C123.71,-40.89 137.16,-37.02 150.04,-33.32"/>
<polygon fill="midnightblue" stroke="midnightblue" points="151.11,-36.65 159.75,-30.53 149.17,-29.93 151.11,-36.65"/>
</g>
<!-- Node2&#45;&gt;Node3 -->
<g id="edge2" class="edge">
<title>Node2&#45;&gt;Node3</title>
<path fill="none" stroke="midnightblue" d="M265.04,-88.73C277.61,-85.09 291.22,-81.15 304.24,-77.38"/>
<polygon fill="midnightblue" stroke="midnightblue" points="305.43,-80.68 314.06,-74.53 303.48,-73.95 305.43,-80.68"/>
</g>
<!-- Node4 -->
<g id="node4" class="node">
<title>Node4</title>
<g id="a_node4"><a xlink:href="namespaceerror__msg__class.html#a7e065585cc806a5c264de1f088266498" target="_top" xlink:title="Converts a given integer to a string.">
<polygon fill="white" stroke="black" points="460,-44.5 460,-74.5 564,-74.5 564,-44.5 460,-44.5"/>
<text text-anchor="start" x="468" y="-62.5" font-family="Helvetica,sans-Serif" font-size="10.00">error_msg_class::int</text>
<text text-anchor="middle" x="512" y="-51.5" font-family="Helvetica,sans-Serif" font-size="10.00">_to_str</text>
</a>
</g>
</g>
<!-- Node3&#45;&gt;Node4 -->
<g id="edge3" class="edge">
<title>Node3&#45;&gt;Node4</title>
<path fill="none" stroke="midnightblue" d="M424.11,-59.5C432.45,-59.5 441.09,-59.5 449.54,-59.5"/>
<polygon fill="midnightblue" stroke="midnightblue" points="449.71,-63 459.71,-59.5 449.71,-56 449.71,-63"/>
</g>
<!-- Node5&#45;&gt;Node3 -->
<g id="edge5" class="edge">
<title>Node5&#45;&gt;Node3</title>
<path fill="none" stroke="midnightblue" d="M265.88,-30.52C278.29,-34.11 291.65,-37.98 304.44,-41.68"/>
<polygon fill="midnightblue" stroke="midnightblue" points="303.51,-45.06 314.09,-44.47 305.46,-38.33 303.51,-45.06"/>
</g>
</g>
</svg>
