<?xml version="1.0" encoding="UTF-8" standalone="no"?>
<!DOCTYPE svg PUBLIC "-//W3C//DTD SVG 1.1//EN"
 "http://www.w3.org/Graphics/SVG/1.1/DTD/svg11.dtd">
<!-- Generated by graphviz version 2.44.0 ()
 -->
<!-- Title: tw_rate_module::merge_theoretical_weak_rates Pages: 1 -->
<svg width="599pt" height="91pt"
 viewBox="0.00 0.00 599.00 90.50" xmlns="http://www.w3.org/2000/svg" xmlns:xlink="http://www.w3.org/1999/xlink">
<g id="graph0" class="graph" transform="scale(1 1) rotate(0) translate(4 86.5)">
<title>tw_rate_module::merge_theoretical_weak_rates</title>
<polygon fill="white" stroke="transparent" points="-4,4 -4,-86.5 595,-86.5 595,4 -4,4"/>
<!-- Node1 -->
<g id="node1" class="node">
<title>Node1</title>
<g id="a_node1"><a xlink:title="Merge theoretical weak rates into larger rate array.">
<polygon fill="#bfbfbf" stroke="black" points="0,-33 0,-63 122,-63 122,-33 0,-33"/>
<text text-anchor="start" x="8" y="-51" font-family="Helvetica,sans-Serif" font-size="10.00">tw_rate_module::merge</text>
<text text-anchor="middle" x="61" y="-40" font-family="Helvetica,sans-Serif" font-size="10.00">_theoretical_weak_rates</text>
</a>
</g>
</g>
<!-- Node2 -->
<g id="node2" class="node">
<title>Node2</title>
<g id="a_node2"><a xlink:href="namespaceerror__msg__class.html#a2453d3b7cb363115c046840baa1dfb75" target="_top" xlink:title="Raise a exception with a given error message.">
<polygon fill="white" stroke="black" points="337,-52 337,-82 451,-82 451,-52 337,-52"/>
<text text-anchor="start" x="345" y="-70" font-family="Helvetica,sans-Serif" font-size="10.00">error_msg_class::raise</text>
<text text-anchor="middle" x="394" y="-59" font-family="Helvetica,sans-Serif" font-size="10.00">_exception</text>
</a>
</g>
</g>
<!-- Node1&#45;&gt;Node2 -->
<g id="edge1" class="edge">
<title>Node1&#45;&gt;Node2</title>
<path fill="none" stroke="midnightblue" d="M122.16,-61.77C133.98,-63.95 146.33,-65.86 158,-67 214.74,-72.56 279.56,-72.05 326.73,-70.44"/>
<polygon fill="midnightblue" stroke="midnightblue" points="326.96,-73.93 336.82,-70.07 326.7,-66.94 326.96,-73.93"/>
</g>
<!-- Node4 -->
<g id="node4" class="node">
<title>Node4</title>
<g id="a_node4"><a xlink:href="namespacemergesort__module.html#abf490436dad94120a2c99efc036f2b1b" target="_top" xlink:title="Merges two tables of rates (of type global_class::reactionrate_type).">
<polygon fill="white" stroke="black" points="159.5,-38.5 159.5,-57.5 299.5,-57.5 299.5,-38.5 159.5,-38.5"/>
<text text-anchor="middle" x="229.5" y="-45.5" font-family="Helvetica,sans-Serif" font-size="10.00">mergesort_module::rrate_ms</text>
</a>
</g>
</g>
<!-- Node1&#45;&gt;Node4 -->
<g id="edge3" class="edge">
<title>Node1&#45;&gt;Node4</title>
<path fill="none" stroke="midnightblue" d="M122.11,-48C130.91,-48 140.08,-48 149.19,-48"/>
<polygon fill="midnightblue" stroke="midnightblue" points="149.43,-51.5 159.43,-48 149.43,-44.5 149.43,-51.5"/>
</g>
<!-- Node5 -->
<g id="node5" class="node">
<title>Node5</title>
<g id="a_node5"><a xlink:href="namespacemergesort__module.html#a350624bb77af754147cd68332b16b9e5" target="_top" xlink:title="Sorts chapter one of the rate array.">
<polygon fill="white" stroke="black" points="158,-0.5 158,-19.5 301,-19.5 301,-0.5 158,-0.5"/>
<text text-anchor="middle" x="229.5" y="-7.5" font-family="Helvetica,sans-Serif" font-size="10.00">mergesort_module::rrate_sort</text>
</a>
</g>
</g>
<!-- Node1&#45;&gt;Node5 -->
<g id="edge5" class="edge">
<title>Node1&#45;&gt;Node5</title>
<path fill="none" stroke="midnightblue" d="M122.11,-34.28C140.02,-30.19 159.48,-25.75 176.8,-21.8"/>
<polygon fill="midnightblue" stroke="midnightblue" points="177.76,-25.17 186.73,-19.53 176.2,-18.35 177.76,-25.17"/>
</g>
<!-- Node3 -->
<g id="node3" class="node">
<title>Node3</title>
<g id="a_node3"><a xlink:href="namespaceerror__msg__class.html#a7e065585cc806a5c264de1f088266498" target="_top" xlink:title="Converts a given integer to a string.">
<polygon fill="white" stroke="black" points="487,-52 487,-82 591,-82 591,-52 487,-52"/>
<text text-anchor="start" x="495" y="-70" font-family="Helvetica,sans-Serif" font-size="10.00">error_msg_class::int</text>
<text text-anchor="middle" x="539" y="-59" font-family="Helvetica,sans-Serif" font-size="10.00">_to_str</text>
</a>
</g>
</g>
<!-- Node2&#45;&gt;Node3 -->
<g id="edge2" class="edge">
<title>Node2&#45;&gt;Node3</title>
<path fill="none" stroke="midnightblue" d="M451.11,-67C459.45,-67 468.09,-67 476.54,-67"/>
<polygon fill="midnightblue" stroke="midnightblue" points="476.71,-70.5 486.71,-67 476.71,-63.5 476.71,-70.5"/>
</g>
<!-- Node4&#45;&gt;Node2 -->
<g id="edge4" class="edge">
<title>Node4&#45;&gt;Node2</title>
<path fill="none" stroke="midnightblue" d="M299.89,-56.11C308.75,-57.15 317.81,-58.21 326.63,-59.24"/>
<polygon fill="midnightblue" stroke="midnightblue" points="326.5,-62.75 336.84,-60.43 327.32,-55.8 326.5,-62.75"/>
</g>
</g>
</svg>
