<?xml version="1.0" encoding="UTF-8" standalone="no"?>
<!DOCTYPE svg PUBLIC "-//W3C//DTD SVG 1.1//EN"
 "http://www.w3.org/Graphics/SVG/1.1/DTD/svg11.dtd">
<!-- Generated by graphviz version 2.44.0 ()
 -->
<!-- Title: nuflux_class::nutemp Pages: 1 -->
<svg width="1034pt" height="437pt"
 viewBox="0.00 0.00 1034.00 436.87" xmlns="http://www.w3.org/2000/svg" xmlns:xlink="http://www.w3.org/1999/xlink">
<g id="graph0" class="graph" transform="scale(1 1) rotate(0) translate(4 432.87)">
<title>nuflux_class::nutemp</title>
<polygon fill="white" stroke="transparent" points="-4,4 -4,-432.87 1030,-432.87 1030,4 -4,4"/>
<!-- Node1 -->
<g id="node1" class="node">
<title>Node1</title>
<g id="a_node1"><a xlink:title="Calculates (anti&#45;) neutrino temperatures.">
<polygon fill="#bfbfbf" stroke="black" points="0,-214 0,-233 107,-233 107,-214 0,-214"/>
<text text-anchor="middle" x="53.5" y="-221" font-family="Helvetica,sans-Serif" font-size="10.00">nuflux_class::nutemp</text>
</a>
</g>
</g>
<!-- Node2 -->
<g id="node2" class="node">
<title>Node2</title>
<g id="a_node2"><a xlink:href="namespaceparser__module.html#a4b68bd8515796701c2b006fe79a0b162" target="_top" xlink:title="Takes a string and evaluates the expression.">
<polygon fill="white" stroke="black" points="143,-208.5 143,-238.5 252,-238.5 252,-208.5 143,-208.5"/>
<text text-anchor="start" x="151" y="-226.5" font-family="Helvetica,sans-Serif" font-size="10.00">parser_module::parse</text>
<text text-anchor="middle" x="197.5" y="-215.5" font-family="Helvetica,sans-Serif" font-size="10.00">_string</text>
</a>
</g>
</g>
<!-- Node1&#45;&gt;Node2 -->
<g id="edge1" class="edge">
<title>Node1&#45;&gt;Node2</title>
<path fill="none" stroke="midnightblue" d="M107.38,-223.5C115.56,-223.5 124.09,-223.5 132.49,-223.5"/>
<polygon fill="midnightblue" stroke="midnightblue" points="132.63,-227 142.63,-223.5 132.63,-220 132.63,-227"/>
</g>
<!-- Node3 -->
<g id="node3" class="node">
<title>Node3</title>
<g id="a_node3"><a xlink:href="namespaceparser__module.html#a5c583c26539a886921a9067fa425bc9c" target="_top" xlink:title="Evaluate a complex string expression.">
<polygon fill="white" stroke="black" points="288,-214 288,-233 410,-233 410,-214 288,-214"/>
<text text-anchor="middle" x="349" y="-221" font-family="Helvetica,sans-Serif" font-size="10.00">parser_module::evaluate</text>
</a>
</g>
</g>
<!-- Node2&#45;&gt;Node3 -->
<g id="edge2" class="edge">
<title>Node2&#45;&gt;Node3</title>
<path fill="none" stroke="midnightblue" d="M252.05,-223.5C260.42,-223.5 269.18,-223.5 277.85,-223.5"/>
<polygon fill="midnightblue" stroke="midnightblue" points="277.97,-227 287.97,-223.5 277.97,-220 277.97,-227"/>
</g>
<!-- Node4 -->
<g id="node4" class="node">
<title>Node4</title>
<g id="a_node4"><a xlink:href="namespaceparser__module.html#ad50643e6694300972743edc44679fbf7" target="_top" xlink:title="Function to perform a function operations.">
<polygon fill="white" stroke="black" points="452.5,-390.5 452.5,-420.5 555.5,-420.5 555.5,-390.5 452.5,-390.5"/>
<text text-anchor="start" x="460.5" y="-408.5" font-family="Helvetica,sans-Serif" font-size="10.00">parser_module::eval</text>
<text text-anchor="middle" x="504" y="-397.5" font-family="Helvetica,sans-Serif" font-size="10.00">_function</text>
</a>
</g>
</g>
<!-- Node3&#45;&gt;Node4 -->
<g id="edge3" class="edge">
<title>Node3&#45;&gt;Node4</title>
<path fill="none" stroke="midnightblue" d="M358.23,-233.29C381.8,-261.33 450.07,-342.54 483.75,-382.6"/>
<polygon fill="midnightblue" stroke="midnightblue" points="481.08,-384.86 490.19,-390.27 486.44,-380.36 481.08,-384.86"/>
</g>
<!-- Node7 -->
<g id="node7" class="node">
<title>Node7</title>
<g id="a_node7"><a xlink:href="namespaceparser__module.html#ae4ed3c6a08e74ffd03282ee7c30d8194" target="_top" xlink:title="Evaluate a simple string expression, without brackets and functions.">
<polygon fill="white" stroke="black" points="455,-276.5 455,-306.5 553,-306.5 553,-276.5 455,-276.5"/>
<text text-anchor="start" x="463" y="-294.5" font-family="Helvetica,sans-Serif" font-size="10.00">parser_module::get</text>
<text text-anchor="middle" x="504" y="-283.5" font-family="Helvetica,sans-Serif" font-size="10.00">_simple_result</text>
</a>
</g>
</g>
<!-- Node3&#45;&gt;Node7 -->
<g id="edge6" class="edge">
<title>Node3&#45;&gt;Node7</title>
<path fill="none" stroke="midnightblue" d="M371.6,-233.1C394.39,-243.23 430.93,-259.47 459.7,-272.25"/>
<polygon fill="midnightblue" stroke="midnightblue" points="458.56,-275.58 469.12,-276.44 461.41,-269.18 458.56,-275.58"/>
</g>
<!-- Node12 -->
<g id="node12" class="node">
<title>Node12</title>
<g id="a_node12"><a xlink:href="namespaceparser__module.html#a4b73870fbca7e3195b5d1efc61c3f039" target="_top" xlink:title="Function to decide whether a character is a number or not (i.e., 0&#45;9).">
<polygon fill="white" stroke="black" points="446,-214 446,-233 562,-233 562,-214 446,-214"/>
<text text-anchor="middle" x="504" y="-221" font-family="Helvetica,sans-Serif" font-size="10.00">parser_module::is_digit</text>
</a>
</g>
</g>
<!-- Node3&#45;&gt;Node12 -->
<g id="edge13" class="edge">
<title>Node3&#45;&gt;Node12</title>
<path fill="none" stroke="midnightblue" d="M410.03,-223.5C418.36,-223.5 426.97,-223.5 435.43,-223.5"/>
<polygon fill="midnightblue" stroke="midnightblue" points="435.64,-227 445.64,-223.5 435.64,-220 435.64,-227"/>
</g>
<!-- Node13 -->
<g id="node13" class="node">
<title>Node13</title>
<g id="a_node13"><a xlink:href="namespaceparser__module.html#af9cbf87119ef07db357b3240c716e462" target="_top" xlink:title="Function to decide whether a character is a mathematical operator or not. Functions (as e....">
<polygon fill="white" stroke="black" points="600.5,-176 600.5,-195 733.5,-195 733.5,-176 600.5,-176"/>
<text text-anchor="middle" x="667" y="-183" font-family="Helvetica,sans-Serif" font-size="10.00">parser_module::is_operator</text>
</a>
</g>
</g>
<!-- Node3&#45;&gt;Node13 -->
<g id="edge14" class="edge">
<title>Node3&#45;&gt;Node13</title>
<path fill="none" stroke="midnightblue" d="M392.84,-213.98C409.38,-210.58 428.51,-206.98 446,-204.5 493.79,-197.73 547.79,-193.02 590.33,-189.99"/>
<polygon fill="midnightblue" stroke="midnightblue" points="590.6,-193.48 600.33,-189.29 590.11,-186.49 590.6,-193.48"/>
</g>
<!-- Node14 -->
<g id="node14" class="node">
<title>Node14</title>
<g id="a_node14"><a xlink:href="namespaceparser__module.html#a3441e2e009e491fac044cc02bc9b144d" target="_top" xlink:title="Store mathematical operators (+&#45;*/) and numbers in arrays.">
<polygon fill="white" stroke="black" points="450.5,-107.5 450.5,-137.5 557.5,-137.5 557.5,-107.5 450.5,-107.5"/>
<text text-anchor="start" x="458.5" y="-125.5" font-family="Helvetica,sans-Serif" font-size="10.00">parser_module::store</text>
<text text-anchor="middle" x="504" y="-114.5" font-family="Helvetica,sans-Serif" font-size="10.00">_digits_operator</text>
</a>
</g>
</g>
<!-- Node3&#45;&gt;Node14 -->
<g id="edge15" class="edge">
<title>Node3&#45;&gt;Node14</title>
<path fill="none" stroke="midnightblue" d="M364.39,-214C388.84,-197.86 439.01,-164.74 471.81,-143.09"/>
<polygon fill="midnightblue" stroke="midnightblue" points="473.74,-146.01 480.15,-137.58 469.88,-140.17 473.74,-146.01"/>
</g>
<!-- Node5 -->
<g id="node5" class="node">
<title>Node5</title>
<g id="a_node5"><a xlink:href="namespaceerror__msg__class.html#a2453d3b7cb363115c046840baa1dfb75" target="_top" xlink:title="Raise a exception with a given error message.">
<polygon fill="white" stroke="black" points="772,-301.5 772,-331.5 886,-331.5 886,-301.5 772,-301.5"/>
<text text-anchor="start" x="780" y="-319.5" font-family="Helvetica,sans-Serif" font-size="10.00">error_msg_class::raise</text>
<text text-anchor="middle" x="829" y="-308.5" font-family="Helvetica,sans-Serif" font-size="10.00">_exception</text>
</a>
</g>
</g>
<!-- Node4&#45;&gt;Node5 -->
<g id="edge4" class="edge">
<title>Node4&#45;&gt;Node5</title>
<path fill="none" stroke="midnightblue" d="M555.93,-418.92C604.31,-428.99 678.06,-437.22 736,-412.5 770.11,-397.94 797.65,-363.84 813.42,-340.47"/>
<polygon fill="midnightblue" stroke="midnightblue" points="816.54,-342.08 819.07,-331.79 810.68,-338.26 816.54,-342.08"/>
</g>
<!-- Node6 -->
<g id="node6" class="node">
<title>Node6</title>
<g id="a_node6"><a xlink:href="namespaceerror__msg__class.html#a7e065585cc806a5c264de1f088266498" target="_top" xlink:title="Converts a given integer to a string.">
<polygon fill="white" stroke="black" points="922,-301.5 922,-331.5 1026,-331.5 1026,-301.5 922,-301.5"/>
<text text-anchor="start" x="930" y="-319.5" font-family="Helvetica,sans-Serif" font-size="10.00">error_msg_class::int</text>
<text text-anchor="middle" x="974" y="-308.5" font-family="Helvetica,sans-Serif" font-size="10.00">_to_str</text>
</a>
</g>
</g>
<!-- Node5&#45;&gt;Node6 -->
<g id="edge5" class="edge">
<title>Node5&#45;&gt;Node6</title>
<path fill="none" stroke="midnightblue" d="M886.11,-316.5C894.45,-316.5 903.09,-316.5 911.54,-316.5"/>
<polygon fill="midnightblue" stroke="midnightblue" points="911.71,-320 921.71,-316.5 911.71,-313 911.71,-320"/>
</g>
<!-- Node7&#45;&gt;Node5 -->
<g id="edge12" class="edge">
<title>Node7&#45;&gt;Node5</title>
<path fill="none" stroke="midnightblue" d="M513.71,-306.88C527.89,-330.14 558.39,-373.36 598,-390.5 654.29,-414.85 678.15,-410.88 736,-390.5 764.67,-380.4 790.99,-357.17 808.07,-339.41"/>
<polygon fill="midnightblue" stroke="midnightblue" points="810.99,-341.41 815.24,-331.71 805.87,-336.64 810.99,-341.41"/>
</g>
<!-- Node8 -->
<g id="node8" class="node">
<title>Node8</title>
<g id="a_node8"><a xlink:href="namespaceparser__module.html#a2cfd49c431619a7d7ded68e9f89bee70" target="_top" xlink:title="Function to decide whether a character is &quot;*&quot; or &quot;/&quot;.">
<polygon fill="white" stroke="black" points="611.5,-350.5 611.5,-380.5 722.5,-380.5 722.5,-350.5 611.5,-350.5"/>
<text text-anchor="start" x="619.5" y="-368.5" font-family="Helvetica,sans-Serif" font-size="10.00">parser_module::is_dot</text>
<text text-anchor="middle" x="667" y="-357.5" font-family="Helvetica,sans-Serif" font-size="10.00">_operator</text>
</a>
</g>
</g>
<!-- Node7&#45;&gt;Node8 -->
<g id="edge7" class="edge">
<title>Node7&#45;&gt;Node8</title>
<path fill="none" stroke="midnightblue" d="M530.52,-306.6C548.91,-317.14 574.53,-331.12 598,-341.5 602.1,-343.31 606.39,-345.09 610.73,-346.81"/>
<polygon fill="midnightblue" stroke="midnightblue" points="609.67,-350.15 620.26,-350.45 612.17,-343.61 609.67,-350.15"/>
</g>
<!-- Node9 -->
<g id="node9" class="node">
<title>Node9</title>
<g id="a_node9"><a xlink:href="namespaceparser__module.html#ae2806c52d9868da3855d28c188a1679e" target="_top" xlink:title="Function to decide whether a character is a &quot;+&quot; or &quot;&#45;&quot;.">
<polygon fill="white" stroke="black" points="610.5,-301.5 610.5,-331.5 723.5,-331.5 723.5,-301.5 610.5,-301.5"/>
<text text-anchor="start" x="618.5" y="-319.5" font-family="Helvetica,sans-Serif" font-size="10.00">parser_module::is_line</text>
<text text-anchor="middle" x="667" y="-308.5" font-family="Helvetica,sans-Serif" font-size="10.00">_operator</text>
</a>
</g>
</g>
<!-- Node7&#45;&gt;Node9 -->
<g id="edge8" class="edge">
<title>Node7&#45;&gt;Node9</title>
<path fill="none" stroke="midnightblue" d="M553.31,-299C568.05,-301.29 584.51,-303.85 600.2,-306.28"/>
<polygon fill="midnightblue" stroke="midnightblue" points="599.96,-309.79 610.38,-307.86 601.03,-302.87 599.96,-309.79"/>
</g>
<!-- Node10 -->
<g id="node10" class="node">
<title>Node10</title>
<g id="a_node10"><a xlink:href="namespaceparser__module.html#a55c1c7aac46e95ec6634aa8a514a90b0" target="_top" xlink:title="Function to decide whether a character is a &quot;^&quot;.">
<polygon fill="white" stroke="black" points="605,-252.5 605,-282.5 729,-282.5 729,-252.5 605,-252.5"/>
<text text-anchor="start" x="613" y="-270.5" font-family="Helvetica,sans-Serif" font-size="10.00">parser_module::is_power</text>
<text text-anchor="middle" x="667" y="-259.5" font-family="Helvetica,sans-Serif" font-size="10.00">_operator</text>
</a>
</g>
</g>
<!-- Node7&#45;&gt;Node10 -->
<g id="edge9" class="edge">
<title>Node7&#45;&gt;Node10</title>
<path fill="none" stroke="midnightblue" d="M553.31,-284.3C566.35,-282.35 580.74,-280.21 594.76,-278.12"/>
<polygon fill="midnightblue" stroke="midnightblue" points="595.49,-281.55 604.87,-276.61 594.46,-274.63 595.49,-281.55"/>
</g>
<!-- Node11 -->
<g id="node11" class="node">
<title>Node11</title>
<g id="a_node11"><a xlink:href="namespaceparser__module.html#a2040007bd269f7920bcfee6840eb41de" target="_top" xlink:title="Function to perform a simple mathematical operation.">
<polygon fill="white" stroke="black" points="604.5,-214 604.5,-233 729.5,-233 729.5,-214 604.5,-214"/>
<text text-anchor="middle" x="667" y="-221" font-family="Helvetica,sans-Serif" font-size="10.00">parser_module::operation</text>
</a>
</g>
</g>
<!-- Node7&#45;&gt;Node11 -->
<g id="edge10" class="edge">
<title>Node7&#45;&gt;Node11</title>
<path fill="none" stroke="midnightblue" d="M530.83,-276.47C549.15,-266.24 574.56,-252.9 598,-243.5 604.75,-240.79 612.01,-238.27 619.19,-235.99"/>
<polygon fill="midnightblue" stroke="midnightblue" points="620.32,-239.3 628.86,-233.04 618.28,-232.61 620.32,-239.3"/>
</g>
<!-- Node11&#45;&gt;Node5 -->
<g id="edge11" class="edge">
<title>Node11&#45;&gt;Node5</title>
<path fill="none" stroke="midnightblue" d="M709.98,-233.1C718.82,-235.87 727.92,-239.31 736,-243.5 761.9,-256.93 787.59,-278.15 805.21,-294.26"/>
<polygon fill="midnightblue" stroke="midnightblue" points="803.01,-297 812.71,-301.26 807.78,-291.88 803.01,-297"/>
</g>
<!-- Node14&#45;&gt;Node5 -->
<g id="edge20" class="edge">
<title>Node14&#45;&gt;Node5</title>
<path fill="none" stroke="midnightblue" d="M557.59,-127.56C616.58,-134.08 707.7,-146.95 736,-166.5 780.65,-197.34 807.63,-257.6 819.97,-291.6"/>
<polygon fill="midnightblue" stroke="midnightblue" points="816.73,-292.96 823.33,-301.25 823.34,-290.66 816.73,-292.96"/>
</g>
<!-- Node14&#45;&gt;Node13 -->
<g id="edge17" class="edge">
<title>Node14&#45;&gt;Node13</title>
<path fill="none" stroke="midnightblue" d="M539.7,-137.61C557.1,-145.05 578.56,-154 598,-161.5 607.72,-165.25 618.31,-169.1 628.18,-172.59"/>
<polygon fill="midnightblue" stroke="midnightblue" points="627.15,-175.94 637.74,-175.94 629.46,-169.33 627.15,-175.94"/>
</g>
<!-- Node15 -->
<g id="node15" class="node">
<title>Node15</title>
<g id="a_node15"><a xlink:href="namespaceparser__module.html#ad490bd346a873a280de4d7d6f343d588" target="_top" xlink:title="Function to define constants.">
<polygon fill="white" stroke="black" points="606,-88.5 606,-118.5 728,-118.5 728,-88.5 606,-88.5"/>
<text text-anchor="start" x="614" y="-106.5" font-family="Helvetica,sans-Serif" font-size="10.00">parser_module::common</text>
<text text-anchor="middle" x="667" y="-95.5" font-family="Helvetica,sans-Serif" font-size="10.00">_variables</text>
</a>
</g>
</g>
<!-- Node14&#45;&gt;Node15 -->
<g id="edge16" class="edge">
<title>Node14&#45;&gt;Node15</title>
<path fill="none" stroke="midnightblue" d="M557.72,-116.28C569.87,-114.84 582.99,-113.3 595.77,-111.79"/>
<polygon fill="midnightblue" stroke="midnightblue" points="596.39,-115.24 605.91,-110.59 595.57,-108.29 596.39,-115.24"/>
</g>
<!-- Node16 -->
<g id="node16" class="node">
<title>Node16</title>
<g id="a_node16"><a xlink:href="namespaceparser__module.html#a7d1134a2461b12dc17514a1970d6b00b" target="_top" xlink:title="Function to decide whether a character can be associated with a number.">
<polygon fill="white" stroke="black" points="598,-50 598,-69 736,-69 736,-50 598,-50"/>
<text text-anchor="middle" x="667" y="-57" font-family="Helvetica,sans-Serif" font-size="10.00">parser_module::is_separator</text>
</a>
</g>
</g>
<!-- Node14&#45;&gt;Node16 -->
<g id="edge18" class="edge">
<title>Node14&#45;&gt;Node16</title>
<path fill="none" stroke="midnightblue" d="M533.77,-107.33C551.88,-98.18 575.91,-86.74 598,-78.5 604.33,-76.14 611.08,-73.91 617.78,-71.88"/>
<polygon fill="midnightblue" stroke="midnightblue" points="618.9,-75.2 627.51,-69.03 616.93,-68.48 618.9,-75.2"/>
</g>
<!-- Node17 -->
<g id="node17" class="node">
<title>Node17</title>
<g id="a_node17"><a xlink:href="namespaceparser__module.html#afbaa22752e33bc2ac2a3437adb34ea52" target="_top" xlink:title="Subroutine to check the parsing string for consistency and correct it.">
<polygon fill="white" stroke="black" points="612.5,-0.5 612.5,-30.5 721.5,-30.5 721.5,-0.5 612.5,-0.5"/>
<text text-anchor="start" x="620.5" y="-18.5" font-family="Helvetica,sans-Serif" font-size="10.00">parser_module::make</text>
<text text-anchor="middle" x="667" y="-7.5" font-family="Helvetica,sans-Serif" font-size="10.00">_pars_str_consistent</text>
</a>
</g>
</g>
<!-- Node14&#45;&gt;Node17 -->
<g id="edge19" class="edge">
<title>Node14&#45;&gt;Node17</title>
<path fill="none" stroke="midnightblue" d="M518.79,-107.3C535.87,-89.25 566.57,-59.23 598,-40.5 601.43,-38.46 605.05,-36.54 608.76,-34.74"/>
<polygon fill="midnightblue" stroke="midnightblue" points="610.45,-37.82 618.14,-30.53 607.58,-31.44 610.45,-37.82"/>
</g>
</g>
</svg>
