<?xml version="1.0" encoding="UTF-8" standalone="no"?>
<!DOCTYPE svg PUBLIC "-//W3C//DTD SVG 1.1//EN"
 "http://www.w3.org/Graphics/SVG/1.1/DTD/svg11.dtd">
<!-- Generated by graphviz version 2.44.0 ()
 -->
<!-- Title: alpha_decay_rate_module::create_verbose_output_file Pages: 1 -->
<svg width="776pt" height="170pt"
 viewBox="0.00 0.00 776.00 170.00" xmlns="http://www.w3.org/2000/svg" xmlns:xlink="http://www.w3.org/1999/xlink">
<g id="graph0" class="graph" transform="scale(1 1) rotate(0) translate(4 166)">
<title>alpha_decay_rate_module::create_verbose_output_file</title>
<polygon fill="white" stroke="transparent" points="-4,4 -4,-166 772,-166 772,4 -4,4"/>
<!-- Node1 -->
<g id="node1" class="node">
<title>Node1</title>
<g id="a_node1"><a xlink:title="Creates a file with the decays.">
<polygon fill="#bfbfbf" stroke="black" points="0,-65.5 0,-95.5 137,-95.5 137,-65.5 0,-65.5"/>
<text text-anchor="start" x="8" y="-83.5" font-family="Helvetica,sans-Serif" font-size="10.00">alpha_decay_rate_module</text>
<text text-anchor="middle" x="68.5" y="-72.5" font-family="Helvetica,sans-Serif" font-size="10.00">::create_verbose_output_file</text>
</a>
</g>
</g>
<!-- Node2 -->
<g id="node2" class="node">
<title>Node2</title>
<g id="a_node2"><a xlink:href="namespacefile__handling__class.html#aeddf55e8478d6220dc04310665427c3a" target="_top" xlink:title="Shorthand for opening a new file for writing (output file)">
<polygon fill="white" stroke="black" points="188.5,-90.5 188.5,-120.5 286.5,-120.5 286.5,-90.5 188.5,-90.5"/>
<text text-anchor="start" x="196.5" y="-108.5" font-family="Helvetica,sans-Serif" font-size="10.00">file_handling_class</text>
<text text-anchor="middle" x="237.5" y="-97.5" font-family="Helvetica,sans-Serif" font-size="10.00">::open_outfile</text>
</a>
</g>
</g>
<!-- Node1&#45;&gt;Node2 -->
<g id="edge1" class="edge">
<title>Node1&#45;&gt;Node2</title>
<path fill="none" stroke="midnightblue" d="M137.43,-90.67C151.03,-92.7 165.2,-94.83 178.43,-96.81"/>
<polygon fill="midnightblue" stroke="midnightblue" points="177.93,-100.27 188.34,-98.29 178.97,-93.35 177.93,-100.27"/>
</g>
<!-- Node6 -->
<g id="node6" class="node">
<title>Node6</title>
<g id="a_node6"><a xlink:href="namespacealpha__decay__rate__module.html#a8bd6b70a7807f48b1c1fef2b852460dd" target="_top" xlink:title="Return a string to represent a given reaction.">
<polygon fill="white" stroke="black" points="173,-41.5 173,-71.5 302,-71.5 302,-41.5 173,-41.5"/>
<text text-anchor="start" x="181" y="-59.5" font-family="Helvetica,sans-Serif" font-size="10.00">alpha_decay_rate_module</text>
<text text-anchor="middle" x="237.5" y="-48.5" font-family="Helvetica,sans-Serif" font-size="10.00">::reaction_string</text>
</a>
</g>
</g>
<!-- Node1&#45;&gt;Node6 -->
<g id="edge6" class="edge">
<title>Node1&#45;&gt;Node6</title>
<path fill="none" stroke="midnightblue" d="M137.43,-70.74C145.86,-69.53 154.52,-68.28 163.04,-67.06"/>
<polygon fill="midnightblue" stroke="midnightblue" points="163.55,-70.52 172.95,-65.63 162.55,-63.59 163.55,-70.52"/>
</g>
<!-- Node3 -->
<g id="node3" class="node">
<title>Node3</title>
<g id="a_node3"><a xlink:href="namespacefile__handling__class.html#af02196bd5eaf70ecd5ab4cc650094d5e" target="_top" xlink:title="Finds the next unused unit number.">
<polygon fill="white" stroke="black" points="359,-131.5 359,-161.5 457,-161.5 457,-131.5 359,-131.5"/>
<text text-anchor="start" x="367" y="-149.5" font-family="Helvetica,sans-Serif" font-size="10.00">file_handling_class</text>
<text text-anchor="middle" x="408" y="-138.5" font-family="Helvetica,sans-Serif" font-size="10.00">::get_next_io_unit</text>
</a>
</g>
</g>
<!-- Node2&#45;&gt;Node3 -->
<g id="edge2" class="edge">
<title>Node2&#45;&gt;Node3</title>
<path fill="none" stroke="midnightblue" d="M286.79,-117.25C306.26,-121.99 328.89,-127.49 349.22,-132.44"/>
<polygon fill="midnightblue" stroke="midnightblue" points="348.46,-135.86 359,-134.82 350.11,-129.06 348.46,-135.86"/>
</g>
<!-- Node4 -->
<g id="node4" class="node">
<title>Node4</title>
<g id="a_node4"><a xlink:href="namespaceerror__msg__class.html#a2453d3b7cb363115c046840baa1dfb75" target="_top" xlink:title="Raise a exception with a given error message.">
<polygon fill="white" stroke="black" points="514,-109.5 514,-139.5 628,-139.5 628,-109.5 514,-109.5"/>
<text text-anchor="start" x="522" y="-127.5" font-family="Helvetica,sans-Serif" font-size="10.00">error_msg_class::raise</text>
<text text-anchor="middle" x="571" y="-116.5" font-family="Helvetica,sans-Serif" font-size="10.00">_exception</text>
</a>
</g>
</g>
<!-- Node2&#45;&gt;Node4 -->
<g id="edge5" class="edge">
<title>Node2&#45;&gt;Node4</title>
<path fill="none" stroke="midnightblue" d="M286.7,-108.26C343.98,-111.55 439.82,-117.04 503.97,-120.72"/>
<polygon fill="midnightblue" stroke="midnightblue" points="503.79,-124.21 513.98,-121.29 504.19,-117.22 503.79,-124.21"/>
</g>
<!-- Node3&#45;&gt;Node4 -->
<g id="edge3" class="edge">
<title>Node3&#45;&gt;Node4</title>
<path fill="none" stroke="midnightblue" d="M457.31,-139.9C471.89,-137.91 488.17,-135.68 503.72,-133.56"/>
<polygon fill="midnightblue" stroke="midnightblue" points="504.37,-137 513.8,-132.18 503.42,-130.07 504.37,-137"/>
</g>
<!-- Node5 -->
<g id="node5" class="node">
<title>Node5</title>
<g id="a_node5"><a xlink:href="namespaceerror__msg__class.html#a7e065585cc806a5c264de1f088266498" target="_top" xlink:title="Converts a given integer to a string.">
<polygon fill="white" stroke="black" points="664,-109.5 664,-139.5 768,-139.5 768,-109.5 664,-109.5"/>
<text text-anchor="start" x="672" y="-127.5" font-family="Helvetica,sans-Serif" font-size="10.00">error_msg_class::int</text>
<text text-anchor="middle" x="716" y="-116.5" font-family="Helvetica,sans-Serif" font-size="10.00">_to_str</text>
</a>
</g>
</g>
<!-- Node4&#45;&gt;Node5 -->
<g id="edge4" class="edge">
<title>Node4&#45;&gt;Node5</title>
<path fill="none" stroke="midnightblue" d="M628.11,-124.5C636.45,-124.5 645.09,-124.5 653.54,-124.5"/>
<polygon fill="midnightblue" stroke="midnightblue" points="653.71,-128 663.71,-124.5 653.71,-121 653.71,-128"/>
</g>
<!-- Node7 -->
<g id="node7" class="node">
<title>Node7</title>
<g id="a_node7"><a xlink:href="namespacebenam__class.html#afd880df70f94c289b6bda0647f4494e3" target="_top" xlink:title="Getter of net_names, translating indices to a nucleus name.">
<polygon fill="white" stroke="black" points="338,-50 338,-69 478,-69 478,-50 338,-50"/>
<text text-anchor="middle" x="408" y="-57" font-family="Helvetica,sans-Serif" font-size="10.00">benam_class::get_net_name</text>
</a>
</g>
</g>
<!-- Node6&#45;&gt;Node7 -->
<g id="edge7" class="edge">
<title>Node6&#45;&gt;Node7</title>
<path fill="none" stroke="midnightblue" d="M302.2,-57.63C310.58,-57.78 319.24,-57.94 327.83,-58.09"/>
<polygon fill="midnightblue" stroke="midnightblue" points="327.8,-61.59 337.86,-58.27 327.92,-54.59 327.8,-61.59"/>
</g>
<!-- Node8 -->
<g id="node8" class="node">
<title>Node8</title>
<g id="a_node8"><a xlink:href="namespaceerror__msg__class.html#a5bc9f3b670b725cc43276934b867d801" target="_top" xlink:title="Converts a given real to a string with format &quot;(1pE10.2)&quot;.">
<polygon fill="white" stroke="black" points="352,-0.5 352,-30.5 464,-30.5 464,-0.5 352,-0.5"/>
<text text-anchor="start" x="360" y="-18.5" font-family="Helvetica,sans-Serif" font-size="10.00">error_msg_class::num</text>
<text text-anchor="middle" x="408" y="-7.5" font-family="Helvetica,sans-Serif" font-size="10.00">_to_str</text>
</a>
</g>
</g>
<!-- Node6&#45;&gt;Node8 -->
<g id="edge8" class="edge">
<title>Node6&#45;&gt;Node8</title>
<path fill="none" stroke="midnightblue" d="M300.29,-41.47C313.89,-38.16 328.34,-34.64 342.06,-31.3"/>
<polygon fill="midnightblue" stroke="midnightblue" points="343.02,-34.67 351.91,-28.91 341.36,-27.87 343.02,-34.67"/>
</g>
</g>
</svg>
