<?xml version="1.0" encoding="UTF-8" standalone="no"?>
<!DOCTYPE svg PUBLIC "-//W3C//DTD SVG 1.1//EN"
 "http://www.w3.org/Graphics/SVG/1.1/DTD/svg11.dtd">
<!-- Generated by graphviz version 2.44.0 ()
 -->
<!-- Title: reaclib_rate_module::init_reaclib_rates Pages: 1 -->
<!--zoomable 351 -->
<svg id="main" version="1.1" xmlns="http://www.w3.org/2000/svg" xmlns:xlink="http://www.w3.org/1999/xlink" xml:space="preserve" onload="init(evt)">
<style type="text/css"><![CDATA[
.edge:hover path { stroke: red; }
.edge:hover polygon { stroke: red; fill: red; }
]]></style>
<script type="text/javascript"><![CDATA[
var edges = document.getElementsByTagName('g');
if (edges && edges.length) {
  for (var i=0;i<edges.length;i++) {
    if (edges[i].id.substr(0,4)=='edge') {
      edges[i].setAttribute('class','edge');
    }
  }
}
]]></script>
        <defs>
                <circle id="rim" cx="0" cy="0" r="7"/>
                <circle id="rim2" cx="0" cy="0" r="3.5"/>
                <g id="zoomPlus">
                        <use xlink:href="#rim" fill="#404040">
                                <set attributeName="fill" to="#808080" begin="zoomplus.mouseover" end="zoomplus.mouseout"/>
                        </use>
                        <path d="M-4,0h8M0,-4v8" fill="none" stroke="white" stroke-width="1.5" pointer-events="none"/>
                </g>
                <g id="zoomMin">
                        <use xlink:href="#rim" fill="#404040">
                                <set attributeName="fill" to="#808080" begin="zoomminus.mouseover" end="zoomminus.mouseout"/>
                        </use>
                        <path d="M-4,0h8" fill="none" stroke="white" stroke-width="1.5" pointer-events="none"/>
                </g>
                <g id="dirArrow">
                        <path fill="none" stroke="white" stroke-width="1.5" d="M0,-3.0v7 M-2.5,-0.5L0,-3.0L2.5,-0.5"/>
                </g>
               <g id="resetDef">
                       <use xlink:href="#rim2" fill="#404040">
                               <set attributeName="fill" to="#808080" begin="reset.mouseover" end="reset.mouseout"/>
                       </use>
               </g>
        </defs>

<script type="text/javascript">
var viewWidth = 916;
var viewHeight = 351;
var sectionId = 'dynsection-2';
</script>
<script xlink:href="svgpan.js"/>
<svg id="graph" class="graph">
<g id="viewport">
<title>reaclib_rate_module::init_reaclib_rates</title>
<polygon fill="white" stroke="transparent" points="-4,4 -4,-347.24 912,-347.24 912,4 -4,4"/>
<!-- Node1 -->
<g id="node1" class="node">
<title>Node1</title>
<g id="a_node1"><a xlink:title="Count and read reaclib reactions.">
<polygon fill="#bfbfbf" stroke="black" points="0,-231.3 0,-261.3 104,-261.3 104,-231.3 0,-231.3"/>
<text text-anchor="start" x="8" y="-249.3" font-family="Helvetica,sans-Serif" font-size="10.00">reaclib_rate_module</text>
<text text-anchor="middle" x="52" y="-238.3" font-family="Helvetica,sans-Serif" font-size="10.00">::init_reaclib_rates</text>
</a>
</g>
</g>
<!-- Node2 -->
<g id="node2" class="node">
<title>Node2</title>
<g id="a_node2"><a xlink:href="namespacereaclib__rate__module.html#adccfa44041b331c8cc0c377ed38bd4d0" target="_top" xlink:title="Count the amount of reaclib reactions.">
<polygon fill="white" stroke="black" points="149.5,-256.3 149.5,-286.3 255.5,-286.3 255.5,-256.3 149.5,-256.3"/>
<text text-anchor="start" x="157.5" y="-274.3" font-family="Helvetica,sans-Serif" font-size="10.00">reaclib_rate_module</text>
<text text-anchor="middle" x="202.5" y="-263.3" font-family="Helvetica,sans-Serif" font-size="10.00">::count_reaclib_rates</text>
</a>
</g>
</g>
<!-- Node1&#45;&gt;Node2 -->
<g id="edge1" class="edge">
<title>Node1&#45;&gt;Node2</title>
<path fill="none" stroke="midnightblue" d="M104.11,-254.9C115.4,-256.8 127.48,-258.84 139.16,-260.8"/>
<polygon fill="midnightblue" stroke="midnightblue" points="138.85,-264.3 149.29,-262.51 140.01,-257.4 138.85,-264.3"/>
</g>
<!-- Node6 -->
<g id="node6" class="node">
<title>Node6</title>
<g id="a_node6"><a xlink:href="namespaceerror__msg__class.html#a2453d3b7cb363115c046840baa1dfb75" target="_top" xlink:title="Raise a exception with a given error message.">
<polygon fill="white" stroke="black" points="654,-191.3 654,-221.3 768,-221.3 768,-191.3 654,-191.3"/>
<text text-anchor="start" x="662" y="-209.3" font-family="Helvetica,sans-Serif" font-size="10.00">error_msg_class::raise</text>
<text text-anchor="middle" x="711" y="-198.3" font-family="Helvetica,sans-Serif" font-size="10.00">_exception</text>
</a>
</g>
</g>
<!-- Node1&#45;&gt;Node6 -->
<g id="edge8" class="edge">
<title>Node1&#45;&gt;Node6</title>
<path fill="none" stroke="midnightblue" d="M74.96,-261.42C92.01,-272.52 116.62,-287.21 140,-296.3 265.99,-345.28 308.43,-353.04 442,-332.3 523.11,-319.71 545.16,-314.15 618,-276.3 643.17,-263.22 668.6,-243.24 686.32,-227.97"/>
<polygon fill="midnightblue" stroke="midnightblue" points="688.68,-230.56 693.89,-221.33 684.06,-225.29 688.68,-230.56"/>
</g>
<!-- Node8 -->
<g id="node8" class="node">
<title>Node8</title>
<g id="a_node8"><a xlink:href="namespacereaclib__rate__module.html#ae9e8f84c38218f578011706869e23b59" target="_top" xlink:title="Read reaclib reaction rates.">
<polygon fill="white" stroke="black" points="150.5,-207.3 150.5,-237.3 254.5,-237.3 254.5,-207.3 150.5,-207.3"/>
<text text-anchor="start" x="158.5" y="-225.3" font-family="Helvetica,sans-Serif" font-size="10.00">reaclib_rate_module</text>
<text text-anchor="middle" x="202.5" y="-214.3" font-family="Helvetica,sans-Serif" font-size="10.00">::read_reaclib</text>
</a>
</g>
</g>
<!-- Node1&#45;&gt;Node8 -->
<g id="edge9" class="edge">
<title>Node1&#45;&gt;Node8</title>
<path fill="none" stroke="midnightblue" d="M104.11,-238.04C115.77,-236.15 128.29,-234.13 140.33,-232.19"/>
<polygon fill="midnightblue" stroke="midnightblue" points="140.99,-235.62 150.3,-230.57 139.87,-228.71 140.99,-235.62"/>
</g>
<!-- Node15 -->
<g id="node15" class="node">
<title>Node15</title>
<g id="a_node15"><a xlink:href="namespacereaclib__rate__module.html#a3aadb882cafc2c5bdde04ede5f3b33fc" target="_top" xlink:title="Write the amount of individual reactions to the out.">
<polygon fill="white" stroke="black" points="140,-27.3 140,-57.3 265,-57.3 265,-27.3 140,-27.3"/>
<text text-anchor="start" x="148" y="-45.3" font-family="Helvetica,sans-Serif" font-size="10.00">reaclib_rate_module</text>
<text text-anchor="middle" x="202.5" y="-34.3" font-family="Helvetica,sans-Serif" font-size="10.00">::write_reac_verbose_out</text>
</a>
</g>
</g>
<!-- Node1&#45;&gt;Node15 -->
<g id="edge23" class="edge">
<title>Node1&#45;&gt;Node15</title>
<path fill="none" stroke="midnightblue" d="M63.92,-231.3C89.56,-196.08 153.76,-107.89 184.53,-65.61"/>
<polygon fill="midnightblue" stroke="midnightblue" points="187.51,-67.47 190.56,-57.32 181.85,-63.35 187.51,-67.47"/>
</g>
<!-- Node3 -->
<g id="node3" class="node">
<title>Node3</title>
<g id="a_node3"><a xlink:href="namespacebenam__class.html#ad20c821347dd5f7c08dff59c98e69657" target="_top" xlink:title="Returns the index number of isotope &#39;name&#39;.">
<polygon fill="white" stroke="black" points="317.5,-303.8 317.5,-322.8 425.5,-322.8 425.5,-303.8 317.5,-303.8"/>
<text text-anchor="middle" x="371.5" y="-310.8" font-family="Helvetica,sans-Serif" font-size="10.00">benam_class::benam</text>
</a>
</g>
</g>
<!-- Node2&#45;&gt;Node3 -->
<g id="edge2" class="edge">
<title>Node2&#45;&gt;Node3</title>
<path fill="none" stroke="midnightblue" d="M255.88,-284.47C277.25,-289.85 301.8,-296.02 322.68,-301.27"/>
<polygon fill="midnightblue" stroke="midnightblue" points="322.06,-304.72 332.61,-303.77 323.76,-297.94 322.06,-304.72"/>
</g>
<!-- Node4 -->
<g id="node4" class="node">
<title>Node4</title>
<g id="a_node4"><a xlink:href="namespacefile__handling__class.html#aab870caaf9cbaaf635d537708efbf793" target="_top" xlink:title="Same for reading (input file)">
<polygon fill="white" stroke="black" points="322.5,-254.3 322.5,-284.3 420.5,-284.3 420.5,-254.3 322.5,-254.3"/>
<text text-anchor="start" x="330.5" y="-272.3" font-family="Helvetica,sans-Serif" font-size="10.00">file_handling_class</text>
<text text-anchor="middle" x="371.5" y="-261.3" font-family="Helvetica,sans-Serif" font-size="10.00">::open_infile</text>
</a>
</g>
</g>
<!-- Node2&#45;&gt;Node4 -->
<g id="edge3" class="edge">
<title>Node2&#45;&gt;Node4</title>
<path fill="none" stroke="midnightblue" d="M255.88,-270.67C273.72,-270.46 293.76,-270.22 312.04,-270"/>
<polygon fill="midnightblue" stroke="midnightblue" points="312.32,-273.5 322.28,-269.88 312.24,-266.5 312.32,-273.5"/>
</g>
<!-- Node5 -->
<g id="node5" class="node">
<title>Node5</title>
<g id="a_node5"><a xlink:href="namespacefile__handling__class.html#af02196bd5eaf70ecd5ab4cc650094d5e" target="_top" xlink:title="Finds the next unused unit number.">
<polygon fill="white" stroke="black" points="499,-213.3 499,-243.3 597,-243.3 597,-213.3 499,-213.3"/>
<text text-anchor="start" x="507" y="-231.3" font-family="Helvetica,sans-Serif" font-size="10.00">file_handling_class</text>
<text text-anchor="middle" x="548" y="-220.3" font-family="Helvetica,sans-Serif" font-size="10.00">::get_next_io_unit</text>
</a>
</g>
</g>
<!-- Node4&#45;&gt;Node5 -->
<g id="edge4" class="edge">
<title>Node4&#45;&gt;Node5</title>
<path fill="none" stroke="midnightblue" d="M420.64,-257.99C441.73,-253.03 466.65,-247.18 488.77,-241.98"/>
<polygon fill="midnightblue" stroke="midnightblue" points="489.78,-245.34 498.71,-239.65 488.17,-238.53 489.78,-245.34"/>
</g>
<!-- Node4&#45;&gt;Node6 -->
<g id="edge7" class="edge">
<title>Node4&#45;&gt;Node6</title>
<path fill="none" stroke="midnightblue" d="M420.51,-271.84C470.7,-273.2 551.29,-271.67 618,-253.3 639.01,-247.51 660.8,-236.63 677.9,-226.8"/>
<polygon fill="midnightblue" stroke="midnightblue" points="680.06,-229.59 686.88,-221.48 676.49,-223.56 680.06,-229.59"/>
</g>
<!-- Node5&#45;&gt;Node6 -->
<g id="edge5" class="edge">
<title>Node5&#45;&gt;Node6</title>
<path fill="none" stroke="midnightblue" d="M597.31,-221.7C611.89,-219.71 628.17,-217.48 643.72,-215.36"/>
<polygon fill="midnightblue" stroke="midnightblue" points="644.37,-218.8 653.8,-213.98 643.42,-211.86 644.37,-218.8"/>
</g>
<!-- Node7 -->
<g id="node7" class="node">
<title>Node7</title>
<g id="a_node7"><a xlink:href="namespaceerror__msg__class.html#a7e065585cc806a5c264de1f088266498" target="_top" xlink:title="Converts a given integer to a string.">
<polygon fill="white" stroke="black" points="804,-98.3 804,-128.3 908,-128.3 908,-98.3 804,-98.3"/>
<text text-anchor="start" x="812" y="-116.3" font-family="Helvetica,sans-Serif" font-size="10.00">error_msg_class::int</text>
<text text-anchor="middle" x="856" y="-105.3" font-family="Helvetica,sans-Serif" font-size="10.00">_to_str</text>
</a>
</g>
</g>
<!-- Node6&#45;&gt;Node7 -->
<g id="edge6" class="edge">
<title>Node6&#45;&gt;Node7</title>
<path fill="none" stroke="midnightblue" d="M735.29,-191.15C759.18,-175.61 796.52,-151.33 823.13,-134.02"/>
<polygon fill="midnightblue" stroke="midnightblue" points="825.24,-136.83 831.72,-128.44 821.42,-130.96 825.24,-136.83"/>
</g>
<!-- Node8&#45;&gt;Node3 -->
<g id="edge10" class="edge">
<title>Node8&#45;&gt;Node3</title>
<path fill="none" stroke="midnightblue" d="M248.7,-237.38C254.45,-240.23 260.05,-243.52 265,-247.3 285.92,-263.26 279.17,-279.62 301,-294.3 304.09,-296.38 307.4,-298.23 310.83,-299.88"/>
<polygon fill="midnightblue" stroke="midnightblue" points="309.59,-303.15 320.17,-303.79 312.3,-296.69 309.59,-303.15"/>
</g>
<!-- Node8&#45;&gt;Node4 -->
<g id="edge15" class="edge">
<title>Node8&#45;&gt;Node4</title>
<path fill="none" stroke="midnightblue" d="M254.51,-236.66C272.89,-241.83 293.76,-247.7 312.68,-253.03"/>
<polygon fill="midnightblue" stroke="midnightblue" points="311.79,-256.41 322.37,-255.75 313.69,-249.67 311.79,-256.41"/>
</g>
<!-- Node9 -->
<g id="node9" class="node">
<title>Node9</title>
<g id="a_node9"><a xlink:href="namespacenucstuff__class.html#a5fa1f79d38fd5b01a5d6d797fea0132d" target="_top" xlink:title="Get number of reactants of the reaction based on the reaclib chapter.">
<polygon fill="white" stroke="black" points="499,-76.3 499,-106.3 597,-106.3 597,-76.3 499,-76.3"/>
<text text-anchor="start" x="507" y="-94.3" font-family="Helvetica,sans-Serif" font-size="10.00">nucstuff_class::get</text>
<text text-anchor="middle" x="548" y="-83.3" font-family="Helvetica,sans-Serif" font-size="10.00">_nr_reactants</text>
</a>
</g>
</g>
<!-- Node8&#45;&gt;Node9 -->
<g id="edge11" class="edge">
<title>Node8&#45;&gt;Node9</title>
<path fill="none" stroke="midnightblue" d="M211.18,-206.95C225.07,-181.07 257.04,-129.42 301,-107.3 359.78,-77.72 436.69,-77.9 488.75,-82.76"/>
<polygon fill="midnightblue" stroke="midnightblue" points="488.51,-86.25 498.81,-83.79 489.22,-79.29 488.51,-86.25"/>
</g>
<!-- Node10 -->
<g id="node10" class="node">
<title>Node10</title>
<g id="a_node10"><a xlink:href="namespacebenam__class.html#af8144ea43fb40187e32fb83da48458f1" target="_top" xlink:title="Returns the 1/n! factor where n is the number of equal isotopes entering a reaction....">
<polygon fill="white" stroke="black" points="301,-215.8 301,-234.8 442,-234.8 442,-215.8 301,-215.8"/>
<text text-anchor="middle" x="371.5" y="-222.8" font-family="Helvetica,sans-Serif" font-size="10.00">benam_class::getcoefficients</text>
</a>
</g>
</g>
<!-- Node8&#45;&gt;Node10 -->
<g id="edge14" class="edge">
<title>Node8&#45;&gt;Node10</title>
<path fill="none" stroke="midnightblue" d="M254.51,-223.22C265.9,-223.42 278.25,-223.64 290.5,-223.86"/>
<polygon fill="midnightblue" stroke="midnightblue" points="290.67,-227.37 300.74,-224.05 290.8,-220.37 290.67,-227.37"/>
</g>
<!-- Node11 -->
<g id="node11" class="node">
<title>Node11</title>
<g id="a_node11"><a xlink:href="namespacereaclib__rate__module.html#a42077841ed26c539240b9d7218a7be4a" target="_top" xlink:title="Set the fraction of energy radiated away by neutrinos.">
<polygon fill="white" stroke="black" points="319.5,-166.3 319.5,-196.3 423.5,-196.3 423.5,-166.3 319.5,-166.3"/>
<text text-anchor="start" x="327.5" y="-184.3" font-family="Helvetica,sans-Serif" font-size="10.00">reaclib_rate_module</text>
<text text-anchor="middle" x="371.5" y="-173.3" font-family="Helvetica,sans-Serif" font-size="10.00">::set_heating_frac</text>
</a>
</g>
</g>
<!-- Node8&#45;&gt;Node11 -->
<g id="edge16" class="edge">
<title>Node8&#45;&gt;Node11</title>
<path fill="none" stroke="midnightblue" d="M254.51,-209.78C271.83,-205.52 291.36,-200.73 309.39,-196.3"/>
<polygon fill="midnightblue" stroke="midnightblue" points="310.35,-199.67 319.22,-193.89 308.68,-192.87 310.35,-199.67"/>
</g>
<!-- Node12 -->
<g id="node12" class="node">
<title>Node12</title>
<g id="a_node12"><a xlink:href="namespacereaclib__rate__module.html#a8e23d45ed0420de076b8f07863151a34" target="_top" xlink:title="Set a flag for the reaction type.">
<polygon fill="white" stroke="black" points="319.5,-117.3 319.5,-147.3 423.5,-147.3 423.5,-117.3 319.5,-117.3"/>
<text text-anchor="start" x="327.5" y="-135.3" font-family="Helvetica,sans-Serif" font-size="10.00">reaclib_rate_module</text>
<text text-anchor="middle" x="371.5" y="-124.3" font-family="Helvetica,sans-Serif" font-size="10.00">::set_reaction_type</text>
</a>
</g>
</g>
<!-- Node8&#45;&gt;Node12 -->
<g id="edge17" class="edge">
<title>Node8&#45;&gt;Node12</title>
<path fill="none" stroke="midnightblue" d="M222.73,-207.04C241.75,-192.5 272.12,-170.75 301,-156.3 304.56,-154.52 308.28,-152.82 312.08,-151.2"/>
<polygon fill="midnightblue" stroke="midnightblue" points="313.63,-154.35 321.6,-147.36 311.02,-147.85 313.63,-154.35"/>
</g>
<!-- Node9&#45;&gt;Node6 -->
<g id="edge13" class="edge">
<title>Node9&#45;&gt;Node6</title>
<path fill="none" stroke="midnightblue" d="M597.05,-104.88C604.32,-107.82 611.54,-111.27 618,-115.3 647.33,-133.58 674.62,-162.74 691.74,-183.11"/>
<polygon fill="midnightblue" stroke="midnightblue" points="689.16,-185.48 698.22,-190.98 694.57,-181.03 689.16,-185.48"/>
</g>
<!-- Node9&#45;&gt;Node7 -->
<g id="edge12" class="edge">
<title>Node9&#45;&gt;Node7</title>
<path fill="none" stroke="midnightblue" d="M597.15,-94.76C650.26,-98.58 735.85,-104.73 793.71,-108.89"/>
<polygon fill="midnightblue" stroke="midnightblue" points="793.59,-112.39 803.82,-109.62 794.09,-105.41 793.59,-112.39"/>
</g>
<!-- Node12&#45;&gt;Node9 -->
<g id="edge22" class="edge">
<title>Node12&#45;&gt;Node9</title>
<path fill="none" stroke="midnightblue" d="M423.91,-120.22C444.39,-115.41 468.07,-109.85 489.14,-104.89"/>
<polygon fill="midnightblue" stroke="midnightblue" points="490.01,-108.29 498.94,-102.59 488.41,-101.47 490.01,-108.29"/>
</g>
<!-- Node13 -->
<g id="node13" class="node">
<title>Node13</title>
<g id="a_node13"><a xlink:href="namespacebenam__class.html#afd880df70f94c289b6bda0647f4494e3" target="_top" xlink:title="Getter of net_names, translating indices to a nucleus name.">
<polygon fill="white" stroke="black" points="478,-174.8 478,-193.8 618,-193.8 618,-174.8 478,-174.8"/>
<text text-anchor="middle" x="548" y="-181.8" font-family="Helvetica,sans-Serif" font-size="10.00">benam_class::get_net_name</text>
</a>
</g>
</g>
<!-- Node12&#45;&gt;Node13 -->
<g id="edge18" class="edge">
<title>Node12&#45;&gt;Node13</title>
<path fill="none" stroke="midnightblue" d="M421.58,-147.32C439.34,-152.72 459.56,-158.83 478,-164.3 486.34,-166.77 495.25,-169.38 503.81,-171.87"/>
<polygon fill="midnightblue" stroke="midnightblue" points="503.06,-175.29 513.63,-174.72 505.01,-168.57 503.06,-175.29"/>
</g>
<!-- Node14 -->
<g id="node14" class="node">
<title>Node14</title>
<g id="a_node14"><a xlink:href="namespacenucstuff__class.html#adb871d9f6d0e6ec5db0a0808201ab3db" target="_top" xlink:title="Get number of products of the reaction based on the reaclib chapter.">
<polygon fill="white" stroke="black" points="499,-125.3 499,-155.3 597,-155.3 597,-125.3 499,-125.3"/>
<text text-anchor="start" x="507" y="-143.3" font-family="Helvetica,sans-Serif" font-size="10.00">nucstuff_class::get</text>
<text text-anchor="middle" x="548" y="-132.3" font-family="Helvetica,sans-Serif" font-size="10.00">_nr_products</text>
</a>
</g>
</g>
<!-- Node12&#45;&gt;Node14 -->
<g id="edge19" class="edge">
<title>Node12&#45;&gt;Node14</title>
<path fill="none" stroke="midnightblue" d="M423.91,-134.66C444.3,-135.59 467.85,-136.67 488.86,-137.63"/>
<polygon fill="midnightblue" stroke="midnightblue" points="488.79,-141.13 498.94,-138.1 489.11,-134.14 488.79,-141.13"/>
</g>
<!-- Node14&#45;&gt;Node6 -->
<g id="edge21" class="edge">
<title>Node14&#45;&gt;Node6</title>
<path fill="none" stroke="midnightblue" d="M592.25,-155.43C600.82,-158.58 609.73,-161.96 618,-165.3 634.52,-171.96 652.46,-179.81 668.07,-186.85"/>
<polygon fill="midnightblue" stroke="midnightblue" points="666.91,-190.17 677.46,-191.11 669.8,-183.79 666.91,-190.17"/>
</g>
<!-- Node14&#45;&gt;Node7 -->
<g id="edge20" class="edge">
<title>Node14&#45;&gt;Node7</title>
<path fill="none" stroke="midnightblue" d="M597.15,-136.05C650.26,-131.36 735.85,-123.81 793.71,-118.71"/>
<polygon fill="midnightblue" stroke="midnightblue" points="794.16,-122.18 803.82,-117.82 793.55,-115.21 794.16,-122.18"/>
</g>
<!-- Node15&#45;&gt;Node7 -->
<g id="edge24" class="edge">
<title>Node15&#45;&gt;Node7</title>
<path fill="none" stroke="midnightblue" d="M252.14,-27.27C267.6,-23.19 284.88,-19.33 301,-17.3 440.78,0.34 479.71,9.65 618,-17.3 692.6,-31.83 773.42,-69.86 818.77,-93.46"/>
<polygon fill="midnightblue" stroke="midnightblue" points="817.15,-96.56 827.63,-98.12 820.41,-90.37 817.15,-96.56"/>
</g>
<!-- Node16 -->
<g id="node16" class="node">
<title>Node16</title>
<g id="a_node16"><a xlink:href="namespaceerror__msg__class.html#a339dd5b38c125b6a04653762c94a91f2" target="_top" xlink:title="Write data to the standard output (usually OUT)">
<polygon fill="white" stroke="black" points="314.5,-27.3 314.5,-57.3 428.5,-57.3 428.5,-27.3 314.5,-27.3"/>
<text text-anchor="start" x="322.5" y="-45.3" font-family="Helvetica,sans-Serif" font-size="10.00">error_msg_class::write</text>
<text text-anchor="middle" x="371.5" y="-34.3" font-family="Helvetica,sans-Serif" font-size="10.00">_data_to_std_out</text>
</a>
</g>
</g>
<!-- Node15&#45;&gt;Node16 -->
<g id="edge25" class="edge">
<title>Node15&#45;&gt;Node16</title>
<path fill="none" stroke="midnightblue" d="M265.21,-42.3C277.89,-42.3 291.3,-42.3 304.14,-42.3"/>
<polygon fill="midnightblue" stroke="midnightblue" points="304.29,-45.8 314.29,-42.3 304.29,-38.8 304.29,-45.8"/>
</g>
<!-- Node17 -->
<g id="node17" class="node">
<title>Node17</title>
<g id="a_node17"><a xlink:href="namespaceerror__msg__class.html#af62b9a0c5997255e792b9ebd7322a6a3" target="_top" xlink:title="Write the header of the standard output (usually OUT)">
<polygon fill="white" stroke="black" points="491,-27.3 491,-57.3 605,-57.3 605,-27.3 491,-27.3"/>
<text text-anchor="start" x="499" y="-45.3" font-family="Helvetica,sans-Serif" font-size="10.00">error_msg_class::write</text>
<text text-anchor="middle" x="548" y="-34.3" font-family="Helvetica,sans-Serif" font-size="10.00">_header</text>
</a>
</g>
</g>
<!-- Node16&#45;&gt;Node17 -->
<g id="edge26" class="edge">
<title>Node16&#45;&gt;Node17</title>
<path fill="none" stroke="midnightblue" d="M428.67,-35.95C445.18,-35.51 463.38,-35.43 480.47,-35.72"/>
<polygon fill="midnightblue" stroke="midnightblue" points="480.86,-39.23 490.93,-35.95 481.01,-32.23 480.86,-39.23"/>
</g>
<!-- Node17&#45;&gt;Node16 -->
<g id="edge27" class="edge">
<title>Node17&#45;&gt;Node16</title>
<path fill="none" stroke="midnightblue" d="M490.93,-48.65C474.44,-49.09 456.23,-49.17 439.14,-48.88"/>
<polygon fill="midnightblue" stroke="midnightblue" points="438.75,-45.37 428.67,-48.65 438.6,-52.37 438.75,-45.37"/>
</g>
</g>
</svg>
        <g id="navigator" transform="translate(0 0)" fill="#404254">
                <rect fill="#f2f5e9" fill-opacity="0.5" stroke="#606060" stroke-width=".5" x="0" y="0" width="60" height="60"/>
                <use id="zoomplus" xlink:href="#zoomPlus" x="17" y="9" onmousedown="handleZoom(evt,'in')"/>
                <use id="zoomminus" xlink:href="#zoomMin" x="42" y="9" onmousedown="handleZoom(evt,'out')"/>
                <use id="reset" xlink:href="#resetDef" x="30" y="36" onmousedown="handleReset()"/>
                <g id="arrowUp" xlink:href="#dirArrow" transform="translate(30 24)" onmousedown="handlePan(0,-1)">
                  <use xlink:href="#rim" fill="#404040">
                        <set attributeName="fill" to="#808080" begin="arrowUp.mouseover" end="arrowUp.mouseout"/>
                  </use>
                  <path fill="none" stroke="white" stroke-width="1.5" d="M0,-3.0v7 M-2.5,-0.5L0,-3.0L2.5,-0.5"/>
                </g>
                <g id="arrowRight" xlink:href="#dirArrow" transform="rotate(90) translate(36 -43)" onmousedown="handlePan(1,0)">
                  <use xlink:href="#rim" fill="#404040">
                        <set attributeName="fill" to="#808080" begin="arrowRight.mouseover" end="arrowRight.mouseout"/>
                  </use>
                  <path fill="none" stroke="white" stroke-width="1.5" d="M0,-3.0v7 M-2.5,-0.5L0,-3.0L2.5,-0.5"/>
                </g>
                <g id="arrowDown" xlink:href="#dirArrow" transform="rotate(180) translate(-30 -48)" onmousedown="handlePan(0,1)">
                  <use xlink:href="#rim" fill="#404040">
                        <set attributeName="fill" to="#808080" begin="arrowDown.mouseover" end="arrowDown.mouseout"/>
                  </use>
                  <path fill="none" stroke="white" stroke-width="1.5" d="M0,-3.0v7 M-2.5,-0.5L0,-3.0L2.5,-0.5"/>
                </g>
                <g id="arrowLeft" xlink:href="#dirArrow" transform="rotate(270) translate(-36 17)" onmousedown="handlePan(-1,0)">
                  <use xlink:href="#rim" fill="#404040">
                        <set attributeName="fill" to="#808080" begin="arrowLeft.mouseover" end="arrowLeft.mouseout"/>
                  </use>
                  <path fill="none" stroke="white" stroke-width="1.5" d="M0,-3.0v7 M-2.5,-0.5L0,-3.0L2.5,-0.5"/>
                </g>
        </g>
        <svg viewBox="0 0 15 15" width="100%" height="30px" preserveAspectRatio="xMaxYMin meet">
         <g id="arrow_out" transform="scale(0.3 0.3)">
          <a xlink:href="namespacereaclib__rate__module_a20dab788693450354de363a2cfab39f8_cgraph_org.svg" target="_base">
           <rect id="button" ry="5" rx="5" y="6" x="6" height="38" width="38"
                fill="#f2f5e9" fill-opacity="0.5" stroke="#606060" stroke-width="1.0"/>
           <path id="arrow"
             d="M 11.500037,31.436501 C 11.940474,20.09759 22.043105,11.32322 32.158766,21.979434 L 37.068811,17.246167 C 37.068811,17.246167 37.088388,32 37.088388,32 L 22.160133,31.978069 C 22.160133,31.978069 26.997745,27.140456 26.997745,27.140456 C 18.528582,18.264221 13.291696,25.230495 11.500037,31.436501 z"
             style="fill:#404040;"/>
          </a>
         </g>
        </svg>
</svg>
