<?xml version="1.0" encoding="UTF-8" standalone="no"?>
<!DOCTYPE svg PUBLIC "-//W3C//DTD SVG 1.1//EN"
 "http://www.w3.org/Graphics/SVG/1.1/DTD/svg11.dtd">
<!-- Generated by graphviz version 2.44.0 ()
 -->
<!-- Title: fission_rate_module::read_mumpower_fissfile Pages: 1 -->
<svg width="697pt" height="78pt"
 viewBox="0.00 0.00 697.00 77.50" xmlns="http://www.w3.org/2000/svg" xmlns:xlink="http://www.w3.org/1999/xlink">
<g id="graph0" class="graph" transform="scale(1 1) rotate(0) translate(4 73.5)">
<title>fission_rate_module::read_mumpower_fissfile</title>
<polygon fill="white" stroke="transparent" points="-4,4 -4,-73.5 693,-73.5 693,4 -4,4"/>
<!-- Node1 -->
<g id="node1" class="node">
<title>Node1</title>
<g id="a_node1"><a xlink:title="Read the fission distribution from a file.">
<polygon fill="#bfbfbf" stroke="black" points="0,-22.5 0,-52.5 125,-52.5 125,-22.5 0,-22.5"/>
<text text-anchor="start" x="8" y="-40.5" font-family="Helvetica,sans-Serif" font-size="10.00">fission_rate_module</text>
<text text-anchor="middle" x="62.5" y="-29.5" font-family="Helvetica,sans-Serif" font-size="10.00">::read_mumpower_fissfile</text>
</a>
</g>
</g>
<!-- Node2 -->
<g id="node2" class="node">
<title>Node2</title>
<g id="a_node2"><a xlink:href="namespacebenam__class.html#ad2f566697809a5731e560509d2ca7062" target="_top" xlink:title="Finds an isotope index in the network table, given its A and Z. In case it was not found,...">
<polygon fill="white" stroke="black" points="161,-50 161,-69 265,-69 265,-50 161,-50"/>
<text text-anchor="middle" x="213" y="-57" font-family="Helvetica,sans-Serif" font-size="10.00">benam_class::findaz</text>
</a>
</g>
</g>
<!-- Node1&#45;&gt;Node2 -->
<g id="edge1" class="edge">
<title>Node1&#45;&gt;Node2</title>
<path fill="none" stroke="midnightblue" d="M125.19,-46.64C133.57,-47.88 142.18,-49.16 150.56,-50.4"/>
<polygon fill="midnightblue" stroke="midnightblue" points="150.23,-53.89 160.64,-51.89 151.26,-46.96 150.23,-53.89"/>
</g>
<!-- Node3 -->
<g id="node3" class="node">
<title>Node3</title>
<g id="a_node3"><a xlink:href="namespacefile__handling__class.html#aab870caaf9cbaaf635d537708efbf793" target="_top" xlink:title="Same for reading (input file)">
<polygon fill="white" stroke="black" points="164,-0.5 164,-30.5 262,-30.5 262,-0.5 164,-0.5"/>
<text text-anchor="start" x="172" y="-18.5" font-family="Helvetica,sans-Serif" font-size="10.00">file_handling_class</text>
<text text-anchor="middle" x="213" y="-7.5" font-family="Helvetica,sans-Serif" font-size="10.00">::open_infile</text>
</a>
</g>
</g>
<!-- Node1&#45;&gt;Node3 -->
<g id="edge2" class="edge">
<title>Node1&#45;&gt;Node3</title>
<path fill="none" stroke="midnightblue" d="M125.19,-28.36C134.67,-26.96 144.43,-25.51 153.83,-24.12"/>
<polygon fill="midnightblue" stroke="midnightblue" points="154.48,-27.56 163.86,-22.63 153.45,-20.64 154.48,-27.56"/>
</g>
<!-- Node4 -->
<g id="node4" class="node">
<title>Node4</title>
<g id="a_node4"><a xlink:href="namespacefile__handling__class.html#af02196bd5eaf70ecd5ab4cc650094d5e" target="_top" xlink:title="Finds the next unused unit number.">
<polygon fill="white" stroke="black" points="301,-22.5 301,-52.5 399,-52.5 399,-22.5 301,-22.5"/>
<text text-anchor="start" x="309" y="-40.5" font-family="Helvetica,sans-Serif" font-size="10.00">file_handling_class</text>
<text text-anchor="middle" x="350" y="-29.5" font-family="Helvetica,sans-Serif" font-size="10.00">::get_next_io_unit</text>
</a>
</g>
</g>
<!-- Node3&#45;&gt;Node4 -->
<g id="edge3" class="edge">
<title>Node3&#45;&gt;Node4</title>
<path fill="none" stroke="midnightblue" d="M262.36,-23.38C271.58,-24.88 281.32,-26.47 290.82,-28.02"/>
<polygon fill="midnightblue" stroke="midnightblue" points="290.55,-31.52 300.98,-29.67 291.67,-24.61 290.55,-31.52"/>
</g>
<!-- Node5 -->
<g id="node5" class="node">
<title>Node5</title>
<g id="a_node5"><a xlink:href="namespaceerror__msg__class.html#a2453d3b7cb363115c046840baa1dfb75" target="_top" xlink:title="Raise a exception with a given error message.">
<polygon fill="white" stroke="black" points="435,-0.5 435,-30.5 549,-30.5 549,-0.5 435,-0.5"/>
<text text-anchor="start" x="443" y="-18.5" font-family="Helvetica,sans-Serif" font-size="10.00">error_msg_class::raise</text>
<text text-anchor="middle" x="492" y="-7.5" font-family="Helvetica,sans-Serif" font-size="10.00">_exception</text>
</a>
</g>
</g>
<!-- Node3&#45;&gt;Node5 -->
<g id="edge6" class="edge">
<title>Node3&#45;&gt;Node5</title>
<path fill="none" stroke="midnightblue" d="M262.32,-14.19C274.91,-13.91 288.46,-13.64 301,-13.5 344.55,-13 355.45,-13.03 399,-13.5 407.27,-13.59 415.95,-13.73 424.55,-13.88"/>
<polygon fill="midnightblue" stroke="midnightblue" points="424.5,-17.38 434.56,-14.08 424.63,-10.38 424.5,-17.38"/>
</g>
<!-- Node4&#45;&gt;Node5 -->
<g id="edge4" class="edge">
<title>Node4&#45;&gt;Node5</title>
<path fill="none" stroke="midnightblue" d="M399.18,-29.93C407.37,-28.64 416,-27.29 424.55,-25.94"/>
<polygon fill="midnightblue" stroke="midnightblue" points="425.2,-29.38 434.54,-24.37 424.11,-22.47 425.2,-29.38"/>
</g>
<!-- Node6 -->
<g id="node6" class="node">
<title>Node6</title>
<g id="a_node6"><a xlink:href="namespaceerror__msg__class.html#a7e065585cc806a5c264de1f088266498" target="_top" xlink:title="Converts a given integer to a string.">
<polygon fill="white" stroke="black" points="585,-0.5 585,-30.5 689,-30.5 689,-0.5 585,-0.5"/>
<text text-anchor="start" x="593" y="-18.5" font-family="Helvetica,sans-Serif" font-size="10.00">error_msg_class::int</text>
<text text-anchor="middle" x="637" y="-7.5" font-family="Helvetica,sans-Serif" font-size="10.00">_to_str</text>
</a>
</g>
</g>
<!-- Node5&#45;&gt;Node6 -->
<g id="edge5" class="edge">
<title>Node5&#45;&gt;Node6</title>
<path fill="none" stroke="midnightblue" d="M549.11,-15.5C557.45,-15.5 566.09,-15.5 574.54,-15.5"/>
<polygon fill="midnightblue" stroke="midnightblue" points="574.71,-19 584.71,-15.5 574.71,-12 574.71,-19"/>
</g>
</g>
</svg>
