<?xml version="1.0" encoding="UTF-8" standalone="no"?>
<!DOCTYPE svg PUBLIC "-//W3C//DTD SVG 1.1//EN"
 "http://www.w3.org/Graphics/SVG/1.1/DTD/svg11.dtd">
<!-- Generated by graphviz version 2.44.0 ()
 -->
<!-- Title: mergesort_module::reorder_int Pages: 1 -->
<svg width="445pt" height="61pt"
 viewBox="0.00 0.00 445.00 61.00" xmlns="http://www.w3.org/2000/svg" xmlns:xlink="http://www.w3.org/1999/xlink">
<g id="graph0" class="graph" transform="scale(1 1) rotate(0) translate(4 57)">
<title>mergesort_module::reorder_int</title>
<polygon fill="white" stroke="transparent" points="-4,4 -4,-57 441,-57 441,4 -4,4"/>
<!-- Node1 -->
<g id="node1" class="node">
<title>Node1</title>
<g id="a_node1"><a xlink:title="Takes an array and an array with indices to reorder the first array.">
<polygon fill="#bfbfbf" stroke="black" points="0,-28 0,-47 147,-47 147,-28 0,-28"/>
<text text-anchor="middle" x="73.5" y="-35" font-family="Helvetica,sans-Serif" font-size="10.00">mergesort_module::reorder_int</text>
</a>
</g>
</g>
<!-- Node2 -->
<g id="node2" class="node">
<title>Node2</title>
<g id="a_node2"><a xlink:href="namespaceerror__msg__class.html#a7e065585cc806a5c264de1f088266498" target="_top" xlink:title="Converts a given integer to a string.">
<polygon fill="white" stroke="black" points="333,-22.5 333,-52.5 437,-52.5 437,-22.5 333,-22.5"/>
<text text-anchor="start" x="341" y="-40.5" font-family="Helvetica,sans-Serif" font-size="10.00">error_msg_class::int</text>
<text text-anchor="middle" x="385" y="-29.5" font-family="Helvetica,sans-Serif" font-size="10.00">_to_str</text>
</a>
</g>
</g>
<!-- Node1&#45;&gt;Node2 -->
<g id="edge1" class="edge">
<title>Node1&#45;&gt;Node2</title>
<path fill="none" stroke="midnightblue" d="M147.16,-39.79C159.13,-40.08 171.41,-40.34 183,-40.5 233.66,-41.2 246.34,-41.37 297,-40.5 305.36,-40.36 314.18,-40.13 322.85,-39.87"/>
<polygon fill="midnightblue" stroke="midnightblue" points="323.06,-43.37 332.94,-39.55 322.84,-36.37 323.06,-43.37"/>
</g>
<!-- Node3 -->
<g id="node3" class="node">
<title>Node3</title>
<g id="a_node3"><a xlink:href="namespaceerror__msg__class.html#a2453d3b7cb363115c046840baa1dfb75" target="_top" xlink:title="Raise a exception with a given error message.">
<polygon fill="white" stroke="black" points="183,-0.5 183,-30.5 297,-30.5 297,-0.5 183,-0.5"/>
<text text-anchor="start" x="191" y="-18.5" font-family="Helvetica,sans-Serif" font-size="10.00">error_msg_class::raise</text>
<text text-anchor="middle" x="240" y="-7.5" font-family="Helvetica,sans-Serif" font-size="10.00">_exception</text>
</a>
</g>
</g>
<!-- Node1&#45;&gt;Node3 -->
<g id="edge2" class="edge">
<title>Node1&#45;&gt;Node3</title>
<path fill="none" stroke="midnightblue" d="M145.7,-27.98C154.72,-26.77 163.92,-25.54 172.86,-24.35"/>
<polygon fill="midnightblue" stroke="midnightblue" points="173.37,-27.81 182.81,-23.01 172.44,-20.87 173.37,-27.81"/>
</g>
<!-- Node3&#45;&gt;Node2 -->
<g id="edge3" class="edge">
<title>Node3&#45;&gt;Node2</title>
<path fill="none" stroke="midnightblue" d="M297.11,-24.13C305.54,-25.43 314.28,-26.77 322.81,-28.09"/>
<polygon fill="midnightblue" stroke="midnightblue" points="322.3,-31.55 332.71,-29.61 323.36,-24.63 322.3,-31.55"/>
</g>
</g>
</svg>
