<?xml version="1.0" encoding="UTF-8" standalone="no"?>
<!DOCTYPE svg PUBLIC "-//W3C//DTD SVG 1.1//EN"
 "http://www.w3.org/Graphics/SVG/1.1/DTD/svg11.dtd">
<!-- Generated by graphviz version 2.44.0 ()
 -->
<!-- Title: analysis::output_snapshot Pages: 1 -->
<svg width="826pt" height="127pt"
 viewBox="0.00 0.00 826.00 127.00" xmlns="http://www.w3.org/2000/svg" xmlns:xlink="http://www.w3.org/1999/xlink">
<g id="graph0" class="graph" transform="scale(1 1) rotate(0) translate(4 123)">
<title>analysis::output_snapshot</title>
<polygon fill="white" stroke="transparent" points="-4,4 -4,-123 822,-123 822,4 -4,4"/>
<!-- Node1 -->
<g id="node1" class="node">
<title>Node1</title>
<g id="a_node1"><a xlink:title="Output Snapshot files.">
<polygon fill="#bfbfbf" stroke="black" points="0,-72 0,-91 128,-91 128,-72 0,-72"/>
<text text-anchor="middle" x="64" y="-79" font-family="Helvetica,sans-Serif" font-size="10.00">analysis::output_snapshot</text>
</a>
</g>
</g>
<!-- Node2 -->
<g id="node2" class="node">
<title>Node2</title>
<g id="a_node2"><a xlink:href="namespaceanalysis.html#ac9ab478bfe69283db270208a87365ee9" target="_top" xlink:title="Print current snapshot.">
<polygon fill="white" stroke="black" points="164,-72 164,-91 260,-91 260,-72 164,-72"/>
<text text-anchor="middle" x="212" y="-79" font-family="Helvetica,sans-Serif" font-size="10.00">analysis::printsnap</text>
</a>
</g>
</g>
<!-- Node1&#45;&gt;Node2 -->
<g id="edge1" class="edge">
<title>Node1&#45;&gt;Node2</title>
<path fill="none" stroke="midnightblue" d="M128.19,-81.5C136.53,-81.5 145.05,-81.5 153.3,-81.5"/>
<polygon fill="midnightblue" stroke="midnightblue" points="153.56,-85 163.56,-81.5 153.56,-78 153.56,-85"/>
</g>
<!-- Node3 -->
<g id="node3" class="node">
<title>Node3</title>
<g id="a_node3"><a xlink:href="namespacefile__handling__class.html#a01ba26324d7662cc0fb2e0eb306cd3e2" target="_top" xlink:title="Close an external file.">
<polygon fill="white" stroke="black" points="430,-88.5 430,-118.5 528,-118.5 528,-88.5 430,-88.5"/>
<text text-anchor="start" x="438" y="-106.5" font-family="Helvetica,sans-Serif" font-size="10.00">file_handling_class</text>
<text text-anchor="middle" x="479" y="-95.5" font-family="Helvetica,sans-Serif" font-size="10.00">::close_io_file</text>
</a>
</g>
</g>
<!-- Node2&#45;&gt;Node3 -->
<g id="edge2" class="edge">
<title>Node2&#45;&gt;Node3</title>
<path fill="none" stroke="midnightblue" d="M260.07,-85.41C304.55,-89.1 371.42,-94.65 419.35,-98.63"/>
<polygon fill="midnightblue" stroke="midnightblue" points="419.32,-102.14 429.58,-99.48 419.9,-95.16 419.32,-102.14"/>
</g>
<!-- Node6 -->
<g id="node6" class="node">
<title>Node6</title>
<g id="a_node6"><a xlink:href="namespacefile__handling__class.html#aeddf55e8478d6220dc04310665427c3a" target="_top" xlink:title="Shorthand for opening a new file for writing (output file)">
<polygon fill="white" stroke="black" points="296,-44.5 296,-74.5 394,-74.5 394,-44.5 296,-44.5"/>
<text text-anchor="start" x="304" y="-62.5" font-family="Helvetica,sans-Serif" font-size="10.00">file_handling_class</text>
<text text-anchor="middle" x="345" y="-51.5" font-family="Helvetica,sans-Serif" font-size="10.00">::open_outfile</text>
</a>
</g>
</g>
<!-- Node2&#45;&gt;Node6 -->
<g id="edge6" class="edge">
<title>Node2&#45;&gt;Node6</title>
<path fill="none" stroke="midnightblue" d="M260.29,-73.56C268.62,-72.16 277.37,-70.69 285.94,-69.25"/>
<polygon fill="midnightblue" stroke="midnightblue" points="286.61,-72.69 295.89,-67.58 285.45,-65.78 286.61,-72.69"/>
</g>
<!-- Node4 -->
<g id="node4" class="node">
<title>Node4</title>
<g id="a_node4"><a xlink:href="namespaceerror__msg__class.html#a7e065585cc806a5c264de1f088266498" target="_top" xlink:title="Converts a given integer to a string.">
<polygon fill="white" stroke="black" points="714,-66.5 714,-96.5 818,-96.5 818,-66.5 714,-66.5"/>
<text text-anchor="start" x="722" y="-84.5" font-family="Helvetica,sans-Serif" font-size="10.00">error_msg_class::int</text>
<text text-anchor="middle" x="766" y="-73.5" font-family="Helvetica,sans-Serif" font-size="10.00">_to_str</text>
</a>
</g>
</g>
<!-- Node3&#45;&gt;Node4 -->
<g id="edge3" class="edge">
<title>Node3&#45;&gt;Node4</title>
<path fill="none" stroke="midnightblue" d="M528.02,-99.79C576.36,-96.06 651.09,-90.29 703.68,-86.23"/>
<polygon fill="midnightblue" stroke="midnightblue" points="704.19,-89.7 713.89,-85.45 703.65,-82.73 704.19,-89.7"/>
</g>
<!-- Node5 -->
<g id="node5" class="node">
<title>Node5</title>
<g id="a_node5"><a xlink:href="namespaceerror__msg__class.html#a2453d3b7cb363115c046840baa1dfb75" target="_top" xlink:title="Raise a exception with a given error message.">
<polygon fill="white" stroke="black" points="564,-44.5 564,-74.5 678,-74.5 678,-44.5 564,-44.5"/>
<text text-anchor="start" x="572" y="-62.5" font-family="Helvetica,sans-Serif" font-size="10.00">error_msg_class::raise</text>
<text text-anchor="middle" x="621" y="-51.5" font-family="Helvetica,sans-Serif" font-size="10.00">_exception</text>
</a>
</g>
</g>
<!-- Node3&#45;&gt;Node5 -->
<g id="edge4" class="edge">
<title>Node3&#45;&gt;Node5</title>
<path fill="none" stroke="midnightblue" d="M527.79,-88.48C538.82,-85.01 550.66,-81.29 562.07,-77.71"/>
<polygon fill="midnightblue" stroke="midnightblue" points="563.46,-80.94 571.95,-74.6 561.36,-74.26 563.46,-80.94"/>
</g>
<!-- Node5&#45;&gt;Node4 -->
<g id="edge5" class="edge">
<title>Node5&#45;&gt;Node4</title>
<path fill="none" stroke="midnightblue" d="M678.11,-68.13C686.54,-69.43 695.28,-70.77 703.81,-72.09"/>
<polygon fill="midnightblue" stroke="midnightblue" points="703.3,-75.55 713.71,-73.61 704.36,-68.63 703.3,-75.55"/>
</g>
<!-- Node6&#45;&gt;Node5 -->
<g id="edge9" class="edge">
<title>Node6&#45;&gt;Node5</title>
<path fill="none" stroke="midnightblue" d="M394.04,-59.5C438.32,-59.5 504.43,-59.5 553.72,-59.5"/>
<polygon fill="midnightblue" stroke="midnightblue" points="553.97,-63 563.97,-59.5 553.97,-56 553.97,-63"/>
</g>
<!-- Node7 -->
<g id="node7" class="node">
<title>Node7</title>
<g id="a_node7"><a xlink:href="namespacefile__handling__class.html#af02196bd5eaf70ecd5ab4cc650094d5e" target="_top" xlink:title="Finds the next unused unit number.">
<polygon fill="white" stroke="black" points="430,-0.5 430,-30.5 528,-30.5 528,-0.5 430,-0.5"/>
<text text-anchor="start" x="438" y="-18.5" font-family="Helvetica,sans-Serif" font-size="10.00">file_handling_class</text>
<text text-anchor="middle" x="479" y="-7.5" font-family="Helvetica,sans-Serif" font-size="10.00">::get_next_io_unit</text>
</a>
</g>
</g>
<!-- Node6&#45;&gt;Node7 -->
<g id="edge7" class="edge">
<title>Node6&#45;&gt;Node7</title>
<path fill="none" stroke="midnightblue" d="M391.06,-44.48C401.35,-41.05 412.4,-37.37 423.06,-33.81"/>
<polygon fill="midnightblue" stroke="midnightblue" points="424.32,-37.08 432.7,-30.6 422.1,-30.44 424.32,-37.08"/>
</g>
<!-- Node7&#45;&gt;Node5 -->
<g id="edge8" class="edge">
<title>Node7&#45;&gt;Node5</title>
<path fill="none" stroke="midnightblue" d="M527.79,-30.52C538.82,-33.99 550.66,-37.71 562.07,-41.29"/>
<polygon fill="midnightblue" stroke="midnightblue" points="561.36,-44.74 571.95,-44.4 563.46,-38.06 561.36,-44.74"/>
</g>
</g>
</svg>
