<?xml version="1.0" encoding="UTF-8" standalone="no"?>
<!DOCTYPE svg PUBLIC "-//W3C//DTD SVG 1.1//EN"
 "http://www.w3.org/Graphics/SVG/1.1/DTD/svg11.dtd">
<!-- Generated by graphviz version 2.44.0 ()
 -->
<!-- Title: fission_rate_module::init_fission_rates Pages: 1 -->
<svg width="1056pt" height="680pt"
 viewBox="0.00 0.00 1056.00 679.50" xmlns="http://www.w3.org/2000/svg" xmlns:xlink="http://www.w3.org/1999/xlink">
<g id="graph0" class="graph" transform="scale(1 1) rotate(0) translate(4 675.5)">
<title>fission_rate_module::init_fission_rates</title>
<polygon fill="white" stroke="transparent" points="-4,4 -4,-675.5 1052,-675.5 1052,4 -4,4"/>
<!-- Node1 -->
<g id="node1" class="node">
<title>Node1</title>
<g id="a_node1"><a xlink:title="Initialize the fission reactions.">
<polygon fill="#bfbfbf" stroke="black" points="0,-133 0,-163 103,-163 103,-133 0,-133"/>
<text text-anchor="start" x="8" y="-151" font-family="Helvetica,sans-Serif" font-size="10.00">fission_rate_module</text>
<text text-anchor="middle" x="51.5" y="-140" font-family="Helvetica,sans-Serif" font-size="10.00">::init_fission_rates</text>
</a>
</g>
</g>
<!-- Node2 -->
<g id="node2" class="node">
<title>Node2</title>
<g id="a_node2"><a xlink:href="namespacefission__rate__module.html#ad32a6a04e2414163ecffd8f083291673" target="_top" xlink:title="Count the amount of fission rates.">
<polygon fill="white" stroke="black" points="149,-133 149,-163 254,-163 254,-133 149,-133"/>
<text text-anchor="start" x="157" y="-151" font-family="Helvetica,sans-Serif" font-size="10.00">fission_rate_module</text>
<text text-anchor="middle" x="201.5" y="-140" font-family="Helvetica,sans-Serif" font-size="10.00">::count_fission_rates</text>
</a>
</g>
</g>
<!-- Node1&#45;&gt;Node2 -->
<g id="edge1" class="edge">
<title>Node1&#45;&gt;Node2</title>
<path fill="none" stroke="midnightblue" d="M103.02,-148C114.48,-148 126.79,-148 138.66,-148"/>
<polygon fill="midnightblue" stroke="midnightblue" points="138.95,-151.5 148.95,-148 138.95,-144.5 138.95,-151.5"/>
</g>
<!-- Node6 -->
<g id="node6" class="node">
<title>Node6</title>
<g id="a_node6"><a xlink:href="namespaceerror__msg__class.html#a2453d3b7cb363115c046840baa1dfb75" target="_top" xlink:title="Raise a exception with a given error message.">
<polygon fill="white" stroke="black" points="794,-323 794,-353 908,-353 908,-323 794,-323"/>
<text text-anchor="start" x="802" y="-341" font-family="Helvetica,sans-Serif" font-size="10.00">error_msg_class::raise</text>
<text text-anchor="middle" x="851" y="-330" font-family="Helvetica,sans-Serif" font-size="10.00">_exception</text>
</a>
</g>
</g>
<!-- Node1&#45;&gt;Node6 -->
<g id="edge8" class="edge">
<title>Node1&#45;&gt;Node6</title>
<path fill="none" stroke="midnightblue" d="M55.54,-163.08C69.39,-227.15 133.24,-477 300,-554 484.96,-639.41 601.65,-665.62 758,-535 799.75,-500.12 770.11,-466.88 794,-418 804.05,-397.44 819.07,-376.31 831.03,-360.94"/>
<polygon fill="midnightblue" stroke="midnightblue" points="833.83,-363.04 837.31,-353.03 828.35,-358.69 833.83,-363.04"/>
</g>
<!-- Node8 -->
<g id="node8" class="node">
<title>Node8</title>
<g id="a_node8"><a xlink:href="namespacefission__rate__module.html#a66a09d5b4e3a95b7c3ac9b70528ca482" target="_top" xlink:title="Reads fission rates.">
<polygon fill="white" stroke="black" points="150,-332 150,-362 253,-362 253,-332 150,-332"/>
<text text-anchor="start" x="158" y="-350" font-family="Helvetica,sans-Serif" font-size="10.00">fission_rate_module</text>
<text text-anchor="middle" x="201.5" y="-339" font-family="Helvetica,sans-Serif" font-size="10.00">::read_fission_rates</text>
</a>
</g>
</g>
<!-- Node1&#45;&gt;Node8 -->
<g id="edge9" class="edge">
<title>Node1&#45;&gt;Node8</title>
<path fill="none" stroke="midnightblue" d="M63.87,-163.28C89.65,-197.95 152.69,-282.72 183.29,-323.85"/>
<polygon fill="midnightblue" stroke="midnightblue" points="180.52,-326 189.3,-331.94 186.14,-321.82 180.52,-326"/>
</g>
<!-- Node17 -->
<g id="node17" class="node">
<title>Node17</title>
<g id="a_node17"><a xlink:href="namespacefission__rate__module.html#a482abf656979513ab2b0de0855d472a8" target="_top" xlink:title="Reorder the fission fragments.">
<polygon fill="white" stroke="black" points="466.5,-94 466.5,-124 569.5,-124 569.5,-94 466.5,-94"/>
<text text-anchor="start" x="474.5" y="-112" font-family="Helvetica,sans-Serif" font-size="10.00">fission_rate_module</text>
<text text-anchor="middle" x="518" y="-101" font-family="Helvetica,sans-Serif" font-size="10.00">::reorder_fragments</text>
</a>
</g>
</g>
<!-- Node1&#45;&gt;Node17 -->
<g id="edge35" class="edge">
<title>Node1&#45;&gt;Node17</title>
<path fill="none" stroke="midnightblue" d="M96.92,-132.91C110.29,-128.98 125.11,-125.23 139,-123 249.85,-105.2 381.22,-104.93 456.27,-106.72"/>
<polygon fill="midnightblue" stroke="midnightblue" points="456.39,-110.22 466.48,-106.98 456.57,-103.22 456.39,-110.22"/>
</g>
<!-- Node20 -->
<g id="node20" class="node">
<title>Node20</title>
<g id="a_node20"><a xlink:href="namespacefission__rate__module.html#a95b0391358cfc33402ccbdb7936a10e3" target="_top" xlink:title="Write the amount of individual reactions to the out.">
<polygon fill="white" stroke="black" points="139,-29 139,-59 264,-59 264,-29 139,-29"/>
<text text-anchor="start" x="147" y="-47" font-family="Helvetica,sans-Serif" font-size="10.00">fission_rate_module</text>
<text text-anchor="middle" x="201.5" y="-36" font-family="Helvetica,sans-Serif" font-size="10.00">::write_reac_verbose_out</text>
</a>
</g>
</g>
<!-- Node1&#45;&gt;Node20 -->
<g id="edge42" class="edge">
<title>Node1&#45;&gt;Node20</title>
<path fill="none" stroke="midnightblue" d="M67.79,-132.8C84.36,-116.84 112.07,-91.67 139,-74 144.61,-70.32 150.73,-66.81 156.87,-63.56"/>
<polygon fill="midnightblue" stroke="midnightblue" points="158.49,-66.67 165.82,-59.02 155.32,-60.42 158.49,-66.67"/>
</g>
<!-- Node3 -->
<g id="node3" class="node">
<title>Node3</title>
<g id="a_node3"><a xlink:href="namespacebenam__class.html#ad20c821347dd5f7c08dff59c98e69657" target="_top" xlink:title="Returns the index number of isotope &#39;name&#39;.">
<polygon fill="white" stroke="black" points="308.5,-154.5 308.5,-173.5 416.5,-173.5 416.5,-154.5 308.5,-154.5"/>
<text text-anchor="middle" x="362.5" y="-161.5" font-family="Helvetica,sans-Serif" font-size="10.00">benam_class::benam</text>
</a>
</g>
</g>
<!-- Node2&#45;&gt;Node3 -->
<g id="edge2" class="edge">
<title>Node2&#45;&gt;Node3</title>
<path fill="none" stroke="midnightblue" d="M254.12,-153.19C268.19,-154.61 283.6,-156.16 298.24,-157.63"/>
<polygon fill="midnightblue" stroke="midnightblue" points="297.93,-161.12 308.23,-158.64 298.63,-154.16 297.93,-161.12"/>
</g>
<!-- Node4 -->
<g id="node4" class="node">
<title>Node4</title>
<g id="a_node4"><a xlink:href="namespacefile__handling__class.html#aab870caaf9cbaaf635d537708efbf793" target="_top" xlink:title="Same for reading (input file)">
<polygon fill="white" stroke="black" points="469,-214 469,-244 567,-244 567,-214 469,-214"/>
<text text-anchor="start" x="477" y="-232" font-family="Helvetica,sans-Serif" font-size="10.00">file_handling_class</text>
<text text-anchor="middle" x="518" y="-221" font-family="Helvetica,sans-Serif" font-size="10.00">::open_infile</text>
</a>
</g>
</g>
<!-- Node2&#45;&gt;Node4 -->
<g id="edge3" class="edge">
<title>Node2&#45;&gt;Node4</title>
<path fill="none" stroke="midnightblue" d="M254.36,-136.63C300.73,-128.91 369.71,-123.56 425,-145 456.37,-157.17 483.59,-185.57 500.11,-205.98"/>
<polygon fill="midnightblue" stroke="midnightblue" points="497.4,-208.18 506.32,-213.89 502.91,-203.86 497.4,-208.18"/>
</g>
<!-- Node5 -->
<g id="node5" class="node">
<title>Node5</title>
<g id="a_node5"><a xlink:href="namespacefile__handling__class.html#af02196bd5eaf70ecd5ab4cc650094d5e" target="_top" xlink:title="Finds the next unused unit number.">
<polygon fill="white" stroke="black" points="635.5,-216 635.5,-246 733.5,-246 733.5,-216 635.5,-216"/>
<text text-anchor="start" x="643.5" y="-234" font-family="Helvetica,sans-Serif" font-size="10.00">file_handling_class</text>
<text text-anchor="middle" x="684.5" y="-223" font-family="Helvetica,sans-Serif" font-size="10.00">::get_next_io_unit</text>
</a>
</g>
</g>
<!-- Node4&#45;&gt;Node5 -->
<g id="edge4" class="edge">
<title>Node4&#45;&gt;Node5</title>
<path fill="none" stroke="midnightblue" d="M567.02,-229.58C585.27,-229.81 606.25,-230.06 625.34,-230.29"/>
<polygon fill="midnightblue" stroke="midnightblue" points="625.38,-233.79 635.42,-230.42 625.46,-226.79 625.38,-233.79"/>
</g>
<!-- Node4&#45;&gt;Node6 -->
<g id="edge7" class="edge">
<title>Node4&#45;&gt;Node6</title>
<path fill="none" stroke="midnightblue" d="M567.12,-243.51C581.23,-247.66 596.71,-252.11 611,-256 676,-273.71 694.73,-269.85 758,-293 777.02,-299.96 797.33,-309.63 814.01,-318.23"/>
<polygon fill="midnightblue" stroke="midnightblue" points="812.4,-321.33 822.88,-322.87 815.64,-315.13 812.4,-321.33"/>
</g>
<!-- Node5&#45;&gt;Node6 -->
<g id="edge5" class="edge">
<title>Node5&#45;&gt;Node6</title>
<path fill="none" stroke="midnightblue" d="M721.77,-246.01C733.62,-251.43 746.65,-257.97 758,-265 782.35,-280.08 807.68,-300.6 825.58,-316.04"/>
<polygon fill="midnightblue" stroke="midnightblue" points="823.42,-318.8 833.25,-322.74 828.02,-313.52 823.42,-318.8"/>
</g>
<!-- Node7 -->
<g id="node7" class="node">
<title>Node7</title>
<g id="a_node7"><a xlink:href="namespaceerror__msg__class.html#a7e065585cc806a5c264de1f088266498" target="_top" xlink:title="Converts a given integer to a string.">
<polygon fill="white" stroke="black" points="944,-151 944,-181 1048,-181 1048,-151 944,-151"/>
<text text-anchor="start" x="952" y="-169" font-family="Helvetica,sans-Serif" font-size="10.00">error_msg_class::int</text>
<text text-anchor="middle" x="996" y="-158" font-family="Helvetica,sans-Serif" font-size="10.00">_to_str</text>
</a>
</g>
</g>
<!-- Node6&#45;&gt;Node7 -->
<g id="edge6" class="edge">
<title>Node6&#45;&gt;Node7</title>
<path fill="none" stroke="midnightblue" d="M864.69,-322.74C889.75,-292.59 945.73,-225.26 975.51,-189.45"/>
<polygon fill="midnightblue" stroke="midnightblue" points="978.43,-191.4 982.13,-181.48 973.05,-186.93 978.43,-191.4"/>
</g>
<!-- Node8&#45;&gt;Node3 -->
<g id="edge16" class="edge">
<title>Node8&#45;&gt;Node3</title>
<path fill="none" stroke="midnightblue" d="M208.03,-331.6C220.02,-300.29 251.31,-228.71 300,-188 304.85,-183.95 310.46,-180.53 316.28,-177.65"/>
<polygon fill="midnightblue" stroke="midnightblue" points="317.78,-180.82 325.52,-173.58 314.96,-174.41 317.78,-180.82"/>
</g>
<!-- Node8&#45;&gt;Node4 -->
<g id="edge30" class="edge">
<title>Node8&#45;&gt;Node4</title>
<path fill="none" stroke="midnightblue" d="M214.51,-331.75C231.29,-311.64 263.79,-276.83 300,-260 350.1,-236.7 413.17,-229.86 458.39,-228.3"/>
<polygon fill="midnightblue" stroke="midnightblue" points="458.71,-231.8 468.61,-228.03 458.52,-224.8 458.71,-231.8"/>
</g>
<!-- Node8&#45;&gt;Node6 -->
<g id="edge31" class="edge">
<title>Node8&#45;&gt;Node6</title>
<path fill="none" stroke="midnightblue" d="M205.75,-362.11C214.23,-397.36 240.58,-484.94 300,-523 403.02,-588.98 453.04,-544.6 575,-535 657.09,-528.54 693.44,-557.13 758,-506 791.13,-479.76 773.76,-455.09 794,-418 804.96,-397.91 819.94,-376.76 831.64,-361.26"/>
<polygon fill="midnightblue" stroke="midnightblue" points="834.46,-363.33 837.76,-353.27 828.9,-359.08 834.46,-363.33"/>
</g>
<!-- Node8&#45;&gt;Node7 -->
<g id="edge22" class="edge">
<title>Node8&#45;&gt;Node7</title>
<path fill="none" stroke="midnightblue" d="M209.92,-331.63C223.62,-305.08 255.6,-251.08 300,-226 362.88,-190.48 389.17,-211.46 461,-204 551.05,-194.65 813.31,-177.52 933.51,-169.87"/>
<polygon fill="midnightblue" stroke="midnightblue" points="933.9,-173.35 943.65,-169.23 933.45,-166.37 933.9,-173.35"/>
</g>
<!-- Node9 -->
<g id="node9" class="node">
<title>Node9</title>
<g id="a_node9"><a xlink:href="namespacefission__rate__module.html#ae8db3f843a530e45390d2b6042de390e" target="_top" xlink:title="Calculates the (beta&#45;delayed and spontaneous) fission fragment mass distribution according to the ABL...">
<polygon fill="white" stroke="black" points="466.5,-263 466.5,-293 569.5,-293 569.5,-263 466.5,-263"/>
<text text-anchor="start" x="474.5" y="-281" font-family="Helvetica,sans-Serif" font-size="10.00">fission_rate_module</text>
<text text-anchor="middle" x="518" y="-270" font-family="Helvetica,sans-Serif" font-size="10.00">::abla_betafiss</text>
</a>
</g>
</g>
<!-- Node8&#45;&gt;Node9 -->
<g id="edge10" class="edge">
<title>Node8&#45;&gt;Node9</title>
<path fill="none" stroke="midnightblue" d="M253.34,-340.62C298.74,-334.37 366.86,-323.66 425,-309 438.81,-305.52 453.52,-300.96 467.04,-296.41"/>
<polygon fill="midnightblue" stroke="midnightblue" points="468.32,-299.67 476.65,-293.12 466.05,-293.05 468.32,-299.67"/>
</g>
<!-- Node11 -->
<g id="node11" class="node">
<title>Node11</title>
<g id="a_node11"><a xlink:href="namespacefission__rate__module.html#a07f34766739ee866664d2edd5134257e" target="_top" xlink:title="Calculates the (neutron&#45;induced) fission fragment mass distribution according to the ABLA07 model: Ke...">
<polygon fill="white" stroke="black" points="466.5,-351 466.5,-381 569.5,-381 569.5,-351 466.5,-351"/>
<text text-anchor="start" x="474.5" y="-369" font-family="Helvetica,sans-Serif" font-size="10.00">fission_rate_module</text>
<text text-anchor="middle" x="518" y="-358" font-family="Helvetica,sans-Serif" font-size="10.00">::abla_nfiss</text>
</a>
</g>
</g>
<!-- Node8&#45;&gt;Node11 -->
<g id="edge13" class="edge">
<title>Node8&#45;&gt;Node11</title>
<path fill="none" stroke="midnightblue" d="M253.03,-350.05C308.31,-353.39 396.92,-358.75 456.02,-362.32"/>
<polygon fill="midnightblue" stroke="midnightblue" points="456.14,-365.83 466.34,-362.94 456.56,-358.84 456.14,-365.83"/>
</g>
<!-- Node12 -->
<g id="node12" class="node">
<title>Node12</title>
<g id="a_node12"><a xlink:href="namespacefile__handling__class.html#a01ba26324d7662cc0fb2e0eb306cd3e2" target="_top" xlink:title="Close an external file.">
<polygon fill="white" stroke="black" points="635.5,-641 635.5,-671 733.5,-671 733.5,-641 635.5,-641"/>
<text text-anchor="start" x="643.5" y="-659" font-family="Helvetica,sans-Serif" font-size="10.00">file_handling_class</text>
<text text-anchor="middle" x="684.5" y="-648" font-family="Helvetica,sans-Serif" font-size="10.00">::close_io_file</text>
</a>
</g>
</g>
<!-- Node8&#45;&gt;Node12 -->
<g id="edge17" class="edge">
<title>Node8&#45;&gt;Node12</title>
<path fill="none" stroke="midnightblue" d="M203.71,-362.07C208.01,-404.98 226.53,-528.48 300,-588 393.84,-664.03 543.42,-667.07 625.28,-661.96"/>
<polygon fill="midnightblue" stroke="midnightblue" points="625.66,-665.44 635.4,-661.26 625.18,-658.46 625.66,-665.44"/>
</g>
<!-- Node13 -->
<g id="node13" class="node">
<title>Node13</title>
<g id="a_node13"><a xlink:href="namespacefission__rate__module.html#a94d8dad6194b7b50ef10c43cf825bcb2" target="_top" xlink:title="Determines fission fragment mass distribution as described in Panov et al. 2001.">
<polygon fill="white" stroke="black" points="311,-395 311,-425 414,-425 414,-395 311,-395"/>
<text text-anchor="start" x="319" y="-413" font-family="Helvetica,sans-Serif" font-size="10.00">fission_rate_module</text>
<text text-anchor="middle" x="362.5" y="-402" font-family="Helvetica,sans-Serif" font-size="10.00">::fiss_dist</text>
</a>
</g>
</g>
<!-- Node8&#45;&gt;Node13 -->
<g id="edge20" class="edge">
<title>Node8&#45;&gt;Node13</title>
<path fill="none" stroke="midnightblue" d="M240.58,-362.09C262.63,-370.82 290.57,-381.89 314.03,-391.19"/>
<polygon fill="midnightblue" stroke="midnightblue" points="312.86,-394.49 323.45,-394.92 315.44,-387.99 312.86,-394.49"/>
</g>
<!-- Node14 -->
<g id="node14" class="node">
<title>Node14</title>
<g id="a_node14"><a xlink:href="namespacefission__rate__module.html#a65555b9c0e03986c67316c9a6391b92b" target="_top" xlink:title="Kodama&#45;Takahashi distribution.">
<polygon fill="white" stroke="black" points="466.5,-477 466.5,-507 569.5,-507 569.5,-477 466.5,-477"/>
<text text-anchor="start" x="474.5" y="-495" font-family="Helvetica,sans-Serif" font-size="10.00">fission_rate_module</text>
<text text-anchor="middle" x="518" y="-484" font-family="Helvetica,sans-Serif" font-size="10.00">::kodtakdist</text>
</a>
</g>
</g>
<!-- Node8&#45;&gt;Node14 -->
<g id="edge23" class="edge">
<title>Node8&#45;&gt;Node14</title>
<path fill="none" stroke="midnightblue" d="M215.06,-362.16C232.22,-381.87 264.9,-416.03 300,-435 326.85,-449.52 402.18,-467.63 456.54,-479.49"/>
<polygon fill="midnightblue" stroke="midnightblue" points="455.92,-482.93 466.44,-481.62 457.4,-476.09 455.92,-482.93"/>
</g>
<!-- Node15 -->
<g id="node15" class="node">
<title>Node15</title>
<g id="a_node15"><a xlink:href="namespacefission__rate__module.html#a485bd4cff08304fddf3b750f249e4bcd" target="_top" xlink:title="Fill the rates with the correct fragments.">
<polygon fill="white" stroke="black" points="311,-483 311,-513 414,-513 414,-483 311,-483"/>
<text text-anchor="start" x="319" y="-501" font-family="Helvetica,sans-Serif" font-size="10.00">fission_rate_module</text>
<text text-anchor="middle" x="362.5" y="-490" font-family="Helvetica,sans-Serif" font-size="10.00">::mumpower_fiss</text>
</a>
</g>
</g>
<!-- Node8&#45;&gt;Node15 -->
<g id="edge26" class="edge">
<title>Node8&#45;&gt;Node15</title>
<path fill="none" stroke="midnightblue" d="M211.58,-362.18C227.08,-387.02 260.77,-436.71 300,-468 304.58,-471.65 309.68,-475.01 314.93,-478.06"/>
<polygon fill="midnightblue" stroke="midnightblue" points="313.37,-481.19 323.83,-482.87 316.7,-475.04 313.37,-481.19"/>
</g>
<!-- Node16 -->
<g id="node16" class="node">
<title>Node16</title>
<g id="a_node16"><a xlink:href="namespacefission__rate__module.html#a0b06b73d37a47426c5c291e84c5141aa" target="_top" xlink:title="Read the fission distribution from a file.">
<polygon fill="white" stroke="black" points="300,-269 300,-299 425,-299 425,-269 300,-269"/>
<text text-anchor="start" x="308" y="-287" font-family="Helvetica,sans-Serif" font-size="10.00">fission_rate_module</text>
<text text-anchor="middle" x="362.5" y="-276" font-family="Helvetica,sans-Serif" font-size="10.00">::read_mumpower_fissfile</text>
</a>
</g>
</g>
<!-- Node8&#45;&gt;Node16 -->
<g id="edge32" class="edge">
<title>Node8&#45;&gt;Node16</title>
<path fill="none" stroke="midnightblue" d="M240.58,-331.91C262.63,-323.18 290.57,-312.11 314.03,-302.81"/>
<polygon fill="midnightblue" stroke="midnightblue" points="315.44,-306.01 323.45,-299.08 312.86,-299.51 315.44,-306.01"/>
</g>
<!-- Node9&#45;&gt;Node6 -->
<g id="edge12" class="edge">
<title>Node9&#45;&gt;Node6</title>
<path fill="none" stroke="midnightblue" d="M569.63,-287.18C627.05,-297.59 720.86,-314.59 783.98,-326.03"/>
<polygon fill="midnightblue" stroke="midnightblue" points="783.37,-329.48 793.83,-327.82 784.62,-322.59 783.37,-329.48"/>
</g>
<!-- Node10 -->
<g id="node10" class="node">
<title>Node10</title>
<g id="a_node10"><a xlink:href="namespacebenam__class.html#ad2f566697809a5731e560509d2ca7062" target="_top" xlink:title="Finds an isotope index in the network table, given its A and Z. In case it was not found,...">
<polygon fill="white" stroke="black" points="632.5,-393.5 632.5,-412.5 736.5,-412.5 736.5,-393.5 632.5,-393.5"/>
<text text-anchor="middle" x="684.5" y="-400.5" font-family="Helvetica,sans-Serif" font-size="10.00">benam_class::findaz</text>
</a>
</g>
</g>
<!-- Node9&#45;&gt;Node10 -->
<g id="edge11" class="edge">
<title>Node9&#45;&gt;Node10</title>
<path fill="none" stroke="midnightblue" d="M550.26,-293.13C558.53,-297.56 567.29,-302.66 575,-308 609.89,-332.15 646.15,-365.97 666.66,-386.06"/>
<polygon fill="midnightblue" stroke="midnightblue" points="664.39,-388.74 673.96,-393.29 669.31,-383.76 664.39,-388.74"/>
</g>
<!-- Node11&#45;&gt;Node6 -->
<g id="edge15" class="edge">
<title>Node11&#45;&gt;Node6</title>
<path fill="none" stroke="midnightblue" d="M569.63,-361.72C626.93,-356.87 720.47,-348.96 783.59,-343.62"/>
<polygon fill="midnightblue" stroke="midnightblue" points="784.16,-347.08 793.83,-342.75 783.57,-340.11 784.16,-347.08"/>
</g>
<!-- Node11&#45;&gt;Node10 -->
<g id="edge14" class="edge">
<title>Node11&#45;&gt;Node10</title>
<path fill="none" stroke="midnightblue" d="M569.7,-377.4C589.15,-381.78 611.38,-386.78 631,-391.19"/>
<polygon fill="midnightblue" stroke="midnightblue" points="630.47,-394.66 641,-393.44 632.01,-387.83 630.47,-394.66"/>
</g>
<!-- Node12&#45;&gt;Node6 -->
<g id="edge19" class="edge">
<title>Node12&#45;&gt;Node6</title>
<path fill="none" stroke="midnightblue" d="M733.78,-643.01C742.76,-638.79 751.39,-633.24 758,-626 794.39,-586.13 777.64,-561.44 794,-510 810.66,-457.61 830.72,-396.44 841.74,-363"/>
<polygon fill="midnightblue" stroke="midnightblue" points="845.18,-363.76 844.99,-353.16 838.53,-361.56 845.18,-363.76"/>
</g>
<!-- Node12&#45;&gt;Node7 -->
<g id="edge18" class="edge">
<title>Node12&#45;&gt;Node7</title>
<path fill="none" stroke="midnightblue" d="M733.75,-641.31C742.43,-637.26 750.95,-632.21 758,-626 900.61,-500.31 969.38,-268.14 988.95,-191.38"/>
<polygon fill="midnightblue" stroke="midnightblue" points="992.47,-191.76 991.49,-181.21 985.67,-190.07 992.47,-191.76"/>
</g>
<!-- Node13&#45;&gt;Node10 -->
<g id="edge21" class="edge">
<title>Node13&#45;&gt;Node10</title>
<path fill="none" stroke="midnightblue" d="M414.2,-408.89C470.6,-407.66 561.69,-405.66 622.08,-404.34"/>
<polygon fill="midnightblue" stroke="midnightblue" points="622.32,-407.84 632.24,-404.12 622.16,-400.84 622.32,-407.84"/>
</g>
<!-- Node14&#45;&gt;Node6 -->
<g id="edge25" class="edge">
<title>Node14&#45;&gt;Node6</title>
<path fill="none" stroke="midnightblue" d="M569.66,-484.07C619.91,-474.66 697.9,-455.81 758,-422 786.37,-406.04 813.18,-379.81 830.46,-360.91"/>
<polygon fill="midnightblue" stroke="midnightblue" points="833.2,-363.09 837.26,-353.31 827.98,-358.43 833.2,-363.09"/>
</g>
<!-- Node14&#45;&gt;Node10 -->
<g id="edge24" class="edge">
<title>Node14&#45;&gt;Node10</title>
<path fill="none" stroke="midnightblue" d="M547.22,-476.93C556.11,-472.16 565.97,-466.87 575,-462 602.94,-446.92 634.86,-429.54 656.81,-417.57"/>
<polygon fill="midnightblue" stroke="midnightblue" points="658.75,-420.5 665.85,-412.64 655.4,-414.36 658.75,-420.5"/>
</g>
<!-- Node15&#45;&gt;Node6 -->
<g id="edge29" class="edge">
<title>Node15&#45;&gt;Node6</title>
<path fill="none" stroke="midnightblue" d="M414.08,-509.77C429.1,-512.75 445.64,-515.52 461,-517 594.62,-529.9 648.14,-539.15 758,-462 767.97,-455 810.16,-395.43 833.79,-361.47"/>
<polygon fill="midnightblue" stroke="midnightblue" points="836.82,-363.25 839.64,-353.04 831.07,-359.26 836.82,-363.25"/>
</g>
<!-- Node15&#45;&gt;Node10 -->
<g id="edge27" class="edge">
<title>Node15&#45;&gt;Node10</title>
<path fill="none" stroke="midnightblue" d="M412.06,-482.91C427.67,-478.1 445.05,-472.78 461,-468 523.36,-449.3 595.75,-428.28 640.6,-415.34"/>
<polygon fill="midnightblue" stroke="midnightblue" points="641.64,-418.68 650.28,-412.54 639.71,-411.95 641.64,-418.68"/>
</g>
<!-- Node15&#45;&gt;Node14 -->
<g id="edge28" class="edge">
<title>Node15&#45;&gt;Node14</title>
<path fill="none" stroke="midnightblue" d="M414.19,-496.02C427.68,-495.49 442.39,-494.92 456.36,-494.37"/>
<polygon fill="midnightblue" stroke="midnightblue" points="456.51,-497.87 466.37,-493.98 456.24,-490.87 456.51,-497.87"/>
</g>
<!-- Node16&#45;&gt;Node4 -->
<g id="edge34" class="edge">
<title>Node16&#45;&gt;Node4</title>
<path fill="none" stroke="midnightblue" d="M405.44,-268.97C423.97,-262.33 445.94,-254.46 465.45,-247.47"/>
<polygon fill="midnightblue" stroke="midnightblue" points="466.87,-250.68 475.11,-244.01 464.51,-244.09 466.87,-250.68"/>
</g>
<!-- Node16&#45;&gt;Node10 -->
<g id="edge33" class="edge">
<title>Node16&#45;&gt;Node10</title>
<path fill="none" stroke="midnightblue" d="M425.44,-296.77C468.32,-306.62 526.22,-321.96 575,-342 605.82,-354.66 638.87,-374.2 660.29,-387.74"/>
<polygon fill="midnightblue" stroke="midnightblue" points="658.68,-390.86 668.99,-393.31 662.46,-384.97 658.68,-390.86"/>
</g>
<!-- Node18 -->
<g id="node18" class="node">
<title>Node18</title>
<g id="a_node18"><a xlink:href="namespacemergesort__module.html#a68c6cd380e0fbe122d41846adf3f6a5d" target="_top" xlink:title="Bubblesort of array.">
<polygon fill="white" stroke="black" points="611.5,-137.5 611.5,-156.5 757.5,-156.5 757.5,-137.5 611.5,-137.5"/>
<text text-anchor="middle" x="684.5" y="-144.5" font-family="Helvetica,sans-Serif" font-size="10.00">mergesort_module::bubblesort</text>
</a>
</g>
</g>
<!-- Node17&#45;&gt;Node18 -->
<g id="edge36" class="edge">
<title>Node17&#45;&gt;Node18</title>
<path fill="none" stroke="midnightblue" d="M569.7,-120.71C589.64,-125.32 612.51,-130.6 632.49,-135.22"/>
<polygon fill="midnightblue" stroke="midnightblue" points="631.81,-138.65 642.34,-137.49 633.38,-131.83 631.81,-138.65"/>
</g>
<!-- Node19 -->
<g id="node19" class="node">
<title>Node19</title>
<g id="a_node19"><a xlink:href="namespacemergesort__module.html#acbae2585fc0a5f2f3d14238cb54614d6" target="_top" xlink:title="Takes an array and an array with indices to reorder the first array.">
<polygon fill="white" stroke="black" points="611,-99.5 611,-118.5 758,-118.5 758,-99.5 611,-99.5"/>
<text text-anchor="middle" x="684.5" y="-106.5" font-family="Helvetica,sans-Serif" font-size="10.00">mergesort_module::reorder_int</text>
</a>
</g>
</g>
<!-- Node17&#45;&gt;Node19 -->
<g id="edge39" class="edge">
<title>Node17&#45;&gt;Node19</title>
<path fill="none" stroke="midnightblue" d="M569.7,-109C579.57,-109 590.16,-109 600.76,-109"/>
<polygon fill="midnightblue" stroke="midnightblue" points="600.9,-112.5 610.9,-109 600.9,-105.5 600.9,-112.5"/>
</g>
<!-- Node18&#45;&gt;Node6 -->
<g id="edge38" class="edge">
<title>Node18&#45;&gt;Node6</title>
<path fill="none" stroke="midnightblue" d="M699.56,-156.63C714.93,-167.54 739.78,-186.38 758,-206 789.93,-240.4 819.57,-286.5 836.18,-314.13"/>
<polygon fill="midnightblue" stroke="midnightblue" points="833.18,-315.93 841.3,-322.74 839.2,-312.36 833.18,-315.93"/>
</g>
<!-- Node18&#45;&gt;Node7 -->
<g id="edge37" class="edge">
<title>Node18&#45;&gt;Node7</title>
<path fill="none" stroke="midnightblue" d="M757.67,-151.43C810.98,-154.7 882.78,-159.11 933.4,-162.22"/>
<polygon fill="midnightblue" stroke="midnightblue" points="933.35,-165.72 943.55,-162.84 933.78,-158.73 933.35,-165.72"/>
</g>
<!-- Node19&#45;&gt;Node6 -->
<g id="edge41" class="edge">
<title>Node19&#45;&gt;Node6</title>
<path fill="none" stroke="midnightblue" d="M742.63,-118.53C748.19,-121.01 753.45,-124.11 758,-128 815.45,-177.09 838.29,-268.86 846.25,-313.01"/>
<polygon fill="midnightblue" stroke="midnightblue" points="842.81,-313.64 847.93,-322.91 849.71,-312.47 842.81,-313.64"/>
</g>
<!-- Node19&#45;&gt;Node7 -->
<g id="edge40" class="edge">
<title>Node19&#45;&gt;Node7</title>
<path fill="none" stroke="midnightblue" d="M737.3,-118.54C791.44,-128.51 876.35,-144.15 933.77,-154.72"/>
<polygon fill="midnightblue" stroke="midnightblue" points="933.33,-158.2 943.8,-156.57 934.6,-151.32 933.33,-158.2"/>
</g>
<!-- Node20&#45;&gt;Node7 -->
<g id="edge43" class="edge">
<title>Node20&#45;&gt;Node7</title>
<path fill="none" stroke="midnightblue" d="M254.53,-28.98C269.14,-25.22 285.1,-21.54 300,-19 395.43,-2.7 420.19,0 517,0 517,0 517,0 685.5,0 805.93,0 924.75,-98.81 972.77,-143.96"/>
<polygon fill="midnightblue" stroke="midnightblue" points="970.47,-146.6 980.12,-150.98 975.3,-141.54 970.47,-146.6"/>
</g>
<!-- Node21 -->
<g id="node21" class="node">
<title>Node21</title>
<g id="a_node21"><a xlink:href="namespaceerror__msg__class.html#a339dd5b38c125b6a04653762c94a91f2" target="_top" xlink:title="Write data to the standard output (usually OUT)">
<polygon fill="white" stroke="black" points="305.5,-29 305.5,-59 419.5,-59 419.5,-29 305.5,-29"/>
<text text-anchor="start" x="313.5" y="-47" font-family="Helvetica,sans-Serif" font-size="10.00">error_msg_class::write</text>
<text text-anchor="middle" x="362.5" y="-36" font-family="Helvetica,sans-Serif" font-size="10.00">_data_to_std_out</text>
</a>
</g>
</g>
<!-- Node20&#45;&gt;Node21 -->
<g id="edge44" class="edge">
<title>Node20&#45;&gt;Node21</title>
<path fill="none" stroke="midnightblue" d="M264.43,-44C274.57,-44 285.1,-44 295.34,-44"/>
<polygon fill="midnightblue" stroke="midnightblue" points="295.44,-47.5 305.44,-44 295.44,-40.5 295.44,-47.5"/>
</g>
<!-- Node22 -->
<g id="node22" class="node">
<title>Node22</title>
<g id="a_node22"><a xlink:href="namespaceerror__msg__class.html#af62b9a0c5997255e792b9ebd7322a6a3" target="_top" xlink:title="Write the header of the standard output (usually OUT)">
<polygon fill="white" stroke="black" points="461,-29 461,-59 575,-59 575,-29 461,-29"/>
<text text-anchor="start" x="469" y="-47" font-family="Helvetica,sans-Serif" font-size="10.00">error_msg_class::write</text>
<text text-anchor="middle" x="518" y="-36" font-family="Helvetica,sans-Serif" font-size="10.00">_header</text>
</a>
</g>
</g>
<!-- Node21&#45;&gt;Node22 -->
<g id="edge45" class="edge">
<title>Node21&#45;&gt;Node22</title>
<path fill="none" stroke="midnightblue" d="M419.79,-37.47C429.86,-37.25 440.44,-37.19 450.77,-37.31"/>
<polygon fill="midnightblue" stroke="midnightblue" points="450.92,-40.81 460.98,-37.47 451.04,-33.81 450.92,-40.81"/>
</g>
<!-- Node22&#45;&gt;Node21 -->
<g id="edge46" class="edge">
<title>Node22&#45;&gt;Node21</title>
<path fill="none" stroke="midnightblue" d="M460.98,-50.53C450.91,-50.75 440.33,-50.81 430,-50.7"/>
<polygon fill="midnightblue" stroke="midnightblue" points="429.84,-47.19 419.79,-50.53 429.73,-54.19 429.84,-47.19"/>
</g>
</g>
</svg>
