<?xml version="1.0" encoding="UTF-8" standalone="no"?>
<!DOCTYPE svg PUBLIC "-//W3C//DTD SVG 1.1//EN"
 "http://www.w3.org/Graphics/SVG/1.1/DTD/svg11.dtd">
<!-- Generated by graphviz version 2.44.0 ()
 -->
<!-- Title: analysis::calc_nuclear_heating Pages: 1 -->
<!--zoomable 311 -->
<svg id="main" version="1.1" xmlns="http://www.w3.org/2000/svg" xmlns:xlink="http://www.w3.org/1999/xlink" xml:space="preserve" onload="init(evt)">
<style type="text/css"><![CDATA[
.edge:hover path { stroke: red; }
.edge:hover polygon { stroke: red; fill: red; }
]]></style>
<script type="text/javascript"><![CDATA[
var edges = document.getElementsByTagName('g');
if (edges && edges.length) {
  for (var i=0;i<edges.length;i++) {
    if (edges[i].id.substr(0,4)=='edge') {
      edges[i].setAttribute('class','edge');
    }
  }
}
]]></script>
        <defs>
                <circle id="rim" cx="0" cy="0" r="7"/>
                <circle id="rim2" cx="0" cy="0" r="3.5"/>
                <g id="zoomPlus">
                        <use xlink:href="#rim" fill="#404040">
                                <set attributeName="fill" to="#808080" begin="zoomplus.mouseover" end="zoomplus.mouseout"/>
                        </use>
                        <path d="M-4,0h8M0,-4v8" fill="none" stroke="white" stroke-width="1.5" pointer-events="none"/>
                </g>
                <g id="zoomMin">
                        <use xlink:href="#rim" fill="#404040">
                                <set attributeName="fill" to="#808080" begin="zoomminus.mouseover" end="zoomminus.mouseout"/>
                        </use>
                        <path d="M-4,0h8" fill="none" stroke="white" stroke-width="1.5" pointer-events="none"/>
                </g>
                <g id="dirArrow">
                        <path fill="none" stroke="white" stroke-width="1.5" d="M0,-3.0v7 M-2.5,-0.5L0,-3.0L2.5,-0.5"/>
                </g>
               <g id="resetDef">
                       <use xlink:href="#rim2" fill="#404040">
                               <set attributeName="fill" to="#808080" begin="reset.mouseover" end="reset.mouseout"/>
                       </use>
               </g>
        </defs>

<script type="text/javascript">
var viewWidth = 911;
var viewHeight = 311;
var sectionId = 'dynsection-3';
</script>
<script xlink:href="svgpan.js"/>
<svg id="graph" class="graph">
<g id="viewport">
<title>analysis::calc_nuclear_heating</title>
<polygon fill="white" stroke="transparent" points="-4,4 -4,-307 907,-307 907,4 -4,4"/>
<!-- Node1 -->
<g id="node1" class="node">
<title>Node1</title>
<g id="a_node1"><a xlink:title=": Calculate the generated energy for each class of reactions separately.">
<polygon fill="#bfbfbf" stroke="black" points="0,-110.5 0,-140.5 111,-140.5 111,-110.5 0,-110.5"/>
<text text-anchor="start" x="8" y="-128.5" font-family="Helvetica,sans-Serif" font-size="10.00">analysis::calc_nuclear</text>
<text text-anchor="middle" x="55.5" y="-117.5" font-family="Helvetica,sans-Serif" font-size="10.00">_heating</text>
</a>
</g>
</g>
<!-- Node2 -->
<g id="node2" class="node">
<title>Node2</title>
<g id="a_node2"><a xlink:href="chem__pot_8f90.html#a6e7fb350a916bae49d8520394fca6414" target="_top" xlink:title="Given a temperature temp [K], density den [g/cm**3], and a composition characterized by y_e,...">
<polygon fill="white" stroke="black" points="176.5,-228 176.5,-247 230.5,-247 230.5,-228 176.5,-228"/>
<text text-anchor="middle" x="203.5" y="-235" font-family="Helvetica,sans-Serif" font-size="10.00">chempot</text>
</a>
</g>
</g>
<!-- Node1&#45;&gt;Node2 -->
<g id="edge1" class="edge">
<title>Node1&#45;&gt;Node2</title>
<path fill="none" stroke="midnightblue" d="M68.12,-140.7C84,-160.56 114.28,-195.3 147,-216.5 152.98,-220.38 159.79,-223.69 166.53,-226.47"/>
<polygon fill="midnightblue" stroke="midnightblue" points="165.67,-229.88 176.27,-230.15 168.15,-223.34 165.67,-229.88"/>
</g>
<!-- Node8 -->
<g id="node8" class="node">
<title>Node8</title>
<g id="a_node8"><a xlink:href="namespacehdf5__module.html#a555dbec659b1990a928f3f428aecf7ee" target="_top" xlink:title="Subroutine to write the energy generation per reaction type.">
<polygon fill="white" stroke="black" points="151,-176.5 151,-206.5 256,-206.5 256,-176.5 151,-176.5"/>
<text text-anchor="start" x="159" y="-194.5" font-family="Helvetica,sans-Serif" font-size="10.00">hdf5_module::extend</text>
<text text-anchor="middle" x="203.5" y="-183.5" font-family="Helvetica,sans-Serif" font-size="10.00">_engen</text>
</a>
</g>
</g>
<!-- Node1&#45;&gt;Node8 -->
<g id="edge9" class="edge">
<title>Node1&#45;&gt;Node8</title>
<path fill="none" stroke="midnightblue" d="M90,-140.64C110.77,-150.03 137.65,-162.18 159.93,-172.25"/>
<polygon fill="midnightblue" stroke="midnightblue" points="158.61,-175.5 169.16,-176.43 161.49,-169.12 158.61,-175.5"/>
</g>
<!-- Node9 -->
<g id="node9" class="node">
<title>Node9</title>
<g id="a_node9"><a xlink:href="namespacehdf5__module.html#a5957d49b523e5a49afb2018c4018b496" target="_top" xlink:title="Write energy generations and time into the hdf5 file.">
<polygon fill="white" stroke="black" points="317,-133.5 317,-163.5 415,-163.5 415,-133.5 317,-133.5"/>
<text text-anchor="start" x="325" y="-151.5" font-family="Helvetica,sans-Serif" font-size="10.00">hdf5_module::write</text>
<text text-anchor="middle" x="366" y="-140.5" font-family="Helvetica,sans-Serif" font-size="10.00">_engen</text>
</a>
</g>
</g>
<!-- Node1&#45;&gt;Node9 -->
<g id="edge20" class="edge">
<title>Node1&#45;&gt;Node9</title>
<path fill="none" stroke="midnightblue" d="M111.3,-129.59C166.23,-133.68 250.49,-139.96 306.65,-144.15"/>
<polygon fill="midnightblue" stroke="midnightblue" points="306.56,-147.65 316.79,-144.91 307.08,-140.67 306.56,-147.65"/>
</g>
<!-- Node12 -->
<g id="node12" class="node">
<title>Node12</title>
<g id="a_node12"><a xlink:href="namespacenucstuff__class.html#a7f6b5ddec08f9564638a58091e6940d7" target="_top" xlink:title="Calculates partition function.">
<polygon fill="white" stroke="black" points="152,-88.5 152,-118.5 255,-118.5 255,-88.5 152,-88.5"/>
<text text-anchor="start" x="160" y="-106.5" font-family="Helvetica,sans-Serif" font-size="10.00">nucstuff_class::inter</text>
<text text-anchor="middle" x="203.5" y="-95.5" font-family="Helvetica,sans-Serif" font-size="10.00">_partf</text>
</a>
</g>
</g>
<!-- Node1&#45;&gt;Node12 -->
<g id="edge14" class="edge">
<title>Node1&#45;&gt;Node12</title>
<path fill="none" stroke="midnightblue" d="M111.28,-117.25C121.23,-115.75 131.67,-114.17 141.78,-112.65"/>
<polygon fill="midnightblue" stroke="midnightblue" points="142.39,-116.1 151.75,-111.15 141.34,-109.18 142.39,-116.1"/>
</g>
<!-- Node13 -->
<g id="node13" class="node">
<title>Node13</title>
<g id="a_node13"><a xlink:href="namespacemergesort__module.html#abba3ce32dcc183025b2fdefc47abf5e2" target="_top" xlink:title="Quicksort of array.">
<polygon fill="white" stroke="black" points="472,-48 472,-67 613,-67 613,-48 472,-48"/>
<text text-anchor="middle" x="542.5" y="-55" font-family="Helvetica,sans-Serif" font-size="10.00">mergesort_module::quicksort</text>
</a>
</g>
</g>
<!-- Node1&#45;&gt;Node13 -->
<g id="edge15" class="edge">
<title>Node1&#45;&gt;Node13</title>
<path fill="none" stroke="midnightblue" d="M78.82,-110.46C96.49,-99.43 122.23,-85.25 147,-78.5 252.98,-49.62 380.75,-48.65 461.57,-51.98"/>
<polygon fill="midnightblue" stroke="midnightblue" points="461.53,-55.48 471.68,-52.43 461.84,-48.49 461.53,-55.48"/>
</g>
<!-- Node14 -->
<g id="node14" class="node">
<title>Node14</title>
<g id="a_node14"><a xlink:href="namespacebenam__class.html#a2e85786a53d55231776ae950b7b27953" target="_top" xlink:title="Return a string to represent a given reaction.">
<polygon fill="white" stroke="black" points="147,-0.5 147,-30.5 260,-30.5 260,-0.5 147,-0.5"/>
<text text-anchor="start" x="155" y="-18.5" font-family="Helvetica,sans-Serif" font-size="10.00">benam_class::reaction</text>
<text text-anchor="middle" x="203.5" y="-7.5" font-family="Helvetica,sans-Serif" font-size="10.00">_string</text>
</a>
</g>
</g>
<!-- Node1&#45;&gt;Node14 -->
<g id="edge18" class="edge">
<title>Node1&#45;&gt;Node14</title>
<path fill="none" stroke="midnightblue" d="M71.3,-110.49C88.52,-93.49 118.29,-65.55 147,-45.5 151.89,-42.08 157.21,-38.76 162.56,-35.65"/>
<polygon fill="midnightblue" stroke="midnightblue" points="164.5,-38.58 171.51,-30.64 161.07,-32.47 164.5,-38.58"/>
</g>
<!-- Node3 -->
<g id="node3" class="node">
<title>Node3</title>
<g id="a_node3"><a xlink:href="namespaceerror__msg__class.html#a5bc9f3b670b725cc43276934b867d801" target="_top" xlink:title="Converts a given real to a string with format &quot;(1pE10.2)&quot;.">
<polygon fill="white" stroke="black" points="310,-272.5 310,-302.5 422,-302.5 422,-272.5 310,-272.5"/>
<text text-anchor="start" x="318" y="-290.5" font-family="Helvetica,sans-Serif" font-size="10.00">error_msg_class::num</text>
<text text-anchor="middle" x="366" y="-279.5" font-family="Helvetica,sans-Serif" font-size="10.00">_to_str</text>
</a>
</g>
</g>
<!-- Node2&#45;&gt;Node3 -->
<g id="edge2" class="edge">
<title>Node2&#45;&gt;Node3</title>
<path fill="none" stroke="midnightblue" d="M230.64,-245.64C251.28,-252.07 280.85,-261.29 307,-269.43"/>
<polygon fill="midnightblue" stroke="midnightblue" points="306.24,-272.86 316.83,-272.49 308.32,-266.18 306.24,-272.86"/>
</g>
<!-- Node4 -->
<g id="node4" class="node">
<title>Node4</title>
<g id="a_node4"><a xlink:href="namespacefile__handling__class.html#aab870caaf9cbaaf635d537708efbf793" target="_top" xlink:title="Same for reading (input file)">
<polygon fill="white" stroke="black" points="317,-223.5 317,-253.5 415,-253.5 415,-223.5 317,-223.5"/>
<text text-anchor="start" x="325" y="-241.5" font-family="Helvetica,sans-Serif" font-size="10.00">file_handling_class</text>
<text text-anchor="middle" x="366" y="-230.5" font-family="Helvetica,sans-Serif" font-size="10.00">::open_infile</text>
</a>
</g>
</g>
<!-- Node2&#45;&gt;Node4 -->
<g id="edge3" class="edge">
<title>Node2&#45;&gt;Node4</title>
<path fill="none" stroke="midnightblue" d="M230.64,-237.66C251.19,-237.79 280.59,-237.97 306.66,-238.14"/>
<polygon fill="midnightblue" stroke="midnightblue" points="306.81,-241.64 316.83,-238.2 306.85,-234.64 306.81,-241.64"/>
</g>
<!-- Node6 -->
<g id="node6" class="node">
<title>Node6</title>
<g id="a_node6"><a xlink:href="namespaceerror__msg__class.html#a2453d3b7cb363115c046840baa1dfb75" target="_top" xlink:title="Raise a exception with a given error message.">
<polygon fill="white" stroke="black" points="649,-157.5 649,-187.5 763,-187.5 763,-157.5 649,-157.5"/>
<text text-anchor="start" x="657" y="-175.5" font-family="Helvetica,sans-Serif" font-size="10.00">error_msg_class::raise</text>
<text text-anchor="middle" x="706" y="-164.5" font-family="Helvetica,sans-Serif" font-size="10.00">_exception</text>
</a>
</g>
</g>
<!-- Node2&#45;&gt;Node6 -->
<g id="edge8" class="edge">
<title>Node2&#45;&gt;Node6</title>
<path fill="none" stroke="midnightblue" d="M230.71,-229.84C248.89,-224.8 273.74,-218.42 296,-214.5 415.83,-193.4 557.42,-181.78 638.66,-176.37"/>
<polygon fill="midnightblue" stroke="midnightblue" points="639,-179.85 648.75,-175.71 638.54,-172.87 639,-179.85"/>
</g>
<!-- Node5 -->
<g id="node5" class="node">
<title>Node5</title>
<g id="a_node5"><a xlink:href="namespacefile__handling__class.html#af02196bd5eaf70ecd5ab4cc650094d5e" target="_top" xlink:title="Finds the next unused unit number.">
<polygon fill="white" stroke="black" points="493.5,-261.5 493.5,-291.5 591.5,-291.5 591.5,-261.5 493.5,-261.5"/>
<text text-anchor="start" x="501.5" y="-279.5" font-family="Helvetica,sans-Serif" font-size="10.00">file_handling_class</text>
<text text-anchor="middle" x="542.5" y="-268.5" font-family="Helvetica,sans-Serif" font-size="10.00">::get_next_io_unit</text>
</a>
</g>
</g>
<!-- Node4&#45;&gt;Node5 -->
<g id="edge4" class="edge">
<title>Node4&#45;&gt;Node5</title>
<path fill="none" stroke="midnightblue" d="M415.14,-248.98C436.23,-253.58 461.15,-259 483.27,-263.82"/>
<polygon fill="midnightblue" stroke="midnightblue" points="482.69,-267.28 493.21,-265.98 484.18,-260.44 482.69,-267.28"/>
</g>
<!-- Node4&#45;&gt;Node6 -->
<g id="edge7" class="edge">
<title>Node4&#45;&gt;Node6</title>
<path fill="none" stroke="midnightblue" d="M415.27,-236.2C465.36,-232.99 545.63,-225.5 613,-208.5 629.8,-204.26 647.67,-197.76 663.15,-191.44"/>
<polygon fill="midnightblue" stroke="midnightblue" points="664.57,-194.64 672.44,-187.56 661.87,-188.19 664.57,-194.64"/>
</g>
<!-- Node5&#45;&gt;Node6 -->
<g id="edge5" class="edge">
<title>Node5&#45;&gt;Node6</title>
<path fill="none" stroke="midnightblue" d="M583.38,-261.47C593.32,-257.14 603.77,-252.06 613,-246.5 637.97,-231.45 663.59,-210.28 681.43,-194.44"/>
<polygon fill="midnightblue" stroke="midnightblue" points="683.96,-196.87 689.05,-187.58 679.28,-191.67 683.96,-196.87"/>
</g>
<!-- Node7 -->
<g id="node7" class="node">
<title>Node7</title>
<g id="a_node7"><a xlink:href="namespaceerror__msg__class.html#a7e065585cc806a5c264de1f088266498" target="_top" xlink:title="Converts a given integer to a string.">
<polygon fill="white" stroke="black" points="799,-111.5 799,-141.5 903,-141.5 903,-111.5 799,-111.5"/>
<text text-anchor="start" x="807" y="-129.5" font-family="Helvetica,sans-Serif" font-size="10.00">error_msg_class::int</text>
<text text-anchor="middle" x="851" y="-118.5" font-family="Helvetica,sans-Serif" font-size="10.00">_to_str</text>
</a>
</g>
</g>
<!-- Node6&#45;&gt;Node7 -->
<g id="edge6" class="edge">
<title>Node6&#45;&gt;Node7</title>
<path fill="none" stroke="midnightblue" d="M753.82,-157.44C766.42,-153.39 780.17,-148.96 793.24,-144.76"/>
<polygon fill="midnightblue" stroke="midnightblue" points="794.62,-147.99 803.07,-141.6 792.48,-141.33 794.62,-147.99"/>
</g>
<!-- Node8&#45;&gt;Node9 -->
<g id="edge10" class="edge">
<title>Node8&#45;&gt;Node9</title>
<path fill="none" stroke="midnightblue" d="M256.17,-177.66C272.33,-173.33 290.27,-168.52 306.85,-164.08"/>
<polygon fill="midnightblue" stroke="midnightblue" points="308.22,-167.34 316.97,-161.37 306.41,-160.57 308.22,-167.34"/>
</g>
<!-- Node10 -->
<g id="node10" class="node">
<title>Node10</title>
<g id="a_node10"><a xlink:href="namespacehdf5__module.html#a28a7b037320b89de7c8ab611e5f720d0" target="_top" xlink:title="Extend a previously created 1D &#45; dataset.">
<polygon fill="white" stroke="black" points="490,-135.5 490,-165.5 595,-165.5 595,-135.5 490,-135.5"/>
<text text-anchor="start" x="498" y="-153.5" font-family="Helvetica,sans-Serif" font-size="10.00">hdf5_module::extend</text>
<text text-anchor="middle" x="542.5" y="-142.5" font-family="Helvetica,sans-Serif" font-size="10.00">_1d_dataset</text>
</a>
</g>
</g>
<!-- Node9&#45;&gt;Node10 -->
<g id="edge11" class="edge">
<title>Node9&#45;&gt;Node10</title>
<path fill="none" stroke="midnightblue" d="M415.14,-149.05C435.08,-149.28 458.46,-149.55 479.65,-149.79"/>
<polygon fill="midnightblue" stroke="midnightblue" points="479.81,-153.29 489.85,-149.91 479.89,-146.29 479.81,-153.29"/>
</g>
<!-- Node11 -->
<g id="node11" class="node">
<title>Node11</title>
<g id="a_node11"><a xlink:href="namespacehdf5__module.html#a838e42f575c00ce846c2510cd035ac6a" target="_top" xlink:title="Extend the Y dataset for the net timestep.">
<polygon fill="white" stroke="black" points="490,-86.5 490,-116.5 595,-116.5 595,-86.5 490,-86.5"/>
<text text-anchor="start" x="498" y="-104.5" font-family="Helvetica,sans-Serif" font-size="10.00">hdf5_module::extend</text>
<text text-anchor="middle" x="542.5" y="-93.5" font-family="Helvetica,sans-Serif" font-size="10.00">_hdf5_y</text>
</a>
</g>
</g>
<!-- Node9&#45;&gt;Node11 -->
<g id="edge13" class="edge">
<title>Node9&#45;&gt;Node11</title>
<path fill="none" stroke="midnightblue" d="M415.14,-135.53C435.18,-130.14 458.67,-123.81 479.94,-118.08"/>
<polygon fill="midnightblue" stroke="midnightblue" points="481.1,-121.39 489.85,-115.41 479.28,-114.63 481.1,-121.39"/>
</g>
<!-- Node10&#45;&gt;Node6 -->
<g id="edge12" class="edge">
<title>Node10&#45;&gt;Node6</title>
<path fill="none" stroke="midnightblue" d="M595.04,-157.52C608.99,-159.42 624.29,-161.51 638.92,-163.5"/>
<polygon fill="midnightblue" stroke="midnightblue" points="638.54,-166.98 648.92,-164.86 639.48,-160.04 638.54,-166.98"/>
</g>
<!-- Node13&#45;&gt;Node6 -->
<g id="edge17" class="edge">
<title>Node13&#45;&gt;Node6</title>
<path fill="none" stroke="midnightblue" d="M592.91,-67.05C599.95,-69.52 606.87,-72.62 613,-76.5 633.77,-89.65 632.13,-100.61 649,-118.5 659.19,-129.31 670.96,-140.79 681.07,-150.38"/>
<polygon fill="midnightblue" stroke="midnightblue" points="678.74,-153 688.43,-157.3 683.54,-147.9 678.74,-153"/>
</g>
<!-- Node13&#45;&gt;Node7 -->
<g id="edge16" class="edge">
<title>Node13&#45;&gt;Node7</title>
<path fill="none" stroke="midnightblue" d="M585.8,-67.02C638.42,-78.87 728.67,-99.19 788.83,-112.73"/>
<polygon fill="midnightblue" stroke="midnightblue" points="788.44,-116.23 798.96,-115.01 789.97,-109.4 788.44,-116.23"/>
</g>
<!-- Node15 -->
<g id="node15" class="node">
<title>Node15</title>
<g id="a_node15"><a xlink:href="namespacebenam__class.html#afd880df70f94c289b6bda0647f4494e3" target="_top" xlink:title="Getter of net_names, translating indices to a nucleus name.">
<polygon fill="white" stroke="black" points="296,-6 296,-25 436,-25 436,-6 296,-6"/>
<text text-anchor="middle" x="366" y="-13" font-family="Helvetica,sans-Serif" font-size="10.00">benam_class::get_net_name</text>
</a>
</g>
</g>
<!-- Node14&#45;&gt;Node15 -->
<g id="edge19" class="edge">
<title>Node14&#45;&gt;Node15</title>
<path fill="none" stroke="midnightblue" d="M260.18,-15.5C268.45,-15.5 277.1,-15.5 285.73,-15.5"/>
<polygon fill="midnightblue" stroke="midnightblue" points="285.84,-19 295.84,-15.5 285.84,-12 285.84,-19"/>
</g>
</g>
</svg>
        <g id="navigator" transform="translate(0 0)" fill="#404254">
                <rect fill="#f2f5e9" fill-opacity="0.5" stroke="#606060" stroke-width=".5" x="0" y="0" width="60" height="60"/>
                <use id="zoomplus" xlink:href="#zoomPlus" x="17" y="9" onmousedown="handleZoom(evt,'in')"/>
                <use id="zoomminus" xlink:href="#zoomMin" x="42" y="9" onmousedown="handleZoom(evt,'out')"/>
                <use id="reset" xlink:href="#resetDef" x="30" y="36" onmousedown="handleReset()"/>
                <g id="arrowUp" xlink:href="#dirArrow" transform="translate(30 24)" onmousedown="handlePan(0,-1)">
                  <use xlink:href="#rim" fill="#404040">
                        <set attributeName="fill" to="#808080" begin="arrowUp.mouseover" end="arrowUp.mouseout"/>
                  </use>
                  <path fill="none" stroke="white" stroke-width="1.5" d="M0,-3.0v7 M-2.5,-0.5L0,-3.0L2.5,-0.5"/>
                </g>
                <g id="arrowRight" xlink:href="#dirArrow" transform="rotate(90) translate(36 -43)" onmousedown="handlePan(1,0)">
                  <use xlink:href="#rim" fill="#404040">
                        <set attributeName="fill" to="#808080" begin="arrowRight.mouseover" end="arrowRight.mouseout"/>
                  </use>
                  <path fill="none" stroke="white" stroke-width="1.5" d="M0,-3.0v7 M-2.5,-0.5L0,-3.0L2.5,-0.5"/>
                </g>
                <g id="arrowDown" xlink:href="#dirArrow" transform="rotate(180) translate(-30 -48)" onmousedown="handlePan(0,1)">
                  <use xlink:href="#rim" fill="#404040">
                        <set attributeName="fill" to="#808080" begin="arrowDown.mouseover" end="arrowDown.mouseout"/>
                  </use>
                  <path fill="none" stroke="white" stroke-width="1.5" d="M0,-3.0v7 M-2.5,-0.5L0,-3.0L2.5,-0.5"/>
                </g>
                <g id="arrowLeft" xlink:href="#dirArrow" transform="rotate(270) translate(-36 17)" onmousedown="handlePan(-1,0)">
                  <use xlink:href="#rim" fill="#404040">
                        <set attributeName="fill" to="#808080" begin="arrowLeft.mouseover" end="arrowLeft.mouseout"/>
                  </use>
                  <path fill="none" stroke="white" stroke-width="1.5" d="M0,-3.0v7 M-2.5,-0.5L0,-3.0L2.5,-0.5"/>
                </g>
        </g>
        <svg viewBox="0 0 15 15" width="100%" height="30px" preserveAspectRatio="xMaxYMin meet">
         <g id="arrow_out" transform="scale(0.3 0.3)">
          <a xlink:href="namespaceanalysis_ae41c665ccf9ea5f08f4d6bf96f6707bd_cgraph_org.svg" target="_base">
           <rect id="button" ry="5" rx="5" y="6" x="6" height="38" width="38"
                fill="#f2f5e9" fill-opacity="0.5" stroke="#606060" stroke-width="1.0"/>
           <path id="arrow"
             d="M 11.500037,31.436501 C 11.940474,20.09759 22.043105,11.32322 32.158766,21.979434 L 37.068811,17.246167 C 37.068811,17.246167 37.088388,32 37.088388,32 L 22.160133,31.978069 C 22.160133,31.978069 26.997745,27.140456 26.997745,27.140456 C 18.528582,18.264221 13.291696,25.230495 11.500037,31.436501 z"
             style="fill:#404040;"/>
          </a>
         </g>
        </svg>
</svg>
