<?xml version="1.0" encoding="UTF-8" standalone="no"?>
<!DOCTYPE svg PUBLIC "-//W3C//DTD SVG 1.1//EN"
 "http://www.w3.org/Graphics/SVG/1.1/DTD/svg11.dtd">
<!-- Generated by graphviz version 2.44.0 ()
 -->
<!-- Title: reaclib_rate_module::read_binary_reaclib_reaction_data Pages: 1 -->
<svg width="702pt" height="105pt"
 viewBox="0.00 0.00 702.00 104.50" xmlns="http://www.w3.org/2000/svg" xmlns:xlink="http://www.w3.org/1999/xlink">
<g id="graph0" class="graph" transform="scale(1 1) rotate(0) translate(4 100.5)">
<title>reaclib_rate_module::read_binary_reaclib_reaction_data</title>
<polygon fill="white" stroke="transparent" points="-4,4 -4,-100.5 698,-100.5 698,4 -4,4"/>
<!-- Node1 -->
<g id="node1" class="node">
<title>Node1</title>
<g id="a_node1"><a xlink:title="Read the complete rrate array from a binary file.">
<polygon fill="#bfbfbf" stroke="black" points="0,-0.5 0,-41.5 104,-41.5 104,-0.5 0,-0.5"/>
<text text-anchor="start" x="8" y="-29.5" font-family="Helvetica,sans-Serif" font-size="10.00">reaclib_rate_module</text>
<text text-anchor="start" x="8" y="-18.5" font-family="Helvetica,sans-Serif" font-size="10.00">::read_binary_reaclib</text>
<text text-anchor="middle" x="52" y="-7.5" font-family="Helvetica,sans-Serif" font-size="10.00">_reaction_data</text>
</a>
</g>
</g>
<!-- Node2 -->
<g id="node2" class="node">
<title>Node2</title>
<g id="a_node2"><a xlink:href="namespacefile__handling__class.html#a3396a31619e5149278d09cdd614d3497" target="_top" xlink:title="Shorthand for opening a new unformatted file for writing (output file)">
<polygon fill="white" stroke="black" points="140,-28 140,-58 270,-58 270,-28 140,-28"/>
<text text-anchor="start" x="148" y="-46" font-family="Helvetica,sans-Serif" font-size="10.00">file_handling_class</text>
<text text-anchor="middle" x="205" y="-35" font-family="Helvetica,sans-Serif" font-size="10.00">::open_unformatted_outfile</text>
</a>
</g>
</g>
<!-- Node1&#45;&gt;Node2 -->
<g id="edge1" class="edge">
<title>Node1&#45;&gt;Node2</title>
<path fill="none" stroke="midnightblue" d="M104.12,-28.45C112.36,-29.65 121.04,-30.91 129.69,-32.17"/>
<polygon fill="midnightblue" stroke="midnightblue" points="129.41,-35.67 139.81,-33.65 130.42,-28.74 129.41,-35.67"/>
</g>
<!-- Node4 -->
<g id="node4" class="node">
<title>Node4</title>
<g id="a_node4"><a xlink:href="namespaceerror__msg__class.html#a2453d3b7cb363115c046840baa1dfb75" target="_top" xlink:title="Raise a exception with a given error message.">
<polygon fill="white" stroke="black" points="440,-22 440,-52 554,-52 554,-22 440,-22"/>
<text text-anchor="start" x="448" y="-40" font-family="Helvetica,sans-Serif" font-size="10.00">error_msg_class::raise</text>
<text text-anchor="middle" x="497" y="-29" font-family="Helvetica,sans-Serif" font-size="10.00">_exception</text>
</a>
</g>
</g>
<!-- Node1&#45;&gt;Node4 -->
<g id="edge6" class="edge">
<title>Node1&#45;&gt;Node4</title>
<path fill="none" stroke="midnightblue" d="M104.06,-18.95C115.86,-18.55 128.36,-18.2 140,-18 197.77,-17 212.27,-15.58 270,-18 323.83,-20.26 384.69,-25.53 429.68,-29.95"/>
<polygon fill="midnightblue" stroke="midnightblue" points="429.6,-33.46 439.89,-30.97 430.29,-26.49 429.6,-33.46"/>
</g>
<!-- Node3 -->
<g id="node3" class="node">
<title>Node3</title>
<g id="a_node3"><a xlink:href="namespacefile__handling__class.html#af02196bd5eaf70ecd5ab4cc650094d5e" target="_top" xlink:title="Finds the next unused unit number.">
<polygon fill="white" stroke="black" points="306,-66 306,-96 404,-96 404,-66 306,-66"/>
<text text-anchor="start" x="314" y="-84" font-family="Helvetica,sans-Serif" font-size="10.00">file_handling_class</text>
<text text-anchor="middle" x="355" y="-73" font-family="Helvetica,sans-Serif" font-size="10.00">::get_next_io_unit</text>
</a>
</g>
</g>
<!-- Node2&#45;&gt;Node3 -->
<g id="edge2" class="edge">
<title>Node2&#45;&gt;Node3</title>
<path fill="none" stroke="midnightblue" d="M264.49,-58.02C274.9,-60.69 285.74,-63.47 296.13,-66.14"/>
<polygon fill="midnightblue" stroke="midnightblue" points="295.37,-69.56 305.93,-68.66 297.11,-62.78 295.37,-69.56"/>
</g>
<!-- Node2&#45;&gt;Node4 -->
<g id="edge5" class="edge">
<title>Node2&#45;&gt;Node4</title>
<path fill="none" stroke="midnightblue" d="M270,-41.68C317.4,-40.7 381.79,-39.36 429.72,-38.37"/>
<polygon fill="midnightblue" stroke="midnightblue" points="430.07,-41.86 439.99,-38.16 429.92,-34.87 430.07,-41.86"/>
</g>
<!-- Node3&#45;&gt;Node4 -->
<g id="edge3" class="edge">
<title>Node3&#45;&gt;Node4</title>
<path fill="none" stroke="midnightblue" d="M403.79,-65.98C414.82,-62.51 426.66,-58.79 438.07,-55.21"/>
<polygon fill="midnightblue" stroke="midnightblue" points="439.46,-58.44 447.95,-52.1 437.36,-51.76 439.46,-58.44"/>
</g>
<!-- Node5 -->
<g id="node5" class="node">
<title>Node5</title>
<g id="a_node5"><a xlink:href="namespaceerror__msg__class.html#a7e065585cc806a5c264de1f088266498" target="_top" xlink:title="Converts a given integer to a string.">
<polygon fill="white" stroke="black" points="590,-22 590,-52 694,-52 694,-22 590,-22"/>
<text text-anchor="start" x="598" y="-40" font-family="Helvetica,sans-Serif" font-size="10.00">error_msg_class::int</text>
<text text-anchor="middle" x="642" y="-29" font-family="Helvetica,sans-Serif" font-size="10.00">_to_str</text>
</a>
</g>
</g>
<!-- Node4&#45;&gt;Node5 -->
<g id="edge4" class="edge">
<title>Node4&#45;&gt;Node5</title>
<path fill="none" stroke="midnightblue" d="M554.11,-37C562.45,-37 571.09,-37 579.54,-37"/>
<polygon fill="midnightblue" stroke="midnightblue" points="579.71,-40.5 589.71,-37 579.71,-33.5 579.71,-40.5"/>
</g>
</g>
</svg>
