<?xml version="1.0" encoding="UTF-8" standalone="no"?>
<!DOCTYPE svg PUBLIC "-//W3C//DTD SVG 1.1//EN"
 "http://www.w3.org/Graphics/SVG/1.1/DTD/svg11.dtd">
<!-- Generated by graphviz version 2.44.0 ()
 -->
<!-- Title: mergesort_module::quicksort Pages: 1 -->
<svg width="439pt" height="61pt"
 viewBox="0.00 0.00 439.00 61.00" xmlns="http://www.w3.org/2000/svg" xmlns:xlink="http://www.w3.org/1999/xlink">
<g id="graph0" class="graph" transform="scale(1 1) rotate(0) translate(4 57)">
<title>mergesort_module::quicksort</title>
<polygon fill="white" stroke="transparent" points="-4,4 -4,-57 435,-57 435,4 -4,4"/>
<!-- Node1 -->
<g id="node1" class="node">
<title>Node1</title>
<g id="a_node1"><a xlink:title="Quicksort of array.">
<polygon fill="#bfbfbf" stroke="black" points="0,-28 0,-47 141,-47 141,-28 0,-28"/>
<text text-anchor="middle" x="70.5" y="-35" font-family="Helvetica,sans-Serif" font-size="10.00">mergesort_module::quicksort</text>
</a>
</g>
</g>
<!-- Node2 -->
<g id="node2" class="node">
<title>Node2</title>
<g id="a_node2"><a xlink:href="namespaceerror__msg__class.html#a7e065585cc806a5c264de1f088266498" target="_top" xlink:title="Converts a given integer to a string.">
<polygon fill="white" stroke="black" points="327,-22.5 327,-52.5 431,-52.5 431,-22.5 327,-22.5"/>
<text text-anchor="start" x="335" y="-40.5" font-family="Helvetica,sans-Serif" font-size="10.00">error_msg_class::int</text>
<text text-anchor="middle" x="379" y="-29.5" font-family="Helvetica,sans-Serif" font-size="10.00">_to_str</text>
</a>
</g>
</g>
<!-- Node1&#45;&gt;Node2 -->
<g id="edge1" class="edge">
<title>Node1&#45;&gt;Node2</title>
<path fill="none" stroke="midnightblue" d="M141.01,-39.76C153.01,-40.07 165.37,-40.33 177,-40.5 227.66,-41.22 240.34,-41.37 291,-40.5 299.36,-40.36 308.18,-40.13 316.85,-39.87"/>
<polygon fill="midnightblue" stroke="midnightblue" points="317.06,-43.37 326.94,-39.55 316.84,-36.37 317.06,-43.37"/>
</g>
<!-- Node3 -->
<g id="node3" class="node">
<title>Node3</title>
<g id="a_node3"><a xlink:href="namespaceerror__msg__class.html#a2453d3b7cb363115c046840baa1dfb75" target="_top" xlink:title="Raise a exception with a given error message.">
<polygon fill="white" stroke="black" points="177,-0.5 177,-30.5 291,-30.5 291,-0.5 177,-0.5"/>
<text text-anchor="start" x="185" y="-18.5" font-family="Helvetica,sans-Serif" font-size="10.00">error_msg_class::raise</text>
<text text-anchor="middle" x="234" y="-7.5" font-family="Helvetica,sans-Serif" font-size="10.00">_exception</text>
</a>
</g>
</g>
<!-- Node1&#45;&gt;Node3 -->
<g id="edge2" class="edge">
<title>Node1&#45;&gt;Node3</title>
<path fill="none" stroke="midnightblue" d="M141.4,-27.98C149.76,-26.84 158.28,-25.68 166.59,-24.55"/>
<polygon fill="midnightblue" stroke="midnightblue" points="167.17,-28 176.61,-23.18 166.22,-21.06 167.17,-28"/>
</g>
<!-- Node3&#45;&gt;Node2 -->
<g id="edge3" class="edge">
<title>Node3&#45;&gt;Node2</title>
<path fill="none" stroke="midnightblue" d="M291.11,-24.13C299.54,-25.43 308.28,-26.77 316.81,-28.09"/>
<polygon fill="midnightblue" stroke="midnightblue" points="316.3,-31.55 326.71,-29.61 317.36,-24.63 316.3,-31.55"/>
</g>
</g>
</svg>
