<?xml version="1.0" encoding="UTF-8" standalone="no"?>
<!DOCTYPE svg PUBLIC "-//W3C//DTD SVG 1.1//EN"
 "http://www.w3.org/Graphics/SVG/1.1/DTD/svg11.dtd">
<!-- Generated by graphviz version 2.44.0 ()
 -->
<!-- Title: readini::custom_read Pages: 1 -->
<!--zoomable 505 -->
<svg id="main" version="1.1" xmlns="http://www.w3.org/2000/svg" xmlns:xlink="http://www.w3.org/1999/xlink" xml:space="preserve" onload="init(evt)">
<style type="text/css"><![CDATA[
.edge:hover path { stroke: red; }
.edge:hover polygon { stroke: red; fill: red; }
]]></style>
<script type="text/javascript"><![CDATA[
var edges = document.getElementsByTagName('g');
if (edges && edges.length) {
  for (var i=0;i<edges.length;i++) {
    if (edges[i].id.substr(0,4)=='edge') {
      edges[i].setAttribute('class','edge');
    }
  }
}
]]></script>
        <defs>
                <circle id="rim" cx="0" cy="0" r="7"/>
                <circle id="rim2" cx="0" cy="0" r="3.5"/>
                <g id="zoomPlus">
                        <use xlink:href="#rim" fill="#404040">
                                <set attributeName="fill" to="#808080" begin="zoomplus.mouseover" end="zoomplus.mouseout"/>
                        </use>
                        <path d="M-4,0h8M0,-4v8" fill="none" stroke="white" stroke-width="1.5" pointer-events="none"/>
                </g>
                <g id="zoomMin">
                        <use xlink:href="#rim" fill="#404040">
                                <set attributeName="fill" to="#808080" begin="zoomminus.mouseover" end="zoomminus.mouseout"/>
                        </use>
                        <path d="M-4,0h8" fill="none" stroke="white" stroke-width="1.5" pointer-events="none"/>
                </g>
                <g id="dirArrow">
                        <path fill="none" stroke="white" stroke-width="1.5" d="M0,-3.0v7 M-2.5,-0.5L0,-3.0L2.5,-0.5"/>
                </g>
               <g id="resetDef">
                       <use xlink:href="#rim2" fill="#404040">
                               <set attributeName="fill" to="#808080" begin="reset.mouseover" end="reset.mouseout"/>
                       </use>
               </g>
        </defs>

<script type="text/javascript">
var viewWidth = 689;
var viewHeight = 505;
var sectionId = 'dynsection-1';
</script>
<script xlink:href="svgpan.js"/>
<svg id="graph" class="graph">
<g id="viewport">
<title>readini::custom_read</title>
<polygon fill="white" stroke="transparent" points="-4,4 -4,-500.92 685,-500.92 685,4 -4,4"/>
<!-- Node1 -->
<g id="node1" class="node">
<title>Node1</title>
<g id="a_node1"><a xlink:title="Reads the trajectory file.">
<polygon fill="#bfbfbf" stroke="black" points="0,-255 0,-274 106,-274 106,-255 0,-255"/>
<text text-anchor="middle" x="53" y="-262" font-family="Helvetica,sans-Serif" font-size="10.00">readini::custom_read</text>
</a>
</g>
</g>
<!-- Node2 -->
<g id="node2" class="node">
<title>Node2</title>
<g id="a_node2"><a xlink:href="namespacefile__handling__class.html#a01ba26324d7662cc0fb2e0eb306cd3e2" target="_top" xlink:title="Close an external file.">
<polygon fill="white" stroke="black" points="290.5,-424.5 290.5,-454.5 388.5,-454.5 388.5,-424.5 290.5,-424.5"/>
<text text-anchor="start" x="298.5" y="-442.5" font-family="Helvetica,sans-Serif" font-size="10.00">file_handling_class</text>
<text text-anchor="middle" x="339.5" y="-431.5" font-family="Helvetica,sans-Serif" font-size="10.00">::close_io_file</text>
</a>
</g>
</g>
<!-- Node1&#45;&gt;Node2 -->
<g id="edge1" class="edge">
<title>Node1&#45;&gt;Node2</title>
<path fill="none" stroke="midnightblue" d="M56.75,-274.3C64.8,-301.03 91.05,-375.5 142,-409.5 182.71,-436.66 238.61,-442.94 280.39,-443.13"/>
<polygon fill="midnightblue" stroke="midnightblue" points="280.44,-446.63 290.41,-443.06 280.39,-439.63 280.44,-446.63"/>
</g>
<!-- Node3 -->
<g id="node3" class="node">
<title>Node3</title>
<g id="a_node3"><a xlink:href="namespaceerror__msg__class.html#a7e065585cc806a5c264de1f088266498" target="_top" xlink:title="Converts a given integer to a string.">
<polygon fill="white" stroke="black" points="577,-424.5 577,-454.5 681,-454.5 681,-424.5 577,-424.5"/>
<text text-anchor="start" x="585" y="-442.5" font-family="Helvetica,sans-Serif" font-size="10.00">error_msg_class::int</text>
<text text-anchor="middle" x="629" y="-431.5" font-family="Helvetica,sans-Serif" font-size="10.00">_to_str</text>
</a>
</g>
</g>
<!-- Node1&#45;&gt;Node3 -->
<g id="edge9" class="edge">
<title>Node1&#45;&gt;Node3</title>
<path fill="none" stroke="midnightblue" d="M55.69,-274.01C61.52,-303.87 83.78,-396.4 142,-439.5 272.01,-535.74 479.86,-487.84 576.05,-457.71"/>
<polygon fill="midnightblue" stroke="midnightblue" points="577.37,-460.96 585.83,-454.58 575.24,-454.29 577.37,-460.96"/>
</g>
<!-- Node4 -->
<g id="node4" class="node">
<title>Node4</title>
<g id="a_node4"><a xlink:href="namespaceerror__msg__class.html#a2453d3b7cb363115c046840baa1dfb75" target="_top" xlink:title="Raise a exception with a given error message.">
<polygon fill="white" stroke="black" points="427,-235.5 427,-265.5 541,-265.5 541,-235.5 427,-235.5"/>
<text text-anchor="start" x="435" y="-253.5" font-family="Helvetica,sans-Serif" font-size="10.00">error_msg_class::raise</text>
<text text-anchor="middle" x="484" y="-242.5" font-family="Helvetica,sans-Serif" font-size="10.00">_exception</text>
</a>
</g>
</g>
<!-- Node1&#45;&gt;Node4 -->
<g id="edge20" class="edge">
<title>Node1&#45;&gt;Node4</title>
<path fill="none" stroke="midnightblue" d="M59.32,-274.05C71.15,-294.27 101.82,-341.18 142,-361.5 240.94,-411.53 292.16,-426.72 391,-376.5 432.66,-355.34 459.95,-305.49 473.32,-275.22"/>
<polygon fill="midnightblue" stroke="midnightblue" points="476.64,-276.34 477.32,-265.77 470.19,-273.61 476.64,-276.34"/>
</g>
<!-- Node5 -->
<g id="node5" class="node">
<title>Node5</title>
<g id="a_node5"><a xlink:href="namespacereadini.html#aa70dcb64b33b1effcebfdff61a477cb6" target="_top" xlink:title="Function to convert from a given density unit to g/ccm.">
<polygon fill="white" stroke="black" points="293.5,-336.5 293.5,-366.5 385.5,-366.5 385.5,-336.5 293.5,-336.5"/>
<text text-anchor="start" x="301.5" y="-354.5" font-family="Helvetica,sans-Serif" font-size="10.00">readini::dens_unit</text>
<text text-anchor="middle" x="339.5" y="-343.5" font-family="Helvetica,sans-Serif" font-size="10.00">_conversion</text>
</a>
</g>
</g>
<!-- Node1&#45;&gt;Node5 -->
<g id="edge5" class="edge">
<title>Node1&#45;&gt;Node5</title>
<path fill="none" stroke="midnightblue" d="M61.74,-274.16C75.71,-290.79 107,-324.41 142,-338.5 187.08,-356.64 242.67,-358.65 283.21,-356.84"/>
<polygon fill="midnightblue" stroke="midnightblue" points="283.64,-360.32 293.43,-356.29 283.26,-353.33 283.64,-360.32"/>
</g>
<!-- Node6 -->
<g id="node6" class="node">
<title>Node6</title>
<g id="a_node6"><a xlink:href="namespacereadini.html#a5a391d1e0a44bcc5834c46dfacbaaad6" target="_top" xlink:title="Function to convert from a given distance unit to km.">
<polygon fill="white" stroke="black" points="154,-298.5 154,-328.5 240,-328.5 240,-298.5 154,-298.5"/>
<text text-anchor="start" x="162" y="-316.5" font-family="Helvetica,sans-Serif" font-size="10.00">readini::dist_unit</text>
<text text-anchor="middle" x="197" y="-305.5" font-family="Helvetica,sans-Serif" font-size="10.00">_conversion</text>
</a>
</g>
</g>
<!-- Node1&#45;&gt;Node6 -->
<g id="edge7" class="edge">
<title>Node1&#45;&gt;Node6</title>
<path fill="none" stroke="midnightblue" d="M81.72,-274.06C99.49,-280.2 123.13,-288.35 144.29,-295.66"/>
<polygon fill="midnightblue" stroke="midnightblue" points="143.21,-298.99 153.81,-298.94 145.49,-292.37 143.21,-298.99"/>
</g>
<!-- Node7 -->
<g id="node7" class="node">
<title>Node7</title>
<g id="a_node7"><a xlink:href="namespacereadini.html#a9f2a1f49dc92cf959c6a9443b4f12111" target="_top" xlink:title="Function to convert from a given neutrino energy unit to neutrino temperatures in MeV.">
<polygon fill="white" stroke="black" points="142,-249.5 142,-279.5 252,-279.5 252,-249.5 142,-249.5"/>
<text text-anchor="start" x="150" y="-267.5" font-family="Helvetica,sans-Serif" font-size="10.00">readini::nuenergy_unit</text>
<text text-anchor="middle" x="197" y="-256.5" font-family="Helvetica,sans-Serif" font-size="10.00">_conversion</text>
</a>
</g>
</g>
<!-- Node1&#45;&gt;Node7 -->
<g id="edge10" class="edge">
<title>Node1&#45;&gt;Node7</title>
<path fill="none" stroke="midnightblue" d="M106.07,-264.5C114.29,-264.5 122.87,-264.5 131.33,-264.5"/>
<polygon fill="midnightblue" stroke="midnightblue" points="131.55,-268 141.55,-264.5 131.55,-261 131.55,-268"/>
</g>
<!-- Node8 -->
<g id="node8" class="node">
<title>Node8</title>
<g id="a_node8"><a xlink:href="namespacereadini.html#a296e65cce958b5e8acf268bcaeb52c6c" target="_top" xlink:title="Function to convert from a given neutrino luminosity unit to erg/s.">
<polygon fill="white" stroke="black" points="145,-200.5 145,-230.5 249,-230.5 249,-200.5 145,-200.5"/>
<text text-anchor="start" x="153" y="-218.5" font-family="Helvetica,sans-Serif" font-size="10.00">readini::nulumin_unit</text>
<text text-anchor="middle" x="197" y="-207.5" font-family="Helvetica,sans-Serif" font-size="10.00">_conversion</text>
</a>
</g>
</g>
<!-- Node1&#45;&gt;Node8 -->
<g id="edge12" class="edge">
<title>Node1&#45;&gt;Node8</title>
<path fill="none" stroke="midnightblue" d="M81.72,-254.94C99.07,-248.95 121.99,-241.04 142.75,-233.87"/>
<polygon fill="midnightblue" stroke="midnightblue" points="144.11,-237.11 152.42,-230.54 141.83,-230.49 144.11,-237.11"/>
</g>
<!-- Node9 -->
<g id="node9" class="node">
<title>Node9</title>
<g id="a_node9"><a xlink:href="namespacereadini.html#ab76df5cb8fe1d355cc07b92510a58609" target="_top" xlink:title="Function to convert from a given neutrino temperature unit to MeV.">
<polygon fill="white" stroke="black" points="288,-172.5 288,-202.5 391,-202.5 391,-172.5 288,-172.5"/>
<text text-anchor="start" x="296" y="-190.5" font-family="Helvetica,sans-Serif" font-size="10.00">readini::nutemp_unit</text>
<text text-anchor="middle" x="339.5" y="-179.5" font-family="Helvetica,sans-Serif" font-size="10.00">_conversion</text>
</a>
</g>
</g>
<!-- Node1&#45;&gt;Node9 -->
<g id="edge14" class="edge">
<title>Node1&#45;&gt;Node9</title>
<path fill="none" stroke="midnightblue" d="M61.7,-254.81C75.63,-238.14 106.84,-204.59 142,-191.5 185.39,-175.34 237.99,-175.19 277.84,-178.62"/>
<polygon fill="midnightblue" stroke="midnightblue" points="277.66,-182.11 287.95,-179.58 278.32,-175.15 277.66,-182.11"/>
</g>
<!-- Node10 -->
<g id="node10" class="node">
<title>Node10</title>
<g id="a_node10"><a xlink:href="namespacefile__handling__class.html#aab870caaf9cbaaf635d537708efbf793" target="_top" xlink:title="Same for reading (input file)">
<polygon fill="white" stroke="black" points="148,-112.5 148,-142.5 246,-142.5 246,-112.5 148,-112.5"/>
<text text-anchor="start" x="156" y="-130.5" font-family="Helvetica,sans-Serif" font-size="10.00">file_handling_class</text>
<text text-anchor="middle" x="197" y="-119.5" font-family="Helvetica,sans-Serif" font-size="10.00">::open_infile</text>
</a>
</g>
</g>
<!-- Node1&#45;&gt;Node10 -->
<g id="edge16" class="edge">
<title>Node1&#45;&gt;Node10</title>
<path fill="none" stroke="midnightblue" d="M60.07,-254.9C73.11,-234.85 105.6,-187.84 142,-157.5 146.17,-154.02 150.8,-150.75 155.55,-147.73"/>
<polygon fill="midnightblue" stroke="midnightblue" points="157.36,-150.73 164.15,-142.59 153.77,-144.72 157.36,-150.73"/>
</g>
<!-- Node12 -->
<g id="node12" class="node">
<title>Node12</title>
<g id="a_node12"><a xlink:href="namespacereadini.html#ae01875ac008f2d4d8e4af0e2b2c67a13" target="_top" xlink:title="Function to convert from a given temperature unit to GK.">
<polygon fill="white" stroke="black" points="293.5,-35.5 293.5,-65.5 385.5,-65.5 385.5,-35.5 293.5,-35.5"/>
<text text-anchor="start" x="301.5" y="-53.5" font-family="Helvetica,sans-Serif" font-size="10.00">readini::temp_unit</text>
<text text-anchor="middle" x="339.5" y="-42.5" font-family="Helvetica,sans-Serif" font-size="10.00">_conversion</text>
</a>
</g>
</g>
<!-- Node1&#45;&gt;Node12 -->
<g id="edge21" class="edge">
<title>Node1&#45;&gt;Node12</title>
<path fill="none" stroke="midnightblue" d="M56.41,-254.78C63.9,-226.71 89.44,-144.88 142,-103.5 182.52,-71.59 240.72,-58.84 283.26,-53.77"/>
<polygon fill="midnightblue" stroke="midnightblue" points="283.88,-57.23 293.44,-52.67 283.12,-50.27 283.88,-57.23"/>
</g>
<!-- Node13 -->
<g id="node13" class="node">
<title>Node13</title>
<g id="a_node13"><a xlink:href="namespacereadini.html#a5d1d1d270d692b2d720cde6b4a91ee07" target="_top" xlink:title="Function to convert from a given time unit to seconds.">
<polygon fill="white" stroke="black" points="152.5,-0.5 152.5,-30.5 241.5,-30.5 241.5,-0.5 152.5,-0.5"/>
<text text-anchor="start" x="160.5" y="-18.5" font-family="Helvetica,sans-Serif" font-size="10.00">readini::time_unit</text>
<text text-anchor="middle" x="197" y="-7.5" font-family="Helvetica,sans-Serif" font-size="10.00">_conversion</text>
</a>
</g>
</g>
<!-- Node1&#45;&gt;Node13 -->
<g id="edge23" class="edge">
<title>Node1&#45;&gt;Node13</title>
<path fill="none" stroke="midnightblue" d="M56.49,-254.81C64.73,-224.13 93.33,-127.27 142,-61.5 148.66,-52.5 157.41,-44.09 165.91,-36.98"/>
<polygon fill="midnightblue" stroke="midnightblue" points="168.28,-39.57 173.92,-30.6 163.92,-34.1 168.28,-39.57"/>
</g>
<!-- Node2&#45;&gt;Node3 -->
<g id="edge2" class="edge">
<title>Node2&#45;&gt;Node3</title>
<path fill="none" stroke="midnightblue" d="M388.62,-439.5C437.48,-439.5 513.3,-439.5 566.49,-439.5"/>
<polygon fill="midnightblue" stroke="midnightblue" points="566.81,-443 576.81,-439.5 566.81,-436 566.81,-443"/>
</g>
<!-- Node2&#45;&gt;Node4 -->
<g id="edge3" class="edge">
<title>Node2&#45;&gt;Node4</title>
<path fill="none" stroke="midnightblue" d="M371.68,-424.36C378.54,-420.15 385.41,-415.16 391,-409.5 430.62,-369.42 459.38,-308.91 473.39,-275.27"/>
<polygon fill="midnightblue" stroke="midnightblue" points="476.74,-276.33 477.27,-265.75 470.26,-273.69 476.74,-276.33"/>
</g>
<!-- Node4&#45;&gt;Node3 -->
<g id="edge4" class="edge">
<title>Node4&#45;&gt;Node3</title>
<path fill="none" stroke="midnightblue" d="M496.46,-265.65C521.35,-298.55 580.51,-376.74 610.27,-416.06"/>
<polygon fill="midnightblue" stroke="midnightblue" points="607.66,-418.42 616.48,-424.28 613.24,-414.19 607.66,-418.42"/>
</g>
<!-- Node5&#45;&gt;Node4 -->
<g id="edge6" class="edge">
<title>Node5&#45;&gt;Node4</title>
<path fill="none" stroke="midnightblue" d="M367.35,-336.37C375.1,-331.78 383.49,-326.6 391,-321.5 414.01,-305.87 438.92,-286.48 457.01,-271.91"/>
<polygon fill="midnightblue" stroke="midnightblue" points="459.25,-274.61 464.81,-265.59 454.84,-269.17 459.25,-274.61"/>
</g>
<!-- Node6&#45;&gt;Node4 -->
<g id="edge8" class="edge">
<title>Node6&#45;&gt;Node4</title>
<path fill="none" stroke="midnightblue" d="M240.19,-304.45C279.31,-296.02 339.12,-283.07 391,-271.5 399.28,-269.66 407.96,-267.7 416.56,-265.75"/>
<polygon fill="midnightblue" stroke="midnightblue" points="417.61,-269.1 426.58,-263.47 416.05,-262.28 417.61,-269.1"/>
</g>
<!-- Node7&#45;&gt;Node4 -->
<g id="edge11" class="edge">
<title>Node7&#45;&gt;Node4</title>
<path fill="none" stroke="midnightblue" d="M252.28,-261.83C299.12,-259.53 366.92,-256.2 416.91,-253.75"/>
<polygon fill="midnightblue" stroke="midnightblue" points="417.16,-257.24 426.98,-253.25 416.82,-250.25 417.16,-257.24"/>
</g>
<!-- Node8&#45;&gt;Node4 -->
<g id="edge13" class="edge">
<title>Node8&#45;&gt;Node4</title>
<path fill="none" stroke="midnightblue" d="M249.28,-221.8C296.16,-227.55 365.75,-236.1 416.81,-242.37"/>
<polygon fill="midnightblue" stroke="midnightblue" points="416.41,-245.85 426.76,-243.59 417.26,-238.9 416.41,-245.85"/>
</g>
<!-- Node9&#45;&gt;Node4 -->
<g id="edge15" class="edge">
<title>Node9&#45;&gt;Node4</title>
<path fill="none" stroke="midnightblue" d="M374.63,-202.59C394.05,-211.18 418.58,-222.02 439.39,-231.22"/>
<polygon fill="midnightblue" stroke="midnightblue" points="438.09,-234.47 448.65,-235.31 440.92,-228.07 438.09,-234.47"/>
</g>
<!-- Node10&#45;&gt;Node4 -->
<g id="edge19" class="edge">
<title>Node10&#45;&gt;Node4</title>
<path fill="none" stroke="midnightblue" d="M246.03,-128.94C286.62,-131.87 345.29,-140.22 391,-163.5 421.3,-178.93 448.58,-207.48 465.42,-227.66"/>
<polygon fill="midnightblue" stroke="midnightblue" points="462.74,-229.91 471.76,-235.46 468.17,-225.5 462.74,-229.91"/>
</g>
<!-- Node11 -->
<g id="node11" class="node">
<title>Node11</title>
<g id="a_node11"><a xlink:href="namespacefile__handling__class.html#af02196bd5eaf70ecd5ab4cc650094d5e" target="_top" xlink:title="Finds the next unused unit number.">
<polygon fill="white" stroke="black" points="290.5,-84.5 290.5,-114.5 388.5,-114.5 388.5,-84.5 290.5,-84.5"/>
<text text-anchor="start" x="298.5" y="-102.5" font-family="Helvetica,sans-Serif" font-size="10.00">file_handling_class</text>
<text text-anchor="middle" x="339.5" y="-91.5" font-family="Helvetica,sans-Serif" font-size="10.00">::get_next_io_unit</text>
</a>
</g>
</g>
<!-- Node10&#45;&gt;Node11 -->
<g id="edge17" class="edge">
<title>Node10&#45;&gt;Node11</title>
<path fill="none" stroke="midnightblue" d="M246.35,-117.86C257.17,-115.71 268.76,-113.4 279.94,-111.17"/>
<polygon fill="midnightblue" stroke="midnightblue" points="280.94,-114.54 290.06,-109.15 279.57,-107.68 280.94,-114.54"/>
</g>
<!-- Node11&#45;&gt;Node4 -->
<g id="edge18" class="edge">
<title>Node11&#45;&gt;Node4</title>
<path fill="none" stroke="midnightblue" d="M370.13,-114.52C377.34,-118.86 384.76,-123.93 391,-129.5 423.59,-158.57 452.49,-200.62 468.85,-226.72"/>
<polygon fill="midnightblue" stroke="midnightblue" points="465.88,-228.56 474.1,-235.24 471.84,-224.89 465.88,-228.56"/>
</g>
<!-- Node12&#45;&gt;Node4 -->
<g id="edge22" class="edge">
<title>Node12&#45;&gt;Node4</title>
<path fill="none" stroke="midnightblue" d="M377.89,-65.58C382.62,-68.44 387.15,-71.74 391,-75.5 435.49,-118.92 463.08,-188.5 475.41,-225.49"/>
<polygon fill="midnightblue" stroke="midnightblue" points="472.22,-226.99 478.62,-235.43 478.88,-224.84 472.22,-226.99"/>
</g>
<!-- Node13&#45;&gt;Node4 -->
<g id="edge24" class="edge">
<title>Node13&#45;&gt;Node4</title>
<path fill="none" stroke="midnightblue" d="M241.79,-5.35C283.98,1.78 347.63,5.28 391,-25.5 457.57,-72.75 476.07,-177.05 481.13,-225.22"/>
<polygon fill="midnightblue" stroke="midnightblue" points="477.67,-225.77 482.08,-235.4 484.63,-225.11 477.67,-225.77"/>
</g>
</g>
</svg>
        <g id="navigator" transform="translate(0 0)" fill="#404254">
                <rect fill="#f2f5e9" fill-opacity="0.5" stroke="#606060" stroke-width=".5" x="0" y="0" width="60" height="60"/>
                <use id="zoomplus" xlink:href="#zoomPlus" x="17" y="9" onmousedown="handleZoom(evt,'in')"/>
                <use id="zoomminus" xlink:href="#zoomMin" x="42" y="9" onmousedown="handleZoom(evt,'out')"/>
                <use id="reset" xlink:href="#resetDef" x="30" y="36" onmousedown="handleReset()"/>
                <g id="arrowUp" xlink:href="#dirArrow" transform="translate(30 24)" onmousedown="handlePan(0,-1)">
                  <use xlink:href="#rim" fill="#404040">
                        <set attributeName="fill" to="#808080" begin="arrowUp.mouseover" end="arrowUp.mouseout"/>
                  </use>
                  <path fill="none" stroke="white" stroke-width="1.5" d="M0,-3.0v7 M-2.5,-0.5L0,-3.0L2.5,-0.5"/>
                </g>
                <g id="arrowRight" xlink:href="#dirArrow" transform="rotate(90) translate(36 -43)" onmousedown="handlePan(1,0)">
                  <use xlink:href="#rim" fill="#404040">
                        <set attributeName="fill" to="#808080" begin="arrowRight.mouseover" end="arrowRight.mouseout"/>
                  </use>
                  <path fill="none" stroke="white" stroke-width="1.5" d="M0,-3.0v7 M-2.5,-0.5L0,-3.0L2.5,-0.5"/>
                </g>
                <g id="arrowDown" xlink:href="#dirArrow" transform="rotate(180) translate(-30 -48)" onmousedown="handlePan(0,1)">
                  <use xlink:href="#rim" fill="#404040">
                        <set attributeName="fill" to="#808080" begin="arrowDown.mouseover" end="arrowDown.mouseout"/>
                  </use>
                  <path fill="none" stroke="white" stroke-width="1.5" d="M0,-3.0v7 M-2.5,-0.5L0,-3.0L2.5,-0.5"/>
                </g>
                <g id="arrowLeft" xlink:href="#dirArrow" transform="rotate(270) translate(-36 17)" onmousedown="handlePan(-1,0)">
                  <use xlink:href="#rim" fill="#404040">
                        <set attributeName="fill" to="#808080" begin="arrowLeft.mouseover" end="arrowLeft.mouseout"/>
                  </use>
                  <path fill="none" stroke="white" stroke-width="1.5" d="M0,-3.0v7 M-2.5,-0.5L0,-3.0L2.5,-0.5"/>
                </g>
        </g>
        <svg viewBox="0 0 15 15" width="100%" height="30px" preserveAspectRatio="xMaxYMin meet">
         <g id="arrow_out" transform="scale(0.3 0.3)">
          <a xlink:href="namespacereadini_a186d2f5acef411b2a89d9fbfeaf4a0bf_cgraph_org.svg" target="_base">
           <rect id="button" ry="5" rx="5" y="6" x="6" height="38" width="38"
                fill="#f2f5e9" fill-opacity="0.5" stroke="#606060" stroke-width="1.0"/>
           <path id="arrow"
             d="M 11.500037,31.436501 C 11.940474,20.09759 22.043105,11.32322 32.158766,21.979434 L 37.068811,17.246167 C 37.068811,17.246167 37.088388,32 37.088388,32 L 22.160133,31.978069 C 22.160133,31.978069 26.997745,27.140456 26.997745,27.140456 C 18.528582,18.264221 13.291696,25.230495 11.500037,31.436501 z"
             style="fill:#404040;"/>
          </a>
         </g>
        </svg>
</svg>
