<?xml version="1.0" encoding="UTF-8" standalone="no"?>
<!DOCTYPE svg PUBLIC "-//W3C//DTD SVG 1.1//EN"
 "http://www.w3.org/Graphics/SVG/1.1/DTD/svg11.dtd">
<!-- Generated by graphviz version 2.44.0 ()
 -->
<!-- Title: tabulated_rate_module::init_tabulated_rates Pages: 1 -->
<svg width="927pt" height="446pt"
 viewBox="0.00 0.00 927.00 445.59" xmlns="http://www.w3.org/2000/svg" xmlns:xlink="http://www.w3.org/1999/xlink">
<g id="graph0" class="graph" transform="scale(1 1) rotate(0) translate(4 441.59)">
<title>tabulated_rate_module::init_tabulated_rates</title>
<polygon fill="white" stroke="transparent" points="-4,4 -4,-441.59 923,-441.59 923,4 -4,4"/>
<!-- Node1 -->
<g id="node1" class="node">
<title>Node1</title>
<g id="a_node1"><a xlink:title="Initialize tabulated rates.">
<polygon fill="#bfbfbf" stroke="black" points="0,-276.5 0,-306.5 115,-306.5 115,-276.5 0,-276.5"/>
<text text-anchor="start" x="8" y="-294.5" font-family="Helvetica,sans-Serif" font-size="10.00">tabulated_rate_module</text>
<text text-anchor="middle" x="57.5" y="-283.5" font-family="Helvetica,sans-Serif" font-size="10.00">::init_tabulated_rates</text>
</a>
</g>
</g>
<!-- Node2 -->
<g id="node2" class="node">
<title>Node2</title>
<g id="a_node2"><a xlink:href="namespacefile__handling__class.html#aab870caaf9cbaaf635d537708efbf793" target="_top" xlink:title="Same for reading (input file)">
<polygon fill="white" stroke="black" points="333.5,-369.5 333.5,-399.5 431.5,-399.5 431.5,-369.5 333.5,-369.5"/>
<text text-anchor="start" x="341.5" y="-387.5" font-family="Helvetica,sans-Serif" font-size="10.00">file_handling_class</text>
<text text-anchor="middle" x="382.5" y="-376.5" font-family="Helvetica,sans-Serif" font-size="10.00">::open_infile</text>
</a>
</g>
</g>
<!-- Node1&#45;&gt;Node2 -->
<g id="edge1" class="edge">
<title>Node1&#45;&gt;Node2</title>
<path fill="none" stroke="midnightblue" d="M103.53,-306.57C118.58,-311.48 135.47,-316.86 151,-321.5 209.33,-338.92 276.52,-357.07 323.25,-369.39"/>
<polygon fill="midnightblue" stroke="midnightblue" points="322.63,-372.84 333.19,-372 324.41,-366.07 322.63,-372.84"/>
</g>
<!-- Node6 -->
<g id="node6" class="node">
<title>Node6</title>
<g id="a_node6"><a xlink:href="namespacetabulated__rate__module.html#af7b2ccaece8264aae9a0fb820c3f3dbc" target="_top" xlink:title="Read the tabulated rates from a unformatted binary file.">
<polygon fill="white" stroke="black" points="155.5,-271 155.5,-312 271.5,-312 271.5,-271 155.5,-271"/>
<text text-anchor="start" x="163.5" y="-300" font-family="Helvetica,sans-Serif" font-size="10.00">tabulated_rate_module</text>
<text text-anchor="start" x="163.5" y="-289" font-family="Helvetica,sans-Serif" font-size="10.00">::read_binary_tabulated</text>
<text text-anchor="middle" x="213.5" y="-278" font-family="Helvetica,sans-Serif" font-size="10.00">_reaction_data</text>
</a>
</g>
</g>
<!-- Node1&#45;&gt;Node6 -->
<g id="edge6" class="edge">
<title>Node1&#45;&gt;Node6</title>
<path fill="none" stroke="midnightblue" d="M115.41,-291.5C125.07,-291.5 135.19,-291.5 145.1,-291.5"/>
<polygon fill="midnightblue" stroke="midnightblue" points="145.31,-295 155.31,-291.5 145.31,-288 145.31,-295"/>
</g>
<!-- Node8 -->
<g id="node8" class="node">
<title>Node8</title>
<g id="a_node8"><a xlink:href="namespacetabulated__rate__module.html#ab0345a4c09d10f8e2b0ab0427c4c11d5" target="_top" xlink:title="Reads tabulated reaction rates.">
<polygon fill="white" stroke="black" points="156,-179.5 156,-209.5 271,-209.5 271,-179.5 156,-179.5"/>
<text text-anchor="start" x="164" y="-197.5" font-family="Helvetica,sans-Serif" font-size="10.00">tabulated_rate_module</text>
<text text-anchor="middle" x="213.5" y="-186.5" font-family="Helvetica,sans-Serif" font-size="10.00">::readtabulated</text>
</a>
</g>
</g>
<!-- Node1&#45;&gt;Node8 -->
<g id="edge11" class="edge">
<title>Node1&#45;&gt;Node8</title>
<path fill="none" stroke="midnightblue" d="M82.56,-276.34C108.78,-259.83 150.87,-233.32 180.01,-214.96"/>
<polygon fill="midnightblue" stroke="midnightblue" points="182.01,-217.84 188.61,-209.55 178.28,-211.92 182.01,-217.84"/>
</g>
<!-- Node15 -->
<g id="node15" class="node">
<title>Node15</title>
<g id="a_node15"><a xlink:href="namespacetabulated__rate__module.html#ad7ae6db74c032f197814c434eff5af20" target="_top" xlink:title="Reads tabulated reaction rate temperature grid.">
<polygon fill="white" stroke="black" points="156,-369.5 156,-399.5 271,-399.5 271,-369.5 156,-369.5"/>
<text text-anchor="start" x="164" y="-387.5" font-family="Helvetica,sans-Serif" font-size="10.00">tabulated_rate_module</text>
<text text-anchor="middle" x="213.5" y="-376.5" font-family="Helvetica,sans-Serif" font-size="10.00">::readtabulatedtemps</text>
</a>
</g>
</g>
<!-- Node1&#45;&gt;Node15 -->
<g id="edge23" class="edge">
<title>Node1&#45;&gt;Node15</title>
<path fill="none" stroke="midnightblue" d="M78.89,-306.64C97.27,-319.99 125.29,-339.58 151,-354.5 157.07,-358.03 163.62,-361.52 170.1,-364.82"/>
<polygon fill="midnightblue" stroke="midnightblue" points="168.97,-368.16 179.49,-369.48 172.09,-361.89 168.97,-368.16"/>
</g>
<!-- Node16 -->
<g id="node16" class="node">
<title>Node16</title>
<g id="a_node16"><a xlink:href="namespacetabulated__rate__module.html#a33445094a429d77b6f0b23c5b47fd844" target="_top" xlink:title="Write the verbose output of the reaction rates.">
<polygon fill="white" stroke="black" points="151,-44.5 151,-74.5 276,-74.5 276,-44.5 151,-44.5"/>
<text text-anchor="start" x="159" y="-62.5" font-family="Helvetica,sans-Serif" font-size="10.00">tabulated_rate_module</text>
<text text-anchor="middle" x="213.5" y="-51.5" font-family="Helvetica,sans-Serif" font-size="10.00">::write_reac_verbose_out</text>
</a>
</g>
</g>
<!-- Node1&#45;&gt;Node16 -->
<g id="edge26" class="edge">
<title>Node1&#45;&gt;Node16</title>
<path fill="none" stroke="midnightblue" d="M68.6,-276.28C94.82,-236.79 165.16,-130.82 196.75,-83.22"/>
<polygon fill="midnightblue" stroke="midnightblue" points="199.74,-85.05 202.36,-74.78 193.91,-81.17 199.74,-85.05"/>
</g>
<!-- Node3 -->
<g id="node3" class="node">
<title>Node3</title>
<g id="a_node3"><a xlink:href="namespacefile__handling__class.html#af02196bd5eaf70ecd5ab4cc650094d5e" target="_top" xlink:title="Finds the next unused unit number.">
<polygon fill="white" stroke="black" points="510,-358.5 510,-388.5 608,-388.5 608,-358.5 510,-358.5"/>
<text text-anchor="start" x="518" y="-376.5" font-family="Helvetica,sans-Serif" font-size="10.00">file_handling_class</text>
<text text-anchor="middle" x="559" y="-365.5" font-family="Helvetica,sans-Serif" font-size="10.00">::get_next_io_unit</text>
</a>
</g>
</g>
<!-- Node2&#45;&gt;Node3 -->
<g id="edge2" class="edge">
<title>Node2&#45;&gt;Node3</title>
<path fill="none" stroke="midnightblue" d="M431.64,-381.47C452.63,-380.14 477.43,-378.58 499.47,-377.19"/>
<polygon fill="midnightblue" stroke="midnightblue" points="499.95,-380.67 509.71,-376.54 499.51,-373.68 499.95,-380.67"/>
</g>
<!-- Node4 -->
<g id="node4" class="node">
<title>Node4</title>
<g id="a_node4"><a xlink:href="namespaceerror__msg__class.html#a2453d3b7cb363115c046840baa1dfb75" target="_top" xlink:title="Raise a exception with a given error message.">
<polygon fill="white" stroke="black" points="665,-276.5 665,-306.5 779,-306.5 779,-276.5 665,-276.5"/>
<text text-anchor="start" x="673" y="-294.5" font-family="Helvetica,sans-Serif" font-size="10.00">error_msg_class::raise</text>
<text text-anchor="middle" x="722" y="-283.5" font-family="Helvetica,sans-Serif" font-size="10.00">_exception</text>
</a>
</g>
</g>
<!-- Node2&#45;&gt;Node4 -->
<g id="edge5" class="edge">
<title>Node2&#45;&gt;Node4</title>
<path fill="none" stroke="midnightblue" d="M431.16,-399.59C482.47,-413.05 565.32,-426.55 629,-397.5 665.73,-380.75 693.44,-341.29 708.43,-315.53"/>
<polygon fill="midnightblue" stroke="midnightblue" points="711.53,-317.16 713.38,-306.72 705.43,-313.73 711.53,-317.16"/>
</g>
<!-- Node3&#45;&gt;Node4 -->
<g id="edge3" class="edge">
<title>Node3&#45;&gt;Node4</title>
<path fill="none" stroke="midnightblue" d="M596.5,-358.48C607.08,-353.89 618.59,-348.68 629,-343.5 648.54,-333.77 669.78,-321.85 686.93,-311.88"/>
<polygon fill="midnightblue" stroke="midnightblue" points="689.14,-314.64 696,-306.57 685.6,-308.6 689.14,-314.64"/>
</g>
<!-- Node5 -->
<g id="node5" class="node">
<title>Node5</title>
<g id="a_node5"><a xlink:href="namespaceerror__msg__class.html#a7e065585cc806a5c264de1f088266498" target="_top" xlink:title="Converts a given integer to a string.">
<polygon fill="white" stroke="black" points="815,-172.5 815,-202.5 919,-202.5 919,-172.5 815,-172.5"/>
<text text-anchor="start" x="823" y="-190.5" font-family="Helvetica,sans-Serif" font-size="10.00">error_msg_class::int</text>
<text text-anchor="middle" x="867" y="-179.5" font-family="Helvetica,sans-Serif" font-size="10.00">_to_str</text>
</a>
</g>
</g>
<!-- Node4&#45;&gt;Node5 -->
<g id="edge4" class="edge">
<title>Node4&#45;&gt;Node5</title>
<path fill="none" stroke="midnightblue" d="M743.79,-276.38C768.36,-258.51 809.39,-228.67 837.06,-208.55"/>
<polygon fill="midnightblue" stroke="midnightblue" points="839.15,-211.35 845.18,-202.64 835.04,-205.69 839.15,-211.35"/>
</g>
<!-- Node6&#45;&gt;Node4 -->
<g id="edge10" class="edge">
<title>Node6&#45;&gt;Node4</title>
<path fill="none" stroke="midnightblue" d="M271.62,-291.5C366.17,-291.5 554.69,-291.5 654.86,-291.5"/>
<polygon fill="midnightblue" stroke="midnightblue" points="654.86,-295 664.86,-291.5 654.86,-288 654.86,-295"/>
</g>
<!-- Node7 -->
<g id="node7" class="node">
<title>Node7</title>
<g id="a_node7"><a xlink:href="namespacefile__handling__class.html#a25b51db64738e74a129daae7428c8163" target="_top" xlink:title="Open an unformatted file for reading.">
<polygon fill="white" stroke="black" points="320.5,-320.5 320.5,-350.5 444.5,-350.5 444.5,-320.5 320.5,-320.5"/>
<text text-anchor="start" x="328.5" y="-338.5" font-family="Helvetica,sans-Serif" font-size="10.00">file_handling_class</text>
<text text-anchor="middle" x="382.5" y="-327.5" font-family="Helvetica,sans-Serif" font-size="10.00">::open_unformatted_infile</text>
</a>
</g>
</g>
<!-- Node6&#45;&gt;Node7 -->
<g id="edge7" class="edge">
<title>Node6&#45;&gt;Node7</title>
<path fill="none" stroke="midnightblue" d="M271.5,-306.52C285.4,-310.18 300.39,-314.13 314.7,-317.9"/>
<polygon fill="midnightblue" stroke="midnightblue" points="313.91,-321.31 324.47,-320.47 315.69,-314.54 313.91,-321.31"/>
</g>
<!-- Node7&#45;&gt;Node3 -->
<g id="edge8" class="edge">
<title>Node7&#45;&gt;Node3</title>
<path fill="none" stroke="midnightblue" d="M444.53,-348.79C462.44,-352.69 481.98,-356.94 499.71,-360.81"/>
<polygon fill="midnightblue" stroke="midnightblue" points="499.4,-364.32 509.92,-363.03 500.89,-357.48 499.4,-364.32"/>
</g>
<!-- Node7&#45;&gt;Node4 -->
<g id="edge9" class="edge">
<title>Node7&#45;&gt;Node4</title>
<path fill="none" stroke="midnightblue" d="M444.6,-328.54C494.31,-322.75 566.25,-314.11 629,-305.5 637.28,-304.36 645.98,-303.12 654.58,-301.85"/>
<polygon fill="midnightblue" stroke="midnightblue" points="655.22,-305.29 664.6,-300.35 654.19,-298.36 655.22,-305.29"/>
</g>
<!-- Node8&#45;&gt;Node5 -->
<g id="edge14" class="edge">
<title>Node8&#45;&gt;Node5</title>
<path fill="none" stroke="midnightblue" d="M270.81,-179.44C284.27,-176.01 298.61,-172.5 312,-169.5 450.27,-138.52 488.04,-121.09 629,-135.5 689.64,-141.7 757.45,-157.51 804.95,-170.08"/>
<polygon fill="midnightblue" stroke="midnightblue" points="804.2,-173.5 814.77,-172.71 806.02,-166.74 804.2,-173.5"/>
</g>
<!-- Node9 -->
<g id="node9" class="node">
<title>Node9</title>
<g id="a_node9"><a xlink:href="namespacebenam__class.html#ad20c821347dd5f7c08dff59c98e69657" target="_top" xlink:title="Returns the index number of isotope &#39;name&#39;.">
<polygon fill="white" stroke="black" points="328.5,-229 328.5,-248 436.5,-248 436.5,-229 328.5,-229"/>
<text text-anchor="middle" x="382.5" y="-236" font-family="Helvetica,sans-Serif" font-size="10.00">benam_class::benam</text>
</a>
</g>
</g>
<!-- Node8&#45;&gt;Node9 -->
<g id="edge12" class="edge">
<title>Node8&#45;&gt;Node9</title>
<path fill="none" stroke="midnightblue" d="M271.04,-209.4C292,-214.92 315.51,-221.11 335.43,-226.36"/>
<polygon fill="midnightblue" stroke="midnightblue" points="334.63,-229.77 345.19,-228.93 336.41,-223 334.63,-229.77"/>
</g>
<!-- Node10 -->
<g id="node10" class="node">
<title>Node10</title>
<g id="a_node10"><a xlink:href="namespacebenam__class.html#af8144ea43fb40187e32fb83da48458f1" target="_top" xlink:title="Returns the 1/n! factor where n is the number of equal isotopes entering a reaction....">
<polygon fill="white" stroke="black" points="312,-88 312,-107 453,-107 453,-88 312,-88"/>
<text text-anchor="middle" x="382.5" y="-95" font-family="Helvetica,sans-Serif" font-size="10.00">benam_class::getcoefficients</text>
</a>
</g>
</g>
<!-- Node8&#45;&gt;Node10 -->
<g id="edge13" class="edge">
<title>Node8&#45;&gt;Node10</title>
<path fill="none" stroke="midnightblue" d="M231.36,-179.29C249.97,-163.14 281.36,-137.75 312,-121.5 319.95,-117.29 328.79,-113.57 337.42,-110.4"/>
<polygon fill="midnightblue" stroke="midnightblue" points="338.74,-113.65 347.03,-107.06 336.44,-107.04 338.74,-113.65"/>
</g>
<!-- Node11 -->
<g id="node11" class="node">
<title>Node11</title>
<g id="a_node11"><a xlink:href="namespacereaclib__rate__module.html#a8e23d45ed0420de076b8f07863151a34" target="_top" xlink:title="Set a flag for the reaction type.">
<polygon fill="white" stroke="black" points="330.5,-179.5 330.5,-209.5 434.5,-209.5 434.5,-179.5 330.5,-179.5"/>
<text text-anchor="start" x="338.5" y="-197.5" font-family="Helvetica,sans-Serif" font-size="10.00">reaclib_rate_module</text>
<text text-anchor="middle" x="382.5" y="-186.5" font-family="Helvetica,sans-Serif" font-size="10.00">::set_reaction_type</text>
</a>
</g>
</g>
<!-- Node8&#45;&gt;Node11 -->
<g id="edge15" class="edge">
<title>Node8&#45;&gt;Node11</title>
<path fill="none" stroke="midnightblue" d="M271.04,-194.5C286.8,-194.5 303.99,-194.5 320.02,-194.5"/>
<polygon fill="midnightblue" stroke="midnightblue" points="320.35,-198 330.35,-194.5 320.35,-191 320.35,-198"/>
</g>
<!-- Node12 -->
<g id="node12" class="node">
<title>Node12</title>
<g id="a_node12"><a xlink:href="namespacebenam__class.html#afd880df70f94c289b6bda0647f4494e3" target="_top" xlink:title="Getter of net_names, translating indices to a nucleus name.">
<polygon fill="white" stroke="black" points="489,-244 489,-263 629,-263 629,-244 489,-244"/>
<text text-anchor="middle" x="559" y="-251" font-family="Helvetica,sans-Serif" font-size="10.00">benam_class::get_net_name</text>
</a>
</g>
</g>
<!-- Node11&#45;&gt;Node12 -->
<g id="edge16" class="edge">
<title>Node11&#45;&gt;Node12</title>
<path fill="none" stroke="midnightblue" d="M425.83,-209.53C434.81,-212.78 444.23,-216.22 453,-219.5 469.08,-225.52 472.74,-227.99 489,-233.5 496.73,-236.12 505.01,-238.7 513.06,-241.1"/>
<polygon fill="midnightblue" stroke="midnightblue" points="512.13,-244.48 522.71,-243.92 514.1,-237.76 512.13,-244.48"/>
</g>
<!-- Node13 -->
<g id="node13" class="node">
<title>Node13</title>
<g id="a_node13"><a xlink:href="namespacenucstuff__class.html#adb871d9f6d0e6ec5db0a0808201ab3db" target="_top" xlink:title="Get number of products of the reaction based on the reaclib chapter.">
<polygon fill="white" stroke="black" points="510,-194.5 510,-224.5 608,-224.5 608,-194.5 510,-194.5"/>
<text text-anchor="start" x="518" y="-212.5" font-family="Helvetica,sans-Serif" font-size="10.00">nucstuff_class::get</text>
<text text-anchor="middle" x="559" y="-201.5" font-family="Helvetica,sans-Serif" font-size="10.00">_nr_products</text>
</a>
</g>
</g>
<!-- Node11&#45;&gt;Node13 -->
<g id="edge17" class="edge">
<title>Node11&#45;&gt;Node13</title>
<path fill="none" stroke="midnightblue" d="M434.91,-198.92C455.3,-200.67 478.85,-202.7 499.86,-204.5"/>
<polygon fill="midnightblue" stroke="midnightblue" points="499.68,-208 509.94,-205.37 500.28,-201.03 499.68,-208"/>
</g>
<!-- Node14 -->
<g id="node14" class="node">
<title>Node14</title>
<g id="a_node14"><a xlink:href="namespacenucstuff__class.html#a5fa1f79d38fd5b01a5d6d797fea0132d" target="_top" xlink:title="Get number of reactants of the reaction based on the reaclib chapter.">
<polygon fill="white" stroke="black" points="510,-145.5 510,-175.5 608,-175.5 608,-145.5 510,-145.5"/>
<text text-anchor="start" x="518" y="-163.5" font-family="Helvetica,sans-Serif" font-size="10.00">nucstuff_class::get</text>
<text text-anchor="middle" x="559" y="-152.5" font-family="Helvetica,sans-Serif" font-size="10.00">_nr_reactants</text>
</a>
</g>
</g>
<!-- Node11&#45;&gt;Node14 -->
<g id="edge20" class="edge">
<title>Node11&#45;&gt;Node14</title>
<path fill="none" stroke="midnightblue" d="M434.91,-184.48C455.3,-180.51 478.85,-175.92 499.86,-171.83"/>
<polygon fill="midnightblue" stroke="midnightblue" points="500.8,-175.21 509.94,-169.86 499.46,-168.34 500.8,-175.21"/>
</g>
<!-- Node13&#45;&gt;Node4 -->
<g id="edge19" class="edge">
<title>Node13&#45;&gt;Node4</title>
<path fill="none" stroke="midnightblue" d="M605.83,-224.59C613.68,-227.6 621.66,-230.94 629,-234.5 650.46,-244.89 673.24,-258.99 690.77,-270.56"/>
<polygon fill="midnightblue" stroke="midnightblue" points="689.17,-273.7 699.42,-276.35 693.06,-267.88 689.17,-273.7"/>
</g>
<!-- Node13&#45;&gt;Node5 -->
<g id="edge18" class="edge">
<title>Node13&#45;&gt;Node5</title>
<path fill="none" stroke="midnightblue" d="M608.15,-206.04C661.26,-202.22 746.85,-196.07 804.71,-191.91"/>
<polygon fill="midnightblue" stroke="midnightblue" points="805.09,-195.39 814.82,-191.18 804.59,-188.41 805.09,-195.39"/>
</g>
<!-- Node14&#45;&gt;Node4 -->
<g id="edge22" class="edge">
<title>Node14&#45;&gt;Node4</title>
<path fill="none" stroke="midnightblue" d="M608.34,-173.63C615.58,-176.62 622.71,-180.22 629,-184.5 661.68,-206.75 689.72,-243.47 705.98,-267.57"/>
<polygon fill="midnightblue" stroke="midnightblue" points="703.2,-269.71 711.62,-276.14 709.04,-265.86 703.2,-269.71"/>
</g>
<!-- Node14&#45;&gt;Node5 -->
<g id="edge21" class="edge">
<title>Node14&#45;&gt;Node5</title>
<path fill="none" stroke="midnightblue" d="M608.15,-164.75C661.26,-169.43 746.85,-176.99 804.71,-182.09"/>
<polygon fill="midnightblue" stroke="midnightblue" points="804.55,-185.59 814.82,-182.98 805.16,-178.62 804.55,-185.59"/>
</g>
<!-- Node15&#45;&gt;Node2 -->
<g id="edge25" class="edge">
<title>Node15&#45;&gt;Node2</title>
<path fill="none" stroke="midnightblue" d="M271.04,-384.5C287.81,-384.5 306.2,-384.5 323.09,-384.5"/>
<polygon fill="midnightblue" stroke="midnightblue" points="323.38,-388 333.38,-384.5 323.38,-381 323.38,-388"/>
</g>
<!-- Node15&#45;&gt;Node5 -->
<g id="edge24" class="edge">
<title>Node15&#45;&gt;Node5</title>
<path fill="none" stroke="midnightblue" d="M260.51,-399.54C338.35,-422.55 500.11,-459.81 629,-419.5 706.42,-395.28 721.9,-373.13 779,-315.5 810.63,-283.57 838.07,-238.72 853.29,-211.46"/>
<polygon fill="midnightblue" stroke="midnightblue" points="856.41,-213.06 858.15,-202.6 850.27,-209.69 856.41,-213.06"/>
</g>
<!-- Node16&#45;&gt;Node5 -->
<g id="edge27" class="edge">
<title>Node16&#45;&gt;Node5</title>
<path fill="none" stroke="midnightblue" d="M276.32,-59.31C382.46,-60.84 604.75,-72.27 779,-136.5 799.38,-144.01 820.43,-156.21 836.72,-166.8"/>
<polygon fill="midnightblue" stroke="midnightblue" points="834.98,-169.85 845.25,-172.48 838.86,-164.02 834.98,-169.85"/>
</g>
<!-- Node17 -->
<g id="node17" class="node">
<title>Node17</title>
<g id="a_node17"><a xlink:href="namespaceerror__msg__class.html#a339dd5b38c125b6a04653762c94a91f2" target="_top" xlink:title="Write data to the standard output (usually OUT)">
<polygon fill="white" stroke="black" points="325.5,-0.5 325.5,-30.5 439.5,-30.5 439.5,-0.5 325.5,-0.5"/>
<text text-anchor="start" x="333.5" y="-18.5" font-family="Helvetica,sans-Serif" font-size="10.00">error_msg_class::write</text>
<text text-anchor="middle" x="382.5" y="-7.5" font-family="Helvetica,sans-Serif" font-size="10.00">_data_to_std_out</text>
</a>
</g>
</g>
<!-- Node16&#45;&gt;Node17 -->
<g id="edge28" class="edge">
<title>Node16&#45;&gt;Node17</title>
<path fill="none" stroke="midnightblue" d="M271.5,-44.48C285.63,-40.76 300.89,-36.74 315.41,-32.91"/>
<polygon fill="midnightblue" stroke="midnightblue" points="316.54,-36.23 325.32,-30.3 314.76,-29.47 316.54,-36.23"/>
</g>
<!-- Node18 -->
<g id="node18" class="node">
<title>Node18</title>
<g id="a_node18"><a xlink:href="namespaceerror__msg__class.html#af62b9a0c5997255e792b9ebd7322a6a3" target="_top" xlink:title="Write the header of the standard output (usually OUT)">
<polygon fill="white" stroke="black" points="502,-0.5 502,-30.5 616,-30.5 616,-0.5 502,-0.5"/>
<text text-anchor="start" x="510" y="-18.5" font-family="Helvetica,sans-Serif" font-size="10.00">error_msg_class::write</text>
<text text-anchor="middle" x="559" y="-7.5" font-family="Helvetica,sans-Serif" font-size="10.00">_header</text>
</a>
</g>
</g>
<!-- Node17&#45;&gt;Node18 -->
<g id="edge29" class="edge">
<title>Node17&#45;&gt;Node18</title>
<path fill="none" stroke="midnightblue" d="M439.67,-9.15C456.18,-8.71 474.38,-8.63 491.47,-8.92"/>
<polygon fill="midnightblue" stroke="midnightblue" points="491.86,-12.43 501.93,-9.15 492.01,-5.43 491.86,-12.43"/>
</g>
<!-- Node18&#45;&gt;Node17 -->
<g id="edge30" class="edge">
<title>Node18&#45;&gt;Node17</title>
<path fill="none" stroke="midnightblue" d="M501.93,-21.85C485.44,-22.29 467.23,-22.37 450.14,-22.08"/>
<polygon fill="midnightblue" stroke="midnightblue" points="449.75,-18.57 439.67,-21.85 449.6,-25.57 449.75,-18.57"/>
</g>
</g>
</svg>
