<?xml version="1.0" encoding="UTF-8" standalone="no"?>
<!DOCTYPE svg PUBLIC "-//W3C//DTD SVG 1.1//EN"
 "http://www.w3.org/Graphics/SVG/1.1/DTD/svg11.dtd">
<!-- Generated by graphviz version 2.44.0 ()
 -->
<!-- Title: fission_rate_module::reorder_fragments Pages: 1 -->
<!--zoomable 68 -->
<svg id="main" version="1.1" xmlns="http://www.w3.org/2000/svg" xmlns:xlink="http://www.w3.org/1999/xlink" xml:space="preserve" onload="init(evt)">
<style type="text/css"><![CDATA[
.edge:hover path { stroke: red; }
.edge:hover polygon { stroke: red; fill: red; }
]]></style>
<script type="text/javascript"><![CDATA[
var edges = document.getElementsByTagName('g');
if (edges && edges.length) {
  for (var i=0;i<edges.length;i++) {
    if (edges[i].id.substr(0,4)=='edge') {
      edges[i].setAttribute('class','edge');
    }
  }
}
]]></script>
        <defs>
                <circle id="rim" cx="0" cy="0" r="7"/>
                <circle id="rim2" cx="0" cy="0" r="3.5"/>
                <g id="zoomPlus">
                        <use xlink:href="#rim" fill="#404040">
                                <set attributeName="fill" to="#808080" begin="zoomplus.mouseover" end="zoomplus.mouseout"/>
                        </use>
                        <path d="M-4,0h8M0,-4v8" fill="none" stroke="white" stroke-width="1.5" pointer-events="none"/>
                </g>
                <g id="zoomMin">
                        <use xlink:href="#rim" fill="#404040">
                                <set attributeName="fill" to="#808080" begin="zoomminus.mouseover" end="zoomminus.mouseout"/>
                        </use>
                        <path d="M-4,0h8" fill="none" stroke="white" stroke-width="1.5" pointer-events="none"/>
                </g>
                <g id="dirArrow">
                        <path fill="none" stroke="white" stroke-width="1.5" d="M0,-3.0v7 M-2.5,-0.5L0,-3.0L2.5,-0.5"/>
                </g>
               <g id="resetDef">
                       <use xlink:href="#rim2" fill="#404040">
                               <set attributeName="fill" to="#808080" begin="reset.mouseover" end="reset.mouseout"/>
                       </use>
               </g>
        </defs>

<script type="text/javascript">
var viewWidth = 584;
var viewHeight = 68;
var sectionId = 'dynsection-20';
</script>
<script xlink:href="svgpan.js"/>
<svg id="graph" class="graph">
<g id="viewport">
<title>fission_rate_module::reorder_fragments</title>
<polygon fill="white" stroke="transparent" points="-4,4 -4,-63.86 580,-63.86 580,4 -4,4"/>
<!-- Node1 -->
<g id="node1" class="node">
<title>Node1</title>
<g id="a_node1"><a xlink:title="Reorder the fission fragments.">
<polygon fill="#bfbfbf" stroke="black" points="0,-14.94 0,-44.94 103,-44.94 103,-14.94 0,-14.94"/>
<text text-anchor="start" x="8" y="-32.94" font-family="Helvetica,sans-Serif" font-size="10.00">fission_rate_module</text>
<text text-anchor="middle" x="51.5" y="-21.94" font-family="Helvetica,sans-Serif" font-size="10.00">::reorder_fragments</text>
</a>
</g>
</g>
<!-- Node2 -->
<g id="node2" class="node">
<title>Node2</title>
<g id="a_node2"><a xlink:href="namespacemergesort__module.html#a68c6cd380e0fbe122d41846adf3f6a5d" target="_top" xlink:title="Bubblesort of array.">
<polygon fill="white" stroke="black" points="139.5,-39.44 139.5,-58.44 285.5,-58.44 285.5,-39.44 139.5,-39.44"/>
<text text-anchor="middle" x="212.5" y="-46.44" font-family="Helvetica,sans-Serif" font-size="10.00">mergesort_module::bubblesort</text>
</a>
</g>
</g>
<!-- Node1&#45;&gt;Node2 -->
<g id="edge1" class="edge">
<title>Node1&#45;&gt;Node2</title>
<path fill="none" stroke="midnightblue" d="M103.25,-36C111.57,-36.99 120.37,-38.05 129.22,-39.1"/>
<polygon fill="midnightblue" stroke="midnightblue" points="128.87,-42.59 139.21,-40.3 129.7,-35.64 128.87,-42.59"/>
</g>
<!-- Node5 -->
<g id="node5" class="node">
<title>Node5</title>
<g id="a_node5"><a xlink:href="namespacemergesort__module.html#acbae2585fc0a5f2f3d14238cb54614d6" target="_top" xlink:title="Takes an array and an array with indices to reorder the first array.">
<polygon fill="white" stroke="black" points="139,-1.44 139,-20.44 286,-20.44 286,-1.44 139,-1.44"/>
<text text-anchor="middle" x="212.5" y="-8.44" font-family="Helvetica,sans-Serif" font-size="10.00">mergesort_module::reorder_int</text>
</a>
</g>
</g>
<!-- Node1&#45;&gt;Node5 -->
<g id="edge5" class="edge">
<title>Node1&#45;&gt;Node5</title>
<path fill="none" stroke="midnightblue" d="M103.25,-23.87C111.41,-22.9 120.04,-21.86 128.73,-20.83"/>
<polygon fill="midnightblue" stroke="midnightblue" points="129.41,-24.27 138.92,-19.61 128.58,-17.32 129.41,-24.27"/>
</g>
<!-- Node3 -->
<g id="node3" class="node">
<title>Node3</title>
<g id="a_node3"><a xlink:href="namespaceerror__msg__class.html#a7e065585cc806a5c264de1f088266498" target="_top" xlink:title="Converts a given integer to a string.">
<polygon fill="white" stroke="black" points="472,-14.94 472,-44.94 576,-44.94 576,-14.94 472,-14.94"/>
<text text-anchor="start" x="480" y="-32.94" font-family="Helvetica,sans-Serif" font-size="10.00">error_msg_class::int</text>
<text text-anchor="middle" x="524" y="-21.94" font-family="Helvetica,sans-Serif" font-size="10.00">_to_str</text>
</a>
</g>
</g>
<!-- Node2&#45;&gt;Node3 -->
<g id="edge2" class="edge">
<title>Node2&#45;&gt;Node3</title>
<path fill="none" stroke="midnightblue" d="M285.74,-56.94C329.44,-60.28 386.16,-61.95 436,-54.94 447.08,-53.38 458.73,-50.75 469.77,-47.77"/>
<polygon fill="midnightblue" stroke="midnightblue" points="471.04,-51.05 479.7,-44.96 469.13,-44.31 471.04,-51.05"/>
</g>
<!-- Node4 -->
<g id="node4" class="node">
<title>Node4</title>
<g id="a_node4"><a xlink:href="namespaceerror__msg__class.html#a2453d3b7cb363115c046840baa1dfb75" target="_top" xlink:title="Raise a exception with a given error message.">
<polygon fill="white" stroke="black" points="322,-14.94 322,-44.94 436,-44.94 436,-14.94 322,-14.94"/>
<text text-anchor="start" x="330" y="-32.94" font-family="Helvetica,sans-Serif" font-size="10.00">error_msg_class::raise</text>
<text text-anchor="middle" x="379" y="-21.94" font-family="Helvetica,sans-Serif" font-size="10.00">_exception</text>
</a>
</g>
</g>
<!-- Node2&#45;&gt;Node4 -->
<g id="edge3" class="edge">
<title>Node2&#45;&gt;Node4</title>
<path fill="none" stroke="midnightblue" d="M285.65,-40.6C294.34,-39.6 303.18,-38.58 311.77,-37.58"/>
<polygon fill="midnightblue" stroke="midnightblue" points="312.2,-41.06 321.73,-36.43 311.39,-34.11 312.2,-41.06"/>
</g>
<!-- Node4&#45;&gt;Node3 -->
<g id="edge4" class="edge">
<title>Node4&#45;&gt;Node3</title>
<path fill="none" stroke="midnightblue" d="M436.11,-29.94C444.45,-29.94 453.09,-29.94 461.54,-29.94"/>
<polygon fill="midnightblue" stroke="midnightblue" points="461.71,-33.44 471.71,-29.94 461.71,-26.44 461.71,-33.44"/>
</g>
<!-- Node5&#45;&gt;Node3 -->
<g id="edge6" class="edge">
<title>Node5&#45;&gt;Node3</title>
<path fill="none" stroke="midnightblue" d="M286.24,-2.9C329.87,0.42 386.35,2.06 436,-4.94 447.08,-6.5 458.73,-9.12 469.77,-12.1"/>
<polygon fill="midnightblue" stroke="midnightblue" points="469.13,-15.56 479.7,-14.92 471.04,-8.82 469.13,-15.56"/>
</g>
<!-- Node5&#45;&gt;Node4 -->
<g id="edge7" class="edge">
<title>Node5&#45;&gt;Node4</title>
<path fill="none" stroke="midnightblue" d="M286.13,-19.32C294.58,-20.3 303.16,-21.29 311.51,-22.26"/>
<polygon fill="midnightblue" stroke="midnightblue" points="311.23,-25.75 321.57,-23.42 312.04,-18.79 311.23,-25.75"/>
</g>
</g>
</svg>
        <g id="navigator" transform="translate(0 0)" fill="#404254">
                <rect fill="#f2f5e9" fill-opacity="0.5" stroke="#606060" stroke-width=".5" x="0" y="0" width="60" height="60"/>
                <use id="zoomplus" xlink:href="#zoomPlus" x="17" y="9" onmousedown="handleZoom(evt,'in')"/>
                <use id="zoomminus" xlink:href="#zoomMin" x="42" y="9" onmousedown="handleZoom(evt,'out')"/>
                <use id="reset" xlink:href="#resetDef" x="30" y="36" onmousedown="handleReset()"/>
                <g id="arrowUp" xlink:href="#dirArrow" transform="translate(30 24)" onmousedown="handlePan(0,-1)">
                  <use xlink:href="#rim" fill="#404040">
                        <set attributeName="fill" to="#808080" begin="arrowUp.mouseover" end="arrowUp.mouseout"/>
                  </use>
                  <path fill="none" stroke="white" stroke-width="1.5" d="M0,-3.0v7 M-2.5,-0.5L0,-3.0L2.5,-0.5"/>
                </g>
                <g id="arrowRight" xlink:href="#dirArrow" transform="rotate(90) translate(36 -43)" onmousedown="handlePan(1,0)">
                  <use xlink:href="#rim" fill="#404040">
                        <set attributeName="fill" to="#808080" begin="arrowRight.mouseover" end="arrowRight.mouseout"/>
                  </use>
                  <path fill="none" stroke="white" stroke-width="1.5" d="M0,-3.0v7 M-2.5,-0.5L0,-3.0L2.5,-0.5"/>
                </g>
                <g id="arrowDown" xlink:href="#dirArrow" transform="rotate(180) translate(-30 -48)" onmousedown="handlePan(0,1)">
                  <use xlink:href="#rim" fill="#404040">
                        <set attributeName="fill" to="#808080" begin="arrowDown.mouseover" end="arrowDown.mouseout"/>
                  </use>
                  <path fill="none" stroke="white" stroke-width="1.5" d="M0,-3.0v7 M-2.5,-0.5L0,-3.0L2.5,-0.5"/>
                </g>
                <g id="arrowLeft" xlink:href="#dirArrow" transform="rotate(270) translate(-36 17)" onmousedown="handlePan(-1,0)">
                  <use xlink:href="#rim" fill="#404040">
                        <set attributeName="fill" to="#808080" begin="arrowLeft.mouseover" end="arrowLeft.mouseout"/>
                  </use>
                  <path fill="none" stroke="white" stroke-width="1.5" d="M0,-3.0v7 M-2.5,-0.5L0,-3.0L2.5,-0.5"/>
                </g>
        </g>
        <svg viewBox="0 0 15 15" width="100%" height="30px" preserveAspectRatio="xMaxYMin meet">
         <g id="arrow_out" transform="scale(0.3 0.3)">
          <a xlink:href="namespacefission__rate__module_a482abf656979513ab2b0de0855d472a8_cgraph_org.svg" target="_base">
           <rect id="button" ry="5" rx="5" y="6" x="6" height="38" width="38"
                fill="#f2f5e9" fill-opacity="0.5" stroke="#606060" stroke-width="1.0"/>
           <path id="arrow"
             d="M 11.500037,31.436501 C 11.940474,20.09759 22.043105,11.32322 32.158766,21.979434 L 37.068811,17.246167 C 37.068811,17.246167 37.088388,32 37.088388,32 L 22.160133,31.978069 C 22.160133,31.978069 26.997745,27.140456 26.997745,27.140456 C 18.528582,18.264221 13.291696,25.230495 11.500037,31.436501 z"
             style="fill:#404040;"/>
          </a>
         </g>
        </svg>
</svg>
