<?xml version="1.0" encoding="UTF-8" standalone="no"?>
<!DOCTYPE svg PUBLIC "-//W3C//DTD SVG 1.1//EN"
 "http://www.w3.org/Graphics/SVG/1.1/DTD/svg11.dtd">
<!-- Generated by graphviz version 2.44.0 ()
 -->
<!-- Title: tw_rate_module::init_theoretical_weak_rates Pages: 1 -->
<!--zoomable 700 -->
<svg id="main" version="1.1" xmlns="http://www.w3.org/2000/svg" xmlns:xlink="http://www.w3.org/1999/xlink" xml:space="preserve" onload="init(evt)">
<style type="text/css"><![CDATA[
.edge:hover path { stroke: red; }
.edge:hover polygon { stroke: red; fill: red; }
]]></style>
<script type="text/javascript"><![CDATA[
var edges = document.getElementsByTagName('g');
if (edges && edges.length) {
  for (var i=0;i<edges.length;i++) {
    if (edges[i].id.substr(0,4)=='edge') {
      edges[i].setAttribute('class','edge');
    }
  }
}
]]></script>
        <defs>
                <circle id="rim" cx="0" cy="0" r="7"/>
                <circle id="rim2" cx="0" cy="0" r="3.5"/>
                <g id="zoomPlus">
                        <use xlink:href="#rim" fill="#404040">
                                <set attributeName="fill" to="#808080" begin="zoomplus.mouseover" end="zoomplus.mouseout"/>
                        </use>
                        <path d="M-4,0h8M0,-4v8" fill="none" stroke="white" stroke-width="1.5" pointer-events="none"/>
                </g>
                <g id="zoomMin">
                        <use xlink:href="#rim" fill="#404040">
                                <set attributeName="fill" to="#808080" begin="zoomminus.mouseover" end="zoomminus.mouseout"/>
                        </use>
                        <path d="M-4,0h8" fill="none" stroke="white" stroke-width="1.5" pointer-events="none"/>
                </g>
                <g id="dirArrow">
                        <path fill="none" stroke="white" stroke-width="1.5" d="M0,-3.0v7 M-2.5,-0.5L0,-3.0L2.5,-0.5"/>
                </g>
               <g id="resetDef">
                       <use xlink:href="#rim2" fill="#404040">
                               <set attributeName="fill" to="#808080" begin="reset.mouseover" end="reset.mouseout"/>
                       </use>
               </g>
        </defs>

<script type="text/javascript">
var viewWidth = 978;
var viewHeight = 700;
var sectionId = 'dynsection-1';
</script>
<script xlink:href="svgpan.js"/>
<svg id="graph" class="graph">
<g id="viewport">
<title>tw_rate_module::init_theoretical_weak_rates</title>
<polygon fill="white" stroke="transparent" points="-4,4 -4,-696.02 974,-696.02 974,4 -4,4"/>
<!-- Node1 -->
<g id="node1" class="node">
<title>Node1</title>
<g id="a_node1"><a xlink:title="Initialize theoretical weak rates.">
<polygon fill="#bfbfbf" stroke="black" points="0,-433 0,-463 122,-463 122,-433 0,-433"/>
<text text-anchor="start" x="8" y="-451" font-family="Helvetica,sans-Serif" font-size="10.00">tw_rate_module::init</text>
<text text-anchor="middle" x="61" y="-440" font-family="Helvetica,sans-Serif" font-size="10.00">_theoretical_weak_rates</text>
</a>
</g>
</g>
<!-- Node2 -->
<g id="node2" class="node">
<title>Node2</title>
<g id="a_node2"><a xlink:href="namespacetw__rate__module.html#a67d6cd5f4fe826b464106347b21bb477" target="_top" xlink:title="Calculate derivatives of weak reactions.">
<polygon fill="white" stroke="black" points="164.5,-573 164.5,-603 289.5,-603 289.5,-573 164.5,-573"/>
<text text-anchor="start" x="172.5" y="-591" font-family="Helvetica,sans-Serif" font-size="10.00">tw_rate_module::initialize</text>
<text text-anchor="middle" x="227" y="-580" font-family="Helvetica,sans-Serif" font-size="10.00">_cubic_interp</text>
</a>
</g>
</g>
<!-- Node1&#45;&gt;Node2 -->
<g id="edge1" class="edge">
<title>Node1&#45;&gt;Node2</title>
<path fill="none" stroke="midnightblue" d="M79.86,-463.25C108.95,-488.08 166.64,-537.33 200.18,-565.96"/>
<polygon fill="midnightblue" stroke="midnightblue" points="198.28,-568.94 208.16,-572.77 202.83,-563.62 198.28,-568.94"/>
</g>
<!-- Node4 -->
<g id="node4" class="node">
<title>Node4</title>
<g id="a_node4"><a xlink:href="namespacetw__rate__module.html#a603e1c2b1e9a8baa1b7d409bfae94bef" target="_top" xlink:title=" ">
<polygon fill="white" stroke="black" points="158,-485.5 158,-504.5 296,-504.5 296,-485.5 158,-485.5"/>
<text text-anchor="middle" x="227" y="-492.5" font-family="Helvetica,sans-Serif" font-size="10.00">tw_rate_module::output_n_p</text>
</a>
</g>
</g>
<!-- Node1&#45;&gt;Node4 -->
<g id="edge3" class="edge">
<title>Node1&#45;&gt;Node4</title>
<path fill="none" stroke="midnightblue" d="M114.34,-463C136.52,-469.35 162.03,-476.67 183.07,-482.7"/>
<polygon fill="midnightblue" stroke="midnightblue" points="182.12,-486.07 192.7,-485.46 184.05,-479.34 182.12,-486.07"/>
</g>
<!-- Node15 -->
<g id="node15" class="node">
<title>Node15</title>
<g id="a_node15"><a xlink:href="namespacetw__rate__module.html#a248686b384413e5158c45ad1573f112e" target="_top" xlink:title="Reads and counts the amount of theoretical weak rates.">
<polygon fill="white" stroke="black" points="166,-147 166,-177 288,-177 288,-147 166,-147"/>
<text text-anchor="start" x="174" y="-165" font-family="Helvetica,sans-Serif" font-size="10.00">tw_rate_module::read</text>
<text text-anchor="middle" x="227" y="-154" font-family="Helvetica,sans-Serif" font-size="10.00">_theoretical_weak_rates</text>
</a>
</g>
</g>
<!-- Node1&#45;&gt;Node15 -->
<g id="edge23" class="edge">
<title>Node1&#45;&gt;Node15</title>
<path fill="none" stroke="midnightblue" d="M70.82,-432.62C97.8,-385.57 179.4,-243.27 212.16,-186.13"/>
<polygon fill="midnightblue" stroke="midnightblue" points="215.4,-187.52 217.34,-177.11 209.33,-184.04 215.4,-187.52"/>
</g>
<!-- Node26 -->
<g id="node26" class="node">
<title>Node26</title>
<g id="a_node26"><a xlink:href="namespacetw__rate__module.html#a0016151f3d88cbbea719a9028390dcb4" target="_top" xlink:title="Write the amount of individual reactions to the out.">
<polygon fill="white" stroke="black" points="171.5,-387 171.5,-417 282.5,-417 282.5,-387 171.5,-387"/>
<text text-anchor="start" x="179.5" y="-405" font-family="Helvetica,sans-Serif" font-size="10.00">tw_rate_module::write</text>
<text text-anchor="middle" x="227" y="-394" font-family="Helvetica,sans-Serif" font-size="10.00">_reac_verbose_out</text>
</a>
</g>
</g>
<!-- Node1&#45;&gt;Node26 -->
<g id="edge43" class="edge">
<title>Node1&#45;&gt;Node26</title>
<path fill="none" stroke="midnightblue" d="M115.7,-432.94C130.64,-428.75 147.01,-424.15 162.46,-419.82"/>
<polygon fill="midnightblue" stroke="midnightblue" points="163.78,-423.09 172.46,-417.02 161.89,-416.35 163.78,-423.09"/>
</g>
<!-- Node3 -->
<g id="node3" class="node">
<title>Node3</title>
<g id="a_node3"><a xlink:href="namespaceinter__module.html#a91a71b683c2b8d8dacfaad7352ce8a32" target="_top" xlink:title="Calculate derivatives at all points in a given grid.">
<polygon fill="white" stroke="black" points="356,-641 356,-671 451,-671 451,-641 356,-641"/>
<text text-anchor="start" x="364" y="-659" font-family="Helvetica,sans-Serif" font-size="10.00">inter_module::calc</text>
<text text-anchor="middle" x="403.5" y="-648" font-family="Helvetica,sans-Serif" font-size="10.00">_derivative_2d</text>
</a>
</g>
</g>
<!-- Node2&#45;&gt;Node3 -->
<g id="edge2" class="edge">
<title>Node2&#45;&gt;Node3</title>
<path fill="none" stroke="midnightblue" d="M261.94,-603.09C282.14,-611.89 308.37,-622.99 332,-632 336.86,-633.85 341.93,-635.71 347.03,-637.54"/>
<polygon fill="midnightblue" stroke="midnightblue" points="346.22,-640.97 356.82,-640.99 348.55,-634.36 346.22,-640.97"/>
</g>
<!-- Node5 -->
<g id="node5" class="node">
<title>Node5</title>
<g id="a_node5"><a xlink:href="namespacefile__handling__class.html#a01ba26324d7662cc0fb2e0eb306cd3e2" target="_top" xlink:title="Close an external file.">
<polygon fill="white" stroke="black" points="535,-480 535,-510 633,-510 633,-480 535,-480"/>
<text text-anchor="start" x="543" y="-498" font-family="Helvetica,sans-Serif" font-size="10.00">file_handling_class</text>
<text text-anchor="middle" x="584" y="-487" font-family="Helvetica,sans-Serif" font-size="10.00">::close_io_file</text>
</a>
</g>
</g>
<!-- Node4&#45;&gt;Node5 -->
<g id="edge4" class="edge">
<title>Node4&#45;&gt;Node5</title>
<path fill="none" stroke="midnightblue" d="M296.03,-495C362.3,-495 461.98,-495 524.71,-495"/>
<polygon fill="midnightblue" stroke="midnightblue" points="524.83,-498.5 534.83,-495 524.83,-491.5 524.83,-498.5"/>
</g>
<!-- Node8 -->
<g id="node8" class="node">
<title>Node8</title>
<g id="a_node8"><a xlink:href="namespacefile__handling__class.html#aeddf55e8478d6220dc04310665427c3a" target="_top" xlink:title="Shorthand for opening a new file for writing (output file)">
<polygon fill="white" stroke="black" points="354.5,-436 354.5,-466 452.5,-466 452.5,-436 354.5,-436"/>
<text text-anchor="start" x="362.5" y="-454" font-family="Helvetica,sans-Serif" font-size="10.00">file_handling_class</text>
<text text-anchor="middle" x="403.5" y="-443" font-family="Helvetica,sans-Serif" font-size="10.00">::open_outfile</text>
</a>
</g>
</g>
<!-- Node4&#45;&gt;Node8 -->
<g id="edge8" class="edge">
<title>Node4&#45;&gt;Node8</title>
<path fill="none" stroke="midnightblue" d="M265.86,-485.45C288.88,-479.65 318.74,-472.12 344.68,-465.58"/>
<polygon fill="midnightblue" stroke="midnightblue" points="345.56,-468.97 354.4,-463.13 343.85,-462.18 345.56,-468.97"/>
</g>
<!-- Node10 -->
<g id="node10" class="node">
<title>Node10</title>
<g id="a_node10"><a xlink:href="namespacetw__rate__module.html#aae7dacb01f31b31c10189432cc750156" target="_top" xlink:title="Set wk_index for given T, &#160;and &#160;The index is written into module variable wk_index.">
<polygon fill="white" stroke="black" points="347,-592 347,-622 460,-622 460,-592 347,-592"/>
<text text-anchor="start" x="355" y="-610" font-family="Helvetica,sans-Serif" font-size="10.00">tw_rate_module::weak</text>
<text text-anchor="middle" x="403.5" y="-599" font-family="Helvetica,sans-Serif" font-size="10.00">_index</text>
</a>
</g>
</g>
<!-- Node4&#45;&gt;Node10 -->
<g id="edge12" class="edge">
<title>Node4&#45;&gt;Node10</title>
<path fill="none" stroke="midnightblue" d="M236.84,-504.55C253.74,-522.31 292.48,-560.63 332,-583 335.02,-584.71 338.17,-586.32 341.41,-587.84"/>
<polygon fill="midnightblue" stroke="midnightblue" points="340.12,-591.1 350.69,-591.88 342.92,-584.68 340.12,-591.1"/>
</g>
<!-- Node12 -->
<g id="node12" class="node">
<title>Node12</title>
<g id="a_node12"><a xlink:href="namespacetw__rate__module.html#ad64c32f568ba69ca2822b1c0a2d4d911" target="_top" xlink:title="Interpolation interface.">
<polygon fill="white" stroke="black" points="347,-543 347,-573 460,-573 460,-543 347,-543"/>
<text text-anchor="start" x="355" y="-561" font-family="Helvetica,sans-Serif" font-size="10.00">tw_rate_module::weak</text>
<text text-anchor="middle" x="403.5" y="-550" font-family="Helvetica,sans-Serif" font-size="10.00">_inter</text>
</a>
</g>
</g>
<!-- Node4&#45;&gt;Node12 -->
<g id="edge14" class="edge">
<title>Node4&#45;&gt;Node12</title>
<path fill="none" stroke="midnightblue" d="M254.5,-504.57C280.08,-513.8 319.48,-528.03 351.2,-539.48"/>
<polygon fill="midnightblue" stroke="midnightblue" points="350.18,-542.83 360.77,-542.93 352.55,-536.25 350.18,-542.83"/>
</g>
<!-- Node6 -->
<g id="node6" class="node">
<title>Node6</title>
<g id="a_node6"><a xlink:href="namespaceerror__msg__class.html#a7e065585cc806a5c264de1f088266498" target="_top" xlink:title="Converts a given integer to a string.">
<polygon fill="white" stroke="black" points="866,-261 866,-291 970,-291 970,-261 866,-261"/>
<text text-anchor="start" x="874" y="-279" font-family="Helvetica,sans-Serif" font-size="10.00">error_msg_class::int</text>
<text text-anchor="middle" x="918" y="-268" font-family="Helvetica,sans-Serif" font-size="10.00">_to_str</text>
</a>
</g>
</g>
<!-- Node5&#45;&gt;Node6 -->
<g id="edge5" class="edge">
<title>Node5&#45;&gt;Node6</title>
<path fill="none" stroke="midnightblue" d="M621.1,-479.93C670.76,-458.28 761.75,-415.29 830,-364 855.85,-344.58 881.37,-317.58 898.02,-298.62"/>
<polygon fill="midnightblue" stroke="midnightblue" points="900.69,-300.89 904.59,-291.04 895.4,-296.31 900.69,-300.89"/>
</g>
<!-- Node7 -->
<g id="node7" class="node">
<title>Node7</title>
<g id="a_node7"><a xlink:href="namespaceerror__msg__class.html#a2453d3b7cb363115c046840baa1dfb75" target="_top" xlink:title="Raise a exception with a given error message.">
<polygon fill="white" stroke="black" points="704.5,-324 704.5,-354 818.5,-354 818.5,-324 704.5,-324"/>
<text text-anchor="start" x="712.5" y="-342" font-family="Helvetica,sans-Serif" font-size="10.00">error_msg_class::raise</text>
<text text-anchor="middle" x="761.5" y="-331" font-family="Helvetica,sans-Serif" font-size="10.00">_exception</text>
</a>
</g>
</g>
<!-- Node5&#45;&gt;Node7 -->
<g id="edge6" class="edge">
<title>Node5&#45;&gt;Node7</title>
<path fill="none" stroke="midnightblue" d="M630.61,-479.96C639.8,-475.87 649.06,-470.9 657,-465 667.37,-457.3 715.57,-396.52 742.38,-362.27"/>
<polygon fill="midnightblue" stroke="midnightblue" points="745.3,-364.22 748.7,-354.19 739.79,-359.91 745.3,-364.22"/>
</g>
<!-- Node7&#45;&gt;Node6 -->
<g id="edge7" class="edge">
<title>Node7&#45;&gt;Node6</title>
<path fill="none" stroke="midnightblue" d="M799.51,-323.91C820.83,-315.21 847.83,-304.2 870.57,-294.93"/>
<polygon fill="midnightblue" stroke="midnightblue" points="872.09,-298.09 880.03,-291.08 869.45,-291.61 872.09,-298.09"/>
</g>
<!-- Node8&#45;&gt;Node7 -->
<g id="edge11" class="edge">
<title>Node8&#45;&gt;Node7</title>
<path fill="none" stroke="midnightblue" d="M452.72,-456.34C505.2,-460.15 590.49,-460.4 657,-432 692.46,-416.86 723.94,-384.45 742.61,-362.19"/>
<polygon fill="midnightblue" stroke="midnightblue" points="745.51,-364.17 749.12,-354.21 740.09,-359.74 745.51,-364.17"/>
</g>
<!-- Node9 -->
<g id="node9" class="node">
<title>Node9</title>
<g id="a_node9"><a xlink:href="namespacefile__handling__class.html#af02196bd5eaf70ecd5ab4cc650094d5e" target="_top" xlink:title="Finds the next unused unit number.">
<polygon fill="white" stroke="black" points="535,-343 535,-373 633,-373 633,-343 535,-343"/>
<text text-anchor="start" x="543" y="-361" font-family="Helvetica,sans-Serif" font-size="10.00">file_handling_class</text>
<text text-anchor="middle" x="584" y="-350" font-family="Helvetica,sans-Serif" font-size="10.00">::get_next_io_unit</text>
</a>
</g>
</g>
<!-- Node8&#45;&gt;Node9 -->
<g id="edge9" class="edge">
<title>Node8&#45;&gt;Node9</title>
<path fill="none" stroke="midnightblue" d="M452.51,-438.71C460.4,-435.58 468.2,-431.72 475,-427 495.76,-412.6 490.28,-397.47 511,-383 515.47,-379.87 520.38,-377.11 525.45,-374.66"/>
<polygon fill="midnightblue" stroke="midnightblue" points="526.96,-377.82 534.72,-370.61 524.16,-371.41 526.96,-377.82"/>
</g>
<!-- Node9&#45;&gt;Node7 -->
<g id="edge10" class="edge">
<title>Node9&#45;&gt;Node7</title>
<path fill="none" stroke="midnightblue" d="M633.42,-352.76C652.26,-350.72 674.14,-348.35 694.38,-346.16"/>
<polygon fill="midnightblue" stroke="midnightblue" points="694.91,-349.62 704.48,-345.06 694.16,-342.66 694.91,-349.62"/>
</g>
<!-- Node11 -->
<g id="node11" class="node">
<title>Node11</title>
<g id="a_node11"><a xlink:href="namespaceinter__module.html#a947ac5de821c77a2cd1cf1ea1ce43589" target="_top" xlink:title="Get indices of the grid for given x&#45; and y&#45; values.">
<polygon fill="white" stroke="black" points="693,-605.5 693,-624.5 830,-624.5 830,-605.5 693,-605.5"/>
<text text-anchor="middle" x="761.5" y="-612.5" font-family="Helvetica,sans-Serif" font-size="10.00">inter_module::get_indice_2d</text>
</a>
</g>
</g>
<!-- Node10&#45;&gt;Node11 -->
<g id="edge13" class="edge">
<title>Node10&#45;&gt;Node11</title>
<path fill="none" stroke="midnightblue" d="M453.06,-622.01C471.07,-626.86 491.79,-631.6 511,-634 575.39,-642.03 592.38,-639.88 657,-634 673.87,-632.46 692.11,-629.55 708.5,-626.45"/>
<polygon fill="midnightblue" stroke="midnightblue" points="709.3,-629.86 718.44,-624.51 707.95,-622.99 709.3,-629.86"/>
</g>
<!-- Node12&#45;&gt;Node6 -->
<g id="edge18" class="edge">
<title>Node12&#45;&gt;Node6</title>
<path fill="none" stroke="midnightblue" d="M458.29,-573.06C464.22,-575.87 469.93,-579.16 475,-583 497.11,-599.76 486.37,-621.24 511,-634 636.88,-699.23 718.54,-721.62 830,-634 882.97,-592.36 907.68,-376.78 914.77,-301.77"/>
<polygon fill="midnightblue" stroke="midnightblue" points="918.29,-301.65 915.72,-291.37 911.32,-301.01 918.29,-301.65"/>
</g>
<!-- Node12&#45;&gt;Node7 -->
<g id="edge22" class="edge">
<title>Node12&#45;&gt;Node7</title>
<path fill="none" stroke="midnightblue" d="M460.03,-555.24C524.47,-551.09 625.86,-541.32 657,-520 712.38,-482.08 741.84,-404.13 753.87,-364.04"/>
<polygon fill="midnightblue" stroke="midnightblue" points="757.28,-364.83 756.68,-354.25 750.55,-362.89 757.28,-364.83"/>
</g>
<!-- Node13 -->
<g id="node13" class="node">
<title>Node13</title>
<g id="a_node13"><a xlink:href="namespaceinter__module.html#a63ff1c6e223efc802d231f8b0b354a22" target="_top" xlink:title="Cubic interpolate on 2&#45;Dimensional grid.">
<polygon fill="white" stroke="black" points="520.5,-567.5 520.5,-586.5 647.5,-586.5 647.5,-567.5 520.5,-567.5"/>
<text text-anchor="middle" x="584" y="-574.5" font-family="Helvetica,sans-Serif" font-size="10.00">inter_module::cubinter_2d</text>
</a>
</g>
</g>
<!-- Node12&#45;&gt;Node13 -->
<g id="edge15" class="edge">
<title>Node12&#45;&gt;Node13</title>
<path fill="none" stroke="midnightblue" d="M460,-563.91C475.85,-565.59 493.36,-567.46 510.08,-569.24"/>
<polygon fill="midnightblue" stroke="midnightblue" points="510.06,-572.76 520.37,-570.33 510.8,-565.79 510.06,-572.76"/>
</g>
<!-- Node14 -->
<g id="node14" class="node">
<title>Node14</title>
<g id="a_node14"><a xlink:href="namespaceinter__module.html#a926757c13b25424fa6d751c645dfa6dc" target="_top" xlink:title="Interpolate linearly on 2 Dimensional grid.">
<polygon fill="white" stroke="black" points="523.5,-605.5 523.5,-624.5 644.5,-624.5 644.5,-605.5 523.5,-605.5"/>
<text text-anchor="middle" x="584" y="-612.5" font-family="Helvetica,sans-Serif" font-size="10.00">inter_module::lininter_2d</text>
</a>
</g>
</g>
<!-- Node12&#45;&gt;Node14 -->
<g id="edge19" class="edge">
<title>Node12&#45;&gt;Node14</title>
<path fill="none" stroke="midnightblue" d="M447.01,-573.03C456.24,-576.31 465.95,-579.76 475,-583 491.02,-588.73 494.76,-590.94 511,-596 518.55,-598.35 526.6,-600.67 534.49,-602.83"/>
<polygon fill="midnightblue" stroke="midnightblue" points="533.77,-606.26 544.33,-605.47 535.58,-599.5 533.77,-606.26"/>
</g>
<!-- Node13&#45;&gt;Node7 -->
<g id="edge17" class="edge">
<title>Node13&#45;&gt;Node7</title>
<path fill="none" stroke="midnightblue" d="M631.7,-567.48C640.82,-564.03 649.78,-559.35 657,-553 715.85,-501.28 744.34,-408.58 755.13,-364.12"/>
<polygon fill="midnightblue" stroke="midnightblue" points="758.59,-364.69 757.44,-354.16 751.77,-363.11 758.59,-364.69"/>
</g>
<!-- Node13&#45;&gt;Node11 -->
<g id="edge16" class="edge">
<title>Node13&#45;&gt;Node11</title>
<path fill="none" stroke="midnightblue" d="M629.29,-586.59C652.76,-591.67 681.78,-597.96 706.56,-603.32"/>
<polygon fill="midnightblue" stroke="midnightblue" points="706.02,-606.78 716.53,-605.48 707.5,-599.94 706.02,-606.78"/>
</g>
<!-- Node14&#45;&gt;Node7 -->
<g id="edge21" class="edge">
<title>Node14&#45;&gt;Node7</title>
<path fill="none" stroke="midnightblue" d="M642.22,-605.4C647.58,-602.93 652.64,-599.85 657,-596 727.88,-533.46 750.93,-415.49 757.81,-364.04"/>
<polygon fill="midnightblue" stroke="midnightblue" points="761.29,-364.48 759.05,-354.12 754.34,-363.61 761.29,-364.48"/>
</g>
<!-- Node14&#45;&gt;Node11 -->
<g id="edge20" class="edge">
<title>Node14&#45;&gt;Node11</title>
<path fill="none" stroke="midnightblue" d="M644.91,-615C657.05,-615 669.99,-615 682.65,-615"/>
<polygon fill="midnightblue" stroke="midnightblue" points="682.72,-618.5 692.72,-615 682.72,-611.5 682.72,-618.5"/>
</g>
<!-- Node16 -->
<g id="node16" class="node">
<title>Node16</title>
<g id="a_node16"><a xlink:href="namespacebenam__class.html#af8144ea43fb40187e32fb83da48458f1" target="_top" xlink:title="Returns the 1/n! factor where n is the number of equal isotopes entering a reaction....">
<polygon fill="white" stroke="black" points="333,-108.5 333,-127.5 474,-127.5 474,-108.5 333,-108.5"/>
<text text-anchor="middle" x="403.5" y="-115.5" font-family="Helvetica,sans-Serif" font-size="10.00">benam_class::getcoefficients</text>
</a>
</g>
</g>
<!-- Node15&#45;&gt;Node16 -->
<g id="edge24" class="edge">
<title>Node15&#45;&gt;Node16</title>
<path fill="none" stroke="midnightblue" d="M287.56,-146.98C309.54,-141.44 334.13,-135.24 354.91,-130"/>
<polygon fill="midnightblue" stroke="midnightblue" points="355.93,-133.35 364.77,-127.51 354.22,-126.56 355.93,-133.35"/>
</g>
<!-- Node17 -->
<g id="node17" class="node">
<title>Node17</title>
<g id="a_node17"><a xlink:href="namespacefile__handling__class.html#aab870caaf9cbaaf635d537708efbf793" target="_top" xlink:title="Same for reading (input file)">
<polygon fill="white" stroke="black" points="354.5,-305 354.5,-335 452.5,-335 452.5,-305 354.5,-305"/>
<text text-anchor="start" x="362.5" y="-323" font-family="Helvetica,sans-Serif" font-size="10.00">file_handling_class</text>
<text text-anchor="middle" x="403.5" y="-312" font-family="Helvetica,sans-Serif" font-size="10.00">::open_infile</text>
</a>
</g>
</g>
<!-- Node15&#45;&gt;Node17 -->
<g id="edge25" class="edge">
<title>Node15&#45;&gt;Node17</title>
<path fill="none" stroke="midnightblue" d="M244.73,-177.15C275.74,-205.23 342.24,-265.44 378.21,-298.01"/>
<polygon fill="midnightblue" stroke="midnightblue" points="376.06,-300.78 385.82,-304.9 380.76,-295.59 376.06,-300.78"/>
</g>
<!-- Node18 -->
<g id="node18" class="node">
<title>Node18</title>
<g id="a_node18"><a xlink:href="namespacetw__rate__module.html#aa8edd1fc29f46e7564d308ac68d43e55" target="_top" xlink:title="Reads weak reaction rates in log format.">
<polygon fill="white" stroke="black" points="337.5,-147 337.5,-177 469.5,-177 469.5,-147 337.5,-147"/>
<text text-anchor="start" x="345.5" y="-165" font-family="Helvetica,sans-Serif" font-size="10.00">tw_rate_module::readweak</text>
<text text-anchor="middle" x="403.5" y="-154" font-family="Helvetica,sans-Serif" font-size="10.00">_logft</text>
</a>
</g>
</g>
<!-- Node15&#45;&gt;Node18 -->
<g id="edge28" class="edge">
<title>Node15&#45;&gt;Node18</title>
<path fill="none" stroke="midnightblue" d="M288.05,-162C300.58,-162 313.93,-162 326.94,-162"/>
<polygon fill="midnightblue" stroke="midnightblue" points="327.26,-165.5 337.26,-162 327.26,-158.5 327.26,-165.5"/>
</g>
<!-- Node25 -->
<g id="node25" class="node">
<title>Node25</title>
<g id="a_node25"><a xlink:href="namespacemergesort__module.html#a350624bb77af754147cd68332b16b9e5" target="_top" xlink:title="Sorts chapter one of the rate array.">
<polygon fill="white" stroke="black" points="332,-70.5 332,-89.5 475,-89.5 475,-70.5 332,-70.5"/>
<text text-anchor="middle" x="403.5" y="-77.5" font-family="Helvetica,sans-Serif" font-size="10.00">mergesort_module::rrate_sort</text>
</a>
</g>
</g>
<!-- Node15&#45;&gt;Node25 -->
<g id="edge42" class="edge">
<title>Node15&#45;&gt;Node25</title>
<path fill="none" stroke="midnightblue" d="M248.96,-146.87C269.31,-132.77 301.52,-112.03 332,-99 337.53,-96.64 343.42,-94.5 349.36,-92.58"/>
<polygon fill="midnightblue" stroke="midnightblue" points="350.79,-95.81 359.35,-89.56 348.76,-89.11 350.79,-95.81"/>
</g>
<!-- Node17&#45;&gt;Node7 -->
<g id="edge27" class="edge">
<title>Node17&#45;&gt;Node7</title>
<path fill="none" stroke="midnightblue" d="M452.51,-322.56C514.92,-325.89 624.2,-331.73 694.41,-335.47"/>
<polygon fill="midnightblue" stroke="midnightblue" points="694.3,-338.97 704.47,-336.01 694.67,-331.98 694.3,-338.97"/>
</g>
<!-- Node17&#45;&gt;Node9 -->
<g id="edge26" class="edge">
<title>Node17&#45;&gt;Node9</title>
<path fill="none" stroke="midnightblue" d="M452.8,-330.28C475.12,-335.03 501.79,-340.71 525.17,-345.69"/>
<polygon fill="midnightblue" stroke="midnightblue" points="524.46,-349.12 534.97,-347.77 525.91,-342.27 524.46,-349.12"/>
</g>
<!-- Node18&#45;&gt;Node6 -->
<g id="edge35" class="edge">
<title>Node18&#45;&gt;Node6</title>
<path fill="none" stroke="midnightblue" d="M454.52,-146.99C461.6,-144.09 468.63,-140.77 475,-137 493.43,-126.11 490.99,-112.61 511,-105 644.27,-54.33 712.29,-58.55 830,-139 870.34,-166.57 895.94,-219.64 908.27,-251.02"/>
<polygon fill="midnightblue" stroke="midnightblue" points="905.14,-252.65 911.94,-260.77 911.69,-250.18 905.14,-252.65"/>
</g>
<!-- Node18&#45;&gt;Node7 -->
<g id="edge36" class="edge">
<title>Node18&#45;&gt;Node7</title>
<path fill="none" stroke="midnightblue" d="M431.91,-177.09C453.32,-188.77 483.89,-205.23 511,-219 583.47,-255.8 669.06,-296.34 718.82,-319.63"/>
<polygon fill="midnightblue" stroke="midnightblue" points="717.44,-322.85 727.98,-323.91 720.41,-316.5 717.44,-322.85"/>
</g>
<!-- Node19 -->
<g id="node19" class="node">
<title>Node19</title>
<g id="a_node19"><a xlink:href="namespacebenam__class.html#ad20c821347dd5f7c08dff59c98e69657" target="_top" xlink:title="Returns the index number of isotope &#39;name&#39;.">
<polygon fill="white" stroke="black" points="530,-0.5 530,-19.5 638,-19.5 638,-0.5 530,-0.5"/>
<text text-anchor="middle" x="584" y="-7.5" font-family="Helvetica,sans-Serif" font-size="10.00">benam_class::benam</text>
</a>
</g>
</g>
<!-- Node18&#45;&gt;Node19 -->
<g id="edge29" class="edge">
<title>Node18&#45;&gt;Node19</title>
<path fill="none" stroke="midnightblue" d="M461.92,-146.96C466.72,-144.18 471.18,-140.89 475,-137 510.44,-100.88 474.1,-63.62 511,-29 513.94,-26.24 517.23,-23.88 520.74,-21.84"/>
<polygon fill="midnightblue" stroke="midnightblue" points="522.37,-24.95 529.86,-17.45 519.33,-18.64 522.37,-24.95"/>
</g>
<!-- Node20 -->
<g id="node20" class="node">
<title>Node20</title>
<g id="a_node20"><a xlink:href="namespacemergesort__module.html#a68c6cd380e0fbe122d41846adf3f6a5d" target="_top" xlink:title="Bubblesort of array.">
<polygon fill="white" stroke="black" points="511,-152.5 511,-171.5 657,-171.5 657,-152.5 511,-152.5"/>
<text text-anchor="middle" x="584" y="-159.5" font-family="Helvetica,sans-Serif" font-size="10.00">mergesort_module::bubblesort</text>
</a>
</g>
</g>
<!-- Node18&#45;&gt;Node20 -->
<g id="edge30" class="edge">
<title>Node18&#45;&gt;Node20</title>
<path fill="none" stroke="midnightblue" d="M469.7,-162C479.71,-162 490.15,-162 500.48,-162"/>
<polygon fill="midnightblue" stroke="midnightblue" points="500.74,-165.5 510.74,-162 500.74,-158.5 500.74,-165.5"/>
</g>
<!-- Node21 -->
<g id="node21" class="node">
<title>Node21</title>
<g id="a_node21"><a xlink:href="namespacebenam__class.html#a65ba3b223cf1227557d9e4ab1fdab4dd" target="_top" xlink:title="Converts isotope names of weak&#45;table format to the ones in reaclib.">
<polygon fill="white" stroke="black" points="528.5,-38.5 528.5,-57.5 639.5,-57.5 639.5,-38.5 528.5,-38.5"/>
<text text-anchor="middle" x="584" y="-45.5" font-family="Helvetica,sans-Serif" font-size="10.00">benam_class::convert</text>
</a>
</g>
</g>
<!-- Node18&#45;&gt;Node21 -->
<g id="edge33" class="edge">
<title>Node18&#45;&gt;Node21</title>
<path fill="none" stroke="midnightblue" d="M459.79,-146.93C465.25,-144.14 470.44,-140.86 475,-137 500.2,-115.65 485.6,-93.11 511,-72 515.99,-67.86 521.72,-64.42 527.72,-61.57"/>
<polygon fill="midnightblue" stroke="midnightblue" points="529.44,-64.64 537.32,-57.56 526.74,-58.18 529.44,-64.64"/>
</g>
<!-- Node23 -->
<g id="node23" class="node">
<title>Node23</title>
<g id="a_node23"><a xlink:href="namespacemergesort__module.html#a6276f21e37053ec65a8da23e55cd311c" target="_top" xlink:title="Takes an array and an array with indices to reorder the first array.">
<polygon fill="white" stroke="black" points="518.5,-114.5 518.5,-133.5 649.5,-133.5 649.5,-114.5 518.5,-114.5"/>
<text text-anchor="middle" x="584" y="-121.5" font-family="Helvetica,sans-Serif" font-size="10.00">mergesort_module::reorder</text>
</a>
</g>
</g>
<!-- Node18&#45;&gt;Node23 -->
<g id="edge37" class="edge">
<title>Node18&#45;&gt;Node23</title>
<path fill="none" stroke="midnightblue" d="M469.7,-148.12C488.94,-144.02 509.8,-139.58 528.31,-135.64"/>
<polygon fill="midnightblue" stroke="midnightblue" points="529.27,-139.02 538.32,-133.51 527.81,-132.17 529.27,-139.02"/>
</g>
<!-- Node24 -->
<g id="node24" class="node">
<title>Node24</title>
<g id="a_node24"><a xlink:href="namespacetw__rate__module.html#a245abf84e3851a5ce7d9b88a55919e0e" target="_top" xlink:title="Sorts the entries in weak_rate in increasing order of the decaying nuclide.">
<polygon fill="white" stroke="black" points="530.5,-190.5 530.5,-209.5 637.5,-209.5 637.5,-190.5 530.5,-190.5"/>
<text text-anchor="middle" x="584" y="-197.5" font-family="Helvetica,sans-Serif" font-size="10.00">tw_rate_module::sort</text>
</a>
</g>
</g>
<!-- Node18&#45;&gt;Node24 -->
<g id="edge40" class="edge">
<title>Node18&#45;&gt;Node24</title>
<path fill="none" stroke="midnightblue" d="M469.7,-175.88C488.94,-179.98 509.8,-184.42 528.31,-188.36"/>
<polygon fill="midnightblue" stroke="midnightblue" points="527.81,-191.83 538.32,-190.49 529.27,-184.98 527.81,-191.83"/>
</g>
<!-- Node20&#45;&gt;Node6 -->
<g id="edge31" class="edge">
<title>Node20&#45;&gt;Node6</title>
<path fill="none" stroke="midnightblue" d="M623.68,-171.5C634.52,-174.36 646.27,-177.63 657,-181 732.17,-204.59 817.68,-236.93 869.47,-257.13"/>
<polygon fill="midnightblue" stroke="midnightblue" points="868.46,-260.5 879.05,-260.88 871.02,-253.98 868.46,-260.5"/>
</g>
<!-- Node20&#45;&gt;Node7 -->
<g id="edge32" class="edge">
<title>Node20&#45;&gt;Node7</title>
<path fill="none" stroke="midnightblue" d="M639.28,-171.62C645.58,-174.07 651.65,-177.15 657,-181 660.21,-183.31 717.28,-271.75 745.27,-315.28"/>
<polygon fill="midnightblue" stroke="midnightblue" points="742.42,-317.32 750.77,-323.84 748.31,-313.54 742.42,-317.32"/>
</g>
<!-- Node22 -->
<g id="node22" class="node">
<title>Node22</title>
<g id="a_node22"><a xlink:href="namespacebenam__class.html#a230a820332630678a8a7b4fd112cfd63" target="_top" xlink:title="Returns lowercase of input string. Numbers are not changed.">
<polygon fill="white" stroke="black" points="700,-38.5 700,-57.5 823,-57.5 823,-38.5 700,-38.5"/>
<text text-anchor="middle" x="761.5" y="-45.5" font-family="Helvetica,sans-Serif" font-size="10.00">benam_class::lowercase</text>
</a>
</g>
</g>
<!-- Node21&#45;&gt;Node22 -->
<g id="edge34" class="edge">
<title>Node21&#45;&gt;Node22</title>
<path fill="none" stroke="midnightblue" d="M639.57,-48C655.4,-48 672.92,-48 689.6,-48"/>
<polygon fill="midnightblue" stroke="midnightblue" points="689.85,-51.5 699.85,-48 689.85,-44.5 689.85,-51.5"/>
</g>
<!-- Node23&#45;&gt;Node6 -->
<g id="edge38" class="edge">
<title>Node23&#45;&gt;Node6</title>
<path fill="none" stroke="midnightblue" d="M649.57,-132.84C701.07,-141.97 773.65,-159.59 830,-192 857.43,-207.77 882.71,-234.09 898.87,-253.06"/>
<polygon fill="midnightblue" stroke="midnightblue" points="896.34,-255.49 905.42,-260.95 901.72,-251.02 896.34,-255.49"/>
</g>
<!-- Node23&#45;&gt;Node7 -->
<g id="edge39" class="edge">
<title>Node23&#45;&gt;Node7</title>
<path fill="none" stroke="midnightblue" d="M640.73,-133.6C646.57,-136.06 652.14,-139.14 657,-143 713.52,-187.91 742.78,-272.26 754.39,-314.12"/>
<polygon fill="midnightblue" stroke="midnightblue" points="751.01,-315.03 756.96,-323.8 757.77,-313.23 751.01,-315.03"/>
</g>
<!-- Node24&#45;&gt;Node7 -->
<g id="edge41" class="edge">
<title>Node24&#45;&gt;Node7</title>
<path fill="none" stroke="midnightblue" d="M625.92,-209.61C636.55,-213.16 647.63,-217.86 657,-224 694.18,-248.36 726.55,-289.28 744.78,-315.17"/>
<polygon fill="midnightblue" stroke="midnightblue" points="742.07,-317.41 750.62,-323.65 747.83,-313.43 742.07,-317.41"/>
</g>
<!-- Node26&#45;&gt;Node6 -->
<g id="edge44" class="edge">
<title>Node26&#45;&gt;Node6</title>
<path fill="none" stroke="midnightblue" d="M237.23,-386.89C253.1,-362.52 288.11,-315.31 332,-296 508.79,-218.2 745.53,-244.9 855.75,-263.82"/>
<polygon fill="midnightblue" stroke="midnightblue" points="855.25,-267.28 865.7,-265.56 856.46,-260.38 855.25,-267.28"/>
</g>
<!-- Node27 -->
<g id="node27" class="node">
<title>Node27</title>
<g id="a_node27"><a xlink:href="namespaceerror__msg__class.html#a339dd5b38c125b6a04653762c94a91f2" target="_top" xlink:title="Write data to the standard output (usually OUT)">
<polygon fill="white" stroke="black" points="346.5,-387 346.5,-417 460.5,-417 460.5,-387 346.5,-387"/>
<text text-anchor="start" x="354.5" y="-405" font-family="Helvetica,sans-Serif" font-size="10.00">error_msg_class::write</text>
<text text-anchor="middle" x="403.5" y="-394" font-family="Helvetica,sans-Serif" font-size="10.00">_data_to_std_out</text>
</a>
</g>
</g>
<!-- Node26&#45;&gt;Node27 -->
<g id="edge45" class="edge">
<title>Node26&#45;&gt;Node27</title>
<path fill="none" stroke="midnightblue" d="M282.73,-402C299.7,-402 318.57,-402 336.23,-402"/>
<polygon fill="midnightblue" stroke="midnightblue" points="336.46,-405.5 346.46,-402 336.46,-398.5 336.46,-405.5"/>
</g>
<!-- Node28 -->
<g id="node28" class="node">
<title>Node28</title>
<g id="a_node28"><a xlink:href="namespaceerror__msg__class.html#af62b9a0c5997255e792b9ebd7322a6a3" target="_top" xlink:title="Write the header of the standard output (usually OUT)">
<polygon fill="white" stroke="black" points="527,-392 527,-422 641,-422 641,-392 527,-392"/>
<text text-anchor="start" x="535" y="-410" font-family="Helvetica,sans-Serif" font-size="10.00">error_msg_class::write</text>
<text text-anchor="middle" x="584" y="-399" font-family="Helvetica,sans-Serif" font-size="10.00">_header</text>
</a>
</g>
</g>
<!-- Node27&#45;&gt;Node28 -->
<g id="edge46" class="edge">
<title>Node27&#45;&gt;Node28</title>
<path fill="none" stroke="midnightblue" d="M460.98,-397.25C478.73,-397.27 498.49,-397.76 516.85,-398.6"/>
<polygon fill="midnightblue" stroke="midnightblue" points="516.72,-402.1 526.89,-399.11 517.08,-395.11 516.72,-402.1"/>
</g>
<!-- Node28&#45;&gt;Node27 -->
<g id="edge47" class="edge">
<title>Node28&#45;&gt;Node27</title>
<path fill="none" stroke="midnightblue" d="M526.89,-411.75C509.16,-411.73 489.41,-411.26 471.03,-410.42"/>
<polygon fill="midnightblue" stroke="midnightblue" points="471.14,-406.92 460.98,-409.91 470.79,-413.91 471.14,-406.92"/>
</g>
</g>
</svg>
        <g id="navigator" transform="translate(0 0)" fill="#404254">
                <rect fill="#f2f5e9" fill-opacity="0.5" stroke="#606060" stroke-width=".5" x="0" y="0" width="60" height="60"/>
                <use id="zoomplus" xlink:href="#zoomPlus" x="17" y="9" onmousedown="handleZoom(evt,'in')"/>
                <use id="zoomminus" xlink:href="#zoomMin" x="42" y="9" onmousedown="handleZoom(evt,'out')"/>
                <use id="reset" xlink:href="#resetDef" x="30" y="36" onmousedown="handleReset()"/>
                <g id="arrowUp" xlink:href="#dirArrow" transform="translate(30 24)" onmousedown="handlePan(0,-1)">
                  <use xlink:href="#rim" fill="#404040">
                        <set attributeName="fill" to="#808080" begin="arrowUp.mouseover" end="arrowUp.mouseout"/>
                  </use>
                  <path fill="none" stroke="white" stroke-width="1.5" d="M0,-3.0v7 M-2.5,-0.5L0,-3.0L2.5,-0.5"/>
                </g>
                <g id="arrowRight" xlink:href="#dirArrow" transform="rotate(90) translate(36 -43)" onmousedown="handlePan(1,0)">
                  <use xlink:href="#rim" fill="#404040">
                        <set attributeName="fill" to="#808080" begin="arrowRight.mouseover" end="arrowRight.mouseout"/>
                  </use>
                  <path fill="none" stroke="white" stroke-width="1.5" d="M0,-3.0v7 M-2.5,-0.5L0,-3.0L2.5,-0.5"/>
                </g>
                <g id="arrowDown" xlink:href="#dirArrow" transform="rotate(180) translate(-30 -48)" onmousedown="handlePan(0,1)">
                  <use xlink:href="#rim" fill="#404040">
                        <set attributeName="fill" to="#808080" begin="arrowDown.mouseover" end="arrowDown.mouseout"/>
                  </use>
                  <path fill="none" stroke="white" stroke-width="1.5" d="M0,-3.0v7 M-2.5,-0.5L0,-3.0L2.5,-0.5"/>
                </g>
                <g id="arrowLeft" xlink:href="#dirArrow" transform="rotate(270) translate(-36 17)" onmousedown="handlePan(-1,0)">
                  <use xlink:href="#rim" fill="#404040">
                        <set attributeName="fill" to="#808080" begin="arrowLeft.mouseover" end="arrowLeft.mouseout"/>
                  </use>
                  <path fill="none" stroke="white" stroke-width="1.5" d="M0,-3.0v7 M-2.5,-0.5L0,-3.0L2.5,-0.5"/>
                </g>
        </g>
        <svg viewBox="0 0 15 15" width="100%" height="30px" preserveAspectRatio="xMaxYMin meet">
         <g id="arrow_out" transform="scale(0.3 0.3)">
          <a xlink:href="namespacetw__rate__module_abbdd50e533f6aa8fe22b8104e00bcbaa_cgraph_org.svg" target="_base">
           <rect id="button" ry="5" rx="5" y="6" x="6" height="38" width="38"
                fill="#f2f5e9" fill-opacity="0.5" stroke="#606060" stroke-width="1.0"/>
           <path id="arrow"
             d="M 11.500037,31.436501 C 11.940474,20.09759 22.043105,11.32322 32.158766,21.979434 L 37.068811,17.246167 C 37.068811,17.246167 37.088388,32 37.088388,32 L 22.160133,31.978069 C 22.160133,31.978069 26.997745,27.140456 26.997745,27.140456 C 18.528582,18.264221 13.291696,25.230495 11.500037,31.436501 z"
             style="fill:#404040;"/>
          </a>
         </g>
        </svg>
</svg>
