<?xml version="1.0" encoding="UTF-8" standalone="no"?>
<!DOCTYPE svg PUBLIC "-//W3C//DTD SVG 1.1//EN"
 "http://www.w3.org/Graphics/SVG/1.1/DTD/svg11.dtd">
<!-- Generated by graphviz version 2.44.0 ()
 -->
<!-- Title: jacobian_class::jacobi_init Pages: 1 -->
<svg width="1142pt" height="907pt"
 viewBox="0.00 0.00 1142.00 907.00" xmlns="http://www.w3.org/2000/svg" xmlns:xlink="http://www.w3.org/1999/xlink">
<g id="graph0" class="graph" transform="scale(1 1) rotate(0) translate(4 903)">
<title>jacobian_class::jacobi_init</title>
<polygon fill="white" stroke="transparent" points="-4,4 -4,-903 1138,-903 1138,4 -4,4"/>
<!-- Node1 -->
<g id="node1" class="node">
<title>Node1</title>
<g id="a_node1"><a xlink:title="This subroutine calculates the entries in the jacobian and the right&#45;hand side of the numerical integ...">
<polygon fill="#bfbfbf" stroke="black" points="0,-190.5 0,-209.5 129,-209.5 129,-190.5 0,-190.5"/>
<text text-anchor="middle" x="64.5" y="-197.5" font-family="Helvetica,sans-Serif" font-size="10.00">jacobian_class::jacobi_init</text>
</a>
</g>
</g>
<!-- Node2 -->
<g id="node2" class="node">
<title>Node2</title>
<g id="a_node2"><a xlink:href="namespacenuclear__heating.html#aefda632c80e48e00e6acdf01059ef2d1" target="_top" xlink:title=" ">
<polygon fill="white" stroke="black" points="167,-879.5 167,-898.5 319,-898.5 319,-879.5 167,-879.5"/>
<text text-anchor="middle" x="243" y="-886.5" font-family="Helvetica,sans-Serif" font-size="10.00">nuclear_heating::calculate_qdot</text>
</a>
</g>
</g>
<!-- Node1&#45;&gt;Node2 -->
<g id="edge1" class="edge">
<title>Node1&#45;&gt;Node2</title>
<path fill="none" stroke="midnightblue" d="M65.59,-209.63C66.43,-283.51 75.36,-760.41 165,-865 168.19,-868.72 171.95,-871.88 176.07,-874.55"/>
<polygon fill="midnightblue" stroke="midnightblue" points="174.48,-877.67 184.94,-879.38 177.83,-871.52 174.48,-877.67"/>
</g>
<!-- Node3 -->
<g id="node3" class="node">
<title>Node3</title>
<g id="a_node3"><a xlink:href="namespacejacobian__class.html#a28af27c67392298788fdfa4023fe87c7" target="_top" xlink:title="Subroutine to calculate the reaction rates.">
<polygon fill="white" stroke="black" points="180.5,-519 180.5,-549 305.5,-549 305.5,-519 180.5,-519"/>
<text text-anchor="start" x="188.5" y="-537" font-family="Helvetica,sans-Serif" font-size="10.00">jacobian_class::calculate</text>
<text text-anchor="middle" x="243" y="-526" font-family="Helvetica,sans-Serif" font-size="10.00">_reaction_rate</text>
</a>
</g>
</g>
<!-- Node1&#45;&gt;Node3 -->
<g id="edge2" class="edge">
<title>Node1&#45;&gt;Node3</title>
<path fill="none" stroke="midnightblue" d="M70.59,-209.64C94.24,-254.39 193.71,-442.63 229.29,-509.94"/>
<polygon fill="midnightblue" stroke="midnightblue" points="226.29,-511.76 234.05,-518.96 232.48,-508.49 226.29,-511.76"/>
</g>
<!-- Node6 -->
<g id="node6" class="node">
<title>Node6</title>
<g id="a_node6"><a xlink:href="namespaceerror__msg__class.html#a2453d3b7cb363115c046840baa1dfb75" target="_top" xlink:title="Raise a exception with a given error message.">
<polygon fill="white" stroke="black" points="868.5,-421 868.5,-451 982.5,-451 982.5,-421 868.5,-421"/>
<text text-anchor="start" x="876.5" y="-439" font-family="Helvetica,sans-Serif" font-size="10.00">error_msg_class::raise</text>
<text text-anchor="middle" x="925.5" y="-428" font-family="Helvetica,sans-Serif" font-size="10.00">_exception</text>
</a>
</g>
</g>
<!-- Node1&#45;&gt;Node6 -->
<g id="edge48" class="edge">
<title>Node1&#45;&gt;Node6</title>
<path fill="none" stroke="midnightblue" d="M109.91,-209.56C127.05,-212.97 146.87,-216.56 165,-219 377.09,-247.56 437.8,-203.47 645,-257 728.19,-278.49 749.84,-288.85 821,-337 853.5,-358.99 885.27,-391.5 904.85,-413.2"/>
<polygon fill="midnightblue" stroke="midnightblue" points="902.48,-415.79 911.74,-420.94 907.71,-411.14 902.48,-415.79"/>
</g>
<!-- Node7 -->
<g id="node7" class="node">
<title>Node7</title>
<g id="a_node7"><a xlink:href="namespaceerror__msg__class.html#a7e065585cc806a5c264de1f088266498" target="_top" xlink:title="Converts a given integer to a string.">
<polygon fill="white" stroke="black" points="1030,-421 1030,-451 1134,-451 1134,-421 1030,-421"/>
<text text-anchor="start" x="1038" y="-439" font-family="Helvetica,sans-Serif" font-size="10.00">error_msg_class::int</text>
<text text-anchor="middle" x="1082" y="-428" font-family="Helvetica,sans-Serif" font-size="10.00">_to_str</text>
</a>
</g>
</g>
<!-- Node1&#45;&gt;Node7 -->
<g id="edge46" class="edge">
<title>Node1&#45;&gt;Node7</title>
<path fill="none" stroke="midnightblue" d="M109.41,-190.49C126.67,-187.05 146.69,-183.42 165,-181 277.89,-166.07 306.63,-162 420.5,-162 420.5,-162 420.5,-162 752,-162 821.14,-162 980.76,-243.29 994,-256 1039.78,-299.93 1064.54,-372.91 1074.96,-411.05"/>
<polygon fill="midnightblue" stroke="midnightblue" points="1071.6,-412.04 1077.52,-420.83 1078.37,-410.27 1071.6,-412.04"/>
</g>
<!-- Node10 -->
<g id="node10" class="node">
<title>Node10</title>
<g id="a_node10"><a xlink:href="namespacebenam__class.html#a2e85786a53d55231776ae950b7b27953" target="_top" xlink:title="Return a string to represent a given reaction.">
<polygon fill="white" stroke="black" points="527,-835 527,-865 640,-865 640,-835 527,-835"/>
<text text-anchor="start" x="535" y="-853" font-family="Helvetica,sans-Serif" font-size="10.00">benam_class::reaction</text>
<text text-anchor="middle" x="583.5" y="-842" font-family="Helvetica,sans-Serif" font-size="10.00">_string</text>
</a>
</g>
</g>
<!-- Node1&#45;&gt;Node10 -->
<g id="edge49" class="edge">
<title>Node1&#45;&gt;Node10</title>
<path fill="none" stroke="midnightblue" d="M66.12,-209.65C71.07,-278.1 110.93,-691.52 357,-832 405.3,-859.57 469.16,-862.15 516.59,-858.95"/>
<polygon fill="midnightblue" stroke="midnightblue" points="517.06,-862.42 526.76,-858.16 516.52,-855.44 517.06,-862.42"/>
</g>
<!-- Node27 -->
<g id="node27" class="node">
<title>Node27</title>
<g id="a_node27"><a xlink:href="namespaceerror__msg__class.html#a5bc9f3b670b725cc43276934b867d801" target="_top" xlink:title="Converts a given real to a string with format &quot;(1pE10.2)&quot;.">
<polygon fill="white" stroke="black" points="527.5,-267 527.5,-297 639.5,-297 639.5,-267 527.5,-267"/>
<text text-anchor="start" x="535.5" y="-285" font-family="Helvetica,sans-Serif" font-size="10.00">error_msg_class::num</text>
<text text-anchor="middle" x="583.5" y="-274" font-family="Helvetica,sans-Serif" font-size="10.00">_to_str</text>
</a>
</g>
</g>
<!-- Node1&#45;&gt;Node27 -->
<g id="edge47" class="edge">
<title>Node1&#45;&gt;Node27</title>
<path fill="none" stroke="midnightblue" d="M79.23,-209.53C97.74,-221.8 132.19,-242.68 165,-252 285.79,-286.3 433.73,-287.96 517.14,-285.42"/>
<polygon fill="midnightblue" stroke="midnightblue" points="517.35,-288.92 527.23,-285.08 517.12,-281.92 517.35,-288.92"/>
</g>
<!-- Node33 -->
<g id="node33" class="node">
<title>Node33</title>
<g id="a_node33"><a xlink:href="namespacegear__module.html#a04ed55c09cce855b43d99e3f0b5a20f7" target="_top" xlink:title="The current l_1 (in Fortran: l(2))">
<polygon fill="white" stroke="black" points="191.5,-114.5 191.5,-133.5 294.5,-133.5 294.5,-114.5 191.5,-114.5"/>
<text text-anchor="middle" x="243" y="-121.5" font-family="Helvetica,sans-Serif" font-size="10.00">gear_module::get_l1</text>
</a>
</g>
</g>
<!-- Node1&#45;&gt;Node33 -->
<g id="edge43" class="edge">
<title>Node1&#45;&gt;Node33</title>
<path fill="none" stroke="midnightblue" d="M81.62,-190.42C100.95,-179.21 134.56,-160.58 165,-148 175.21,-143.78 186.43,-139.89 197.08,-136.51"/>
<polygon fill="midnightblue" stroke="midnightblue" points="198.12,-139.85 206.65,-133.57 196.06,-133.16 198.12,-139.85"/>
</g>
<!-- Node34 -->
<g id="node34" class="node">
<title>Node34</title>
<g id="a_node34"><a xlink:href="namespacegear__module.html#aab0ea1bdaa408c200a185fa0e1751709" target="_top" xlink:title="Determines the predicted dydt_next.">
<polygon fill="white" stroke="black" points="165,-76.5 165,-95.5 321,-95.5 321,-76.5 165,-76.5"/>
<text text-anchor="middle" x="243" y="-83.5" font-family="Helvetica,sans-Serif" font-size="10.00">gear_module::get_predictor_dydt</text>
</a>
</g>
</g>
<!-- Node1&#45;&gt;Node34 -->
<g id="edge44" class="edge">
<title>Node1&#45;&gt;Node34</title>
<path fill="none" stroke="midnightblue" d="M72.8,-190.21C87.81,-170.8 124.18,-127.41 165,-105 169.16,-102.72 173.59,-100.71 178.15,-98.93"/>
<polygon fill="midnightblue" stroke="midnightblue" points="179.34,-102.22 187.63,-95.62 177.03,-95.61 179.34,-102.22"/>
</g>
<!-- Node35 -->
<g id="node35" class="node">
<title>Node35</title>
<g id="a_node35"><a xlink:href="namespacegear__module.html#a5f927a3868e935787daa27ab849bdc57" target="_top" xlink:title="Determines the predicted y_next.">
<polygon fill="white" stroke="black" points="171.5,-38.5 171.5,-57.5 314.5,-57.5 314.5,-38.5 171.5,-38.5"/>
<text text-anchor="middle" x="243" y="-45.5" font-family="Helvetica,sans-Serif" font-size="10.00">gear_module::get_predictor_y</text>
</a>
</g>
</g>
<!-- Node1&#45;&gt;Node35 -->
<g id="edge45" class="edge">
<title>Node1&#45;&gt;Node35</title>
<path fill="none" stroke="midnightblue" d="M69.91,-190.16C81.56,-165.3 115.72,-99.65 165,-67 168.11,-64.94 171.42,-63.1 174.86,-61.46"/>
<polygon fill="midnightblue" stroke="midnightblue" points="176.32,-64.65 184.21,-57.58 173.63,-58.18 176.32,-64.65"/>
</g>
<!-- Node36 -->
<g id="node36" class="node">
<title>Node36</title>
<g id="a_node36"><a xlink:href="namespacenuclear__heating.html#a16554aba9a2d0d1629cd3232c2e36a56" target="_top" xlink:title="Reset the qdot variable.">
<polygon fill="white" stroke="black" points="175.5,-0.5 175.5,-19.5 310.5,-19.5 310.5,-0.5 175.5,-0.5"/>
<text text-anchor="middle" x="243" y="-7.5" font-family="Helvetica,sans-Serif" font-size="10.00">nuclear_heating::reset_qdot</text>
</a>
</g>
</g>
<!-- Node1&#45;&gt;Node36 -->
<g id="edge50" class="edge">
<title>Node1&#45;&gt;Node36</title>
<path fill="none" stroke="midnightblue" d="M68.14,-190.45C76.73,-161.28 106.72,-72.65 165,-29 167.51,-27.12 170.18,-25.43 172.97,-23.9"/>
<polygon fill="midnightblue" stroke="midnightblue" points="174.63,-26.98 182.19,-19.56 171.65,-20.65 174.63,-26.98"/>
</g>
<!-- Node37 -->
<g id="node37" class="node">
<title>Node37</title>
<g id="a_node37"><a xlink:href="namespacejacobian__class.html#a95f6f4d14e95a44eb3589020bd1509f7" target="_top" xlink:title="Function to decide whether a rate can contribute or not.">
<polygon fill="white" stroke="black" points="180.5,-190.5 180.5,-209.5 305.5,-209.5 305.5,-190.5 180.5,-190.5"/>
<text text-anchor="middle" x="243" y="-197.5" font-family="Helvetica,sans-Serif" font-size="10.00">jacobian_class::skip_rate</text>
</a>
</g>
</g>
<!-- Node1&#45;&gt;Node37 -->
<g id="edge51" class="edge">
<title>Node1&#45;&gt;Node37</title>
<path fill="none" stroke="midnightblue" d="M129.22,-200C142.52,-200 156.62,-200 170.19,-200"/>
<polygon fill="midnightblue" stroke="midnightblue" points="170.44,-203.5 180.44,-200 170.44,-196.5 170.44,-203.5"/>
</g>
<!-- Node4 -->
<g id="node4" class="node">
<title>Node4</title>
<g id="a_node4"><a xlink:href="namespacenucstuff__class.html#a54b0d5681c0193e0b2276911713242e9" target="_top" xlink:title="A helper to compute powers of temperature used in the reaction rates.">
<polygon fill="white" stroke="black" points="370.5,-343 370.5,-373 472.5,-373 472.5,-343 370.5,-343"/>
<text text-anchor="start" x="378.5" y="-361" font-family="Helvetica,sans-Serif" font-size="10.00">nucstuff_class::calc</text>
<text text-anchor="middle" x="421.5" y="-350" font-family="Helvetica,sans-Serif" font-size="10.00">_t9_pow</text>
</a>
</g>
</g>
<!-- Node3&#45;&gt;Node4 -->
<g id="edge3" class="edge">
<title>Node3&#45;&gt;Node4</title>
<path fill="none" stroke="midnightblue" d="M251.54,-518.96C267.24,-489.07 306.24,-421.73 357,-383 359.42,-381.16 361.99,-379.43 364.66,-377.82"/>
<polygon fill="midnightblue" stroke="midnightblue" points="366.34,-380.89 373.46,-373.04 363,-374.74 366.34,-380.89"/>
</g>
<!-- Node5 -->
<g id="node5" class="node">
<title>Node5</title>
<g id="a_node5"><a xlink:href="namespacedetailed__balance.html#a4c2ebb1580b34cd40aca41258ba5c8b7" target="_top" xlink:title="Calculate the inverse rate from the forward one via detailed balance.">
<polygon fill="white" stroke="black" points="684.5,-487 684.5,-517 817.5,-517 817.5,-487 684.5,-487"/>
<text text-anchor="start" x="692.5" y="-505" font-family="Helvetica,sans-Serif" font-size="10.00">detailed_balance::calculate</text>
<text text-anchor="middle" x="751" y="-494" font-family="Helvetica,sans-Serif" font-size="10.00">_detailed_balance</text>
</a>
</g>
</g>
<!-- Node3&#45;&gt;Node5 -->
<g id="edge4" class="edge">
<title>Node3&#45;&gt;Node5</title>
<path fill="none" stroke="midnightblue" d="M294.64,-549.04C372.28,-569.49 524.4,-599.2 645,-559 663.97,-552.68 663.71,-542.06 681,-532 687.44,-528.25 694.44,-524.68 701.43,-521.4"/>
<polygon fill="midnightblue" stroke="midnightblue" points="703.23,-524.43 710.9,-517.12 700.34,-518.05 703.23,-524.43"/>
</g>
<!-- Node3&#45;&gt;Node6 -->
<g id="edge40" class="edge">
<title>Node3&#45;&gt;Node6</title>
<path fill="none" stroke="midnightblue" d="M247.1,-518.76C256.02,-479.42 285.82,-374.64 357,-333 431.83,-289.22 676.68,-328.48 821,-377 847.81,-386.01 875.52,-402.24 895.51,-415.39"/>
<polygon fill="midnightblue" stroke="midnightblue" points="893.59,-418.32 903.85,-421 897.5,-412.51 893.59,-418.32"/>
</g>
<!-- Node3&#45;&gt;Node7 -->
<g id="edge38" class="edge">
<title>Node3&#45;&gt;Node7</title>
<path fill="none" stroke="midnightblue" d="M268.96,-549C291.18,-561.43 325.02,-578.12 357,-585 413.05,-597.06 428.67,-585.54 486,-585 556.68,-584.33 575.23,-593.32 645,-582 725.89,-568.87 743.2,-552.76 821,-527 893.72,-502.92 977.23,-473.35 1029.55,-454.58"/>
<polygon fill="midnightblue" stroke="midnightblue" points="1031.04,-457.77 1039.27,-451.09 1028.68,-451.18 1031.04,-457.77"/>
</g>
<!-- Node8 -->
<g id="node8" class="node">
<title>Node8</title>
<g id="a_node8"><a xlink:href="namespacenuflux__class.html#ac04f6b0dca8f9120cb839749cc2dbbe0" target="_top" xlink:title="Calculates the cross section times the neutrino flux.">
<polygon fill="white" stroke="black" points="365,-694 365,-724 478,-724 478,-694 365,-694"/>
<text text-anchor="start" x="373" y="-712" font-family="Helvetica,sans-Serif" font-size="10.00">nuflux_class::calculate</text>
<text text-anchor="middle" x="421.5" y="-701" font-family="Helvetica,sans-Serif" font-size="10.00">_nu_rate</text>
</a>
</g>
</g>
<!-- Node3&#45;&gt;Node8 -->
<g id="edge7" class="edge">
<title>Node3&#45;&gt;Node8</title>
<path fill="none" stroke="midnightblue" d="M251.5,-549.1C267.12,-579.1 305.97,-646.62 357,-685 358.84,-686.38 360.76,-687.69 362.75,-688.93"/>
<polygon fill="midnightblue" stroke="midnightblue" points="361.37,-692.17 371.81,-693.95 364.76,-686.04 361.37,-692.17"/>
</g>
<!-- Node9 -->
<g id="node9" class="node">
<title>Node9</title>
<g id="a_node9"><a xlink:href="namespacereaclib__rate__module.html#a531d2052a5c27ee57c14c22159d1fbfe" target="_top" xlink:title="Calculate a reaclib rate.">
<polygon fill="white" stroke="black" points="367.5,-792 367.5,-822 475.5,-822 475.5,-792 367.5,-792"/>
<text text-anchor="start" x="375.5" y="-810" font-family="Helvetica,sans-Serif" font-size="10.00">reaclib_rate_module</text>
<text text-anchor="middle" x="421.5" y="-799" font-family="Helvetica,sans-Serif" font-size="10.00">::calculate_reacl_rate</text>
</a>
</g>
</g>
<!-- Node3&#45;&gt;Node9 -->
<g id="edge8" class="edge">
<title>Node3&#45;&gt;Node9</title>
<path fill="none" stroke="midnightblue" d="M246.71,-549.24C255.1,-592.12 284.61,-715.15 357,-783 358.13,-784.06 359.31,-785.07 360.53,-786.04"/>
<polygon fill="midnightblue" stroke="midnightblue" points="358.89,-789.15 369.14,-791.82 362.79,-783.34 358.89,-789.15"/>
</g>
<!-- Node12 -->
<g id="node12" class="node">
<title>Node12</title>
<g id="a_node12"><a xlink:href="namespacetabulated__rate__module.html#a8cd4cb35a24c56fffef12bff3e785906" target="_top" xlink:title="Calculates the tabulated rate.">
<polygon fill="white" stroke="black" points="364,-519 364,-549 479,-549 479,-519 364,-519"/>
<text text-anchor="start" x="372" y="-537" font-family="Helvetica,sans-Serif" font-size="10.00">tabulated_rate_module</text>
<text text-anchor="middle" x="421.5" y="-526" font-family="Helvetica,sans-Serif" font-size="10.00">::calculate_tab_rate</text>
</a>
</g>
</g>
<!-- Node3&#45;&gt;Node12 -->
<g id="edge11" class="edge">
<title>Node3&#45;&gt;Node12</title>
<path fill="none" stroke="midnightblue" d="M305.73,-534C321.22,-534 337.92,-534 353.65,-534"/>
<polygon fill="midnightblue" stroke="midnightblue" points="353.83,-537.5 363.83,-534 353.83,-530.5 353.83,-537.5"/>
</g>
<!-- Node14 -->
<g id="node14" class="node">
<title>Node14</title>
<g id="a_node14"><a xlink:href="namespacetw__rate__module.html#ae35ff1052a8049df8ab31be3f7f0b777" target="_top" xlink:title="Calculate the theoretical weak rate.">
<polygon fill="white" stroke="black" points="357,-645 357,-675 486,-675 486,-645 357,-645"/>
<text text-anchor="start" x="365" y="-663" font-family="Helvetica,sans-Serif" font-size="10.00">tw_rate_module::calculate</text>
<text text-anchor="middle" x="421.5" y="-652" font-family="Helvetica,sans-Serif" font-size="10.00">_twr_rate</text>
</a>
</g>
</g>
<!-- Node3&#45;&gt;Node14 -->
<g id="edge13" class="edge">
<title>Node3&#45;&gt;Node14</title>
<path fill="none" stroke="midnightblue" d="M259.05,-549.07C279.79,-569.28 318.93,-605.44 357,-630 362.71,-633.69 368.95,-637.19 375.21,-640.41"/>
<polygon fill="midnightblue" stroke="midnightblue" points="373.83,-643.64 384.35,-644.93 376.94,-637.36 373.83,-643.64"/>
</g>
<!-- Node26 -->
<g id="node26" class="node">
<title>Node26</title>
<g id="a_node26"><a xlink:href="chem__pot_8f90.html#a6e7fb350a916bae49d8520394fca6414" target="_top" xlink:title="Given a temperature temp [K], density den [g/cm**3], and a composition characterized by y_e,...">
<polygon fill="white" stroke="black" points="394.5,-480.5 394.5,-499.5 448.5,-499.5 448.5,-480.5 394.5,-480.5"/>
<text text-anchor="middle" x="421.5" y="-487.5" font-family="Helvetica,sans-Serif" font-size="10.00">chempot</text>
</a>
</g>
</g>
<!-- Node3&#45;&gt;Node26 -->
<g id="edge31" class="edge">
<title>Node3&#45;&gt;Node26</title>
<path fill="none" stroke="midnightblue" d="M304.25,-518.98C331.04,-512.3 361.68,-504.66 384.77,-498.91"/>
<polygon fill="midnightblue" stroke="midnightblue" points="385.63,-502.3 394.49,-496.48 383.94,-495.51 385.63,-502.3"/>
</g>
<!-- Node30 -->
<g id="node30" class="node">
<title>Node30</title>
<g id="a_node30"><a xlink:href="namespacenucstuff__class.html#a7f6b5ddec08f9564638a58091e6940d7" target="_top" xlink:title="Calculates partition function.">
<polygon fill="white" stroke="black" points="370,-431 370,-461 473,-461 473,-431 370,-431"/>
<text text-anchor="start" x="378" y="-449" font-family="Helvetica,sans-Serif" font-size="10.00">nucstuff_class::inter</text>
<text text-anchor="middle" x="421.5" y="-438" font-family="Helvetica,sans-Serif" font-size="10.00">_partf</text>
</a>
</g>
</g>
<!-- Node3&#45;&gt;Node30 -->
<g id="edge39" class="edge">
<title>Node3&#45;&gt;Node30</title>
<path fill="none" stroke="midnightblue" d="M269.07,-518.75C291.64,-505.33 325.93,-485.69 357,-471 361.32,-468.95 365.86,-466.93 370.44,-464.98"/>
<polygon fill="midnightblue" stroke="midnightblue" points="371.95,-468.14 379.84,-461.07 369.27,-461.68 371.95,-468.14"/>
</g>
<!-- Node31 -->
<g id="node31" class="node">
<title>Node31</title>
<g id="a_node31"><a xlink:href="namespacescreening__module.html#a849df594c989d90443acad283ef41bfb" target="_top" xlink:title="This function calculates the screening coefficients hv.">
<polygon fill="white" stroke="black" points="357,-392.5 357,-411.5 486,-411.5 486,-392.5 357,-392.5"/>
<text text-anchor="middle" x="421.5" y="-399.5" font-family="Helvetica,sans-Serif" font-size="10.00">screening_module::screen</text>
</a>
</g>
</g>
<!-- Node3&#45;&gt;Node31 -->
<g id="edge41" class="edge">
<title>Node3&#45;&gt;Node31</title>
<path fill="none" stroke="midnightblue" d="M255.08,-518.82C273.54,-494.6 312.93,-447.3 357,-421 360.61,-418.84 364.49,-416.92 368.48,-415.2"/>
<polygon fill="midnightblue" stroke="midnightblue" points="369.86,-418.41 377.93,-411.55 367.34,-411.88 369.86,-418.41"/>
</g>
<!-- Node32 -->
<g id="node32" class="node">
<title>Node32</title>
<g id="a_node32"><a xlink:href="namespacetabulated__rate__module.html#ab39e3f09d54fc4b3f8baf09c5621f303" target="_top" xlink:title="Set tab_index for a given temperature.">
<polygon fill="white" stroke="black" points="364,-743 364,-773 479,-773 479,-743 364,-743"/>
<text text-anchor="start" x="372" y="-761" font-family="Helvetica,sans-Serif" font-size="10.00">tabulated_rate_module</text>
<text text-anchor="middle" x="421.5" y="-750" font-family="Helvetica,sans-Serif" font-size="10.00">::tabulated_index</text>
</a>
</g>
</g>
<!-- Node3&#45;&gt;Node32 -->
<g id="edge42" class="edge">
<title>Node3&#45;&gt;Node32</title>
<path fill="none" stroke="midnightblue" d="M248.54,-549.12C260.33,-585.95 295.4,-681.16 357,-734 358.35,-735.16 359.77,-736.27 361.23,-737.32"/>
<polygon fill="midnightblue" stroke="midnightblue" points="359.74,-740.52 370.08,-742.83 363.44,-734.57 359.74,-740.52"/>
</g>
<!-- Node5&#45;&gt;Node6 -->
<g id="edge5" class="edge">
<title>Node5&#45;&gt;Node6</title>
<path fill="none" stroke="midnightblue" d="M791.57,-486.86C816.56,-477.3 849.02,-464.88 875.6,-454.71"/>
<polygon fill="midnightblue" stroke="midnightblue" points="877.02,-457.91 885.11,-451.07 874.52,-451.38 877.02,-457.91"/>
</g>
<!-- Node6&#45;&gt;Node7 -->
<g id="edge6" class="edge">
<title>Node6&#45;&gt;Node7</title>
<path fill="none" stroke="midnightblue" d="M982.72,-436C994.78,-436 1007.59,-436 1019.83,-436"/>
<polygon fill="midnightblue" stroke="midnightblue" points="1019.95,-439.5 1029.95,-436 1019.95,-432.5 1019.95,-439.5"/>
</g>
<!-- Node9&#45;&gt;Node10 -->
<g id="edge9" class="edge">
<title>Node9&#45;&gt;Node10</title>
<path fill="none" stroke="midnightblue" d="M475.78,-821.32C489.02,-824.88 503.36,-828.73 517.11,-832.43"/>
<polygon fill="midnightblue" stroke="midnightblue" points="516.42,-835.87 526.99,-835.08 518.24,-829.11 516.42,-835.87"/>
</g>
<!-- Node11 -->
<g id="node11" class="node">
<title>Node11</title>
<g id="a_node11"><a xlink:href="namespacebenam__class.html#afd880df70f94c289b6bda0647f4494e3" target="_top" xlink:title="Getter of net_names, translating indices to a nucleus name.">
<polygon fill="white" stroke="black" points="681,-840.5 681,-859.5 821,-859.5 821,-840.5 681,-840.5"/>
<text text-anchor="middle" x="751" y="-847.5" font-family="Helvetica,sans-Serif" font-size="10.00">benam_class::get_net_name</text>
</a>
</g>
</g>
<!-- Node10&#45;&gt;Node11 -->
<g id="edge10" class="edge">
<title>Node10&#45;&gt;Node11</title>
<path fill="none" stroke="midnightblue" d="M640.07,-850C649.86,-850 660.22,-850 670.51,-850"/>
<polygon fill="midnightblue" stroke="midnightblue" points="670.76,-853.5 680.76,-850 670.76,-846.5 670.76,-853.5"/>
</g>
<!-- Node13 -->
<g id="node13" class="node">
<title>Node13</title>
<g id="a_node13"><a xlink:href="namespacetabulated__rate__module.html#a26734ac5f0837b48d072ef67dd82d002" target="_top" xlink:title="Interpolate tabulated rates from the table.">
<polygon fill="white" stroke="black" points="526,-519 526,-549 641,-549 641,-519 526,-519"/>
<text text-anchor="start" x="534" y="-537" font-family="Helvetica,sans-Serif" font-size="10.00">tabulated_rate_module</text>
<text text-anchor="middle" x="583.5" y="-526" font-family="Helvetica,sans-Serif" font-size="10.00">::tabulated_inter</text>
</a>
</g>
</g>
<!-- Node12&#45;&gt;Node13 -->
<g id="edge12" class="edge">
<title>Node12&#45;&gt;Node13</title>
<path fill="none" stroke="midnightblue" d="M479.36,-534C491.15,-534 503.67,-534 515.78,-534"/>
<polygon fill="midnightblue" stroke="midnightblue" points="515.82,-537.5 525.82,-534 515.82,-530.5 515.82,-537.5"/>
</g>
<!-- Node15 -->
<g id="node15" class="node">
<title>Node15</title>
<g id="a_node15"><a xlink:href="namespaceeffphase__class.html#aa6f8c1dc7835aa0c93be9a61c90f9a36" target="_top" xlink:title=" ">
<polygon fill="white" stroke="black" points="522,-764.5 522,-783.5 645,-783.5 645,-764.5 522,-764.5"/>
<text text-anchor="middle" x="583.5" y="-771.5" font-family="Helvetica,sans-Serif" font-size="10.00">effphase_class::effphase</text>
</a>
</g>
</g>
<!-- Node14&#45;&gt;Node15 -->
<g id="edge14" class="edge">
<title>Node14&#45;&gt;Node15</title>
<path fill="none" stroke="midnightblue" d="M470.9,-675.07C476.3,-677.88 481.48,-681.17 486,-685 509.73,-705.1 499.01,-724.06 522,-745 528.7,-751.1 536.9,-756.17 545.09,-760.27"/>
<polygon fill="midnightblue" stroke="midnightblue" points="543.69,-763.48 554.24,-764.49 546.63,-757.12 543.69,-763.48"/>
</g>
<!-- Node21 -->
<g id="node21" class="node">
<title>Node21</title>
<g id="a_node21"><a xlink:href="namespacetw__rate__module.html#aae7dacb01f31b31c10189432cc750156" target="_top" xlink:title="Set wk_index for given T, &#160;and &#160;The index is written into module variable wk_index.">
<polygon fill="white" stroke="black" points="527,-705 527,-735 640,-735 640,-705 527,-705"/>
<text text-anchor="start" x="535" y="-723" font-family="Helvetica,sans-Serif" font-size="10.00">tw_rate_module::weak</text>
<text text-anchor="middle" x="583.5" y="-712" font-family="Helvetica,sans-Serif" font-size="10.00">_index</text>
</a>
</g>
</g>
<!-- Node14&#45;&gt;Node21 -->
<g id="edge20" class="edge">
<title>Node14&#45;&gt;Node21</title>
<path fill="none" stroke="midnightblue" d="M462.87,-675.14C484.18,-683.13 510.5,-693 533.02,-701.45"/>
<polygon fill="midnightblue" stroke="midnightblue" points="531.82,-704.73 542.42,-704.97 534.28,-698.18 531.82,-704.73"/>
</g>
<!-- Node23 -->
<g id="node23" class="node">
<title>Node23</title>
<g id="a_node23"><a xlink:href="namespacetw__rate__module.html#ad64c32f568ba69ca2822b1c0a2d4d911" target="_top" xlink:title="Interpolation interface.">
<polygon fill="white" stroke="black" points="527,-645 527,-675 640,-675 640,-645 527,-645"/>
<text text-anchor="start" x="535" y="-663" font-family="Helvetica,sans-Serif" font-size="10.00">tw_rate_module::weak</text>
<text text-anchor="middle" x="583.5" y="-652" font-family="Helvetica,sans-Serif" font-size="10.00">_inter</text>
</a>
</g>
</g>
<!-- Node14&#45;&gt;Node23 -->
<g id="edge22" class="edge">
<title>Node14&#45;&gt;Node23</title>
<path fill="none" stroke="midnightblue" d="M486.2,-660C496.16,-660 506.47,-660 516.48,-660"/>
<polygon fill="midnightblue" stroke="midnightblue" points="516.78,-663.5 526.78,-660 516.78,-656.5 516.78,-663.5"/>
</g>
<!-- Node16 -->
<g id="node16" class="node">
<title>Node16</title>
<g id="a_node16"><a xlink:href="quadpack__module_8f90.html#ac59eaf7c56c1d421d129425895fa0107" target="_top" xlink:title=" ">
<polygon fill="white" stroke="black" points="733.5,-802.5 733.5,-821.5 768.5,-821.5 768.5,-802.5 733.5,-802.5"/>
<text text-anchor="middle" x="751" y="-809.5" font-family="Helvetica,sans-Serif" font-size="10.00">qagi</text>
</a>
</g>
</g>
<!-- Node15&#45;&gt;Node16 -->
<g id="edge15" class="edge">
<title>Node15&#45;&gt;Node16</title>
<path fill="none" stroke="midnightblue" d="M626.26,-783.59C656.73,-790.58 697.11,-799.86 723.32,-805.87"/>
<polygon fill="midnightblue" stroke="midnightblue" points="722.76,-809.34 733.29,-808.16 724.32,-802.51 722.76,-809.34"/>
</g>
<!-- Node20 -->
<g id="node20" class="node">
<title>Node20</title>
<g id="a_node20"><a xlink:href="effphase__class_8f90.html#a9f43f9887f468d012dbae6ba88547dd7" target="_top" xlink:title="The integrand in effective psi, eq.[16] of Langanke &amp; Pinedo (2001)">
<polygon fill="white" stroke="black" points="732.5,-764.5 732.5,-783.5 769.5,-783.5 769.5,-764.5 732.5,-764.5"/>
<text text-anchor="middle" x="751" y="-771.5" font-family="Helvetica,sans-Serif" font-size="10.00">xeffc</text>
</a>
</g>
</g>
<!-- Node15&#45;&gt;Node20 -->
<g id="edge19" class="edge">
<title>Node15&#45;&gt;Node20</title>
<path fill="none" stroke="midnightblue" d="M645.19,-774C671.58,-774 701.21,-774 722.21,-774"/>
<polygon fill="midnightblue" stroke="midnightblue" points="722.35,-777.5 732.35,-774 722.35,-770.5 722.35,-777.5"/>
</g>
<!-- Node17 -->
<g id="node17" class="node">
<title>Node17</title>
<g id="a_node17"><a xlink:href="quadpack__module_8f90.html#a5a75101d080f224c63adde98a0e64386" target="_top" xlink:title=" ">
<polygon fill="white" stroke="black" points="906.5,-840.5 906.5,-859.5 944.5,-859.5 944.5,-840.5 906.5,-840.5"/>
<text text-anchor="middle" x="925.5" y="-847.5" font-family="Helvetica,sans-Serif" font-size="10.00">qextr</text>
</a>
</g>
</g>
<!-- Node16&#45;&gt;Node17 -->
<g id="edge16" class="edge">
<title>Node16&#45;&gt;Node17</title>
<path fill="none" stroke="midnightblue" d="M768.54,-815.64C798.09,-822.15 860.24,-835.84 896.53,-843.84"/>
<polygon fill="midnightblue" stroke="midnightblue" points="895.95,-847.29 906.47,-846.03 897.45,-840.46 895.95,-847.29"/>
</g>
<!-- Node18 -->
<g id="node18" class="node">
<title>Node18</title>
<g id="a_node18"><a xlink:href="quadpack__module_8f90.html#a59164415fc33f2f3bf4ebc4ee2220f7e" target="_top" xlink:title=" ">
<polygon fill="white" stroke="black" points="905.5,-802.5 905.5,-821.5 945.5,-821.5 945.5,-802.5 905.5,-802.5"/>
<text text-anchor="middle" x="925.5" y="-809.5" font-family="Helvetica,sans-Serif" font-size="10.00">qk15i</text>
</a>
</g>
</g>
<!-- Node16&#45;&gt;Node18 -->
<g id="edge17" class="edge">
<title>Node16&#45;&gt;Node18</title>
<path fill="none" stroke="midnightblue" d="M768.54,-812C797.78,-812 858.95,-812 895.39,-812"/>
<polygon fill="midnightblue" stroke="midnightblue" points="895.41,-815.5 905.41,-812 895.4,-808.5 895.41,-815.5"/>
</g>
<!-- Node19 -->
<g id="node19" class="node">
<title>Node19</title>
<g id="a_node19"><a xlink:href="quadpack__module_8f90.html#a55e08a684c5a6315fb37dd0fdc66d8e6" target="_top" xlink:title=" ">
<polygon fill="white" stroke="black" points="906.5,-764.5 906.5,-783.5 944.5,-783.5 944.5,-764.5 906.5,-764.5"/>
<text text-anchor="middle" x="925.5" y="-771.5" font-family="Helvetica,sans-Serif" font-size="10.00">qsort</text>
</a>
</g>
</g>
<!-- Node16&#45;&gt;Node19 -->
<g id="edge18" class="edge">
<title>Node16&#45;&gt;Node19</title>
<path fill="none" stroke="midnightblue" d="M768.54,-808.36C798.09,-801.85 860.24,-788.16 896.53,-780.16"/>
<polygon fill="midnightblue" stroke="midnightblue" points="897.45,-783.54 906.47,-777.97 895.95,-776.71 897.45,-783.54"/>
</g>
<!-- Node22 -->
<g id="node22" class="node">
<title>Node22</title>
<g id="a_node22"><a xlink:href="namespaceinter__module.html#a947ac5de821c77a2cd1cf1ea1ce43589" target="_top" xlink:title="Get indices of the grid for given x&#45; and y&#45; values.">
<polygon fill="white" stroke="black" points="857,-650.5 857,-669.5 994,-669.5 994,-650.5 857,-650.5"/>
<text text-anchor="middle" x="925.5" y="-657.5" font-family="Helvetica,sans-Serif" font-size="10.00">inter_module::get_indice_2d</text>
</a>
</g>
</g>
<!-- Node21&#45;&gt;Node22 -->
<g id="edge21" class="edge">
<title>Node21&#45;&gt;Node22</title>
<path fill="none" stroke="midnightblue" d="M640.44,-710.46C688.37,-702.25 759.26,-690.02 821,-679 834.68,-676.56 849.36,-673.89 863.25,-671.35"/>
<polygon fill="midnightblue" stroke="midnightblue" points="863.99,-674.77 873.19,-669.52 862.72,-667.89 863.99,-674.77"/>
</g>
<!-- Node23&#45;&gt;Node6 -->
<g id="edge30" class="edge">
<title>Node23&#45;&gt;Node6</title>
<path fill="none" stroke="midnightblue" d="M609.35,-644.99C628.75,-633.35 656.45,-616.91 681,-603 742.6,-568.1 762.94,-567.52 821,-527 851.1,-506 882.29,-477.49 902.46,-458.01"/>
<polygon fill="midnightblue" stroke="midnightblue" points="904.91,-460.51 909.62,-451.02 900.02,-455.5 904.91,-460.51"/>
</g>
<!-- Node23&#45;&gt;Node7 -->
<g id="edge26" class="edge">
<title>Node23&#45;&gt;Node7</title>
<path fill="none" stroke="midnightblue" d="M620.58,-675.09C697.29,-704.54 878.93,-760.03 994,-679 1065.85,-628.41 1078.67,-512.73 1080.74,-461.37"/>
<polygon fill="midnightblue" stroke="midnightblue" points="1084.25,-461.25 1081.04,-451.15 1077.25,-461.05 1084.25,-461.25"/>
</g>
<!-- Node24 -->
<g id="node24" class="node">
<title>Node24</title>
<g id="a_node24"><a xlink:href="namespaceinter__module.html#a63ff1c6e223efc802d231f8b0b354a22" target="_top" xlink:title="Cubic interpolate on 2&#45;Dimensional grid.">
<polygon fill="white" stroke="black" points="687.5,-612.5 687.5,-631.5 814.5,-631.5 814.5,-612.5 687.5,-612.5"/>
<text text-anchor="middle" x="751" y="-619.5" font-family="Helvetica,sans-Serif" font-size="10.00">inter_module::cubinter_2d</text>
</a>
</g>
</g>
<!-- Node23&#45;&gt;Node24 -->
<g id="edge23" class="edge">
<title>Node23&#45;&gt;Node24</title>
<path fill="none" stroke="midnightblue" d="M640.07,-647.24C659.01,-642.89 680.1,-638.05 698.69,-633.78"/>
<polygon fill="midnightblue" stroke="midnightblue" points="699.49,-637.19 708.45,-631.54 697.92,-630.37 699.49,-637.19"/>
</g>
<!-- Node25 -->
<g id="node25" class="node">
<title>Node25</title>
<g id="a_node25"><a xlink:href="namespaceinter__module.html#a926757c13b25424fa6d751c645dfa6dc" target="_top" xlink:title="Interpolate linearly on 2 Dimensional grid.">
<polygon fill="white" stroke="black" points="690.5,-650.5 690.5,-669.5 811.5,-669.5 811.5,-650.5 690.5,-650.5"/>
<text text-anchor="middle" x="751" y="-657.5" font-family="Helvetica,sans-Serif" font-size="10.00">inter_module::lininter_2d</text>
</a>
</g>
</g>
<!-- Node23&#45;&gt;Node25 -->
<g id="edge27" class="edge">
<title>Node23&#45;&gt;Node25</title>
<path fill="none" stroke="midnightblue" d="M640.07,-660C652.94,-660 666.8,-660 680.19,-660"/>
<polygon fill="midnightblue" stroke="midnightblue" points="680.32,-663.5 690.32,-660 680.32,-656.5 680.32,-663.5"/>
</g>
<!-- Node24&#45;&gt;Node6 -->
<g id="edge25" class="edge">
<title>Node24&#45;&gt;Node6</title>
<path fill="none" stroke="midnightblue" d="M793.71,-612.48C803.31,-608.99 813.04,-604.29 821,-598 867.96,-560.91 899.91,-496.31 914.84,-460.92"/>
<polygon fill="midnightblue" stroke="midnightblue" points="918.21,-461.93 918.76,-451.35 911.73,-459.28 918.21,-461.93"/>
</g>
<!-- Node24&#45;&gt;Node22 -->
<g id="edge24" class="edge">
<title>Node24&#45;&gt;Node22</title>
<path fill="none" stroke="midnightblue" d="M795.53,-631.59C818.6,-636.67 847.13,-642.96 871.48,-648.32"/>
<polygon fill="midnightblue" stroke="midnightblue" points="870.77,-651.75 881.28,-650.48 872.27,-644.91 870.77,-651.75"/>
</g>
<!-- Node25&#45;&gt;Node6 -->
<g id="edge29" class="edge">
<title>Node25&#45;&gt;Node6</title>
<path fill="none" stroke="midnightblue" d="M805.14,-650.39C810.85,-647.93 816.29,-644.86 821,-641 879.3,-593.27 907.93,-504.29 918.92,-460.98"/>
<polygon fill="midnightblue" stroke="midnightblue" points="922.39,-461.55 921.34,-451 915.58,-459.89 922.39,-461.55"/>
</g>
<!-- Node25&#45;&gt;Node22 -->
<g id="edge28" class="edge">
<title>Node25&#45;&gt;Node22</title>
<path fill="none" stroke="midnightblue" d="M811.85,-660C823.06,-660 834.94,-660 846.6,-660"/>
<polygon fill="midnightblue" stroke="midnightblue" points="846.78,-663.5 856.78,-660 846.78,-656.5 846.78,-663.5"/>
</g>
<!-- Node26&#45;&gt;Node6 -->
<g id="edge37" class="edge">
<title>Node26&#45;&gt;Node6</title>
<path fill="none" stroke="midnightblue" d="M448.77,-485.3C460.72,-482.39 474.68,-477.86 486,-471 505.62,-459.11 502.29,-445.75 522,-434 585.09,-396.4 608.25,-399.1 681,-389 742.63,-380.45 760.19,-375.84 821,-389 845.31,-394.26 870.77,-405.73 890.36,-416.03"/>
<polygon fill="midnightblue" stroke="midnightblue" points="888.73,-419.13 899.19,-420.8 892.06,-412.97 888.73,-419.13"/>
</g>
<!-- Node26&#45;&gt;Node27 -->
<g id="edge32" class="edge">
<title>Node26&#45;&gt;Node27</title>
<path fill="none" stroke="midnightblue" d="M448.59,-487.88C461.36,-485.56 476.09,-480.78 486,-471 524.11,-433.37 496.59,-403.14 522,-356 532.14,-337.2 547.38,-318.59 560.03,-304.74"/>
<polygon fill="midnightblue" stroke="midnightblue" points="562.83,-306.86 567.11,-297.17 557.73,-302.08 562.83,-306.86"/>
</g>
<!-- Node28 -->
<g id="node28" class="node">
<title>Node28</title>
<g id="a_node28"><a xlink:href="namespacefile__handling__class.html#aab870caaf9cbaaf635d537708efbf793" target="_top" xlink:title="Same for reading (input file)">
<polygon fill="white" stroke="black" points="534.5,-443 534.5,-473 632.5,-473 632.5,-443 534.5,-443"/>
<text text-anchor="start" x="542.5" y="-461" font-family="Helvetica,sans-Serif" font-size="10.00">file_handling_class</text>
<text text-anchor="middle" x="583.5" y="-450" font-family="Helvetica,sans-Serif" font-size="10.00">::open_infile</text>
</a>
</g>
</g>
<!-- Node26&#45;&gt;Node28 -->
<g id="edge33" class="edge">
<title>Node26&#45;&gt;Node28</title>
<path fill="none" stroke="midnightblue" d="M448.56,-484.79C469.04,-480.69 498.35,-474.83 524.34,-469.63"/>
<polygon fill="midnightblue" stroke="midnightblue" points="525.36,-473 534.48,-467.6 523.99,-466.13 525.36,-473"/>
</g>
<!-- Node28&#45;&gt;Node6 -->
<g id="edge36" class="edge">
<title>Node28&#45;&gt;Node6</title>
<path fill="none" stroke="midnightblue" d="M632.85,-454.87C691.85,-451.05 791.89,-444.58 858.08,-440.3"/>
<polygon fill="midnightblue" stroke="midnightblue" points="858.64,-443.77 868.4,-439.63 858.19,-436.78 858.64,-443.77"/>
</g>
<!-- Node29 -->
<g id="node29" class="node">
<title>Node29</title>
<g id="a_node29"><a xlink:href="namespacefile__handling__class.html#af02196bd5eaf70ecd5ab4cc650094d5e" target="_top" xlink:title="Finds the next unused unit number.">
<polygon fill="white" stroke="black" points="702,-399 702,-429 800,-429 800,-399 702,-399"/>
<text text-anchor="start" x="710" y="-417" font-family="Helvetica,sans-Serif" font-size="10.00">file_handling_class</text>
<text text-anchor="middle" x="751" y="-406" font-family="Helvetica,sans-Serif" font-size="10.00">::get_next_io_unit</text>
</a>
</g>
</g>
<!-- Node28&#45;&gt;Node29 -->
<g id="edge34" class="edge">
<title>Node28&#45;&gt;Node29</title>
<path fill="none" stroke="midnightblue" d="M632.81,-445.16C651.34,-440.23 672.67,-434.56 692,-429.42"/>
<polygon fill="midnightblue" stroke="midnightblue" points="693.15,-432.74 701.91,-426.78 691.35,-425.97 693.15,-432.74"/>
</g>
<!-- Node29&#45;&gt;Node6 -->
<g id="edge35" class="edge">
<title>Node29&#45;&gt;Node6</title>
<path fill="none" stroke="midnightblue" d="M800.05,-420.13C818.13,-422.43 839.02,-425.1 858.46,-427.58"/>
<polygon fill="midnightblue" stroke="midnightblue" points="858.11,-431.06 868.47,-428.85 858.99,-424.12 858.11,-431.06"/>
</g>
<!-- Node38 -->
<g id="node38" class="node">
<title>Node38</title>
<g id="a_node38"><a xlink:href="namespacenucstuff__class.html#a5fa1f79d38fd5b01a5d6d797fea0132d" target="_top" xlink:title="Get number of reactants of the reaction based on the reaclib chapter.">
<polygon fill="white" stroke="black" points="702,-191 702,-221 800,-221 800,-191 702,-191"/>
<text text-anchor="start" x="710" y="-209" font-family="Helvetica,sans-Serif" font-size="10.00">nucstuff_class::get</text>
<text text-anchor="middle" x="751" y="-198" font-family="Helvetica,sans-Serif" font-size="10.00">_nr_reactants</text>
</a>
</g>
</g>
<!-- Node37&#45;&gt;Node38 -->
<g id="edge52" class="edge">
<title>Node37&#45;&gt;Node38</title>
<path fill="none" stroke="midnightblue" d="M305.54,-200.73C403.88,-201.9 595.18,-204.16 691.54,-205.31"/>
<polygon fill="midnightblue" stroke="midnightblue" points="691.65,-208.81 701.69,-205.43 691.73,-201.81 691.65,-208.81"/>
</g>
<!-- Node38&#45;&gt;Node6 -->
<g id="edge54" class="edge">
<title>Node38&#45;&gt;Node6</title>
<path fill="none" stroke="midnightblue" d="M798.84,-221.14C806.83,-225.12 814.61,-230.02 821,-236 824.57,-239.34 885.76,-359.59 912.34,-411.99"/>
<polygon fill="midnightblue" stroke="midnightblue" points="909.24,-413.61 916.88,-420.95 915.48,-410.44 909.24,-413.61"/>
</g>
<!-- Node38&#45;&gt;Node7 -->
<g id="edge53" class="edge">
<title>Node38&#45;&gt;Node7</title>
<path fill="none" stroke="midnightblue" d="M791.15,-221.04C801.13,-225.4 811.66,-230.49 821,-236 914.28,-291.02 1012.44,-374.66 1056.77,-414.04"/>
<polygon fill="midnightblue" stroke="midnightblue" points="1054.61,-416.81 1064.4,-420.86 1059.27,-411.59 1054.61,-416.81"/>
</g>
</g>
</svg>
