<?xml version="1.0" encoding="UTF-8" standalone="no"?>
<!DOCTYPE svg PUBLIC "-//W3C//DTD SVG 1.1//EN"
 "http://www.w3.org/Graphics/SVG/1.1/DTD/svg11.dtd">
<!-- Generated by graphviz version 2.44.0 ()
 -->
<!-- Title: beta_decay_rate_module::init_ext_beta_rates Pages: 1 -->
<svg width="728pt" height="279pt"
 viewBox="0.00 0.00 728.00 278.50" xmlns="http://www.w3.org/2000/svg" xmlns:xlink="http://www.w3.org/1999/xlink">
<g id="graph0" class="graph" transform="scale(1 1) rotate(0) translate(4 274.5)">
<title>beta_decay_rate_module::init_ext_beta_rates</title>
<polygon fill="white" stroke="transparent" points="-4,4 -4,-274.5 724,-274.5 724,4 -4,4"/>
<!-- Node1 -->
<g id="node1" class="node">
<title>Node1</title>
<g id="a_node1"><a xlink:title="Initialize external beta decay rates.">
<polygon fill="#bfbfbf" stroke="black" points="0,-147 0,-177 125,-177 125,-147 0,-147"/>
<text text-anchor="start" x="8" y="-165" font-family="Helvetica,sans-Serif" font-size="10.00">beta_decay_rate_module</text>
<text text-anchor="middle" x="62.5" y="-154" font-family="Helvetica,sans-Serif" font-size="10.00">::init_ext_beta_rates</text>
</a>
</g>
</g>
<!-- Node2 -->
<g id="node2" class="node">
<title>Node2</title>
<g id="a_node2"><a xlink:href="namespacenucstuff__class.html#aaa645672174ccc163425da5aa3872aef" target="_top" xlink:title="Analyze a string and split it with delimiter &quot;;&quot;.">
<polygon fill="white" stroke="black" points="165.5,-235 165.5,-265 281.5,-265 281.5,-235 165.5,-235"/>
<text text-anchor="start" x="173.5" y="-253" font-family="Helvetica,sans-Serif" font-size="10.00">nucstuff_class::analyze</text>
<text text-anchor="middle" x="223.5" y="-242" font-family="Helvetica,sans-Serif" font-size="10.00">_src_string</text>
</a>
</g>
</g>
<!-- Node1&#45;&gt;Node2 -->
<g id="edge1" class="edge">
<title>Node1&#45;&gt;Node2</title>
<path fill="none" stroke="midnightblue" d="M87.62,-177.11C107.16,-189.16 135.53,-206.24 161,-220 167.47,-223.49 174.4,-227.05 181.2,-230.44"/>
<polygon fill="midnightblue" stroke="midnightblue" points="179.81,-233.65 190.33,-234.93 182.9,-227.37 179.81,-233.65"/>
</g>
<!-- Node3 -->
<g id="node3" class="node">
<title>Node3</title>
<g id="a_node3"><a xlink:href="namespacefile__handling__class.html#a01ba26324d7662cc0fb2e0eb306cd3e2" target="_top" xlink:title="Close an external file.">
<polygon fill="white" stroke="black" points="327,-240 327,-270 425,-270 425,-240 327,-240"/>
<text text-anchor="start" x="335" y="-258" font-family="Helvetica,sans-Serif" font-size="10.00">file_handling_class</text>
<text text-anchor="middle" x="376" y="-247" font-family="Helvetica,sans-Serif" font-size="10.00">::close_io_file</text>
</a>
</g>
</g>
<!-- Node1&#45;&gt;Node3 -->
<g id="edge2" class="edge">
<title>Node1&#45;&gt;Node3</title>
<path fill="none" stroke="midnightblue" d="M118.06,-177.12C163.2,-189.77 228.93,-208.5 286,-226 297.06,-229.39 308.84,-233.14 320.1,-236.78"/>
<polygon fill="midnightblue" stroke="midnightblue" points="319.23,-240.18 329.82,-239.94 321.39,-233.52 319.23,-240.18"/>
</g>
<!-- Node6 -->
<g id="node6" class="node">
<title>Node6</title>
<g id="a_node6"><a xlink:href="namespacebeta__decay__rate__module.html#a4567284aa7abec0acf03d1855f1cdf77" target="_top" xlink:title="Count the amount of external beta decays.">
<polygon fill="white" stroke="black" points="161,-27 161,-57 286,-57 286,-27 161,-27"/>
<text text-anchor="start" x="169" y="-45" font-family="Helvetica,sans-Serif" font-size="10.00">beta_decay_rate_module</text>
<text text-anchor="middle" x="223.5" y="-34" font-family="Helvetica,sans-Serif" font-size="10.00">::count_reactions</text>
</a>
</g>
</g>
<!-- Node1&#45;&gt;Node6 -->
<g id="edge6" class="edge">
<title>Node1&#45;&gt;Node6</title>
<path fill="none" stroke="midnightblue" d="M75.54,-146.75C92.61,-126 125.71,-88.86 161,-66 163.39,-64.45 165.89,-62.98 168.47,-61.58"/>
<polygon fill="midnightblue" stroke="midnightblue" points="170.05,-64.7 177.43,-57.11 166.92,-58.44 170.05,-64.7"/>
</g>
<!-- Node9 -->
<g id="node9" class="node">
<title>Node9</title>
<g id="a_node9"><a xlink:href="namespacefile__handling__class.html#aab870caaf9cbaaf635d537708efbf793" target="_top" xlink:title="Same for reading (input file)">
<polygon fill="white" stroke="black" points="174.5,-147 174.5,-177 272.5,-177 272.5,-147 174.5,-147"/>
<text text-anchor="start" x="182.5" y="-165" font-family="Helvetica,sans-Serif" font-size="10.00">file_handling_class</text>
<text text-anchor="middle" x="223.5" y="-154" font-family="Helvetica,sans-Serif" font-size="10.00">::open_infile</text>
</a>
</g>
</g>
<!-- Node1&#45;&gt;Node9 -->
<g id="edge9" class="edge">
<title>Node1&#45;&gt;Node9</title>
<path fill="none" stroke="midnightblue" d="M125.43,-162C138.1,-162 151.4,-162 163.95,-162"/>
<polygon fill="midnightblue" stroke="midnightblue" points="164.28,-165.5 174.28,-162 164.28,-158.5 164.28,-165.5"/>
</g>
<!-- Node11 -->
<g id="node11" class="node">
<title>Node11</title>
<g id="a_node11"><a xlink:href="namespacebeta__decay__rate__module.html#a8fa2850c2eabd35e3c4da8d86b013af8" target="_top" xlink:title="Reads beta decays from a separate file.">
<polygon fill="white" stroke="black" points="161,-76 161,-106 286,-106 286,-76 161,-76"/>
<text text-anchor="start" x="169" y="-94" font-family="Helvetica,sans-Serif" font-size="10.00">beta_decay_rate_module</text>
<text text-anchor="middle" x="223.5" y="-83" font-family="Helvetica,sans-Serif" font-size="10.00">::read_beta_decays</text>
</a>
</g>
</g>
<!-- Node1&#45;&gt;Node11 -->
<g id="edge13" class="edge">
<title>Node1&#45;&gt;Node11</title>
<path fill="none" stroke="midnightblue" d="M97.22,-146.94C121.25,-136.21 153.75,-121.7 179.62,-110.15"/>
<polygon fill="midnightblue" stroke="midnightblue" points="181.12,-113.31 188.83,-106.04 178.27,-106.92 181.12,-113.31"/>
</g>
<!-- Node4 -->
<g id="node4" class="node">
<title>Node4</title>
<g id="a_node4"><a xlink:href="namespaceerror__msg__class.html#a7e065585cc806a5c264de1f088266498" target="_top" xlink:title="Converts a given integer to a string.">
<polygon fill="white" stroke="black" points="616,-159 616,-189 720,-189 720,-159 616,-159"/>
<text text-anchor="start" x="624" y="-177" font-family="Helvetica,sans-Serif" font-size="10.00">error_msg_class::int</text>
<text text-anchor="middle" x="668" y="-166" font-family="Helvetica,sans-Serif" font-size="10.00">_to_str</text>
</a>
</g>
</g>
<!-- Node3&#45;&gt;Node4 -->
<g id="edge3" class="edge">
<title>Node3&#45;&gt;Node4</title>
<path fill="none" stroke="midnightblue" d="M425.03,-241.91C466.19,-230.65 527.04,-213.91 580,-199 588.46,-196.62 597.38,-194.08 606.15,-191.57"/>
<polygon fill="midnightblue" stroke="midnightblue" points="607.31,-194.88 615.96,-188.76 605.38,-188.15 607.31,-194.88"/>
</g>
<!-- Node5 -->
<g id="node5" class="node">
<title>Node5</title>
<g id="a_node5"><a xlink:href="namespaceerror__msg__class.html#a2453d3b7cb363115c046840baa1dfb75" target="_top" xlink:title="Raise a exception with a given error message.">
<polygon fill="white" stroke="black" points="466,-159 466,-189 580,-189 580,-159 466,-159"/>
<text text-anchor="start" x="474" y="-177" font-family="Helvetica,sans-Serif" font-size="10.00">error_msg_class::raise</text>
<text text-anchor="middle" x="523" y="-166" font-family="Helvetica,sans-Serif" font-size="10.00">_exception</text>
</a>
</g>
</g>
<!-- Node3&#45;&gt;Node5 -->
<g id="edge4" class="edge">
<title>Node3&#45;&gt;Node5</title>
<path fill="none" stroke="midnightblue" d="M412.09,-239.88C418.13,-237.06 424.3,-234.04 430,-231 450.75,-219.93 473.21,-206.06 490.74,-194.77"/>
<polygon fill="midnightblue" stroke="midnightblue" points="492.94,-197.51 499.42,-189.13 489.13,-191.64 492.94,-197.51"/>
</g>
<!-- Node5&#45;&gt;Node4 -->
<g id="edge5" class="edge">
<title>Node5&#45;&gt;Node4</title>
<path fill="none" stroke="midnightblue" d="M580.11,-174C588.45,-174 597.09,-174 605.54,-174"/>
<polygon fill="midnightblue" stroke="midnightblue" points="605.71,-177.5 615.71,-174 605.71,-170.5 605.71,-177.5"/>
</g>
<!-- Node7 -->
<g id="node7" class="node">
<title>Node7</title>
<g id="a_node7"><a xlink:href="namespacebenam__class.html#ad20c821347dd5f7c08dff59c98e69657" target="_top" xlink:title="Returns the index number of isotope &#39;name&#39;.">
<polygon fill="white" stroke="black" points="322,-0.5 322,-19.5 430,-19.5 430,-0.5 322,-0.5"/>
<text text-anchor="middle" x="376" y="-7.5" font-family="Helvetica,sans-Serif" font-size="10.00">benam_class::benam</text>
</a>
</g>
</g>
<!-- Node6&#45;&gt;Node7 -->
<g id="edge7" class="edge">
<title>Node6&#45;&gt;Node7</title>
<path fill="none" stroke="midnightblue" d="M286.15,-28.89C297.46,-26.49 309.2,-23.99 320.29,-21.63"/>
<polygon fill="midnightblue" stroke="midnightblue" points="321.21,-25.02 330.26,-19.51 319.75,-18.17 321.21,-25.02"/>
</g>
<!-- Node8 -->
<g id="node8" class="node">
<title>Node8</title>
<g id="a_node8"><a xlink:href="namespacebenam__class.html#ad2f566697809a5731e560509d2ca7062" target="_top" xlink:title="Finds an isotope index in the network table, given its A and Z. In case it was not found,...">
<polygon fill="white" stroke="black" points="324,-38.5 324,-57.5 428,-57.5 428,-38.5 324,-38.5"/>
<text text-anchor="middle" x="376" y="-45.5" font-family="Helvetica,sans-Serif" font-size="10.00">benam_class::findaz</text>
</a>
</g>
</g>
<!-- Node6&#45;&gt;Node8 -->
<g id="edge8" class="edge">
<title>Node6&#45;&gt;Node8</title>
<path fill="none" stroke="midnightblue" d="M286.15,-44.46C295.23,-44.82 304.59,-45.19 313.66,-45.55"/>
<polygon fill="midnightblue" stroke="midnightblue" points="313.63,-49.06 323.76,-45.96 313.91,-42.06 313.63,-49.06"/>
</g>
<!-- Node9&#45;&gt;Node5 -->
<g id="edge12" class="edge">
<title>Node9&#45;&gt;Node5</title>
<path fill="none" stroke="midnightblue" d="M272.63,-163.94C322.32,-165.95 400.23,-169.09 455.73,-171.33"/>
<polygon fill="midnightblue" stroke="midnightblue" points="455.69,-174.83 465.82,-171.73 455.97,-167.83 455.69,-174.83"/>
</g>
<!-- Node10 -->
<g id="node10" class="node">
<title>Node10</title>
<g id="a_node10"><a xlink:href="namespacefile__handling__class.html#af02196bd5eaf70ecd5ab4cc650094d5e" target="_top" xlink:title="Finds the next unused unit number.">
<polygon fill="white" stroke="black" points="327,-191 327,-221 425,-221 425,-191 327,-191"/>
<text text-anchor="start" x="335" y="-209" font-family="Helvetica,sans-Serif" font-size="10.00">file_handling_class</text>
<text text-anchor="middle" x="376" y="-198" font-family="Helvetica,sans-Serif" font-size="10.00">::get_next_io_unit</text>
</a>
</g>
</g>
<!-- Node9&#45;&gt;Node10 -->
<g id="edge10" class="edge">
<title>Node9&#45;&gt;Node10</title>
<path fill="none" stroke="midnightblue" d="M272.53,-176.04C286.65,-180.17 302.25,-184.73 316.92,-189.02"/>
<polygon fill="midnightblue" stroke="midnightblue" points="316.33,-192.49 326.91,-191.94 318.29,-185.77 316.33,-192.49"/>
</g>
<!-- Node10&#45;&gt;Node5 -->
<g id="edge11" class="edge">
<title>Node10&#45;&gt;Node5</title>
<path fill="none" stroke="midnightblue" d="M425.28,-195.34C435.15,-193.17 445.69,-190.84 456.05,-188.56"/>
<polygon fill="midnightblue" stroke="midnightblue" points="456.89,-191.95 465.9,-186.38 455.38,-185.12 456.89,-191.95"/>
</g>
<!-- Node11&#45;&gt;Node4 -->
<g id="edge16" class="edge">
<title>Node11&#45;&gt;Node4</title>
<path fill="none" stroke="midnightblue" d="M286.34,-96.86C327.26,-101.15 382.02,-107.67 430,-116 497.35,-127.7 513.7,-133.35 580,-150 588.39,-152.11 597.21,-154.42 605.88,-156.76"/>
<polygon fill="midnightblue" stroke="midnightblue" points="605.01,-160.15 615.58,-159.39 606.85,-153.39 605.01,-160.15"/>
</g>
<!-- Node11&#45;&gt;Node5 -->
<g id="edge17" class="edge">
<title>Node11&#45;&gt;Node5</title>
<path fill="none" stroke="midnightblue" d="M278.38,-106.03C328.98,-120.15 404.71,-141.28 458.29,-156.23"/>
<polygon fill="midnightblue" stroke="midnightblue" points="457.45,-159.63 468.02,-158.94 459.33,-152.88 457.45,-159.63"/>
</g>
<!-- Node11&#45;&gt;Node7 -->
<g id="edge14" class="edge">
<title>Node11&#45;&gt;Node7</title>
<path fill="none" stroke="midnightblue" d="M268.01,-75.97C274.27,-73.06 280.45,-69.73 286,-66 305.03,-53.19 302.7,-41.41 322,-29 325.1,-27.01 328.44,-25.19 331.88,-23.53"/>
<polygon fill="midnightblue" stroke="midnightblue" points="333.32,-26.72 341.11,-19.54 330.55,-20.3 333.32,-26.72"/>
</g>
<!-- Node11&#45;&gt;Node8 -->
<g id="edge15" class="edge">
<title>Node11&#45;&gt;Node8</title>
<path fill="none" stroke="midnightblue" d="M277.14,-75.96C294.99,-70.86 314.72,-65.22 331.76,-60.35"/>
<polygon fill="midnightblue" stroke="midnightblue" points="332.79,-63.7 341.45,-57.59 330.87,-56.97 332.79,-63.7"/>
</g>
</g>
</svg>
