<?xml version="1.0" encoding="UTF-8" standalone="no"?>
<!DOCTYPE svg PUBLIC "-//W3C//DTD SVG 1.1//EN"
 "http://www.w3.org/Graphics/SVG/1.1/DTD/svg11.dtd">
<!-- Generated by graphviz version 2.44.0 ()
 -->
<!-- Title: expansion_module::expansion Pages: 1 -->
<svg width="958pt" height="222pt"
 viewBox="0.00 0.00 958.00 221.50" xmlns="http://www.w3.org/2000/svg" xmlns:xlink="http://www.w3.org/1999/xlink">
<g id="graph0" class="graph" transform="scale(1 1) rotate(0) translate(4 217.5)">
<title>expansion_module::expansion</title>
<polygon fill="white" stroke="transparent" points="-4,4 -4,-217.5 954,-217.5 954,4 -4,4"/>
<!-- Node1 -->
<g id="node1" class="node">
<title>Node1</title>
<g id="a_node1"><a xlink:title="Returns temperature, radius, density, and entropy after the trajectory has ended.">
<polygon fill="#bfbfbf" stroke="black" points="0,-141.5 0,-160.5 145,-160.5 145,-141.5 0,-141.5"/>
<text text-anchor="middle" x="72.5" y="-148.5" font-family="Helvetica,sans-Serif" font-size="10.00">expansion_module::expansion</text>
</a>
</g>
</g>
<!-- Node2 -->
<g id="node2" class="node">
<title>Node2</title>
<g id="a_node2"><a xlink:href="namespaceerror__msg__class.html#a2453d3b7cb363115c046840baa1dfb75" target="_top" xlink:title="Raise a exception with a given error message.">
<polygon fill="white" stroke="black" points="183.5,-172 183.5,-202 297.5,-202 297.5,-172 183.5,-172"/>
<text text-anchor="start" x="191.5" y="-190" font-family="Helvetica,sans-Serif" font-size="10.00">error_msg_class::raise</text>
<text text-anchor="middle" x="240.5" y="-179" font-family="Helvetica,sans-Serif" font-size="10.00">_exception</text>
</a>
</g>
</g>
<!-- Node1&#45;&gt;Node2 -->
<g id="edge1" class="edge">
<title>Node1&#45;&gt;Node2</title>
<path fill="none" stroke="midnightblue" d="M117.55,-160.55C134.65,-164.26 154.6,-168.59 173.35,-172.65"/>
<polygon fill="midnightblue" stroke="midnightblue" points="172.81,-176.12 183.32,-174.82 174.29,-169.28 172.81,-176.12"/>
</g>
<!-- Node4 -->
<g id="node4" class="node">
<title>Node4</title>
<g id="a_node4"><a xlink:href="namespacels__timmes__eos__module.html#a7f522fa32c0a061060a07863c7a8b05c" target="_top" xlink:title=" ">
<polygon fill="white" stroke="black" points="181,-112 181,-142 300,-142 300,-112 181,-112"/>
<text text-anchor="start" x="189" y="-130" font-family="Helvetica,sans-Serif" font-size="10.00">ls_timmes_eos_module</text>
<text text-anchor="middle" x="240.5" y="-119" font-family="Helvetica,sans-Serif" font-size="10.00">::timmes_eos</text>
</a>
</g>
</g>
<!-- Node1&#45;&gt;Node4 -->
<g id="edge3" class="edge">
<title>Node1&#45;&gt;Node4</title>
<path fill="none" stroke="midnightblue" d="M139.58,-141.45C149.82,-139.97 160.42,-138.43 170.72,-136.94"/>
<polygon fill="midnightblue" stroke="midnightblue" points="171.5,-140.37 180.89,-135.47 170.49,-133.44 171.5,-140.37"/>
</g>
<!-- Node3 -->
<g id="node3" class="node">
<title>Node3</title>
<g id="a_node3"><a xlink:href="namespaceerror__msg__class.html#a7e065585cc806a5c264de1f088266498" target="_top" xlink:title="Converts a given integer to a string.">
<polygon fill="white" stroke="black" points="343.5,-183 343.5,-213 447.5,-213 447.5,-183 343.5,-183"/>
<text text-anchor="start" x="351.5" y="-201" font-family="Helvetica,sans-Serif" font-size="10.00">error_msg_class::int</text>
<text text-anchor="middle" x="395.5" y="-190" font-family="Helvetica,sans-Serif" font-size="10.00">_to_str</text>
</a>
</g>
</g>
<!-- Node2&#45;&gt;Node3 -->
<g id="edge2" class="edge">
<title>Node2&#45;&gt;Node3</title>
<path fill="none" stroke="midnightblue" d="M297.6,-191.03C309.21,-191.87 321.5,-192.75 333.28,-193.6"/>
<polygon fill="midnightblue" stroke="midnightblue" points="333.25,-197.11 343.47,-194.33 333.75,-190.12 333.25,-197.11"/>
</g>
<!-- Node5 -->
<g id="node5" class="node">
<title>Node5</title>
<g id="a_node5"><a xlink:href="namespacels__timmes__eos__module.html#ac68ea6710f5164f7f29454fa4ffa6dcb" target="_top" xlink:title=" ">
<polygon fill="white" stroke="black" points="336,-134 336,-164 455,-164 455,-134 336,-134"/>
<text text-anchor="start" x="344" y="-152" font-family="Helvetica,sans-Serif" font-size="10.00">ls_timmes_eos_module</text>
<text text-anchor="middle" x="395.5" y="-141" font-family="Helvetica,sans-Serif" font-size="10.00">::timmes_eos_e_bisec</text>
</a>
</g>
</g>
<!-- Node4&#45;&gt;Node5 -->
<g id="edge4" class="edge">
<title>Node4&#45;&gt;Node5</title>
<path fill="none" stroke="midnightblue" d="M300.22,-135.44C308.64,-136.65 317.36,-137.91 325.95,-139.14"/>
<polygon fill="midnightblue" stroke="midnightblue" points="325.54,-142.62 335.94,-140.58 326.54,-135.69 325.54,-142.62"/>
</g>
<!-- Node6 -->
<g id="node6" class="node">
<title>Node6</title>
<g id="a_node6"><a xlink:href="namespacels__timmes__eos__module.html#a6da1e3b6ba3967536745de1073565b65" target="_top" xlink:title=" ">
<polygon fill="white" stroke="black" points="491,-90 491,-120 610,-120 610,-90 491,-90"/>
<text text-anchor="start" x="499" y="-108" font-family="Helvetica,sans-Serif" font-size="10.00">ls_timmes_eos_module</text>
<text text-anchor="middle" x="550.5" y="-97" font-family="Helvetica,sans-Serif" font-size="10.00">::timmes_eos_interface</text>
</a>
</g>
</g>
<!-- Node4&#45;&gt;Node6 -->
<g id="edge17" class="edge">
<title>Node4&#45;&gt;Node6</title>
<path fill="none" stroke="midnightblue" d="M300.16,-122.81C351.56,-119.14 426.33,-113.8 480.58,-109.92"/>
<polygon fill="midnightblue" stroke="midnightblue" points="481.07,-113.4 490.8,-109.19 480.58,-106.41 481.07,-113.4"/>
</g>
<!-- Node17 -->
<g id="node17" class="node">
<title>Node17</title>
<g id="a_node17"><a xlink:href="namespacels__timmes__eos__module.html#afd98ff063885638aaa5922c04fb9d6a9" target="_top" xlink:title=" ">
<polygon fill="white" stroke="black" points="336,-46 336,-76 455,-76 455,-46 336,-46"/>
<text text-anchor="start" x="344" y="-64" font-family="Helvetica,sans-Serif" font-size="10.00">ls_timmes_eos_module</text>
<text text-anchor="middle" x="395.5" y="-53" font-family="Helvetica,sans-Serif" font-size="10.00">::timmes_eos_s_bisec</text>
</a>
</g>
</g>
<!-- Node4&#45;&gt;Node17 -->
<g id="edge18" class="edge">
<title>Node4&#45;&gt;Node17</title>
<path fill="none" stroke="midnightblue" d="M276.6,-111.86C298.47,-102.43 326.79,-90.21 350.2,-80.11"/>
<polygon fill="midnightblue" stroke="midnightblue" points="351.77,-83.25 359.56,-76.07 348.99,-76.82 351.77,-83.25"/>
</g>
<!-- Node5&#45;&gt;Node6 -->
<g id="edge5" class="edge">
<title>Node5&#45;&gt;Node6</title>
<path fill="none" stroke="midnightblue" d="M448.73,-133.98C461.21,-130.39 474.66,-126.52 487.54,-122.82"/>
<polygon fill="midnightblue" stroke="midnightblue" points="488.61,-126.15 497.25,-120.03 486.67,-119.43 488.61,-126.15"/>
</g>
<!-- Node7 -->
<g id="node7" class="node">
<title>Node7</title>
<g id="a_node7"><a xlink:href="eosfxt_8f.html#a7472b49a95882a089dc0b8e75b1abbfa" target="_top" xlink:title=" ">
<polygon fill="white" stroke="black" points="646,-95.5 646,-114.5 689,-114.5 689,-95.5 646,-95.5"/>
<text text-anchor="middle" x="667.5" y="-102.5" font-family="Helvetica,sans-Serif" font-size="10.00">eosfxt</text>
</a>
</g>
</g>
<!-- Node6&#45;&gt;Node7 -->
<g id="edge6" class="edge">
<title>Node6&#45;&gt;Node7</title>
<path fill="none" stroke="midnightblue" d="M610.01,-105C618.86,-105 627.68,-105 635.63,-105"/>
<polygon fill="midnightblue" stroke="midnightblue" points="635.84,-108.5 645.84,-105 635.84,-101.5 635.84,-108.5"/>
</g>
<!-- Node8 -->
<g id="node8" class="node">
<title>Node8</title>
<g id="a_node8"><a xlink:href="eosfxt_8f.html#a4dd7b4a9689e75b5ee0f56fcf260b461" target="_top" xlink:title=" ">
<polygon fill="white" stroke="black" points="725,-133.5 725,-152.5 778,-152.5 778,-133.5 725,-133.5"/>
<text text-anchor="middle" x="751.5" y="-140.5" font-family="Helvetica,sans-Serif" font-size="10.00">coulomb</text>
</a>
</g>
</g>
<!-- Node7&#45;&gt;Node8 -->
<g id="edge7" class="edge">
<title>Node7&#45;&gt;Node8</title>
<path fill="none" stroke="midnightblue" d="M689.19,-114.59C698.71,-119 710.18,-124.31 720.61,-129.15"/>
<polygon fill="midnightblue" stroke="midnightblue" points="719.27,-132.38 729.81,-133.41 722.21,-126.03 719.27,-132.38"/>
</g>
<!-- Node10 -->
<g id="node10" class="node">
<title>Node10</title>
<g id="a_node10"><a xlink:href="eosfxt_8f.html#a40e1707c6481e6f394d33c9de7744a80" target="_top" xlink:title=" ">
<polygon fill="white" stroke="black" points="728.5,-95.5 728.5,-114.5 774.5,-114.5 774.5,-95.5 728.5,-95.5"/>
<text text-anchor="middle" x="751.5" y="-102.5" font-family="Helvetica,sans-Serif" font-size="10.00">etages</text>
</a>
</g>
</g>
<!-- Node7&#45;&gt;Node10 -->
<g id="edge9" class="edge">
<title>Node7&#45;&gt;Node10</title>
<path fill="none" stroke="midnightblue" d="M689.19,-105C697.97,-105 708.42,-105 718.17,-105"/>
<polygon fill="midnightblue" stroke="midnightblue" points="718.38,-108.5 728.38,-105 718.38,-101.5 718.38,-108.5"/>
</g>
<!-- Node11 -->
<g id="node11" class="node">
<title>Node11</title>
<g id="a_node11"><a xlink:href="eosfxt_8f.html#ac215ef28344d8bf47b95d146f191fc74" target="_top" xlink:title=" ">
<polygon fill="white" stroke="black" points="727.5,-57.5 727.5,-76.5 775.5,-76.5 775.5,-57.5 727.5,-57.5"/>
<text text-anchor="middle" x="751.5" y="-64.5" font-family="Helvetica,sans-Serif" font-size="10.00">xneroot</text>
</a>
</g>
</g>
<!-- Node7&#45;&gt;Node11 -->
<g id="edge11" class="edge">
<title>Node7&#45;&gt;Node11</title>
<path fill="none" stroke="midnightblue" d="M689.19,-95.41C698.71,-91 710.18,-85.69 720.61,-80.85"/>
<polygon fill="midnightblue" stroke="midnightblue" points="722.21,-83.97 729.81,-76.59 719.27,-77.62 722.21,-83.97"/>
</g>
<!-- Node9 -->
<g id="node9" class="node">
<title>Node9</title>
<g id="a_node9"><a xlink:href="quadpack__module_8f90.html#aada5a652920db442d627f1ca24ff25d7" target="_top" xlink:title="Further information: http://netlib.org/quadpack/index.html https://orion.math.iastate....">
<polygon fill="white" stroke="black" points="821.5,-114.5 821.5,-133.5 850.5,-133.5 850.5,-114.5 821.5,-114.5"/>
<text text-anchor="middle" x="836" y="-121.5" font-family="Helvetica,sans-Serif" font-size="10.00">pi</text>
</a>
</g>
</g>
<!-- Node8&#45;&gt;Node9 -->
<g id="edge8" class="edge">
<title>Node8&#45;&gt;Node9</title>
<path fill="none" stroke="midnightblue" d="M778.15,-137.09C788.68,-134.67 800.81,-131.87 811.14,-129.49"/>
<polygon fill="midnightblue" stroke="midnightblue" points="812.17,-132.85 821.13,-127.19 810.6,-126.03 812.17,-132.85"/>
</g>
<!-- Node10&#45;&gt;Node9 -->
<g id="edge10" class="edge">
<title>Node10&#45;&gt;Node9</title>
<path fill="none" stroke="midnightblue" d="M774.61,-110.09C786.01,-112.72 799.92,-115.92 811.51,-118.59"/>
<polygon fill="midnightblue" stroke="midnightblue" points="810.84,-122.03 821.37,-120.86 812.41,-115.21 810.84,-122.03"/>
</g>
<!-- Node12 -->
<g id="node12" class="node">
<title>Node12</title>
<g id="a_node12"><a xlink:href="eosfxt_8f.html#a5b92245336ba39f5012975d91948205f" target="_top" xlink:title=" ">
<polygon fill="white" stroke="black" points="814,-57.5 814,-76.5 858,-76.5 858,-57.5 814,-57.5"/>
<text text-anchor="middle" x="836" y="-64.5" font-family="Helvetica,sans-Serif" font-size="10.00">dfermi</text>
</a>
</g>
</g>
<!-- Node11&#45;&gt;Node12 -->
<g id="edge12" class="edge">
<title>Node11&#45;&gt;Node12</title>
<path fill="none" stroke="midnightblue" d="M775.92,-67C784.57,-67 794.52,-67 803.76,-67"/>
<polygon fill="midnightblue" stroke="midnightblue" points="803.78,-70.5 813.78,-67 803.78,-63.5 803.78,-70.5"/>
</g>
<!-- Node13 -->
<g id="node13" class="node">
<title>Node13</title>
<g id="a_node13"><a xlink:href="eosfxt_8f.html#abbb1b60c825d972dc00fe1f268f93f86" target="_top" xlink:title=" ">
<polygon fill="white" stroke="black" points="894,-114.5 894,-133.5 950,-133.5 950,-114.5 894,-114.5"/>
<text text-anchor="middle" x="922" y="-121.5" font-family="Helvetica,sans-Serif" font-size="10.00">dqlag020</text>
</a>
</g>
</g>
<!-- Node12&#45;&gt;Node13 -->
<g id="edge13" class="edge">
<title>Node12&#45;&gt;Node13</title>
<path fill="none" stroke="midnightblue" d="M851.25,-76.67C864.12,-85.4 883.28,-98.4 898.26,-108.57"/>
<polygon fill="midnightblue" stroke="midnightblue" points="896.72,-111.75 906.96,-114.47 900.65,-105.96 896.72,-111.75"/>
</g>
<!-- Node14 -->
<g id="node14" class="node">
<title>Node14</title>
<g id="a_node14"><a xlink:href="eosfxt_8f.html#a6cbbc7f07cffb75f5efaf893d547852f" target="_top" xlink:title=" ">
<polygon fill="white" stroke="black" points="894,-76.5 894,-95.5 950,-95.5 950,-76.5 894,-76.5"/>
<text text-anchor="middle" x="922" y="-83.5" font-family="Helvetica,sans-Serif" font-size="10.00">dqleg020</text>
</a>
</g>
</g>
<!-- Node12&#45;&gt;Node14 -->
<g id="edge14" class="edge">
<title>Node12&#45;&gt;Node14</title>
<path fill="none" stroke="midnightblue" d="M858.2,-71.79C866.04,-73.57 875.17,-75.63 884,-77.63"/>
<polygon fill="midnightblue" stroke="midnightblue" points="883.24,-81.05 893.76,-79.84 884.78,-74.22 883.24,-81.05"/>
</g>
<!-- Node15 -->
<g id="node15" class="node">
<title>Node15</title>
<g id="a_node15"><a xlink:href="eosfxt_8f.html#a9d9951640d440972fe5298fdd5d70c10" target="_top" xlink:title=" ">
<polygon fill="white" stroke="black" points="897.5,-38.5 897.5,-57.5 946.5,-57.5 946.5,-38.5 897.5,-38.5"/>
<text text-anchor="middle" x="922" y="-45.5" font-family="Helvetica,sans-Serif" font-size="10.00">fdfunc1</text>
</a>
</g>
</g>
<!-- Node12&#45;&gt;Node15 -->
<g id="edge15" class="edge">
<title>Node12&#45;&gt;Node15</title>
<path fill="none" stroke="midnightblue" d="M858.2,-62.21C867.07,-60.2 877.6,-57.82 887.48,-55.58"/>
<polygon fill="midnightblue" stroke="midnightblue" points="888.46,-58.95 897.44,-53.33 886.91,-52.12 888.46,-58.95"/>
</g>
<!-- Node16 -->
<g id="node16" class="node">
<title>Node16</title>
<g id="a_node16"><a xlink:href="eosfxt_8f.html#ae834089002139b7a18c24a337f6ff90a" target="_top" xlink:title=" ">
<polygon fill="white" stroke="black" points="897.5,-0.5 897.5,-19.5 946.5,-19.5 946.5,-0.5 897.5,-0.5"/>
<text text-anchor="middle" x="922" y="-7.5" font-family="Helvetica,sans-Serif" font-size="10.00">fdfunc2</text>
</a>
</g>
</g>
<!-- Node12&#45;&gt;Node16 -->
<g id="edge16" class="edge">
<title>Node12&#45;&gt;Node16</title>
<path fill="none" stroke="midnightblue" d="M851.25,-57.33C864.12,-48.6 883.28,-35.6 898.26,-25.43"/>
<polygon fill="midnightblue" stroke="midnightblue" points="900.65,-28.04 906.96,-19.53 896.72,-22.25 900.65,-28.04"/>
</g>
<!-- Node17&#45;&gt;Node6 -->
<g id="edge19" class="edge">
<title>Node17&#45;&gt;Node6</title>
<path fill="none" stroke="midnightblue" d="M448.73,-76.02C461.21,-79.61 474.66,-83.48 487.54,-87.18"/>
<polygon fill="midnightblue" stroke="midnightblue" points="486.67,-90.57 497.25,-89.97 488.61,-83.85 486.67,-90.57"/>
</g>
</g>
</svg>
