<?xml version="1.0" encoding="UTF-8" standalone="no"?>
<!DOCTYPE svg PUBLIC "-//W3C//DTD SVG 1.1//EN"
 "http://www.w3.org/Graphics/SVG/1.1/DTD/svg11.dtd">
<!-- Generated by graphviz version 2.44.0 ()
 -->
<!-- Title: fission_rate_module::read_binary_fission_reaction_data Pages: 1 -->
<svg width="696pt" height="105pt"
 viewBox="0.00 0.00 696.00 104.50" xmlns="http://www.w3.org/2000/svg" xmlns:xlink="http://www.w3.org/1999/xlink">
<g id="graph0" class="graph" transform="scale(1 1) rotate(0) translate(4 100.5)">
<title>fission_rate_module::read_binary_fission_reaction_data</title>
<polygon fill="white" stroke="transparent" points="-4,4 -4,-100.5 692,-100.5 692,4 -4,4"/>
<!-- Node1 -->
<g id="node1" class="node">
<title>Node1</title>
<g id="a_node1"><a xlink:title="Read the fission reactions and fragment distributions from a binary file.">
<polygon fill="#bfbfbf" stroke="black" points="0,-0.5 0,-41.5 104,-41.5 104,-0.5 0,-0.5"/>
<text text-anchor="start" x="8" y="-29.5" font-family="Helvetica,sans-Serif" font-size="10.00">fission_rate_module</text>
<text text-anchor="start" x="8" y="-18.5" font-family="Helvetica,sans-Serif" font-size="10.00">::read_binary_fission</text>
<text text-anchor="middle" x="52" y="-7.5" font-family="Helvetica,sans-Serif" font-size="10.00">_reaction_data</text>
</a>
</g>
</g>
<!-- Node2 -->
<g id="node2" class="node">
<title>Node2</title>
<g id="a_node2"><a xlink:href="namespacefile__handling__class.html#a25b51db64738e74a129daae7428c8163" target="_top" xlink:title="Open an unformatted file for reading.">
<polygon fill="white" stroke="black" points="140,-28 140,-58 264,-58 264,-28 140,-28"/>
<text text-anchor="start" x="148" y="-46" font-family="Helvetica,sans-Serif" font-size="10.00">file_handling_class</text>
<text text-anchor="middle" x="202" y="-35" font-family="Helvetica,sans-Serif" font-size="10.00">::open_unformatted_infile</text>
</a>
</g>
</g>
<!-- Node1&#45;&gt;Node2 -->
<g id="edge1" class="edge">
<title>Node1&#45;&gt;Node2</title>
<path fill="none" stroke="midnightblue" d="M104.35,-28.63C112.57,-29.85 121.2,-31.14 129.79,-32.41"/>
<polygon fill="midnightblue" stroke="midnightblue" points="129.41,-35.9 139.81,-33.9 130.44,-28.97 129.41,-35.9"/>
</g>
<!-- Node4 -->
<g id="node4" class="node">
<title>Node4</title>
<g id="a_node4"><a xlink:href="namespaceerror__msg__class.html#a2453d3b7cb363115c046840baa1dfb75" target="_top" xlink:title="Raise a exception with a given error message.">
<polygon fill="white" stroke="black" points="434,-22 434,-52 548,-52 548,-22 434,-22"/>
<text text-anchor="start" x="442" y="-40" font-family="Helvetica,sans-Serif" font-size="10.00">error_msg_class::raise</text>
<text text-anchor="middle" x="491" y="-29" font-family="Helvetica,sans-Serif" font-size="10.00">_exception</text>
</a>
</g>
</g>
<!-- Node1&#45;&gt;Node4 -->
<g id="edge6" class="edge">
<title>Node1&#45;&gt;Node4</title>
<path fill="none" stroke="midnightblue" d="M104.06,-18.95C115.86,-18.55 128.36,-18.2 140,-18 195.1,-17.05 208.94,-15.69 264,-18 317.83,-20.26 378.69,-25.53 423.68,-29.95"/>
<polygon fill="midnightblue" stroke="midnightblue" points="423.6,-33.46 433.89,-30.97 424.29,-26.49 423.6,-33.46"/>
</g>
<!-- Node3 -->
<g id="node3" class="node">
<title>Node3</title>
<g id="a_node3"><a xlink:href="namespacefile__handling__class.html#af02196bd5eaf70ecd5ab4cc650094d5e" target="_top" xlink:title="Finds the next unused unit number.">
<polygon fill="white" stroke="black" points="300,-66 300,-96 398,-96 398,-66 300,-66"/>
<text text-anchor="start" x="308" y="-84" font-family="Helvetica,sans-Serif" font-size="10.00">file_handling_class</text>
<text text-anchor="middle" x="349" y="-73" font-family="Helvetica,sans-Serif" font-size="10.00">::get_next_io_unit</text>
</a>
</g>
</g>
<!-- Node2&#45;&gt;Node3 -->
<g id="edge2" class="edge">
<title>Node2&#45;&gt;Node3</title>
<path fill="none" stroke="midnightblue" d="M260.31,-58.02C270.16,-60.6 280.41,-63.29 290.28,-65.87"/>
<polygon fill="midnightblue" stroke="midnightblue" points="289.43,-69.27 299.99,-68.42 291.2,-62.5 289.43,-69.27"/>
</g>
<!-- Node2&#45;&gt;Node4 -->
<g id="edge5" class="edge">
<title>Node2&#45;&gt;Node4</title>
<path fill="none" stroke="midnightblue" d="M264.22,-41.72C311.09,-40.74 375.66,-39.39 423.75,-38.39"/>
<polygon fill="midnightblue" stroke="midnightblue" points="423.82,-41.88 433.75,-38.18 423.68,-34.89 423.82,-41.88"/>
</g>
<!-- Node3&#45;&gt;Node4 -->
<g id="edge3" class="edge">
<title>Node3&#45;&gt;Node4</title>
<path fill="none" stroke="midnightblue" d="M397.79,-65.98C408.82,-62.51 420.66,-58.79 432.07,-55.21"/>
<polygon fill="midnightblue" stroke="midnightblue" points="433.46,-58.44 441.95,-52.1 431.36,-51.76 433.46,-58.44"/>
</g>
<!-- Node5 -->
<g id="node5" class="node">
<title>Node5</title>
<g id="a_node5"><a xlink:href="namespaceerror__msg__class.html#a7e065585cc806a5c264de1f088266498" target="_top" xlink:title="Converts a given integer to a string.">
<polygon fill="white" stroke="black" points="584,-22 584,-52 688,-52 688,-22 584,-22"/>
<text text-anchor="start" x="592" y="-40" font-family="Helvetica,sans-Serif" font-size="10.00">error_msg_class::int</text>
<text text-anchor="middle" x="636" y="-29" font-family="Helvetica,sans-Serif" font-size="10.00">_to_str</text>
</a>
</g>
</g>
<!-- Node4&#45;&gt;Node5 -->
<g id="edge4" class="edge">
<title>Node4&#45;&gt;Node5</title>
<path fill="none" stroke="midnightblue" d="M548.11,-37C556.45,-37 565.09,-37 573.54,-37"/>
<polygon fill="midnightblue" stroke="midnightblue" points="573.71,-40.5 583.71,-37 573.71,-33.5 573.71,-40.5"/>
</g>
</g>
</svg>
