<?xml version="1.0" encoding="UTF-8" standalone="no"?>
<!DOCTYPE svg PUBLIC "-//W3C//DTD SVG 1.1//EN"
 "http://www.w3.org/Graphics/SVG/1.1/DTD/svg11.dtd">
<!-- Generated by graphviz version 2.44.0 ()
 -->
<!-- Title: parameter_class::check_param Pages: 1 -->
<svg width="869pt" height="248pt"
 viewBox="0.00 0.00 869.00 247.93" xmlns="http://www.w3.org/2000/svg" xmlns:xlink="http://www.w3.org/1999/xlink">
<g id="graph0" class="graph" transform="scale(1 1) rotate(0) translate(4 243.93)">
<title>parameter_class::check_param</title>
<polygon fill="white" stroke="transparent" points="-4,4 -4,-243.93 865,-243.93 865,4 -4,4"/>
<!-- Node1 -->
<g id="node1" class="node">
<title>Node1</title>
<g id="a_node1"><a xlink:title="Check for consistency of parameter.">
<polygon fill="#bfbfbf" stroke="black" points="0,-157.07 0,-187.07 119,-187.07 119,-157.07 0,-157.07"/>
<text text-anchor="start" x="8" y="-175.07" font-family="Helvetica,sans-Serif" font-size="10.00">parameter_class::check</text>
<text text-anchor="middle" x="59.5" y="-164.07" font-family="Helvetica,sans-Serif" font-size="10.00">_param</text>
</a>
</g>
</g>
<!-- Node2 -->
<g id="node2" class="node">
<title>Node2</title>
<g id="a_node2"><a xlink:href="namespaceerror__msg__class.html#a7e065585cc806a5c264de1f088266498" target="_top" xlink:title="Converts a given integer to a string.">
<polygon fill="white" stroke="black" points="757,-78.07 757,-108.07 861,-108.07 861,-78.07 757,-78.07"/>
<text text-anchor="start" x="765" y="-96.07" font-family="Helvetica,sans-Serif" font-size="10.00">error_msg_class::int</text>
<text text-anchor="middle" x="809" y="-85.07" font-family="Helvetica,sans-Serif" font-size="10.00">_to_str</text>
</a>
</g>
</g>
<!-- Node1&#45;&gt;Node2 -->
<g id="edge1" class="edge">
<title>Node1&#45;&gt;Node2</title>
<path fill="none" stroke="midnightblue" d="M84.35,-187.09C102.87,-197.96 129.6,-211.93 155,-219.07 249.05,-245.51 276.3,-238.07 374,-238.07 374,-238.07 374,-238.07 523,-238.07 630.1,-238.07 737.63,-155.73 784.12,-115.15"/>
<polygon fill="midnightblue" stroke="midnightblue" points="786.66,-117.57 791.82,-108.32 782.02,-112.34 786.66,-117.57"/>
</g>
<!-- Node3 -->
<g id="node3" class="node">
<title>Node3</title>
<g id="a_node3"><a xlink:href="namespaceerror__msg__class.html#a5bc9f3b670b725cc43276934b867d801" target="_top" xlink:title="Converts a given real to a string with format &quot;(1pE10.2)&quot;.">
<polygon fill="white" stroke="black" points="160,-179.07 160,-209.07 272,-209.07 272,-179.07 160,-179.07"/>
<text text-anchor="start" x="168" y="-197.07" font-family="Helvetica,sans-Serif" font-size="10.00">error_msg_class::num</text>
<text text-anchor="middle" x="216" y="-186.07" font-family="Helvetica,sans-Serif" font-size="10.00">_to_str</text>
</a>
</g>
</g>
<!-- Node1&#45;&gt;Node3 -->
<g id="edge2" class="edge">
<title>Node1&#45;&gt;Node3</title>
<path fill="none" stroke="midnightblue" d="M119.35,-180.45C129.33,-181.88 139.74,-183.36 149.87,-184.8"/>
<polygon fill="midnightblue" stroke="midnightblue" points="149.48,-188.28 159.87,-186.22 150.47,-181.35 149.48,-188.28"/>
</g>
<!-- Node4 -->
<g id="node4" class="node">
<title>Node4</title>
<g id="a_node4"><a xlink:href="namespaceerror__msg__class.html#a2453d3b7cb363115c046840baa1dfb75" target="_top" xlink:title="Raise a exception with a given error message.">
<polygon fill="white" stroke="black" points="607,-78.07 607,-108.07 721,-108.07 721,-78.07 607,-78.07"/>
<text text-anchor="start" x="615" y="-96.07" font-family="Helvetica,sans-Serif" font-size="10.00">error_msg_class::raise</text>
<text text-anchor="middle" x="664" y="-85.07" font-family="Helvetica,sans-Serif" font-size="10.00">_exception</text>
</a>
</g>
</g>
<!-- Node1&#45;&gt;Node4 -->
<g id="edge3" class="edge">
<title>Node1&#45;&gt;Node4</title>
<path fill="none" stroke="midnightblue" d="M119.2,-165.79C214.28,-155.38 407.81,-133.32 571,-109.07 579.3,-107.84 588,-106.45 596.61,-105.02"/>
<polygon fill="midnightblue" stroke="midnightblue" points="597.35,-108.45 606.63,-103.33 596.19,-101.54 597.35,-108.45"/>
</g>
<!-- Node5 -->
<g id="node5" class="node">
<title>Node5</title>
<g id="a_node5"><a xlink:href="namespaceparameter__class.html#a0f6fe42fb23535c03a09f8633d733b68" target="_top" xlink:title="Read important parameters from a binary file and check for consistency.">
<polygon fill="white" stroke="black" points="155,-64.57 155,-105.57 277,-105.57 277,-64.57 155,-64.57"/>
<text text-anchor="start" x="163" y="-93.57" font-family="Helvetica,sans-Serif" font-size="10.00">parameter_class::read</text>
<text text-anchor="start" x="163" y="-82.57" font-family="Helvetica,sans-Serif" font-size="10.00">_sanity_check_prepared</text>
<text text-anchor="middle" x="216" y="-71.57" font-family="Helvetica,sans-Serif" font-size="10.00">_network</text>
</a>
</g>
</g>
<!-- Node1&#45;&gt;Node5 -->
<g id="edge5" class="edge">
<title>Node1&#45;&gt;Node5</title>
<path fill="none" stroke="midnightblue" d="M87.41,-156.92C110.09,-144.15 143.03,-125.6 169.75,-110.55"/>
<polygon fill="midnightblue" stroke="midnightblue" points="171.56,-113.55 178.56,-105.6 168.13,-107.45 171.56,-113.55"/>
</g>
<!-- Node4&#45;&gt;Node2 -->
<g id="edge4" class="edge">
<title>Node4&#45;&gt;Node2</title>
<path fill="none" stroke="midnightblue" d="M721.11,-93.07C729.45,-93.07 738.09,-93.07 746.54,-93.07"/>
<polygon fill="midnightblue" stroke="midnightblue" points="746.71,-96.57 756.71,-93.07 746.71,-89.57 746.71,-96.57"/>
</g>
<!-- Node5&#45;&gt;Node2 -->
<g id="edge6" class="edge">
<title>Node5&#45;&gt;Node2</title>
<path fill="none" stroke="midnightblue" d="M258.71,-64.54C324.66,-34.6 457.2,15.37 571,-5.07 643.39,-18.08 722.57,-51.77 768.62,-73.49"/>
<polygon fill="midnightblue" stroke="midnightblue" points="767.4,-76.78 777.93,-77.93 770.41,-70.46 767.4,-76.78"/>
</g>
<!-- Node5&#45;&gt;Node4 -->
<g id="edge11" class="edge">
<title>Node5&#45;&gt;Node4</title>
<path fill="none" stroke="midnightblue" d="M277.13,-90.8C289.01,-91.73 301.39,-92.56 313,-93.07 411.79,-97.49 526.43,-96.29 596.83,-94.83"/>
<polygon fill="midnightblue" stroke="midnightblue" points="596.97,-98.33 606.89,-94.62 596.82,-91.33 596.97,-98.33"/>
</g>
<!-- Node6 -->
<g id="node6" class="node">
<title>Node6</title>
<g id="a_node6"><a xlink:href="namespacefile__handling__class.html#a25b51db64738e74a129daae7428c8163" target="_top" xlink:title="Open an unformatted file for reading.">
<polygon fill="white" stroke="black" points="313,-53.07 313,-83.07 437,-83.07 437,-53.07 313,-53.07"/>
<text text-anchor="start" x="321" y="-71.07" font-family="Helvetica,sans-Serif" font-size="10.00">file_handling_class</text>
<text text-anchor="middle" x="375" y="-60.07" font-family="Helvetica,sans-Serif" font-size="10.00">::open_unformatted_infile</text>
</a>
</g>
</g>
<!-- Node5&#45;&gt;Node6 -->
<g id="edge7" class="edge">
<title>Node5&#45;&gt;Node6</title>
<path fill="none" stroke="midnightblue" d="M277.25,-78.55C285.64,-77.64 294.33,-76.7 302.89,-75.77"/>
<polygon fill="midnightblue" stroke="midnightblue" points="303.31,-79.25 312.87,-74.69 302.55,-72.29 303.31,-79.25"/>
</g>
<!-- Node6&#45;&gt;Node4 -->
<g id="edge10" class="edge">
<title>Node6&#45;&gt;Node4</title>
<path fill="none" stroke="midnightblue" d="M437.22,-73.41C484.09,-77.49 548.66,-83.12 596.75,-87.3"/>
<polygon fill="midnightblue" stroke="midnightblue" points="596.48,-90.79 606.75,-88.17 597.09,-83.82 596.48,-90.79"/>
</g>
<!-- Node7 -->
<g id="node7" class="node">
<title>Node7</title>
<g id="a_node7"><a xlink:href="namespacefile__handling__class.html#af02196bd5eaf70ecd5ab4cc650094d5e" target="_top" xlink:title="Finds the next unused unit number.">
<polygon fill="white" stroke="black" points="473,-15.07 473,-45.07 571,-45.07 571,-15.07 473,-15.07"/>
<text text-anchor="start" x="481" y="-33.07" font-family="Helvetica,sans-Serif" font-size="10.00">file_handling_class</text>
<text text-anchor="middle" x="522" y="-22.07" font-family="Helvetica,sans-Serif" font-size="10.00">::get_next_io_unit</text>
</a>
</g>
</g>
<!-- Node6&#45;&gt;Node7 -->
<g id="edge8" class="edge">
<title>Node6&#45;&gt;Node7</title>
<path fill="none" stroke="midnightblue" d="M433.31,-53.06C443.16,-50.47 453.41,-47.79 463.28,-45.2"/>
<polygon fill="midnightblue" stroke="midnightblue" points="464.2,-48.58 472.99,-42.66 462.43,-41.81 464.2,-48.58"/>
</g>
<!-- Node7&#45;&gt;Node4 -->
<g id="edge9" class="edge">
<title>Node7&#45;&gt;Node4</title>
<path fill="none" stroke="midnightblue" d="M556.53,-45.16C575.53,-53.71 599.49,-64.5 619.88,-73.67"/>
<polygon fill="midnightblue" stroke="midnightblue" points="618.7,-76.98 629.25,-77.89 621.57,-70.59 618.7,-76.98"/>
</g>
</g>
</svg>
