<?xml version="1.0" encoding="UTF-8" standalone="no"?>
<!DOCTYPE svg PUBLIC "-//W3C//DTD SVG 1.1//EN"
 "http://www.w3.org/Graphics/SVG/1.1/DTD/svg11.dtd">
<!-- Generated by graphviz version 2.44.0 ()
 -->
<!-- Title: tabulated_rate_module::read_binary_tabulated_reaction_data Pages: 1 -->
<svg width="708pt" height="105pt"
 viewBox="0.00 0.00 708.00 104.50" xmlns="http://www.w3.org/2000/svg" xmlns:xlink="http://www.w3.org/1999/xlink">
<g id="graph0" class="graph" transform="scale(1 1) rotate(0) translate(4 100.5)">
<title>tabulated_rate_module::read_binary_tabulated_reaction_data</title>
<polygon fill="white" stroke="transparent" points="-4,4 -4,-100.5 704,-100.5 704,4 -4,4"/>
<!-- Node1 -->
<g id="node1" class="node">
<title>Node1</title>
<g id="a_node1"><a xlink:title="Read the tabulated rates from a unformatted binary file.">
<polygon fill="#bfbfbf" stroke="black" points="0,-0.5 0,-41.5 116,-41.5 116,-0.5 0,-0.5"/>
<text text-anchor="start" x="8" y="-29.5" font-family="Helvetica,sans-Serif" font-size="10.00">tabulated_rate_module</text>
<text text-anchor="start" x="8" y="-18.5" font-family="Helvetica,sans-Serif" font-size="10.00">::read_binary_tabulated</text>
<text text-anchor="middle" x="58" y="-7.5" font-family="Helvetica,sans-Serif" font-size="10.00">_reaction_data</text>
</a>
</g>
</g>
<!-- Node2 -->
<g id="node2" class="node">
<title>Node2</title>
<g id="a_node2"><a xlink:href="namespacefile__handling__class.html#a25b51db64738e74a129daae7428c8163" target="_top" xlink:title="Open an unformatted file for reading.">
<polygon fill="white" stroke="black" points="152,-28 152,-58 276,-58 276,-28 152,-28"/>
<text text-anchor="start" x="160" y="-46" font-family="Helvetica,sans-Serif" font-size="10.00">file_handling_class</text>
<text text-anchor="middle" x="214" y="-35" font-family="Helvetica,sans-Serif" font-size="10.00">::open_unformatted_infile</text>
</a>
</g>
</g>
<!-- Node1&#45;&gt;Node2 -->
<g id="edge1" class="edge">
<title>Node1&#45;&gt;Node2</title>
<path fill="none" stroke="midnightblue" d="M116.34,-29.19C124.7,-30.39 133.39,-31.63 141.98,-32.85"/>
<polygon fill="midnightblue" stroke="midnightblue" points="141.6,-36.34 152,-34.29 142.59,-29.41 141.6,-36.34"/>
</g>
<!-- Node4 -->
<g id="node4" class="node">
<title>Node4</title>
<g id="a_node4"><a xlink:href="namespaceerror__msg__class.html#a2453d3b7cb363115c046840baa1dfb75" target="_top" xlink:title="Raise a exception with a given error message.">
<polygon fill="white" stroke="black" points="446,-22 446,-52 560,-52 560,-22 446,-22"/>
<text text-anchor="start" x="454" y="-40" font-family="Helvetica,sans-Serif" font-size="10.00">error_msg_class::raise</text>
<text text-anchor="middle" x="503" y="-29" font-family="Helvetica,sans-Serif" font-size="10.00">_exception</text>
</a>
</g>
</g>
<!-- Node1&#45;&gt;Node4 -->
<g id="edge6" class="edge">
<title>Node1&#45;&gt;Node4</title>
<path fill="none" stroke="midnightblue" d="M116.05,-18.87C127.93,-18.51 140.37,-18.19 152,-18 207.1,-17.11 220.94,-15.69 276,-18 329.83,-20.26 390.69,-25.53 435.68,-29.95"/>
<polygon fill="midnightblue" stroke="midnightblue" points="435.6,-33.46 445.89,-30.97 436.29,-26.49 435.6,-33.46"/>
</g>
<!-- Node3 -->
<g id="node3" class="node">
<title>Node3</title>
<g id="a_node3"><a xlink:href="namespacefile__handling__class.html#af02196bd5eaf70ecd5ab4cc650094d5e" target="_top" xlink:title="Finds the next unused unit number.">
<polygon fill="white" stroke="black" points="312,-66 312,-96 410,-96 410,-66 312,-66"/>
<text text-anchor="start" x="320" y="-84" font-family="Helvetica,sans-Serif" font-size="10.00">file_handling_class</text>
<text text-anchor="middle" x="361" y="-73" font-family="Helvetica,sans-Serif" font-size="10.00">::get_next_io_unit</text>
</a>
</g>
</g>
<!-- Node2&#45;&gt;Node3 -->
<g id="edge2" class="edge">
<title>Node2&#45;&gt;Node3</title>
<path fill="none" stroke="midnightblue" d="M272.31,-58.02C282.16,-60.6 292.41,-63.29 302.28,-65.87"/>
<polygon fill="midnightblue" stroke="midnightblue" points="301.43,-69.27 311.99,-68.42 303.2,-62.5 301.43,-69.27"/>
</g>
<!-- Node2&#45;&gt;Node4 -->
<g id="edge5" class="edge">
<title>Node2&#45;&gt;Node4</title>
<path fill="none" stroke="midnightblue" d="M276.22,-41.72C323.09,-40.74 387.66,-39.39 435.75,-38.39"/>
<polygon fill="midnightblue" stroke="midnightblue" points="435.82,-41.88 445.75,-38.18 435.68,-34.89 435.82,-41.88"/>
</g>
<!-- Node3&#45;&gt;Node4 -->
<g id="edge3" class="edge">
<title>Node3&#45;&gt;Node4</title>
<path fill="none" stroke="midnightblue" d="M409.79,-65.98C420.82,-62.51 432.66,-58.79 444.07,-55.21"/>
<polygon fill="midnightblue" stroke="midnightblue" points="445.46,-58.44 453.95,-52.1 443.36,-51.76 445.46,-58.44"/>
</g>
<!-- Node5 -->
<g id="node5" class="node">
<title>Node5</title>
<g id="a_node5"><a xlink:href="namespaceerror__msg__class.html#a7e065585cc806a5c264de1f088266498" target="_top" xlink:title="Converts a given integer to a string.">
<polygon fill="white" stroke="black" points="596,-22 596,-52 700,-52 700,-22 596,-22"/>
<text text-anchor="start" x="604" y="-40" font-family="Helvetica,sans-Serif" font-size="10.00">error_msg_class::int</text>
<text text-anchor="middle" x="648" y="-29" font-family="Helvetica,sans-Serif" font-size="10.00">_to_str</text>
</a>
</g>
</g>
<!-- Node4&#45;&gt;Node5 -->
<g id="edge4" class="edge">
<title>Node4&#45;&gt;Node5</title>
<path fill="none" stroke="midnightblue" d="M560.11,-37C568.45,-37 577.09,-37 585.54,-37"/>
<polygon fill="midnightblue" stroke="midnightblue" points="585.71,-40.5 595.71,-37 585.71,-33.5 585.71,-40.5"/>
</g>
</g>
</svg>
