<?xml version="1.0" encoding="UTF-8" standalone="no"?>
<!DOCTYPE svg PUBLIC "-//W3C//DTD SVG 1.1//EN"
 "http://www.w3.org/Graphics/SVG/1.1/DTD/svg11.dtd">
<!-- Generated by graphviz version 2.44.0 ()
 -->
<!-- Title: tw_rate_module::read_theoretical_weak_rates Pages: 1 -->
<svg width="790pt" height="354pt"
 viewBox="0.00 0.00 790.00 353.87" xmlns="http://www.w3.org/2000/svg" xmlns:xlink="http://www.w3.org/1999/xlink">
<g id="graph0" class="graph" transform="scale(1 1) rotate(0) translate(4 349.87)">
<title>tw_rate_module::read_theoretical_weak_rates</title>
<polygon fill="white" stroke="transparent" points="-4,4 -4,-349.87 786,-349.87 786,4 -4,4"/>
<!-- Node1 -->
<g id="node1" class="node">
<title>Node1</title>
<g id="a_node1"><a xlink:title="Reads and counts the amount of theoretical weak rates.">
<polygon fill="#bfbfbf" stroke="black" points="0,-190.57 0,-220.57 122,-220.57 122,-190.57 0,-190.57"/>
<text text-anchor="start" x="8" y="-208.57" font-family="Helvetica,sans-Serif" font-size="10.00">tw_rate_module::read</text>
<text text-anchor="middle" x="61" y="-197.57" font-family="Helvetica,sans-Serif" font-size="10.00">_theoretical_weak_rates</text>
</a>
</g>
</g>
<!-- Node2 -->
<g id="node2" class="node">
<title>Node2</title>
<g id="a_node2"><a xlink:href="namespacebenam__class.html#af8144ea43fb40187e32fb83da48458f1" target="_top" xlink:title="Returns the 1/n! factor where n is the number of equal isotopes entering a reaction....">
<polygon fill="white" stroke="black" points="159,-300.07 159,-319.07 300,-319.07 300,-300.07 159,-300.07"/>
<text text-anchor="middle" x="229.5" y="-307.07" font-family="Helvetica,sans-Serif" font-size="10.00">benam_class::getcoefficients</text>
</a>
</g>
</g>
<!-- Node1&#45;&gt;Node2 -->
<g id="edge1" class="edge">
<title>Node1&#45;&gt;Node2</title>
<path fill="none" stroke="midnightblue" d="M75.04,-220.82C92.17,-239.91 124.09,-272.31 158,-290.57 162.24,-292.86 166.78,-294.88 171.43,-296.67"/>
<polygon fill="midnightblue" stroke="midnightblue" points="170.47,-300.05 181.07,-300.03 172.78,-293.44 170.47,-300.05"/>
</g>
<!-- Node3 -->
<g id="node3" class="node">
<title>Node3</title>
<g id="a_node3"><a xlink:href="namespacefile__handling__class.html#aab870caaf9cbaaf635d537708efbf793" target="_top" xlink:title="Same for reading (input file)">
<polygon fill="white" stroke="black" points="180.5,-250.57 180.5,-280.57 278.5,-280.57 278.5,-250.57 180.5,-250.57"/>
<text text-anchor="start" x="188.5" y="-268.57" font-family="Helvetica,sans-Serif" font-size="10.00">file_handling_class</text>
<text text-anchor="middle" x="229.5" y="-257.57" font-family="Helvetica,sans-Serif" font-size="10.00">::open_infile</text>
</a>
</g>
</g>
<!-- Node1&#45;&gt;Node3 -->
<g id="edge2" class="edge">
<title>Node1&#45;&gt;Node3</title>
<path fill="none" stroke="midnightblue" d="M104.01,-220.71C126.28,-228.74 153.82,-238.66 177.32,-247.13"/>
<polygon fill="midnightblue" stroke="midnightblue" points="176.19,-250.44 186.79,-250.54 178.57,-243.86 176.19,-250.44"/>
</g>
<!-- Node7 -->
<g id="node7" class="node">
<title>Node7</title>
<g id="a_node7"><a xlink:href="namespacetw__rate__module.html#aa8edd1fc29f46e7564d308ac68d43e55" target="_top" xlink:title="Reads weak reaction rates in log format.">
<polygon fill="white" stroke="black" points="163.5,-166.57 163.5,-196.57 295.5,-196.57 295.5,-166.57 163.5,-166.57"/>
<text text-anchor="start" x="171.5" y="-184.57" font-family="Helvetica,sans-Serif" font-size="10.00">tw_rate_module::readweak</text>
<text text-anchor="middle" x="229.5" y="-173.57" font-family="Helvetica,sans-Serif" font-size="10.00">_logft</text>
</a>
</g>
</g>
<!-- Node1&#45;&gt;Node7 -->
<g id="edge7" class="edge">
<title>Node1&#45;&gt;Node7</title>
<path fill="none" stroke="midnightblue" d="M122.11,-196.91C132.28,-195.44 142.94,-193.9 153.43,-192.39"/>
<polygon fill="midnightblue" stroke="midnightblue" points="154.01,-195.84 163.41,-190.95 153.01,-188.92 154.01,-195.84"/>
</g>
<!-- Node14 -->
<g id="node14" class="node">
<title>Node14</title>
<g id="a_node14"><a xlink:href="namespacemergesort__module.html#a350624bb77af754147cd68332b16b9e5" target="_top" xlink:title="Sorts chapter one of the rate array.">
<polygon fill="white" stroke="black" points="158,-128.07 158,-147.07 301,-147.07 301,-128.07 158,-128.07"/>
<text text-anchor="middle" x="229.5" y="-135.07" font-family="Helvetica,sans-Serif" font-size="10.00">mergesort_module::rrate_sort</text>
</a>
</g>
</g>
<!-- Node1&#45;&gt;Node14 -->
<g id="edge21" class="edge">
<title>Node1&#45;&gt;Node14</title>
<path fill="none" stroke="midnightblue" d="M87.81,-190.53C106.76,-179.95 133.38,-166.05 158,-156.57 164.28,-154.15 170.98,-151.92 177.67,-149.9"/>
<polygon fill="midnightblue" stroke="midnightblue" points="178.76,-153.23 187.4,-147.1 176.82,-146.5 178.76,-153.23"/>
</g>
<!-- Node4 -->
<g id="node4" class="node">
<title>Node4</title>
<g id="a_node4"><a xlink:href="namespacefile__handling__class.html#af02196bd5eaf70ecd5ab4cc650094d5e" target="_top" xlink:title="Finds the next unused unit number.">
<polygon fill="white" stroke="black" points="361,-286.57 361,-316.57 459,-316.57 459,-286.57 361,-286.57"/>
<text text-anchor="start" x="369" y="-304.57" font-family="Helvetica,sans-Serif" font-size="10.00">file_handling_class</text>
<text text-anchor="middle" x="410" y="-293.57" font-family="Helvetica,sans-Serif" font-size="10.00">::get_next_io_unit</text>
</a>
</g>
</g>
<!-- Node3&#45;&gt;Node4 -->
<g id="edge3" class="edge">
<title>Node3&#45;&gt;Node4</title>
<path fill="none" stroke="midnightblue" d="M278.8,-275.31C301.02,-279.79 327.56,-285.15 350.86,-289.85"/>
<polygon fill="midnightblue" stroke="midnightblue" points="350.47,-293.34 360.97,-291.88 351.86,-286.48 350.47,-293.34"/>
</g>
<!-- Node5 -->
<g id="node5" class="node">
<title>Node5</title>
<g id="a_node5"><a xlink:href="namespaceerror__msg__class.html#a2453d3b7cb363115c046840baa1dfb75" target="_top" xlink:title="Raise a exception with a given error message.">
<polygon fill="white" stroke="black" points="523.5,-204.57 523.5,-234.57 637.5,-234.57 637.5,-204.57 523.5,-204.57"/>
<text text-anchor="start" x="531.5" y="-222.57" font-family="Helvetica,sans-Serif" font-size="10.00">error_msg_class::raise</text>
<text text-anchor="middle" x="580.5" y="-211.57" font-family="Helvetica,sans-Serif" font-size="10.00">_exception</text>
</a>
</g>
</g>
<!-- Node3&#45;&gt;Node5 -->
<g id="edge6" class="edge">
<title>Node3&#45;&gt;Node5</title>
<path fill="none" stroke="midnightblue" d="M278.87,-279.48C286.55,-282.59 294.19,-286.27 301,-290.57 320.13,-302.65 316.09,-317.91 337,-326.57 396.95,-351.4 423.71,-352.94 483,-326.57 520.86,-309.73 550.13,-269.88 566.07,-243.85"/>
<polygon fill="midnightblue" stroke="midnightblue" points="569.26,-245.34 571.34,-234.96 563.23,-241.78 569.26,-245.34"/>
</g>
<!-- Node4&#45;&gt;Node5 -->
<g id="edge4" class="edge">
<title>Node4&#45;&gt;Node5</title>
<path fill="none" stroke="midnightblue" d="M449.05,-286.54C460.1,-281.96 472.12,-276.75 483,-271.57 503.63,-261.75 526.14,-249.7 544.22,-239.67"/>
<polygon fill="midnightblue" stroke="midnightblue" points="546.22,-242.57 553.24,-234.64 542.8,-236.46 546.22,-242.57"/>
</g>
<!-- Node6 -->
<g id="node6" class="node">
<title>Node6</title>
<g id="a_node6"><a xlink:href="namespaceerror__msg__class.html#a7e065585cc806a5c264de1f088266498" target="_top" xlink:title="Converts a given integer to a string.">
<polygon fill="white" stroke="black" points="678,-109.57 678,-139.57 782,-139.57 782,-109.57 678,-109.57"/>
<text text-anchor="start" x="686" y="-127.57" font-family="Helvetica,sans-Serif" font-size="10.00">error_msg_class::int</text>
<text text-anchor="middle" x="730" y="-116.57" font-family="Helvetica,sans-Serif" font-size="10.00">_to_str</text>
</a>
</g>
</g>
<!-- Node5&#45;&gt;Node6 -->
<g id="edge5" class="edge">
<title>Node5&#45;&gt;Node6</title>
<path fill="none" stroke="midnightblue" d="M604.87,-204.52C629.65,-188.56 668.95,-163.25 696.68,-145.38"/>
<polygon fill="midnightblue" stroke="midnightblue" points="698.74,-148.23 705.25,-139.87 694.95,-142.34 698.74,-148.23"/>
</g>
<!-- Node7&#45;&gt;Node5 -->
<g id="edge15" class="edge">
<title>Node7&#45;&gt;Node5</title>
<path fill="none" stroke="midnightblue" d="M251.24,-196.69C271.83,-210.69 304.86,-230.51 337,-238.57 395.44,-253.23 464.06,-245.65 513.36,-236.06"/>
<polygon fill="midnightblue" stroke="midnightblue" points="514.16,-239.47 523.27,-234.06 512.77,-232.61 514.16,-239.47"/>
</g>
<!-- Node7&#45;&gt;Node6 -->
<g id="edge14" class="edge">
<title>Node7&#45;&gt;Node6</title>
<path fill="none" stroke="midnightblue" d="M287.92,-166.53C292.72,-163.75 297.18,-160.46 301,-156.57 336.44,-120.46 295.95,-78.16 337,-48.57 446.97,30.69 515.09,-0.94 642,-48.57 670.01,-59.08 694.91,-83.14 710.82,-101.4"/>
<polygon fill="midnightblue" stroke="midnightblue" points="708.36,-103.91 717.48,-109.31 713.72,-99.4 708.36,-103.91"/>
</g>
<!-- Node8 -->
<g id="node8" class="node">
<title>Node8</title>
<g id="a_node8"><a xlink:href="namespacebenam__class.html#ad20c821347dd5f7c08dff59c98e69657" target="_top" xlink:title="Returns the index number of isotope &#39;name&#39;.">
<polygon fill="white" stroke="black" points="356,-172.07 356,-191.07 464,-191.07 464,-172.07 356,-172.07"/>
<text text-anchor="middle" x="410" y="-179.07" font-family="Helvetica,sans-Serif" font-size="10.00">benam_class::benam</text>
</a>
</g>
</g>
<!-- Node7&#45;&gt;Node8 -->
<g id="edge8" class="edge">
<title>Node7&#45;&gt;Node8</title>
<path fill="none" stroke="midnightblue" d="M295.7,-181.57C311.96,-181.57 329.37,-181.57 345.54,-181.57"/>
<polygon fill="midnightblue" stroke="midnightblue" points="345.96,-185.07 355.96,-181.57 345.96,-178.07 345.96,-185.07"/>
</g>
<!-- Node9 -->
<g id="node9" class="node">
<title>Node9</title>
<g id="a_node9"><a xlink:href="namespacemergesort__module.html#a68c6cd380e0fbe122d41846adf3f6a5d" target="_top" xlink:title="Bubblesort of array.">
<polygon fill="white" stroke="black" points="337,-96.07 337,-115.07 483,-115.07 483,-96.07 337,-96.07"/>
<text text-anchor="middle" x="410" y="-103.07" font-family="Helvetica,sans-Serif" font-size="10.00">mergesort_module::bubblesort</text>
</a>
</g>
</g>
<!-- Node7&#45;&gt;Node9 -->
<g id="edge9" class="edge">
<title>Node7&#45;&gt;Node9</title>
<path fill="none" stroke="midnightblue" d="M280.52,-166.56C287.6,-163.67 294.63,-160.34 301,-156.57 319.43,-145.68 318.14,-134.69 337,-124.57 341.26,-122.29 345.81,-120.26 350.48,-118.47"/>
<polygon fill="midnightblue" stroke="midnightblue" points="351.87,-121.7 360.17,-115.12 349.58,-115.08 351.87,-121.7"/>
</g>
<!-- Node10 -->
<g id="node10" class="node">
<title>Node10</title>
<g id="a_node10"><a xlink:href="namespacebenam__class.html#a65ba3b223cf1227557d9e4ab1fdab4dd" target="_top" xlink:title="Converts isotope names of weak&#45;table format to the ones in reaclib.">
<polygon fill="white" stroke="black" points="354.5,-58.07 354.5,-77.07 465.5,-77.07 465.5,-58.07 354.5,-58.07"/>
<text text-anchor="middle" x="410" y="-65.07" font-family="Helvetica,sans-Serif" font-size="10.00">benam_class::convert</text>
</a>
</g>
</g>
<!-- Node7&#45;&gt;Node10 -->
<g id="edge12" class="edge">
<title>Node7&#45;&gt;Node10</title>
<path fill="none" stroke="midnightblue" d="M286.26,-166.46C291.57,-163.68 296.6,-160.42 301,-156.57 327.34,-133.55 309.73,-108.48 337,-86.57 339.57,-84.51 342.34,-82.66 345.25,-81.02"/>
<polygon fill="midnightblue" stroke="midnightblue" points="346.82,-84.15 354.32,-76.66 343.79,-77.84 346.82,-84.15"/>
</g>
<!-- Node12 -->
<g id="node12" class="node">
<title>Node12</title>
<g id="a_node12"><a xlink:href="namespacemergesort__module.html#a6276f21e37053ec65a8da23e55cd311c" target="_top" xlink:title="Takes an array and an array with indices to reorder the first array.">
<polygon fill="white" stroke="black" points="344.5,-134.07 344.5,-153.07 475.5,-153.07 475.5,-134.07 344.5,-134.07"/>
<text text-anchor="middle" x="410" y="-141.07" font-family="Helvetica,sans-Serif" font-size="10.00">mergesort_module::reorder</text>
</a>
</g>
</g>
<!-- Node7&#45;&gt;Node12 -->
<g id="edge16" class="edge">
<title>Node7&#45;&gt;Node12</title>
<path fill="none" stroke="midnightblue" d="M295.7,-167.69C314.94,-163.59 335.8,-159.15 354.31,-155.21"/>
<polygon fill="midnightblue" stroke="midnightblue" points="355.27,-158.59 364.32,-153.08 353.81,-151.74 355.27,-158.59"/>
</g>
<!-- Node13 -->
<g id="node13" class="node">
<title>Node13</title>
<g id="a_node13"><a xlink:href="namespacetw__rate__module.html#a245abf84e3851a5ce7d9b88a55919e0e" target="_top" xlink:title="Sorts the entries in weak_rate in increasing order of the decaying nuclide.">
<polygon fill="white" stroke="black" points="356.5,-210.07 356.5,-229.07 463.5,-229.07 463.5,-210.07 356.5,-210.07"/>
<text text-anchor="middle" x="410" y="-217.07" font-family="Helvetica,sans-Serif" font-size="10.00">tw_rate_module::sort</text>
</a>
</g>
</g>
<!-- Node7&#45;&gt;Node13 -->
<g id="edge19" class="edge">
<title>Node7&#45;&gt;Node13</title>
<path fill="none" stroke="midnightblue" d="M295.7,-195.45C314.94,-199.55 335.8,-203.99 354.31,-207.93"/>
<polygon fill="midnightblue" stroke="midnightblue" points="353.81,-211.4 364.32,-210.06 355.27,-204.56 353.81,-211.4"/>
</g>
<!-- Node9&#45;&gt;Node5 -->
<g id="edge11" class="edge">
<title>Node9&#45;&gt;Node5</title>
<path fill="none" stroke="midnightblue" d="M461.14,-115.18C468.72,-117.65 476.26,-120.73 483,-124.57 515.1,-142.86 544.15,-174.49 561.8,-196.19"/>
<polygon fill="midnightblue" stroke="midnightblue" points="559.25,-198.6 568.21,-204.26 564.73,-194.25 559.25,-198.6"/>
</g>
<!-- Node9&#45;&gt;Node6 -->
<g id="edge10" class="edge">
<title>Node9&#45;&gt;Node6</title>
<path fill="none" stroke="midnightblue" d="M483.16,-109.88C538.82,-113.21 614.96,-117.76 667.7,-120.91"/>
<polygon fill="midnightblue" stroke="midnightblue" points="667.73,-124.42 677.92,-121.52 668.15,-117.43 667.73,-124.42"/>
</g>
<!-- Node11 -->
<g id="node11" class="node">
<title>Node11</title>
<g id="a_node11"><a xlink:href="namespacebenam__class.html#a230a820332630678a8a7b4fd112cfd63" target="_top" xlink:title="Returns lowercase of input string. Numbers are not changed.">
<polygon fill="white" stroke="black" points="519,-58.07 519,-77.07 642,-77.07 642,-58.07 519,-58.07"/>
<text text-anchor="middle" x="580.5" y="-65.07" font-family="Helvetica,sans-Serif" font-size="10.00">benam_class::lowercase</text>
</a>
</g>
</g>
<!-- Node10&#45;&gt;Node11 -->
<g id="edge13" class="edge">
<title>Node10&#45;&gt;Node11</title>
<path fill="none" stroke="midnightblue" d="M465.71,-67.57C479.39,-67.57 494.27,-67.57 508.62,-67.57"/>
<polygon fill="midnightblue" stroke="midnightblue" points="508.95,-71.07 518.95,-67.57 508.95,-64.07 508.95,-71.07"/>
</g>
<!-- Node12&#45;&gt;Node5 -->
<g id="edge18" class="edge">
<title>Node12&#45;&gt;Node5</title>
<path fill="none" stroke="midnightblue" d="M455.05,-153.13C464.43,-155.74 474.17,-158.88 483,-162.57 506.3,-172.31 530.77,-186.82 549.24,-198.76"/>
<polygon fill="midnightblue" stroke="midnightblue" points="547.52,-201.82 557.8,-204.39 551.36,-195.97 547.52,-201.82"/>
</g>
<!-- Node12&#45;&gt;Node6 -->
<g id="edge17" class="edge">
<title>Node12&#45;&gt;Node6</title>
<path fill="none" stroke="midnightblue" d="M475.74,-139.7C531.86,-136.35 612.52,-131.53 667.64,-128.24"/>
<polygon fill="midnightblue" stroke="midnightblue" points="668.19,-131.71 677.96,-127.62 667.77,-124.72 668.19,-131.71"/>
</g>
<!-- Node13&#45;&gt;Node5 -->
<g id="edge20" class="edge">
<title>Node13&#45;&gt;Node5</title>
<path fill="none" stroke="midnightblue" d="M463.85,-219.57C479.52,-219.57 496.87,-219.57 513.27,-219.57"/>
<polygon fill="midnightblue" stroke="midnightblue" points="513.34,-223.07 523.34,-219.57 513.34,-216.07 513.34,-223.07"/>
</g>
</g>
</svg>
