<?xml version="1.0" encoding="UTF-8" standalone="no"?>
<!DOCTYPE svg PUBLIC "-//W3C//DTD SVG 1.1//EN"
 "http://www.w3.org/Graphics/SVG/1.1/DTD/svg11.dtd">
<!-- Generated by graphviz version 2.44.0 ()
 -->
<!-- Title: parameter_class::read_param Pages: 1 -->
<!--zoomable 367 -->
<svg id="main" version="1.1" xmlns="http://www.w3.org/2000/svg" xmlns:xlink="http://www.w3.org/1999/xlink" xml:space="preserve" onload="init(evt)">
<style type="text/css"><![CDATA[
.edge:hover path { stroke: red; }
.edge:hover polygon { stroke: red; fill: red; }
]]></style>
<script type="text/javascript"><![CDATA[
var edges = document.getElementsByTagName('g');
if (edges && edges.length) {
  for (var i=0;i<edges.length;i++) {
    if (edges[i].id.substr(0,4)=='edge') {
      edges[i].setAttribute('class','edge');
    }
  }
}
]]></script>
        <defs>
                <circle id="rim" cx="0" cy="0" r="7"/>
                <circle id="rim2" cx="0" cy="0" r="3.5"/>
                <g id="zoomPlus">
                        <use xlink:href="#rim" fill="#404040">
                                <set attributeName="fill" to="#808080" begin="zoomplus.mouseover" end="zoomplus.mouseout"/>
                        </use>
                        <path d="M-4,0h8M0,-4v8" fill="none" stroke="white" stroke-width="1.5" pointer-events="none"/>
                </g>
                <g id="zoomMin">
                        <use xlink:href="#rim" fill="#404040">
                                <set attributeName="fill" to="#808080" begin="zoomminus.mouseover" end="zoomminus.mouseout"/>
                        </use>
                        <path d="M-4,0h8" fill="none" stroke="white" stroke-width="1.5" pointer-events="none"/>
                </g>
                <g id="dirArrow">
                        <path fill="none" stroke="white" stroke-width="1.5" d="M0,-3.0v7 M-2.5,-0.5L0,-3.0L2.5,-0.5"/>
                </g>
               <g id="resetDef">
                       <use xlink:href="#rim2" fill="#404040">
                               <set attributeName="fill" to="#808080" begin="reset.mouseover" end="reset.mouseout"/>
                       </use>
               </g>
        </defs>

<script type="text/javascript">
var viewWidth = 926;
var viewHeight = 367;
var sectionId = 'dynsection-5';
</script>
<script xlink:href="svgpan.js"/>
<svg id="graph" class="graph">
<g id="viewport">
<title>parameter_class::read_param</title>
<polygon fill="white" stroke="transparent" points="-4,4 -4,-362.92 922,-362.92 922,4 -4,4"/>
<!-- Node1 -->
<g id="node1" class="node">
<title>Node1</title>
<g id="a_node1"><a xlink:title="This function reads the parameter file.">
<polygon fill="#bfbfbf" stroke="black" points="0,-90 0,-120 112,-120 112,-90 0,-90"/>
<text text-anchor="start" x="8" y="-108" font-family="Helvetica,sans-Serif" font-size="10.00">parameter_class::read</text>
<text text-anchor="middle" x="56" y="-97" font-family="Helvetica,sans-Serif" font-size="10.00">_param</text>
</a>
</g>
</g>
<!-- Node2 -->
<g id="node2" class="node">
<title>Node2</title>
<g id="a_node2"><a xlink:href="namespaceparameter__class.html#abf23565b6e687986d3a13c46796c8976" target="_top" xlink:title="Check for consistency of parameter.">
<polygon fill="white" stroke="black" points="479,-29 479,-59 598,-59 598,-29 479,-29"/>
<text text-anchor="start" x="487" y="-47" font-family="Helvetica,sans-Serif" font-size="10.00">parameter_class::check</text>
<text text-anchor="middle" x="538.5" y="-36" font-family="Helvetica,sans-Serif" font-size="10.00">_param</text>
</a>
</g>
</g>
<!-- Node1&#45;&gt;Node2 -->
<g id="edge1" class="edge">
<title>Node1&#45;&gt;Node2</title>
<path fill="none" stroke="midnightblue" d="M112.12,-98C200.24,-86.82 372.67,-64.93 468.73,-52.73"/>
<polygon fill="midnightblue" stroke="midnightblue" points="469.44,-56.17 478.92,-51.44 468.55,-49.22 469.44,-56.17"/>
</g>
<!-- Node3 -->
<g id="node3" class="node">
<title>Node3</title>
<g id="a_node3"><a xlink:href="namespaceerror__msg__class.html#a7e065585cc806a5c264de1f088266498" target="_top" xlink:title="Converts a given integer to a string.">
<polygon fill="white" stroke="black" points="814,-26 814,-56 918,-56 918,-26 814,-26"/>
<text text-anchor="start" x="822" y="-44" font-family="Helvetica,sans-Serif" font-size="10.00">error_msg_class::int</text>
<text text-anchor="middle" x="866" y="-33" font-family="Helvetica,sans-Serif" font-size="10.00">_to_str</text>
</a>
</g>
</g>
<!-- Node1&#45;&gt;Node3 -->
<g id="edge6" class="edge">
<title>Node1&#45;&gt;Node3</title>
<path fill="none" stroke="midnightblue" d="M81.12,-89.96C130.05,-60.92 245.31,0 351,0 351,0 351,0 539.5,0 632.22,0 738.64,-16.58 803.85,-28.65"/>
<polygon fill="midnightblue" stroke="midnightblue" points="803.47,-32.14 813.95,-30.55 804.77,-25.26 803.47,-32.14"/>
</g>
<!-- Node5 -->
<g id="node5" class="node">
<title>Node5</title>
<g id="a_node5"><a xlink:href="namespaceerror__msg__class.html#a2453d3b7cb363115c046840baa1dfb75" target="_top" xlink:title="Raise a exception with a given error message.">
<polygon fill="white" stroke="black" points="664,-161 664,-191 778,-191 778,-161 664,-161"/>
<text text-anchor="start" x="672" y="-179" font-family="Helvetica,sans-Serif" font-size="10.00">error_msg_class::raise</text>
<text text-anchor="middle" x="721" y="-168" font-family="Helvetica,sans-Serif" font-size="10.00">_exception</text>
</a>
</g>
</g>
<!-- Node1&#45;&gt;Node5 -->
<g id="edge11" class="edge">
<title>Node1&#45;&gt;Node5</title>
<path fill="none" stroke="midnightblue" d="M63.99,-120.05C77.09,-146.87 107.69,-203.34 148,-238 201.51,-284.01 222.97,-288.25 291,-307 435.52,-346.84 496.64,-393.22 628,-321 674.64,-295.36 700.97,-234.96 712.64,-200.75"/>
<polygon fill="midnightblue" stroke="midnightblue" points="716.03,-201.64 715.79,-191.05 709.37,-199.47 716.03,-201.64"/>
</g>
<!-- Node6 -->
<g id="node6" class="node">
<title>Node6</title>
<g id="a_node6"><a xlink:href="namespacefile__handling__class.html#aab870caaf9cbaaf635d537708efbf793" target="_top" xlink:title="Same for reading (input file)">
<polygon fill="white" stroke="black" points="303,-90 303,-120 401,-120 401,-90 303,-90"/>
<text text-anchor="start" x="311" y="-108" font-family="Helvetica,sans-Serif" font-size="10.00">file_handling_class</text>
<text text-anchor="middle" x="352" y="-97" font-family="Helvetica,sans-Serif" font-size="10.00">::open_infile</text>
</a>
</g>
</g>
<!-- Node1&#45;&gt;Node6 -->
<g id="edge7" class="edge">
<title>Node1&#45;&gt;Node6</title>
<path fill="none" stroke="midnightblue" d="M112.3,-105C163.76,-105 240.18,-105 292.61,-105"/>
<polygon fill="midnightblue" stroke="midnightblue" points="292.77,-108.5 302.77,-105 292.77,-101.5 292.77,-108.5"/>
</g>
<!-- Node8 -->
<g id="node8" class="node">
<title>Node8</title>
<g id="a_node8"><a xlink:href="namespaceparameter__class.html#a1732f13c754204b16d3e3b7bf429ab05" target="_top" xlink:title="Sets a global parameter param_name to the value, given by its string representation param_value.">
<polygon fill="white" stroke="black" points="148,-199 148,-229 255,-229 255,-199 148,-199"/>
<text text-anchor="start" x="156" y="-217" font-family="Helvetica,sans-Serif" font-size="10.00">parameter_class::set</text>
<text text-anchor="middle" x="201.5" y="-206" font-family="Helvetica,sans-Serif" font-size="10.00">_param</text>
</a>
</g>
</g>
<!-- Node1&#45;&gt;Node8 -->
<g id="edge12" class="edge">
<title>Node1&#45;&gt;Node8</title>
<path fill="none" stroke="midnightblue" d="M76.95,-120.16C101.8,-139.03 144.39,-171.38 172.49,-192.73"/>
<polygon fill="midnightblue" stroke="midnightblue" points="170.64,-195.71 180.72,-198.97 174.87,-190.14 170.64,-195.71"/>
</g>
<!-- Node2&#45;&gt;Node3 -->
<g id="edge2" class="edge">
<title>Node2&#45;&gt;Node3</title>
<path fill="none" stroke="midnightblue" d="M598.07,-43.46C656.08,-42.93 744.57,-42.11 803.57,-41.57"/>
<polygon fill="midnightblue" stroke="midnightblue" points="803.89,-45.06 813.86,-41.47 803.83,-38.06 803.89,-45.06"/>
</g>
<!-- Node4 -->
<g id="node4" class="node">
<title>Node4</title>
<g id="a_node4"><a xlink:href="namespaceerror__msg__class.html#a5bc9f3b670b725cc43276934b867d801" target="_top" xlink:title="Converts a given real to a string with format &quot;(1pE10.2)&quot;.">
<polygon fill="white" stroke="black" points="665,-70 665,-100 777,-100 777,-70 665,-70"/>
<text text-anchor="start" x="673" y="-88" font-family="Helvetica,sans-Serif" font-size="10.00">error_msg_class::num</text>
<text text-anchor="middle" x="721" y="-77" font-family="Helvetica,sans-Serif" font-size="10.00">_to_str</text>
</a>
</g>
</g>
<!-- Node2&#45;&gt;Node4 -->
<g id="edge3" class="edge">
<title>Node2&#45;&gt;Node4</title>
<path fill="none" stroke="midnightblue" d="M598.1,-57.31C616.25,-61.43 636.36,-66 654.92,-70.22"/>
<polygon fill="midnightblue" stroke="midnightblue" points="654.23,-73.65 664.76,-72.45 655.78,-66.82 654.23,-73.65"/>
</g>
<!-- Node2&#45;&gt;Node5 -->
<g id="edge4" class="edge">
<title>Node2&#45;&gt;Node5</title>
<path fill="none" stroke="midnightblue" d="M598.14,-59.14C608.53,-63.12 618.92,-68.03 628,-74 636.66,-79.7 675.98,-124.69 700.33,-152.99"/>
<polygon fill="midnightblue" stroke="midnightblue" points="697.89,-155.52 707.06,-160.82 703.2,-150.96 697.89,-155.52"/>
</g>
<!-- Node5&#45;&gt;Node3 -->
<g id="edge5" class="edge">
<title>Node5&#45;&gt;Node3</title>
<path fill="none" stroke="midnightblue" d="M738.13,-160.78C763.34,-136.98 812.22,-90.83 841.39,-63.29"/>
<polygon fill="midnightblue" stroke="midnightblue" points="843.84,-65.79 848.71,-56.38 839.04,-60.7 843.84,-65.79"/>
</g>
<!-- Node6&#45;&gt;Node5 -->
<g id="edge10" class="edge">
<title>Node6&#45;&gt;Node5</title>
<path fill="none" stroke="midnightblue" d="M401.2,-96.46C457.32,-88.51 552,-81.36 628,-107 655.56,-116.3 681.55,-137.36 698.83,-153.79"/>
<polygon fill="midnightblue" stroke="midnightblue" points="696.54,-156.44 706.13,-160.95 701.44,-151.45 696.54,-156.44"/>
</g>
<!-- Node7 -->
<g id="node7" class="node">
<title>Node7</title>
<g id="a_node7"><a xlink:href="namespacefile__handling__class.html#af02196bd5eaf70ecd5ab4cc650094d5e" target="_top" xlink:title="Finds the next unused unit number.">
<polygon fill="white" stroke="black" points="489.5,-117 489.5,-147 587.5,-147 587.5,-117 489.5,-117"/>
<text text-anchor="start" x="497.5" y="-135" font-family="Helvetica,sans-Serif" font-size="10.00">file_handling_class</text>
<text text-anchor="middle" x="538.5" y="-124" font-family="Helvetica,sans-Serif" font-size="10.00">::get_next_io_unit</text>
</a>
</g>
</g>
<!-- Node6&#45;&gt;Node7 -->
<g id="edge8" class="edge">
<title>Node6&#45;&gt;Node7</title>
<path fill="none" stroke="midnightblue" d="M401.48,-112.09C425.31,-115.58 454.22,-119.81 479.25,-123.48"/>
<polygon fill="midnightblue" stroke="midnightblue" points="478.95,-126.97 489.35,-124.95 479.96,-120.04 478.95,-126.97"/>
</g>
<!-- Node7&#45;&gt;Node5 -->
<g id="edge9" class="edge">
<title>Node7&#45;&gt;Node5</title>
<path fill="none" stroke="midnightblue" d="M587.87,-143.79C608.16,-148.74 632.07,-154.56 653.93,-159.9"/>
<polygon fill="midnightblue" stroke="midnightblue" points="653.27,-163.34 663.82,-162.3 654.93,-156.54 653.27,-163.34"/>
</g>
<!-- Node8&#45;&gt;Node5 -->
<g id="edge13" class="edge">
<title>Node8&#45;&gt;Node5</title>
<path fill="none" stroke="midnightblue" d="M255.31,-211.6C335.81,-207.72 494.03,-199.25 628,-187 636.29,-186.24 644.99,-185.34 653.59,-184.39"/>
<polygon fill="midnightblue" stroke="midnightblue" points="654.07,-187.85 663.61,-183.24 653.28,-180.9 654.07,-187.85"/>
</g>
<!-- Node9 -->
<g id="node9" class="node">
<title>Node9</title>
<g id="a_node9"><a xlink:href="namespaceparameter__class.html#a6dcc6b03adff66e992d7a0ad46ec517e" target="_top" xlink:title="Converts a string to an float.">
<polygon fill="white" stroke="black" points="296,-155 296,-185 408,-185 408,-155 296,-155"/>
<text text-anchor="start" x="304" y="-173" font-family="Helvetica,sans-Serif" font-size="10.00">parameter_class::read</text>
<text text-anchor="middle" x="352" y="-162" font-family="Helvetica,sans-Serif" font-size="10.00">_float_param</text>
</a>
</g>
</g>
<!-- Node8&#45;&gt;Node9 -->
<g id="edge14" class="edge">
<title>Node8&#45;&gt;Node9</title>
<path fill="none" stroke="midnightblue" d="M253.19,-198.98C265.19,-195.43 278.11,-191.6 290.49,-187.93"/>
<polygon fill="midnightblue" stroke="midnightblue" points="291.69,-191.22 300.29,-185.03 289.7,-184.51 291.69,-191.22"/>
</g>
<!-- Node10 -->
<g id="node10" class="node">
<title>Node10</title>
<g id="a_node10"><a xlink:href="namespaceparameter__class.html#ad9528991ff0e7998e4556c35113bdc1b" target="_top" xlink:title="Converts a string to an integer.">
<polygon fill="white" stroke="black" points="482.5,-281 482.5,-311 594.5,-311 594.5,-281 482.5,-281"/>
<text text-anchor="start" x="490.5" y="-299" font-family="Helvetica,sans-Serif" font-size="10.00">parameter_class::read</text>
<text text-anchor="middle" x="538.5" y="-288" font-family="Helvetica,sans-Serif" font-size="10.00">_integer_param</text>
</a>
</g>
</g>
<!-- Node8&#45;&gt;Node10 -->
<g id="edge16" class="edge">
<title>Node8&#45;&gt;Node10</title>
<path fill="none" stroke="midnightblue" d="M216.1,-229.09C232.15,-245.72 260.52,-271.62 291,-283 349.4,-304.81 421.03,-306.03 471.99,-303.02"/>
<polygon fill="midnightblue" stroke="midnightblue" points="472.47,-306.5 482.22,-302.34 472.01,-299.51 472.47,-306.5"/>
</g>
<!-- Node11 -->
<g id="node11" class="node">
<title>Node11</title>
<g id="a_node11"><a xlink:href="namespaceparameter__class.html#ac0277cbae2a8d4de25300cea11b59279" target="_top" xlink:title="Search for similar existing parameters.">
<polygon fill="white" stroke="black" points="291,-243 291,-273 413,-273 413,-243 291,-243"/>
<text text-anchor="start" x="299" y="-261" font-family="Helvetica,sans-Serif" font-size="10.00">parameter_class::search</text>
<text text-anchor="middle" x="352" y="-250" font-family="Helvetica,sans-Serif" font-size="10.00">_close_parameter</text>
</a>
</g>
</g>
<!-- Node8&#45;&gt;Node11 -->
<g id="edge18" class="edge">
<title>Node8&#45;&gt;Node11</title>
<path fill="none" stroke="midnightblue" d="M253.19,-229.02C265.19,-232.57 278.11,-236.4 290.49,-240.07"/>
<polygon fill="midnightblue" stroke="midnightblue" points="289.7,-243.49 300.29,-242.97 291.69,-236.78 289.7,-243.49"/>
</g>
<!-- Node9&#45;&gt;Node5 -->
<g id="edge15" class="edge">
<title>Node9&#45;&gt;Node5</title>
<path fill="none" stroke="midnightblue" d="M408.34,-170.9C474.09,-171.98 583.69,-173.77 653.85,-174.92"/>
<polygon fill="midnightblue" stroke="midnightblue" points="653.85,-178.42 663.91,-175.08 653.97,-171.42 653.85,-178.42"/>
</g>
<!-- Node10&#45;&gt;Node5 -->
<g id="edge17" class="edge">
<title>Node10&#45;&gt;Node5</title>
<path fill="none" stroke="midnightblue" d="M594.71,-285.24C606.18,-281.7 617.86,-277.06 628,-271 658.97,-252.5 686.59,-220.92 703.29,-199.28"/>
<polygon fill="midnightblue" stroke="midnightblue" points="706.13,-201.34 709.35,-191.25 700.54,-197.12 706.13,-201.34"/>
</g>
<!-- Node12 -->
<g id="node12" class="node">
<title>Node12</title>
<g id="a_node12"><a xlink:href="namespaceparameter__class.html#accc37bb66eee84405ee5b2ff3227688a" target="_top" xlink:title="Calculates the Levenshtein distance between two strings.">
<polygon fill="white" stroke="black" points="449,-242.5 449,-261.5 628,-261.5 628,-242.5 449,-242.5"/>
<text text-anchor="middle" x="538.5" y="-249.5" font-family="Helvetica,sans-Serif" font-size="10.00">parameter_class::levenshteindistance</text>
</a>
</g>
</g>
<!-- Node11&#45;&gt;Node12 -->
<g id="edge19" class="edge">
<title>Node11&#45;&gt;Node12</title>
<path fill="none" stroke="midnightblue" d="M413.16,-256.04C421.4,-255.78 430.02,-255.5 438.73,-255.21"/>
<polygon fill="midnightblue" stroke="midnightblue" points="439.09,-258.7 448.97,-254.88 438.86,-251.71 439.09,-258.7"/>
</g>
<!-- Node12&#45;&gt;Node5 -->
<g id="edge20" class="edge">
<title>Node12&#45;&gt;Node5</title>
<path fill="none" stroke="midnightblue" d="M583.43,-242.4C597.88,-238.63 613.86,-233.81 628,-228 648.96,-219.39 671.1,-206.99 688.41,-196.46"/>
<polygon fill="midnightblue" stroke="midnightblue" points="690.33,-199.39 696.99,-191.15 686.64,-193.44 690.33,-199.39"/>
</g>
</g>
</svg>
        <g id="navigator" transform="translate(0 0)" fill="#404254">
                <rect fill="#f2f5e9" fill-opacity="0.5" stroke="#606060" stroke-width=".5" x="0" y="0" width="60" height="60"/>
                <use id="zoomplus" xlink:href="#zoomPlus" x="17" y="9" onmousedown="handleZoom(evt,'in')"/>
                <use id="zoomminus" xlink:href="#zoomMin" x="42" y="9" onmousedown="handleZoom(evt,'out')"/>
                <use id="reset" xlink:href="#resetDef" x="30" y="36" onmousedown="handleReset()"/>
                <g id="arrowUp" xlink:href="#dirArrow" transform="translate(30 24)" onmousedown="handlePan(0,-1)">
                  <use xlink:href="#rim" fill="#404040">
                        <set attributeName="fill" to="#808080" begin="arrowUp.mouseover" end="arrowUp.mouseout"/>
                  </use>
                  <path fill="none" stroke="white" stroke-width="1.5" d="M0,-3.0v7 M-2.5,-0.5L0,-3.0L2.5,-0.5"/>
                </g>
                <g id="arrowRight" xlink:href="#dirArrow" transform="rotate(90) translate(36 -43)" onmousedown="handlePan(1,0)">
                  <use xlink:href="#rim" fill="#404040">
                        <set attributeName="fill" to="#808080" begin="arrowRight.mouseover" end="arrowRight.mouseout"/>
                  </use>
                  <path fill="none" stroke="white" stroke-width="1.5" d="M0,-3.0v7 M-2.5,-0.5L0,-3.0L2.5,-0.5"/>
                </g>
                <g id="arrowDown" xlink:href="#dirArrow" transform="rotate(180) translate(-30 -48)" onmousedown="handlePan(0,1)">
                  <use xlink:href="#rim" fill="#404040">
                        <set attributeName="fill" to="#808080" begin="arrowDown.mouseover" end="arrowDown.mouseout"/>
                  </use>
                  <path fill="none" stroke="white" stroke-width="1.5" d="M0,-3.0v7 M-2.5,-0.5L0,-3.0L2.5,-0.5"/>
                </g>
                <g id="arrowLeft" xlink:href="#dirArrow" transform="rotate(270) translate(-36 17)" onmousedown="handlePan(-1,0)">
                  <use xlink:href="#rim" fill="#404040">
                        <set attributeName="fill" to="#808080" begin="arrowLeft.mouseover" end="arrowLeft.mouseout"/>
                  </use>
                  <path fill="none" stroke="white" stroke-width="1.5" d="M0,-3.0v7 M-2.5,-0.5L0,-3.0L2.5,-0.5"/>
                </g>
        </g>
        <svg viewBox="0 0 15 15" width="100%" height="30px" preserveAspectRatio="xMaxYMin meet">
         <g id="arrow_out" transform="scale(0.3 0.3)">
          <a xlink:href="namespaceparameter__class_a127afa5266669ea32992497dfd626b3e_cgraph_org.svg" target="_base">
           <rect id="button" ry="5" rx="5" y="6" x="6" height="38" width="38"
                fill="#f2f5e9" fill-opacity="0.5" stroke="#606060" stroke-width="1.0"/>
           <path id="arrow"
             d="M 11.500037,31.436501 C 11.940474,20.09759 22.043105,11.32322 32.158766,21.979434 L 37.068811,17.246167 C 37.068811,17.246167 37.088388,32 37.088388,32 L 22.160133,31.978069 C 22.160133,31.978069 26.997745,27.140456 26.997745,27.140456 C 18.528582,18.264221 13.291696,25.230495 11.500037,31.436501 z"
             style="fill:#404040;"/>
          </a>
         </g>
        </svg>
</svg>
