<?xml version="1.0" encoding="UTF-8" standalone="no"?>
<!DOCTYPE svg PUBLIC "-//W3C//DTD SVG 1.1//EN"
 "http://www.w3.org/Graphics/SVG/1.1/DTD/svg11.dtd">
<!-- Generated by graphviz version 2.44.0 ()
 -->
<!-- Title: timestep_module::restrict_timestep Pages: 1 -->
<!--zoomable 699 -->
<svg id="main" version="1.1" xmlns="http://www.w3.org/2000/svg" xmlns:xlink="http://www.w3.org/1999/xlink" xml:space="preserve" onload="init(evt)">
<style type="text/css"><![CDATA[
.edge:hover path { stroke: red; }
.edge:hover polygon { stroke: red; fill: red; }
]]></style>
<script type="text/javascript"><![CDATA[
var edges = document.getElementsByTagName('g');
if (edges && edges.length) {
  for (var i=0;i<edges.length;i++) {
    if (edges[i].id.substr(0,4)=='edge') {
      edges[i].setAttribute('class','edge');
    }
  }
}
]]></script>
        <defs>
                <circle id="rim" cx="0" cy="0" r="7"/>
                <circle id="rim2" cx="0" cy="0" r="3.5"/>
                <g id="zoomPlus">
                        <use xlink:href="#rim" fill="#404040">
                                <set attributeName="fill" to="#808080" begin="zoomplus.mouseover" end="zoomplus.mouseout"/>
                        </use>
                        <path d="M-4,0h8M0,-4v8" fill="none" stroke="white" stroke-width="1.5" pointer-events="none"/>
                </g>
                <g id="zoomMin">
                        <use xlink:href="#rim" fill="#404040">
                                <set attributeName="fill" to="#808080" begin="zoomminus.mouseover" end="zoomminus.mouseout"/>
                        </use>
                        <path d="M-4,0h8" fill="none" stroke="white" stroke-width="1.5" pointer-events="none"/>
                </g>
                <g id="dirArrow">
                        <path fill="none" stroke="white" stroke-width="1.5" d="M0,-3.0v7 M-2.5,-0.5L0,-3.0L2.5,-0.5"/>
                </g>
               <g id="resetDef">
                       <use xlink:href="#rim2" fill="#404040">
                               <set attributeName="fill" to="#808080" begin="reset.mouseover" end="reset.mouseout"/>
                       </use>
               </g>
        </defs>

<script type="text/javascript">
var viewWidth = 1243;
var viewHeight = 699;
var sectionId = 'dynsection-3';
</script>
<script xlink:href="svgpan.js"/>
<svg id="graph" class="graph">
<g id="viewport">
<title>timestep_module::restrict_timestep</title>
<polygon fill="white" stroke="transparent" points="-4,4 -4,-694.5 1239,-694.5 1239,4 -4,4"/>
<!-- Node1 -->
<g id="node1" class="node">
<title>Node1</title>
<g id="a_node1"><a xlink:title="Restricting the previously selected timestep.">
<polygon fill="#bfbfbf" stroke="black" points="0,-125 0,-155 125,-155 125,-125 0,-125"/>
<text text-anchor="start" x="8" y="-143" font-family="Helvetica,sans-Serif" font-size="10.00">timestep_module::restrict</text>
<text text-anchor="middle" x="62.5" y="-132" font-family="Helvetica,sans-Serif" font-size="10.00">_timestep</text>
</a>
</g>
</g>
<!-- Node2 -->
<g id="node2" class="node">
<title>Node2</title>
<g id="a_node2"><a xlink:href="namespaceparser__module.html#aeb3f9da839f12180d2a21cae271f4de6" target="_top" xlink:title="Finds a value of the variable for a given y&#45;value.">
<polygon fill="white" stroke="black" points="177.5,-283 177.5,-313 277.5,-313 277.5,-283 177.5,-283"/>
<text text-anchor="start" x="185.5" y="-301" font-family="Helvetica,sans-Serif" font-size="10.00">parser_module::find</text>
<text text-anchor="middle" x="227.5" y="-290" font-family="Helvetica,sans-Serif" font-size="10.00">_start_value</text>
</a>
</g>
</g>
<!-- Node1&#45;&gt;Node2 -->
<g id="edge1" class="edge">
<title>Node1&#45;&gt;Node2</title>
<path fill="none" stroke="midnightblue" d="M79.13,-155.15C107.9,-183.04 169.38,-242.63 203.13,-275.34"/>
<polygon fill="midnightblue" stroke="midnightblue" points="201.06,-278.22 210.68,-282.66 205.93,-273.19 201.06,-278.22"/>
</g>
<!-- Node19 -->
<g id="node19" class="node">
<title>Node19</title>
<g id="a_node19"><a xlink:href="namespacegear__module.html#a01b3c050b4c0d3256659848dc76a0ecb" target="_top" xlink:title="The current timestep.">
<polygon fill="white" stroke="black" points="161,-168.5 161,-187.5 294,-187.5 294,-168.5 161,-168.5"/>
<text text-anchor="middle" x="227.5" y="-175.5" font-family="Helvetica,sans-Serif" font-size="10.00">gear_module::get_timestep</text>
</a>
</g>
</g>
<!-- Node1&#45;&gt;Node19 -->
<g id="edge22" class="edge">
<title>Node1&#45;&gt;Node19</title>
<path fill="none" stroke="midnightblue" d="M125.12,-154.37C141.69,-158.23 159.42,-162.36 175.35,-166.08"/>
<polygon fill="midnightblue" stroke="midnightblue" points="174.99,-169.59 185.53,-168.45 176.58,-162.77 174.99,-169.59"/>
</g>
<!-- Node20 -->
<g id="node20" class="node">
<title>Node20</title>
<g id="a_node20"><a xlink:href="namespaceinter__module.html#a206d3ceb40bd2e40d41c462a31ad057e" target="_top" xlink:title="Interface for 1D interpolation routines.">
<polygon fill="white" stroke="black" points="804.5,-111.5 804.5,-130.5 915.5,-130.5 915.5,-111.5 804.5,-111.5"/>
<text text-anchor="middle" x="860" y="-118.5" font-family="Helvetica,sans-Serif" font-size="10.00">inter_module::interp1d</text>
</a>
</g>
</g>
<!-- Node1&#45;&gt;Node20 -->
<g id="edge23" class="edge">
<title>Node1&#45;&gt;Node20</title>
<path fill="none" stroke="midnightblue" d="M112.58,-124.94C174.92,-107.16 286.14,-80 383.5,-80 383.5,-80 383.5,-80 537,-80 634.26,-80 658.8,-84.69 755,-99 772.85,-101.66 792.25,-105.49 809.39,-109.22"/>
<polygon fill="midnightblue" stroke="midnightblue" points="808.68,-112.65 819.2,-111.4 810.2,-105.82 808.68,-112.65"/>
</g>
<!-- Node27 -->
<g id="node27" class="node">
<title>Node27</title>
<g id="a_node27"><a xlink:href="namespaceinter__module.html#a85d255cd45a8968d3c7aa70b6d3eb6f3" target="_top" xlink:title="The inverse of the 1D interpolation function.">
<polygon fill="white" stroke="black" points="482,-136 482,-166 590,-166 590,-136 482,-136"/>
<text text-anchor="start" x="490" y="-154" font-family="Helvetica,sans-Serif" font-size="10.00">inter_module::inverse</text>
<text text-anchor="middle" x="536" y="-143" font-family="Helvetica,sans-Serif" font-size="10.00">_interp1d</text>
</a>
</g>
</g>
<!-- Node1&#45;&gt;Node27 -->
<g id="edge32" class="edge">
<title>Node1&#45;&gt;Node27</title>
<path fill="none" stroke="midnightblue" d="M125.14,-141.44C214.91,-143.53 380.79,-147.4 471.57,-149.52"/>
<polygon fill="midnightblue" stroke="midnightblue" points="471.64,-153.02 481.72,-149.76 471.8,-146.02 471.64,-153.02"/>
</g>
<!-- Node30 -->
<g id="node30" class="node">
<title>Node30</title>
<g id="a_node30"><a xlink:href="namespacegear__module.html#a292bc71ee0e40cc9722331071387a16e" target="_top" xlink:title="Set the current timestep.">
<polygon fill="white" stroke="black" points="161,-32.5 161,-51.5 294,-51.5 294,-32.5 161,-32.5"/>
<text text-anchor="middle" x="227.5" y="-39.5" font-family="Helvetica,sans-Serif" font-size="10.00">gear_module::set_timestep</text>
</a>
</g>
</g>
<!-- Node1&#45;&gt;Node30 -->
<g id="edge39" class="edge">
<title>Node1&#45;&gt;Node30</title>
<path fill="none" stroke="midnightblue" d="M80.04,-124.97C98.62,-108.7 130.23,-82.82 161,-66 168.56,-61.87 176.98,-58.18 185.2,-55"/>
<polygon fill="midnightblue" stroke="midnightblue" points="186.5,-58.25 194.68,-51.52 184.09,-51.68 186.5,-58.25"/>
</g>
<!-- Node3 -->
<g id="node3" class="node">
<title>Node3</title>
<g id="a_node3"><a xlink:href="namespaceparser__module.html#a4b68bd8515796701c2b006fe79a0b162" target="_top" xlink:title="Takes a string and evaluates the expression.">
<polygon fill="white" stroke="black" points="330,-321 330,-351 439,-351 439,-321 330,-321"/>
<text text-anchor="start" x="338" y="-339" font-family="Helvetica,sans-Serif" font-size="10.00">parser_module::parse</text>
<text text-anchor="middle" x="384.5" y="-328" font-family="Helvetica,sans-Serif" font-size="10.00">_string</text>
</a>
</g>
</g>
<!-- Node2&#45;&gt;Node3 -->
<g id="edge2" class="edge">
<title>Node2&#45;&gt;Node3</title>
<path fill="none" stroke="midnightblue" d="M277.54,-310.02C291.09,-313.34 305.99,-317 320.22,-320.49"/>
<polygon fill="midnightblue" stroke="midnightblue" points="319.39,-323.89 329.94,-322.87 321.06,-317.09 319.39,-323.89"/>
</g>
<!-- Node4 -->
<g id="node4" class="node">
<title>Node4</title>
<g id="a_node4"><a xlink:href="namespaceparser__module.html#a5c583c26539a886921a9067fa425bc9c" target="_top" xlink:title="Evaluate a complex string expression.">
<polygon fill="white" stroke="black" points="475,-387.5 475,-406.5 597,-406.5 597,-387.5 475,-387.5"/>
<text text-anchor="middle" x="536" y="-394.5" font-family="Helvetica,sans-Serif" font-size="10.00">parser_module::evaluate</text>
</a>
</g>
</g>
<!-- Node3&#45;&gt;Node4 -->
<g id="edge3" class="edge">
<title>Node3&#45;&gt;Node4</title>
<path fill="none" stroke="midnightblue" d="M422.46,-351.08C446.82,-361.02 478.45,-373.93 501.97,-383.52"/>
<polygon fill="midnightblue" stroke="midnightblue" points="500.93,-386.88 511.51,-387.42 503.57,-380.4 500.93,-386.88"/>
</g>
<!-- Node5 -->
<g id="node5" class="node">
<title>Node5</title>
<g id="a_node5"><a xlink:href="namespaceparser__module.html#ad50643e6694300972743edc44679fbf7" target="_top" xlink:title="Function to perform a function operations.">
<polygon fill="white" stroke="black" points="642.5,-273 642.5,-303 745.5,-303 745.5,-273 642.5,-273"/>
<text text-anchor="start" x="650.5" y="-291" font-family="Helvetica,sans-Serif" font-size="10.00">parser_module::eval</text>
<text text-anchor="middle" x="694" y="-280" font-family="Helvetica,sans-Serif" font-size="10.00">_function</text>
</a>
</g>
</g>
<!-- Node4&#45;&gt;Node5 -->
<g id="edge4" class="edge">
<title>Node4&#45;&gt;Node5</title>
<path fill="none" stroke="midnightblue" d="M550.84,-387.33C575.83,-369.87 628.99,-332.72 662.75,-309.13"/>
<polygon fill="midnightblue" stroke="midnightblue" points="665.11,-311.76 671.31,-303.16 661.1,-306.02 665.11,-311.76"/>
</g>
<!-- Node8 -->
<g id="node8" class="node">
<title>Node8</title>
<g id="a_node8"><a xlink:href="namespaceparser__module.html#ae4ed3c6a08e74ffd03282ee7c30d8194" target="_top" xlink:title="Evaluate a simple string expression, without brackets and functions.">
<polygon fill="white" stroke="black" points="645,-540 645,-570 743,-570 743,-540 645,-540"/>
<text text-anchor="start" x="653" y="-558" font-family="Helvetica,sans-Serif" font-size="10.00">parser_module::get</text>
<text text-anchor="middle" x="694" y="-547" font-family="Helvetica,sans-Serif" font-size="10.00">_simple_result</text>
</a>
</g>
</g>
<!-- Node4&#45;&gt;Node8 -->
<g id="edge7" class="edge">
<title>Node4&#45;&gt;Node8</title>
<path fill="none" stroke="midnightblue" d="M546.76,-406.88C571.32,-431.76 636.17,-497.44 670.67,-532.39"/>
<polygon fill="midnightblue" stroke="midnightblue" points="668.43,-535.1 677.95,-539.76 673.41,-530.18 668.43,-535.1"/>
</g>
<!-- Node13 -->
<g id="node13" class="node">
<title>Node13</title>
<g id="a_node13"><a xlink:href="namespaceparser__module.html#a4b73870fbca7e3195b5d1efc61c3f039" target="_top" xlink:title="Function to decide whether a character is a number or not (i.e., 0&#45;9).">
<polygon fill="white" stroke="black" points="636,-447.5 636,-466.5 752,-466.5 752,-447.5 636,-447.5"/>
<text text-anchor="middle" x="694" y="-454.5" font-family="Helvetica,sans-Serif" font-size="10.00">parser_module::is_digit</text>
</a>
</g>
</g>
<!-- Node4&#45;&gt;Node13 -->
<g id="edge14" class="edge">
<title>Node4&#45;&gt;Node13</title>
<path fill="none" stroke="midnightblue" d="M561.72,-406.51C587.89,-416.57 629.38,-432.53 658.7,-443.81"/>
<polygon fill="midnightblue" stroke="midnightblue" points="657.55,-447.12 668.14,-447.44 660.06,-440.58 657.55,-447.12"/>
</g>
<!-- Node14 -->
<g id="node14" class="node">
<title>Node14</title>
<g id="a_node14"><a xlink:href="namespaceparser__module.html#af9cbf87119ef07db357b3240c716e462" target="_top" xlink:title="Function to decide whether a character is a mathematical operator or not. Functions (as e....">
<polygon fill="white" stroke="black" points="793.5,-447.5 793.5,-466.5 926.5,-466.5 926.5,-447.5 793.5,-447.5"/>
<text text-anchor="middle" x="860" y="-454.5" font-family="Helvetica,sans-Serif" font-size="10.00">parser_module::is_operator</text>
</a>
</g>
</g>
<!-- Node4&#45;&gt;Node14 -->
<g id="edge15" class="edge">
<title>Node4&#45;&gt;Node14</title>
<path fill="none" stroke="midnightblue" d="M588.02,-406.51C645.05,-417.13 737.35,-434.33 798.11,-445.65"/>
<polygon fill="midnightblue" stroke="midnightblue" points="797.48,-449.1 807.95,-447.49 798.76,-442.22 797.48,-449.1"/>
</g>
<!-- Node15 -->
<g id="node15" class="node">
<title>Node15</title>
<g id="a_node15"><a xlink:href="namespaceparser__module.html#a3441e2e009e491fac044cc02bc9b144d" target="_top" xlink:title="Store mathematical operators (+&#45;*/) and numbers in arrays.">
<polygon fill="white" stroke="black" points="640.5,-360 640.5,-390 747.5,-390 747.5,-360 640.5,-360"/>
<text text-anchor="start" x="648.5" y="-378" font-family="Helvetica,sans-Serif" font-size="10.00">parser_module::store</text>
<text text-anchor="middle" x="694" y="-367" font-family="Helvetica,sans-Serif" font-size="10.00">_digits_operator</text>
</a>
</g>
</g>
<!-- Node4&#45;&gt;Node15 -->
<g id="edge16" class="edge">
<title>Node4&#45;&gt;Node15</title>
<path fill="none" stroke="midnightblue" d="M597.31,-388.49C608.21,-386.96 619.59,-385.35 630.55,-383.81"/>
<polygon fill="midnightblue" stroke="midnightblue" points="631.05,-387.27 640.47,-382.41 630.08,-380.34 631.05,-387.27"/>
</g>
<!-- Node6 -->
<g id="node6" class="node">
<title>Node6</title>
<g id="a_node6"><a xlink:href="namespaceerror__msg__class.html#a2453d3b7cb363115c046840baa1dfb75" target="_top" xlink:title="Raise a exception with a given error message.">
<polygon fill="white" stroke="black" points="973,-229 973,-259 1087,-259 1087,-229 973,-229"/>
<text text-anchor="start" x="981" y="-247" font-family="Helvetica,sans-Serif" font-size="10.00">error_msg_class::raise</text>
<text text-anchor="middle" x="1030" y="-236" font-family="Helvetica,sans-Serif" font-size="10.00">_exception</text>
</a>
</g>
</g>
<!-- Node5&#45;&gt;Node6 -->
<g id="edge5" class="edge">
<title>Node5&#45;&gt;Node6</title>
<path fill="none" stroke="midnightblue" d="M745.64,-276.41C760.22,-273.36 776.19,-270.28 791,-268 848.55,-259.13 914.45,-252.78 962.3,-248.84"/>
<polygon fill="midnightblue" stroke="midnightblue" points="962.84,-252.31 972.53,-248.02 962.28,-245.33 962.84,-252.31"/>
</g>
<!-- Node7 -->
<g id="node7" class="node">
<title>Node7</title>
<g id="a_node7"><a xlink:href="namespaceerror__msg__class.html#a7e065585cc806a5c264de1f088266498" target="_top" xlink:title="Converts a given integer to a string.">
<polygon fill="white" stroke="black" points="1131,-210 1131,-240 1235,-240 1235,-210 1131,-210"/>
<text text-anchor="start" x="1139" y="-228" font-family="Helvetica,sans-Serif" font-size="10.00">error_msg_class::int</text>
<text text-anchor="middle" x="1183" y="-217" font-family="Helvetica,sans-Serif" font-size="10.00">_to_str</text>
</a>
</g>
</g>
<!-- Node6&#45;&gt;Node7 -->
<g id="edge6" class="edge">
<title>Node6&#45;&gt;Node7</title>
<path fill="none" stroke="midnightblue" d="M1087.23,-236.93C1098.14,-235.55 1109.63,-234.11 1120.7,-232.71"/>
<polygon fill="midnightblue" stroke="midnightblue" points="1121.23,-236.17 1130.71,-231.45 1120.35,-229.23 1121.23,-236.17"/>
</g>
<!-- Node8&#45;&gt;Node6 -->
<g id="edge13" class="edge">
<title>Node8&#45;&gt;Node6</title>
<path fill="none" stroke="midnightblue" d="M727.45,-539.85C745.85,-531.58 769.44,-521.53 791,-514 851.06,-493.01 881.02,-517.77 929,-476 992.84,-420.43 1017.25,-316.82 1025.41,-269.16"/>
<polygon fill="midnightblue" stroke="midnightblue" points="1028.9,-269.52 1027.03,-259.09 1021.98,-268.41 1028.9,-269.52"/>
</g>
<!-- Node9 -->
<g id="node9" class="node">
<title>Node9</title>
<g id="a_node9"><a xlink:href="namespaceparser__module.html#a2cfd49c431619a7d7ded68e9f89bee70" target="_top" xlink:title="Function to decide whether a character is &quot;*&quot; or &quot;/&quot;.">
<polygon fill="white" stroke="black" points="804.5,-660 804.5,-690 915.5,-690 915.5,-660 804.5,-660"/>
<text text-anchor="start" x="812.5" y="-678" font-family="Helvetica,sans-Serif" font-size="10.00">parser_module::is_dot</text>
<text text-anchor="middle" x="860" y="-667" font-family="Helvetica,sans-Serif" font-size="10.00">_operator</text>
</a>
</g>
</g>
<!-- Node8&#45;&gt;Node9 -->
<g id="edge8" class="edge">
<title>Node8&#45;&gt;Node9</title>
<path fill="none" stroke="midnightblue" d="M706.42,-570.08C722.96,-590.96 755.51,-628.63 791,-651 793.57,-652.62 796.25,-654.14 799.02,-655.58"/>
<polygon fill="midnightblue" stroke="midnightblue" points="797.52,-658.74 808.06,-659.87 800.53,-652.42 797.52,-658.74"/>
</g>
<!-- Node10 -->
<g id="node10" class="node">
<title>Node10</title>
<g id="a_node10"><a xlink:href="namespaceparser__module.html#ae2806c52d9868da3855d28c188a1679e" target="_top" xlink:title="Function to decide whether a character is a &quot;+&quot; or &quot;&#45;&quot;.">
<polygon fill="white" stroke="black" points="803.5,-611 803.5,-641 916.5,-641 916.5,-611 803.5,-611"/>
<text text-anchor="start" x="811.5" y="-629" font-family="Helvetica,sans-Serif" font-size="10.00">parser_module::is_line</text>
<text text-anchor="middle" x="860" y="-618" font-family="Helvetica,sans-Serif" font-size="10.00">_operator</text>
</a>
</g>
</g>
<!-- Node8&#45;&gt;Node10 -->
<g id="edge9" class="edge">
<title>Node8&#45;&gt;Node10</title>
<path fill="none" stroke="midnightblue" d="M723.58,-570.08C742.47,-579.77 767.9,-592.31 791,-602 795.39,-603.84 799.97,-605.66 804.59,-607.43"/>
<polygon fill="midnightblue" stroke="midnightblue" points="803.5,-610.76 814.09,-610.98 805.95,-604.2 803.5,-610.76"/>
</g>
<!-- Node11 -->
<g id="node11" class="node">
<title>Node11</title>
<g id="a_node11"><a xlink:href="namespaceparser__module.html#a55c1c7aac46e95ec6634aa8a514a90b0" target="_top" xlink:title="Function to decide whether a character is a &quot;^&quot;.">
<polygon fill="white" stroke="black" points="798,-562 798,-592 922,-592 922,-562 798,-562"/>
<text text-anchor="start" x="806" y="-580" font-family="Helvetica,sans-Serif" font-size="10.00">parser_module::is_power</text>
<text text-anchor="middle" x="860" y="-569" font-family="Helvetica,sans-Serif" font-size="10.00">_operator</text>
</a>
</g>
</g>
<!-- Node8&#45;&gt;Node11 -->
<g id="edge10" class="edge">
<title>Node8&#45;&gt;Node11</title>
<path fill="none" stroke="midnightblue" d="M743.32,-561.48C757.21,-563.35 772.67,-565.42 787.65,-567.43"/>
<polygon fill="midnightblue" stroke="midnightblue" points="787.53,-570.94 797.91,-568.81 788.46,-564.01 787.53,-570.94"/>
</g>
<!-- Node12 -->
<g id="node12" class="node">
<title>Node12</title>
<g id="a_node12"><a xlink:href="namespaceparser__module.html#a2040007bd269f7920bcfee6840eb41de" target="_top" xlink:title="Function to perform a simple mathematical operation.">
<polygon fill="white" stroke="black" points="797.5,-523.5 797.5,-542.5 922.5,-542.5 922.5,-523.5 797.5,-523.5"/>
<text text-anchor="middle" x="860" y="-530.5" font-family="Helvetica,sans-Serif" font-size="10.00">parser_module::operation</text>
</a>
</g>
</g>
<!-- Node8&#45;&gt;Node12 -->
<g id="edge11" class="edge">
<title>Node8&#45;&gt;Node12</title>
<path fill="none" stroke="midnightblue" d="M743.32,-548.52C757.06,-546.67 772.33,-544.63 787.15,-542.64"/>
<polygon fill="midnightblue" stroke="midnightblue" points="787.87,-546.07 797.31,-541.28 786.94,-539.14 787.87,-546.07"/>
</g>
<!-- Node12&#45;&gt;Node6 -->
<g id="edge12" class="edge">
<title>Node12&#45;&gt;Node6</title>
<path fill="none" stroke="midnightblue" d="M905.9,-523.4C914.36,-519.96 922.56,-515.3 929,-509 998.06,-441.41 1020.02,-321.43 1026.5,-269.32"/>
<polygon fill="midnightblue" stroke="midnightblue" points="1029.99,-269.61 1027.66,-259.28 1023.03,-268.81 1029.99,-269.61"/>
</g>
<!-- Node15&#45;&gt;Node6 -->
<g id="edge21" class="edge">
<title>Node15&#45;&gt;Node6</title>
<path fill="none" stroke="midnightblue" d="M710.24,-359.88C728.1,-343.02 759.29,-316.15 791,-301 847.9,-273.81 867.67,-282.69 929,-268 940.01,-265.36 951.71,-262.56 963.07,-259.83"/>
<polygon fill="midnightblue" stroke="midnightblue" points="964.03,-263.2 972.94,-257.46 962.4,-256.39 964.03,-263.2"/>
</g>
<!-- Node15&#45;&gt;Node14 -->
<g id="edge18" class="edge">
<title>Node15&#45;&gt;Node14</title>
<path fill="none" stroke="midnightblue" d="M729.26,-390.08C737.93,-394.44 747.04,-399.52 755,-405 772.88,-417.31 772.03,-427.46 791,-438 794.96,-440.2 799.2,-442.17 803.55,-443.91"/>
<polygon fill="midnightblue" stroke="midnightblue" points="802.6,-447.29 813.2,-447.4 804.98,-440.71 802.6,-447.29"/>
</g>
<!-- Node16 -->
<g id="node16" class="node">
<title>Node16</title>
<g id="a_node16"><a xlink:href="namespaceparser__module.html#ad490bd346a873a280de4d7d6f343d588" target="_top" xlink:title="Function to define constants.">
<polygon fill="white" stroke="black" points="799,-311 799,-341 921,-341 921,-311 799,-311"/>
<text text-anchor="start" x="807" y="-329" font-family="Helvetica,sans-Serif" font-size="10.00">parser_module::common</text>
<text text-anchor="middle" x="860" y="-318" font-family="Helvetica,sans-Serif" font-size="10.00">_variables</text>
</a>
</g>
</g>
<!-- Node15&#45;&gt;Node16 -->
<g id="edge17" class="edge">
<title>Node15&#45;&gt;Node16</title>
<path fill="none" stroke="midnightblue" d="M745.54,-359.9C762.46,-354.84 781.48,-349.16 799.04,-343.92"/>
<polygon fill="midnightblue" stroke="midnightblue" points="800.04,-347.27 808.62,-341.05 798.04,-340.56 800.04,-347.27"/>
</g>
<!-- Node17 -->
<g id="node17" class="node">
<title>Node17</title>
<g id="a_node17"><a xlink:href="namespaceparser__module.html#a7d1134a2461b12dc17514a1970d6b00b" target="_top" xlink:title="Function to decide whether a character can be associated with a number.">
<polygon fill="white" stroke="black" points="791,-409.5 791,-428.5 929,-428.5 929,-409.5 791,-409.5"/>
<text text-anchor="middle" x="860" y="-416.5" font-family="Helvetica,sans-Serif" font-size="10.00">parser_module::is_separator</text>
</a>
</g>
</g>
<!-- Node15&#45;&gt;Node17 -->
<g id="edge19" class="edge">
<title>Node15&#45;&gt;Node17</title>
<path fill="none" stroke="midnightblue" d="M747.79,-389.16C769.04,-394.86 793.29,-401.37 813.71,-406.85"/>
<polygon fill="midnightblue" stroke="midnightblue" points="812.84,-410.24 823.4,-409.45 814.65,-403.48 812.84,-410.24"/>
</g>
<!-- Node18 -->
<g id="node18" class="node">
<title>Node18</title>
<g id="a_node18"><a xlink:href="namespaceparser__module.html#afbaa22752e33bc2ac2a3437adb34ea52" target="_top" xlink:title="Subroutine to check the parsing string for consistency and correct it.">
<polygon fill="white" stroke="black" points="805.5,-360 805.5,-390 914.5,-390 914.5,-360 805.5,-360"/>
<text text-anchor="start" x="813.5" y="-378" font-family="Helvetica,sans-Serif" font-size="10.00">parser_module::make</text>
<text text-anchor="middle" x="860" y="-367" font-family="Helvetica,sans-Serif" font-size="10.00">_pars_str_consistent</text>
</a>
</g>
</g>
<!-- Node15&#45;&gt;Node18 -->
<g id="edge20" class="edge">
<title>Node15&#45;&gt;Node18</title>
<path fill="none" stroke="midnightblue" d="M747.79,-375C762.93,-375 779.58,-375 795.3,-375"/>
<polygon fill="midnightblue" stroke="midnightblue" points="795.46,-378.5 805.46,-375 795.46,-371.5 795.46,-378.5"/>
</g>
<!-- Node20&#45;&gt;Node6 -->
<g id="edge31" class="edge">
<title>Node20&#45;&gt;Node6</title>
<path fill="none" stroke="midnightblue" d="M893.56,-130.53C905.69,-135.25 918.94,-141.93 929,-151 952.95,-172.59 941.29,-192.14 965,-214 969,-217.69 973.54,-221.01 978.31,-223.96"/>
<polygon fill="midnightblue" stroke="midnightblue" points="976.64,-227.04 987.07,-228.9 980.08,-220.94 976.64,-227.04"/>
</g>
<!-- Node20&#45;&gt;Node7 -->
<g id="edge26" class="edge">
<title>Node20&#45;&gt;Node7</title>
<path fill="none" stroke="midnightblue" d="M877.18,-130.72C904.04,-146.8 955.84,-177.53 965,-181 1015.7,-200.18 1076.39,-211.58 1120.68,-217.95"/>
<polygon fill="midnightblue" stroke="midnightblue" points="1120.33,-221.44 1130.72,-219.35 1121.29,-214.5 1120.33,-221.44"/>
</g>
<!-- Node21 -->
<g id="node21" class="node">
<title>Node21</title>
<g id="a_node21"><a xlink:href="namespaceinter__module.html#a0f02e3fce3429d031516cf2f47f521de" target="_top" xlink:title="Interpolation using prescription of Akima.">
<polygon fill="white" stroke="black" points="969,-114.5 969,-133.5 1091,-133.5 1091,-114.5 969,-114.5"/>
<text text-anchor="middle" x="1030" y="-121.5" font-family="Helvetica,sans-Serif" font-size="10.00">inter_module::akimainter</text>
</a>
</g>
</g>
<!-- Node20&#45;&gt;Node21 -->
<g id="edge24" class="edge">
<title>Node20&#45;&gt;Node21</title>
<path fill="none" stroke="midnightblue" d="M915.54,-121.97C929.27,-122.22 944.19,-122.49 958.57,-122.74"/>
<polygon fill="midnightblue" stroke="midnightblue" points="958.86,-126.25 968.92,-122.93 958.98,-119.25 958.86,-126.25"/>
</g>
<!-- Node22 -->
<g id="node22" class="node">
<title>Node22</title>
<g id="a_node22"><a xlink:href="namespaceinter__module.html#a5a696cd56302b2491c59781808af4c08" target="_top" xlink:title="Cubic interpolation in log&#45;log space. Here, it is assumed that.">
<polygon fill="white" stroke="black" points="974.5,-76.5 974.5,-95.5 1085.5,-95.5 1085.5,-76.5 974.5,-76.5"/>
<text text-anchor="middle" x="1030" y="-83.5" font-family="Helvetica,sans-Serif" font-size="10.00">inter_module::cubinter</text>
</a>
</g>
</g>
<!-- Node20&#45;&gt;Node22 -->
<g id="edge25" class="edge">
<title>Node20&#45;&gt;Node22</title>
<path fill="none" stroke="midnightblue" d="M906.91,-111.44C927.37,-107.17 951.66,-102.11 973.17,-97.63"/>
<polygon fill="midnightblue" stroke="midnightblue" points="974.07,-101.02 983.15,-95.55 972.65,-94.17 974.07,-101.02"/>
</g>
<!-- Node23 -->
<g id="node23" class="node">
<title>Node23</title>
<g id="a_node23"><a xlink:href="namespaceinter__module.html#ac57284b6bef315c7066a880358ae0862" target="_top" xlink:title="Linear interpolation in lin&#45;log space.">
<polygon fill="white" stroke="black" points="977.5,-38.5 977.5,-57.5 1082.5,-57.5 1082.5,-38.5 977.5,-38.5"/>
<text text-anchor="middle" x="1030" y="-45.5" font-family="Helvetica,sans-Serif" font-size="10.00">inter_module::lininter</text>
</a>
</g>
</g>
<!-- Node20&#45;&gt;Node23 -->
<g id="edge27" class="edge">
<title>Node20&#45;&gt;Node23</title>
<path fill="none" stroke="midnightblue" d="M877.11,-111.4C897.18,-99.74 932.74,-80.02 965,-67 970.58,-64.75 976.52,-62.63 982.46,-60.68"/>
<polygon fill="midnightblue" stroke="midnightblue" points="983.88,-63.9 992.37,-57.57 981.78,-57.22 983.88,-63.9"/>
</g>
<!-- Node24 -->
<g id="node24" class="node">
<title>Node24</title>
<g id="a_node24"><a xlink:href="namespaceinter__module.html#a338de641fc764e51a6ce814e25e70ef2" target="_top" xlink:title="Interpolation using modified prescription of Akima.">
<polygon fill="white" stroke="black" points="965,-0.5 965,-19.5 1095,-19.5 1095,-0.5 965,-0.5"/>
<text text-anchor="middle" x="1030" y="-7.5" font-family="Helvetica,sans-Serif" font-size="10.00">inter_module::makimainter</text>
</a>
</g>
</g>
<!-- Node20&#45;&gt;Node24 -->
<g id="edge28" class="edge">
<title>Node20&#45;&gt;Node24</title>
<path fill="none" stroke="midnightblue" d="M869.15,-111.42C885.47,-92.82 924.1,-51.68 965,-29 968.98,-26.79 973.25,-24.81 977.63,-23.04"/>
<polygon fill="midnightblue" stroke="midnightblue" points="979.11,-26.23 987.3,-19.51 976.71,-19.65 979.11,-26.23"/>
</g>
<!-- Node25 -->
<g id="node25" class="node">
<title>Node25</title>
<g id="a_node25"><a xlink:href="namespaceinter__module.html#a4b1d9613e140541539a602d2f985b5c7" target="_top" xlink:title="PCHIP interpolation in lin&#45;log space.">
<polygon fill="white" stroke="black" points="970.5,-152.5 970.5,-171.5 1089.5,-171.5 1089.5,-152.5 970.5,-152.5"/>
<text text-anchor="middle" x="1030" y="-159.5" font-family="Helvetica,sans-Serif" font-size="10.00">inter_module::pchipinter</text>
</a>
</g>
</g>
<!-- Node20&#45;&gt;Node25 -->
<g id="edge29" class="edge">
<title>Node20&#45;&gt;Node25</title>
<path fill="none" stroke="midnightblue" d="M899.96,-130.51C923.84,-136.34 954.61,-143.84 980.11,-150.07"/>
<polygon fill="midnightblue" stroke="midnightblue" points="979.41,-153.5 989.96,-152.47 981.07,-146.7 979.41,-153.5"/>
</g>
<!-- Node26 -->
<g id="node26" class="node">
<title>Node26</title>
<g id="a_node26"><a xlink:href="quadpack__module_8f90.html#aada5a652920db442d627f1ca24ff25d7" target="_top" xlink:title="Further information: http://netlib.org/quadpack/index.html https://orion.math.iastate....">
<polygon fill="white" stroke="black" points="1168.5,-152.5 1168.5,-171.5 1197.5,-171.5 1197.5,-152.5 1168.5,-152.5"/>
<text text-anchor="middle" x="1183" y="-159.5" font-family="Helvetica,sans-Serif" font-size="10.00">pi</text>
</a>
</g>
</g>
<!-- Node25&#45;&gt;Node26 -->
<g id="edge30" class="edge">
<title>Node25&#45;&gt;Node26</title>
<path fill="none" stroke="midnightblue" d="M1089.81,-162C1113.65,-162 1139.83,-162 1158.18,-162"/>
<polygon fill="midnightblue" stroke="midnightblue" points="1158.25,-165.5 1168.25,-162 1158.25,-158.5 1158.25,-165.5"/>
</g>
<!-- Node27&#45;&gt;Node6 -->
<g id="edge38" class="edge">
<title>Node27&#45;&gt;Node6</title>
<path fill="none" stroke="midnightblue" d="M572.92,-166.08C590.72,-173.03 612.71,-180.87 633,-186 746.95,-214.8 883.21,-230.86 962.54,-238.45"/>
<polygon fill="midnightblue" stroke="midnightblue" points="962.59,-241.97 972.88,-239.42 963.25,-235 962.59,-241.97"/>
</g>
<!-- Node28 -->
<g id="node28" class="node">
<title>Node28</title>
<g id="a_node28"><a xlink:href="namespaceinter__module.html#a0932d04c95a9a2d7e64b432d61d949d2" target="_top" xlink:title="The inverse of the 1D interpolation function.">
<polygon fill="white" stroke="black" points="640,-147 640,-177 748,-177 748,-147 640,-147"/>
<text text-anchor="start" x="648" y="-165" font-family="Helvetica,sans-Serif" font-size="10.00">inter_module::inverse</text>
<text text-anchor="middle" x="694" y="-154" font-family="Helvetica,sans-Serif" font-size="10.00">_brent</text>
</a>
</g>
</g>
<!-- Node27&#45;&gt;Node28 -->
<g id="edge33" class="edge">
<title>Node27&#45;&gt;Node28</title>
<path fill="none" stroke="midnightblue" d="M590.25,-154.75C602.93,-155.65 616.57,-156.61 629.65,-157.53"/>
<polygon fill="midnightblue" stroke="midnightblue" points="629.77,-161.05 639.99,-158.26 630.26,-154.07 629.77,-161.05"/>
</g>
<!-- Node29 -->
<g id="node29" class="node">
<title>Node29</title>
<g id="a_node29"><a xlink:href="namespaceinter__module.html#a07efb22c559d2d062f15dc5011eb557f" target="_top" xlink:title="The inverse of the 1D interpolation function.">
<polygon fill="white" stroke="black" points="633,-108.5 633,-127.5 755,-127.5 755,-108.5 633,-108.5"/>
<text text-anchor="middle" x="694" y="-115.5" font-family="Helvetica,sans-Serif" font-size="10.00">inter_module::inverse_nr</text>
</a>
</g>
</g>
<!-- Node27&#45;&gt;Node29 -->
<g id="edge36" class="edge">
<title>Node27&#45;&gt;Node29</title>
<path fill="none" stroke="midnightblue" d="M590.25,-139.74C605.67,-136.47 622.53,-132.91 638.06,-129.62"/>
<polygon fill="midnightblue" stroke="midnightblue" points="638.98,-133.01 648.04,-127.51 637.53,-126.16 638.98,-133.01"/>
</g>
<!-- Node28&#45;&gt;Node6 -->
<g id="edge35" class="edge">
<title>Node28&#45;&gt;Node6</title>
<path fill="none" stroke="midnightblue" d="M748.03,-162.51C796.43,-164.43 869.3,-171.01 929,-192 946.69,-198.22 948.49,-205.12 965,-214 971.61,-217.56 978.72,-221.13 985.71,-224.5"/>
<polygon fill="midnightblue" stroke="midnightblue" points="984.57,-227.84 995.11,-228.96 987.57,-221.51 984.57,-227.84"/>
</g>
<!-- Node28&#45;&gt;Node20 -->
<g id="edge34" class="edge">
<title>Node28&#45;&gt;Node20</title>
<path fill="none" stroke="midnightblue" d="M748.25,-148.69C768.4,-143.65 791.2,-137.95 810.85,-133.04"/>
<polygon fill="midnightblue" stroke="midnightblue" points="811.96,-136.37 820.82,-130.55 810.26,-129.58 811.96,-136.37"/>
</g>
<!-- Node29&#45;&gt;Node20 -->
<g id="edge37" class="edge">
<title>Node29&#45;&gt;Node20</title>
<path fill="none" stroke="midnightblue" d="M755.14,-119.1C767.83,-119.33 781.28,-119.58 794.14,-119.81"/>
<polygon fill="midnightblue" stroke="midnightblue" points="794.24,-123.32 804.3,-120 794.37,-116.32 794.24,-123.32"/>
</g>
</g>
</svg>
        <g id="navigator" transform="translate(0 0)" fill="#404254">
                <rect fill="#f2f5e9" fill-opacity="0.5" stroke="#606060" stroke-width=".5" x="0" y="0" width="60" height="60"/>
                <use id="zoomplus" xlink:href="#zoomPlus" x="17" y="9" onmousedown="handleZoom(evt,'in')"/>
                <use id="zoomminus" xlink:href="#zoomMin" x="42" y="9" onmousedown="handleZoom(evt,'out')"/>
                <use id="reset" xlink:href="#resetDef" x="30" y="36" onmousedown="handleReset()"/>
                <g id="arrowUp" xlink:href="#dirArrow" transform="translate(30 24)" onmousedown="handlePan(0,-1)">
                  <use xlink:href="#rim" fill="#404040">
                        <set attributeName="fill" to="#808080" begin="arrowUp.mouseover" end="arrowUp.mouseout"/>
                  </use>
                  <path fill="none" stroke="white" stroke-width="1.5" d="M0,-3.0v7 M-2.5,-0.5L0,-3.0L2.5,-0.5"/>
                </g>
                <g id="arrowRight" xlink:href="#dirArrow" transform="rotate(90) translate(36 -43)" onmousedown="handlePan(1,0)">
                  <use xlink:href="#rim" fill="#404040">
                        <set attributeName="fill" to="#808080" begin="arrowRight.mouseover" end="arrowRight.mouseout"/>
                  </use>
                  <path fill="none" stroke="white" stroke-width="1.5" d="M0,-3.0v7 M-2.5,-0.5L0,-3.0L2.5,-0.5"/>
                </g>
                <g id="arrowDown" xlink:href="#dirArrow" transform="rotate(180) translate(-30 -48)" onmousedown="handlePan(0,1)">
                  <use xlink:href="#rim" fill="#404040">
                        <set attributeName="fill" to="#808080" begin="arrowDown.mouseover" end="arrowDown.mouseout"/>
                  </use>
                  <path fill="none" stroke="white" stroke-width="1.5" d="M0,-3.0v7 M-2.5,-0.5L0,-3.0L2.5,-0.5"/>
                </g>
                <g id="arrowLeft" xlink:href="#dirArrow" transform="rotate(270) translate(-36 17)" onmousedown="handlePan(-1,0)">
                  <use xlink:href="#rim" fill="#404040">
                        <set attributeName="fill" to="#808080" begin="arrowLeft.mouseover" end="arrowLeft.mouseout"/>
                  </use>
                  <path fill="none" stroke="white" stroke-width="1.5" d="M0,-3.0v7 M-2.5,-0.5L0,-3.0L2.5,-0.5"/>
                </g>
        </g>
        <svg viewBox="0 0 15 15" width="100%" height="30px" preserveAspectRatio="xMaxYMin meet">
         <g id="arrow_out" transform="scale(0.3 0.3)">
          <a xlink:href="namespacetimestep__module_ae36b8b6019a18b81fd2c9efa7936b930_cgraph_org.svg" target="_base">
           <rect id="button" ry="5" rx="5" y="6" x="6" height="38" width="38"
                fill="#f2f5e9" fill-opacity="0.5" stroke="#606060" stroke-width="1.0"/>
           <path id="arrow"
             d="M 11.500037,31.436501 C 11.940474,20.09759 22.043105,11.32322 32.158766,21.979434 L 37.068811,17.246167 C 37.068811,17.246167 37.088388,32 37.088388,32 L 22.160133,31.978069 C 22.160133,31.978069 26.997745,27.140456 26.997745,27.140456 C 18.528582,18.264221 13.291696,25.230495 11.500037,31.436501 z"
             style="fill:#404040;"/>
          </a>
         </g>
        </svg>
</svg>
