<?xml version="1.0" encoding="UTF-8" standalone="no"?>
<!DOCTYPE svg PUBLIC "-//W3C//DTD SVG 1.1//EN"
 "http://www.w3.org/Graphics/SVG/1.1/DTD/svg11.dtd">
<!-- Generated by graphviz version 2.44.0 ()
 -->
<!-- Title: nuflux_class::nuflux Pages: 1 -->
<!--zoomable 437 -->
<svg id="main" version="1.1" xmlns="http://www.w3.org/2000/svg" xmlns:xlink="http://www.w3.org/1999/xlink" xml:space="preserve" onload="init(evt)">
<style type="text/css"><![CDATA[
.edge:hover path { stroke: red; }
.edge:hover polygon { stroke: red; fill: red; }
]]></style>
<script type="text/javascript"><![CDATA[
var edges = document.getElementsByTagName('g');
if (edges && edges.length) {
  for (var i=0;i<edges.length;i++) {
    if (edges[i].id.substr(0,4)=='edge') {
      edges[i].setAttribute('class','edge');
    }
  }
}
]]></script>
        <defs>
                <circle id="rim" cx="0" cy="0" r="7"/>
                <circle id="rim2" cx="0" cy="0" r="3.5"/>
                <g id="zoomPlus">
                        <use xlink:href="#rim" fill="#404040">
                                <set attributeName="fill" to="#808080" begin="zoomplus.mouseover" end="zoomplus.mouseout"/>
                        </use>
                        <path d="M-4,0h8M0,-4v8" fill="none" stroke="white" stroke-width="1.5" pointer-events="none"/>
                </g>
                <g id="zoomMin">
                        <use xlink:href="#rim" fill="#404040">
                                <set attributeName="fill" to="#808080" begin="zoomminus.mouseover" end="zoomminus.mouseout"/>
                        </use>
                        <path d="M-4,0h8" fill="none" stroke="white" stroke-width="1.5" pointer-events="none"/>
                </g>
                <g id="dirArrow">
                        <path fill="none" stroke="white" stroke-width="1.5" d="M0,-3.0v7 M-2.5,-0.5L0,-3.0L2.5,-0.5"/>
                </g>
               <g id="resetDef">
                       <use xlink:href="#rim2" fill="#404040">
                               <set attributeName="fill" to="#808080" begin="reset.mouseover" end="reset.mouseout"/>
                       </use>
               </g>
        </defs>

<script type="text/javascript">
var viewWidth = 1169;
var viewHeight = 437;
var sectionId = 'dynsection-2';
</script>
<script xlink:href="svgpan.js"/>
<svg id="graph" class="graph">
<g id="viewport">
<title>nuflux_class::nuflux</title>
<polygon fill="white" stroke="transparent" points="-4,4 -4,-432.87 1165,-432.87 1165,4 -4,4"/>
<!-- Node1 -->
<g id="node1" class="node">
<title>Node1</title>
<g id="a_node1"><a xlink:title="Determines neutrino flux for current time (in units of cm^&#45;2 s^&#45;1).">
<polygon fill="#bfbfbf" stroke="black" points="0,-214 0,-233 99,-233 99,-214 0,-214"/>
<text text-anchor="middle" x="49.5" y="-221" font-family="Helvetica,sans-Serif" font-size="10.00">nuflux_class::nuflux</text>
</a>
</g>
</g>
<!-- Node2 -->
<g id="node2" class="node">
<title>Node2</title>
<g id="a_node2"><a xlink:href="namespacenuflux__class.html#a2fb34aac999210463981b91de1e70ffb" target="_top" xlink:title="Calculates (anti&#45;) neutrino temperatures.">
<polygon fill="white" stroke="black" points="135,-233 135,-252 242,-252 242,-233 135,-233"/>
<text text-anchor="middle" x="188.5" y="-240" font-family="Helvetica,sans-Serif" font-size="10.00">nuflux_class::nutemp</text>
</a>
</g>
</g>
<!-- Node1&#45;&gt;Node2 -->
<g id="edge1" class="edge">
<title>Node1&#45;&gt;Node2</title>
<path fill="none" stroke="midnightblue" d="M99.19,-230.25C107.48,-231.4 116.19,-232.61 124.79,-233.8"/>
<polygon fill="midnightblue" stroke="midnightblue" points="124.4,-237.28 134.79,-235.19 125.36,-230.35 124.4,-237.28"/>
</g>
<!-- Node3 -->
<g id="node3" class="node">
<title>Node3</title>
<g id="a_node3"><a xlink:href="namespaceparser__module.html#a4b68bd8515796701c2b006fe79a0b162" target="_top" xlink:title="Takes a string and evaluates the expression.">
<polygon fill="white" stroke="black" points="278,-208.5 278,-238.5 387,-238.5 387,-208.5 278,-208.5"/>
<text text-anchor="start" x="286" y="-226.5" font-family="Helvetica,sans-Serif" font-size="10.00">parser_module::parse</text>
<text text-anchor="middle" x="332.5" y="-215.5" font-family="Helvetica,sans-Serif" font-size="10.00">_string</text>
</a>
</g>
</g>
<!-- Node1&#45;&gt;Node3 -->
<g id="edge22" class="edge">
<title>Node1&#45;&gt;Node3</title>
<path fill="none" stroke="midnightblue" d="M99.13,-223.5C145.71,-223.5 216.29,-223.5 267.44,-223.5"/>
<polygon fill="midnightblue" stroke="midnightblue" points="267.72,-227 277.72,-223.5 267.72,-220 267.72,-227"/>
</g>
<!-- Node2&#45;&gt;Node3 -->
<g id="edge2" class="edge">
<title>Node2&#45;&gt;Node3</title>
<path fill="none" stroke="midnightblue" d="M242.38,-235.43C250.56,-234.33 259.09,-233.19 267.49,-232.07"/>
<polygon fill="midnightblue" stroke="midnightblue" points="268.18,-235.5 277.63,-230.71 267.26,-228.56 268.18,-235.5"/>
</g>
<!-- Node4 -->
<g id="node4" class="node">
<title>Node4</title>
<g id="a_node4"><a xlink:href="namespaceparser__module.html#a5c583c26539a886921a9067fa425bc9c" target="_top" xlink:title="Evaluate a complex string expression.">
<polygon fill="white" stroke="black" points="423,-214 423,-233 545,-233 545,-214 423,-214"/>
<text text-anchor="middle" x="484" y="-221" font-family="Helvetica,sans-Serif" font-size="10.00">parser_module::evaluate</text>
</a>
</g>
</g>
<!-- Node3&#45;&gt;Node4 -->
<g id="edge3" class="edge">
<title>Node3&#45;&gt;Node4</title>
<path fill="none" stroke="midnightblue" d="M387.05,-223.5C395.42,-223.5 404.18,-223.5 412.85,-223.5"/>
<polygon fill="midnightblue" stroke="midnightblue" points="412.97,-227 422.97,-223.5 412.97,-220 412.97,-227"/>
</g>
<!-- Node5 -->
<g id="node5" class="node">
<title>Node5</title>
<g id="a_node5"><a xlink:href="namespaceparser__module.html#ad50643e6694300972743edc44679fbf7" target="_top" xlink:title="Function to perform a function operations.">
<polygon fill="white" stroke="black" points="587.5,-390.5 587.5,-420.5 690.5,-420.5 690.5,-390.5 587.5,-390.5"/>
<text text-anchor="start" x="595.5" y="-408.5" font-family="Helvetica,sans-Serif" font-size="10.00">parser_module::eval</text>
<text text-anchor="middle" x="639" y="-397.5" font-family="Helvetica,sans-Serif" font-size="10.00">_function</text>
</a>
</g>
</g>
<!-- Node4&#45;&gt;Node5 -->
<g id="edge4" class="edge">
<title>Node4&#45;&gt;Node5</title>
<path fill="none" stroke="midnightblue" d="M493.23,-233.29C516.8,-261.33 585.07,-342.54 618.75,-382.6"/>
<polygon fill="midnightblue" stroke="midnightblue" points="616.08,-384.86 625.19,-390.27 621.44,-380.36 616.08,-384.86"/>
</g>
<!-- Node8 -->
<g id="node8" class="node">
<title>Node8</title>
<g id="a_node8"><a xlink:href="namespaceparser__module.html#ae4ed3c6a08e74ffd03282ee7c30d8194" target="_top" xlink:title="Evaluate a simple string expression, without brackets and functions.">
<polygon fill="white" stroke="black" points="590,-276.5 590,-306.5 688,-306.5 688,-276.5 590,-276.5"/>
<text text-anchor="start" x="598" y="-294.5" font-family="Helvetica,sans-Serif" font-size="10.00">parser_module::get</text>
<text text-anchor="middle" x="639" y="-283.5" font-family="Helvetica,sans-Serif" font-size="10.00">_simple_result</text>
</a>
</g>
</g>
<!-- Node4&#45;&gt;Node8 -->
<g id="edge7" class="edge">
<title>Node4&#45;&gt;Node8</title>
<path fill="none" stroke="midnightblue" d="M506.6,-233.1C529.39,-243.23 565.93,-259.47 594.7,-272.25"/>
<polygon fill="midnightblue" stroke="midnightblue" points="593.56,-275.58 604.12,-276.44 596.41,-269.18 593.56,-275.58"/>
</g>
<!-- Node13 -->
<g id="node13" class="node">
<title>Node13</title>
<g id="a_node13"><a xlink:href="namespaceparser__module.html#a4b73870fbca7e3195b5d1efc61c3f039" target="_top" xlink:title="Function to decide whether a character is a number or not (i.e., 0&#45;9).">
<polygon fill="white" stroke="black" points="581,-214 581,-233 697,-233 697,-214 581,-214"/>
<text text-anchor="middle" x="639" y="-221" font-family="Helvetica,sans-Serif" font-size="10.00">parser_module::is_digit</text>
</a>
</g>
</g>
<!-- Node4&#45;&gt;Node13 -->
<g id="edge14" class="edge">
<title>Node4&#45;&gt;Node13</title>
<path fill="none" stroke="midnightblue" d="M545.03,-223.5C553.36,-223.5 561.97,-223.5 570.43,-223.5"/>
<polygon fill="midnightblue" stroke="midnightblue" points="570.64,-227 580.64,-223.5 570.64,-220 570.64,-227"/>
</g>
<!-- Node14 -->
<g id="node14" class="node">
<title>Node14</title>
<g id="a_node14"><a xlink:href="namespaceparser__module.html#af9cbf87119ef07db357b3240c716e462" target="_top" xlink:title="Function to decide whether a character is a mathematical operator or not. Functions (as e....">
<polygon fill="white" stroke="black" points="735.5,-176 735.5,-195 868.5,-195 868.5,-176 735.5,-176"/>
<text text-anchor="middle" x="802" y="-183" font-family="Helvetica,sans-Serif" font-size="10.00">parser_module::is_operator</text>
</a>
</g>
</g>
<!-- Node4&#45;&gt;Node14 -->
<g id="edge15" class="edge">
<title>Node4&#45;&gt;Node14</title>
<path fill="none" stroke="midnightblue" d="M527.84,-213.98C544.38,-210.58 563.51,-206.98 581,-204.5 628.79,-197.73 682.79,-193.02 725.33,-189.99"/>
<polygon fill="midnightblue" stroke="midnightblue" points="725.6,-193.48 735.33,-189.29 725.11,-186.49 725.6,-193.48"/>
</g>
<!-- Node15 -->
<g id="node15" class="node">
<title>Node15</title>
<g id="a_node15"><a xlink:href="namespaceparser__module.html#a3441e2e009e491fac044cc02bc9b144d" target="_top" xlink:title="Store mathematical operators (+&#45;*/) and numbers in arrays.">
<polygon fill="white" stroke="black" points="585.5,-107.5 585.5,-137.5 692.5,-137.5 692.5,-107.5 585.5,-107.5"/>
<text text-anchor="start" x="593.5" y="-125.5" font-family="Helvetica,sans-Serif" font-size="10.00">parser_module::store</text>
<text text-anchor="middle" x="639" y="-114.5" font-family="Helvetica,sans-Serif" font-size="10.00">_digits_operator</text>
</a>
</g>
</g>
<!-- Node4&#45;&gt;Node15 -->
<g id="edge16" class="edge">
<title>Node4&#45;&gt;Node15</title>
<path fill="none" stroke="midnightblue" d="M499.39,-214C523.84,-197.86 574.01,-164.74 606.81,-143.09"/>
<polygon fill="midnightblue" stroke="midnightblue" points="608.74,-146.01 615.15,-137.58 604.88,-140.17 608.74,-146.01"/>
</g>
<!-- Node6 -->
<g id="node6" class="node">
<title>Node6</title>
<g id="a_node6"><a xlink:href="namespaceerror__msg__class.html#a2453d3b7cb363115c046840baa1dfb75" target="_top" xlink:title="Raise a exception with a given error message.">
<polygon fill="white" stroke="black" points="907,-301.5 907,-331.5 1021,-331.5 1021,-301.5 907,-301.5"/>
<text text-anchor="start" x="915" y="-319.5" font-family="Helvetica,sans-Serif" font-size="10.00">error_msg_class::raise</text>
<text text-anchor="middle" x="964" y="-308.5" font-family="Helvetica,sans-Serif" font-size="10.00">_exception</text>
</a>
</g>
</g>
<!-- Node5&#45;&gt;Node6 -->
<g id="edge5" class="edge">
<title>Node5&#45;&gt;Node6</title>
<path fill="none" stroke="midnightblue" d="M690.93,-418.92C739.31,-428.99 813.06,-437.22 871,-412.5 905.11,-397.94 932.65,-363.84 948.42,-340.47"/>
<polygon fill="midnightblue" stroke="midnightblue" points="951.54,-342.08 954.07,-331.79 945.68,-338.26 951.54,-342.08"/>
</g>
<!-- Node7 -->
<g id="node7" class="node">
<title>Node7</title>
<g id="a_node7"><a xlink:href="namespaceerror__msg__class.html#a7e065585cc806a5c264de1f088266498" target="_top" xlink:title="Converts a given integer to a string.">
<polygon fill="white" stroke="black" points="1057,-301.5 1057,-331.5 1161,-331.5 1161,-301.5 1057,-301.5"/>
<text text-anchor="start" x="1065" y="-319.5" font-family="Helvetica,sans-Serif" font-size="10.00">error_msg_class::int</text>
<text text-anchor="middle" x="1109" y="-308.5" font-family="Helvetica,sans-Serif" font-size="10.00">_to_str</text>
</a>
</g>
</g>
<!-- Node6&#45;&gt;Node7 -->
<g id="edge6" class="edge">
<title>Node6&#45;&gt;Node7</title>
<path fill="none" stroke="midnightblue" d="M1021.11,-316.5C1029.45,-316.5 1038.09,-316.5 1046.54,-316.5"/>
<polygon fill="midnightblue" stroke="midnightblue" points="1046.71,-320 1056.71,-316.5 1046.71,-313 1046.71,-320"/>
</g>
<!-- Node8&#45;&gt;Node6 -->
<g id="edge13" class="edge">
<title>Node8&#45;&gt;Node6</title>
<path fill="none" stroke="midnightblue" d="M648.71,-306.88C662.89,-330.14 693.39,-373.36 733,-390.5 789.29,-414.85 813.15,-410.88 871,-390.5 899.67,-380.4 925.99,-357.17 943.07,-339.41"/>
<polygon fill="midnightblue" stroke="midnightblue" points="945.99,-341.41 950.24,-331.71 940.87,-336.64 945.99,-341.41"/>
</g>
<!-- Node9 -->
<g id="node9" class="node">
<title>Node9</title>
<g id="a_node9"><a xlink:href="namespaceparser__module.html#a2cfd49c431619a7d7ded68e9f89bee70" target="_top" xlink:title="Function to decide whether a character is &quot;*&quot; or &quot;/&quot;.">
<polygon fill="white" stroke="black" points="746.5,-350.5 746.5,-380.5 857.5,-380.5 857.5,-350.5 746.5,-350.5"/>
<text text-anchor="start" x="754.5" y="-368.5" font-family="Helvetica,sans-Serif" font-size="10.00">parser_module::is_dot</text>
<text text-anchor="middle" x="802" y="-357.5" font-family="Helvetica,sans-Serif" font-size="10.00">_operator</text>
</a>
</g>
</g>
<!-- Node8&#45;&gt;Node9 -->
<g id="edge8" class="edge">
<title>Node8&#45;&gt;Node9</title>
<path fill="none" stroke="midnightblue" d="M665.52,-306.6C683.91,-317.14 709.53,-331.12 733,-341.5 737.1,-343.31 741.39,-345.09 745.73,-346.81"/>
<polygon fill="midnightblue" stroke="midnightblue" points="744.67,-350.15 755.26,-350.45 747.17,-343.61 744.67,-350.15"/>
</g>
<!-- Node10 -->
<g id="node10" class="node">
<title>Node10</title>
<g id="a_node10"><a xlink:href="namespaceparser__module.html#ae2806c52d9868da3855d28c188a1679e" target="_top" xlink:title="Function to decide whether a character is a &quot;+&quot; or &quot;&#45;&quot;.">
<polygon fill="white" stroke="black" points="745.5,-301.5 745.5,-331.5 858.5,-331.5 858.5,-301.5 745.5,-301.5"/>
<text text-anchor="start" x="753.5" y="-319.5" font-family="Helvetica,sans-Serif" font-size="10.00">parser_module::is_line</text>
<text text-anchor="middle" x="802" y="-308.5" font-family="Helvetica,sans-Serif" font-size="10.00">_operator</text>
</a>
</g>
</g>
<!-- Node8&#45;&gt;Node10 -->
<g id="edge9" class="edge">
<title>Node8&#45;&gt;Node10</title>
<path fill="none" stroke="midnightblue" d="M688.31,-299C703.05,-301.29 719.51,-303.85 735.2,-306.28"/>
<polygon fill="midnightblue" stroke="midnightblue" points="734.96,-309.79 745.38,-307.86 736.03,-302.87 734.96,-309.79"/>
</g>
<!-- Node11 -->
<g id="node11" class="node">
<title>Node11</title>
<g id="a_node11"><a xlink:href="namespaceparser__module.html#a55c1c7aac46e95ec6634aa8a514a90b0" target="_top" xlink:title="Function to decide whether a character is a &quot;^&quot;.">
<polygon fill="white" stroke="black" points="740,-252.5 740,-282.5 864,-282.5 864,-252.5 740,-252.5"/>
<text text-anchor="start" x="748" y="-270.5" font-family="Helvetica,sans-Serif" font-size="10.00">parser_module::is_power</text>
<text text-anchor="middle" x="802" y="-259.5" font-family="Helvetica,sans-Serif" font-size="10.00">_operator</text>
</a>
</g>
</g>
<!-- Node8&#45;&gt;Node11 -->
<g id="edge10" class="edge">
<title>Node8&#45;&gt;Node11</title>
<path fill="none" stroke="midnightblue" d="M688.31,-284.3C701.35,-282.35 715.74,-280.21 729.76,-278.12"/>
<polygon fill="midnightblue" stroke="midnightblue" points="730.49,-281.55 739.87,-276.61 729.46,-274.63 730.49,-281.55"/>
</g>
<!-- Node12 -->
<g id="node12" class="node">
<title>Node12</title>
<g id="a_node12"><a xlink:href="namespaceparser__module.html#a2040007bd269f7920bcfee6840eb41de" target="_top" xlink:title="Function to perform a simple mathematical operation.">
<polygon fill="white" stroke="black" points="739.5,-214 739.5,-233 864.5,-233 864.5,-214 739.5,-214"/>
<text text-anchor="middle" x="802" y="-221" font-family="Helvetica,sans-Serif" font-size="10.00">parser_module::operation</text>
</a>
</g>
</g>
<!-- Node8&#45;&gt;Node12 -->
<g id="edge11" class="edge">
<title>Node8&#45;&gt;Node12</title>
<path fill="none" stroke="midnightblue" d="M665.83,-276.47C684.15,-266.24 709.56,-252.9 733,-243.5 739.75,-240.79 747.01,-238.27 754.19,-235.99"/>
<polygon fill="midnightblue" stroke="midnightblue" points="755.32,-239.3 763.86,-233.04 753.28,-232.61 755.32,-239.3"/>
</g>
<!-- Node12&#45;&gt;Node6 -->
<g id="edge12" class="edge">
<title>Node12&#45;&gt;Node6</title>
<path fill="none" stroke="midnightblue" d="M844.98,-233.1C853.82,-235.87 862.92,-239.31 871,-243.5 896.9,-256.93 922.59,-278.15 940.21,-294.26"/>
<polygon fill="midnightblue" stroke="midnightblue" points="938.01,-297 947.71,-301.26 942.78,-291.88 938.01,-297"/>
</g>
<!-- Node15&#45;&gt;Node6 -->
<g id="edge21" class="edge">
<title>Node15&#45;&gt;Node6</title>
<path fill="none" stroke="midnightblue" d="M692.59,-127.56C751.58,-134.08 842.7,-146.95 871,-166.5 915.65,-197.34 942.63,-257.6 954.97,-291.6"/>
<polygon fill="midnightblue" stroke="midnightblue" points="951.73,-292.96 958.33,-301.25 958.34,-290.66 951.73,-292.96"/>
</g>
<!-- Node15&#45;&gt;Node14 -->
<g id="edge18" class="edge">
<title>Node15&#45;&gt;Node14</title>
<path fill="none" stroke="midnightblue" d="M674.7,-137.61C692.1,-145.05 713.56,-154 733,-161.5 742.72,-165.25 753.31,-169.1 763.18,-172.59"/>
<polygon fill="midnightblue" stroke="midnightblue" points="762.15,-175.94 772.74,-175.94 764.46,-169.33 762.15,-175.94"/>
</g>
<!-- Node16 -->
<g id="node16" class="node">
<title>Node16</title>
<g id="a_node16"><a xlink:href="namespaceparser__module.html#ad490bd346a873a280de4d7d6f343d588" target="_top" xlink:title="Function to define constants.">
<polygon fill="white" stroke="black" points="741,-88.5 741,-118.5 863,-118.5 863,-88.5 741,-88.5"/>
<text text-anchor="start" x="749" y="-106.5" font-family="Helvetica,sans-Serif" font-size="10.00">parser_module::common</text>
<text text-anchor="middle" x="802" y="-95.5" font-family="Helvetica,sans-Serif" font-size="10.00">_variables</text>
</a>
</g>
</g>
<!-- Node15&#45;&gt;Node16 -->
<g id="edge17" class="edge">
<title>Node15&#45;&gt;Node16</title>
<path fill="none" stroke="midnightblue" d="M692.72,-116.28C704.87,-114.84 717.99,-113.3 730.77,-111.79"/>
<polygon fill="midnightblue" stroke="midnightblue" points="731.39,-115.24 740.91,-110.59 730.57,-108.29 731.39,-115.24"/>
</g>
<!-- Node17 -->
<g id="node17" class="node">
<title>Node17</title>
<g id="a_node17"><a xlink:href="namespaceparser__module.html#a7d1134a2461b12dc17514a1970d6b00b" target="_top" xlink:title="Function to decide whether a character can be associated with a number.">
<polygon fill="white" stroke="black" points="733,-50 733,-69 871,-69 871,-50 733,-50"/>
<text text-anchor="middle" x="802" y="-57" font-family="Helvetica,sans-Serif" font-size="10.00">parser_module::is_separator</text>
</a>
</g>
</g>
<!-- Node15&#45;&gt;Node17 -->
<g id="edge19" class="edge">
<title>Node15&#45;&gt;Node17</title>
<path fill="none" stroke="midnightblue" d="M668.77,-107.33C686.88,-98.18 710.91,-86.74 733,-78.5 739.33,-76.14 746.08,-73.91 752.78,-71.88"/>
<polygon fill="midnightblue" stroke="midnightblue" points="753.9,-75.2 762.51,-69.03 751.93,-68.48 753.9,-75.2"/>
</g>
<!-- Node18 -->
<g id="node18" class="node">
<title>Node18</title>
<g id="a_node18"><a xlink:href="namespaceparser__module.html#afbaa22752e33bc2ac2a3437adb34ea52" target="_top" xlink:title="Subroutine to check the parsing string for consistency and correct it.">
<polygon fill="white" stroke="black" points="747.5,-0.5 747.5,-30.5 856.5,-30.5 856.5,-0.5 747.5,-0.5"/>
<text text-anchor="start" x="755.5" y="-18.5" font-family="Helvetica,sans-Serif" font-size="10.00">parser_module::make</text>
<text text-anchor="middle" x="802" y="-7.5" font-family="Helvetica,sans-Serif" font-size="10.00">_pars_str_consistent</text>
</a>
</g>
</g>
<!-- Node15&#45;&gt;Node18 -->
<g id="edge20" class="edge">
<title>Node15&#45;&gt;Node18</title>
<path fill="none" stroke="midnightblue" d="M653.79,-107.3C670.87,-89.25 701.57,-59.23 733,-40.5 736.43,-38.46 740.05,-36.54 743.76,-34.74"/>
<polygon fill="midnightblue" stroke="midnightblue" points="745.45,-37.82 753.14,-30.53 742.58,-31.44 745.45,-37.82"/>
</g>
</g>
</svg>
        <g id="navigator" transform="translate(0 0)" fill="#404254">
                <rect fill="#f2f5e9" fill-opacity="0.5" stroke="#606060" stroke-width=".5" x="0" y="0" width="60" height="60"/>
                <use id="zoomplus" xlink:href="#zoomPlus" x="17" y="9" onmousedown="handleZoom(evt,'in')"/>
                <use id="zoomminus" xlink:href="#zoomMin" x="42" y="9" onmousedown="handleZoom(evt,'out')"/>
                <use id="reset" xlink:href="#resetDef" x="30" y="36" onmousedown="handleReset()"/>
                <g id="arrowUp" xlink:href="#dirArrow" transform="translate(30 24)" onmousedown="handlePan(0,-1)">
                  <use xlink:href="#rim" fill="#404040">
                        <set attributeName="fill" to="#808080" begin="arrowUp.mouseover" end="arrowUp.mouseout"/>
                  </use>
                  <path fill="none" stroke="white" stroke-width="1.5" d="M0,-3.0v7 M-2.5,-0.5L0,-3.0L2.5,-0.5"/>
                </g>
                <g id="arrowRight" xlink:href="#dirArrow" transform="rotate(90) translate(36 -43)" onmousedown="handlePan(1,0)">
                  <use xlink:href="#rim" fill="#404040">
                        <set attributeName="fill" to="#808080" begin="arrowRight.mouseover" end="arrowRight.mouseout"/>
                  </use>
                  <path fill="none" stroke="white" stroke-width="1.5" d="M0,-3.0v7 M-2.5,-0.5L0,-3.0L2.5,-0.5"/>
                </g>
                <g id="arrowDown" xlink:href="#dirArrow" transform="rotate(180) translate(-30 -48)" onmousedown="handlePan(0,1)">
                  <use xlink:href="#rim" fill="#404040">
                        <set attributeName="fill" to="#808080" begin="arrowDown.mouseover" end="arrowDown.mouseout"/>
                  </use>
                  <path fill="none" stroke="white" stroke-width="1.5" d="M0,-3.0v7 M-2.5,-0.5L0,-3.0L2.5,-0.5"/>
                </g>
                <g id="arrowLeft" xlink:href="#dirArrow" transform="rotate(270) translate(-36 17)" onmousedown="handlePan(-1,0)">
                  <use xlink:href="#rim" fill="#404040">
                        <set attributeName="fill" to="#808080" begin="arrowLeft.mouseover" end="arrowLeft.mouseout"/>
                  </use>
                  <path fill="none" stroke="white" stroke-width="1.5" d="M0,-3.0v7 M-2.5,-0.5L0,-3.0L2.5,-0.5"/>
                </g>
        </g>
        <svg viewBox="0 0 15 15" width="100%" height="30px" preserveAspectRatio="xMaxYMin meet">
         <g id="arrow_out" transform="scale(0.3 0.3)">
          <a xlink:href="namespacenuflux__class_a84c72570c22285bc7dd6ff8c4f94cd2d_cgraph_org.svg" target="_base">
           <rect id="button" ry="5" rx="5" y="6" x="6" height="38" width="38"
                fill="#f2f5e9" fill-opacity="0.5" stroke="#606060" stroke-width="1.0"/>
           <path id="arrow"
             d="M 11.500037,31.436501 C 11.940474,20.09759 22.043105,11.32322 32.158766,21.979434 L 37.068811,17.246167 C 37.068811,17.246167 37.088388,32 37.088388,32 L 22.160133,31.978069 C 22.160133,31.978069 26.997745,27.140456 26.997745,27.140456 C 18.528582,18.264221 13.291696,25.230495 11.500037,31.436501 z"
             style="fill:#404040;"/>
          </a>
         </g>
        </svg>
</svg>
