<?xml version="1.0" encoding="UTF-8" standalone="no"?>
<!DOCTYPE svg PUBLIC "-//W3C//DTD SVG 1.1//EN"
 "http://www.w3.org/Graphics/SVG/1.1/DTD/svg11.dtd">
<!-- Generated by graphviz version 2.44.0 ()
 -->
<!-- Title: detailed_balance::create_inverse_rate Pages: 1 -->
<!--zoomable 176 -->
<svg id="main" version="1.1" xmlns="http://www.w3.org/2000/svg" xmlns:xlink="http://www.w3.org/1999/xlink" xml:space="preserve" onload="init(evt)">
<style type="text/css"><![CDATA[
.edge:hover path { stroke: red; }
.edge:hover polygon { stroke: red; fill: red; }
]]></style>
<script type="text/javascript"><![CDATA[
var edges = document.getElementsByTagName('g');
if (edges && edges.length) {
  for (var i=0;i<edges.length;i++) {
    if (edges[i].id.substr(0,4)=='edge') {
      edges[i].setAttribute('class','edge');
    }
  }
}
]]></script>
        <defs>
                <circle id="rim" cx="0" cy="0" r="7"/>
                <circle id="rim2" cx="0" cy="0" r="3.5"/>
                <g id="zoomPlus">
                        <use xlink:href="#rim" fill="#404040">
                                <set attributeName="fill" to="#808080" begin="zoomplus.mouseover" end="zoomplus.mouseout"/>
                        </use>
                        <path d="M-4,0h8M0,-4v8" fill="none" stroke="white" stroke-width="1.5" pointer-events="none"/>
                </g>
                <g id="zoomMin">
                        <use xlink:href="#rim" fill="#404040">
                                <set attributeName="fill" to="#808080" begin="zoomminus.mouseover" end="zoomminus.mouseout"/>
                        </use>
                        <path d="M-4,0h8" fill="none" stroke="white" stroke-width="1.5" pointer-events="none"/>
                </g>
                <g id="dirArrow">
                        <path fill="none" stroke="white" stroke-width="1.5" d="M0,-3.0v7 M-2.5,-0.5L0,-3.0L2.5,-0.5"/>
                </g>
               <g id="resetDef">
                       <use xlink:href="#rim2" fill="#404040">
                               <set attributeName="fill" to="#808080" begin="reset.mouseover" end="reset.mouseout"/>
                       </use>
               </g>
        </defs>

<script type="text/javascript">
var viewWidth = 735;
var viewHeight = 176;
var sectionId = 'dynsection-1';
</script>
<script xlink:href="svgpan.js"/>
<svg id="graph" class="graph">
<g id="viewport">
<title>detailed_balance::create_inverse_rate</title>
<polygon fill="white" stroke="transparent" points="-4,4 -4,-172 731,-172 731,4 -4,4"/>
<!-- Node1 -->
<g id="node1" class="node">
<title>Node1</title>
<g id="a_node1"><a xlink:title="Routine to create an inverse rate, based on the forward rate.">
<polygon fill="#bfbfbf" stroke="black" points="0,-66.5 0,-96.5 121,-96.5 121,-66.5 0,-66.5"/>
<text text-anchor="start" x="8" y="-84.5" font-family="Helvetica,sans-Serif" font-size="10.00">detailed_balance::create</text>
<text text-anchor="middle" x="60.5" y="-73.5" font-family="Helvetica,sans-Serif" font-size="10.00">_inverse_rate</text>
</a>
</g>
</g>
<!-- Node2 -->
<g id="node2" class="node">
<title>Node2</title>
<g id="a_node2"><a xlink:href="namespacenucstuff__class.html#a798cb2b4630a9e026012c858d700b3b0" target="_top" xlink:title="Get the reaclib chapter based on nr. of prods. and educts.">
<polygon fill="white" stroke="black" points="318,-137.5 318,-167.5 416,-167.5 416,-137.5 318,-137.5"/>
<text text-anchor="start" x="326" y="-155.5" font-family="Helvetica,sans-Serif" font-size="10.00">nucstuff_class::get</text>
<text text-anchor="middle" x="367" y="-144.5" font-family="Helvetica,sans-Serif" font-size="10.00">_chapter</text>
</a>
</g>
</g>
<!-- Node1&#45;&gt;Node2 -->
<g id="edge1" class="edge">
<title>Node1&#45;&gt;Node2</title>
<path fill="none" stroke="midnightblue" d="M120.28,-96.52C132.41,-99.55 145.11,-102.67 157,-105.5 207.91,-117.62 266,-130.62 308,-139.86"/>
<polygon fill="midnightblue" stroke="midnightblue" points="307.26,-143.28 317.77,-142.01 308.76,-136.45 307.26,-143.28"/>
</g>
<!-- Node5 -->
<g id="node5" class="node">
<title>Node5</title>
<g id="a_node5"><a xlink:href="namespacenucstuff__class.html#adb871d9f6d0e6ec5db0a0808201ab3db" target="_top" xlink:title="Get number of products of the reaction based on the reaclib chapter.">
<polygon fill="white" stroke="black" points="318,-88.5 318,-118.5 416,-118.5 416,-88.5 318,-88.5"/>
<text text-anchor="start" x="326" y="-106.5" font-family="Helvetica,sans-Serif" font-size="10.00">nucstuff_class::get</text>
<text text-anchor="middle" x="367" y="-95.5" font-family="Helvetica,sans-Serif" font-size="10.00">_nr_products</text>
</a>
</g>
</g>
<!-- Node1&#45;&gt;Node5 -->
<g id="edge5" class="edge">
<title>Node1&#45;&gt;Node5</title>
<path fill="none" stroke="midnightblue" d="M121.3,-85.82C175.32,-89.72 254.33,-95.43 307.84,-99.3"/>
<polygon fill="midnightblue" stroke="midnightblue" points="307.63,-102.79 317.85,-100.02 308.13,-95.81 307.63,-102.79"/>
</g>
<!-- Node6 -->
<g id="node6" class="node">
<title>Node6</title>
<g id="a_node6"><a xlink:href="namespacenucstuff__class.html#a5fa1f79d38fd5b01a5d6d797fea0132d" target="_top" xlink:title="Get number of reactants of the reaction based on the reaclib chapter.">
<polygon fill="white" stroke="black" points="318,-0.5 318,-30.5 416,-30.5 416,-0.5 318,-0.5"/>
<text text-anchor="start" x="326" y="-18.5" font-family="Helvetica,sans-Serif" font-size="10.00">nucstuff_class::get</text>
<text text-anchor="middle" x="367" y="-7.5" font-family="Helvetica,sans-Serif" font-size="10.00">_nr_reactants</text>
</a>
</g>
</g>
<!-- Node1&#45;&gt;Node6 -->
<g id="edge8" class="edge">
<title>Node1&#45;&gt;Node6</title>
<path fill="none" stroke="midnightblue" d="M86.03,-66.29C104.74,-55.48 131.56,-41.65 157,-34.5 206.58,-20.57 265.12,-16.23 307.62,-15.13"/>
<polygon fill="midnightblue" stroke="midnightblue" points="307.86,-18.63 317.79,-14.93 307.72,-11.63 307.86,-18.63"/>
</g>
<!-- Node7 -->
<g id="node7" class="node">
<title>Node7</title>
<g id="a_node7"><a xlink:href="namespacereaclib__rate__module.html#a8e23d45ed0420de076b8f07863151a34" target="_top" xlink:title="Set a flag for the reaction type.">
<polygon fill="white" stroke="black" points="157,-44.5 157,-74.5 261,-74.5 261,-44.5 157,-44.5"/>
<text text-anchor="start" x="165" y="-62.5" font-family="Helvetica,sans-Serif" font-size="10.00">reaclib_rate_module</text>
<text text-anchor="middle" x="209" y="-51.5" font-family="Helvetica,sans-Serif" font-size="10.00">::set_reaction_type</text>
</a>
</g>
</g>
<!-- Node1&#45;&gt;Node7 -->
<g id="edge11" class="edge">
<title>Node1&#45;&gt;Node7</title>
<path fill="none" stroke="midnightblue" d="M121.09,-72.55C129.63,-71.27 138.43,-69.95 146.99,-68.66"/>
<polygon fill="midnightblue" stroke="midnightblue" points="147.55,-72.12 156.92,-67.17 146.51,-65.2 147.55,-72.12"/>
</g>
<!-- Node3 -->
<g id="node3" class="node">
<title>Node3</title>
<g id="a_node3"><a xlink:href="namespaceerror__msg__class.html#a7e065585cc806a5c264de1f088266498" target="_top" xlink:title="Converts a given integer to a string.">
<polygon fill="white" stroke="black" points="623,-67.5 623,-97.5 727,-97.5 727,-67.5 623,-67.5"/>
<text text-anchor="start" x="631" y="-85.5" font-family="Helvetica,sans-Serif" font-size="10.00">error_msg_class::int</text>
<text text-anchor="middle" x="675" y="-74.5" font-family="Helvetica,sans-Serif" font-size="10.00">_to_str</text>
</a>
</g>
</g>
<!-- Node2&#45;&gt;Node3 -->
<g id="edge2" class="edge">
<title>Node2&#45;&gt;Node3</title>
<path fill="none" stroke="midnightblue" d="M416.06,-152.78C461.16,-151.81 530.02,-147.12 587,-129.5 606.61,-123.44 626.87,-112.79 642.91,-103.16"/>
<polygon fill="midnightblue" stroke="midnightblue" points="645.15,-105.88 651.82,-97.65 641.47,-99.93 645.15,-105.88"/>
</g>
<!-- Node4 -->
<g id="node4" class="node">
<title>Node4</title>
<g id="a_node4"><a xlink:href="namespaceerror__msg__class.html#a2453d3b7cb363115c046840baa1dfb75" target="_top" xlink:title="Raise a exception with a given error message.">
<polygon fill="white" stroke="black" points="473,-89.5 473,-119.5 587,-119.5 587,-89.5 473,-89.5"/>
<text text-anchor="start" x="481" y="-107.5" font-family="Helvetica,sans-Serif" font-size="10.00">error_msg_class::raise</text>
<text text-anchor="middle" x="530" y="-96.5" font-family="Helvetica,sans-Serif" font-size="10.00">_exception</text>
</a>
</g>
</g>
<!-- Node2&#45;&gt;Node4 -->
<g id="edge3" class="edge">
<title>Node2&#45;&gt;Node4</title>
<path fill="none" stroke="midnightblue" d="M416.31,-138.1C432.72,-133.2 451.27,-127.67 468.52,-122.53"/>
<polygon fill="midnightblue" stroke="midnightblue" points="469.91,-125.77 478.49,-119.56 467.91,-119.06 469.91,-125.77"/>
</g>
<!-- Node4&#45;&gt;Node3 -->
<g id="edge4" class="edge">
<title>Node4&#45;&gt;Node3</title>
<path fill="none" stroke="midnightblue" d="M587.11,-95.87C595.54,-94.57 604.28,-93.23 612.81,-91.91"/>
<polygon fill="midnightblue" stroke="midnightblue" points="613.36,-95.37 622.71,-90.39 612.3,-88.45 613.36,-95.37"/>
</g>
<!-- Node5&#45;&gt;Node3 -->
<g id="edge6" class="edge">
<title>Node5&#45;&gt;Node3</title>
<path fill="none" stroke="midnightblue" d="M416.26,-90.65C433.97,-86.54 454.26,-82.53 473,-80.5 523.37,-75.05 536.34,-79.92 587,-80.5 595.36,-80.6 604.17,-80.74 612.85,-80.92"/>
<polygon fill="midnightblue" stroke="midnightblue" points="612.87,-84.42 622.94,-81.13 613.02,-77.42 612.87,-84.42"/>
</g>
<!-- Node5&#45;&gt;Node4 -->
<g id="edge7" class="edge">
<title>Node5&#45;&gt;Node4</title>
<path fill="none" stroke="midnightblue" d="M416.31,-103.8C430.89,-103.89 447.17,-103.99 462.72,-104.09"/>
<polygon fill="midnightblue" stroke="midnightblue" points="462.78,-107.59 472.8,-104.15 462.83,-100.59 462.78,-107.59"/>
</g>
<!-- Node6&#45;&gt;Node3 -->
<g id="edge9" class="edge">
<title>Node6&#45;&gt;Node3</title>
<path fill="none" stroke="midnightblue" d="M416.15,-26.04C469.26,-37.67 554.85,-56.41 612.71,-69.08"/>
<polygon fill="midnightblue" stroke="midnightblue" points="612.3,-72.57 622.82,-71.29 613.8,-65.74 612.3,-72.57"/>
</g>
<!-- Node6&#45;&gt;Node4 -->
<g id="edge10" class="edge">
<title>Node6&#45;&gt;Node4</title>
<path fill="none" stroke="midnightblue" d="M414.73,-30.55C422.32,-33.53 429.98,-36.87 437,-40.5 460.31,-52.57 484.61,-69.69 502.37,-83.19"/>
<polygon fill="midnightblue" stroke="midnightblue" points="500.48,-86.15 510.54,-89.49 504.76,-80.61 500.48,-86.15"/>
</g>
<!-- Node7&#45;&gt;Node5 -->
<g id="edge13" class="edge">
<title>Node7&#45;&gt;Node5</title>
<path fill="none" stroke="midnightblue" d="M261.08,-73.91C276.1,-78.14 292.63,-82.81 308.04,-87.15"/>
<polygon fill="midnightblue" stroke="midnightblue" points="307.41,-90.61 317.98,-89.96 309.31,-83.87 307.41,-90.61"/>
</g>
<!-- Node7&#45;&gt;Node6 -->
<g id="edge14" class="edge">
<title>Node7&#45;&gt;Node6</title>
<path fill="none" stroke="midnightblue" d="M261.08,-45.09C276.1,-40.86 292.63,-36.19 308.04,-31.85"/>
<polygon fill="midnightblue" stroke="midnightblue" points="309.31,-35.13 317.98,-29.04 307.41,-28.39 309.31,-35.13"/>
</g>
<!-- Node8 -->
<g id="node8" class="node">
<title>Node8</title>
<g id="a_node8"><a xlink:href="namespacebenam__class.html#afd880df70f94c289b6bda0647f4494e3" target="_top" xlink:title="Getter of net_names, translating indices to a nucleus name.">
<polygon fill="white" stroke="black" points="297,-50 297,-69 437,-69 437,-50 297,-50"/>
<text text-anchor="middle" x="367" y="-57" font-family="Helvetica,sans-Serif" font-size="10.00">benam_class::get_net_name</text>
</a>
</g>
</g>
<!-- Node7&#45;&gt;Node8 -->
<g id="edge12" class="edge">
<title>Node7&#45;&gt;Node8</title>
<path fill="none" stroke="midnightblue" d="M261.08,-59.5C269.32,-59.5 278.01,-59.5 286.73,-59.5"/>
<polygon fill="midnightblue" stroke="midnightblue" points="286.95,-63 296.95,-59.5 286.95,-56 286.95,-63"/>
</g>
</g>
</svg>
        <g id="navigator" transform="translate(0 0)" fill="#404254">
                <rect fill="#f2f5e9" fill-opacity="0.5" stroke="#606060" stroke-width=".5" x="0" y="0" width="60" height="60"/>
                <use id="zoomplus" xlink:href="#zoomPlus" x="17" y="9" onmousedown="handleZoom(evt,'in')"/>
                <use id="zoomminus" xlink:href="#zoomMin" x="42" y="9" onmousedown="handleZoom(evt,'out')"/>
                <use id="reset" xlink:href="#resetDef" x="30" y="36" onmousedown="handleReset()"/>
                <g id="arrowUp" xlink:href="#dirArrow" transform="translate(30 24)" onmousedown="handlePan(0,-1)">
                  <use xlink:href="#rim" fill="#404040">
                        <set attributeName="fill" to="#808080" begin="arrowUp.mouseover" end="arrowUp.mouseout"/>
                  </use>
                  <path fill="none" stroke="white" stroke-width="1.5" d="M0,-3.0v7 M-2.5,-0.5L0,-3.0L2.5,-0.5"/>
                </g>
                <g id="arrowRight" xlink:href="#dirArrow" transform="rotate(90) translate(36 -43)" onmousedown="handlePan(1,0)">
                  <use xlink:href="#rim" fill="#404040">
                        <set attributeName="fill" to="#808080" begin="arrowRight.mouseover" end="arrowRight.mouseout"/>
                  </use>
                  <path fill="none" stroke="white" stroke-width="1.5" d="M0,-3.0v7 M-2.5,-0.5L0,-3.0L2.5,-0.5"/>
                </g>
                <g id="arrowDown" xlink:href="#dirArrow" transform="rotate(180) translate(-30 -48)" onmousedown="handlePan(0,1)">
                  <use xlink:href="#rim" fill="#404040">
                        <set attributeName="fill" to="#808080" begin="arrowDown.mouseover" end="arrowDown.mouseout"/>
                  </use>
                  <path fill="none" stroke="white" stroke-width="1.5" d="M0,-3.0v7 M-2.5,-0.5L0,-3.0L2.5,-0.5"/>
                </g>
                <g id="arrowLeft" xlink:href="#dirArrow" transform="rotate(270) translate(-36 17)" onmousedown="handlePan(-1,0)">
                  <use xlink:href="#rim" fill="#404040">
                        <set attributeName="fill" to="#808080" begin="arrowLeft.mouseover" end="arrowLeft.mouseout"/>
                  </use>
                  <path fill="none" stroke="white" stroke-width="1.5" d="M0,-3.0v7 M-2.5,-0.5L0,-3.0L2.5,-0.5"/>
                </g>
        </g>
        <svg viewBox="0 0 15 15" width="100%" height="30px" preserveAspectRatio="xMaxYMin meet">
         <g id="arrow_out" transform="scale(0.3 0.3)">
          <a xlink:href="namespacedetailed__balance_a6163da72c848a1fd418b8a1869a4dc1b_cgraph_org.svg" target="_base">
           <rect id="button" ry="5" rx="5" y="6" x="6" height="38" width="38"
                fill="#f2f5e9" fill-opacity="0.5" stroke="#606060" stroke-width="1.0"/>
           <path id="arrow"
             d="M 11.500037,31.436501 C 11.940474,20.09759 22.043105,11.32322 32.158766,21.979434 L 37.068811,17.246167 C 37.068811,17.246167 37.088388,32 37.088388,32 L 22.160133,31.978069 C 22.160133,31.978069 26.997745,27.140456 26.997745,27.140456 C 18.528582,18.264221 13.291696,25.230495 11.500037,31.436501 z"
             style="fill:#404040;"/>
          </a>
         </g>
        </svg>
</svg>
