<?xml version="1.0" encoding="UTF-8" standalone="no"?>
<!DOCTYPE svg PUBLIC "-//W3C//DTD SVG 1.1//EN"
 "http://www.w3.org/Graphics/SVG/1.1/DTD/svg11.dtd">
<!-- Generated by graphviz version 2.44.0 ()
 -->
<!-- Title: hdf5_module::init_mainout Pages: 1 -->
<svg width="567pt" height="127pt"
 viewBox="0.00 0.00 567.00 127.00" xmlns="http://www.w3.org/2000/svg" xmlns:xlink="http://www.w3.org/1999/xlink">
<g id="graph0" class="graph" transform="scale(1 1) rotate(0) translate(4 123)">
<title>hdf5_module::init_mainout</title>
<polygon fill="white" stroke="transparent" points="-4,4 -4,-123 563,-123 563,4 -4,4"/>
<!-- Node1 -->
<g id="node1" class="node">
<title>Node1</title>
<g id="a_node1"><a xlink:title="Initialize the mainout hdf5 group.">
<polygon fill="#bfbfbf" stroke="black" points="0,-50 0,-69 129,-69 129,-50 0,-50"/>
<text text-anchor="middle" x="64.5" y="-57" font-family="Helvetica,sans-Serif" font-size="10.00">hdf5_module::init_mainout</text>
</a>
</g>
</g>
<!-- Node2 -->
<g id="node2" class="node">
<title>Node2</title>
<g id="a_node2"><a xlink:href="namespacehdf5__module.html#aaee7540701e1025315a58592932552cc" target="_top" xlink:title="Gets a dataset name and creates it.">
<polygon fill="white" stroke="black" points="165,-88.5 165,-118.5 269,-118.5 269,-88.5 165,-88.5"/>
<text text-anchor="start" x="173" y="-106.5" font-family="Helvetica,sans-Serif" font-size="10.00">hdf5_module::create</text>
<text text-anchor="middle" x="217" y="-95.5" font-family="Helvetica,sans-Serif" font-size="10.00">_1d_dataset</text>
</a>
</g>
</g>
<!-- Node1&#45;&gt;Node2 -->
<g id="edge1" class="edge">
<title>Node1&#45;&gt;Node2</title>
<path fill="none" stroke="midnightblue" d="M98.16,-69.05C114.8,-73.91 135.58,-79.99 155.04,-85.68"/>
<polygon fill="midnightblue" stroke="midnightblue" points="154.18,-89.07 164.76,-88.52 156.15,-82.36 154.18,-89.07"/>
</g>
<!-- Node3 -->
<g id="node3" class="node">
<title>Node3</title>
<g id="a_node3"><a xlink:href="namespaceerror__msg__class.html#a2453d3b7cb363115c046840baa1dfb75" target="_top" xlink:title="Raise a exception with a given error message.">
<polygon fill="white" stroke="black" points="305,-44.5 305,-74.5 419,-74.5 419,-44.5 305,-44.5"/>
<text text-anchor="start" x="313" y="-62.5" font-family="Helvetica,sans-Serif" font-size="10.00">error_msg_class::raise</text>
<text text-anchor="middle" x="362" y="-51.5" font-family="Helvetica,sans-Serif" font-size="10.00">_exception</text>
</a>
</g>
</g>
<!-- Node1&#45;&gt;Node3 -->
<g id="edge6" class="edge">
<title>Node1&#45;&gt;Node3</title>
<path fill="none" stroke="midnightblue" d="M129.26,-59.5C178.04,-59.5 245.13,-59.5 294.57,-59.5"/>
<polygon fill="midnightblue" stroke="midnightblue" points="294.83,-63 304.83,-59.5 294.83,-56 294.83,-63"/>
</g>
<!-- Node5 -->
<g id="node5" class="node">
<title>Node5</title>
<g id="a_node5"><a xlink:href="namespacehdf5__module.html#a9f787006556041c71ebaca1ae791f925" target="_top" xlink:title="Gets a dataset name and creates an integer dataset.">
<polygon fill="white" stroke="black" points="165,-0.5 165,-30.5 269,-30.5 269,-0.5 165,-0.5"/>
<text text-anchor="start" x="173" y="-18.5" font-family="Helvetica,sans-Serif" font-size="10.00">hdf5_module::create</text>
<text text-anchor="middle" x="217" y="-7.5" font-family="Helvetica,sans-Serif" font-size="10.00">_1d_int_dataset</text>
</a>
</g>
</g>
<!-- Node1&#45;&gt;Node5 -->
<g id="edge4" class="edge">
<title>Node1&#45;&gt;Node5</title>
<path fill="none" stroke="midnightblue" d="M98.16,-49.95C114.8,-45.09 135.58,-39.01 155.04,-33.32"/>
<polygon fill="midnightblue" stroke="midnightblue" points="156.15,-36.64 164.76,-30.48 154.18,-29.93 156.15,-36.64"/>
</g>
<!-- Node2&#45;&gt;Node3 -->
<g id="edge2" class="edge">
<title>Node2&#45;&gt;Node3</title>
<path fill="none" stroke="midnightblue" d="M266.81,-88.48C278.19,-84.98 290.42,-81.22 302.18,-77.6"/>
<polygon fill="midnightblue" stroke="midnightblue" points="303.39,-80.89 311.92,-74.6 301.33,-74.2 303.39,-80.89"/>
</g>
<!-- Node4 -->
<g id="node4" class="node">
<title>Node4</title>
<g id="a_node4"><a xlink:href="namespaceerror__msg__class.html#a7e065585cc806a5c264de1f088266498" target="_top" xlink:title="Converts a given integer to a string.">
<polygon fill="white" stroke="black" points="455,-44.5 455,-74.5 559,-74.5 559,-44.5 455,-44.5"/>
<text text-anchor="start" x="463" y="-62.5" font-family="Helvetica,sans-Serif" font-size="10.00">error_msg_class::int</text>
<text text-anchor="middle" x="507" y="-51.5" font-family="Helvetica,sans-Serif" font-size="10.00">_to_str</text>
</a>
</g>
</g>
<!-- Node3&#45;&gt;Node4 -->
<g id="edge3" class="edge">
<title>Node3&#45;&gt;Node4</title>
<path fill="none" stroke="midnightblue" d="M419.11,-59.5C427.45,-59.5 436.09,-59.5 444.54,-59.5"/>
<polygon fill="midnightblue" stroke="midnightblue" points="444.71,-63 454.71,-59.5 444.71,-56 444.71,-63"/>
</g>
<!-- Node5&#45;&gt;Node3 -->
<g id="edge5" class="edge">
<title>Node5&#45;&gt;Node3</title>
<path fill="none" stroke="midnightblue" d="M266.81,-30.52C278.19,-34.02 290.42,-37.78 302.18,-41.4"/>
<polygon fill="midnightblue" stroke="midnightblue" points="301.33,-44.8 311.92,-44.4 303.39,-38.11 301.33,-44.8"/>
</g>
</g>
</svg>
