<?xml version="1.0" encoding="UTF-8" standalone="no"?>
<!DOCTYPE svg PUBLIC "-//W3C//DTD SVG 1.1//EN"
 "http://www.w3.org/Graphics/SVG/1.1/DTD/svg11.dtd">
<!-- Generated by graphviz version 2.44.0 ()
 -->
<!-- Title: mergesort_module::bubblesort Pages: 1 -->
<svg width="444pt" height="61pt"
 viewBox="0.00 0.00 444.00 61.00" xmlns="http://www.w3.org/2000/svg" xmlns:xlink="http://www.w3.org/1999/xlink">
<g id="graph0" class="graph" transform="scale(1 1) rotate(0) translate(4 57)">
<title>mergesort_module::bubblesort</title>
<polygon fill="white" stroke="transparent" points="-4,4 -4,-57 440,-57 440,4 -4,4"/>
<!-- Node1 -->
<g id="node1" class="node">
<title>Node1</title>
<g id="a_node1"><a xlink:title="Bubblesort of array.">
<polygon fill="#bfbfbf" stroke="black" points="0,-28 0,-47 146,-47 146,-28 0,-28"/>
<text text-anchor="middle" x="73" y="-35" font-family="Helvetica,sans-Serif" font-size="10.00">mergesort_module::bubblesort</text>
</a>
</g>
</g>
<!-- Node2 -->
<g id="node2" class="node">
<title>Node2</title>
<g id="a_node2"><a xlink:href="namespaceerror__msg__class.html#a7e065585cc806a5c264de1f088266498" target="_top" xlink:title="Converts a given integer to a string.">
<polygon fill="white" stroke="black" points="332,-22.5 332,-52.5 436,-52.5 436,-22.5 332,-22.5"/>
<text text-anchor="start" x="340" y="-40.5" font-family="Helvetica,sans-Serif" font-size="10.00">error_msg_class::int</text>
<text text-anchor="middle" x="384" y="-29.5" font-family="Helvetica,sans-Serif" font-size="10.00">_to_str</text>
</a>
</g>
</g>
<!-- Node1&#45;&gt;Node2 -->
<g id="edge1" class="edge">
<title>Node1&#45;&gt;Node2</title>
<path fill="none" stroke="midnightblue" d="M146.03,-39.78C158.04,-40.08 170.37,-40.34 182,-40.5 232.66,-41.2 245.34,-41.37 296,-40.5 304.36,-40.36 313.18,-40.13 321.85,-39.87"/>
<polygon fill="midnightblue" stroke="midnightblue" points="322.06,-43.37 331.94,-39.55 321.84,-36.37 322.06,-43.37"/>
</g>
<!-- Node3 -->
<g id="node3" class="node">
<title>Node3</title>
<g id="a_node3"><a xlink:href="namespaceerror__msg__class.html#a2453d3b7cb363115c046840baa1dfb75" target="_top" xlink:title="Raise a exception with a given error message.">
<polygon fill="white" stroke="black" points="182,-0.5 182,-30.5 296,-30.5 296,-0.5 182,-0.5"/>
<text text-anchor="start" x="190" y="-18.5" font-family="Helvetica,sans-Serif" font-size="10.00">error_msg_class::raise</text>
<text text-anchor="middle" x="239" y="-7.5" font-family="Helvetica,sans-Serif" font-size="10.00">_exception</text>
</a>
</g>
</g>
<!-- Node1&#45;&gt;Node3 -->
<g id="edge2" class="edge">
<title>Node1&#45;&gt;Node3</title>
<path fill="none" stroke="midnightblue" d="M144.98,-27.98C153.97,-26.77 163.15,-25.54 172.06,-24.35"/>
<polygon fill="midnightblue" stroke="midnightblue" points="172.54,-27.81 181.98,-23.01 171.61,-20.88 172.54,-27.81"/>
</g>
<!-- Node3&#45;&gt;Node2 -->
<g id="edge3" class="edge">
<title>Node3&#45;&gt;Node2</title>
<path fill="none" stroke="midnightblue" d="M296.11,-24.13C304.54,-25.43 313.28,-26.77 321.81,-28.09"/>
<polygon fill="midnightblue" stroke="midnightblue" points="321.3,-31.55 331.71,-29.61 322.36,-24.63 321.3,-31.55"/>
</g>
</g>
</svg>
