<?xml version="1.0" encoding="UTF-8" standalone="no"?>
<!DOCTYPE svg PUBLIC "-//W3C//DTD SVG 1.1//EN"
 "http://www.w3.org/Graphics/SVG/1.1/DTD/svg11.dtd">
<!-- Generated by graphviz version 2.44.0 ()
 -->
<!-- Title: fission_rate_module::merge_fission_rates Pages: 1 -->
<svg width="406pt" height="39pt"
 viewBox="0.00 0.00 406.00 39.00" xmlns="http://www.w3.org/2000/svg" xmlns:xlink="http://www.w3.org/1999/xlink">
<g id="graph0" class="graph" transform="scale(1 1) rotate(0) translate(4 35)">
<title>fission_rate_module::merge_fission_rates</title>
<polygon fill="white" stroke="transparent" points="-4,4 -4,-35 402,-35 402,4 -4,4"/>
<!-- Node1 -->
<g id="node1" class="node">
<title>Node1</title>
<g id="a_node1"><a xlink:title="Merge fission rates with larger array.">
<polygon fill="#bfbfbf" stroke="black" points="0,-0.5 0,-30.5 108,-30.5 108,-0.5 0,-0.5"/>
<text text-anchor="start" x="8" y="-18.5" font-family="Helvetica,sans-Serif" font-size="10.00">fission_rate_module</text>
<text text-anchor="middle" x="54" y="-7.5" font-family="Helvetica,sans-Serif" font-size="10.00">::merge_fission_rates</text>
</a>
</g>
</g>
<!-- Node2 -->
<g id="node2" class="node">
<title>Node2</title>
<g id="a_node2"><a xlink:href="namespaceerror__msg__class.html#a2453d3b7cb363115c046840baa1dfb75" target="_top" xlink:title="Raise a exception with a given error message.">
<polygon fill="white" stroke="black" points="144,-0.5 144,-30.5 258,-30.5 258,-0.5 144,-0.5"/>
<text text-anchor="start" x="152" y="-18.5" font-family="Helvetica,sans-Serif" font-size="10.00">error_msg_class::raise</text>
<text text-anchor="middle" x="201" y="-7.5" font-family="Helvetica,sans-Serif" font-size="10.00">_exception</text>
</a>
</g>
</g>
<!-- Node1&#45;&gt;Node2 -->
<g id="edge1" class="edge">
<title>Node1&#45;&gt;Node2</title>
<path fill="none" stroke="midnightblue" d="M108.17,-15.5C116.53,-15.5 125.27,-15.5 133.89,-15.5"/>
<polygon fill="midnightblue" stroke="midnightblue" points="133.91,-19 143.91,-15.5 133.91,-12 133.91,-19"/>
</g>
<!-- Node3 -->
<g id="node3" class="node">
<title>Node3</title>
<g id="a_node3"><a xlink:href="namespaceerror__msg__class.html#a7e065585cc806a5c264de1f088266498" target="_top" xlink:title="Converts a given integer to a string.">
<polygon fill="white" stroke="black" points="294,-0.5 294,-30.5 398,-30.5 398,-0.5 294,-0.5"/>
<text text-anchor="start" x="302" y="-18.5" font-family="Helvetica,sans-Serif" font-size="10.00">error_msg_class::int</text>
<text text-anchor="middle" x="346" y="-7.5" font-family="Helvetica,sans-Serif" font-size="10.00">_to_str</text>
</a>
</g>
</g>
<!-- Node2&#45;&gt;Node3 -->
<g id="edge2" class="edge">
<title>Node2&#45;&gt;Node3</title>
<path fill="none" stroke="midnightblue" d="M258.11,-15.5C266.45,-15.5 275.09,-15.5 283.54,-15.5"/>
<polygon fill="midnightblue" stroke="midnightblue" points="283.71,-19 293.71,-15.5 283.71,-12 283.71,-19"/>
</g>
</g>
</svg>
