<?xml version="1.0" encoding="UTF-8" standalone="no"?>
<!DOCTYPE svg PUBLIC "-//W3C//DTD SVG 1.1//EN"
 "http://www.w3.org/Graphics/SVG/1.1/DTD/svg11.dtd">
<!-- Generated by graphviz version 2.44.0 ()
 -->
<!-- Title: network_init_module::print_debug Pages: 1 -->
<svg width="680pt" height="127pt"
 viewBox="0.00 0.00 680.00 127.00" xmlns="http://www.w3.org/2000/svg" xmlns:xlink="http://www.w3.org/1999/xlink">
<g id="graph0" class="graph" transform="scale(1 1) rotate(0) translate(4 123)">
<title>network_init_module::print_debug</title>
<polygon fill="white" stroke="transparent" points="-4,4 -4,-123 676,-123 676,4 -4,4"/>
<!-- Node1 -->
<g id="node1" class="node">
<title>Node1</title>
<g id="a_node1"><a xlink:title="Print a debug file of the reaction.">
<polygon fill="#bfbfbf" stroke="black" points="0,-49.5 0,-79.5 106,-79.5 106,-49.5 0,-49.5"/>
<text text-anchor="start" x="8" y="-67.5" font-family="Helvetica,sans-Serif" font-size="10.00">network_init_module</text>
<text text-anchor="middle" x="53" y="-56.5" font-family="Helvetica,sans-Serif" font-size="10.00">::print_debug</text>
</a>
</g>
</g>
<!-- Node2 -->
<g id="node2" class="node">
<title>Node2</title>
<g id="a_node2"><a xlink:href="namespacefile__handling__class.html#a01ba26324d7662cc0fb2e0eb306cd3e2" target="_top" xlink:title="Close an external file.">
<polygon fill="white" stroke="black" points="284,-88.5 284,-118.5 382,-118.5 382,-88.5 284,-88.5"/>
<text text-anchor="start" x="292" y="-106.5" font-family="Helvetica,sans-Serif" font-size="10.00">file_handling_class</text>
<text text-anchor="middle" x="333" y="-95.5" font-family="Helvetica,sans-Serif" font-size="10.00">::close_io_file</text>
</a>
</g>
</g>
<!-- Node1&#45;&gt;Node2 -->
<g id="edge1" class="edge">
<title>Node1&#45;&gt;Node2</title>
<path fill="none" stroke="midnightblue" d="M100.17,-79.52C113.54,-83.35 128.24,-87.06 142,-89.5 185.61,-97.22 235.59,-100.69 273.33,-102.25"/>
<polygon fill="midnightblue" stroke="midnightblue" points="273.52,-105.76 283.64,-102.64 273.78,-98.77 273.52,-105.76"/>
</g>
<!-- Node5 -->
<g id="node5" class="node">
<title>Node5</title>
<g id="a_node5"><a xlink:href="namespacenetwork__init__module.html#a8d688d52d55fd0eb8acd5c463954bcf8" target="_top" xlink:title="Get the names of a certain reaction.">
<polygon fill="white" stroke="black" points="142,-49.5 142,-79.5 248,-79.5 248,-49.5 142,-49.5"/>
<text text-anchor="start" x="150" y="-67.5" font-family="Helvetica,sans-Serif" font-size="10.00">network_init_module</text>
<text text-anchor="middle" x="195" y="-56.5" font-family="Helvetica,sans-Serif" font-size="10.00">::getnames</text>
</a>
</g>
</g>
<!-- Node1&#45;&gt;Node5 -->
<g id="edge5" class="edge">
<title>Node1&#45;&gt;Node5</title>
<path fill="none" stroke="midnightblue" d="M106.13,-64.5C114.42,-64.5 123.07,-64.5 131.57,-64.5"/>
<polygon fill="midnightblue" stroke="midnightblue" points="131.83,-68 141.83,-64.5 131.83,-61 131.83,-68"/>
</g>
<!-- Node6 -->
<g id="node6" class="node">
<title>Node6</title>
<g id="a_node6"><a xlink:href="namespacefile__handling__class.html#aeddf55e8478d6220dc04310665427c3a" target="_top" xlink:title="Shorthand for opening a new file for writing (output file)">
<polygon fill="white" stroke="black" points="146,-0.5 146,-30.5 244,-30.5 244,-0.5 146,-0.5"/>
<text text-anchor="start" x="154" y="-18.5" font-family="Helvetica,sans-Serif" font-size="10.00">file_handling_class</text>
<text text-anchor="middle" x="195" y="-7.5" font-family="Helvetica,sans-Serif" font-size="10.00">::open_outfile</text>
</a>
</g>
</g>
<!-- Node1&#45;&gt;Node6 -->
<g id="edge6" class="edge">
<title>Node1&#45;&gt;Node6</title>
<path fill="none" stroke="midnightblue" d="M97.15,-49.4C110.99,-44.55 126.48,-39.13 140.94,-34.07"/>
<polygon fill="midnightblue" stroke="midnightblue" points="142.47,-37.24 150.75,-30.64 140.16,-30.64 142.47,-37.24"/>
</g>
<!-- Node3 -->
<g id="node3" class="node">
<title>Node3</title>
<g id="a_node3"><a xlink:href="namespaceerror__msg__class.html#a7e065585cc806a5c264de1f088266498" target="_top" xlink:title="Converts a given integer to a string.">
<polygon fill="white" stroke="black" points="568,-66.5 568,-96.5 672,-96.5 672,-66.5 568,-66.5"/>
<text text-anchor="start" x="576" y="-84.5" font-family="Helvetica,sans-Serif" font-size="10.00">error_msg_class::int</text>
<text text-anchor="middle" x="620" y="-73.5" font-family="Helvetica,sans-Serif" font-size="10.00">_to_str</text>
</a>
</g>
</g>
<!-- Node2&#45;&gt;Node3 -->
<g id="edge2" class="edge">
<title>Node2&#45;&gt;Node3</title>
<path fill="none" stroke="midnightblue" d="M382.02,-99.79C430.36,-96.06 505.09,-90.29 557.68,-86.23"/>
<polygon fill="midnightblue" stroke="midnightblue" points="558.19,-89.7 567.89,-85.45 557.65,-82.73 558.19,-89.7"/>
</g>
<!-- Node4 -->
<g id="node4" class="node">
<title>Node4</title>
<g id="a_node4"><a xlink:href="namespaceerror__msg__class.html#a2453d3b7cb363115c046840baa1dfb75" target="_top" xlink:title="Raise a exception with a given error message.">
<polygon fill="white" stroke="black" points="418,-44.5 418,-74.5 532,-74.5 532,-44.5 418,-44.5"/>
<text text-anchor="start" x="426" y="-62.5" font-family="Helvetica,sans-Serif" font-size="10.00">error_msg_class::raise</text>
<text text-anchor="middle" x="475" y="-51.5" font-family="Helvetica,sans-Serif" font-size="10.00">_exception</text>
</a>
</g>
</g>
<!-- Node2&#45;&gt;Node4 -->
<g id="edge3" class="edge">
<title>Node2&#45;&gt;Node4</title>
<path fill="none" stroke="midnightblue" d="M381.79,-88.48C392.82,-85.01 404.66,-81.29 416.07,-77.71"/>
<polygon fill="midnightblue" stroke="midnightblue" points="417.46,-80.94 425.95,-74.6 415.36,-74.26 417.46,-80.94"/>
</g>
<!-- Node4&#45;&gt;Node3 -->
<g id="edge4" class="edge">
<title>Node4&#45;&gt;Node3</title>
<path fill="none" stroke="midnightblue" d="M532.11,-68.13C540.54,-69.43 549.28,-70.77 557.81,-72.09"/>
<polygon fill="midnightblue" stroke="midnightblue" points="557.3,-75.55 567.71,-73.61 558.36,-68.63 557.3,-75.55"/>
</g>
<!-- Node6&#45;&gt;Node4 -->
<g id="edge9" class="edge">
<title>Node6&#45;&gt;Node4</title>
<path fill="none" stroke="midnightblue" d="M244.09,-30.12C256.96,-33.62 270.93,-37.05 284,-39.5 324.82,-47.16 371.17,-52.12 407.87,-55.17"/>
<polygon fill="midnightblue" stroke="midnightblue" points="407.7,-58.67 417.95,-55.99 408.27,-51.69 407.7,-58.67"/>
</g>
<!-- Node7 -->
<g id="node7" class="node">
<title>Node7</title>
<g id="a_node7"><a xlink:href="namespacefile__handling__class.html#af02196bd5eaf70ecd5ab4cc650094d5e" target="_top" xlink:title="Finds the next unused unit number.">
<polygon fill="white" stroke="black" points="284,-0.5 284,-30.5 382,-30.5 382,-0.5 284,-0.5"/>
<text text-anchor="start" x="292" y="-18.5" font-family="Helvetica,sans-Serif" font-size="10.00">file_handling_class</text>
<text text-anchor="middle" x="333" y="-7.5" font-family="Helvetica,sans-Serif" font-size="10.00">::get_next_io_unit</text>
</a>
</g>
</g>
<!-- Node6&#45;&gt;Node7 -->
<g id="edge7" class="edge">
<title>Node6&#45;&gt;Node7</title>
<path fill="none" stroke="midnightblue" d="M244.33,-15.5C253.85,-15.5 263.93,-15.5 273.74,-15.5"/>
<polygon fill="midnightblue" stroke="midnightblue" points="273.82,-19 283.82,-15.5 273.82,-12 273.82,-19"/>
</g>
<!-- Node7&#45;&gt;Node4 -->
<g id="edge8" class="edge">
<title>Node7&#45;&gt;Node4</title>
<path fill="none" stroke="midnightblue" d="M381.79,-30.52C392.82,-33.99 404.66,-37.71 416.07,-41.29"/>
<polygon fill="midnightblue" stroke="midnightblue" points="415.36,-44.74 425.95,-44.4 417.46,-38.06 415.36,-44.74"/>
</g>
</g>
</svg>
