<?xml version="1.0" encoding="UTF-8" standalone="no"?>
<!DOCTYPE svg PUBLIC "-//W3C//DTD SVG 1.1//EN"
 "http://www.w3.org/Graphics/SVG/1.1/DTD/svg11.dtd">
<!-- Generated by graphviz version 2.44.0 ()
 -->
<!-- Title: gear_module::prepare_next_step Pages: 1 -->
<svg width="683pt" height="104pt"
 viewBox="0.00 0.00 683.00 104.00" xmlns="http://www.w3.org/2000/svg" xmlns:xlink="http://www.w3.org/1999/xlink">
<g id="graph0" class="graph" transform="scale(1 1) rotate(0) translate(4 100)">
<title>gear_module::prepare_next_step</title>
<polygon fill="white" stroke="transparent" points="-4,4 -4,-100 679,-100 679,4 -4,4"/>
<!-- Node1 -->
<g id="node1" class="node">
<title>Node1</title>
<g id="a_node1"><a xlink:title="Stepsize and order control to pepare the next step.">
<polygon fill="#bfbfbf" stroke="black" points="0,-14 0,-44 109,-44 109,-14 0,-14"/>
<text text-anchor="start" x="8" y="-32" font-family="Helvetica,sans-Serif" font-size="10.00">gear_module::prepare</text>
<text text-anchor="middle" x="54.5" y="-21" font-family="Helvetica,sans-Serif" font-size="10.00">_next_step</text>
</a>
</g>
</g>
<!-- Node2 -->
<g id="node2" class="node">
<title>Node2</title>
<g id="a_node2"><a xlink:href="namespacegear__module.html#aad7e30fa9fbd479f10a892a3244f0f51" target="_top" xlink:title="Calculate errors (helper functions below)">
<polygon fill="white" stroke="black" points="146,-38.5 146,-57.5 261,-57.5 261,-38.5 146,-38.5"/>
<text text-anchor="middle" x="203.5" y="-45.5" font-family="Helvetica,sans-Serif" font-size="10.00">gear_module::geterrors</text>
</a>
</g>
</g>
<!-- Node1&#45;&gt;Node2 -->
<g id="edge1" class="edge">
<title>Node1&#45;&gt;Node2</title>
<path fill="none" stroke="midnightblue" d="M109.4,-35.97C117.88,-37.06 126.74,-38.21 135.47,-39.34"/>
<polygon fill="midnightblue" stroke="midnightblue" points="135.27,-42.84 145.64,-40.65 136.17,-35.9 135.27,-42.84"/>
</g>
<!-- Node8 -->
<g id="node8" class="node">
<title>Node8</title>
<g id="a_node8"><a xlink:href="namespacegear__module.html#a3b2e41ef2e9550808b08d355893147da" target="_top" xlink:title="Adjusts the order, if possible and necessary. This is done every qth step, or earlier in case the tim...">
<polygon fill="white" stroke="black" points="145,-0.5 145,-19.5 262,-19.5 262,-0.5 145,-0.5"/>
<text text-anchor="middle" x="203.5" y="-7.5" font-family="Helvetica,sans-Serif" font-size="10.00">gear_module::shiftorder</text>
</a>
</g>
</g>
<!-- Node1&#45;&gt;Node8 -->
<g id="edge7" class="edge">
<title>Node1&#45;&gt;Node8</title>
<path fill="none" stroke="midnightblue" d="M109.4,-22.03C117.56,-20.98 126.06,-19.88 134.47,-18.79"/>
<polygon fill="midnightblue" stroke="midnightblue" points="135.18,-22.23 144.65,-17.48 134.28,-15.29 135.18,-22.23"/>
</g>
<!-- Node3 -->
<g id="node3" class="node">
<title>Node3</title>
<g id="a_node3"><a xlink:href="namespacegear__module.html#a2cbafe47bb69873fc1a49f0308b10d1b" target="_top" xlink:title="Calculate the errors for the current order.">
<polygon fill="white" stroke="black" points="305,-76.5 305,-95.5 406,-95.5 406,-76.5 305,-76.5"/>
<text text-anchor="middle" x="355.5" y="-83.5" font-family="Helvetica,sans-Serif" font-size="10.00">gear_module::errorq</text>
</a>
</g>
</g>
<!-- Node2&#45;&gt;Node3 -->
<g id="edge2" class="edge">
<title>Node2&#45;&gt;Node3</title>
<path fill="none" stroke="midnightblue" d="M242.35,-57.59C261.97,-62.56 286.12,-68.68 306.98,-73.96"/>
<polygon fill="midnightblue" stroke="midnightblue" points="306.37,-77.42 316.92,-76.48 308.09,-70.63 306.37,-77.42"/>
</g>
<!-- Node4 -->
<g id="node4" class="node">
<title>Node4</title>
<g id="a_node4"><a xlink:href="namespacegear__module.html#ab3f9c438be424fb461b8a90dd3381ddf" target="_top" xlink:title="Calculate the errors for the order (q&#45;1)">
<polygon fill="white" stroke="black" points="298,-38.5 298,-57.5 413,-57.5 413,-38.5 298,-38.5"/>
<text text-anchor="middle" x="355.5" y="-45.5" font-family="Helvetica,sans-Serif" font-size="10.00">gear_module::errorqm1</text>
</a>
</g>
</g>
<!-- Node2&#45;&gt;Node4 -->
<g id="edge3" class="edge">
<title>Node2&#45;&gt;Node4</title>
<path fill="none" stroke="midnightblue" d="M261.21,-48C269.8,-48 278.72,-48 287.5,-48"/>
<polygon fill="midnightblue" stroke="midnightblue" points="287.71,-51.5 297.71,-48 287.71,-44.5 287.71,-51.5"/>
</g>
<!-- Node5 -->
<g id="node5" class="node">
<title>Node5</title>
<g id="a_node5"><a xlink:href="namespacegear__module.html#a5aabe000afc0b33a84492e16c3edd9e0" target="_top" xlink:title="Calculate the errors for the order (q+1)">
<polygon fill="white" stroke="black" points="299.5,-0.5 299.5,-19.5 411.5,-19.5 411.5,-0.5 299.5,-0.5"/>
<text text-anchor="middle" x="355.5" y="-7.5" font-family="Helvetica,sans-Serif" font-size="10.00">gear_module::errorqp1</text>
</a>
</g>
</g>
<!-- Node2&#45;&gt;Node5 -->
<g id="edge4" class="edge">
<title>Node2&#45;&gt;Node5</title>
<path fill="none" stroke="midnightblue" d="M242.35,-38.41C261.97,-33.44 286.12,-27.32 306.98,-22.04"/>
<polygon fill="midnightblue" stroke="midnightblue" points="308.09,-25.37 316.92,-19.52 306.37,-18.58 308.09,-25.37"/>
</g>
<!-- Node6 -->
<g id="node6" class="node">
<title>Node6</title>
<g id="a_node6"><a xlink:href="namespacegear__module.html#a5eb8eb2d29f325cb87a93372cdca9e7b" target="_top" xlink:title="Calculate Helper function Q.">
<polygon fill="white" stroke="black" points="449,-0.5 449,-19.5 544,-19.5 544,-0.5 449,-0.5"/>
<text text-anchor="middle" x="496.5" y="-7.5" font-family="Helvetica,sans-Serif" font-size="10.00">gear_module::qfun</text>
</a>
</g>
</g>
<!-- Node5&#45;&gt;Node6 -->
<g id="edge5" class="edge">
<title>Node5&#45;&gt;Node6</title>
<path fill="none" stroke="midnightblue" d="M411.84,-10C420.65,-10 429.78,-10 438.63,-10"/>
<polygon fill="midnightblue" stroke="midnightblue" points="438.86,-13.5 448.86,-10 438.86,-6.5 438.86,-13.5"/>
</g>
<!-- Node7 -->
<g id="node7" class="node">
<title>Node7</title>
<g id="a_node7"><a xlink:href="namespacegear__module.html#a5e0c979e530f76ee4cd8af42cf121194" target="_top" xlink:title="Calculate helper function C.">
<polygon fill="white" stroke="black" points="580,-0.5 580,-19.5 675,-19.5 675,-0.5 580,-0.5"/>
<text text-anchor="middle" x="627.5" y="-7.5" font-family="Helvetica,sans-Serif" font-size="10.00">gear_module::cfun</text>
</a>
</g>
</g>
<!-- Node6&#45;&gt;Node7 -->
<g id="edge6" class="edge">
<title>Node6&#45;&gt;Node7</title>
<path fill="none" stroke="midnightblue" d="M544.07,-10C552.48,-10 561.32,-10 569.97,-10"/>
<polygon fill="midnightblue" stroke="midnightblue" points="570,-13.5 580,-10 570,-6.5 570,-13.5"/>
</g>
</g>
</svg>
