<?xml version="1.0" encoding="UTF-8" standalone="no"?>
<!DOCTYPE svg PUBLIC "-//W3C//DTD SVG 1.1//EN"
 "http://www.w3.org/Graphics/SVG/1.1/DTD/svg11.dtd">
<!-- Generated by graphviz version 2.44.0 ()
 -->
<!-- Title: nuflux_class::output_binary_neutrino_reaction_data Pages: 1 -->
<svg width="749pt" height="61pt"
 viewBox="0.00 0.00 749.00 61.00" xmlns="http://www.w3.org/2000/svg" xmlns:xlink="http://www.w3.org/1999/xlink">
<g id="graph0" class="graph" transform="scale(1 1) rotate(0) translate(4 57)">
<title>nuflux_class::output_binary_neutrino_reaction_data</title>
<polygon fill="white" stroke="transparent" points="-4,4 -4,-57 745,-57 745,4 -4,4"/>
<!-- Node1 -->
<g id="node1" class="node">
<title>Node1</title>
<g id="a_node1"><a xlink:title="Write the reactions to a file in binary format.">
<polygon fill="#bfbfbf" stroke="black" points="0,-0.5 0,-30.5 151,-30.5 151,-0.5 0,-0.5"/>
<text text-anchor="start" x="8" y="-18.5" font-family="Helvetica,sans-Serif" font-size="10.00">nuflux_class::output</text>
<text text-anchor="middle" x="75.5" y="-7.5" font-family="Helvetica,sans-Serif" font-size="10.00">_binary_neutrino_reaction_data</text>
</a>
</g>
</g>
<!-- Node2 -->
<g id="node2" class="node">
<title>Node2</title>
<g id="a_node2"><a xlink:href="namespacefile__handling__class.html#a3396a31619e5149278d09cdd614d3497" target="_top" xlink:title="Shorthand for opening a new unformatted file for writing (output file)">
<polygon fill="white" stroke="black" points="187,-0.5 187,-30.5 317,-30.5 317,-0.5 187,-0.5"/>
<text text-anchor="start" x="195" y="-18.5" font-family="Helvetica,sans-Serif" font-size="10.00">file_handling_class</text>
<text text-anchor="middle" x="252" y="-7.5" font-family="Helvetica,sans-Serif" font-size="10.00">::open_unformatted_outfile</text>
</a>
</g>
</g>
<!-- Node1&#45;&gt;Node2 -->
<g id="edge1" class="edge">
<title>Node1&#45;&gt;Node2</title>
<path fill="none" stroke="midnightblue" d="M151.01,-15.5C159.51,-15.5 168.17,-15.5 176.66,-15.5"/>
<polygon fill="midnightblue" stroke="midnightblue" points="176.91,-19 186.91,-15.5 176.91,-12 176.91,-19"/>
</g>
<!-- Node3 -->
<g id="node3" class="node">
<title>Node3</title>
<g id="a_node3"><a xlink:href="namespacefile__handling__class.html#af02196bd5eaf70ecd5ab4cc650094d5e" target="_top" xlink:title="Finds the next unused unit number.">
<polygon fill="white" stroke="black" points="353,-22.5 353,-52.5 451,-52.5 451,-22.5 353,-22.5"/>
<text text-anchor="start" x="361" y="-40.5" font-family="Helvetica,sans-Serif" font-size="10.00">file_handling_class</text>
<text text-anchor="middle" x="402" y="-29.5" font-family="Helvetica,sans-Serif" font-size="10.00">::get_next_io_unit</text>
</a>
</g>
</g>
<!-- Node2&#45;&gt;Node3 -->
<g id="edge2" class="edge">
<title>Node2&#45;&gt;Node3</title>
<path fill="none" stroke="midnightblue" d="M317.05,-25.02C325.61,-26.29 334.34,-27.59 342.79,-28.85"/>
<polygon fill="midnightblue" stroke="midnightblue" points="342.51,-32.34 352.92,-30.35 343.54,-25.42 342.51,-32.34"/>
</g>
<!-- Node4 -->
<g id="node4" class="node">
<title>Node4</title>
<g id="a_node4"><a xlink:href="namespaceerror__msg__class.html#a2453d3b7cb363115c046840baa1dfb75" target="_top" xlink:title="Raise a exception with a given error message.">
<polygon fill="white" stroke="black" points="487,-0.5 487,-30.5 601,-30.5 601,-0.5 487,-0.5"/>
<text text-anchor="start" x="495" y="-18.5" font-family="Helvetica,sans-Serif" font-size="10.00">error_msg_class::raise</text>
<text text-anchor="middle" x="544" y="-7.5" font-family="Helvetica,sans-Serif" font-size="10.00">_exception</text>
</a>
</g>
</g>
<!-- Node2&#45;&gt;Node4 -->
<g id="edge5" class="edge">
<title>Node2&#45;&gt;Node4</title>
<path fill="none" stroke="midnightblue" d="M317.01,-14.03C328.97,-13.81 341.37,-13.62 353,-13.5 396.55,-13.06 407.45,-13.03 451,-13.5 459.27,-13.59 467.95,-13.73 476.55,-13.88"/>
<polygon fill="midnightblue" stroke="midnightblue" points="476.5,-17.38 486.56,-14.08 476.63,-10.38 476.5,-17.38"/>
</g>
<!-- Node3&#45;&gt;Node4 -->
<g id="edge3" class="edge">
<title>Node3&#45;&gt;Node4</title>
<path fill="none" stroke="midnightblue" d="M451.18,-29.93C459.37,-28.64 468,-27.29 476.55,-25.94"/>
<polygon fill="midnightblue" stroke="midnightblue" points="477.2,-29.38 486.54,-24.37 476.11,-22.47 477.2,-29.38"/>
</g>
<!-- Node5 -->
<g id="node5" class="node">
<title>Node5</title>
<g id="a_node5"><a xlink:href="namespaceerror__msg__class.html#a7e065585cc806a5c264de1f088266498" target="_top" xlink:title="Converts a given integer to a string.">
<polygon fill="white" stroke="black" points="637,-0.5 637,-30.5 741,-30.5 741,-0.5 637,-0.5"/>
<text text-anchor="start" x="645" y="-18.5" font-family="Helvetica,sans-Serif" font-size="10.00">error_msg_class::int</text>
<text text-anchor="middle" x="689" y="-7.5" font-family="Helvetica,sans-Serif" font-size="10.00">_to_str</text>
</a>
</g>
</g>
<!-- Node4&#45;&gt;Node5 -->
<g id="edge4" class="edge">
<title>Node4&#45;&gt;Node5</title>
<path fill="none" stroke="midnightblue" d="M601.11,-15.5C609.45,-15.5 618.09,-15.5 626.54,-15.5"/>
<polygon fill="midnightblue" stroke="midnightblue" points="626.71,-19 636.71,-15.5 626.71,-12 626.71,-19"/>
</g>
</g>
</svg>
