<?xml version="1.0" encoding="UTF-8" standalone="no"?>
<!DOCTYPE svg PUBLIC "-//W3C//DTD SVG 1.1//EN"
 "http://www.w3.org/Graphics/SVG/1.1/DTD/svg11.dtd">
<!-- Generated by graphviz version 2.44.0 ()
 -->
<!-- Title: fission_rate_module::mumpower_fiss Pages: 1 -->
<svg width="540pt" height="89pt"
 viewBox="0.00 0.00 540.00 88.50" xmlns="http://www.w3.org/2000/svg" xmlns:xlink="http://www.w3.org/1999/xlink">
<g id="graph0" class="graph" transform="scale(1 1) rotate(0) translate(4 84.5)">
<title>fission_rate_module::mumpower_fiss</title>
<polygon fill="white" stroke="transparent" points="-4,4 -4,-84.5 536,-84.5 536,4 -4,4"/>
<!-- Node1 -->
<g id="node1" class="node">
<title>Node1</title>
<g id="a_node1"><a xlink:title="Fill the rates with the correct fragments.">
<polygon fill="#bfbfbf" stroke="black" points="0,-22.5 0,-52.5 103,-52.5 103,-22.5 0,-22.5"/>
<text text-anchor="start" x="8" y="-40.5" font-family="Helvetica,sans-Serif" font-size="10.00">fission_rate_module</text>
<text text-anchor="middle" x="51.5" y="-29.5" font-family="Helvetica,sans-Serif" font-size="10.00">::mumpower_fiss</text>
</a>
</g>
</g>
<!-- Node2 -->
<g id="node2" class="node">
<title>Node2</title>
<g id="a_node2"><a xlink:href="namespacebenam__class.html#ad2f566697809a5731e560509d2ca7062" target="_top" xlink:title="Finds an isotope index in the network table, given its A and Z. In case it was not found,...">
<polygon fill="white" stroke="black" points="283,-61 283,-80 387,-80 387,-61 283,-61"/>
<text text-anchor="middle" x="335" y="-68" font-family="Helvetica,sans-Serif" font-size="10.00">benam_class::findaz</text>
</a>
</g>
</g>
<!-- Node1&#45;&gt;Node2 -->
<g id="edge1" class="edge">
<title>Node1&#45;&gt;Node2</title>
<path fill="none" stroke="midnightblue" d="M96.93,-52.55C110.3,-56.48 125.11,-60.24 139,-62.5 183.36,-69.71 234.1,-71.6 272.71,-71.74"/>
<polygon fill="midnightblue" stroke="midnightblue" points="272.75,-75.24 282.75,-71.74 272.75,-68.24 272.75,-75.24"/>
</g>
<!-- Node3 -->
<g id="node3" class="node">
<title>Node3</title>
<g id="a_node3"><a xlink:href="namespacefission__rate__module.html#a65555b9c0e03986c67316c9a6391b92b" target="_top" xlink:title="Kodama&#45;Takahashi distribution.">
<polygon fill="white" stroke="black" points="139,-22.5 139,-52.5 242,-52.5 242,-22.5 139,-22.5"/>
<text text-anchor="start" x="147" y="-40.5" font-family="Helvetica,sans-Serif" font-size="10.00">fission_rate_module</text>
<text text-anchor="middle" x="190.5" y="-29.5" font-family="Helvetica,sans-Serif" font-size="10.00">::kodtakdist</text>
</a>
</g>
</g>
<!-- Node1&#45;&gt;Node3 -->
<g id="edge2" class="edge">
<title>Node1&#45;&gt;Node3</title>
<path fill="none" stroke="midnightblue" d="M103.12,-37.5C111.36,-37.5 119.97,-37.5 128.42,-37.5"/>
<polygon fill="midnightblue" stroke="midnightblue" points="128.63,-41 138.63,-37.5 128.63,-34 128.63,-41"/>
</g>
<!-- Node4 -->
<g id="node4" class="node">
<title>Node4</title>
<g id="a_node4"><a xlink:href="namespaceerror__msg__class.html#a2453d3b7cb363115c046840baa1dfb75" target="_top" xlink:title="Raise a exception with a given error message.">
<polygon fill="white" stroke="black" points="278,-0.5 278,-30.5 392,-30.5 392,-0.5 278,-0.5"/>
<text text-anchor="start" x="286" y="-18.5" font-family="Helvetica,sans-Serif" font-size="10.00">error_msg_class::raise</text>
<text text-anchor="middle" x="335" y="-7.5" font-family="Helvetica,sans-Serif" font-size="10.00">_exception</text>
</a>
</g>
</g>
<!-- Node1&#45;&gt;Node4 -->
<g id="edge6" class="edge">
<title>Node1&#45;&gt;Node4</title>
<path fill="none" stroke="midnightblue" d="M95.54,-22.48C109.25,-18.4 124.61,-14.54 139,-12.5 181.44,-6.49 229.59,-7.16 267.43,-9.37"/>
<polygon fill="midnightblue" stroke="midnightblue" points="267.61,-12.89 277.81,-10.03 268.06,-5.9 267.61,-12.89"/>
</g>
<!-- Node3&#45;&gt;Node2 -->
<g id="edge3" class="edge">
<title>Node3&#45;&gt;Node2</title>
<path fill="none" stroke="midnightblue" d="M242.14,-49.23C255.4,-52.3 269.7,-55.61 282.98,-58.69"/>
<polygon fill="midnightblue" stroke="midnightblue" points="282.37,-62.14 292.9,-60.98 283.95,-55.32 282.37,-62.14"/>
</g>
<!-- Node3&#45;&gt;Node4 -->
<g id="edge4" class="edge">
<title>Node3&#45;&gt;Node4</title>
<path fill="none" stroke="midnightblue" d="M242.14,-29.68C250.42,-28.4 259.11,-27.06 267.7,-25.74"/>
<polygon fill="midnightblue" stroke="midnightblue" points="268.36,-29.18 277.71,-24.19 267.29,-22.26 268.36,-29.18"/>
</g>
<!-- Node5 -->
<g id="node5" class="node">
<title>Node5</title>
<g id="a_node5"><a xlink:href="namespaceerror__msg__class.html#a7e065585cc806a5c264de1f088266498" target="_top" xlink:title="Converts a given integer to a string.">
<polygon fill="white" stroke="black" points="428,-0.5 428,-30.5 532,-30.5 532,-0.5 428,-0.5"/>
<text text-anchor="start" x="436" y="-18.5" font-family="Helvetica,sans-Serif" font-size="10.00">error_msg_class::int</text>
<text text-anchor="middle" x="480" y="-7.5" font-family="Helvetica,sans-Serif" font-size="10.00">_to_str</text>
</a>
</g>
</g>
<!-- Node4&#45;&gt;Node5 -->
<g id="edge5" class="edge">
<title>Node4&#45;&gt;Node5</title>
<path fill="none" stroke="midnightblue" d="M392.11,-15.5C400.45,-15.5 409.09,-15.5 417.54,-15.5"/>
<polygon fill="midnightblue" stroke="midnightblue" points="417.71,-19 427.71,-15.5 417.71,-12 417.71,-19"/>
</g>
</g>
</svg>
