<?xml version="1.0" encoding="UTF-8" standalone="no"?>
<!DOCTYPE svg PUBLIC "-//W3C//DTD SVG 1.1//EN"
 "http://www.w3.org/Graphics/SVG/1.1/DTD/svg11.dtd">
<!-- Generated by graphviz version 2.44.0 ()
 -->
<!-- Title: parser_module::get_simple_result Pages: 1 -->
<svg width="557pt" height="200pt"
 viewBox="0.00 0.00 557.00 200.00" xmlns="http://www.w3.org/2000/svg" xmlns:xlink="http://www.w3.org/1999/xlink">
<g id="graph0" class="graph" transform="scale(1 1) rotate(0) translate(4 196)">
<title>parser_module::get_simple_result</title>
<polygon fill="white" stroke="transparent" points="-4,4 -4,-196 553,-196 553,4 -4,4"/>
<!-- Node1 -->
<g id="node1" class="node">
<title>Node1</title>
<g id="a_node1"><a xlink:title="Evaluate a simple string expression, without brackets and functions.">
<polygon fill="#bfbfbf" stroke="black" points="0,-63.5 0,-93.5 98,-93.5 98,-63.5 0,-63.5"/>
<text text-anchor="start" x="8" y="-81.5" font-family="Helvetica,sans-Serif" font-size="10.00">parser_module::get</text>
<text text-anchor="middle" x="49" y="-70.5" font-family="Helvetica,sans-Serif" font-size="10.00">_simple_result</text>
</a>
</g>
</g>
<!-- Node2 -->
<g id="node2" class="node">
<title>Node2</title>
<g id="a_node2"><a xlink:href="namespaceparser__module.html#a2cfd49c431619a7d7ded68e9f89bee70" target="_top" xlink:title="Function to decide whether a character is &quot;*&quot; or &quot;/&quot;.">
<polygon fill="white" stroke="black" points="141,-161.5 141,-191.5 252,-191.5 252,-161.5 141,-161.5"/>
<text text-anchor="start" x="149" y="-179.5" font-family="Helvetica,sans-Serif" font-size="10.00">parser_module::is_dot</text>
<text text-anchor="middle" x="196.5" y="-168.5" font-family="Helvetica,sans-Serif" font-size="10.00">_operator</text>
</a>
</g>
</g>
<!-- Node1&#45;&gt;Node2 -->
<g id="edge1" class="edge">
<title>Node1&#45;&gt;Node2</title>
<path fill="none" stroke="midnightblue" d="M63.91,-93.58C79.63,-109.9 106.61,-135.82 134,-152.5 136.61,-154.09 139.34,-155.61 142.14,-157.05"/>
<polygon fill="midnightblue" stroke="midnightblue" points="140.72,-160.25 151.25,-161.41 143.74,-153.94 140.72,-160.25"/>
</g>
<!-- Node3 -->
<g id="node3" class="node">
<title>Node3</title>
<g id="a_node3"><a xlink:href="namespaceparser__module.html#ae2806c52d9868da3855d28c188a1679e" target="_top" xlink:title="Function to decide whether a character is a &quot;+&quot; or &quot;&#45;&quot;.">
<polygon fill="white" stroke="black" points="140,-112.5 140,-142.5 253,-142.5 253,-112.5 140,-112.5"/>
<text text-anchor="start" x="148" y="-130.5" font-family="Helvetica,sans-Serif" font-size="10.00">parser_module::is_line</text>
<text text-anchor="middle" x="196.5" y="-119.5" font-family="Helvetica,sans-Serif" font-size="10.00">_operator</text>
</a>
</g>
</g>
<!-- Node1&#45;&gt;Node3 -->
<g id="edge2" class="edge">
<title>Node1&#45;&gt;Node3</title>
<path fill="none" stroke="midnightblue" d="M94.84,-93.6C109.43,-98.51 125.79,-104.02 141,-109.15"/>
<polygon fill="midnightblue" stroke="midnightblue" points="140.21,-112.57 150.81,-112.45 142.45,-105.94 140.21,-112.57"/>
</g>
<!-- Node4 -->
<g id="node4" class="node">
<title>Node4</title>
<g id="a_node4"><a xlink:href="namespaceparser__module.html#a55c1c7aac46e95ec6634aa8a514a90b0" target="_top" xlink:title="Function to decide whether a character is a &quot;^&quot;.">
<polygon fill="white" stroke="black" points="134.5,-63.5 134.5,-93.5 258.5,-93.5 258.5,-63.5 134.5,-63.5"/>
<text text-anchor="start" x="142.5" y="-81.5" font-family="Helvetica,sans-Serif" font-size="10.00">parser_module::is_power</text>
<text text-anchor="middle" x="196.5" y="-70.5" font-family="Helvetica,sans-Serif" font-size="10.00">_operator</text>
</a>
</g>
</g>
<!-- Node1&#45;&gt;Node4 -->
<g id="edge3" class="edge">
<title>Node1&#45;&gt;Node4</title>
<path fill="none" stroke="midnightblue" d="M98.05,-78.5C106.37,-78.5 115.19,-78.5 123.99,-78.5"/>
<polygon fill="midnightblue" stroke="midnightblue" points="124.27,-82 134.27,-78.5 124.27,-75 124.27,-82"/>
</g>
<!-- Node5 -->
<g id="node5" class="node">
<title>Node5</title>
<g id="a_node5"><a xlink:href="namespaceparser__module.html#a2040007bd269f7920bcfee6840eb41de" target="_top" xlink:title="Function to perform a simple mathematical operation.">
<polygon fill="white" stroke="black" points="134,-25 134,-44 259,-44 259,-25 134,-25"/>
<text text-anchor="middle" x="196.5" y="-32" font-family="Helvetica,sans-Serif" font-size="10.00">parser_module::operation</text>
</a>
</g>
</g>
<!-- Node1&#45;&gt;Node5 -->
<g id="edge4" class="edge">
<title>Node1&#45;&gt;Node5</title>
<path fill="none" stroke="midnightblue" d="M98.05,-63.97C116.17,-58.49 136.63,-52.3 154.1,-47.02"/>
<polygon fill="midnightblue" stroke="midnightblue" points="155.44,-50.27 164,-44.03 153.41,-43.57 155.44,-50.27"/>
</g>
<!-- Node6 -->
<g id="node6" class="node">
<title>Node6</title>
<g id="a_node6"><a xlink:href="namespaceerror__msg__class.html#a2453d3b7cb363115c046840baa1dfb75" target="_top" xlink:title="Raise a exception with a given error message.">
<polygon fill="white" stroke="black" points="295,-0.5 295,-30.5 409,-30.5 409,-0.5 295,-0.5"/>
<text text-anchor="start" x="303" y="-18.5" font-family="Helvetica,sans-Serif" font-size="10.00">error_msg_class::raise</text>
<text text-anchor="middle" x="352" y="-7.5" font-family="Helvetica,sans-Serif" font-size="10.00">_exception</text>
</a>
</g>
</g>
<!-- Node1&#45;&gt;Node6 -->
<g id="edge7" class="edge">
<title>Node1&#45;&gt;Node6</title>
<path fill="none" stroke="midnightblue" d="M64.04,-63.32C79.46,-47.87 105.81,-24.9 134,-15.5 182.58,0.69 240.74,-0.31 284.62,-4.81"/>
<polygon fill="midnightblue" stroke="midnightblue" points="284.27,-8.29 294.6,-5.92 285.05,-1.34 284.27,-8.29"/>
</g>
<!-- Node5&#45;&gt;Node6 -->
<g id="edge5" class="edge">
<title>Node5&#45;&gt;Node6</title>
<path fill="none" stroke="midnightblue" d="M259.05,-26.88C267.56,-25.83 276.34,-24.74 284.93,-23.68"/>
<polygon fill="midnightblue" stroke="midnightblue" points="285.41,-27.15 294.9,-22.44 284.55,-20.2 285.41,-27.15"/>
</g>
<!-- Node7 -->
<g id="node7" class="node">
<title>Node7</title>
<g id="a_node7"><a xlink:href="namespaceerror__msg__class.html#a7e065585cc806a5c264de1f088266498" target="_top" xlink:title="Converts a given integer to a string.">
<polygon fill="white" stroke="black" points="445,-0.5 445,-30.5 549,-30.5 549,-0.5 445,-0.5"/>
<text text-anchor="start" x="453" y="-18.5" font-family="Helvetica,sans-Serif" font-size="10.00">error_msg_class::int</text>
<text text-anchor="middle" x="497" y="-7.5" font-family="Helvetica,sans-Serif" font-size="10.00">_to_str</text>
</a>
</g>
</g>
<!-- Node6&#45;&gt;Node7 -->
<g id="edge6" class="edge">
<title>Node6&#45;&gt;Node7</title>
<path fill="none" stroke="midnightblue" d="M409.11,-15.5C417.45,-15.5 426.09,-15.5 434.54,-15.5"/>
<polygon fill="midnightblue" stroke="midnightblue" points="434.71,-19 444.71,-15.5 434.71,-12 434.71,-19"/>
</g>
</g>
</svg>
