<?xml version="1.0" encoding="UTF-8" standalone="no"?>
<!DOCTYPE svg PUBLIC "-//W3C//DTD SVG 1.1//EN"
 "http://www.w3.org/Graphics/SVG/1.1/DTD/svg11.dtd">
<!-- Generated by graphviz version 2.44.0 ()
 -->
<!-- Title: tabulated_rate_module::readtabulatedtemps Pages: 1 -->
<svg width="681pt" height="75pt"
 viewBox="0.00 0.00 681.00 75.08" xmlns="http://www.w3.org/2000/svg" xmlns:xlink="http://www.w3.org/1999/xlink">
<g id="graph0" class="graph" transform="scale(1 1) rotate(0) translate(4 71.08)">
<title>tabulated_rate_module::readtabulatedtemps</title>
<polygon fill="white" stroke="transparent" points="-4,4 -4,-71.08 677,-71.08 677,4 -4,4"/>
<!-- Node1 -->
<g id="node1" class="node">
<title>Node1</title>
<g id="a_node1"><a xlink:title="Reads tabulated reaction rate temperature grid.">
<polygon fill="#bfbfbf" stroke="black" points="0,-36.58 0,-66.58 115,-66.58 115,-36.58 0,-36.58"/>
<text text-anchor="start" x="8" y="-54.58" font-family="Helvetica,sans-Serif" font-size="10.00">tabulated_rate_module</text>
<text text-anchor="middle" x="57.5" y="-43.58" font-family="Helvetica,sans-Serif" font-size="10.00">::readtabulatedtemps</text>
</a>
</g>
</g>
<!-- Node2 -->
<g id="node2" class="node">
<title>Node2</title>
<g id="a_node2"><a xlink:href="namespaceerror__msg__class.html#a7e065585cc806a5c264de1f088266498" target="_top" xlink:title="Converts a given integer to a string.">
<polygon fill="white" stroke="black" points="569,-36.58 569,-66.58 673,-66.58 673,-36.58 569,-36.58"/>
<text text-anchor="start" x="577" y="-54.58" font-family="Helvetica,sans-Serif" font-size="10.00">error_msg_class::int</text>
<text text-anchor="middle" x="621" y="-43.58" font-family="Helvetica,sans-Serif" font-size="10.00">_to_str</text>
</a>
</g>
</g>
<!-- Node1&#45;&gt;Node2 -->
<g id="edge1" class="edge">
<title>Node1&#45;&gt;Node2</title>
<path fill="none" stroke="midnightblue" d="M115.24,-53C127.06,-53.24 139.44,-53.45 151,-53.58 320.77,-55.41 363.23,-55.53 533,-53.58 541.36,-53.48 550.17,-53.34 558.85,-53.16"/>
<polygon fill="midnightblue" stroke="midnightblue" points="559.02,-56.66 568.94,-52.95 558.87,-49.66 559.02,-56.66"/>
</g>
<!-- Node3 -->
<g id="node3" class="node">
<title>Node3</title>
<g id="a_node3"><a xlink:href="namespacefile__handling__class.html#aab870caaf9cbaaf635d537708efbf793" target="_top" xlink:title="Same for reading (input file)">
<polygon fill="white" stroke="black" points="151,-14.58 151,-44.58 249,-44.58 249,-14.58 151,-14.58"/>
<text text-anchor="start" x="159" y="-32.58" font-family="Helvetica,sans-Serif" font-size="10.00">file_handling_class</text>
<text text-anchor="middle" x="200" y="-21.58" font-family="Helvetica,sans-Serif" font-size="10.00">::open_infile</text>
</a>
</g>
</g>
<!-- Node1&#45;&gt;Node3 -->
<g id="edge2" class="edge">
<title>Node1&#45;&gt;Node3</title>
<path fill="none" stroke="midnightblue" d="M115.24,-42.69C123.58,-41.39 132.18,-40.04 140.55,-38.73"/>
<polygon fill="midnightblue" stroke="midnightblue" points="141.28,-42.16 150.62,-37.15 140.2,-35.24 141.28,-42.16"/>
</g>
<!-- Node4 -->
<g id="node4" class="node">
<title>Node4</title>
<g id="a_node4"><a xlink:href="namespacefile__handling__class.html#af02196bd5eaf70ecd5ab4cc650094d5e" target="_top" xlink:title="Finds the next unused unit number.">
<polygon fill="white" stroke="black" points="285,-14.58 285,-44.58 383,-44.58 383,-14.58 285,-14.58"/>
<text text-anchor="start" x="293" y="-32.58" font-family="Helvetica,sans-Serif" font-size="10.00">file_handling_class</text>
<text text-anchor="middle" x="334" y="-21.58" font-family="Helvetica,sans-Serif" font-size="10.00">::get_next_io_unit</text>
</a>
</g>
</g>
<!-- Node3&#45;&gt;Node4 -->
<g id="edge3" class="edge">
<title>Node3&#45;&gt;Node4</title>
<path fill="none" stroke="midnightblue" d="M249.03,-29.58C257.31,-29.58 266,-29.58 274.52,-29.58"/>
<polygon fill="midnightblue" stroke="midnightblue" points="274.79,-33.08 284.79,-29.58 274.79,-26.08 274.79,-33.08"/>
</g>
<!-- Node5 -->
<g id="node5" class="node">
<title>Node5</title>
<g id="a_node5"><a xlink:href="namespaceerror__msg__class.html#a2453d3b7cb363115c046840baa1dfb75" target="_top" xlink:title="Raise a exception with a given error message.">
<polygon fill="white" stroke="black" points="419,-14.58 419,-44.58 533,-44.58 533,-14.58 419,-14.58"/>
<text text-anchor="start" x="427" y="-32.58" font-family="Helvetica,sans-Serif" font-size="10.00">error_msg_class::raise</text>
<text text-anchor="middle" x="476" y="-21.58" font-family="Helvetica,sans-Serif" font-size="10.00">_exception</text>
</a>
</g>
</g>
<!-- Node3&#45;&gt;Node5 -->
<g id="edge6" class="edge">
<title>Node3&#45;&gt;Node5</title>
<path fill="none" stroke="midnightblue" d="M242.77,-14.56C256.08,-10.48 271,-6.62 285,-4.58 328.1,1.7 339.83,1.18 383,-4.58 394.92,-6.17 407.48,-8.87 419.37,-11.93"/>
<polygon fill="midnightblue" stroke="midnightblue" points="418.59,-15.34 429.16,-14.56 420.41,-8.58 418.59,-15.34"/>
</g>
<!-- Node4&#45;&gt;Node5 -->
<g id="edge4" class="edge">
<title>Node4&#45;&gt;Node5</title>
<path fill="none" stroke="midnightblue" d="M383.18,-29.58C391.28,-29.58 399.81,-29.58 408.27,-29.58"/>
<polygon fill="midnightblue" stroke="midnightblue" points="408.54,-33.08 418.54,-29.58 408.54,-26.08 408.54,-33.08"/>
</g>
<!-- Node5&#45;&gt;Node2 -->
<g id="edge5" class="edge">
<title>Node5&#45;&gt;Node2</title>
<path fill="none" stroke="midnightblue" d="M533.11,-38.21C541.54,-39.51 550.28,-40.85 558.81,-42.17"/>
<polygon fill="midnightblue" stroke="midnightblue" points="558.3,-45.63 568.71,-43.69 559.36,-38.71 558.3,-45.63"/>
</g>
</g>
</svg>
