<?xml version="1.0" encoding="UTF-8" standalone="no"?>
<!DOCTYPE svg PUBLIC "-//W3C//DTD SVG 1.1//EN"
 "http://www.w3.org/Graphics/SVG/1.1/DTD/svg11.dtd">
<!-- Generated by graphviz version 2.44.0 ()
 -->
<!-- Title: tabulated_rate_module::readtabulated Pages: 1 -->
<svg width="766pt" height="241pt"
 viewBox="0.00 0.00 766.00 240.50" xmlns="http://www.w3.org/2000/svg" xmlns:xlink="http://www.w3.org/1999/xlink">
<g id="graph0" class="graph" transform="scale(1 1) rotate(0) translate(4 236.5)">
<title>tabulated_rate_module::readtabulated</title>
<polygon fill="white" stroke="transparent" points="-4,4 -4,-236.5 762,-236.5 762,4 -4,4"/>
<!-- Node1 -->
<g id="node1" class="node">
<title>Node1</title>
<g id="a_node1"><a xlink:title="Reads tabulated reaction rates.">
<polygon fill="#bfbfbf" stroke="black" points="0,-150.5 0,-180.5 115,-180.5 115,-150.5 0,-150.5"/>
<text text-anchor="start" x="8" y="-168.5" font-family="Helvetica,sans-Serif" font-size="10.00">tabulated_rate_module</text>
<text text-anchor="middle" x="57.5" y="-157.5" font-family="Helvetica,sans-Serif" font-size="10.00">::readtabulated</text>
</a>
</g>
</g>
<!-- Node2 -->
<g id="node2" class="node">
<title>Node2</title>
<g id="a_node2"><a xlink:href="namespacebenam__class.html#ad20c821347dd5f7c08dff59c98e69657" target="_top" xlink:title="Returns the index number of isotope &#39;name&#39;.">
<polygon fill="white" stroke="black" points="167.5,-213 167.5,-232 275.5,-232 275.5,-213 167.5,-213"/>
<text text-anchor="middle" x="221.5" y="-220" font-family="Helvetica,sans-Serif" font-size="10.00">benam_class::benam</text>
</a>
</g>
</g>
<!-- Node1&#45;&gt;Node2 -->
<g id="edge1" class="edge">
<title>Node1&#45;&gt;Node2</title>
<path fill="none" stroke="midnightblue" d="M92.38,-180.59C109.72,-188.01 131.28,-196.78 151,-203.5 157.92,-205.86 165.3,-208.13 172.57,-210.23"/>
<polygon fill="midnightblue" stroke="midnightblue" points="171.8,-213.65 182.37,-212.98 173.69,-206.91 171.8,-213.65"/>
</g>
<!-- Node3 -->
<g id="node3" class="node">
<title>Node3</title>
<g id="a_node3"><a xlink:href="namespacebenam__class.html#af8144ea43fb40187e32fb83da48458f1" target="_top" xlink:title="Returns the 1/n! factor where n is the number of equal isotopes entering a reaction....">
<polygon fill="white" stroke="black" points="151,-175 151,-194 292,-194 292,-175 151,-175"/>
<text text-anchor="middle" x="221.5" y="-182" font-family="Helvetica,sans-Serif" font-size="10.00">benam_class::getcoefficients</text>
</a>
</g>
</g>
<!-- Node1&#45;&gt;Node3 -->
<g id="edge2" class="edge">
<title>Node1&#45;&gt;Node3</title>
<path fill="none" stroke="midnightblue" d="M115.16,-172.15C123.42,-173.11 132.06,-174.13 140.68,-175.14"/>
<polygon fill="midnightblue" stroke="midnightblue" points="140.42,-178.63 150.76,-176.32 141.24,-171.68 140.42,-178.63"/>
</g>
<!-- Node4 -->
<g id="node4" class="node">
<title>Node4</title>
<g id="a_node4"><a xlink:href="namespaceerror__msg__class.html#a7e065585cc806a5c264de1f088266498" target="_top" xlink:title="Converts a given integer to a string.">
<polygon fill="white" stroke="black" points="654,-66.5 654,-96.5 758,-96.5 758,-66.5 654,-66.5"/>
<text text-anchor="start" x="662" y="-84.5" font-family="Helvetica,sans-Serif" font-size="10.00">error_msg_class::int</text>
<text text-anchor="middle" x="706" y="-73.5" font-family="Helvetica,sans-Serif" font-size="10.00">_to_str</text>
</a>
</g>
</g>
<!-- Node1&#45;&gt;Node4 -->
<g id="edge3" class="edge">
<title>Node1&#45;&gt;Node4</title>
<path fill="none" stroke="midnightblue" d="M115.33,-161.89C194.57,-156.47 342.66,-144.98 468,-127.5 535.17,-118.13 551.46,-112.59 618,-99.5 626.47,-97.83 635.39,-96.04 644.16,-94.24"/>
<polygon fill="midnightblue" stroke="midnightblue" points="644.88,-97.67 653.97,-92.23 643.47,-90.81 644.88,-97.67"/>
</g>
<!-- Node5 -->
<g id="node5" class="node">
<title>Node5</title>
<g id="a_node5"><a xlink:href="namespacereaclib__rate__module.html#a8e23d45ed0420de076b8f07863151a34" target="_top" xlink:title="Set a flag for the reaction type.">
<polygon fill="white" stroke="black" points="169.5,-68.5 169.5,-98.5 273.5,-98.5 273.5,-68.5 169.5,-68.5"/>
<text text-anchor="start" x="177.5" y="-86.5" font-family="Helvetica,sans-Serif" font-size="10.00">reaclib_rate_module</text>
<text text-anchor="middle" x="221.5" y="-75.5" font-family="Helvetica,sans-Serif" font-size="10.00">::set_reaction_type</text>
</a>
</g>
</g>
<!-- Node1&#45;&gt;Node5 -->
<g id="edge4" class="edge">
<title>Node1&#45;&gt;Node5</title>
<path fill="none" stroke="midnightblue" d="M88.21,-150.46C114.51,-137.15 153.05,-117.64 181.75,-103.11"/>
<polygon fill="midnightblue" stroke="midnightblue" points="183.36,-106.22 190.7,-98.58 180.2,-99.98 183.36,-106.22"/>
</g>
<!-- Node6 -->
<g id="node6" class="node">
<title>Node6</title>
<g id="a_node6"><a xlink:href="namespacebenam__class.html#afd880df70f94c289b6bda0647f4494e3" target="_top" xlink:title="Getter of net_names, translating indices to a nucleus name.">
<polygon fill="white" stroke="black" points="328,-99 328,-118 468,-118 468,-99 328,-99"/>
<text text-anchor="middle" x="398" y="-106" font-family="Helvetica,sans-Serif" font-size="10.00">benam_class::get_net_name</text>
</a>
</g>
</g>
<!-- Node5&#45;&gt;Node6 -->
<g id="edge5" class="edge">
<title>Node5&#45;&gt;Node6</title>
<path fill="none" stroke="midnightblue" d="M273.91,-90.87C288.43,-92.95 304.54,-95.25 320.2,-97.5"/>
<polygon fill="midnightblue" stroke="midnightblue" points="320.01,-101.01 330.41,-98.96 321,-94.08 320.01,-101.01"/>
</g>
<!-- Node7 -->
<g id="node7" class="node">
<title>Node7</title>
<g id="a_node7"><a xlink:href="namespacenucstuff__class.html#adb871d9f6d0e6ec5db0a0808201ab3db" target="_top" xlink:title="Get number of products of the reaction based on the reaclib chapter.">
<polygon fill="white" stroke="black" points="349,-49.5 349,-79.5 447,-79.5 447,-49.5 349,-49.5"/>
<text text-anchor="start" x="357" y="-67.5" font-family="Helvetica,sans-Serif" font-size="10.00">nucstuff_class::get</text>
<text text-anchor="middle" x="398" y="-56.5" font-family="Helvetica,sans-Serif" font-size="10.00">_nr_products</text>
</a>
</g>
</g>
<!-- Node5&#45;&gt;Node7 -->
<g id="edge6" class="edge">
<title>Node5&#45;&gt;Node7</title>
<path fill="none" stroke="midnightblue" d="M273.91,-77.9C294.3,-75.68 317.85,-73.12 338.86,-70.83"/>
<polygon fill="midnightblue" stroke="midnightblue" points="339.38,-74.29 348.94,-69.73 338.62,-67.34 339.38,-74.29"/>
</g>
<!-- Node9 -->
<g id="node9" class="node">
<title>Node9</title>
<g id="a_node9"><a xlink:href="namespacenucstuff__class.html#a5fa1f79d38fd5b01a5d6d797fea0132d" target="_top" xlink:title="Get number of reactants of the reaction based on the reaclib chapter.">
<polygon fill="white" stroke="black" points="349,-0.5 349,-30.5 447,-30.5 447,-0.5 349,-0.5"/>
<text text-anchor="start" x="357" y="-18.5" font-family="Helvetica,sans-Serif" font-size="10.00">nucstuff_class::get</text>
<text text-anchor="middle" x="398" y="-7.5" font-family="Helvetica,sans-Serif" font-size="10.00">_nr_reactants</text>
</a>
</g>
</g>
<!-- Node5&#45;&gt;Node9 -->
<g id="edge10" class="edge">
<title>Node5&#45;&gt;Node9</title>
<path fill="none" stroke="midnightblue" d="M257.45,-68.3C277.9,-59.57 304.27,-48.57 328,-39.5 332.77,-37.68 337.74,-35.84 342.73,-34.03"/>
<polygon fill="midnightblue" stroke="midnightblue" points="344.08,-37.26 352.32,-30.6 341.72,-30.67 344.08,-37.26"/>
</g>
<!-- Node7&#45;&gt;Node4 -->
<g id="edge7" class="edge">
<title>Node7&#45;&gt;Node4</title>
<path fill="none" stroke="midnightblue" d="M447.08,-75.63C464.86,-79.22 485.25,-82.73 504,-84.5 554.44,-89.26 567.34,-85.37 618,-84.5 626.36,-84.36 635.18,-84.13 643.85,-83.87"/>
<polygon fill="midnightblue" stroke="midnightblue" points="644.06,-87.37 653.94,-83.55 643.84,-80.37 644.06,-87.37"/>
</g>
<!-- Node8 -->
<g id="node8" class="node">
<title>Node8</title>
<g id="a_node8"><a xlink:href="namespaceerror__msg__class.html#a2453d3b7cb363115c046840baa1dfb75" target="_top" xlink:title="Raise a exception with a given error message.">
<polygon fill="white" stroke="black" points="504,-44.5 504,-74.5 618,-74.5 618,-44.5 504,-44.5"/>
<text text-anchor="start" x="512" y="-62.5" font-family="Helvetica,sans-Serif" font-size="10.00">error_msg_class::raise</text>
<text text-anchor="middle" x="561" y="-51.5" font-family="Helvetica,sans-Serif" font-size="10.00">_exception</text>
</a>
</g>
</g>
<!-- Node7&#45;&gt;Node8 -->
<g id="edge8" class="edge">
<title>Node7&#45;&gt;Node8</title>
<path fill="none" stroke="midnightblue" d="M447.31,-63C461.89,-62.55 478.17,-62.04 493.72,-61.56"/>
<polygon fill="midnightblue" stroke="midnightblue" points="493.92,-65.05 503.8,-61.25 493.7,-58.06 493.92,-65.05"/>
</g>
<!-- Node8&#45;&gt;Node4 -->
<g id="edge9" class="edge">
<title>Node8&#45;&gt;Node4</title>
<path fill="none" stroke="midnightblue" d="M618.11,-68.13C626.54,-69.43 635.28,-70.77 643.81,-72.09"/>
<polygon fill="midnightblue" stroke="midnightblue" points="643.3,-75.55 653.71,-73.61 644.36,-68.63 643.3,-75.55"/>
</g>
<!-- Node9&#45;&gt;Node4 -->
<g id="edge11" class="edge">
<title>Node9&#45;&gt;Node4</title>
<path fill="none" stroke="midnightblue" d="M447.04,-14.12C492.12,-14.1 560.97,-17.42 618,-34.5 637.8,-40.43 658.21,-51.17 674.29,-60.89"/>
<polygon fill="midnightblue" stroke="midnightblue" points="672.87,-64.14 683.21,-66.46 676.58,-58.2 672.87,-64.14"/>
</g>
<!-- Node9&#45;&gt;Node8 -->
<g id="edge12" class="edge">
<title>Node9&#45;&gt;Node8</title>
<path fill="none" stroke="midnightblue" d="M447.31,-28.7C462.34,-32.81 479.17,-37.41 495.14,-41.77"/>
<polygon fill="midnightblue" stroke="midnightblue" points="494.38,-45.2 504.95,-44.46 496.23,-38.44 494.38,-45.2"/>
</g>
</g>
</svg>
