<?xml version="1.0" encoding="UTF-8" standalone="no"?>
<!DOCTYPE svg PUBLIC "-//W3C//DTD SVG 1.1//EN"
 "http://www.w3.org/Graphics/SVG/1.1/DTD/svg11.dtd">
<!-- Generated by graphviz version 2.44.0 ()
 -->
<!-- Title: fission_rate_module::read_fiss_fragment_file Pages: 1 -->
<svg width="693pt" height="93pt"
 viewBox="0.00 0.00 693.00 92.54" xmlns="http://www.w3.org/2000/svg" xmlns:xlink="http://www.w3.org/1999/xlink">
<g id="graph0" class="graph" transform="scale(1 1) rotate(0) translate(4 88.54)">
<title>fission_rate_module::read_fiss_fragment_file</title>
<polygon fill="white" stroke="transparent" points="-4,4 -4,-88.54 689,-88.54 689,4 -4,4"/>
<!-- Node1 -->
<g id="node1" class="node">
<title>Node1</title>
<g id="a_node1"><a xlink:title=" ">
<polygon fill="#bfbfbf" stroke="black" points="0,-15.54 0,-45.54 121,-45.54 121,-15.54 0,-15.54"/>
<text text-anchor="start" x="8" y="-33.54" font-family="Helvetica,sans-Serif" font-size="10.00">fission_rate_module</text>
<text text-anchor="middle" x="60.5" y="-22.54" font-family="Helvetica,sans-Serif" font-size="10.00">::read_fiss_fragment_file</text>
</a>
</g>
</g>
<!-- Node2 -->
<g id="node2" class="node">
<title>Node2</title>
<g id="a_node2"><a xlink:href="namespacebenam__class.html#ad2f566697809a5731e560509d2ca7062" target="_top" xlink:title="Finds an isotope index in the network table, given its A and Z. In case it was not found,...">
<polygon fill="white" stroke="black" points="157,-65.04 157,-84.04 261,-84.04 261,-65.04 157,-65.04"/>
<text text-anchor="middle" x="209" y="-72.04" font-family="Helvetica,sans-Serif" font-size="10.00">benam_class::findaz</text>
</a>
</g>
</g>
<!-- Node1&#45;&gt;Node2 -->
<g id="edge1" class="edge">
<title>Node1&#45;&gt;Node2</title>
<path fill="none" stroke="midnightblue" d="M111.51,-45.56C129.38,-50.93 149.32,-56.92 166.41,-62.05"/>
<polygon fill="midnightblue" stroke="midnightblue" points="165.52,-65.44 176.11,-64.96 167.54,-58.74 165.52,-65.44"/>
</g>
<!-- Node3 -->
<g id="node3" class="node">
<title>Node3</title>
<g id="a_node3"><a xlink:href="namespacefile__handling__class.html#aab870caaf9cbaaf635d537708efbf793" target="_top" xlink:title="Same for reading (input file)">
<polygon fill="white" stroke="black" points="160,-15.54 160,-45.54 258,-45.54 258,-15.54 160,-15.54"/>
<text text-anchor="start" x="168" y="-33.54" font-family="Helvetica,sans-Serif" font-size="10.00">file_handling_class</text>
<text text-anchor="middle" x="209" y="-22.54" font-family="Helvetica,sans-Serif" font-size="10.00">::open_infile</text>
</a>
</g>
</g>
<!-- Node1&#45;&gt;Node3 -->
<g id="edge2" class="edge">
<title>Node1&#45;&gt;Node3</title>
<path fill="none" stroke="midnightblue" d="M121.09,-30.54C130.51,-30.54 140.25,-30.54 149.64,-30.54"/>
<polygon fill="midnightblue" stroke="midnightblue" points="149.68,-34.04 159.68,-30.54 149.68,-27.04 149.68,-34.04"/>
</g>
<!-- Node5 -->
<g id="node5" class="node">
<title>Node5</title>
<g id="a_node5"><a xlink:href="namespaceerror__msg__class.html#a2453d3b7cb363115c046840baa1dfb75" target="_top" xlink:title="Raise a exception with a given error message.">
<polygon fill="white" stroke="black" points="431,-9.54 431,-39.54 545,-39.54 545,-9.54 431,-9.54"/>
<text text-anchor="start" x="439" y="-27.54" font-family="Helvetica,sans-Serif" font-size="10.00">error_msg_class::raise</text>
<text text-anchor="middle" x="488" y="-16.54" font-family="Helvetica,sans-Serif" font-size="10.00">_exception</text>
</a>
</g>
</g>
<!-- Node1&#45;&gt;Node5 -->
<g id="edge7" class="edge">
<title>Node1&#45;&gt;Node5</title>
<path fill="none" stroke="midnightblue" d="M109.12,-15.52C124.27,-11.43 141.19,-7.58 157,-5.54 247.95,6.16 353.94,-4.15 420.75,-13.55"/>
<polygon fill="midnightblue" stroke="midnightblue" points="420.33,-17.02 430.72,-14.99 421.32,-10.1 420.33,-17.02"/>
</g>
<!-- Node4 -->
<g id="node4" class="node">
<title>Node4</title>
<g id="a_node4"><a xlink:href="namespacefile__handling__class.html#af02196bd5eaf70ecd5ab4cc650094d5e" target="_top" xlink:title="Finds the next unused unit number.">
<polygon fill="white" stroke="black" points="297,-53.54 297,-83.54 395,-83.54 395,-53.54 297,-53.54"/>
<text text-anchor="start" x="305" y="-71.54" font-family="Helvetica,sans-Serif" font-size="10.00">file_handling_class</text>
<text text-anchor="middle" x="346" y="-60.54" font-family="Helvetica,sans-Serif" font-size="10.00">::get_next_io_unit</text>
</a>
</g>
</g>
<!-- Node3&#45;&gt;Node4 -->
<g id="edge3" class="edge">
<title>Node3&#45;&gt;Node4</title>
<path fill="none" stroke="midnightblue" d="M258.36,-44.15C267.68,-46.78 277.53,-49.55 287.12,-52.25"/>
<polygon fill="midnightblue" stroke="midnightblue" points="286.41,-55.69 296.98,-55.03 288.3,-48.95 286.41,-55.69"/>
</g>
<!-- Node3&#45;&gt;Node5 -->
<g id="edge6" class="edge">
<title>Node3&#45;&gt;Node5</title>
<path fill="none" stroke="midnightblue" d="M258.25,-29.5C303.2,-28.52 370.63,-27.06 420.64,-25.98"/>
<polygon fill="midnightblue" stroke="midnightblue" points="420.79,-29.48 430.72,-25.76 420.64,-22.48 420.79,-29.48"/>
</g>
<!-- Node4&#45;&gt;Node5 -->
<g id="edge4" class="edge">
<title>Node4&#45;&gt;Node5</title>
<path fill="none" stroke="midnightblue" d="M394.79,-53.52C405.82,-50.06 417.66,-46.33 429.07,-42.75"/>
<polygon fill="midnightblue" stroke="midnightblue" points="430.46,-45.98 438.95,-39.64 428.36,-39.3 430.46,-45.98"/>
</g>
<!-- Node6 -->
<g id="node6" class="node">
<title>Node6</title>
<g id="a_node6"><a xlink:href="namespaceerror__msg__class.html#a7e065585cc806a5c264de1f088266498" target="_top" xlink:title="Converts a given integer to a string.">
<polygon fill="white" stroke="black" points="581,-9.54 581,-39.54 685,-39.54 685,-9.54 581,-9.54"/>
<text text-anchor="start" x="589" y="-27.54" font-family="Helvetica,sans-Serif" font-size="10.00">error_msg_class::int</text>
<text text-anchor="middle" x="633" y="-16.54" font-family="Helvetica,sans-Serif" font-size="10.00">_to_str</text>
</a>
</g>
</g>
<!-- Node5&#45;&gt;Node6 -->
<g id="edge5" class="edge">
<title>Node5&#45;&gt;Node6</title>
<path fill="none" stroke="midnightblue" d="M545.11,-24.54C553.45,-24.54 562.09,-24.54 570.54,-24.54"/>
<polygon fill="midnightblue" stroke="midnightblue" points="570.71,-28.04 580.71,-24.54 570.71,-21.04 570.71,-28.04"/>
</g>
</g>
</svg>
