<?xml version="1.0" encoding="UTF-8" standalone="no"?>
<!DOCTYPE svg PUBLIC "-//W3C//DTD SVG 1.1//EN"
 "http://www.w3.org/Graphics/SVG/1.1/DTD/svg11.dtd">
<!-- Generated by graphviz version 2.44.0 ()
 -->
<!-- Title: fission_rate_module::merge_fission_rates Pages: 1 -->
<svg width="697pt" height="299pt"
 viewBox="0.00 0.00 697.00 298.80" xmlns="http://www.w3.org/2000/svg" xmlns:xlink="http://www.w3.org/1999/xlink">
<g id="graph0" class="graph" transform="scale(1 1) rotate(0) translate(4 294.8)">
<title>fission_rate_module::merge_fission_rates</title>
<polygon fill="white" stroke="transparent" points="-4,4 -4,-294.8 693,-294.8 693,4 -4,4"/>
<!-- Node1 -->
<g id="node1" class="node">
<title>Node1</title>
<g id="a_node1"><a xlink:title="Merge fission rates with larger array.">
<polygon fill="#bfbfbf" stroke="black" points="0,-52.3 0,-82.3 108,-82.3 108,-52.3 0,-52.3"/>
<text text-anchor="start" x="8" y="-70.3" font-family="Helvetica,sans-Serif" font-size="10.00">fission_rate_module</text>
<text text-anchor="middle" x="54" y="-59.3" font-family="Helvetica,sans-Serif" font-size="10.00">::merge_fission_rates</text>
</a>
</g>
</g>
<!-- Node2 -->
<g id="node2" class="node">
<title>Node2</title>
<g id="a_node2"><a xlink:href="namespacefission__rate__module.html#ac563196db55b412fc34166701790593e" target="_top" xlink:title="Modifies half lifes of beta decays to include fission.">
<polygon fill="white" stroke="black" points="144,-123.3 144,-153.3 247,-153.3 247,-123.3 144,-123.3"/>
<text text-anchor="start" x="152" y="-141.3" font-family="Helvetica,sans-Serif" font-size="10.00">fission_rate_module</text>
<text text-anchor="middle" x="195.5" y="-130.3" font-family="Helvetica,sans-Serif" font-size="10.00">::modify_halflifes</text>
</a>
</g>
</g>
<!-- Node1&#45;&gt;Node2 -->
<g id="edge1" class="edge">
<title>Node1&#45;&gt;Node2</title>
<path fill="none" stroke="midnightblue" d="M84.58,-82.36C105.39,-92.95 133.43,-107.22 155.98,-118.7"/>
<polygon fill="midnightblue" stroke="midnightblue" points="154.46,-121.85 164.96,-123.27 157.63,-115.61 154.46,-121.85"/>
</g>
<!-- Node7 -->
<g id="node7" class="node">
<title>Node7</title>
<g id="a_node7"><a xlink:href="namespaceerror__msg__class.html#a2453d3b7cb363115c046840baa1dfb75" target="_top" xlink:title="Raise a exception with a given error message.">
<polygon fill="white" stroke="black" points="434.5,-79.3 434.5,-109.3 548.5,-109.3 548.5,-79.3 434.5,-79.3"/>
<text text-anchor="start" x="442.5" y="-97.3" font-family="Helvetica,sans-Serif" font-size="10.00">error_msg_class::raise</text>
<text text-anchor="middle" x="491.5" y="-86.3" font-family="Helvetica,sans-Serif" font-size="10.00">_exception</text>
</a>
</g>
</g>
<!-- Node1&#45;&gt;Node7 -->
<g id="edge12" class="edge">
<title>Node1&#45;&gt;Node7</title>
<path fill="none" stroke="midnightblue" d="M87.28,-52.09C149.37,-25.05 288.94,24.93 398,-15.3 428.17,-26.43 455.17,-52.26 472.1,-71.38"/>
<polygon fill="midnightblue" stroke="midnightblue" points="469.55,-73.78 478.72,-79.09 474.87,-69.22 469.55,-73.78"/>
</g>
<!-- Node3 -->
<g id="node3" class="node">
<title>Node3</title>
<g id="a_node3"><a xlink:href="namespacetabulated__rate__module.html#a8cd4cb35a24c56fffef12bff3e785906" target="_top" xlink:title="Calculates the tabulated rate.">
<polygon fill="white" stroke="black" points="283,-211.3 283,-241.3 398,-241.3 398,-211.3 283,-211.3"/>
<text text-anchor="start" x="291" y="-229.3" font-family="Helvetica,sans-Serif" font-size="10.00">tabulated_rate_module</text>
<text text-anchor="middle" x="340.5" y="-218.3" font-family="Helvetica,sans-Serif" font-size="10.00">::calculate_tab_rate</text>
</a>
</g>
</g>
<!-- Node2&#45;&gt;Node3 -->
<g id="edge2" class="edge">
<title>Node2&#45;&gt;Node3</title>
<path fill="none" stroke="midnightblue" d="M217.79,-153.47C235.06,-165.55 260.19,-182.65 283,-196.3 288.63,-199.67 294.67,-203.08 300.63,-206.34"/>
<polygon fill="midnightblue" stroke="midnightblue" points="299.39,-209.65 309.86,-211.29 302.7,-203.48 299.39,-209.65"/>
</g>
<!-- Node5 -->
<g id="node5" class="node">
<title>Node5</title>
<g id="a_node5"><a xlink:href="namespacenucstuff__class.html#a5fa1f79d38fd5b01a5d6d797fea0132d" target="_top" xlink:title="Get number of reactants of the reaction based on the reaclib chapter.">
<polygon fill="white" stroke="black" points="291.5,-123.3 291.5,-153.3 389.5,-153.3 389.5,-123.3 291.5,-123.3"/>
<text text-anchor="start" x="299.5" y="-141.3" font-family="Helvetica,sans-Serif" font-size="10.00">nucstuff_class::get</text>
<text text-anchor="middle" x="340.5" y="-130.3" font-family="Helvetica,sans-Serif" font-size="10.00">_nr_reactants</text>
</a>
</g>
</g>
<!-- Node2&#45;&gt;Node5 -->
<g id="edge4" class="edge">
<title>Node2&#45;&gt;Node5</title>
<path fill="none" stroke="midnightblue" d="M247.32,-138.3C258.26,-138.3 269.91,-138.3 281.11,-138.3"/>
<polygon fill="midnightblue" stroke="midnightblue" points="281.24,-141.8 291.24,-138.3 281.24,-134.8 281.24,-141.8"/>
</g>
<!-- Node6 -->
<g id="node6" class="node">
<title>Node6</title>
<g id="a_node6"><a xlink:href="namespaceerror__msg__class.html#a7e065585cc806a5c264de1f088266498" target="_top" xlink:title="Converts a given integer to a string.">
<polygon fill="white" stroke="black" points="585,-123.3 585,-153.3 689,-153.3 689,-123.3 585,-123.3"/>
<text text-anchor="start" x="593" y="-141.3" font-family="Helvetica,sans-Serif" font-size="10.00">error_msg_class::int</text>
<text text-anchor="middle" x="637" y="-130.3" font-family="Helvetica,sans-Serif" font-size="10.00">_to_str</text>
</a>
</g>
</g>
<!-- Node2&#45;&gt;Node6 -->
<g id="edge8" class="edge">
<title>Node2&#45;&gt;Node6</title>
<path fill="none" stroke="midnightblue" d="M241.81,-153.35C254.94,-157.04 269.41,-160.45 283,-162.3 384.81,-176.16 504.28,-161.66 574.87,-149.95"/>
<polygon fill="midnightblue" stroke="midnightblue" points="575.65,-153.37 584.92,-148.24 574.48,-146.46 575.65,-153.37"/>
</g>
<!-- Node2&#45;&gt;Node7 -->
<g id="edge10" class="edge">
<title>Node2&#45;&gt;Node7</title>
<path fill="none" stroke="midnightblue" d="M242.35,-123.29C255.36,-119.51 269.64,-115.82 283,-113.3 329.7,-104.5 383.11,-99.73 424.05,-97.17"/>
<polygon fill="midnightblue" stroke="midnightblue" points="424.4,-100.65 434.18,-96.56 423.99,-93.66 424.4,-100.65"/>
</g>
<!-- Node8 -->
<g id="node8" class="node">
<title>Node8</title>
<g id="a_node8"><a xlink:href="namespacetabulated__rate__module.html#acf0aa1d1804944861e01ea1e300eab97" target="_top" xlink:title="Multiply a tabulated rate by a factor.">
<polygon fill="white" stroke="black" points="283,-24.8 283,-65.8 398,-65.8 398,-24.8 283,-24.8"/>
<text text-anchor="start" x="291" y="-53.8" font-family="Helvetica,sans-Serif" font-size="10.00">tabulated_rate_module</text>
<text text-anchor="start" x="291" y="-42.8" font-family="Helvetica,sans-Serif" font-size="10.00">::multiply_tab_rate_by</text>
<text text-anchor="middle" x="340.5" y="-31.8" font-family="Helvetica,sans-Serif" font-size="10.00">_factor</text>
</a>
</g>
</g>
<!-- Node2&#45;&gt;Node8 -->
<g id="edge9" class="edge">
<title>Node2&#45;&gt;Node8</title>
<path fill="none" stroke="midnightblue" d="M218.4,-123.3C235.8,-111.46 260.81,-94.6 283,-80.3 287.61,-77.33 292.45,-74.26 297.28,-71.22"/>
<polygon fill="midnightblue" stroke="midnightblue" points="299.29,-74.1 305.91,-65.83 295.58,-68.16 299.29,-74.1"/>
</g>
<!-- Node9 -->
<g id="node9" class="node">
<title>Node9</title>
<g id="a_node9"><a xlink:href="namespacetabulated__rate__module.html#ab39e3f09d54fc4b3f8baf09c5621f303" target="_top" xlink:title="Set tab_index for a given temperature.">
<polygon fill="white" stroke="black" points="283,-260.3 283,-290.3 398,-290.3 398,-260.3 283,-260.3"/>
<text text-anchor="start" x="291" y="-278.3" font-family="Helvetica,sans-Serif" font-size="10.00">tabulated_rate_module</text>
<text text-anchor="middle" x="340.5" y="-267.3" font-family="Helvetica,sans-Serif" font-size="10.00">::tabulated_index</text>
</a>
</g>
</g>
<!-- Node2&#45;&gt;Node9 -->
<g id="edge11" class="edge">
<title>Node2&#45;&gt;Node9</title>
<path fill="none" stroke="midnightblue" d="M204.65,-153.48C218.11,-177.26 247.08,-223.44 283,-251.3 284.61,-252.55 286.3,-253.75 288.04,-254.89"/>
<polygon fill="midnightblue" stroke="midnightblue" points="286.7,-258.16 297.1,-260.19 290.23,-252.12 286.7,-258.16"/>
</g>
<!-- Node4 -->
<g id="node4" class="node">
<title>Node4</title>
<g id="a_node4"><a xlink:href="namespacetabulated__rate__module.html#a26734ac5f0837b48d072ef67dd82d002" target="_top" xlink:title="Interpolate tabulated rates from the table.">
<polygon fill="white" stroke="black" points="434,-211.3 434,-241.3 549,-241.3 549,-211.3 434,-211.3"/>
<text text-anchor="start" x="442" y="-229.3" font-family="Helvetica,sans-Serif" font-size="10.00">tabulated_rate_module</text>
<text text-anchor="middle" x="491.5" y="-218.3" font-family="Helvetica,sans-Serif" font-size="10.00">::tabulated_inter</text>
</a>
</g>
</g>
<!-- Node3&#45;&gt;Node4 -->
<g id="edge3" class="edge">
<title>Node3&#45;&gt;Node4</title>
<path fill="none" stroke="midnightblue" d="M398.26,-226.3C406.56,-226.3 415.17,-226.3 423.65,-226.3"/>
<polygon fill="midnightblue" stroke="midnightblue" points="423.9,-229.8 433.9,-226.3 423.9,-222.8 423.9,-229.8"/>
</g>
<!-- Node5&#45;&gt;Node6 -->
<g id="edge5" class="edge">
<title>Node5&#45;&gt;Node6</title>
<path fill="none" stroke="midnightblue" d="M389.8,-138.3C440.24,-138.3 519.5,-138.3 574.4,-138.3"/>
<polygon fill="midnightblue" stroke="midnightblue" points="574.7,-141.8 584.7,-138.3 574.7,-134.8 574.7,-141.8"/>
</g>
<!-- Node5&#45;&gt;Node7 -->
<g id="edge6" class="edge">
<title>Node5&#45;&gt;Node7</title>
<path fill="none" stroke="midnightblue" d="M389.88,-124.02C402.54,-120.28 416.35,-116.2 429.58,-112.29"/>
<polygon fill="midnightblue" stroke="midnightblue" points="430.95,-115.54 439.55,-109.35 428.97,-108.82 430.95,-115.54"/>
</g>
<!-- Node7&#45;&gt;Node6 -->
<g id="edge7" class="edge">
<title>Node7&#45;&gt;Node6</title>
<path fill="none" stroke="midnightblue" d="M541.48,-109.32C552.9,-112.82 565.18,-116.59 576.98,-120.2"/>
<polygon fill="midnightblue" stroke="midnightblue" points="576.16,-123.61 586.75,-123.2 578.22,-116.92 576.16,-123.61"/>
</g>
</g>
</svg>
