<?xml version="1.0" encoding="UTF-8" standalone="no"?>
<!DOCTYPE svg PUBLIC "-//W3C//DTD SVG 1.1//EN"
 "http://www.w3.org/Graphics/SVG/1.1/DTD/svg11.dtd">
<!-- Generated by graphviz version 2.44.0 ()
 -->
<!-- Title: gear_module::errorqp1 Pages: 1 -->
<svg width="382pt" height="28pt"
 viewBox="0.00 0.00 382.00 28.00" xmlns="http://www.w3.org/2000/svg" xmlns:xlink="http://www.w3.org/1999/xlink">
<g id="graph0" class="graph" transform="scale(1 1) rotate(0) translate(4 24)">
<title>gear_module::errorqp1</title>
<polygon fill="white" stroke="transparent" points="-4,4 -4,-24 378,-24 378,4 -4,4"/>
<!-- Node1 -->
<g id="node1" class="node">
<title>Node1</title>
<g id="a_node1"><a xlink:title="Calculate the errors for the order (q+1)">
<polygon fill="#bfbfbf" stroke="black" points="0,-0.5 0,-19.5 112,-19.5 112,-0.5 0,-0.5"/>
<text text-anchor="middle" x="56" y="-7.5" font-family="Helvetica,sans-Serif" font-size="10.00">gear_module::errorqp1</text>
</a>
</g>
</g>
<!-- Node2 -->
<g id="node2" class="node">
<title>Node2</title>
<g id="a_node2"><a xlink:href="namespacegear__module.html#a5eb8eb2d29f325cb87a93372cdca9e7b" target="_top" xlink:title="Calculate Helper function Q.">
<polygon fill="white" stroke="black" points="148,-0.5 148,-19.5 243,-19.5 243,-0.5 148,-0.5"/>
<text text-anchor="middle" x="195.5" y="-7.5" font-family="Helvetica,sans-Serif" font-size="10.00">gear_module::qfun</text>
</a>
</g>
</g>
<!-- Node1&#45;&gt;Node2 -->
<g id="edge1" class="edge">
<title>Node1&#45;&gt;Node2</title>
<path fill="none" stroke="midnightblue" d="M112.13,-10C120.53,-10 129.2,-10 137.63,-10"/>
<polygon fill="midnightblue" stroke="midnightblue" points="137.75,-13.5 147.75,-10 137.75,-6.5 137.75,-13.5"/>
</g>
<!-- Node3 -->
<g id="node3" class="node">
<title>Node3</title>
<g id="a_node3"><a xlink:href="namespacegear__module.html#a5e0c979e530f76ee4cd8af42cf121194" target="_top" xlink:title="Calculate helper function C.">
<polygon fill="white" stroke="black" points="279,-0.5 279,-19.5 374,-19.5 374,-0.5 279,-0.5"/>
<text text-anchor="middle" x="326.5" y="-7.5" font-family="Helvetica,sans-Serif" font-size="10.00">gear_module::cfun</text>
</a>
</g>
</g>
<!-- Node2&#45;&gt;Node3 -->
<g id="edge2" class="edge">
<title>Node2&#45;&gt;Node3</title>
<path fill="none" stroke="midnightblue" d="M243.07,-10C251.48,-10 260.32,-10 268.97,-10"/>
<polygon fill="midnightblue" stroke="midnightblue" points="269,-13.5 279,-10 269,-6.5 269,-13.5"/>
</g>
</g>
</svg>
