<?xml version="1.0" encoding="UTF-8" standalone="no"?>
<!DOCTYPE svg PUBLIC "-//W3C//DTD SVG 1.1//EN"
 "http://www.w3.org/Graphics/SVG/1.1/DTD/svg11.dtd">
<!-- Generated by graphviz version 2.44.0 ()
 -->
<!-- Title: nuflux_class::init_nuflux Pages: 1 -->
<!--zoomable 532 -->
<svg id="main" version="1.1" xmlns="http://www.w3.org/2000/svg" xmlns:xlink="http://www.w3.org/1999/xlink" xml:space="preserve" onload="init(evt)">
<style type="text/css"><![CDATA[
.edge:hover path { stroke: red; }
.edge:hover polygon { stroke: red; fill: red; }
]]></style>
<script type="text/javascript"><![CDATA[
var edges = document.getElementsByTagName('g');
if (edges && edges.length) {
  for (var i=0;i<edges.length;i++) {
    if (edges[i].id.substr(0,4)=='edge') {
      edges[i].setAttribute('class','edge');
    }
  }
}
]]></script>
        <defs>
                <circle id="rim" cx="0" cy="0" r="7"/>
                <circle id="rim2" cx="0" cy="0" r="3.5"/>
                <g id="zoomPlus">
                        <use xlink:href="#rim" fill="#404040">
                                <set attributeName="fill" to="#808080" begin="zoomplus.mouseover" end="zoomplus.mouseout"/>
                        </use>
                        <path d="M-4,0h8M0,-4v8" fill="none" stroke="white" stroke-width="1.5" pointer-events="none"/>
                </g>
                <g id="zoomMin">
                        <use xlink:href="#rim" fill="#404040">
                                <set attributeName="fill" to="#808080" begin="zoomminus.mouseover" end="zoomminus.mouseout"/>
                        </use>
                        <path d="M-4,0h8" fill="none" stroke="white" stroke-width="1.5" pointer-events="none"/>
                </g>
                <g id="dirArrow">
                        <path fill="none" stroke="white" stroke-width="1.5" d="M0,-3.0v7 M-2.5,-0.5L0,-3.0L2.5,-0.5"/>
                </g>
               <g id="resetDef">
                       <use xlink:href="#rim2" fill="#404040">
                               <set attributeName="fill" to="#808080" begin="reset.mouseover" end="reset.mouseout"/>
                       </use>
               </g>
        </defs>

<script type="text/javascript">
var viewWidth = 1094;
var viewHeight = 532;
var sectionId = 'dynsection-0';
</script>
<script xlink:href="svgpan.js"/>
<svg id="graph" class="graph">
<g id="viewport">
<title>nuflux_class::init_nuflux</title>
<polygon fill="white" stroke="transparent" points="-4,4 -4,-528.34 1090,-528.34 1090,4 -4,4"/>
<!-- Node1 -->
<g id="node1" class="node">
<title>Node1</title>
<g id="a_node1"><a xlink:title="Initialize nuflux module.">
<polygon fill="#bfbfbf" stroke="black" points="0,-392.47 0,-422.47 87,-422.47 87,-392.47 0,-392.47"/>
<text text-anchor="start" x="8" y="-410.47" font-family="Helvetica,sans-Serif" font-size="10.00">nuflux_class::init</text>
<text text-anchor="middle" x="43.5" y="-399.47" font-family="Helvetica,sans-Serif" font-size="10.00">_nuflux</text>
</a>
</g>
</g>
<!-- Node2 -->
<g id="node2" class="node">
<title>Node2</title>
<g id="a_node2"><a xlink:href="namespacefile__handling__class.html#aeddf55e8478d6220dc04310665427c3a" target="_top" xlink:title="Shorthand for opening a new file for writing (output file)">
<polygon fill="white" stroke="black" points="502,-389.47 502,-419.47 600,-419.47 600,-389.47 502,-389.47"/>
<text text-anchor="start" x="510" y="-407.47" font-family="Helvetica,sans-Serif" font-size="10.00">file_handling_class</text>
<text text-anchor="middle" x="551" y="-396.47" font-family="Helvetica,sans-Serif" font-size="10.00">::open_outfile</text>
</a>
</g>
</g>
<!-- Node1&#45;&gt;Node2 -->
<g id="edge1" class="edge">
<title>Node1&#45;&gt;Node2</title>
<path fill="none" stroke="midnightblue" d="M58.87,-422.54C73.54,-436.9 97.69,-457.86 123,-468.47 258.66,-525.31 315.93,-546.82 453,-493.47 486.66,-480.37 515.72,-449.53 533.04,-427.84"/>
<polygon fill="midnightblue" stroke="midnightblue" points="535.95,-429.8 539.3,-419.75 530.41,-425.52 535.95,-429.8"/>
</g>
<!-- Node6 -->
<g id="node6" class="node">
<title>Node6</title>
<g id="a_node6"><a xlink:href="namespacenuflux__class.html#a80ae126dbf78f193c391178d5bedb438" target="_top" xlink:title="Read the reactions from a file in binary format.">
<polygon fill="white" stroke="black" points="123,-429.47 123,-459.47 274,-459.47 274,-429.47 123,-429.47"/>
<text text-anchor="start" x="131" y="-447.47" font-family="Helvetica,sans-Serif" font-size="10.00">nuflux_class::read</text>
<text text-anchor="middle" x="198.5" y="-436.47" font-family="Helvetica,sans-Serif" font-size="10.00">_binary_neutrino_reaction_data</text>
</a>
</g>
</g>
<!-- Node1&#45;&gt;Node6 -->
<g id="edge6" class="edge">
<title>Node1&#45;&gt;Node6</title>
<path fill="none" stroke="midnightblue" d="M87.12,-417.77C99.03,-420.65 112.31,-423.87 125.41,-427.04"/>
<polygon fill="midnightblue" stroke="midnightblue" points="124.84,-430.5 135.38,-429.44 126.48,-423.69 124.84,-430.5"/>
</g>
<!-- Node8 -->
<g id="node8" class="node">
<title>Node8</title>
<g id="a_node8"><a xlink:href="namespacenuflux__class.html#aabfb6442d6a36a5e1613aa0c91bfc777" target="_top" xlink:title="Read neutrino reactions and fill the global_class::nurate array.">
<polygon fill="white" stroke="black" points="152,-319.47 152,-349.47 245,-349.47 245,-319.47 152,-319.47"/>
<text text-anchor="start" x="160" y="-337.47" font-family="Helvetica,sans-Serif" font-size="10.00">nuflux_class::read</text>
<text text-anchor="middle" x="198.5" y="-326.47" font-family="Helvetica,sans-Serif" font-size="10.00">_neutrino_rates</text>
</a>
</g>
</g>
<!-- Node1&#45;&gt;Node8 -->
<g id="edge10" class="edge">
<title>Node1&#45;&gt;Node8</title>
<path fill="none" stroke="midnightblue" d="M76.2,-392.34C99.49,-381.23 131.32,-366.04 156.53,-354.01"/>
<polygon fill="midnightblue" stroke="midnightblue" points="158.32,-357.04 165.84,-349.57 155.31,-350.72 158.32,-357.04"/>
</g>
<!-- Node22 -->
<g id="node22" class="node">
<title>Node22</title>
<g id="a_node22"><a xlink:href="namespacenuflux__class.html#ab1da7d099980f713b1537e3ba6f0e671" target="_top" xlink:title="Write the amount of individual reactions to the out.">
<polygon fill="white" stroke="black" points="332,-27.47 332,-57.47 431,-57.47 431,-27.47 332,-27.47"/>
<text text-anchor="start" x="340" y="-45.47" font-family="Helvetica,sans-Serif" font-size="10.00">nuflux_class::write</text>
<text text-anchor="middle" x="381.5" y="-34.47" font-family="Helvetica,sans-Serif" font-size="10.00">_reac_verbose_out</text>
</a>
</g>
</g>
<!-- Node1&#45;&gt;Node22 -->
<g id="edge31" class="edge">
<title>Node1&#45;&gt;Node22</title>
<path fill="none" stroke="midnightblue" d="M56.16,-392.27C71.24,-372.79 98.46,-338.1 123,-309.47 203.05,-216.08 222.48,-191.89 310,-105.47 324.45,-91.2 341.4,-76.01 355.06,-64.12"/>
<polygon fill="midnightblue" stroke="midnightblue" points="357.4,-66.72 362.67,-57.53 352.82,-61.42 357.4,-66.72"/>
</g>
<!-- Node3 -->
<g id="node3" class="node">
<title>Node3</title>
<g id="a_node3"><a xlink:href="namespacefile__handling__class.html#af02196bd5eaf70ecd5ab4cc650094d5e" target="_top" xlink:title="Finds the next unused unit number.">
<polygon fill="white" stroke="black" points="673.5,-341.47 673.5,-371.47 771.5,-371.47 771.5,-341.47 673.5,-341.47"/>
<text text-anchor="start" x="681.5" y="-359.47" font-family="Helvetica,sans-Serif" font-size="10.00">file_handling_class</text>
<text text-anchor="middle" x="722.5" y="-348.47" font-family="Helvetica,sans-Serif" font-size="10.00">::get_next_io_unit</text>
</a>
</g>
</g>
<!-- Node2&#45;&gt;Node3 -->
<g id="edge2" class="edge">
<title>Node2&#45;&gt;Node3</title>
<path fill="none" stroke="midnightblue" d="M600.12,-390.84C619.89,-385.24 642.95,-378.71 663.64,-372.85"/>
<polygon fill="midnightblue" stroke="midnightblue" points="664.59,-376.22 673.26,-370.13 662.69,-369.49 664.59,-376.22"/>
</g>
<!-- Node4 -->
<g id="node4" class="node">
<title>Node4</title>
<g id="a_node4"><a xlink:href="namespaceerror__msg__class.html#a2453d3b7cb363115c046840baa1dfb75" target="_top" xlink:title="Raise a exception with a given error message.">
<polygon fill="white" stroke="black" points="832,-278.47 832,-308.47 946,-308.47 946,-278.47 832,-278.47"/>
<text text-anchor="start" x="840" y="-296.47" font-family="Helvetica,sans-Serif" font-size="10.00">error_msg_class::raise</text>
<text text-anchor="middle" x="889" y="-285.47" font-family="Helvetica,sans-Serif" font-size="10.00">_exception</text>
</a>
</g>
</g>
<!-- Node2&#45;&gt;Node4 -->
<g id="edge5" class="edge">
<title>Node2&#45;&gt;Node4</title>
<path fill="none" stroke="midnightblue" d="M600.21,-408.66C651.21,-411.11 732.87,-409.25 796,-380.47 827.12,-366.28 854.39,-337.21 871,-316.58"/>
<polygon fill="midnightblue" stroke="midnightblue" points="873.84,-318.63 877.24,-308.6 868.32,-314.32 873.84,-318.63"/>
</g>
<!-- Node3&#45;&gt;Node4 -->
<g id="edge3" class="edge">
<title>Node3&#45;&gt;Node4</title>
<path fill="none" stroke="midnightblue" d="M762.9,-341.38C785.81,-332.6 814.87,-321.47 839.21,-312.15"/>
<polygon fill="midnightblue" stroke="midnightblue" points="840.55,-315.39 848.63,-308.54 838.04,-308.85 840.55,-315.39"/>
</g>
<!-- Node5 -->
<g id="node5" class="node">
<title>Node5</title>
<g id="a_node5"><a xlink:href="namespaceerror__msg__class.html#a7e065585cc806a5c264de1f088266498" target="_top" xlink:title="Converts a given integer to a string.">
<polygon fill="white" stroke="black" points="982,-109.47 982,-139.47 1086,-139.47 1086,-109.47 982,-109.47"/>
<text text-anchor="start" x="990" y="-127.47" font-family="Helvetica,sans-Serif" font-size="10.00">error_msg_class::int</text>
<text text-anchor="middle" x="1034" y="-116.47" font-family="Helvetica,sans-Serif" font-size="10.00">_to_str</text>
</a>
</g>
</g>
<!-- Node4&#45;&gt;Node5 -->
<g id="edge4" class="edge">
<title>Node4&#45;&gt;Node5</title>
<path fill="none" stroke="midnightblue" d="M902.94,-278.17C928.15,-248.38 983.94,-182.45 1013.59,-147.41"/>
<polygon fill="midnightblue" stroke="midnightblue" points="1016.4,-149.5 1020.19,-139.61 1011.06,-144.98 1016.4,-149.5"/>
</g>
<!-- Node7 -->
<g id="node7" class="node">
<title>Node7</title>
<g id="a_node7"><a xlink:href="namespacefile__handling__class.html#a25b51db64738e74a129daae7428c8163" target="_top" xlink:title="Open an unformatted file for reading.">
<polygon fill="white" stroke="black" points="489,-340.47 489,-370.47 613,-370.47 613,-340.47 489,-340.47"/>
<text text-anchor="start" x="497" y="-358.47" font-family="Helvetica,sans-Serif" font-size="10.00">file_handling_class</text>
<text text-anchor="middle" x="551" y="-347.47" font-family="Helvetica,sans-Serif" font-size="10.00">::open_unformatted_infile</text>
</a>
</g>
</g>
<!-- Node6&#45;&gt;Node7 -->
<g id="edge7" class="edge">
<title>Node6&#45;&gt;Node7</title>
<path fill="none" stroke="midnightblue" d="M231.94,-459.48C283.52,-480.91 385.31,-512.91 453,-467.47 488.08,-443.91 458.92,-409.15 489,-379.47 490.09,-378.39 491.23,-377.37 492.42,-376.38"/>
<polygon fill="midnightblue" stroke="midnightblue" points="494.62,-379.12 500.82,-370.53 490.61,-373.37 494.62,-379.12"/>
</g>
<!-- Node7&#45;&gt;Node3 -->
<g id="edge8" class="edge">
<title>Node7&#45;&gt;Node3</title>
<path fill="none" stroke="midnightblue" d="M613.19,-355.83C629.45,-355.92 646.96,-356.03 663.07,-356.12"/>
<polygon fill="midnightblue" stroke="midnightblue" points="663.4,-359.62 673.42,-356.18 663.44,-352.63 663.4,-359.62"/>
</g>
<!-- Node7&#45;&gt;Node4 -->
<g id="edge9" class="edge">
<title>Node7&#45;&gt;Node4</title>
<path fill="none" stroke="midnightblue" d="M609.26,-340.44C622.28,-337.27 636.08,-334.09 649,-331.47 707.05,-319.69 773.64,-309.36 821.76,-302.46"/>
<polygon fill="midnightblue" stroke="midnightblue" points="822.33,-305.91 831.74,-301.04 821.35,-298.98 822.33,-305.91"/>
</g>
<!-- Node9 -->
<g id="node9" class="node">
<title>Node9</title>
<g id="a_node9"><a xlink:href="namespacebenam__class.html#af8144ea43fb40187e32fb83da48458f1" target="_top" xlink:title="Returns the 1/n! factor where n is the number of equal isotopes entering a reaction....">
<polygon fill="white" stroke="black" points="311,-438.97 311,-457.97 452,-457.97 452,-438.97 311,-438.97"/>
<text text-anchor="middle" x="381.5" y="-445.97" font-family="Helvetica,sans-Serif" font-size="10.00">benam_class::getcoefficients</text>
</a>
</g>
</g>
<!-- Node8&#45;&gt;Node9 -->
<g id="edge11" class="edge">
<title>Node8&#45;&gt;Node9</title>
<path fill="none" stroke="midnightblue" d="M212.94,-349.69C232.32,-370.7 270.2,-408.41 310,-429.47 314.32,-431.76 318.95,-433.79 323.68,-435.58"/>
<polygon fill="midnightblue" stroke="midnightblue" points="322.89,-439.01 333.49,-438.96 325.17,-432.39 322.89,-439.01"/>
</g>
<!-- Node10 -->
<g id="node10" class="node">
<title>Node10</title>
<g id="a_node10"><a xlink:href="namespacemergesort__module.html#afdba6e49a853cbc2b93f08758ab87cf6" target="_top" xlink:title="Merges two tables of neutrino rates (of type global_class::nurate_type).">
<polygon fill="white" stroke="black" points="649,-207.97 649,-226.97 796,-226.97 796,-207.97 649,-207.97"/>
<text text-anchor="middle" x="722.5" y="-214.97" font-family="Helvetica,sans-Serif" font-size="10.00">mergesort_module::nurate_ms</text>
</a>
</g>
</g>
<!-- Node8&#45;&gt;Node10 -->
<g id="edge12" class="edge">
<title>Node8&#45;&gt;Node10</title>
<path fill="none" stroke="midnightblue" d="M211.06,-319.42C233.92,-290.12 284.89,-227.35 310,-216.47 432.48,-163.36 595.4,-188.32 674.47,-205.67"/>
<polygon fill="midnightblue" stroke="midnightblue" points="674.07,-209.17 684.6,-207.95 675.61,-202.34 674.07,-209.17"/>
</g>
<!-- Node11 -->
<g id="node11" class="node">
<title>Node11</title>
<g id="a_node11"><a xlink:href="namespacefile__handling__class.html#aab870caaf9cbaaf635d537708efbf793" target="_top" xlink:title="Same for reading (input file)">
<polygon fill="white" stroke="black" points="502,-275.47 502,-305.47 600,-305.47 600,-275.47 502,-275.47"/>
<text text-anchor="start" x="510" y="-293.47" font-family="Helvetica,sans-Serif" font-size="10.00">file_handling_class</text>
<text text-anchor="middle" x="551" y="-282.47" font-family="Helvetica,sans-Serif" font-size="10.00">::open_infile</text>
</a>
</g>
</g>
<!-- Node8&#45;&gt;Node11 -->
<g id="edge14" class="edge">
<title>Node8&#45;&gt;Node11</title>
<path fill="none" stroke="midnightblue" d="M245.1,-333.12C296.06,-331.09 380.88,-326.15 453,-314.47 465.7,-312.41 479.19,-309.53 491.93,-306.48"/>
<polygon fill="midnightblue" stroke="midnightblue" points="493.1,-309.79 501.97,-304 491.42,-303 493.1,-309.79"/>
</g>
<!-- Node12 -->
<g id="node12" class="node">
<title>Node12</title>
<g id="a_node12"><a xlink:href="namespacenuflux__class.html#a0e6d31694c86416d2766c5decc2422e1" target="_top" xlink:title="Read the channels from a file in the format of Sieverding et al 2018.">
<polygon fill="white" stroke="black" points="335,-275.47 335,-305.47 428,-305.47 428,-275.47 335,-275.47"/>
<text text-anchor="start" x="343" y="-293.47" font-family="Helvetica,sans-Serif" font-size="10.00">nuflux_class::read</text>
<text text-anchor="middle" x="381.5" y="-282.47" font-family="Helvetica,sans-Serif" font-size="10.00">_channels</text>
</a>
</g>
</g>
<!-- Node8&#45;&gt;Node12 -->
<g id="edge17" class="edge">
<title>Node8&#45;&gt;Node12</title>
<path fill="none" stroke="midnightblue" d="M245.17,-323.36C269.4,-317.48 299.35,-310.19 324.92,-303.98"/>
<polygon fill="midnightblue" stroke="midnightblue" points="325.95,-307.33 334.84,-301.57 324.3,-300.53 325.95,-307.33"/>
</g>
<!-- Node13 -->
<g id="node13" class="node">
<title>Node13</title>
<g id="a_node13"><a xlink:href="namespacenuflux__class.html#a46583d0423ea4dfb7d4aa832f9070117" target="_top" xlink:title="Read the reactions from a file in the format of Sieverding et al 2018.">
<polygon fill="white" stroke="black" points="326,-226.47 326,-256.47 437,-256.47 437,-226.47 326,-226.47"/>
<text text-anchor="start" x="334" y="-244.47" font-family="Helvetica,sans-Serif" font-size="10.00">nuflux_class::read</text>
<text text-anchor="middle" x="381.5" y="-233.47" font-family="Helvetica,sans-Serif" font-size="10.00">_reactions_sieverding</text>
</a>
</g>
</g>
<!-- Node8&#45;&gt;Node13 -->
<g id="edge19" class="edge">
<title>Node8&#45;&gt;Node13</title>
<path fill="none" stroke="midnightblue" d="M220.27,-319.46C241.88,-304.35 277.1,-281.08 310,-265.47 313.81,-263.66 317.8,-261.92 321.85,-260.27"/>
<polygon fill="midnightblue" stroke="midnightblue" points="323.32,-263.45 331.37,-256.56 320.79,-256.92 323.32,-263.45"/>
</g>
<!-- Node15 -->
<g id="node15" class="node">
<title>Node15</title>
<g id="a_node15"><a xlink:href="namespacenuflux__class.html#a36ed0c2924e75dea4015e928ee424303" target="_top" xlink:title="Reads neutrino&#45;nuclei reaction file.">
<polygon fill="white" stroke="black" points="324.5,-114.97 324.5,-133.97 438.5,-133.97 438.5,-114.97 324.5,-114.97"/>
<text text-anchor="middle" x="381.5" y="-121.97" font-family="Helvetica,sans-Serif" font-size="10.00">nuflux_class::readnucs</text>
</a>
</g>
</g>
<!-- Node8&#45;&gt;Node15 -->
<g id="edge22" class="edge">
<title>Node8&#45;&gt;Node15</title>
<path fill="none" stroke="midnightblue" d="M208.77,-319.41C226.52,-291.16 267.36,-228.98 310,-183.47 325.14,-167.31 344.58,-151.33 359.21,-140.09"/>
<polygon fill="midnightblue" stroke="midnightblue" points="361.34,-142.87 367.2,-134.05 357.11,-137.29 361.34,-142.87"/>
</g>
<!-- Node20 -->
<g id="node20" class="node">
<title>Node20</title>
<g id="a_node20"><a xlink:href="namespacemergesort__module.html#a350624bb77af754147cd68332b16b9e5" target="_top" xlink:title="Sorts chapter one of the rate array.">
<polygon fill="white" stroke="black" points="310,-400.97 310,-419.97 453,-419.97 453,-400.97 310,-400.97"/>
<text text-anchor="middle" x="381.5" y="-407.97" font-family="Helvetica,sans-Serif" font-size="10.00">mergesort_module::rrate_sort</text>
</a>
</g>
</g>
<!-- Node8&#45;&gt;Node20 -->
<g id="edge29" class="edge">
<title>Node8&#45;&gt;Node20</title>
<path fill="none" stroke="midnightblue" d="M225.12,-349.67C247.06,-362.21 279.81,-379.77 310,-391.47 316.19,-393.87 322.81,-396.08 329.41,-398.09"/>
<polygon fill="midnightblue" stroke="midnightblue" points="328.44,-401.45 339.02,-400.87 330.38,-394.72 328.44,-401.45"/>
</g>
<!-- Node21 -->
<g id="node21" class="node">
<title>Node21</title>
<g id="a_node21"><a xlink:href="namespacenuflux__class.html#a7913cb5d1c5cdb8217a26ed63f2d9166" target="_top" xlink:title="Set the type of a neutrino reaction.">
<polygon fill="white" stroke="black" points="320.5,-362.97 320.5,-381.97 442.5,-381.97 442.5,-362.97 320.5,-362.97"/>
<text text-anchor="middle" x="381.5" y="-369.97" font-family="Helvetica,sans-Serif" font-size="10.00">nuflux_class::set_nutype</text>
</a>
</g>
</g>
<!-- Node8&#45;&gt;Node21 -->
<g id="edge30" class="edge">
<title>Node8&#45;&gt;Node21</title>
<path fill="none" stroke="midnightblue" d="M245.17,-344.06C269.49,-349.16 299.58,-355.48 325.21,-360.86"/>
<polygon fill="midnightblue" stroke="midnightblue" points="324.65,-364.32 335.15,-362.95 326.09,-357.47 324.65,-364.32"/>
</g>
<!-- Node10&#45;&gt;Node4 -->
<g id="edge13" class="edge">
<title>Node10&#45;&gt;Node4</title>
<path fill="none" stroke="midnightblue" d="M744.33,-227.09C769.83,-238.87 813.61,-259.1 846.16,-274.14"/>
<polygon fill="midnightblue" stroke="midnightblue" points="844.9,-277.41 855.44,-278.43 847.83,-271.06 844.9,-277.41"/>
</g>
<!-- Node11&#45;&gt;Node3 -->
<g id="edge15" class="edge">
<title>Node11&#45;&gt;Node3</title>
<path fill="none" stroke="midnightblue" d="M590.89,-305.61C615.43,-315.17 647.33,-327.59 673.45,-337.76"/>
<polygon fill="midnightblue" stroke="midnightblue" points="672.21,-341.03 682.79,-341.4 674.75,-334.51 672.21,-341.03"/>
</g>
<!-- Node11&#45;&gt;Node4 -->
<g id="edge16" class="edge">
<title>Node11&#45;&gt;Node4</title>
<path fill="none" stroke="midnightblue" d="M600.14,-290.9C658.27,-291.42 756.36,-292.29 821.64,-292.88"/>
<polygon fill="midnightblue" stroke="midnightblue" points="821.79,-296.38 831.82,-292.97 821.85,-289.38 821.79,-296.38"/>
</g>
<!-- Node12&#45;&gt;Node11 -->
<g id="edge18" class="edge">
<title>Node12&#45;&gt;Node11</title>
<path fill="none" stroke="midnightblue" d="M428.27,-290.47C447.92,-290.47 471.1,-290.47 491.93,-290.47"/>
<polygon fill="midnightblue" stroke="midnightblue" points="491.95,-293.97 501.95,-290.47 491.95,-286.97 491.95,-293.97"/>
</g>
<!-- Node13&#45;&gt;Node11 -->
<g id="edge21" class="edge">
<title>Node13&#45;&gt;Node11</title>
<path fill="none" stroke="midnightblue" d="M434.12,-256.57C452.54,-261.96 473.4,-268.06 492.3,-273.59"/>
<polygon fill="midnightblue" stroke="midnightblue" points="491.4,-276.97 501.98,-276.42 493.36,-270.25 491.4,-276.97"/>
</g>
<!-- Node14 -->
<g id="node14" class="node">
<title>Node14</title>
<g id="a_node14"><a xlink:href="namespacebenam__class.html#ad2f566697809a5731e560509d2ca7062" target="_top" xlink:title="Finds an isotope index in the network table, given its A and Z. In case it was not found,...">
<polygon fill="white" stroke="black" points="499,-231.97 499,-250.97 603,-250.97 603,-231.97 499,-231.97"/>
<text text-anchor="middle" x="551" y="-238.97" font-family="Helvetica,sans-Serif" font-size="10.00">benam_class::findaz</text>
</a>
</g>
</g>
<!-- Node13&#45;&gt;Node14 -->
<g id="edge20" class="edge">
<title>Node13&#45;&gt;Node14</title>
<path fill="none" stroke="midnightblue" d="M437.35,-241.47C453.7,-241.47 471.73,-241.47 488.49,-241.47"/>
<polygon fill="midnightblue" stroke="midnightblue" points="488.72,-244.97 498.72,-241.47 488.72,-237.97 488.72,-244.97"/>
</g>
<!-- Node15&#45;&gt;Node5 -->
<g id="edge25" class="edge">
<title>Node15&#45;&gt;Node5</title>
<path fill="none" stroke="midnightblue" d="M438.52,-124.47C559.77,-124.47 845.71,-124.47 971.64,-124.47"/>
<polygon fill="midnightblue" stroke="midnightblue" points="971.87,-127.97 981.87,-124.47 971.87,-120.97 971.87,-127.97"/>
</g>
<!-- Node16 -->
<g id="node16" class="node">
<title>Node16</title>
<g id="a_node16"><a xlink:href="namespacebenam__class.html#ad20c821347dd5f7c08dff59c98e69657" target="_top" xlink:title="Returns the index number of isotope &#39;name&#39;.">
<polygon fill="white" stroke="black" points="497,-76.97 497,-95.97 605,-95.97 605,-76.97 497,-76.97"/>
<text text-anchor="middle" x="551" y="-83.97" font-family="Helvetica,sans-Serif" font-size="10.00">benam_class::benam</text>
</a>
</g>
</g>
<!-- Node15&#45;&gt;Node16 -->
<g id="edge23" class="edge">
<title>Node15&#45;&gt;Node16</title>
<path fill="none" stroke="midnightblue" d="M424.77,-114.88C447.07,-109.82 474.62,-103.57 498.2,-98.22"/>
<polygon fill="midnightblue" stroke="midnightblue" points="499.06,-101.61 508.04,-95.99 497.51,-94.79 499.06,-101.61"/>
</g>
<!-- Node17 -->
<g id="node17" class="node">
<title>Node17</title>
<g id="a_node17"><a xlink:href="namespacebenam__class.html#aef0b2a649260779b20729f29b8ec4a67" target="_top" xlink:title="Identifies the nuclide names and indices corresponding to z,n combinations (z1,n1),...">
<polygon fill="white" stroke="black" points="501,-152.97 501,-171.97 601,-171.97 601,-152.97 501,-152.97"/>
<text text-anchor="middle" x="551" y="-159.97" font-family="Helvetica,sans-Serif" font-size="10.00">benam_class::ident</text>
</a>
</g>
</g>
<!-- Node15&#45;&gt;Node17 -->
<g id="edge24" class="edge">
<title>Node15&#45;&gt;Node17</title>
<path fill="none" stroke="midnightblue" d="M424.77,-134.06C447.07,-139.12 474.62,-145.37 498.2,-150.72"/>
<polygon fill="midnightblue" stroke="midnightblue" points="497.51,-154.15 508.04,-152.95 499.06,-147.32 497.51,-154.15"/>
</g>
<!-- Node18 -->
<g id="node18" class="node">
<title>Node18</title>
<g id="a_node18"><a xlink:href="namespaceerror__msg__class.html#a339dd5b38c125b6a04653762c94a91f2" target="_top" xlink:title="Write data to the standard output (usually OUT)">
<polygon fill="white" stroke="black" points="494,-27.47 494,-57.47 608,-57.47 608,-27.47 494,-27.47"/>
<text text-anchor="start" x="502" y="-45.47" font-family="Helvetica,sans-Serif" font-size="10.00">error_msg_class::write</text>
<text text-anchor="middle" x="551" y="-34.47" font-family="Helvetica,sans-Serif" font-size="10.00">_data_to_std_out</text>
</a>
</g>
</g>
<!-- Node15&#45;&gt;Node18 -->
<g id="edge26" class="edge">
<title>Node15&#45;&gt;Node18</title>
<path fill="none" stroke="midnightblue" d="M399.2,-114.84C419.94,-103.05 456.56,-82.75 489,-67.47 493.3,-65.44 497.82,-63.41 502.36,-61.44"/>
<polygon fill="midnightblue" stroke="midnightblue" points="503.84,-64.61 511.67,-57.48 501.09,-58.17 503.84,-64.61"/>
</g>
<!-- Node19 -->
<g id="node19" class="node">
<title>Node19</title>
<g id="a_node19"><a xlink:href="namespaceerror__msg__class.html#af62b9a0c5997255e792b9ebd7322a6a3" target="_top" xlink:title="Write the header of the standard output (usually OUT)">
<polygon fill="white" stroke="black" points="665.5,-27.47 665.5,-57.47 779.5,-57.47 779.5,-27.47 665.5,-27.47"/>
<text text-anchor="start" x="673.5" y="-45.47" font-family="Helvetica,sans-Serif" font-size="10.00">error_msg_class::write</text>
<text text-anchor="middle" x="722.5" y="-34.47" font-family="Helvetica,sans-Serif" font-size="10.00">_header</text>
</a>
</g>
</g>
<!-- Node18&#45;&gt;Node19 -->
<g id="edge27" class="edge">
<title>Node18&#45;&gt;Node19</title>
<path fill="none" stroke="midnightblue" d="M608.44,-36.06C623.45,-35.68 639.8,-35.62 655.28,-35.86"/>
<polygon fill="midnightblue" stroke="midnightblue" points="655.24,-39.36 665.31,-36.07 655.38,-32.36 655.24,-39.36"/>
</g>
<!-- Node19&#45;&gt;Node18 -->
<g id="edge28" class="edge">
<title>Node19&#45;&gt;Node18</title>
<path fill="none" stroke="midnightblue" d="M665.31,-48.86C650.31,-49.25 633.96,-49.32 618.47,-49.08"/>
<polygon fill="midnightblue" stroke="midnightblue" points="618.51,-45.58 608.44,-48.87 618.37,-52.57 618.51,-45.58"/>
</g>
<!-- Node22&#45;&gt;Node5 -->
<g id="edge32" class="edge">
<title>Node22&#45;&gt;Node5</title>
<path fill="none" stroke="midnightblue" d="M431.13,-28.56C449.14,-24.07 469.85,-19.69 489,-17.47 624.54,-1.77 662.61,11.25 796,-17.47 873.42,-34.13 956.02,-78.2 1000.35,-104.29"/>
<polygon fill="midnightblue" stroke="midnightblue" points="998.57,-107.3 1008.95,-109.41 1002.15,-101.29 998.57,-107.3"/>
</g>
<!-- Node22&#45;&gt;Node18 -->
<g id="edge33" class="edge">
<title>Node22&#45;&gt;Node18</title>
<path fill="none" stroke="midnightblue" d="M431.4,-42.47C447.78,-42.47 466.34,-42.47 483.82,-42.47"/>
<polygon fill="midnightblue" stroke="midnightblue" points="483.97,-45.97 493.97,-42.47 483.97,-38.97 483.97,-45.97"/>
</g>
</g>
</svg>
        <g id="navigator" transform="translate(0 0)" fill="#404254">
                <rect fill="#f2f5e9" fill-opacity="0.5" stroke="#606060" stroke-width=".5" x="0" y="0" width="60" height="60"/>
                <use id="zoomplus" xlink:href="#zoomPlus" x="17" y="9" onmousedown="handleZoom(evt,'in')"/>
                <use id="zoomminus" xlink:href="#zoomMin" x="42" y="9" onmousedown="handleZoom(evt,'out')"/>
                <use id="reset" xlink:href="#resetDef" x="30" y="36" onmousedown="handleReset()"/>
                <g id="arrowUp" xlink:href="#dirArrow" transform="translate(30 24)" onmousedown="handlePan(0,-1)">
                  <use xlink:href="#rim" fill="#404040">
                        <set attributeName="fill" to="#808080" begin="arrowUp.mouseover" end="arrowUp.mouseout"/>
                  </use>
                  <path fill="none" stroke="white" stroke-width="1.5" d="M0,-3.0v7 M-2.5,-0.5L0,-3.0L2.5,-0.5"/>
                </g>
                <g id="arrowRight" xlink:href="#dirArrow" transform="rotate(90) translate(36 -43)" onmousedown="handlePan(1,0)">
                  <use xlink:href="#rim" fill="#404040">
                        <set attributeName="fill" to="#808080" begin="arrowRight.mouseover" end="arrowRight.mouseout"/>
                  </use>
                  <path fill="none" stroke="white" stroke-width="1.5" d="M0,-3.0v7 M-2.5,-0.5L0,-3.0L2.5,-0.5"/>
                </g>
                <g id="arrowDown" xlink:href="#dirArrow" transform="rotate(180) translate(-30 -48)" onmousedown="handlePan(0,1)">
                  <use xlink:href="#rim" fill="#404040">
                        <set attributeName="fill" to="#808080" begin="arrowDown.mouseover" end="arrowDown.mouseout"/>
                  </use>
                  <path fill="none" stroke="white" stroke-width="1.5" d="M0,-3.0v7 M-2.5,-0.5L0,-3.0L2.5,-0.5"/>
                </g>
                <g id="arrowLeft" xlink:href="#dirArrow" transform="rotate(270) translate(-36 17)" onmousedown="handlePan(-1,0)">
                  <use xlink:href="#rim" fill="#404040">
                        <set attributeName="fill" to="#808080" begin="arrowLeft.mouseover" end="arrowLeft.mouseout"/>
                  </use>
                  <path fill="none" stroke="white" stroke-width="1.5" d="M0,-3.0v7 M-2.5,-0.5L0,-3.0L2.5,-0.5"/>
                </g>
        </g>
        <svg viewBox="0 0 15 15" width="100%" height="30px" preserveAspectRatio="xMaxYMin meet">
         <g id="arrow_out" transform="scale(0.3 0.3)">
          <a xlink:href="namespacenuflux__class_a9484d93accf5ec49a5fa3c72398b4038_cgraph_org.svg" target="_base">
           <rect id="button" ry="5" rx="5" y="6" x="6" height="38" width="38"
                fill="#f2f5e9" fill-opacity="0.5" stroke="#606060" stroke-width="1.0"/>
           <path id="arrow"
             d="M 11.500037,31.436501 C 11.940474,20.09759 22.043105,11.32322 32.158766,21.979434 L 37.068811,17.246167 C 37.068811,17.246167 37.088388,32 37.088388,32 L 22.160133,31.978069 C 22.160133,31.978069 26.997745,27.140456 26.997745,27.140456 C 18.528582,18.264221 13.291696,25.230495 11.500037,31.436501 z"
             style="fill:#404040;"/>
          </a>
         </g>
        </svg>
</svg>
