<?xml version="1.0" encoding="UTF-8" standalone="no"?>
<!DOCTYPE svg PUBLIC "-//W3C//DTD SVG 1.1//EN"
 "http://www.w3.org/Graphics/SVG/1.1/DTD/svg11.dtd">
<!-- Generated by graphviz version 2.44.0 ()
 -->
<!-- Title: beta_decay_rate_module::read_beta_decays Pages: 1 -->
<svg width="423pt" height="154pt"
 viewBox="0.00 0.00 423.00 153.50" xmlns="http://www.w3.org/2000/svg" xmlns:xlink="http://www.w3.org/1999/xlink">
<g id="graph0" class="graph" transform="scale(1 1) rotate(0) translate(4 149.5)">
<title>beta_decay_rate_module::read_beta_decays</title>
<polygon fill="white" stroke="transparent" points="-4,4 -4,-149.5 419,-149.5 419,4 -4,4"/>
<!-- Node1 -->
<g id="node1" class="node">
<title>Node1</title>
<g id="a_node1"><a xlink:title="Reads beta decays from a separate file.">
<polygon fill="#bfbfbf" stroke="black" points="0,-63.5 0,-93.5 125,-93.5 125,-63.5 0,-63.5"/>
<text text-anchor="start" x="8" y="-81.5" font-family="Helvetica,sans-Serif" font-size="10.00">beta_decay_rate_module</text>
<text text-anchor="middle" x="62.5" y="-70.5" font-family="Helvetica,sans-Serif" font-size="10.00">::read_beta_decays</text>
</a>
</g>
</g>
<!-- Node2 -->
<g id="node2" class="node">
<title>Node2</title>
<g id="a_node2"><a xlink:href="namespacebenam__class.html#ad20c821347dd5f7c08dff59c98e69657" target="_top" xlink:title="Returns the index number of isotope &#39;name&#39;.">
<polygon fill="white" stroke="black" points="164,-126 164,-145 272,-145 272,-126 164,-126"/>
<text text-anchor="middle" x="218" y="-133" font-family="Helvetica,sans-Serif" font-size="10.00">benam_class::benam</text>
</a>
</g>
</g>
<!-- Node1&#45;&gt;Node2 -->
<g id="edge1" class="edge">
<title>Node1&#45;&gt;Node2</title>
<path fill="none" stroke="midnightblue" d="M100.85,-93.51C118.95,-100.66 141.03,-109.22 161,-116.5 166.62,-118.55 172.59,-120.65 178.45,-122.67"/>
<polygon fill="midnightblue" stroke="midnightblue" points="177.54,-126.06 188.14,-125.98 179.81,-119.44 177.54,-126.06"/>
</g>
<!-- Node3 -->
<g id="node3" class="node">
<title>Node3</title>
<g id="a_node3"><a xlink:href="namespacebenam__class.html#ad2f566697809a5731e560509d2ca7062" target="_top" xlink:title="Finds an isotope index in the network table, given its A and Z. In case it was not found,...">
<polygon fill="white" stroke="black" points="166,-88 166,-107 270,-107 270,-88 166,-88"/>
<text text-anchor="middle" x="218" y="-95" font-family="Helvetica,sans-Serif" font-size="10.00">benam_class::findaz</text>
</a>
</g>
</g>
<!-- Node1&#45;&gt;Node3 -->
<g id="edge2" class="edge">
<title>Node1&#45;&gt;Node3</title>
<path fill="none" stroke="midnightblue" d="M125.05,-86.12C135.18,-87.37 145.69,-88.67 155.81,-89.93"/>
<polygon fill="midnightblue" stroke="midnightblue" points="155.43,-93.41 165.78,-91.16 156.29,-86.46 155.43,-93.41"/>
</g>
<!-- Node4 -->
<g id="node4" class="node">
<title>Node4</title>
<g id="a_node4"><a xlink:href="namespaceerror__msg__class.html#a7e065585cc806a5c264de1f088266498" target="_top" xlink:title="Converts a given integer to a string.">
<polygon fill="white" stroke="black" points="311,-22.5 311,-52.5 415,-52.5 415,-22.5 311,-22.5"/>
<text text-anchor="start" x="319" y="-40.5" font-family="Helvetica,sans-Serif" font-size="10.00">error_msg_class::int</text>
<text text-anchor="middle" x="363" y="-29.5" font-family="Helvetica,sans-Serif" font-size="10.00">_to_str</text>
</a>
</g>
</g>
<!-- Node1&#45;&gt;Node4 -->
<g id="edge3" class="edge">
<title>Node1&#45;&gt;Node4</title>
<path fill="none" stroke="midnightblue" d="M125.35,-70C176.74,-62.95 249.47,-52.96 300.71,-45.92"/>
<polygon fill="midnightblue" stroke="midnightblue" points="301.23,-49.38 310.66,-44.55 300.27,-42.45 301.23,-49.38"/>
</g>
<!-- Node5 -->
<g id="node5" class="node">
<title>Node5</title>
<g id="a_node5"><a xlink:href="namespaceerror__msg__class.html#a2453d3b7cb363115c046840baa1dfb75" target="_top" xlink:title="Raise a exception with a given error message.">
<polygon fill="white" stroke="black" points="161,-0.5 161,-30.5 275,-30.5 275,-0.5 161,-0.5"/>
<text text-anchor="start" x="169" y="-18.5" font-family="Helvetica,sans-Serif" font-size="10.00">error_msg_class::raise</text>
<text text-anchor="middle" x="218" y="-7.5" font-family="Helvetica,sans-Serif" font-size="10.00">_exception</text>
</a>
</g>
</g>
<!-- Node1&#45;&gt;Node5 -->
<g id="edge4" class="edge">
<title>Node1&#45;&gt;Node5</title>
<path fill="none" stroke="midnightblue" d="M100.27,-63.41C121.45,-54.71 148.28,-43.7 170.87,-34.43"/>
<polygon fill="midnightblue" stroke="midnightblue" points="172.35,-37.61 180.27,-30.58 169.69,-31.14 172.35,-37.61"/>
</g>
<!-- Node5&#45;&gt;Node4 -->
<g id="edge5" class="edge">
<title>Node5&#45;&gt;Node4</title>
<path fill="none" stroke="midnightblue" d="M275.11,-24.13C283.54,-25.43 292.28,-26.77 300.81,-28.09"/>
<polygon fill="midnightblue" stroke="midnightblue" points="300.3,-31.55 310.71,-29.61 301.36,-24.63 300.3,-31.55"/>
</g>
</g>
</svg>
