<?xml version="1.0" encoding="UTF-8" standalone="no"?>
<!DOCTYPE svg PUBLIC "-//W3C//DTD SVG 1.1//EN"
 "http://www.w3.org/Graphics/SVG/1.1/DTD/svg11.dtd">
<!-- Generated by graphviz version 2.44.0 ()
 -->
<!-- Title: parameter_class::set_param Pages: 1 -->
<!--zoomable 150 -->
<svg id="main" version="1.1" xmlns="http://www.w3.org/2000/svg" xmlns:xlink="http://www.w3.org/1999/xlink" xml:space="preserve" onload="init(evt)">
<style type="text/css"><![CDATA[
.edge:hover path { stroke: red; }
.edge:hover polygon { stroke: red; fill: red; }
]]></style>
<script type="text/javascript"><![CDATA[
var edges = document.getElementsByTagName('g');
if (edges && edges.length) {
  for (var i=0;i<edges.length;i++) {
    if (edges[i].id.substr(0,4)=='edge') {
      edges[i].setAttribute('class','edge');
    }
  }
}
]]></script>
        <defs>
                <circle id="rim" cx="0" cy="0" r="7"/>
                <circle id="rim2" cx="0" cy="0" r="3.5"/>
                <g id="zoomPlus">
                        <use xlink:href="#rim" fill="#404040">
                                <set attributeName="fill" to="#808080" begin="zoomplus.mouseover" end="zoomplus.mouseout"/>
                        </use>
                        <path d="M-4,0h8M0,-4v8" fill="none" stroke="white" stroke-width="1.5" pointer-events="none"/>
                </g>
                <g id="zoomMin">
                        <use xlink:href="#rim" fill="#404040">
                                <set attributeName="fill" to="#808080" begin="zoomminus.mouseover" end="zoomminus.mouseout"/>
                        </use>
                        <path d="M-4,0h8" fill="none" stroke="white" stroke-width="1.5" pointer-events="none"/>
                </g>
                <g id="dirArrow">
                        <path fill="none" stroke="white" stroke-width="1.5" d="M0,-3.0v7 M-2.5,-0.5L0,-3.0L2.5,-0.5"/>
                </g>
               <g id="resetDef">
                       <use xlink:href="#rim2" fill="#404040">
                               <set attributeName="fill" to="#808080" begin="reset.mouseover" end="reset.mouseout"/>
                       </use>
               </g>
        </defs>

<script type="text/javascript">
var viewWidth = 778;
var viewHeight = 150;
var sectionId = 'dynsection-10';
</script>
<script xlink:href="svgpan.js"/>
<svg id="graph" class="graph">
<g id="viewport">
<title>parameter_class::set_param</title>
<polygon fill="white" stroke="transparent" points="-4,4 -4,-145.65 774,-145.65 774,4 -4,4"/>
<!-- Node1 -->
<g id="node1" class="node">
<title>Node1</title>
<g id="a_node1"><a xlink:title="Sets a global parameter param_name to the value, given by its string representation param_value.">
<polygon fill="#bfbfbf" stroke="black" points="0,-66.5 0,-96.5 107,-96.5 107,-66.5 0,-66.5"/>
<text text-anchor="start" x="8" y="-84.5" font-family="Helvetica,sans-Serif" font-size="10.00">parameter_class::set</text>
<text text-anchor="middle" x="53.5" y="-73.5" font-family="Helvetica,sans-Serif" font-size="10.00">_param</text>
</a>
</g>
</g>
<!-- Node2 -->
<g id="node2" class="node">
<title>Node2</title>
<g id="a_node2"><a xlink:href="namespaceerror__msg__class.html#a2453d3b7cb363115c046840baa1dfb75" target="_top" xlink:title="Raise a exception with a given error message.">
<polygon fill="white" stroke="black" points="516,-66.5 516,-96.5 630,-96.5 630,-66.5 516,-66.5"/>
<text text-anchor="start" x="524" y="-84.5" font-family="Helvetica,sans-Serif" font-size="10.00">error_msg_class::raise</text>
<text text-anchor="middle" x="573" y="-73.5" font-family="Helvetica,sans-Serif" font-size="10.00">_exception</text>
</a>
</g>
</g>
<!-- Node1&#45;&gt;Node2 -->
<g id="edge1" class="edge">
<title>Node1&#45;&gt;Node2</title>
<path fill="none" stroke="midnightblue" d="M75.83,-96.68C93.03,-107.94 118.35,-122.36 143,-128.5 275.04,-161.39 435.65,-123.96 517.84,-99.43"/>
<polygon fill="midnightblue" stroke="midnightblue" points="518.91,-102.76 527.46,-96.51 516.88,-96.06 518.91,-102.76"/>
</g>
<!-- Node4 -->
<g id="node4" class="node">
<title>Node4</title>
<g id="a_node4"><a xlink:href="namespaceparameter__class.html#a6dcc6b03adff66e992d7a0ad46ec517e" target="_top" xlink:title="Converts a string to an float.">
<polygon fill="white" stroke="black" points="148,-88.5 148,-118.5 260,-118.5 260,-88.5 148,-88.5"/>
<text text-anchor="start" x="156" y="-106.5" font-family="Helvetica,sans-Serif" font-size="10.00">parameter_class::read</text>
<text text-anchor="middle" x="204" y="-95.5" font-family="Helvetica,sans-Serif" font-size="10.00">_float_param</text>
</a>
</g>
</g>
<!-- Node1&#45;&gt;Node4 -->
<g id="edge3" class="edge">
<title>Node1&#45;&gt;Node4</title>
<path fill="none" stroke="midnightblue" d="M107.27,-89.32C117.15,-90.78 127.59,-92.33 137.79,-93.84"/>
<polygon fill="midnightblue" stroke="midnightblue" points="137.48,-97.33 147.89,-95.33 138.51,-90.41 137.48,-97.33"/>
</g>
<!-- Node5 -->
<g id="node5" class="node">
<title>Node5</title>
<g id="a_node5"><a xlink:href="namespaceparameter__class.html#ad9528991ff0e7998e4556c35113bdc1b" target="_top" xlink:title="Converts a string to an integer.">
<polygon fill="white" stroke="black" points="334.5,-44.5 334.5,-74.5 446.5,-74.5 446.5,-44.5 334.5,-44.5"/>
<text text-anchor="start" x="342.5" y="-62.5" font-family="Helvetica,sans-Serif" font-size="10.00">parameter_class::read</text>
<text text-anchor="middle" x="390.5" y="-51.5" font-family="Helvetica,sans-Serif" font-size="10.00">_integer_param</text>
</a>
</g>
</g>
<!-- Node1&#45;&gt;Node5 -->
<g id="edge5" class="edge">
<title>Node1&#45;&gt;Node5</title>
<path fill="none" stroke="midnightblue" d="M107.21,-78.04C165.86,-74.19 260.68,-67.96 324.03,-63.8"/>
<polygon fill="midnightblue" stroke="midnightblue" points="324.56,-67.27 334.31,-63.12 324.1,-60.29 324.56,-67.27"/>
</g>
<!-- Node6 -->
<g id="node6" class="node">
<title>Node6</title>
<g id="a_node6"><a xlink:href="namespaceparameter__class.html#ac0277cbae2a8d4de25300cea11b59279" target="_top" xlink:title="Search for similar existing parameters.">
<polygon fill="white" stroke="black" points="143,-0.5 143,-30.5 265,-30.5 265,-0.5 143,-0.5"/>
<text text-anchor="start" x="151" y="-18.5" font-family="Helvetica,sans-Serif" font-size="10.00">parameter_class::search</text>
<text text-anchor="middle" x="204" y="-7.5" font-family="Helvetica,sans-Serif" font-size="10.00">_close_parameter</text>
</a>
</g>
</g>
<!-- Node1&#45;&gt;Node6 -->
<g id="edge7" class="edge">
<title>Node1&#45;&gt;Node6</title>
<path fill="none" stroke="midnightblue" d="M88.57,-66.36C109.7,-56.97 137.04,-44.82 159.7,-34.75"/>
<polygon fill="midnightblue" stroke="midnightblue" points="161.37,-37.83 169.09,-30.57 158.53,-31.43 161.37,-37.83"/>
</g>
<!-- Node3 -->
<g id="node3" class="node">
<title>Node3</title>
<g id="a_node3"><a xlink:href="namespaceerror__msg__class.html#a7e065585cc806a5c264de1f088266498" target="_top" xlink:title="Converts a given integer to a string.">
<polygon fill="white" stroke="black" points="666,-66.5 666,-96.5 770,-96.5 770,-66.5 666,-66.5"/>
<text text-anchor="start" x="674" y="-84.5" font-family="Helvetica,sans-Serif" font-size="10.00">error_msg_class::int</text>
<text text-anchor="middle" x="718" y="-73.5" font-family="Helvetica,sans-Serif" font-size="10.00">_to_str</text>
</a>
</g>
</g>
<!-- Node2&#45;&gt;Node3 -->
<g id="edge2" class="edge">
<title>Node2&#45;&gt;Node3</title>
<path fill="none" stroke="midnightblue" d="M630.11,-81.5C638.45,-81.5 647.09,-81.5 655.54,-81.5"/>
<polygon fill="midnightblue" stroke="midnightblue" points="655.71,-85 665.71,-81.5 655.71,-78 655.71,-85"/>
</g>
<!-- Node4&#45;&gt;Node2 -->
<g id="edge4" class="edge">
<title>Node4&#45;&gt;Node2</title>
<path fill="none" stroke="midnightblue" d="M260.34,-100.18C326.09,-96.24 435.69,-89.67 505.85,-85.47"/>
<polygon fill="midnightblue" stroke="midnightblue" points="506.13,-88.95 515.91,-84.86 505.72,-81.97 506.13,-88.95"/>
</g>
<!-- Node5&#45;&gt;Node2 -->
<g id="edge6" class="edge">
<title>Node5&#45;&gt;Node2</title>
<path fill="none" stroke="midnightblue" d="M446.64,-66.22C465.35,-68.5 486.46,-71.07 505.94,-73.45"/>
<polygon fill="midnightblue" stroke="midnightblue" points="505.61,-76.93 515.96,-74.67 506.45,-69.98 505.61,-76.93"/>
</g>
<!-- Node7 -->
<g id="node7" class="node">
<title>Node7</title>
<g id="a_node7"><a xlink:href="namespaceparameter__class.html#accc37bb66eee84405ee5b2ff3227688a" target="_top" xlink:title="Calculates the Levenshtein distance between two strings.">
<polygon fill="white" stroke="black" points="301,-6 301,-25 480,-25 480,-6 301,-6"/>
<text text-anchor="middle" x="390.5" y="-13" font-family="Helvetica,sans-Serif" font-size="10.00">parameter_class::levenshteindistance</text>
</a>
</g>
</g>
<!-- Node6&#45;&gt;Node7 -->
<g id="edge8" class="edge">
<title>Node6&#45;&gt;Node7</title>
<path fill="none" stroke="midnightblue" d="M265.16,-15.5C273.4,-15.5 282.02,-15.5 290.73,-15.5"/>
<polygon fill="midnightblue" stroke="midnightblue" points="290.97,-19 300.97,-15.5 290.97,-12 290.97,-19"/>
</g>
<!-- Node7&#45;&gt;Node2 -->
<g id="edge9" class="edge">
<title>Node7&#45;&gt;Node2</title>
<path fill="none" stroke="midnightblue" d="M446.89,-25.07C458,-27.63 469.49,-30.76 480,-34.5 499.96,-41.6 521.09,-52.16 538.06,-61.47"/>
<polygon fill="midnightblue" stroke="midnightblue" points="536.59,-64.65 547.02,-66.48 540,-58.54 536.59,-64.65"/>
</g>
</g>
</svg>
        <g id="navigator" transform="translate(0 0)" fill="#404254">
                <rect fill="#f2f5e9" fill-opacity="0.5" stroke="#606060" stroke-width=".5" x="0" y="0" width="60" height="60"/>
                <use id="zoomplus" xlink:href="#zoomPlus" x="17" y="9" onmousedown="handleZoom(evt,'in')"/>
                <use id="zoomminus" xlink:href="#zoomMin" x="42" y="9" onmousedown="handleZoom(evt,'out')"/>
                <use id="reset" xlink:href="#resetDef" x="30" y="36" onmousedown="handleReset()"/>
                <g id="arrowUp" xlink:href="#dirArrow" transform="translate(30 24)" onmousedown="handlePan(0,-1)">
                  <use xlink:href="#rim" fill="#404040">
                        <set attributeName="fill" to="#808080" begin="arrowUp.mouseover" end="arrowUp.mouseout"/>
                  </use>
                  <path fill="none" stroke="white" stroke-width="1.5" d="M0,-3.0v7 M-2.5,-0.5L0,-3.0L2.5,-0.5"/>
                </g>
                <g id="arrowRight" xlink:href="#dirArrow" transform="rotate(90) translate(36 -43)" onmousedown="handlePan(1,0)">
                  <use xlink:href="#rim" fill="#404040">
                        <set attributeName="fill" to="#808080" begin="arrowRight.mouseover" end="arrowRight.mouseout"/>
                  </use>
                  <path fill="none" stroke="white" stroke-width="1.5" d="M0,-3.0v7 M-2.5,-0.5L0,-3.0L2.5,-0.5"/>
                </g>
                <g id="arrowDown" xlink:href="#dirArrow" transform="rotate(180) translate(-30 -48)" onmousedown="handlePan(0,1)">
                  <use xlink:href="#rim" fill="#404040">
                        <set attributeName="fill" to="#808080" begin="arrowDown.mouseover" end="arrowDown.mouseout"/>
                  </use>
                  <path fill="none" stroke="white" stroke-width="1.5" d="M0,-3.0v7 M-2.5,-0.5L0,-3.0L2.5,-0.5"/>
                </g>
                <g id="arrowLeft" xlink:href="#dirArrow" transform="rotate(270) translate(-36 17)" onmousedown="handlePan(-1,0)">
                  <use xlink:href="#rim" fill="#404040">
                        <set attributeName="fill" to="#808080" begin="arrowLeft.mouseover" end="arrowLeft.mouseout"/>
                  </use>
                  <path fill="none" stroke="white" stroke-width="1.5" d="M0,-3.0v7 M-2.5,-0.5L0,-3.0L2.5,-0.5"/>
                </g>
        </g>
        <svg viewBox="0 0 15 15" width="100%" height="30px" preserveAspectRatio="xMaxYMin meet">
         <g id="arrow_out" transform="scale(0.3 0.3)">
          <a xlink:href="namespaceparameter__class_a1732f13c754204b16d3e3b7bf429ab05_cgraph_org.svg" target="_base">
           <rect id="button" ry="5" rx="5" y="6" x="6" height="38" width="38"
                fill="#f2f5e9" fill-opacity="0.5" stroke="#606060" stroke-width="1.0"/>
           <path id="arrow"
             d="M 11.500037,31.436501 C 11.940474,20.09759 22.043105,11.32322 32.158766,21.979434 L 37.068811,17.246167 C 37.068811,17.246167 37.088388,32 37.088388,32 L 22.160133,31.978069 C 22.160133,31.978069 26.997745,27.140456 26.997745,27.140456 C 18.528582,18.264221 13.291696,25.230495 11.500037,31.436501 z"
             style="fill:#404040;"/>
          </a>
         </g>
        </svg>
</svg>
