<?xml version="1.0" encoding="UTF-8" standalone="no"?>
<!DOCTYPE svg PUBLIC "-//W3C//DTD SVG 1.1//EN"
 "http://www.w3.org/Graphics/SVG/1.1/DTD/svg11.dtd">
<!-- Generated by graphviz version 2.44.0 ()
 -->
<!-- Title: inter_module::lininter_2d Pages: 1 -->
<svg width="442pt" height="78pt"
 viewBox="0.00 0.00 442.00 77.50" xmlns="http://www.w3.org/2000/svg" xmlns:xlink="http://www.w3.org/1999/xlink">
<g id="graph0" class="graph" transform="scale(1 1) rotate(0) translate(4 73.5)">
<title>inter_module::lininter_2d</title>
<polygon fill="white" stroke="transparent" points="-4,4 -4,-73.5 438,-73.5 438,4 -4,4"/>
<!-- Node1 -->
<g id="node1" class="node">
<title>Node1</title>
<g id="a_node1"><a xlink:title="Interpolate linearly on 2 Dimensional grid.">
<polygon fill="#bfbfbf" stroke="black" points="0,-28 0,-47 121,-47 121,-28 0,-28"/>
<text text-anchor="middle" x="60.5" y="-35" font-family="Helvetica,sans-Serif" font-size="10.00">inter_module::lininter_2d</text>
</a>
</g>
</g>
<!-- Node2 -->
<g id="node2" class="node">
<title>Node2</title>
<g id="a_node2"><a xlink:href="namespaceinter__module.html#a947ac5de821c77a2cd1cf1ea1ce43589" target="_top" xlink:title="Get indices of the grid for given x&#45; and y&#45; values.">
<polygon fill="white" stroke="black" points="157,-50 157,-69 294,-69 294,-50 157,-50"/>
<text text-anchor="middle" x="225.5" y="-57" font-family="Helvetica,sans-Serif" font-size="10.00">inter_module::get_indice_2d</text>
</a>
</g>
</g>
<!-- Node1&#45;&gt;Node2 -->
<g id="edge1" class="edge">
<title>Node1&#45;&gt;Node2</title>
<path fill="none" stroke="midnightblue" d="M121.27,-45.57C129.56,-46.69 138.18,-47.85 146.74,-49.01"/>
<polygon fill="midnightblue" stroke="midnightblue" points="146.37,-52.49 156.75,-50.36 147.31,-45.55 146.37,-52.49"/>
</g>
<!-- Node3 -->
<g id="node3" class="node">
<title>Node3</title>
<g id="a_node3"><a xlink:href="namespaceerror__msg__class.html#a2453d3b7cb363115c046840baa1dfb75" target="_top" xlink:title="Raise a exception with a given error message.">
<polygon fill="white" stroke="black" points="168.5,-0.5 168.5,-30.5 282.5,-30.5 282.5,-0.5 168.5,-0.5"/>
<text text-anchor="start" x="176.5" y="-18.5" font-family="Helvetica,sans-Serif" font-size="10.00">error_msg_class::raise</text>
<text text-anchor="middle" x="225.5" y="-7.5" font-family="Helvetica,sans-Serif" font-size="10.00">_exception</text>
</a>
</g>
</g>
<!-- Node1&#45;&gt;Node3 -->
<g id="edge2" class="edge">
<title>Node1&#45;&gt;Node3</title>
<path fill="none" stroke="midnightblue" d="M121.27,-29.43C133.27,-27.81 145.94,-26.1 158.14,-24.46"/>
<polygon fill="midnightblue" stroke="midnightblue" points="158.82,-27.9 168.26,-23.09 157.88,-20.96 158.82,-27.9"/>
</g>
<!-- Node4 -->
<g id="node4" class="node">
<title>Node4</title>
<g id="a_node4"><a xlink:href="namespaceerror__msg__class.html#a7e065585cc806a5c264de1f088266498" target="_top" xlink:title="Converts a given integer to a string.">
<polygon fill="white" stroke="black" points="330,-0.5 330,-30.5 434,-30.5 434,-0.5 330,-0.5"/>
<text text-anchor="start" x="338" y="-18.5" font-family="Helvetica,sans-Serif" font-size="10.00">error_msg_class::int</text>
<text text-anchor="middle" x="382" y="-7.5" font-family="Helvetica,sans-Serif" font-size="10.00">_to_str</text>
</a>
</g>
</g>
<!-- Node3&#45;&gt;Node4 -->
<g id="edge3" class="edge">
<title>Node3&#45;&gt;Node4</title>
<path fill="none" stroke="midnightblue" d="M282.72,-15.5C294.78,-15.5 307.59,-15.5 319.83,-15.5"/>
<polygon fill="midnightblue" stroke="midnightblue" points="319.95,-19 329.95,-15.5 319.95,-12 319.95,-19"/>
</g>
</g>
</svg>
