<?xml version="1.0" encoding="UTF-8" standalone="no"?>
<!DOCTYPE svg PUBLIC "-//W3C//DTD SVG 1.1//EN"
 "http://www.w3.org/Graphics/SVG/1.1/DTD/svg11.dtd">
<!-- Generated by graphviz version 2.44.0 ()
 -->
<!-- Title: flow_module::flowprint Pages: 1 -->
<svg width="677pt" height="127pt"
 viewBox="0.00 0.00 677.00 127.00" xmlns="http://www.w3.org/2000/svg" xmlns:xlink="http://www.w3.org/1999/xlink">
<g id="graph0" class="graph" transform="scale(1 1) rotate(0) translate(4 123)">
<title>flow_module::flowprint</title>
<polygon fill="white" stroke="transparent" points="-4,4 -4,-123 673,-123 673,4 -4,4"/>
<!-- Node1 -->
<g id="node1" class="node">
<title>Node1</title>
<g id="a_node1"><a xlink:title="Output reaction flows to a file.">
<polygon fill="#bfbfbf" stroke="black" points="0,-72 0,-91 111,-91 111,-72 0,-72"/>
<text text-anchor="middle" x="55.5" y="-79" font-family="Helvetica,sans-Serif" font-size="10.00">flow_module::flowprint</text>
</a>
</g>
</g>
<!-- Node2 -->
<g id="node2" class="node">
<title>Node2</title>
<g id="a_node2"><a xlink:href="namespacefile__handling__class.html#a01ba26324d7662cc0fb2e0eb306cd3e2" target="_top" xlink:title="Close an external file.">
<polygon fill="white" stroke="black" points="281,-88.5 281,-118.5 379,-118.5 379,-88.5 281,-88.5"/>
<text text-anchor="start" x="289" y="-106.5" font-family="Helvetica,sans-Serif" font-size="10.00">file_handling_class</text>
<text text-anchor="middle" x="330" y="-95.5" font-family="Helvetica,sans-Serif" font-size="10.00">::close_io_file</text>
</a>
</g>
</g>
<!-- Node1&#45;&gt;Node2 -->
<g id="edge1" class="edge">
<title>Node1&#45;&gt;Node2</title>
<path fill="none" stroke="midnightblue" d="M111.32,-85.93C157.51,-89.65 223.42,-94.98 270.59,-98.78"/>
<polygon fill="midnightblue" stroke="midnightblue" points="270.41,-102.28 280.66,-99.6 270.97,-95.3 270.41,-102.28"/>
</g>
<!-- Node5 -->
<g id="node5" class="node">
<title>Node5</title>
<g id="a_node5"><a xlink:href="namespacefile__handling__class.html#aeddf55e8478d6220dc04310665427c3a" target="_top" xlink:title="Shorthand for opening a new file for writing (output file)">
<polygon fill="white" stroke="black" points="147,-44.5 147,-74.5 245,-74.5 245,-44.5 147,-44.5"/>
<text text-anchor="start" x="155" y="-62.5" font-family="Helvetica,sans-Serif" font-size="10.00">file_handling_class</text>
<text text-anchor="middle" x="196" y="-51.5" font-family="Helvetica,sans-Serif" font-size="10.00">::open_outfile</text>
</a>
</g>
</g>
<!-- Node1&#45;&gt;Node5 -->
<g id="edge5" class="edge">
<title>Node1&#45;&gt;Node5</title>
<path fill="none" stroke="midnightblue" d="M111.24,-72.81C119.72,-71.46 128.5,-70.06 137.04,-68.71"/>
<polygon fill="midnightblue" stroke="midnightblue" points="137.61,-72.16 146.94,-67.13 136.51,-65.25 137.61,-72.16"/>
</g>
<!-- Node3 -->
<g id="node3" class="node">
<title>Node3</title>
<g id="a_node3"><a xlink:href="namespaceerror__msg__class.html#a7e065585cc806a5c264de1f088266498" target="_top" xlink:title="Converts a given integer to a string.">
<polygon fill="white" stroke="black" points="565,-66.5 565,-96.5 669,-96.5 669,-66.5 565,-66.5"/>
<text text-anchor="start" x="573" y="-84.5" font-family="Helvetica,sans-Serif" font-size="10.00">error_msg_class::int</text>
<text text-anchor="middle" x="617" y="-73.5" font-family="Helvetica,sans-Serif" font-size="10.00">_to_str</text>
</a>
</g>
</g>
<!-- Node2&#45;&gt;Node3 -->
<g id="edge2" class="edge">
<title>Node2&#45;&gt;Node3</title>
<path fill="none" stroke="midnightblue" d="M379.02,-99.79C427.36,-96.06 502.09,-90.29 554.68,-86.23"/>
<polygon fill="midnightblue" stroke="midnightblue" points="555.19,-89.7 564.89,-85.45 554.65,-82.73 555.19,-89.7"/>
</g>
<!-- Node4 -->
<g id="node4" class="node">
<title>Node4</title>
<g id="a_node4"><a xlink:href="namespaceerror__msg__class.html#a2453d3b7cb363115c046840baa1dfb75" target="_top" xlink:title="Raise a exception with a given error message.">
<polygon fill="white" stroke="black" points="415,-44.5 415,-74.5 529,-74.5 529,-44.5 415,-44.5"/>
<text text-anchor="start" x="423" y="-62.5" font-family="Helvetica,sans-Serif" font-size="10.00">error_msg_class::raise</text>
<text text-anchor="middle" x="472" y="-51.5" font-family="Helvetica,sans-Serif" font-size="10.00">_exception</text>
</a>
</g>
</g>
<!-- Node2&#45;&gt;Node4 -->
<g id="edge3" class="edge">
<title>Node2&#45;&gt;Node4</title>
<path fill="none" stroke="midnightblue" d="M378.79,-88.48C389.82,-85.01 401.66,-81.29 413.07,-77.71"/>
<polygon fill="midnightblue" stroke="midnightblue" points="414.46,-80.94 422.95,-74.6 412.36,-74.26 414.46,-80.94"/>
</g>
<!-- Node4&#45;&gt;Node3 -->
<g id="edge4" class="edge">
<title>Node4&#45;&gt;Node3</title>
<path fill="none" stroke="midnightblue" d="M529.11,-68.13C537.54,-69.43 546.28,-70.77 554.81,-72.09"/>
<polygon fill="midnightblue" stroke="midnightblue" points="554.3,-75.55 564.71,-73.61 555.36,-68.63 554.3,-75.55"/>
</g>
<!-- Node5&#45;&gt;Node4 -->
<g id="edge8" class="edge">
<title>Node5&#45;&gt;Node4</title>
<path fill="none" stroke="midnightblue" d="M245.04,-59.5C289.32,-59.5 355.43,-59.5 404.72,-59.5"/>
<polygon fill="midnightblue" stroke="midnightblue" points="404.97,-63 414.97,-59.5 404.97,-56 404.97,-63"/>
</g>
<!-- Node6 -->
<g id="node6" class="node">
<title>Node6</title>
<g id="a_node6"><a xlink:href="namespacefile__handling__class.html#af02196bd5eaf70ecd5ab4cc650094d5e" target="_top" xlink:title="Finds the next unused unit number.">
<polygon fill="white" stroke="black" points="281,-0.5 281,-30.5 379,-30.5 379,-0.5 281,-0.5"/>
<text text-anchor="start" x="289" y="-18.5" font-family="Helvetica,sans-Serif" font-size="10.00">file_handling_class</text>
<text text-anchor="middle" x="330" y="-7.5" font-family="Helvetica,sans-Serif" font-size="10.00">::get_next_io_unit</text>
</a>
</g>
</g>
<!-- Node5&#45;&gt;Node6 -->
<g id="edge6" class="edge">
<title>Node5&#45;&gt;Node6</title>
<path fill="none" stroke="midnightblue" d="M242.06,-44.48C252.35,-41.05 263.4,-37.37 274.06,-33.81"/>
<polygon fill="midnightblue" stroke="midnightblue" points="275.32,-37.08 283.7,-30.6 273.1,-30.44 275.32,-37.08"/>
</g>
<!-- Node6&#45;&gt;Node4 -->
<g id="edge7" class="edge">
<title>Node6&#45;&gt;Node4</title>
<path fill="none" stroke="midnightblue" d="M378.79,-30.52C389.82,-33.99 401.66,-37.71 413.07,-41.29"/>
<polygon fill="midnightblue" stroke="midnightblue" points="412.36,-44.74 422.95,-44.4 414.46,-38.06 412.36,-44.74"/>
</g>
</g>
</svg>
