<?xml version="1.0" encoding="UTF-8" standalone="no"?>
<!DOCTYPE svg PUBLIC "-//W3C//DTD SVG 1.1//EN"
 "http://www.w3.org/Graphics/SVG/1.1/DTD/svg11.dtd">
<!-- Generated by graphviz version 2.44.0 ()
 -->
<!-- Title: nuflux_class::read_neutrino_rates Pages: 1 -->
<!--zoomable 329 -->
<svg id="main" version="1.1" xmlns="http://www.w3.org/2000/svg" xmlns:xlink="http://www.w3.org/1999/xlink" xml:space="preserve" onload="init(evt)">
<style type="text/css"><![CDATA[
.edge:hover path { stroke: red; }
.edge:hover polygon { stroke: red; fill: red; }
]]></style>
<script type="text/javascript"><![CDATA[
var edges = document.getElementsByTagName('g');
if (edges && edges.length) {
  for (var i=0;i<edges.length;i++) {
    if (edges[i].id.substr(0,4)=='edge') {
      edges[i].setAttribute('class','edge');
    }
  }
}
]]></script>
        <defs>
                <circle id="rim" cx="0" cy="0" r="7"/>
                <circle id="rim2" cx="0" cy="0" r="3.5"/>
                <g id="zoomPlus">
                        <use xlink:href="#rim" fill="#404040">
                                <set attributeName="fill" to="#808080" begin="zoomplus.mouseover" end="zoomplus.mouseout"/>
                        </use>
                        <path d="M-4,0h8M0,-4v8" fill="none" stroke="white" stroke-width="1.5" pointer-events="none"/>
                </g>
                <g id="zoomMin">
                        <use xlink:href="#rim" fill="#404040">
                                <set attributeName="fill" to="#808080" begin="zoomminus.mouseover" end="zoomminus.mouseout"/>
                        </use>
                        <path d="M-4,0h8" fill="none" stroke="white" stroke-width="1.5" pointer-events="none"/>
                </g>
                <g id="dirArrow">
                        <path fill="none" stroke="white" stroke-width="1.5" d="M0,-3.0v7 M-2.5,-0.5L0,-3.0L2.5,-0.5"/>
                </g>
               <g id="resetDef">
                       <use xlink:href="#rim2" fill="#404040">
                               <set attributeName="fill" to="#808080" begin="reset.mouseover" end="reset.mouseout"/>
                       </use>
               </g>
        </defs>

<script type="text/javascript">
var viewWidth = 903;
var viewHeight = 329;
var sectionId = 'dynsection-8';
</script>
<script xlink:href="svgpan.js"/>
<svg id="graph" class="graph">
<g id="viewport">
<title>nuflux_class::read_neutrino_rates</title>
<polygon fill="white" stroke="transparent" points="-4,4 -4,-324.5 899,-324.5 899,4 -4,4"/>
<!-- Node1 -->
<g id="node1" class="node">
<title>Node1</title>
<g id="a_node1"><a xlink:title="Read neutrino reactions and fill the global_class::nurate array.">
<polygon fill="#bfbfbf" stroke="black" points="0,-150.5 0,-180.5 93,-180.5 93,-150.5 0,-150.5"/>
<text text-anchor="start" x="8" y="-168.5" font-family="Helvetica,sans-Serif" font-size="10.00">nuflux_class::read</text>
<text text-anchor="middle" x="46.5" y="-157.5" font-family="Helvetica,sans-Serif" font-size="10.00">_neutrino_rates</text>
</a>
</g>
</g>
<!-- Node2 -->
<g id="node2" class="node">
<title>Node2</title>
<g id="a_node2"><a xlink:href="namespacebenam__class.html#af8144ea43fb40187e32fb83da48458f1" target="_top" xlink:title="Returns the 1/n! factor where n is the number of equal isotopes entering a reaction....">
<polygon fill="white" stroke="black" points="130,-301 130,-320 271,-320 271,-301 130,-301"/>
<text text-anchor="middle" x="200.5" y="-308" font-family="Helvetica,sans-Serif" font-size="10.00">benam_class::getcoefficients</text>
</a>
</g>
</g>
<!-- Node1&#45;&gt;Node2 -->
<g id="edge1" class="edge">
<title>Node1&#45;&gt;Node2</title>
<path fill="none" stroke="midnightblue" d="M53.87,-180.86C65.24,-206.42 91.38,-257.72 129,-286.5 134.52,-290.72 140.83,-294.23 147.35,-297.14"/>
<polygon fill="midnightblue" stroke="midnightblue" points="146.41,-300.53 157,-300.98 149,-294.03 146.41,-300.53"/>
</g>
<!-- Node3 -->
<g id="node3" class="node">
<title>Node3</title>
<g id="a_node3"><a xlink:href="namespacemergesort__module.html#afdba6e49a853cbc2b93f08758ab87cf6" target="_top" xlink:title="Merges two tables of neutrino rates (of type global_class::nurate_type).">
<polygon fill="white" stroke="black" points="458,-260 458,-279 605,-279 605,-260 458,-260"/>
<text text-anchor="middle" x="531.5" y="-267" font-family="Helvetica,sans-Serif" font-size="10.00">mergesort_module::nurate_ms</text>
</a>
</g>
</g>
<!-- Node1&#45;&gt;Node3 -->
<g id="edge2" class="edge">
<title>Node1&#45;&gt;Node3</title>
<path fill="none" stroke="midnightblue" d="M59.79,-180.63C74.34,-197.34 100.27,-223.45 129,-235.5 232.42,-278.87 363.76,-281.25 447.5,-276.98"/>
<polygon fill="midnightblue" stroke="midnightblue" points="447.93,-280.46 457.72,-276.41 447.55,-273.47 447.93,-280.46"/>
</g>
<!-- Node6 -->
<g id="node6" class="node">
<title>Node6</title>
<g id="a_node6"><a xlink:href="namespacefile__handling__class.html#aab870caaf9cbaaf635d537708efbf793" target="_top" xlink:title="Same for reading (input file)">
<polygon fill="white" stroke="black" points="316,-202.5 316,-232.5 414,-232.5 414,-202.5 316,-202.5"/>
<text text-anchor="start" x="324" y="-220.5" font-family="Helvetica,sans-Serif" font-size="10.00">file_handling_class</text>
<text text-anchor="middle" x="365" y="-209.5" font-family="Helvetica,sans-Serif" font-size="10.00">::open_infile</text>
</a>
</g>
</g>
<!-- Node1&#45;&gt;Node6 -->
<g id="edge5" class="edge">
<title>Node1&#45;&gt;Node6</title>
<path fill="none" stroke="midnightblue" d="M65.54,-180.59C81.2,-192.65 105.07,-208.63 129,-215.5 187.4,-232.25 257.37,-230.19 305.69,-225.54"/>
<polygon fill="midnightblue" stroke="midnightblue" points="306.07,-229.02 315.66,-224.51 305.36,-222.06 306.07,-229.02"/>
</g>
<!-- Node8 -->
<g id="node8" class="node">
<title>Node8</title>
<g id="a_node8"><a xlink:href="namespacenuflux__class.html#a0e6d31694c86416d2766c5decc2422e1" target="_top" xlink:title="Read the channels from a file in the format of Sieverding et al 2018.">
<polygon fill="white" stroke="black" points="154,-175.5 154,-205.5 247,-205.5 247,-175.5 154,-175.5"/>
<text text-anchor="start" x="162" y="-193.5" font-family="Helvetica,sans-Serif" font-size="10.00">nuflux_class::read</text>
<text text-anchor="middle" x="200.5" y="-182.5" font-family="Helvetica,sans-Serif" font-size="10.00">_channels</text>
</a>
</g>
</g>
<!-- Node1&#45;&gt;Node8 -->
<g id="edge9" class="edge">
<title>Node1&#45;&gt;Node8</title>
<path fill="none" stroke="midnightblue" d="M93.11,-173C109.04,-175.62 127.1,-178.59 143.76,-181.33"/>
<polygon fill="midnightblue" stroke="midnightblue" points="143.49,-184.84 153.93,-183 144.63,-177.93 143.49,-184.84"/>
</g>
<!-- Node9 -->
<g id="node9" class="node">
<title>Node9</title>
<g id="a_node9"><a xlink:href="namespacenuflux__class.html#a46583d0423ea4dfb7d4aa832f9070117" target="_top" xlink:title="Read the reactions from a file in the format of Sieverding et al 2018.">
<polygon fill="white" stroke="black" points="145,-126.5 145,-156.5 256,-156.5 256,-126.5 145,-126.5"/>
<text text-anchor="start" x="153" y="-144.5" font-family="Helvetica,sans-Serif" font-size="10.00">nuflux_class::read</text>
<text text-anchor="middle" x="200.5" y="-133.5" font-family="Helvetica,sans-Serif" font-size="10.00">_reactions_sieverding</text>
</a>
</g>
</g>
<!-- Node1&#45;&gt;Node9 -->
<g id="edge11" class="edge">
<title>Node1&#45;&gt;Node9</title>
<path fill="none" stroke="midnightblue" d="M93.11,-158.3C106.19,-156.23 120.72,-153.94 134.73,-151.73"/>
<polygon fill="midnightblue" stroke="midnightblue" points="135.48,-155.15 144.81,-150.14 134.39,-148.24 135.48,-155.15"/>
</g>
<!-- Node11 -->
<g id="node11" class="node">
<title>Node11</title>
<g id="a_node11"><a xlink:href="namespacenuflux__class.html#a36ed0c2924e75dea4015e928ee424303" target="_top" xlink:title="Reads neutrino&#45;nuclei reaction file.">
<polygon fill="white" stroke="black" points="143.5,-88 143.5,-107 257.5,-107 257.5,-88 143.5,-88"/>
<text text-anchor="middle" x="200.5" y="-95" font-family="Helvetica,sans-Serif" font-size="10.00">nuflux_class::readnucs</text>
</a>
</g>
</g>
<!-- Node1&#45;&gt;Node11 -->
<g id="edge14" class="edge">
<title>Node1&#45;&gt;Node11</title>
<path fill="none" stroke="midnightblue" d="M68.76,-150.46C84.71,-139.75 107.43,-125.68 129,-116.5 134.53,-114.15 140.43,-112.01 146.37,-110.1"/>
<polygon fill="midnightblue" stroke="midnightblue" points="147.79,-113.33 156.35,-107.09 145.77,-106.63 147.79,-113.33"/>
</g>
<!-- Node16 -->
<g id="node16" class="node">
<title>Node16</title>
<g id="a_node16"><a xlink:href="namespacemergesort__module.html#a350624bb77af754147cd68332b16b9e5" target="_top" xlink:title="Sorts chapter one of the rate array.">
<polygon fill="white" stroke="black" points="129,-50 129,-69 272,-69 272,-50 129,-50"/>
<text text-anchor="middle" x="200.5" y="-57" font-family="Helvetica,sans-Serif" font-size="10.00">mergesort_module::rrate_sort</text>
</a>
</g>
</g>
<!-- Node1&#45;&gt;Node16 -->
<g id="edge21" class="edge">
<title>Node1&#45;&gt;Node16</title>
<path fill="none" stroke="midnightblue" d="M57.49,-150.48C71.26,-130.95 97.95,-97.14 129,-78.5 132.61,-76.33 136.46,-74.41 140.44,-72.7"/>
<polygon fill="midnightblue" stroke="midnightblue" points="141.8,-75.93 149.9,-69.1 139.31,-69.39 141.8,-75.93"/>
</g>
<!-- Node17 -->
<g id="node17" class="node">
<title>Node17</title>
<g id="a_node17"><a xlink:href="namespacenuflux__class.html#a7913cb5d1c5cdb8217a26ed63f2d9166" target="_top" xlink:title="Set the type of a neutrino reaction.">
<polygon fill="white" stroke="black" points="139.5,-12 139.5,-31 261.5,-31 261.5,-12 139.5,-12"/>
<text text-anchor="middle" x="200.5" y="-19" font-family="Helvetica,sans-Serif" font-size="10.00">nuflux_class::set_nutype</text>
</a>
</g>
</g>
<!-- Node1&#45;&gt;Node17 -->
<g id="edge22" class="edge">
<title>Node1&#45;&gt;Node17</title>
<path fill="none" stroke="midnightblue" d="M53.18,-150.21C63.84,-123.69 89.38,-69.27 129,-40.5 131.67,-38.56 134.52,-36.82 137.49,-35.26"/>
<polygon fill="midnightblue" stroke="midnightblue" points="139.04,-38.4 146.71,-31.09 136.15,-32.03 139.04,-38.4"/>
</g>
<!-- Node4 -->
<g id="node4" class="node">
<title>Node4</title>
<g id="a_node4"><a xlink:href="namespaceerror__msg__class.html#a2453d3b7cb363115c046840baa1dfb75" target="_top" xlink:title="Raise a exception with a given error message.">
<polygon fill="white" stroke="black" points="641,-191.5 641,-221.5 755,-221.5 755,-191.5 641,-191.5"/>
<text text-anchor="start" x="649" y="-209.5" font-family="Helvetica,sans-Serif" font-size="10.00">error_msg_class::raise</text>
<text text-anchor="middle" x="698" y="-198.5" font-family="Helvetica,sans-Serif" font-size="10.00">_exception</text>
</a>
</g>
</g>
<!-- Node3&#45;&gt;Node4 -->
<g id="edge3" class="edge">
<title>Node3&#45;&gt;Node4</title>
<path fill="none" stroke="midnightblue" d="M558.38,-259.98C572.23,-254.86 589.57,-248.39 605,-242.5 619.45,-236.98 635.14,-230.88 649.4,-225.3"/>
<polygon fill="midnightblue" stroke="midnightblue" points="650.98,-228.44 659.01,-221.53 648.42,-221.92 650.98,-228.44"/>
</g>
<!-- Node5 -->
<g id="node5" class="node">
<title>Node5</title>
<g id="a_node5"><a xlink:href="namespaceerror__msg__class.html#a7e065585cc806a5c264de1f088266498" target="_top" xlink:title="Converts a given integer to a string.">
<polygon fill="white" stroke="black" points="791,-144.5 791,-174.5 895,-174.5 895,-144.5 791,-144.5"/>
<text text-anchor="start" x="799" y="-162.5" font-family="Helvetica,sans-Serif" font-size="10.00">error_msg_class::int</text>
<text text-anchor="middle" x="843" y="-151.5" font-family="Helvetica,sans-Serif" font-size="10.00">_to_str</text>
</a>
</g>
</g>
<!-- Node4&#45;&gt;Node5 -->
<g id="edge4" class="edge">
<title>Node4&#45;&gt;Node5</title>
<path fill="none" stroke="midnightblue" d="M744.64,-191.5C757.93,-187.13 772.59,-182.31 786.42,-177.77"/>
<polygon fill="midnightblue" stroke="midnightblue" points="787.9,-180.97 796.3,-174.52 785.71,-174.32 787.9,-180.97"/>
</g>
<!-- Node6&#45;&gt;Node4 -->
<g id="edge8" class="edge">
<title>Node6&#45;&gt;Node4</title>
<path fill="none" stroke="midnightblue" d="M414.13,-215.9C471.23,-214 566.74,-210.83 630.78,-208.7"/>
<polygon fill="midnightblue" stroke="midnightblue" points="630.9,-212.2 640.78,-208.37 630.67,-205.2 630.9,-212.2"/>
</g>
<!-- Node7 -->
<g id="node7" class="node">
<title>Node7</title>
<g id="a_node7"><a xlink:href="namespacefile__handling__class.html#af02196bd5eaf70ecd5ab4cc650094d5e" target="_top" xlink:title="Finds the next unused unit number.">
<polygon fill="white" stroke="black" points="482.5,-169.5 482.5,-199.5 580.5,-199.5 580.5,-169.5 482.5,-169.5"/>
<text text-anchor="start" x="490.5" y="-187.5" font-family="Helvetica,sans-Serif" font-size="10.00">file_handling_class</text>
<text text-anchor="middle" x="531.5" y="-176.5" font-family="Helvetica,sans-Serif" font-size="10.00">::get_next_io_unit</text>
</a>
</g>
</g>
<!-- Node6&#45;&gt;Node7 -->
<g id="edge6" class="edge">
<title>Node6&#45;&gt;Node7</title>
<path fill="none" stroke="midnightblue" d="M414.02,-207.87C432.35,-204.19 453.45,-199.96 472.6,-196.11"/>
<polygon fill="midnightblue" stroke="midnightblue" points="473.3,-199.54 482.42,-194.15 471.92,-192.68 473.3,-199.54"/>
</g>
<!-- Node7&#45;&gt;Node4 -->
<g id="edge7" class="edge">
<title>Node7&#45;&gt;Node4</title>
<path fill="none" stroke="midnightblue" d="M580.52,-190.92C596.15,-193.01 613.79,-195.37 630.52,-197.61"/>
<polygon fill="midnightblue" stroke="midnightblue" points="630.41,-201.13 640.79,-198.98 631.34,-194.19 630.41,-201.13"/>
</g>
<!-- Node8&#45;&gt;Node6 -->
<g id="edge10" class="edge">
<title>Node8&#45;&gt;Node6</title>
<path fill="none" stroke="midnightblue" d="M247.2,-198.09C265.42,-201.12 286.62,-204.64 305.92,-207.85"/>
<polygon fill="midnightblue" stroke="midnightblue" points="305.37,-211.31 315.81,-209.49 306.52,-204.4 305.37,-211.31"/>
</g>
<!-- Node9&#45;&gt;Node6 -->
<g id="edge13" class="edge">
<title>Node9&#45;&gt;Node6</title>
<path fill="none" stroke="midnightblue" d="M249.69,-156.51C257.31,-159.47 264.98,-162.82 272,-166.5 289.48,-175.67 290.9,-182.65 308,-192.5 311.23,-194.36 314.63,-196.19 318.09,-197.94"/>
<polygon fill="midnightblue" stroke="midnightblue" points="316.79,-201.2 327.31,-202.43 319.85,-194.9 316.79,-201.2"/>
</g>
<!-- Node10 -->
<g id="node10" class="node">
<title>Node10</title>
<g id="a_node10"><a xlink:href="namespacebenam__class.html#ad2f566697809a5731e560509d2ca7062" target="_top" xlink:title="Finds an isotope index in the network table, given its A and Z. In case it was not found,...">
<polygon fill="white" stroke="black" points="313,-164 313,-183 417,-183 417,-164 313,-164"/>
<text text-anchor="middle" x="365" y="-171" font-family="Helvetica,sans-Serif" font-size="10.00">benam_class::findaz</text>
</a>
</g>
</g>
<!-- Node9&#45;&gt;Node10 -->
<g id="edge12" class="edge">
<title>Node9&#45;&gt;Node10</title>
<path fill="none" stroke="midnightblue" d="M256.06,-152.24C272.02,-155.39 289.52,-158.83 305.7,-162.02"/>
<polygon fill="midnightblue" stroke="midnightblue" points="305.09,-165.47 315.58,-163.97 306.45,-158.6 305.09,-165.47"/>
</g>
<!-- Node11&#45;&gt;Node5 -->
<g id="edge17" class="edge">
<title>Node11&#45;&gt;Node5</title>
<path fill="none" stroke="midnightblue" d="M249.33,-107.04C267.62,-110.43 288.72,-114.01 308,-116.5 478.38,-138.51 680.9,-151.14 780.47,-156.47"/>
<polygon fill="midnightblue" stroke="midnightblue" points="780.48,-159.98 790.65,-157.01 780.85,-152.99 780.48,-159.98"/>
</g>
<!-- Node12 -->
<g id="node12" class="node">
<title>Node12</title>
<g id="a_node12"><a xlink:href="namespacebenam__class.html#ad20c821347dd5f7c08dff59c98e69657" target="_top" xlink:title="Returns the index number of isotope &#39;name&#39;.">
<polygon fill="white" stroke="black" points="311,-88 311,-107 419,-107 419,-88 311,-88"/>
<text text-anchor="middle" x="365" y="-95" font-family="Helvetica,sans-Serif" font-size="10.00">benam_class::benam</text>
</a>
</g>
</g>
<!-- Node11&#45;&gt;Node12 -->
<g id="edge15" class="edge">
<title>Node11&#45;&gt;Node12</title>
<path fill="none" stroke="midnightblue" d="M257.88,-97.5C271.75,-97.5 286.68,-97.5 300.85,-97.5"/>
<polygon fill="midnightblue" stroke="midnightblue" points="301,-101 311,-97.5 301,-94 301,-101"/>
</g>
<!-- Node13 -->
<g id="node13" class="node">
<title>Node13</title>
<g id="a_node13"><a xlink:href="namespacebenam__class.html#aef0b2a649260779b20729f29b8ec4a67" target="_top" xlink:title="Identifies the nuclide names and indices corresponding to z,n combinations (z1,n1),...">
<polygon fill="white" stroke="black" points="315,-50 315,-69 415,-69 415,-50 315,-50"/>
<text text-anchor="middle" x="365" y="-57" font-family="Helvetica,sans-Serif" font-size="10.00">benam_class::ident</text>
</a>
</g>
</g>
<!-- Node11&#45;&gt;Node13 -->
<g id="edge16" class="edge">
<title>Node11&#45;&gt;Node13</title>
<path fill="none" stroke="midnightblue" d="M242.51,-87.91C264.05,-82.87 290.63,-76.66 313.44,-71.32"/>
<polygon fill="midnightblue" stroke="midnightblue" points="314.35,-74.71 323.29,-69.02 312.75,-67.89 314.35,-74.71"/>
</g>
<!-- Node14 -->
<g id="node14" class="node">
<title>Node14</title>
<g id="a_node14"><a xlink:href="namespaceerror__msg__class.html#a339dd5b38c125b6a04653762c94a91f2" target="_top" xlink:title="Write data to the standard output (usually OUT)">
<polygon fill="white" stroke="black" points="308,-0.5 308,-30.5 422,-30.5 422,-0.5 308,-0.5"/>
<text text-anchor="start" x="316" y="-18.5" font-family="Helvetica,sans-Serif" font-size="10.00">error_msg_class::write</text>
<text text-anchor="middle" x="365" y="-7.5" font-family="Helvetica,sans-Serif" font-size="10.00">_data_to_std_out</text>
</a>
</g>
</g>
<!-- Node11&#45;&gt;Node14 -->
<g id="edge18" class="edge">
<title>Node11&#45;&gt;Node14</title>
<path fill="none" stroke="midnightblue" d="M250.71,-87.99C258.13,-85.51 265.47,-82.4 272,-78.5 291.98,-66.58 289.01,-53.94 308,-40.5 310.53,-38.71 313.2,-37.01 315.95,-35.39"/>
<polygon fill="midnightblue" stroke="midnightblue" points="317.82,-38.36 324.95,-30.53 314.49,-32.2 317.82,-38.36"/>
</g>
<!-- Node15 -->
<g id="node15" class="node">
<title>Node15</title>
<g id="a_node15"><a xlink:href="namespaceerror__msg__class.html#af62b9a0c5997255e792b9ebd7322a6a3" target="_top" xlink:title="Write the header of the standard output (usually OUT)">
<polygon fill="white" stroke="black" points="474.5,-0.5 474.5,-30.5 588.5,-30.5 588.5,-0.5 474.5,-0.5"/>
<text text-anchor="start" x="482.5" y="-18.5" font-family="Helvetica,sans-Serif" font-size="10.00">error_msg_class::write</text>
<text text-anchor="middle" x="531.5" y="-7.5" font-family="Helvetica,sans-Serif" font-size="10.00">_header</text>
</a>
</g>
</g>
<!-- Node14&#45;&gt;Node15 -->
<g id="edge19" class="edge">
<title>Node14&#45;&gt;Node15</title>
<path fill="none" stroke="midnightblue" d="M422.15,-9.06C435.71,-8.73 450.32,-8.66 464.29,-8.87"/>
<polygon fill="midnightblue" stroke="midnightblue" points="464.26,-12.37 474.32,-9.06 464.39,-5.37 464.26,-12.37"/>
</g>
<!-- Node15&#45;&gt;Node14 -->
<g id="edge20" class="edge">
<title>Node15&#45;&gt;Node14</title>
<path fill="none" stroke="midnightblue" d="M474.32,-21.94C460.76,-22.27 446.15,-22.34 432.18,-22.13"/>
<polygon fill="midnightblue" stroke="midnightblue" points="432.22,-18.63 422.15,-21.94 432.08,-25.63 432.22,-18.63"/>
</g>
</g>
</svg>
        <g id="navigator" transform="translate(0 0)" fill="#404254">
                <rect fill="#f2f5e9" fill-opacity="0.5" stroke="#606060" stroke-width=".5" x="0" y="0" width="60" height="60"/>
                <use id="zoomplus" xlink:href="#zoomPlus" x="17" y="9" onmousedown="handleZoom(evt,'in')"/>
                <use id="zoomminus" xlink:href="#zoomMin" x="42" y="9" onmousedown="handleZoom(evt,'out')"/>
                <use id="reset" xlink:href="#resetDef" x="30" y="36" onmousedown="handleReset()"/>
                <g id="arrowUp" xlink:href="#dirArrow" transform="translate(30 24)" onmousedown="handlePan(0,-1)">
                  <use xlink:href="#rim" fill="#404040">
                        <set attributeName="fill" to="#808080" begin="arrowUp.mouseover" end="arrowUp.mouseout"/>
                  </use>
                  <path fill="none" stroke="white" stroke-width="1.5" d="M0,-3.0v7 M-2.5,-0.5L0,-3.0L2.5,-0.5"/>
                </g>
                <g id="arrowRight" xlink:href="#dirArrow" transform="rotate(90) translate(36 -43)" onmousedown="handlePan(1,0)">
                  <use xlink:href="#rim" fill="#404040">
                        <set attributeName="fill" to="#808080" begin="arrowRight.mouseover" end="arrowRight.mouseout"/>
                  </use>
                  <path fill="none" stroke="white" stroke-width="1.5" d="M0,-3.0v7 M-2.5,-0.5L0,-3.0L2.5,-0.5"/>
                </g>
                <g id="arrowDown" xlink:href="#dirArrow" transform="rotate(180) translate(-30 -48)" onmousedown="handlePan(0,1)">
                  <use xlink:href="#rim" fill="#404040">
                        <set attributeName="fill" to="#808080" begin="arrowDown.mouseover" end="arrowDown.mouseout"/>
                  </use>
                  <path fill="none" stroke="white" stroke-width="1.5" d="M0,-3.0v7 M-2.5,-0.5L0,-3.0L2.5,-0.5"/>
                </g>
                <g id="arrowLeft" xlink:href="#dirArrow" transform="rotate(270) translate(-36 17)" onmousedown="handlePan(-1,0)">
                  <use xlink:href="#rim" fill="#404040">
                        <set attributeName="fill" to="#808080" begin="arrowLeft.mouseover" end="arrowLeft.mouseout"/>
                  </use>
                  <path fill="none" stroke="white" stroke-width="1.5" d="M0,-3.0v7 M-2.5,-0.5L0,-3.0L2.5,-0.5"/>
                </g>
        </g>
        <svg viewBox="0 0 15 15" width="100%" height="30px" preserveAspectRatio="xMaxYMin meet">
         <g id="arrow_out" transform="scale(0.3 0.3)">
          <a xlink:href="namespacenuflux__class_aabfb6442d6a36a5e1613aa0c91bfc777_cgraph_org.svg" target="_base">
           <rect id="button" ry="5" rx="5" y="6" x="6" height="38" width="38"
                fill="#f2f5e9" fill-opacity="0.5" stroke="#606060" stroke-width="1.0"/>
           <path id="arrow"
             d="M 11.500037,31.436501 C 11.940474,20.09759 22.043105,11.32322 32.158766,21.979434 L 37.068811,17.246167 C 37.068811,17.246167 37.088388,32 37.088388,32 L 22.160133,31.978069 C 22.160133,31.978069 26.997745,27.140456 26.997745,27.140456 C 18.528582,18.264221 13.291696,25.230495 11.500037,31.436501 z"
             style="fill:#404040;"/>
          </a>
         </g>
        </svg>
</svg>
