<?xml version="1.0" encoding="UTF-8" standalone="no"?>
<!DOCTYPE svg PUBLIC "-//W3C//DTD SVG 1.1//EN"
 "http://www.w3.org/Graphics/SVG/1.1/DTD/svg11.dtd">
<!-- Generated by graphviz version 2.44.0 ()
 -->
<!-- Title: winnse_module::winnse_calc_hybrid_powell Pages: 1 -->
<svg width="560pt" height="256pt"
 viewBox="0.00 0.00 560.00 256.00" xmlns="http://www.w3.org/2000/svg" xmlns:xlink="http://www.w3.org/1999/xlink">
<g id="graph0" class="graph" transform="scale(1 1) rotate(0) translate(4 252)">
<title>winnse_module::winnse_calc_hybrid_powell</title>
<polygon fill="white" stroke="transparent" points="-4,4 -4,-252 556,-252 556,4 -4,4"/>
<!-- Node1 -->
<g id="node1" class="node">
<title>Node1</title>
<g id="a_node1"><a xlink:title="Solves the nse&#45;equations using the Powell hybrid method.">
<polygon fill="#bfbfbf" stroke="black" points="0,-90 0,-120 119,-120 119,-90 0,-90"/>
<text text-anchor="start" x="8" y="-108" font-family="Helvetica,sans-Serif" font-size="10.00">winnse_module::winnse</text>
<text text-anchor="middle" x="59.5" y="-97" font-family="Helvetica,sans-Serif" font-size="10.00">_calc_hybrid_powell</text>
</a>
</g>
</g>
<!-- Node2 -->
<g id="node2" class="node">
<title>Node2</title>
<g id="a_node2"><a xlink:href="fsolve_8f90.html#ad671f9a8a86626f13d0db91642c1ac9e" target="_top" xlink:title=" ">
<polygon fill="white" stroke="black" points="212,-114.5 212,-133.5 255,-133.5 255,-114.5 212,-114.5"/>
<text text-anchor="middle" x="233.5" y="-121.5" font-family="Helvetica,sans-Serif" font-size="10.00">fsolve</text>
</a>
</g>
</g>
<!-- Node1&#45;&gt;Node2 -->
<g id="edge1" class="edge">
<title>Node1&#45;&gt;Node2</title>
<path fill="none" stroke="midnightblue" d="M119.21,-111.49C146.94,-114.55 178.88,-118.08 201.77,-120.61"/>
<polygon fill="midnightblue" stroke="midnightblue" points="201.58,-124.11 211.91,-121.73 202.35,-117.15 201.58,-124.11"/>
</g>
<!-- Node11 -->
<g id="node11" class="node">
<title>Node11</title>
<g id="a_node11"><a xlink:href="winnse__module_8f90.html#a76b0f9d4a7d2b6b5cfe01d69af969c0d" target="_top" xlink:title="Determines the mass and charge conservation for the NSE calculation.">
<polygon fill="white" stroke="black" points="155,-76.5 155,-95.5 312,-95.5 312,-76.5 155,-76.5"/>
<text text-anchor="middle" x="233.5" y="-83.5" font-family="Helvetica,sans-Serif" font-size="10.00">mass_and_charge_conservation</text>
</a>
</g>
</g>
<!-- Node1&#45;&gt;Node11 -->
<g id="edge12" class="edge">
<title>Node1&#45;&gt;Node11</title>
<path fill="none" stroke="midnightblue" d="M119.21,-98.51C127.47,-97.6 136.09,-96.65 144.74,-95.69"/>
<polygon fill="midnightblue" stroke="midnightblue" points="145.34,-99.15 154.89,-94.57 144.57,-92.19 145.34,-99.15"/>
</g>
<!-- Node3 -->
<g id="node3" class="node">
<title>Node3</title>
<g id="a_node3"><a xlink:href="fsolve_8f90.html#a9d21cb00f8d0421a74dc05aebe71203a" target="_top" xlink:title=" ">
<polygon fill="white" stroke="black" points="348,-114.5 348,-133.5 388,-133.5 388,-114.5 348,-114.5"/>
<text text-anchor="middle" x="368" y="-121.5" font-family="Helvetica,sans-Serif" font-size="10.00">hybrd</text>
</a>
</g>
</g>
<!-- Node2&#45;&gt;Node3 -->
<g id="edge2" class="edge">
<title>Node2&#45;&gt;Node3</title>
<path fill="none" stroke="midnightblue" d="M255.2,-124C277.37,-124 312.71,-124 337.72,-124"/>
<polygon fill="midnightblue" stroke="midnightblue" points="337.73,-127.5 347.73,-124 337.73,-120.5 337.73,-127.5"/>
</g>
<!-- Node4 -->
<g id="node4" class="node">
<title>Node4</title>
<g id="a_node4"><a xlink:href="fsolve_8f90.html#ab5a1319962e4855e0a2b7a7431085275" target="_top" xlink:title=" ">
<polygon fill="white" stroke="black" points="425.5,-228.5 425.5,-247.5 470.5,-247.5 470.5,-228.5 425.5,-228.5"/>
<text text-anchor="middle" x="448" y="-235.5" font-family="Helvetica,sans-Serif" font-size="10.00">dogleg</text>
</a>
</g>
</g>
<!-- Node3&#45;&gt;Node4 -->
<g id="edge3" class="edge">
<title>Node3&#45;&gt;Node4</title>
<path fill="none" stroke="midnightblue" d="M373.99,-133.63C382.97,-150.59 402.88,-186.58 424,-214 425.66,-216.16 427.5,-218.34 429.38,-220.46"/>
<polygon fill="midnightblue" stroke="midnightblue" points="427.23,-223.29 436.64,-228.16 432.33,-218.48 427.23,-223.29"/>
</g>
<!-- Node5 -->
<g id="node5" class="node">
<title>Node5</title>
<g id="a_node5"><a xlink:href="fsolve_8f90.html#a07a8827d47eead570957d377e64f7974" target="_top" xlink:title=" ">
<polygon fill="white" stroke="black" points="508,-190.5 508,-209.5 552,-209.5 552,-190.5 508,-190.5"/>
<text text-anchor="middle" x="530" y="-197.5" font-family="Helvetica,sans-Serif" font-size="10.00">enorm</text>
</a>
</g>
</g>
<!-- Node3&#45;&gt;Node5 -->
<g id="edge5" class="edge">
<title>Node3&#45;&gt;Node5</title>
<path fill="none" stroke="midnightblue" d="M375.5,-133.88C384.67,-146.92 402.66,-169.59 424,-181 446.74,-193.16 475.8,-197.72 497.58,-199.34"/>
<polygon fill="midnightblue" stroke="midnightblue" points="497.44,-202.84 507.63,-199.92 497.85,-195.85 497.44,-202.84"/>
</g>
<!-- Node6 -->
<g id="node6" class="node">
<title>Node6</title>
<g id="a_node6"><a xlink:href="fsolve_8f90.html#ab8444c326197a29a9f06bb863a1cee4a" target="_top" xlink:title=" ">
<polygon fill="white" stroke="black" points="426.5,-152.5 426.5,-171.5 469.5,-171.5 469.5,-152.5 426.5,-152.5"/>
<text text-anchor="middle" x="448" y="-159.5" font-family="Helvetica,sans-Serif" font-size="10.00">fdjac1</text>
</a>
</g>
</g>
<!-- Node3&#45;&gt;Node6 -->
<g id="edge6" class="edge">
<title>Node3&#45;&gt;Node6</title>
<path fill="none" stroke="midnightblue" d="M388.28,-133.39C397.31,-137.79 408.24,-143.12 418.22,-147.98"/>
<polygon fill="midnightblue" stroke="midnightblue" points="416.88,-151.22 427.4,-152.45 419.94,-144.92 416.88,-151.22"/>
</g>
<!-- Node7 -->
<g id="node7" class="node">
<title>Node7</title>
<g id="a_node7"><a xlink:href="fsolve_8f90.html#a12e8db1e181463d5c3af21f2b1b6b5a7" target="_top" xlink:title=" ">
<polygon fill="white" stroke="black" points="427.5,-114.5 427.5,-133.5 468.5,-133.5 468.5,-114.5 427.5,-114.5"/>
<text text-anchor="middle" x="448" y="-121.5" font-family="Helvetica,sans-Serif" font-size="10.00">qform</text>
</a>
</g>
</g>
<!-- Node3&#45;&gt;Node7 -->
<g id="edge7" class="edge">
<title>Node3&#45;&gt;Node7</title>
<path fill="none" stroke="midnightblue" d="M388.28,-124C397.03,-124 407.57,-124 417.29,-124"/>
<polygon fill="midnightblue" stroke="midnightblue" points="417.4,-127.5 427.4,-124 417.4,-120.5 417.4,-127.5"/>
</g>
<!-- Node8 -->
<g id="node8" class="node">
<title>Node8</title>
<g id="a_node8"><a xlink:href="fsolve_8f90.html#a64d35f73f2a85378c24dd7b99ddb0c0f" target="_top" xlink:title=" ">
<polygon fill="white" stroke="black" points="429,-76.5 429,-95.5 467,-95.5 467,-76.5 429,-76.5"/>
<text text-anchor="middle" x="448" y="-83.5" font-family="Helvetica,sans-Serif" font-size="10.00">qrfac</text>
</a>
</g>
</g>
<!-- Node3&#45;&gt;Node8 -->
<g id="edge8" class="edge">
<title>Node3&#45;&gt;Node8</title>
<path fill="none" stroke="midnightblue" d="M388.28,-114.61C397.74,-110 409.31,-104.36 419.67,-99.32"/>
<polygon fill="midnightblue" stroke="midnightblue" points="421.29,-102.42 428.74,-94.89 418.22,-96.13 421.29,-102.42"/>
</g>
<!-- Node9 -->
<g id="node9" class="node">
<title>Node9</title>
<g id="a_node9"><a xlink:href="fsolve_8f90.html#ab7f6e61d92cfd9ea516435ad523b989b" target="_top" xlink:title=" ">
<polygon fill="white" stroke="black" points="424,-38.5 424,-57.5 472,-57.5 472,-38.5 424,-38.5"/>
<text text-anchor="middle" x="448" y="-45.5" font-family="Helvetica,sans-Serif" font-size="10.00">r1mpyq</text>
</a>
</g>
</g>
<!-- Node3&#45;&gt;Node9 -->
<g id="edge10" class="edge">
<title>Node3&#45;&gt;Node9</title>
<path fill="none" stroke="midnightblue" d="M377.64,-114.4C388.22,-102.81 406.84,-82.88 424,-67 424.94,-66.13 425.91,-65.25 426.91,-64.37"/>
<polygon fill="midnightblue" stroke="midnightblue" points="429.27,-66.96 434.61,-57.81 424.72,-61.63 429.27,-66.96"/>
</g>
<!-- Node10 -->
<g id="node10" class="node">
<title>Node10</title>
<g id="a_node10"><a xlink:href="fsolve_8f90.html#a8ff726029b3ff9037b390910744ee58b" target="_top" xlink:title=" ">
<polygon fill="white" stroke="black" points="426,-0.5 426,-19.5 470,-19.5 470,-0.5 426,-0.5"/>
<text text-anchor="middle" x="448" y="-7.5" font-family="Helvetica,sans-Serif" font-size="10.00">r1updt</text>
</a>
</g>
</g>
<!-- Node3&#45;&gt;Node10 -->
<g id="edge11" class="edge">
<title>Node3&#45;&gt;Node10</title>
<path fill="none" stroke="midnightblue" d="M373.16,-114.39C381.24,-96.4 400.36,-56.93 424,-29 424.7,-28.17 425.45,-27.35 426.22,-26.54"/>
<polygon fill="midnightblue" stroke="midnightblue" points="428.64,-29.06 433.61,-19.71 423.89,-23.92 428.64,-29.06"/>
</g>
<!-- Node4&#45;&gt;Node5 -->
<g id="edge4" class="edge">
<title>Node4&#45;&gt;Node5</title>
<path fill="none" stroke="midnightblue" d="M469.19,-228.41C478.38,-224.05 489.43,-218.79 499.53,-214"/>
<polygon fill="midnightblue" stroke="midnightblue" points="501.29,-217.04 508.82,-209.59 498.28,-210.72 501.29,-217.04"/>
</g>
<!-- Node8&#45;&gt;Node5 -->
<g id="edge9" class="edge">
<title>Node8&#45;&gt;Node5</title>
<path fill="none" stroke="midnightblue" d="M462.35,-95.74C465.71,-98.52 469.16,-101.7 472,-105 492.6,-128.95 510.23,-161.27 520.22,-181.37"/>
<polygon fill="midnightblue" stroke="midnightblue" points="517.09,-182.94 524.61,-190.41 523.39,-179.88 517.09,-182.94"/>
</g>
</g>
</svg>
