<?xml version="1.0" encoding="UTF-8" standalone="no"?>
<!DOCTYPE svg PUBLIC "-//W3C//DTD SVG 1.1//EN"
 "http://www.w3.org/Graphics/SVG/1.1/DTD/svg11.dtd">
<!-- Generated by graphviz version 2.44.0 ()
 -->
<!-- Title: winnse_module::winnse_descend Pages: 1 -->
<!--zoomable 439 -->
<svg id="main" version="1.1" xmlns="http://www.w3.org/2000/svg" xmlns:xlink="http://www.w3.org/1999/xlink" xml:space="preserve" onload="init(evt)">
<style type="text/css"><![CDATA[
.edge:hover path { stroke: red; }
.edge:hover polygon { stroke: red; fill: red; }
]]></style>
<script type="text/javascript"><![CDATA[
var edges = document.getElementsByTagName('g');
if (edges && edges.length) {
  for (var i=0;i<edges.length;i++) {
    if (edges[i].id.substr(0,4)=='edge') {
      edges[i].setAttribute('class','edge');
    }
  }
}
]]></script>
        <defs>
                <circle id="rim" cx="0" cy="0" r="7"/>
                <circle id="rim2" cx="0" cy="0" r="3.5"/>
                <g id="zoomPlus">
                        <use xlink:href="#rim" fill="#404040">
                                <set attributeName="fill" to="#808080" begin="zoomplus.mouseover" end="zoomplus.mouseout"/>
                        </use>
                        <path d="M-4,0h8M0,-4v8" fill="none" stroke="white" stroke-width="1.5" pointer-events="none"/>
                </g>
                <g id="zoomMin">
                        <use xlink:href="#rim" fill="#404040">
                                <set attributeName="fill" to="#808080" begin="zoomminus.mouseover" end="zoomminus.mouseout"/>
                        </use>
                        <path d="M-4,0h8" fill="none" stroke="white" stroke-width="1.5" pointer-events="none"/>
                </g>
                <g id="dirArrow">
                        <path fill="none" stroke="white" stroke-width="1.5" d="M0,-3.0v7 M-2.5,-0.5L0,-3.0L2.5,-0.5"/>
                </g>
               <g id="resetDef">
                       <use xlink:href="#rim2" fill="#404040">
                               <set attributeName="fill" to="#808080" begin="reset.mouseover" end="reset.mouseout"/>
                       </use>
               </g>
        </defs>

<script type="text/javascript">
var viewWidth = 958;
var viewHeight = 439;
var sectionId = 'dynsection-4';
</script>
<script xlink:href="svgpan.js"/>
<svg id="graph" class="graph">
<g id="viewport">
<title>winnse_module::winnse_descend</title>
<polygon fill="white" stroke="transparent" points="-4,4 -4,-434.55 954,-434.55 954,4 -4,4"/>
<!-- Node1 -->
<g id="node1" class="node">
<title>Node1</title>
<g id="a_node1"><a xlink:title="This routine descends from an initially high temperature, at which the NSE abudances can be accuratel...">
<polygon fill="#bfbfbf" stroke="black" points="0,-377 0,-407 119,-407 119,-377 0,-377"/>
<text text-anchor="start" x="8" y="-395" font-family="Helvetica,sans-Serif" font-size="10.00">winnse_module::winnse</text>
<text text-anchor="middle" x="59.5" y="-384" font-family="Helvetica,sans-Serif" font-size="10.00">_descend</text>
</a>
</g>
</g>
<!-- Node2 -->
<g id="node2" class="node">
<title>Node2</title>
<g id="a_node2"><a xlink:href="namespaceerror__msg__class.html#a7e065585cc806a5c264de1f088266498" target="_top" xlink:title="Converts a given integer to a string.">
<polygon fill="white" stroke="black" points="682,-388 682,-418 786,-418 786,-388 682,-388"/>
<text text-anchor="start" x="690" y="-406" font-family="Helvetica,sans-Serif" font-size="10.00">error_msg_class::int</text>
<text text-anchor="middle" x="734" y="-395" font-family="Helvetica,sans-Serif" font-size="10.00">_to_str</text>
</a>
</g>
</g>
<!-- Node1&#45;&gt;Node2 -->
<g id="edge1" class="edge">
<title>Node1&#45;&gt;Node2</title>
<path fill="none" stroke="midnightblue" d="M119.19,-398.66C131.03,-399.88 143.41,-401.06 155,-402 372.67,-419.7 428.75,-443.24 646,-421 654.38,-420.14 663.15,-418.83 671.75,-417.3"/>
<polygon fill="midnightblue" stroke="midnightblue" points="672.57,-420.71 681.75,-415.41 671.27,-413.83 672.57,-420.71"/>
</g>
<!-- Node3 -->
<g id="node3" class="node">
<title>Node3</title>
<g id="a_node3"><a xlink:href="namespaceerror__msg__class.html#a5bc9f3b670b725cc43276934b867d801" target="_top" xlink:title="Converts a given real to a string with format &quot;(1pE10.2)&quot;.">
<polygon fill="white" stroke="black" points="511.5,-191 511.5,-221 623.5,-221 623.5,-191 511.5,-191"/>
<text text-anchor="start" x="519.5" y="-209" font-family="Helvetica,sans-Serif" font-size="10.00">error_msg_class::num</text>
<text text-anchor="middle" x="567.5" y="-198" font-family="Helvetica,sans-Serif" font-size="10.00">_to_str</text>
</a>
</g>
</g>
<!-- Node1&#45;&gt;Node3 -->
<g id="edge2" class="edge">
<title>Node1&#45;&gt;Node3</title>
<path fill="none" stroke="midnightblue" d="M76.49,-376.7C94.46,-360.11 125.07,-333.63 155,-316 229.03,-272.4 251.25,-266.13 334,-243 389.38,-227.52 454.1,-217.88 501.18,-212.34"/>
<polygon fill="midnightblue" stroke="midnightblue" points="501.71,-215.8 511.24,-211.18 500.91,-208.85 501.71,-215.8"/>
</g>
<!-- Node4 -->
<g id="node4" class="node">
<title>Node4</title>
<g id="a_node4"><a xlink:href="namespaceerror__msg__class.html#a2453d3b7cb363115c046840baa1dfb75" target="_top" xlink:title="Raise a exception with a given error message.">
<polygon fill="white" stroke="black" points="510.5,-366 510.5,-396 624.5,-396 624.5,-366 510.5,-366"/>
<text text-anchor="start" x="518.5" y="-384" font-family="Helvetica,sans-Serif" font-size="10.00">error_msg_class::raise</text>
<text text-anchor="middle" x="567.5" y="-373" font-family="Helvetica,sans-Serif" font-size="10.00">_exception</text>
</a>
</g>
</g>
<!-- Node1&#45;&gt;Node4 -->
<g id="edge3" class="edge">
<title>Node1&#45;&gt;Node4</title>
<path fill="none" stroke="midnightblue" d="M119.04,-390.73C213.89,-388.67 400.56,-384.61 500.18,-382.44"/>
<polygon fill="midnightblue" stroke="midnightblue" points="500.5,-385.94 510.42,-382.22 500.34,-378.94 500.5,-385.94"/>
</g>
<!-- Node5 -->
<g id="node5" class="node">
<title>Node5</title>
<g id="a_node5"><a xlink:href="namespacewinnse__module.html#a4bf79382f9c6599e04b48bf08e193270" target="_top" xlink:title="Solves the nse&#45;equations.">
<polygon fill="white" stroke="black" points="155,-325.5 155,-344.5 298,-344.5 298,-325.5 155,-325.5"/>
<text text-anchor="middle" x="226.5" y="-332.5" font-family="Helvetica,sans-Serif" font-size="10.00">winnse_module::winnse_calc</text>
</a>
</g>
</g>
<!-- Node1&#45;&gt;Node5 -->
<g id="edge5" class="edge">
<title>Node1&#45;&gt;Node5</title>
<path fill="none" stroke="midnightblue" d="M104.28,-376.87C130.41,-367.85 163.24,-356.51 188.14,-347.91"/>
<polygon fill="midnightblue" stroke="midnightblue" points="189.3,-351.21 197.6,-344.64 187.01,-344.59 189.3,-351.21"/>
</g>
<!-- Node4&#45;&gt;Node2 -->
<g id="edge4" class="edge">
<title>Node4&#45;&gt;Node2</title>
<path fill="none" stroke="midnightblue" d="M624.65,-388.51C639.85,-390.54 656.36,-392.75 671.82,-394.82"/>
<polygon fill="midnightblue" stroke="midnightblue" points="671.42,-398.3 681.8,-396.15 672.35,-391.36 671.42,-398.3"/>
</g>
<!-- Node5&#45;&gt;Node2 -->
<g id="edge6" class="edge">
<title>Node5&#45;&gt;Node2</title>
<path fill="none" stroke="midnightblue" d="M253.52,-344.64C274.94,-352.37 306.19,-363.18 334,-371 401.99,-390.11 418.81,-398.17 489,-406 558.35,-413.73 576.23,-407.2 646,-406 654.36,-405.86 663.18,-405.63 671.85,-405.37"/>
<polygon fill="midnightblue" stroke="midnightblue" points="672.06,-408.87 681.94,-405.05 671.84,-401.87 672.06,-408.87"/>
</g>
<!-- Node5&#45;&gt;Node4 -->
<g id="edge8" class="edge">
<title>Node5&#45;&gt;Node4</title>
<path fill="none" stroke="midnightblue" d="M297.74,-344.53C357.2,-352.6 441.82,-364.08 500.15,-372"/>
<polygon fill="midnightblue" stroke="midnightblue" points="499.98,-375.51 510.36,-373.38 500.92,-368.57 499.98,-375.51"/>
</g>
<!-- Node6 -->
<g id="node6" class="node">
<title>Node6</title>
<g id="a_node6"><a xlink:href="namespacewinnse__module.html#ab51d55fb32259605b02d665c4bfb979b" target="_top" xlink:title="Calls screening subroutine and adds subsequent proton capture screening corrections in scrn(1:zmax).">
<polygon fill="white" stroke="black" points="515.5,-317 515.5,-347 619.5,-347 619.5,-317 515.5,-317"/>
<text text-anchor="start" x="523.5" y="-335" font-family="Helvetica,sans-Serif" font-size="10.00">winnse_module::nse</text>
<text text-anchor="middle" x="567.5" y="-324" font-family="Helvetica,sans-Serif" font-size="10.00">_screen</text>
</a>
</g>
</g>
<!-- Node5&#45;&gt;Node6 -->
<g id="edge7" class="edge">
<title>Node5&#45;&gt;Node6</title>
<path fill="none" stroke="midnightblue" d="M298.15,-334.37C359.29,-333.83 446.81,-333.06 505.08,-332.54"/>
<polygon fill="midnightblue" stroke="midnightblue" points="505.28,-336.04 515.25,-332.45 505.22,-329.04 505.28,-336.04"/>
</g>
<!-- Node7 -->
<g id="node7" class="node">
<title>Node7</title>
<g id="a_node7"><a xlink:href="namespacewinnse__module.html#a7f059289a0c97c6be525337bfd649af9" target="_top" xlink:title="Calculates the nse coefficients C, as given in Hix,Thielemann &#39;99, Eq.25.">
<polygon fill="white" stroke="black" points="493.5,-240.5 493.5,-259.5 641.5,-259.5 641.5,-240.5 493.5,-240.5"/>
<text text-anchor="middle" x="567.5" y="-247.5" font-family="Helvetica,sans-Serif" font-size="10.00">winnse_module::wincnse_calc</text>
</a>
</g>
</g>
<!-- Node5&#45;&gt;Node7 -->
<g id="edge9" class="edge">
<title>Node5&#45;&gt;Node7</title>
<path fill="none" stroke="midnightblue" d="M238.35,-325.41C256.6,-309.93 295.28,-279.86 334,-267 381.85,-251.11 438.19,-246.66 483.42,-246.28"/>
<polygon fill="midnightblue" stroke="midnightblue" points="483.49,-249.78 493.49,-246.26 483.48,-242.78 483.49,-249.78"/>
</g>
<!-- Node9 -->
<g id="node9" class="node">
<title>Node9</title>
<g id="a_node9"><a xlink:href="namespacewinnse__module.html#a72eefa0ccd8f0859c0019d2d18fad155" target="_top" xlink:title="Solves the nse&#45;equations using the Powell hybrid method.">
<polygon fill="white" stroke="black" points="334,-147 334,-177 453,-177 453,-147 334,-147"/>
<text text-anchor="start" x="342" y="-165" font-family="Helvetica,sans-Serif" font-size="10.00">winnse_module::winnse</text>
<text text-anchor="middle" x="393.5" y="-154" font-family="Helvetica,sans-Serif" font-size="10.00">_calc_hybrid_powell</text>
</a>
</g>
</g>
<!-- Node5&#45;&gt;Node9 -->
<g id="edge11" class="edge">
<title>Node5&#45;&gt;Node9</title>
<path fill="none" stroke="midnightblue" d="M236.61,-325.45C262.02,-298.8 334.27,-223.06 370.79,-184.76"/>
<polygon fill="midnightblue" stroke="midnightblue" points="373.64,-186.84 378.01,-177.19 368.58,-182.01 373.64,-186.84"/>
</g>
<!-- Node20 -->
<g id="node20" class="node">
<title>Node20</title>
<g id="a_node20"><a xlink:href="namespacewinnse__module.html#a1789147c5a6bde2c78d2bdee255a44b8" target="_top" xlink:title="Solves the nse&#45;equations using a 2&#45;dimensional newton&#45;raphson scheme.">
<polygon fill="white" stroke="black" points="334,-276 334,-306 453,-306 453,-276 334,-276"/>
<text text-anchor="start" x="342" y="-294" font-family="Helvetica,sans-Serif" font-size="10.00">winnse_module::winnse</text>
<text text-anchor="middle" x="393.5" y="-283" font-family="Helvetica,sans-Serif" font-size="10.00">_calc_nr</text>
</a>
</g>
</g>
<!-- Node5&#45;&gt;Node20 -->
<g id="edge24" class="edge">
<title>Node5&#45;&gt;Node20</title>
<path fill="none" stroke="midnightblue" d="M263.3,-325.45C281.71,-320.54 304.75,-314.4 326.25,-308.67"/>
<polygon fill="midnightblue" stroke="midnightblue" points="327.24,-312.02 336,-306.07 325.44,-305.26 327.24,-312.02"/>
</g>
<!-- Node8 -->
<g id="node8" class="node">
<title>Node8</title>
<g id="a_node8"><a xlink:href="namespacenucstuff__class.html#a7f6b5ddec08f9564638a58091e6940d7" target="_top" xlink:title="Calculates partition function.">
<polygon fill="white" stroke="black" points="682.5,-235 682.5,-265 785.5,-265 785.5,-235 682.5,-235"/>
<text text-anchor="start" x="690.5" y="-253" font-family="Helvetica,sans-Serif" font-size="10.00">nucstuff_class::inter</text>
<text text-anchor="middle" x="734" y="-242" font-family="Helvetica,sans-Serif" font-size="10.00">_partf</text>
</a>
</g>
</g>
<!-- Node7&#45;&gt;Node8 -->
<g id="edge10" class="edge">
<title>Node7&#45;&gt;Node8</title>
<path fill="none" stroke="midnightblue" d="M641.61,-250C651.8,-250 662.18,-250 672.11,-250"/>
<polygon fill="midnightblue" stroke="midnightblue" points="672.27,-253.5 682.27,-250 672.27,-246.5 672.27,-253.5"/>
</g>
<!-- Node10 -->
<g id="node10" class="node">
<title>Node10</title>
<g id="a_node10"><a xlink:href="fsolve_8f90.html#ad671f9a8a86626f13d0db91642c1ac9e" target="_top" xlink:title=" ">
<polygon fill="white" stroke="black" points="546,-114.5 546,-133.5 589,-133.5 589,-114.5 546,-114.5"/>
<text text-anchor="middle" x="567.5" y="-121.5" font-family="Helvetica,sans-Serif" font-size="10.00">fsolve</text>
</a>
</g>
</g>
<!-- Node9&#45;&gt;Node10 -->
<g id="edge12" class="edge">
<title>Node9&#45;&gt;Node10</title>
<path fill="none" stroke="midnightblue" d="M453.21,-149.03C481.06,-142.88 513.17,-135.78 536.08,-130.72"/>
<polygon fill="midnightblue" stroke="midnightblue" points="536.9,-134.12 545.91,-128.55 535.39,-127.29 536.9,-134.12"/>
</g>
<!-- Node19 -->
<g id="node19" class="node">
<title>Node19</title>
<g id="a_node19"><a xlink:href="winnse__module_8f90.html#a76b0f9d4a7d2b6b5cfe01d69af969c0d" target="_top" xlink:title="Determines the mass and charge conservation for the NSE calculation.">
<polygon fill="white" stroke="black" points="489,-152.5 489,-171.5 646,-171.5 646,-152.5 489,-152.5"/>
<text text-anchor="middle" x="567.5" y="-159.5" font-family="Helvetica,sans-Serif" font-size="10.00">mass_and_charge_conservation</text>
</a>
</g>
</g>
<!-- Node9&#45;&gt;Node19 -->
<g id="edge23" class="edge">
<title>Node9&#45;&gt;Node19</title>
<path fill="none" stroke="midnightblue" d="M453.21,-162C461.47,-162 470.09,-162 478.74,-162"/>
<polygon fill="midnightblue" stroke="midnightblue" points="478.89,-165.5 488.89,-162 478.89,-158.5 478.89,-165.5"/>
</g>
<!-- Node11 -->
<g id="node11" class="node">
<title>Node11</title>
<g id="a_node11"><a xlink:href="fsolve_8f90.html#a9d21cb00f8d0421a74dc05aebe71203a" target="_top" xlink:title=" ">
<polygon fill="white" stroke="black" points="714,-114.5 714,-133.5 754,-133.5 754,-114.5 714,-114.5"/>
<text text-anchor="middle" x="734" y="-121.5" font-family="Helvetica,sans-Serif" font-size="10.00">hybrd</text>
</a>
</g>
</g>
<!-- Node10&#45;&gt;Node11 -->
<g id="edge13" class="edge">
<title>Node10&#45;&gt;Node11</title>
<path fill="none" stroke="midnightblue" d="M589,-124C617.79,-124 670.35,-124 703.38,-124"/>
<polygon fill="midnightblue" stroke="midnightblue" points="703.78,-127.5 713.77,-124 703.77,-120.5 703.78,-127.5"/>
</g>
<!-- Node12 -->
<g id="node12" class="node">
<title>Node12</title>
<g id="a_node12"><a xlink:href="fsolve_8f90.html#ab5a1319962e4855e0a2b7a7431085275" target="_top" xlink:title=" ">
<polygon fill="white" stroke="black" points="823.5,-228.5 823.5,-247.5 868.5,-247.5 868.5,-228.5 823.5,-228.5"/>
<text text-anchor="middle" x="846" y="-235.5" font-family="Helvetica,sans-Serif" font-size="10.00">dogleg</text>
</a>
</g>
</g>
<!-- Node11&#45;&gt;Node12 -->
<g id="edge14" class="edge">
<title>Node11&#45;&gt;Node12</title>
<path fill="none" stroke="midnightblue" d="M742.99,-133.57C757.85,-151.18 791.03,-189.58 822,-219 822.93,-219.88 823.89,-220.77 824.88,-221.66"/>
<polygon fill="midnightblue" stroke="midnightblue" points="822.69,-224.39 832.55,-228.25 827.25,-219.08 822.69,-224.39"/>
</g>
<!-- Node13 -->
<g id="node13" class="node">
<title>Node13</title>
<g id="a_node13"><a xlink:href="fsolve_8f90.html#a07a8827d47eead570957d377e64f7974" target="_top" xlink:title=" ">
<polygon fill="white" stroke="black" points="906,-190.5 906,-209.5 950,-209.5 950,-190.5 906,-190.5"/>
<text text-anchor="middle" x="928" y="-197.5" font-family="Helvetica,sans-Serif" font-size="10.00">enorm</text>
</a>
</g>
</g>
<!-- Node11&#45;&gt;Node13 -->
<g id="edge16" class="edge">
<title>Node11&#45;&gt;Node13</title>
<path fill="none" stroke="midnightblue" d="M754.11,-131.57C787.43,-144.75 856.39,-172.05 896.42,-187.9"/>
<polygon fill="midnightblue" stroke="midnightblue" points="895.35,-191.24 905.94,-191.66 897.93,-184.73 895.35,-191.24"/>
</g>
<!-- Node14 -->
<g id="node14" class="node">
<title>Node14</title>
<g id="a_node14"><a xlink:href="fsolve_8f90.html#ab8444c326197a29a9f06bb863a1cee4a" target="_top" xlink:title=" ">
<polygon fill="white" stroke="black" points="824.5,-114.5 824.5,-133.5 867.5,-133.5 867.5,-114.5 824.5,-114.5"/>
<text text-anchor="middle" x="846" y="-121.5" font-family="Helvetica,sans-Serif" font-size="10.00">fdjac1</text>
</a>
</g>
</g>
<!-- Node11&#45;&gt;Node14 -->
<g id="edge17" class="edge">
<title>Node11&#45;&gt;Node14</title>
<path fill="none" stroke="midnightblue" d="M754.16,-124C770.68,-124 794.83,-124 814.08,-124"/>
<polygon fill="midnightblue" stroke="midnightblue" points="814.19,-127.5 824.19,-124 814.19,-120.5 814.19,-127.5"/>
</g>
<!-- Node15 -->
<g id="node15" class="node">
<title>Node15</title>
<g id="a_node15"><a xlink:href="fsolve_8f90.html#a12e8db1e181463d5c3af21f2b1b6b5a7" target="_top" xlink:title=" ">
<polygon fill="white" stroke="black" points="825.5,-76.5 825.5,-95.5 866.5,-95.5 866.5,-76.5 825.5,-76.5"/>
<text text-anchor="middle" x="846" y="-83.5" font-family="Helvetica,sans-Serif" font-size="10.00">qform</text>
</a>
</g>
</g>
<!-- Node11&#45;&gt;Node15 -->
<g id="edge18" class="edge">
<title>Node11&#45;&gt;Node15</title>
<path fill="none" stroke="midnightblue" d="M754.16,-117.38C771.14,-111.51 796.2,-102.86 815.7,-96.12"/>
<polygon fill="midnightblue" stroke="midnightblue" points="817.01,-99.37 825.32,-92.8 814.72,-92.76 817.01,-99.37"/>
</g>
<!-- Node16 -->
<g id="node16" class="node">
<title>Node16</title>
<g id="a_node16"><a xlink:href="fsolve_8f90.html#a64d35f73f2a85378c24dd7b99ddb0c0f" target="_top" xlink:title=" ">
<polygon fill="white" stroke="black" points="827,-190.5 827,-209.5 865,-209.5 865,-190.5 827,-190.5"/>
<text text-anchor="middle" x="846" y="-197.5" font-family="Helvetica,sans-Serif" font-size="10.00">qrfac</text>
</a>
</g>
</g>
<!-- Node11&#45;&gt;Node16 -->
<g id="edge19" class="edge">
<title>Node11&#45;&gt;Node16</title>
<path fill="none" stroke="midnightblue" d="M748.93,-133.63C767.53,-146.47 800.68,-169.38 822.75,-184.63"/>
<polygon fill="midnightblue" stroke="midnightblue" points="820.96,-187.65 831.18,-190.45 824.94,-181.89 820.96,-187.65"/>
</g>
<!-- Node17 -->
<g id="node17" class="node">
<title>Node17</title>
<g id="a_node17"><a xlink:href="fsolve_8f90.html#ab7f6e61d92cfd9ea516435ad523b989b" target="_top" xlink:title=" ">
<polygon fill="white" stroke="black" points="822,-38.5 822,-57.5 870,-57.5 870,-38.5 822,-38.5"/>
<text text-anchor="middle" x="846" y="-45.5" font-family="Helvetica,sans-Serif" font-size="10.00">r1mpyq</text>
</a>
</g>
</g>
<!-- Node11&#45;&gt;Node17 -->
<g id="edge21" class="edge">
<title>Node11&#45;&gt;Node17</title>
<path fill="none" stroke="midnightblue" d="M748.93,-114.37C767.53,-101.53 800.68,-78.62 822.75,-63.37"/>
<polygon fill="midnightblue" stroke="midnightblue" points="824.94,-66.11 831.18,-57.55 820.96,-60.35 824.94,-66.11"/>
</g>
<!-- Node18 -->
<g id="node18" class="node">
<title>Node18</title>
<g id="a_node18"><a xlink:href="fsolve_8f90.html#a8ff726029b3ff9037b390910744ee58b" target="_top" xlink:title=" ">
<polygon fill="white" stroke="black" points="824,-0.5 824,-19.5 868,-19.5 868,-0.5 824,-0.5"/>
<text text-anchor="middle" x="846" y="-7.5" font-family="Helvetica,sans-Serif" font-size="10.00">r1updt</text>
</a>
</g>
</g>
<!-- Node11&#45;&gt;Node18 -->
<g id="edge22" class="edge">
<title>Node11&#45;&gt;Node18</title>
<path fill="none" stroke="midnightblue" d="M742.99,-114.43C757.85,-96.82 791.03,-58.42 822,-29 822.93,-28.12 823.89,-27.23 824.88,-26.34"/>
<polygon fill="midnightblue" stroke="midnightblue" points="827.25,-28.92 832.55,-19.75 822.69,-23.61 827.25,-28.92"/>
</g>
<!-- Node12&#45;&gt;Node13 -->
<g id="edge15" class="edge">
<title>Node12&#45;&gt;Node13</title>
<path fill="none" stroke="midnightblue" d="M867.19,-228.41C876.38,-224.05 887.43,-218.79 897.53,-214"/>
<polygon fill="midnightblue" stroke="midnightblue" points="899.29,-217.04 906.82,-209.59 896.28,-210.72 899.29,-217.04"/>
</g>
<!-- Node16&#45;&gt;Node13 -->
<g id="edge20" class="edge">
<title>Node16&#45;&gt;Node13</title>
<path fill="none" stroke="midnightblue" d="M865.15,-200C874.12,-200 885.19,-200 895.48,-200"/>
<polygon fill="midnightblue" stroke="midnightblue" points="895.8,-203.5 905.8,-200 895.8,-196.5 895.8,-203.5"/>
</g>
<!-- Node20&#45;&gt;Node2 -->
<g id="edge25" class="edge">
<title>Node20&#45;&gt;Node2</title>
<path fill="none" stroke="midnightblue" d="M453.02,-283.07C506.08,-278.56 585.07,-278.69 646,-308 678.06,-323.42 703.87,-356.36 718.82,-379.09"/>
<polygon fill="midnightblue" stroke="midnightblue" points="716.05,-381.27 724.37,-387.83 721.96,-377.52 716.05,-381.27"/>
</g>
<!-- Node20&#45;&gt;Node3 -->
<g id="edge27" class="edge">
<title>Node20&#45;&gt;Node3</title>
<path fill="none" stroke="midnightblue" d="M415.01,-275.81C433.59,-262.6 462.08,-243.63 489,-231 493.88,-228.71 499.02,-226.55 504.25,-224.52"/>
<polygon fill="midnightblue" stroke="midnightblue" points="505.52,-227.79 513.69,-221.04 503.1,-221.22 505.52,-227.79"/>
</g>
<!-- Node20&#45;&gt;Node4 -->
<g id="edge28" class="edge">
<title>Node20&#45;&gt;Node4</title>
<path fill="none" stroke="midnightblue" d="M412.61,-306.22C430.89,-320.94 460.42,-343.02 489,-357 492.84,-358.88 496.87,-360.65 500.97,-362.31"/>
<polygon fill="midnightblue" stroke="midnightblue" points="500.06,-365.71 510.65,-366 502.55,-359.17 500.06,-365.71"/>
</g>
<!-- Node20&#45;&gt;Node6 -->
<g id="edge26" class="edge">
<title>Node20&#45;&gt;Node6</title>
<path fill="none" stroke="midnightblue" d="M453.21,-305C470.05,-309.01 488.45,-313.39 505.43,-317.44"/>
<polygon fill="midnightblue" stroke="midnightblue" points="504.7,-320.87 515.24,-319.78 506.32,-314.06 504.7,-320.87"/>
</g>
<!-- Node20&#45;&gt;Node7 -->
<g id="edge29" class="edge">
<title>Node20&#45;&gt;Node7</title>
<path fill="none" stroke="midnightblue" d="M453.21,-277C473.86,-272.08 496.85,-266.6 516.69,-261.87"/>
<polygon fill="midnightblue" stroke="midnightblue" points="517.54,-265.27 526.45,-259.55 515.91,-258.46 517.54,-265.27"/>
</g>
</g>
</svg>
        <g id="navigator" transform="translate(0 0)" fill="#404254">
                <rect fill="#f2f5e9" fill-opacity="0.5" stroke="#606060" stroke-width=".5" x="0" y="0" width="60" height="60"/>
                <use id="zoomplus" xlink:href="#zoomPlus" x="17" y="9" onmousedown="handleZoom(evt,'in')"/>
                <use id="zoomminus" xlink:href="#zoomMin" x="42" y="9" onmousedown="handleZoom(evt,'out')"/>
                <use id="reset" xlink:href="#resetDef" x="30" y="36" onmousedown="handleReset()"/>
                <g id="arrowUp" xlink:href="#dirArrow" transform="translate(30 24)" onmousedown="handlePan(0,-1)">
                  <use xlink:href="#rim" fill="#404040">
                        <set attributeName="fill" to="#808080" begin="arrowUp.mouseover" end="arrowUp.mouseout"/>
                  </use>
                  <path fill="none" stroke="white" stroke-width="1.5" d="M0,-3.0v7 M-2.5,-0.5L0,-3.0L2.5,-0.5"/>
                </g>
                <g id="arrowRight" xlink:href="#dirArrow" transform="rotate(90) translate(36 -43)" onmousedown="handlePan(1,0)">
                  <use xlink:href="#rim" fill="#404040">
                        <set attributeName="fill" to="#808080" begin="arrowRight.mouseover" end="arrowRight.mouseout"/>
                  </use>
                  <path fill="none" stroke="white" stroke-width="1.5" d="M0,-3.0v7 M-2.5,-0.5L0,-3.0L2.5,-0.5"/>
                </g>
                <g id="arrowDown" xlink:href="#dirArrow" transform="rotate(180) translate(-30 -48)" onmousedown="handlePan(0,1)">
                  <use xlink:href="#rim" fill="#404040">
                        <set attributeName="fill" to="#808080" begin="arrowDown.mouseover" end="arrowDown.mouseout"/>
                  </use>
                  <path fill="none" stroke="white" stroke-width="1.5" d="M0,-3.0v7 M-2.5,-0.5L0,-3.0L2.5,-0.5"/>
                </g>
                <g id="arrowLeft" xlink:href="#dirArrow" transform="rotate(270) translate(-36 17)" onmousedown="handlePan(-1,0)">
                  <use xlink:href="#rim" fill="#404040">
                        <set attributeName="fill" to="#808080" begin="arrowLeft.mouseover" end="arrowLeft.mouseout"/>
                  </use>
                  <path fill="none" stroke="white" stroke-width="1.5" d="M0,-3.0v7 M-2.5,-0.5L0,-3.0L2.5,-0.5"/>
                </g>
        </g>
        <svg viewBox="0 0 15 15" width="100%" height="30px" preserveAspectRatio="xMaxYMin meet">
         <g id="arrow_out" transform="scale(0.3 0.3)">
          <a xlink:href="namespacewinnse__module_a52f86665c1e1c3a34ef53095bf471308_cgraph_org.svg" target="_base">
           <rect id="button" ry="5" rx="5" y="6" x="6" height="38" width="38"
                fill="#f2f5e9" fill-opacity="0.5" stroke="#606060" stroke-width="1.0"/>
           <path id="arrow"
             d="M 11.500037,31.436501 C 11.940474,20.09759 22.043105,11.32322 32.158766,21.979434 L 37.068811,17.246167 C 37.068811,17.246167 37.088388,32 37.088388,32 L 22.160133,31.978069 C 22.160133,31.978069 26.997745,27.140456 26.997745,27.140456 C 18.528582,18.264221 13.291696,25.230495 11.500037,31.436501 z"
             style="fill:#404040;"/>
          </a>
         </g>
        </svg>
</svg>
