<?xml version="1.0" encoding="UTF-8" standalone="no"?>
<!DOCTYPE svg PUBLIC "-//W3C//DTD SVG 1.1//EN"
 "http://www.w3.org/Graphics/SVG/1.1/DTD/svg11.dtd">
<!-- Generated by graphviz version 2.44.0 ()
 -->
<!-- Title: reaclib_rate_module::init_reaclib_rates Pages: 1 -->
<svg width="916pt" height="437pt"
 viewBox="0.00 0.00 916.00 437.45" xmlns="http://www.w3.org/2000/svg" xmlns:xlink="http://www.w3.org/1999/xlink">
<g id="graph0" class="graph" transform="scale(1 1) rotate(0) translate(4 433.45)">
<title>reaclib_rate_module::init_reaclib_rates</title>
<polygon fill="white" stroke="transparent" points="-4,4 -4,-433.45 912,-433.45 912,4 -4,4"/>
<!-- Node1 -->
<g id="node1" class="node">
<title>Node1</title>
<g id="a_node1"><a xlink:title="Count and read reaclib reactions.">
<polygon fill="#bfbfbf" stroke="black" points="0,-274.14 0,-304.14 104,-304.14 104,-274.14 0,-274.14"/>
<text text-anchor="start" x="8" y="-292.14" font-family="Helvetica,sans-Serif" font-size="10.00">reaclib_rate_module</text>
<text text-anchor="middle" x="52" y="-281.14" font-family="Helvetica,sans-Serif" font-size="10.00">::init_reaclib_rates</text>
</a>
</g>
</g>
<!-- Node2 -->
<g id="node2" class="node">
<title>Node2</title>
<g id="a_node2"><a xlink:href="namespacereaclib__rate__module.html#adccfa44041b331c8cc0c377ed38bd4d0" target="_top" xlink:title="Count the amount of reaclib reactions.">
<polygon fill="white" stroke="black" points="149.5,-274.14 149.5,-304.14 255.5,-304.14 255.5,-274.14 149.5,-274.14"/>
<text text-anchor="start" x="157.5" y="-292.14" font-family="Helvetica,sans-Serif" font-size="10.00">reaclib_rate_module</text>
<text text-anchor="middle" x="202.5" y="-281.14" font-family="Helvetica,sans-Serif" font-size="10.00">::count_reaclib_rates</text>
</a>
</g>
</g>
<!-- Node1&#45;&gt;Node2 -->
<g id="edge1" class="edge">
<title>Node1&#45;&gt;Node2</title>
<path fill="none" stroke="midnightblue" d="M104.11,-289.14C115.4,-289.14 127.48,-289.14 139.16,-289.14"/>
<polygon fill="midnightblue" stroke="midnightblue" points="139.29,-292.64 149.29,-289.14 139.29,-285.64 139.29,-292.64"/>
</g>
<!-- Node6 -->
<g id="node6" class="node">
<title>Node6</title>
<g id="a_node6"><a xlink:href="namespaceerror__msg__class.html#a2453d3b7cb363115c046840baa1dfb75" target="_top" xlink:title="Raise a exception with a given error message.">
<polygon fill="white" stroke="black" points="654,-279.14 654,-309.14 768,-309.14 768,-279.14 654,-279.14"/>
<text text-anchor="start" x="662" y="-297.14" font-family="Helvetica,sans-Serif" font-size="10.00">error_msg_class::raise</text>
<text text-anchor="middle" x="711" y="-286.14" font-family="Helvetica,sans-Serif" font-size="10.00">_exception</text>
</a>
</g>
</g>
<!-- Node1&#45;&gt;Node6 -->
<g id="edge8" class="edge">
<title>Node1&#45;&gt;Node6</title>
<path fill="none" stroke="midnightblue" d="M61.04,-304.3C74.15,-327.32 102.48,-370.49 140,-390.14 203.74,-423.52 229.15,-403.36 301,-407.14 441.76,-414.55 491.03,-458.36 618,-397.14 653.24,-380.15 680.93,-342.98 696.38,-318.25"/>
<polygon fill="midnightblue" stroke="midnightblue" points="699.52,-319.82 701.69,-309.45 693.53,-316.2 699.52,-319.82"/>
</g>
<!-- Node8 -->
<g id="node8" class="node">
<title>Node8</title>
<g id="a_node8"><a xlink:href="namespacereaclib__rate__module.html#abfda6e6fa5be3b871093e7900ff7af18" target="_top" xlink:title="Read the complete rrate array from a binary file.">
<polygon fill="white" stroke="black" points="150.5,-339.64 150.5,-380.64 254.5,-380.64 254.5,-339.64 150.5,-339.64"/>
<text text-anchor="start" x="158.5" y="-368.64" font-family="Helvetica,sans-Serif" font-size="10.00">reaclib_rate_module</text>
<text text-anchor="start" x="158.5" y="-357.64" font-family="Helvetica,sans-Serif" font-size="10.00">::read_binary_reaclib</text>
<text text-anchor="middle" x="202.5" y="-346.64" font-family="Helvetica,sans-Serif" font-size="10.00">_reaction_data</text>
</a>
</g>
</g>
<!-- Node1&#45;&gt;Node8 -->
<g id="edge9" class="edge">
<title>Node1&#45;&gt;Node8</title>
<path fill="none" stroke="midnightblue" d="M84.49,-304.2C103.34,-313.21 127.76,-324.89 149.42,-335.24"/>
<polygon fill="midnightblue" stroke="midnightblue" points="147.97,-338.43 158.5,-339.58 150.99,-332.11 147.97,-338.43"/>
</g>
<!-- Node10 -->
<g id="node10" class="node">
<title>Node10</title>
<g id="a_node10"><a xlink:href="namespacereaclib__rate__module.html#ae9e8f84c38218f578011706869e23b59" target="_top" xlink:title="Read reaclib reaction rates.">
<polygon fill="white" stroke="black" points="150.5,-208.14 150.5,-238.14 254.5,-238.14 254.5,-208.14 150.5,-208.14"/>
<text text-anchor="start" x="158.5" y="-226.14" font-family="Helvetica,sans-Serif" font-size="10.00">reaclib_rate_module</text>
<text text-anchor="middle" x="202.5" y="-215.14" font-family="Helvetica,sans-Serif" font-size="10.00">::read_reaclib</text>
</a>
</g>
</g>
<!-- Node1&#45;&gt;Node10 -->
<g id="edge14" class="edge">
<title>Node1&#45;&gt;Node10</title>
<path fill="none" stroke="midnightblue" d="M87.07,-274C108.2,-264.61 135.54,-252.46 158.2,-242.39"/>
<polygon fill="midnightblue" stroke="midnightblue" points="159.87,-245.47 167.59,-238.21 157.03,-239.07 159.87,-245.47"/>
</g>
<!-- Node17 -->
<g id="node17" class="node">
<title>Node17</title>
<g id="a_node17"><a xlink:href="namespacereaclib__rate__module.html#a3aadb882cafc2c5bdde04ede5f3b33fc" target="_top" xlink:title="Write the amount of individual reactions to the out.">
<polygon fill="white" stroke="black" points="140,-32.14 140,-62.14 265,-62.14 265,-32.14 140,-32.14"/>
<text text-anchor="start" x="148" y="-50.14" font-family="Helvetica,sans-Serif" font-size="10.00">reaclib_rate_module</text>
<text text-anchor="middle" x="202.5" y="-39.14" font-family="Helvetica,sans-Serif" font-size="10.00">::write_reac_verbose_out</text>
</a>
</g>
</g>
<!-- Node1&#45;&gt;Node17 -->
<g id="edge28" class="edge">
<title>Node1&#45;&gt;Node17</title>
<path fill="none" stroke="midnightblue" d="M62.29,-274C87.34,-233.17 156.46,-120.54 186.84,-71.02"/>
<polygon fill="midnightblue" stroke="midnightblue" points="189.97,-72.63 192.21,-62.27 184,-68.96 189.97,-72.63"/>
</g>
<!-- Node3 -->
<g id="node3" class="node">
<title>Node3</title>
<g id="a_node3"><a xlink:href="namespacebenam__class.html#ad20c821347dd5f7c08dff59c98e69657" target="_top" xlink:title="Returns the index number of isotope &#39;name&#39;.">
<polygon fill="white" stroke="black" points="317.5,-306.64 317.5,-325.64 425.5,-325.64 425.5,-306.64 317.5,-306.64"/>
<text text-anchor="middle" x="371.5" y="-313.64" font-family="Helvetica,sans-Serif" font-size="10.00">benam_class::benam</text>
</a>
</g>
</g>
<!-- Node2&#45;&gt;Node3 -->
<g id="edge2" class="edge">
<title>Node2&#45;&gt;Node3</title>
<path fill="none" stroke="midnightblue" d="M255.88,-297.61C272.12,-300.23 290.19,-303.16 307.1,-305.89"/>
<polygon fill="midnightblue" stroke="midnightblue" points="307.01,-309.42 317.44,-307.56 308.13,-302.51 307.01,-309.42"/>
</g>
<!-- Node4 -->
<g id="node4" class="node">
<title>Node4</title>
<g id="a_node4"><a xlink:href="namespacefile__handling__class.html#aab870caaf9cbaaf635d537708efbf793" target="_top" xlink:title="Same for reading (input file)">
<polygon fill="white" stroke="black" points="322.5,-257.14 322.5,-287.14 420.5,-287.14 420.5,-257.14 322.5,-257.14"/>
<text text-anchor="start" x="330.5" y="-275.14" font-family="Helvetica,sans-Serif" font-size="10.00">file_handling_class</text>
<text text-anchor="middle" x="371.5" y="-264.14" font-family="Helvetica,sans-Serif" font-size="10.00">::open_infile</text>
</a>
</g>
</g>
<!-- Node2&#45;&gt;Node4 -->
<g id="edge3" class="edge">
<title>Node2&#45;&gt;Node4</title>
<path fill="none" stroke="midnightblue" d="M255.88,-283.81C273.8,-281.98 293.95,-279.93 312.3,-278.06"/>
<polygon fill="midnightblue" stroke="midnightblue" points="312.68,-281.54 322.28,-277.05 311.98,-274.58 312.68,-281.54"/>
</g>
<!-- Node5 -->
<g id="node5" class="node">
<title>Node5</title>
<g id="a_node5"><a xlink:href="namespacefile__handling__class.html#af02196bd5eaf70ecd5ab4cc650094d5e" target="_top" xlink:title="Finds the next unused unit number.">
<polygon fill="white" stroke="black" points="499,-301.14 499,-331.14 597,-331.14 597,-301.14 499,-301.14"/>
<text text-anchor="start" x="507" y="-319.14" font-family="Helvetica,sans-Serif" font-size="10.00">file_handling_class</text>
<text text-anchor="middle" x="548" y="-308.14" font-family="Helvetica,sans-Serif" font-size="10.00">::get_next_io_unit</text>
</a>
</g>
</g>
<!-- Node4&#45;&gt;Node5 -->
<g id="edge4" class="edge">
<title>Node4&#45;&gt;Node5</title>
<path fill="none" stroke="midnightblue" d="M420.64,-284.28C441.73,-289.6 466.65,-295.88 488.77,-301.46"/>
<polygon fill="midnightblue" stroke="midnightblue" points="488.16,-304.91 498.71,-303.96 489.87,-298.12 488.16,-304.91"/>
</g>
<!-- Node4&#45;&gt;Node6 -->
<g id="edge7" class="edge">
<title>Node4&#45;&gt;Node6</title>
<path fill="none" stroke="midnightblue" d="M420.86,-275.29C479.33,-279.1 578.06,-285.54 643.63,-289.81"/>
<polygon fill="midnightblue" stroke="midnightblue" points="643.65,-293.32 653.86,-290.48 644.11,-286.34 643.65,-293.32"/>
</g>
<!-- Node5&#45;&gt;Node6 -->
<g id="edge5" class="edge">
<title>Node5&#45;&gt;Node6</title>
<path fill="none" stroke="midnightblue" d="M597.31,-309.54C611.89,-307.55 628.17,-305.32 643.72,-303.2"/>
<polygon fill="midnightblue" stroke="midnightblue" points="644.37,-306.64 653.8,-301.82 643.42,-299.7 644.37,-306.64"/>
</g>
<!-- Node7 -->
<g id="node7" class="node">
<title>Node7</title>
<g id="a_node7"><a xlink:href="namespaceerror__msg__class.html#a7e065585cc806a5c264de1f088266498" target="_top" xlink:title="Converts a given integer to a string.">
<polygon fill="white" stroke="black" points="804,-156.14 804,-186.14 908,-186.14 908,-156.14 804,-156.14"/>
<text text-anchor="start" x="812" y="-174.14" font-family="Helvetica,sans-Serif" font-size="10.00">error_msg_class::int</text>
<text text-anchor="middle" x="856" y="-163.14" font-family="Helvetica,sans-Serif" font-size="10.00">_to_str</text>
</a>
</g>
</g>
<!-- Node6&#45;&gt;Node7 -->
<g id="edge6" class="edge">
<title>Node6&#45;&gt;Node7</title>
<path fill="none" stroke="midnightblue" d="M729.53,-279.06C754.62,-257.48 800.9,-217.67 829.7,-192.91"/>
<polygon fill="midnightblue" stroke="midnightblue" points="832.02,-195.52 837.32,-186.35 827.46,-190.21 832.02,-195.52"/>
</g>
<!-- Node8&#45;&gt;Node6 -->
<g id="edge13" class="edge">
<title>Node8&#45;&gt;Node6</title>
<path fill="none" stroke="midnightblue" d="M254.68,-375.2C269.49,-378.88 285.77,-382.29 301,-384.14 441.12,-401.13 487.05,-417.81 618,-365.14 645.11,-354.24 670.99,-332.95 688.35,-316.51"/>
<polygon fill="midnightblue" stroke="midnightblue" points="690.98,-318.84 695.71,-309.36 686.1,-313.82 690.98,-318.84"/>
</g>
<!-- Node9 -->
<g id="node9" class="node">
<title>Node9</title>
<g id="a_node9"><a xlink:href="namespacefile__handling__class.html#a3396a31619e5149278d09cdd614d3497" target="_top" xlink:title="Shorthand for opening a new unformatted file for writing (output file)">
<polygon fill="white" stroke="black" points="306.5,-345.14 306.5,-375.14 436.5,-375.14 436.5,-345.14 306.5,-345.14"/>
<text text-anchor="start" x="314.5" y="-363.14" font-family="Helvetica,sans-Serif" font-size="10.00">file_handling_class</text>
<text text-anchor="middle" x="371.5" y="-352.14" font-family="Helvetica,sans-Serif" font-size="10.00">::open_unformatted_outfile</text>
</a>
</g>
</g>
<!-- Node8&#45;&gt;Node9 -->
<g id="edge10" class="edge">
<title>Node8&#45;&gt;Node9</title>
<path fill="none" stroke="midnightblue" d="M254.51,-360.14C267.63,-360.14 282.02,-360.14 296.07,-360.14"/>
<polygon fill="midnightblue" stroke="midnightblue" points="296.21,-363.64 306.21,-360.14 296.21,-356.64 296.21,-363.64"/>
</g>
<!-- Node9&#45;&gt;Node5 -->
<g id="edge11" class="edge">
<title>Node9&#45;&gt;Node5</title>
<path fill="none" stroke="midnightblue" d="M432.06,-345.12C450.48,-340.48 470.72,-335.37 489.02,-330.76"/>
<polygon fill="midnightblue" stroke="midnightblue" points="490.13,-334.09 498.97,-328.25 488.41,-327.3 490.13,-334.09"/>
</g>
<!-- Node9&#45;&gt;Node6 -->
<g id="edge12" class="edge">
<title>Node9&#45;&gt;Node6</title>
<path fill="none" stroke="midnightblue" d="M436.74,-361.54C486.96,-361.06 558.08,-356.88 618,-340.14 638.61,-334.38 660.08,-323.94 677.09,-314.46"/>
<polygon fill="midnightblue" stroke="midnightblue" points="679.11,-317.33 686.05,-309.32 675.63,-311.26 679.11,-317.33"/>
</g>
<!-- Node10&#45;&gt;Node3 -->
<g id="edge15" class="edge">
<title>Node10&#45;&gt;Node3</title>
<path fill="none" stroke="midnightblue" d="M227.69,-238.16C239.25,-245.61 253.11,-254.97 265,-264.14 281.95,-277.22 282.25,-285.81 301,-296.14 305.88,-298.83 311.16,-301.18 316.55,-303.24"/>
<polygon fill="midnightblue" stroke="midnightblue" points="315.71,-306.66 326.31,-306.64 318.01,-300.05 315.71,-306.66"/>
</g>
<!-- Node10&#45;&gt;Node4 -->
<g id="edge20" class="edge">
<title>Node10&#45;&gt;Node4</title>
<path fill="none" stroke="midnightblue" d="M254.51,-238.11C272.89,-243.5 293.76,-249.62 312.68,-255.17"/>
<polygon fill="midnightblue" stroke="midnightblue" points="311.79,-258.56 322.37,-258.02 313.76,-251.84 311.79,-258.56"/>
</g>
<!-- Node11 -->
<g id="node11" class="node">
<title>Node11</title>
<g id="a_node11"><a xlink:href="namespacenucstuff__class.html#a5fa1f79d38fd5b01a5d6d797fea0132d" target="_top" xlink:title="Get number of reactants of the reaction based on the reaclib chapter.">
<polygon fill="white" stroke="black" points="499,-189.14 499,-219.14 597,-219.14 597,-189.14 499,-189.14"/>
<text text-anchor="start" x="507" y="-207.14" font-family="Helvetica,sans-Serif" font-size="10.00">nucstuff_class::get</text>
<text text-anchor="middle" x="548" y="-196.14" font-family="Helvetica,sans-Serif" font-size="10.00">_nr_reactants</text>
</a>
</g>
</g>
<!-- Node10&#45;&gt;Node11 -->
<g id="edge16" class="edge">
<title>Node10&#45;&gt;Node11</title>
<path fill="none" stroke="midnightblue" d="M252.14,-208.11C267.6,-204.03 284.88,-200.17 301,-198.14 364.84,-190.09 438.72,-193.59 488.72,-197.83"/>
<polygon fill="midnightblue" stroke="midnightblue" points="488.43,-201.32 498.7,-198.72 489.05,-194.35 488.43,-201.32"/>
</g>
<!-- Node12 -->
<g id="node12" class="node">
<title>Node12</title>
<g id="a_node12"><a xlink:href="namespacebenam__class.html#af8144ea43fb40187e32fb83da48458f1" target="_top" xlink:title="Returns the 1/n! factor where n is the number of equal isotopes entering a reaction....">
<polygon fill="white" stroke="black" points="301,-81.64 301,-100.64 442,-100.64 442,-81.64 301,-81.64"/>
<text text-anchor="middle" x="371.5" y="-88.64" font-family="Helvetica,sans-Serif" font-size="10.00">benam_class::getcoefficients</text>
</a>
</g>
</g>
<!-- Node10&#45;&gt;Node12 -->
<g id="edge19" class="edge">
<title>Node10&#45;&gt;Node12</title>
<path fill="none" stroke="midnightblue" d="M212.48,-207.79C227.6,-183.34 260.46,-135.72 301,-110.14 304.36,-108.02 307.95,-106.14 311.66,-104.46"/>
<polygon fill="midnightblue" stroke="midnightblue" points="313.1,-107.66 321.1,-100.71 310.51,-101.15 313.1,-107.66"/>
</g>
<!-- Node13 -->
<g id="node13" class="node">
<title>Node13</title>
<g id="a_node13"><a xlink:href="namespacereaclib__rate__module.html#a42077841ed26c539240b9d7218a7be4a" target="_top" xlink:title="Set the fraction of energy radiated away by neutrinos.">
<polygon fill="white" stroke="black" points="319.5,-208.14 319.5,-238.14 423.5,-238.14 423.5,-208.14 319.5,-208.14"/>
<text text-anchor="start" x="327.5" y="-226.14" font-family="Helvetica,sans-Serif" font-size="10.00">reaclib_rate_module</text>
<text text-anchor="middle" x="371.5" y="-215.14" font-family="Helvetica,sans-Serif" font-size="10.00">::set_heating_frac</text>
</a>
</g>
</g>
<!-- Node10&#45;&gt;Node13 -->
<g id="edge21" class="edge">
<title>Node10&#45;&gt;Node13</title>
<path fill="none" stroke="midnightblue" d="M254.51,-223.14C271.75,-223.14 291.18,-223.14 309.14,-223.14"/>
<polygon fill="midnightblue" stroke="midnightblue" points="309.22,-226.64 319.22,-223.14 309.22,-219.64 309.22,-226.64"/>
</g>
<!-- Node14 -->
<g id="node14" class="node">
<title>Node14</title>
<g id="a_node14"><a xlink:href="namespacereaclib__rate__module.html#a8e23d45ed0420de076b8f07863151a34" target="_top" xlink:title="Set a flag for the reaction type.">
<polygon fill="white" stroke="black" points="319.5,-120.14 319.5,-150.14 423.5,-150.14 423.5,-120.14 319.5,-120.14"/>
<text text-anchor="start" x="327.5" y="-138.14" font-family="Helvetica,sans-Serif" font-size="10.00">reaclib_rate_module</text>
<text text-anchor="middle" x="371.5" y="-127.14" font-family="Helvetica,sans-Serif" font-size="10.00">::set_reaction_type</text>
</a>
</g>
</g>
<!-- Node10&#45;&gt;Node14 -->
<g id="edge22" class="edge">
<title>Node10&#45;&gt;Node14</title>
<path fill="none" stroke="midnightblue" d="M227.06,-207.96C246.51,-195.71 275.04,-178.39 301,-165.14 308.32,-161.4 316.22,-157.7 323.97,-154.24"/>
<polygon fill="midnightblue" stroke="midnightblue" points="325.54,-157.37 333.3,-150.15 322.73,-150.95 325.54,-157.37"/>
</g>
<!-- Node11&#45;&gt;Node6 -->
<g id="edge18" class="edge">
<title>Node11&#45;&gt;Node6</title>
<path fill="none" stroke="midnightblue" d="M575.95,-219.2C602.88,-234.26 644.45,-257.5 674.16,-274.1"/>
<polygon fill="midnightblue" stroke="midnightblue" points="672.53,-277.2 682.96,-279.03 675.94,-271.09 672.53,-277.2"/>
</g>
<!-- Node11&#45;&gt;Node7 -->
<g id="edge17" class="edge">
<title>Node11&#45;&gt;Node7</title>
<path fill="none" stroke="midnightblue" d="M597.15,-198.95C650.26,-193.22 735.85,-183.99 793.71,-177.75"/>
<polygon fill="midnightblue" stroke="midnightblue" points="794.25,-181.21 803.82,-176.66 793.5,-174.25 794.25,-181.21"/>
</g>
<!-- Node14&#45;&gt;Node11 -->
<g id="edge27" class="edge">
<title>Node14&#45;&gt;Node11</title>
<path fill="none" stroke="midnightblue" d="M407.5,-150.23C427.95,-158.92 454.33,-169.92 478,-179.14 483.48,-181.27 489.22,-183.45 494.95,-185.58"/>
<polygon fill="midnightblue" stroke="midnightblue" points="493.96,-188.95 504.55,-189.12 496.38,-182.38 493.96,-188.95"/>
</g>
<!-- Node15 -->
<g id="node15" class="node">
<title>Node15</title>
<g id="a_node15"><a xlink:href="namespacebenam__class.html#afd880df70f94c289b6bda0647f4494e3" target="_top" xlink:title="Getter of net_names, translating indices to a nucleus name.">
<polygon fill="white" stroke="black" points="478,-150.64 478,-169.64 618,-169.64 618,-150.64 478,-150.64"/>
<text text-anchor="middle" x="548" y="-157.64" font-family="Helvetica,sans-Serif" font-size="10.00">benam_class::get_net_name</text>
</a>
</g>
</g>
<!-- Node14&#45;&gt;Node15 -->
<g id="edge23" class="edge">
<title>Node14&#45;&gt;Node15</title>
<path fill="none" stroke="midnightblue" d="M423.91,-142.51C438.43,-144.58 454.54,-146.89 470.2,-149.14"/>
<polygon fill="midnightblue" stroke="midnightblue" points="470.01,-152.65 480.41,-150.6 471,-145.72 470.01,-152.65"/>
</g>
<!-- Node16 -->
<g id="node16" class="node">
<title>Node16</title>
<g id="a_node16"><a xlink:href="namespacenucstuff__class.html#adb871d9f6d0e6ec5db0a0808201ab3db" target="_top" xlink:title="Get number of products of the reaction based on the reaclib chapter.">
<polygon fill="white" stroke="black" points="499,-101.14 499,-131.14 597,-131.14 597,-101.14 499,-101.14"/>
<text text-anchor="start" x="507" y="-119.14" font-family="Helvetica,sans-Serif" font-size="10.00">nucstuff_class::get</text>
<text text-anchor="middle" x="548" y="-108.14" font-family="Helvetica,sans-Serif" font-size="10.00">_nr_products</text>
</a>
</g>
</g>
<!-- Node14&#45;&gt;Node16 -->
<g id="edge24" class="edge">
<title>Node14&#45;&gt;Node16</title>
<path fill="none" stroke="midnightblue" d="M423.91,-129.54C444.3,-127.32 467.85,-124.76 488.86,-122.47"/>
<polygon fill="midnightblue" stroke="midnightblue" points="489.38,-125.93 498.94,-121.37 488.62,-118.98 489.38,-125.93"/>
</g>
<!-- Node16&#45;&gt;Node6 -->
<g id="edge26" class="edge">
<title>Node16&#45;&gt;Node6</title>
<path fill="none" stroke="midnightblue" d="M597.31,-128.8C604.71,-132.07 611.9,-136.12 618,-141.14 660.3,-175.94 688.04,-235.6 701.16,-269.22"/>
<polygon fill="midnightblue" stroke="midnightblue" points="697.96,-270.64 704.77,-278.76 704.51,-268.17 697.96,-270.64"/>
</g>
<!-- Node16&#45;&gt;Node7 -->
<g id="edge25" class="edge">
<title>Node16&#45;&gt;Node7</title>
<path fill="none" stroke="midnightblue" d="M597.15,-124.79C650.26,-134.34 735.85,-149.72 793.71,-160.12"/>
<polygon fill="midnightblue" stroke="midnightblue" points="793.35,-163.62 803.82,-161.94 794.59,-156.73 793.35,-163.62"/>
</g>
<!-- Node17&#45;&gt;Node7 -->
<g id="edge29" class="edge">
<title>Node17&#45;&gt;Node7</title>
<path fill="none" stroke="midnightblue" d="M252.14,-32.11C267.6,-28.03 284.88,-24.17 301,-22.14 440.78,-4.5 482.62,16.88 618,-22.14 704.73,-47.14 790.34,-114.28 830.82,-149.26"/>
<polygon fill="midnightblue" stroke="midnightblue" points="828.7,-152.06 838.53,-156.01 833.31,-146.79 828.7,-152.06"/>
</g>
<!-- Node18 -->
<g id="node18" class="node">
<title>Node18</title>
<g id="a_node18"><a xlink:href="namespaceerror__msg__class.html#a339dd5b38c125b6a04653762c94a91f2" target="_top" xlink:title="Write data to the standard output (usually OUT)">
<polygon fill="white" stroke="black" points="314.5,-32.14 314.5,-62.14 428.5,-62.14 428.5,-32.14 314.5,-32.14"/>
<text text-anchor="start" x="322.5" y="-50.14" font-family="Helvetica,sans-Serif" font-size="10.00">error_msg_class::write</text>
<text text-anchor="middle" x="371.5" y="-39.14" font-family="Helvetica,sans-Serif" font-size="10.00">_data_to_std_out</text>
</a>
</g>
</g>
<!-- Node17&#45;&gt;Node18 -->
<g id="edge30" class="edge">
<title>Node17&#45;&gt;Node18</title>
<path fill="none" stroke="midnightblue" d="M265.21,-47.14C277.89,-47.14 291.3,-47.14 304.14,-47.14"/>
<polygon fill="midnightblue" stroke="midnightblue" points="304.29,-50.64 314.29,-47.14 304.29,-43.64 304.29,-50.64"/>
</g>
<!-- Node19 -->
<g id="node19" class="node">
<title>Node19</title>
<g id="a_node19"><a xlink:href="namespaceerror__msg__class.html#af62b9a0c5997255e792b9ebd7322a6a3" target="_top" xlink:title="Write the header of the standard output (usually OUT)">
<polygon fill="white" stroke="black" points="491,-32.14 491,-62.14 605,-62.14 605,-32.14 491,-32.14"/>
<text text-anchor="start" x="499" y="-50.14" font-family="Helvetica,sans-Serif" font-size="10.00">error_msg_class::write</text>
<text text-anchor="middle" x="548" y="-39.14" font-family="Helvetica,sans-Serif" font-size="10.00">_header</text>
</a>
</g>
</g>
<!-- Node18&#45;&gt;Node19 -->
<g id="edge31" class="edge">
<title>Node18&#45;&gt;Node19</title>
<path fill="none" stroke="midnightblue" d="M428.67,-40.79C445.18,-40.35 463.38,-40.27 480.47,-40.56"/>
<polygon fill="midnightblue" stroke="midnightblue" points="480.86,-44.07 490.93,-40.79 481.01,-37.07 480.86,-44.07"/>
</g>
<!-- Node19&#45;&gt;Node18 -->
<g id="edge32" class="edge">
<title>Node19&#45;&gt;Node18</title>
<path fill="none" stroke="midnightblue" d="M490.93,-53.49C474.44,-53.93 456.23,-54.01 439.14,-53.72"/>
<polygon fill="midnightblue" stroke="midnightblue" points="438.75,-50.21 428.67,-53.49 438.6,-57.21 438.75,-50.21"/>
</g>
</g>
</svg>
