<?xml version="1.0" encoding="UTF-8" standalone="no"?>
<!DOCTYPE svg PUBLIC "-//W3C//DTD SVG 1.1//EN"
 "http://www.w3.org/Graphics/SVG/1.1/DTD/svg11.dtd">
<!-- Generated by graphviz version 2.44.0 ()
 -->
<!-- Title: benam_class::read_winvn Pages: 1 -->
<svg width="570pt" height="116pt"
 viewBox="0.00 0.00 570.00 115.50" xmlns="http://www.w3.org/2000/svg" xmlns:xlink="http://www.w3.org/1999/xlink">
<g id="graph0" class="graph" transform="scale(1 1) rotate(0) translate(4 111.5)">
<title>benam_class::read_winvn</title>
<polygon fill="white" stroke="transparent" points="-4,4 -4,-111.5 566,-111.5 566,4 -4,4"/>
<!-- Node1 -->
<g id="node1" class="node">
<title>Node1</title>
<g id="a_node1"><a xlink:title="Reads nuclear properties (name,a,n,z,spin,mass excess,partition functions) from file &#39;winvn&#39; and writ...">
<polygon fill="#bfbfbf" stroke="black" points="0,-50 0,-69 128,-69 128,-50 0,-50"/>
<text text-anchor="middle" x="64" y="-57" font-family="Helvetica,sans-Serif" font-size="10.00">benam_class::read_winvn</text>
</a>
</g>
</g>
<!-- Node2 -->
<g id="node2" class="node">
<title>Node2</title>
<g id="a_node2"><a xlink:href="namespacebenam__class.html#ad20c821347dd5f7c08dff59c98e69657" target="_top" xlink:title="Returns the index number of isotope &#39;name&#39;.">
<polygon fill="white" stroke="black" points="164,-88 164,-107 272,-107 272,-88 164,-88"/>
<text text-anchor="middle" x="218" y="-95" font-family="Helvetica,sans-Serif" font-size="10.00">benam_class::benam</text>
</a>
</g>
</g>
<!-- Node1&#45;&gt;Node2 -->
<g id="edge1" class="edge">
<title>Node1&#45;&gt;Node2</title>
<path fill="none" stroke="midnightblue" d="M103.36,-69.09C123.32,-74.08 147.93,-80.23 169.13,-85.53"/>
<polygon fill="midnightblue" stroke="midnightblue" points="168.37,-88.95 178.92,-87.98 170.07,-82.16 168.37,-88.95"/>
</g>
<!-- Node3 -->
<g id="node3" class="node">
<title>Node3</title>
<g id="a_node3"><a xlink:href="namespaceerror__msg__class.html#a2453d3b7cb363115c046840baa1dfb75" target="_top" xlink:title="Raise a exception with a given error message.">
<polygon fill="white" stroke="black" points="308,-22.5 308,-52.5 422,-52.5 422,-22.5 308,-22.5"/>
<text text-anchor="start" x="316" y="-40.5" font-family="Helvetica,sans-Serif" font-size="10.00">error_msg_class::raise</text>
<text text-anchor="middle" x="365" y="-29.5" font-family="Helvetica,sans-Serif" font-size="10.00">_exception</text>
</a>
</g>
</g>
<!-- Node1&#45;&gt;Node3 -->
<g id="edge2" class="edge">
<title>Node1&#45;&gt;Node3</title>
<path fill="none" stroke="midnightblue" d="M128.04,-54.86C177.74,-51.21 246.84,-46.12 297.42,-42.4"/>
<polygon fill="midnightblue" stroke="midnightblue" points="297.88,-45.87 307.6,-41.65 297.37,-38.89 297.88,-45.87"/>
</g>
<!-- Node5 -->
<g id="node5" class="node">
<title>Node5</title>
<g id="a_node5"><a xlink:href="namespacebenam__class.html#aea8a78ad9767e22772a94d7475dedbbb" target="_top" xlink:title="Checks if sunet file contains valid isotope names.">
<polygon fill="white" stroke="black" points="166.5,-0.5 166.5,-30.5 269.5,-30.5 269.5,-0.5 166.5,-0.5"/>
<text text-anchor="start" x="174.5" y="-18.5" font-family="Helvetica,sans-Serif" font-size="10.00">benam_class::sunet</text>
<text text-anchor="middle" x="218" y="-7.5" font-family="Helvetica,sans-Serif" font-size="10.00">_check</text>
</a>
</g>
</g>
<!-- Node1&#45;&gt;Node5 -->
<g id="edge4" class="edge">
<title>Node1&#45;&gt;Node5</title>
<path fill="none" stroke="midnightblue" d="M97.98,-49.95C115.16,-44.98 136.72,-38.74 156.75,-32.94"/>
<polygon fill="midnightblue" stroke="midnightblue" points="157.8,-36.28 166.44,-30.14 155.86,-29.56 157.8,-36.28"/>
</g>
<!-- Node4 -->
<g id="node4" class="node">
<title>Node4</title>
<g id="a_node4"><a xlink:href="namespaceerror__msg__class.html#a7e065585cc806a5c264de1f088266498" target="_top" xlink:title="Converts a given integer to a string.">
<polygon fill="white" stroke="black" points="458,-22.5 458,-52.5 562,-52.5 562,-22.5 458,-22.5"/>
<text text-anchor="start" x="466" y="-40.5" font-family="Helvetica,sans-Serif" font-size="10.00">error_msg_class::int</text>
<text text-anchor="middle" x="510" y="-29.5" font-family="Helvetica,sans-Serif" font-size="10.00">_to_str</text>
</a>
</g>
</g>
<!-- Node3&#45;&gt;Node4 -->
<g id="edge3" class="edge">
<title>Node3&#45;&gt;Node4</title>
<path fill="none" stroke="midnightblue" d="M422.11,-37.5C430.45,-37.5 439.09,-37.5 447.54,-37.5"/>
<polygon fill="midnightblue" stroke="midnightblue" points="447.71,-41 457.71,-37.5 447.71,-34 447.71,-41"/>
</g>
<!-- Node5&#45;&gt;Node3 -->
<g id="edge5" class="edge">
<title>Node5&#45;&gt;Node3</title>
<path fill="none" stroke="midnightblue" d="M269.71,-23.19C278.77,-24.57 288.33,-26.02 297.74,-27.45"/>
<polygon fill="midnightblue" stroke="midnightblue" points="297.46,-30.94 307.87,-28.98 298.51,-24.02 297.46,-30.94"/>
</g>
</g>
</svg>
