<?xml version="1.0" encoding="UTF-8" standalone="no"?>
<!DOCTYPE svg PUBLIC "-//W3C//DTD SVG 1.1//EN"
 "http://www.w3.org/Graphics/SVG/1.1/DTD/svg11.dtd">
<!-- Generated by graphviz version 2.44.0 ()
 -->
<!-- Title: screening_module::screening Pages: 1 -->
<svg width="643pt" height="110pt"
 viewBox="0.00 0.00 643.00 110.00" xmlns="http://www.w3.org/2000/svg" xmlns:xlink="http://www.w3.org/1999/xlink">
<g id="graph0" class="graph" transform="scale(1 1) rotate(0) translate(4 106)">
<title>screening_module::screening</title>
<polygon fill="white" stroke="transparent" points="-4,4 -4,-106 639,-106 639,4 -4,4"/>
<!-- Node1 -->
<g id="node1" class="node">
<title>Node1</title>
<g id="a_node1"><a xlink:title="Interface for the screening.">
<polygon fill="#bfbfbf" stroke="black" points="0,-58 0,-77 142,-77 142,-58 0,-58"/>
<text text-anchor="middle" x="71" y="-65" font-family="Helvetica,sans-Serif" font-size="10.00">screening_module::screening</text>
</a>
</g>
</g>
<!-- Node2 -->
<g id="node2" class="node">
<title>Node2</title>
<g id="a_node2"><a xlink:href="namespaceerror__msg__class.html#a7e065585cc806a5c264de1f088266498" target="_top" xlink:title="Converts a given integer to a string.">
<polygon fill="white" stroke="black" points="531,-71.5 531,-101.5 635,-101.5 635,-71.5 531,-71.5"/>
<text text-anchor="start" x="539" y="-89.5" font-family="Helvetica,sans-Serif" font-size="10.00">error_msg_class::int</text>
<text text-anchor="middle" x="583" y="-78.5" font-family="Helvetica,sans-Serif" font-size="10.00">_to_str</text>
</a>
</g>
</g>
<!-- Node1&#45;&gt;Node2 -->
<g id="edge1" class="edge">
<title>Node1&#45;&gt;Node2</title>
<path fill="none" stroke="midnightblue" d="M142.08,-76C154.05,-77.29 166.37,-78.52 178,-79.5 318.46,-91.39 354.06,-91.93 495,-89.5 503.36,-89.36 512.18,-89.13 520.85,-88.87"/>
<polygon fill="midnightblue" stroke="midnightblue" points="521.06,-92.37 530.94,-88.55 520.84,-85.37 521.06,-92.37"/>
</g>
<!-- Node3 -->
<g id="node3" class="node">
<title>Node3</title>
<g id="a_node3"><a xlink:href="namespaceerror__msg__class.html#a2453d3b7cb363115c046840baa1dfb75" target="_top" xlink:title="Raise a exception with a given error message.">
<polygon fill="white" stroke="black" points="368.5,-49.5 368.5,-79.5 482.5,-79.5 482.5,-49.5 368.5,-49.5"/>
<text text-anchor="start" x="376.5" y="-67.5" font-family="Helvetica,sans-Serif" font-size="10.00">error_msg_class::raise</text>
<text text-anchor="middle" x="425.5" y="-56.5" font-family="Helvetica,sans-Serif" font-size="10.00">_exception</text>
</a>
</g>
</g>
<!-- Node1&#45;&gt;Node3 -->
<g id="edge2" class="edge">
<title>Node1&#45;&gt;Node3</title>
<path fill="none" stroke="midnightblue" d="M142.06,-66.9C205.02,-66.37 296.79,-65.59 358.47,-65.06"/>
<polygon fill="midnightblue" stroke="midnightblue" points="358.51,-68.56 368.48,-64.98 358.45,-61.56 358.51,-68.56"/>
</g>
<!-- Node4 -->
<g id="node4" class="node">
<title>Node4</title>
<g id="a_node4"><a xlink:href="namespacescreening__module.html#a69622d6a79c8525fc8f77ab281a3b13e" target="_top" xlink:title="Screening function according to Kravchuk &amp; Yakovlev (2014)">
<polygon fill="white" stroke="black" points="178,-8.5 178,-38.5 320,-38.5 320,-8.5 178,-8.5"/>
<text text-anchor="start" x="186" y="-26.5" font-family="Helvetica,sans-Serif" font-size="10.00">screening_module::screening</text>
<text text-anchor="middle" x="249" y="-15.5" font-family="Helvetica,sans-Serif" font-size="10.00">_kravchuk_yakovlev</text>
</a>
</g>
</g>
<!-- Node1&#45;&gt;Node4 -->
<g id="edge4" class="edge">
<title>Node1&#45;&gt;Node4</title>
<path fill="none" stroke="midnightblue" d="M110.19,-57.95C130,-53 154.84,-46.79 177.96,-41.01"/>
<polygon fill="midnightblue" stroke="midnightblue" points="178.89,-44.39 187.74,-38.57 177.19,-37.6 178.89,-44.39"/>
</g>
<!-- Node3&#45;&gt;Node2 -->
<g id="edge3" class="edge">
<title>Node3&#45;&gt;Node2</title>
<path fill="none" stroke="midnightblue" d="M482.64,-72.44C495.06,-74.2 508.29,-76.07 520.9,-77.86"/>
<polygon fill="midnightblue" stroke="midnightblue" points="520.46,-81.33 530.85,-79.26 521.44,-74.4 520.46,-81.33"/>
</g>
<!-- Node4&#45;&gt;Node3 -->
<g id="edge6" class="edge">
<title>Node4&#45;&gt;Node3</title>
<path fill="none" stroke="midnightblue" d="M313.99,-38.53C328.45,-41.93 343.83,-45.55 358.38,-48.96"/>
<polygon fill="midnightblue" stroke="midnightblue" points="357.76,-52.41 368.3,-51.3 359.36,-45.6 357.76,-52.41"/>
</g>
<!-- Node5 -->
<g id="node5" class="node">
<title>Node5</title>
<g id="a_node5"><a xlink:href="namespacescreening__module.html#ac47a2ea316ab70a8f86f5c2dad084afb" target="_top" xlink:title="Free energy according to parametrization of Kravchuk and Yakovlev.">
<polygon fill="white" stroke="black" points="356,-0.5 356,-30.5 495,-30.5 495,-0.5 356,-0.5"/>
<text text-anchor="start" x="364" y="-18.5" font-family="Helvetica,sans-Serif" font-size="10.00">screening_module::free</text>
<text text-anchor="middle" x="425.5" y="-7.5" font-family="Helvetica,sans-Serif" font-size="10.00">_energy_kravchuk_yakovlev</text>
</a>
</g>
</g>
<!-- Node4&#45;&gt;Node5 -->
<g id="edge5" class="edge">
<title>Node4&#45;&gt;Node5</title>
<path fill="none" stroke="midnightblue" d="M320.22,-20.28C328.57,-19.9 337.14,-19.51 345.6,-19.12"/>
<polygon fill="midnightblue" stroke="midnightblue" points="346.01,-22.6 355.84,-18.65 345.69,-15.61 346.01,-22.6"/>
</g>
</g>
</svg>
