<?xml version="1.0" encoding="UTF-8" standalone="no"?>
<!DOCTYPE svg PUBLIC "-//W3C//DTD SVG 1.1//EN"
 "http://www.w3.org/Graphics/SVG/1.1/DTD/svg11.dtd">
<!-- Generated by graphviz version 2.44.0 ()
 -->
<!-- Title: thermal_neutrino_module::thermal_neutrinos Pages: 1 -->
<svg width="296pt" height="39pt"
 viewBox="0.00 0.00 296.00 39.00" xmlns="http://www.w3.org/2000/svg" xmlns:xlink="http://www.w3.org/1999/xlink">
<g id="graph0" class="graph" transform="scale(1 1) rotate(0) translate(4 35)">
<title>thermal_neutrino_module::thermal_neutrinos</title>
<polygon fill="white" stroke="transparent" points="-4,4 -4,-35 292,-35 292,4 -4,4"/>
<!-- Node1 -->
<g id="node1" class="node">
<title>Node1</title>
<g id="a_node1"><a xlink:title="Calculates the neutrino emissivity.">
<polygon fill="#bfbfbf" stroke="black" points="0,-0.5 0,-30.5 125,-30.5 125,-0.5 0,-0.5"/>
<text text-anchor="start" x="8" y="-18.5" font-family="Helvetica,sans-Serif" font-size="10.00">thermal_neutrino_module</text>
<text text-anchor="middle" x="62.5" y="-7.5" font-family="Helvetica,sans-Serif" font-size="10.00">::thermal_neutrinos</text>
</a>
</g>
</g>
<!-- Node2 -->
<g id="node2" class="node">
<title>Node2</title>
<g id="a_node2"><a xlink:href="sneut5_8f90.html#a25bf8d2fb646c098416e9fbd1738cf1c" target="_top" xlink:title=" ">
<polygon fill="white" stroke="black" points="161,-6 161,-25 223,-25 223,-6 161,-6"/>
<text text-anchor="middle" x="192" y="-13" font-family="Helvetica,sans-Serif" font-size="10.00">sneut5_aa</text>
</a>
</g>
</g>
<!-- Node1&#45;&gt;Node2 -->
<g id="edge1" class="edge">
<title>Node1&#45;&gt;Node2</title>
<path fill="none" stroke="midnightblue" d="M125.01,-15.5C133.79,-15.5 142.62,-15.5 150.84,-15.5"/>
<polygon fill="midnightblue" stroke="midnightblue" points="150.88,-19 160.88,-15.5 150.88,-12 150.88,-19"/>
</g>
<!-- Node3 -->
<g id="node3" class="node">
<title>Node3</title>
<g id="a_node3"><a xlink:href="quadpack__module_8f90.html#aada5a652920db442d627f1ca24ff25d7" target="_top" xlink:title="Further information: http://netlib.org/quadpack/index.html https://orion.math.iastate....">
<polygon fill="white" stroke="black" points="259,-6 259,-25 288,-25 288,-6 259,-6"/>
<text text-anchor="middle" x="273.5" y="-13" font-family="Helvetica,sans-Serif" font-size="10.00">pi</text>
</a>
</g>
</g>
<!-- Node2&#45;&gt;Node3 -->
<g id="edge2" class="edge">
<title>Node2&#45;&gt;Node3</title>
<path fill="none" stroke="midnightblue" d="M223.06,-15.5C231.52,-15.5 240.61,-15.5 248.66,-15.5"/>
<polygon fill="midnightblue" stroke="midnightblue" points="248.83,-19 258.83,-15.5 248.83,-12 248.83,-19"/>
</g>
</g>
</svg>
