<?xml version="1.0" encoding="UTF-8" standalone="no"?>
<!DOCTYPE svg PUBLIC "-//W3C//DTD SVG 1.1//EN"
 "http://www.w3.org/Graphics/SVG/1.1/DTD/svg11.dtd">
<!-- Generated by graphviz version 2.44.0 ()
 -->
<!-- Title: thermal_neutrino_module::thermal_neutrino_init Pages: 1 -->
<svg width="718pt" height="166pt"
 viewBox="0.00 0.00 718.00 165.50" xmlns="http://www.w3.org/2000/svg" xmlns:xlink="http://www.w3.org/1999/xlink">
<g id="graph0" class="graph" transform="scale(1 1) rotate(0) translate(4 161.5)">
<title>thermal_neutrino_module::thermal_neutrino_init</title>
<polygon fill="white" stroke="transparent" points="-4,4 -4,-161.5 714,-161.5 714,4 -4,4"/>
<!-- Node1 -->
<g id="node1" class="node">
<title>Node1</title>
<g id="a_node1"><a xlink:title="Initializes the thermal_neutrino_module.">
<polygon fill="#bfbfbf" stroke="black" points="0,-73 0,-103 125,-103 125,-73 0,-73"/>
<text text-anchor="start" x="8" y="-91" font-family="Helvetica,sans-Serif" font-size="10.00">thermal_neutrino_module</text>
<text text-anchor="middle" x="62.5" y="-80" font-family="Helvetica,sans-Serif" font-size="10.00">::thermal_neutrino_init</text>
</a>
</g>
</g>
<!-- Node2 -->
<g id="node2" class="node">
<title>Node2</title>
<g id="a_node2"><a xlink:href="namespacefile__handling__class.html#a01ba26324d7662cc0fb2e0eb306cd3e2" target="_top" xlink:title="Close an external file.">
<polygon fill="white" stroke="black" points="322,-127 322,-157 420,-157 420,-127 322,-127"/>
<text text-anchor="start" x="330" y="-145" font-family="Helvetica,sans-Serif" font-size="10.00">file_handling_class</text>
<text text-anchor="middle" x="371" y="-134" font-family="Helvetica,sans-Serif" font-size="10.00">::close_io_file</text>
</a>
</g>
</g>
<!-- Node1&#45;&gt;Node2 -->
<g id="edge1" class="edge">
<title>Node1&#45;&gt;Node2</title>
<path fill="none" stroke="midnightblue" d="M117.66,-103.05C131.7,-106.63 146.86,-110.21 161,-113 211.47,-122.94 269.46,-130.7 311.53,-135.68"/>
<polygon fill="midnightblue" stroke="midnightblue" points="311.26,-139.17 321.6,-136.86 312.07,-132.22 311.26,-139.17"/>
</g>
<!-- Node5 -->
<g id="node5" class="node">
<title>Node5</title>
<g id="a_node5"><a xlink:href="namespacefile__handling__class.html#aeddf55e8478d6220dc04310665427c3a" target="_top" xlink:title="Shorthand for opening a new file for writing (output file)">
<polygon fill="white" stroke="black" points="174.5,-73 174.5,-103 272.5,-103 272.5,-73 174.5,-73"/>
<text text-anchor="start" x="182.5" y="-91" font-family="Helvetica,sans-Serif" font-size="10.00">file_handling_class</text>
<text text-anchor="middle" x="223.5" y="-80" font-family="Helvetica,sans-Serif" font-size="10.00">::open_outfile</text>
</a>
</g>
</g>
<!-- Node1&#45;&gt;Node5 -->
<g id="edge5" class="edge">
<title>Node1&#45;&gt;Node5</title>
<path fill="none" stroke="midnightblue" d="M125.43,-88C138.1,-88 151.4,-88 163.95,-88"/>
<polygon fill="midnightblue" stroke="midnightblue" points="164.28,-91.5 174.28,-88 164.28,-84.5 164.28,-91.5"/>
</g>
<!-- Node7 -->
<g id="node7" class="node">
<title>Node7</title>
<g id="a_node7"><a xlink:href="namespacethermal__neutrino__module.html#afaf7b8d3d363265849c92607c3727a7d" target="_top" xlink:title="Calculates the neutrino emissivity.">
<polygon fill="white" stroke="black" points="161,-14 161,-44 286,-44 286,-14 161,-14"/>
<text text-anchor="start" x="169" y="-32" font-family="Helvetica,sans-Serif" font-size="10.00">thermal_neutrino_module</text>
<text text-anchor="middle" x="223.5" y="-21" font-family="Helvetica,sans-Serif" font-size="10.00">::thermal_neutrinos</text>
</a>
</g>
</g>
<!-- Node1&#45;&gt;Node7 -->
<g id="edge9" class="edge">
<title>Node1&#45;&gt;Node7</title>
<path fill="none" stroke="midnightblue" d="M104.03,-72.96C124.87,-65.23 150.46,-55.73 172.51,-47.55"/>
<polygon fill="midnightblue" stroke="midnightblue" points="173.88,-50.77 182.04,-44.01 171.45,-44.21 173.88,-50.77"/>
</g>
<!-- Node3 -->
<g id="node3" class="node">
<title>Node3</title>
<g id="a_node3"><a xlink:href="namespaceerror__msg__class.html#a7e065585cc806a5c264de1f088266498" target="_top" xlink:title="Converts a given integer to a string.">
<polygon fill="white" stroke="black" points="606,-105 606,-135 710,-135 710,-105 606,-105"/>
<text text-anchor="start" x="614" y="-123" font-family="Helvetica,sans-Serif" font-size="10.00">error_msg_class::int</text>
<text text-anchor="middle" x="658" y="-112" font-family="Helvetica,sans-Serif" font-size="10.00">_to_str</text>
</a>
</g>
</g>
<!-- Node2&#45;&gt;Node3 -->
<g id="edge2" class="edge">
<title>Node2&#45;&gt;Node3</title>
<path fill="none" stroke="midnightblue" d="M420.02,-138.29C468.36,-134.56 543.09,-128.79 595.68,-124.73"/>
<polygon fill="midnightblue" stroke="midnightblue" points="596.19,-128.2 605.89,-123.95 595.65,-121.23 596.19,-128.2"/>
</g>
<!-- Node4 -->
<g id="node4" class="node">
<title>Node4</title>
<g id="a_node4"><a xlink:href="namespaceerror__msg__class.html#a2453d3b7cb363115c046840baa1dfb75" target="_top" xlink:title="Raise a exception with a given error message.">
<polygon fill="white" stroke="black" points="456,-83 456,-113 570,-113 570,-83 456,-83"/>
<text text-anchor="start" x="464" y="-101" font-family="Helvetica,sans-Serif" font-size="10.00">error_msg_class::raise</text>
<text text-anchor="middle" x="513" y="-90" font-family="Helvetica,sans-Serif" font-size="10.00">_exception</text>
</a>
</g>
</g>
<!-- Node2&#45;&gt;Node4 -->
<g id="edge3" class="edge">
<title>Node2&#45;&gt;Node4</title>
<path fill="none" stroke="midnightblue" d="M419.79,-126.98C430.82,-123.51 442.66,-119.79 454.07,-116.21"/>
<polygon fill="midnightblue" stroke="midnightblue" points="455.46,-119.44 463.95,-113.1 453.36,-112.76 455.46,-119.44"/>
</g>
<!-- Node4&#45;&gt;Node3 -->
<g id="edge4" class="edge">
<title>Node4&#45;&gt;Node3</title>
<path fill="none" stroke="midnightblue" d="M570.11,-106.63C578.54,-107.93 587.28,-109.27 595.81,-110.59"/>
<polygon fill="midnightblue" stroke="midnightblue" points="595.3,-114.05 605.71,-112.11 596.36,-107.13 595.3,-114.05"/>
</g>
<!-- Node5&#45;&gt;Node4 -->
<g id="edge8" class="edge">
<title>Node5&#45;&gt;Node4</title>
<path fill="none" stroke="midnightblue" d="M272.62,-89.67C319.98,-91.32 392.67,-93.85 445.53,-95.69"/>
<polygon fill="midnightblue" stroke="midnightblue" points="445.71,-99.2 455.83,-96.05 445.95,-92.2 445.71,-99.2"/>
</g>
<!-- Node6 -->
<g id="node6" class="node">
<title>Node6</title>
<g id="a_node6"><a xlink:href="namespacefile__handling__class.html#af02196bd5eaf70ecd5ab4cc650094d5e" target="_top" xlink:title="Finds the next unused unit number.">
<polygon fill="white" stroke="black" points="322,-39 322,-69 420,-69 420,-39 322,-39"/>
<text text-anchor="start" x="330" y="-57" font-family="Helvetica,sans-Serif" font-size="10.00">file_handling_class</text>
<text text-anchor="middle" x="371" y="-46" font-family="Helvetica,sans-Serif" font-size="10.00">::get_next_io_unit</text>
</a>
</g>
</g>
<!-- Node5&#45;&gt;Node6 -->
<g id="edge6" class="edge">
<title>Node5&#45;&gt;Node6</title>
<path fill="none" stroke="midnightblue" d="M272.55,-76.77C285.08,-73.84 298.72,-70.66 311.72,-67.62"/>
<polygon fill="midnightblue" stroke="midnightblue" points="312.57,-71.02 321.51,-65.33 310.97,-64.2 312.57,-71.02"/>
</g>
<!-- Node6&#45;&gt;Node4 -->
<g id="edge7" class="edge">
<title>Node6&#45;&gt;Node4</title>
<path fill="none" stroke="midnightblue" d="M419.79,-69.02C430.82,-72.49 442.66,-76.21 454.07,-79.79"/>
<polygon fill="midnightblue" stroke="midnightblue" points="453.36,-83.24 463.95,-82.9 455.46,-76.56 453.36,-83.24"/>
</g>
<!-- Node8 -->
<g id="node8" class="node">
<title>Node8</title>
<g id="a_node8"><a xlink:href="sneut5_8f90.html#a25bf8d2fb646c098416e9fbd1738cf1c" target="_top" xlink:title=" ">
<polygon fill="white" stroke="black" points="340,-0.5 340,-19.5 402,-19.5 402,-0.5 340,-0.5"/>
<text text-anchor="middle" x="371" y="-7.5" font-family="Helvetica,sans-Serif" font-size="10.00">sneut5_aa</text>
</a>
</g>
</g>
<!-- Node7&#45;&gt;Node8 -->
<g id="edge10" class="edge">
<title>Node7&#45;&gt;Node8</title>
<path fill="none" stroke="midnightblue" d="M286.21,-20.94C301.02,-19.01 316.46,-16.99 329.99,-15.23"/>
<polygon fill="midnightblue" stroke="midnightblue" points="330.46,-18.69 339.92,-13.93 329.55,-11.75 330.46,-18.69"/>
</g>
<!-- Node9 -->
<g id="node9" class="node">
<title>Node9</title>
<g id="a_node9"><a xlink:href="quadpack__module_8f90.html#aada5a652920db442d627f1ca24ff25d7" target="_top" xlink:title="Further information: http://netlib.org/quadpack/index.html https://orion.math.iastate....">
<polygon fill="white" stroke="black" points="498.5,-0.5 498.5,-19.5 527.5,-19.5 527.5,-0.5 498.5,-0.5"/>
<text text-anchor="middle" x="513" y="-7.5" font-family="Helvetica,sans-Serif" font-size="10.00">pi</text>
</a>
</g>
</g>
<!-- Node8&#45;&gt;Node9 -->
<g id="edge11" class="edge">
<title>Node8&#45;&gt;Node9</title>
<path fill="none" stroke="midnightblue" d="M402.03,-10C427.7,-10 464.14,-10 487.92,-10"/>
<polygon fill="midnightblue" stroke="midnightblue" points="488.18,-13.5 498.18,-10 488.18,-6.5 488.18,-13.5"/>
</g>
</g>
</svg>
