<?xml version="1.0" encoding="UTF-8" standalone="no"?>
<!DOCTYPE svg PUBLIC "-//W3C//DTD SVG 1.1//EN"
 "http://www.w3.org/Graphics/SVG/1.1/DTD/svg11.dtd">
<!-- Generated by graphviz version 2.44.0 ()
 -->
<!-- Title: analysis::printsnap Pages: 1 -->
<svg width="662pt" height="127pt"
 viewBox="0.00 0.00 662.00 127.00" xmlns="http://www.w3.org/2000/svg" xmlns:xlink="http://www.w3.org/1999/xlink">
<g id="graph0" class="graph" transform="scale(1 1) rotate(0) translate(4 123)">
<title>analysis::printsnap</title>
<polygon fill="white" stroke="transparent" points="-4,4 -4,-123 658,-123 658,4 -4,4"/>
<!-- Node1 -->
<g id="node1" class="node">
<title>Node1</title>
<g id="a_node1"><a xlink:title="Print current snapshot.">
<polygon fill="#bfbfbf" stroke="black" points="0,-72 0,-91 96,-91 96,-72 0,-72"/>
<text text-anchor="middle" x="48" y="-79" font-family="Helvetica,sans-Serif" font-size="10.00">analysis::printsnap</text>
</a>
</g>
</g>
<!-- Node2 -->
<g id="node2" class="node">
<title>Node2</title>
<g id="a_node2"><a xlink:href="namespacefile__handling__class.html#a01ba26324d7662cc0fb2e0eb306cd3e2" target="_top" xlink:title="Close an external file.">
<polygon fill="white" stroke="black" points="266,-88.5 266,-118.5 364,-118.5 364,-88.5 266,-88.5"/>
<text text-anchor="start" x="274" y="-106.5" font-family="Helvetica,sans-Serif" font-size="10.00">file_handling_class</text>
<text text-anchor="middle" x="315" y="-95.5" font-family="Helvetica,sans-Serif" font-size="10.00">::close_io_file</text>
</a>
</g>
</g>
<!-- Node1&#45;&gt;Node2 -->
<g id="edge1" class="edge">
<title>Node1&#45;&gt;Node2</title>
<path fill="none" stroke="midnightblue" d="M96.07,-85.41C140.55,-89.1 207.42,-94.65 255.35,-98.63"/>
<polygon fill="midnightblue" stroke="midnightblue" points="255.32,-102.14 265.58,-99.48 255.9,-95.16 255.32,-102.14"/>
</g>
<!-- Node5 -->
<g id="node5" class="node">
<title>Node5</title>
<g id="a_node5"><a xlink:href="namespacefile__handling__class.html#aeddf55e8478d6220dc04310665427c3a" target="_top" xlink:title="Shorthand for opening a new file for writing (output file)">
<polygon fill="white" stroke="black" points="132,-44.5 132,-74.5 230,-74.5 230,-44.5 132,-44.5"/>
<text text-anchor="start" x="140" y="-62.5" font-family="Helvetica,sans-Serif" font-size="10.00">file_handling_class</text>
<text text-anchor="middle" x="181" y="-51.5" font-family="Helvetica,sans-Serif" font-size="10.00">::open_outfile</text>
</a>
</g>
</g>
<!-- Node1&#45;&gt;Node5 -->
<g id="edge5" class="edge">
<title>Node1&#45;&gt;Node5</title>
<path fill="none" stroke="midnightblue" d="M96.29,-73.56C104.62,-72.16 113.37,-70.69 121.94,-69.25"/>
<polygon fill="midnightblue" stroke="midnightblue" points="122.61,-72.69 131.89,-67.58 121.45,-65.78 122.61,-72.69"/>
</g>
<!-- Node3 -->
<g id="node3" class="node">
<title>Node3</title>
<g id="a_node3"><a xlink:href="namespaceerror__msg__class.html#a7e065585cc806a5c264de1f088266498" target="_top" xlink:title="Converts a given integer to a string.">
<polygon fill="white" stroke="black" points="550,-66.5 550,-96.5 654,-96.5 654,-66.5 550,-66.5"/>
<text text-anchor="start" x="558" y="-84.5" font-family="Helvetica,sans-Serif" font-size="10.00">error_msg_class::int</text>
<text text-anchor="middle" x="602" y="-73.5" font-family="Helvetica,sans-Serif" font-size="10.00">_to_str</text>
</a>
</g>
</g>
<!-- Node2&#45;&gt;Node3 -->
<g id="edge2" class="edge">
<title>Node2&#45;&gt;Node3</title>
<path fill="none" stroke="midnightblue" d="M364.02,-99.79C412.36,-96.06 487.09,-90.29 539.68,-86.23"/>
<polygon fill="midnightblue" stroke="midnightblue" points="540.19,-89.7 549.89,-85.45 539.65,-82.73 540.19,-89.7"/>
</g>
<!-- Node4 -->
<g id="node4" class="node">
<title>Node4</title>
<g id="a_node4"><a xlink:href="namespaceerror__msg__class.html#a2453d3b7cb363115c046840baa1dfb75" target="_top" xlink:title="Raise a exception with a given error message.">
<polygon fill="white" stroke="black" points="400,-44.5 400,-74.5 514,-74.5 514,-44.5 400,-44.5"/>
<text text-anchor="start" x="408" y="-62.5" font-family="Helvetica,sans-Serif" font-size="10.00">error_msg_class::raise</text>
<text text-anchor="middle" x="457" y="-51.5" font-family="Helvetica,sans-Serif" font-size="10.00">_exception</text>
</a>
</g>
</g>
<!-- Node2&#45;&gt;Node4 -->
<g id="edge3" class="edge">
<title>Node2&#45;&gt;Node4</title>
<path fill="none" stroke="midnightblue" d="M363.79,-88.48C374.82,-85.01 386.66,-81.29 398.07,-77.71"/>
<polygon fill="midnightblue" stroke="midnightblue" points="399.46,-80.94 407.95,-74.6 397.36,-74.26 399.46,-80.94"/>
</g>
<!-- Node4&#45;&gt;Node3 -->
<g id="edge4" class="edge">
<title>Node4&#45;&gt;Node3</title>
<path fill="none" stroke="midnightblue" d="M514.11,-68.13C522.54,-69.43 531.28,-70.77 539.81,-72.09"/>
<polygon fill="midnightblue" stroke="midnightblue" points="539.3,-75.55 549.71,-73.61 540.36,-68.63 539.3,-75.55"/>
</g>
<!-- Node5&#45;&gt;Node4 -->
<g id="edge8" class="edge">
<title>Node5&#45;&gt;Node4</title>
<path fill="none" stroke="midnightblue" d="M230.04,-59.5C274.32,-59.5 340.43,-59.5 389.72,-59.5"/>
<polygon fill="midnightblue" stroke="midnightblue" points="389.97,-63 399.97,-59.5 389.97,-56 389.97,-63"/>
</g>
<!-- Node6 -->
<g id="node6" class="node">
<title>Node6</title>
<g id="a_node6"><a xlink:href="namespacefile__handling__class.html#af02196bd5eaf70ecd5ab4cc650094d5e" target="_top" xlink:title="Finds the next unused unit number.">
<polygon fill="white" stroke="black" points="266,-0.5 266,-30.5 364,-30.5 364,-0.5 266,-0.5"/>
<text text-anchor="start" x="274" y="-18.5" font-family="Helvetica,sans-Serif" font-size="10.00">file_handling_class</text>
<text text-anchor="middle" x="315" y="-7.5" font-family="Helvetica,sans-Serif" font-size="10.00">::get_next_io_unit</text>
</a>
</g>
</g>
<!-- Node5&#45;&gt;Node6 -->
<g id="edge6" class="edge">
<title>Node5&#45;&gt;Node6</title>
<path fill="none" stroke="midnightblue" d="M227.06,-44.48C237.35,-41.05 248.4,-37.37 259.06,-33.81"/>
<polygon fill="midnightblue" stroke="midnightblue" points="260.32,-37.08 268.7,-30.6 258.1,-30.44 260.32,-37.08"/>
</g>
<!-- Node6&#45;&gt;Node4 -->
<g id="edge7" class="edge">
<title>Node6&#45;&gt;Node4</title>
<path fill="none" stroke="midnightblue" d="M363.79,-30.52C374.82,-33.99 386.66,-37.71 398.07,-41.29"/>
<polygon fill="midnightblue" stroke="midnightblue" points="397.36,-44.74 407.95,-44.4 399.46,-38.06 397.36,-44.74"/>
</g>
</g>
</svg>
