<?xml version="1.0" encoding="UTF-8" standalone="no"?>
<!DOCTYPE svg PUBLIC "-//W3C//DTD SVG 1.1//EN"
 "http://www.w3.org/Graphics/SVG/1.1/DTD/svg11.dtd">
<!-- Generated by graphviz version 2.44.0 ()
 -->
<!-- Title: parser_module::find_start_value Pages: 1 -->
<!--zoomable 437 -->
<svg id="main" version="1.1" xmlns="http://www.w3.org/2000/svg" xmlns:xlink="http://www.w3.org/1999/xlink" xml:space="preserve" onload="init(evt)">
<style type="text/css"><![CDATA[
.edge:hover path { stroke: red; }
.edge:hover polygon { stroke: red; fill: red; }
]]></style>
<script type="text/javascript"><![CDATA[
var edges = document.getElementsByTagName('g');
if (edges && edges.length) {
  for (var i=0;i<edges.length;i++) {
    if (edges[i].id.substr(0,4)=='edge') {
      edges[i].setAttribute('class','edge');
    }
  }
}
]]></script>
        <defs>
                <circle id="rim" cx="0" cy="0" r="7"/>
                <circle id="rim2" cx="0" cy="0" r="3.5"/>
                <g id="zoomPlus">
                        <use xlink:href="#rim" fill="#404040">
                                <set attributeName="fill" to="#808080" begin="zoomplus.mouseover" end="zoomplus.mouseout"/>
                        </use>
                        <path d="M-4,0h8M0,-4v8" fill="none" stroke="white" stroke-width="1.5" pointer-events="none"/>
                </g>
                <g id="zoomMin">
                        <use xlink:href="#rim" fill="#404040">
                                <set attributeName="fill" to="#808080" begin="zoomminus.mouseover" end="zoomminus.mouseout"/>
                        </use>
                        <path d="M-4,0h8" fill="none" stroke="white" stroke-width="1.5" pointer-events="none"/>
                </g>
                <g id="dirArrow">
                        <path fill="none" stroke="white" stroke-width="1.5" d="M0,-3.0v7 M-2.5,-0.5L0,-3.0L2.5,-0.5"/>
                </g>
               <g id="resetDef">
                       <use xlink:href="#rim2" fill="#404040">
                               <set attributeName="fill" to="#808080" begin="reset.mouseover" end="reset.mouseout"/>
                       </use>
               </g>
        </defs>

<script type="text/javascript">
var viewWidth = 1027;
var viewHeight = 437;
var sectionId = 'dynsection-2';
</script>
<script xlink:href="svgpan.js"/>
<svg id="graph" class="graph">
<g id="viewport">
<title>parser_module::find_start_value</title>
<polygon fill="white" stroke="transparent" points="-4,4 -4,-432.87 1023,-432.87 1023,4 -4,4"/>
<!-- Node1 -->
<g id="node1" class="node">
<title>Node1</title>
<g id="a_node1"><a xlink:title="Finds a value of the variable for a given y&#45;value.">
<polygon fill="#bfbfbf" stroke="black" points="0,-208.5 0,-238.5 100,-238.5 100,-208.5 0,-208.5"/>
<text text-anchor="start" x="8" y="-226.5" font-family="Helvetica,sans-Serif" font-size="10.00">parser_module::find</text>
<text text-anchor="middle" x="50" y="-215.5" font-family="Helvetica,sans-Serif" font-size="10.00">_start_value</text>
</a>
</g>
</g>
<!-- Node2 -->
<g id="node2" class="node">
<title>Node2</title>
<g id="a_node2"><a xlink:href="namespaceparser__module.html#a4b68bd8515796701c2b006fe79a0b162" target="_top" xlink:title="Takes a string and evaluates the expression.">
<polygon fill="white" stroke="black" points="136,-208.5 136,-238.5 245,-238.5 245,-208.5 136,-208.5"/>
<text text-anchor="start" x="144" y="-226.5" font-family="Helvetica,sans-Serif" font-size="10.00">parser_module::parse</text>
<text text-anchor="middle" x="190.5" y="-215.5" font-family="Helvetica,sans-Serif" font-size="10.00">_string</text>
</a>
</g>
</g>
<!-- Node1&#45;&gt;Node2 -->
<g id="edge1" class="edge">
<title>Node1&#45;&gt;Node2</title>
<path fill="none" stroke="midnightblue" d="M100.22,-223.5C108.4,-223.5 116.99,-223.5 125.47,-223.5"/>
<polygon fill="midnightblue" stroke="midnightblue" points="125.74,-227 135.74,-223.5 125.74,-220 125.74,-227"/>
</g>
<!-- Node3 -->
<g id="node3" class="node">
<title>Node3</title>
<g id="a_node3"><a xlink:href="namespaceparser__module.html#a5c583c26539a886921a9067fa425bc9c" target="_top" xlink:title="Evaluate a complex string expression.">
<polygon fill="white" stroke="black" points="281,-214 281,-233 403,-233 403,-214 281,-214"/>
<text text-anchor="middle" x="342" y="-221" font-family="Helvetica,sans-Serif" font-size="10.00">parser_module::evaluate</text>
</a>
</g>
</g>
<!-- Node2&#45;&gt;Node3 -->
<g id="edge2" class="edge">
<title>Node2&#45;&gt;Node3</title>
<path fill="none" stroke="midnightblue" d="M245.05,-223.5C253.42,-223.5 262.18,-223.5 270.85,-223.5"/>
<polygon fill="midnightblue" stroke="midnightblue" points="270.97,-227 280.97,-223.5 270.97,-220 270.97,-227"/>
</g>
<!-- Node4 -->
<g id="node4" class="node">
<title>Node4</title>
<g id="a_node4"><a xlink:href="namespaceparser__module.html#ad50643e6694300972743edc44679fbf7" target="_top" xlink:title="Function to perform a function operations.">
<polygon fill="white" stroke="black" points="445.5,-390.5 445.5,-420.5 548.5,-420.5 548.5,-390.5 445.5,-390.5"/>
<text text-anchor="start" x="453.5" y="-408.5" font-family="Helvetica,sans-Serif" font-size="10.00">parser_module::eval</text>
<text text-anchor="middle" x="497" y="-397.5" font-family="Helvetica,sans-Serif" font-size="10.00">_function</text>
</a>
</g>
</g>
<!-- Node3&#45;&gt;Node4 -->
<g id="edge3" class="edge">
<title>Node3&#45;&gt;Node4</title>
<path fill="none" stroke="midnightblue" d="M351.23,-233.29C374.8,-261.33 443.07,-342.54 476.75,-382.6"/>
<polygon fill="midnightblue" stroke="midnightblue" points="474.08,-384.86 483.19,-390.27 479.44,-380.36 474.08,-384.86"/>
</g>
<!-- Node7 -->
<g id="node7" class="node">
<title>Node7</title>
<g id="a_node7"><a xlink:href="namespaceparser__module.html#ae4ed3c6a08e74ffd03282ee7c30d8194" target="_top" xlink:title="Evaluate a simple string expression, without brackets and functions.">
<polygon fill="white" stroke="black" points="448,-276.5 448,-306.5 546,-306.5 546,-276.5 448,-276.5"/>
<text text-anchor="start" x="456" y="-294.5" font-family="Helvetica,sans-Serif" font-size="10.00">parser_module::get</text>
<text text-anchor="middle" x="497" y="-283.5" font-family="Helvetica,sans-Serif" font-size="10.00">_simple_result</text>
</a>
</g>
</g>
<!-- Node3&#45;&gt;Node7 -->
<g id="edge6" class="edge">
<title>Node3&#45;&gt;Node7</title>
<path fill="none" stroke="midnightblue" d="M364.6,-233.1C387.39,-243.23 423.93,-259.47 452.7,-272.25"/>
<polygon fill="midnightblue" stroke="midnightblue" points="451.56,-275.58 462.12,-276.44 454.41,-269.18 451.56,-275.58"/>
</g>
<!-- Node12 -->
<g id="node12" class="node">
<title>Node12</title>
<g id="a_node12"><a xlink:href="namespaceparser__module.html#a4b73870fbca7e3195b5d1efc61c3f039" target="_top" xlink:title="Function to decide whether a character is a number or not (i.e., 0&#45;9).">
<polygon fill="white" stroke="black" points="439,-214 439,-233 555,-233 555,-214 439,-214"/>
<text text-anchor="middle" x="497" y="-221" font-family="Helvetica,sans-Serif" font-size="10.00">parser_module::is_digit</text>
</a>
</g>
</g>
<!-- Node3&#45;&gt;Node12 -->
<g id="edge13" class="edge">
<title>Node3&#45;&gt;Node12</title>
<path fill="none" stroke="midnightblue" d="M403.03,-223.5C411.36,-223.5 419.97,-223.5 428.43,-223.5"/>
<polygon fill="midnightblue" stroke="midnightblue" points="428.64,-227 438.64,-223.5 428.64,-220 428.64,-227"/>
</g>
<!-- Node13 -->
<g id="node13" class="node">
<title>Node13</title>
<g id="a_node13"><a xlink:href="namespaceparser__module.html#af9cbf87119ef07db357b3240c716e462" target="_top" xlink:title="Function to decide whether a character is a mathematical operator or not. Functions (as e....">
<polygon fill="white" stroke="black" points="593.5,-176 593.5,-195 726.5,-195 726.5,-176 593.5,-176"/>
<text text-anchor="middle" x="660" y="-183" font-family="Helvetica,sans-Serif" font-size="10.00">parser_module::is_operator</text>
</a>
</g>
</g>
<!-- Node3&#45;&gt;Node13 -->
<g id="edge14" class="edge">
<title>Node3&#45;&gt;Node13</title>
<path fill="none" stroke="midnightblue" d="M385.84,-213.98C402.38,-210.58 421.51,-206.98 439,-204.5 486.79,-197.73 540.79,-193.02 583.33,-189.99"/>
<polygon fill="midnightblue" stroke="midnightblue" points="583.6,-193.48 593.33,-189.29 583.11,-186.49 583.6,-193.48"/>
</g>
<!-- Node14 -->
<g id="node14" class="node">
<title>Node14</title>
<g id="a_node14"><a xlink:href="namespaceparser__module.html#a3441e2e009e491fac044cc02bc9b144d" target="_top" xlink:title="Store mathematical operators (+&#45;*/) and numbers in arrays.">
<polygon fill="white" stroke="black" points="443.5,-107.5 443.5,-137.5 550.5,-137.5 550.5,-107.5 443.5,-107.5"/>
<text text-anchor="start" x="451.5" y="-125.5" font-family="Helvetica,sans-Serif" font-size="10.00">parser_module::store</text>
<text text-anchor="middle" x="497" y="-114.5" font-family="Helvetica,sans-Serif" font-size="10.00">_digits_operator</text>
</a>
</g>
</g>
<!-- Node3&#45;&gt;Node14 -->
<g id="edge15" class="edge">
<title>Node3&#45;&gt;Node14</title>
<path fill="none" stroke="midnightblue" d="M357.39,-214C381.84,-197.86 432.01,-164.74 464.81,-143.09"/>
<polygon fill="midnightblue" stroke="midnightblue" points="466.74,-146.01 473.15,-137.58 462.88,-140.17 466.74,-146.01"/>
</g>
<!-- Node5 -->
<g id="node5" class="node">
<title>Node5</title>
<g id="a_node5"><a xlink:href="namespaceerror__msg__class.html#a2453d3b7cb363115c046840baa1dfb75" target="_top" xlink:title="Raise a exception with a given error message.">
<polygon fill="white" stroke="black" points="765,-301.5 765,-331.5 879,-331.5 879,-301.5 765,-301.5"/>
<text text-anchor="start" x="773" y="-319.5" font-family="Helvetica,sans-Serif" font-size="10.00">error_msg_class::raise</text>
<text text-anchor="middle" x="822" y="-308.5" font-family="Helvetica,sans-Serif" font-size="10.00">_exception</text>
</a>
</g>
</g>
<!-- Node4&#45;&gt;Node5 -->
<g id="edge4" class="edge">
<title>Node4&#45;&gt;Node5</title>
<path fill="none" stroke="midnightblue" d="M548.93,-418.92C597.31,-428.99 671.06,-437.22 729,-412.5 763.11,-397.94 790.65,-363.84 806.42,-340.47"/>
<polygon fill="midnightblue" stroke="midnightblue" points="809.54,-342.08 812.07,-331.79 803.68,-338.26 809.54,-342.08"/>
</g>
<!-- Node6 -->
<g id="node6" class="node">
<title>Node6</title>
<g id="a_node6"><a xlink:href="namespaceerror__msg__class.html#a7e065585cc806a5c264de1f088266498" target="_top" xlink:title="Converts a given integer to a string.">
<polygon fill="white" stroke="black" points="915,-301.5 915,-331.5 1019,-331.5 1019,-301.5 915,-301.5"/>
<text text-anchor="start" x="923" y="-319.5" font-family="Helvetica,sans-Serif" font-size="10.00">error_msg_class::int</text>
<text text-anchor="middle" x="967" y="-308.5" font-family="Helvetica,sans-Serif" font-size="10.00">_to_str</text>
</a>
</g>
</g>
<!-- Node5&#45;&gt;Node6 -->
<g id="edge5" class="edge">
<title>Node5&#45;&gt;Node6</title>
<path fill="none" stroke="midnightblue" d="M879.11,-316.5C887.45,-316.5 896.09,-316.5 904.54,-316.5"/>
<polygon fill="midnightblue" stroke="midnightblue" points="904.71,-320 914.71,-316.5 904.71,-313 904.71,-320"/>
</g>
<!-- Node7&#45;&gt;Node5 -->
<g id="edge12" class="edge">
<title>Node7&#45;&gt;Node5</title>
<path fill="none" stroke="midnightblue" d="M506.71,-306.88C520.89,-330.14 551.39,-373.36 591,-390.5 647.29,-414.85 671.15,-410.88 729,-390.5 757.67,-380.4 783.99,-357.17 801.07,-339.41"/>
<polygon fill="midnightblue" stroke="midnightblue" points="803.99,-341.41 808.24,-331.71 798.87,-336.64 803.99,-341.41"/>
</g>
<!-- Node8 -->
<g id="node8" class="node">
<title>Node8</title>
<g id="a_node8"><a xlink:href="namespaceparser__module.html#a2cfd49c431619a7d7ded68e9f89bee70" target="_top" xlink:title="Function to decide whether a character is &quot;*&quot; or &quot;/&quot;.">
<polygon fill="white" stroke="black" points="604.5,-350.5 604.5,-380.5 715.5,-380.5 715.5,-350.5 604.5,-350.5"/>
<text text-anchor="start" x="612.5" y="-368.5" font-family="Helvetica,sans-Serif" font-size="10.00">parser_module::is_dot</text>
<text text-anchor="middle" x="660" y="-357.5" font-family="Helvetica,sans-Serif" font-size="10.00">_operator</text>
</a>
</g>
</g>
<!-- Node7&#45;&gt;Node8 -->
<g id="edge7" class="edge">
<title>Node7&#45;&gt;Node8</title>
<path fill="none" stroke="midnightblue" d="M523.52,-306.6C541.91,-317.14 567.53,-331.12 591,-341.5 595.1,-343.31 599.39,-345.09 603.73,-346.81"/>
<polygon fill="midnightblue" stroke="midnightblue" points="602.67,-350.15 613.26,-350.45 605.17,-343.61 602.67,-350.15"/>
</g>
<!-- Node9 -->
<g id="node9" class="node">
<title>Node9</title>
<g id="a_node9"><a xlink:href="namespaceparser__module.html#ae2806c52d9868da3855d28c188a1679e" target="_top" xlink:title="Function to decide whether a character is a &quot;+&quot; or &quot;&#45;&quot;.">
<polygon fill="white" stroke="black" points="603.5,-301.5 603.5,-331.5 716.5,-331.5 716.5,-301.5 603.5,-301.5"/>
<text text-anchor="start" x="611.5" y="-319.5" font-family="Helvetica,sans-Serif" font-size="10.00">parser_module::is_line</text>
<text text-anchor="middle" x="660" y="-308.5" font-family="Helvetica,sans-Serif" font-size="10.00">_operator</text>
</a>
</g>
</g>
<!-- Node7&#45;&gt;Node9 -->
<g id="edge8" class="edge">
<title>Node7&#45;&gt;Node9</title>
<path fill="none" stroke="midnightblue" d="M546.31,-299C561.05,-301.29 577.51,-303.85 593.2,-306.28"/>
<polygon fill="midnightblue" stroke="midnightblue" points="592.96,-309.79 603.38,-307.86 594.03,-302.87 592.96,-309.79"/>
</g>
<!-- Node10 -->
<g id="node10" class="node">
<title>Node10</title>
<g id="a_node10"><a xlink:href="namespaceparser__module.html#a55c1c7aac46e95ec6634aa8a514a90b0" target="_top" xlink:title="Function to decide whether a character is a &quot;^&quot;.">
<polygon fill="white" stroke="black" points="598,-252.5 598,-282.5 722,-282.5 722,-252.5 598,-252.5"/>
<text text-anchor="start" x="606" y="-270.5" font-family="Helvetica,sans-Serif" font-size="10.00">parser_module::is_power</text>
<text text-anchor="middle" x="660" y="-259.5" font-family="Helvetica,sans-Serif" font-size="10.00">_operator</text>
</a>
</g>
</g>
<!-- Node7&#45;&gt;Node10 -->
<g id="edge9" class="edge">
<title>Node7&#45;&gt;Node10</title>
<path fill="none" stroke="midnightblue" d="M546.31,-284.3C559.35,-282.35 573.74,-280.21 587.76,-278.12"/>
<polygon fill="midnightblue" stroke="midnightblue" points="588.49,-281.55 597.87,-276.61 587.46,-274.63 588.49,-281.55"/>
</g>
<!-- Node11 -->
<g id="node11" class="node">
<title>Node11</title>
<g id="a_node11"><a xlink:href="namespaceparser__module.html#a2040007bd269f7920bcfee6840eb41de" target="_top" xlink:title="Function to perform a simple mathematical operation.">
<polygon fill="white" stroke="black" points="597.5,-214 597.5,-233 722.5,-233 722.5,-214 597.5,-214"/>
<text text-anchor="middle" x="660" y="-221" font-family="Helvetica,sans-Serif" font-size="10.00">parser_module::operation</text>
</a>
</g>
</g>
<!-- Node7&#45;&gt;Node11 -->
<g id="edge10" class="edge">
<title>Node7&#45;&gt;Node11</title>
<path fill="none" stroke="midnightblue" d="M523.83,-276.47C542.15,-266.24 567.56,-252.9 591,-243.5 597.75,-240.79 605.01,-238.27 612.19,-235.99"/>
<polygon fill="midnightblue" stroke="midnightblue" points="613.32,-239.3 621.86,-233.04 611.28,-232.61 613.32,-239.3"/>
</g>
<!-- Node11&#45;&gt;Node5 -->
<g id="edge11" class="edge">
<title>Node11&#45;&gt;Node5</title>
<path fill="none" stroke="midnightblue" d="M702.98,-233.1C711.82,-235.87 720.92,-239.31 729,-243.5 754.9,-256.93 780.59,-278.15 798.21,-294.26"/>
<polygon fill="midnightblue" stroke="midnightblue" points="796.01,-297 805.71,-301.26 800.78,-291.88 796.01,-297"/>
</g>
<!-- Node14&#45;&gt;Node5 -->
<g id="edge20" class="edge">
<title>Node14&#45;&gt;Node5</title>
<path fill="none" stroke="midnightblue" d="M550.59,-127.56C609.58,-134.08 700.7,-146.95 729,-166.5 773.65,-197.34 800.63,-257.6 812.97,-291.6"/>
<polygon fill="midnightblue" stroke="midnightblue" points="809.73,-292.96 816.33,-301.25 816.34,-290.66 809.73,-292.96"/>
</g>
<!-- Node14&#45;&gt;Node13 -->
<g id="edge17" class="edge">
<title>Node14&#45;&gt;Node13</title>
<path fill="none" stroke="midnightblue" d="M532.7,-137.61C550.1,-145.05 571.56,-154 591,-161.5 600.72,-165.25 611.31,-169.1 621.18,-172.59"/>
<polygon fill="midnightblue" stroke="midnightblue" points="620.15,-175.94 630.74,-175.94 622.46,-169.33 620.15,-175.94"/>
</g>
<!-- Node15 -->
<g id="node15" class="node">
<title>Node15</title>
<g id="a_node15"><a xlink:href="namespaceparser__module.html#ad490bd346a873a280de4d7d6f343d588" target="_top" xlink:title="Function to define constants.">
<polygon fill="white" stroke="black" points="599,-88.5 599,-118.5 721,-118.5 721,-88.5 599,-88.5"/>
<text text-anchor="start" x="607" y="-106.5" font-family="Helvetica,sans-Serif" font-size="10.00">parser_module::common</text>
<text text-anchor="middle" x="660" y="-95.5" font-family="Helvetica,sans-Serif" font-size="10.00">_variables</text>
</a>
</g>
</g>
<!-- Node14&#45;&gt;Node15 -->
<g id="edge16" class="edge">
<title>Node14&#45;&gt;Node15</title>
<path fill="none" stroke="midnightblue" d="M550.72,-116.28C562.87,-114.84 575.99,-113.3 588.77,-111.79"/>
<polygon fill="midnightblue" stroke="midnightblue" points="589.39,-115.24 598.91,-110.59 588.57,-108.29 589.39,-115.24"/>
</g>
<!-- Node16 -->
<g id="node16" class="node">
<title>Node16</title>
<g id="a_node16"><a xlink:href="namespaceparser__module.html#a7d1134a2461b12dc17514a1970d6b00b" target="_top" xlink:title="Function to decide whether a character can be associated with a number.">
<polygon fill="white" stroke="black" points="591,-50 591,-69 729,-69 729,-50 591,-50"/>
<text text-anchor="middle" x="660" y="-57" font-family="Helvetica,sans-Serif" font-size="10.00">parser_module::is_separator</text>
</a>
</g>
</g>
<!-- Node14&#45;&gt;Node16 -->
<g id="edge18" class="edge">
<title>Node14&#45;&gt;Node16</title>
<path fill="none" stroke="midnightblue" d="M526.77,-107.33C544.88,-98.18 568.91,-86.74 591,-78.5 597.33,-76.14 604.08,-73.91 610.78,-71.88"/>
<polygon fill="midnightblue" stroke="midnightblue" points="611.9,-75.2 620.51,-69.03 609.93,-68.48 611.9,-75.2"/>
</g>
<!-- Node17 -->
<g id="node17" class="node">
<title>Node17</title>
<g id="a_node17"><a xlink:href="namespaceparser__module.html#afbaa22752e33bc2ac2a3437adb34ea52" target="_top" xlink:title="Subroutine to check the parsing string for consistency and correct it.">
<polygon fill="white" stroke="black" points="605.5,-0.5 605.5,-30.5 714.5,-30.5 714.5,-0.5 605.5,-0.5"/>
<text text-anchor="start" x="613.5" y="-18.5" font-family="Helvetica,sans-Serif" font-size="10.00">parser_module::make</text>
<text text-anchor="middle" x="660" y="-7.5" font-family="Helvetica,sans-Serif" font-size="10.00">_pars_str_consistent</text>
</a>
</g>
</g>
<!-- Node14&#45;&gt;Node17 -->
<g id="edge19" class="edge">
<title>Node14&#45;&gt;Node17</title>
<path fill="none" stroke="midnightblue" d="M511.79,-107.3C528.87,-89.25 559.57,-59.23 591,-40.5 594.43,-38.46 598.05,-36.54 601.76,-34.74"/>
<polygon fill="midnightblue" stroke="midnightblue" points="603.45,-37.82 611.14,-30.53 600.58,-31.44 603.45,-37.82"/>
</g>
</g>
</svg>
        <g id="navigator" transform="translate(0 0)" fill="#404254">
                <rect fill="#f2f5e9" fill-opacity="0.5" stroke="#606060" stroke-width=".5" x="0" y="0" width="60" height="60"/>
                <use id="zoomplus" xlink:href="#zoomPlus" x="17" y="9" onmousedown="handleZoom(evt,'in')"/>
                <use id="zoomminus" xlink:href="#zoomMin" x="42" y="9" onmousedown="handleZoom(evt,'out')"/>
                <use id="reset" xlink:href="#resetDef" x="30" y="36" onmousedown="handleReset()"/>
                <g id="arrowUp" xlink:href="#dirArrow" transform="translate(30 24)" onmousedown="handlePan(0,-1)">
                  <use xlink:href="#rim" fill="#404040">
                        <set attributeName="fill" to="#808080" begin="arrowUp.mouseover" end="arrowUp.mouseout"/>
                  </use>
                  <path fill="none" stroke="white" stroke-width="1.5" d="M0,-3.0v7 M-2.5,-0.5L0,-3.0L2.5,-0.5"/>
                </g>
                <g id="arrowRight" xlink:href="#dirArrow" transform="rotate(90) translate(36 -43)" onmousedown="handlePan(1,0)">
                  <use xlink:href="#rim" fill="#404040">
                        <set attributeName="fill" to="#808080" begin="arrowRight.mouseover" end="arrowRight.mouseout"/>
                  </use>
                  <path fill="none" stroke="white" stroke-width="1.5" d="M0,-3.0v7 M-2.5,-0.5L0,-3.0L2.5,-0.5"/>
                </g>
                <g id="arrowDown" xlink:href="#dirArrow" transform="rotate(180) translate(-30 -48)" onmousedown="handlePan(0,1)">
                  <use xlink:href="#rim" fill="#404040">
                        <set attributeName="fill" to="#808080" begin="arrowDown.mouseover" end="arrowDown.mouseout"/>
                  </use>
                  <path fill="none" stroke="white" stroke-width="1.5" d="M0,-3.0v7 M-2.5,-0.5L0,-3.0L2.5,-0.5"/>
                </g>
                <g id="arrowLeft" xlink:href="#dirArrow" transform="rotate(270) translate(-36 17)" onmousedown="handlePan(-1,0)">
                  <use xlink:href="#rim" fill="#404040">
                        <set attributeName="fill" to="#808080" begin="arrowLeft.mouseover" end="arrowLeft.mouseout"/>
                  </use>
                  <path fill="none" stroke="white" stroke-width="1.5" d="M0,-3.0v7 M-2.5,-0.5L0,-3.0L2.5,-0.5"/>
                </g>
        </g>
        <svg viewBox="0 0 15 15" width="100%" height="30px" preserveAspectRatio="xMaxYMin meet">
         <g id="arrow_out" transform="scale(0.3 0.3)">
          <a xlink:href="namespaceparser__module_aeb3f9da839f12180d2a21cae271f4de6_cgraph_org.svg" target="_base">
           <rect id="button" ry="5" rx="5" y="6" x="6" height="38" width="38"
                fill="#f2f5e9" fill-opacity="0.5" stroke="#606060" stroke-width="1.0"/>
           <path id="arrow"
             d="M 11.500037,31.436501 C 11.940474,20.09759 22.043105,11.32322 32.158766,21.979434 L 37.068811,17.246167 C 37.068811,17.246167 37.088388,32 37.088388,32 L 22.160133,31.978069 C 22.160133,31.978069 26.997745,27.140456 26.997745,27.140456 C 18.528582,18.264221 13.291696,25.230495 11.500037,31.436501 z"
             style="fill:#404040;"/>
          </a>
         </g>
        </svg>
</svg>
