<?xml version="1.0" encoding="UTF-8" standalone="no"?>
<!DOCTYPE svg PUBLIC "-//W3C//DTD SVG 1.1//EN"
 "http://www.w3.org/Graphics/SVG/1.1/DTD/svg11.dtd">
<!-- Generated by graphviz version 2.44.0 ()
 -->
<!-- Title: tw_rate_module::readweak_logft Pages: 1 -->
<svg width="621pt" height="256pt"
 viewBox="0.00 0.00 621.00 256.00" xmlns="http://www.w3.org/2000/svg" xmlns:xlink="http://www.w3.org/1999/xlink">
<g id="graph0" class="graph" transform="scale(1 1) rotate(0) translate(4 252)">
<title>tw_rate_module::readweak_logft</title>
<polygon fill="white" stroke="transparent" points="-4,4 -4,-252 617,-252 617,4 -4,4"/>
<!-- Node1 -->
<g id="node1" class="node">
<title>Node1</title>
<g id="a_node1"><a xlink:title="Reads weak reaction rates in log format.">
<polygon fill="#bfbfbf" stroke="black" points="0,-109 0,-139 132,-139 132,-109 0,-109"/>
<text text-anchor="start" x="8" y="-127" font-family="Helvetica,sans-Serif" font-size="10.00">tw_rate_module::readweak</text>
<text text-anchor="middle" x="66" y="-116" font-family="Helvetica,sans-Serif" font-size="10.00">_logft</text>
</a>
</g>
</g>
<!-- Node2 -->
<g id="node2" class="node">
<title>Node2</title>
<g id="a_node2"><a xlink:href="namespacebenam__class.html#ad20c821347dd5f7c08dff59c98e69657" target="_top" xlink:title="Returns the index number of isotope &#39;name&#39;.">
<polygon fill="white" stroke="black" points="187,-228.5 187,-247.5 295,-247.5 295,-228.5 187,-228.5"/>
<text text-anchor="middle" x="241" y="-235.5" font-family="Helvetica,sans-Serif" font-size="10.00">benam_class::benam</text>
</a>
</g>
</g>
<!-- Node1&#45;&gt;Node2 -->
<g id="edge1" class="edge">
<title>Node1&#45;&gt;Node2</title>
<path fill="none" stroke="midnightblue" d="M80.25,-139.14C98.29,-158.91 132.43,-193.41 168,-214 175.46,-218.32 183.81,-222 192.1,-225.08"/>
<polygon fill="midnightblue" stroke="midnightblue" points="191.16,-228.46 201.76,-228.43 193.46,-221.85 191.16,-228.46"/>
</g>
<!-- Node3 -->
<g id="node3" class="node">
<title>Node3</title>
<g id="a_node3"><a xlink:href="namespacemergesort__module.html#a68c6cd380e0fbe122d41846adf3f6a5d" target="_top" xlink:title="Bubblesort of array.">
<polygon fill="white" stroke="black" points="168,-152.5 168,-171.5 314,-171.5 314,-152.5 168,-152.5"/>
<text text-anchor="middle" x="241" y="-159.5" font-family="Helvetica,sans-Serif" font-size="10.00">mergesort_module::bubblesort</text>
</a>
</g>
</g>
<!-- Node1&#45;&gt;Node3 -->
<g id="edge2" class="edge">
<title>Node1&#45;&gt;Node3</title>
<path fill="none" stroke="midnightblue" d="M132.4,-138.37C150.32,-142.3 169.52,-146.52 186.68,-150.29"/>
<polygon fill="midnightblue" stroke="midnightblue" points="185.99,-153.72 196.51,-152.45 187.5,-146.88 185.99,-153.72"/>
</g>
<!-- Node4 -->
<g id="node4" class="node">
<title>Node4</title>
<g id="a_node4"><a xlink:href="namespaceerror__msg__class.html#a7e065585cc806a5c264de1f088266498" target="_top" xlink:title="Converts a given integer to a string.">
<polygon fill="white" stroke="black" points="509,-125 509,-155 613,-155 613,-125 509,-125"/>
<text text-anchor="start" x="517" y="-143" font-family="Helvetica,sans-Serif" font-size="10.00">error_msg_class::int</text>
<text text-anchor="middle" x="561" y="-132" font-family="Helvetica,sans-Serif" font-size="10.00">_to_str</text>
</a>
</g>
</g>
<!-- Node1&#45;&gt;Node4 -->
<g id="edge8" class="edge">
<title>Node1&#45;&gt;Node4</title>
<path fill="none" stroke="midnightblue" d="M86.54,-139.11C105.97,-153.1 137.23,-172.92 168,-181 285.33,-211.82 428.16,-180.29 504.89,-157.99"/>
<polygon fill="midnightblue" stroke="midnightblue" points="506.23,-161.24 514.82,-155.04 504.24,-154.53 506.23,-161.24"/>
</g>
<!-- Node5 -->
<g id="node5" class="node">
<title>Node5</title>
<g id="a_node5"><a xlink:href="namespaceerror__msg__class.html#a2453d3b7cb363115c046840baa1dfb75" target="_top" xlink:title="Raise a exception with a given error message.">
<polygon fill="white" stroke="black" points="354.5,-103 354.5,-133 468.5,-133 468.5,-103 354.5,-103"/>
<text text-anchor="start" x="362.5" y="-121" font-family="Helvetica,sans-Serif" font-size="10.00">error_msg_class::raise</text>
<text text-anchor="middle" x="411.5" y="-110" font-family="Helvetica,sans-Serif" font-size="10.00">_exception</text>
</a>
</g>
</g>
<!-- Node1&#45;&gt;Node5 -->
<g id="edge9" class="edge">
<title>Node1&#45;&gt;Node5</title>
<path fill="none" stroke="midnightblue" d="M132.01,-122.86C192.69,-121.8 282.81,-120.23 343.97,-119.16"/>
<polygon fill="midnightblue" stroke="midnightblue" points="344.34,-122.66 354.28,-118.98 344.22,-115.66 344.34,-122.66"/>
</g>
<!-- Node6 -->
<g id="node6" class="node">
<title>Node6</title>
<g id="a_node6"><a xlink:href="namespacebenam__class.html#a65ba3b223cf1227557d9e4ab1fdab4dd" target="_top" xlink:title="Converts isotope names of weak&#45;table format to the ones in reaclib.">
<polygon fill="white" stroke="black" points="185.5,-0.5 185.5,-19.5 296.5,-19.5 296.5,-0.5 185.5,-0.5"/>
<text text-anchor="middle" x="241" y="-7.5" font-family="Helvetica,sans-Serif" font-size="10.00">benam_class::convert</text>
</a>
</g>
</g>
<!-- Node1&#45;&gt;Node6 -->
<g id="edge6" class="edge">
<title>Node1&#45;&gt;Node6</title>
<path fill="none" stroke="midnightblue" d="M78.98,-108.7C96.34,-87.59 130.53,-49.78 168,-29 171.99,-26.79 176.24,-24.83 180.61,-23.09"/>
<polygon fill="midnightblue" stroke="midnightblue" points="182.08,-26.28 190.32,-19.62 179.73,-19.69 182.08,-26.28"/>
</g>
<!-- Node8 -->
<g id="node8" class="node">
<title>Node8</title>
<g id="a_node8"><a xlink:href="namespacemergesort__module.html#a6276f21e37053ec65a8da23e55cd311c" target="_top" xlink:title="Takes an array and an array with indices to reorder the first array.">
<polygon fill="white" stroke="black" points="175.5,-38.5 175.5,-57.5 306.5,-57.5 306.5,-38.5 175.5,-38.5"/>
<text text-anchor="middle" x="241" y="-45.5" font-family="Helvetica,sans-Serif" font-size="10.00">mergesort_module::reorder</text>
</a>
</g>
</g>
<!-- Node1&#45;&gt;Node8 -->
<g id="edge10" class="edge">
<title>Node1&#45;&gt;Node8</title>
<path fill="none" stroke="midnightblue" d="M89.82,-108.87C109.75,-96.22 139.83,-78.44 168,-67 173.9,-64.61 180.18,-62.43 186.5,-60.48"/>
<polygon fill="midnightblue" stroke="midnightblue" points="187.77,-63.75 196.39,-57.59 185.81,-57.03 187.77,-63.75"/>
</g>
<!-- Node9 -->
<g id="node9" class="node">
<title>Node9</title>
<g id="a_node9"><a xlink:href="namespacetw__rate__module.html#a245abf84e3851a5ce7d9b88a55919e0e" target="_top" xlink:title="Sorts the entries in weak_rate in increasing order of the decaying nuclide.">
<polygon fill="white" stroke="black" points="187.5,-76.5 187.5,-95.5 294.5,-95.5 294.5,-76.5 187.5,-76.5"/>
<text text-anchor="middle" x="241" y="-83.5" font-family="Helvetica,sans-Serif" font-size="10.00">tw_rate_module::sort</text>
</a>
</g>
</g>
<!-- Node1&#45;&gt;Node9 -->
<g id="edge13" class="edge">
<title>Node1&#45;&gt;Node9</title>
<path fill="none" stroke="midnightblue" d="M132.4,-109.63C150.32,-105.7 169.52,-101.48 186.68,-97.71"/>
<polygon fill="midnightblue" stroke="midnightblue" points="187.5,-101.12 196.51,-95.55 185.99,-94.28 187.5,-101.12"/>
</g>
<!-- Node3&#45;&gt;Node4 -->
<g id="edge3" class="edge">
<title>Node3&#45;&gt;Node4</title>
<path fill="none" stroke="midnightblue" d="M314.16,-157.01C369.82,-153.16 445.96,-147.89 498.7,-144.24"/>
<polygon fill="midnightblue" stroke="midnightblue" points="499.18,-147.72 508.92,-143.53 498.7,-140.73 499.18,-147.72"/>
</g>
<!-- Node3&#45;&gt;Node5 -->
<g id="edge4" class="edge">
<title>Node3&#45;&gt;Node5</title>
<path fill="none" stroke="midnightblue" d="M278.56,-152.45C297.87,-147.41 322.16,-141.07 344.62,-135.2"/>
<polygon fill="midnightblue" stroke="midnightblue" points="345.66,-138.55 354.45,-132.64 343.89,-131.78 345.66,-138.55"/>
</g>
<!-- Node5&#45;&gt;Node4 -->
<g id="edge5" class="edge">
<title>Node5&#45;&gt;Node4</title>
<path fill="none" stroke="midnightblue" d="M468.68,-126.38C478.47,-127.84 488.7,-129.37 498.62,-130.84"/>
<polygon fill="midnightblue" stroke="midnightblue" points="498.41,-134.35 508.81,-132.37 499.44,-127.43 498.41,-134.35"/>
</g>
<!-- Node7 -->
<g id="node7" class="node">
<title>Node7</title>
<g id="a_node7"><a xlink:href="namespacebenam__class.html#a230a820332630678a8a7b4fd112cfd63" target="_top" xlink:title="Returns lowercase of input string. Numbers are not changed.">
<polygon fill="white" stroke="black" points="350,-0.5 350,-19.5 473,-19.5 473,-0.5 350,-0.5"/>
<text text-anchor="middle" x="411.5" y="-7.5" font-family="Helvetica,sans-Serif" font-size="10.00">benam_class::lowercase</text>
</a>
</g>
</g>
<!-- Node6&#45;&gt;Node7 -->
<g id="edge7" class="edge">
<title>Node6&#45;&gt;Node7</title>
<path fill="none" stroke="midnightblue" d="M296.71,-10C310.39,-10 325.27,-10 339.62,-10"/>
<polygon fill="midnightblue" stroke="midnightblue" points="339.95,-13.5 349.95,-10 339.95,-6.5 339.95,-13.5"/>
</g>
<!-- Node8&#45;&gt;Node4 -->
<g id="edge11" class="edge">
<title>Node8&#45;&gt;Node4</title>
<path fill="none" stroke="midnightblue" d="M306.58,-55.75C353.66,-62.61 418.48,-74.62 473,-94 491.71,-100.65 511.35,-110.74 527.24,-119.78"/>
<polygon fill="midnightblue" stroke="midnightblue" points="525.71,-122.94 536.12,-124.94 529.23,-116.89 525.71,-122.94"/>
</g>
<!-- Node8&#45;&gt;Node5 -->
<g id="edge12" class="edge">
<title>Node8&#45;&gt;Node5</title>
<path fill="none" stroke="midnightblue" d="M284.78,-57.57C294.52,-60.22 304.73,-63.38 314,-67 335.65,-75.45 358.7,-87.5 376.84,-97.77"/>
<polygon fill="midnightblue" stroke="midnightblue" points="375.43,-101 385.85,-102.95 378.92,-94.93 375.43,-101"/>
</g>
<!-- Node9&#45;&gt;Node5 -->
<g id="edge14" class="edge">
<title>Node9&#45;&gt;Node5</title>
<path fill="none" stroke="midnightblue" d="M292.1,-95.51C308.48,-98.63 326.93,-102.13 344.31,-105.43"/>
<polygon fill="midnightblue" stroke="midnightblue" points="343.92,-108.92 354.4,-107.35 345.23,-102.04 343.92,-108.92"/>
</g>
</g>
</svg>
