<?xml version="1.0" encoding="UTF-8" standalone="no"?>
<!DOCTYPE svg PUBLIC "-//W3C//DTD SVG 1.1//EN"
 "http://www.w3.org/Graphics/SVG/1.1/DTD/svg11.dtd">
<!-- Generated by graphviz version 2.44.0 ()
 -->
<!-- Title: fission_rate_module::check_fission_mass_conservation Pages: 1 -->
<svg width="408pt" height="103pt"
 viewBox="0.00 0.00 408.00 103.14" xmlns="http://www.w3.org/2000/svg" xmlns:xlink="http://www.w3.org/1999/xlink">
<g id="graph0" class="graph" transform="scale(1 1) rotate(0) translate(4 99.14)">
<title>fission_rate_module::check_fission_mass_conservation</title>
<polygon fill="white" stroke="transparent" points="-4,4 -4,-99.14 404,-99.14 404,4 -4,4"/>
<!-- Node1 -->
<g id="node1" class="node">
<title>Node1</title>
<g id="a_node1"><a xlink:title="Check the mass conservation during the fission process.">
<polygon fill="#bfbfbf" stroke="black" points="0,-44 0,-85 110,-85 110,-44 0,-44"/>
<text text-anchor="start" x="8" y="-73" font-family="Helvetica,sans-Serif" font-size="10.00">fission_rate_module</text>
<text text-anchor="start" x="8" y="-62" font-family="Helvetica,sans-Serif" font-size="10.00">::check_fission_mass</text>
<text text-anchor="middle" x="55" y="-51" font-family="Helvetica,sans-Serif" font-size="10.00">_conservation</text>
</a>
</g>
</g>
<!-- Node2 -->
<g id="node2" class="node">
<title>Node2</title>
<g id="a_node2"><a xlink:href="namespaceerror__msg__class.html#a7e065585cc806a5c264de1f088266498" target="_top" xlink:title="Converts a given integer to a string.">
<polygon fill="white" stroke="black" points="296,-46.5 296,-76.5 400,-76.5 400,-46.5 296,-46.5"/>
<text text-anchor="start" x="304" y="-64.5" font-family="Helvetica,sans-Serif" font-size="10.00">error_msg_class::int</text>
<text text-anchor="middle" x="348" y="-53.5" font-family="Helvetica,sans-Serif" font-size="10.00">_to_str</text>
</a>
</g>
</g>
<!-- Node1&#45;&gt;Node2 -->
<g id="edge1" class="edge">
<title>Node1&#45;&gt;Node2</title>
<path fill="none" stroke="midnightblue" d="M110.24,-82.11C121.91,-85.18 134.27,-87.9 146,-89.5 196.2,-96.34 209.95,-97.36 260,-89.5 272.99,-87.46 286.68,-83.81 299.26,-79.8"/>
<polygon fill="midnightblue" stroke="midnightblue" points="300.7,-83.01 309.08,-76.54 298.49,-76.37 300.7,-83.01"/>
</g>
<!-- Node3 -->
<g id="node3" class="node">
<title>Node3</title>
<g id="a_node3"><a xlink:href="namespaceerror__msg__class.html#a5bc9f3b670b725cc43276934b867d801" target="_top" xlink:title="Converts a given real to a string with format &quot;(1pE10.2)&quot;.">
<polygon fill="white" stroke="black" points="147,-49.5 147,-79.5 259,-79.5 259,-49.5 147,-49.5"/>
<text text-anchor="start" x="155" y="-67.5" font-family="Helvetica,sans-Serif" font-size="10.00">error_msg_class::num</text>
<text text-anchor="middle" x="203" y="-56.5" font-family="Helvetica,sans-Serif" font-size="10.00">_to_str</text>
</a>
</g>
</g>
<!-- Node1&#45;&gt;Node3 -->
<g id="edge2" class="edge">
<title>Node1&#45;&gt;Node3</title>
<path fill="none" stroke="midnightblue" d="M110.37,-64.5C118.87,-64.5 127.74,-64.5 136.47,-64.5"/>
<polygon fill="midnightblue" stroke="midnightblue" points="136.62,-68 146.62,-64.5 136.61,-61 136.62,-68"/>
</g>
<!-- Node4 -->
<g id="node4" class="node">
<title>Node4</title>
<g id="a_node4"><a xlink:href="namespaceerror__msg__class.html#a2453d3b7cb363115c046840baa1dfb75" target="_top" xlink:title="Raise a exception with a given error message.">
<polygon fill="white" stroke="black" points="146,-0.5 146,-30.5 260,-30.5 260,-0.5 146,-0.5"/>
<text text-anchor="start" x="154" y="-18.5" font-family="Helvetica,sans-Serif" font-size="10.00">error_msg_class::raise</text>
<text text-anchor="middle" x="203" y="-7.5" font-family="Helvetica,sans-Serif" font-size="10.00">_exception</text>
</a>
</g>
</g>
<!-- Node1&#45;&gt;Node4 -->
<g id="edge3" class="edge">
<title>Node1&#45;&gt;Node4</title>
<path fill="none" stroke="midnightblue" d="M110.37,-46.25C122.52,-42.17 135.41,-37.85 147.57,-33.77"/>
<polygon fill="midnightblue" stroke="midnightblue" points="148.77,-37.06 157.13,-30.56 146.54,-30.42 148.77,-37.06"/>
</g>
<!-- Node4&#45;&gt;Node2 -->
<g id="edge4" class="edge">
<title>Node4&#45;&gt;Node2</title>
<path fill="none" stroke="midnightblue" d="M250.82,-30.56C263.42,-34.61 277.17,-39.04 290.24,-43.24"/>
<polygon fill="midnightblue" stroke="midnightblue" points="289.48,-46.67 300.07,-46.4 291.62,-40.01 289.48,-46.67"/>
</g>
</g>
</svg>
