<?xml version="1.0" encoding="UTF-8" standalone="no"?>
<!DOCTYPE svg PUBLIC "-//W3C//DTD SVG 1.1//EN"
 "http://www.w3.org/Graphics/SVG/1.1/DTD/svg11.dtd">
<!-- Generated by graphviz version 2.44.0 ()
 -->
<!-- Title: qawfe Pages: 1 -->
<svg width="285pt" height="180pt"
 viewBox="0.00 0.00 285.00 180.00" xmlns="http://www.w3.org/2000/svg" xmlns:xlink="http://www.w3.org/1999/xlink">
<g id="graph0" class="graph" transform="scale(1 1) rotate(0) translate(4 176)">
<title>qawfe</title>
<polygon fill="white" stroke="transparent" points="-4,4 -4,-176 281,-176 281,4 -4,4"/>
<!-- Node1 -->
<g id="node1" class="node">
<title>Node1</title>
<g id="a_node1"><a xlink:title=" ">
<polygon fill="#bfbfbf" stroke="black" points="0,-38.5 0,-57.5 43,-57.5 43,-38.5 0,-38.5"/>
<text text-anchor="middle" x="21.5" y="-45.5" font-family="Helvetica,sans-Serif" font-size="10.00">qawfe</text>
</a>
</g>
</g>
<!-- Node2 -->
<g id="node2" class="node">
<title>Node2</title>
<g id="a_node2"><a xlink:href="quadpack__module_8f90.html#ac59eaf7c56c1d421d129425895fa0107" target="_top" xlink:title=" ">
<polygon fill="white" stroke="black" points="80.5,-0.5 80.5,-19.5 115.5,-19.5 115.5,-0.5 80.5,-0.5"/>
<text text-anchor="middle" x="98" y="-7.5" font-family="Helvetica,sans-Serif" font-size="10.00">qagi</text>
</a>
</g>
</g>
<!-- Node1&#45;&gt;Node2 -->
<g id="edge1" class="edge">
<title>Node1&#45;&gt;Node2</title>
<path fill="none" stroke="midnightblue" d="M41.3,-38.41C50.45,-33.75 61.58,-28.07 71.48,-23.02"/>
<polygon fill="midnightblue" stroke="midnightblue" points="73.17,-26.08 80.49,-18.42 69.99,-19.85 73.17,-26.08"/>
</g>
<!-- Node3 -->
<g id="node3" class="node">
<title>Node3</title>
<g id="a_node3"><a xlink:href="quadpack__module_8f90.html#a5a75101d080f224c63adde98a0e64386" target="_top" xlink:title=" ">
<polygon fill="white" stroke="black" points="155.5,-38.5 155.5,-57.5 193.5,-57.5 193.5,-38.5 155.5,-38.5"/>
<text text-anchor="middle" x="174.5" y="-45.5" font-family="Helvetica,sans-Serif" font-size="10.00">qextr</text>
</a>
</g>
</g>
<!-- Node1&#45;&gt;Node3 -->
<g id="edge5" class="edge">
<title>Node1&#45;&gt;Node3</title>
<path fill="none" stroke="midnightblue" d="M43.18,-48C69.65,-48 115.63,-48 145.3,-48"/>
<polygon fill="midnightblue" stroke="midnightblue" points="145.43,-51.5 155.43,-48 145.43,-44.5 145.43,-51.5"/>
</g>
<!-- Node6 -->
<g id="node6" class="node">
<title>Node6</title>
<g id="a_node6"><a xlink:href="quadpack__module_8f90.html#abbba06307e0e8c4daa2651945570ba1c" target="_top" xlink:title=" ">
<polygon fill="white" stroke="black" points="79,-76.5 79,-95.5 117,-95.5 117,-76.5 79,-76.5"/>
<text text-anchor="middle" x="98" y="-83.5" font-family="Helvetica,sans-Serif" font-size="10.00">qfour</text>
</a>
</g>
</g>
<!-- Node1&#45;&gt;Node6 -->
<g id="edge6" class="edge">
<title>Node1&#45;&gt;Node6</title>
<path fill="none" stroke="midnightblue" d="M41.3,-57.59C49.96,-62.01 60.41,-67.34 69.9,-72.18"/>
<polygon fill="midnightblue" stroke="midnightblue" points="68.48,-75.38 78.98,-76.81 71.66,-69.15 68.48,-75.38"/>
</g>
<!-- Node2&#45;&gt;Node3 -->
<g id="edge2" class="edge">
<title>Node2&#45;&gt;Node3</title>
<path fill="none" stroke="midnightblue" d="M115.53,-18.43C124.59,-23.05 136.05,-28.9 146.38,-34.17"/>
<polygon fill="midnightblue" stroke="midnightblue" points="144.95,-37.37 155.45,-38.79 148.13,-31.13 144.95,-37.37"/>
</g>
<!-- Node4 -->
<g id="node4" class="node">
<title>Node4</title>
<g id="a_node4"><a xlink:href="quadpack__module_8f90.html#a59164415fc33f2f3bf4ebc4ee2220f7e" target="_top" xlink:title=" ">
<polygon fill="white" stroke="black" points="154.5,-0.5 154.5,-19.5 194.5,-19.5 194.5,-0.5 154.5,-0.5"/>
<text text-anchor="middle" x="174.5" y="-7.5" font-family="Helvetica,sans-Serif" font-size="10.00">qk15i</text>
</a>
</g>
</g>
<!-- Node2&#45;&gt;Node4 -->
<g id="edge3" class="edge">
<title>Node2&#45;&gt;Node4</title>
<path fill="none" stroke="midnightblue" d="M115.53,-10C123.97,-10 134.49,-10 144.24,-10"/>
<polygon fill="midnightblue" stroke="midnightblue" points="144.38,-13.5 154.38,-10 144.38,-6.5 144.38,-13.5"/>
</g>
<!-- Node5 -->
<g id="node5" class="node">
<title>Node5</title>
<g id="a_node5"><a xlink:href="quadpack__module_8f90.html#a55e08a684c5a6315fb37dd0fdc66d8e6" target="_top" xlink:title=" ">
<polygon fill="white" stroke="black" points="155.5,-76.5 155.5,-95.5 193.5,-95.5 193.5,-76.5 155.5,-76.5"/>
<text text-anchor="middle" x="174.5" y="-83.5" font-family="Helvetica,sans-Serif" font-size="10.00">qsort</text>
</a>
</g>
</g>
<!-- Node2&#45;&gt;Node5 -->
<g id="edge4" class="edge">
<title>Node2&#45;&gt;Node5</title>
<path fill="none" stroke="midnightblue" d="M107.98,-19.87C118.55,-31.38 136.72,-50.9 153,-67 153.79,-67.78 154.61,-68.58 155.44,-69.38"/>
<polygon fill="midnightblue" stroke="midnightblue" points="153.27,-72.15 162.95,-76.46 158.07,-67.06 153.27,-72.15"/>
</g>
<!-- Node6&#45;&gt;Node3 -->
<g id="edge11" class="edge">
<title>Node6&#45;&gt;Node3</title>
<path fill="none" stroke="midnightblue" d="M117.03,-76.8C125.85,-72.31 136.63,-66.81 146.41,-61.82"/>
<polygon fill="midnightblue" stroke="midnightblue" points="148.06,-64.91 155.37,-57.25 144.88,-58.67 148.06,-64.91"/>
</g>
<!-- Node6&#45;&gt;Node5 -->
<g id="edge12" class="edge">
<title>Node6&#45;&gt;Node5</title>
<path fill="none" stroke="midnightblue" d="M117.03,-86C125.48,-86 135.75,-86 145.19,-86"/>
<polygon fill="midnightblue" stroke="midnightblue" points="145.37,-89.5 155.37,-86 145.37,-82.5 145.37,-89.5"/>
</g>
<!-- Node7 -->
<g id="node7" class="node">
<title>Node7</title>
<g id="a_node7"><a xlink:href="quadpack__module_8f90.html#ab0843f4831942d2c9bf3430cb71aca06" target="_top" xlink:title=" ">
<polygon fill="white" stroke="black" points="153,-114.5 153,-133.5 196,-133.5 196,-114.5 153,-114.5"/>
<text text-anchor="middle" x="174.5" y="-121.5" font-family="Helvetica,sans-Serif" font-size="10.00">qc25o</text>
</a>
</g>
</g>
<!-- Node6&#45;&gt;Node7 -->
<g id="edge7" class="edge">
<title>Node6&#45;&gt;Node7</title>
<path fill="none" stroke="midnightblue" d="M117.03,-95.2C125.63,-99.58 136.09,-104.92 145.67,-109.81"/>
<polygon fill="midnightblue" stroke="midnightblue" points="144.36,-113.06 154.85,-114.49 147.54,-106.83 144.36,-113.06"/>
</g>
<!-- Node8 -->
<g id="node8" class="node">
<title>Node8</title>
<g id="a_node8"><a xlink:href="quadpack__module_8f90.html#ad5beefcfdb335ea68ccf8397536c8c36" target="_top" xlink:title=" ">
<polygon fill="white" stroke="black" points="233,-152.5 233,-171.5 276,-171.5 276,-152.5 233,-152.5"/>
<text text-anchor="middle" x="254.5" y="-159.5" font-family="Helvetica,sans-Serif" font-size="10.00">qcheb</text>
</a>
</g>
</g>
<!-- Node7&#45;&gt;Node8 -->
<g id="edge8" class="edge">
<title>Node7&#45;&gt;Node8</title>
<path fill="none" stroke="midnightblue" d="M195.18,-133.59C204.14,-137.95 214.92,-143.21 224.77,-148"/>
<polygon fill="midnightblue" stroke="midnightblue" points="223.3,-151.18 233.82,-152.41 226.37,-144.89 223.3,-151.18"/>
</g>
<!-- Node9 -->
<g id="node9" class="node">
<title>Node9</title>
<g id="a_node9"><a xlink:href="quadpack__module_8f90.html#a0c083838940925726abd5bc85fa29587" target="_top" xlink:title=" ">
<polygon fill="white" stroke="black" points="232,-114.5 232,-133.5 277,-133.5 277,-114.5 232,-114.5"/>
<text text-anchor="middle" x="254.5" y="-121.5" font-family="Helvetica,sans-Serif" font-size="10.00">qk15w</text>
</a>
</g>
</g>
<!-- Node7&#45;&gt;Node9 -->
<g id="edge9" class="edge">
<title>Node7&#45;&gt;Node9</title>
<path fill="none" stroke="midnightblue" d="M196.4,-124C204.23,-124 213.31,-124 221.89,-124"/>
<polygon fill="midnightblue" stroke="midnightblue" points="222,-127.5 232,-124 222,-120.5 222,-127.5"/>
</g>
<!-- Node10 -->
<g id="node10" class="node">
<title>Node10</title>
<g id="a_node10"><a xlink:href="quadpack__module_8f90.html#a4d09bff14f1d979ebc37730c4a991469" target="_top" xlink:title=" ">
<polygon fill="white" stroke="black" points="233,-76.5 233,-95.5 276,-95.5 276,-76.5 233,-76.5"/>
<text text-anchor="middle" x="254.5" y="-83.5" font-family="Helvetica,sans-Serif" font-size="10.00">qwgto</text>
</a>
</g>
</g>
<!-- Node7&#45;&gt;Node10 -->
<g id="edge10" class="edge">
<title>Node7&#45;&gt;Node10</title>
<path fill="none" stroke="midnightblue" d="M195.18,-114.41C204.14,-110.05 214.92,-104.79 224.77,-100"/>
<polygon fill="midnightblue" stroke="midnightblue" points="226.37,-103.11 233.82,-95.59 223.3,-96.82 226.37,-103.11"/>
</g>
</g>
</svg>
