<?xml version="1.0" encoding="UTF-8" standalone="no"?>
<!DOCTYPE svg PUBLIC "-//W3C//DTD SVG 1.1//EN"
 "http://www.w3.org/Graphics/SVG/1.1/DTD/svg11.dtd">
<!-- Generated by graphviz version 2.44.0 ()
 -->
<!-- Title: qfour Pages: 1 -->
<svg width="206pt" height="142pt"
 viewBox="0.00 0.00 206.00 142.00" xmlns="http://www.w3.org/2000/svg" xmlns:xlink="http://www.w3.org/1999/xlink">
<g id="graph0" class="graph" transform="scale(1 1) rotate(0) translate(4 138)">
<title>qfour</title>
<polygon fill="white" stroke="transparent" points="-4,4 -4,-138 202,-138 202,4 -4,4"/>
<!-- Node1 -->
<g id="node1" class="node">
<title>Node1</title>
<g id="a_node1"><a xlink:title=" ">
<polygon fill="#bfbfbf" stroke="black" points="0,-38.5 0,-57.5 38,-57.5 38,-38.5 0,-38.5"/>
<text text-anchor="middle" x="19" y="-45.5" font-family="Helvetica,sans-Serif" font-size="10.00">qfour</text>
</a>
</g>
</g>
<!-- Node2 -->
<g id="node2" class="node">
<title>Node2</title>
<g id="a_node2"><a xlink:href="quadpack__module_8f90.html#ab0843f4831942d2c9bf3430cb71aca06" target="_top" xlink:title=" ">
<polygon fill="white" stroke="black" points="74,-76.5 74,-95.5 117,-95.5 117,-76.5 74,-76.5"/>
<text text-anchor="middle" x="95.5" y="-83.5" font-family="Helvetica,sans-Serif" font-size="10.00">qc25o</text>
</a>
</g>
</g>
<!-- Node1&#45;&gt;Node2 -->
<g id="edge1" class="edge">
<title>Node1&#45;&gt;Node2</title>
<path fill="none" stroke="midnightblue" d="M38.03,-57.2C46.63,-61.58 57.09,-66.92 66.67,-71.81"/>
<polygon fill="midnightblue" stroke="midnightblue" points="65.36,-75.06 75.85,-76.49 68.54,-68.83 65.36,-75.06"/>
</g>
<!-- Node6 -->
<g id="node6" class="node">
<title>Node6</title>
<g id="a_node6"><a xlink:href="quadpack__module_8f90.html#a5a75101d080f224c63adde98a0e64386" target="_top" xlink:title=" ">
<polygon fill="white" stroke="black" points="76.5,-38.5 76.5,-57.5 114.5,-57.5 114.5,-38.5 76.5,-38.5"/>
<text text-anchor="middle" x="95.5" y="-45.5" font-family="Helvetica,sans-Serif" font-size="10.00">qextr</text>
</a>
</g>
</g>
<!-- Node1&#45;&gt;Node6 -->
<g id="edge5" class="edge">
<title>Node1&#45;&gt;Node6</title>
<path fill="none" stroke="midnightblue" d="M38.03,-48C46.48,-48 56.75,-48 66.19,-48"/>
<polygon fill="midnightblue" stroke="midnightblue" points="66.37,-51.5 76.37,-48 66.37,-44.5 66.37,-51.5"/>
</g>
<!-- Node7 -->
<g id="node7" class="node">
<title>Node7</title>
<g id="a_node7"><a xlink:href="quadpack__module_8f90.html#a55e08a684c5a6315fb37dd0fdc66d8e6" target="_top" xlink:title=" ">
<polygon fill="white" stroke="black" points="76.5,-0.5 76.5,-19.5 114.5,-19.5 114.5,-0.5 76.5,-0.5"/>
<text text-anchor="middle" x="95.5" y="-7.5" font-family="Helvetica,sans-Serif" font-size="10.00">qsort</text>
</a>
</g>
</g>
<!-- Node1&#45;&gt;Node7 -->
<g id="edge6" class="edge">
<title>Node1&#45;&gt;Node7</title>
<path fill="none" stroke="midnightblue" d="M38.03,-38.8C46.85,-34.31 57.63,-28.81 67.41,-23.82"/>
<polygon fill="midnightblue" stroke="midnightblue" points="69.06,-26.91 76.37,-19.25 65.88,-20.67 69.06,-26.91"/>
</g>
<!-- Node3 -->
<g id="node3" class="node">
<title>Node3</title>
<g id="a_node3"><a xlink:href="quadpack__module_8f90.html#ad5beefcfdb335ea68ccf8397536c8c36" target="_top" xlink:title=" ">
<polygon fill="white" stroke="black" points="154,-114.5 154,-133.5 197,-133.5 197,-114.5 154,-114.5"/>
<text text-anchor="middle" x="175.5" y="-121.5" font-family="Helvetica,sans-Serif" font-size="10.00">qcheb</text>
</a>
</g>
</g>
<!-- Node2&#45;&gt;Node3 -->
<g id="edge2" class="edge">
<title>Node2&#45;&gt;Node3</title>
<path fill="none" stroke="midnightblue" d="M116.18,-95.59C125.14,-99.95 135.92,-105.21 145.77,-110"/>
<polygon fill="midnightblue" stroke="midnightblue" points="144.3,-113.18 154.82,-114.41 147.37,-106.89 144.3,-113.18"/>
</g>
<!-- Node4 -->
<g id="node4" class="node">
<title>Node4</title>
<g id="a_node4"><a xlink:href="quadpack__module_8f90.html#a0c083838940925726abd5bc85fa29587" target="_top" xlink:title=" ">
<polygon fill="white" stroke="black" points="153,-76.5 153,-95.5 198,-95.5 198,-76.5 153,-76.5"/>
<text text-anchor="middle" x="175.5" y="-83.5" font-family="Helvetica,sans-Serif" font-size="10.00">qk15w</text>
</a>
</g>
</g>
<!-- Node2&#45;&gt;Node4 -->
<g id="edge3" class="edge">
<title>Node2&#45;&gt;Node4</title>
<path fill="none" stroke="midnightblue" d="M117.4,-86C125.23,-86 134.31,-86 142.89,-86"/>
<polygon fill="midnightblue" stroke="midnightblue" points="143,-89.5 153,-86 143,-82.5 143,-89.5"/>
</g>
<!-- Node5 -->
<g id="node5" class="node">
<title>Node5</title>
<g id="a_node5"><a xlink:href="quadpack__module_8f90.html#a4d09bff14f1d979ebc37730c4a991469" target="_top" xlink:title=" ">
<polygon fill="white" stroke="black" points="154,-38.5 154,-57.5 197,-57.5 197,-38.5 154,-38.5"/>
<text text-anchor="middle" x="175.5" y="-45.5" font-family="Helvetica,sans-Serif" font-size="10.00">qwgto</text>
</a>
</g>
</g>
<!-- Node2&#45;&gt;Node5 -->
<g id="edge4" class="edge">
<title>Node2&#45;&gt;Node5</title>
<path fill="none" stroke="midnightblue" d="M116.18,-76.41C125.14,-72.05 135.92,-66.79 145.77,-62"/>
<polygon fill="midnightblue" stroke="midnightblue" points="147.37,-65.11 154.82,-57.59 144.3,-58.82 147.37,-65.11"/>
</g>
</g>
</svg>
