<?xml version="1.0" encoding="UTF-8" standalone="no"?>
<!DOCTYPE svg PUBLIC "-//W3C//DTD SVG 1.1//EN"
 "http://www.w3.org/Graphics/SVG/1.1/DTD/svg11.dtd">
<!-- Generated by graphviz version 2.44.0 ()
 -->
<!-- Title: qag Pages: 1 -->
<svg width="188pt" height="256pt"
 viewBox="0.00 0.00 188.00 256.00" xmlns="http://www.w3.org/2000/svg" xmlns:xlink="http://www.w3.org/1999/xlink">
<g id="graph0" class="graph" transform="scale(1 1) rotate(0) translate(4 252)">
<title>qag</title>
<polygon fill="white" stroke="transparent" points="-4,4 -4,-252 184,-252 184,4 -4,4"/>
<!-- Node1 -->
<g id="node1" class="node">
<title>Node1</title>
<g id="a_node1"><a xlink:title=" ">
<polygon fill="#bfbfbf" stroke="black" points="0,-114.5 0,-133.5 32,-133.5 32,-114.5 0,-114.5"/>
<text text-anchor="middle" x="16" y="-121.5" font-family="Helvetica,sans-Serif" font-size="10.00">qag</text>
</a>
</g>
</g>
<!-- Node2 -->
<g id="node2" class="node">
<title>Node2</title>
<g id="a_node2"><a xlink:href="quadpack__module_8f90.html#ab602437c218a2c74d6a13f9462f98854" target="_top" xlink:title=" ">
<polygon fill="white" stroke="black" points="68,-114.5 68,-133.5 106,-133.5 106,-114.5 68,-114.5"/>
<text text-anchor="middle" x="87" y="-121.5" font-family="Helvetica,sans-Serif" font-size="10.00">qage</text>
</a>
</g>
</g>
<!-- Node1&#45;&gt;Node2 -->
<g id="edge1" class="edge">
<title>Node1&#45;&gt;Node2</title>
<path fill="none" stroke="midnightblue" d="M32.31,-124C39.77,-124 48.97,-124 57.64,-124"/>
<polygon fill="midnightblue" stroke="midnightblue" points="57.79,-127.5 67.79,-124 57.79,-120.5 57.79,-127.5"/>
</g>
<!-- Node3 -->
<g id="node3" class="node">
<title>Node3</title>
<g id="a_node3"><a xlink:href="quadpack__module_8f90.html#a1722ad5ba07cec52d38c9ebf9df80a2d" target="_top" xlink:title=" ">
<polygon fill="white" stroke="black" points="142,-228.5 142,-247.5 180,-247.5 180,-228.5 142,-228.5"/>
<text text-anchor="middle" x="161" y="-235.5" font-family="Helvetica,sans-Serif" font-size="10.00">qk15</text>
</a>
</g>
</g>
<!-- Node2&#45;&gt;Node3 -->
<g id="edge2" class="edge">
<title>Node2&#45;&gt;Node3</title>
<path fill="none" stroke="midnightblue" d="M92.5,-133.63C100.99,-151.33 120.43,-189.88 142,-219 142.45,-219.6 142.91,-220.21 143.39,-220.81"/>
<polygon fill="midnightblue" stroke="midnightblue" points="140.77,-223.13 149.99,-228.34 146.03,-218.52 140.77,-223.13"/>
</g>
<!-- Node4 -->
<g id="node4" class="node">
<title>Node4</title>
<g id="a_node4"><a xlink:href="quadpack__module_8f90.html#a27241a527b249e9de59a5ed6bee5f805" target="_top" xlink:title=" ">
<polygon fill="white" stroke="black" points="142,-190.5 142,-209.5 180,-209.5 180,-190.5 142,-190.5"/>
<text text-anchor="middle" x="161" y="-197.5" font-family="Helvetica,sans-Serif" font-size="10.00">qk21</text>
</a>
</g>
</g>
<!-- Node2&#45;&gt;Node4 -->
<g id="edge3" class="edge">
<title>Node2&#45;&gt;Node4</title>
<path fill="none" stroke="midnightblue" d="M97.12,-133.63C108.85,-146.01 129.42,-167.72 143.83,-182.94"/>
<polygon fill="midnightblue" stroke="midnightblue" points="141.31,-185.36 150.73,-190.21 146.39,-180.55 141.31,-185.36"/>
</g>
<!-- Node5 -->
<g id="node5" class="node">
<title>Node5</title>
<g id="a_node5"><a xlink:href="quadpack__module_8f90.html#aded2e8dd2218fbd159b78c0e8975a4cd" target="_top" xlink:title=" ">
<polygon fill="white" stroke="black" points="142,-152.5 142,-171.5 180,-171.5 180,-152.5 142,-152.5"/>
<text text-anchor="middle" x="161" y="-159.5" font-family="Helvetica,sans-Serif" font-size="10.00">qk31</text>
</a>
</g>
</g>
<!-- Node2&#45;&gt;Node5 -->
<g id="edge4" class="edge">
<title>Node2&#45;&gt;Node5</title>
<path fill="none" stroke="midnightblue" d="M106.17,-133.59C114.21,-137.83 123.83,-142.91 132.71,-147.6"/>
<polygon fill="midnightblue" stroke="midnightblue" points="131.11,-150.71 141.59,-152.28 134.38,-144.52 131.11,-150.71"/>
</g>
<!-- Node6 -->
<g id="node6" class="node">
<title>Node6</title>
<g id="a_node6"><a xlink:href="quadpack__module_8f90.html#aface4edf24710a0b323f5aaeb6bdec34" target="_top" xlink:title=" ">
<polygon fill="white" stroke="black" points="142,-114.5 142,-133.5 180,-133.5 180,-114.5 142,-114.5"/>
<text text-anchor="middle" x="161" y="-121.5" font-family="Helvetica,sans-Serif" font-size="10.00">qk41</text>
</a>
</g>
</g>
<!-- Node2&#45;&gt;Node6 -->
<g id="edge5" class="edge">
<title>Node2&#45;&gt;Node6</title>
<path fill="none" stroke="midnightblue" d="M106.17,-124C113.87,-124 123.03,-124 131.58,-124"/>
<polygon fill="midnightblue" stroke="midnightblue" points="131.59,-127.5 141.59,-124 131.59,-120.5 131.59,-127.5"/>
</g>
<!-- Node7 -->
<g id="node7" class="node">
<title>Node7</title>
<g id="a_node7"><a xlink:href="quadpack__module_8f90.html#a73edb4987a87a40ebf4731ab63d7f03e" target="_top" xlink:title=" ">
<polygon fill="white" stroke="black" points="142,-76.5 142,-95.5 180,-95.5 180,-76.5 142,-76.5"/>
<text text-anchor="middle" x="161" y="-83.5" font-family="Helvetica,sans-Serif" font-size="10.00">qk51</text>
</a>
</g>
</g>
<!-- Node2&#45;&gt;Node7 -->
<g id="edge6" class="edge">
<title>Node2&#45;&gt;Node7</title>
<path fill="none" stroke="midnightblue" d="M106.17,-114.41C114.21,-110.17 123.83,-105.09 132.71,-100.4"/>
<polygon fill="midnightblue" stroke="midnightblue" points="134.38,-103.48 141.59,-95.72 131.11,-97.29 134.38,-103.48"/>
</g>
<!-- Node8 -->
<g id="node8" class="node">
<title>Node8</title>
<g id="a_node8"><a xlink:href="quadpack__module_8f90.html#acb4a48f5e54a2c5f951d0828e8f8146d" target="_top" xlink:title=" ">
<polygon fill="white" stroke="black" points="142,-38.5 142,-57.5 180,-57.5 180,-38.5 142,-38.5"/>
<text text-anchor="middle" x="161" y="-45.5" font-family="Helvetica,sans-Serif" font-size="10.00">qk61</text>
</a>
</g>
</g>
<!-- Node2&#45;&gt;Node8 -->
<g id="edge7" class="edge">
<title>Node2&#45;&gt;Node8</title>
<path fill="none" stroke="midnightblue" d="M97.12,-114.37C108.85,-101.99 129.42,-80.28 143.83,-65.06"/>
<polygon fill="midnightblue" stroke="midnightblue" points="146.39,-67.45 150.73,-57.79 141.31,-62.64 146.39,-67.45"/>
</g>
<!-- Node9 -->
<g id="node9" class="node">
<title>Node9</title>
<g id="a_node9"><a xlink:href="quadpack__module_8f90.html#a55e08a684c5a6315fb37dd0fdc66d8e6" target="_top" xlink:title=" ">
<polygon fill="white" stroke="black" points="142,-0.5 142,-19.5 180,-19.5 180,-0.5 142,-0.5"/>
<text text-anchor="middle" x="161" y="-7.5" font-family="Helvetica,sans-Serif" font-size="10.00">qsort</text>
</a>
</g>
</g>
<!-- Node2&#45;&gt;Node9 -->
<g id="edge8" class="edge">
<title>Node2&#45;&gt;Node9</title>
<path fill="none" stroke="midnightblue" d="M92.5,-114.37C100.99,-96.67 120.43,-58.12 142,-29 142.45,-28.4 142.91,-27.79 143.39,-27.19"/>
<polygon fill="midnightblue" stroke="midnightblue" points="146.03,-29.48 149.99,-19.66 140.77,-24.87 146.03,-29.48"/>
</g>
</g>
</svg>
