<?xml version="1.0" encoding="UTF-8" standalone="no"?>
<!DOCTYPE svg PUBLIC "-//W3C//DTD SVG 1.1//EN"
 "http://www.w3.org/Graphics/SVG/1.1/DTD/svg11.dtd">
<!-- Generated by graphviz version 2.44.0 ()
 -->
<!-- Title: qawse Pages: 1 -->
<svg width="219pt" height="142pt"
 viewBox="0.00 0.00 219.00 142.00" xmlns="http://www.w3.org/2000/svg" xmlns:xlink="http://www.w3.org/1999/xlink">
<g id="graph0" class="graph" transform="scale(1 1) rotate(0) translate(4 138)">
<title>qawse</title>
<polygon fill="white" stroke="transparent" points="-4,4 -4,-138 215,-138 215,4 -4,4"/>
<!-- Node1 -->
<g id="node1" class="node">
<title>Node1</title>
<g id="a_node1"><a xlink:title=" ">
<polygon fill="#bfbfbf" stroke="black" points="0,-38.5 0,-57.5 45,-57.5 45,-38.5 0,-38.5"/>
<text text-anchor="middle" x="22.5" y="-45.5" font-family="Helvetica,sans-Serif" font-size="10.00">qawse</text>
</a>
</g>
</g>
<!-- Node2 -->
<g id="node2" class="node">
<title>Node2</title>
<g id="a_node2"><a xlink:href="quadpack__module_8f90.html#a034546450320f53f05096bc12af9b5bc" target="_top" xlink:title=" ">
<polygon fill="white" stroke="black" points="84,-76.5 84,-95.5 127,-95.5 127,-76.5 84,-76.5"/>
<text text-anchor="middle" x="105.5" y="-83.5" font-family="Helvetica,sans-Serif" font-size="10.00">qc25s</text>
</a>
</g>
</g>
<!-- Node1&#45;&gt;Node2 -->
<g id="edge1" class="edge">
<title>Node1&#45;&gt;Node2</title>
<path fill="none" stroke="midnightblue" d="M43.94,-57.59C53.34,-62 64.67,-67.31 74.98,-72.15"/>
<polygon fill="midnightblue" stroke="midnightblue" points="73.53,-75.34 84.07,-76.41 76.5,-69 73.53,-75.34"/>
</g>
<!-- Node6 -->
<g id="node6" class="node">
<title>Node6</title>
<g id="a_node6"><a xlink:href="quadpack__module_8f90.html#aa732651ae77f9486d6e3d17999c699ab" target="_top" xlink:title=" ">
<polygon fill="white" stroke="black" points="81,-38.5 81,-57.5 130,-57.5 130,-38.5 81,-38.5"/>
<text text-anchor="middle" x="105.5" y="-45.5" font-family="Helvetica,sans-Serif" font-size="10.00">qmomo</text>
</a>
</g>
</g>
<!-- Node1&#45;&gt;Node6 -->
<g id="edge5" class="edge">
<title>Node1&#45;&gt;Node6</title>
<path fill="none" stroke="midnightblue" d="M45.21,-48C53,-48 61.99,-48 70.58,-48"/>
<polygon fill="midnightblue" stroke="midnightblue" points="70.74,-51.5 80.74,-48 70.74,-44.5 70.74,-51.5"/>
</g>
<!-- Node7 -->
<g id="node7" class="node">
<title>Node7</title>
<g id="a_node7"><a xlink:href="quadpack__module_8f90.html#a55e08a684c5a6315fb37dd0fdc66d8e6" target="_top" xlink:title=" ">
<polygon fill="white" stroke="black" points="86.5,-0.5 86.5,-19.5 124.5,-19.5 124.5,-0.5 86.5,-0.5"/>
<text text-anchor="middle" x="105.5" y="-7.5" font-family="Helvetica,sans-Serif" font-size="10.00">qsort</text>
</a>
</g>
</g>
<!-- Node1&#45;&gt;Node7 -->
<g id="edge6" class="edge">
<title>Node1&#45;&gt;Node7</title>
<path fill="none" stroke="midnightblue" d="M43.94,-38.41C54.02,-33.68 66.31,-27.92 77.18,-22.82"/>
<polygon fill="midnightblue" stroke="midnightblue" points="78.71,-25.96 86.28,-18.55 75.74,-19.63 78.71,-25.96"/>
</g>
<!-- Node3 -->
<g id="node3" class="node">
<title>Node3</title>
<g id="a_node3"><a xlink:href="quadpack__module_8f90.html#ad5beefcfdb335ea68ccf8397536c8c36" target="_top" xlink:title=" ">
<polygon fill="white" stroke="black" points="167,-114.5 167,-133.5 210,-133.5 210,-114.5 167,-114.5"/>
<text text-anchor="middle" x="188.5" y="-121.5" font-family="Helvetica,sans-Serif" font-size="10.00">qcheb</text>
</a>
</g>
</g>
<!-- Node2&#45;&gt;Node3 -->
<g id="edge2" class="edge">
<title>Node2&#45;&gt;Node3</title>
<path fill="none" stroke="midnightblue" d="M126.94,-95.59C136.34,-100 147.67,-105.31 157.98,-110.15"/>
<polygon fill="midnightblue" stroke="midnightblue" points="156.53,-113.34 167.07,-114.41 159.5,-107 156.53,-113.34"/>
</g>
<!-- Node4 -->
<g id="node4" class="node">
<title>Node4</title>
<g id="a_node4"><a xlink:href="quadpack__module_8f90.html#a0c083838940925726abd5bc85fa29587" target="_top" xlink:title=" ">
<polygon fill="white" stroke="black" points="166,-76.5 166,-95.5 211,-95.5 211,-76.5 166,-76.5"/>
<text text-anchor="middle" x="188.5" y="-83.5" font-family="Helvetica,sans-Serif" font-size="10.00">qk15w</text>
</a>
</g>
</g>
<!-- Node2&#45;&gt;Node4 -->
<g id="edge3" class="edge">
<title>Node2&#45;&gt;Node4</title>
<path fill="none" stroke="midnightblue" d="M127.36,-86C136.03,-86 146.3,-86 155.86,-86"/>
<polygon fill="midnightblue" stroke="midnightblue" points="155.86,-89.5 165.86,-86 155.86,-82.5 155.86,-89.5"/>
</g>
<!-- Node5 -->
<g id="node5" class="node">
<title>Node5</title>
<g id="a_node5"><a xlink:href="quadpack__module_8f90.html#aa97ea31aac425488075c67dca72e9108" target="_top" xlink:title=" ">
<polygon fill="white" stroke="black" points="167,-38.5 167,-57.5 210,-57.5 210,-38.5 167,-38.5"/>
<text text-anchor="middle" x="188.5" y="-45.5" font-family="Helvetica,sans-Serif" font-size="10.00">qwgts</text>
</a>
</g>
</g>
<!-- Node2&#45;&gt;Node5 -->
<g id="edge4" class="edge">
<title>Node2&#45;&gt;Node5</title>
<path fill="none" stroke="midnightblue" d="M126.94,-76.41C136.34,-72 147.67,-66.69 157.98,-61.85"/>
<polygon fill="midnightblue" stroke="midnightblue" points="159.5,-65 167.07,-57.59 156.53,-58.66 159.5,-65"/>
</g>
</g>
</svg>
