<?xml version="1.0" encoding="UTF-8" standalone="no"?>
<!DOCTYPE svg PUBLIC "-//W3C//DTD SVG 1.1//EN"
 "http://www.w3.org/Graphics/SVG/1.1/DTD/svg11.dtd">
<!-- Generated by graphviz version 2.44.0 ()
 -->
<!-- Title: qawce Pages: 1 -->
<svg width="213pt" height="104pt"
 viewBox="0.00 0.00 213.00 104.00" xmlns="http://www.w3.org/2000/svg" xmlns:xlink="http://www.w3.org/1999/xlink">
<g id="graph0" class="graph" transform="scale(1 1) rotate(0) translate(4 100)">
<title>qawce</title>
<polygon fill="white" stroke="transparent" points="-4,4 -4,-100 209,-100 209,4 -4,4"/>
<!-- Node1 -->
<g id="node1" class="node">
<title>Node1</title>
<g id="a_node1"><a xlink:title=" ">
<polygon fill="#bfbfbf" stroke="black" points="0,-19.5 0,-38.5 45,-38.5 45,-19.5 0,-19.5"/>
<text text-anchor="middle" x="22.5" y="-26.5" font-family="Helvetica,sans-Serif" font-size="10.00">qawce</text>
</a>
</g>
</g>
<!-- Node2 -->
<g id="node2" class="node">
<title>Node2</title>
<g id="a_node2"><a xlink:href="quadpack__module_8f90.html#af8148c1623b7cf59159c491cfb1856f4" target="_top" xlink:title=" ">
<polygon fill="white" stroke="black" points="81,-38.5 81,-57.5 124,-57.5 124,-38.5 81,-38.5"/>
<text text-anchor="middle" x="102.5" y="-45.5" font-family="Helvetica,sans-Serif" font-size="10.00">qc25c</text>
</a>
</g>
</g>
<!-- Node1&#45;&gt;Node2 -->
<g id="edge1" class="edge">
<title>Node1&#45;&gt;Node2</title>
<path fill="none" stroke="midnightblue" d="M45.23,-34.29C53.26,-36.25 62.52,-38.51 71.18,-40.61"/>
<polygon fill="midnightblue" stroke="midnightblue" points="70.42,-44.03 80.96,-43 72.07,-37.23 70.42,-44.03"/>
</g>
<!-- Node6 -->
<g id="node6" class="node">
<title>Node6</title>
<g id="a_node6"><a xlink:href="quadpack__module_8f90.html#a55e08a684c5a6315fb37dd0fdc66d8e6" target="_top" xlink:title=" ">
<polygon fill="white" stroke="black" points="83.5,-0.5 83.5,-19.5 121.5,-19.5 121.5,-0.5 83.5,-0.5"/>
<text text-anchor="middle" x="102.5" y="-7.5" font-family="Helvetica,sans-Serif" font-size="10.00">qsort</text>
</a>
</g>
</g>
<!-- Node1&#45;&gt;Node6 -->
<g id="edge5" class="edge">
<title>Node1&#45;&gt;Node6</title>
<path fill="none" stroke="midnightblue" d="M45.23,-23.71C53.94,-21.59 64.09,-19.11 73.36,-16.86"/>
<polygon fill="midnightblue" stroke="midnightblue" points="74.43,-20.2 83.32,-14.43 72.77,-13.4 74.43,-20.2"/>
</g>
<!-- Node3 -->
<g id="node3" class="node">
<title>Node3</title>
<g id="a_node3"><a xlink:href="quadpack__module_8f90.html#ad5beefcfdb335ea68ccf8397536c8c36" target="_top" xlink:title=" ">
<polygon fill="white" stroke="black" points="161,-76.5 161,-95.5 204,-95.5 204,-76.5 161,-76.5"/>
<text text-anchor="middle" x="182.5" y="-83.5" font-family="Helvetica,sans-Serif" font-size="10.00">qcheb</text>
</a>
</g>
</g>
<!-- Node2&#45;&gt;Node3 -->
<g id="edge2" class="edge">
<title>Node2&#45;&gt;Node3</title>
<path fill="none" stroke="midnightblue" d="M123.18,-57.59C132.14,-61.95 142.92,-67.21 152.77,-72"/>
<polygon fill="midnightblue" stroke="midnightblue" points="151.3,-75.18 161.82,-76.41 154.37,-68.89 151.3,-75.18"/>
</g>
<!-- Node4 -->
<g id="node4" class="node">
<title>Node4</title>
<g id="a_node4"><a xlink:href="quadpack__module_8f90.html#a0c083838940925726abd5bc85fa29587" target="_top" xlink:title=" ">
<polygon fill="white" stroke="black" points="160,-38.5 160,-57.5 205,-57.5 205,-38.5 160,-38.5"/>
<text text-anchor="middle" x="182.5" y="-45.5" font-family="Helvetica,sans-Serif" font-size="10.00">qk15w</text>
</a>
</g>
</g>
<!-- Node2&#45;&gt;Node4 -->
<g id="edge3" class="edge">
<title>Node2&#45;&gt;Node4</title>
<path fill="none" stroke="midnightblue" d="M124.4,-48C132.23,-48 141.31,-48 149.89,-48"/>
<polygon fill="midnightblue" stroke="midnightblue" points="150,-51.5 160,-48 150,-44.5 150,-51.5"/>
</g>
<!-- Node5 -->
<g id="node5" class="node">
<title>Node5</title>
<g id="a_node5"><a xlink:href="quadpack__module_8f90.html#aef172e0b582f0b9ce9f6b9ffddb80690" target="_top" xlink:title=" ">
<polygon fill="white" stroke="black" points="161,-0.5 161,-19.5 204,-19.5 204,-0.5 161,-0.5"/>
<text text-anchor="middle" x="182.5" y="-7.5" font-family="Helvetica,sans-Serif" font-size="10.00">qwgtc</text>
</a>
</g>
</g>
<!-- Node2&#45;&gt;Node5 -->
<g id="edge4" class="edge">
<title>Node2&#45;&gt;Node5</title>
<path fill="none" stroke="midnightblue" d="M123.18,-38.41C132.14,-34.05 142.92,-28.79 152.77,-24"/>
<polygon fill="midnightblue" stroke="midnightblue" points="154.37,-27.11 161.82,-19.59 151.3,-20.82 154.37,-27.11"/>
</g>
</g>
</svg>
