<?xml version="1.0" encoding="UTF-8" standalone="no"?>
<!DOCTYPE svg PUBLIC "-//W3C//DTD SVG 1.1//EN"
 "http://www.w3.org/Graphics/SVG/1.1/DTD/svg11.dtd">
<!-- Generated by graphviz version 2.44.0 ()
 -->
<!-- Title: qc25c Pages: 1 -->
<svg width="132pt" height="104pt"
 viewBox="0.00 0.00 132.00 104.00" xmlns="http://www.w3.org/2000/svg" xmlns:xlink="http://www.w3.org/1999/xlink">
<g id="graph0" class="graph" transform="scale(1 1) rotate(0) translate(4 100)">
<title>qc25c</title>
<polygon fill="white" stroke="transparent" points="-4,4 -4,-100 128,-100 128,4 -4,4"/>
<!-- Node1 -->
<g id="node1" class="node">
<title>Node1</title>
<g id="a_node1"><a xlink:title=" ">
<polygon fill="#bfbfbf" stroke="black" points="0,-38.5 0,-57.5 43,-57.5 43,-38.5 0,-38.5"/>
<text text-anchor="middle" x="21.5" y="-45.5" font-family="Helvetica,sans-Serif" font-size="10.00">qc25c</text>
</a>
</g>
</g>
<!-- Node2 -->
<g id="node2" class="node">
<title>Node2</title>
<g id="a_node2"><a xlink:href="quadpack__module_8f90.html#ad5beefcfdb335ea68ccf8397536c8c36" target="_top" xlink:title=" ">
<polygon fill="white" stroke="black" points="80,-76.5 80,-95.5 123,-95.5 123,-76.5 80,-76.5"/>
<text text-anchor="middle" x="101.5" y="-83.5" font-family="Helvetica,sans-Serif" font-size="10.00">qcheb</text>
</a>
</g>
</g>
<!-- Node1&#45;&gt;Node2 -->
<g id="edge1" class="edge">
<title>Node1&#45;&gt;Node2</title>
<path fill="none" stroke="midnightblue" d="M42.18,-57.59C51.14,-61.95 61.92,-67.21 71.77,-72"/>
<polygon fill="midnightblue" stroke="midnightblue" points="70.3,-75.18 80.82,-76.41 73.37,-68.89 70.3,-75.18"/>
</g>
<!-- Node3 -->
<g id="node3" class="node">
<title>Node3</title>
<g id="a_node3"><a xlink:href="quadpack__module_8f90.html#a0c083838940925726abd5bc85fa29587" target="_top" xlink:title=" ">
<polygon fill="white" stroke="black" points="79,-38.5 79,-57.5 124,-57.5 124,-38.5 79,-38.5"/>
<text text-anchor="middle" x="101.5" y="-45.5" font-family="Helvetica,sans-Serif" font-size="10.00">qk15w</text>
</a>
</g>
</g>
<!-- Node1&#45;&gt;Node3 -->
<g id="edge2" class="edge">
<title>Node1&#45;&gt;Node3</title>
<path fill="none" stroke="midnightblue" d="M43.4,-48C51.23,-48 60.31,-48 68.89,-48"/>
<polygon fill="midnightblue" stroke="midnightblue" points="69,-51.5 79,-48 69,-44.5 69,-51.5"/>
</g>
<!-- Node4 -->
<g id="node4" class="node">
<title>Node4</title>
<g id="a_node4"><a xlink:href="quadpack__module_8f90.html#aef172e0b582f0b9ce9f6b9ffddb80690" target="_top" xlink:title=" ">
<polygon fill="white" stroke="black" points="80,-0.5 80,-19.5 123,-19.5 123,-0.5 80,-0.5"/>
<text text-anchor="middle" x="101.5" y="-7.5" font-family="Helvetica,sans-Serif" font-size="10.00">qwgtc</text>
</a>
</g>
</g>
<!-- Node1&#45;&gt;Node4 -->
<g id="edge3" class="edge">
<title>Node1&#45;&gt;Node4</title>
<path fill="none" stroke="midnightblue" d="M42.18,-38.41C51.14,-34.05 61.92,-28.79 71.77,-24"/>
<polygon fill="midnightblue" stroke="midnightblue" points="73.37,-27.11 80.82,-19.59 70.3,-20.82 73.37,-27.11"/>
</g>
</g>
</svg>
