<?xml version="1.0" encoding="UTF-8" standalone="no"?>
<!DOCTYPE svg PUBLIC "-//W3C//DTD SVG 1.1//EN"
 "http://www.w3.org/Graphics/SVG/1.1/DTD/svg11.dtd">
<!-- Generated by graphviz version 2.44.0 ()
 -->
<!-- Title: qawo Pages: 1 -->
<svg width="282pt" height="142pt"
 viewBox="0.00 0.00 282.00 142.00" xmlns="http://www.w3.org/2000/svg" xmlns:xlink="http://www.w3.org/1999/xlink">
<g id="graph0" class="graph" transform="scale(1 1) rotate(0) translate(4 138)">
<title>qawo</title>
<polygon fill="white" stroke="transparent" points="-4,4 -4,-138 278,-138 278,4 -4,4"/>
<!-- Node1 -->
<g id="node1" class="node">
<title>Node1</title>
<g id="a_node1"><a xlink:title=" ">
<polygon fill="#bfbfbf" stroke="black" points="0,-38.5 0,-57.5 40,-57.5 40,-38.5 0,-38.5"/>
<text text-anchor="middle" x="20" y="-45.5" font-family="Helvetica,sans-Serif" font-size="10.00">qawo</text>
</a>
</g>
</g>
<!-- Node2 -->
<g id="node2" class="node">
<title>Node2</title>
<g id="a_node2"><a xlink:href="quadpack__module_8f90.html#abbba06307e0e8c4daa2651945570ba1c" target="_top" xlink:title=" ">
<polygon fill="white" stroke="black" points="76,-38.5 76,-57.5 114,-57.5 114,-38.5 76,-38.5"/>
<text text-anchor="middle" x="95" y="-45.5" font-family="Helvetica,sans-Serif" font-size="10.00">qfour</text>
</a>
</g>
</g>
<!-- Node1&#45;&gt;Node2 -->
<g id="edge1" class="edge">
<title>Node1&#45;&gt;Node2</title>
<path fill="none" stroke="midnightblue" d="M40.18,-48C47.9,-48 56.97,-48 65.44,-48"/>
<polygon fill="midnightblue" stroke="midnightblue" points="65.7,-51.5 75.7,-48 65.7,-44.5 65.7,-51.5"/>
</g>
<!-- Node3 -->
<g id="node3" class="node">
<title>Node3</title>
<g id="a_node3"><a xlink:href="quadpack__module_8f90.html#ab0843f4831942d2c9bf3430cb71aca06" target="_top" xlink:title=" ">
<polygon fill="white" stroke="black" points="150,-76.5 150,-95.5 193,-95.5 193,-76.5 150,-76.5"/>
<text text-anchor="middle" x="171.5" y="-83.5" font-family="Helvetica,sans-Serif" font-size="10.00">qc25o</text>
</a>
</g>
</g>
<!-- Node2&#45;&gt;Node3 -->
<g id="edge2" class="edge">
<title>Node2&#45;&gt;Node3</title>
<path fill="none" stroke="midnightblue" d="M114.03,-57.2C122.63,-61.58 133.09,-66.92 142.67,-71.81"/>
<polygon fill="midnightblue" stroke="midnightblue" points="141.36,-75.06 151.85,-76.49 144.54,-68.83 141.36,-75.06"/>
</g>
<!-- Node7 -->
<g id="node7" class="node">
<title>Node7</title>
<g id="a_node7"><a xlink:href="quadpack__module_8f90.html#a5a75101d080f224c63adde98a0e64386" target="_top" xlink:title=" ">
<polygon fill="white" stroke="black" points="152.5,-38.5 152.5,-57.5 190.5,-57.5 190.5,-38.5 152.5,-38.5"/>
<text text-anchor="middle" x="171.5" y="-45.5" font-family="Helvetica,sans-Serif" font-size="10.00">qextr</text>
</a>
</g>
</g>
<!-- Node2&#45;&gt;Node7 -->
<g id="edge6" class="edge">
<title>Node2&#45;&gt;Node7</title>
<path fill="none" stroke="midnightblue" d="M114.03,-48C122.48,-48 132.75,-48 142.19,-48"/>
<polygon fill="midnightblue" stroke="midnightblue" points="142.37,-51.5 152.37,-48 142.37,-44.5 142.37,-51.5"/>
</g>
<!-- Node8 -->
<g id="node8" class="node">
<title>Node8</title>
<g id="a_node8"><a xlink:href="quadpack__module_8f90.html#a55e08a684c5a6315fb37dd0fdc66d8e6" target="_top" xlink:title=" ">
<polygon fill="white" stroke="black" points="152.5,-0.5 152.5,-19.5 190.5,-19.5 190.5,-0.5 152.5,-0.5"/>
<text text-anchor="middle" x="171.5" y="-7.5" font-family="Helvetica,sans-Serif" font-size="10.00">qsort</text>
</a>
</g>
</g>
<!-- Node2&#45;&gt;Node8 -->
<g id="edge7" class="edge">
<title>Node2&#45;&gt;Node8</title>
<path fill="none" stroke="midnightblue" d="M114.03,-38.8C122.85,-34.31 133.63,-28.81 143.41,-23.82"/>
<polygon fill="midnightblue" stroke="midnightblue" points="145.06,-26.91 152.37,-19.25 141.88,-20.67 145.06,-26.91"/>
</g>
<!-- Node4 -->
<g id="node4" class="node">
<title>Node4</title>
<g id="a_node4"><a xlink:href="quadpack__module_8f90.html#ad5beefcfdb335ea68ccf8397536c8c36" target="_top" xlink:title=" ">
<polygon fill="white" stroke="black" points="230,-114.5 230,-133.5 273,-133.5 273,-114.5 230,-114.5"/>
<text text-anchor="middle" x="251.5" y="-121.5" font-family="Helvetica,sans-Serif" font-size="10.00">qcheb</text>
</a>
</g>
</g>
<!-- Node3&#45;&gt;Node4 -->
<g id="edge3" class="edge">
<title>Node3&#45;&gt;Node4</title>
<path fill="none" stroke="midnightblue" d="M192.18,-95.59C201.14,-99.95 211.92,-105.21 221.77,-110"/>
<polygon fill="midnightblue" stroke="midnightblue" points="220.3,-113.18 230.82,-114.41 223.37,-106.89 220.3,-113.18"/>
</g>
<!-- Node5 -->
<g id="node5" class="node">
<title>Node5</title>
<g id="a_node5"><a xlink:href="quadpack__module_8f90.html#a0c083838940925726abd5bc85fa29587" target="_top" xlink:title=" ">
<polygon fill="white" stroke="black" points="229,-76.5 229,-95.5 274,-95.5 274,-76.5 229,-76.5"/>
<text text-anchor="middle" x="251.5" y="-83.5" font-family="Helvetica,sans-Serif" font-size="10.00">qk15w</text>
</a>
</g>
</g>
<!-- Node3&#45;&gt;Node5 -->
<g id="edge4" class="edge">
<title>Node3&#45;&gt;Node5</title>
<path fill="none" stroke="midnightblue" d="M193.4,-86C201.23,-86 210.31,-86 218.89,-86"/>
<polygon fill="midnightblue" stroke="midnightblue" points="219,-89.5 229,-86 219,-82.5 219,-89.5"/>
</g>
<!-- Node6 -->
<g id="node6" class="node">
<title>Node6</title>
<g id="a_node6"><a xlink:href="quadpack__module_8f90.html#a4d09bff14f1d979ebc37730c4a991469" target="_top" xlink:title=" ">
<polygon fill="white" stroke="black" points="230,-38.5 230,-57.5 273,-57.5 273,-38.5 230,-38.5"/>
<text text-anchor="middle" x="251.5" y="-45.5" font-family="Helvetica,sans-Serif" font-size="10.00">qwgto</text>
</a>
</g>
</g>
<!-- Node3&#45;&gt;Node6 -->
<g id="edge5" class="edge">
<title>Node3&#45;&gt;Node6</title>
<path fill="none" stroke="midnightblue" d="M192.18,-76.41C201.14,-72.05 211.92,-66.79 221.77,-62"/>
<polygon fill="midnightblue" stroke="midnightblue" points="223.37,-65.11 230.82,-57.59 220.3,-58.82 223.37,-65.11"/>
</g>
</g>
</svg>
