<?xml version="1.0" encoding="UTF-8" standalone="no"?>
<!DOCTYPE svg PUBLIC "-//W3C//DTD SVG 1.1//EN"
 "http://www.w3.org/Graphics/SVG/1.1/DTD/svg11.dtd">
<!-- Generated by graphviz version 2.44.0 ()
 -->
<!-- Title: qage Pages: 1 -->
<svg width="120pt" height="256pt"
 viewBox="0.00 0.00 120.00 256.00" xmlns="http://www.w3.org/2000/svg" xmlns:xlink="http://www.w3.org/1999/xlink">
<g id="graph0" class="graph" transform="scale(1 1) rotate(0) translate(4 252)">
<title>qage</title>
<polygon fill="white" stroke="transparent" points="-4,4 -4,-252 116,-252 116,4 -4,4"/>
<!-- Node1 -->
<g id="node1" class="node">
<title>Node1</title>
<g id="a_node1"><a xlink:title=" ">
<polygon fill="#bfbfbf" stroke="black" points="0,-114.5 0,-133.5 38,-133.5 38,-114.5 0,-114.5"/>
<text text-anchor="middle" x="19" y="-121.5" font-family="Helvetica,sans-Serif" font-size="10.00">qage</text>
</a>
</g>
</g>
<!-- Node2 -->
<g id="node2" class="node">
<title>Node2</title>
<g id="a_node2"><a xlink:href="quadpack__module_8f90.html#a1722ad5ba07cec52d38c9ebf9df80a2d" target="_top" xlink:title=" ">
<polygon fill="white" stroke="black" points="74,-228.5 74,-247.5 112,-247.5 112,-228.5 74,-228.5"/>
<text text-anchor="middle" x="93" y="-235.5" font-family="Helvetica,sans-Serif" font-size="10.00">qk15</text>
</a>
</g>
</g>
<!-- Node1&#45;&gt;Node2 -->
<g id="edge1" class="edge">
<title>Node1&#45;&gt;Node2</title>
<path fill="none" stroke="midnightblue" d="M24.5,-133.63C32.99,-151.33 52.43,-189.88 74,-219 74.45,-219.6 74.91,-220.21 75.39,-220.81"/>
<polygon fill="midnightblue" stroke="midnightblue" points="72.77,-223.13 81.99,-228.34 78.03,-218.52 72.77,-223.13"/>
</g>
<!-- Node3 -->
<g id="node3" class="node">
<title>Node3</title>
<g id="a_node3"><a xlink:href="quadpack__module_8f90.html#a27241a527b249e9de59a5ed6bee5f805" target="_top" xlink:title=" ">
<polygon fill="white" stroke="black" points="74,-190.5 74,-209.5 112,-209.5 112,-190.5 74,-190.5"/>
<text text-anchor="middle" x="93" y="-197.5" font-family="Helvetica,sans-Serif" font-size="10.00">qk21</text>
</a>
</g>
</g>
<!-- Node1&#45;&gt;Node3 -->
<g id="edge2" class="edge">
<title>Node1&#45;&gt;Node3</title>
<path fill="none" stroke="midnightblue" d="M29.12,-133.63C40.85,-146.01 61.42,-167.72 75.83,-182.94"/>
<polygon fill="midnightblue" stroke="midnightblue" points="73.31,-185.36 82.73,-190.21 78.39,-180.55 73.31,-185.36"/>
</g>
<!-- Node4 -->
<g id="node4" class="node">
<title>Node4</title>
<g id="a_node4"><a xlink:href="quadpack__module_8f90.html#aded2e8dd2218fbd159b78c0e8975a4cd" target="_top" xlink:title=" ">
<polygon fill="white" stroke="black" points="74,-152.5 74,-171.5 112,-171.5 112,-152.5 74,-152.5"/>
<text text-anchor="middle" x="93" y="-159.5" font-family="Helvetica,sans-Serif" font-size="10.00">qk31</text>
</a>
</g>
</g>
<!-- Node1&#45;&gt;Node4 -->
<g id="edge3" class="edge">
<title>Node1&#45;&gt;Node4</title>
<path fill="none" stroke="midnightblue" d="M38.17,-133.59C46.21,-137.83 55.83,-142.91 64.71,-147.6"/>
<polygon fill="midnightblue" stroke="midnightblue" points="63.11,-150.71 73.59,-152.28 66.38,-144.52 63.11,-150.71"/>
</g>
<!-- Node5 -->
<g id="node5" class="node">
<title>Node5</title>
<g id="a_node5"><a xlink:href="quadpack__module_8f90.html#aface4edf24710a0b323f5aaeb6bdec34" target="_top" xlink:title=" ">
<polygon fill="white" stroke="black" points="74,-114.5 74,-133.5 112,-133.5 112,-114.5 74,-114.5"/>
<text text-anchor="middle" x="93" y="-121.5" font-family="Helvetica,sans-Serif" font-size="10.00">qk41</text>
</a>
</g>
</g>
<!-- Node1&#45;&gt;Node5 -->
<g id="edge4" class="edge">
<title>Node1&#45;&gt;Node5</title>
<path fill="none" stroke="midnightblue" d="M38.17,-124C45.87,-124 55.03,-124 63.58,-124"/>
<polygon fill="midnightblue" stroke="midnightblue" points="63.59,-127.5 73.59,-124 63.59,-120.5 63.59,-127.5"/>
</g>
<!-- Node6 -->
<g id="node6" class="node">
<title>Node6</title>
<g id="a_node6"><a xlink:href="quadpack__module_8f90.html#a73edb4987a87a40ebf4731ab63d7f03e" target="_top" xlink:title=" ">
<polygon fill="white" stroke="black" points="74,-76.5 74,-95.5 112,-95.5 112,-76.5 74,-76.5"/>
<text text-anchor="middle" x="93" y="-83.5" font-family="Helvetica,sans-Serif" font-size="10.00">qk51</text>
</a>
</g>
</g>
<!-- Node1&#45;&gt;Node6 -->
<g id="edge5" class="edge">
<title>Node1&#45;&gt;Node6</title>
<path fill="none" stroke="midnightblue" d="M38.17,-114.41C46.21,-110.17 55.83,-105.09 64.71,-100.4"/>
<polygon fill="midnightblue" stroke="midnightblue" points="66.38,-103.48 73.59,-95.72 63.11,-97.29 66.38,-103.48"/>
</g>
<!-- Node7 -->
<g id="node7" class="node">
<title>Node7</title>
<g id="a_node7"><a xlink:href="quadpack__module_8f90.html#acb4a48f5e54a2c5f951d0828e8f8146d" target="_top" xlink:title=" ">
<polygon fill="white" stroke="black" points="74,-38.5 74,-57.5 112,-57.5 112,-38.5 74,-38.5"/>
<text text-anchor="middle" x="93" y="-45.5" font-family="Helvetica,sans-Serif" font-size="10.00">qk61</text>
</a>
</g>
</g>
<!-- Node1&#45;&gt;Node7 -->
<g id="edge6" class="edge">
<title>Node1&#45;&gt;Node7</title>
<path fill="none" stroke="midnightblue" d="M29.12,-114.37C40.85,-101.99 61.42,-80.28 75.83,-65.06"/>
<polygon fill="midnightblue" stroke="midnightblue" points="78.39,-67.45 82.73,-57.79 73.31,-62.64 78.39,-67.45"/>
</g>
<!-- Node8 -->
<g id="node8" class="node">
<title>Node8</title>
<g id="a_node8"><a xlink:href="quadpack__module_8f90.html#a55e08a684c5a6315fb37dd0fdc66d8e6" target="_top" xlink:title=" ">
<polygon fill="white" stroke="black" points="74,-0.5 74,-19.5 112,-19.5 112,-0.5 74,-0.5"/>
<text text-anchor="middle" x="93" y="-7.5" font-family="Helvetica,sans-Serif" font-size="10.00">qsort</text>
</a>
</g>
</g>
<!-- Node1&#45;&gt;Node8 -->
<g id="edge7" class="edge">
<title>Node1&#45;&gt;Node8</title>
<path fill="none" stroke="midnightblue" d="M24.5,-114.37C32.99,-96.67 52.43,-58.12 74,-29 74.45,-28.4 74.91,-27.79 75.39,-27.19"/>
<polygon fill="midnightblue" stroke="midnightblue" points="78.03,-29.48 81.99,-19.66 72.77,-24.87 78.03,-29.48"/>
</g>
</g>
</svg>
