<?xml version="1.0" encoding="UTF-8" standalone="no"?>
<!DOCTYPE svg PUBLIC "-//W3C//DTD SVG 1.1//EN"
 "http://www.w3.org/Graphics/SVG/1.1/DTD/svg11.dtd">
<!-- Generated by graphviz version 2.44.0 ()
 -->
<!-- Title: qawf Pages: 1 -->
<svg width="359pt" height="180pt"
 viewBox="0.00 0.00 359.00 180.00" xmlns="http://www.w3.org/2000/svg" xmlns:xlink="http://www.w3.org/1999/xlink">
<g id="graph0" class="graph" transform="scale(1 1) rotate(0) translate(4 176)">
<title>qawf</title>
<polygon fill="white" stroke="transparent" points="-4,4 -4,-176 355,-176 355,4 -4,4"/>
<!-- Node1 -->
<g id="node1" class="node">
<title>Node1</title>
<g id="a_node1"><a xlink:title=" ">
<polygon fill="#bfbfbf" stroke="black" points="0,-38.5 0,-57.5 38,-57.5 38,-38.5 0,-38.5"/>
<text text-anchor="middle" x="19" y="-45.5" font-family="Helvetica,sans-Serif" font-size="10.00">qawf</text>
</a>
</g>
</g>
<!-- Node2 -->
<g id="node2" class="node">
<title>Node2</title>
<g id="a_node2"><a xlink:href="quadpack__module_8f90.html#abe17af7f3ad5cf264791d326bbd15192" target="_top" xlink:title=" ">
<polygon fill="white" stroke="black" points="74,-38.5 74,-57.5 117,-57.5 117,-38.5 74,-38.5"/>
<text text-anchor="middle" x="95.5" y="-45.5" font-family="Helvetica,sans-Serif" font-size="10.00">qawfe</text>
</a>
</g>
</g>
<!-- Node1&#45;&gt;Node2 -->
<g id="edge1" class="edge">
<title>Node1&#45;&gt;Node2</title>
<path fill="none" stroke="midnightblue" d="M38.03,-48C45.69,-48 54.83,-48 63.51,-48"/>
<polygon fill="midnightblue" stroke="midnightblue" points="63.73,-51.5 73.73,-48 63.73,-44.5 63.73,-51.5"/>
</g>
<!-- Node3 -->
<g id="node3" class="node">
<title>Node3</title>
<g id="a_node3"><a xlink:href="quadpack__module_8f90.html#ac59eaf7c56c1d421d129425895fa0107" target="_top" xlink:title=" ">
<polygon fill="white" stroke="black" points="154.5,-0.5 154.5,-19.5 189.5,-19.5 189.5,-0.5 154.5,-0.5"/>
<text text-anchor="middle" x="172" y="-7.5" font-family="Helvetica,sans-Serif" font-size="10.00">qagi</text>
</a>
</g>
</g>
<!-- Node2&#45;&gt;Node3 -->
<g id="edge2" class="edge">
<title>Node2&#45;&gt;Node3</title>
<path fill="none" stroke="midnightblue" d="M115.3,-38.41C124.45,-33.75 135.58,-28.07 145.48,-23.02"/>
<polygon fill="midnightblue" stroke="midnightblue" points="147.17,-26.08 154.49,-18.42 143.99,-19.85 147.17,-26.08"/>
</g>
<!-- Node4 -->
<g id="node4" class="node">
<title>Node4</title>
<g id="a_node4"><a xlink:href="quadpack__module_8f90.html#a5a75101d080f224c63adde98a0e64386" target="_top" xlink:title=" ">
<polygon fill="white" stroke="black" points="229.5,-38.5 229.5,-57.5 267.5,-57.5 267.5,-38.5 229.5,-38.5"/>
<text text-anchor="middle" x="248.5" y="-45.5" font-family="Helvetica,sans-Serif" font-size="10.00">qextr</text>
</a>
</g>
</g>
<!-- Node2&#45;&gt;Node4 -->
<g id="edge6" class="edge">
<title>Node2&#45;&gt;Node4</title>
<path fill="none" stroke="midnightblue" d="M117.18,-48C143.65,-48 189.63,-48 219.3,-48"/>
<polygon fill="midnightblue" stroke="midnightblue" points="219.43,-51.5 229.43,-48 219.43,-44.5 219.43,-51.5"/>
</g>
<!-- Node7 -->
<g id="node7" class="node">
<title>Node7</title>
<g id="a_node7"><a xlink:href="quadpack__module_8f90.html#abbba06307e0e8c4daa2651945570ba1c" target="_top" xlink:title=" ">
<polygon fill="white" stroke="black" points="153,-76.5 153,-95.5 191,-95.5 191,-76.5 153,-76.5"/>
<text text-anchor="middle" x="172" y="-83.5" font-family="Helvetica,sans-Serif" font-size="10.00">qfour</text>
</a>
</g>
</g>
<!-- Node2&#45;&gt;Node7 -->
<g id="edge7" class="edge">
<title>Node2&#45;&gt;Node7</title>
<path fill="none" stroke="midnightblue" d="M115.3,-57.59C123.96,-62.01 134.41,-67.34 143.9,-72.18"/>
<polygon fill="midnightblue" stroke="midnightblue" points="142.48,-75.38 152.98,-76.81 145.66,-69.15 142.48,-75.38"/>
</g>
<!-- Node3&#45;&gt;Node4 -->
<g id="edge3" class="edge">
<title>Node3&#45;&gt;Node4</title>
<path fill="none" stroke="midnightblue" d="M189.53,-18.43C198.59,-23.05 210.05,-28.9 220.38,-34.17"/>
<polygon fill="midnightblue" stroke="midnightblue" points="218.95,-37.37 229.45,-38.79 222.13,-31.13 218.95,-37.37"/>
</g>
<!-- Node5 -->
<g id="node5" class="node">
<title>Node5</title>
<g id="a_node5"><a xlink:href="quadpack__module_8f90.html#a59164415fc33f2f3bf4ebc4ee2220f7e" target="_top" xlink:title=" ">
<polygon fill="white" stroke="black" points="228.5,-0.5 228.5,-19.5 268.5,-19.5 268.5,-0.5 228.5,-0.5"/>
<text text-anchor="middle" x="248.5" y="-7.5" font-family="Helvetica,sans-Serif" font-size="10.00">qk15i</text>
</a>
</g>
</g>
<!-- Node3&#45;&gt;Node5 -->
<g id="edge4" class="edge">
<title>Node3&#45;&gt;Node5</title>
<path fill="none" stroke="midnightblue" d="M189.53,-10C197.97,-10 208.49,-10 218.24,-10"/>
<polygon fill="midnightblue" stroke="midnightblue" points="218.38,-13.5 228.38,-10 218.38,-6.5 218.38,-13.5"/>
</g>
<!-- Node6 -->
<g id="node6" class="node">
<title>Node6</title>
<g id="a_node6"><a xlink:href="quadpack__module_8f90.html#a55e08a684c5a6315fb37dd0fdc66d8e6" target="_top" xlink:title=" ">
<polygon fill="white" stroke="black" points="229.5,-76.5 229.5,-95.5 267.5,-95.5 267.5,-76.5 229.5,-76.5"/>
<text text-anchor="middle" x="248.5" y="-83.5" font-family="Helvetica,sans-Serif" font-size="10.00">qsort</text>
</a>
</g>
</g>
<!-- Node3&#45;&gt;Node6 -->
<g id="edge5" class="edge">
<title>Node3&#45;&gt;Node6</title>
<path fill="none" stroke="midnightblue" d="M181.98,-19.87C192.55,-31.38 210.72,-50.9 227,-67 227.79,-67.78 228.61,-68.58 229.44,-69.38"/>
<polygon fill="midnightblue" stroke="midnightblue" points="227.27,-72.15 236.95,-76.46 232.07,-67.06 227.27,-72.15"/>
</g>
<!-- Node7&#45;&gt;Node4 -->
<g id="edge12" class="edge">
<title>Node7&#45;&gt;Node4</title>
<path fill="none" stroke="midnightblue" d="M191.03,-76.8C199.85,-72.31 210.63,-66.81 220.41,-61.82"/>
<polygon fill="midnightblue" stroke="midnightblue" points="222.06,-64.91 229.37,-57.25 218.88,-58.67 222.06,-64.91"/>
</g>
<!-- Node7&#45;&gt;Node6 -->
<g id="edge13" class="edge">
<title>Node7&#45;&gt;Node6</title>
<path fill="none" stroke="midnightblue" d="M191.03,-86C199.48,-86 209.75,-86 219.19,-86"/>
<polygon fill="midnightblue" stroke="midnightblue" points="219.37,-89.5 229.37,-86 219.37,-82.5 219.37,-89.5"/>
</g>
<!-- Node8 -->
<g id="node8" class="node">
<title>Node8</title>
<g id="a_node8"><a xlink:href="quadpack__module_8f90.html#ab0843f4831942d2c9bf3430cb71aca06" target="_top" xlink:title=" ">
<polygon fill="white" stroke="black" points="227,-114.5 227,-133.5 270,-133.5 270,-114.5 227,-114.5"/>
<text text-anchor="middle" x="248.5" y="-121.5" font-family="Helvetica,sans-Serif" font-size="10.00">qc25o</text>
</a>
</g>
</g>
<!-- Node7&#45;&gt;Node8 -->
<g id="edge8" class="edge">
<title>Node7&#45;&gt;Node8</title>
<path fill="none" stroke="midnightblue" d="M191.03,-95.2C199.63,-99.58 210.09,-104.92 219.67,-109.81"/>
<polygon fill="midnightblue" stroke="midnightblue" points="218.36,-113.06 228.85,-114.49 221.54,-106.83 218.36,-113.06"/>
</g>
<!-- Node9 -->
<g id="node9" class="node">
<title>Node9</title>
<g id="a_node9"><a xlink:href="quadpack__module_8f90.html#ad5beefcfdb335ea68ccf8397536c8c36" target="_top" xlink:title=" ">
<polygon fill="white" stroke="black" points="307,-152.5 307,-171.5 350,-171.5 350,-152.5 307,-152.5"/>
<text text-anchor="middle" x="328.5" y="-159.5" font-family="Helvetica,sans-Serif" font-size="10.00">qcheb</text>
</a>
</g>
</g>
<!-- Node8&#45;&gt;Node9 -->
<g id="edge9" class="edge">
<title>Node8&#45;&gt;Node9</title>
<path fill="none" stroke="midnightblue" d="M269.18,-133.59C278.14,-137.95 288.92,-143.21 298.77,-148"/>
<polygon fill="midnightblue" stroke="midnightblue" points="297.3,-151.18 307.82,-152.41 300.37,-144.89 297.3,-151.18"/>
</g>
<!-- Node10 -->
<g id="node10" class="node">
<title>Node10</title>
<g id="a_node10"><a xlink:href="quadpack__module_8f90.html#a0c083838940925726abd5bc85fa29587" target="_top" xlink:title=" ">
<polygon fill="white" stroke="black" points="306,-114.5 306,-133.5 351,-133.5 351,-114.5 306,-114.5"/>
<text text-anchor="middle" x="328.5" y="-121.5" font-family="Helvetica,sans-Serif" font-size="10.00">qk15w</text>
</a>
</g>
</g>
<!-- Node8&#45;&gt;Node10 -->
<g id="edge10" class="edge">
<title>Node8&#45;&gt;Node10</title>
<path fill="none" stroke="midnightblue" d="M270.4,-124C278.23,-124 287.31,-124 295.89,-124"/>
<polygon fill="midnightblue" stroke="midnightblue" points="296,-127.5 306,-124 296,-120.5 296,-127.5"/>
</g>
<!-- Node11 -->
<g id="node11" class="node">
<title>Node11</title>
<g id="a_node11"><a xlink:href="quadpack__module_8f90.html#a4d09bff14f1d979ebc37730c4a991469" target="_top" xlink:title=" ">
<polygon fill="white" stroke="black" points="307,-76.5 307,-95.5 350,-95.5 350,-76.5 307,-76.5"/>
<text text-anchor="middle" x="328.5" y="-83.5" font-family="Helvetica,sans-Serif" font-size="10.00">qwgto</text>
</a>
</g>
</g>
<!-- Node8&#45;&gt;Node11 -->
<g id="edge11" class="edge">
<title>Node8&#45;&gt;Node11</title>
<path fill="none" stroke="midnightblue" d="M269.18,-114.41C278.14,-110.05 288.92,-104.79 298.77,-100"/>
<polygon fill="midnightblue" stroke="midnightblue" points="300.37,-103.11 307.82,-95.59 297.3,-96.82 300.37,-103.11"/>
</g>
</g>
</svg>
